<svg width="25" height="24" viewBox="0 0 25 24" fill="none" xmlns="http://www.w3.org/2000/svg">
<path fill-rule="evenodd" clip-rule="evenodd" d="M10.96 5.20344C11.393 5.54344 11.642 6.05044 11.642 6.59444C11.642 10.9794 11.79 12.1594 12.395 12.6084C12.792 12.9014 13.336 12.8984 15.169 12.8474C16.021 12.8224 17.112 12.7904 18.541 12.7904C19.111 12.7904 19.648 13.0344 20.012 13.4594C20.35 13.8544 20.498 14.3704 20.42 14.8784C19.752 19.2034 16.072 22.3444 11.67 22.3444C6.78599 22.3444 2.81299 18.3714 2.81299 13.4884C2.81299 9.61644 5.74099 5.74444 9.33999 4.85844C9.90199 4.72144 10.506 4.84944 10.96 5.20344ZM20.8634 3.73374C22.6214 5.49074 23.7374 7.79974 23.7054 9.61674C23.6934 10.3257 23.1784 10.9177 22.4824 11.0227C21.1244 11.2277 19.5344 11.2897 18.1274 11.2897C16.8174 11.2897 15.6644 11.2367 15.0014 11.1987C14.1674 11.1497 13.5034 10.4847 13.4554 9.65074C13.3774 8.32874 13.2084 4.96974 13.3284 2.37174C13.3614 1.61674 13.9714 1.01574 14.7174 1.00274C16.8544 0.940742 19.0594 1.93274 20.8634 3.73374ZM14.8454 2.50174H14.8234C14.7134 5.02074 14.8764 8.27474 14.9524 9.56374C14.9564 9.64074 15.0124 9.69674 15.0884 9.70074C16.1164 9.75974 19.6584 9.92374 22.2054 9.54874C22.2114 8.14474 21.2504 6.24074 19.8034 4.79474C18.3194 3.31274 16.5634 2.50174 14.8454 2.50174Z" fill="#0A9829"/>
</svg>
