<svg width="25" height="24" viewBox="0 0 25 24" fill="none" xmlns="http://www.w3.org/2000/svg">
<g id="Graph">
<g id="Iconly/Light-Outline/Graph">
<g id="Graph_2">
<path id="Combined-Shape" fill-rule="evenodd" clip-rule="evenodd" d="M10.8975 5.20344C11.3305 5.54344 11.5795 6.05044 11.5795 6.59444C11.5795 10.9794 11.7275 12.1594 12.3325 12.6084C12.7295 12.9014 13.2735 12.8984 15.1065 12.8474C15.9585 12.8224 17.0495 12.7904 18.4785 12.7904C19.0485 12.7904 19.5855 13.0344 19.9495 13.4594C20.2875 13.8544 20.4355 14.3704 20.3575 14.8784C19.6895 19.2034 16.0095 22.3444 11.6075 22.3444C6.72349 22.3444 2.75049 18.3714 2.75049 13.4884C2.75049 9.61644 5.67849 5.74444 9.27749 4.85844C9.83949 4.72144 10.4435 4.84944 10.8975 5.20344ZM9.73249 6.30344C9.70049 6.30344 9.66849 6.30744 9.63649 6.31544C6.66649 7.04644 4.25049 10.2644 4.25049 13.4884C4.25049 17.5444 7.55049 20.8444 11.6075 20.8444C15.2645 20.8444 18.3205 18.2394 18.8745 14.6494C18.8785 14.6194 18.8925 14.5324 18.8105 14.4354C18.7325 14.3444 18.6085 14.2904 18.4785 14.2904C17.0675 14.2904 15.9905 14.3224 15.1495 14.3464C13.1135 14.4074 12.2715 14.4304 11.4395 13.8134C10.2498 12.9321 10.0934 11.4504 10.0805 7.29248L10.0795 6.59444C10.0795 6.51044 10.0435 6.44044 9.97149 6.38444C9.90449 6.33144 9.81949 6.30344 9.73249 6.30344ZM20.8009 3.73374C22.5589 5.49074 23.6749 7.79974 23.6429 9.61674C23.6309 10.3257 23.1159 10.9177 22.4199 11.0227C21.0619 11.2277 19.4719 11.2897 18.0649 11.2897C16.7549 11.2897 15.6019 11.2367 14.9389 11.1987C14.1049 11.1497 13.4409 10.4847 13.3929 9.65074C13.3149 8.32874 13.1459 4.96974 13.2659 2.37174C13.2989 1.61674 13.9089 1.01574 14.6549 1.00274C16.7919 0.940742 18.9969 1.93274 20.8009 3.73374ZM14.7829 2.50174H14.7609C14.6509 5.02074 14.8139 8.27474 14.8899 9.56374C14.8939 9.64074 14.9499 9.69674 15.0259 9.70074C16.0539 9.75974 19.5959 9.92374 22.1429 9.54874C22.1489 8.14474 21.1879 6.24074 19.7409 4.79474C18.2569 3.31274 16.5009 2.50174 14.7829 2.50174Z" fill="#222222"/>
</g>
</g>
</g>
</svg>
