<svg width="355" height="146" viewBox="0 0 355 146" fill="none" xmlns="http://www.w3.org/2000/svg">
<g filter="url(#filter0_d_2196_47418)">
<path fill-rule="evenodd" clip-rule="evenodd" d="M89.7503 14.8518C83.783 16.9163 78.6077 18.8994 78.2485 19.2572C77.8907 19.6164 78.6051 23.6342 79.8363 28.1855C81.9136 35.8594 81.924 36.7573 79.9784 40.5193C77.6452 45.0319 76.2939 44.7903 73.4879 39.363C71.7735 36.0467 71.8368 34.9641 74.1428 28.2618C75.5484 24.1768 76.6982 20.4354 76.6982 19.9484C76.6982 18.8412 53.9569 11.7913 52.3382 12.3972C51.687 12.6414 49.1717 15.4577 46.7494 18.6552C43.4215 23.0489 40.6258 25.0992 35.2967 27.0525C31.4198 28.4736 27.6022 30.0575 26.8128 30.5717C25.8607 31.1931 25.5726 35.5287 25.9576 43.4907L26.5376 55.4743L18.7682 65.9581L11 76.4431L16.032 83.3987C20.6453 89.7781 21.0665 91.0609 21.1053 98.855L21.1466 107.354L33.7426 110.89C45.8981 114.302 46.4833 114.638 50.4856 120.477C52.7658 123.805 56.254 128.388 58.237 130.66L61.8414 134.79L69.5631 132.324C76.8326 130.001 77.702 129.978 84.4199 131.921C88.3447 133.055 92.1648 134.214 92.9115 134.495C93.657 134.775 97.4358 130.327 101.309 124.61L108.35 114.216L120.946 110.26L133.542 106.304V98.0643C133.542 90.5558 133.997 89.1761 138.655 82.5241L143.768 75.2248L136.394 65.9955L129.02 56.7662L128.374 43.3059L127.728 29.8469L119.796 27.1572C113.158 24.908 110.992 23.3616 106.523 17.6863C103.587 13.9566 101.052 10.9477 100.892 11.0007C100.73 11.0549 95.7163 12.7874 89.7503 14.8518ZM49.4146 23.4998C45.6099 28.5964 43.5132 30.0898 37.5098 31.9824C31.195 33.9732 30.2958 34.6579 30.757 37.1255C31.0503 38.6912 31.3332 42.4416 31.3862 45.4621L31.4818 50.9527H38.8391C45.0532 50.9527 46.7571 51.4888 49.7983 54.4033C53.1223 57.5866 53.8575 57.761 59.3248 56.6642C64.2559 55.6733 65.7042 54.672 67.965 50.6865C70.5875 46.0654 70.6043 45.7269 68.4804 40.9973C66.4651 36.5131 66.4457 35.5455 68.244 29.6363C69.3253 26.0836 70.2168 23.0787 70.2245 22.9572C70.2323 22.8371 67.1873 21.7351 63.4563 20.5091C59.7253 19.2818 56.0796 18.0609 55.3535 17.7961C54.6275 17.53 51.9545 20.097 49.4146 23.4998ZM90.1133 20.1383L83.504 22.7453L85.7389 29.9684C87.8951 36.9407 87.8874 37.3373 85.4922 41.3965L83.0104 45.6029L86.2156 50.6801C88.8718 54.8891 90.3575 55.9084 94.8894 56.6331C99.6139 57.3889 100.813 57.0711 103.708 54.3026C106.372 51.7536 108.647 51.016 114.809 50.702L122.561 50.3067L122.939 41.7285L123.318 33.1503L116.763 31.5781C111.401 30.2913 109.237 28.8547 104.878 23.6846C101.947 20.2081 98.9124 17.4008 98.1347 17.4473C97.3583 17.4938 93.7487 18.7043 90.1133 20.1383ZM205.038 25.8911C202.492 29.7784 203.926 33.512 207.967 33.512C211.696 33.512 212.081 27.7243 208.415 26.7657L205.57 26.0216L208.636 24.3227C210.991 23.0166 211.185 22.6123 209.471 22.5761C208.243 22.5516 206.249 24.0424 205.038 25.8911ZM338.954 24.0385C338.954 24.6302 339.5 25.1147 340.169 25.1147C340.839 25.1147 341.685 24.6302 342.05 24.0385C342.416 23.4456 341.869 22.9611 340.835 22.9611C339.8 22.9611 338.954 23.4456 338.954 24.0385ZM152.057 28.4452C150.836 31.6246 154.641 34.7109 157.739 33.0521C159.555 32.0806 160.699 32.1181 161.766 33.1852C162.891 34.3104 163.651 34.2768 164.87 33.0482C166.165 31.7434 166.063 31.5819 164.355 32.2318C163.183 32.6775 161.841 32.4217 161.372 31.662C160.85 30.8171 161.841 30.2823 163.932 30.2823C168.094 30.2823 167.638 27.2515 163.383 26.6275C161.354 26.3304 160.279 26.9815 159.805 28.7992C159.08 31.5651 156.04 33.3493 154.096 32.1478C152.055 30.8869 152.816 28.949 155.827 27.7385L158.734 26.5707L155.787 26.488C154.166 26.4441 152.487 27.3238 152.057 28.4452ZM168.573 31.8972C168.656 34.9176 168.982 36.402 169.3 35.1979C169.617 33.9939 170.654 33.3079 171.602 33.6722C172.552 34.0365 173.73 33.6852 174.221 32.8919C174.873 31.8364 175.597 31.8507 176.919 32.9475C179.586 35.1618 182.634 33.4177 182.634 29.6764C182.634 27.0797 181.991 26.4066 179.511 26.4066C177.794 26.4066 176.097 27.1339 175.738 28.0215C175.217 29.3134 175.066 29.3134 174.985 28.0215C174.929 27.1339 173.429 26.4066 171.653 26.4066C168.69 26.4066 168.436 26.8613 168.573 31.8972ZM184.076 30.1595C183.928 34.4784 183.972 34.5158 186.51 32.2201C188.216 30.6763 189.093 30.436 189.093 31.5122C189.093 32.4087 189.894 32.8351 190.874 32.4591C191.853 32.0832 193.251 32.3726 193.979 33.1012C194.884 34.0055 196.059 33.9435 197.69 32.9023C199.675 31.6336 199.704 31.4941 197.862 32.0638C196.462 32.4966 194.674 31.5109 193.005 29.3883C190.485 26.1844 190.247 26.1314 187.904 28.2527C185.573 30.3611 185.413 30.3546 184.835 28.1183C184.499 26.8213 184.158 27.7398 184.076 30.1595ZM192.969 27.3755C192.969 27.9078 194.367 28.3444 196.076 28.3444C197.784 28.3444 198.912 27.9078 198.582 27.3755C198.254 26.8432 196.856 26.4066 195.477 26.4066C194.097 26.4066 192.969 26.8432 192.969 27.3755ZM212.497 31.8972C212.58 34.9176 212.907 36.402 213.225 35.1979C213.541 33.9939 214.544 33.2937 215.451 33.6425C216.359 33.99 217.852 33.3712 218.77 32.2641C220.275 30.4515 220.594 30.4657 222.02 32.4152C224.22 35.424 227.85 33.7174 227.85 29.6764C227.85 27.05 227.215 26.4066 224.621 26.4066C222.844 26.4066 221.391 27.1042 221.391 27.9569C221.391 29.1622 221.046 29.1622 219.841 27.9569C218.988 27.1042 216.953 26.4066 215.319 26.4066C212.661 26.4066 212.363 26.9854 212.497 31.8972ZM229.394 30.2823C229.42 32.7692 229.708 33.7872 230.032 32.5431C230.653 30.1712 234.31 29.3431 234.31 31.5742C234.31 32.2847 235.825 32.8661 237.678 32.8661C240.218 32.8661 240.853 32.3635 240.262 30.8223C239.83 29.6983 239.477 28.245 239.477 27.5925C239.477 26.9401 238.315 26.4066 236.894 26.4066C235.473 26.4066 234.31 26.9879 234.31 27.6985C234.31 29.5575 230.771 29.2927 229.997 27.3755C229.64 26.488 229.368 27.7954 229.394 30.2823ZM241.568 28.4116C241.145 29.5149 241.333 30.0872 241.984 29.6841C242.635 29.2811 243.422 30.2694 243.73 31.8778C244.143 34.0172 244.34 33.6748 244.469 30.6053C244.652 26.2425 242.907 24.9222 241.568 28.4116ZM246.087 31.8972C246.17 34.9176 246.504 36.3633 246.831 35.1114C247.158 33.8596 247.987 33.1826 248.675 33.6076C249.363 34.0327 250.773 33.6774 251.807 32.8196C253.221 31.6465 254.13 31.6246 255.462 32.7304C258.061 34.8866 261.649 33.0469 261.185 29.7952C260.595 25.6612 255.807 25.594 252.598 29.6738C249.86 33.1542 247.229 33.0237 247.229 29.409C247.229 28.0331 248.045 27.6106 249.813 28.0731C251.234 28.4439 252.396 28.2217 252.396 27.5771C252.396 26.9337 250.943 26.4066 249.167 26.4066C246.204 26.4066 245.95 26.8613 246.087 31.8972ZM262.732 30.1027C262.732 33.9241 262.823 33.9771 269.191 33.7484C275.322 33.5301 275.651 33.3376 275.651 29.9619C275.651 27.1094 275.076 26.4247 272.744 26.497C270.081 26.581 270.046 26.6701 272.327 27.5628C274.636 28.4685 274.652 28.6015 272.544 29.4102C269.19 30.697 267.859 30.4774 268.222 28.6984C268.4 27.8264 267.236 26.9143 265.638 26.6701C263.171 26.2942 262.732 26.8135 262.732 30.1027ZM277.194 30.2823C277.22 32.7692 277.508 33.7872 277.833 32.5431C278.515 29.9348 281.586 29.5149 282.547 31.8972C282.905 32.786 283.198 31.768 283.198 29.6363C283.198 27.5047 282.905 26.488 282.547 27.3755C282.188 28.2643 281.119 28.9904 280.172 28.9904C279.225 28.9904 278.157 28.2643 277.798 27.3755C277.44 26.488 277.169 27.7954 277.194 30.2823ZM284.694 29.6363C284.694 33.3415 286.2 33.7833 288.673 30.8029C290.228 28.9297 290.473 28.9594 291.325 31.1259C292.077 33.0366 292.281 32.8041 292.355 29.9593C292.46 25.8537 291.5 25.4751 289.076 28.6674C287.442 30.821 287.358 30.821 287.319 28.6674C287.254 25.0927 284.694 26.0384 284.694 29.6363ZM294.02 30.2771C294.107 33.3079 294.496 33.8441 295.815 32.7498C296.742 31.9811 298.106 31.7266 298.848 32.1853C299.65 32.6813 300.197 31.6801 300.197 29.7126C300.197 27.0719 299.565 26.4066 297.054 26.4066C294.399 26.4066 293.927 27.0086 294.02 30.2771ZM304.072 29.6363C304.072 31.4127 304.654 32.8661 305.364 32.8661C306.075 32.8661 306.656 31.7034 306.656 30.2823C306.656 26.8019 309.044 27.0021 310.492 30.6053C311.134 32.2046 311.697 33.0043 311.742 32.3855C311.786 31.7654 312.62 31.9178 313.592 32.7253C316.237 34.9202 321.34 33.6864 322.788 30.5019C324.51 26.7166 325.753 26.975 326.402 31.2512C326.902 34.5585 326.953 34.5133 327.133 30.6053C327.301 26.975 326.904 26.4066 324.211 26.4066C321.966 26.4066 321.198 27.0383 321.46 28.6674C322.054 32.3545 320.398 33.7665 319.574 30.2758C318.725 26.6843 314.662 25.2193 312.967 27.8948C312.149 29.1842 311.859 29.2178 311.843 28.0215C311.833 27.0926 310.177 26.4066 307.948 26.4066C304.676 26.4066 304.072 26.9091 304.072 29.6363ZM329.082 28.3535C327.894 31.4489 331.936 35.2367 334.1 33.0573C335.406 31.7408 335.308 31.5794 333.594 32.2318C332.422 32.6775 331.08 32.4217 330.611 31.662C330.089 30.8171 331.08 30.2823 333.171 30.2823C335.325 30.2823 336.389 29.6854 336.053 28.6674C335.224 26.1482 330.019 25.9144 329.082 28.3535ZM337.443 28.4142C336.273 32.9203 337.743 34.6166 340.01 31.3791L342.084 28.4181L342.974 31.6117C343.787 34.5262 343.875 34.4383 343.992 30.6053C344.132 26.081 342.39 24.9932 340.892 28.6674C340.039 30.7551 339.897 30.7357 339.032 28.4142C338.105 25.9221 338.089 25.9221 337.443 28.4142ZM169.944 29.7048C170.528 32.5108 172.821 32.6826 173.345 29.9593C173.616 28.5447 172.983 27.6985 171.653 27.6985C170.411 27.6985 169.699 28.5343 169.944 29.7048ZM178.517 28.5808C179.448 28.9542 180.563 28.9077 180.992 28.4788C181.421 28.0499 180.659 27.745 179.297 27.8005C177.792 27.8625 177.486 28.1687 178.517 28.5808ZM206.117 29.7048C206.701 32.5108 208.994 32.6826 209.518 29.9593C209.79 28.5447 209.157 27.6985 207.826 27.6985C206.584 27.6985 205.873 28.5343 206.117 29.7048ZM214.216 29.1028C212.885 31.2577 215.878 33.7278 217.661 31.945C219.152 30.4541 218.219 27.6985 216.223 27.6985C215.597 27.6985 214.694 28.3302 214.216 29.1028ZM222.911 29.7048C223.495 32.5108 225.788 32.6826 226.313 29.9593C226.584 28.5447 225.951 27.6985 224.621 27.6985C223.379 27.6985 222.667 28.5343 222.911 29.7048ZM235.704 29.7435C235.766 31.2486 236.072 31.5548 236.484 30.5252C236.857 29.5924 236.811 28.4775 236.382 28.0486C235.953 27.6197 235.648 28.3819 235.704 29.7435ZM255.537 29.1351C254.563 30.7112 257.465 33.0805 259.117 32.0586C259.684 31.7085 260.148 30.5846 260.148 29.5601C260.148 27.3678 256.819 27.0603 255.537 29.1351ZM295.675 28.9904C296.114 29.7009 296.729 30.2823 297.043 30.2823C297.357 30.2823 297.613 29.7009 297.613 28.9904C297.613 28.2798 296.997 27.6985 296.245 27.6985C295.493 27.6985 295.236 28.2798 295.675 28.9904ZM314.636 29.7048C315.22 32.5108 317.513 32.6826 318.038 29.9593C318.309 28.5447 317.676 27.6985 316.345 27.6985C315.104 27.6985 314.392 28.5343 314.636 29.7048ZM178.758 31.5742C178.758 32.2847 179.34 32.8661 180.05 32.8661C180.761 32.8661 181.342 32.2847 181.342 31.5742C181.342 30.8636 180.761 30.2823 180.05 30.2823C179.34 30.2823 178.758 30.8636 178.758 31.5742ZM264.024 31.5742C264.024 32.2847 264.605 32.8661 265.315 32.8661C266.026 32.8661 266.607 32.2847 266.607 31.5742C266.607 30.8636 266.026 30.2823 265.315 30.2823C264.605 30.2823 264.024 30.8636 264.024 31.5742ZM271.775 31.6504C271.775 32.4023 272.356 32.6594 273.067 32.2201C273.777 31.7809 274.359 31.1659 274.359 30.852C274.359 30.5381 273.777 30.2823 273.067 30.2823C272.356 30.2823 271.775 30.8985 271.775 31.6504ZM152.353 46.108C152.848 47.7074 154.352 51.1955 155.697 53.8594C158.136 58.695 158.155 58.7041 166.373 58.7041C172.689 58.7041 174.788 59.1795 175.39 60.7478C175.822 61.8718 176.174 71.7548 176.174 82.7101V102.629H183.926H191.677V81.9582C191.677 70.5895 191.533 60.8512 191.354 60.3189C191.176 59.7867 195.39 59.0593 200.717 58.7041C210.299 58.0646 210.425 58.0103 212.5 53.5365C213.654 51.0496 215.002 47.7074 215.497 46.108L216.398 43.2013H183.926H151.454L152.353 46.108ZM232.3 46.2682C216.293 53.7212 209.507 71.2406 216.723 86.4799C226.527 107.183 250.052 111.521 266.005 95.5671C276.036 85.5368 278.272 74.0776 272.584 61.8615C265.128 45.8497 247.693 39.1008 232.3 46.2682ZM282.11 83.2501V123.299H289.862H297.613V112.375V101.452L302.943 103.331C327.941 112.152 352.224 86.1789 341.234 62.3769C339.481 58.5813 336.481 53.9305 334.569 52.043C326.801 44.3756 313.353 41.3086 303.103 44.8678C298.488 46.4711 297.613 46.4904 297.613 44.988C297.613 43.6651 295.599 43.2013 289.862 43.2013H282.11V83.2501ZM72.7644 52.5675C67.8164 60.6432 67.5865 60.8111 60.0134 61.9454C56.7552 62.4325 53.6508 63.1017 53.1133 63.4324C52.5759 63.7631 54.546 66.8934 57.4928 70.388C62.7767 76.6537 62.84 76.8513 62.1346 84.6389C61.3311 93.4923 60.6761 93.2003 71.802 88.9384C77.7964 86.6414 77.9875 86.6491 84.7455 89.4499C88.5178 91.0144 91.9065 92.2934 92.2734 92.2934C92.6416 92.2934 92.6002 88.7174 92.183 84.347C91.4246 76.425 91.44 76.3785 97.0301 69.8299C100.115 66.2164 102.18 63.1443 101.619 63.0022C101.057 62.8601 97.2342 62.0798 93.1234 61.2685C85.912 59.8461 85.5103 59.5477 81.6966 52.7897C79.5223 48.9373 77.5586 45.7851 77.3312 45.7851C77.1052 45.7851 75.0498 48.8378 72.7644 52.5675ZM106.892 58.8759C102.84 63.1068 103.098 63.7063 109.416 64.7308C113.335 65.3677 115.017 64.7566 120.557 60.6897C124.146 58.0555 127.082 55.6397 127.082 55.3206C127.082 55.0015 123.332 54.8439 118.748 54.9705C111.43 55.172 109.987 55.6474 106.892 58.8759ZM34.0281 61.1445C37.8961 63.9078 41.6684 65.9904 42.4087 65.7733C43.1489 65.5563 45.3619 65.0266 47.3243 64.5964L50.8951 63.8135L48.0504 59.9675C45.3632 56.3321 44.7057 56.1203 36.1003 56.1203H26.9937L34.0281 61.1445ZM239.599 60.3641C226.924 64.8845 226.524 82.7127 238.979 87.9165C251.134 92.9949 263.456 80.7503 258.391 68.6271C255.2 60.9894 247.427 57.5724 239.599 60.3641ZM308.779 60.0063C303.441 61.6431 300.37 64.8897 298.862 70.4887C296.28 80.0798 302.877 88.6154 313.079 88.8841C319.716 89.0572 324.895 85.1932 327.081 78.4339C328.514 74.0066 328.48 72.5015 326.867 68.6375C323.829 61.3718 316.199 57.73 308.779 60.0063ZM120.804 66.6208C115.994 70.1593 114.604 70.5663 109.653 69.8867C104.491 69.1801 103.708 69.4552 100.682 73.0506C98.1295 76.0853 97.3686 78.4171 97.3686 83.2088C97.3686 89.2329 97.5275 89.4926 102.408 91.4459C106.792 93.199 107.758 94.3772 109.837 100.492L112.225 107.522L120.3 105.029L128.374 102.534V95.3268C128.374 89.0882 128.998 87.2679 133.011 81.8019L137.647 75.4858L132.245 69.0328C129.273 65.4839 126.719 62.5798 126.571 62.5798C126.421 62.5798 123.827 64.3988 120.804 66.6208ZM21.817 70.2976L17.1003 76.7222L21.7073 82.7566C25.7367 88.0327 26.3142 89.707 26.3142 96.111V103.432L33.0966 105.152C36.8276 106.099 40.5612 107.126 41.3958 107.434C42.3014 107.77 43.822 105.114 45.1681 100.845C47.1499 94.5594 48.0245 93.4497 52.3717 91.7108C57.1272 89.8078 57.3197 89.4939 57.3197 83.6455C57.3197 78.5993 56.6402 76.8591 53.3445 73.4575C49.7311 69.7304 48.9353 69.4552 44.6242 70.4474C40.4837 71.3995 39.1944 71.0494 34.5009 67.7047C31.5425 65.5963 28.5388 63.8717 27.8283 63.8717C27.1164 63.8717 24.4112 66.7629 21.817 70.2976ZM71.342 94.3824C67.2351 96.0877 66.5258 97.0412 65.8101 101.813C65.2016 105.871 64.0803 107.85 61.4771 109.465C52.5333 115.013 52.6172 114.721 57.9179 121.943C60.5521 125.53 63.1462 128.467 63.6837 128.467C64.2211 128.467 67.5141 127.606 71.0022 126.556C76.6969 124.839 78.118 124.861 84.925 126.768C91.4103 128.585 92.6583 128.628 93.5575 127.065C94.1363 126.06 96.1026 123.234 97.9267 120.788C99.7522 118.339 101.244 115.967 101.244 115.515C101.244 115.063 98.6295 112.815 95.4334 110.521C90.7528 107.159 89.4673 105.373 88.8214 101.338C88.1289 97.0063 87.337 96.0541 82.9794 94.3101C76.9876 91.9136 77.2938 91.911 71.342 94.3824ZM55.1971 96.0709C52.2839 97.8473 50.5127 100.425 48.9289 105.193C47.7145 108.849 46.9665 112.085 47.2675 112.385C47.8785 112.996 58.7292 105.391 60.2071 103.316C61.4564 101.562 61.4719 93.584 60.2265 93.5905C59.693 93.5931 57.4308 94.7093 55.1971 96.0709ZM93.4929 96.9003C93.4929 98.7232 94.0213 101.202 94.6685 102.41C95.9811 104.864 107.704 113.658 107.704 112.189C107.704 111.674 106.713 108.108 105.501 104.263C103.658 98.4157 102.576 96.9727 98.8827 95.4301C93.2526 93.0776 93.4929 93.0117 93.4929 96.9003Z" fill="white"/>
</g>
<defs>
<filter id="filter0_d_2196_47418" x="0.684132" y="0.684132" width="353.632" height="144.423" filterUnits="userSpaceOnUse" color-interpolation-filters="sRGB">
<feFlood flood-opacity="0" result="BackgroundImageFix"/>
<feColorMatrix in="SourceAlpha" type="matrix" values="0 0 0 0 0 0 0 0 0 0 0 0 0 0 0 0 0 0 127 0" result="hardAlpha"/>
<feOffset/>
<feGaussianBlur stdDeviation="5.15793"/>
<feComposite in2="hardAlpha" operator="out"/>
<feColorMatrix type="matrix" values="0 0 0 0 0 0 0 0 0 0 0 0 0 0 0 0 0 0 0.07 0"/>
<feBlend mode="normal" in2="BackgroundImageFix" result="effect1_dropShadow_2196_47418"/>
<feBlend mode="normal" in="SourceGraphic" in2="effect1_dropShadow_2196_47418" result="shape"/>
</filter>
</defs>
</svg>
