<svg width="21" height="20" viewBox="0 0 21 20" fill="none" xmlns="http://www.w3.org/2000/svg">
<g clip-path="url(#clip0_653_21438)">
<path d="M14.4774 0.0100088C14.4349 -0.0374912 12.9037 0.0287588 11.5712 1.47501C10.2387 2.92001 10.4437 4.57751 10.4737 4.62001C10.5037 4.66251 12.3737 4.72876 13.5674 3.04751C14.7612 1.36626 14.5199 0.0587588 14.4774 0.0100088ZM18.6199 14.6763C18.5599 14.5563 15.7137 13.1338 15.9787 10.3988C16.2437 7.66251 18.0724 6.91251 18.1012 6.83126C18.1299 6.75001 17.3549 5.84376 16.5337 5.38501C15.9307 5.06157 15.2633 4.87627 14.5799 4.84251C14.4449 4.83876 13.9762 4.72376 13.0124 4.98751C12.3774 5.16126 10.9462 5.72376 10.5524 5.74626C10.1574 5.76876 8.98241 5.09376 7.71866 4.91501C6.90991 4.75876 6.05241 5.07876 5.43866 5.32501C4.82616 5.57001 3.66116 6.26751 2.84616 8.12126C2.03116 9.97376 2.45741 12.9088 2.76241 13.8213C3.06741 14.7325 3.54366 16.2263 4.35366 17.3163C5.07366 18.5463 6.02866 19.4 6.42741 19.69C6.82616 19.98 7.95116 20.1725 8.73116 19.7738C9.35866 19.3888 10.4912 19.1675 10.9387 19.1838C11.3849 19.2 12.2649 19.3763 13.1662 19.8575C13.8799 20.1038 14.5549 20.0013 15.2312 19.7263C15.9074 19.45 16.8862 18.4025 18.0287 16.2788C18.4624 15.2913 18.6599 14.7575 18.6199 14.6763Z" fill="black"/>
<path d="M14.4774 0.0100088C14.4349 -0.0374912 12.9037 0.0287588 11.5712 1.47501C10.2387 2.92001 10.4437 4.57751 10.4737 4.62001C10.5037 4.66251 12.3737 4.72876 13.5674 3.04751C14.7612 1.36626 14.5199 0.0587588 14.4774 0.0100088ZM18.6199 14.6763C18.5599 14.5563 15.7137 13.1338 15.9787 10.3988C16.2437 7.66251 18.0724 6.91251 18.1012 6.83126C18.1299 6.75001 17.3549 5.84376 16.5337 5.38501C15.9307 5.06157 15.2633 4.87627 14.5799 4.84251C14.4449 4.83876 13.9762 4.72376 13.0124 4.98751C12.3774 5.16126 10.9462 5.72376 10.5524 5.74626C10.1574 5.76876 8.98241 5.09376 7.71866 4.91501C6.90991 4.75876 6.05241 5.07876 5.43866 5.32501C4.82616 5.57001 3.66116 6.26751 2.84616 8.12126C2.03116 9.97376 2.45741 12.9088 2.76241 13.8213C3.06741 14.7325 3.54366 16.2263 4.35366 17.3163C5.07366 18.5463 6.02866 19.4 6.42741 19.69C6.82616 19.98 7.95116 20.1725 8.73116 19.7738C9.35866 19.3888 10.4912 19.1675 10.9387 19.1838C11.3849 19.2 12.2649 19.3763 13.1662 19.8575C13.8799 20.1038 14.5549 20.0013 15.2312 19.7263C15.9074 19.45 16.8862 18.4025 18.0287 16.2788C18.4624 15.2913 18.6599 14.7575 18.6199 14.6763Z" fill="#383838"/>
</g>
<defs>
<clipPath id="clip0_653_21438">
<rect width="20" height="20" fill="white" transform="translate(0.5)"/>
</clipPath>
</defs>
</svg>
