<svg width="512" height="512" viewBox="0 0 512 512" fill="none" xmlns="http://www.w3.org/2000/svg">
<path d="M94.2077 81C88.8277 81 81.8397 83.49 71.8497 89.967C75.8157 94.649 80.0167 99.654 88.3197 109.223C94.1017 115.886 99.9377 122.513 104.346 127.311C104.384 127.353 104.401 127.366 104.438 127.407L135.332 109.475L120.68 95.327C109.388 85.923 102.036 81.461 95.2617 81.034C94.9104 81.0115 94.5596 81.0001 94.2077 81ZM214.288 96.082C213.407 96.0723 212.526 96.0757 211.645 96.092C201.185 96.285 191.445 98.322 184.903 101.516L117.641 140.554C120.091 141.098 122.526 141.75 124.928 142.574C142.203 148.497 158.021 160.797 174.496 177.274L390.936 390.774L471.914 346.341L258.998 110.937C250.342 103.097 236.508 98.029 222.305 96.543C219.641 96.2658 216.965 96.1123 214.287 96.083L214.288 96.082ZM58.6497 102.297C41.1067 123.02 38.0797 139.483 43.3237 159.301C44.0157 161.919 46.3807 165.658 49.6967 169.771C51.9558 166.536 54.3191 163.375 56.7827 160.293C60.7727 155.298 65.1677 151.11 69.8677 147.735L69.7617 147.535L72.5297 145.925C73.8719 145.069 75.2499 144.271 76.6597 143.532L88.5277 136.642C83.875 131.481 79.2738 126.273 74.7247 121.02C69.3371 114.804 63.9781 108.563 58.6497 102.297ZM242.743 115.735L301.158 177.405C255.072 172.368 244.368 190.605 232.131 211.605L174.797 152.301L242.743 115.735ZM104.16 156.787C103.443 156.771 102.726 156.771 102.01 156.789C95.0337 156.969 87.8027 158.847 79.7577 162.674C76.7227 164.964 73.7677 167.87 70.8477 171.526C45.0777 203.79 40.3977 230.661 45.3637 255.003C50.3287 279.346 65.8997 301.659 83.2797 321.458C96.5937 336.626 112.14 345.45 131.752 349.388C151.366 353.328 175.19 352.096 203.732 345.913C236.978 338.713 269.742 354.333 299.542 373.578C325.66 390.446 350.218 410.668 370.522 423.528L379.312 404.593L161.792 190.023L161.77 190.001C146.246 174.477 132.205 164.096 119.088 159.599C114.068 157.877 109.163 156.905 104.16 156.787ZM471.24 367.243L397.79 407.547L387.31 430.114L458.143 391.704L471.239 367.244L471.24 367.243Z" fill="#222222"/>
</svg>
