<svg width="44" height="34" viewBox="0 0 44 34" fill="none" xmlns="http://www.w3.org/2000/svg">
<path fill-rule="evenodd" clip-rule="evenodd" d="M15 0C6.71573 0 0 6.71573 0 15C0 23.2843 6.71573 30 15 30H17.2239C17.4379 30 17.6325 30.1163 17.76 30.2881L19.5911 32.7549C20.7906 34.3707 23.2094 34.3707 24.4089 32.7549L26.24 30.2881C26.3675 30.1163 26.5621 30 26.7761 30H29C37.2843 30 44 23.2843 44 15C44 6.71573 37.2843 0 29 0H15Z" fill="#222222"/>
<path d="M24.0001 9L18.7072 14.2929C18.3167 14.6834 18.3167 15.3166 18.7072 15.7071L24.0001 21" stroke="#FAFAFA" stroke-width="2" stroke-linecap="round"/>
</svg>
