<svg width="20" height="20" viewBox="0 0 20 20" fill="none" xmlns="http://www.w3.org/2000/svg">
<g clip-path="url(#clip0_3571_16977)">
<path d="M19.5623 10.2045C19.5689 9.98172 19.6276 6.79703 17.7429 4.72391C17.6592 4.53859 17.262 3.79172 15.9801 2.87891C15.4118 2.4381 14.8082 2.04479 14.1754 1.70297L14.1729 1.70172C14.0929 1.65891 12.5298 0.832031 10.6326 0.832031C10.4886 0.832031 10.3461 0.840469 10.2051 0.850156V0.847656C8.75856 0.816094 7.32168 1.18828 6.45574 1.57922C5.68762 1.92609 4.83481 2.50766 4.77324 2.55266C3.70949 3.14766 1.69231 5.53547 1.53262 6.80078C0.887931 7.62484 0.349181 11.3264 1.53387 13.5811C2.36449 16.7145 5.49137 18.2827 5.74012 18.403C5.89137 18.4995 7.59543 19.553 9.68887 19.553C9.77668 19.553 10.3076 19.5823 10.497 19.5823C12.7598 19.5823 16.1129 17.9873 16.8148 16.738C18.7432 15.3273 19.7429 11.692 19.5623 10.2045ZM5.75731 14.9117C4.86074 13.4614 4.34981 11.5664 4.24043 11.1311C4.52418 10.7058 5.92387 8.64203 6.72137 8.02109C7.17293 8.10422 9.05856 8.45047 10.837 8.77234C11.0604 9.35141 12.0407 11.9064 12.3214 12.8927C12.012 13.2595 10.7967 14.6745 9.60012 15.7827C8.32981 15.7886 6.16918 15.0558 5.75731 14.9117ZM17.0279 4.76328C17.0242 4.90391 16.9907 5.40391 16.7514 5.97797C16.2761 5.73516 15.0814 5.21516 13.4439 5.12734C13.1961 4.76141 12.2636 3.48547 10.7907 2.60047C10.9923 2.20609 11.2729 1.72516 11.437 1.57859C11.4901 1.56359 11.5726 1.54984 11.6982 1.54984C12.4879 1.54984 13.8523 2.06703 13.9711 2.11297C14.097 2.17953 16.5495 3.50016 17.0279 4.76328ZM3.88699 10.8358C2.81731 10.6533 2.18137 10.3208 1.99137 10.2083C1.59356 8.76547 1.91387 7.20609 1.96324 6.98266C2.35574 6.28078 3.47324 4.49172 4.21043 4.15203C4.97449 3.99609 5.92731 4.18984 6.31543 4.28453C6.27887 4.78922 6.20856 6.19922 6.41731 7.67891C5.57168 8.35953 4.23324 10.3186 3.88699 10.8358ZM10.1095 1.31016C10.3495 1.32797 10.7017 1.38047 10.9429 1.45203C10.7023 1.77203 10.4557 2.24641 10.3392 2.48078C9.84856 2.56109 7.98512 2.91734 6.52324 3.86516C6.22856 3.78703 5.33856 3.57859 4.49574 3.65047C4.70449 3.24641 5.01637 2.94766 5.04981 2.91703C5.16574 2.83391 7.39762 1.27234 10.1095 1.30609V1.31016ZM16.077 13.2142C15.7114 13.1992 14.3026 13.1189 12.7579 12.7561C12.462 11.7242 11.4848 9.17984 11.2614 8.60109C11.9723 7.58779 12.694 6.58211 13.4264 5.58422C15.2039 5.68172 16.452 6.33016 16.6936 6.46547C17.7232 8.12141 17.9492 9.81266 17.9801 10.0952C17.4332 11.797 16.3517 12.943 16.077 13.2142ZM1.35012 9.11922C1.37637 9.51484 1.43981 9.93141 1.55449 10.3433C1.45139 10.6102 1.37986 10.8882 1.34137 11.1717C1.2761 10.489 1.27903 9.8014 1.35012 9.11922ZM4.36387 16.4189C4.83512 15.9648 5.41606 15.523 5.64137 15.3561C6.15074 15.5355 8.24262 16.2427 9.57606 16.2427C9.80324 16.5473 10.5461 17.5014 11.4567 18.2308C10.8898 18.7855 10.0711 19.0473 9.92637 19.0908C7.38668 19.1589 4.91324 17.7314 4.36387 16.4189ZM11.0711 19.087C11.3592 18.9192 11.6595 18.6983 11.9079 18.4186C12.3132 18.3627 14.0526 18.0633 15.6245 16.9086C15.7282 16.9198 15.8992 16.9336 16.0901 16.9283C15.147 17.8523 12.8457 18.8845 11.0711 19.087ZM15.8911 16.4695C16.4557 14.9983 16.4317 13.8889 16.4039 13.5345C16.7139 13.2308 17.7776 12.0973 18.3679 10.3742C18.6861 10.4273 18.8929 10.5083 18.9911 10.5536C19.0251 10.6786 19.082 10.9673 19.0498 11.4052C18.8092 12.9811 17.9786 15.3427 16.5236 16.3867C16.3773 16.4614 16.1198 16.4777 15.8911 16.4695Z" fill="#222222"/>
</g>
<defs>
<clipPath id="clip0_3571_16977">
<rect width="20" height="20" fill="white"/>
</clipPath>
</defs>
</svg>
