<svg width="66" height="54" viewBox="0 0 66 54" fill="none" xmlns="http://www.w3.org/2000/svg">
<path d="M48.8857 24.9937C48.9021 24.4367 49.049 16.475 44.3373 11.2922C44.1279 10.8289 43.135 8.96172 39.9303 6.67969C38.5095 5.57766 37.0005 4.5944 35.4186 3.73984L35.4123 3.73672C35.2123 3.62969 31.3045 1.5625 26.5615 1.5625C26.2014 1.5625 25.8451 1.58359 25.4928 1.60781V1.60156C21.8764 1.52266 18.2842 2.45312 16.1193 3.43047C14.199 4.29766 12.067 5.75156 11.9131 5.86406C9.25371 7.35156 4.21074 13.3211 3.81153 16.4844C2.19981 18.5445 0.852933 27.7984 3.81465 33.4352C5.89121 41.2687 13.7084 45.1891 14.3303 45.4898C14.7084 45.7312 18.9686 48.3648 24.2022 48.3648C24.4217 48.3648 25.749 48.4383 26.2225 48.4383C31.8795 48.4383 40.2623 44.4508 42.017 41.3273C46.8381 37.8008 49.3373 28.7125 48.8857 24.9937ZM14.3732 36.7617C12.1318 33.1359 10.8545 28.3984 10.5811 27.3102C11.2904 26.2469 14.7897 21.0875 16.7834 19.5352C17.9123 19.743 22.6264 20.6086 27.0725 21.4133C27.6311 22.8609 30.0818 29.2484 30.7834 31.7141C30.01 32.6312 26.9717 36.1687 23.9803 38.9391C20.8045 38.9539 15.4029 37.1219 14.3732 36.7617ZM42.5498 11.3906C42.5404 11.7422 42.4568 12.9922 41.8584 14.4273C40.6701 13.8203 37.6834 12.5203 33.5896 12.3008C32.9701 11.3859 30.6389 8.19609 26.9568 5.98359C27.4607 4.99766 28.1623 3.79531 28.5725 3.42891C28.7053 3.39141 28.9115 3.35703 29.2256 3.35703C31.1998 3.35703 34.6107 4.65 34.9076 4.76484C35.2225 4.93125 41.3537 8.23281 42.5498 11.3906ZM9.69746 26.5719C7.02325 26.1156 5.4334 25.2844 4.9584 25.0031C3.96387 21.3961 4.76465 17.4977 4.88809 16.9391C5.86934 15.1844 8.66309 10.7117 10.5061 9.8625C12.4162 9.47266 14.7982 9.95703 15.7686 10.1937C15.6772 11.4555 15.5014 14.9805 16.0232 18.6797C13.9092 20.3812 10.5631 25.2789 9.69746 26.5719ZM25.2537 2.75781C25.8537 2.80234 26.7342 2.93359 27.3373 3.1125C26.7357 3.9125 26.1193 5.09844 25.8279 5.68437C24.6014 5.88516 19.9428 6.77578 16.2881 9.14531C15.5514 8.95 13.3264 8.42891 11.2193 8.60859C11.7412 7.59844 12.5209 6.85156 12.6045 6.775C12.8943 6.56719 18.474 2.66328 25.2537 2.74766V2.75781ZM40.1725 32.518C39.2584 32.4805 35.7365 32.2797 31.8748 31.3727C31.135 28.793 28.692 22.432 28.1334 20.9852C29.9107 18.4519 31.7149 15.9377 33.5459 13.443C37.9897 13.6867 41.11 15.3078 41.7139 15.6461C44.2881 19.7859 44.8529 24.0141 44.9303 24.7203C43.5631 28.975 40.8592 31.8398 40.1725 32.518ZM3.35528 22.2805C3.4209 23.2695 3.5795 24.3109 3.86621 25.3406C3.60844 26.0078 3.42963 26.7029 3.3334 27.4117C3.17024 25.7048 3.17757 23.9859 3.35528 22.2805ZM10.8897 40.5297C12.0678 39.3945 13.5201 38.2898 14.0834 37.8727C15.3568 38.3211 20.5865 40.0891 23.9201 40.0891C24.4881 40.8508 26.3451 43.2359 28.6217 45.0594C27.2045 46.4461 25.1576 47.1008 24.7959 47.2094C18.4467 47.3797 12.2631 43.8109 10.8897 40.5297ZM27.6576 47.2C28.3779 46.7805 29.1287 46.2281 29.7498 45.5289C30.7631 45.3891 35.1115 44.6406 39.0412 41.7539C39.3006 41.782 39.7279 41.8164 40.2053 41.8031C37.8475 44.1133 32.0943 46.6937 27.6576 47.2ZM39.7076 40.6562C41.1193 36.9781 41.0592 34.2047 40.9896 33.3187C41.7646 32.5594 44.424 29.7258 45.8998 25.418C46.6951 25.5508 47.2123 25.7531 47.4576 25.8664C47.5428 26.1789 47.685 26.9008 47.6045 27.9953C47.0029 31.9352 44.9264 37.8391 41.2889 40.4492C40.9232 40.6359 40.2795 40.6766 39.7076 40.6562Z" fill="#222222"/>
<path d="M50.8552 38.7927H49.5057L49.0273 38.3315C51.0773 35.9398 52.1365 32.6769 51.5557 29.209C50.7527 24.4598 46.7894 20.6673 42.0061 20.0865C34.7798 19.1982 28.6982 25.2798 29.5865 32.5061C30.1673 37.2894 33.9598 41.2527 38.709 42.0557C42.1769 42.6365 45.4398 41.5773 47.8315 39.5273L48.2927 40.0057V41.3552L55.5532 48.6157C56.2536 49.3161 57.3982 49.3161 58.0986 48.6157C58.799 47.9152 58.799 46.7707 58.0986 46.0702L50.8552 38.7927ZM40.6052 38.7927C36.3515 38.7927 32.9177 35.359 32.9177 31.1052C32.9177 26.8515 36.3515 23.4177 40.6052 23.4177C44.859 23.4177 48.2927 26.8515 48.2927 31.1052C48.2927 35.359 44.859 38.7927 40.6052 38.7927Z" fill="#222222"/>
</svg>
