<svg width="24" height="25" viewBox="0 0 24 25" fill="none" xmlns="http://www.w3.org/2000/svg">
<g id="Messages/share">
<path id="Icon" d="M20.5597 13.6061C20.8038 13.3968 20.9258 13.2922 20.9706 13.1677C21.0098 13.0584 21.0098 12.9389 20.9706 12.8296C20.9258 12.7051 20.8038 12.6005 20.5597 12.3913L12.0889 5.13065C11.6687 4.77045 11.4586 4.59035 11.2807 4.58594C11.1261 4.5821 10.9784 4.65003 10.8807 4.7699C10.7683 4.90784 10.7683 5.18458 10.7683 5.73805V10.0333C8.63362 10.4068 6.67989 11.4884 5.228 13.1125C3.64512 14.8832 2.76953 17.1746 2.7683 19.5496V20.1616C3.81764 18.8975 5.1278 17.8752 6.60905 17.1646C7.91499 16.5381 9.32671 16.167 10.7683 16.0692V20.2593C10.7683 20.8128 10.7683 21.0895 10.8807 21.2274C10.9784 21.3473 11.1261 21.4152 11.2807 21.4114C11.4586 21.407 11.6687 21.2269 12.0889 20.8667L20.5597 13.6061Z" fill="#161616" fill-opacity="0.3" stroke="white" stroke-linecap="round" stroke-linejoin="round"/>
</g>
</svg>
