<svg width="20" height="21" viewBox="0 0 20 21" fill="none" xmlns="http://www.w3.org/2000/svg">
<g id="Food/wine bottle/2">
<path id="Icon" d="M6.66669 13.0858H13.3334M7.54646 8.82624L8.1574 7.60436C8.27311 7.37294 8.33335 7.11775 8.33335 6.859V4.75245C8.33335 3.83198 9.07955 3.08578 10 3.08578C10.9205 3.08578 11.6667 3.83198 11.6667 4.75245V6.859C11.6667 7.11775 11.7269 7.37294 11.8426 7.60436L12.4536 8.82624C13.0321 9.98337 13.3334 11.2593 13.3334 12.553V17.2525C13.3334 18.1729 12.5872 18.9191 11.6667 18.9191H8.33335C7.41288 18.9191 6.66669 18.1729 6.66669 17.2525V12.553C6.66669 11.2593 6.9679 9.98337 7.54646 8.82624Z" stroke="white" stroke-width="1.5" stroke-linecap="round"/>
</g>
</svg>
