<svg width="32" height="33" viewBox="0 0 32 33" fill="none" xmlns="http://www.w3.org/2000/svg">
<path d="M26.6641 7.16699H23.2161L19.6067 3.55766C19.4831 3.4336 19.3362 3.33522 19.1744 3.26817C19.0126 3.20113 18.8392 3.16674 18.6641 3.16699H13.3307C13.1556 3.16674 12.9822 3.20113 12.8204 3.26817C12.6586 3.33522 12.5117 3.4336 12.3881 3.55766L8.77873 7.16699H5.33073C3.86006 7.16699 2.66406 8.36299 2.66406 9.83366V24.5003C2.66406 25.971 3.86006 27.167 5.33073 27.167H26.6641C28.1347 27.167 29.3307 25.971 29.3307 24.5003V9.83366C29.3307 8.36299 28.1347 7.16699 26.6641 7.16699ZM15.9974 23.167C12.3841 23.167 9.33073 20.1137 9.33073 16.5003C9.33073 12.8857 12.3841 9.83366 15.9974 9.83366C19.6107 9.83366 22.6641 12.8857 22.6641 16.5003C22.6641 20.1137 19.6107 23.167 15.9974 23.167Z" fill="#2B2B2B"/>
<path d="M17.3333 12.5H14.6667V15.1667H12V17.8333H14.6667V20.5H17.3333V17.8333H20V15.1667H17.3333V12.5Z" fill="#2B2B2B"/>
</svg>
