<svg width="512" height="512" viewBox="0 0 512 512" fill="none" xmlns="http://www.w3.org/2000/svg">
<path fill-rule="evenodd" clip-rule="evenodd" d="M439.765 120.512C441.893 122.375 443.629 124.642 444.872 127.181C446.116 129.721 446.842 132.482 447.009 135.305C447.176 138.128 446.78 140.956 445.844 143.624C444.908 146.292 443.451 148.748 441.557 150.848L217.259 399.787C215.356 401.895 213.052 403.602 210.481 404.808C207.91 406.014 205.124 406.695 202.287 406.81C199.449 406.925 196.618 406.473 193.957 405.479C191.297 404.486 188.862 402.971 186.795 401.024L57.0027 278.848C53.1089 275.13 50.7513 270.087 50.3958 264.715C50.0403 259.343 51.7128 254.033 55.0827 249.835C56.9017 247.558 59.1643 245.676 61.7331 244.301C64.3019 242.925 67.1235 242.087 70.0263 241.835C72.9292 241.584 75.8529 241.925 78.6199 242.838C81.3869 243.751 83.9395 245.217 86.1227 247.147L186.816 337.728C191.02 341.512 196.555 343.472 202.204 343.176C207.853 342.879 213.153 340.352 216.939 336.149L409.856 122.24C413.611 118.077 418.855 115.559 424.452 115.231C430.049 114.904 435.55 116.793 439.765 120.491V120.512Z" fill="black"/>
</svg>
