<svg width="24" height="24" viewBox="0 0 24 24" fill="none" xmlns="http://www.w3.org/2000/svg">
<path fill-rule="evenodd" clip-rule="evenodd" d="M7.62281 12.7262C7.62281 10.1874 9.58255 8.12924 12 8.12924C14.4175 8.12924 16.3772 10.1874 16.3772 12.7262C16.3772 15.265 14.4175 17.3231 12 17.3231C9.58255 17.3231 7.62281 15.265 7.62281 12.7262ZM12 9.96802C10.5495 9.96802 9.37369 11.2029 9.37369 12.7262C9.37369 14.2495 10.5495 15.4843 12 15.4843C13.4505 15.4843 14.6263 14.2495 14.6263 12.7262C14.6263 11.2029 13.4505 9.96802 12 9.96802Z" fill="#222222"/>
<path fill-rule="evenodd" clip-rule="evenodd" d="M10.3847 3.83877C9.16471 3.83877 8.17572 4.87741 8.17572 6.15863C8.17572 6.975 7.579 7.65464 6.8042 7.72072L4.2017 7.94269C3.69072 7.98627 3.27047 8.38311 3.1751 8.91211C2.6513 11.8174 2.61225 14.7961 3.05967 17.7155L3.17319 18.4561C3.28039 19.1556 3.82857 19.6878 4.50097 19.7451L6.76815 19.9385C10.2503 20.2355 13.7497 20.2355 17.2318 19.9385L19.499 19.7451C20.1714 19.6878 20.7196 19.1556 20.8268 18.4561L20.9403 17.7155C21.3878 14.7961 21.3487 11.8174 20.8249 8.91212C20.7295 8.38311 20.3093 7.98627 19.7983 7.94269L17.1958 7.72072C16.421 7.65464 15.8243 6.975 15.8243 6.15863C15.8243 4.87741 14.8353 3.83877 13.6153 3.83877H10.3847ZM6.43194 5.90764C6.5555 3.72776 8.27797 2 10.3847 2H13.6153C15.722 2 17.4445 3.72776 17.5681 5.90764L19.94 6.10995C21.2367 6.22055 22.3032 7.22759 22.5452 8.57003C23.1067 11.6846 23.1486 14.878 22.669 18.0077L22.5554 18.7483C22.3201 20.2838 21.1168 21.452 19.6408 21.5779L17.3736 21.7712C13.7971 22.0763 10.2029 22.0763 6.62643 21.7712L4.35925 21.5779C2.88323 21.452 1.67989 20.2838 1.44456 18.7483L1.33105 18.0077C0.851385 14.878 0.893255 11.6846 1.45479 8.57003C1.69682 7.22759 2.76326 6.22055 4.05998 6.10995L6.43194 5.90764Z" fill="#222222"/>
</svg>
