<svg width="60" height="60" viewBox="0 0 60 60" fill="none" xmlns="http://www.w3.org/2000/svg">
<rect x="0.5" y="0.5" width="59" height="59" rx="7.5" stroke="#F0F0F0"/>
<circle cx="24" cy="36" r="9" fill="#D9D9D9"/>
<path d="M28 20.25C27.5858 20.25 27.25 20.5858 27.25 21V21.75H23C22.5858 21.75 22.25 22.0858 22.25 22.5C22.25 22.9142 22.5858 23.25 23 23.25H37C37.4142 23.25 37.75 22.9142 37.75 22.5C37.75 22.0858 37.4142 21.75 37 21.75H32.75V21C32.75 20.5858 32.4142 20.25 32 20.25H28Z" fill="#222222"/>
<path d="M28 28.65C28.4142 28.65 28.75 28.9858 28.75 29.4L28.75 36.4C28.75 36.8142 28.4142 37.15 28 37.15C27.5858 37.15 27.25 36.8142 27.25 36.4L27.25 29.4C27.25 28.9858 27.5858 28.65 28 28.65Z" fill="#222222"/>
<path d="M32.75 29.4C32.75 28.9858 32.4142 28.65 32 28.65C31.5858 28.65 31.25 28.9858 31.25 29.4V36.4C31.25 36.8142 31.5858 37.15 32 37.15C32.4142 37.15 32.75 36.8142 32.75 36.4V29.4Z" fill="#222222"/>
<path fill-rule="evenodd" clip-rule="evenodd" d="M23.9914 25.9172C24.0336 25.5374 24.3547 25.25 24.7368 25.25H35.2632C35.6453 25.25 35.9664 25.5374 36.0086 25.9172L36.2087 27.7185C36.5715 30.9838 36.5715 34.2793 36.2087 37.5446L36.189 37.722C36.045 39.0181 35.0404 40.0517 33.7489 40.2325C31.2618 40.5807 28.7382 40.5807 26.2511 40.2325C24.9595 40.0517 23.955 39.0181 23.811 37.722L23.7913 37.5446C23.4285 34.2793 23.4285 30.9838 23.7913 27.7185L23.9914 25.9172ZM25.4081 26.75L25.2821 27.8842C24.9315 31.0394 24.9315 34.2238 25.2821 37.379L25.3018 37.5563C25.3701 38.171 25.8465 38.6612 26.459 38.747C28.8082 39.0758 31.1918 39.0758 33.5409 38.747C34.1535 38.6612 34.6299 38.171 34.6982 37.5563L34.7179 37.379C35.0685 34.2238 35.0685 31.0394 34.7179 27.8842L34.5919 26.75H25.4081Z" fill="#222222"/>
</svg>
