<svg width="16" height="20" viewBox="0 0 16 20" fill="none" xmlns="http://www.w3.org/2000/svg">
<path fill-rule="evenodd" clip-rule="evenodd" d="M0.25 3C0.25 1.48122 1.48122 0.25 3 0.25H10.9868C11.5506 0.25 12.0798 0.521573 12.4085 0.979549L15.4217 5.17745C15.6352 5.47488 15.75 5.83178 15.75 6.1979V17C15.75 18.5188 14.5188 19.75 13 19.75H3C1.48122 19.75 0.25 18.5188 0.25 17V3ZM3 1.75C2.30964 1.75 1.75 2.30964 1.75 3V17C1.75 17.6904 2.30964 18.25 3 18.25H13C13.6904 18.25 14.25 17.6904 14.25 17V6.89705H11C10.5858 6.89705 10.25 6.56126 10.25 6.14705V1.75H3Z" fill="#0081DF"/>
</svg>
