<svg width="20" height="20" viewBox="0 0 20 20" fill="none" xmlns="http://www.w3.org/2000/svg">
<path d="M2.42442 9.02321L3.10588 9.33644L3.10588 9.33644L2.42442 9.02321ZM17.576 10.9761L16.8945 10.6629L17.576 10.9761ZM2.42442 10.9761L1.74296 11.2894L1.74296 11.2894L2.42442 10.9761ZM17.576 9.02321L16.8945 9.33644V9.33644L17.576 9.02321ZM14.9277 4.86788C14.58 4.64291 14.1156 4.74246 13.8907 5.09025C13.6657 5.43804 13.7652 5.90236 14.113 6.12734L14.9277 4.86788ZM5.92297 13.8949C5.57393 13.6719 5.11017 13.774 4.88713 14.1231C4.6641 14.4721 4.76624 14.9359 5.11528 15.1589L5.92297 13.8949ZM2.7339 12.951C2.98271 13.2822 3.45287 13.3489 3.78403 13.1001C4.11519 12.8513 4.18195 12.3811 3.93314 12.05L2.7339 12.951ZM11.5177 5.06805C11.9236 5.15045 12.3195 4.88817 12.4019 4.48224C12.4843 4.0763 12.222 3.68043 11.8161 3.59803L11.5177 5.06805ZM17.1972 3.86334C17.4901 3.57044 17.4901 3.09557 17.1972 2.80268C16.9043 2.50978 16.4294 2.50978 16.1365 2.80268L17.1972 3.86334ZM2.80318 16.136C2.51029 16.4289 2.51029 16.9038 2.80318 17.1967C3.09608 17.4896 3.57095 17.4896 3.86384 17.1967L2.80318 16.136ZM10.0002 3.41634C6.33498 3.41634 3.17836 5.58716 1.74296 8.70998L3.10588 9.33644C4.30565 6.72624 6.94234 4.91634 10.0002 4.91634V3.41634ZM10.0002 16.583C13.6654 16.583 16.822 14.4122 18.2574 11.2894L16.8945 10.6629C15.6947 13.2731 13.058 15.083 10.0002 15.083V16.583ZM1.74296 8.70998C1.36693 9.52806 1.36693 10.4713 1.74296 11.2894L3.10588 10.6629C2.91262 10.2425 2.91262 9.75688 3.10588 9.33644L1.74296 8.70998ZM16.8945 9.33644C17.0878 9.75688 17.0878 10.2425 16.8945 10.6629L18.2574 11.2894C18.6334 10.4713 18.6334 9.52806 18.2574 8.70998L16.8945 9.33644ZM18.2574 8.70998C17.5329 7.13382 16.3712 5.80163 14.9277 4.86788L14.113 6.12734C15.3193 6.90769 16.2899 8.02118 16.8945 9.33644L18.2574 8.70998ZM5.11528 15.1589C6.52627 16.0605 8.20336 16.583 10.0002 16.583V15.083C8.49801 15.083 7.09995 14.647 5.92297 13.8949L5.11528 15.1589ZM1.74296 11.2894C2.0146 11.8803 2.34768 12.4369 2.7339 12.951L3.93314 12.05C3.61046 11.6205 3.33245 11.1558 3.10588 10.6629L1.74296 11.2894ZM11.8161 3.59803C11.2287 3.4788 10.6214 3.41634 10.0002 3.41634V4.91634C10.5206 4.91634 11.028 4.96865 11.5177 5.06805L11.8161 3.59803ZM7.70209 12.2978C8.97129 13.567 11.0291 13.567 12.2983 12.2978L11.2376 11.2371C10.5542 11.9205 9.44617 11.9205 8.76275 11.2371L7.70209 12.2978ZM12.2983 12.2978C13.5675 11.0286 13.5675 8.97078 12.2983 7.70158L11.2376 8.76224C11.921 9.44565 11.921 10.5537 11.2376 11.2371L12.2983 12.2978ZM16.1365 2.80268L2.80318 16.136L3.86384 17.1967L17.1972 3.86334L16.1365 2.80268Z" fill="#222222"/>
</svg>
