<svg width="20" height="20" viewBox="0 0 20 20" fill="none" xmlns="http://www.w3.org/2000/svg">
<path d="M2.42442 10.9768C2.13978 10.3575 2.13978 9.64312 2.42442 9.02386C3.742 6.15735 6.63866 4.16699 10.0002 4.16699C13.3617 4.16699 16.2584 6.15735 17.576 9.02386C17.8606 9.64312 17.8606 10.3575 17.576 10.9768C16.2584 13.8433 13.3617 15.8337 10.0002 15.8337C6.63866 15.8337 3.74201 13.8433 2.42442 10.9768Z" stroke="#222222" stroke-width="1.5"/>
<path d="M12.5002 10.0003C12.5002 11.381 11.3809 12.5003 10.0002 12.5003C8.61948 12.5003 7.50019 11.381 7.50019 10.0003C7.50019 8.61961 8.61948 7.50033 10.0002 7.50033C11.3809 7.50033 12.5002 8.61961 12.5002 10.0003Z" stroke="#222222" stroke-width="1.5"/>
</svg>
