<svg width="24" height="24" viewBox="0 0 24 24" fill="none" xmlns="http://www.w3.org/2000/svg">
<g id="octicon:question-24">
<path id="Vector" d="M9.96708 5.76261C9.63918 5.98804 9.3763 6.29571 9.20482 6.65478C9.05934 6.92188 8.81587 7.12208 8.5257 7.21323C8.23553 7.30437 7.92131 7.27934 7.64924 7.1434C7.37716 7.00746 7.16846 6.77123 7.0671 6.48447C6.96575 6.19771 6.97964 5.88281 7.10586 5.60609C7.41891 4.97687 7.90882 4.31322 8.66638 3.80922C9.43021 3.29739 10.396 3 11.5793 3C12.6092 3 13.722 3.30522 14.6064 3.96887C15.0994 4.32928 15.4992 4.80223 15.7726 5.34836C16.0459 5.8945 16.1849 6.49802 16.1779 7.1087C16.1779 8.72557 15.3749 9.80087 14.5704 10.5757C14.273 10.8621 13.9459 11.136 13.6641 11.3708L13.434 11.5633C13.1926 11.7608 12.9651 11.9747 12.7532 12.2035V14.3478C12.7532 14.6592 12.6295 14.9578 12.4093 15.1779C12.1892 15.3981 11.8906 15.5217 11.5793 15.5217C11.2679 15.5217 10.9693 15.3981 10.7492 15.1779C10.529 14.9578 10.4053 14.6592 10.4053 14.3478V12.0423C10.4053 11.6713 10.5102 11.2534 10.7919 10.8903C11.1363 10.452 11.5526 10.081 11.9158 9.7727L12.2022 9.53322L12.2038 9.53165C12.473 9.30783 12.7109 9.10904 12.9394 8.88678C13.5154 8.33113 13.83 7.8287 13.83 7.1087C13.837 6.86256 13.7828 6.61854 13.6725 6.39841C13.5621 6.17828 13.399 5.98888 13.1977 5.84713C12.7782 5.53252 12.1803 5.34783 11.5793 5.34783C10.806 5.34783 10.3052 5.53722 9.96708 5.76261ZM13.1445 19.4348C13.1445 19.8499 12.9796 20.248 12.686 20.5416C12.3925 20.8351 11.9944 21 11.5793 21C11.1641 21 10.766 20.8351 10.4725 20.5416C10.1789 20.248 10.014 19.8499 10.014 19.4348C10.014 19.0197 10.1789 18.6215 10.4725 18.328C10.766 18.0345 11.1641 17.8696 11.5793 17.8696C11.9944 17.8696 12.3925 18.0345 12.686 18.328C12.9796 18.6215 13.1445 19.0197 13.1445 19.4348Z" fill="#222222"/>
</g>
</svg>
