<svg width="512" height="512" viewBox="0 0 512 512" fill="none" xmlns="http://www.w3.org/2000/svg">
<path d="M510.578 439.809C510.557 439.742 510.536 439.676 510.514 439.609L490.176 377.815V226.492C490.176 201.68 469.99 181.493 445.177 181.493H313.817V255.122C313.817 296.476 280.173 330.121 238.818 330.121H228.18V402.49C228.18 427.302 248.367 447.489 273.18 447.489H425.842L465.136 473.637C470.301 477.133 476.143 478.875 481.971 478.875C488.221 478.875 494.459 476.873 499.832 472.885C510.24 465.162 514.458 452.179 510.578 439.809ZM408.476 386.521C400.726 389.447 392.071 385.534 389.146 377.783L382.614 360.475H336.953L330.345 377.826C328.066 383.81 322.369 387.491 316.324 387.491C314.549 387.491 312.745 387.174 310.988 386.505C303.246 383.556 299.361 374.89 302.309 367.148L343.616 258.692C344.877 255.391 347.112 252.551 350.025 250.548C352.937 248.546 356.389 247.477 359.923 247.481C367.089 247.444 373.407 251.728 376.118 258.32C376.174 258.456 376.227 258.592 376.279 258.73L417.21 367.19C420.137 374.941 416.225 383.596 408.476 386.521Z" fill="black"/>
<path d="M348.379 330.476H371.292L359.887 300.256L348.379 330.476ZM238.818 33.1255H66.8209C42.0083 33.1255 21.8217 53.3122 21.8217 78.1248V230.451L1.48397 292.25L1.41997 292.452C-2.45697 304.818 1.76297 317.798 12.1708 325.52C17.5437 329.506 23.7796 331.508 30.0285 331.508C35.8564 331.508 41.6953 329.768 46.8573 326.273L86.1546 300.122H238.817C263.63 300.122 283.817 279.936 283.817 255.123V78.1258C283.818 53.3122 263.631 33.1255 238.818 33.1255ZM215.425 233.261C214.033 234.656 212.38 235.762 210.56 236.516C208.74 237.27 206.789 237.657 204.819 237.654C202.849 237.657 200.897 237.27 199.077 236.516C197.257 235.762 195.604 234.656 194.213 233.26L187.645 226.691C176.648 233.892 163.521 238.097 149.424 238.097C110.841 238.097 79.4518 206.708 79.4518 168.125C79.4518 129.543 110.841 98.1535 149.424 98.1535C188.006 98.1535 219.396 129.543 219.396 168.125C219.396 181.774 215.454 194.512 208.669 205.289L215.427 212.047C221.283 217.907 221.283 227.403 215.425 233.261Z" fill="black"/>
<path d="M149.423 128.155C127.382 128.155 109.45 146.087 109.45 168.127C109.45 190.168 127.382 208.1 149.423 208.1C155.001 208.103 160.517 206.931 165.612 204.661L159.041 198.089C153.183 192.231 153.183 182.734 159.041 176.876C164.898 171.018 174.395 171.018 180.253 176.876L186.475 183.098C188.406 178.343 189.398 173.259 189.395 168.127C189.395 146.086 171.463 128.155 149.423 128.155Z" fill="black"/>
</svg>
