<svg width="32" height="32" viewBox="0 0 32 32" fill="none" xmlns="http://www.w3.org/2000/svg">
<path d="M29 5.5H3C1.6215 5.5 0.5 6.6215 0.5 8V24C0.5 25.3785 1.6215 26.5 3 26.5H29C30.3785 26.5 31.5 25.3785 31.5 24V8C31.5 6.6215 30.3785 5.5 29 5.5ZM15.5 19.46C13.8065 19.216 12.5 17.7595 12.5 16C12.5 14.2405 13.8065 12.784 15.5 12.54V19.46ZM16.5 12.54C18.1935 12.784 19.5 14.2405 19.5 16C19.5 17.7595 18.1935 19.216 16.5 19.46V12.54ZM1.5 11.5H5C5.2755 11.5 5.5 11.724 5.5 12V20C5.5 20.276 5.2755 20.5 5 20.5H1.5V11.5ZM1.5 24V21.5H5C5.827 21.5 6.5 20.827 6.5 20V19.46C8.1935 19.216 9.5 17.7595 9.5 16C9.5 14.2405 8.1935 12.784 6.5 12.54V12C6.5 11.173 5.827 10.5 5 10.5H1.5V8C1.5 7.173 2.173 6.5 3 6.5H15.5V11.5295C13.2535 11.779 11.5 13.6875 11.5 16C11.5 18.3125 13.2535 20.221 15.5 20.4705V25.5H3C2.173 25.5 1.5 24.827 1.5 24ZM6.5 13.5505C7.6395 13.783 8.5 14.7925 8.5 16C8.5 17.2075 7.6395 18.217 6.5 18.4495V13.5505ZM29 25.5H16.5V20.4705C18.7465 20.221 20.5 18.3125 20.5 16C20.5 13.6875 18.7465 11.779 16.5 11.5295V6.5H29C29.827 6.5 30.5 7.173 30.5 8V10.5H27C26.173 10.5 25.5 11.173 25.5 12V12.54C23.8065 12.784 22.5 14.2405 22.5 16C22.5 17.7595 23.8065 19.216 25.5 19.46V20C25.5 20.827 26.173 21.5 27 21.5H30.5V24C30.5 24.827 29.827 25.5 29 25.5ZM30.5 11.5V20.5H27C26.7245 20.5 26.5 20.276 26.5 20V12C26.5 11.724 26.7245 11.5 27 11.5H30.5ZM25.5 18.4495C24.3605 18.217 23.5 17.2075 23.5 16C23.5 14.7925 24.3605 13.783 25.5 13.5505V18.4495Z" fill="white"/>
</svg>
