<svg width="24" height="24" viewBox="0 0 24 24" fill="none" xmlns="http://www.w3.org/2000/svg">
<g id="Frame" clip-path="url(#clip0_1165_8137)">
<g id="Group">
<g id="Vector">
<path d="M14.2046 6.96387C15.7158 6.96387 16.9453 8.19335 16.9453 9.7046C16.9453 11.2159 15.7158 12.4454 14.2046 12.4454C12.6933 12.4454 11.4638 11.2159 11.4638 9.7046C11.4638 8.19335 12.6933 6.96387 14.2046 6.96387ZM14.2046 11.7391C15.3264 11.7391 16.239 10.8264 16.239 9.7046C16.239 8.58279 15.3264 7.67013 14.2046 7.67013C13.0828 7.67013 12.1701 8.58279 12.1701 9.7046C12.1701 10.8264 13.0828 11.7391 14.2046 11.7391Z" fill="white"/>
<path d="M14.2046 11.7391C15.3264 11.7391 16.239 10.8264 16.239 9.7046C16.239 8.58279 15.3264 7.67013 14.2046 7.67013C13.0828 7.67013 12.1701 8.58279 12.1701 9.7046C12.1701 10.8264 13.0828 11.7391 14.2046 11.7391Z" fill="white"/>
</g>
<g id="Vector_2">
<path d="M1.37193 22.088C1.40285 22.1342 1.44892 22.1684 1.50212 22.1845C1.55533 22.2006 1.61247 22.1978 1.66381 22.1765C1.92256 22.0688 2.34003 21.8929 2.85963 21.6664C3.10371 21.56 3.39326 21.6282 3.56393 21.8321L4.01299 22.3686L4.33474 22.2094L4.1965 21.5975C4.13411 21.3213 4.27539 21.0349 4.53241 20.9166C4.7401 20.8209 4.87905 20.7714 5.01292 20.7238C5.15532 20.6731 5.28986 20.6252 5.51626 20.5162C5.63723 20.4579 5.7742 20.4416 5.90547 20.47C6.03673 20.4984 6.15476 20.5697 6.24085 20.6728L6.68602 21.2073L7.04171 21.033L6.88725 20.3493C6.85774 20.2188 6.87249 20.0821 6.92917 19.9608C6.98584 19.8396 7.08124 19.7406 7.20033 19.6795C7.62944 19.4594 8.05593 19.2343 8.47973 19.0041C8.59693 18.9404 8.73194 18.9172 8.86368 18.9383C8.99542 18.9594 9.11647 19.0235 9.20793 19.1206L9.73358 19.6822L10.0786 19.4878L9.86558 18.7464C9.78997 18.4836 9.90139 18.2019 10.1365 18.0614C11.2504 17.3957 12.1934 16.7572 12.9394 16.1636C14.2361 15.1318 15.9275 13.8528 17.9667 12.362C18.076 12.2817 18.2092 12.2407 18.3448 12.2457C18.4803 12.2507 18.6102 12.3013 18.7134 12.3894L19.5469 13.0975C19.5626 13.1108 19.5823 13.1185 19.6029 13.1193C19.6235 13.1201 19.6437 13.1139 19.6603 13.1017L20.0683 12.8047C20.085 12.7926 20.0971 12.7752 20.1027 12.7554C20.1082 12.7356 20.107 12.7144 20.0991 12.6954L19.6831 11.689C19.6308 11.5634 19.6226 11.4237 19.6599 11.2928C19.6972 11.1619 19.7778 11.0476 19.8886 10.9684C20.2977 10.6741 20.7074 10.3807 21.1178 10.0881C21.2271 10.01 21.3594 9.9707 21.4937 9.97641C21.6279 9.98213 21.7564 10.0325 21.8587 10.1196L22.6507 10.7924C22.6663 10.8057 22.6861 10.8134 22.7066 10.8142C22.7272 10.815 22.7475 10.8088 22.7641 10.7966L23.172 10.4996C23.1887 10.4875 23.2008 10.4702 23.2064 10.4503C23.212 10.4305 23.2107 10.4094 23.2028 10.3904L22.8179 9.4591C22.7093 9.19627 22.7959 8.89839 23.0286 8.73479L23.2144 8.60429C23.2535 8.57711 23.2803 8.53567 23.2892 8.48889C23.298 8.4421 23.2882 8.39371 23.2617 8.35412L22.8721 7.76378C22.8675 7.75679 22.8631 7.74963 22.859 7.74231L22.7424 7.53494L22.7362 7.54497C22.7226 7.56724 22.7085 7.58918 22.6948 7.6113L22.6913 7.61695C22.6723 7.64745 22.6533 7.67794 22.6338 7.70814C22.6189 7.73125 22.6035 7.75408 22.5883 7.777L22.5845 7.78274C22.5655 7.81144 22.5466 7.84012 22.5271 7.86855C22.5111 7.89194 22.4947 7.91509 22.4784 7.9383L22.4756 7.94227C22.4559 7.97034 22.4362 7.99844 22.4161 8.02624C22.4002 8.04817 22.384 8.06986 22.3679 8.09157L22.3648 8.09575C22.3436 8.1243 22.3223 8.1528 22.3008 8.18102C22.2844 8.20244 22.2678 8.22366 22.2511 8.2449L22.2472 8.24992C22.2075 8.30075 22.1671 8.35098 22.1259 8.40058C22.0847 8.45025 22.043 8.4994 22.0006 8.548C21.9158 8.6451 21.8285 8.73999 21.7388 8.83257C21.7141 8.85792 21.6893 8.88309 21.6643 8.90809C21.6511 8.92126 21.6383 8.93476 21.6251 8.94779C21.6177 8.9551 21.61 8.96214 21.6026 8.9694C21.5771 8.99434 21.5512 9.01895 21.5254 9.04351C21.5046 9.06324 21.4839 9.08302 21.4629 9.10248C21.4364 9.12713 21.4094 9.15142 21.3825 9.17565C21.3617 9.1944 21.3409 9.21329 21.3199 9.23176C21.2936 9.25485 21.267 9.27752 21.2404 9.30021L21.2356 9.30427C21.2149 9.32195 21.1944 9.33981 21.1734 9.3572C21.1473 9.37895 21.1208 9.40031 21.0944 9.42165L21.0834 9.43046C21.0636 9.44645 21.044 9.46271 21.024 9.47846C20.9929 9.50302 20.9613 9.52703 20.9298 9.55102L20.922 9.55693C20.9051 9.56977 20.8885 9.58294 20.8714 9.59565C20.8201 9.63397 20.7683 9.6716 20.716 9.70852C20.2937 10.0062 19.8722 10.3049 19.4513 10.6045C17.2739 12.1552 14.6557 14.0629 12.6662 15.646C10.5485 17.3311 7.48045 19.0342 5.27964 20.1662C4.98806 20.3162 4.69562 20.4645 4.40233 20.6111C4.2524 20.6862 4.10224 20.7608 3.95186 20.8349C3.65932 20.9793 3.36602 21.1222 3.07198 21.2635C2.8485 21.3709 2.62461 21.4774 2.40031 21.5831C2.15827 21.6971 1.91569 21.8099 1.67258 21.9216L1.66057 21.9272C1.63896 21.9371 1.61785 21.9468 1.59711 21.9562C1.50861 21.9968 1.42803 22.0335 1.35702 22.0656L1.37193 22.088Z" fill="white"/>
<path fill-rule="evenodd" clip-rule="evenodd" d="M0.448776 19.4785L1.80603 17.8096C1.83504 17.7729 1.87105 17.7423 1.91199 17.7196C1.95293 17.6969 1.99797 17.6826 2.0445 17.6774C2.09102 17.6723 2.13811 17.6765 2.18301 17.6897C2.22791 17.7029 2.26973 17.7249 2.30605 17.7545C2.34236 17.784 2.37244 17.8205 2.39454 17.8617C2.41664 17.903 2.43032 17.9482 2.43478 17.9948C2.43923 18.0414 2.43438 18.0884 2.42051 18.1332C2.40663 18.1779 2.38401 18.2194 2.35395 18.2552L0.994818 19.9265L0.990881 19.9312C0.643681 20.3431 0.609789 20.9439 0.908428 21.3922L0.96032 21.4701L0.964304 21.4683L1.01174 21.4468L1.02449 21.4411L1.09162 21.4107L1.15808 21.3804L1.22732 21.3489L1.235 21.3454C1.29175 21.3195 1.34845 21.2935 1.40511 21.2674L1.59153 21.1814L1.67572 21.1424L1.69686 21.1326L1.76947 21.0988L1.79525 21.0868L1.88581 21.0445L1.90972 21.0333L1.99306 20.9942L2.01223 20.9852L2.11142 20.9386L2.13922 20.9255L2.23325 20.8811L2.24773 20.8742L2.3532 20.8243L2.38583 20.8088C2.45993 20.7736 2.53397 20.7383 2.60797 20.7028L2.64453 20.6854L2.75693 20.6315L2.78421 20.6183L2.88223 20.5711L2.91546 20.5551L3.03345 20.498L3.06659 20.4819L3.17346 20.43L3.1977 20.4182L3.32407 20.3565L3.35885 20.3395L3.47782 20.2812L3.49376 20.2734L3.62449 20.209L3.66363 20.1897L3.79587 20.1243L3.81747 20.1135L3.93804 20.0536L3.97525 20.0351L4.11143 19.9671L4.14391 19.9507L4.2633 19.8908L4.29574 19.8745L4.43884 19.8022L4.47053 19.7862L4.60403 19.7185L4.62447 19.7081L4.77259 19.6326L4.80756 19.6147L4.96075 19.536C8.07431 17.9344 10.5867 16.3981 12.2265 15.0934C12.4586 14.9087 12.6918 14.7253 12.9259 14.5433C14.731 13.1389 16.9004 11.5575 18.7813 10.215C18.3219 9.29898 18.1413 8.31817 18.2462 7.29429C18.2509 7.24814 18.2646 7.20337 18.2866 7.16254C18.3086 7.12171 18.3385 7.08562 18.3744 7.05633C18.4104 7.02704 18.4518 7.00513 18.4962 6.99186C18.5407 6.97858 18.5873 6.9742 18.6334 6.97896C18.7266 6.98852 18.8122 7.03468 18.8713 7.10731C18.9304 7.17993 18.9583 7.27307 18.9488 7.36624C18.8617 8.21678 19.0012 9.03376 19.3638 9.80021C19.6785 9.5767 19.9936 9.35375 20.309 9.13135C21.0855 8.58404 21.7456 7.85866 22.2182 7.03357L22.3397 6.82146L22.2889 6.7332L22.277 6.71248L22.236 6.64142L22.2219 6.61713L22.1819 6.54804L22.1645 6.51809L22.126 6.4519L22.1072 6.4197L22.0684 6.35332L22.049 6.32018L22.0098 6.25329L21.989 6.2179L21.9505 6.15251L21.928 6.1145L21.8881 6.04704L21.8676 6.01245L21.8266 5.94336L21.8039 5.90539L21.7643 5.83915L21.7407 5.79978L21.6984 5.72933L21.6777 5.69506L21.6308 5.61748L21.6137 5.58917L21.5638 5.50723L21.5484 5.48192L21.4923 5.39038L21.4832 5.37547C21.4389 5.30342 21.3944 5.23156 21.3499 5.16036L21.3485 5.15811L21.2701 5.03305L21.2197 4.95332L21.1989 4.9206L21.1551 4.85197L21.1309 4.81433L21.0908 4.75213L21.0647 4.71191L21.0269 4.65383L21.0002 4.61315L20.9633 4.55722L20.9365 4.51696C20.9043 4.46849 20.8718 4.42017 20.839 4.37202L20.8114 4.33152L20.7782 4.28324L20.7507 4.24359L20.7177 4.19648L20.6914 4.15907L20.659 4.11379L20.6329 4.07737L20.6011 4.03382L20.5761 3.99974L20.5438 3.95648L20.5208 3.92577C20.509 3.91017 20.4974 3.89526 20.4858 3.88021L20.467 3.85588L20.4661 3.85471C20.0873 4.35397 19.6471 5.03633 19.3326 5.83573C19.2972 5.92139 19.2297 5.98973 19.1444 6.02601C19.0591 6.06229 18.963 6.06362 18.8768 6.0297C18.7906 5.99578 18.7211 5.92933 18.6834 5.84468C18.6457 5.76002 18.6428 5.66395 18.6753 5.57717C19.0369 4.65824 19.5472 3.8864 19.9706 3.34068C19.3043 2.76872 18.2198 2.11899 17.3021 1.64058C17.1815 1.72874 17.0825 1.84316 17.0126 1.97519C16.9427 2.10722 16.9037 2.25341 16.8985 2.40272L16.852 3.79134C16.8259 4.57147 16.4225 5.29564 15.7729 5.72839C15.5086 5.90484 15.212 6.02734 14.9003 6.08886L11.6885 6.72593L6.95705 14.7653C6.45554 15.6174 5.53412 16.1228 4.57347 16.1228C4.42267 16.1228 4.27085 16.11 4.11954 16.0844L3.39884 16.9706C3.33936 17.0421 3.25411 17.0872 3.16157 17.0962C3.06903 17.1052 2.97668 17.0773 2.90456 17.0187C2.83243 16.96 2.78634 16.8753 2.7763 16.7828C2.76626 16.6904 2.79307 16.5977 2.85092 16.525L4.29142 14.7537L8.45446 7.66596C8.45488 7.66516 8.4554 7.66441 8.45587 7.66361L8.81399 7.05391C8.9099 6.89091 9.03795 6.7491 9.19035 6.6371L9.84988 4.86585C9.95937 4.5718 10.1942 4.35027 10.4942 4.25812C10.7942 4.16591 11.1127 4.21738 11.3685 4.39921L13.2051 5.70514L14.7629 5.39614C14.9838 5.35252 15.194 5.26569 15.3813 5.14063C15.6086 4.98888 15.7965 4.78523 15.9295 4.5465C16.0625 4.30778 16.1368 4.04083 16.1462 3.76771L16.1927 2.3791C16.202 2.10947 16.2755 1.84595 16.4072 1.6105C16.539 1.37505 16.725 1.17448 16.9499 1.02549C17.1399 0.899917 17.3845 0.887589 17.5884 0.993385C18.2746 1.34926 19.8646 2.22033 20.7009 3.05376L20.7059 3.05878C20.7312 3.08407 20.7562 3.10971 20.7807 3.1357C20.7934 3.14897 20.8059 3.16233 20.8183 3.17578C20.8474 3.20768 20.876 3.24008 20.904 3.27295C21.484 3.96398 22.393 5.48891 23.0534 6.64652L23.0539 6.64756L23.0545 6.64849L23.4687 7.38522L23.8513 7.96506C24.1182 8.36945 24.0167 8.90415 23.6202 9.1824L23.5021 9.26532L23.8555 10.1206C23.9243 10.286 23.9353 10.4698 23.8867 10.6422C23.8381 10.8146 23.7327 10.9655 23.5877 11.0707L23.1797 11.3676C23.0352 11.4733 22.8591 11.5272 22.6801 11.5205C22.5012 11.5138 22.3297 11.4469 22.1934 11.3307L21.4624 10.7097C21.0959 10.9712 20.728 11.2347 20.3668 11.4944L20.7517 12.4256C20.8205 12.591 20.8315 12.7748 20.7829 12.9472C20.7343 13.1196 20.6289 13.2705 20.4839 13.3756L20.0759 13.6726C19.9314 13.7783 19.7553 13.8322 19.5763 13.8255C19.3973 13.8188 19.2258 13.7519 19.0896 13.6356L18.3178 12.9801C16.3157 14.4447 14.6544 15.7015 13.3792 16.7162C12.6239 17.3172 11.6778 17.9599 10.5662 18.6272L10.7574 19.2926C10.8014 19.4444 10.7929 19.6066 10.7333 19.753C10.6737 19.8994 10.5664 20.0213 10.4288 20.0991L10.0827 20.296C9.94554 20.3744 9.78588 20.4043 9.62959 20.3807C9.47331 20.3572 9.32953 20.2816 9.22152 20.1662L8.74771 19.6622C8.36519 19.8693 7.9805 20.0723 7.5937 20.2713L7.73058 20.8773C7.76575 21.0313 7.74792 21.1928 7.67996 21.3355C7.612 21.4782 7.49789 21.5938 7.35609 21.6635L6.99924 21.8402C6.85773 21.9106 6.69662 21.9312 6.54197 21.8986C6.38731 21.8661 6.24813 21.7824 6.14696 21.661L5.75012 21.1868C5.53164 21.2887 5.38853 21.3397 5.24973 21.3891C5.14342 21.4269 5.04217 21.463 4.90384 21.5238L5.02623 22.0654C5.06075 22.2166 5.04326 22.375 4.97658 22.515C4.90989 22.655 4.79792 22.7684 4.65878 22.8369L4.31533 23.0069C4.17649 23.076 4.01841 23.0962 3.86664 23.0643C3.71488 23.0324 3.57832 22.9502 3.47904 22.8311L3.07156 22.3443C2.69398 22.5086 2.31515 22.67 1.93508 22.8285C1.5185 23.0019 1.03429 22.8552 0.783976 22.4795L0.53779 22.1099L0.536993 22.1087L0.320433 21.7836C-0.150564 21.0765 -0.0977364 20.129 0.448776 19.4785ZM9.8195 7.10018C9.83998 7.09399 9.8608 7.08855 9.88198 7.08429C9.88275 7.08412 9.88351 7.08388 9.88424 7.08358L10.7607 6.90973L6.34843 14.4068C5.99087 15.0143 5.34625 15.3849 4.66422 15.4145L4.85636 15.1783C4.86761 15.1644 4.87783 15.1497 4.88687 15.1343L5.77393 13.6241L6.16684 13.665C6.25894 13.6727 6.3504 13.6439 6.42157 13.585C6.49274 13.526 6.53796 13.4415 6.54752 13.3496C6.55709 13.2576 6.53023 13.1656 6.47272 13.0932C6.41521 13.0209 6.33163 12.974 6.23991 12.9625L6.16688 12.9549L6.8745 11.7502L7.26773 11.7911C7.35984 11.7988 7.45129 11.7701 7.52247 11.7111C7.59364 11.6521 7.63886 11.5676 7.64842 11.4757C7.65799 11.3838 7.63113 11.2917 7.57362 11.2194C7.51611 11.147 7.43253 11.1001 7.34081 11.0887L7.2675 11.081L7.94479 9.92794L8.34009 9.9691C8.3865 9.97448 8.43352 9.97059 8.47842 9.95767C8.52332 9.94475 8.56521 9.92304 8.60166 9.89382C8.63811 9.86459 8.6684 9.82842 8.69078 9.7874C8.71315 9.74638 8.72716 9.70133 8.732 9.65486C8.73684 9.60839 8.7324 9.56141 8.71896 9.51667C8.70551 9.47192 8.68332 9.43029 8.65367 9.39418C8.62402 9.35807 8.5875 9.3282 8.54622 9.30631C8.50495 9.28442 8.45974 9.27093 8.41321 9.26663L8.33784 9.25881L8.95363 8.21041L9.34621 8.25128C9.43832 8.25897 9.52977 8.23025 9.60094 8.17128C9.67211 8.1123 9.71733 8.02778 9.7269 7.93585C9.73646 7.84392 9.70961 7.7519 9.6521 7.67954C9.59459 7.60718 9.511 7.56025 9.41928 7.54882L9.34663 7.54127L9.42294 7.41138C9.43541 7.39015 9.44896 7.36971 9.46349 7.35011C9.51908 7.27512 9.58939 7.21296 9.66908 7.16613C9.67911 7.16027 9.68938 7.15488 9.69964 7.14954C9.73061 7.13311 9.76288 7.11925 9.79611 7.1081C9.80389 7.10543 9.81163 7.10257 9.8195 7.10018ZM10.8352 4.92364C10.8799 4.93085 10.9223 4.94833 10.9591 4.97469L12.2521 5.89404L10.0586 6.32914L10.5117 5.11217C10.5274 5.06969 10.5527 5.03141 10.5856 5.00035C10.6185 4.96928 10.6582 4.94627 10.7015 4.93311C10.7448 4.91967 10.7905 4.91642 10.8352 4.92364ZM1.50212 22.1845C1.44892 22.1684 1.40285 22.1342 1.37193 22.088L1.35702 22.0656C1.42803 22.0335 1.50861 21.9968 1.59711 21.9562L1.66057 21.9272L1.67258 21.9216C1.91569 21.8099 2.15827 21.6971 2.40031 21.5831C2.62461 21.4774 2.8485 21.3709 3.07198 21.2635C3.36602 21.1222 3.65932 20.9793 3.95186 20.8349C4.10224 20.7608 4.2524 20.6862 4.40233 20.6111C4.69562 20.4645 4.98806 20.3162 5.27964 20.1662C7.48045 19.0342 10.5485 17.3311 12.6662 15.646C14.6557 14.0629 17.2739 12.1552 19.4513 10.6045C19.8722 10.3049 20.2937 10.0062 20.716 9.70852C20.7683 9.6716 20.8201 9.63397 20.8714 9.59565C20.8885 9.58294 20.9051 9.56977 20.922 9.55693L20.9298 9.55102C20.9613 9.52703 20.9929 9.50302 21.024 9.47846C21.044 9.46271 21.0636 9.44645 21.0834 9.43046L21.0944 9.42165C21.1208 9.40031 21.1473 9.37895 21.1734 9.3572C21.1944 9.33981 21.2149 9.32195 21.2356 9.30427L21.2404 9.30021C21.267 9.27752 21.2936 9.25485 21.3199 9.23176C21.3409 9.21329 21.3617 9.1944 21.3825 9.17565C21.4094 9.15142 21.4364 9.12713 21.4629 9.10248C21.4839 9.08302 21.5046 9.06324 21.5254 9.04351C21.5512 9.01895 21.5771 8.99434 21.6026 8.9694C21.61 8.96214 21.6177 8.9551 21.6251 8.94779C21.6383 8.93476 21.6511 8.92126 21.6643 8.90809C21.6893 8.88309 21.7141 8.85792 21.7388 8.83257C21.8285 8.73999 21.9158 8.6451 22.0006 8.548C22.043 8.4994 22.0847 8.45025 22.1259 8.40058C22.1671 8.35098 22.2075 8.30075 22.2472 8.24992L22.2511 8.2449C22.2678 8.22366 22.2844 8.20244 22.3008 8.18102C22.3223 8.1528 22.3436 8.1243 22.3648 8.09575L22.3679 8.09157C22.384 8.06986 22.4002 8.04817 22.4161 8.02624C22.4362 7.99844 22.4559 7.97034 22.4756 7.94227L22.4784 7.9383C22.4947 7.91509 22.5111 7.89194 22.5271 7.86855C22.5466 7.84012 22.5655 7.81144 22.5845 7.78274L22.5883 7.777C22.6035 7.75408 22.6189 7.73125 22.6338 7.70814C22.6533 7.67794 22.6723 7.64745 22.6913 7.61695L22.6948 7.6113C22.7085 7.58918 22.7226 7.56724 22.7362 7.54497L22.7424 7.53494L22.859 7.74231C22.8631 7.74963 22.8675 7.75679 22.8721 7.76378L23.2617 8.35412C23.2882 8.39371 23.298 8.4421 23.2892 8.48889C23.2803 8.53567 23.2535 8.57711 23.2144 8.60429L23.0286 8.73479C22.7959 8.89839 22.7093 9.19627 22.8179 9.4591L23.2028 10.3904C23.2107 10.4094 23.212 10.4305 23.2064 10.4503C23.2008 10.4702 23.1887 10.4875 23.172 10.4996L22.7641 10.7966C22.7475 10.8088 22.7272 10.815 22.7066 10.8142C22.6861 10.8134 22.6663 10.8057 22.6507 10.7924L21.8587 10.1196C21.7564 10.0325 21.6279 9.98213 21.4937 9.97641C21.3594 9.9707 21.2271 10.01 21.1178 10.0881C20.7074 10.3807 20.2977 10.6741 19.8886 10.9684C19.7778 11.0476 19.6972 11.1619 19.6599 11.2928C19.6226 11.4237 19.6308 11.5634 19.6831 11.689L20.0991 12.6954C20.107 12.7144 20.1082 12.7356 20.1027 12.7554C20.0971 12.7752 20.085 12.7926 20.0683 12.8047L19.6603 13.1017C19.6437 13.1139 19.6235 13.1201 19.6029 13.1193C19.5823 13.1185 19.5626 13.1108 19.5469 13.0975L18.7134 12.3894C18.6102 12.3013 18.4803 12.2507 18.3448 12.2457C18.2092 12.2407 18.076 12.2817 17.9667 12.362C15.9275 13.8528 14.2361 15.1318 12.9394 16.1636C12.1934 16.7572 11.2504 17.3957 10.1365 18.0614C9.90139 18.2019 9.78997 18.4836 9.86558 18.7464L10.0786 19.4878L9.73358 19.6822L9.20793 19.1206C9.11647 19.0235 8.99542 18.9594 8.86368 18.9383C8.73194 18.9172 8.59693 18.9404 8.47973 19.0041C8.05593 19.2343 7.62944 19.4594 7.20033 19.6795C7.08124 19.7406 6.98584 19.8396 6.92917 19.9608C6.87249 20.0821 6.85774 20.2188 6.88725 20.3493L7.04171 21.033L6.68602 21.2073L6.24085 20.6728C6.15476 20.5697 6.03673 20.4984 5.90547 20.47C5.7742 20.4416 5.63723 20.4579 5.51626 20.5162C5.28986 20.6252 5.15532 20.6731 5.01292 20.7238C4.87905 20.7714 4.7401 20.8209 4.53241 20.9166C4.27539 21.0349 4.13411 21.3213 4.1965 21.5975L4.33474 22.2094L4.01299 22.3686L3.56393 21.8321C3.39326 21.6282 3.10371 21.56 2.85963 21.6664C2.34003 21.8929 1.92256 22.0688 1.66381 22.1765C1.61247 22.1978 1.55533 22.2006 1.50212 22.1845Z" fill="white"/>
<path d="M9.88198 7.08429C9.8608 7.08855 9.83998 7.09399 9.8195 7.10018C9.81163 7.10257 9.80389 7.10543 9.79611 7.1081C9.76288 7.11925 9.73061 7.13311 9.69964 7.14954C9.68938 7.15488 9.67911 7.16027 9.66908 7.16613C9.58939 7.21296 9.51908 7.27512 9.46349 7.35011C9.44896 7.36971 9.43541 7.39015 9.42294 7.41138L9.34663 7.54127L9.41928 7.54882C9.511 7.56025 9.59459 7.60718 9.6521 7.67954C9.70961 7.7519 9.73646 7.84392 9.7269 7.93585C9.71733 8.02778 9.67211 8.1123 9.60094 8.17128C9.52977 8.23025 9.43832 8.25897 9.34621 8.25128L8.95363 8.21041L8.33784 9.25881L8.41321 9.26663C8.45974 9.27093 8.50495 9.28442 8.54622 9.30631C8.5875 9.3282 8.62402 9.35807 8.65367 9.39418C8.68332 9.43029 8.70551 9.47192 8.71896 9.51667C8.7324 9.56141 8.73684 9.60839 8.732 9.65486C8.72716 9.70133 8.71315 9.74638 8.69078 9.7874C8.6684 9.82842 8.63811 9.86459 8.60166 9.89382C8.56521 9.92304 8.52332 9.94475 8.47842 9.95767C8.43352 9.97059 8.3865 9.97448 8.34009 9.9691L7.94479 9.92794L7.2675 11.081L7.34081 11.0887C7.43253 11.1001 7.51611 11.147 7.57362 11.2194C7.63113 11.2917 7.65799 11.3838 7.64842 11.4757C7.63886 11.5676 7.59364 11.6521 7.52247 11.7111C7.45129 11.7701 7.35984 11.7988 7.26773 11.7911L6.8745 11.7502L6.16688 12.9549L6.23991 12.9625C6.33163 12.974 6.41521 13.0209 6.47272 13.0932C6.53023 13.1656 6.55709 13.2576 6.54752 13.3496C6.53796 13.4415 6.49274 13.526 6.42157 13.585C6.3504 13.6439 6.25894 13.6727 6.16684 13.665L5.77393 13.6241L4.88687 15.1343C4.87783 15.1497 4.86761 15.1644 4.85636 15.1783L4.66422 15.4145C5.34625 15.3849 5.99087 15.0143 6.34843 14.4068L10.7607 6.90973L9.88424 7.08358C9.88351 7.08388 9.88275 7.08412 9.88198 7.08429Z" fill="white"/>
</g>
</g>
</g>
<defs>
<clipPath id="clip0_1165_8137">
<rect width="24" height="24" fill="white" transform="matrix(-1 0 0 1 24 0)"/>
</clipPath>
</defs>
</svg>
