<svg width="24" height="24" viewBox="0 0 24 24" fill="none" xmlns="http://www.w3.org/2000/svg">
<g clip-path="url(#clip0_13_70)">
<path d="M9.79542 6.96387C8.28417 6.96387 7.05469 8.19335 7.05469 9.7046C7.05469 11.2159 8.28417 12.4454 9.79542 12.4454C11.3067 12.4454 12.5362 11.2159 12.5362 9.7046C12.5362 8.19335 11.3067 6.96387 9.79542 6.96387ZM9.79542 11.7391C8.67361 11.7391 7.76095 10.8264 7.76095 9.7046C7.76095 8.58279 8.67361 7.67013 9.79542 7.67013C10.9172 7.67013 11.8299 8.58279 11.8299 9.7046C11.8299 10.8264 10.9172 11.7391 9.79542 11.7391Z" fill="white"/>
<path d="M9.79542 11.7391C8.67361 11.7391 7.76095 10.8264 7.76095 9.7046C7.76095 8.58279 8.67361 7.67013 9.79542 7.67013C10.9172 7.67013 11.8299 8.58279 11.8299 9.7046C11.8299 10.8264 10.9172 11.7391 9.79542 11.7391Z" fill="white"/>
<path d="M22.6281 22.088C22.5972 22.1342 22.5511 22.1684 22.4979 22.1845C22.4447 22.2006 22.3875 22.1978 22.3362 22.1765C22.0774 22.0688 21.66 21.8929 21.1404 21.6664C20.8963 21.56 20.6067 21.6282 20.4361 21.8321L19.987 22.3686L19.6653 22.2094L19.8035 21.5975C19.8659 21.3213 19.7246 21.0349 19.4676 20.9166C19.2599 20.8209 19.121 20.7714 18.9871 20.7238C18.8447 20.6731 18.7101 20.6252 18.4837 20.5162C18.3628 20.4579 18.2258 20.4416 18.0945 20.47C17.9633 20.4984 17.8452 20.5697 17.7591 20.6728L17.314 21.2073L16.9583 21.033L17.1127 20.3493C17.1423 20.2188 17.1275 20.0821 17.0708 19.9608C17.0142 19.8396 16.9188 19.7406 16.7997 19.6795C16.3706 19.4594 15.9441 19.2343 15.5203 19.0041C15.4031 18.9404 15.2681 18.9172 15.1363 18.9383C15.0046 18.9594 14.8835 19.0235 14.7921 19.1206L14.2664 19.6822L13.9214 19.4878L14.1344 18.7464C14.21 18.4836 14.0986 18.2019 13.8635 18.0614C12.7496 17.3957 11.8066 16.7572 11.0606 16.1636C9.76392 15.1318 8.07249 13.8528 6.03334 12.362C5.92403 12.2817 5.79077 12.2407 5.65521 12.2457C5.51966 12.2507 5.38976 12.3013 5.28663 12.3894L4.4531 13.0975C4.43743 13.1108 4.4177 13.1185 4.39712 13.1193C4.37653 13.1201 4.35629 13.1139 4.33967 13.1017L3.93172 12.8047C3.91504 12.7926 3.90294 12.7752 3.89735 12.7554C3.89176 12.7356 3.89302 12.7144 3.90092 12.6954L4.31689 11.689C4.36923 11.5634 4.37741 11.4237 4.34009 11.2928C4.30277 11.1619 4.22216 11.0476 4.11143 10.9684C3.70232 10.6741 3.29259 10.3807 2.88224 10.0881C2.77288 10.01 2.64058 9.9707 2.50634 9.97641C2.3721 9.98213 2.24361 10.0325 2.14129 10.1196L1.34934 10.7924C1.33367 10.8057 1.31394 10.8134 1.29336 10.8142C1.27278 10.815 1.25254 10.8088 1.2359 10.7966L0.827953 10.4996C0.811281 10.4875 0.799174 10.4702 0.793586 10.4503C0.787998 10.4305 0.789256 10.4094 0.797156 10.3904L1.18209 9.4591C1.29075 9.19628 1.20408 8.89839 0.97139 8.73479L0.785625 8.60429C0.746535 8.57711 0.719674 8.53567 0.710821 8.48889C0.701967 8.4421 0.711828 8.39371 0.738282 8.35412L1.12786 7.76378C1.13249 7.75679 1.13687 7.74963 1.14098 7.74231L1.25756 7.53494L1.26384 7.54497C1.27739 7.56724 1.29145 7.58918 1.30523 7.6113L1.30874 7.61695C1.32773 7.64745 1.3467 7.67794 1.36617 7.70814C1.38107 7.73125 1.3965 7.75408 1.41168 7.777L1.41548 7.78274C1.43446 7.81144 1.45343 7.84012 1.47286 7.86855C1.48889 7.89194 1.50529 7.91509 1.52161 7.9383L1.52439 7.94227C1.54409 7.97034 1.5638 7.99844 1.58395 8.02624C1.59981 8.04817 1.61595 8.06986 1.63212 8.09157L1.63523 8.09575C1.65642 8.1243 1.67765 8.1528 1.69921 8.18102C1.71559 8.20244 1.73222 8.22366 1.74886 8.2449L1.75279 8.24992C1.79248 8.30075 1.83294 8.35098 1.87415 8.40058C1.91526 8.45025 1.95702 8.4994 1.9994 8.548C2.08419 8.6451 2.17149 8.73999 2.26119 8.83257C2.28586 8.85792 2.31071 8.88309 2.33573 8.90809C2.34885 8.92126 2.36169 8.93476 2.37491 8.94779C2.38232 8.9551 2.38996 8.96214 2.39741 8.9694C2.42291 8.99434 2.44879 9.01895 2.47462 9.04351C2.49538 9.06324 2.51605 9.08303 2.53705 9.10248C2.56363 9.12713 2.59058 9.15142 2.61754 9.17565C2.63835 9.1944 2.65907 9.21329 2.68011 9.23176C2.70639 9.25485 2.733 9.27752 2.75963 9.30021L2.76439 9.30427C2.78511 9.32195 2.80564 9.33981 2.82655 9.3572C2.85267 9.37895 2.87916 9.40031 2.90562 9.42165L2.91655 9.43046C2.93638 9.44645 2.95602 9.46271 2.97599 9.47846C3.00713 9.50302 3.03868 9.52703 3.07022 9.55102L3.07799 9.55693C3.09486 9.56977 3.11155 9.58294 3.12856 9.59565C3.17988 9.63397 3.23171 9.6716 3.28405 9.70852C3.70628 10.0062 4.12782 10.3049 4.54868 10.6045C6.72606 12.1552 9.34429 14.0629 11.3338 15.646C13.4515 17.3311 16.5195 19.0342 18.7204 20.1662C19.0119 20.3162 19.3044 20.4645 19.5977 20.6111C19.7476 20.6862 19.8978 20.7608 20.0481 20.8349C20.3407 20.9793 20.634 21.1222 20.928 21.2635C21.1515 21.3709 21.3754 21.4774 21.5997 21.5831C21.8417 21.6971 22.0843 21.8099 22.3274 21.9216L22.3394 21.9272C22.361 21.9371 22.3821 21.9468 22.4029 21.9562C22.4914 21.9968 22.572 22.0335 22.643 22.0656L22.6281 22.088Z" fill="white"/>
<path fill-rule="evenodd" clip-rule="evenodd" d="M23.5512 19.4785L22.194 17.8096C22.165 17.7729 22.1289 17.7423 22.088 17.7196C22.0471 17.6969 22.002 17.6826 21.9555 17.6774C21.909 17.6723 21.8619 17.6765 21.817 17.6897C21.7721 17.7029 21.7303 17.7249 21.694 17.7545C21.6576 17.784 21.6276 17.8205 21.6055 17.8617C21.5834 17.903 21.5697 17.9482 21.5652 17.9948C21.5608 18.0414 21.5656 18.0884 21.5795 18.1332C21.5934 18.1779 21.616 18.2194 21.646 18.2552L23.0052 19.9265L23.0091 19.9312C23.3563 20.3431 23.3902 20.9439 23.0916 21.3922L23.0397 21.4701L23.0357 21.4683L22.9883 21.4468L22.9755 21.4411L22.9084 21.4107L22.8419 21.3804L22.7727 21.3489L22.765 21.3454C22.7082 21.3195 22.6515 21.2935 22.5949 21.2674L22.4085 21.1814L22.3243 21.1424L22.3031 21.1326L22.2305 21.0988L22.2048 21.0868L22.1142 21.0445L22.0903 21.0333L22.0069 20.9942L21.9878 20.9852L21.8886 20.9386L21.8608 20.9255L21.7668 20.8811L21.7523 20.8742L21.6468 20.8243L21.6142 20.8088C21.5401 20.7736 21.466 20.7383 21.392 20.7028L21.3555 20.6854L21.2431 20.6315L21.2158 20.6183L21.1178 20.5711L21.0845 20.5551L20.9666 20.498L20.9334 20.4819L20.8265 20.43L20.8023 20.4182L20.6759 20.3565L20.6411 20.3395L20.5222 20.2812L20.5062 20.2734L20.3755 20.209L20.3364 20.1897L20.2041 20.1243L20.1825 20.1135L20.062 20.0536L20.0247 20.0351L19.8886 19.9671L19.8561 19.9507L19.7367 19.8908L19.7043 19.8745L19.5612 19.8022L19.5295 19.7862L19.396 19.7185L19.3755 19.7081L19.2274 19.6326L19.1924 19.6147L19.0393 19.536C15.9257 17.9344 13.4133 16.3981 11.7735 15.0934C11.5414 14.9087 11.3082 14.7253 11.0741 14.5433C9.26901 13.1389 7.0996 11.5575 5.21871 10.215C5.67808 9.29898 5.85869 8.31817 5.75383 7.29429C5.74914 7.24814 5.7354 7.20337 5.71339 7.16254C5.69138 7.12171 5.66154 7.08562 5.62557 7.05633C5.5896 7.02704 5.54821 7.00513 5.50376 6.99186C5.45932 6.97858 5.41269 6.9742 5.36655 6.97896C5.27339 6.98852 5.18783 7.03468 5.1287 7.10731C5.06957 7.17993 5.0417 7.27307 5.05123 7.36624C5.13832 8.21678 4.99877 9.03376 4.6362 9.80021C4.32151 9.5767 4.00643 9.35375 3.69097 9.13135C2.91453 8.58405 2.2544 7.85866 1.78181 7.03357L1.66031 6.82146L1.71107 6.7332L1.72303 6.71248L1.76404 6.64142L1.7781 6.61713L1.81813 6.54804L1.83553 6.51809L1.87401 6.4519L1.89281 6.4197L1.93157 6.35332L1.95098 6.32018L1.99021 6.25329L2.01102 6.2179L2.04951 6.15251L2.07196 6.1145L2.1119 6.04704L2.13238 6.01245L2.17344 5.94336L2.19609 5.90539L2.23569 5.83915L2.25927 5.79978L2.30165 5.72933L2.32227 5.69506L2.36919 5.61748L2.38635 5.58917L2.43622 5.50723L2.45165 5.48192L2.50771 5.39038L2.51685 5.37547C2.56115 5.30342 2.60558 5.23156 2.65007 5.16036L2.65147 5.15811L2.72994 5.03305L2.78033 4.95332L2.80114 4.9206L2.84493 4.85197L2.86911 4.81433L2.90919 4.75213L2.9353 4.71191L2.97313 4.65383L2.99985 4.61315L3.03674 4.55722L3.06346 4.51696C3.09572 4.46849 3.12822 4.42017 3.16095 4.37202L3.18856 4.33152L3.2218 4.28324L3.24927 4.24359L3.28227 4.19648L3.30861 4.15907L3.34095 4.11379L3.36711 4.07737L3.39889 4.03382L3.42388 3.99974L3.45622 3.95648L3.47923 3.92577C3.49105 3.91017 3.50262 3.89526 3.51425 3.88021L3.533 3.85588L3.53394 3.85471C3.91273 4.35397 4.35293 5.03633 4.66741 5.83573C4.70276 5.92139 4.77035 5.98973 4.85561 6.02601C4.94087 6.06229 5.03698 6.06362 5.12321 6.0297C5.20944 5.99578 5.27889 5.92933 5.31658 5.84468C5.35427 5.76002 5.35718 5.66395 5.32469 5.57717C4.96315 4.65824 4.45278 3.8864 4.0294 3.34068C4.69573 2.76872 5.78017 2.11899 6.69789 1.64058C6.8185 1.72874 6.91751 1.84316 6.98743 1.97519C7.05734 2.10722 7.09634 2.25341 7.10148 2.40272L7.14798 3.79134C7.17409 4.57147 7.57749 5.29564 8.22713 5.72839C8.49143 5.90484 8.78798 6.02734 9.09975 6.08886L12.3115 6.72593L17.0429 14.7653C17.5445 15.6174 18.4659 16.1228 19.4265 16.1228C19.5773 16.1228 19.7292 16.11 19.8805 16.0844L20.6012 16.9706C20.6606 17.0421 20.7459 17.0872 20.8384 17.0962C20.931 17.1052 21.0233 17.0773 21.0954 17.0187C21.1676 16.96 21.2137 16.8753 21.2237 16.7828C21.2337 16.6904 21.2069 16.5977 21.1491 16.525L19.7086 14.7537L15.5455 7.66596C15.5451 7.66516 15.5446 7.66441 15.5441 7.66361L15.186 7.05391C15.0901 6.89091 14.9621 6.7491 14.8097 6.6371L14.1501 4.86585C14.0406 4.5718 13.8058 4.35027 13.5058 4.25812C13.2058 4.16591 12.8873 4.21738 12.6315 4.39921L10.7949 5.70514L9.23714 5.39614C9.01617 5.35252 8.80599 5.26569 8.61867 5.14063C8.3914 4.98888 8.2035 4.78523 8.07049 4.5465C7.93749 4.30778 7.8632 4.04083 7.85377 3.76771L7.80727 2.3791C7.79802 2.10947 7.72447 1.84595 7.59276 1.6105C7.46104 1.37505 7.27498 1.17448 7.05006 1.02549C6.86012 0.899917 6.61548 0.887589 6.41158 0.993385C5.72542 1.34926 4.13539 2.22033 3.29909 3.05376L3.29408 3.05878C3.26878 3.08407 3.24384 3.10971 3.21927 3.1357C3.20664 3.14897 3.19411 3.16233 3.18167 3.17578C3.15256 3.20768 3.124 3.24008 3.09599 3.27295C2.51596 3.96398 1.60701 5.48891 0.946593 6.64652L0.946077 6.64756L0.945468 6.64849L0.53133 7.38522L0.148691 7.96506C-0.118166 8.36945 -0.0166827 8.90415 0.379784 9.1824L0.497861 9.26532L0.144473 10.1206C0.0756991 10.286 0.0647276 10.4698 0.113332 10.6422C0.161937 10.8146 0.267277 10.9655 0.412315 11.0707L0.820265 11.3676C0.964849 11.4733 1.14086 11.5272 1.31985 11.5205C1.49884 11.5138 1.67033 11.4469 1.8066 11.3307L2.53761 10.7097C2.90413 10.9712 3.27205 11.2347 3.63317 11.4944L3.24828 12.4256C3.17949 12.591 3.16852 12.7748 3.21712 12.9472C3.26573 13.1196 3.37108 13.2705 3.51612 13.3756L3.92408 13.6726C4.06865 13.7783 4.24467 13.8322 4.42366 13.8255C4.60266 13.8188 4.77416 13.7519 4.91041 13.6356L5.68221 12.9801C7.68427 14.4447 9.34561 15.7015 10.6208 16.7162C11.3761 17.3172 12.3222 17.9599 13.4338 18.6272L13.2426 19.2926C13.1986 19.4444 13.2071 19.6066 13.2667 19.753C13.3263 19.8994 13.4336 20.0213 13.5712 20.0991L13.9173 20.296C14.0545 20.3744 14.2141 20.4043 14.3704 20.3807C14.5267 20.3572 14.6705 20.2816 14.7785 20.1662L15.2523 19.6622C15.6348 19.8693 16.0195 20.0723 16.4063 20.2713L16.2694 20.8773C16.2343 21.0313 16.2521 21.1928 16.32 21.3355C16.388 21.4782 16.5021 21.5938 16.6439 21.6635L17.0008 21.8402C17.1423 21.9106 17.3034 21.9312 17.458 21.8986C17.6127 21.8661 17.7519 21.7824 17.853 21.661L18.2499 21.1868C18.4684 21.2887 18.6115 21.3397 18.7503 21.3891C18.8566 21.4269 18.9578 21.463 19.0962 21.5238L18.9738 22.0654C18.9392 22.2166 18.9567 22.375 19.0234 22.515C19.0901 22.655 19.2021 22.7684 19.3412 22.8369L19.6847 23.0069C19.8235 23.076 19.9816 23.0962 20.1334 23.0643C20.2851 23.0324 20.4217 22.9502 20.521 22.8311L20.9284 22.3443C21.306 22.5086 21.6849 22.67 22.0649 22.8285C22.4815 23.0019 22.9657 22.8552 23.216 22.4795L23.4622 22.1099L23.463 22.1087L23.6796 21.7836C24.1506 21.0765 24.0977 20.129 23.5512 19.4785ZM14.1805 7.10018C14.16 7.09399 14.1392 7.08855 14.118 7.08429C14.1172 7.08412 14.1165 7.08388 14.1158 7.08358L13.2393 6.90973L17.6516 14.4068C18.0091 15.0143 18.6538 15.3849 19.3358 15.4145L19.1436 15.1783C19.1324 15.1644 19.1222 15.1497 19.1131 15.1343L18.2261 13.6241L17.8332 13.665C17.7411 13.6727 17.6496 13.6439 17.5784 13.585C17.5073 13.526 17.462 13.4415 17.4525 13.3496C17.4429 13.2576 17.4698 13.1656 17.5273 13.0932C17.5848 13.0209 17.6684 12.974 17.7601 12.9625L17.8331 12.9549L17.1255 11.7502L16.7323 11.7911C16.6402 11.7988 16.5487 11.7701 16.4775 11.7111C16.4064 11.6521 16.3611 11.5676 16.3516 11.4757C16.342 11.3838 16.3689 11.2917 16.4264 11.2194C16.4839 11.147 16.5675 11.1001 16.6592 11.0887L16.7325 11.081L16.0552 9.92794L15.6599 9.9691C15.6135 9.97448 15.5665 9.97059 15.5216 9.95767C15.4767 9.94475 15.4348 9.92304 15.3983 9.89382C15.3619 9.86459 15.3316 9.82842 15.3092 9.7874C15.2868 9.74638 15.2728 9.70133 15.268 9.65486C15.2632 9.60839 15.2676 9.56142 15.281 9.51667C15.2945 9.47192 15.3167 9.43029 15.3463 9.39418C15.376 9.35807 15.4125 9.3282 15.4538 9.30631C15.4951 9.28442 15.5403 9.27093 15.5868 9.26663L15.6622 9.25881L15.0464 8.21041L14.6538 8.25128C14.5617 8.25897 14.4702 8.23025 14.3991 8.17128C14.3279 8.1123 14.2827 8.02778 14.2731 7.93585C14.2635 7.84392 14.2904 7.7519 14.3479 7.67954C14.4054 7.60718 14.489 7.56025 14.5807 7.54882L14.6534 7.54127L14.5771 7.41138C14.5646 7.39015 14.551 7.36971 14.5365 7.35011C14.4809 7.27511 14.4106 7.21296 14.3309 7.16613C14.3209 7.16027 14.3106 7.15488 14.3004 7.14954C14.2694 7.13311 14.2371 7.11925 14.2039 7.1081C14.1961 7.10543 14.1884 7.10257 14.1805 7.10018ZM13.1648 4.92364C13.1201 4.93085 13.0777 4.94833 13.0409 4.97469L11.7479 5.89404L13.9414 6.32914L13.4883 5.11217C13.4726 5.06969 13.4473 5.03141 13.4144 5.00035C13.3815 4.96928 13.3418 4.94627 13.2985 4.93311C13.2552 4.91967 13.2095 4.91642 13.1648 4.92364ZM22.4979 22.1845C22.5511 22.1684 22.5972 22.1342 22.6281 22.088L22.643 22.0656C22.572 22.0335 22.4914 21.9968 22.4029 21.9562L22.3394 21.9272L22.3274 21.9216C22.0843 21.8099 21.8417 21.6971 21.5997 21.5831C21.3754 21.4774 21.1515 21.3709 20.928 21.2635C20.634 21.1222 20.3407 20.9793 20.0481 20.8349C19.8978 20.7608 19.7476 20.6862 19.5977 20.6111C19.3044 20.4645 19.0119 20.3162 18.7204 20.1662C16.5195 19.0342 13.4515 17.3311 11.3338 15.646C9.34429 14.0629 6.72606 12.1552 4.54868 10.6045C4.12782 10.3049 3.70628 10.0062 3.28405 9.70852C3.23171 9.6716 3.17988 9.63397 3.12856 9.59565C3.11155 9.58294 3.09486 9.56977 3.07799 9.55693L3.07022 9.55102C3.03868 9.52703 3.00713 9.50302 2.97599 9.47846C2.95602 9.46271 2.93638 9.44645 2.91655 9.43046L2.90562 9.42165C2.87916 9.40031 2.85267 9.37895 2.82655 9.3572C2.80564 9.33981 2.78511 9.32195 2.76439 9.30427L2.75963 9.30021C2.733 9.27752 2.70639 9.25485 2.68011 9.23176C2.65907 9.21329 2.63835 9.1944 2.61754 9.17565C2.59058 9.15142 2.56363 9.12713 2.53705 9.10248C2.51605 9.08303 2.49538 9.06324 2.47462 9.04351C2.44879 9.01895 2.42291 8.99434 2.39741 8.9694C2.38996 8.96214 2.38232 8.9551 2.37491 8.94779C2.36169 8.93476 2.34885 8.92126 2.33573 8.90809C2.31071 8.88309 2.28586 8.85792 2.26119 8.83257C2.17149 8.73999 2.08419 8.6451 1.9994 8.548C1.95702 8.4994 1.91526 8.45025 1.87415 8.40058C1.83294 8.35098 1.79248 8.30075 1.75279 8.24992L1.74886 8.2449C1.73222 8.22366 1.71559 8.20244 1.69921 8.18102C1.67765 8.1528 1.65642 8.1243 1.63523 8.09575L1.63212 8.09157C1.61595 8.06986 1.59981 8.04817 1.58395 8.02624C1.5638 7.99844 1.54409 7.97034 1.52439 7.94227L1.52161 7.9383C1.50529 7.91509 1.48889 7.89194 1.47286 7.86855C1.45343 7.84012 1.43446 7.81144 1.41548 7.78274L1.41168 7.777C1.3965 7.75408 1.38107 7.73125 1.36617 7.70814C1.3467 7.67794 1.32773 7.64745 1.30874 7.61695L1.30523 7.6113C1.29145 7.58918 1.27739 7.56724 1.26384 7.54497L1.25756 7.53494L1.14098 7.74231C1.13687 7.74963 1.13249 7.75679 1.12786 7.76378L0.738282 8.35412C0.711828 8.39371 0.701967 8.4421 0.710821 8.48889C0.719674 8.53567 0.746535 8.57711 0.785625 8.60429L0.97139 8.73479C1.20408 8.89839 1.29075 9.19628 1.18209 9.4591L0.797156 10.3904C0.789256 10.4094 0.787998 10.4305 0.793586 10.4503C0.799174 10.4702 0.811281 10.4875 0.827953 10.4996L1.2359 10.7966C1.25254 10.8088 1.27278 10.815 1.29336 10.8142C1.31394 10.8134 1.33367 10.8057 1.34934 10.7924L2.14129 10.1196C2.24361 10.0325 2.3721 9.98213 2.50634 9.97641C2.64058 9.9707 2.77288 10.01 2.88224 10.0881C3.29259 10.3807 3.70232 10.6741 4.11143 10.9684C4.22216 11.0476 4.30277 11.1619 4.34009 11.2928C4.37741 11.4237 4.36923 11.5634 4.31689 11.689L3.90092 12.6954C3.89302 12.7144 3.89176 12.7356 3.89735 12.7554C3.90294 12.7752 3.91504 12.7926 3.93172 12.8047L4.33967 13.1017C4.35629 13.1139 4.37653 13.1201 4.39712 13.1193C4.4177 13.1185 4.43743 13.1108 4.4531 13.0975L5.28663 12.3894C5.38976 12.3013 5.51966 12.2507 5.65521 12.2457C5.79077 12.2407 5.92403 12.2817 6.03334 12.362C8.07249 13.8528 9.76392 15.1318 11.0606 16.1636C11.8066 16.7572 12.7496 17.3957 13.8635 18.0614C14.0986 18.2019 14.21 18.4836 14.1344 18.7464L13.9214 19.4878L14.2664 19.6822L14.7921 19.1206C14.8835 19.0235 15.0046 18.9594 15.1363 18.9383C15.2681 18.9172 15.4031 18.9404 15.5203 19.0041C15.9441 19.2343 16.3706 19.4594 16.7997 19.6795C16.9188 19.7406 17.0142 19.8396 17.0708 19.9608C17.1275 20.0821 17.1423 20.2188 17.1127 20.3493L16.9583 21.033L17.314 21.2073L17.7591 20.6728C17.8452 20.5697 17.9633 20.4984 18.0945 20.47C18.2258 20.4416 18.3628 20.4579 18.4837 20.5162C18.7101 20.6252 18.8447 20.6731 18.9871 20.7238C19.121 20.7714 19.2599 20.8209 19.4676 20.9166C19.7246 21.0349 19.8659 21.3213 19.8035 21.5975L19.6653 22.2094L19.987 22.3686L20.4361 21.8321C20.6067 21.6282 20.8963 21.56 21.1404 21.6664C21.66 21.8929 22.0774 22.0688 22.3362 22.1765C22.3875 22.1978 22.4447 22.2006 22.4979 22.1845Z" fill="white"/>
<path d="M14.118 7.08429C14.1392 7.08855 14.16 7.09399 14.1805 7.10018C14.1884 7.10257 14.1961 7.10543 14.2039 7.1081C14.2371 7.11925 14.2694 7.13311 14.3004 7.14954C14.3106 7.15488 14.3209 7.16027 14.3309 7.16613C14.4106 7.21296 14.4809 7.27511 14.5365 7.35011C14.551 7.36971 14.5646 7.39015 14.5771 7.41138L14.6534 7.54127L14.5807 7.54882C14.489 7.56025 14.4054 7.60718 14.3479 7.67954C14.2904 7.7519 14.2635 7.84392 14.2731 7.93585C14.2827 8.02778 14.3279 8.1123 14.3991 8.17128C14.4702 8.23025 14.5617 8.25897 14.6538 8.25128L15.0464 8.21041L15.6622 9.25881L15.5868 9.26663C15.5403 9.27093 15.4951 9.28442 15.4538 9.30631C15.4125 9.3282 15.376 9.35807 15.3463 9.39418C15.3167 9.43029 15.2945 9.47192 15.281 9.51667C15.2676 9.56142 15.2632 9.60839 15.268 9.65486C15.2728 9.70133 15.2868 9.74638 15.3092 9.7874C15.3316 9.82842 15.3619 9.86459 15.3983 9.89382C15.4348 9.92304 15.4767 9.94475 15.5216 9.95767C15.5665 9.97059 15.6135 9.97448 15.6599 9.9691L16.0552 9.92794L16.7325 11.081L16.6592 11.0887C16.5675 11.1001 16.4839 11.147 16.4264 11.2194C16.3689 11.2917 16.342 11.3838 16.3516 11.4757C16.3611 11.5676 16.4064 11.6521 16.4775 11.7111C16.5487 11.7701 16.6402 11.7988 16.7323 11.7911L17.1255 11.7502L17.8331 12.9549L17.7601 12.9625C17.6684 12.974 17.5848 13.0209 17.5273 13.0932C17.4698 13.1656 17.4429 13.2576 17.4525 13.3496C17.462 13.4415 17.5073 13.526 17.5784 13.585C17.6496 13.6439 17.7411 13.6727 17.8332 13.665L18.2261 13.6241L19.1131 15.1343C19.1222 15.1497 19.1324 15.1644 19.1436 15.1783L19.3358 15.4145C18.6538 15.3849 18.0091 15.0143 17.6516 14.4068L13.2393 6.90973L14.1158 7.08358C14.1165 7.08388 14.1172 7.08412 14.118 7.08429Z" fill="white"/>
</g>
<defs>
<clipPath id="clip0_13_70">
<rect width="24" height="24" fill="white"/>
</clipPath>
</defs>
</svg>
