<svg width="514" height="595" viewBox="0 0 514 595" fill="none" xmlns="http://www.w3.org/2000/svg">
<path d="M9 144.529V9H505.132V143.786C505.132 321.942 441.962 432.432 379.314 498.374C347.921 531.418 316.545 553.389 293.071 567.079C281.336 573.921 271.588 578.688 264.817 581.728C261.433 583.248 258.794 584.335 257.024 585.035C256.975 585.054 256.924 585.073 256.877 585.094C256.844 585.081 256.812 585.07 256.778 585.059C255.019 584.453 252.389 583.5 249.016 582.15C242.265 579.448 232.541 575.154 220.832 568.841C197.409 556.214 166.09 535.536 134.745 503.409C72.2197 439.32 9 329.078 9 144.529Z" fill="#055532" stroke="#055532" stroke-width="17"/>
<path fill-rule="evenodd" clip-rule="evenodd" d="M228.902 581.856C240.779 587.57 249.602 590.907 253.953 592.433C249.586 590.921 240.752 587.605 228.902 581.856Z" fill="white"/>
<path d="M198.36 564.924C122.787 517.766 1 401.84 1 144.464V1H513V143.72C513 436.639 344 550.448 280.626 582.828C344.016 550.434 512.983 436.616 512.983 143.727V35.9442C512.983 96.1542 486.27 143.727 404.646 145.214H198.36V264.147H404.646V299.828C404.646 360.037 387.579 408.354 296.309 408.354H198.36V564.924Z" fill="#4FB84E"/>
</svg>
