<svg width="24" height="24" viewBox="0 0 24 24" fill="none" xmlns="http://www.w3.org/2000/svg">
<g clip-path="url(#clip0_2196_49933)">
<path d="M23.861 16.6804L22.7168 15.5455C22.5329 15.3631 22.2361 15.3644 22.0537 15.5482C21.8713 15.7321 21.8726 16.029 22.0565 16.2113L23.2006 17.3461C23.2883 17.4334 23.407 17.4823 23.5307 17.4821C23.5926 17.4822 23.6539 17.47 23.7111 17.4462C23.7682 17.4224 23.82 17.3874 23.8636 17.3434C24.046 17.1596 24.0448 16.8627 23.861 16.6804ZM21.551 14.3844C21.3679 14.2013 21.0711 14.2013 20.8879 14.3844L20.8871 14.3852C20.704 14.5683 20.7044 14.8648 20.8875 15.0479C20.931 15.0914 20.9826 15.126 21.0395 15.1495C21.0963 15.173 21.1573 15.1851 21.2188 15.185C21.339 15.185 21.4593 15.1391 21.5509 15.0475C21.734 14.8644 21.734 14.5675 21.551 14.3844Z" fill="#0A9829"/>
<path d="M17.5544 16.5467L22.1026 11.9986C22.7914 11.3097 22.7914 10.1888 22.1025 9.49994C21.8686 9.26562 21.5733 9.10223 21.2505 9.02861C21.3588 8.7953 21.4148 8.5411 21.4144 8.28386C21.4144 7.81192 21.2306 7.36825 20.8969 7.03459C20.6352 6.77284 20.3057 6.60381 19.9481 6.54292C20.1494 5.92952 20.0071 5.227 19.5202 4.74016C19.2627 4.48228 18.9314 4.31089 18.5721 4.24975C18.6311 4.07077 18.6611 3.88352 18.661 3.69508C18.661 3.22314 18.4772 2.77947 18.1436 2.44581C17.8099 2.11216 17.3662 1.92836 16.8943 1.92836C16.5946 1.92836 16.3065 2.0027 16.0505 2.1423L16.0053 2.09369C15.4174 1.46191 14.5852 1.09961 13.7223 1.09961H10.0407C9.78181 1.09961 9.57185 1.30956 9.57185 1.56845V2.18327C9.57185 2.42931 9.61348 2.66884 9.69307 2.89408C9.47812 2.80502 9.24769 2.75937 9.01502 2.75973C8.54309 2.75973 8.09941 2.94353 7.76571 3.27719C7.27859 3.76431 7.13641 4.46734 7.33821 5.08094C6.97857 5.14196 6.64685 5.31342 6.38909 5.57153C6.05543 5.90523 5.87163 6.34891 5.87163 6.8208C5.87163 7.01186 5.90224 7.19814 5.96023 7.37444C5.60304 7.43551 5.27388 7.60445 5.01241 7.86597C4.47443 8.40395 4.35663 9.20551 4.65902 9.8589C4.33882 9.93208 4.04473 10.0933 3.8067 10.3313C3.11787 11.0201 3.11787 12.141 3.8067 12.8299L4.74204 13.7652L0.13732 18.3698C-0.0457734 18.5529 -0.0457734 18.8498 0.13732 19.0329C0.228867 19.1244 0.348867 19.1702 0.46882 19.1702C0.588773 19.1702 0.708773 19.1245 0.80032 19.0329L5.44948 14.3837C5.71268 14.5339 6.01137 14.6143 6.32266 14.6143C6.79455 14.6143 7.23823 14.4305 7.57193 14.0968C7.93446 13.7343 8.10593 13.2521 8.08685 12.7762C8.11062 12.7772 8.13438 12.7779 8.15815 12.7779C8.61049 12.7779 9.06307 12.6056 9.40741 12.2613C9.74107 11.9276 9.92487 11.4839 9.92487 11.012C9.92487 10.9882 9.92407 10.9645 9.92313 10.9407C9.94662 10.9417 9.9701 10.9424 9.99363 10.9424C10.446 10.9424 10.8985 10.7702 11.2429 10.4258C11.5766 10.0921 11.7604 9.64844 11.7604 9.17655C11.7604 9.15269 11.7596 9.12897 11.7586 9.10525C11.7821 9.10619 11.8056 9.10694 11.8291 9.10694C12.2816 9.10694 12.734 8.93472 13.0784 8.59033C13.7256 7.94308 13.7646 6.9145 13.1956 6.22117L16.3078 3.10895C16.4644 2.9523 16.6725 2.86609 16.894 2.86609C17.1155 2.86609 17.3237 2.9523 17.4803 3.10895C17.5575 3.18575 17.6187 3.27711 17.6604 3.37774C17.7021 3.47836 17.7234 3.58626 17.7231 3.69517C17.7231 3.91661 17.6369 4.12483 17.4802 4.28139L17.0214 4.74025L15.3565 6.40516C15.1734 6.58825 15.1734 6.88511 15.3565 7.06825C15.448 7.15975 15.568 7.20559 15.688 7.20559C15.8079 7.20559 15.9279 7.1598 16.0195 7.06825L17.6844 5.40334C18.0076 5.08009 18.5336 5.08005 18.8568 5.4033C19.1801 5.72659 19.1801 6.25253 18.8568 6.57583L18.3979 7.03473L17.1919 8.24073C17.0089 8.42383 17.0089 8.72069 17.1919 8.90383C17.2835 8.99533 17.4035 9.04117 17.5234 9.04117C17.6434 9.04117 17.7634 8.99537 17.8549 8.90383L19.0609 7.69783C19.1377 7.62059 19.2291 7.55935 19.3297 7.51766C19.4303 7.47597 19.5382 7.45466 19.6472 7.45497C19.8686 7.45497 20.0768 7.54117 20.2334 7.69783C20.3107 7.77463 20.3719 7.86598 20.4136 7.96661C20.4552 8.06724 20.4765 8.17513 20.4762 8.28405C20.4762 8.50548 20.39 8.7137 20.2334 8.87026L19.6035 9.50012L19.0274 10.0763C18.8443 10.2594 18.8443 10.5562 19.0274 10.7394C19.1189 10.8309 19.2389 10.8767 19.3589 10.8767C19.4788 10.8767 19.5988 10.8309 19.6904 10.7394L20.2669 10.1628C20.5902 9.84006 21.1159 9.84011 21.439 10.1632C21.7623 10.4865 21.7623 11.0125 21.439 11.3357L16.8908 15.8839C15.7488 17.026 14.2309 17.6872 12.6169 17.7458C12.4982 17.7501 12.3855 17.7993 12.3017 17.8834L8.10021 22.1005C7.91745 22.2839 7.91796 22.5808 8.10143 22.7635C8.14489 22.807 8.19649 22.8414 8.25326 22.8649C8.31004 22.8883 8.37089 22.9004 8.43232 22.9003C8.49405 22.9004 8.55518 22.8882 8.61218 22.8645C8.66918 22.8409 8.72093 22.8061 8.76443 22.7623L11.8548 19.6606C12.6397 20.1642 13.5629 20.4036 14.5016 20.3416L16.9202 22.7603C16.9637 22.8039 17.0154 22.8384 17.0723 22.862C17.1292 22.8856 17.1901 22.8977 17.2517 22.8976C17.3133 22.8977 17.3743 22.8856 17.4312 22.862C17.4881 22.8384 17.5397 22.8039 17.5832 22.7603C17.7663 22.5772 17.7663 22.2803 17.5832 22.0972L15.0116 19.5253C14.9635 19.4772 14.9055 19.4402 14.8417 19.4167C14.7778 19.3933 14.7096 19.384 14.6418 19.3895L14.4932 19.4017C13.8132 19.458 13.1318 19.3097 12.5367 18.9759L12.8381 18.6735C14.6201 18.5635 16.2884 17.8127 17.5544 16.5467ZM6.90893 13.4338C6.83213 13.511 6.74078 13.5723 6.64015 13.6139C6.53953 13.6556 6.43163 13.6769 6.32271 13.6766C6.21379 13.677 6.10589 13.6556 6.00526 13.614C5.90464 13.5723 5.81328 13.511 5.73649 13.4338L4.46965 12.167C4.1464 11.8437 4.1464 11.3177 4.46965 10.9945C4.54645 10.9172 4.63781 10.856 4.73845 10.8143C4.83908 10.7726 4.94699 10.7513 5.05591 10.7516C5.27735 10.7516 5.48557 10.8378 5.64213 10.9945L6.90898 12.2612C7.23218 12.5845 7.23218 13.1105 6.90893 13.4338ZM8.74451 11.5982C8.42121 11.9215 7.89513 11.9215 7.57198 11.5982L6.30513 10.3314L5.67523 9.70145C5.35198 9.3782 5.35198 8.85222 5.67523 8.52897C5.75202 8.45173 5.84338 8.3905 5.94401 8.34881C6.04463 8.30712 6.15253 8.28581 6.26145 8.28611C6.48293 8.28611 6.6911 8.37231 6.84766 8.52897L8.74437 10.4257C8.90102 10.5823 8.98727 10.7905 8.98727 11.0119C8.98727 11.2334 8.90107 11.4416 8.74451 11.5982ZM10.58 9.76267C10.2567 10.0859 9.73066 10.0859 9.40746 9.76267L7.05185 7.40706C6.97462 7.33026 6.91339 7.2389 6.87171 7.13828C6.83004 7.03765 6.80873 6.92976 6.80904 6.82084C6.80904 6.59941 6.89524 6.39119 7.0519 6.23462C7.12883 6.1576 7.22022 6.09653 7.32082 6.05493C7.42142 6.01332 7.52925 5.992 7.63812 5.99219C7.85027 5.99219 8.06238 6.07291 8.22396 6.23425L9.29759 7.30787L10.5799 8.59019H10.5799C10.6572 8.66699 10.7184 8.75835 10.76 8.85898C10.8017 8.9596 10.823 9.06749 10.8227 9.1764C10.8231 9.28533 10.8018 9.39323 10.7601 9.49387C10.7185 9.59451 10.6572 9.68587 10.58 9.76267ZM12.4155 7.92714C12.0923 8.25039 11.5663 8.25039 11.243 7.92714L8.88743 5.57153L8.88663 5.57078L8.42852 5.11267C8.10527 4.78937 8.10527 4.26344 8.42852 3.94014C8.50545 3.8631 8.59685 3.80201 8.69746 3.7604C8.79807 3.71878 8.90591 3.69746 9.01479 3.69766C9.22709 3.69766 9.43943 3.77847 9.60101 3.94014L12.4154 6.75456C12.4927 6.83136 12.5539 6.92271 12.5956 7.02334C12.6373 7.12396 12.6586 7.23186 12.6583 7.34078C12.6586 7.44972 12.6374 7.55764 12.5957 7.65829C12.554 7.75895 12.4928 7.85033 12.4155 7.92714ZM12.5388 5.55189L11.2511 4.26414C11.3986 4.29578 11.5491 4.31176 11.7 4.31181H11.7104L12.997 4.30577C13.2559 4.30455 13.4649 4.09366 13.4636 3.83472C13.4624 3.57653 13.2528 3.36808 12.9949 3.36808H12.9926L11.706 3.37413H11.7002C11.3831 3.37413 11.085 3.25108 10.8602 3.02734C10.6339 2.80216 10.5094 2.50244 10.5094 2.18322V2.03725H13.7221C14.3256 2.03725 14.9076 2.29061 15.3188 2.73245L15.3379 2.75294L12.5388 5.55189Z" fill="#0A9829"/>
</g>
<defs>
<clipPath id="clip0_2196_49933">
<rect width="24" height="24" fill="white"/>
</clipPath>
</defs>
</svg>
