<svg width="24" height="24" viewBox="0 0 24 24" fill="none" xmlns="http://www.w3.org/2000/svg">
<g id="Frame" clip-path="url(#clip0_102_837)">
<g id="Group">
<path id="Vector" d="M22.7612 13.7631C23.3768 12.7053 23.7868 11.514 23.9362 10.244L23.9376 10.2319C23.9789 9.87814 23.9998 9.52226 23.9999 9.16608C23.9999 6.7853 23.0873 4.61391 21.5939 2.98261C21.5701 2.9491 21.542 2.91888 21.5103 2.8927C20.5401 1.86089 19.3346 1.05286 17.9798 0.556266C17.9554 0.545192 17.9302 0.536252 17.9043 0.529547C16.944 0.187125 15.9106 0 14.8339 0C13.6331 0 12.4856 0.2325 11.4336 0.654234C11.405 0.662859 11.3776 0.674203 11.351 0.688125C10.0576 1.22133 8.91208 2.04234 7.99432 3.07088C7.96432 3.09741 7.9376 3.12727 7.9151 3.16022C6.51597 4.77009 5.66782 6.87084 5.66782 9.16608C5.66782 9.51014 5.6876 9.8498 5.72477 10.1842C5.72515 10.1884 5.72571 10.1924 5.72622 10.1964C5.79327 10.7944 5.91951 11.3843 6.1031 11.9573L1.17907 16.8812C0.995975 17.0643 0.995975 17.3611 1.17907 17.5442C1.22254 17.5878 1.27419 17.6224 1.33107 17.646C1.38794 17.6695 1.44891 17.6816 1.51047 17.6816C1.57204 17.6816 1.63301 17.6695 1.68988 17.646C1.74676 17.6224 1.79841 17.5878 1.84188 17.5442L6.47046 12.9159C6.59897 13.2012 6.74205 13.4798 6.89913 13.7505C6.91345 13.7826 6.93138 13.8129 6.95257 13.841C8.1146 15.7923 9.98004 17.2777 12.1967 17.9449L8.8946 21.2468C8.71169 21.4299 8.71169 21.7267 8.8946 21.9098C8.98615 22.0014 9.10629 22.0472 9.22619 22.0472C9.3461 22.0472 9.46605 22.0014 9.5576 21.9098L13.2694 18.198C13.778 18.2858 14.3006 18.3322 14.8338 18.3322C18.1727 18.3322 21.1001 16.5372 22.7026 13.8618C22.7261 13.8315 22.7458 13.7983 22.7612 13.7631H22.7612ZM18.7054 13.7816L17.0377 11.2152L17.9245 8.48602L20.0322 8.01267L20.5806 7.88962L22.9769 10.3504C22.8342 11.3363 22.5124 12.2878 22.0272 13.1578L18.7054 13.7816ZM12.6302 11.2152L10.9632 13.7803L7.63122 13.1409C7.14457 12.2632 6.82384 11.3032 6.6851 10.3092L9.08454 7.88892L11.7434 8.48602L12.3343 10.3048L12.6302 11.2152ZM8.01096 4.57106L8.43377 7.21383L6.60672 9.05677C6.62852 7.398 7.14288 5.85591 8.01096 4.57106ZM13.4856 10.8144L12.6576 8.26612L14.8252 6.69141L16.9929 8.26631L16.1649 10.8144H13.4856ZM23.0615 9.09361L21.2249 7.20759L21.5496 4.41633C22.489 5.74073 23.0464 7.35356 23.0615 9.09361ZM20.7215 3.42366L20.3066 6.99038L19.298 7.21669L17.6652 7.58325L15.3113 5.87306V3.33544L17.8553 1.51209C18.9431 1.94311 19.9174 2.59969 20.7215 3.42366ZM16.7371 1.16011L14.8141 2.53833L12.6703 1.22677C13.3754 1.03444 14.103 0.937161 14.8338 0.9375C15.4748 0.937207 16.1135 1.01193 16.7371 1.16016L16.7371 1.16011ZM11.5326 1.62966L14.3564 3.35742V5.87311L12.6961 7.07939L12.0026 7.5833L9.34685 6.98714L8.80122 3.57642C9.56388 2.75391 10.492 2.0872 11.5326 1.62966H11.5326ZM8.3561 14.2346L10.8853 14.7203L12.1735 16.953C10.6517 16.4317 9.32965 15.4761 8.3561 14.2346ZM13.4424 17.2763L11.7338 14.3148L13.3993 11.7519H16.2683L17.9337 14.3148L16.2256 17.2762C15.7659 17.3549 15.3003 17.3945 14.8338 17.3945C14.3675 17.3946 13.902 17.3551 13.4424 17.2763ZM17.4943 16.953L18.7818 14.7211L21.3013 14.2478C20.3288 15.4829 19.0108 16.4335 17.4943 16.953Z" fill="#0A9829"/>
<path id="Vector_2" d="M6.45578 16.8814L0.137355 23.2C-0.0457852 23.3831 -0.0457852 23.6799 0.137355 23.863C0.228902 23.9544 0.348762 24.0001 0.468762 24.0001C0.588762 24.0001 0.708621 23.9543 0.800168 23.8628L7.11878 17.5444C7.30173 17.3613 7.30173 17.0644 7.11878 16.8814C6.93568 16.6984 6.63887 16.6984 6.45578 16.8814ZM7.7882 22.5476C7.66501 22.5476 7.54412 22.5977 7.45698 22.6849C7.36984 22.7721 7.31945 22.8929 7.31945 23.0167C7.31945 23.1399 7.36961 23.2604 7.45698 23.3477C7.54484 23.4356 7.66393 23.4851 7.7882 23.4854C7.91253 23.4852 8.03169 23.4356 8.11961 23.3477C8.20716 23.2597 8.25651 23.1408 8.25695 23.0167C8.25673 22.8923 8.20736 22.773 8.11961 22.6849C8.03151 22.5973 7.91243 22.5479 7.7882 22.5475V22.5476Z" fill="#0A9829"/>
</g>
</g>
<defs>
<clipPath id="clip0_102_837">
<rect width="24" height="24" fill="white"/>
</clipPath>
</defs>
</svg>
