<svg width="24" height="24" viewBox="0 0 24 24" fill="none" xmlns="http://www.w3.org/2000/svg">
<path d="M15.64 10.5755C16.19 9.10546 17.07 7.79546 18.2 6.74546C18.58 6.38546 18.24 5.74546 17.74 5.89546C14.42 6.87546 11.99 9.94546 12 13.5855C12.95 12.3055 14.2 11.2755 15.64 10.5755ZM11.42 8.40546C10.82 6.84546 9.79 5.49546 8.46 4.53546C8.04 4.23546 7.5 4.72546 7.74 5.18546C8.54 6.70546 9 8.43546 9 10.2655C9 10.4755 8.97 10.6755 8.96 10.8755C9.39 11.1155 9.79 11.3955 10.18 11.6955C10.39 10.5155 10.83 9.40546 11.42 8.40546ZM12 19.5555H3C2.45 19.5555 2 19.1055 2 18.5555C2 18.0055 2.45 17.5555 3 17.5555H7.75C7.18 15.3655 5.71 13.5355 3.75 12.4955C3.59 12.4155 3.49 12.2455 3.49 12.0555C3.49 11.7855 3.71 11.5655 3.98 11.5555C3.99 11.5555 4 11.5555 4 11.5555C8.42 11.5555 12 15.1355 12 19.5555ZM20.26 12.4955C18.3 13.5355 16.82 15.3655 16.26 17.5555H21C21.55 17.5555 22 18.0055 22 18.5555C22 19.1055 21.55 19.5555 21 19.5555H14C14 18.8755 13.93 18.2055 13.8 17.5555C13.65 16.8355 13.42 16.1355 13.13 15.4855C14.52 13.1355 17.07 11.5555 20 11.5555C20.01 11.5555 20.02 11.5555 20.02 11.5555C20.29 11.5555 20.51 11.7855 20.51 12.0555C20.52 12.2455 20.41 12.4055 20.26 12.4955Z" fill="#222222"/>
</svg>
