<svg width="25" height="24" viewBox="0 0 25 24" fill="none" xmlns="http://www.w3.org/2000/svg">
<g id="majesticons:home-line">
<path id="Vector" d="M20.3999 19V10.5C20.3999 10.3448 20.3638 10.1916 20.2943 10.0528C20.2249 9.91393 20.1241 9.79315 19.9999 9.7L12.9999 4.45C12.8268 4.32018 12.6163 4.25 12.3999 4.25C12.1835 4.25 11.973 4.32018 11.7999 4.45L4.7999 9.7C4.67571 9.79315 4.5749 9.91393 4.50548 10.0528C4.43605 10.1916 4.3999 10.3448 4.3999 10.5V19C4.3999 19.2652 4.50526 19.5196 4.6928 19.7071C4.88033 19.8946 5.13469 20 5.3999 20H9.3999C9.66512 20 9.91947 19.8946 10.107 19.7071C10.2945 19.5196 10.3999 19.2652 10.3999 19V16C10.3999 15.7348 10.5053 15.4804 10.6928 15.2929C10.8803 15.1054 11.1347 15 11.3999 15H13.3999C13.6651 15 13.9195 15.1054 14.107 15.2929C14.2945 15.4804 14.3999 15.7348 14.3999 16V19C14.3999 19.2652 14.5053 19.5196 14.6928 19.7071C14.8803 19.8946 15.1347 20 15.3999 20H19.3999C19.6651 20 19.9195 19.8946 20.107 19.7071C20.2945 19.5196 20.3999 19.2652 20.3999 19Z" fill="#0A9829" stroke="#0A9829" stroke-width="1.5" stroke-linecap="round" stroke-linejoin="round"/>
</g>
</svg>
