<svg xmlns="http://www.w3.org/2000/svg" version="1.1" xmlns:xlink="http://www.w3.org/1999/xlink" width="512" height="512" x="0" y="0" viewBox="0 0 48 48" style="enable-background:new 0 0 512 512" xml:space="preserve" class=""><g><path d="M4 18h6v27a1 1 0 0 0 1 1h26a1 1 0 0 0 1-1V18h6a1 1 0 0 0 .994-.89l1-9a1 1 0 0 0-.677-1.059l-15-5a1.002 1.002 0 0 0-1.076.298c-2.6 3.185-7.881 3.183-10.481 0a1.003 1.003 0 0 0-1.076-.298l-15 5a1 1 0 0 0-.678 1.059l1 9A1 1 0 0 0 4 18z" fill="#000000" opacity="1" data-original="#000000" class=""></path></g></svg>