<svg width="24" height="24" viewBox="0 0 24 24" fill="none" xmlns="http://www.w3.org/2000/svg">
<path d="M24 16.125C24 18.4031 22.7351 20.25 20.25 20.25H3.75C1.26488 20.25 0 18.4031 0 16.125V7.875C0 5.59688 1.26488 3.75 3.75 3.75H20.25C22.7351 3.75 24 5.59688 24 7.875V16.125Z" fill="#EC1C24"/>
<path fill-rule="evenodd" clip-rule="evenodd" d="M10.0532 8.04967C10.2662 8.12505 10.4135 8.2698 10.5129 8.47042C10.6003 8.64855 10.6678 8.83605 10.7709 9.00667C10.8062 9.0648 10.8474 9.11955 10.8845 9.17617C10.9022 9.2043 10.9205 9.2073 10.9483 9.1908C10.9648 9.18067 10.9843 9.17392 11.0034 9.16717C11.0199 9.1608 11.0259 9.1533 11.0188 9.13417C10.9224 8.87467 10.9052 8.5998 10.853 8.33055C10.817 8.13467 10.7411 7.9483 10.6299 7.78305C10.6254 7.7763 10.6224 7.7688 10.6134 7.7508C10.8017 7.84792 10.9299 7.98555 11.0087 8.1693C11.0825 8.34217 11.1234 8.52592 11.1789 8.70442C11.2119 8.8083 11.255 8.90767 11.3015 9.00555C11.3192 9.04455 11.3398 9.05505 11.3818 9.04267C11.462 9.01905 11.4602 9.0213 11.4482 8.9343C11.4317 8.80846 11.423 8.68171 11.4223 8.5548C11.4204 8.33205 11.426 8.10967 11.3795 7.88917C11.3545 7.77927 11.319 7.67202 11.2734 7.56892C11.4504 7.70092 11.5468 7.86742 11.5985 8.06167C11.648 8.2503 11.6664 8.44492 11.6983 8.6373C11.7144 8.73405 11.7369 8.82817 11.7635 8.92192C11.7733 8.9598 11.7894 8.97517 11.8277 8.96655C11.8337 8.96505 11.8385 8.96505 11.8442 8.96505C11.9188 8.9583 11.9195 8.9583 11.9195 8.88367C11.9177 8.6628 11.9732 8.45055 12.0249 8.23792C12.0823 8.00505 12.1037 7.7703 12.0662 7.53217C12.065 7.52392 12.0658 7.51567 12.0658 7.49805C12.191 7.65217 12.2458 7.82167 12.251 8.00842C12.2567 8.18167 12.236 8.35417 12.2229 8.52592C12.2144 8.65639 12.2168 8.78735 12.23 8.91742C12.2364 8.98305 12.2897 8.95605 12.3234 8.96505C12.3643 8.97667 12.3602 8.94405 12.3643 8.9193C12.3969 8.69542 12.4817 8.48767 12.5668 8.27917C12.6463 8.08417 12.7063 7.8843 12.7018 7.67055C12.7018 7.62817 12.6977 7.58655 12.695 7.53442C12.7558 7.61505 12.7895 7.69905 12.8128 7.78755C12.8642 7.98367 12.8334 8.17755 12.7877 8.37067C12.749 8.53342 12.6977 8.69317 12.6767 8.8593C12.6718 8.89417 12.6718 8.92905 12.6658 8.96317C12.6583 9.00292 12.6699 9.01792 12.71 9.02617C12.7959 9.04267 12.7967 9.04605 12.8274 8.96055C12.893 8.7738 12.9947 8.60542 13.097 8.43705C13.1885 8.28667 13.2804 8.13517 13.3284 7.96267C13.3513 7.87905 13.3648 7.7943 13.3682 7.69455C13.4207 7.77817 13.4439 7.85917 13.4525 7.9443C13.4687 8.08642 13.4345 8.22142 13.3835 8.35342C13.307 8.5518 13.2047 8.74005 13.1428 8.9448C13.1267 8.99617 13.1154 9.04792 13.1008 9.0993C13.0922 9.13155 13.1019 9.14805 13.1345 9.16042C13.2107 9.18817 13.2088 9.19042 13.2474 9.1158C13.3562 8.90355 13.5118 8.72692 13.6667 8.54992C13.7672 8.4363 13.8635 8.32117 13.9254 8.18092C13.9554 8.11155 13.9764 8.03917 13.9892 7.95292C14.0237 8.03842 14.0278 8.11792 14.0244 8.19667C14.0165 8.3583 13.9543 8.50342 13.8744 8.6418C13.7679 8.82592 13.64 8.99842 13.55 9.19192C13.5335 9.22755 13.5215 9.26355 13.505 9.2988C13.4915 9.32655 13.4994 9.34042 13.5257 9.35542C13.5909 9.39442 13.5909 9.3963 13.6344 9.33555C13.7795 9.13155 13.9753 8.98117 14.1643 8.82217C14.3053 8.7033 14.4407 8.5788 14.5198 8.40667C14.5359 8.37255 14.5487 8.33692 14.567 8.29305C14.5997 8.5413 14.5262 8.74792 14.3859 8.93655C14.2588 9.10605 14.1054 9.25417 13.9843 9.4278C13.9506 9.47614 13.9185 9.52554 13.8879 9.57592C13.8602 9.61942 13.9085 9.62505 13.925 9.64642C13.9408 9.66742 13.9558 9.66255 13.9734 9.64455C14.1234 9.48967 14.3027 9.37417 14.4812 9.25755C14.6402 9.15367 14.8007 9.05242 14.9323 8.91405C14.984 8.85967 15.029 8.80042 15.074 8.7393C15.074 8.86567 15.0403 8.98155 14.9799 9.0903C14.8843 9.2628 14.7373 9.3888 14.5888 9.51255C14.4557 9.62392 14.321 9.73192 14.2055 9.86242C14.1748 9.89655 14.1917 9.91305 14.2123 9.9393C14.2348 9.96705 14.2494 9.97417 14.2824 9.95017C14.4167 9.85155 14.5678 9.7833 14.72 9.7188C15.0062 9.59692 15.2953 9.48217 15.5229 9.23242C15.5171 9.351 15.4759 9.46514 15.4048 9.56017C15.3185 9.67642 15.2019 9.75667 15.0812 9.83055C14.8817 9.95242 14.6735 10.0597 14.4909 10.2055C14.4485 10.2389 14.447 10.2637 14.4789 10.3027C14.4924 10.3188 14.5003 10.3282 14.5224 10.318C14.7658 10.2037 15.029 10.1549 15.2863 10.0867C15.4592 10.0405 15.6283 9.9858 15.7757 9.87855C15.8064 9.85605 15.8349 9.83055 15.8657 9.80542C15.8788 9.88492 15.8297 10.0008 15.752 10.0784C15.6444 10.1887 15.5083 10.2535 15.3684 10.312C15.1468 10.4058 14.9188 10.483 14.7043 10.5933C14.6492 10.6214 14.6424 10.6544 14.6814 10.7062C14.6897 10.7178 14.6979 10.7178 14.7084 10.7152C15.041 10.6338 15.3834 10.6323 15.719 10.5723C15.8651 10.549 16.0052 10.497 16.1312 10.4193C16.1173 10.5307 16.055 10.6 15.9755 10.6567C15.8574 10.7422 15.719 10.7842 15.5807 10.8217C15.3392 10.8862 15.0939 10.9327 14.8554 11.0092C14.7969 11.0283 14.7808 11.0804 14.8153 11.1307C14.8232 11.143 14.834 11.1408 14.8442 11.1404C15.1183 11.1265 15.3917 11.1603 15.665 11.173C15.8758 11.1828 16.0843 11.1745 16.2872 11.095C16.2557 11.1749 16.1559 11.2604 16.0498 11.3065C15.8893 11.3752 15.7198 11.3909 15.5488 11.4059C15.3418 11.4235 15.134 11.4292 14.9282 11.461C14.9045 11.4652 14.8644 11.4554 14.8734 11.5015C14.8798 11.5372 14.8599 11.5867 14.9293 11.5919C15.1333 11.6062 15.3317 11.6549 15.5323 11.6947C15.8012 11.7475 16.0693 11.8027 16.3528 11.7494C16.3097 11.8473 16.2317 11.8882 16.1432 11.9129C15.9598 11.9628 15.7738 11.9403 15.5882 11.929C15.3699 11.9163 15.1513 11.8938 14.9327 11.9024C14.9053 11.9039 14.8738 11.8975 14.879 11.9418C14.8835 11.9774 14.8468 12.022 14.9199 12.0378C15.143 12.0869 15.3538 12.1762 15.5675 12.2542C15.7948 12.337 16.0254 12.4038 16.2707 12.3982C16.2759 12.3982 16.2804 12.4008 16.2924 12.4049C16.2175 12.478 16.1195 12.5228 16.0153 12.5317C15.7914 12.5594 15.5765 12.5065 15.3605 12.4612C15.2012 12.4267 15.0407 12.3922 14.8809 12.3595C14.858 12.3554 14.8239 12.3348 14.8142 12.3805C14.8074 12.4165 14.7872 12.448 14.8438 12.4724C15.0609 12.5643 15.2608 12.6888 15.4667 12.8039C15.6152 12.8875 15.7648 12.97 15.9287 13.0222C15.9954 13.0435 16.0637 13.0552 16.1402 13.0653C16.0901 13.1082 16.0277 13.1342 15.962 13.1395C15.8053 13.1598 15.6594 13.117 15.5147 13.0664C15.2893 12.9884 15.0725 12.886 14.8445 12.8148C14.8059 12.8024 14.7658 12.7949 14.7279 12.781C14.699 12.7702 14.6829 12.781 14.6818 12.8069C14.6803 12.8373 14.6233 12.8684 14.6709 12.8958C14.987 13.0792 15.2567 13.3278 15.5552 13.5359C15.6538 13.6049 15.7577 13.663 15.8859 13.6833C15.791 13.7467 15.6954 13.7395 15.5987 13.7178C15.3943 13.672 15.2199 13.5565 15.0433 13.4545C14.8802 13.3623 14.723 13.2599 14.5524 13.1812C14.5198 13.1665 14.4988 13.162 14.4842 13.2003C14.4729 13.231 14.429 13.2517 14.4823 13.2933C14.7054 13.465 14.8802 13.6855 15.0695 13.8907C15.1802 14.0092 15.2889 14.1307 15.437 14.2038C15.4667 14.2188 15.4974 14.23 15.5274 14.2439C15.4734 14.2855 15.3208 14.2653 15.2229 14.2255C15.1078 14.1759 15.0003 14.1101 14.9038 14.0302C14.7189 13.8873 14.5498 13.7253 14.3604 13.5877C14.3492 13.5794 14.3372 13.5697 14.3248 13.5614C14.2603 13.5179 14.2258 13.5284 14.1913 13.6004C14.1823 13.6184 14.1935 13.6237 14.2014 13.6319C14.3908 13.8213 14.5232 14.0519 14.6672 14.2739C14.7647 14.4243 14.8712 14.5675 15.0159 14.6763C15.047 14.6988 15.0793 14.719 15.1175 14.7457C15.0013 14.7734 14.9042 14.7434 14.8112 14.6913C14.7058 14.632 14.6195 14.5488 14.537 14.4614C14.3702 14.2833 14.222 14.0872 14.0473 13.9154C14.0381 13.9065 14.0291 13.8974 14.0203 13.888C13.9614 13.8337 13.9344 13.8374 13.886 13.9019C13.8744 13.9158 13.8804 13.9244 13.8883 13.9345C14.0792 14.1952 14.1879 14.4985 14.3274 14.7854C14.3998 14.9347 14.4748 15.082 14.6068 15.1927C14.5513 15.2073 14.4755 15.1893 14.4092 15.1503C14.3075 15.0929 14.2303 15.0093 14.1613 14.9174C14.0634 14.7884 13.982 14.6485 13.8969 14.5109C13.8204 14.3852 13.7378 14.2633 13.6494 14.1457C13.613 14.0984 13.5902 14.1235 13.5553 14.1415C13.5122 14.1629 13.5268 14.1858 13.5414 14.2154C13.6404 14.4183 13.685 14.6388 13.7417 14.8555C13.7863 15.0239 13.8268 15.1945 13.9067 15.3513C13.9389 15.4154 13.979 15.4743 14.024 15.5328C13.9552 15.5236 13.8907 15.4941 13.8388 15.448C13.721 15.3494 13.649 15.22 13.586 15.0835C13.4915 14.8784 13.418 14.6639 13.3093 14.4652C13.2909 14.431 13.2677 14.4003 13.2508 14.365C13.2317 14.326 13.2118 14.3223 13.1702 14.3395C13.1255 14.3587 13.1147 14.3737 13.1312 14.4217C13.2118 14.6467 13.2294 14.884 13.2568 15.1195C13.28 15.3187 13.2939 15.5189 13.3757 15.706C13.3892 15.7383 13.4057 15.769 13.4248 15.8084C13.3543 15.7836 13.2915 15.7407 13.2429 15.6839C13.1383 15.5725 13.0869 15.4327 13.0472 15.2883C12.9849 15.0693 12.9459 14.8428 12.8698 14.6283C12.8533 14.5829 12.8323 14.5402 12.8158 14.4955C12.7982 14.4483 12.7663 14.4798 12.7419 14.4835C12.7202 14.4869 12.686 14.482 12.6917 14.5244C12.7307 14.7955 12.6995 15.0678 12.6954 15.3397C12.6928 15.5508 12.7033 15.7589 12.7839 15.961C12.6969 15.9299 12.6182 15.8425 12.5702 15.7323C12.506 15.5834 12.488 15.4248 12.4715 15.265C12.4498 15.0517 12.4449 14.8353 12.4059 14.623C12.3913 14.542 12.3924 14.5435 12.314 14.5514C12.2882 14.5533 12.2795 14.5615 12.2795 14.5878C12.281 14.8312 12.2417 15.0715 12.209 15.3119C12.1768 15.5444 12.152 15.778 12.2064 16.027C12.0841 15.8887 12.007 15.7162 11.9855 15.5328C11.963 15.3524 11.9912 15.1732 12.0032 14.9935C12.0114 14.863 12.02 14.7329 12.0002 14.6028C11.9949 14.5705 11.984 14.5604 11.9522 14.5589C11.8457 14.5518 11.8468 14.551 11.8288 14.6575C11.792 14.8825 11.7095 15.0929 11.6387 15.3078C11.5805 15.4844 11.5258 15.6614 11.5239 15.8504C11.5235 15.892 11.5277 15.9348 11.5299 15.9865C11.4734 15.923 11.4334 15.8465 11.4133 15.7638C11.369 15.5984 11.3885 15.4319 11.417 15.2665C11.453 15.0509 11.5104 14.8387 11.5228 14.6189L11.5247 14.5859C11.5262 14.5038 11.5145 14.4914 11.4339 14.4862C11.4163 14.485 11.4065 14.4892 11.4017 14.5072C11.3252 14.8413 11.1437 15.1308 11.0068 15.4383C10.9494 15.5688 10.8984 15.6989 10.8969 15.8452C10.8335 15.745 10.8118 15.634 10.8118 15.5182C10.8118 15.319 10.8815 15.1353 10.943 14.9512C10.9993 14.7835 11.0638 14.62 11.0968 14.4453C11.099 14.4337 11.0985 14.4217 11.0953 14.4102C11.0922 14.3988 11.0865 14.3883 11.0786 14.3794C11.0708 14.3705 11.061 14.3636 11.05 14.3591C11.0391 14.3546 11.0272 14.3526 11.0154 14.3534C11.0012 14.3542 10.9963 14.3635 10.9918 14.3733C10.8718 14.6519 10.6674 14.8765 10.5032 15.127C10.406 15.2755 10.3228 15.4297 10.2789 15.6145C10.2403 15.5305 10.238 15.4495 10.2392 15.3689C10.2407 15.2035 10.2954 15.052 10.3663 14.905C10.4608 14.7093 10.5778 14.5263 10.6652 14.3268C10.6682 14.3189 10.6727 14.3103 10.6757 14.3013C10.7192 14.1847 10.7244 14.2207 10.6205 14.1547C10.6037 14.1434 10.5924 14.1457 10.5804 14.1625C10.4004 14.4157 10.1623 14.6167 9.96315 14.8537C9.85262 14.9827 9.7636 15.1287 9.69953 15.286C9.67028 15.2275 9.6639 15.1117 9.68115 15.0179C9.70778 14.8713 9.7764 14.7442 9.86265 14.6268C9.97403 14.4779 10.0907 14.3328 10.2035 14.1854C10.2497 14.125 10.2887 14.0605 10.3254 13.9953C10.3603 13.9338 10.2924 13.9345 10.2725 13.9068C10.2519 13.8775 10.2392 13.9083 10.2279 13.9207C10.0929 14.0729 9.92865 14.1918 9.76515 14.3107C9.6054 14.4265 9.44265 14.5372 9.3084 14.6834C9.25663 14.7426 9.21102 14.807 9.17228 14.8754C9.15165 14.7419 9.18165 14.6298 9.23678 14.5222C9.29415 14.4093 9.37553 14.3148 9.46403 14.2255C9.62603 14.0602 9.8079 13.9143 9.9594 13.7373L9.97365 13.7208C10.0157 13.6709 10.0037 13.6128 9.94628 13.5809C9.93203 13.5734 9.92565 13.5824 9.91853 13.5888C9.71378 13.762 9.46928 13.8674 9.23453 13.9897C9.07778 14.071 8.92403 14.158 8.80478 14.2938C8.78003 14.3215 8.75715 14.3527 8.7279 14.3898C8.71761 14.3151 8.72934 14.239 8.76165 14.1708C8.82728 14.02 8.94428 13.9143 9.07515 13.8228C9.2334 13.7129 9.39503 13.606 9.55328 13.4965C9.61703 13.453 9.67703 13.4035 9.72915 13.3462C9.7689 13.3015 9.70928 13.2809 9.70028 13.2483C9.69315 13.225 9.67703 13.2262 9.65678 13.2378C9.44753 13.3578 9.21503 13.4185 8.9889 13.4943C8.80103 13.5573 8.6139 13.6199 8.45153 13.7425C8.41928 13.7673 8.39003 13.7947 8.3514 13.8269C8.35494 13.7671 8.37296 13.7091 8.4039 13.6578C8.4729 13.5378 8.57715 13.4534 8.69303 13.3837C8.85353 13.2858 9.02528 13.2097 9.19478 13.129C9.29715 13.0795 9.3969 13.0263 9.49515 12.967C9.56153 12.9277 9.5019 12.8932 9.49403 12.8572C9.48578 12.8133 9.45578 12.8365 9.43478 12.844C9.22215 12.9205 8.99903 12.9464 8.77815 12.9858C8.57153 13.0229 8.36415 13.0552 8.17478 13.1519C8.1414 13.1692 8.1084 13.1898 8.06265 13.2149C8.10053 13.129 8.1489 13.0679 8.20853 13.0139C8.33678 12.898 8.49053 12.8298 8.6514 12.775C8.87378 12.6982 9.1044 12.6475 9.32565 12.568C9.3714 12.5515 9.3834 12.5358 9.37103 12.4859C9.35565 12.43 9.33878 12.4128 9.27615 12.4199C9.03765 12.4495 8.79878 12.4402 8.55915 12.4458C8.3994 12.451 8.23928 12.4559 8.08253 12.4972C8.02778 12.5125 7.97453 12.5309 7.92203 12.5557C7.91153 12.5579 7.9074 12.5534 7.91003 12.5425C8.0544 12.3535 8.25915 12.2755 8.48303 12.2332C8.6829 12.1945 8.88803 12.1878 9.09015 12.157C9.14565 12.1484 9.20153 12.1345 9.25815 12.1259C9.2859 12.1218 9.29303 12.1094 9.29115 12.082C9.28515 11.9819 9.2859 11.9827 9.18915 11.9785C8.99445 11.9674 8.80052 11.9454 8.60828 11.9125C8.3469 11.8713 8.08478 11.8263 7.80615 11.8987C7.88453 11.7993 7.97603 11.7475 8.08028 11.7153C8.26853 11.6572 8.4624 11.6699 8.65478 11.6767C8.84453 11.683 9.03353 11.6898 9.22328 11.6725C9.29978 11.6658 9.26715 11.6114 9.27803 11.5758C9.29115 11.5327 9.25815 11.5327 9.23153 11.5293C8.98328 11.4914 8.74703 11.4074 8.50853 11.3335C8.2974 11.2687 8.08365 11.2154 7.85753 11.2345C7.8924 11.1963 7.98128 11.1558 8.07953 11.1262C8.2659 11.0714 8.4534 11.0823 8.64203 11.1112C8.84978 11.1434 9.05378 11.194 9.26378 11.2045C9.27595 11.2056 9.28821 11.2038 9.29954 11.1993C9.31088 11.1947 9.32097 11.1875 9.32898 11.1783C9.337 11.1691 9.34271 11.1581 9.34565 11.1462C9.34859 11.1343 9.34868 11.1219 9.3459 11.11C9.34253 11.0917 9.32828 11.0932 9.31703 11.0905C9.12315 11.0444 8.94915 10.9544 8.77928 10.8543C8.5479 10.717 8.30265 10.6267 8.0334 10.6053C8.01728 10.6038 8.0019 10.6004 7.97603 10.5967C8.14259 10.5227 8.3261 10.4952 8.50703 10.5172C8.7009 10.54 8.8794 10.6158 9.06015 10.6822C9.17003 10.723 9.28178 10.7602 9.39728 10.7827C9.4299 10.789 9.45015 10.786 9.4584 10.7504C9.46326 10.7328 9.47018 10.7158 9.47903 10.6998C9.48803 10.6792 9.4854 10.6679 9.46253 10.6582C9.2139 10.5573 9.00803 10.3893 8.79615 10.231C8.63115 10.1077 8.4549 10.0072 8.24978 9.96742C8.24265 9.9663 8.23478 9.9648 8.23365 9.95317C8.5224 9.91005 8.79878 9.93405 9.05603 10.0867C9.22365 10.186 9.3864 10.294 9.57315 10.3555C9.59978 10.3645 9.62865 10.3882 9.65415 10.3454C9.69278 10.2798 9.69428 10.2813 9.62903 10.2408C9.47151 10.1413 9.33139 10.0167 9.21428 9.8718C9.03803 9.65992 8.8299 9.49305 8.5704 9.39405C8.56403 9.39217 8.55953 9.38655 8.54715 9.37755C8.84865 9.36817 9.10665 9.45555 9.33353 9.64267C9.4854 9.76717 9.63315 9.89842 9.81278 9.98542C9.83453 9.9963 9.8589 10.0237 9.88103 10.0072C9.90953 9.9858 9.9309 9.95317 9.9519 9.92392C9.96278 9.9093 9.9459 9.9003 9.9369 9.89317C9.7494 9.73155 9.6114 9.52905 9.47003 9.32917C9.3399 9.14505 9.18503 8.98792 8.9874 8.87542C8.9814 8.87205 8.97653 8.86717 8.96978 8.8623C9.03053 8.84992 9.12465 8.86417 9.21578 8.89455C9.36503 8.94517 9.49028 9.03367 9.60278 9.14242C9.75128 9.2853 9.8814 9.44692 10.0363 9.5823C10.0719 9.6138 10.1105 9.64342 10.148 9.67267C10.2017 9.71392 10.2133 9.64755 10.244 9.63255C10.2785 9.61605 10.2515 9.5973 10.2388 9.58192C10.1068 9.42555 10.0175 9.24442 9.93203 9.06105C9.83715 8.8563 9.72953 8.66055 9.5649 8.5008C9.53265 8.46855 9.49815 8.43855 9.46178 8.40367C9.50753 8.3973 9.54465 8.4168 9.58215 8.4303C9.76965 8.49967 9.91515 8.62192 10.0329 8.78017C10.1537 8.94105 10.2553 9.1143 10.3869 9.2658C10.4244 9.30892 10.4642 9.35017 10.5039 9.39067C10.553 9.44055 10.5763 9.37642 10.6108 9.3633C10.6464 9.35017 10.6187 9.32767 10.6093 9.31117C10.4867 9.1008 10.4244 8.86755 10.3513 8.63842C10.2823 8.4243 10.1844 8.22705 10.0295 8.06055C10.0292 8.0418 10.0393 8.04255 10.0532 8.04855" fill="#FEFE00"/>
<path fill-rule="evenodd" clip-rule="evenodd" d="M14.5234 11.7651C14.5225 12.4122 14.2647 13.0325 13.8067 13.4897C13.3486 13.9468 12.7278 14.2034 12.0807 14.203C11.7603 14.2028 11.443 14.1395 11.1471 14.0167C10.8511 13.8939 10.5823 13.7139 10.356 13.4871C10.1296 13.2603 9.95022 12.9911 9.82797 12.6949C9.70573 12.3988 9.64306 12.0814 9.64356 11.761C9.64455 11.1147 9.90185 10.4952 10.359 10.0384C10.8162 9.58155 11.4359 9.32472 12.0822 9.32422C13.4262 9.32197 14.5246 10.4211 14.5234 11.7651Z" fill="#EC1C24"/>
<path fill-rule="evenodd" clip-rule="evenodd" d="M13.6691 10.4031C13.5449 10.4034 13.4298 10.4016 13.3147 10.4117C12.8991 10.4442 12.4967 10.5725 12.1391 10.7867C12.0989 10.8114 12.0712 10.8114 12.0322 10.7818C11.8061 10.6142 11.5469 10.5249 11.2747 10.4691C11.0926 10.4322 10.9079 10.4102 10.7223 10.4031C10.6567 10.4001 10.5911 10.4023 10.5157 10.4023C11.2154 9.52293 12.7691 9.35793 13.6691 10.4031ZM11.4539 11.2213C11.177 11.4692 10.95 11.7678 10.7853 12.1011C10.6199 12.4352 10.5269 12.7869 10.5397 13.1721C10.4686 13.1041 10.4062 13.0275 10.3541 12.9441C10.0469 12.4787 9.93632 11.9702 10.0244 11.4193C10.0466 11.2824 10.0833 11.1504 10.1328 11.0211C10.1414 10.9974 10.1489 10.9798 10.1812 10.9798C10.6169 10.9798 11.0433 11.0278 11.4453 11.2119C11.4464 11.2123 11.4468 11.2146 11.4539 11.2213ZM13.6691 13.1252C13.6541 12.3313 13.3094 11.7058 12.6907 11.2112C12.7537 11.1872 12.8096 11.1632 12.8673 11.1433C13.2033 11.0259 13.5472 10.9596 13.9049 10.9671C14.0246 10.9697 14.0261 10.9682 14.0658 11.0814C14.1813 11.4107 14.2098 11.7482 14.1566 12.0928C14.1001 12.4582 13.9473 12.802 13.7141 13.0888C13.7036 13.1019 13.6957 13.1196 13.6691 13.1252ZM12.0937 11.7606C12.2054 11.9166 12.2861 12.0816 12.3476 12.2544C12.4976 12.6774 12.5452 13.1121 12.4923 13.5579C12.4829 13.6378 12.4634 13.7166 12.4507 13.7968C12.4466 13.8261 12.4316 13.8339 12.4042 13.8384C12.2174 13.8684 12.0307 13.8654 11.8432 13.8493C11.7843 13.8441 11.7622 13.8223 11.7498 13.7623C11.6587 13.3014 11.6699 12.8454 11.7993 12.3939C11.8618 12.168 11.9612 11.954 12.0937 11.7606ZM12.4912 11.3994C12.6521 11.5176 12.7859 11.6608 12.9037 11.8191C13.1488 12.1446 13.3129 12.5238 13.3826 12.9253C13.4088 13.0704 13.4163 13.2167 13.4118 13.3648C13.4107 13.3794 13.4118 13.3944 13.3976 13.4038C13.3319 13.4503 13.2719 13.5054 13.1883 13.5478C13.2532 12.7303 12.9378 12.0441 12.4912 11.3994Z" fill="#FEFE00"/>
<path fill-rule="evenodd" clip-rule="evenodd" d="M11.0012 13.5527C10.9266 13.519 10.8696 13.4684 10.8088 13.4252C10.7931 13.414 10.7923 13.3982 10.7923 13.381C10.7766 12.6741 10.9869 12.0535 11.4958 11.5476C11.5502 11.4932 11.6087 11.4445 11.6904 11.3965C11.2063 12.043 10.9562 12.7476 11.0012 13.5527ZM11.9169 11.5952C11.4928 12.2672 11.3897 12.9966 11.4752 13.7744C11.4151 13.7515 11.3549 13.7292 11.2944 13.7072C11.2701 13.6982 11.2779 13.6769 11.2768 13.6607C11.2547 13.3724 11.2708 13.0824 11.3248 12.7982C11.3829 12.4799 11.4782 12.1742 11.6454 11.8949C11.702 11.7977 11.7727 11.7096 11.8554 11.6335C11.8738 11.6181 11.8903 11.602 11.9169 11.5952ZM12.7453 13.7567C12.8702 12.976 12.6921 12.2687 12.2912 11.6091C12.3088 11.6001 12.3159 11.6215 12.3253 11.6309C12.5218 11.8315 12.6606 12.0677 12.7588 12.3276C12.9208 12.7532 12.9632 13.1942 12.9227 13.645C12.9193 13.6806 12.9084 13.7024 12.8721 13.7129C12.8319 13.7237 12.7926 13.7399 12.7453 13.7567Z" fill="#FEFE00"/>
</svg>
