<svg width="20" height="20" viewBox="0 0 20 20" fill="none" xmlns="http://www.w3.org/2000/svg">
<path d="M3.02063 3.85477H3.64563M3.02063 4.47977H3.64563M8.33333 4.16732H17.5M3.02063 9.6881H3.64563M3.02063 10.3131H3.64563M3.02063 15.5214H3.64563M3.02063 16.1464H3.64563M8.33333 10.0007H17.5M8.33333 15.834H17.5M4.16667 4.16732C4.16667 4.62756 3.79357 5.00065 3.33333 5.00065C2.8731 5.00065 2.5 4.62756 2.5 4.16732C2.5 3.70708 2.8731 3.33398 3.33333 3.33398C3.79357 3.33398 4.16667 3.70708 4.16667 4.16732ZM4.16667 10.0007C4.16667 10.4609 3.79357 10.834 3.33333 10.834C2.8731 10.834 2.5 10.4609 2.5 10.0007C2.5 9.54041 2.8731 9.16732 3.33333 9.16732C3.79357 9.16732 4.16667 9.54041 4.16667 10.0007ZM4.16667 15.834C4.16667 16.2942 3.79357 16.6673 3.33333 16.6673C2.8731 16.6673 2.5 16.2942 2.5 15.834C2.5 15.3737 2.8731 15.0007 3.33333 15.0007C3.79357 15.0007 4.16667 15.3737 4.16667 15.834Z" stroke="#222222" stroke-width="1.5" stroke-linecap="round"/>
</svg>
