<svg width="18" height="21" viewBox="0 0 18 21" fill="none" xmlns="http://www.w3.org/2000/svg">
<path fill-rule="evenodd" clip-rule="evenodd" d="M4.24807 9C4.24807 6.37665 6.37472 4.25 8.99807 4.25C11.6214 4.25 13.7481 6.37665 13.7481 9C13.7481 11.6234 11.6214 13.75 8.99807 13.75C6.37472 13.75 4.24807 11.6234 4.24807 9ZM8.99807 5.75C7.20315 5.75 5.74807 7.20507 5.74807 9C5.74807 10.7949 7.20315 12.25 8.99807 12.25C10.793 12.25 12.2481 10.7949 12.2481 9C12.2481 7.20507 10.793 5.75 8.99807 5.75Z" fill="#0081DF"/>
<path fill-rule="evenodd" clip-rule="evenodd" d="M0.522435 7.85685C0.876762 3.55824 4.46891 0.25 8.7821 0.25H9.21404C13.5272 0.25 17.1194 3.55824 17.4737 7.85685C17.664 10.166 16.9508 12.4589 15.4841 14.2526L10.691 20.1144C9.81605 21.1845 8.1801 21.1845 7.3051 20.1144L2.51204 14.2526C1.04538 12.4589 0.332096 10.166 0.522435 7.85685ZM8.7821 1.75C5.24957 1.75 2.30756 4.45948 2.01737 7.98008C1.85895 9.90192 2.4526 11.8102 3.67326 13.3031L8.46632 19.1649C8.74115 19.501 9.25499 19.501 9.52983 19.1649L14.3229 13.3031C15.5436 11.8102 16.1372 9.90192 15.9788 7.98008C15.6886 4.45948 12.7466 1.75 9.21404 1.75H8.7821Z" fill="#0081DF"/>
</svg>
