<svg width="44" height="14" viewBox="0 0 44 14" fill="none" xmlns="http://www.w3.org/2000/svg">
<g clip-path="url(#clip0_7059_20601)">
<path d="M22.332 4.45905C22.3074 6.4015 24.0631 7.48541 25.3857 8.12991C26.7446 8.79112 27.201 9.21517 27.1956 9.80654C27.1855 10.7115 26.1117 11.1109 25.1069 11.1264C23.3539 11.1536 22.3346 10.6531 21.5242 10.2746L20.8927 13.2296C21.7057 13.6043 23.2112 13.931 24.7722 13.9453C28.4367 13.9453 30.8341 12.1364 30.8471 9.33189C30.8614 5.77252 25.9238 5.5755 25.9575 3.98456C25.9692 3.50216 26.4295 2.98736 27.4381 2.85647C27.9374 2.79035 29.3157 2.73975 30.8783 3.45931L31.4916 0.600276C30.6512 0.2943 29.5712 0.00131226 28.2265 0.00131226C24.7775 0.00131226 22.3516 1.83481 22.332 4.45905ZM37.3847 0.247577C36.7156 0.247577 36.1517 0.63789 35.9 1.23685L30.6656 13.7353H34.3273L35.056 11.7215H39.5306L39.9533 13.7353H43.1807L40.3644 0.247577H37.3847ZM37.897 3.89112L38.9537 8.95591H36.0596L37.897 3.89112ZM17.8923 0.247746L15.006 13.7351H18.4953L21.3804 0.247408L17.8923 0.247746ZM12.7304 0.247746L9.09848 9.42787L7.62932 1.62211C7.45694 0.750733 6.77617 0.247577 6.02017 0.247577H0.0831566L0 0.639239C1.21884 0.903721 2.60366 1.3303 3.44265 1.78673C3.9561 2.06555 4.10251 2.30929 4.27118 2.97184L7.05381 13.7353H10.7412L16.3945 0.247577L12.7304 0.247746Z" fill="url(#paint0_linear_7059_20601)"/>
</g>
<defs>
<linearGradient id="paint0_linear_7059_20601" x1="1985.19" y1="41.917" x2="2025.55" y2="-1390.15" gradientUnits="userSpaceOnUse">
<stop stop-color="#222357"/>
<stop offset="1" stop-color="#254AA5"/>
</linearGradient>
<clipPath id="clip0_7059_20601">
<rect width="43.1807" height="14" fill="white"/>
</clipPath>
</defs>
</svg>
