<svg width="24" height="24" viewBox="0 0 24 24" fill="none" xmlns="http://www.w3.org/2000/svg">
<g id="solar:logout-3-outline">
<g id="Group">
<path id="Vector" d="M5.46934 12.5298C5.32889 12.3892 5.25 12.1986 5.25 11.9998C5.25 11.8011 5.32889 11.6105 5.46934 11.4698L7.46934 9.46985C7.61151 9.33737 7.79956 9.26524 7.99386 9.26867C8.18816 9.2721 8.37355 9.35081 8.51096 9.48823C8.64837 9.62564 8.72709 9.81102 8.73052 10.0053C8.73394 10.1996 8.66182 10.3877 8.52934 10.5298L7.80934 11.2498H14.9993C15.1983 11.2498 15.389 11.3289 15.5297 11.4695C15.6703 11.6102 15.7493 11.8009 15.7493 11.9998C15.7493 12.1988 15.6703 12.3895 15.5297 12.5302C15.389 12.6708 15.1983 12.7498 14.9993 12.7498H7.80934L8.52934 13.4698C8.60303 13.5385 8.66213 13.6213 8.70312 13.7133C8.74411 13.8053 8.76616 13.9046 8.76793 14.0053C8.76971 14.106 8.75118 14.2061 8.71346 14.2994C8.67574 14.3928 8.6196 14.4777 8.54838 14.5489C8.47716 14.6201 8.39233 14.6762 8.29894 14.714C8.20555 14.7517 8.10552 14.7702 8.00482 14.7684C7.90412 14.7667 7.8048 14.7446 7.7128 14.7036C7.6208 14.6626 7.538 14.6035 7.46934 14.5298L5.46934 12.5298Z" fill="#222222"/>
<path id="Vector_2" fill-rule="evenodd" clip-rule="evenodd" d="M13.945 1.25H15.055C16.423 1.25 17.525 1.25 18.392 1.367C19.292 1.487 20.05 1.747 20.652 2.348C21.254 2.95 21.512 3.708 21.634 4.608C21.75 5.475 21.75 6.578 21.75 7.945V16.055C21.75 17.422 21.75 18.525 21.634 19.392C21.513 20.292 21.254 21.05 20.652 21.652C20.05 22.254 19.292 22.512 18.392 22.634C17.525 22.75 16.422 22.75 15.055 22.75H13.945C12.578 22.75 11.475 22.75 10.608 22.634C9.708 22.512 8.95 22.254 8.348 21.652C7.95 21.252 7.701 20.784 7.543 20.25C6.592 20.249 5.799 20.238 5.157 20.152C4.393 20.049 3.731 19.827 3.202 19.298C2.673 18.769 2.451 18.108 2.348 17.343C2.25 16.613 2.25 15.687 2.25 14.553V9.447C2.25 8.314 2.25 7.389 2.348 6.657C2.451 5.894 2.673 5.232 3.202 4.703C3.731 4.174 4.392 3.952 5.157 3.849C5.799 3.763 6.592 3.752 7.543 3.751C7.701 3.217 7.95 2.748 8.349 2.349C8.95 1.747 9.709 1.489 10.609 1.368C11.475 1.251 12.578 1.251 13.945 1.251V1.25ZM7.252 17.004C7.256 17.649 7.266 18.229 7.302 18.749C6.468 18.746 5.848 18.731 5.357 18.665C4.759 18.585 4.467 18.441 4.263 18.237C4.059 18.034 3.915 17.741 3.835 17.143C3.752 16.524 3.75 15.7 3.75 14.5V9.5C3.75 8.3 3.752 7.476 3.835 6.857C3.915 6.259 4.059 5.967 4.263 5.763C4.466 5.559 4.759 5.415 5.357 5.335C5.848 5.269 6.468 5.255 7.303 5.251C7.266 5.771 7.256 6.351 7.252 6.996C7.25094 7.19491 7.32894 7.3861 7.46884 7.5275C7.60874 7.6689 7.79909 7.74894 7.998 7.75C8.19691 7.75106 8.3881 7.67306 8.5295 7.53316C8.6709 7.39326 8.75094 7.20291 8.752 7.004C8.758 5.911 8.786 5.136 8.894 4.547C8.999 3.981 9.166 3.652 9.409 3.409C9.686 3.132 10.075 2.952 10.809 2.853C11.564 2.752 12.565 2.75 14 2.75H15C16.436 2.75 17.437 2.752 18.192 2.853C18.926 2.952 19.314 3.133 19.592 3.409C19.868 3.686 20.048 4.074 20.147 4.809C20.249 5.563 20.25 6.565 20.25 8V16C20.25 17.435 20.249 18.436 20.147 19.192C20.048 19.926 19.868 20.314 19.591 20.591C19.314 20.868 18.926 21.048 18.192 21.147C17.437 21.248 16.436 21.25 15 21.25H14C12.565 21.25 11.564 21.248 10.808 21.147C10.075 21.048 9.686 20.867 9.409 20.591C9.166 20.347 8.999 20.019 8.894 19.453C8.786 18.864 8.758 18.089 8.752 16.996C8.75147 16.8975 8.73155 16.8001 8.69338 16.7093C8.6552 16.6185 8.59952 16.5361 8.5295 16.4668C8.45949 16.3976 8.37651 16.3428 8.28532 16.3056C8.19412 16.2684 8.09649 16.2495 7.998 16.25C7.89951 16.2505 7.80208 16.2704 7.71129 16.3086C7.6205 16.3468 7.53811 16.4025 7.46884 16.4725C7.39957 16.5425 7.34477 16.6255 7.30756 16.7167C7.27035 16.8079 7.25147 16.9055 7.252 17.004Z" fill="#222222"/>
</g>
</g>
</svg>
