<svg width="99" height="99" viewBox="0 0 99 99" fill="none" xmlns="http://www.w3.org/2000/svg">
<g clip-path="url(#clip0_15_1668)">
<g filter="url(#filter0_d_15_1668)">
<path fill-rule="evenodd" clip-rule="evenodd" d="M58.162 8.70708C53.9822 10.158 50.357 11.5517 50.1054 11.8032C49.8547 12.0556 50.3552 14.8793 51.2176 18.078C52.6727 23.4712 52.6799 24.1022 51.3171 26.7462C49.6828 29.9176 48.7362 29.7479 46.7707 25.9336C45.5699 23.6029 45.6142 22.842 47.2295 18.1316C48.2141 15.2606 49.0195 12.6312 49.0195 12.2889C49.0195 11.5108 33.0899 6.55616 31.956 6.98198C31.5 7.15359 29.7381 9.13291 28.0413 11.3801C25.7102 14.468 23.7519 15.9089 20.0191 17.2817C17.3034 18.2805 14.6293 19.3936 14.0764 19.755C13.4094 20.1917 13.2076 23.2388 13.4773 28.8345L13.8836 37.2566L8.44136 44.6246L3 51.9935L6.52473 56.8819C9.75625 61.3653 10.0513 62.2669 10.0784 67.7445L10.1073 73.7179L18.9304 76.203C27.445 78.6009 27.8549 78.8369 30.6584 82.9409C32.2556 85.2797 34.6989 88.5002 36.088 90.0973L38.6127 93L44.0215 91.2667C49.1136 89.6342 49.7226 89.6179 54.4282 90.9835C57.1774 91.7806 59.8533 92.5951 60.3764 92.7921C60.8985 92.9891 63.5454 89.8631 66.2584 85.8454L71.1903 78.54L80.0134 75.7599L88.8365 72.9798V67.1889C88.8365 61.9119 89.1551 60.9422 92.4183 56.2672L96 51.1373L90.8346 44.6509L85.6693 38.1645L85.2168 28.7046L84.7643 19.2456L79.208 17.3553C74.5585 15.7745 73.0409 14.6877 69.9108 10.6991C67.8538 8.07787 66.0784 5.96326 65.9661 6.00048C65.853 6.03862 62.341 7.25618 58.162 8.70708ZM29.9082 14.7849C27.2431 18.3667 25.7745 19.4163 21.5692 20.7465C17.1459 22.1456 16.5161 22.6268 16.8392 24.361C17.0446 25.4614 17.2428 28.0972 17.2799 30.22L17.3468 34.0788H22.5004C26.8531 34.0788 28.0467 34.4556 30.1769 36.5039C32.5053 38.7411 33.0203 38.8636 36.8499 38.0928C40.3041 37.3964 41.3185 36.6927 42.9021 33.8917C44.7391 30.644 44.7509 30.4061 43.2632 27.0821C41.8515 23.9306 41.8379 23.2506 43.0976 19.0976C43.855 16.6008 44.4794 14.4889 44.4849 14.4035C44.4903 14.3191 42.3574 13.5446 39.7439 12.683C37.1305 11.8204 34.5768 10.9624 34.0682 10.7763C33.5596 10.5893 31.6873 12.3933 29.9082 14.7849ZM58.4163 12.4224L53.7867 14.2546L55.3522 19.331C56.8625 24.2312 56.8571 24.5099 55.1794 27.3627L53.441 30.3189L55.6861 33.8872C57.5467 36.8453 58.5873 37.5616 61.7618 38.071C65.0712 38.6022 65.9109 38.3788 67.9389 36.4331C69.8049 34.6417 71.3985 34.1233 75.715 33.9026L81.1446 33.6248L81.4098 27.596L81.6749 21.5672L77.0833 20.4623C73.3278 19.558 71.812 18.5483 68.7588 14.9147C66.7055 12.4714 64.5798 10.4985 64.035 10.5311C63.4912 10.5638 60.9628 11.4146 58.4163 12.4224ZM46.264 35.2137C42.7981 40.8893 42.637 41.0073 37.3323 41.8045C35.05 42.1468 32.8755 42.6171 32.499 42.8495C32.1226 43.082 33.5026 45.2819 35.5667 47.7379C39.2679 52.1415 39.3122 52.2804 38.8182 57.7535C38.2553 63.9757 37.7965 63.7705 45.5898 60.7751C49.7887 59.1608 49.9226 59.1663 54.6563 61.1347C57.2987 62.2342 59.6724 63.1331 59.9294 63.1331C60.1873 63.1331 60.1583 60.6199 59.866 57.5483C59.3348 51.9808 59.3456 51.9481 63.2613 47.3457C65.4223 44.8062 66.8683 42.6471 66.4756 42.5472C66.082 42.4473 63.4043 41.8989 60.5248 41.3287C55.4734 40.3291 55.192 40.1193 52.5207 35.3699C50.9977 32.6624 49.6221 30.447 49.4629 30.447C49.3045 30.447 47.8648 32.5925 46.264 35.2137ZM70.1696 39.6472C67.3308 42.6207 67.5118 43.042 71.9369 43.762C74.6825 44.2096 75.8607 43.7802 79.741 40.922C82.2549 39.0707 84.3119 37.3728 84.3119 37.1485C84.3119 36.9243 81.6849 36.8135 78.4742 36.9025C73.3477 37.0441 72.3369 37.3782 70.1696 39.6472ZM19.1304 41.2416C21.8398 43.1837 24.4822 44.6473 25.0007 44.4947C25.5193 44.3422 27.0694 43.9699 28.444 43.6676L30.9452 43.1174L28.9526 40.4144C27.0703 37.8595 26.6097 37.7106 20.582 37.7106H14.2031L19.1304 41.2416ZM79.9139 45.0904C76.5448 47.5772 75.5711 47.8632 72.1034 47.3856C68.4873 46.889 67.9389 47.0824 65.8196 49.6092C64.0314 51.742 63.4984 53.3808 63.4984 56.7484C63.4984 60.9822 63.6097 61.1646 67.0285 62.5375C70.099 63.7695 70.7759 64.5976 72.2319 68.8949L73.9051 73.836L79.561 72.0836L85.2168 70.3304V65.2649C85.2168 60.8805 85.6539 59.6012 88.4646 55.7596L91.7124 51.3207L87.928 46.7855C85.8466 44.2914 84.0576 42.2503 83.9535 42.2503C83.8485 42.2503 82.0314 43.5287 79.9139 45.0904ZM10.577 47.6744L7.27308 52.1896L10.5001 56.4306C13.3226 60.1387 13.7271 61.3154 13.7271 65.8161V70.9614L18.478 72.1699C21.0914 72.8354 23.7067 73.5572 24.2913 73.7742C24.9256 74.0103 25.9907 72.1436 26.9337 69.1428C28.3218 64.7256 28.9345 63.9457 31.9796 62.7236C35.3106 61.3862 35.4455 61.1656 35.4455 57.0553C35.4455 53.5088 34.9695 52.2858 32.661 49.8952C30.1299 47.2758 29.5724 47.0824 26.5527 47.7797C23.6524 48.4488 22.7492 48.2028 19.4616 45.8521C17.3893 44.3703 15.2854 43.1582 14.7877 43.1582C14.289 43.1582 12.3941 45.1902 10.577 47.6744ZM45.2676 64.6012C42.3908 65.7997 41.894 66.4698 41.3927 69.8237C40.9665 72.6756 40.181 74.0666 38.3576 75.2015C32.0927 79.1002 32.1515 78.8951 35.8645 83.9705C37.7096 86.4919 39.5267 88.5556 39.9032 88.5556C40.2797 88.5556 42.5863 87.9509 45.0296 87.2128C49.0186 86.0061 50.014 86.0215 54.7821 87.3617C59.3248 88.6391 60.199 88.6691 60.8288 87.5705C61.2342 86.8641 62.6116 84.8784 63.8893 83.1588C65.168 81.4382 66.2132 79.7712 66.2132 79.4534C66.2132 79.1357 64.3816 77.5558 62.1428 75.9433C58.8643 73.5808 57.9638 72.3251 57.5113 69.4896C57.0263 66.4453 56.4716 65.7761 53.4193 64.5504C49.2222 62.8661 49.4367 62.8643 45.2676 64.6012ZM33.9587 65.7879C31.918 67.0363 30.6774 68.8477 29.5679 72.1989C28.7173 74.7684 28.1933 77.0428 28.4042 77.2535C28.8322 77.6829 36.4327 72.3378 37.468 70.8797C38.3431 69.6467 38.3539 64.0401 37.4816 64.0447C37.1078 64.0465 35.5233 64.8309 33.9587 65.7879ZM60.7836 66.3708C60.7836 67.6519 61.1537 69.3943 61.6071 70.2432C62.5265 71.9674 70.7379 78.1478 70.7379 77.1155C70.7379 76.7541 70.0438 74.2473 69.1949 71.5452C67.9036 67.4358 67.1462 66.4217 64.559 65.3376C60.6153 63.6842 60.7836 63.6379 60.7836 66.3708Z" fill="white"/>
</g>
</g>
<defs>
<filter id="filter0_d_15_1668" x="-7.31587" y="-4.31587" width="113.632" height="107.632" filterUnits="userSpaceOnUse" color-interpolation-filters="sRGB">
<feFlood flood-opacity="0" result="BackgroundImageFix"/>
<feColorMatrix in="SourceAlpha" type="matrix" values="0 0 0 0 0 0 0 0 0 0 0 0 0 0 0 0 0 0 127 0" result="hardAlpha"/>
<feOffset/>
<feGaussianBlur stdDeviation="5.15793"/>
<feComposite in2="hardAlpha" operator="out"/>
<feColorMatrix type="matrix" values="0 0 0 0 0 0 0 0 0 0 0 0 0 0 0 0 0 0 0.07 0"/>
<feBlend mode="normal" in2="BackgroundImageFix" result="effect1_dropShadow_15_1668"/>
<feBlend mode="normal" in="SourceGraphic" in2="effect1_dropShadow_15_1668" result="shape"/>
</filter>
<clipPath id="clip0_15_1668">
<rect width="99" height="99" fill="white"/>
</clipPath>
</defs>
</svg>
