<svg width="24" height="24" viewBox="0 0 24 24" fill="none" xmlns="http://www.w3.org/2000/svg">
<path d="M9 9L8.04703 9.95297C6.87245 11.1275 5.01293 11.2597 3.68405 10.263V10.263C2.73924 9.55443 2.51257 8.23115 3.16768 7.24848L4.81253 4.7812C5.5544 3.6684 6.80332 3 8.14074 3H15.8593C17.1967 3 18.4456 3.6684 19.1875 4.7812L20.8323 7.24848C21.4874 8.23115 21.2608 9.55443 20.3159 10.263V10.263C18.9871 11.2597 17.1275 11.1275 15.953 9.95297L15 9M9 9V9C10.6569 10.6569 13.3431 10.6569 15 9V9M9 9V8M15 9V8" stroke="#0A9829" stroke-linecap="round"/>
<path d="M4 11V17.8C4 18.9201 4 19.4802 4.21799 19.908C4.40973 20.2843 4.71569 20.5903 5.09202 20.782C5.51984 21 6.07989 21 7.2 21H16.8C17.9201 21 18.4802 21 18.908 20.782C19.2843 20.5903 19.5903 20.2843 19.782 19.908C20 19.4802 20 18.9201 20 17.8V11" stroke="#0A9829" stroke-linecap="round"/>
<path d="M8 16H10" stroke="#0A9829" stroke-linecap="round"/>
<path d="M15 16V21" stroke="#0A9829" stroke-linecap="round"/>
</svg>
