<svg width="24" height="24" viewBox="0 0 24 24" fill="none" xmlns="http://www.w3.org/2000/svg">
<g id="Messages/message/square/alt/text">
<path id="Icon" d="M8 9.25C7.58579 9.25 7.25 9.58579 7.25 10C7.25 10.4142 7.58579 10.75 8 10.75V9.25ZM16 10.75C16.4142 10.75 16.75 10.4142 16.75 10C16.75 9.58579 16.4142 9.25 16 9.25V10.75ZM8 13.25C7.58579 13.25 7.25 13.5858 7.25 14C7.25 14.4142 7.58579 14.75 8 14.75V13.25ZM12 14.75C12.4142 14.75 12.75 14.4142 12.75 14C12.75 13.5858 12.4142 13.25 12 13.25V14.75ZM3.09202 18.782L3.43251 18.1138H3.43251L3.09202 18.782ZM2.21799 17.908L1.54973 18.2485L2.21799 17.908ZM21.782 17.908L22.4503 18.2485V18.2485L21.782 17.908ZM20.908 18.782L21.2485 19.4503L20.908 18.782ZM20.908 5.21799L21.2485 4.54973L21.2485 4.54973L20.908 5.21799ZM21.782 6.09202L22.4503 5.75153V5.75152L21.782 6.09202ZM3.09202 5.21799L3.43251 5.88624H3.43251L3.09202 5.21799ZM2.21799 6.09202L2.88624 6.43251V6.43251L2.21799 6.09202ZM6.8 21.4L7.25 22H7.25L6.8 21.4ZM9.14667 19.64L9.59667 20.24L9.59667 20.24L9.14667 19.64ZM10.283 19.0372L10.4268 19.7732H10.4269L10.283 19.0372ZM9.79592 19.1995L9.4694 18.5243L9.4694 18.5243L9.79592 19.1995ZM8 10.75H16V9.25H8V10.75ZM8 14.75H12V13.25H8V14.75ZM5.2 5.75H18.8V4.25H5.2V5.75ZM21.25 8.2V15.8H22.75V8.2H21.25ZM2.75 15.8V8.2H1.25V15.8H2.75ZM5.2 18.25C4.62757 18.25 4.24336 18.2494 3.94748 18.2252C3.66035 18.2018 3.52307 18.1599 3.43251 18.1138L2.75153 19.4503C3.08879 19.6221 3.44545 19.6892 3.82533 19.7203C4.19646 19.7506 4.65232 19.75 5.2 19.75V18.25ZM1.25 15.8C1.25 16.3477 1.24942 16.8035 1.27974 17.1747C1.31078 17.5546 1.37789 17.9112 1.54973 18.2485L2.88624 17.5675C2.8401 17.4769 2.79822 17.3396 2.77476 17.0525C2.75058 16.7566 2.75 16.3724 2.75 15.8H1.25ZM3.43251 18.1138C3.19731 17.9939 3.00608 17.8027 2.88624 17.5675L1.54973 18.2485C1.81338 18.7659 2.23408 19.1866 2.75153 19.4503L3.43251 18.1138ZM21.25 15.8C21.25 16.3724 21.2494 16.7566 21.2252 17.0525C21.2018 17.3396 21.1599 17.4769 21.1138 17.5675L22.4503 18.2485C22.6221 17.9112 22.6892 17.5546 22.7203 17.1747C22.7506 16.8035 22.75 16.3477 22.75 15.8H21.25ZM18.8 19.75C19.3477 19.75 19.8035 19.7506 20.1747 19.7203C20.5546 19.6892 20.9112 19.6221 21.2485 19.4503L20.5675 18.1138C20.4769 18.1599 20.3396 18.2018 20.0525 18.2252C19.7566 18.2494 19.3724 18.25 18.8 18.25V19.75ZM21.1138 17.5675C20.9939 17.8027 20.8027 17.9939 20.5675 18.1138L21.2485 19.4503C21.7659 19.1866 22.1866 18.7659 22.4503 18.2485L21.1138 17.5675ZM18.8 5.75C19.3724 5.75 19.7566 5.75058 20.0525 5.77476C20.3396 5.79822 20.4769 5.8401 20.5675 5.88624L21.2485 4.54973C20.9112 4.37789 20.5546 4.31078 20.1747 4.27974C19.8035 4.24942 19.3477 4.25 18.8 4.25V5.75ZM22.75 8.2C22.75 7.65232 22.7506 7.19646 22.7203 6.82533C22.6892 6.44545 22.6221 6.08879 22.4503 5.75153L21.1138 6.43251C21.1599 6.52307 21.2018 6.66035 21.2252 6.94748C21.2494 7.24336 21.25 7.62757 21.25 8.2H22.75ZM20.5675 5.88624C20.8027 6.00608 20.9939 6.19731 21.1138 6.43251L22.4503 5.75152C22.1866 5.23408 21.7659 4.81338 21.2485 4.54973L20.5675 5.88624ZM5.2 4.25C4.65232 4.25 4.19646 4.24942 3.82533 4.27974C3.44544 4.31078 3.08879 4.37789 2.75153 4.54973L3.43251 5.88624C3.52307 5.8401 3.66035 5.79822 3.94748 5.77476C4.24336 5.75058 4.62757 5.75 5.2 5.75V4.25ZM2.75 8.2C2.75 7.62757 2.75058 7.24336 2.77476 6.94748C2.79822 6.66035 2.8401 6.52307 2.88624 6.43251L1.54973 5.75153C1.37789 6.08879 1.31078 6.44545 1.27974 6.82533C1.24942 7.19646 1.25 7.65232 1.25 8.2H2.75ZM2.75153 4.54973C2.23408 4.81338 1.81338 5.23408 1.54973 5.75153L2.88624 6.43251C3.00608 6.19731 3.19731 6.00608 3.43251 5.88624L2.75153 4.54973ZM5.25 19.8V21H6.75V19.8H5.25ZM18.8 18.25H11.0667V19.75H18.8V18.25ZM7.25 22L9.59667 20.24L8.69667 19.04L6.35 20.8L7.25 22ZM11.0667 18.25C10.6994 18.25 10.4168 18.2468 10.1391 18.3011L10.4269 19.7732C10.5292 19.7532 10.6424 19.75 11.0667 19.75V18.25ZM9.59667 20.24C9.93608 19.9854 10.0286 19.9201 10.1225 19.8747L9.4694 18.5243C9.21461 18.6475 8.99048 18.8196 8.69667 19.04L9.59667 20.24ZM10.1391 18.3011C9.90718 18.3464 9.6821 18.4214 9.4694 18.5243L10.1225 19.8747C10.2191 19.8279 10.3214 19.7938 10.4268 19.7732L10.1391 18.3011ZM5.25 21C5.25 22.0301 6.42596 22.618 7.25 22L6.35 20.8C6.51481 20.6764 6.75 20.794 6.75 21H5.25ZM5.2 19.75C5.22761 19.75 5.25 19.7724 5.25 19.8H6.75C6.75 18.944 6.05604 18.25 5.2 18.25V19.75Z" fill="#222222"/>
</g>
</svg>
