<svg width="25" height="25" viewBox="0 0 25 25" fill="none" xmlns="http://www.w3.org/2000/svg">
<g id="Messages/message/circle/3/double">
<path id="Icon" d="M13.0625 21.1076H19.3384C19.6882 21.1076 19.9299 20.7576 19.8059 20.4304L19.3084 19.1172C19.047 18.4272 19.19 17.6516 19.6116 17.0461C20.2451 16.1363 21.0625 14.725 21.0625 13.4999M18.0625 11C18.0625 15.1421 14.7046 18.5 10.5625 18.5H3.78663C3.4368 18.5 3.19512 18.15 3.31906 17.8228L3.96012 16.1309C4.18934 15.5259 4.09521 14.855 3.81251 14.2731C3.33201 13.284 3.0625 12.1735 3.0625 11C3.0625 6.85786 6.42036 3.5 10.5625 3.5C14.7046 3.5 18.0625 6.85786 18.0625 11Z" stroke="#222222" stroke-width="1.5" stroke-linecap="round"/>
</g>
</svg>
