<svg width="15" height="20" viewBox="0 0 15 20" fill="none" xmlns="http://www.w3.org/2000/svg">
<path d="M7.5 12.5C9.16 12.5 10.49 11.16 10.49 9.5L10.5 3.5C10.5 1.84 9.16 0.5 7.5 0.5C5.84 0.5 4.5 1.84 4.5 3.5V9.5C4.5 11.16 5.84 12.5 7.5 12.5ZM6.3 3.4C6.3 2.74 6.84 2.2 7.5 2.2C8.16 2.2 8.7 2.74 8.7 3.4L8.69 9.6C8.69 10.26 8.16 10.8 7.5 10.8C6.84 10.8 6.3 10.26 6.3 9.6V3.4ZM12.8 9.5C12.8 12.5 10.26 14.6 7.5 14.6C4.74 14.6 2.2 12.5 2.2 9.5H0.5C0.5 12.91 3.22 15.73 6.5 16.22V19.5H8.5V16.22C11.78 15.74 14.5 12.92 14.5 9.5H12.8Z" fill="#222222"/>
</svg>
