<svg width="512" height="512" viewBox="0 0 512 512" fill="none" xmlns="http://www.w3.org/2000/svg">
<path d="M378.16 143.52C379.76 141.72 412.28 105.36 442.16 100.08C441.12 99.6 440.16 99.04 439.08 98.56L334.6 52.92C277.68 38.92 241 82.48 240.6 82.92L0 350.92L123.16 405.4L378.16 143.52ZM172.56 183.52L211.04 140.64C211.671 139.986 212.506 139.566 213.408 139.449C214.309 139.333 215.224 139.527 216 140L307.6 186.24C308.154 186.536 308.635 186.952 309.008 187.457C309.382 187.962 309.639 188.544 309.76 189.16C309.863 189.787 309.816 190.43 309.621 191.035C309.426 191.641 309.09 192.191 308.64 192.64L266.24 236.2C265.868 236.59 265.421 236.901 264.927 237.114C264.432 237.327 263.899 237.438 263.36 237.44C262.69 237.443 262.03 237.278 261.44 236.96L173.44 189.84C172.907 189.552 172.447 189.147 172.093 188.655C171.74 188.163 171.503 187.597 171.4 187C171.315 186.382 171.375 185.753 171.577 185.162C171.778 184.572 172.115 184.037 172.56 183.6V183.52ZM3.08 361.08L30.84 408.28L141.56 459.92L121.04 413.28L3.08 361.08Z" fill="black"/>
<path d="M299.08 190.96L214.96 148.4L181.96 185.16L262.6 228.44L299.08 190.96ZM460 177.48C454.718 174.135 448.571 172.411 442.32 172.52C434.33 172.71 426.479 174.649 419.32 178.2C401.376 187.287 386.267 201.123 375.64 218.2C364.326 234.786 357.769 254.153 356.68 274.2C356.36 291.52 361.96 304.84 372.68 311.68C395.08 326.24 432.92 307.92 457.04 270.84C481.16 233.76 482.4 192 460 177.48Z" fill="black"/>
<path d="M459.12 109.72C436.32 98.16 397.2 134.12 384.08 149L128.88 411.08L151.2 461.84L282.28 364C289.023 358.973 296.73 355.391 304.921 353.478C313.111 351.564 321.608 351.361 329.88 352.88L380.32 362.2C436.32 364.32 492.64 307.8 509.04 233.4C509.56 231 510.04 228.64 510.44 226.32C513.969 204.01 511.008 181.155 501.908 160.481C492.809 139.807 477.956 122.187 459.12 109.72ZM463.64 275.52C443.64 306.32 414.32 324.88 389.96 324.88C382.199 325.034 374.563 322.906 368 318.76C355.04 310.32 348 294.76 348.52 274.4C349.601 252.779 356.602 231.871 368.76 213.96C380.24 195.535 396.588 180.64 416 170.92C434.28 162.36 451.48 162.28 464.44 170.92C490.48 187.68 490.16 234.72 463.64 275.52Z" fill="black"/>
<path d="M479.2 152.8C477.059 152.286 474.971 151.576 472.96 150.68C470.8 149.48 477.68 141.36 478.92 139.2C478.92 138.88 495.84 109.32 489.08 87.72C487.858 83.8064 485.792 80.2088 483.027 77.1815C480.263 74.1541 476.867 71.7708 473.08 70.2C435.04 52.04 406.36 94.2 405.08 95.84C404.405 96.759 403.405 97.3859 402.283 97.593C401.162 97.8002 400.004 97.5719 399.045 96.9547C398.086 96.3376 397.399 95.378 397.123 94.2716C396.847 93.1651 397.003 91.9951 397.56 91C397.88 90.52 431.6 40.56 476.76 62.12C481.628 64.2491 485.981 67.4019 489.522 71.3639C493.063 75.3258 495.709 80.0039 497.28 85.08C505.28 110.44 487.08 142.32 486.32 143.68C485.56 145.04 480.76 152.8 479.2 152.8Z" fill="black"/>
</svg>
