<svg width="100" height="100" viewBox="0 0 100 100" fill="none" xmlns="http://www.w3.org/2000/svg">
<path d="M50 26.834V40.709" stroke="#292D32" stroke-width="4" stroke-miterlimit="10" stroke-linecap="round"/>
<path d="M50.0834 8.33398C34.7501 8.33398 22.3334 20.7506 22.3334 36.084V44.834C22.3334 47.6673 21.1667 51.9173 19.7084 54.334L14.4167 63.1673C11.1667 68.6256 13.4167 74.709 19.4167 76.709C39.3334 83.334 60.8751 83.334 80.7917 76.709C86.4167 74.834 88.8334 68.2506 85.7917 63.1673L80.5001 54.334C79.0417 51.9173 77.8751 47.6257 77.8751 44.834V36.084C77.8334 20.834 65.3334 8.33398 50.0834 8.33398Z" stroke="#292D32" stroke-width="4" stroke-miterlimit="10" stroke-linecap="round"/>
<path d="M63.875 78.416C63.875 86.041 57.625 92.291 50 92.291C46.2083 92.291 42.7083 90.7077 40.2083 88.2077C37.7083 85.7077 36.125 82.2077 36.125 78.416" fill="#222222"/>
<path d="M63.875 78.416C63.875 86.041 57.625 92.291 50 92.291C46.2083 92.291 42.7083 90.7077 40.2083 88.2077C37.7083 85.7077 36.125 82.2077 36.125 78.416" stroke="#292D32" stroke-width="4" stroke-miterlimit="10"/>
</svg>
