<svg width="512" height="512" viewBox="0 0 512 512" fill="none" xmlns="http://www.w3.org/2000/svg">
<g clip-path="url(#clip0_16_23)">
<path d="M136.066 241.868C94.7212 241.868 61.1066 208.239 61.1066 166.909C61.1066 125.578 94.7212 91.9497 136.066 91.9497C177.41 91.9497 211.025 125.578 211.025 166.909C211.025 208.239 177.41 241.868 136.066 241.868Z" fill="#F3F5F9"/>
<path d="M375.934 241.868C334.59 241.868 300.975 208.239 300.975 166.909C300.975 125.578 334.59 91.9497 375.934 91.9497C417.279 91.9497 450.893 125.578 450.893 166.909C450.893 208.239 417.279 241.868 375.934 241.868Z" fill="#E1E6F0"/>
<path d="M136.066 181.901C111.265 181.901 91.0902 161.726 91.0902 136.925C91.0902 112.125 111.265 91.9497 136.066 91.9497C160.866 91.9497 181.041 112.125 181.041 136.925C181.041 161.726 160.866 181.901 136.066 181.901Z" fill="#596C76"/>
<path d="M375.934 181.901C351.134 181.901 330.959 161.726 330.959 136.925C330.959 112.125 351.134 91.9497 375.934 91.9497C400.735 91.9497 420.91 112.125 420.91 136.925C420.91 161.726 400.735 181.901 375.934 181.901Z" fill="#465A61"/>
<path d="M330.959 331.819H300.975V316.827C300.975 292.026 280.8 271.851 256 271.851C231.2 271.851 211.025 292.026 211.025 316.827V331.819H181.041V316.827C181.041 275.496 214.656 241.868 256 241.868C297.344 241.868 330.959 275.496 330.959 316.827V331.819Z" fill="#596C76"/>
<path d="M76.0984 361.802C51.298 361.802 31.123 381.977 31.123 406.778V466.745C31.123 491.545 51.298 511.72 76.0984 511.72C100.899 511.72 121.074 491.545 121.074 466.745V406.778C121.074 381.977 100.899 361.802 76.0984 361.802ZM91.0902 466.745C91.0902 475.016 84.3559 481.737 76.0984 481.737C67.8409 481.737 61.1066 475.016 61.1066 466.745V406.778C61.1066 398.506 67.8409 391.786 76.0984 391.786C84.3559 391.786 91.0902 398.506 91.0902 406.778V466.745ZM196.033 361.802C171.232 361.802 151.057 381.977 151.057 406.778V466.745C151.057 491.545 171.232 511.72 196.033 511.72C220.833 511.72 241.008 491.545 241.008 466.745V406.778C241.008 381.977 220.833 361.802 196.033 361.802ZM211.025 466.745C211.025 475.016 204.29 481.737 196.033 481.737C187.775 481.737 181.041 475.016 181.041 466.745V406.778C181.041 398.506 187.775 391.786 196.033 391.786C204.29 391.786 211.025 398.506 211.025 406.778V466.745Z" fill="#EC4C36"/>
<path d="M315.967 361.802H270.992V511.72H300.975V451.753H315.967C340.768 451.753 360.943 431.578 360.943 406.778C360.943 381.977 340.768 361.802 315.967 361.802ZM315.967 421.769H300.975V391.786H315.967C324.225 391.786 330.959 398.506 330.959 406.778C330.959 415.049 324.225 421.769 315.967 421.769ZM435.902 421.769C427.644 421.769 420.91 415.049 420.91 406.778C420.91 394.494 437.893 387.525 446.472 396.163L457.072 406.778L478.3 385.607L467.73 374.993C459.239 366.488 447.936 361.802 435.902 361.802C411.101 361.802 390.926 381.977 390.926 406.778C390.926 431.578 411.101 451.753 435.902 451.753C444.159 451.753 450.893 458.473 450.893 466.745C450.893 479.028 433.94 485.982 425.331 477.359L414.731 466.745L393.503 487.915L404.073 498.529C412.564 507.036 423.867 511.72 435.902 511.72C460.702 511.72 480.877 491.545 480.877 466.745C480.877 441.944 460.702 421.769 435.902 421.769Z" fill="#E62E2E"/>
<path d="M136.066 91.9497H61.1066V61.9661H136.066C160.866 61.9661 181.041 41.7911 181.041 16.9907V0H211.025V16.9907C211.025 58.3211 177.41 91.9497 136.066 91.9497Z" fill="#596C76"/>
<path d="M450.893 91.9497H375.934C334.59 91.9497 300.975 58.3211 300.975 16.9907V0H330.959V16.9907C330.959 41.7911 351.134 61.9661 375.934 61.9661H450.893V91.9497ZM300.975 316.827V331.819H330.959V316.827C330.959 275.496 297.344 241.868 256 241.868V271.851C280.8 271.851 300.975 292.026 300.975 316.827Z" fill="#465A61"/>
</g>
<defs>
<clipPath id="clip0_16_23">
<rect width="512" height="512" fill="white"/>
</clipPath>
</defs>
</svg>
