<svg width="66" height="54" viewBox="0 0 66 54" fill="none" xmlns="http://www.w3.org/2000/svg">
<path d="M42.1667 14.667V35.3337C42.1667 38.5003 41.875 40.7503 41.125 42.3545C41.125 42.3753 41.1041 42.417 41.0833 42.4378C40.625 43.0212 40.0208 43.3128 39.3125 43.3128C38.2083 43.3128 36.875 42.5837 35.4375 41.042C33.7292 39.2087 31.1041 39.3545 29.6041 41.3545L27.5 44.1462C26.6667 45.2712 25.5625 45.8337 24.4583 45.8337C23.3542 45.8337 22.25 45.2712 21.4166 44.1462L19.2917 41.3337C17.8125 39.3545 15.2083 39.2087 13.5 41.0212L13.4791 41.042C11.125 43.5628 9.04171 43.9378 7.83337 42.4378C7.81254 42.417 7.79167 42.3753 7.79167 42.3545C7.04167 40.7503 6.75 38.5003 6.75 35.3337V14.667C6.75 11.5003 7.04167 9.25032 7.79167 7.64615C7.79167 7.62532 7.79171 7.60449 7.83337 7.58366C9.02087 6.06282 11.125 6.43782 13.4791 8.95866L13.5 8.97949C15.2083 10.792 17.8125 10.6462 19.2917 8.66699L21.4166 5.85449C22.25 4.72949 23.3542 4.16699 24.4583 4.16699C25.5625 4.16699 26.6667 4.72949 27.5 5.85449L29.6041 8.64616C31.1041 10.6462 33.7292 10.792 35.4375 8.95866C36.875 7.41699 38.2083 6.68782 39.3125 6.68782C40.0208 6.68782 40.625 7.00032 41.0833 7.58366C41.125 7.60449 41.125 7.62532 41.125 7.64615C41.875 9.25032 42.1667 11.5003 42.1667 14.667Z" stroke="#292D32" stroke-width="2" stroke-linecap="round" stroke-linejoin="round"/>
<path d="M17.1665 21.3545H33.8332" stroke="#292D32" stroke-width="2" stroke-linecap="round" stroke-linejoin="round"/>
<path d="M17.1665 28.6455H29.6665" stroke="#292D32" stroke-width="2" stroke-linecap="round" stroke-linejoin="round"/>
<path d="M50.8552 38.7927H49.5057L49.0273 38.3315C51.0773 35.9398 52.1365 32.6769 51.5557 29.209C50.7527 24.4598 46.7894 20.6673 42.0061 20.0865C34.7798 19.1982 28.6982 25.2798 29.5865 32.5061C30.1673 37.2894 33.9598 41.2527 38.709 42.0557C42.1769 42.6365 45.4398 41.5773 47.8315 39.5273L48.2927 40.0057V41.3552L55.5532 48.6157C56.2536 49.3161 57.3982 49.3161 58.0986 48.6157C58.799 47.9152 58.799 46.7707 58.0986 46.0702L50.8552 38.7927ZM40.6052 38.7927C36.3515 38.7927 32.9177 35.359 32.9177 31.1052C32.9177 26.8515 36.3515 23.4177 40.6052 23.4177C44.859 23.4177 48.2927 26.8515 48.2927 31.1052C48.2927 35.359 44.859 38.7927 40.6052 38.7927Z" fill="#222222"/>
<circle cx="40.5" cy="31" r="8" fill="#F0F0F0"/>
</svg>
