<svg width="68" height="54" viewBox="0 0 68 54" fill="none" xmlns="http://www.w3.org/2000/svg">
<path d="M35.5005 16.916C35.3755 16.8952 35.2297 16.8952 35.1047 16.916C32.2297 16.8119 29.938 14.4577 29.938 11.541C29.938 8.56185 32.3338 6.16602 35.313 6.16602C38.2922 6.16602 40.688 8.58269 40.688 11.541C40.6671 14.4577 38.3755 16.8119 35.5005 16.916Z" stroke="#222222" stroke-width="3" stroke-linecap="round" stroke-linejoin="round"/>
<path d="M10.4375 16.916C10.5625 16.8952 10.7083 16.8952 10.8333 16.916C13.7083 16.8119 16 14.4577 16 11.541C16 8.56185 13.6042 6.16602 10.625 6.16602C7.64584 6.16602 5.25 8.58269 5.25 11.541C5.27083 14.4577 7.5625 16.8119 10.4375 16.916Z" stroke="#222222" stroke-width="3" stroke-linecap="round" stroke-linejoin="round"/>
<path d="M12.5833 32.083C9.72916 32.5622 6.58333 32.0622 4.375 30.583C1.4375 28.6247 1.4375 25.4164 4.375 23.458C6.60417 21.9789 9.79166 21.4788 12.6458 21.9788" stroke="#222222" stroke-width="3" stroke-linecap="round" stroke-linejoin="round"/>
<path d="M23 32.4785C22.875 32.4577 22.7292 32.4577 22.6042 32.4785C19.7292 32.3744 17.4375 30.0202 17.4375 27.1035C17.4375 24.1244 19.8333 21.7285 22.8125 21.7285C25.7917 21.7285 28.1875 24.1452 28.1875 27.1035C28.1667 30.0202 25.875 32.3952 23 32.4785Z" stroke="#222222" stroke-width="3" stroke-linecap="round" stroke-linejoin="round"/>
<path d="M16.938 39.04C14.0005 40.9984 14.0005 44.2067 16.938 46.165C20.2713 48.3942 25.7297 48.3942 29.063 46.165C32.0005 44.2067 32.0005 40.9984 29.063 39.04C25.7505 36.8317 20.2713 36.8317 16.938 39.04Z" stroke="#222222" stroke-width="3" stroke-linecap="round" stroke-linejoin="round"/>
<path d="M52.8552 38.7927H51.5057L51.0273 38.3315C53.0773 35.9398 54.1365 32.6769 53.5557 29.209C52.7527 24.4598 48.7894 20.6673 44.0061 20.0865C36.7798 19.1982 30.6982 25.2798 31.5865 32.5061C32.1673 37.2894 35.9598 41.2527 40.709 42.0557C44.1769 42.6365 47.4398 41.5773 49.8315 39.5273L50.2927 40.0057V41.3552L57.5532 48.6157C58.2536 49.3161 59.3982 49.3161 60.0986 48.6157C60.799 47.9152 60.799 46.7707 60.0986 46.0702L52.8552 38.7927ZM42.6052 38.7927C38.3515 38.7927 34.9177 35.359 34.9177 31.1052C34.9177 26.8515 38.3515 23.4177 42.6052 23.4177C46.859 23.4177 50.2927 26.8515 50.2927 31.1052C50.2927 35.359 46.859 38.7927 42.6052 38.7927Z" fill="#222222"/>
<circle cx="42.5" cy="31" r="8" fill="#F0F0F0"/>
</svg>
