<svg width="25" height="24" viewBox="0 0 25 24" fill="none" xmlns="http://www.w3.org/2000/svg">
<g clip-path="url(#clip0_2196_49927)">
<path d="M14.0674 7.37397C14.1608 7.37397 14.2504 7.33686 14.3165 7.2708C14.3825 7.20473 14.4196 7.11513 14.4196 7.02171V6.45789C14.4181 6.36546 14.3804 6.27733 14.3145 6.21249C14.2486 6.14766 14.1598 6.11133 14.0674 6.11133C13.9749 6.11133 13.8862 6.14766 13.8203 6.21249C13.7544 6.27733 13.7166 6.36546 13.7151 6.45789V7.02171C13.7151 7.06797 13.7242 7.11378 13.7419 7.15652C13.7596 7.19926 13.7856 7.2381 13.8183 7.27081C13.851 7.30352 13.8898 7.32947 13.9326 7.34717C13.9753 7.36487 14.0211 7.37398 14.0674 7.37397ZM10.9831 7.37397C11.0766 7.37397 11.1662 7.33686 11.2322 7.2708C11.2983 7.20473 11.3354 7.11513 11.3354 7.02171V6.45789C11.3339 6.36546 11.2961 6.27733 11.2302 6.21249C11.1643 6.14766 11.0756 6.11133 10.9831 6.11133C10.8907 6.11133 10.802 6.14766 10.7361 6.21249C10.6702 6.27733 10.6324 6.36546 10.6309 6.45789V7.02171C10.6309 7.11513 10.668 7.20473 10.734 7.2708C10.8001 7.33686 10.8897 7.37397 10.9831 7.37397ZM11.2992 8.86136C11.4077 9.12077 11.786 9.5553 12.5252 9.5553C13.2644 9.5553 13.6428 9.12082 13.7512 8.86136C13.7714 8.81692 13.7829 8.76775 13.7829 8.71582C13.7829 8.62223 13.7458 8.53247 13.6796 8.46629C13.6134 8.40012 13.5236 8.36294 13.4301 8.36294C13.3602 8.36291 13.292 8.38357 13.2339 8.42232C13.1759 8.46106 13.1306 8.51615 13.1038 8.58063C13.0905 8.60814 12.9617 8.84941 12.5252 8.84941C12.0886 8.84941 11.9598 8.6081 11.9466 8.58058C11.9198 8.51611 11.8745 8.46106 11.8164 8.42232C11.7584 8.38357 11.6901 8.36291 11.6203 8.36294C11.5267 8.36294 11.437 8.40012 11.3708 8.46629C11.3046 8.53247 11.2674 8.62223 11.2674 8.71582C11.2675 8.76604 11.2784 8.81566 11.2992 8.86136ZM5.92017 21.9029C6.01359 21.9029 6.10319 21.8658 6.16926 21.7997C6.23532 21.7336 6.27243 21.644 6.27243 21.5506V17.6654C6.27243 17.572 6.23532 17.4824 6.16926 17.4163C6.10319 17.3502 6.01359 17.3131 5.92017 17.3131H5.08973C4.9973 17.3146 4.90916 17.3524 4.84433 17.4183C4.7795 17.4842 4.74316 17.5729 4.74316 17.6654C4.74316 17.7578 4.7795 17.8466 4.84433 17.9125C4.90916 17.9784 4.9973 18.0161 5.08973 18.0176H5.56795V21.5507C5.56795 21.6441 5.60506 21.7337 5.67111 21.7997C5.73716 21.8658 5.82675 21.9029 5.92017 21.9029ZM6.98437 20.4271C6.98437 21.2408 7.64639 21.9028 8.46014 21.9028C9.27389 21.9028 9.9359 21.2408 9.9359 20.4271C9.9359 19.9459 9.70439 19.5179 9.34696 19.2483C9.52401 19.0431 9.63145 18.7761 9.63145 18.4844C9.63145 17.8385 9.10598 17.3131 8.46009 17.3131C7.8142 17.3131 7.28873 17.8385 7.28873 18.4844C7.28873 18.7761 7.39617 19.0431 7.57321 19.2483C7.21589 19.5179 6.98437 19.9459 6.98437 20.4271ZM8.46014 21.1984C8.03489 21.1984 7.6889 20.8524 7.6889 20.4271C7.6889 20.0018 8.03489 19.6558 8.46014 19.6558C8.88543 19.6558 9.23142 20.0018 9.23142 20.4271C9.23142 20.8524 8.88543 21.1984 8.46014 21.1984ZM7.99331 18.4845C7.99331 18.227 8.20275 18.0176 8.46014 18.0176C8.71753 18.0176 8.92701 18.2271 8.92701 18.4845C8.92701 18.7419 8.71757 18.9513 8.46014 18.9513C8.2027 18.9513 7.99331 18.7419 7.99331 18.4845ZM18.7214 21.8871C18.7318 21.8871 18.7424 21.887 18.7529 21.8868C19.5562 21.8706 20.2181 21.2298 20.2597 20.4281C20.2818 20.0011 20.1322 19.5956 19.8384 19.2861C19.5487 18.981 19.1416 18.806 18.7213 18.806C18.5802 18.806 18.4603 18.8139 18.3534 18.8289L18.5003 17.942H19.6614C19.7077 17.942 19.7535 17.9329 19.7962 17.9152C19.839 17.8975 19.8778 17.8715 19.9105 17.8388C19.9432 17.8061 19.9692 17.7673 19.9869 17.7245C20.0046 17.6818 20.0137 17.636 20.0137 17.5897C20.0137 17.5435 20.0046 17.4977 19.9869 17.4549C19.9692 17.4122 19.9432 17.3733 19.9105 17.3406C19.8778 17.3079 19.839 17.282 19.7962 17.2643C19.7535 17.2466 19.7077 17.2375 19.6614 17.2375H18.2017C18.1182 17.2375 18.0375 17.2671 17.9738 17.3211C17.9102 17.375 17.8678 17.4498 17.8542 17.5322L17.565 19.2776C17.5545 19.3419 17.562 19.4078 17.5867 19.4681C17.6114 19.5284 17.6523 19.5806 17.7049 19.619C17.7576 19.6575 17.8199 19.6806 17.885 19.6858C17.95 19.691 18.0152 19.6781 18.0734 19.6485C18.0764 19.647 18.0883 19.6411 18.1074 19.6325C18.2712 19.5588 18.4023 19.5105 18.7213 19.5105C18.9526 19.5105 19.1679 19.6031 19.3275 19.7712C19.487 19.9391 19.5682 20.1595 19.5561 20.3915C19.5336 20.8263 19.1745 21.1736 18.7387 21.1825C18.3138 21.1911 17.9516 20.8819 17.8933 20.4637C17.8879 20.4249 17.8851 20.3857 17.8852 20.3465C17.8836 20.2541 17.8459 20.166 17.78 20.1011C17.7141 20.0363 17.6253 20 17.5329 20C17.4404 20 17.3517 20.0363 17.2858 20.1011C17.2199 20.166 17.1821 20.2541 17.1806 20.3465C17.1806 20.4181 17.1856 20.4902 17.1955 20.5609C17.3017 21.3222 17.9547 21.8872 18.7214 21.8871ZM16.4719 18.5681C16.4719 17.8257 15.8679 17.2217 15.1254 17.2217C14.4835 17.2217 13.9279 17.6784 13.8043 18.3075C13.7954 18.3529 13.7955 18.3996 13.8046 18.445C13.8138 18.4903 13.8317 18.5334 13.8575 18.5718C13.8833 18.6102 13.9164 18.6431 13.9549 18.6688C13.9935 18.6944 14.0367 18.7121 14.082 18.721C14.1274 18.73 14.1741 18.7299 14.2195 18.7207C14.2648 18.7116 14.3079 18.6936 14.3463 18.6678C14.3847 18.642 14.4177 18.6089 14.4433 18.5704C14.4689 18.5319 14.4867 18.4887 14.4956 18.4433C14.5544 18.1437 14.8193 17.9262 15.1254 17.9262C15.4794 17.9262 15.7673 18.2141 15.7673 18.5681C15.7673 18.922 15.4794 19.21 15.1254 19.21C15.033 19.2115 14.9449 19.2493 14.88 19.3152C14.8152 19.3811 14.7789 19.4698 14.7789 19.5623C14.7789 19.6547 14.8152 19.7435 14.88 19.8094C14.9449 19.8752 15.033 19.913 15.1254 19.9145C15.4794 19.9145 15.7673 20.2025 15.7673 20.5564C15.7673 20.9104 15.4794 21.1983 15.1254 21.1983C14.807 21.1983 14.5337 20.9611 14.4897 20.6463C14.4856 20.6166 14.4835 20.5865 14.4835 20.5564C14.482 20.464 14.4442 20.3759 14.3783 20.311C14.3124 20.2462 14.2237 20.2099 14.1313 20.2099C14.0388 20.2099 13.9501 20.2462 13.8842 20.311C13.8183 20.3759 13.7805 20.464 13.779 20.5564C13.779 20.6191 13.7834 20.6822 13.7919 20.7438C13.8842 21.4045 14.4574 21.9028 15.1254 21.9028C15.8678 21.9028 16.4718 21.2988 16.4718 20.5564C16.4718 20.1631 16.3022 19.8086 16.0324 19.5622C16.3023 19.3159 16.4719 18.9615 16.4719 18.5681ZM11.2613 19.21C11.1689 19.2116 11.0808 19.2493 11.0159 19.3152C10.9511 19.3811 10.9148 19.4699 10.9148 19.5623C10.9148 19.6548 10.9511 19.7435 11.0159 19.8094C11.0808 19.8753 11.1689 19.9131 11.2613 19.9146H12.3972C12.4906 19.9146 12.5802 19.8775 12.6463 19.8114C12.7123 19.7453 12.7494 19.6557 12.7494 19.5623C12.7494 19.4689 12.7123 19.3793 12.6463 19.3132C12.5802 19.2472 12.4906 19.21 12.3972 19.21H11.2613Z" fill="#0A9829"/>
<path d="M20.853 15.1241H18.3238C17.7002 13.2477 16.6508 12.1066 15.8636 11.4731C15.4732 11.159 15.1094 10.9362 14.8198 10.7835C15.6386 10.17 16.2038 9.23658 16.3309 8.17059C16.3931 8.17828 16.456 8.1825 16.5197 8.1825C17.3564 8.1825 18.037 7.50187 18.037 6.66525C18.037 6.18141 17.8091 5.75011 17.4553 5.47209C17.7129 4.70339 17.7567 3.86494 17.575 3.08002C17.554 2.989 17.4976 2.91008 17.4184 2.86061C17.3391 2.81115 17.2435 2.79519 17.1524 2.81625C17.0614 2.83731 16.9825 2.89366 16.933 2.97291C16.8836 3.05216 16.8676 3.14781 16.8887 3.23883C17.0355 3.87342 17.0066 4.55011 16.8107 5.17631C16.7148 5.15754 16.6174 5.14806 16.5197 5.148C16.3474 5.148 16.1802 5.1765 16.0204 5.23242C15.0329 4.70053 13.9591 3.18548 13.948 3.16959C13.9203 3.13026 13.8849 3.09699 13.844 3.07185C13.803 3.04671 13.7573 3.03023 13.7097 3.02341C13.6621 3.0166 13.6136 3.0196 13.5672 3.03222C13.5208 3.04485 13.4775 3.06684 13.4399 3.09684C13.416 3.11592 11.0641 4.97864 9.09618 5.25727C8.91676 5.1848 8.72503 5.14769 8.53152 5.14795C8.42343 5.14795 8.31796 5.15953 8.2162 5.18114C8.09957 3.89812 8.36896 2.86608 9.01982 2.10914C9.9103 1.07348 11.4147 0.704484 12.5256 0.704484C13.6219 0.704484 14.2288 1.31292 14.2525 1.3373C14.3335 1.42223 14.453 1.46095 14.5687 1.44122C14.5768 1.43986 15.377 1.30973 16.0448 1.80056C16.1575 1.88339 16.2644 1.9867 16.3628 2.10764C16.4224 2.17822 16.5072 2.2226 16.5992 2.23124C16.6911 2.23987 16.7828 2.21207 16.8544 2.15382C16.926 2.09556 16.9719 2.01151 16.9822 1.91975C16.9925 1.82799 16.9664 1.73585 16.9094 1.66317C16.7734 1.49588 16.6229 1.35113 16.4621 1.23291C15.758 0.715406 14.9732 0.701531 14.6258 0.726891C14.34 0.489844 13.6174 0 12.5256 0C11.9107 0 9.80198 0.118969 8.48568 1.64986C7.65829 2.61211 7.34216 3.91172 7.54405 5.5148C7.2201 5.79328 7.01432 6.20555 7.01432 6.66525C7.01432 7.50187 7.69494 8.1825 8.53157 8.1825C8.59523 8.1825 8.65818 8.17828 8.72034 8.17059C8.84741 9.23648 9.41259 10.1698 10.2314 10.7834C9.81655 11.0019 9.2496 11.3647 8.66966 11.9341C8.60391 11.9997 8.56676 12.0887 8.5663 12.1816C8.56584 12.2745 8.60211 12.3639 8.66721 12.4302C8.73231 12.4965 8.82097 12.5344 8.91387 12.5356C9.00678 12.5368 9.09642 12.5013 9.16326 12.4368C9.80474 11.807 10.4303 11.4602 10.7863 11.2956L11.3901 12.8256L10.9704 15.1241H7.47281C7.69166 14.5212 7.97174 13.9654 8.3083 13.4667C8.33419 13.4284 8.35226 13.3853 8.3615 13.34C8.37074 13.2947 8.37096 13.248 8.36214 13.2026C8.35333 13.1571 8.33565 13.1139 8.31013 13.0753C8.2846 13.0368 8.25173 13.0036 8.21338 12.9777C8.17505 12.9518 8.13199 12.9338 8.08666 12.9245C8.04134 12.9153 7.99464 12.9151 7.94923 12.9239C7.90383 12.9327 7.8606 12.9504 7.82202 12.9759C7.78344 13.0014 7.75026 13.0343 7.72438 13.0726C7.31099 13.6851 6.97696 14.3745 6.72806 15.1241H4.14698C3.17582 15.1241 2.38574 15.9142 2.38574 16.8853V22.2387C2.38574 23.2098 3.17582 23.9999 4.14698 23.9999H16.3063C16.3987 23.9984 16.4869 23.9606 16.5517 23.8947C16.6165 23.8288 16.6529 23.7401 16.6529 23.6476C16.6529 23.5552 16.6165 23.4665 16.5517 23.4006C16.4869 23.3347 16.3987 23.2969 16.3063 23.2954H4.14698C3.56427 23.2954 3.09023 22.8213 3.09023 22.2386V16.8854C3.09023 16.3027 3.56427 15.8287 4.14698 15.8287H20.853C21.4357 15.8287 21.9098 16.3027 21.9098 16.8854V22.2388C21.9098 22.8215 21.4357 23.2955 20.853 23.2955H17.7153C17.6228 23.297 17.5347 23.3348 17.4699 23.4007C17.405 23.4666 17.3687 23.5553 17.3687 23.6478C17.3687 23.7402 17.405 23.829 17.4699 23.8949C17.5347 23.9608 17.6228 23.9985 17.7153 24H20.853C21.8242 24 22.6143 23.21 22.6143 22.2388V16.8854C22.6143 15.9142 21.8242 15.1241 20.853 15.1241ZM13.057 12.4377H11.9943L11.598 11.4336C12.2071 11.5857 12.8442 11.5857 13.4532 11.4336L13.057 12.4377ZM17.3324 6.66525C17.3324 7.11342 16.9679 7.47802 16.5197 7.47802C16.4657 7.47775 16.4119 7.47211 16.359 7.46119V5.86931C16.4119 5.85839 16.4657 5.85275 16.5197 5.85248C16.9679 5.85253 17.3324 6.21712 17.3324 6.66525ZM7.7188 6.66525C7.7188 6.21708 8.0834 5.85248 8.53157 5.85248C8.58627 5.85248 8.63976 5.85877 8.69226 5.86931V7.46119C8.63939 7.47212 8.58556 7.47775 8.53157 7.47802C8.0834 7.47802 7.7188 7.11342 7.7188 6.66525ZM9.39674 7.71431V5.92191C10.2513 5.76394 11.234 5.35584 12.3235 4.70597C12.7582 4.44633 13.1806 4.16654 13.5892 3.86752C13.9731 4.36495 14.807 5.36212 15.6545 5.83547V7.71431C15.6545 9.43959 14.2509 10.8432 12.5256 10.8432C10.8003 10.8432 9.39674 9.43959 9.39674 7.71431ZM11.6864 15.1241L12.0483 13.1422H13.003L13.3649 15.1241H11.6864ZM14.0809 15.1241L13.6613 12.8257L14.2652 11.2951C14.9578 11.6151 16.673 12.6299 17.5785 15.1241H14.0809Z" fill="#0A9829"/>
</g>
<defs>
<clipPath id="clip0_2196_49927">
<rect width="24" height="24" fill="white" transform="translate(0.5)"/>
</clipPath>
</defs>
</svg>
