<svg width="24" height="24" viewBox="0 0 24 24" fill="none" xmlns="http://www.w3.org/2000/svg">
<g id="Frame">
<g id="Group">
<path id="Vector" d="M8.16098 19.0539C7.05941 18.5196 5.72348 18.9789 5.1891 20.0805C4.64535 21.1446 5.13285 22.5508 6.21566 23.0524C7.01723 23.4461 7.99691 23.3055 8.65785 22.7196C9.84379 21.7024 9.5766 19.7196 8.16098 19.0539ZM8.68129 21.7774C8.66254 21.8149 8.64379 21.8524 8.62504 21.8852L8.4891 21.7352C8.46098 21.7071 8.41879 21.6977 8.38129 21.7118L7.65473 22.0258C7.63129 22.0352 7.61723 22.0539 7.60785 22.0774L7.36879 22.6539C7.3641 22.668 7.35941 22.6821 7.35941 22.7008C7.05941 22.7336 6.75004 22.6868 6.45941 22.5461C5.64848 22.1711 5.28285 21.1211 5.69066 20.3289C6.09848 19.4805 7.14379 19.1524 7.95004 19.5836C7.93129 19.6024 7.92191 19.6258 7.92191 19.6493L7.94066 20.3805C7.94066 20.4039 7.95004 20.4274 7.96879 20.4461L8.53129 20.9852C8.5641 21.0227 8.62973 21.018 8.66254 20.9805L8.83129 20.8071C8.87816 21.1258 8.83129 21.4633 8.68129 21.7774Z" fill="#FEFEFE"/>
<path id="Vector_2" d="M7.29371 20.5965L6.53434 20.2027C6.50153 20.184 6.45934 20.1886 6.43121 20.2121C6.41715 20.2215 6.21559 20.4277 5.82184 20.8261C5.79371 20.8543 5.78903 20.8965 5.80309 20.9293L6.16403 21.7308C6.18278 21.7683 6.22028 21.7918 6.26246 21.7871L7.10153 21.6652C7.14371 21.6605 7.17184 21.6277 7.18121 21.5902L7.3359 20.6949C7.34528 20.6574 7.32653 20.6152 7.29371 20.5965ZM16.8609 9.06989C16.7062 8.65271 16.4765 8.27302 16.1765 7.9402C15.9515 6.99802 15.5765 6.1027 15.0656 5.28239C15 5.16052 14.9109 5.05739 14.8031 4.97302C14.6578 4.8652 14.4937 4.8277 14.3718 4.80427C13.8797 4.69645 13.3781 4.59802 12.8765 4.51364C13.139 4.17614 13.2 3.69333 13.2422 3.28552C13.4297 1.52302 12.2812 0.519892 10.4297 1.18552C10.2703 1.23239 10.1203 1.3027 9.98434 1.40114C9.19684 2.00583 9.72184 3.92302 10.0781 4.71989C9.08434 4.80427 8.29215 5.41833 7.81403 6.27614C7.60778 6.60895 7.42496 6.99802 7.50934 7.40583C7.00309 7.94021 6.69371 8.41364 6.8859 9.23864C6.93746 9.51052 6.99371 9.78239 7.05465 10.0543C7.13903 10.434 7.42965 10.8652 7.71559 11.2777C7.8609 11.4933 8.00153 11.6949 8.08121 11.8543C8.25934 12.2058 8.28278 12.4496 8.67184 12.6511C8.50778 13.2886 8.37184 14.0246 8.47028 14.784C8.47965 14.8543 8.51246 14.9152 8.56403 14.9621C8.55465 15.5199 8.62496 16.0871 8.81715 16.6074C8.86871 16.7574 8.90621 16.9121 8.9484 17.0715C9.12653 17.934 9.59059 18.6324 10.0265 19.1386C10.2375 19.4011 10.4297 19.6355 10.5703 19.9168C10.6875 20.1558 10.739 20.409 10.814 20.7605C10.8515 20.934 10.8937 21.1074 10.9172 21.2996C10.9687 21.8058 11.1656 22.3871 11.85 22.2371L11.8968 22.3121C12.1359 22.6449 12.5953 22.2933 12.3468 21.9699C12.4453 21.8808 12.5297 21.7824 12.5953 21.6793C12.989 21.7965 13.1437 21.2386 12.7359 21.1308C12.7172 20.9058 12.6562 20.6855 12.5531 20.484C12.4125 20.1933 12.3703 19.8746 12.4218 19.5605C12.7406 19.5277 12.7687 19.0824 12.4593 19.0074C12.4547 18.9277 12.4453 18.8433 12.4312 18.759C12.3656 18.4308 12.0562 18.1355 11.714 18.159C11.5922 17.798 11.6718 17.198 11.5781 16.7949C11.5172 16.509 11.4562 16.3636 11.3953 16.2324C11.3109 16.0449 11.2172 15.7683 11.2265 15.5386C11.2687 15.3793 11.4187 15.1965 11.4937 15.0371C11.625 15.0886 11.7797 15.023 11.8406 14.8965C11.9343 14.709 11.9859 14.4652 12.0375 14.2308C12.4734 15.3605 12.6093 16.584 13.2937 17.6433C13.3359 17.7183 13.3968 17.7793 13.4297 17.859C13.439 17.9105 13.4437 17.9668 13.439 18.023C13.4531 18.3652 13.5656 18.6699 13.6734 18.9699C13.7765 19.2324 13.8468 19.4621 13.8843 19.7199C13.9218 19.9121 13.9593 20.1136 13.9593 20.3011C13.9593 20.7043 13.7718 21.0652 13.8375 21.4918C13.7672 21.5574 13.7203 21.6371 13.7015 21.7308C13.65 21.9699 13.9218 22.1574 14.1281 22.0261C14.2687 22.1621 14.4422 22.2699 14.5687 22.4058C14.7281 22.5886 14.8265 22.8324 15.014 23.0152C14.9343 23.2261 15.0093 23.4746 15.2672 23.484C15.3984 23.484 15.5062 23.3949 15.539 23.273C15.6187 23.2871 15.6937 23.2965 15.7687 23.2965C15.8812 23.709 16.4437 23.5636 16.3218 23.1652C17.0203 22.7527 16.5468 21.9933 16.2515 21.5105C16.05 21.1449 15.9937 20.798 15.75 20.4324C15.6375 19.4058 15.9656 18.473 15.7875 17.3761C15.7734 17.2871 15.7453 17.2308 15.7218 17.1652C15.7218 17.1043 15.7265 17.048 15.7406 16.9871C15.8109 16.4621 15.6797 15.923 15.375 15.4965C15.3375 14.4605 14.8312 13.3965 14.4609 12.4215C14.5734 12.3558 14.625 12.2058 14.5781 12.0886L14.5312 11.9621C14.3906 11.5777 14.3015 11.3293 14.2406 10.9496C14.5031 10.8558 14.7 10.6449 14.9109 10.4855C15.375 10.1621 16.0265 10.1199 16.5515 9.86677C16.95 9.68864 16.964 9.33239 16.8609 9.06989ZM12.675 3.34177C12.6234 3.81052 12.5672 4.11989 12.164 4.45739C11.9015 4.68708 11.5218 4.94489 11.1047 4.91677C10.739 4.86989 10.5234 4.39645 10.4531 4.08239C10.3172 3.69802 10.214 3.29958 10.1718 2.89645C10.289 2.64333 10.6312 2.43708 10.9406 2.43239C11.2547 2.43239 11.55 2.61052 11.6906 2.89645C11.7562 3.03708 11.939 3.09802 12.075 3.02302C12.3281 2.88239 12.6281 3.06052 12.675 3.34177ZM11.0578 5.47927C11.4422 5.50739 11.8031 5.39489 12.1781 5.15583C12.1078 5.31052 12.0281 5.45114 11.9437 5.54958C11.775 5.71364 11.4375 5.9527 11.2078 5.81677C11.1187 5.75114 11.0297 5.57302 10.964 5.4652C10.9922 5.46989 11.025 5.47458 11.0578 5.47927ZM10.589 1.72458C11.6906 1.36364 12.4265 1.48552 12.6656 2.50271C12.4781 2.41364 12.2578 2.39021 12.0562 2.43239C11.6297 1.85114 10.8047 1.70114 10.1906 2.0902C10.2468 1.8652 10.3968 1.78083 10.589 1.72458ZM8.30153 6.56208C8.70465 5.83552 9.34215 5.31989 10.1906 5.27302C10.1906 5.2777 10.1953 5.2777 10.1953 5.28239L10.5515 5.88239C10.6265 6.00896 10.7203 6.16364 10.875 6.27614C11.3484 6.60895 11.9812 6.31364 12.3422 5.94333C12.5531 5.71364 12.6984 5.37614 12.8156 5.07145C13.2937 5.15583 13.7765 5.24958 14.25 5.3527C14.3203 5.36677 14.4093 5.3902 14.4562 5.41833C14.5078 5.46052 14.5453 5.51677 14.5781 5.57302C15.0281 6.29489 15.3609 7.07302 15.5765 7.89333C15.1593 8.02927 14.7281 8.10427 14.3437 8.17927C14.189 7.97302 14.0625 7.74333 13.9687 7.49958C13.9125 7.35427 13.7484 7.28396 13.6031 7.34021C13.4578 7.39646 13.3875 7.56052 13.4437 7.70583C13.575 8.04333 13.7625 8.35739 13.9922 8.64333C13.6172 8.54489 13.2468 8.70895 12.975 8.93864C12.8953 8.99489 12.825 9.06989 12.7734 9.15427C12.6 9.44489 12.7687 9.77302 12.8203 9.87614C12.9515 10.134 13.1015 10.3824 13.275 10.6168C13.3734 10.7621 13.5093 10.8933 13.6781 10.9543C13.7343 11.3386 13.814 11.6058 13.9265 11.9199C13.2468 11.9199 12.5437 11.6433 11.8781 11.409C10.9828 11.0949 10.2047 10.9871 9.56715 11.0855C9.97028 9.84333 9.99371 8.75583 9.63278 7.66364C9.54371 7.39177 9.14996 7.41521 9.08903 7.69177C9.04215 7.91208 8.9484 8.11364 8.81715 8.29177C8.52653 8.06208 8.10465 7.63083 8.0484 7.24646C8.03903 7.02146 8.17496 6.7777 8.30153 6.56208ZM10.875 15.0043C10.8 15.1261 10.7062 15.2715 10.6828 15.459C10.6687 15.5761 10.6781 15.6933 10.6968 15.8105C10.2187 16.0824 9.65153 16.0402 9.18746 15.759C9.14059 15.4355 9.12653 15.1074 9.14059 14.7793C9.44996 14.5636 9.92809 14.4465 10.275 14.4277C10.5093 14.4136 10.7672 14.5027 11.0484 14.6902C10.9968 14.7933 10.9359 14.9011 10.875 15.0043ZM8.89684 9.21989C8.95309 9.11677 8.99996 8.98083 9.05621 8.87302C9.14059 8.79333 9.22028 8.70427 9.29059 8.61052C9.36559 9.15427 9.34215 9.70739 9.2109 10.298C9.03278 10.0121 8.74215 9.44958 8.89684 9.21989ZM8.18903 10.9543C7.94996 10.6027 7.6734 10.2043 7.61246 9.92771C7.55153 9.66052 7.49528 9.39333 7.44371 9.13083C7.33121 8.62458 7.4109 8.38552 7.76246 7.96833C7.96403 8.26833 8.21246 8.53083 8.49371 8.74646C8.46559 8.80739 8.42809 8.90114 8.40465 8.94333C8.14215 9.40739 8.40465 9.96521 8.48903 10.148C8.64371 10.4761 8.82653 10.7621 8.99996 11.0152C8.95778 11.1371 8.91559 11.2636 8.86403 11.3855C8.82184 11.4933 8.84996 11.6246 8.93903 11.6996C8.90621 11.8168 8.86871 11.948 8.83121 12.0793C8.78903 12.0371 8.76559 11.9855 8.7234 11.8871C8.69059 11.8121 8.6484 11.7136 8.58746 11.5918C8.49371 11.4043 8.34371 11.184 8.18903 10.9543ZM11.8265 18.7543C11.8547 18.7824 11.8828 18.8199 11.8922 18.8621C11.9343 19.073 11.9062 19.2933 11.8781 19.4902C11.8125 19.9168 11.8734 20.348 12.0656 20.7324C12.1359 20.8683 12.1781 21.0183 12.1875 21.173C12.1968 21.323 12.075 21.4777 11.9531 21.5715C11.8359 21.6652 11.7187 21.7074 11.6343 21.6933C11.55 21.6746 11.5125 21.4027 11.4843 21.2199C11.4609 21.0277 11.414 20.8261 11.3765 20.6433C11.3156 20.3574 11.264 20.1136 11.1797 19.8793C11.5359 19.659 11.7843 19.1855 11.8265 18.7543ZM11.264 18.5293C11.3109 18.8105 11.1328 19.2183 10.9172 19.3777C10.4531 18.6699 9.90465 18.2574 9.60934 17.3293C9.52028 17.0433 9.46403 16.748 9.36559 16.4574C9.85309 16.6215 10.3828 16.584 10.8515 16.3636C10.9312 16.5511 10.9781 16.6261 11.0343 16.9074C11.0718 17.0855 11.0765 17.3011 11.0812 17.5074C11.0906 17.8543 11.1 18.1777 11.2312 18.4355C11.25 18.4636 11.2593 18.4918 11.264 18.5293ZM14.9765 15.8668C15.2109 16.2183 15.2578 16.6449 15.1828 17.0574C14.8547 17.3293 14.114 17.4558 13.7062 17.2074C13.4906 16.8511 13.3406 16.4574 13.214 16.0683C13.7531 16.0683 14.4937 15.9699 14.9765 15.8668ZM15.239 19.0636C15.2015 19.4621 15.164 19.8465 15.1875 20.2402C14.9578 20.259 14.7234 20.198 14.5312 20.0715C14.4797 19.6261 14.3859 19.1715 14.2218 18.7636C14.1047 18.459 14.0109 18.1871 14.0156 17.8824C14.4422 17.934 14.9109 17.8496 15.2765 17.6621C15.3234 18.1543 15.2812 18.6136 15.239 19.0636ZM15.8765 21.9324C16.0031 22.148 16.2187 22.509 16.1156 22.6168C15.9984 22.748 15.7406 22.734 15.5578 22.6824C15.4406 22.6496 15.3609 22.5324 15.239 22.3402C15.1687 22.2324 15.0984 22.1199 15.0047 22.0121C14.9109 21.9043 14.8031 21.8199 14.7047 21.7449C14.5312 21.609 14.4375 21.5293 14.414 21.4074C14.3765 21.1918 14.4609 20.9152 14.5031 20.6808C14.7656 20.784 15.0562 20.8215 15.3375 20.7793C15.4218 20.9246 15.4828 21.0699 15.5437 21.234C15.6281 21.459 15.7406 21.7121 15.8765 21.9324ZM14.8218 15.323C14.3062 15.4355 13.5468 15.5105 13.0453 15.5105C12.8343 14.7746 12.6422 14.0199 12.2625 13.3355C12.2156 13.2465 12.1218 13.1949 12.0234 13.1902C11.925 13.1902 11.8312 13.2371 11.7797 13.3215C11.6015 13.6074 11.5406 13.9636 11.4656 14.2824C11.0484 13.9777 10.6359 13.8371 10.2515 13.8605C9.89996 13.8793 9.41246 13.9824 9.01403 14.198C9.03746 13.2793 9.30934 12.5011 9.5484 11.6574C10.9453 11.3433 12.45 12.459 13.9078 12.473C14.2406 13.3777 14.7234 14.3996 14.8218 15.323ZM16.35 9.32771C15.7875 9.59021 15.1265 9.62771 14.5922 10.0121C14.3578 10.1621 13.964 10.6777 13.739 10.284C13.5843 10.0777 13.4484 9.85271 13.3312 9.61833C13.2703 9.49646 13.2656 9.44489 13.2656 9.43552C13.3828 9.32302 13.5468 9.21052 13.6875 9.18239C13.7859 9.16364 13.8703 9.18239 13.8937 9.19646C13.964 9.33239 14.1515 9.38864 14.2828 9.30896C14.5265 9.16833 14.7 8.93864 14.7656 8.66677C15.0984 8.60114 15.4734 8.52145 15.8297 8.39958C16.0593 8.68083 16.2468 8.9902 16.35 9.32771Z" fill="#FEFEFE"/>
</g>
</g>
</svg>
