<svg width="25" height="24" viewBox="0 0 25 24" fill="none" xmlns="http://www.w3.org/2000/svg">
<g id="iconamoon:profile-light">
<g id="Group">
<path id="Vector" d="M4.75 18C4.75 16.9391 5.17143 15.9217 5.92157 15.1716C6.67172 14.4214 7.68913 14 8.75 14H16.75C17.8109 14 18.8283 14.4214 19.5784 15.1716C20.3286 15.9217 20.75 16.9391 20.75 18C20.75 18.5304 20.5393 19.0391 20.1642 19.4142C19.7891 19.7893 19.2804 20 18.75 20H6.75C6.21957 20 5.71086 19.7893 5.33579 19.4142C4.96071 19.0391 4.75 18.5304 4.75 18Z" fill="#0A9829" stroke="#0A9829" stroke-width="1.5" stroke-linejoin="round"/>
<path id="Vector_2" d="M12.75 10C14.4069 10 15.75 8.65685 15.75 7C15.75 5.34315 14.4069 4 12.75 4C11.0931 4 9.75 5.34315 9.75 7C9.75 8.65685 11.0931 10 12.75 10Z" fill="#0A9829" stroke="#0A9829" stroke-width="1.5"/>
</g>
</g>
</svg>
