<svg width="33" height="32" viewBox="0 0 33 32" fill="none" xmlns="http://www.w3.org/2000/svg">
<path d="M16.4996 7.02713C17.4032 7.02607 18.2696 6.66662 18.9086 6.02763C19.5476 5.38864 19.907 4.52229 19.9081 3.61862V2.43913C17.654 2.86375 15.3389 2.84728 13.0911 2.39062V3.61862C13.0921 4.52229 13.4516 5.38864 14.0906 6.02763C14.7295 6.66662 15.5959 7.02607 16.4996 7.02713Z" fill="#DF2323"/>
<path d="M30.4624 13.7753L27.6674 7.9003C27.1402 6.80056 26.2115 5.94481 25.0724 5.5093L22.9394 4.6963C22.0954 4.4468 21.4794 3.4553 20.9844 2.7793V3.4588C21.0045 4.08553 20.8938 4.70959 20.6593 5.29115C20.4249 5.87272 20.0717 6.39901 19.6224 6.83644C19.1731 7.27388 18.6376 7.61286 18.05 7.83174C17.4624 8.05062 16.8356 8.1446 16.2096 8.10768C15.5836 8.07077 14.9722 7.90376 14.4144 7.61733C13.8566 7.3309 13.3646 6.93133 12.9698 6.44411C12.5751 5.9569 12.2862 5.39275 12.1217 4.78765C11.9572 4.18256 11.9206 3.54982 12.0144 2.9298C11.6455 3.63897 11.0423 4.19839 10.3074 4.5128L8.30935 5.2293C7.16257 5.63495 6.21711 6.46843 5.67085 7.5553L2.53635 13.7753C2.49283 13.8696 2.4882 13.9773 2.52348 14.075C2.55876 14.1727 2.63111 14.2526 2.72485 14.2973L6.89985 16.1958C6.97827 16.2316 7.06414 16.248 7.15022 16.2437C7.23631 16.2394 7.32012 16.2145 7.39458 16.1711C7.46905 16.1277 7.53201 16.0671 7.57817 15.9943C7.62433 15.9215 7.65235 15.8387 7.65985 15.7528L7.81335 14.0028C7.82936 13.8624 7.89955 13.7338 8.00896 13.6444C8.11838 13.5551 8.25838 13.5119 8.39913 13.5242C8.53989 13.5366 8.67026 13.6034 8.76249 13.7104C8.85471 13.8174 8.90149 13.9563 8.89286 14.0973L7.59285 28.8743C7.59233 28.9792 7.61333 29.0832 7.65456 29.1797C7.69579 29.2762 7.75638 29.3632 7.83258 29.4354C7.90877 29.5076 7.99896 29.5633 8.09756 29.5993C8.19617 29.6352 8.30109 29.6505 8.40585 29.6443H24.6359C24.7411 29.6506 24.8465 29.6351 24.9455 29.5988C25.0444 29.5625 25.1349 29.5063 25.2112 29.4335C25.2874 29.3608 25.3479 29.2731 25.3888 29.1759C25.4297 29.0787 25.4501 28.9742 25.4489 28.8688C25.2189 26.4028 24.2669 16.3463 24.0559 14.1003C24.0457 13.9597 24.091 13.8208 24.1821 13.7133C24.2731 13.6057 24.4027 13.5381 24.5429 13.5249C24.6832 13.5117 24.8231 13.5539 24.9326 13.6426C25.0422 13.7313 25.1126 13.8593 25.1289 13.9993L25.2924 15.7313C25.3004 15.8164 25.3286 15.8984 25.3746 15.9704C25.4207 16.0424 25.4832 16.1025 25.557 16.1456C25.6308 16.1887 25.7138 16.2136 25.7992 16.2182C25.8846 16.2229 25.9698 16.2071 26.0479 16.1723L30.2739 14.2868C30.3662 14.2432 30.4377 14.1652 30.4729 14.0694C30.5082 13.9736 30.5044 13.8683 30.4624 13.7753ZM10.2259 11.8043C10.2256 11.7335 10.2393 11.6634 10.2663 11.5979C10.2933 11.5325 10.3329 11.473 10.383 11.4229C10.433 11.3729 10.4925 11.3332 10.558 11.3062C10.6234 11.2793 10.6936 11.2655 10.7644 11.2658H13.4084C13.5512 11.2658 13.6881 11.3225 13.7891 11.4235C13.8901 11.5245 13.9469 11.6615 13.9469 11.8043C13.9469 11.9471 13.8901 12.0841 13.7891 12.1851C13.6881 12.2861 13.5512 12.3428 13.4084 12.3428H10.7644C10.6936 12.3431 10.6234 12.3293 10.558 12.3023C10.4925 12.2754 10.433 12.2357 10.383 12.1857C10.3329 12.1356 10.2933 12.0761 10.2663 12.0107C10.2393 11.9452 10.2256 11.8751 10.2259 11.8043ZM15.4759 24.1298C15.4716 24.2697 15.413 24.4025 15.3125 24.4999C15.2121 24.5974 15.0776 24.6519 14.9376 24.6519C14.7976 24.6519 14.6631 24.5974 14.5627 24.4999C14.4622 24.4025 14.4036 24.2697 14.3994 24.1298V18.7023L13.8769 19.0253C13.7556 19.097 13.6109 19.1183 13.4741 19.0846C13.3373 19.0508 13.2192 18.9647 13.1451 18.8448C13.0711 18.7248 13.0471 18.5807 13.0783 18.4432C13.1095 18.3058 13.1933 18.1861 13.3119 18.1098L14.6524 17.2748C14.7344 17.2261 14.8277 17.1997 14.9231 17.1983C15.0185 17.197 15.1126 17.2206 15.196 17.267C15.2794 17.3133 15.3491 17.3807 15.3983 17.4625C15.4475 17.5442 15.4744 17.6374 15.4764 17.7328L15.4759 24.1298ZM19.3479 24.1298C19.3479 24.2726 19.2911 24.4096 19.1901 24.5106C19.0891 24.6116 18.9522 24.6683 18.8094 24.6683C18.6665 24.6683 18.5296 24.6116 18.4286 24.5106C18.3276 24.4096 18.2709 24.2726 18.2709 24.1298V18.7023L17.7489 19.0253C17.6275 19.1003 17.4812 19.124 17.3424 19.0912C17.2035 19.0583 17.0833 18.9717 17.0084 18.8503C16.9334 18.7289 16.9097 18.5827 16.9425 18.4438C16.9753 18.3049 17.062 18.1848 17.1834 18.1098L18.5239 17.2748C18.6059 17.2261 18.6992 17.1997 18.7946 17.1983C18.89 17.197 18.9841 17.2206 19.0675 17.267C19.1509 17.3133 19.2206 17.3807 19.2698 17.4625C19.319 17.5442 19.3459 17.6374 19.3479 17.7328V24.1298Z" fill="#DF2323"/>
<path d="M19.3479 24.1298C19.3479 24.2726 19.2911 24.4096 19.1901 24.5106C19.0891 24.6116 18.9522 24.6683 18.8094 24.6683C18.6665 24.6683 18.5296 24.6116 18.4286 24.5106C18.3276 24.4096 18.2709 24.2726 18.2709 24.1298V18.7023L17.7489 19.0253C17.6275 19.1003 17.4812 19.124 17.3424 19.0912C17.2035 19.0583 17.0833 18.9717 17.0084 18.8503C16.9334 18.7289 16.9097 18.5827 16.9425 18.4438C16.9753 18.3049 17.062 18.1848 17.1834 18.1098L18.5239 17.2748C18.6059 17.2261 18.6992 17.1997 18.7946 17.1983C18.89 17.197 18.9841 17.2206 19.0675 17.267C19.1509 17.3133 19.2206 17.3807 19.2698 17.4625C19.319 17.5442 19.3459 17.6374 19.3479 17.7328V24.1298Z" fill="#DF2323"/>
<path d="M15.4759 24.1298C15.4716 24.2697 15.413 24.4025 15.3125 24.4999C15.2121 24.5974 15.0776 24.6519 14.9376 24.6519C14.7976 24.6519 14.6631 24.5974 14.5627 24.4999C14.4622 24.4025 14.4036 24.2697 14.3994 24.1298V18.7023L13.8769 19.0253C13.7556 19.097 13.6109 19.1183 13.4741 19.0846C13.3373 19.0508 13.2192 18.9647 13.1451 18.8448C13.0711 18.7248 13.0471 18.5807 13.0783 18.4432C13.1095 18.3058 13.1933 18.1861 13.3119 18.1098L14.6524 17.2748C14.7344 17.2261 14.8277 17.1997 14.9231 17.1983C15.0185 17.197 15.1126 17.2206 15.196 17.267C15.2794 17.3133 15.3491 17.3807 15.3983 17.4625C15.4475 17.5442 15.4744 17.6374 15.4764 17.7328L15.4759 24.1298Z" fill="#DF2323"/>
</svg>
