<svg width="16" height="16" viewBox="0 0 16 16" fill="none" xmlns="http://www.w3.org/2000/svg">
<path d="M11.3137 10.0598H10.6553L10.422 9.83477C11.422 8.6681 11.9387 7.07643 11.6553 5.38477C11.2637 3.0681 9.33034 1.2181 6.99701 0.934766C3.47201 0.501433 0.505339 3.4681 0.938672 6.9931C1.22201 9.32643 3.07201 11.2598 5.38867 11.6514C7.08034 11.9348 8.67201 11.4181 9.83867 10.4181L10.0637 10.6514V11.3098L13.6053 14.8514C13.947 15.1931 14.5053 15.1931 14.847 14.8514C15.1887 14.5098 15.1887 13.9514 14.847 13.6098L11.3137 10.0598ZM6.31367 10.0598C4.23867 10.0598 2.56367 8.38477 2.56367 6.30977C2.56367 4.23477 4.23867 2.55977 6.31367 2.55977C8.38867 2.55977 10.0637 4.23477 10.0637 6.30977C10.0637 8.38477 8.38867 10.0598 6.31367 10.0598Z" fill="#222222"/>
</svg>
