<svg width="16" height="17" viewBox="0 0 16 17" fill="none" xmlns="http://www.w3.org/2000/svg">
<path d="M7.82683 12.3333H11.7735C11.7135 12.3867 11.6535 12.4333 11.5935 12.4867L8.74683 14.62C7.80683 15.32 6.2735 15.32 5.32683 14.62L2.4735 12.4867C1.84683 12.02 1.3335 10.9867 1.3335 10.2067V5.26665C1.3335 4.45332 1.9535 3.55332 2.7135 3.26665L6.0335 2.01999C6.58016 1.81332 7.48683 1.81332 8.0335 2.01999L11.3468 3.26665C11.9802 3.50665 12.5202 4.17332 12.6868 4.85332H7.82016C7.67349 4.85332 7.54016 4.86 7.41349 4.86C6.18016 4.93333 5.86016 5.37999 5.86016 6.78665V10.4066C5.86683 11.94 6.26017 12.3333 7.82683 12.3333Z" stroke="white" stroke-linecap="round" stroke-linejoin="round"/>
<path d="M5.8667 7.97998H14.6667" stroke="white" stroke-miterlimit="10" stroke-linecap="round" stroke-linejoin="round"/>
<path d="M14.6667 6.78009V10.4801C14.6534 11.9601 14.2467 12.3267 12.7067 12.3267H7.8267C6.26003 12.3267 5.8667 11.9334 5.8667 10.3934V6.77342C5.8667 5.37342 6.1867 4.92674 7.42003 4.84674C7.5467 4.84674 7.68003 4.84009 7.8267 4.84009H12.7067C14.2734 4.84675 14.6667 5.23342 14.6667 6.78009Z" stroke="white" stroke-linecap="round" stroke-linejoin="round"/>
<path d="M7.54688 10.6733H8.43353" stroke="white" stroke-miterlimit="10" stroke-linecap="round" stroke-linejoin="round"/>
<path d="M9.8335 10.6733H12.0135" stroke="white" stroke-miterlimit="10" stroke-linecap="round" stroke-linejoin="round"/>
</svg>
