<svg width="25" height="24" viewBox="0 0 25 24" fill="none" xmlns="http://www.w3.org/2000/svg">
<path fill-rule="evenodd" clip-rule="evenodd" d="M12.9563 0.853243L12.6828 1.70649L11.7609 1.71797L10.8391 1.72946L11.5757 2.26115C11.9808 2.55354 12.3123 2.80608 12.3123 2.82227C12.3123 2.83849 12.1884 3.23277 12.037 3.69844C11.8856 4.16416 11.7673 4.55087 11.7744 4.55787C11.7814 4.56488 11.9492 4.45018 12.1473 4.30298C12.3454 4.15583 12.6758 3.91353 12.8815 3.76463L13.2556 3.49381L13.4778 3.64895C13.6001 3.73427 13.9374 3.97776 14.2274 4.19003C14.8481 4.64435 14.8277 4.70255 14.4465 3.56282L14.1971 2.81736L14.5038 2.59184C14.6725 2.46779 15.0087 2.22302 15.2511 2.04789L15.6918 1.72946L14.7623 1.70811L13.8328 1.68676L13.5621 0.843379C13.4133 0.379499 13.2776 0 13.2607 0C13.2437 0 13.1068 0.38394 12.9563 0.853243ZM6.76097 3.76741C6.76097 3.78188 6.80901 4.01589 6.86772 4.28748C6.92644 4.55907 6.97414 4.80559 6.97376 4.83536C6.97337 4.86512 6.77177 5.00151 6.52576 5.13846C6.08921 5.38148 5.97511 5.46595 6.08336 5.46595C6.11274 5.46595 6.35568 5.48815 6.62325 5.51527C7.18718 5.57245 7.12787 5.50955 7.274 6.20505C7.32733 6.45887 7.38507 6.65104 7.40223 6.63208C7.41944 6.61307 7.52513 6.39046 7.63706 6.13732C7.74898 5.88418 7.85228 5.67067 7.86658 5.66289C7.88089 5.65508 8.13228 5.67374 8.42522 5.70436C8.7182 5.73498 8.96323 5.7547 8.96972 5.74817C8.97626 5.74168 8.799 5.57522 8.57587 5.37832C8.35271 5.18146 8.17063 5.00049 8.17118 4.97628C8.17178 4.95202 8.26551 4.72079 8.37957 4.46243C8.49359 4.20408 8.58061 3.98574 8.57297 3.9772C8.56533 3.96871 8.35438 4.07918 8.10414 4.22274C7.85394 4.36631 7.63304 4.48379 7.61323 4.48379C7.58141 4.48379 7.34305 4.27847 6.89975 3.86921C6.82344 3.79875 6.76097 3.75293 6.76097 3.76741ZM19.3156 4.14302C19.1159 4.32937 18.9346 4.48225 18.9126 4.4828C18.8906 4.48336 18.6726 4.36712 18.4281 4.22454C18.1836 4.08191 17.9739 3.97507 17.9619 3.98703C17.9499 3.99902 18.04 4.22996 18.1622 4.50023L18.3843 4.99165L18.2201 5.13265C17.9433 5.37029 17.5633 5.73502 17.5777 5.74932C17.5908 5.76248 18.1961 5.7041 18.5105 5.65935L18.6661 5.63719L18.8906 6.14996C19.0141 6.43201 19.1266 6.65159 19.1406 6.63793C19.1547 6.62426 19.2154 6.37902 19.2757 6.09291L19.3853 5.57271L19.6387 5.54563C19.778 5.53073 20.0217 5.50515 20.1803 5.48884C20.3389 5.47253 20.4682 5.44626 20.4678 5.43051C20.4674 5.41479 20.2553 5.27998 19.9965 5.13095C19.6403 4.92584 19.5311 4.84279 19.5473 4.78932C19.5908 4.64584 19.7426 3.92745 19.7426 3.86507C19.7426 3.82958 19.7282 3.8014 19.7106 3.80238C19.693 3.8034 19.5152 3.95671 19.3156 4.14302ZM12.7393 5.74612C12.6806 5.75628 12.4596 5.78571 12.2483 5.8115C11.1407 5.94648 9.8719 6.46728 8.933 7.17222C8.40588 7.56803 7.7006 8.28945 7.32891 8.81303C6.42533 10.086 5.92579 11.7929 6.00897 13.3232C6.12102 15.3849 7.00817 17.1944 8.56627 18.5394L8.85558 18.7892H13.2652H17.6748L18.0594 18.4539C19.2196 17.4426 20.0493 16.0073 20.3834 14.4335C20.5172 13.803 20.5484 12.6753 20.4506 11.9995C20.2206 10.4096 19.5077 8.97466 18.4022 7.87643C17.3019 6.78328 15.9598 6.09193 14.4261 5.82832C14.0483 5.76337 12.9486 5.70978 12.7393 5.74612ZM12.5518 7.04565C11.1844 7.21808 10.0313 7.78607 9.04377 8.77362C8.1702 9.64714 7.66708 10.5672 7.39506 11.7885C7.25478 12.418 7.25414 13.5643 7.39365 14.2086C7.63317 15.3149 8.15111 16.3077 8.90358 17.1026L9.24703 17.4654L13.2671 17.4655L17.2872 17.4657L17.5906 17.1443C19.6118 15.0036 19.8091 11.7927 18.065 9.4215C17.2002 8.24585 15.7956 7.36814 14.3621 7.10753C13.923 7.02771 12.9561 6.99466 12.5518 7.04565ZM10.2626 20.7322V21.3947L13.2625 21.3837L16.2623 21.3727V20.7322V20.0916L13.2625 20.0807L10.2626 20.0697V20.7322ZM11.6895 22.7334C11.6771 22.7655 11.6729 23.0585 11.6801 23.3847L11.6931 23.9776L13.2625 23.9888L14.8318 24V23.3376V22.6751H13.2718C11.9932 22.6751 11.7078 22.6857 11.6895 22.7334Z" fill="black"/>
</svg>
