<svg width="24" height="24" viewBox="0 0 24 24" fill="none" xmlns="http://www.w3.org/2000/svg">
<path fill-rule="evenodd" clip-rule="evenodd" d="M12.0047 0.853243L11.7293 1.70649L10.801 1.71797L9.87275 1.72946L10.6145 2.26115C11.0224 2.55354 11.3562 2.80608 11.3562 2.82227C11.3562 2.83849 11.2315 3.23277 11.079 3.69844C10.9265 4.16416 10.8075 4.55087 10.8145 4.55787C10.8216 4.56488 10.9906 4.45018 11.1901 4.30298C11.3895 4.15583 11.7223 3.91353 11.9294 3.76463L12.3061 3.49381L12.5299 3.64895C12.653 3.73427 12.9927 3.97776 13.2847 4.19003C13.9096 4.64435 13.8892 4.70255 13.5053 3.56282L13.2542 2.81736L13.563 2.59184C13.7328 2.46779 14.0714 2.22302 14.3155 2.04789L14.7592 1.72946L13.8232 1.70811L12.8873 1.68676L12.6148 0.843379C12.4649 0.379499 12.3283 0 12.3112 0C12.2941 0 12.1562 0.38394 12.0047 0.853243ZM5.76626 3.76741C5.76626 3.78188 5.81464 4.01589 5.87376 4.28748C5.93289 4.55907 5.98092 4.80559 5.98053 4.83536C5.98014 4.86512 5.77714 5.00151 5.52942 5.13846C5.08983 5.38148 4.97493 5.46595 5.08394 5.46595C5.11352 5.46595 5.35815 5.48815 5.62759 5.51527C6.19544 5.57245 6.13572 5.50955 6.28286 6.20505C6.33657 6.45887 6.3947 6.65104 6.41199 6.63208C6.42932 6.61307 6.53574 6.39046 6.64845 6.13732C6.76115 5.88418 6.86517 5.67067 6.87957 5.66289C6.89398 5.65508 7.14712 5.67374 7.4421 5.70436C7.73712 5.73498 7.98385 5.75471 7.99039 5.74817C7.99697 5.74168 7.81847 5.57523 7.5938 5.37832C7.36908 5.18146 7.18573 5.00049 7.18629 4.97628C7.18689 4.95202 7.28128 4.72079 7.39613 4.46243C7.51094 4.20408 7.59857 3.98574 7.59087 3.9772C7.58318 3.96871 7.37076 4.07918 7.11878 4.22274C6.86684 4.36631 6.64441 4.48379 6.62445 4.48379C6.59242 4.48379 6.35239 4.27847 5.90601 3.86921C5.82917 3.79875 5.76626 3.75293 5.76626 3.76741ZM18.4082 4.14302C18.2072 4.32937 18.0246 4.48225 18.0024 4.4828C17.9803 4.48336 17.7607 4.36712 17.5146 4.22454C17.2684 4.08191 17.0572 3.97507 17.0451 3.98703C17.033 3.99903 17.1238 4.22996 17.2468 4.50023L17.4705 4.99165L17.3051 5.13265C17.0264 5.3703 16.6438 5.73502 16.6583 5.74932C16.6715 5.76248 17.281 5.7041 17.5975 5.65935L17.7542 5.63719L17.9803 6.14996C18.1047 6.43201 18.2179 6.65159 18.2321 6.63793C18.2462 6.62426 18.3074 6.37902 18.3681 6.09291L18.4784 5.57271L18.7336 5.54563C18.8739 5.53073 19.1193 5.50515 19.279 5.48884C19.4386 5.47253 19.5689 5.44626 19.5685 5.43051C19.5681 5.41479 19.3545 5.27998 19.0939 5.13095C18.7352 4.92585 18.6253 4.84279 18.6416 4.78932C18.6854 4.64584 18.8382 3.92745 18.8382 3.86507C18.8382 3.82958 18.8237 3.8014 18.806 3.80238C18.7883 3.8034 18.6092 3.95671 18.4082 4.14302ZM11.7862 5.74612C11.7271 5.75629 11.5046 5.78571 11.2917 5.8115C10.1765 5.94648 8.89885 6.46729 7.95341 7.17222C7.42262 7.56803 6.71243 8.28945 6.33816 8.81303C5.42828 10.086 4.92527 11.7929 5.00903 13.3233C5.12187 15.3849 6.01519 17.1944 7.58412 18.5394L7.87545 18.7892H12.3157H16.756L17.1433 18.4539C18.3116 17.4426 19.147 16.0073 19.4835 14.4335C19.6182 13.803 19.6496 12.6753 19.5512 11.9995C19.3195 10.4096 18.6017 8.97466 17.4885 7.87643C16.3806 6.78329 15.0291 6.09193 13.4847 5.82832C13.1043 5.76337 11.997 5.70978 11.7862 5.74612ZM9.29225 20.7322V21.3947L12.313 21.3837L15.3337 21.3727V20.7322V20.0916L12.313 20.0807L9.29225 20.0697V20.7322ZM10.729 22.7334C10.7166 22.7655 10.7124 23.0585 10.7196 23.3847L10.7327 23.9776L12.313 23.9888L13.8932 24V23.3376V22.6751H12.3224C11.035 22.6751 10.7475 22.6857 10.729 22.7334Z" fill="black"/>
</svg>
