<svg xmlns="http://www.w3.org/2000/svg" version="1.1" xmlns:xlink="http://www.w3.org/1999/xlink" width="512" height="512" x="0" y="0" viewBox="0 0 682.667 682.667" style="enable-background:new 0 0 512 512" xml:space="preserve" class=""><g><defs><clipPath id="b" clipPathUnits="userSpaceOnUse"><path d="M0 512h512V0H0Z" fill="#000000" opacity="1" data-original="#000000"></path></clipPath></defs><mask id="a"><rect width="100%" height="100%" fill="#ffffff" opacity="1" data-original="#ffffff"></rect><path d="M0 0c5.508 0 10 4.492 10 10 0 5.509-4.492 10-10 10s-10-4.491-10-10C-10 4.492-5.508 0 0 0" style="fill-opacity:1;fill-rule:evenodd;stroke:none" transform="matrix(1.33333 0 0 -1.33333 98.37 589.33)" fill="#ffffff" data-original="#ffffff"></path><path d="M0 0c5.509 0 10.001 4.492 10.001 10S5.509 20 0 20c-5.508 0-10-4.492-10-10S-5.508 0 0 0" style="fill-opacity:1;fill-rule:evenodd;stroke:none" transform="matrix(1.33333 0 0 -1.33333 584.296 120.003)" fill="#ffffff" data-original="#ffffff"></path></mask><g mask="url(#a)"><g clip-path="url(#b)" transform="matrix(1.33333 0 0 -1.33333 0 682.667)"><path d="M0 0v-30.002h260.426L364.444 74.017v277.979m0 80v30.002H0V80" style="stroke-width:20;stroke-linecap:round;stroke-linejoin:round;stroke-miterlimit:22.926;stroke-dasharray:none;stroke-opacity:1" transform="translate(73.777 40.002)" fill="none" stroke="#000000" stroke-width="20" stroke-linecap="round" stroke-linejoin="round" stroke-miterlimit="22.926" stroke-dasharray="none" stroke-opacity="" data-original="#000000" class=""></path><path d="M0 0v104.019h104.019Z" style="stroke-width:20;stroke-linecap:round;stroke-linejoin:round;stroke-miterlimit:22.926;stroke-dasharray:none;stroke-opacity:1" transform="translate(334.203 10)" fill="none" stroke="#000000" stroke-width="20" stroke-linecap="round" stroke-linejoin="round" stroke-miterlimit="22.926" stroke-dasharray="none" stroke-opacity="" data-original="#000000" class=""></path><path d="m0 0 59.338 59.339M149.211 0l59.339 59.339M59.338 0 0 59.339M208.55 0l-59.339 59.339m59.339-186.004c-25.88 20.852-63.017 33.92-104.276 33.92-41.257 0-78.394-13.068-104.274-33.919" style="stroke-width:20;stroke-linecap:round;stroke-linejoin:round;stroke-miterlimit:22.926;stroke-dasharray:none;stroke-opacity:1" transform="translate(151.725 337.666)" fill="none" stroke="#000000" stroke-width="20" stroke-linecap="round" stroke-linejoin="round" stroke-miterlimit="22.926" stroke-dasharray="none" stroke-opacity="" data-original="#000000" class=""></path><path d="M0 0c5.508 0 10 4.492 10 10 0 5.509-4.492 10-10 10s-10-4.491-10-10C-10 4.492-5.508 0 0 0" style="fill-opacity:1;fill-rule:evenodd;stroke:none" transform="translate(73.777 70.002)" fill="#000000" data-original="#000000"></path><path d="M0 0c5.509 0 10.001 4.492 10.001 10S5.509 20 0 20c-5.508 0-10-4.492-10-10S-5.508 0 0 0" style="fill-opacity:1;fill-rule:evenodd;stroke:none" transform="translate(438.222 421.998)" fill="#000000" data-original="#000000"></path></g></g></g></svg>