<svg width="24" height="24" viewBox="0 0 24 24" fill="none" xmlns="http://www.w3.org/2000/svg">
<path d="M20.5597 13.0203C20.8038 12.811 20.9258 12.7064 20.9706 12.5819C21.0098 12.4727 21.0098 12.3531 20.9706 12.2439C20.9258 12.1194 20.8038 12.0147 20.5597 11.8055L12.0889 4.54486C11.6687 4.18466 11.4586 4.00457 11.2807 4.00015C11.1261 3.99632 10.9784 4.06424 10.8807 4.18412C10.7683 4.32205 10.7683 4.59879 10.7683 5.15226V9.44752C8.63362 9.82098 6.67989 10.9026 5.228 12.5268C3.64512 14.2974 2.76953 16.5888 2.7683 18.9639V19.5759C3.81764 18.3118 5.1278 17.2894 6.60905 16.5788C7.91499 15.9523 9.32671 15.5812 10.7683 15.4834V19.6735C10.7683 20.227 10.7683 20.5037 10.8807 20.6417C10.9784 20.7615 11.1261 20.8295 11.2807 20.8256C11.4586 20.8212 11.6687 20.6411 12.0889 20.2809L20.5597 13.0203Z" stroke="white" stroke-linecap="round" stroke-linejoin="round"/>
</svg>
