<svg width="20" height="19" viewBox="0 0 20 19" fill="none" xmlns="http://www.w3.org/2000/svg">
<path d="M18.5597 10.0203C18.8038 9.81105 18.9258 9.70643 18.9706 9.58193C19.0098 9.47265 19.0098 9.35313 18.9706 9.24385C18.9258 9.11935 18.8038 9.01473 18.5597 8.80548L10.0889 1.54486C9.6687 1.18466 9.45858 1.00457 9.28069 1.00015C9.12609 0.996319 8.97842 1.06424 8.88072 1.18412C8.7683 1.32205 8.7683 1.59879 8.7683 2.15226V6.44752C6.63362 6.82098 4.67989 7.90265 3.228 9.52676C1.64512 11.2974 0.76953 13.5888 0.768295 15.9639V16.5759C1.81764 15.3118 3.1278 14.2894 4.60905 13.5788C5.91499 12.9523 7.32671 12.5812 8.7683 12.4834V16.6735C8.7683 17.227 8.7683 17.5037 8.88072 17.6417C8.97842 17.7615 9.12609 17.8295 9.28069 17.8256C9.45858 17.8212 9.6687 17.6411 10.0889 17.2809L18.5597 10.0203Z" stroke="white" stroke-width="1.5" stroke-linecap="round" stroke-linejoin="round"/>
</svg>
