<svg width="20" height="21" viewBox="0 0 20 21" fill="none" xmlns="http://www.w3.org/2000/svg">
<g id="emojione-monotone:soccer-ball" clip-path="url(#clip0_25_591)">
<path id="Vector" d="M19.5626 10.7913C19.5691 10.5685 19.6279 7.38379 17.7432 5.31067C17.6594 5.12536 17.2622 4.37848 15.9804 3.46567C15.4121 3.02486 14.8085 2.63155 14.1757 2.28973L14.1732 2.28848C14.0932 2.24567 12.5301 1.41879 10.6329 1.41879C10.4888 1.41879 10.3463 1.42723 10.2054 1.43692V1.43442C8.7588 1.40286 7.32193 1.77504 6.45599 2.16598C5.68786 2.51286 4.83505 3.09442 4.77349 3.13942C3.70974 3.73442 1.69255 6.12223 1.53286 7.38754C0.888175 8.2116 0.349425 11.9132 1.53411 14.1679C2.36474 17.3013 5.49161 18.8694 5.74036 18.9897C5.89161 19.0863 7.59568 20.1397 9.68911 20.1397C9.77693 20.1397 10.3079 20.1691 10.4972 20.1691C12.7601 20.1691 16.1132 18.5741 16.8151 17.3247C18.7435 15.9141 19.7432 12.2788 19.5626 10.7913ZM5.75755 15.4985C4.86099 14.0482 4.35005 12.1532 4.24068 11.7179C4.52443 11.2925 5.92411 9.22879 6.72161 8.60785C7.17318 8.69098 9.0588 9.03723 10.8372 9.3591C11.0607 9.93817 12.041 12.4932 12.3216 13.4794C12.0122 13.8463 10.7969 15.2613 9.60036 16.3694C8.33005 16.3754 6.16943 15.6425 5.75755 15.4985ZM17.0282 5.35004C17.0244 5.49067 16.991 5.99067 16.7516 6.56473C16.2763 6.32192 15.0816 5.80192 13.4441 5.7141C13.1963 5.34817 12.2638 4.07223 10.791 3.18723C10.9926 2.79286 11.2732 2.31192 11.4372 2.16536C11.4904 2.15036 11.5729 2.13661 11.6985 2.13661C12.4882 2.13661 13.8526 2.65379 13.9713 2.69973C14.0972 2.76629 16.5497 4.08692 17.0282 5.35004ZM3.88724 11.4225C2.81755 11.24 2.18161 10.9075 1.99161 10.795C1.5938 9.35223 1.91411 7.79285 1.96349 7.56942C2.35599 6.86754 3.47349 5.07848 4.21068 4.73879C4.97474 4.58285 5.92755 4.7766 6.31568 4.87129C6.27911 5.37598 6.2088 6.78598 6.41755 8.26567C5.57193 8.94629 4.23349 10.9054 3.88724 11.4225ZM10.1097 1.89692C10.3497 1.91473 10.7019 1.96723 10.9432 2.03879C10.7026 2.35879 10.456 2.83317 10.3394 3.06754C9.8488 3.14786 7.98536 3.50411 6.52349 4.45192C6.2288 4.37379 5.3388 4.16535 4.49599 4.23723C4.70474 3.83317 5.01661 3.53442 5.05005 3.50379C5.16599 3.42067 7.39786 1.85911 10.1097 1.89286V1.89692ZM16.0772 13.801C15.7116 13.786 14.3029 13.7057 12.7582 13.3429C12.4622 12.311 11.4851 9.7666 11.2616 9.18785C11.9725 8.17455 12.6942 7.16887 13.4266 6.17098C15.2041 6.26848 16.4522 6.91692 16.6938 7.05223C17.7235 8.70817 17.9494 10.3994 17.9804 10.6819C17.4335 12.3838 16.3519 13.5297 16.0772 13.801ZM1.35036 9.70598C1.37661 10.1016 1.44005 10.5182 1.55474 10.93C1.45163 11.1969 1.3801 11.475 1.34161 11.7585C1.27635 11.0757 1.27928 10.3882 1.35036 9.70598ZM4.36411 17.0057C4.83536 16.5516 5.4163 16.1097 5.64161 15.9429C6.15099 16.1222 8.24286 16.8294 9.5763 16.8294C9.80349 17.1341 10.5463 18.0882 11.4569 18.8175C10.89 19.3722 10.0713 19.6341 9.92661 19.6775C7.38693 19.7457 4.91349 18.3182 4.36411 17.0057ZM11.0713 19.6738C11.3594 19.506 11.6597 19.285 11.9082 19.0054C12.3135 18.9494 14.0529 18.65 15.6247 17.4954C15.7285 17.5066 15.8994 17.5204 16.0904 17.515C15.1472 18.4391 12.846 19.4713 11.0713 19.6738ZM15.8913 17.0563C16.456 15.585 16.4319 14.4757 16.4041 14.1213C16.7141 13.8175 17.7779 12.6841 18.3682 10.961C18.6863 11.0141 18.8932 11.095 18.9913 11.1404C19.0254 11.2654 19.0822 11.5541 19.0501 11.9919C18.8094 13.5679 17.9788 15.9294 16.5238 16.9735C16.3776 17.0482 16.1201 17.0644 15.8913 17.0563Z" fill="white"/>
</g>
<defs>
<clipPath id="clip0_25_591">
<rect width="20" height="20" fill="white" transform="translate(0 0.585785)"/>
</clipPath>
</defs>
</svg>
