<svg width="512" height="512" viewBox="0 0 512 512" fill="none" xmlns="http://www.w3.org/2000/svg">
<path d="M459.507 10.938H329.032C301.334 10.938 278.88 33.392 278.88 61.09V126.213C278.88 153.911 301.334 176.365 329.032 176.365H394.597L425.983 212.229C435.292 222.866 452.813 216.282 452.813 202.147V176.366H459.507C487.205 176.366 509.659 153.912 509.659 126.214V61.089C509.659 33.391 487.205 10.938 459.507 10.938Z" fill="#9DC6FB"/>
<path d="M352.865 176.364H329.032C301.337 176.364 278.881 153.908 278.881 126.213V61.087C278.881 33.392 301.337 10.936 329.032 10.936H352.865C325.17 10.936 302.714 33.392 302.714 61.087V126.213C302.714 153.908 325.169 176.364 352.865 176.364Z" fill="#80B4FB"/>
<path d="M63.984 237.548H230.446C265.783 237.548 294.43 266.195 294.43 301.532V384.617C294.43 419.954 265.783 448.601 230.446 448.601H146.798L106.756 494.356C94.879 507.927 72.525 499.527 72.525 481.493V448.601H63.984C28.647 448.601 0 419.954 0 384.617V301.532C0 266.194 28.647 237.548 63.984 237.548Z" fill="#E27A66"/>
<path d="M105.994 495.185C93.944 507.563 72.527 499.146 72.527 481.495V448.6H63.984C28.649 448.6 0 419.951 0 384.617V301.529C0 266.195 28.649 237.546 63.983 237.546H91.917C56.574 237.546 27.934 266.195 27.934 301.529V384.617C27.934 419.951 56.575 448.6 91.917 448.6H100.46V481.496C100.461 487.121 102.639 491.813 105.994 495.185Z" fill="#DD636E"/>
<path d="M363.918 277.78H470.884C493.591 277.78 511.999 296.188 511.999 318.895V372.284C511.999 394.991 493.591 413.399 470.884 413.399H417.133L391.403 442.801C383.771 451.522 369.407 446.124 369.407 434.535V413.4H363.919C341.212 413.4 322.804 394.992 322.804 372.285V318.896C322.803 296.188 341.211 277.78 363.918 277.78Z" fill="#FFE07D"/>
<path d="M390.913 443.334C383.17 451.288 369.407 445.879 369.407 434.537V413.399H363.917C341.212 413.399 322.802 394.989 322.802 372.284V318.893C322.802 296.188 341.212 277.778 363.917 277.778H381.867C359.156 277.778 340.752 296.187 340.752 318.893V372.284C340.752 394.989 359.156 413.399 381.867 413.399H387.357V434.537C387.358 438.152 388.757 441.167 390.913 443.334Z" fill="#FFD064"/>
<path d="M341.644 113.922H157.109C117.935 113.922 86.178 145.679 86.178 184.853V276.959C86.178 316.133 117.935 347.89 157.109 347.89H249.839L294.228 398.613C307.394 413.658 332.175 404.346 332.175 384.353V347.89H341.643C380.817 347.89 412.574 316.133 412.574 276.959V184.853C412.575 145.679 380.818 113.922 341.644 113.922Z" fill="#F9F6F9"/>
<path d="M190.815 347.888H157.107C117.937 347.888 86.177 316.128 86.177 276.958V184.849C86.177 145.679 117.936 113.919 157.107 113.919H190.815C151.645 113.919 119.885 145.679 119.885 184.849V276.958C119.885 316.129 151.645 347.888 190.815 347.888Z" fill="#D0CEE7"/>
<path d="M154.536 10.937H51.346C29.44 10.937 11.682 28.695 11.682 50.601V102.105C11.682 124.011 29.44 141.769 51.346 141.769H103.2L128.022 170.133C135.385 178.546 149.242 173.339 149.242 162.159V141.769H154.536C176.442 141.769 194.2 124.011 194.2 102.105V50.601C194.2 28.695 176.442 10.937 154.536 10.937Z" fill="#B3E59F"/>
<path d="M70.195 141.769H51.346C29.442 141.769 11.683 124.009 11.683 102.106V50.599C11.683 28.695 29.443 10.936 51.346 10.936H70.195C48.291 10.936 30.532 28.696 30.532 50.599V102.105C30.531 124.009 48.291 141.769 70.195 141.769Z" fill="#95D6A4"/>
<path d="M231.866 189.824C231.84 189.753 231.812 189.682 231.783 189.612C230.287 185.975 226.758 183.589 222.843 183.63C220.894 183.627 218.99 184.217 217.384 185.32C215.777 186.423 214.543 187.987 213.845 189.807L181.858 273.791C181.129 275.706 181.19 277.832 182.028 279.702C182.866 281.571 184.413 283.032 186.328 283.761C188.243 284.49 190.369 284.428 192.239 283.59C194.109 282.752 195.569 281.206 196.299 279.291L202.37 263.351H243.098L249.106 279.269C249.66 280.738 250.649 282.004 251.94 282.897C253.232 283.79 254.765 284.269 256.335 284.27C257.585 284.27 258.816 283.966 259.923 283.386C261.03 282.805 261.979 281.964 262.69 280.936C263.401 279.908 263.851 278.723 264.003 277.482C264.155 276.241 264.004 274.982 263.562 273.813L231.866 189.824ZM208.255 247.897L222.827 209.637L237.266 247.897H208.255ZM173.364 184.742H139.091C138.076 184.742 137.072 184.942 136.134 185.33C135.197 185.718 134.345 186.287 133.628 187.005C132.91 187.722 132.341 188.574 131.953 189.511C131.565 190.449 131.365 191.453 131.365 192.468V277.029C131.365 279.078 132.179 281.043 133.628 282.492C135.077 283.941 137.042 284.755 139.091 284.755C141.14 284.755 143.105 283.941 144.554 282.492C146.003 281.043 146.817 279.078 146.817 277.029V241.674H170.641C172.69 241.674 174.655 240.86 176.104 239.411C177.553 237.962 178.367 235.997 178.367 233.948C178.367 231.899 177.553 229.934 176.104 228.485C174.655 227.036 172.69 226.222 170.641 226.222H146.817V200.195H173.363C177.631 200.195 181.089 196.736 181.089 192.469C181.089 188.202 177.632 184.742 173.364 184.742ZM365.124 271.534L357.622 264.031C363.552 255.775 367.059 245.667 367.059 234.749C367.059 207.003 344.486 184.43 316.74 184.43C288.994 184.43 266.421 207.003 266.421 234.749C266.421 262.494 288.994 285.067 316.74 285.067C327.581 285.079 338.132 281.571 346.808 275.071L354.197 282.46C354.914 283.179 355.765 283.748 356.703 284.137C357.641 284.525 358.646 284.724 359.661 284.723C361.189 284.723 362.683 284.27 363.953 283.421C365.224 282.572 366.214 281.365 366.799 279.954C367.383 278.542 367.536 276.988 367.238 275.49C366.94 273.991 366.204 272.614 365.124 271.534ZM316.739 269.615C297.514 269.615 281.873 253.974 281.873 234.749C281.873 215.524 297.514 199.883 316.739 199.883C335.964 199.883 351.605 215.524 351.605 234.749C351.612 241.157 349.843 247.441 346.493 252.903L337.872 244.282C337.155 243.564 336.303 242.995 335.365 242.607C334.428 242.218 333.423 242.018 332.409 242.018C331.394 242.018 330.389 242.218 329.452 242.607C328.514 242.995 327.662 243.564 326.945 244.282C326.227 244.999 325.658 245.851 325.27 246.788C324.881 247.726 324.681 248.731 324.681 249.745C324.681 250.76 324.881 251.765 325.269 252.702C325.657 253.64 326.227 254.491 326.944 255.209L335.712 263.977C330.071 267.662 323.477 269.621 316.739 269.615Z" fill="#5E54AC"/>
</svg>
