<svg width="36" height="36" viewBox="0 0 36 36" fill="none" xmlns="http://www.w3.org/2000/svg">
<path d="M17.9989 6.78391C19.1285 6.78258 20.2114 6.33327 21.0102 5.53454C21.8089 4.7358 22.2582 3.65286 22.2595 2.52328V1.04891C19.4419 1.57969 16.5481 1.5591 13.7383 0.988281V2.52328C13.7396 3.65286 14.1889 4.7358 14.9877 5.53454C15.7864 6.33327 16.8693 6.78258 17.9989 6.78391Z" fill="white"/>
<path d="M35.4529 15.2186L31.9592 7.87488C31.3003 6.50021 30.1393 5.43052 28.7154 4.88613L26.0492 3.86988C24.9942 3.55801 24.2242 2.31863 23.6054 1.47363V2.32301C23.6307 3.10643 23.4923 3.8865 23.1992 4.61345C22.9061 5.34041 22.4646 5.99827 21.903 6.54507C21.3414 7.09186 20.672 7.51558 19.9375 7.78918C19.2029 8.06278 18.4195 8.18026 17.637 8.13411C16.8545 8.08797 16.0903 7.87921 15.393 7.52117C14.6957 7.16313 14.0807 6.66367 13.5873 6.05465C13.0939 5.44564 12.7328 4.74045 12.5272 3.98408C12.3215 3.22771 12.2758 2.43678 12.3929 1.66176C11.9319 2.54823 11.1779 3.24749 10.2592 3.64051L7.76169 4.53613C6.32821 5.0432 5.14639 6.08505 4.46357 7.44363L0.545443 15.2186C0.491031 15.3365 0.485251 15.4711 0.529352 15.5932C0.573453 15.7154 0.663886 15.8152 0.781068 15.8711L5.99982 18.2443C6.09784 18.289 6.20517 18.3095 6.31278 18.3042C6.42039 18.2988 6.52514 18.2677 6.61823 18.2134C6.71132 18.1592 6.79002 18.0833 6.84772 17.9923C6.90542 17.9014 6.94043 17.7978 6.94982 17.6905L7.14169 15.503C7.1617 15.3275 7.24943 15.1668 7.3862 15.0551C7.52298 14.9433 7.69798 14.8894 7.87392 14.9048C8.04986 14.9202 8.21283 15.0037 8.32811 15.1375C8.44338 15.2713 8.50186 15.4448 8.49107 15.6211L6.86607 34.0924C6.86541 34.2236 6.89166 34.3535 6.9432 34.4741C6.99474 34.5948 7.07048 34.7035 7.16572 34.7937C7.26097 34.884 7.3737 34.9537 7.49695 34.9986C7.62021 35.0435 7.75136 35.0627 7.88232 35.0549H28.1698C28.3014 35.0627 28.4331 35.0433 28.5568 34.998C28.6805 34.9527 28.7936 34.8823 28.8889 34.7914C28.9843 34.7004 29.0599 34.5908 29.111 34.4694C29.1621 34.3479 29.1877 34.2173 29.1861 34.0855C28.8986 31.003 27.7086 18.4324 27.4448 15.6249C27.4321 15.4492 27.4888 15.2755 27.6026 15.1411C27.7164 15.0067 27.8783 14.9221 28.0537 14.9056C28.229 14.8891 28.4039 14.9419 28.5408 15.0528C28.6777 15.1636 28.7657 15.3237 28.7861 15.4986L28.9904 17.6636C29.0005 17.77 29.0358 17.8725 29.0933 17.9625C29.1508 18.0526 29.2289 18.1276 29.3212 18.1815C29.4135 18.2354 29.5173 18.2665 29.624 18.2723C29.7307 18.2781 29.8372 18.2584 29.9348 18.2149L35.2173 15.858C35.3327 15.8036 35.4221 15.706 35.4661 15.5862C35.5102 15.4665 35.5055 15.3349 35.4529 15.2186ZM10.1573 12.7549C10.157 12.6664 10.1742 12.5787 10.2079 12.4969C10.2416 12.4151 10.2912 12.3407 10.3537 12.2782C10.4163 12.2156 10.4906 12.166 10.5725 12.1323C10.6543 12.0986 10.742 12.0814 10.8304 12.0818H14.1354C14.314 12.0818 14.4852 12.1527 14.6114 12.2789C14.7376 12.4051 14.8086 12.5764 14.8086 12.7549C14.8086 12.9334 14.7376 13.1046 14.6114 13.2309C14.4852 13.3571 14.314 13.428 14.1354 13.428H10.8304C10.742 13.4283 10.6543 13.4112 10.5725 13.3774C10.4906 13.3437 10.4163 13.2942 10.3537 13.2316C10.2912 13.169 10.2416 13.0947 10.2079 13.0129C10.1742 12.931 10.157 12.8434 10.1573 12.7549Z" fill="white"/>
</svg>
