<svg width="24" height="24" viewBox="0 0 24 24" fill="none" xmlns="http://www.w3.org/2000/svg">
<circle cx="18.5" cy="5.5" r="5.5" fill="#D9D9D9"/>
<path d="M12.0017 5.27034C12.6794 5.26955 13.3292 4.99996 13.8084 4.52072C14.2877 4.04148 14.5573 3.39172 14.5581 2.71397V1.82934C12.8675 2.14781 11.1312 2.13546 9.44531 1.79297V2.71397C9.44611 3.39172 9.71569 4.04148 10.1949 4.52072C10.6742 4.99996 11.3239 5.26955 12.0017 5.27034Z" fill="#222222"/>
<path d="M22.4718 10.331L20.3755 5.92473C19.9802 5.09993 19.2836 4.45812 18.4293 4.13148L16.8295 3.52173C16.1965 3.33461 15.7345 2.59098 15.3633 2.08398V2.59361C15.3784 3.06366 15.2954 3.53171 15.1195 3.96788C14.9436 4.40405 14.6788 4.79877 14.3418 5.12684C14.0048 5.45492 13.6032 5.70915 13.1625 5.87331C12.7218 6.03747 12.2517 6.10796 11.7822 6.08027C11.3127 6.05259 10.8542 5.92733 10.4358 5.71251C10.0174 5.49768 9.64845 5.19801 9.35239 4.8326C9.05632 4.46719 8.83969 4.04407 8.7163 3.59025C8.59291 3.13643 8.56548 2.66187 8.63577 2.19686C8.35914 2.72874 7.90671 3.1483 7.35552 3.38411L5.85702 3.92148C4.99692 4.22573 4.28783 4.85083 3.87814 5.66598L1.52727 10.331C1.49462 10.4017 1.49115 10.4825 1.51761 10.5557C1.54407 10.629 1.59833 10.6889 1.66864 10.7225L4.79989 12.1464C4.8587 12.1732 4.9231 12.1855 4.98767 12.1823C5.05224 12.1791 5.11509 12.1604 5.17094 12.1279C5.22679 12.0953 5.27401 12.0498 5.30863 11.9952C5.34325 11.9406 5.36426 11.8785 5.36989 11.8141L5.48502 10.5016C5.49702 10.3963 5.54966 10.2999 5.63172 10.2328C5.71379 10.1658 5.81879 10.1335 5.92435 10.1427C6.02991 10.1519 6.1277 10.202 6.19686 10.2823C6.26603 10.3626 6.30112 10.4667 6.29464 10.5725L5.31964 21.6552C5.31925 21.7339 5.335 21.8119 5.36592 21.8843C5.39685 21.9567 5.44229 22.0219 5.49943 22.0761C5.55658 22.1302 5.62422 22.172 5.69817 22.199C5.77213 22.2259 5.85082 22.2374 5.92939 22.2327H18.1019C18.1808 22.2374 18.2599 22.2258 18.3341 22.1986C18.4083 22.1714 18.4762 22.1292 18.5334 22.0746C18.5906 22.0201 18.6359 21.9543 18.6666 21.8814C18.6973 21.8086 18.7126 21.7302 18.7116 21.6511C18.5391 19.8016 17.8251 12.2592 17.6669 10.5747C17.6593 10.4693 17.6933 10.3651 17.7615 10.2845C17.8298 10.2038 17.927 10.1531 18.0322 10.1432C18.1374 10.1333 18.2423 10.165 18.3245 10.2315C18.4066 10.298 18.4594 10.394 18.4716 10.499L18.5943 11.798C18.6003 11.8618 18.6215 11.9233 18.656 11.9773C18.6905 12.0313 18.7374 12.0764 18.7927 12.1087C18.8481 12.141 18.9104 12.1597 18.9744 12.1632C19.0384 12.1667 19.1023 12.1549 19.1609 12.1287L22.3304 10.7146C22.3996 10.6819 22.4532 10.6234 22.4797 10.5515C22.5061 10.4797 22.5033 10.4007 22.4718 10.331ZM7.29439 8.85273C7.29419 8.79964 7.3045 8.74703 7.32473 8.69794C7.34496 8.64885 7.3747 8.60425 7.41224 8.56671C7.44978 8.52917 7.49439 8.49942 7.54348 8.4792C7.59257 8.45897 7.64517 8.44866 7.69827 8.44886H9.68127C9.78838 8.44886 9.89111 8.49141 9.96685 8.56715C10.0426 8.64289 10.0851 8.74562 10.0851 8.85273C10.0851 8.95985 10.0426 9.06258 9.96685 9.13832C9.89111 9.21406 9.78838 9.25661 9.68127 9.25661H7.69827C7.64517 9.25681 7.59257 9.2465 7.54348 9.22627C7.49439 9.20604 7.44978 9.1763 7.41224 9.13876C7.3747 9.10122 7.34496 9.05661 7.32473 9.00752C7.3045 8.95843 7.29419 8.90583 7.29439 8.85273ZM11.2319 18.0969C11.2287 18.2018 11.1848 18.3014 11.1094 18.3745C11.034 18.4475 10.9332 18.4884 10.8282 18.4884C10.7232 18.4884 10.6224 18.4475 10.547 18.3745C10.4716 18.3014 10.4277 18.2018 10.4245 18.0969V14.0262L10.0326 14.2685C9.94166 14.3223 9.83321 14.3383 9.73058 14.3129C9.62796 14.2876 9.53937 14.223 9.48386 14.1331C9.42835 14.0431 9.41035 13.935 9.43373 13.8319C9.45711 13.7288 9.52001 13.6391 9.60889 13.5819L10.6143 12.9556C10.6758 12.9191 10.7458 12.8993 10.8173 12.8983C10.8889 12.8972 10.9594 12.915 11.022 12.9497C11.0845 12.9845 11.1369 13.0351 11.1738 13.0964C11.2107 13.1577 11.2308 13.2276 11.2323 13.2991L11.2319 18.0969ZM14.1359 18.0969C14.1359 18.204 14.0933 18.3067 14.0176 18.3824C13.9419 18.4582 13.8391 18.5007 13.732 18.5007C13.6249 18.5007 13.5222 18.4582 13.4464 18.3824C13.3707 18.3067 13.3281 18.204 13.3281 18.0969V14.0262L12.9366 14.2685C12.8456 14.3247 12.7359 14.3425 12.6318 14.3179C12.5276 14.2933 12.4375 14.2283 12.3813 14.1372C12.325 14.0462 12.3073 13.9365 12.3319 13.8324C12.3565 13.7282 12.4215 13.6381 12.5125 13.5819L13.5179 12.9556C13.5794 12.9191 13.6494 12.8993 13.721 12.8983C13.7925 12.8972 13.8631 12.915 13.9256 12.9497C13.9881 12.9845 14.0405 13.0351 14.0774 13.0964C14.1143 13.1577 14.1344 13.2276 14.1359 13.2991V18.0969Z" fill="#222222"/>
</svg>
