<svg width="24" height="24" viewBox="0 0 24 24" fill="none" xmlns="http://www.w3.org/2000/svg">
<g id="vuesax/linear/mask">
<g id="vuesax/linear/mask_2">
<g id="mask">
<path id="Vector" d="M21.9712 12.0003C21.9712 14.9403 20.6912 17.6003 18.6512 19.4103C16.8912 21.0103 14.5613 21.9703 12.0013 21.9703C6.50125 21.9703 2.03125 17.5003 2.03125 12.0003C2.03125 6.50027 6.50125 2.03027 12.0013 2.03027C14.5613 2.03027 16.8912 2.99027 18.6512 4.59027C20.6912 6.40027 21.9712 9.06027 21.9712 12.0003Z" stroke="#222222" stroke-width="1.5" stroke-linecap="round" stroke-linejoin="round"/>
<path id="Vector_2" d="M11.9713 16.3902C11.9513 18.0402 10.7212 18.4402 9.57125 17.9802C7.20125 17.0302 5.53125 14.7102 5.53125 12.0002C5.53125 9.29024 7.20125 6.97024 9.57125 6.01024C10.7212 5.55024 11.9513 5.96024 11.9713 7.60024V16.3902Z" stroke="#222222" stroke-width="1.5" stroke-linecap="round" stroke-linejoin="round"/>
</g>
</g>
</g>
</svg>
