<svg width="264" height="25" viewBox="0 0 264 25" fill="none" xmlns="http://www.w3.org/2000/svg">
<line x1="0.5" y1="7" x2="90.5" y2="7" stroke="#222222" stroke-width="2"/>
<line x1="20.5" y1="13" x2="90.5" y2="13" stroke="#222222" stroke-width="2"/>
<line x1="40.5" y1="19" x2="90.5" y2="19" stroke="#222222" stroke-width="2"/>
<path d="M113.568 5.754V8.68H108.97V21H105.538V8.68H100.94V5.754H113.568ZM118.14 13.366C118.14 14.114 118.228 14.7887 118.404 15.39C118.595 15.9913 118.859 16.512 119.196 16.952C119.548 17.3773 119.973 17.7073 120.472 17.942C120.971 18.1767 121.543 18.294 122.188 18.294C122.819 18.294 123.383 18.1767 123.882 17.942C124.395 17.7073 124.821 17.3773 125.158 16.952C125.51 16.512 125.774 15.9913 125.95 15.39C126.141 14.7887 126.236 14.114 126.236 13.366C126.236 12.618 126.141 11.9433 125.95 11.342C125.774 10.726 125.51 10.2053 125.158 9.78C124.821 9.34 124.395 9.00267 123.882 8.768C123.383 8.53333 122.819 8.416 122.188 8.416C121.543 8.416 120.971 8.54067 120.472 8.79C119.973 9.02467 119.548 9.362 119.196 9.802C118.859 10.2273 118.595 10.748 118.404 11.364C118.228 11.9653 118.14 12.6327 118.14 13.366ZM129.778 13.366C129.778 14.6713 129.58 15.8227 129.184 16.82C128.803 17.8027 128.275 18.6313 127.6 19.306C126.925 19.966 126.119 20.4647 125.18 20.802C124.256 21.1393 123.259 21.308 122.188 21.308C121.147 21.308 120.164 21.1393 119.24 20.802C118.316 20.4647 117.509 19.966 116.82 19.306C116.131 18.6313 115.588 17.8027 115.192 16.82C114.796 15.8227 114.598 14.6713 114.598 13.366C114.598 12.0607 114.803 10.9167 115.214 9.934C115.625 8.93667 116.175 8.10067 116.864 7.426C117.568 6.75133 118.375 6.24533 119.284 5.908C120.208 5.57067 121.176 5.402 122.188 5.402C123.229 5.402 124.212 5.57067 125.136 5.908C126.06 6.24533 126.867 6.75133 127.556 7.426C128.245 8.10067 128.788 8.93667 129.184 9.934C129.58 10.9167 129.778 12.0607 129.778 13.366ZM137.215 5.578C139.488 5.578 141.234 5.98133 142.451 6.788C143.668 7.58 144.277 8.88533 144.277 10.704C144.277 12.5373 143.661 13.8647 142.429 14.686C141.197 15.4927 139.437 15.896 137.149 15.896H136.071V21H132.639V5.974C133.387 5.82733 134.179 5.72467 135.015 5.666C135.851 5.60733 136.584 5.578 137.215 5.578ZM137.435 8.504C137.186 8.504 136.936 8.51133 136.687 8.526C136.452 8.54067 136.247 8.55533 136.071 8.57V12.97H137.149C138.337 12.97 139.232 12.8087 139.833 12.486C140.434 12.1633 140.735 11.562 140.735 10.682C140.735 10.2567 140.654 9.90467 140.493 9.626C140.346 9.34733 140.126 9.12733 139.833 8.966C139.554 8.79 139.21 8.67267 138.799 8.614C138.388 8.54067 137.934 8.504 137.435 8.504ZM155.338 21.33C154.942 21.33 154.524 21.3007 154.084 21.242C153.644 21.198 153.219 21.132 152.808 21.044C152.398 20.956 152.024 20.8607 151.686 20.758C151.349 20.6553 151.085 20.56 150.894 20.472L151.532 17.744C151.914 17.9053 152.398 18.0813 152.984 18.272C153.586 18.448 154.326 18.536 155.206 18.536C156.218 18.536 156.959 18.3453 157.428 17.964C157.898 17.5827 158.132 17.0693 158.132 16.424C158.132 16.028 158.044 15.698 157.868 15.434C157.707 15.1553 157.48 14.9353 157.186 14.774C156.893 14.598 156.541 14.4807 156.13 14.422C155.734 14.3487 155.309 14.312 154.854 14.312H153.578V11.672H155.03C155.353 11.672 155.661 11.6427 155.954 11.584C156.262 11.5253 156.534 11.43 156.768 11.298C157.003 11.1513 157.186 10.9607 157.318 10.726C157.465 10.4767 157.538 10.1687 157.538 9.802C157.538 9.52333 157.48 9.28133 157.362 9.076C157.245 8.87067 157.091 8.702 156.9 8.57C156.724 8.438 156.512 8.34267 156.262 8.284C156.028 8.21067 155.786 8.174 155.536 8.174C154.906 8.174 154.319 8.26933 153.776 8.46C153.248 8.65067 152.764 8.88533 152.324 9.164L151.158 6.766C151.393 6.61933 151.664 6.46533 151.972 6.304C152.295 6.14267 152.647 5.996 153.028 5.864C153.41 5.732 153.813 5.622 154.238 5.534C154.678 5.446 155.14 5.402 155.624 5.402C156.519 5.402 157.289 5.512 157.934 5.732C158.594 5.93733 159.137 6.238 159.562 6.634C159.988 7.01533 160.303 7.47 160.508 7.998C160.714 8.51133 160.816 9.076 160.816 9.692C160.816 10.2933 160.648 10.88 160.31 11.452C159.973 12.0093 159.518 12.4347 158.946 12.728C159.738 13.0507 160.347 13.5347 160.772 14.18C161.212 14.8107 161.432 15.5733 161.432 16.468C161.432 17.172 161.315 17.8247 161.08 18.426C160.846 19.0127 160.479 19.526 159.98 19.966C159.482 20.3913 158.844 20.7287 158.066 20.978C157.304 21.2127 156.394 21.33 155.338 21.33Z" fill="#222222"/>
<line y1="-1" x2="90" y2="-1" transform="matrix(-1 0 0 1 263.5 8)" stroke="#222222" stroke-width="2"/>
<line y1="-1" x2="70" y2="-1" transform="matrix(-1 0 0 1 243.5 14)" stroke="#222222" stroke-width="2"/>
<line y1="-1" x2="50" y2="-1" transform="matrix(-1 0 0 1 223.5 20)" stroke="#222222" stroke-width="2"/>
</svg>
