<svg width="24" height="25" viewBox="0 0 24 25" fill="none" xmlns="http://www.w3.org/2000/svg">
<path d="M18.2385 13.2825C18.134 14.1157 17.8637 14.9195 17.4435 15.6465C17.0233 16.3735 16.4618 17.009 15.792 17.5155M14.3995 18.312C12.8629 18.9463 11.1376 18.9463 9.601 18.312M8.2085 17.5155C7.5471 17.0156 6.99111 16.3898 6.57253 15.6741C6.15394 14.9584 5.88103 14.1671 5.7695 13.3455M5.7615 11.7175C5.86603 10.8843 6.13641 10.0804 6.55668 9.3534C6.97696 8.62638 7.53861 7.99091 8.2085 7.4845M9.6025 6.688C11.1353 6.05574 12.8558 6.05448 14.3895 6.6845M15.7995 7.49C16.4598 7.99075 17.0145 8.61708 17.4319 9.33298C17.8493 10.0489 18.121 10.8402 18.2315 11.6615M5.772 11.715C5.88989 11.8156 5.98459 11.9406 6.04956 12.0813C6.11454 12.222 6.14826 12.3752 6.14841 12.5302C6.14855 12.6852 6.11511 12.8383 6.05039 12.9792C5.98567 13.12 5.89121 13.2452 5.7735 13.346M18.2285 13.285C18.1108 13.1846 18.0162 13.0598 17.9512 12.9194C17.8862 12.779 17.8524 12.6262 17.852 12.4714C17.8516 12.3167 17.8847 12.1637 17.949 12.0229C18.0133 11.8822 18.1073 11.757 18.2245 11.656M8.216 17.498C8.36019 17.4485 8.51327 17.4302 8.66506 17.4445C8.81685 17.4587 8.96387 17.5052 9.09632 17.5806C9.22877 17.6561 9.34362 17.759 9.43323 17.8823C9.52284 18.0057 9.58514 18.1467 9.616 18.296M14.385 18.296C14.4159 18.1468 14.4783 18.0059 14.5679 17.8826C14.6575 17.7594 14.7723 17.6566 14.9046 17.5811C15.037 17.5056 15.1839 17.4592 15.3356 17.4449C15.4873 17.4305 15.6403 17.4486 15.7845 17.498M9.616 6.7015C9.58537 6.85098 9.52323 6.99223 9.43374 7.11582C9.34424 7.2394 9.22943 7.3425 9.09697 7.41825C8.9645 7.49399 8.81742 7.54063 8.66551 7.55508C8.51361 7.56952 8.36036 7.55142 8.216 7.502M15.801 7.497C15.6547 7.54979 15.4987 7.57018 15.3437 7.55675C15.1888 7.54333 15.0386 7.4964 14.9036 7.41923C14.7685 7.34206 14.6519 7.23649 14.5616 7.1098C14.4714 6.98312 14.4098 6.83835 14.381 6.6855M8.5045 20.442L6.8215 21.1495L6.6415 19.637M3.144 13.5085L1.6415 12.422L3.144 11.335M6.622 5.355L6.8205 3.6945L8.522 4.4095M15.477 4.4095L17.179 3.6945L17.377 5.3555M20.855 11.335L22.358 12.422L20.8555 13.5085M17.359 19.6365L17.179 21.149L15.496 20.442M8.518 4.443L8.3235 6.0715L6.7685 5.418M17.2315 5.418L15.6765 6.0715L15.482 4.4425M8.518 20.5575L8.3235 18.9285L6.7685 19.582M17.2315 19.582L15.6765 18.9285L15.482 20.557M3.317 11.46L4.6465 12.422L3.211 13.4605M20.789 13.4605L19.3535 12.4225L20.683 11.4605M20.652 14.7405C20.2468 16.3053 19.4248 17.7309 18.2735 18.8655M14.3815 21.114C12.8229 21.545 11.1766 21.545 9.618 21.114M5.7265 18.8655C4.57524 17.7309 3.75323 16.3053 3.348 14.7405M3.348 10.259C3.7534 8.69457 4.57539 7.26934 5.7265 6.135M9.6185 3.886C11.1742 3.45576 12.8174 3.4549 14.3735 3.8835M18.2735 6.135C19.4222 7.26685 20.2432 8.68842 20.6495 10.249M14.3745 21.107L14.1 23.016M9.899 23.016L9.625 21.107M5.747 18.855L3.921 19.586M1.839 15.941L3.3645 14.7415M3.3645 10.2575L1.839 9.058M3.9215 5.4135L5.7475 6.145M9.6255 3.893L9.8995 1.983M14.0965 1.956L14.374 3.886M18.274 6.136L20.079 5.413M22.177 9.0455L20.647 10.248M20.6355 14.7415L22.1605 15.9415M20.0785 19.5855L18.2525 18.8545M12 8.06L10.691 10.713L7.7645 11.138L9.8825 13.2025L9.3825 16.1175L12 14.7415L14.6175 16.118L14.1175 13.203L16.2355 11.1385L13.309 10.713L12 8.06ZM22.75 12.5C22.75 18.437 17.937 23.25 12 23.25C6.063 23.25 1.25 18.437 1.25 12.5C1.25 6.563 6.063 1.75 12 1.75C17.937 1.75 22.75 6.563 22.75 12.5Z" stroke="#0A9829" stroke-linecap="round" stroke-linejoin="round"/>
</svg>
