<svg width="512" height="512" viewBox="0 0 512 512" fill="none" xmlns="http://www.w3.org/2000/svg">
<path d="M469.333 277.333C463.675 277.333 458.249 279.581 454.248 283.582C450.248 287.583 448 293.009 448 298.667V388.544C447.983 404.308 441.714 419.421 430.567 430.567C419.421 441.714 404.307 447.983 388.544 448H123.456C107.692 447.983 92.5794 441.714 81.4329 430.567C70.2865 419.421 64.0169 404.308 64 388.544V298.667C64 293.009 61.7524 287.583 57.7516 283.582C53.7508 279.581 48.3246 277.333 42.6666 277.333C37.0087 277.333 31.5825 279.581 27.5817 283.582C23.5809 287.583 21.3333 293.009 21.3333 298.667V388.544C21.3615 415.62 32.1299 441.579 51.2755 460.724C70.4211 479.87 96.38 490.638 123.456 490.667H388.544C415.62 490.638 441.579 479.87 460.724 460.724C479.87 441.579 490.638 415.62 490.667 388.544V298.667C490.667 293.009 488.419 287.583 484.418 283.582C480.418 279.581 474.991 277.333 469.333 277.333Z" fill="black"/>
<path d="M143.083 185.749L234.667 94.1653V362.667C234.667 368.325 236.914 373.751 240.915 377.752C244.916 381.752 250.342 384 256 384C261.658 384 267.084 381.752 271.085 377.752C275.086 373.751 277.333 368.325 277.333 362.667V94.1653L368.917 185.749C372.941 189.635 378.33 191.786 383.923 191.737C389.517 191.688 394.867 189.445 398.823 185.489C402.778 181.534 405.022 176.183 405.07 170.59C405.119 164.996 402.969 159.608 399.083 155.584L271.083 27.584C267.082 23.5846 261.657 21.3379 256 21.3379C250.343 21.3379 244.918 23.5846 240.917 27.584L112.917 155.584C109.031 159.608 106.881 164.996 106.93 170.59C106.978 176.183 109.222 181.534 113.177 185.489C117.133 189.445 122.483 191.688 128.077 191.737C133.67 191.786 139.059 189.635 143.083 185.749Z" fill="black"/>
</svg>
