<svg width="16" height="17" viewBox="0 0 16 17" fill="none" xmlns="http://www.w3.org/2000/svg">
<path d="M3.39452 13.6877L3.62151 13.2422H3.62151L3.39452 13.6877ZM2.81183 13.105L3.25733 12.878H3.25733L2.81183 13.105ZM12.6052 13.6877L12.3782 13.2422H12.3782L12.6052 13.6877ZM13.1878 13.105L12.7423 12.878V12.878L13.1878 13.105ZM12.6052 4.64502L12.3782 5.09052L12.3782 5.09052L12.6052 4.64502ZM13.1878 5.22771L12.7423 5.4547L13.1878 5.22771ZM3.39452 4.64502L3.16752 4.19951H3.16752L3.39452 4.64502ZM2.81183 5.22771L2.36633 5.00071H2.36633L2.81183 5.22771ZM10.3638 10.427L10.5908 9.98153L10.3638 10.427ZM10.0725 10.1357L10.518 9.90869L10.0725 10.1357ZM14.5938 10.1357L14.1483 9.90869L14.5938 10.1357ZM14.3025 10.427L14.0755 9.98153L14.3025 10.427ZM14.3025 7.90569L14.0755 8.35119L14.3025 7.90569ZM14.5938 8.19703L14.1483 8.42403L14.5938 8.19703ZM10.3638 7.90569L10.5908 8.35119L10.3638 7.90569ZM10.0725 8.19703L10.518 8.42403L10.0725 8.19703ZM3.81414 4.03545C3.55775 4.13801 3.43304 4.429 3.5356 4.68539C3.63816 4.94178 3.92914 5.06649 4.18553 4.96393L3.81414 4.03545ZM9.75224 2.19873L9.56655 1.73449V1.73449L9.75224 2.19873ZM10.1665 4.49969C10.1665 4.77584 10.3904 4.99969 10.6665 4.99969C10.9426 4.99969 11.1665 4.77584 11.1665 4.49969H10.1665ZM4.79984 4.99969H11.1998V3.99969H4.79984V4.99969ZM11.1998 13.333H4.79984V14.333H11.1998V13.333ZM3.1665 11.6997V6.63303H2.1665V11.6997H3.1665ZM12.8332 6.63303V7.99969H13.8332V6.63303H12.8332ZM12.8332 10.6247V11.6997H13.8332V10.6247H12.8332ZM4.79984 13.333C4.41822 13.333 4.16208 13.3326 3.96482 13.3165C3.77341 13.3009 3.68189 13.273 3.62151 13.2422L3.16752 14.1332C3.39236 14.2478 3.63013 14.2925 3.88339 14.3132C4.13081 14.3334 4.43472 14.333 4.79984 14.333V13.333ZM2.1665 11.6997C2.1665 12.0648 2.16612 12.3687 2.18633 12.6161C2.20702 12.8694 2.25176 13.1072 2.36633 13.332L3.25733 12.878C3.22657 12.8176 3.19865 12.7261 3.18301 12.5347C3.16689 12.3375 3.1665 12.0813 3.1665 11.6997H2.1665ZM3.62151 13.2422C3.46471 13.1623 3.33723 13.0348 3.25733 12.878L2.36633 13.332C2.54209 13.677 2.82256 13.9574 3.16752 14.1332L3.62151 13.2422ZM11.1998 14.333C11.565 14.333 11.8689 14.3334 12.1163 14.3132C12.3695 14.2925 12.6073 14.2478 12.8322 14.1332L12.3782 13.2422C12.3178 13.273 12.2263 13.3009 12.0349 13.3165C11.8376 13.3326 11.5815 13.333 11.1998 13.333V14.333ZM12.8332 11.6997C12.8332 12.0813 12.8328 12.3375 12.8167 12.5347C12.801 12.7261 12.7731 12.8176 12.7423 12.878L13.6333 13.332C13.7479 13.1072 13.7927 12.8694 13.8133 12.6161C13.8336 12.3687 13.8332 12.0648 13.8332 11.6997H12.8332ZM12.8322 14.1332C13.1771 13.9574 13.4576 13.677 13.6333 13.332L12.7423 12.878C12.6624 13.0348 12.535 13.1623 12.3782 13.2422L12.8322 14.1332ZM11.1998 4.99969C11.5815 4.99969 11.8376 5.00008 12.0349 5.0162C12.2263 5.03184 12.3178 5.05976 12.3782 5.09052L12.8322 4.19951C12.6073 4.08495 12.3695 4.04021 12.1163 4.01952C11.8689 3.9993 11.565 3.99969 11.1998 3.99969V4.99969ZM13.8332 6.63303C13.8332 6.26791 13.8336 5.964 13.8133 5.71658C13.7927 5.46332 13.7479 5.22555 13.6333 5.00071L12.7423 5.4547C12.7731 5.51507 12.801 5.6066 12.8167 5.79801C12.8328 5.99526 12.8332 6.25141 12.8332 6.63303H13.8332ZM12.3782 5.09052C12.535 5.17042 12.6624 5.2979 12.7423 5.4547L13.6333 5.00071C13.4576 4.65575 13.1771 4.37528 12.8322 4.19951L12.3782 5.09052ZM4.79984 3.99969C4.43472 3.99969 4.13081 3.9993 3.88339 4.01952C3.63013 4.04021 3.39236 4.08495 3.16752 4.19951L3.62151 5.09052C3.68189 5.05976 3.77341 5.03184 3.96482 5.0162C4.16208 5.00008 4.41822 4.99969 4.79984 4.99969V3.99969ZM3.1665 6.63303C3.1665 6.25141 3.16689 5.99526 3.18301 5.79801C3.19865 5.6066 3.22657 5.51507 3.25733 5.4547L2.36633 5.00071C2.25176 5.22555 2.20702 5.46332 2.18633 5.71658C2.16612 5.964 2.1665 6.26791 2.1665 6.63303H3.1665ZM3.16752 4.19951C2.82256 4.37528 2.54209 4.65575 2.36633 5.00071L3.25733 5.4547C3.33723 5.2979 3.46471 5.17042 3.62151 5.09052L3.16752 4.19951ZM11.0665 8.33303H13.5998V7.33303H11.0665V8.33303ZM14.1665 8.89969V9.43303H15.1665V8.89969H14.1665ZM13.5998 9.99969H11.0665V10.9997H13.5998V9.99969ZM10.4998 9.43303V8.89969H9.49984V9.43303H10.4998ZM11.0665 9.99969C10.8716 9.99969 10.7554 9.9993 10.6694 9.99227C10.5891 9.98571 10.5799 9.97596 10.5908 9.98153L10.1368 10.8725C10.2904 10.9508 10.4458 10.9773 10.5879 10.9889C10.7242 11.0001 10.8881 10.9997 11.0665 10.9997V9.99969ZM9.49984 9.43303C9.49984 9.61146 9.49945 9.77536 9.51058 9.91161C9.52219 10.0537 9.54877 10.2091 9.627 10.3627L10.518 9.90869C10.5236 9.91962 10.5138 9.91042 10.5073 9.83018C10.5002 9.74409 10.4998 9.62796 10.4998 9.43303H9.49984ZM10.5908 9.98153C10.5595 9.96555 10.534 9.94005 10.518 9.90869L9.627 10.3627C9.73885 10.5822 9.91733 10.7607 10.1368 10.8725L10.5908 9.98153ZM14.1665 9.43303C14.1665 9.62796 14.1661 9.74409 14.1591 9.83018C14.1525 9.91042 14.1428 9.91962 14.1483 9.90869L15.0393 10.3627C15.1176 10.2091 15.1442 10.0537 15.1558 9.91161C15.1669 9.77536 15.1665 9.61146 15.1665 9.43303H14.1665ZM13.5998 10.9997C13.7783 10.9997 13.9422 11.0001 14.0784 10.9889C14.2205 10.9773 14.376 10.9508 14.5295 10.8725L14.0755 9.98153C14.0864 9.97596 14.0772 9.98571 13.997 9.99227C13.9109 9.9993 13.7948 9.99969 13.5998 9.99969V10.9997ZM14.1483 9.90869C14.1324 9.94005 14.1069 9.96555 14.0755 9.98153L14.5295 10.8725C14.749 10.7607 14.9275 10.5822 15.0393 10.3627L14.1483 9.90869ZM13.5998 8.33303C13.7948 8.33303 13.9109 8.33342 13.997 8.34045C14.0772 8.34701 14.0864 8.35676 14.0755 8.35119L14.5295 7.46019C14.376 7.38195 14.2205 7.35538 14.0784 7.34377C13.9422 7.33264 13.7783 7.33303 13.5998 7.33303V8.33303ZM15.1665 8.89969C15.1665 8.72126 15.1669 8.55736 15.1558 8.42111C15.1442 8.27902 15.1176 8.12358 15.0393 7.97004L14.1483 8.42403C14.1428 8.4131 14.1525 8.4223 14.1591 8.50254C14.1661 8.58863 14.1665 8.70476 14.1665 8.89969H15.1665ZM14.0755 8.35119C14.1069 8.36717 14.1324 8.39267 14.1483 8.42403L15.0393 7.97004C14.9275 7.75051 14.749 7.57204 14.5295 7.46019L14.0755 8.35119ZM11.0665 7.33303C10.8881 7.33303 10.7242 7.33264 10.5879 7.34377C10.4458 7.35538 10.2904 7.38195 10.1368 7.46019L10.5908 8.35119C10.5799 8.35676 10.5891 8.34701 10.6694 8.34045C10.7554 8.33342 10.8716 8.33303 11.0665 8.33303V7.33303ZM10.4998 8.89969C10.4998 8.70476 10.5002 8.58863 10.5073 8.50254C10.5138 8.4223 10.5236 8.4131 10.518 8.42403L9.627 7.97004C9.54877 8.12358 9.52219 8.27902 9.51058 8.42111C9.49945 8.55736 9.49984 8.72126 9.49984 8.89969H10.4998ZM10.1368 7.46019C9.91733 7.57204 9.73885 7.75051 9.627 7.97004L10.518 8.42403C10.534 8.39267 10.5595 8.36717 10.5908 8.35119L10.1368 7.46019ZM4.18553 4.96393L9.93794 2.66297L9.56655 1.73449L3.81414 4.03545L4.18553 4.96393ZM10.1665 2.81771V4.49969H11.1665V2.81771H10.1665ZM9.93794 2.66297C10.0474 2.61918 10.1665 2.6998 10.1665 2.81771H11.1665C11.1665 1.99234 10.3329 1.42796 9.56655 1.73449L9.93794 2.66297Z" fill="white"/>
</svg>
