<svg width="24" height="24" viewBox="0 0 24 24" fill="none" xmlns="http://www.w3.org/2000/svg">
<path d="M10.3618 19.604C10.4792 19.4148 10.3189 19.1838 10.0963 19.1882C10.0624 19.1889 10.0285 19.1892 9.99448 19.1892C7.20025 19.1892 4.93509 16.9241 4.93509 14.1298C4.93509 13.5198 5.04304 12.935 5.24089 12.3935C5.31731 12.1843 5.15113 11.9575 4.93396 12.0068C2.68142 12.5185 1 14.5332 1 16.9406C1 19.7348 3.26517 22 6.0594 22C7.87634 22 9.46959 21.0422 10.3618 19.604Z" stroke="#222222"/>
<path d="M22.0002 10.9692V13.0292C22.0002 13.5792 21.5602 14.0292 21.0002 14.0492H19.0402C17.9602 14.0492 16.9702 13.2592 16.8802 12.1792C16.8202 11.5492 17.0602 10.9592 17.4802 10.5492C17.8502 10.1692 18.3602 9.94922 18.9202 9.94922H21.0002C21.5602 9.96922 22.0002 10.4192 22.0002 10.9692Z" stroke="#222222" stroke-width="1.5" stroke-linecap="round" stroke-linejoin="round"/>
<path d="M2 10.5V8.5C2 5.78 3.64 3.88 6.19 3.56C6.45 3.52 6.72 3.5 7 3.5H16C16.26 3.5 16.51 3.50999 16.75 3.54999C19.33 3.84999 21 5.76 21 8.5V9.95001H18.92C18.36 9.95001 17.85 10.17 17.48 10.55C17.06 10.96 16.82 11.55 16.88 12.18C16.97 13.26 17.96 14.05 19.04 14.05H21V15.5C21 18.5 19 20.5 16 20.5H13.5" stroke="#222222" stroke-width="1.5" stroke-linecap="round" stroke-linejoin="round"/>
</svg>
