<svg width="24" height="24" viewBox="0 0 24 24" fill="none" xmlns="http://www.w3.org/2000/svg">
<path d="M6.49996 11V12.1M10.389 12.6109L9.61123 13.3887M12 16.5H10.9M10.3891 20.3891L9.61125 19.6113M6.49996 20.9V22M3.38869 19.6113L2.61087 20.3891M2.1 16.5H1M3.38867 13.3888L2.61085 12.611M8.69996 16.5C8.69996 17.715 7.71498 18.7 6.49996 18.7C5.28493 18.7 4.29996 17.715 4.29996 16.5C4.29996 15.285 5.28493 14.3 6.49996 14.3C7.71498 14.3 8.69996 15.285 8.69996 16.5Z" stroke="#222222" stroke-linecap="round"/>
<path d="M22.0002 10.9692V13.0292C22.0002 13.5792 21.5602 14.0292 21.0002 14.0492H19.0402C17.9602 14.0492 16.9702 13.2592 16.8802 12.1792C16.8202 11.5492 17.0602 10.9592 17.4802 10.5492C17.8502 10.1692 18.3602 9.94922 18.9202 9.94922H21.0002C21.5602 9.96922 22.0002 10.4192 22.0002 10.9692Z" stroke="#222222" stroke-width="1.5" stroke-linecap="round" stroke-linejoin="round"/>
<path d="M2 10.5V8.5C2 5.78 3.64 3.88 6.19 3.56C6.45 3.52 6.72 3.5 7 3.5H16C16.26 3.5 16.51 3.50999 16.75 3.54999C19.33 3.84999 21 5.76 21 8.5V9.95001H18.92C18.36 9.95001 17.85 10.17 17.48 10.55C17.06 10.96 16.82 11.55 16.88 12.18C16.97 13.26 17.96 14.05 19.04 14.05H21V15.5C21 18.5 19 20.5 16 20.5H13.5" stroke="#222222" stroke-width="1.5" stroke-linecap="round" stroke-linejoin="round"/>
</svg>
