<svg width="20" height="21" viewBox="0 0 20 21" fill="none" xmlns="http://www.w3.org/2000/svg">
<g id="Furniture/wardrobe/alt">
<path id="Icon" d="M9.99992 2.25278V18.9194M6.66659 10.5861H7.49992M9.99992 6.41944H16.6666M9.99992 10.5861H16.6666M9.99992 14.7528H16.6666M5.99992 18.9194H13.9999C14.9333 18.9194 15.4 18.9194 15.7566 18.7378C16.0702 18.578 16.3251 18.323 16.4849 18.0094C16.6666 17.6529 16.6666 17.1862 16.6666 16.2528V4.91944C16.6666 3.98602 16.6666 3.51931 16.4849 3.16279C16.3251 2.84919 16.0702 2.59422 15.7566 2.43443C15.4 2.25278 14.9333 2.25278 13.9999 2.25278H5.99992C5.0665 2.25278 4.59979 2.25278 4.24327 2.43443C3.92966 2.59422 3.6747 2.84919 3.51491 3.16279C3.33325 3.51931 3.33325 3.98602 3.33325 4.91944V16.2528C3.33325 17.1862 3.33325 17.6529 3.51491 18.0094C3.6747 18.323 3.92966 18.578 4.24327 18.7378C4.59979 18.9194 5.0665 18.9194 5.99992 18.9194Z" stroke="white" stroke-width="1.5" stroke-linecap="round"/>
</g>
</svg>
