<svg width="24" height="25" viewBox="0 0 24 25" fill="none" xmlns="http://www.w3.org/2000/svg">
<path d="M8 15.5H16M9.05573 10.3885L9.78885 8.92229C9.92771 8.64458 10 8.33835 10 8.02786V5.5C10 4.39543 10.8954 3.5 12 3.5C13.1046 3.5 14 4.39543 14 5.5V8.02786C14 8.33835 14.0723 8.64458 14.2111 8.92229L14.9443 10.3885C15.6385 11.7771 16 13.3082 16 14.8607V20.5C16 21.6046 15.1046 22.5 14 22.5H10C8.89543 22.5 8 21.6046 8 20.5V14.8607C8 13.3082 8.36145 11.7771 9.05573 10.3885Z" stroke="#222222" stroke-width="1.5" stroke-linecap="round"/>
</svg>
