<svg width="24" height="24" viewBox="0 0 24 24" fill="none" xmlns="http://www.w3.org/2000/svg">
<path d="M12.335 4.47266C12.335 4.47266 12.335 4.47266 12.335 4.47266C9.81492 4.47266 7.45052 5.59519 5.67732 7.63347C5.58439 7.74029 5.5332 7.87709 5.5332 8.01867C5.5332 8.16025 5.58439 8.29706 5.67732 8.40387L8.87522 12.0798C8.93032 12.1431 8.99835 12.1939 9.07473 12.2287C9.15112 12.2635 9.23408 12.2815 9.31802 12.2815H15.3521C15.522 12.2815 15.6834 12.2079 15.7949 12.0798L18.9928 8.40387C19.0857 8.29705 19.1369 8.16024 19.1369 8.01865C19.1369 7.87707 19.0857 7.74025 18.9928 7.63343C17.2196 5.59519 14.8551 4.4727 12.335 4.47266ZM11.9902 11.1077L12.335 10.3608L12.6798 11.1077H11.9902ZM15.0848 11.1077H13.9727L12.8679 8.71461C12.8209 8.61283 12.7457 8.52663 12.6513 8.46622C12.5569 8.4058 12.4471 8.37369 12.335 8.37369C12.2229 8.37369 12.1131 8.4058 12.0187 8.46622C11.9243 8.52663 11.8491 8.61283 11.8021 8.71461L10.6973 11.1077H9.58529L6.90737 8.02951C7.24194 7.68598 7.59693 7.37743 7.96886 7.10496L8.47414 7.71106C8.52919 7.77724 8.59816 7.83046 8.67613 7.86695C8.75409 7.90343 8.83915 7.92228 8.92523 7.92215C9.05775 7.92215 9.19101 7.8775 9.30072 7.78603C9.54968 7.57846 9.58325 7.20841 9.37573 6.95945L8.97457 6.47823C9.84372 6.02464 10.7797 5.74978 11.7481 5.67063V6.39344C11.7481 6.71757 12.0109 6.98034 12.335 6.98034C12.6591 6.98034 12.9219 6.71757 12.9219 6.39344V5.67063C13.8904 5.74978 14.8263 6.02464 15.6954 6.47823L15.2943 6.95945C15.0867 7.20841 15.1203 7.5785 15.3692 7.78603C15.4746 7.87408 15.6075 7.92226 15.7448 7.92215C15.8309 7.92227 15.9159 7.90342 15.9939 7.86694C16.0718 7.83045 16.1408 7.77723 16.1959 7.71106L16.7011 7.10496C17.073 7.37743 17.4281 7.68598 17.7626 8.02951L15.0848 11.1077Z" fill="white"/>
<path d="M20.5659 3.41809C19.7534 2.51686 18.5916 2 17.3783 2H7.29147C6.07817 2 4.91635 2.51686 4.10393 3.41805C3.29152 4.31925 2.89751 5.52829 3.02287 6.73514L4.20926 18.152C4.31675 19.2086 4.81313 20.1875 5.60197 20.8986C6.39082 21.6098 7.41581 22.0023 8.47786 22H16.1919C17.254 22.0023 18.279 21.6097 19.0678 20.8986C19.8566 20.1875 20.353 19.2086 20.4605 18.152L21.6469 6.73518C21.7723 5.52833 21.3782 4.31929 20.5659 3.41809ZM20.4793 6.61381L19.293 18.0307C19.2149 18.7983 18.8543 19.5095 18.2812 20.0261C17.7081 20.5427 16.9635 20.8279 16.1919 20.8262H12.9218V17.306C12.9218 16.9819 12.659 16.7192 12.3349 16.7192C12.0108 16.7192 11.748 16.9819 11.748 17.306V20.8262H8.47786C7.70629 20.8279 6.96164 20.5427 6.38855 20.0261C5.81546 19.5095 5.45484 18.7983 5.37675 18.0307L4.1904 6.61381C4.09928 5.73703 4.38553 4.85872 4.97575 4.20398C5.56597 3.54928 6.41 3.17379 7.29147 3.17379H17.3783C18.2597 3.17379 19.1038 3.54928 19.694 4.20402C20.2843 4.85872 20.5705 5.73707 20.4793 6.61381Z" fill="white"/>
</svg>
