<svg width="24" height="24" viewBox="0 0 24 24" fill="none" xmlns="http://www.w3.org/2000/svg">
<path d="M7.88596 5.99385C8.09809 5.99954 8.33326 6.01101 8.557 6.50767C8.70537 6.8383 8.95531 7.44698 9.15891 7.94281C9.31735 8.32864 9.44772 8.64614 9.48034 8.71112C9.55489 8.85952 9.60078 9.03076 9.50329 9.23052C9.49179 9.25409 9.48094 9.27662 9.47048 9.29832C9.39227 9.46063 9.33661 9.57613 9.20509 9.72718C9.15101 9.78925 9.09468 9.85733 9.03855 9.92515C8.93984 10.0444 8.84177 10.1629 8.7577 10.2467C8.6086 10.395 8.4537 10.5549 8.62574 10.8517C8.79788 11.1485 9.40008 12.1247 10.2891 12.9125C11.2448 13.7633 12.0758 14.1219 12.4959 14.3032C12.5775 14.3384 12.6436 14.3669 12.692 14.391C12.9903 14.5394 13.1681 14.5166 13.3401 14.3168C13.5123 14.1169 14.0857 13.449 14.2865 13.1522C14.4815 12.8554 14.6822 12.9011 14.9576 13.0038C15.2328 13.1066 16.701 13.8258 16.9992 13.9742C17.0582 14.0036 17.1133 14.03 17.1644 14.0545C17.3719 14.154 17.513 14.2217 17.5728 14.3225C17.6473 14.448 17.6473 15.0417 17.4007 15.7382C17.1484 16.4346 15.9325 17.1025 15.3819 17.1538C15.3298 17.1588 15.2779 17.165 15.2245 17.1715C14.7199 17.2325 14.0794 17.31 11.7974 16.4117C8.9854 15.306 7.1292 12.5624 6.75392 12.0077C6.72429 11.9639 6.7039 11.9338 6.69299 11.9192L6.68664 11.9107C6.5159 11.6822 5.47135 10.2845 5.47135 8.84247C5.47135 7.46276 6.15101 6.74446 6.46101 6.41682C6.48066 6.39606 6.49882 6.37686 6.51523 6.35917C6.79048 6.06237 7.11172 5.98817 7.31242 5.98817C7.51322 5.98817 7.71392 5.98817 7.88596 5.99385Z" fill="#222222"/>
<path fill-rule="evenodd" clip-rule="evenodd" d="M0.116024 22.4126C0.0211669 22.7569 0.334768 23.0747 0.680321 22.9845L6.02201 21.5892C7.70817 22.5026 9.60655 22.9878 11.5394 22.9878H11.5451C17.9055 22.9878 23.0902 17.8331 23.0902 11.4968C23.0902 8.42566 21.8914 5.53716 19.7121 3.36791C17.5328 1.19877 14.6364 0 11.545 0C5.18474 0 7.35411e-07 5.15469 7.35411e-07 11.4911C-0.000722044 13.5068 0.531341 15.4873 1.54278 17.2337L0.116024 22.4126ZM3.2194 17.6956C3.34324 17.2461 3.28137 16.7656 3.04768 16.3621C2.18956 14.8805 1.73847 13.2002 1.73908 11.4911C1.73908 6.1234 6.13694 1.73908 11.545 1.73908C14.1767 1.73908 16.6319 2.75584 18.4853 4.60051C20.3365 6.44313 21.3512 8.88798 21.3512 11.4968C21.3512 16.8644 16.9533 21.2487 11.5451 21.2487H11.5394C9.89711 21.2487 8.28326 20.8363 6.8503 20.0601C6.46246 19.85 6.00928 19.7951 5.58251 19.9066L2.37982 20.7431L3.2194 17.6956Z" fill="#222222"/>
</svg>
