<svg width="24" height="24" viewBox="0 0 24 24" fill="none" xmlns="http://www.w3.org/2000/svg">
<circle cx="17.5" cy="6.5" r="6.5" fill="#D9D9D9"/>
<path d="M4.3945 3.81738C4.14231 3.81738 3.81475 3.9341 3.34647 4.23771C3.53237 4.45718 3.7293 4.69179 4.1185 5.14034C4.38953 5.45266 4.66309 5.7633 4.86972 5.98821C4.8715 5.99018 4.8723 5.99079 4.87403 5.99271L6.32219 5.15215L5.63537 4.48896C5.10606 4.04815 4.76144 3.83899 4.44391 3.81898C4.42744 3.81792 4.411 3.81739 4.3945 3.81738ZM10.0233 4.52435C9.98195 4.5239 9.94065 4.52405 9.89936 4.52482C9.40905 4.53387 8.95248 4.62935 8.64583 4.77907L5.49292 6.60898C5.60777 6.63448 5.72191 6.66504 5.8345 6.70366C6.64427 6.9813 7.38573 7.55787 8.158 8.33023L18.3036 18.338L22.0995 16.2552L12.119 5.22068C11.7133 4.85318 11.0648 4.61562 10.399 4.54596C10.2742 4.53297 10.1488 4.52577 10.0232 4.5244L10.0233 4.52435ZM2.72772 4.81568C1.90539 5.78707 1.7635 6.55877 2.00931 7.48774C2.04175 7.61046 2.15261 7.78573 2.30805 7.97852C2.41395 7.82689 2.52472 7.67872 2.6402 7.53424C2.82723 7.3001 3.03325 7.10379 3.25356 6.94559L3.24859 6.93621L3.37834 6.86074C3.44126 6.82064 3.50585 6.78321 3.57194 6.74857L4.12825 6.4256C3.91016 6.18366 3.69447 5.93955 3.48123 5.69332C3.22869 5.40196 2.97749 5.10941 2.72772 4.81568ZM11.3571 5.44559L14.0953 8.33637C11.935 8.10026 11.4333 8.95512 10.8596 9.93949L8.17211 7.15962L11.3571 5.44559ZM4.861 7.3699C4.82741 7.36913 4.79381 7.36916 4.76022 7.36999C4.43322 7.37843 4.09427 7.46646 3.71716 7.64585C3.57489 7.7532 3.43637 7.88941 3.2995 8.06079C2.09153 9.57316 1.87216 10.8327 2.10494 11.9738C2.33767 13.1149 3.06756 14.1608 3.88225 15.0889C4.50634 15.7999 5.23506 16.2135 6.15438 16.3981C7.07378 16.5828 8.19053 16.525 9.52844 16.2352C11.0868 15.8977 12.6227 16.6299 14.0195 17.532C15.2438 18.3227 16.395 19.2706 17.3467 19.8734L17.7587 18.9858L7.5625 8.92784L7.56147 8.9268C6.83378 8.19912 6.17561 7.71251 5.56075 7.50171C5.32544 7.42099 5.09552 7.37543 4.861 7.3699ZM22.0679 17.235L18.6249 19.1243L18.1337 20.1821L21.454 18.3816L22.0678 17.2351L22.0679 17.235Z" fill="black"/>
</svg>
