<svg width="82" height="81" viewBox="0 0 82 81" fill="none" xmlns="http://www.w3.org/2000/svg">
<rect x="0.953941" y="0.118492" width="79.9807" height="79.9807" rx="5.88541" fill="#828284" stroke="#FAFAFA" stroke-width="0.229171"/>
<mask id="path-2-inside-1_8749_16046" fill="white">
<path d="M24.6731 66.4609H57.2154V80.2112H24.6731V66.4609Z"/>
</mask>
<path d="M24.6731 66.4609V66.2318H24.4439V66.4609H24.6731ZM57.2154 66.4609H57.4445V66.2318H57.2154V66.4609ZM24.6731 66.6901H57.2154V66.2318H24.6731V66.6901ZM56.9862 66.4609V80.2112H57.4445V66.4609H56.9862ZM24.9023 80.2112V66.4609H24.4439V80.2112H24.9023Z" fill="#FAFAFA" mask="url(#path-2-inside-1_8749_16046)"/>
<mask id="path-4-inside-2_8749_16046" fill="white">
<path d="M13.4438 55.0039H68.4449V80.2127H13.4438V55.0039Z"/>
</mask>
<path d="M13.4438 55.0039V54.7747H13.2147V55.0039H13.4438ZM68.4449 55.0039H68.674V54.7747H68.4449V55.0039ZM13.4438 55.2331H68.4449V54.7747H13.4438V55.2331ZM68.2157 55.0039V80.2127H68.674V55.0039H68.2157ZM13.673 80.2127V55.0039H13.2147V80.2127H13.673Z" fill="#FAFAFA" mask="url(#path-4-inside-2_8749_16046)"/>
<path d="M55.1528 9.53674e-07C55.1528 1.65523 54.7675 3.29426 54.0189 4.8235C53.2703 6.35273 52.1731 7.74223 50.7899 8.91266C49.4066 10.0831 47.7645 11.0115 45.9572 11.645C44.1499 12.2784 42.2129 12.6044 40.2567 12.6044C38.3005 12.6044 36.3635 12.2784 34.5562 11.645C32.7489 11.0115 31.1068 10.0831 29.7236 8.91266C28.3403 7.74223 27.2431 6.35273 26.4945 4.8235C25.7459 3.29426 25.3606 1.65523 25.3606 0" stroke="#FAFAFA" stroke-width="0.229171"/>
<path d="M30.6314 57.9824C30.6314 57.0796 30.8982 56.1856 31.4165 55.3514C31.9347 54.5173 32.6943 53.7594 33.652 53.121C34.6096 52.4826 35.7465 51.9761 36.9976 51.6306C38.2488 51.2851 39.5899 51.1073 40.9441 51.1073C42.2984 51.1073 43.6394 51.2851 44.8906 51.6306C46.1418 51.9761 47.2787 52.4826 48.2363 53.121C49.1939 53.7594 49.9536 54.5173 50.4718 55.3514C50.9901 56.1856 51.2568 57.0796 51.2568 57.9824" stroke="#FAFAFA" stroke-width="0.229171"/>
<rect x="28.3398" y="55.2305" width="26.1255" height="3.89591" fill="#828284"/>
<path d="M1.06836 76.5479C2.18489 76.4958 4.38882 77.1099 4.27231 79.9825" stroke="#FAFAFA" stroke-width="0.229171"/>
<path d="M80.8198 76.5479C79.7033 76.4958 77.4994 77.1099 77.6159 79.9825" stroke="#FAFAFA" stroke-width="0.229171"/>
<path d="M41.0584 67.4356C41.4273 67.4352 41.7809 67.2885 42.0418 67.0276C42.3026 66.7668 42.4493 66.4131 42.4498 66.0443V65.5628C41.5296 65.7361 40.5846 65.7294 39.667 65.543V66.0443C39.6674 66.4131 39.8142 66.7668 40.075 67.0276C40.3358 67.2885 40.6895 67.4352 41.0584 67.4356Z" fill="#FAFAFA"/>
<path d="M46.7583 70.1899L45.6173 67.7916C45.4022 67.3427 45.023 66.9934 44.558 66.8156L43.6873 66.4837C43.3428 66.3819 43.0913 65.9771 42.8893 65.7012V65.9786C42.8975 66.2344 42.8523 66.4891 42.7566 66.7265C42.6609 66.9639 42.5167 67.1788 42.3333 67.3573C42.1499 67.5359 41.9313 67.6743 41.6914 67.7636C41.4515 67.853 41.1957 67.8913 40.9402 67.8763C40.6846 67.8612 40.435 67.793 40.2073 67.6761C39.9796 67.5592 39.7788 67.3961 39.6177 67.1972C39.4565 66.9983 39.3386 66.768 39.2714 66.521C39.2043 66.274 39.1894 66.0157 39.2276 65.7626C39.077 66.0521 38.8308 66.2805 38.5308 66.4088L37.7152 66.7013C37.2471 66.8669 36.8611 67.2071 36.6381 67.6508L35.3586 70.1899C35.3408 70.2284 35.3389 70.2723 35.3533 70.3122C35.3677 70.3521 35.3973 70.3847 35.4355 70.4029L37.1398 71.1779C37.1718 71.1925 37.2069 71.1992 37.242 71.1975C37.2772 71.1957 37.3114 71.1856 37.3418 71.1679C37.3722 71.1501 37.3979 71.1254 37.4167 71.0957C37.4356 71.066 37.447 71.0321 37.4501 70.9971L37.5127 70.2827C37.5193 70.2254 37.5479 70.1729 37.5926 70.1364C37.6372 70.1 37.6944 70.0823 37.7518 70.0874C37.8093 70.0924 37.8625 70.1197 37.9002 70.1634C37.9378 70.2071 37.9569 70.2637 37.9534 70.3213L37.4227 76.3534C37.4225 76.3963 37.4311 76.4387 37.4479 76.4781C37.4647 76.5175 37.4895 76.553 37.5206 76.5825C37.5517 76.6119 37.5885 76.6347 37.6287 76.6494C37.669 76.664 37.7118 76.6703 37.7546 76.6678H44.3798C44.4228 76.6703 44.4658 76.664 44.5062 76.6492C44.5466 76.6344 44.5836 76.6114 44.6147 76.5817C44.6458 76.552 44.6705 76.5162 44.6872 76.4766C44.7039 76.4369 44.7122 76.3942 44.7117 76.3512C44.6178 75.3445 44.2292 71.2394 44.1431 70.3225C44.1389 70.2652 44.1574 70.2084 44.1946 70.1645C44.2318 70.1206 44.2846 70.093 44.3419 70.0876C44.3992 70.0822 44.4563 70.0995 44.501 70.1357C44.5457 70.1719 44.5745 70.2242 44.5811 70.2813L44.6478 70.9883C44.6511 71.0231 44.6626 71.0565 44.6814 71.0859C44.7002 71.1153 44.7257 71.1398 44.7559 71.1574C44.786 71.175 44.8199 71.1852 44.8547 71.1871C44.8896 71.189 44.9244 71.1826 44.9562 71.1683L46.6813 70.3987C46.719 70.3809 46.7482 70.349 46.7626 70.3099C46.777 70.2708 46.7754 70.2278 46.7583 70.1899ZM40.6406 74.4167C40.6389 74.4738 40.615 74.528 40.574 74.5678C40.533 74.6076 40.4781 74.6298 40.4209 74.6298C40.3638 74.6298 40.3089 74.6076 40.2679 74.5678C40.2268 74.528 40.2029 74.4738 40.2012 74.4167V72.2011L39.9879 72.333C39.9384 72.3623 39.8794 72.3709 39.8235 72.3572C39.7676 72.3434 39.7194 72.3082 39.6892 72.2593C39.659 72.2103 39.6492 72.1515 39.6619 72.0954C39.6747 72.0392 39.7089 71.9904 39.7573 71.9592L40.3045 71.6184C40.338 71.5985 40.3761 71.5877 40.415 71.5872C40.4539 71.5866 40.4923 71.5963 40.5264 71.6152C40.5604 71.6341 40.5889 71.6616 40.609 71.695C40.6291 71.7284 40.6401 71.7664 40.6408 71.8054L40.6406 74.4167ZM42.2212 74.4167C42.2212 74.475 42.1981 74.5309 42.1568 74.5721C42.1156 74.6133 42.0597 74.6365 42.0014 74.6365C41.9431 74.6365 41.8872 74.6133 41.846 74.5721C41.8047 74.5309 41.7816 74.475 41.7816 74.4167V72.2011L41.5685 72.333C41.5189 72.3636 41.4592 72.3732 41.4026 72.3598C41.3459 72.3465 41.2968 72.3111 41.2662 72.2615C41.2356 72.212 41.2259 72.1523 41.2393 72.0956C41.2527 72.0389 41.2881 71.9899 41.3377 71.9592L41.8849 71.6184C41.9183 71.5985 41.9565 71.5877 41.9954 71.5872C42.0343 71.5866 42.0727 71.5963 42.1068 71.6152C42.1408 71.6341 42.1693 71.6616 42.1894 71.695C42.2095 71.7284 42.2204 71.7664 42.2212 71.8054V74.4167Z" fill="#FAFAFA"/>
<path d="M40.6406 74.4167C40.6389 74.4738 40.615 74.528 40.574 74.5678C40.533 74.6076 40.4781 74.6298 40.4209 74.6298C40.3638 74.6298 40.3089 74.6076 40.2679 74.5678C40.2268 74.528 40.2029 74.4738 40.2012 74.4167V72.2011L39.9879 72.333C39.9384 72.3623 39.8794 72.3709 39.8235 72.3572C39.7676 72.3434 39.7194 72.3082 39.6892 72.2593C39.659 72.2103 39.6492 72.1515 39.6619 72.0954C39.6747 72.0392 39.7089 71.9904 39.7573 71.9592L40.3045 71.6184C40.338 71.5985 40.3761 71.5877 40.415 71.5872C40.4539 71.5866 40.4923 71.5963 40.5264 71.6152C40.5604 71.6341 40.5889 71.6616 40.609 71.695C40.6291 71.7284 40.6401 71.7664 40.6408 71.8054L40.6406 74.4167Z" fill="#FAFAFA"/>
<path d="M42.2212 74.4167C42.2212 74.475 42.1981 74.5309 42.1568 74.5721C42.1156 74.6133 42.0597 74.6365 42.0014 74.6365C41.9431 74.6365 41.8872 74.6133 41.846 74.5721C41.8047 74.5309 41.7816 74.475 41.7816 74.4167V72.2011L41.5685 72.333C41.5189 72.3636 41.4592 72.3732 41.4026 72.3598C41.3459 72.3465 41.2968 72.3111 41.2662 72.2615C41.2356 72.212 41.2259 72.1523 41.2393 72.0956C41.2527 72.0389 41.2881 71.9899 41.3377 71.9592L41.8849 71.6184C41.9183 71.5985 41.9565 71.5877 41.9954 71.5872C42.0343 71.5866 42.0727 71.5963 42.1068 71.6152C42.1408 71.6341 42.1693 71.6616 42.1894 71.695C42.2095 71.7284 42.2204 71.7664 42.2212 71.8054V74.4167Z" fill="#FAFAFA"/>
<path d="M40.0273 71.8965H42.3191" stroke="#191919" stroke-width="0.343756" stroke-linecap="round" stroke-linejoin="round"/>
<path d="M41.1733 73.0437V70.752" stroke="#191919" stroke-width="0.343756" stroke-linecap="round" stroke-linejoin="round"/>
<path d="M41.0584 31.4356C41.4273 31.4352 41.7809 31.2885 42.0418 31.0276C42.3026 30.7668 42.4493 30.4131 42.4498 30.0443V29.5628C41.5296 29.7361 40.5846 29.7294 39.667 29.543V30.0443C39.6674 30.4131 39.8142 30.7668 40.075 31.0276C40.3358 31.2885 40.6895 31.4352 41.0584 31.4356Z" fill="#FAFAFA"/>
<path d="M46.7583 34.1899L45.6173 31.7916C45.4022 31.3427 45.023 30.9934 44.558 30.8156L43.6873 30.4837C43.3428 30.3819 43.0913 29.9771 42.8893 29.7012V29.9786C42.8975 30.2344 42.8523 30.4891 42.7566 30.7265C42.6609 30.9639 42.5167 31.1788 42.3333 31.3573C42.1499 31.5359 41.9313 31.6743 41.6914 31.7636C41.4515 31.853 41.1957 31.8913 40.9402 31.8763C40.6846 31.8612 40.435 31.793 40.2073 31.6761C39.9796 31.5592 39.7788 31.3961 39.6177 31.1972C39.4565 30.9983 39.3386 30.768 39.2714 30.521C39.2043 30.274 39.1894 30.0157 39.2276 29.7626C39.077 30.0521 38.8308 30.2805 38.5308 30.4088L37.7152 30.7013C37.2471 30.8669 36.8611 31.2071 36.6381 31.6508L35.3586 34.1899C35.3408 34.2284 35.3389 34.2723 35.3533 34.3122C35.3677 34.3521 35.3973 34.3847 35.4355 34.4029L37.1398 35.1779C37.1718 35.1925 37.2069 35.1992 37.242 35.1975C37.2772 35.1957 37.3114 35.1856 37.3418 35.1679C37.3722 35.1501 37.3979 35.1254 37.4167 35.0957C37.4356 35.066 37.447 35.0321 37.4501 34.9971L37.5127 34.2827C37.5193 34.2254 37.5479 34.1729 37.5926 34.1364C37.6372 34.1 37.6944 34.0823 37.7518 34.0874C37.8093 34.0924 37.8625 34.1197 37.9002 34.1634C37.9378 34.2071 37.9569 34.2637 37.9534 34.3213L37.4227 40.3534C37.4225 40.3963 37.4311 40.4387 37.4479 40.4781C37.4647 40.5175 37.4895 40.553 37.5206 40.5825C37.5517 40.6119 37.5885 40.6347 37.6287 40.6494C37.669 40.664 37.7118 40.6703 37.7546 40.6678H44.3798C44.4228 40.6703 44.4658 40.664 44.5062 40.6492C44.5466 40.6344 44.5836 40.6114 44.6147 40.5817C44.6458 40.552 44.6705 40.5162 44.6872 40.4766C44.7039 40.4369 44.7122 40.3942 44.7117 40.3512C44.6178 39.3445 44.2292 35.2394 44.1431 34.3225C44.1389 34.2652 44.1574 34.2084 44.1946 34.1645C44.2318 34.1206 44.2846 34.093 44.3419 34.0876C44.3992 34.0822 44.4563 34.0995 44.501 34.1357C44.5457 34.1719 44.5745 34.2242 44.5811 34.2813L44.6478 34.9883C44.6511 35.0231 44.6626 35.0565 44.6814 35.0859C44.7002 35.1153 44.7257 35.1398 44.7559 35.1574C44.786 35.175 44.8199 35.1852 44.8547 35.1871C44.8896 35.189 44.9244 35.1826 44.9562 35.1683L46.6813 34.3987C46.719 34.3809 46.7482 34.349 46.7626 34.3099C46.777 34.2708 46.7754 34.2278 46.7583 34.1899ZM40.6406 38.4167C40.6389 38.4738 40.615 38.528 40.574 38.5678C40.533 38.6076 40.4781 38.6298 40.4209 38.6298C40.3638 38.6298 40.3089 38.6076 40.2679 38.5678C40.2268 38.528 40.2029 38.4738 40.2012 38.4167V36.2011L39.9879 36.333C39.9384 36.3623 39.8794 36.3709 39.8235 36.3572C39.7676 36.3434 39.7194 36.3082 39.6892 36.2593C39.659 36.2103 39.6492 36.1515 39.6619 36.0954C39.6747 36.0392 39.7089 35.9904 39.7573 35.9592L40.3045 35.6184C40.338 35.5985 40.3761 35.5877 40.415 35.5872C40.4539 35.5866 40.4923 35.5963 40.5264 35.6152C40.5604 35.6341 40.5889 35.6616 40.609 35.695C40.6291 35.7284 40.6401 35.7664 40.6408 35.8054L40.6406 38.4167ZM42.2212 38.4167C42.2212 38.475 42.1981 38.5309 42.1568 38.5721C42.1156 38.6133 42.0597 38.6365 42.0014 38.6365C41.9431 38.6365 41.8872 38.6133 41.846 38.5721C41.8047 38.5309 41.7816 38.475 41.7816 38.4167V36.2011L41.5685 36.333C41.5189 36.3636 41.4592 36.3732 41.4026 36.3598C41.3459 36.3465 41.2968 36.3111 41.2662 36.2615C41.2356 36.212 41.2259 36.1523 41.2393 36.0956C41.2527 36.0389 41.2881 35.9899 41.3377 35.9592L41.8849 35.6184C41.9183 35.5985 41.9565 35.5877 41.9954 35.5872C42.0343 35.5866 42.0727 35.5963 42.1068 35.6152C42.1408 35.6341 42.1693 35.6616 42.1894 35.695C42.2095 35.7284 42.2204 35.7664 42.2212 35.8054V38.4167Z" fill="#FAFAFA"/>
<path d="M40.6406 38.4167C40.6389 38.4738 40.615 38.528 40.574 38.5678C40.533 38.6076 40.4781 38.6298 40.4209 38.6298C40.3638 38.6298 40.3089 38.6076 40.2679 38.5678C40.2268 38.528 40.2029 38.4738 40.2012 38.4167V36.2011L39.9879 36.333C39.9384 36.3623 39.8794 36.3709 39.8235 36.3572C39.7676 36.3434 39.7194 36.3082 39.6892 36.2593C39.659 36.2103 39.6492 36.1515 39.6619 36.0954C39.6747 36.0392 39.7089 35.9904 39.7573 35.9592L40.3045 35.6184C40.338 35.5985 40.3761 35.5877 40.415 35.5872C40.4539 35.5866 40.4923 35.5963 40.5264 35.6152C40.5604 35.6341 40.5889 35.6616 40.609 35.695C40.6291 35.7284 40.6401 35.7664 40.6408 35.8054L40.6406 38.4167Z" fill="#FAFAFA"/>
<path d="M42.2212 38.4167C42.2212 38.475 42.1981 38.5309 42.1568 38.5721C42.1156 38.6133 42.0597 38.6365 42.0014 38.6365C41.9431 38.6365 41.8872 38.6133 41.846 38.5721C41.8047 38.5309 41.7816 38.475 41.7816 38.4167V36.2011L41.5685 36.333C41.5189 36.3636 41.4592 36.3732 41.4026 36.3598C41.3459 36.3465 41.2968 36.3111 41.2662 36.2615C41.2356 36.212 41.2259 36.1523 41.2393 36.0956C41.2527 36.0389 41.2881 35.9899 41.3377 35.9592L41.8849 35.6184C41.9183 35.5985 41.9565 35.5877 41.9954 35.5872C42.0343 35.5866 42.0727 35.5963 42.1068 35.6152C42.1408 35.6341 42.1693 35.6616 42.1894 35.695C42.2095 35.7284 42.2204 35.7664 42.2212 35.8054V38.4167Z" fill="#FAFAFA"/>
<path d="M40.0273 35.8965H42.3191" stroke="#191919" stroke-width="0.343756" stroke-linecap="round" stroke-linejoin="round"/>
<path d="M41.1733 37.0437V34.752" stroke="#191919" stroke-width="0.343756" stroke-linecap="round" stroke-linejoin="round"/>
<path d="M16.0584 51.9962C16.4273 51.9958 16.7809 51.849 17.0418 51.5882C17.3026 51.3273 17.4493 50.9737 17.4498 50.6048V50.1233C16.5296 50.2967 15.5846 50.2899 14.667 50.1035V50.6048C14.6674 50.9737 14.8142 51.3273 15.075 51.5882C15.3358 51.849 15.6895 51.9958 16.0584 51.9962Z" fill="#FAFAFA"/>
<path d="M21.7583 54.7504L20.6173 52.3522C20.4022 51.9032 20.023 51.5539 19.558 51.3761L18.6873 51.0443C18.3428 50.9424 18.0913 50.5377 17.8893 50.2617V50.5391C17.8975 50.7949 17.8523 51.0497 17.7566 51.2871C17.6609 51.5245 17.5167 51.7393 17.3333 51.9179C17.1499 52.0965 16.9313 52.2348 16.6914 52.3242C16.4515 52.4135 16.1957 52.4519 15.9402 52.4368C15.6846 52.4218 15.435 52.3536 15.2073 52.2367C14.9796 52.1197 14.7788 51.9566 14.6177 51.7577C14.4565 51.5589 14.3386 51.3286 14.2714 51.0816C14.2043 50.8345 14.1894 50.5763 14.2276 50.3232C14.077 50.6126 13.8308 50.841 13.5308 50.9694L12.7152 51.2618C12.2471 51.4274 11.8611 51.7677 11.6381 52.2113L10.3586 54.7504C10.3408 54.7889 10.3389 54.8329 10.3533 54.8727C10.3677 54.9126 10.3973 54.9452 10.4355 54.9635L12.1398 55.7385C12.1718 55.7531 12.2069 55.7598 12.242 55.758C12.2772 55.7563 12.3114 55.7461 12.3418 55.7284C12.3722 55.7107 12.3979 55.6859 12.4167 55.6562C12.4356 55.6265 12.447 55.5927 12.4501 55.5576L12.5127 54.8433C12.5193 54.786 12.5479 54.7335 12.5926 54.697C12.6372 54.6605 12.6944 54.6429 12.7518 54.6479C12.8093 54.653 12.8625 54.6802 12.9002 54.7239C12.9378 54.7676 12.9569 54.8243 12.9534 54.8818L12.4227 60.914C12.4225 60.9568 12.4311 60.9992 12.4479 61.0386C12.4647 61.078 12.4895 61.1136 12.5206 61.143C12.5517 61.1725 12.5885 61.1952 12.6287 61.2099C12.669 61.2246 12.7118 61.2308 12.7546 61.2283H19.3798C19.4228 61.2309 19.4658 61.2245 19.5062 61.2097C19.5466 61.1949 19.5836 61.172 19.6147 61.1423C19.6458 61.1126 19.6705 61.0768 19.6872 61.0371C19.7039 60.9974 19.7122 60.9548 19.7117 60.9117C19.6178 59.9051 19.2292 55.7999 19.1431 54.8831C19.1389 54.8257 19.1574 54.769 19.1946 54.7251C19.2318 54.6812 19.2846 54.6536 19.3419 54.6482C19.3992 54.6428 19.4563 54.66 19.501 54.6962C19.5457 54.7324 19.5745 54.7847 19.5811 54.8418L19.6478 55.5489C19.6511 55.5836 19.6626 55.6171 19.6814 55.6465C19.7002 55.6759 19.7257 55.7004 19.7559 55.718C19.786 55.7356 19.8199 55.7457 19.8547 55.7476C19.8896 55.7495 19.9244 55.7431 19.9562 55.7289L21.6813 54.9592C21.719 54.9414 21.7482 54.9096 21.7626 54.8705C21.777 54.8314 21.7754 54.7884 21.7583 54.7504ZM15.6406 58.9772C15.6389 59.0343 15.615 59.0885 15.574 59.1283C15.533 59.1681 15.4781 59.1903 15.4209 59.1903C15.3638 59.1903 15.3089 59.1681 15.2679 59.1283C15.2268 59.0885 15.2029 59.0343 15.2012 58.9772V56.7617L14.9879 56.8935C14.9384 56.9228 14.8794 56.9315 14.8235 56.9177C14.7676 56.9039 14.7194 56.8688 14.6892 56.8198C14.659 56.7709 14.6492 56.712 14.6619 56.6559C14.6747 56.5998 14.7089 56.5509 14.7573 56.5198L15.3045 56.1789C15.338 56.159 15.3761 56.1483 15.415 56.1477C15.4539 56.1472 15.4923 56.1568 15.5264 56.1757C15.5604 56.1947 15.5889 56.2222 15.609 56.2555C15.6291 56.2889 15.6401 56.327 15.6408 56.3659L15.6406 58.9772ZM17.2212 58.9772C17.2212 59.0355 17.1981 59.0914 17.1568 59.1327C17.1156 59.1739 17.0597 59.197 17.0014 59.197C16.9431 59.197 16.8872 59.1739 16.846 59.1327C16.8047 59.0914 16.7816 59.0355 16.7816 58.9772V56.7617L16.5685 56.8935C16.5189 56.9241 16.4592 56.9338 16.4026 56.9204C16.3459 56.907 16.2968 56.8716 16.2662 56.8221C16.2356 56.7725 16.2259 56.7128 16.2393 56.6561C16.2527 56.5995 16.2881 56.5504 16.3377 56.5198L16.8849 56.1789C16.9183 56.159 16.9565 56.1483 16.9954 56.1477C17.0343 56.1472 17.0727 56.1568 17.1068 56.1757C17.1408 56.1947 17.1693 56.2222 17.1894 56.2555C17.2095 56.2889 17.2204 56.327 17.2212 56.3659V58.9772Z" fill="#FAFAFA"/>
<path d="M15.6406 58.9772C15.6389 59.0343 15.615 59.0885 15.574 59.1283C15.533 59.1681 15.4781 59.1903 15.4209 59.1903C15.3638 59.1903 15.3089 59.1681 15.2679 59.1283C15.2268 59.0885 15.2029 59.0343 15.2012 58.9772V56.7617L14.9879 56.8935C14.9384 56.9228 14.8794 56.9315 14.8235 56.9177C14.7676 56.9039 14.7194 56.8688 14.6892 56.8198C14.659 56.7709 14.6492 56.712 14.6619 56.6559C14.6747 56.5998 14.7089 56.5509 14.7573 56.5198L15.3045 56.1789C15.338 56.159 15.3761 56.1483 15.415 56.1477C15.4539 56.1472 15.4923 56.1568 15.5264 56.1757C15.5604 56.1947 15.5889 56.2222 15.609 56.2555C15.6291 56.2889 15.6401 56.327 15.6408 56.3659L15.6406 58.9772Z" fill="#FAFAFA"/>
<path d="M17.2212 58.9772C17.2212 59.0355 17.1981 59.0914 17.1568 59.1327C17.1156 59.1739 17.0597 59.197 17.0014 59.197C16.9431 59.197 16.8872 59.1739 16.846 59.1327C16.8047 59.0914 16.7816 59.0355 16.7816 58.9772V56.7617L16.5685 56.8935C16.5189 56.9241 16.4592 56.9338 16.4026 56.9204C16.3459 56.907 16.2968 56.8716 16.2662 56.8221C16.2356 56.7725 16.2259 56.7128 16.2393 56.6561C16.2527 56.5995 16.2881 56.5504 16.3377 56.5198L16.8849 56.1789C16.9183 56.159 16.9565 56.1483 16.9954 56.1477C17.0343 56.1472 17.0727 56.1568 17.1068 56.1757C17.1408 56.1947 17.1693 56.2222 17.1894 56.2555C17.2095 56.2889 17.2204 56.327 17.2212 56.3659V58.9772Z" fill="#FAFAFA"/>
<path d="M15.0273 56.4609H17.3191" stroke="#191919" stroke-width="0.343756" stroke-linecap="round" stroke-linejoin="round"/>
<path d="M16.1733 57.6081V55.3164" stroke="#191919" stroke-width="0.343756" stroke-linecap="round" stroke-linejoin="round"/>
<path d="M16.0584 8.99618C16.4273 8.99575 16.7809 8.84902 17.0418 8.58818C17.3026 8.32734 17.4493 7.97368 17.4498 7.6048V7.12331C16.5296 7.29665 15.5846 7.28993 14.667 7.10352V7.6048C14.6674 7.97368 14.8142 8.32734 15.075 8.58818C15.3358 8.84902 15.6895 8.99575 16.0584 8.99618Z" fill="#FAFAFA"/>
<path d="M21.7583 11.7504L20.6173 9.35217C20.4022 8.90324 20.023 8.55392 19.558 8.37613L18.6873 8.04426C18.3428 7.94241 18.0913 7.53767 17.8893 7.26172V7.5391C17.8975 7.79494 17.8523 8.04969 17.7566 8.28709C17.6609 8.52449 17.5167 8.73932 17.3333 8.91789C17.1499 9.09646 16.9313 9.23483 16.6914 9.32418C16.4515 9.41353 16.1957 9.45189 15.9402 9.43682C15.6846 9.42175 15.435 9.35358 15.2073 9.23666C14.9796 9.11973 14.7788 8.95662 14.6177 8.75774C14.4565 8.55885 14.3386 8.32856 14.2714 8.08155C14.2043 7.83455 14.1894 7.57625 14.2276 7.32315C14.077 7.61265 13.8308 7.84101 13.5308 7.96935L12.7152 8.26184C12.2471 8.42743 11.8611 8.76766 11.6381 9.21133L10.3586 11.7504C10.3408 11.7889 10.3389 11.8329 10.3533 11.8727C10.3677 11.9126 10.3973 11.9452 10.4355 11.9635L12.1398 12.7385C12.1718 12.7531 12.2069 12.7598 12.242 12.758C12.2772 12.7563 12.3114 12.7461 12.3418 12.7284C12.3722 12.7107 12.3979 12.6859 12.4167 12.6562C12.4356 12.6265 12.447 12.5927 12.4501 12.5576L12.5127 11.8433C12.5193 11.786 12.5479 11.7335 12.5926 11.697C12.6372 11.6605 12.6944 11.6429 12.7518 11.6479C12.8093 11.653 12.8625 11.6802 12.9002 11.7239C12.9378 11.7676 12.9569 11.8243 12.9534 11.8818L12.4227 17.914C12.4225 17.9568 12.4311 17.9992 12.4479 18.0386C12.4647 18.078 12.4895 18.1136 12.5206 18.143C12.5517 18.1725 12.5885 18.1952 12.6287 18.2099C12.669 18.2246 12.7118 18.2308 12.7546 18.2283H19.3798C19.4228 18.2309 19.4658 18.2245 19.5062 18.2097C19.5466 18.1949 19.5836 18.172 19.6147 18.1423C19.6458 18.1126 19.6705 18.0768 19.6872 18.0371C19.7039 17.9974 19.7122 17.9548 19.7117 17.9117C19.6178 16.9051 19.2292 12.7999 19.1431 11.8831C19.1389 11.8257 19.1574 11.769 19.1946 11.7251C19.2318 11.6812 19.2846 11.6536 19.3419 11.6482C19.3992 11.6428 19.4563 11.66 19.501 11.6962C19.5457 11.7324 19.5745 11.7847 19.5811 11.8418L19.6478 12.5489C19.6511 12.5836 19.6626 12.6171 19.6814 12.6465C19.7002 12.6759 19.7257 12.7004 19.7559 12.718C19.786 12.7356 19.8199 12.7457 19.8547 12.7476C19.8896 12.7495 19.9244 12.7431 19.9562 12.7289L21.6813 11.9592C21.719 11.9414 21.7482 11.9096 21.7626 11.8705C21.777 11.8314 21.7754 11.7884 21.7583 11.7504ZM15.6406 15.9772C15.6389 16.0343 15.615 16.0885 15.574 16.1283C15.533 16.1681 15.4781 16.1903 15.4209 16.1903C15.3638 16.1903 15.3089 16.1681 15.2679 16.1283C15.2268 16.0885 15.2029 16.0343 15.2012 15.9772V13.7617L14.9879 13.8935C14.9384 13.9228 14.8794 13.9315 14.8235 13.9177C14.7676 13.9039 14.7194 13.8688 14.6892 13.8198C14.659 13.7709 14.6492 13.712 14.6619 13.6559C14.6747 13.5998 14.7089 13.5509 14.7573 13.5198L15.3045 13.1789C15.338 13.159 15.3761 13.1483 15.415 13.1477C15.4539 13.1472 15.4923 13.1568 15.5264 13.1757C15.5604 13.1947 15.5889 13.2222 15.609 13.2555C15.6291 13.2889 15.6401 13.327 15.6408 13.3659L15.6406 15.9772ZM17.2212 15.9772C17.2212 16.0355 17.1981 16.0914 17.1568 16.1327C17.1156 16.1739 17.0597 16.197 17.0014 16.197C16.9431 16.197 16.8872 16.1739 16.846 16.1327C16.8047 16.0914 16.7816 16.0355 16.7816 15.9772V13.7617L16.5685 13.8935C16.5189 13.9241 16.4592 13.9338 16.4026 13.9204C16.3459 13.907 16.2968 13.8716 16.2662 13.8221C16.2356 13.7725 16.2259 13.7128 16.2393 13.6561C16.2527 13.5995 16.2881 13.5504 16.3377 13.5198L16.8849 13.1789C16.9183 13.159 16.9565 13.1483 16.9954 13.1477C17.0343 13.1472 17.0727 13.1568 17.1068 13.1757C17.1408 13.1947 17.1693 13.2222 17.1894 13.2555C17.2095 13.2889 17.2204 13.327 17.2212 13.3659V15.9772Z" fill="#FAFAFA"/>
<path d="M15.6406 15.9772C15.6389 16.0343 15.615 16.0885 15.574 16.1283C15.533 16.1681 15.4781 16.1903 15.4209 16.1903C15.3638 16.1903 15.3089 16.1681 15.2679 16.1283C15.2268 16.0885 15.2029 16.0343 15.2012 15.9772V13.7617L14.9879 13.8935C14.9384 13.9228 14.8794 13.9315 14.8235 13.9177C14.7676 13.9039 14.7194 13.8688 14.6892 13.8198C14.659 13.7709 14.6492 13.712 14.6619 13.6559C14.6747 13.5998 14.7089 13.5509 14.7573 13.5198L15.3045 13.1789C15.338 13.159 15.3761 13.1483 15.415 13.1477C15.4539 13.1472 15.4923 13.1568 15.5264 13.1757C15.5604 13.1947 15.5889 13.2222 15.609 13.2555C15.6291 13.2889 15.6401 13.327 15.6408 13.3659L15.6406 15.9772Z" fill="#FAFAFA"/>
<path d="M17.2212 15.9772C17.2212 16.0355 17.1981 16.0914 17.1568 16.1327C17.1156 16.1739 17.0597 16.197 17.0014 16.197C16.9431 16.197 16.8872 16.1739 16.846 16.1327C16.8047 16.0914 16.7816 16.0355 16.7816 15.9772V13.7617L16.5685 13.8935C16.5189 13.9241 16.4592 13.9338 16.4026 13.9204C16.3459 13.907 16.2968 13.8716 16.2662 13.8221C16.2356 13.7725 16.2259 13.7128 16.2393 13.6561C16.2527 13.5995 16.2881 13.5504 16.3377 13.5198L16.8849 13.1789C16.9183 13.159 16.9565 13.1483 16.9954 13.1477C17.0343 13.1472 17.0727 13.1568 17.1068 13.1757C17.1408 13.1947 17.1693 13.2222 17.1894 13.2555C17.2095 13.2889 17.2204 13.327 17.2212 13.3659V15.9772Z" fill="#FAFAFA"/>
<path d="M15.0273 13.4609H17.3191" stroke="#191919" stroke-width="0.343756" stroke-linecap="round" stroke-linejoin="round"/>
<path d="M16.1733 14.6081V12.3164" stroke="#191919" stroke-width="0.343756" stroke-linecap="round" stroke-linejoin="round"/>
<path d="M16.0584 31.9962C16.4273 31.9958 16.7809 31.849 17.0418 31.5882C17.3026 31.3273 17.4493 30.9737 17.4498 30.6048V30.1233C16.5296 30.2967 15.5846 30.2899 14.667 30.1035V30.6048C14.6674 30.9737 14.8142 31.3273 15.075 31.5882C15.3358 31.849 15.6895 31.9958 16.0584 31.9962Z" fill="#FAFAFA"/>
<path d="M21.7583 34.7504L20.6173 32.3522C20.4022 31.9032 20.023 31.5539 19.558 31.3761L18.6873 31.0443C18.3428 30.9424 18.0913 30.5377 17.8893 30.2617V30.5391C17.8975 30.7949 17.8523 31.0497 17.7566 31.2871C17.6609 31.5245 17.5167 31.7393 17.3333 31.9179C17.1499 32.0965 16.9313 32.2348 16.6914 32.3242C16.4515 32.4135 16.1957 32.4519 15.9402 32.4368C15.6846 32.4218 15.435 32.3536 15.2073 32.2367C14.9796 32.1197 14.7788 31.9566 14.6177 31.7577C14.4565 31.5589 14.3386 31.3286 14.2714 31.0816C14.2043 30.8345 14.1894 30.5763 14.2276 30.3232C14.077 30.6126 13.8308 30.841 13.5308 30.9694L12.7152 31.2618C12.2471 31.4274 11.8611 31.7677 11.6381 32.2113L10.3586 34.7504C10.3408 34.7889 10.3389 34.8329 10.3533 34.8727C10.3677 34.9126 10.3973 34.9452 10.4355 34.9635L12.1398 35.7385C12.1718 35.7531 12.2069 35.7598 12.242 35.758C12.2772 35.7563 12.3114 35.7461 12.3418 35.7284C12.3722 35.7107 12.3979 35.6859 12.4167 35.6562C12.4356 35.6265 12.447 35.5927 12.4501 35.5576L12.5127 34.8433C12.5193 34.786 12.5479 34.7335 12.5926 34.697C12.6372 34.6605 12.6944 34.6429 12.7518 34.6479C12.8093 34.653 12.8625 34.6802 12.9002 34.7239C12.9378 34.7676 12.9569 34.8243 12.9534 34.8818L12.4227 40.914C12.4225 40.9568 12.4311 40.9992 12.4479 41.0386C12.4647 41.078 12.4895 41.1136 12.5206 41.143C12.5517 41.1725 12.5885 41.1952 12.6287 41.2099C12.669 41.2246 12.7118 41.2308 12.7546 41.2283H19.3798C19.4228 41.2309 19.4658 41.2245 19.5062 41.2097C19.5466 41.1949 19.5836 41.172 19.6147 41.1423C19.6458 41.1126 19.6705 41.0768 19.6872 41.0371C19.7039 40.9974 19.7122 40.9548 19.7117 40.9117C19.6178 39.9051 19.2292 35.7999 19.1431 34.8831C19.1389 34.8257 19.1574 34.769 19.1946 34.7251C19.2318 34.6812 19.2846 34.6536 19.3419 34.6482C19.3992 34.6428 19.4563 34.66 19.501 34.6962C19.5457 34.7324 19.5745 34.7847 19.5811 34.8418L19.6478 35.5489C19.6511 35.5836 19.6626 35.6171 19.6814 35.6465C19.7002 35.6759 19.7257 35.7004 19.7559 35.718C19.786 35.7356 19.8199 35.7457 19.8547 35.7476C19.8896 35.7495 19.9244 35.7431 19.9562 35.7289L21.6813 34.9592C21.719 34.9414 21.7482 34.9096 21.7626 34.8705C21.777 34.8314 21.7754 34.7884 21.7583 34.7504ZM15.6406 38.9772C15.6389 39.0343 15.615 39.0885 15.574 39.1283C15.533 39.1681 15.4781 39.1903 15.4209 39.1903C15.3638 39.1903 15.3089 39.1681 15.2679 39.1283C15.2268 39.0885 15.2029 39.0343 15.2012 38.9772V36.7617L14.9879 36.8935C14.9384 36.9228 14.8794 36.9315 14.8235 36.9177C14.7676 36.9039 14.7194 36.8688 14.6892 36.8198C14.659 36.7709 14.6492 36.712 14.6619 36.6559C14.6747 36.5998 14.7089 36.5509 14.7573 36.5198L15.3045 36.1789C15.338 36.159 15.3761 36.1483 15.415 36.1477C15.4539 36.1472 15.4923 36.1568 15.5264 36.1757C15.5604 36.1947 15.5889 36.2222 15.609 36.2555C15.6291 36.2889 15.6401 36.327 15.6408 36.3659L15.6406 38.9772ZM17.2212 38.9772C17.2212 39.0355 17.1981 39.0914 17.1568 39.1327C17.1156 39.1739 17.0597 39.197 17.0014 39.197C16.9431 39.197 16.8872 39.1739 16.846 39.1327C16.8047 39.0914 16.7816 39.0355 16.7816 38.9772V36.7617L16.5685 36.8935C16.5189 36.9241 16.4592 36.9338 16.4026 36.9204C16.3459 36.907 16.2968 36.8716 16.2662 36.8221C16.2356 36.7725 16.2259 36.7128 16.2393 36.6561C16.2527 36.5995 16.2881 36.5504 16.3377 36.5198L16.8849 36.1789C16.9183 36.159 16.9565 36.1483 16.9954 36.1477C17.0343 36.1472 17.0727 36.1568 17.1068 36.1757C17.1408 36.1947 17.1693 36.2222 17.1894 36.2555C17.2095 36.2889 17.2204 36.327 17.2212 36.3659V38.9772Z" fill="#FAFAFA"/>
<path d="M15.6406 38.9772C15.6389 39.0343 15.615 39.0885 15.574 39.1283C15.533 39.1681 15.4781 39.1903 15.4209 39.1903C15.3638 39.1903 15.3089 39.1681 15.2679 39.1283C15.2268 39.0885 15.2029 39.0343 15.2012 38.9772V36.7617L14.9879 36.8935C14.9384 36.9228 14.8794 36.9315 14.8235 36.9177C14.7676 36.9039 14.7194 36.8688 14.6892 36.8198C14.659 36.7709 14.6492 36.712 14.6619 36.6559C14.6747 36.5998 14.7089 36.5509 14.7573 36.5198L15.3045 36.1789C15.338 36.159 15.3761 36.1483 15.415 36.1477C15.4539 36.1472 15.4923 36.1568 15.5264 36.1757C15.5604 36.1947 15.5889 36.2222 15.609 36.2555C15.6291 36.2889 15.6401 36.327 15.6408 36.3659L15.6406 38.9772Z" fill="#FAFAFA"/>
<path d="M17.2212 38.9772C17.2212 39.0355 17.1981 39.0914 17.1568 39.1327C17.1156 39.1739 17.0597 39.197 17.0014 39.197C16.9431 39.197 16.8872 39.1739 16.846 39.1327C16.8047 39.0914 16.7816 39.0355 16.7816 38.9772V36.7617L16.5685 36.8935C16.5189 36.9241 16.4592 36.9338 16.4026 36.9204C16.3459 36.907 16.2968 36.8716 16.2662 36.8221C16.2356 36.7725 16.2259 36.7128 16.2393 36.6561C16.2527 36.5995 16.2881 36.5504 16.3377 36.5198L16.8849 36.1789C16.9183 36.159 16.9565 36.1483 16.9954 36.1477C17.0343 36.1472 17.0727 36.1568 17.1068 36.1757C17.1408 36.1947 17.1693 36.2222 17.1894 36.2555C17.2095 36.2889 17.2204 36.327 17.2212 36.3659V38.9772Z" fill="#FAFAFA"/>
<path d="M15.0273 36.4609H17.3191" stroke="#191919" stroke-width="0.343756" stroke-linecap="round" stroke-linejoin="round"/>
<path d="M16.1733 37.6081V35.3164" stroke="#191919" stroke-width="0.343756" stroke-linecap="round" stroke-linejoin="round"/>
<path d="M66.0584 51.9962C66.4273 51.9958 66.7809 51.849 67.0418 51.5882C67.3026 51.3273 67.4493 50.9737 67.4498 50.6048V50.1233C66.5296 50.2967 65.5846 50.2899 64.667 50.1035V50.6048C64.6674 50.9737 64.8142 51.3273 65.075 51.5882C65.3358 51.849 65.6895 51.9958 66.0584 51.9962Z" fill="#FAFAFA"/>
<path d="M71.7583 54.7504L70.6173 52.3522C70.4022 51.9032 70.023 51.5539 69.558 51.3761L68.6873 51.0443C68.3428 50.9424 68.0913 50.5377 67.8893 50.2617V50.5391C67.8975 50.7949 67.8523 51.0497 67.7566 51.2871C67.6609 51.5245 67.5167 51.7393 67.3333 51.9179C67.1499 52.0965 66.9313 52.2348 66.6914 52.3242C66.4515 52.4135 66.1957 52.4519 65.9402 52.4368C65.6846 52.4218 65.435 52.3536 65.2073 52.2367C64.9796 52.1197 64.7788 51.9566 64.6177 51.7577C64.4565 51.5589 64.3386 51.3286 64.2714 51.0816C64.2043 50.8345 64.1894 50.5763 64.2276 50.3232C64.077 50.6126 63.8308 50.841 63.5308 50.9694L62.7152 51.2618C62.2471 51.4274 61.8611 51.7677 61.6381 52.2113L60.3586 54.7504C60.3408 54.7889 60.3389 54.8329 60.3533 54.8727C60.3677 54.9126 60.3973 54.9452 60.4355 54.9635L62.1398 55.7385C62.1718 55.7531 62.2069 55.7598 62.242 55.758C62.2772 55.7563 62.3114 55.7461 62.3418 55.7284C62.3722 55.7107 62.3979 55.6859 62.4167 55.6562C62.4356 55.6265 62.447 55.5927 62.4501 55.5576L62.5127 54.8433C62.5193 54.786 62.5479 54.7335 62.5926 54.697C62.6372 54.6605 62.6944 54.6429 62.7518 54.6479C62.8093 54.653 62.8625 54.6802 62.9002 54.7239C62.9378 54.7676 62.9569 54.8243 62.9534 54.8818L62.4227 60.914C62.4225 60.9568 62.4311 60.9992 62.4479 61.0386C62.4647 61.078 62.4895 61.1136 62.5206 61.143C62.5517 61.1725 62.5885 61.1952 62.6287 61.2099C62.669 61.2246 62.7118 61.2308 62.7546 61.2283H69.3798C69.4228 61.2309 69.4658 61.2245 69.5062 61.2097C69.5466 61.1949 69.5836 61.172 69.6147 61.1423C69.6458 61.1126 69.6705 61.0768 69.6872 61.0371C69.7039 60.9974 69.7122 60.9548 69.7117 60.9117C69.6178 59.9051 69.2292 55.7999 69.1431 54.8831C69.1389 54.8257 69.1574 54.769 69.1946 54.7251C69.2318 54.6812 69.2846 54.6536 69.3419 54.6482C69.3992 54.6428 69.4563 54.66 69.501 54.6962C69.5457 54.7324 69.5745 54.7847 69.5811 54.8418L69.6478 55.5489C69.6511 55.5836 69.6626 55.6171 69.6814 55.6465C69.7002 55.6759 69.7257 55.7004 69.7559 55.718C69.786 55.7356 69.8199 55.7457 69.8547 55.7476C69.8896 55.7495 69.9244 55.7431 69.9562 55.7289L71.6813 54.9592C71.719 54.9414 71.7482 54.9096 71.7626 54.8705C71.777 54.8314 71.7754 54.7884 71.7583 54.7504ZM65.6406 58.9772C65.6389 59.0343 65.615 59.0885 65.574 59.1283C65.533 59.1681 65.4781 59.1903 65.4209 59.1903C65.3638 59.1903 65.3089 59.1681 65.2679 59.1283C65.2268 59.0885 65.2029 59.0343 65.2012 58.9772V56.7617L64.9879 56.8935C64.9384 56.9228 64.8794 56.9315 64.8235 56.9177C64.7676 56.9039 64.7194 56.8688 64.6892 56.8198C64.659 56.7709 64.6492 56.712 64.6619 56.6559C64.6747 56.5998 64.7089 56.5509 64.7573 56.5198L65.3045 56.1789C65.338 56.159 65.3761 56.1483 65.415 56.1477C65.4539 56.1472 65.4923 56.1568 65.5264 56.1757C65.5604 56.1947 65.5889 56.2222 65.609 56.2555C65.6291 56.2889 65.6401 56.327 65.6408 56.3659L65.6406 58.9772ZM67.2212 58.9772C67.2212 59.0355 67.1981 59.0914 67.1568 59.1327C67.1156 59.1739 67.0597 59.197 67.0014 59.197C66.9431 59.197 66.8872 59.1739 66.846 59.1327C66.8047 59.0914 66.7816 59.0355 66.7816 58.9772V56.7617L66.5685 56.8935C66.5189 56.9241 66.4592 56.9338 66.4026 56.9204C66.3459 56.907 66.2968 56.8716 66.2662 56.8221C66.2356 56.7725 66.2259 56.7128 66.2393 56.6561C66.2527 56.5995 66.2881 56.5504 66.3377 56.5198L66.8849 56.1789C66.9183 56.159 66.9565 56.1483 66.9954 56.1477C67.0343 56.1472 67.0727 56.1568 67.1068 56.1757C67.1408 56.1947 67.1693 56.2222 67.1894 56.2555C67.2095 56.2889 67.2204 56.327 67.2212 56.3659V58.9772Z" fill="#FAFAFA"/>
<path d="M65.6406 58.9772C65.6389 59.0343 65.615 59.0885 65.574 59.1283C65.533 59.1681 65.4781 59.1903 65.4209 59.1903C65.3638 59.1903 65.3089 59.1681 65.2679 59.1283C65.2268 59.0885 65.2029 59.0343 65.2012 58.9772V56.7617L64.9879 56.8935C64.9384 56.9228 64.8794 56.9315 64.8235 56.9177C64.7676 56.9039 64.7194 56.8688 64.6892 56.8198C64.659 56.7709 64.6492 56.712 64.6619 56.6559C64.6747 56.5998 64.7089 56.5509 64.7573 56.5198L65.3045 56.1789C65.338 56.159 65.3761 56.1483 65.415 56.1477C65.4539 56.1472 65.4923 56.1568 65.5264 56.1757C65.5604 56.1947 65.5889 56.2222 65.609 56.2555C65.6291 56.2889 65.6401 56.327 65.6408 56.3659L65.6406 58.9772Z" fill="#FAFAFA"/>
<path d="M67.2212 58.9772C67.2212 59.0355 67.1981 59.0914 67.1568 59.1327C67.1156 59.1739 67.0597 59.197 67.0014 59.197C66.9431 59.197 66.8872 59.1739 66.846 59.1327C66.8047 59.0914 66.7816 59.0355 66.7816 58.9772V56.7617L66.5685 56.8935C66.5189 56.9241 66.4592 56.9338 66.4026 56.9204C66.3459 56.907 66.2968 56.8716 66.2662 56.8221C66.2356 56.7725 66.2259 56.7128 66.2393 56.6561C66.2527 56.5995 66.2881 56.5504 66.3377 56.5198L66.8849 56.1789C66.9183 56.159 66.9565 56.1483 66.9954 56.1477C67.0343 56.1472 67.0727 56.1568 67.1068 56.1757C67.1408 56.1947 67.1693 56.2222 67.1894 56.2555C67.2095 56.2889 67.2204 56.327 67.2212 56.3659V58.9772Z" fill="#FAFAFA"/>
<path d="M65.0273 56.4609H67.3191" stroke="#191919" stroke-width="0.343756" stroke-linecap="round" stroke-linejoin="round"/>
<path d="M66.1733 57.6081V55.3164" stroke="#191919" stroke-width="0.343756" stroke-linecap="round" stroke-linejoin="round"/>
<path d="M66.0584 8.99618C66.4273 8.99575 66.7809 8.84902 67.0418 8.58818C67.3026 8.32734 67.4493 7.97368 67.4498 7.6048V7.12331C66.5296 7.29665 65.5846 7.28993 64.667 7.10352V7.6048C64.6674 7.97368 64.8142 8.32734 65.075 8.58818C65.3358 8.84902 65.6895 8.99575 66.0584 8.99618Z" fill="#FAFAFA"/>
<path d="M71.7583 11.7504L70.6173 9.35217C70.4022 8.90324 70.023 8.55392 69.558 8.37613L68.6873 8.04426C68.3428 7.94241 68.0913 7.53767 67.8893 7.26172V7.5391C67.8975 7.79494 67.8523 8.04969 67.7566 8.28709C67.6609 8.52449 67.5167 8.73932 67.3333 8.91789C67.1499 9.09646 66.9313 9.23483 66.6914 9.32418C66.4515 9.41353 66.1957 9.45189 65.9402 9.43682C65.6846 9.42175 65.435 9.35358 65.2073 9.23666C64.9796 9.11973 64.7788 8.95662 64.6177 8.75774C64.4565 8.55885 64.3386 8.32856 64.2714 8.08155C64.2043 7.83455 64.1894 7.57625 64.2276 7.32315C64.077 7.61265 63.8308 7.84101 63.5308 7.96935L62.7152 8.26184C62.2471 8.42743 61.8611 8.76766 61.6381 9.21133L60.3586 11.7504C60.3408 11.7889 60.3389 11.8329 60.3533 11.8727C60.3677 11.9126 60.3973 11.9452 60.4355 11.9635L62.1398 12.7385C62.1718 12.7531 62.2069 12.7598 62.242 12.758C62.2772 12.7563 62.3114 12.7461 62.3418 12.7284C62.3722 12.7107 62.3979 12.6859 62.4167 12.6562C62.4356 12.6265 62.447 12.5927 62.4501 12.5576L62.5127 11.8433C62.5193 11.786 62.5479 11.7335 62.5926 11.697C62.6372 11.6605 62.6944 11.6429 62.7518 11.6479C62.8093 11.653 62.8625 11.6802 62.9002 11.7239C62.9378 11.7676 62.9569 11.8243 62.9534 11.8818L62.4227 17.914C62.4225 17.9568 62.4311 17.9992 62.4479 18.0386C62.4647 18.078 62.4895 18.1136 62.5206 18.143C62.5517 18.1725 62.5885 18.1952 62.6287 18.2099C62.669 18.2246 62.7118 18.2308 62.7546 18.2283H69.3798C69.4228 18.2309 69.4658 18.2245 69.5062 18.2097C69.5466 18.1949 69.5836 18.172 69.6147 18.1423C69.6458 18.1126 69.6705 18.0768 69.6872 18.0371C69.7039 17.9974 69.7122 17.9548 69.7117 17.9117C69.6178 16.9051 69.2292 12.7999 69.1431 11.8831C69.1389 11.8257 69.1574 11.769 69.1946 11.7251C69.2318 11.6812 69.2846 11.6536 69.3419 11.6482C69.3992 11.6428 69.4563 11.66 69.501 11.6962C69.5457 11.7324 69.5745 11.7847 69.5811 11.8418L69.6478 12.5489C69.6511 12.5836 69.6626 12.6171 69.6814 12.6465C69.7002 12.6759 69.7257 12.7004 69.7559 12.718C69.786 12.7356 69.8199 12.7457 69.8547 12.7476C69.8896 12.7495 69.9244 12.7431 69.9562 12.7289L71.6813 11.9592C71.719 11.9414 71.7482 11.9096 71.7626 11.8705C71.777 11.8314 71.7754 11.7884 71.7583 11.7504ZM65.6406 15.9772C65.6389 16.0343 65.615 16.0885 65.574 16.1283C65.533 16.1681 65.4781 16.1903 65.4209 16.1903C65.3638 16.1903 65.3089 16.1681 65.2679 16.1283C65.2268 16.0885 65.2029 16.0343 65.2012 15.9772V13.7617L64.9879 13.8935C64.9384 13.9228 64.8794 13.9315 64.8235 13.9177C64.7676 13.9039 64.7194 13.8688 64.6892 13.8198C64.659 13.7709 64.6492 13.712 64.6619 13.6559C64.6747 13.5998 64.7089 13.5509 64.7573 13.5198L65.3045 13.1789C65.338 13.159 65.3761 13.1483 65.415 13.1477C65.4539 13.1472 65.4923 13.1568 65.5264 13.1757C65.5604 13.1947 65.5889 13.2222 65.609 13.2555C65.6291 13.2889 65.6401 13.327 65.6408 13.3659L65.6406 15.9772ZM67.2212 15.9772C67.2212 16.0355 67.1981 16.0914 67.1568 16.1327C67.1156 16.1739 67.0597 16.197 67.0014 16.197C66.9431 16.197 66.8872 16.1739 66.846 16.1327C66.8047 16.0914 66.7816 16.0355 66.7816 15.9772V13.7617L66.5685 13.8935C66.5189 13.9241 66.4592 13.9338 66.4026 13.9204C66.3459 13.907 66.2968 13.8716 66.2662 13.8221C66.2356 13.7725 66.2259 13.7128 66.2393 13.6561C66.2527 13.5995 66.2881 13.5504 66.3377 13.5198L66.8849 13.1789C66.9183 13.159 66.9565 13.1483 66.9954 13.1477C67.0343 13.1472 67.0727 13.1568 67.1068 13.1757C67.1408 13.1947 67.1693 13.2222 67.1894 13.2555C67.2095 13.2889 67.2204 13.327 67.2212 13.3659V15.9772Z" fill="#FAFAFA"/>
<path d="M65.6406 15.9772C65.6389 16.0343 65.615 16.0885 65.574 16.1283C65.533 16.1681 65.4781 16.1903 65.4209 16.1903C65.3638 16.1903 65.3089 16.1681 65.2679 16.1283C65.2268 16.0885 65.2029 16.0343 65.2012 15.9772V13.7617L64.9879 13.8935C64.9384 13.9228 64.8794 13.9315 64.8235 13.9177C64.7676 13.9039 64.7194 13.8688 64.6892 13.8198C64.659 13.7709 64.6492 13.712 64.6619 13.6559C64.6747 13.5998 64.7089 13.5509 64.7573 13.5198L65.3045 13.1789C65.338 13.159 65.3761 13.1483 65.415 13.1477C65.4539 13.1472 65.4923 13.1568 65.5264 13.1757C65.5604 13.1947 65.5889 13.2222 65.609 13.2555C65.6291 13.2889 65.6401 13.327 65.6408 13.3659L65.6406 15.9772Z" fill="#FAFAFA"/>
<path d="M67.2212 15.9772C67.2212 16.0355 67.1981 16.0914 67.1568 16.1327C67.1156 16.1739 67.0597 16.197 67.0014 16.197C66.9431 16.197 66.8872 16.1739 66.846 16.1327C66.8047 16.0914 66.7816 16.0355 66.7816 15.9772V13.7617L66.5685 13.8935C66.5189 13.9241 66.4592 13.9338 66.4026 13.9204C66.3459 13.907 66.2968 13.8716 66.2662 13.8221C66.2356 13.7725 66.2259 13.7128 66.2393 13.6561C66.2527 13.5995 66.2881 13.5504 66.3377 13.5198L66.8849 13.1789C66.9183 13.159 66.9565 13.1483 66.9954 13.1477C67.0343 13.1472 67.0727 13.1568 67.1068 13.1757C67.1408 13.1947 67.1693 13.2222 67.1894 13.2555C67.2095 13.2889 67.2204 13.327 67.2212 13.3659V15.9772Z" fill="#FAFAFA"/>
<path d="M65.0273 13.4609H67.3191" stroke="#191919" stroke-width="0.343756" stroke-linecap="round" stroke-linejoin="round"/>
<path d="M66.1733 14.6081V12.3164" stroke="#191919" stroke-width="0.343756" stroke-linecap="round" stroke-linejoin="round"/>
<path d="M66.0584 31.9962C66.4273 31.9958 66.7809 31.849 67.0418 31.5882C67.3026 31.3273 67.4493 30.9737 67.4498 30.6048V30.1233C66.5296 30.2967 65.5846 30.2899 64.667 30.1035V30.6048C64.6674 30.9737 64.8142 31.3273 65.075 31.5882C65.3358 31.849 65.6895 31.9958 66.0584 31.9962Z" fill="#FAFAFA"/>
<path d="M71.7583 34.7504L70.6173 32.3522C70.4022 31.9032 70.023 31.5539 69.558 31.3761L68.6873 31.0443C68.3428 30.9424 68.0913 30.5377 67.8893 30.2617V30.5391C67.8975 30.7949 67.8523 31.0497 67.7566 31.2871C67.6609 31.5245 67.5167 31.7393 67.3333 31.9179C67.1499 32.0965 66.9313 32.2348 66.6914 32.3242C66.4515 32.4135 66.1957 32.4519 65.9402 32.4368C65.6846 32.4218 65.435 32.3536 65.2073 32.2367C64.9796 32.1197 64.7788 31.9566 64.6177 31.7577C64.4565 31.5589 64.3386 31.3286 64.2714 31.0816C64.2043 30.8345 64.1894 30.5763 64.2276 30.3232C64.077 30.6126 63.8308 30.841 63.5308 30.9694L62.7152 31.2618C62.2471 31.4274 61.8611 31.7677 61.6381 32.2113L60.3586 34.7504C60.3408 34.7889 60.3389 34.8329 60.3533 34.8727C60.3677 34.9126 60.3973 34.9452 60.4355 34.9635L62.1398 35.7385C62.1718 35.7531 62.2069 35.7598 62.242 35.758C62.2772 35.7563 62.3114 35.7461 62.3418 35.7284C62.3722 35.7107 62.3979 35.6859 62.4167 35.6562C62.4356 35.6265 62.447 35.5927 62.4501 35.5576L62.5127 34.8433C62.5193 34.786 62.5479 34.7335 62.5926 34.697C62.6372 34.6605 62.6944 34.6429 62.7518 34.6479C62.8093 34.653 62.8625 34.6802 62.9002 34.7239C62.9378 34.7676 62.9569 34.8243 62.9534 34.8818L62.4227 40.914C62.4225 40.9568 62.4311 40.9992 62.4479 41.0386C62.4647 41.078 62.4895 41.1136 62.5206 41.143C62.5517 41.1725 62.5885 41.1952 62.6287 41.2099C62.669 41.2246 62.7118 41.2308 62.7546 41.2283H69.3798C69.4228 41.2309 69.4658 41.2245 69.5062 41.2097C69.5466 41.1949 69.5836 41.172 69.6147 41.1423C69.6458 41.1126 69.6705 41.0768 69.6872 41.0371C69.7039 40.9974 69.7122 40.9548 69.7117 40.9117C69.6178 39.9051 69.2292 35.7999 69.1431 34.8831C69.1389 34.8257 69.1574 34.769 69.1946 34.7251C69.2318 34.6812 69.2846 34.6536 69.3419 34.6482C69.3992 34.6428 69.4563 34.66 69.501 34.6962C69.5457 34.7324 69.5745 34.7847 69.5811 34.8418L69.6478 35.5489C69.6511 35.5836 69.6626 35.6171 69.6814 35.6465C69.7002 35.6759 69.7257 35.7004 69.7559 35.718C69.786 35.7356 69.8199 35.7457 69.8547 35.7476C69.8896 35.7495 69.9244 35.7431 69.9562 35.7289L71.6813 34.9592C71.719 34.9414 71.7482 34.9096 71.7626 34.8705C71.777 34.8314 71.7754 34.7884 71.7583 34.7504ZM65.6406 38.9772C65.6389 39.0343 65.615 39.0885 65.574 39.1283C65.533 39.1681 65.4781 39.1903 65.4209 39.1903C65.3638 39.1903 65.3089 39.1681 65.2679 39.1283C65.2268 39.0885 65.2029 39.0343 65.2012 38.9772V36.7617L64.9879 36.8935C64.9384 36.9228 64.8794 36.9315 64.8235 36.9177C64.7676 36.9039 64.7194 36.8688 64.6892 36.8198C64.659 36.7709 64.6492 36.712 64.6619 36.6559C64.6747 36.5998 64.7089 36.5509 64.7573 36.5198L65.3045 36.1789C65.338 36.159 65.3761 36.1483 65.415 36.1477C65.4539 36.1472 65.4923 36.1568 65.5264 36.1757C65.5604 36.1947 65.5889 36.2222 65.609 36.2555C65.6291 36.2889 65.6401 36.327 65.6408 36.3659L65.6406 38.9772ZM67.2212 38.9772C67.2212 39.0355 67.1981 39.0914 67.1568 39.1327C67.1156 39.1739 67.0597 39.197 67.0014 39.197C66.9431 39.197 66.8872 39.1739 66.846 39.1327C66.8047 39.0914 66.7816 39.0355 66.7816 38.9772V36.7617L66.5685 36.8935C66.5189 36.9241 66.4592 36.9338 66.4026 36.9204C66.3459 36.907 66.2968 36.8716 66.2662 36.8221C66.2356 36.7725 66.2259 36.7128 66.2393 36.6561C66.2527 36.5995 66.2881 36.5504 66.3377 36.5198L66.8849 36.1789C66.9183 36.159 66.9565 36.1483 66.9954 36.1477C67.0343 36.1472 67.0727 36.1568 67.1068 36.1757C67.1408 36.1947 67.1693 36.2222 67.1894 36.2555C67.2095 36.2889 67.2204 36.327 67.2212 36.3659V38.9772Z" fill="#FAFAFA"/>
<path d="M65.6406 38.9772C65.6389 39.0343 65.615 39.0885 65.574 39.1283C65.533 39.1681 65.4781 39.1903 65.4209 39.1903C65.3638 39.1903 65.3089 39.1681 65.2679 39.1283C65.2268 39.0885 65.2029 39.0343 65.2012 38.9772V36.7617L64.9879 36.8935C64.9384 36.9228 64.8794 36.9315 64.8235 36.9177C64.7676 36.9039 64.7194 36.8688 64.6892 36.8198C64.659 36.7709 64.6492 36.712 64.6619 36.6559C64.6747 36.5998 64.7089 36.5509 64.7573 36.5198L65.3045 36.1789C65.338 36.159 65.3761 36.1483 65.415 36.1477C65.4539 36.1472 65.4923 36.1568 65.5264 36.1757C65.5604 36.1947 65.5889 36.2222 65.609 36.2555C65.6291 36.2889 65.6401 36.327 65.6408 36.3659L65.6406 38.9772Z" fill="#FAFAFA"/>
<path d="M67.2212 38.9772C67.2212 39.0355 67.1981 39.0914 67.1568 39.1327C67.1156 39.1739 67.0597 39.197 67.0014 39.197C66.9431 39.197 66.8872 39.1739 66.846 39.1327C66.8047 39.0914 66.7816 39.0355 66.7816 38.9772V36.7617L66.5685 36.8935C66.5189 36.9241 66.4592 36.9338 66.4026 36.9204C66.3459 36.907 66.2968 36.8716 66.2662 36.8221C66.2356 36.7725 66.2259 36.7128 66.2393 36.6561C66.2527 36.5995 66.2881 36.5504 66.3377 36.5198L66.8849 36.1789C66.9183 36.159 66.9565 36.1483 66.9954 36.1477C67.0343 36.1472 67.0727 36.1568 67.1068 36.1757C67.1408 36.1947 67.1693 36.2222 67.1894 36.2555C67.2095 36.2889 67.2204 36.327 67.2212 36.3659V38.9772Z" fill="#FAFAFA"/>
<path d="M65.0273 36.4609H67.3191" stroke="#191919" stroke-width="0.343756" stroke-linecap="round" stroke-linejoin="round"/>
<path d="M66.1733 37.6081V35.3164" stroke="#191919" stroke-width="0.343756" stroke-linecap="round" stroke-linejoin="round"/>
</svg>
