<svg width="81" height="81" viewBox="0 0 81 81" fill="none" xmlns="http://www.w3.org/2000/svg">
<rect x="0.74398" y="0.118492" width="79.9807" height="79.9807" rx="5.88541" fill="#828284" stroke="#FAFAFA" stroke-width="0.229171"/>
<mask id="path-2-inside-1_8747_15178" fill="white">
<path d="M24.4631 66.4609H57.0054V80.2112H24.4631V66.4609Z"/>
</mask>
<path d="M24.4631 66.4609V66.2318H24.234V66.4609H24.4631ZM57.0054 66.4609H57.2346V66.2318H57.0054V66.4609ZM24.4631 66.6901H57.0054V66.2318H24.4631V66.6901ZM56.7762 66.4609V80.2112H57.2346V66.4609H56.7762ZM24.6923 80.2112V66.4609H24.234V80.2112H24.6923Z" fill="#FAFAFA" mask="url(#path-2-inside-1_8747_15178)"/>
<mask id="path-4-inside-2_8747_15178" fill="white">
<path d="M13.2339 55.0039H68.2349V80.2127H13.2339V55.0039Z"/>
</mask>
<path d="M13.2339 55.0039V54.7747H13.0047V55.0039H13.2339ZM68.2349 55.0039H68.4641V54.7747H68.2349V55.0039ZM13.2339 55.2331H68.2349V54.7747H13.2339V55.2331ZM68.0057 55.0039V80.2127H68.4641V55.0039H68.0057ZM13.4631 80.2127V55.0039H13.0047V80.2127H13.4631Z" fill="#FAFAFA" mask="url(#path-4-inside-2_8747_15178)"/>
<path d="M54.9429 9.53674e-07C54.9429 1.65523 54.5576 3.29426 53.809 4.8235C53.0604 6.35273 51.9631 7.74223 50.5799 8.91266C49.1967 10.0831 47.5545 11.0115 45.7472 11.645C43.94 12.2784 42.0029 12.6044 40.0467 12.6044C38.0906 12.6044 36.1535 12.2784 34.3463 11.645C32.539 11.0115 30.8968 10.0831 29.5136 8.91266C28.1304 7.74223 27.0331 6.35273 26.2845 4.8235C25.5359 3.29426 25.1506 1.65523 25.1506 0" stroke="#FAFAFA" stroke-width="0.229171"/>
<path d="M30.4215 57.9824C30.4215 57.0796 30.6882 56.1856 31.2065 55.3514C31.7248 54.5173 32.4844 53.7594 33.442 53.121C34.3996 52.4826 35.5365 51.9761 36.7877 51.6306C38.0389 51.2851 39.3799 51.1073 40.7342 51.1073C42.0885 51.1073 43.4295 51.2851 44.6807 51.6306C45.9319 51.9761 47.0687 52.4826 48.0264 53.121C48.984 53.7594 49.7436 54.5173 50.2619 55.3514C50.7801 56.1856 51.0469 57.0796 51.0469 57.9824" stroke="#FAFAFA" stroke-width="0.229171"/>
<rect x="28.1299" y="55.2305" width="26.1255" height="3.89591" fill="#828284"/>
<path d="M0.858398 76.5479C1.97493 76.4958 4.17886 77.1099 4.06235 79.9825" stroke="#FAFAFA" stroke-width="0.229171"/>
<path d="M80.6099 76.5479C79.4933 76.4958 77.2894 77.1099 77.4059 79.9825" stroke="#FAFAFA" stroke-width="0.229171"/>
<path d="M40.8484 67.4356C41.2173 67.4352 41.571 67.2885 41.8318 67.0276C42.0926 66.7668 42.2394 66.4131 42.2398 66.0443V65.5628C41.3197 65.7361 40.3746 65.7294 39.457 65.543V66.0443C39.4575 66.4131 39.6042 66.7668 39.865 67.0276C40.1259 67.2885 40.4795 67.4352 40.8484 67.4356Z" fill="#FAFAFA"/>
<path d="M46.5483 70.1899L45.4074 67.7916C45.1922 67.3427 44.8131 66.9934 44.3481 66.8156L43.4774 66.4837C43.1328 66.3819 42.8814 65.9771 42.6793 65.7012V65.9786C42.6875 66.2344 42.6424 66.4891 42.5466 66.7265C42.4509 66.9639 42.3067 67.1788 42.1233 67.3573C41.9399 67.5359 41.7213 67.6743 41.4815 67.7636C41.2416 67.853 40.9857 67.8913 40.7302 67.8763C40.4747 67.8612 40.2251 67.793 39.9974 67.6761C39.7697 67.5592 39.5688 67.3961 39.4077 67.1972C39.2466 66.9983 39.1286 66.768 39.0615 66.521C38.9943 66.274 38.9794 66.0157 39.0177 65.7626C38.8671 66.0521 38.6208 66.2805 38.3208 66.4088L37.5052 66.7013C37.0371 66.8669 36.6512 67.2071 36.4282 67.6508L35.1486 70.1899C35.1309 70.2284 35.129 70.2723 35.1434 70.3122C35.1578 70.3521 35.1873 70.3847 35.2256 70.4029L36.9299 71.1779C36.9619 71.1925 36.9969 71.1992 37.0321 71.1975C37.0672 71.1957 37.1014 71.1856 37.1318 71.1679C37.1622 71.1501 37.1879 71.1254 37.2068 71.0957C37.2256 71.066 37.237 71.0321 37.2401 70.9971L37.3028 70.2827C37.3093 70.2254 37.3379 70.1729 37.3826 70.1364C37.4273 70.1 37.4844 70.0823 37.5419 70.0874C37.5993 70.0924 37.6526 70.1197 37.6902 70.1634C37.7278 70.2071 37.7469 70.2637 37.7434 70.3213L37.2127 76.3534C37.2125 76.3963 37.2211 76.4387 37.2379 76.4781C37.2548 76.5175 37.2795 76.553 37.3106 76.5825C37.3417 76.6119 37.3785 76.6347 37.4188 76.6494C37.459 76.664 37.5019 76.6703 37.5446 76.6678H44.1699C44.2128 76.6703 44.2559 76.664 44.2963 76.6492C44.3367 76.6344 44.3736 76.6114 44.4047 76.5817C44.4359 76.552 44.4606 76.5162 44.4772 76.4766C44.4939 76.4369 44.5023 76.3942 44.5018 76.3512C44.4079 75.3445 44.0193 71.2394 43.9331 70.3225C43.929 70.2652 43.9475 70.2084 43.9846 70.1645C44.0218 70.1206 44.0747 70.093 44.132 70.0876C44.1892 70.0822 44.2463 70.0995 44.291 70.1357C44.3357 70.1719 44.3645 70.2242 44.3711 70.2813L44.4379 70.9883C44.4412 71.0231 44.4527 71.0565 44.4715 71.0859C44.4902 71.1153 44.5158 71.1398 44.5459 71.1574C44.576 71.175 44.6099 71.1852 44.6448 71.1871C44.6796 71.189 44.7144 71.1826 44.7463 71.1683L46.4714 70.3987C46.5091 70.3809 46.5382 70.349 46.5526 70.3099C46.567 70.2708 46.5655 70.2278 46.5483 70.1899ZM40.4307 74.4167C40.4289 74.4738 40.405 74.528 40.364 74.5678C40.323 74.6076 40.2681 74.6298 40.211 74.6298C40.1538 74.6298 40.0989 74.6076 40.0579 74.5678C40.0169 74.528 39.993 74.4738 39.9912 74.4167V72.2011L39.7779 72.333C39.7284 72.3623 39.6694 72.3709 39.6135 72.3572C39.5577 72.3434 39.5095 72.3082 39.4793 72.2593C39.449 72.2103 39.4392 72.1515 39.452 72.0954C39.4647 72.0392 39.4989 71.9904 39.5473 71.9592L40.0945 71.6184C40.128 71.5985 40.1661 71.5877 40.205 71.5872C40.244 71.5866 40.2824 71.5963 40.3164 71.6152C40.3505 71.6341 40.3789 71.6616 40.399 71.695C40.4191 71.7284 40.4301 71.7664 40.4309 71.8054L40.4307 74.4167ZM42.0113 74.4167C42.0113 74.475 41.9881 74.5309 41.9469 74.5721C41.9057 74.6133 41.8497 74.6365 41.7914 74.6365C41.7331 74.6365 41.6772 74.6133 41.636 74.5721C41.5948 74.5309 41.5716 74.475 41.5716 74.4167V72.2011L41.3585 72.333C41.309 72.3636 41.2493 72.3732 41.1926 72.3598C41.1359 72.3465 41.0869 72.3111 41.0563 72.2615C41.0256 72.212 41.016 72.1523 41.0294 72.0956C41.0428 72.0389 41.0781 71.9899 41.1277 71.9592L41.6749 71.6184C41.7084 71.5985 41.7465 71.5877 41.7854 71.5872C41.8244 71.5866 41.8628 71.5963 41.8968 71.6152C41.9309 71.6341 41.9593 71.6616 41.9794 71.695C41.9995 71.7284 42.0105 71.7664 42.0113 71.8054V74.4167Z" fill="#FAFAFA"/>
<path d="M40.4307 74.4167C40.4289 74.4738 40.405 74.528 40.364 74.5678C40.323 74.6076 40.2681 74.6298 40.211 74.6298C40.1538 74.6298 40.0989 74.6076 40.0579 74.5678C40.0169 74.528 39.993 74.4738 39.9912 74.4167V72.2011L39.7779 72.333C39.7284 72.3623 39.6694 72.3709 39.6135 72.3572C39.5577 72.3434 39.5095 72.3082 39.4793 72.2593C39.449 72.2103 39.4392 72.1515 39.452 72.0954C39.4647 72.0392 39.4989 71.9904 39.5473 71.9592L40.0945 71.6184C40.128 71.5985 40.1661 71.5877 40.205 71.5872C40.244 71.5866 40.2824 71.5963 40.3164 71.6152C40.3505 71.6341 40.3789 71.6616 40.399 71.695C40.4191 71.7284 40.4301 71.7664 40.4309 71.8054L40.4307 74.4167Z" fill="#FAFAFA"/>
<path d="M42.0113 74.4167C42.0113 74.475 41.9881 74.5309 41.9469 74.5721C41.9057 74.6133 41.8497 74.6365 41.7914 74.6365C41.7331 74.6365 41.6772 74.6133 41.636 74.5721C41.5948 74.5309 41.5716 74.475 41.5716 74.4167V72.2011L41.3585 72.333C41.309 72.3636 41.2493 72.3732 41.1926 72.3598C41.1359 72.3465 41.0869 72.3111 41.0563 72.2615C41.0256 72.212 41.016 72.1523 41.0294 72.0956C41.0428 72.0389 41.0781 71.9899 41.1277 71.9592L41.6749 71.6184C41.7084 71.5985 41.7465 71.5877 41.7854 71.5872C41.8244 71.5866 41.8628 71.5963 41.8968 71.6152C41.9309 71.6341 41.9593 71.6616 41.9794 71.695C41.9995 71.7284 42.0105 71.7664 42.0113 71.8054V74.4167Z" fill="#FAFAFA"/>
<path d="M39.8174 71.8965H42.1091" stroke="#191919" stroke-width="0.343756" stroke-linecap="round" stroke-linejoin="round"/>
<path d="M40.9634 73.0437V70.752" stroke="#191919" stroke-width="0.343756" stroke-linecap="round" stroke-linejoin="round"/>
<path d="M40.8484 7.43564C41.2173 7.43521 41.571 7.28847 41.8318 7.02763C42.0926 6.76679 42.2394 6.41314 42.2398 6.04425V5.56277C41.3197 5.7361 40.3746 5.72938 39.457 5.54297V6.04425C39.4575 6.41314 39.6042 6.76679 39.865 7.02763C40.1259 7.28847 40.4795 7.43521 40.8484 7.43564Z" fill="#FAFAFA"/>
<path d="M46.5483 10.1899L45.4074 7.79162C45.1922 7.34269 44.8131 6.99337 44.3481 6.81559L43.4774 6.48371C43.1328 6.38186 42.8814 5.97712 42.6793 5.70117V5.97855C42.6875 6.23439 42.6424 6.48914 42.5466 6.72654C42.4509 6.96394 42.3067 7.17878 42.1233 7.35734C41.9399 7.53591 41.7213 7.67428 41.4815 7.76363C41.2416 7.85298 40.9857 7.89135 40.7302 7.87628C40.4747 7.86121 40.2251 7.79303 39.9974 7.67611C39.7697 7.55918 39.5688 7.39608 39.4077 7.19719C39.2466 6.9983 39.1286 6.76801 39.0615 6.521C38.9943 6.274 38.9794 6.01571 39.0177 5.76261C38.8671 6.0521 38.6208 6.28046 38.3208 6.40881L37.5052 6.70129C37.0371 6.86688 36.6512 7.20712 36.4282 7.65079L35.1486 10.1899C35.1309 10.2284 35.129 10.2723 35.1434 10.3122C35.1578 10.3521 35.1873 10.3847 35.2256 10.4029L36.9299 11.1779C36.9619 11.1925 36.9969 11.1992 37.0321 11.1975C37.0672 11.1957 37.1014 11.1856 37.1318 11.1679C37.1622 11.1501 37.1879 11.1254 37.2068 11.0957C37.2256 11.066 37.237 11.0321 37.2401 10.9971L37.3028 10.2827C37.3093 10.2254 37.3379 10.1729 37.3826 10.1364C37.4273 10.1 37.4844 10.0823 37.5419 10.0874C37.5993 10.0924 37.6526 10.1197 37.6902 10.1634C37.7278 10.2071 37.7469 10.2637 37.7434 10.3213L37.2127 16.3534C37.2125 16.3963 37.2211 16.4387 37.2379 16.4781C37.2548 16.5175 37.2795 16.553 37.3106 16.5825C37.3417 16.6119 37.3785 16.6347 37.4188 16.6494C37.459 16.664 37.5019 16.6703 37.5446 16.6678H44.1699C44.2128 16.6703 44.2559 16.664 44.2963 16.6492C44.3367 16.6344 44.3736 16.6114 44.4047 16.5817C44.4359 16.552 44.4606 16.5162 44.4772 16.4766C44.4939 16.4369 44.5023 16.3942 44.5018 16.3512C44.4079 15.3445 44.0193 11.2394 43.9331 10.3225C43.929 10.2652 43.9475 10.2084 43.9846 10.1645C44.0218 10.1206 44.0747 10.093 44.132 10.0876C44.1892 10.0822 44.2463 10.0995 44.291 10.1357C44.3357 10.1719 44.3645 10.2242 44.3711 10.2813L44.4379 10.9883C44.4412 11.0231 44.4527 11.0565 44.4715 11.0859C44.4902 11.1153 44.5158 11.1398 44.5459 11.1574C44.576 11.175 44.6099 11.1852 44.6448 11.1871C44.6796 11.189 44.7144 11.1826 44.7463 11.1683L46.4714 10.3987C46.5091 10.3809 46.5382 10.349 46.5526 10.3099C46.567 10.2708 46.5655 10.2278 46.5483 10.1899ZM40.4307 14.4167C40.4289 14.4738 40.405 14.528 40.364 14.5678C40.323 14.6076 40.2681 14.6298 40.211 14.6298C40.1538 14.6298 40.0989 14.6076 40.0579 14.5678C40.0169 14.528 39.993 14.4738 39.9912 14.4167V12.2011L39.7779 12.333C39.7284 12.3623 39.6694 12.3709 39.6135 12.3572C39.5577 12.3434 39.5095 12.3082 39.4793 12.2593C39.449 12.2103 39.4392 12.1515 39.452 12.0954C39.4647 12.0392 39.4989 11.9904 39.5473 11.9592L40.0945 11.6184C40.128 11.5985 40.1661 11.5877 40.205 11.5872C40.244 11.5866 40.2824 11.5963 40.3164 11.6152C40.3505 11.6341 40.3789 11.6616 40.399 11.695C40.4191 11.7284 40.4301 11.7664 40.4309 11.8054L40.4307 14.4167ZM42.0113 14.4167C42.0113 14.475 41.9881 14.5309 41.9469 14.5721C41.9057 14.6133 41.8497 14.6365 41.7914 14.6365C41.7331 14.6365 41.6772 14.6133 41.636 14.5721C41.5948 14.5309 41.5716 14.475 41.5716 14.4167V12.2011L41.3585 12.333C41.309 12.3636 41.2493 12.3732 41.1926 12.3598C41.1359 12.3465 41.0869 12.3111 41.0563 12.2615C41.0256 12.212 41.016 12.1523 41.0294 12.0956C41.0428 12.0389 41.0781 11.9899 41.1277 11.9592L41.6749 11.6184C41.7084 11.5985 41.7465 11.5877 41.7854 11.5872C41.8244 11.5866 41.8628 11.5963 41.8968 11.6152C41.9309 11.6341 41.9593 11.6616 41.9794 11.695C41.9995 11.7284 42.0105 11.7664 42.0113 11.8054V14.4167Z" fill="#FAFAFA"/>
<path d="M40.4307 14.4167C40.4289 14.4738 40.405 14.528 40.364 14.5678C40.323 14.6076 40.2681 14.6298 40.211 14.6298C40.1538 14.6298 40.0989 14.6076 40.0579 14.5678C40.0169 14.528 39.993 14.4738 39.9912 14.4167V12.2011L39.7779 12.333C39.7284 12.3623 39.6694 12.3709 39.6135 12.3572C39.5577 12.3434 39.5095 12.3082 39.4793 12.2593C39.449 12.2103 39.4392 12.1515 39.452 12.0954C39.4647 12.0392 39.4989 11.9904 39.5473 11.9592L40.0945 11.6184C40.128 11.5985 40.1661 11.5877 40.205 11.5872C40.244 11.5866 40.2824 11.5963 40.3164 11.6152C40.3505 11.6341 40.3789 11.6616 40.399 11.695C40.4191 11.7284 40.4301 11.7664 40.4309 11.8054L40.4307 14.4167Z" fill="#FAFAFA"/>
<path d="M42.0113 14.4167C42.0113 14.475 41.9881 14.5309 41.9469 14.5721C41.9057 14.6133 41.8497 14.6365 41.7914 14.6365C41.7331 14.6365 41.6772 14.6133 41.636 14.5721C41.5948 14.5309 41.5716 14.475 41.5716 14.4167V12.2011L41.3585 12.333C41.309 12.3636 41.2493 12.3732 41.1926 12.3598C41.1359 12.3465 41.0869 12.3111 41.0563 12.2615C41.0256 12.212 41.016 12.1523 41.0294 12.0956C41.0428 12.0389 41.0781 11.9899 41.1277 11.9592L41.6749 11.6184C41.7084 11.5985 41.7465 11.5877 41.7854 11.5872C41.8244 11.5866 41.8628 11.5963 41.8968 11.6152C41.9309 11.6341 41.9593 11.6616 41.9794 11.695C41.9995 11.7284 42.0105 11.7664 42.0113 11.8054V14.4167Z" fill="#FAFAFA"/>
<path d="M39.8174 11.8965H42.1091" stroke="#191919" stroke-width="0.343756" stroke-linecap="round" stroke-linejoin="round"/>
<path d="M40.9634 13.0437V10.752" stroke="#191919" stroke-width="0.343756" stroke-linecap="round" stroke-linejoin="round"/>
<path d="M50.8689 31.5372C51.2378 31.5368 51.5915 31.39 51.8523 31.1292C52.1131 30.8684 52.2599 30.5147 52.2603 30.1458V29.6643C51.3402 29.8377 50.3951 29.8309 49.4775 29.6445V30.1458C49.478 30.5147 49.6247 30.8684 49.8855 31.1292C50.1464 31.39 50.5 31.5368 50.8689 31.5372Z" fill="#FAFAFA"/>
<path d="M56.5688 34.2914L55.4279 31.8932C55.2127 31.4443 54.8336 31.0949 54.3686 30.9171L53.4979 30.5853C53.1533 30.4834 52.9019 30.0787 52.6998 29.8027V30.0801C52.708 30.336 52.6629 30.5907 52.5671 30.8281C52.4714 31.0655 52.3273 31.2803 52.1438 31.4589C51.9604 31.6375 51.7418 31.7758 51.502 31.8652C51.2621 31.9545 51.0062 31.9929 50.7507 31.9778C50.4952 31.9628 50.2456 31.8946 50.0179 31.7777C49.7902 31.6607 49.5893 31.4976 49.4282 31.2988C49.2671 31.0999 49.1491 30.8696 49.082 30.6226C49.0148 30.3756 48.9999 30.1173 49.0382 29.8642C48.8876 30.1537 48.6413 30.382 48.3413 30.5104L47.5257 30.8029C47.0576 30.9684 46.6717 31.3087 46.4487 31.7523L45.1691 34.2914C45.1514 34.3299 45.1495 34.3739 45.1639 34.4138C45.1783 34.4536 45.2078 34.4862 45.2461 34.5045L46.9504 35.2795C46.9824 35.2941 47.0174 35.3008 47.0526 35.2991C47.0877 35.2973 47.1219 35.2871 47.1523 35.2694C47.1827 35.2517 47.2084 35.2269 47.2273 35.1972C47.2461 35.1675 47.2575 35.1337 47.2606 35.0987L47.3233 34.3843C47.3298 34.327 47.3584 34.2745 47.4031 34.238C47.4478 34.2015 47.5049 34.1839 47.5624 34.1889C47.6198 34.194 47.6731 34.2212 47.7107 34.2649C47.7484 34.3086 47.7675 34.3653 47.7639 34.4229L47.2333 40.455C47.233 40.4978 47.2416 40.5403 47.2584 40.5797C47.2753 40.6191 47.3 40.6546 47.3311 40.684C47.3622 40.7135 47.399 40.7363 47.4393 40.7509C47.4795 40.7656 47.5224 40.7719 47.5651 40.7693H54.1904C54.2333 40.7719 54.2764 40.7655 54.3168 40.7507C54.3572 40.7359 54.3941 40.713 54.4252 40.6833C54.4564 40.6536 54.4811 40.6178 54.4978 40.5781C54.5144 40.5385 54.5228 40.4958 54.5223 40.4528C54.4284 39.4461 54.0398 35.3409 53.9536 34.4241C53.9495 34.3667 53.968 34.31 54.0051 34.2661C54.0423 34.2222 54.0952 34.1946 54.1525 34.1892C54.2097 34.1838 54.2668 34.2011 54.3115 34.2373C54.3562 34.2735 54.385 34.3257 54.3916 34.3829L54.4584 35.0899C54.4617 35.1246 54.4732 35.1581 54.492 35.1875C54.5108 35.2169 54.5363 35.2414 54.5664 35.259C54.5965 35.2766 54.6304 35.2868 54.6653 35.2886C54.7001 35.2905 54.7349 35.2841 54.7668 35.2699L56.4919 34.5002C56.5296 34.4824 56.5587 34.4506 56.5731 34.4115C56.5875 34.3724 56.586 34.3294 56.5688 34.2914ZM50.4512 38.5182C50.4494 38.5754 50.4255 38.6295 50.3845 38.6693C50.3435 38.7091 50.2886 38.7314 50.2315 38.7314C50.1743 38.7314 50.1194 38.7091 50.0784 38.6693C50.0374 38.6295 50.0135 38.5754 50.0117 38.5182V36.3027L49.7985 36.4345C49.7489 36.4638 49.6899 36.4725 49.634 36.4587C49.5782 36.4449 49.53 36.4098 49.4998 36.3608C49.4695 36.3119 49.4597 36.253 49.4725 36.1969C49.4852 36.1408 49.5194 36.0919 49.5678 36.0608L50.115 35.72C50.1485 35.7001 50.1866 35.6893 50.2256 35.6887C50.2645 35.6882 50.3029 35.6978 50.3369 35.7168C50.371 35.7357 50.3995 35.7632 50.4195 35.7966C50.4396 35.8299 50.4506 35.868 50.4514 35.9069L50.4512 38.5182ZM52.0318 38.5182C52.0318 38.5765 52.0086 38.6325 51.9674 38.6737C51.9262 38.7149 51.8703 38.7381 51.812 38.7381C51.7537 38.7381 51.6977 38.7149 51.6565 38.6737C51.6153 38.6325 51.5921 38.5765 51.5921 38.5182V36.3027L51.379 36.4345C51.3295 36.4651 51.2698 36.4748 51.2131 36.4614C51.1564 36.448 51.1074 36.4126 51.0768 36.3631C51.0462 36.3135 51.0365 36.2538 51.0499 36.1972C51.0633 36.1405 51.0986 36.0914 51.1482 36.0608L51.6954 35.72C51.7289 35.7001 51.767 35.6893 51.8059 35.6887C51.8449 35.6882 51.8833 35.6978 51.9173 35.7168C51.9514 35.7357 51.9798 35.7632 51.9999 35.7966C52.02 35.8299 52.031 35.868 52.0318 35.9069V38.5182Z" fill="#FAFAFA"/>
<path d="M50.4512 38.5182C50.4494 38.5754 50.4255 38.6295 50.3845 38.6693C50.3435 38.7091 50.2886 38.7314 50.2315 38.7314C50.1743 38.7314 50.1194 38.7091 50.0784 38.6693C50.0374 38.6295 50.0135 38.5754 50.0117 38.5182V36.3027L49.7985 36.4345C49.7489 36.4638 49.6899 36.4725 49.634 36.4587C49.5782 36.4449 49.53 36.4098 49.4998 36.3608C49.4695 36.3119 49.4597 36.253 49.4725 36.1969C49.4852 36.1408 49.5194 36.0919 49.5678 36.0608L50.115 35.72C50.1485 35.7001 50.1866 35.6893 50.2256 35.6887C50.2645 35.6882 50.3029 35.6978 50.3369 35.7168C50.371 35.7357 50.3995 35.7632 50.4195 35.7966C50.4396 35.8299 50.4506 35.868 50.4514 35.9069L50.4512 38.5182Z" fill="#FAFAFA"/>
<path d="M52.0318 38.5182C52.0318 38.5765 52.0086 38.6325 51.9674 38.6737C51.9262 38.7149 51.8703 38.7381 51.812 38.7381C51.7537 38.7381 51.6977 38.7149 51.6565 38.6737C51.6153 38.6325 51.5921 38.5765 51.5921 38.5182V36.3027L51.379 36.4345C51.3295 36.4651 51.2698 36.4748 51.2131 36.4614C51.1564 36.448 51.1074 36.4126 51.0768 36.3631C51.0462 36.3135 51.0365 36.2538 51.0499 36.1972C51.0633 36.1405 51.0986 36.0914 51.1482 36.0608L51.6954 35.72C51.7289 35.7001 51.767 35.6893 51.8059 35.6887C51.8449 35.6882 51.8833 35.6978 51.9173 35.7168C51.9514 35.7357 51.9798 35.7632 51.9999 35.7966C52.02 35.8299 52.031 35.868 52.0318 35.9069V38.5182Z" fill="#FAFAFA"/>
<path d="M49.8379 36.002H52.1296" stroke="#191919" stroke-width="0.343756" stroke-linecap="round" stroke-linejoin="round"/>
<path d="M50.9839 37.1491V34.8574" stroke="#191919" stroke-width="0.343756" stroke-linecap="round" stroke-linejoin="round"/>
<path d="M11.8689 31.5372C12.2378 31.5368 12.5915 31.39 12.8523 31.1292C13.1131 30.8684 13.2599 30.5147 13.2603 30.1458V29.6643C12.3402 29.8377 11.3951 29.8309 10.4775 29.6445V30.1458C10.478 30.5147 10.6247 30.8684 10.8855 31.1292C11.1464 31.39 11.5 31.5368 11.8689 31.5372Z" fill="#FAFAFA"/>
<path d="M17.5688 34.2914L16.4279 31.8932C16.2127 31.4443 15.8336 31.0949 15.3686 30.9171L14.4979 30.5853C14.1533 30.4834 13.9019 30.0787 13.6998 29.8027V30.0801C13.708 30.336 13.6629 30.5907 13.5671 30.8281C13.4714 31.0655 13.3273 31.2803 13.1438 31.4589C12.9604 31.6375 12.7418 31.7758 12.502 31.8652C12.2621 31.9545 12.0062 31.9929 11.7507 31.9778C11.4952 31.9628 11.2456 31.8946 11.0179 31.7777C10.7902 31.6607 10.5893 31.4976 10.4282 31.2988C10.2671 31.0999 10.1491 30.8696 10.082 30.6226C10.0148 30.3756 9.99991 30.1173 10.0382 29.8642C9.88759 30.1537 9.64135 30.382 9.34134 30.5104L8.52574 30.8029C8.05761 30.9684 7.67166 31.3087 7.44867 31.7523L6.16914 34.2914C6.15137 34.3299 6.14948 34.3739 6.16388 34.4138C6.17828 34.4536 6.20782 34.4862 6.24608 34.5045L7.95036 35.2795C7.98238 35.2941 8.01743 35.3008 8.05257 35.2991C8.08771 35.2973 8.12192 35.2871 8.15232 35.2694C8.18272 35.2517 8.20842 35.2269 8.22726 35.1972C8.24611 35.1675 8.25754 35.1337 8.26061 35.0987L8.32327 34.3843C8.3298 34.327 8.35845 34.2745 8.40312 34.238C8.44778 34.2015 8.50493 34.1839 8.56239 34.1889C8.61984 34.194 8.67306 34.2212 8.71071 34.2649C8.74836 34.3086 8.76745 34.3653 8.76393 34.4229L8.23325 40.455C8.23304 40.4978 8.24161 40.5403 8.25844 40.5797C8.27528 40.6191 8.30001 40.6546 8.33111 40.684C8.36222 40.7135 8.39903 40.7363 8.43928 40.7509C8.47953 40.7656 8.52237 40.7719 8.56513 40.7693H15.1904C15.2333 40.7719 15.2764 40.7655 15.3168 40.7507C15.3572 40.7359 15.3941 40.713 15.4252 40.6833C15.4564 40.6536 15.4811 40.6178 15.4978 40.5781C15.5144 40.5385 15.5228 40.4958 15.5223 40.4528C15.4284 39.4461 15.0398 35.3409 14.9536 34.4241C14.9495 34.3667 14.968 34.31 15.0051 34.2661C15.0423 34.2222 15.0952 34.1946 15.1525 34.1892C15.2097 34.1838 15.2668 34.2011 15.3115 34.2373C15.3562 34.2735 15.385 34.3257 15.3916 34.3829L15.4584 35.0899C15.4617 35.1246 15.4732 35.1581 15.492 35.1875C15.5108 35.2169 15.5363 35.2414 15.5664 35.259C15.5965 35.2766 15.6304 35.2868 15.6653 35.2886C15.7001 35.2905 15.7349 35.2841 15.7668 35.2699L17.4919 34.5002C17.5296 34.4824 17.5587 34.4506 17.5731 34.4115C17.5875 34.3724 17.586 34.3294 17.5688 34.2914ZM11.4512 38.5182C11.4494 38.5754 11.4255 38.6295 11.3845 38.6693C11.3435 38.7091 11.2886 38.7314 11.2315 38.7314C11.1743 38.7314 11.1194 38.7091 11.0784 38.6693C11.0374 38.6295 11.0135 38.5754 11.0117 38.5182V36.3027L10.7985 36.4345C10.7489 36.4638 10.6899 36.4725 10.634 36.4587C10.5782 36.4449 10.53 36.4098 10.4998 36.3608C10.4695 36.3119 10.4597 36.253 10.4725 36.1969C10.4852 36.1408 10.5194 36.0919 10.5678 36.0608L11.115 35.72C11.1485 35.7001 11.1866 35.6893 11.2256 35.6887C11.2645 35.6882 11.3029 35.6978 11.3369 35.7168C11.371 35.7357 11.3995 35.7632 11.4195 35.7966C11.4396 35.8299 11.4506 35.868 11.4514 35.9069L11.4512 38.5182ZM13.0318 38.5182C13.0318 38.5765 13.0086 38.6325 12.9674 38.6737C12.9262 38.7149 12.8703 38.7381 12.812 38.7381C12.7537 38.7381 12.6977 38.7149 12.6565 38.6737C12.6153 38.6325 12.5921 38.5765 12.5921 38.5182V36.3027L12.379 36.4345C12.3295 36.4651 12.2698 36.4748 12.2131 36.4614C12.1564 36.448 12.1074 36.4126 12.0768 36.3631C12.0462 36.3135 12.0365 36.2538 12.0499 36.1972C12.0633 36.1405 12.0986 36.0914 12.1482 36.0608L12.6954 35.72C12.7289 35.7001 12.767 35.6893 12.8059 35.6887C12.8449 35.6882 12.8833 35.6978 12.9173 35.7168C12.9514 35.7357 12.9798 35.7632 12.9999 35.7966C13.02 35.8299 13.031 35.868 13.0318 35.9069V38.5182Z" fill="#FAFAFA"/>
<path d="M11.4512 38.5182C11.4494 38.5754 11.4255 38.6295 11.3845 38.6693C11.3435 38.7091 11.2886 38.7314 11.2315 38.7314C11.1743 38.7314 11.1194 38.7091 11.0784 38.6693C11.0374 38.6295 11.0135 38.5754 11.0117 38.5182V36.3027L10.7985 36.4345C10.7489 36.4638 10.6899 36.4725 10.634 36.4587C10.5782 36.4449 10.53 36.4098 10.4998 36.3608C10.4695 36.3119 10.4597 36.253 10.4725 36.1969C10.4852 36.1408 10.5194 36.0919 10.5678 36.0608L11.115 35.72C11.1485 35.7001 11.1866 35.6893 11.2256 35.6887C11.2645 35.6882 11.3029 35.6978 11.3369 35.7168C11.371 35.7357 11.3995 35.7632 11.4195 35.7966C11.4396 35.8299 11.4506 35.868 11.4514 35.9069L11.4512 38.5182Z" fill="#FAFAFA"/>
<path d="M13.0318 38.5182C13.0318 38.5765 13.0086 38.6325 12.9674 38.6737C12.9262 38.7149 12.8703 38.7381 12.812 38.7381C12.7537 38.7381 12.6977 38.7149 12.6565 38.6737C12.6153 38.6325 12.5921 38.5765 12.5921 38.5182V36.3027L12.379 36.4345C12.3295 36.4651 12.2698 36.4748 12.2131 36.4614C12.1564 36.448 12.1074 36.4126 12.0768 36.3631C12.0462 36.3135 12.0365 36.2538 12.0499 36.1972C12.0633 36.1405 12.0986 36.0914 12.1482 36.0608L12.6954 35.72C12.7289 35.7001 12.767 35.6893 12.8059 35.6887C12.8449 35.6882 12.8833 35.6978 12.9173 35.7168C12.9514 35.7357 12.9798 35.7632 12.9999 35.7966C13.02 35.8299 13.031 35.868 13.0318 35.9069V38.5182Z" fill="#FAFAFA"/>
<path d="M10.8379 36.002H13.1296" stroke="#191919" stroke-width="0.343756" stroke-linecap="round" stroke-linejoin="round"/>
<path d="M11.9839 37.1491V34.8574" stroke="#191919" stroke-width="0.343756" stroke-linecap="round" stroke-linejoin="round"/>
<g clip-path="url(#clip0_8747_15178)">
<path d="M70.5989 31.5372C70.9678 31.5368 71.3214 31.39 71.5823 31.1292C71.8431 30.8684 71.9899 30.5147 71.9903 30.1458V29.6643C71.0701 29.8377 70.1251 29.8309 69.2075 29.6445V30.1458C69.208 30.5147 69.3547 30.8684 69.6155 31.1292C69.8764 31.39 70.23 31.5368 70.5989 31.5372Z" fill="#FAFAFA"/>
<path d="M76.2988 34.2914L75.1579 31.8932C74.9427 31.4443 74.5636 31.0949 74.0986 30.9171L73.2278 30.5853C72.8833 30.4834 72.6319 30.0787 72.4298 29.8027V30.0801C72.438 30.336 72.3928 30.5907 72.2971 30.8281C72.2014 31.0655 72.0572 31.2803 71.8738 31.4589C71.6904 31.6375 71.4718 31.7758 71.2319 31.8652C70.9921 31.9545 70.7362 31.9929 70.4807 31.9778C70.2252 31.9628 69.9756 31.8946 69.7479 31.7777C69.5202 31.6607 69.3193 31.4976 69.1582 31.2988C68.997 31.0999 68.8791 30.8696 68.812 30.6226C68.7448 30.3756 68.7299 30.1173 68.7681 29.8642C68.6176 30.1537 68.3713 30.382 68.0713 30.5104L67.2557 30.8029C66.7876 30.9684 66.4016 31.3087 66.1787 31.7523L64.8991 34.2914C64.8813 34.3299 64.8795 34.3739 64.8939 34.4138C64.9083 34.4536 64.9378 34.4862 64.9761 34.5045L66.6803 35.2795C66.7124 35.2941 66.7474 35.3008 66.7825 35.2991C66.8177 35.2973 66.8519 35.2871 66.8823 35.2694C66.9127 35.2517 66.9384 35.2269 66.9572 35.1972C66.9761 35.1675 66.9875 35.1337 66.9906 35.0987L67.0532 34.3843C67.0598 34.327 67.0884 34.2745 67.1331 34.238C67.1778 34.2015 67.2349 34.1839 67.2924 34.1889C67.3498 34.194 67.403 34.2212 67.4407 34.2649C67.4783 34.3086 67.4974 34.3653 67.4939 34.4229L66.9632 40.455C66.963 40.4978 66.9716 40.5403 66.9884 40.5797C67.0053 40.6191 67.03 40.6546 67.0611 40.684C67.0922 40.7135 67.129 40.7363 67.1693 40.7509C67.2095 40.7656 67.2523 40.7719 67.2951 40.7693H73.9204C73.9633 40.7719 74.0063 40.7655 74.0468 40.7507C74.0872 40.7359 74.1241 40.713 74.1552 40.6833C74.1864 40.6536 74.211 40.6178 74.2277 40.5781C74.2444 40.5385 74.2528 40.4958 74.2522 40.4528C74.1584 39.4461 73.7697 35.3409 73.6836 34.4241C73.6795 34.3667 73.698 34.31 73.7351 34.2661C73.7723 34.2222 73.8252 34.1946 73.8824 34.1892C73.9397 34.1838 73.9968 34.2011 74.0415 34.2373C74.0862 34.2735 74.115 34.3257 74.1216 34.3829L74.1884 35.0899C74.1917 35.1246 74.2032 35.1581 74.2219 35.1875C74.2407 35.2169 74.2663 35.2414 74.2964 35.259C74.3265 35.2766 74.3604 35.2868 74.3953 35.2886C74.4301 35.2905 74.4649 35.2841 74.4968 35.2699L76.2219 34.5002C76.2595 34.4824 76.2887 34.4506 76.3031 34.4115C76.3175 34.3724 76.316 34.3294 76.2988 34.2914ZM70.1812 38.5182C70.1794 38.5754 70.1555 38.6295 70.1145 38.6693C70.0735 38.7091 70.0186 38.7314 69.9614 38.7314C69.9043 38.7314 69.8494 38.7091 69.8084 38.6693C69.7674 38.6295 69.7435 38.5754 69.7417 38.5182V36.3027L69.5284 36.4345C69.4789 36.4638 69.4199 36.4725 69.364 36.4587C69.3082 36.4449 69.26 36.4098 69.2297 36.3608C69.1995 36.3119 69.1897 36.253 69.2025 36.1969C69.2152 36.1408 69.2494 36.0919 69.2978 36.0608L69.845 35.72C69.8785 35.7001 69.9166 35.6893 69.9555 35.6887C69.9945 35.6882 70.0329 35.6978 70.0669 35.7168C70.101 35.7357 70.1294 35.7632 70.1495 35.7966C70.1696 35.8299 70.1806 35.868 70.1814 35.9069L70.1812 38.5182ZM71.7618 38.5182C71.7618 38.5765 71.7386 38.6325 71.6974 38.6737C71.6561 38.7149 71.6002 38.7381 71.5419 38.7381C71.4836 38.7381 71.4277 38.7149 71.3865 38.6737C71.3453 38.6325 71.3221 38.5765 71.3221 38.5182V36.3027L71.109 36.4345C71.0595 36.4651 70.9998 36.4748 70.9431 36.4614C70.8864 36.448 70.8374 36.4126 70.8067 36.3631C70.7761 36.3135 70.7665 36.2538 70.7799 36.1972C70.7933 36.1405 70.8286 36.0914 70.8782 36.0608L71.4254 35.72C71.4589 35.7001 71.497 35.6893 71.5359 35.6887C71.5749 35.6882 71.6133 35.6978 71.6473 35.7168C71.6813 35.7357 71.7098 35.7632 71.7299 35.7966C71.75 35.8299 71.761 35.868 71.7618 35.9069V38.5182Z" fill="#FAFAFA"/>
<path d="M70.1812 38.5182C70.1794 38.5754 70.1555 38.6295 70.1145 38.6693C70.0735 38.7091 70.0186 38.7314 69.9614 38.7314C69.9043 38.7314 69.8494 38.7091 69.8084 38.6693C69.7674 38.6295 69.7435 38.5754 69.7417 38.5182V36.3027L69.5284 36.4345C69.4789 36.4638 69.4199 36.4725 69.364 36.4587C69.3082 36.4449 69.26 36.4098 69.2297 36.3608C69.1995 36.3119 69.1897 36.253 69.2025 36.1969C69.2152 36.1408 69.2494 36.0919 69.2978 36.0608L69.845 35.72C69.8785 35.7001 69.9166 35.6893 69.9555 35.6887C69.9945 35.6882 70.0329 35.6978 70.0669 35.7168C70.101 35.7357 70.1294 35.7632 70.1495 35.7966C70.1696 35.8299 70.1806 35.868 70.1814 35.9069L70.1812 38.5182Z" fill="#FAFAFA"/>
<path d="M71.7618 38.5182C71.7618 38.5765 71.7386 38.6325 71.6974 38.6737C71.6561 38.7149 71.6002 38.7381 71.5419 38.7381C71.4836 38.7381 71.4277 38.7149 71.3865 38.6737C71.3453 38.6325 71.3221 38.5765 71.3221 38.5182V36.3027L71.109 36.4345C71.0595 36.4651 70.9998 36.4748 70.9431 36.4614C70.8864 36.448 70.8374 36.4126 70.8067 36.3631C70.7761 36.3135 70.7665 36.2538 70.7799 36.1972C70.7933 36.1405 70.8286 36.0914 70.8782 36.0608L71.4254 35.72C71.4589 35.7001 71.497 35.6893 71.5359 35.6887C71.5749 35.6882 71.6133 35.6978 71.6473 35.7168C71.6813 35.7357 71.7098 35.7632 71.7299 35.7966C71.75 35.8299 71.761 35.868 71.7618 35.9069V38.5182Z" fill="#FAFAFA"/>
<path d="M69.5679 36.002H71.8596" stroke="#191919" stroke-width="0.343756" stroke-linecap="round" stroke-linejoin="round"/>
<path d="M70.7139 37.1491V34.8574" stroke="#191919" stroke-width="0.343756" stroke-linecap="round" stroke-linejoin="round"/>
</g>
<g clip-path="url(#clip1_8747_15178)">
<path d="M31.5989 31.5372C31.9678 31.5368 32.3214 31.39 32.5823 31.1292C32.8431 30.8684 32.9899 30.5147 32.9903 30.1458V29.6643C32.0701 29.8377 31.1251 29.8309 30.2075 29.6445V30.1458C30.208 30.5147 30.3547 30.8684 30.6155 31.1292C30.8764 31.39 31.23 31.5368 31.5989 31.5372Z" fill="#FAFAFA"/>
<path d="M37.2988 34.2914L36.1579 31.8932C35.9427 31.4443 35.5636 31.0949 35.0986 30.9171L34.2278 30.5853C33.8833 30.4834 33.6319 30.0787 33.4298 29.8027V30.0801C33.438 30.336 33.3928 30.5907 33.2971 30.8281C33.2014 31.0655 33.0572 31.2803 32.8738 31.4589C32.6904 31.6375 32.4718 31.7758 32.2319 31.8652C31.9921 31.9545 31.7362 31.9929 31.4807 31.9778C31.2252 31.9628 30.9756 31.8946 30.7479 31.7777C30.5202 31.6607 30.3193 31.4976 30.1582 31.2988C29.997 31.0999 29.8791 30.8696 29.812 30.6226C29.7448 30.3756 29.7299 30.1173 29.7681 29.8642C29.6176 30.1537 29.3713 30.382 29.0713 30.5104L28.2557 30.8029C27.7876 30.9684 27.4016 31.3087 27.1787 31.7523L25.8991 34.2914C25.8813 34.3299 25.8795 34.3739 25.8939 34.4138C25.9083 34.4536 25.9378 34.4862 25.9761 34.5045L27.6803 35.2795C27.7124 35.2941 27.7474 35.3008 27.7825 35.2991C27.8177 35.2973 27.8519 35.2871 27.8823 35.2694C27.9127 35.2517 27.9384 35.2269 27.9572 35.1972C27.9761 35.1675 27.9875 35.1337 27.9906 35.0987L28.0532 34.3843C28.0598 34.327 28.0884 34.2745 28.1331 34.238C28.1778 34.2015 28.2349 34.1839 28.2924 34.1889C28.3498 34.194 28.403 34.2212 28.4407 34.2649C28.4783 34.3086 28.4974 34.3653 28.4939 34.4229L27.9632 40.455C27.963 40.4978 27.9716 40.5403 27.9884 40.5797C28.0053 40.6191 28.03 40.6546 28.0611 40.684C28.0922 40.7135 28.129 40.7363 28.1693 40.7509C28.2095 40.7656 28.2523 40.7719 28.2951 40.7693H34.9204C34.9633 40.7719 35.0063 40.7655 35.0468 40.7507C35.0872 40.7359 35.1241 40.713 35.1552 40.6833C35.1864 40.6536 35.211 40.6178 35.2277 40.5781C35.2444 40.5385 35.2528 40.4958 35.2522 40.4528C35.1584 39.4461 34.7697 35.3409 34.6836 34.4241C34.6795 34.3667 34.698 34.31 34.7351 34.2661C34.7723 34.2222 34.8252 34.1946 34.8824 34.1892C34.9397 34.1838 34.9968 34.2011 35.0415 34.2373C35.0862 34.2735 35.115 34.3257 35.1216 34.3829L35.1884 35.0899C35.1917 35.1246 35.2032 35.1581 35.2219 35.1875C35.2407 35.2169 35.2663 35.2414 35.2964 35.259C35.3265 35.2766 35.3604 35.2868 35.3953 35.2886C35.4301 35.2905 35.4649 35.2841 35.4968 35.2699L37.2219 34.5002C37.2595 34.4824 37.2887 34.4506 37.3031 34.4115C37.3175 34.3724 37.316 34.3294 37.2988 34.2914ZM31.1812 38.5182C31.1794 38.5754 31.1555 38.6295 31.1145 38.6693C31.0735 38.7091 31.0186 38.7314 30.9614 38.7314C30.9043 38.7314 30.8494 38.7091 30.8084 38.6693C30.7674 38.6295 30.7435 38.5754 30.7417 38.5182V36.3027L30.5284 36.4345C30.4789 36.4638 30.4199 36.4725 30.364 36.4587C30.3082 36.4449 30.26 36.4098 30.2297 36.3608C30.1995 36.3119 30.1897 36.253 30.2025 36.1969C30.2152 36.1408 30.2494 36.0919 30.2978 36.0608L30.845 35.72C30.8785 35.7001 30.9166 35.6893 30.9555 35.6887C30.9945 35.6882 31.0329 35.6978 31.0669 35.7168C31.101 35.7357 31.1294 35.7632 31.1495 35.7966C31.1696 35.8299 31.1806 35.868 31.1814 35.9069L31.1812 38.5182ZM32.7618 38.5182C32.7618 38.5765 32.7386 38.6325 32.6974 38.6737C32.6561 38.7149 32.6002 38.7381 32.5419 38.7381C32.4836 38.7381 32.4277 38.7149 32.3865 38.6737C32.3453 38.6325 32.3221 38.5765 32.3221 38.5182V36.3027L32.109 36.4345C32.0595 36.4651 31.9998 36.4748 31.9431 36.4614C31.8864 36.448 31.8374 36.4126 31.8067 36.3631C31.7761 36.3135 31.7665 36.2538 31.7799 36.1972C31.7933 36.1405 31.8286 36.0914 31.8782 36.0608L32.4254 35.72C32.4589 35.7001 32.497 35.6893 32.5359 35.6887C32.5749 35.6882 32.6133 35.6978 32.6473 35.7168C32.6813 35.7357 32.7098 35.7632 32.7299 35.7966C32.75 35.8299 32.761 35.868 32.7618 35.9069V38.5182Z" fill="#FAFAFA"/>
<path d="M31.1812 38.5182C31.1794 38.5754 31.1555 38.6295 31.1145 38.6693C31.0735 38.7091 31.0186 38.7314 30.9614 38.7314C30.9043 38.7314 30.8494 38.7091 30.8084 38.6693C30.7674 38.6295 30.7435 38.5754 30.7417 38.5182V36.3027L30.5284 36.4345C30.4789 36.4638 30.4199 36.4725 30.364 36.4587C30.3082 36.4449 30.26 36.4098 30.2297 36.3608C30.1995 36.3119 30.1897 36.253 30.2025 36.1969C30.2152 36.1408 30.2494 36.0919 30.2978 36.0608L30.845 35.72C30.8785 35.7001 30.9166 35.6893 30.9555 35.6887C30.9945 35.6882 31.0329 35.6978 31.0669 35.7168C31.101 35.7357 31.1294 35.7632 31.1495 35.7966C31.1696 35.8299 31.1806 35.868 31.1814 35.9069L31.1812 38.5182Z" fill="#FAFAFA"/>
<path d="M32.7618 38.5182C32.7618 38.5765 32.7386 38.6325 32.6974 38.6737C32.6561 38.7149 32.6002 38.7381 32.5419 38.7381C32.4836 38.7381 32.4277 38.7149 32.3865 38.6737C32.3453 38.6325 32.3221 38.5765 32.3221 38.5182V36.3027L32.109 36.4345C32.0595 36.4651 31.9998 36.4748 31.9431 36.4614C31.8864 36.448 31.8374 36.4126 31.8067 36.3631C31.7761 36.3135 31.7665 36.2538 31.7799 36.1972C31.7933 36.1405 31.8286 36.0914 31.8782 36.0608L32.4254 35.72C32.4589 35.7001 32.497 35.6893 32.5359 35.6887C32.5749 35.6882 32.6133 35.6978 32.6473 35.7168C32.6813 35.7357 32.7098 35.7632 32.7299 35.7966C32.75 35.8299 32.761 35.868 32.7618 35.9069V38.5182Z" fill="#FAFAFA"/>
<path d="M30.5679 36.002H32.8596" stroke="#191919" stroke-width="0.343756" stroke-linecap="round" stroke-linejoin="round"/>
<path d="M31.7139 37.1491V34.8574" stroke="#191919" stroke-width="0.343756" stroke-linecap="round" stroke-linejoin="round"/>
</g>
<path d="M15.8484 51.9962C16.2173 51.9958 16.571 51.849 16.8318 51.5882C17.0926 51.3273 17.2394 50.9737 17.2398 50.6048V50.1233C16.3197 50.2967 15.3746 50.2899 14.457 50.1035V50.6048C14.4575 50.9737 14.6042 51.3273 14.865 51.5882C15.1259 51.849 15.4795 51.9958 15.8484 51.9962Z" fill="#FAFAFA"/>
<path d="M21.5483 54.7504L20.4074 52.3522C20.1922 51.9032 19.8131 51.5539 19.3481 51.3761L18.4774 51.0443C18.1328 50.9424 17.8814 50.5377 17.6793 50.2617V50.5391C17.6875 50.7949 17.6424 51.0497 17.5466 51.2871C17.4509 51.5245 17.3067 51.7393 17.1233 51.9179C16.9399 52.0965 16.7213 52.2348 16.4815 52.3242C16.2416 52.4135 15.9857 52.4519 15.7302 52.4368C15.4747 52.4218 15.2251 52.3536 14.9974 52.2367C14.7697 52.1197 14.5688 51.9566 14.4077 51.7577C14.2466 51.5589 14.1286 51.3286 14.0615 51.0816C13.9943 50.8345 13.9794 50.5763 14.0177 50.3232C13.8671 50.6126 13.6208 50.841 13.3208 50.9694L12.5052 51.2618C12.0371 51.4274 11.6512 51.7677 11.4282 52.2113L10.1486 54.7504C10.1309 54.7889 10.129 54.8329 10.1434 54.8727C10.1578 54.9126 10.1873 54.9452 10.2256 54.9635L11.9299 55.7385C11.9619 55.7531 11.9969 55.7598 12.0321 55.758C12.0672 55.7563 12.1014 55.7461 12.1318 55.7284C12.1622 55.7107 12.1879 55.6859 12.2068 55.6562C12.2256 55.6265 12.237 55.5927 12.2401 55.5576L12.3028 54.8433C12.3093 54.786 12.3379 54.7335 12.3826 54.697C12.4273 54.6605 12.4844 54.6429 12.5419 54.6479C12.5993 54.653 12.6526 54.6802 12.6902 54.7239C12.7278 54.7676 12.7469 54.8243 12.7434 54.8818L12.2127 60.914C12.2125 60.9568 12.2211 60.9992 12.2379 61.0386C12.2548 61.078 12.2795 61.1136 12.3106 61.143C12.3417 61.1725 12.3785 61.1952 12.4188 61.2099C12.459 61.2246 12.5019 61.2308 12.5446 61.2283H19.1699C19.2128 61.2309 19.2559 61.2245 19.2963 61.2097C19.3367 61.1949 19.3736 61.172 19.4047 61.1423C19.4359 61.1126 19.4606 61.0768 19.4772 61.0371C19.4939 60.9974 19.5023 60.9548 19.5018 60.9117C19.4079 59.9051 19.0193 55.7999 18.9331 54.8831C18.929 54.8257 18.9475 54.769 18.9846 54.7251C19.0218 54.6812 19.0747 54.6536 19.132 54.6482C19.1892 54.6428 19.2463 54.66 19.291 54.6962C19.3357 54.7324 19.3645 54.7847 19.3711 54.8418L19.4379 55.5489C19.4412 55.5836 19.4527 55.6171 19.4715 55.6465C19.4902 55.6759 19.5158 55.7004 19.5459 55.718C19.576 55.7356 19.6099 55.7457 19.6448 55.7476C19.6796 55.7495 19.7144 55.7431 19.7463 55.7289L21.4714 54.9592C21.5091 54.9414 21.5382 54.9096 21.5526 54.8705C21.567 54.8314 21.5655 54.7884 21.5483 54.7504ZM15.4307 58.9772C15.4289 59.0343 15.405 59.0885 15.364 59.1283C15.323 59.1681 15.2681 59.1903 15.211 59.1903C15.1538 59.1903 15.0989 59.1681 15.0579 59.1283C15.0169 59.0885 14.993 59.0343 14.9912 58.9772V56.7617L14.7779 56.8935C14.7284 56.9228 14.6694 56.9315 14.6135 56.9177C14.5577 56.9039 14.5095 56.8688 14.4793 56.8198C14.449 56.7709 14.4392 56.712 14.452 56.6559C14.4647 56.5998 14.4989 56.5509 14.5473 56.5198L15.0945 56.1789C15.128 56.159 15.1661 56.1483 15.205 56.1477C15.244 56.1472 15.2824 56.1568 15.3164 56.1757C15.3505 56.1947 15.3789 56.2222 15.399 56.2555C15.4191 56.2889 15.4301 56.327 15.4309 56.3659L15.4307 58.9772ZM17.0113 58.9772C17.0113 59.0355 16.9881 59.0914 16.9469 59.1327C16.9057 59.1739 16.8497 59.197 16.7914 59.197C16.7331 59.197 16.6772 59.1739 16.636 59.1327C16.5948 59.0914 16.5716 59.0355 16.5716 58.9772V56.7617L16.3585 56.8935C16.309 56.9241 16.2493 56.9338 16.1926 56.9204C16.1359 56.907 16.0869 56.8716 16.0563 56.8221C16.0256 56.7725 16.016 56.7128 16.0294 56.6561C16.0428 56.5995 16.0781 56.5504 16.1277 56.5198L16.6749 56.1789C16.7084 56.159 16.7465 56.1483 16.7854 56.1477C16.8244 56.1472 16.8628 56.1568 16.8968 56.1757C16.9309 56.1947 16.9593 56.2222 16.9794 56.2555C16.9995 56.2889 17.0105 56.327 17.0113 56.3659V58.9772Z" fill="#FAFAFA"/>
<path d="M15.4307 58.9772C15.4289 59.0343 15.405 59.0885 15.364 59.1283C15.323 59.1681 15.2681 59.1903 15.211 59.1903C15.1538 59.1903 15.0989 59.1681 15.0579 59.1283C15.0169 59.0885 14.993 59.0343 14.9912 58.9772V56.7617L14.7779 56.8935C14.7284 56.9228 14.6694 56.9315 14.6135 56.9177C14.5577 56.9039 14.5095 56.8688 14.4793 56.8198C14.449 56.7709 14.4392 56.712 14.452 56.6559C14.4647 56.5998 14.4989 56.5509 14.5473 56.5198L15.0945 56.1789C15.128 56.159 15.1661 56.1483 15.205 56.1477C15.244 56.1472 15.2824 56.1568 15.3164 56.1757C15.3505 56.1947 15.3789 56.2222 15.399 56.2555C15.4191 56.2889 15.4301 56.327 15.4309 56.3659L15.4307 58.9772Z" fill="#FAFAFA"/>
<path d="M17.0113 58.9772C17.0113 59.0355 16.9881 59.0914 16.9469 59.1327C16.9057 59.1739 16.8497 59.197 16.7914 59.197C16.7331 59.197 16.6772 59.1739 16.636 59.1327C16.5948 59.0914 16.5716 59.0355 16.5716 58.9772V56.7617L16.3585 56.8935C16.309 56.9241 16.2493 56.9338 16.1926 56.9204C16.1359 56.907 16.0869 56.8716 16.0563 56.8221C16.0256 56.7725 16.016 56.7128 16.0294 56.6561C16.0428 56.5995 16.0781 56.5504 16.1277 56.5198L16.6749 56.1789C16.7084 56.159 16.7465 56.1483 16.7854 56.1477C16.8244 56.1472 16.8628 56.1568 16.8968 56.1757C16.9309 56.1947 16.9593 56.2222 16.9794 56.2555C16.9995 56.2889 17.0105 56.327 17.0113 56.3659V58.9772Z" fill="#FAFAFA"/>
<path d="M14.8174 56.4609H17.1091" stroke="#191919" stroke-width="0.343756" stroke-linecap="round" stroke-linejoin="round"/>
<path d="M15.9634 57.6081V55.3164" stroke="#191919" stroke-width="0.343756" stroke-linecap="round" stroke-linejoin="round"/>
<path d="M65.8484 51.9962C66.2173 51.9958 66.571 51.849 66.8318 51.5882C67.0926 51.3273 67.2394 50.9737 67.2398 50.6048V50.1233C66.3197 50.2967 65.3746 50.2899 64.457 50.1035V50.6048C64.4575 50.9737 64.6042 51.3273 64.865 51.5882C65.1259 51.849 65.4795 51.9958 65.8484 51.9962Z" fill="#FAFAFA"/>
<path d="M71.5483 54.7504L70.4074 52.3522C70.1922 51.9032 69.8131 51.5539 69.3481 51.3761L68.4774 51.0443C68.1328 50.9424 67.8814 50.5377 67.6793 50.2617V50.5391C67.6875 50.7949 67.6424 51.0497 67.5466 51.2871C67.4509 51.5245 67.3067 51.7393 67.1233 51.9179C66.9399 52.0965 66.7213 52.2348 66.4815 52.3242C66.2416 52.4135 65.9857 52.4519 65.7302 52.4368C65.4747 52.4218 65.2251 52.3536 64.9974 52.2367C64.7697 52.1197 64.5688 51.9566 64.4077 51.7577C64.2466 51.5589 64.1286 51.3286 64.0615 51.0816C63.9943 50.8345 63.9794 50.5763 64.0177 50.3232C63.8671 50.6126 63.6208 50.841 63.3208 50.9694L62.5052 51.2618C62.0371 51.4274 61.6512 51.7677 61.4282 52.2113L60.1486 54.7504C60.1309 54.7889 60.129 54.8329 60.1434 54.8727C60.1578 54.9126 60.1873 54.9452 60.2256 54.9635L61.9299 55.7385C61.9619 55.7531 61.9969 55.7598 62.0321 55.758C62.0672 55.7563 62.1014 55.7461 62.1318 55.7284C62.1622 55.7107 62.1879 55.6859 62.2068 55.6562C62.2256 55.6265 62.237 55.5927 62.2401 55.5576L62.3028 54.8433C62.3093 54.786 62.3379 54.7335 62.3826 54.697C62.4273 54.6605 62.4844 54.6429 62.5419 54.6479C62.5993 54.653 62.6526 54.6802 62.6902 54.7239C62.7278 54.7676 62.7469 54.8243 62.7434 54.8818L62.2127 60.914C62.2125 60.9568 62.2211 60.9992 62.2379 61.0386C62.2548 61.078 62.2795 61.1136 62.3106 61.143C62.3417 61.1725 62.3785 61.1952 62.4188 61.2099C62.459 61.2246 62.5019 61.2308 62.5446 61.2283H69.1699C69.2128 61.2309 69.2559 61.2245 69.2963 61.2097C69.3367 61.1949 69.3736 61.172 69.4047 61.1423C69.4359 61.1126 69.4606 61.0768 69.4772 61.0371C69.4939 60.9974 69.5023 60.9548 69.5018 60.9117C69.4079 59.9051 69.0193 55.7999 68.9331 54.8831C68.929 54.8257 68.9475 54.769 68.9846 54.7251C69.0218 54.6812 69.0747 54.6536 69.132 54.6482C69.1892 54.6428 69.2463 54.66 69.291 54.6962C69.3357 54.7324 69.3645 54.7847 69.3711 54.8418L69.4379 55.5489C69.4412 55.5836 69.4527 55.6171 69.4715 55.6465C69.4902 55.6759 69.5158 55.7004 69.5459 55.718C69.576 55.7356 69.6099 55.7457 69.6448 55.7476C69.6796 55.7495 69.7144 55.7431 69.7463 55.7289L71.4714 54.9592C71.5091 54.9414 71.5382 54.9096 71.5526 54.8705C71.567 54.8314 71.5655 54.7884 71.5483 54.7504ZM65.4307 58.9772C65.4289 59.0343 65.405 59.0885 65.364 59.1283C65.323 59.1681 65.2681 59.1903 65.211 59.1903C65.1538 59.1903 65.0989 59.1681 65.0579 59.1283C65.0169 59.0885 64.993 59.0343 64.9912 58.9772V56.7617L64.7779 56.8935C64.7284 56.9228 64.6694 56.9315 64.6135 56.9177C64.5577 56.9039 64.5095 56.8688 64.4793 56.8198C64.449 56.7709 64.4392 56.712 64.452 56.6559C64.4647 56.5998 64.4989 56.5509 64.5473 56.5198L65.0945 56.1789C65.128 56.159 65.1661 56.1483 65.205 56.1477C65.244 56.1472 65.2824 56.1568 65.3164 56.1757C65.3505 56.1947 65.3789 56.2222 65.399 56.2555C65.4191 56.2889 65.4301 56.327 65.4309 56.3659L65.4307 58.9772ZM67.0113 58.9772C67.0113 59.0355 66.9881 59.0914 66.9469 59.1327C66.9057 59.1739 66.8497 59.197 66.7914 59.197C66.7331 59.197 66.6772 59.1739 66.636 59.1327C66.5948 59.0914 66.5716 59.0355 66.5716 58.9772V56.7617L66.3585 56.8935C66.309 56.9241 66.2493 56.9338 66.1926 56.9204C66.1359 56.907 66.0869 56.8716 66.0563 56.8221C66.0256 56.7725 66.016 56.7128 66.0294 56.6561C66.0428 56.5995 66.0781 56.5504 66.1277 56.5198L66.6749 56.1789C66.7084 56.159 66.7465 56.1483 66.7854 56.1477C66.8244 56.1472 66.8628 56.1568 66.8968 56.1757C66.9309 56.1947 66.9593 56.2222 66.9794 56.2555C66.9995 56.2889 67.0105 56.327 67.0113 56.3659V58.9772Z" fill="#FAFAFA"/>
<path d="M65.4307 58.9772C65.4289 59.0343 65.405 59.0885 65.364 59.1283C65.323 59.1681 65.2681 59.1903 65.211 59.1903C65.1538 59.1903 65.0989 59.1681 65.0579 59.1283C65.0169 59.0885 64.993 59.0343 64.9912 58.9772V56.7617L64.7779 56.8935C64.7284 56.9228 64.6694 56.9315 64.6135 56.9177C64.5577 56.9039 64.5095 56.8688 64.4793 56.8198C64.449 56.7709 64.4392 56.712 64.452 56.6559C64.4647 56.5998 64.4989 56.5509 64.5473 56.5198L65.0945 56.1789C65.128 56.159 65.1661 56.1483 65.205 56.1477C65.244 56.1472 65.2824 56.1568 65.3164 56.1757C65.3505 56.1947 65.3789 56.2222 65.399 56.2555C65.4191 56.2889 65.4301 56.327 65.4309 56.3659L65.4307 58.9772Z" fill="#FAFAFA"/>
<path d="M67.0113 58.9772C67.0113 59.0355 66.9881 59.0914 66.9469 59.1327C66.9057 59.1739 66.8497 59.197 66.7914 59.197C66.7331 59.197 66.6772 59.1739 66.636 59.1327C66.5948 59.0914 66.5716 59.0355 66.5716 58.9772V56.7617L66.3585 56.8935C66.309 56.9241 66.2493 56.9338 66.1926 56.9204C66.1359 56.907 66.0869 56.8716 66.0563 56.8221C66.0256 56.7725 66.016 56.7128 66.0294 56.6561C66.0428 56.5995 66.0781 56.5504 66.1277 56.5198L66.6749 56.1789C66.7084 56.159 66.7465 56.1483 66.7854 56.1477C66.8244 56.1472 66.8628 56.1568 66.8968 56.1757C66.9309 56.1947 66.9593 56.2222 66.9794 56.2555C66.9995 56.2889 67.0105 56.327 67.0113 56.3659V58.9772Z" fill="#FAFAFA"/>
<path d="M64.8174 56.4609H67.1091" stroke="#191919" stroke-width="0.343756" stroke-linecap="round" stroke-linejoin="round"/>
<path d="M65.9634 57.6081V55.3164" stroke="#191919" stroke-width="0.343756" stroke-linecap="round" stroke-linejoin="round"/>
<defs>
<clipPath id="clip0_8747_15178">
<rect width="13.0627" height="13.0627" fill="white" transform="translate(64.0679 28.6699)"/>
</clipPath>
<clipPath id="clip1_8747_15178">
<rect width="13.0627" height="13.0627" fill="white" transform="translate(25.0679 28.6699)"/>
</clipPath>
</defs>
</svg>
