<svg width="81" height="81" viewBox="0 0 81 81" fill="none" xmlns="http://www.w3.org/2000/svg">
<rect x="0.324546" y="0.118492" width="79.9807" height="79.9807" rx="5.88541" fill="#828284" stroke="#FAFAFA" stroke-width="0.229171"/>
<mask id="path-2-inside-1_8747_15101" fill="white">
<path d="M24.0437 66.4609H56.586V80.2112H24.0437V66.4609Z"/>
</mask>
<path d="M24.0437 66.4609V66.2318H23.8145V66.4609H24.0437ZM56.586 66.4609H56.8152V66.2318H56.586V66.4609ZM24.0437 66.6901H56.586V66.2318H24.0437V66.6901ZM56.3568 66.4609V80.2112H56.8152V66.4609H56.3568ZM24.2729 80.2112V66.4609H23.8145V80.2112H24.2729Z" fill="#FAFAFA" mask="url(#path-2-inside-1_8747_15101)"/>
<mask id="path-4-inside-2_8747_15101" fill="white">
<path d="M12.8145 55.0039H67.8155V80.2127H12.8145V55.0039Z"/>
</mask>
<path d="M12.8145 55.0039V54.7747H12.5853V55.0039H12.8145ZM67.8155 55.0039H68.0447V54.7747H67.8155V55.0039ZM12.8145 55.2331H67.8155V54.7747H12.8145V55.2331ZM67.5863 55.0039V80.2127H68.0447V55.0039H67.5863ZM13.0436 80.2127V55.0039H12.5853V80.2127H13.0436Z" fill="#FAFAFA" mask="url(#path-4-inside-2_8747_15101)"/>
<path d="M54.5234 9.53674e-07C54.5234 1.65523 54.1381 3.29426 53.3895 4.8235C52.6409 6.35273 51.5437 7.74223 50.1605 8.91266C48.7772 10.0831 47.1351 11.0115 45.3278 11.645C43.5205 12.2784 41.5835 12.6044 39.6273 12.6044C37.6711 12.6044 35.7341 12.2784 33.9268 11.645C32.1195 11.0115 30.4774 10.0831 29.0942 8.91266C27.7109 7.74223 26.6137 6.35273 25.8651 4.8235C25.1165 3.29426 24.7312 1.65523 24.7312 0" stroke="#FAFAFA" stroke-width="0.229171"/>
<path d="M30.7872 55.3516C31.3054 54.5174 32.065 53.7595 33.0227 53.1211C33.9803 52.4827 35.1172 51.9763 36.3683 51.6308C37.6195 51.2853 38.9606 51.1074 40.3148 51.1074C41.6691 51.1074 43.0101 51.2853 44.2613 51.6308C45.5125 51.9763 46.6494 52.4827 47.607 53.1211C48.5646 53.7595 49.3243 54.5174 49.8425 55.3516" stroke="#FAFAFA" stroke-width="0.229171"/>
<path d="M0.438965 76.5479C1.55549 76.4958 3.75942 77.1099 3.64292 79.9825" stroke="#FAFAFA" stroke-width="0.229171"/>
<path d="M80.1904 76.5479C79.0739 76.4958 76.87 77.1099 76.9865 79.9825" stroke="#FAFAFA" stroke-width="0.229171"/>
<g clip-path="url(#clip0_8747_15101)">
<path d="M40.429 65.4356C40.7979 65.4352 41.1515 65.2885 41.4124 65.0276C41.6732 64.7668 41.8199 64.4131 41.8204 64.0443V63.5628C40.9002 63.7361 39.9552 63.7294 39.0376 63.543V64.0443C39.038 64.4131 39.1848 64.7668 39.4456 65.0276C39.7064 65.2885 40.0601 65.4352 40.429 65.4356Z" fill="#FAFAFA"/>
<path d="M46.1289 68.1899L44.9879 65.7916C44.7728 65.3427 44.3936 64.9934 43.9286 64.8156L43.0579 64.4837C42.7134 64.3819 42.4619 63.9771 42.2599 63.7012V63.9786C42.2681 64.2344 42.2229 64.4891 42.1272 64.7265C42.0315 64.9639 41.8873 65.1788 41.7039 65.3573C41.5205 65.5359 41.3019 65.6743 41.062 65.7636C40.8222 65.853 40.5663 65.8913 40.3108 65.8763C40.0552 65.8612 39.8056 65.793 39.5779 65.6761C39.3502 65.5592 39.1494 65.3961 38.9883 65.1972C38.8271 64.9983 38.7092 64.768 38.6421 64.521C38.5749 64.274 38.56 64.0157 38.5982 63.7626C38.4477 64.0521 38.2014 64.2805 37.9014 64.4088L37.0858 64.7013C36.6177 64.8669 36.2317 65.2071 36.0087 65.6508L34.7292 68.1899C34.7114 68.2284 34.7095 68.2723 34.7239 68.3122C34.7383 68.3521 34.7679 68.3847 34.8061 68.4029L36.5104 69.1779C36.5424 69.1925 36.5775 69.1992 36.6126 69.1975C36.6478 69.1957 36.682 69.1856 36.7124 69.1679C36.7428 69.1501 36.7685 69.1254 36.7873 69.0957C36.8062 69.066 36.8176 69.0321 36.8207 68.9971L36.8833 68.2827C36.8899 68.2254 36.9185 68.1729 36.9632 68.1364C37.0078 68.1 37.065 68.0823 37.1224 68.0874C37.1799 68.0924 37.2331 68.1197 37.2708 68.1634C37.3084 68.2071 37.3275 68.2637 37.324 68.3213L36.7933 74.3534C36.7931 74.3963 36.8017 74.4387 36.8185 74.4781C36.8353 74.5175 36.8601 74.553 36.8912 74.5825C36.9223 74.6119 36.9591 74.6347 36.9993 74.6494C37.0396 74.664 37.0824 74.6703 37.1252 74.6678H43.7504C43.7934 74.6703 43.8364 74.664 43.8768 74.6492C43.9172 74.6344 43.9542 74.6114 43.9853 74.5817C44.0164 74.552 44.0411 74.5162 44.0578 74.4766C44.0745 74.4369 44.0828 74.3942 44.0823 74.3512C43.9884 73.3445 43.5998 69.2394 43.5137 68.3225C43.5095 68.2652 43.528 68.2084 43.5652 68.1645C43.6024 68.1206 43.6553 68.093 43.7125 68.0876C43.7698 68.0822 43.8269 68.0995 43.8716 68.1357C43.9163 68.1719 43.9451 68.2242 43.9517 68.2813L44.0184 68.9883C44.0217 69.0231 44.0332 69.0565 44.052 69.0859C44.0708 69.1153 44.0963 69.1398 44.1265 69.1574C44.1566 69.175 44.1905 69.1852 44.2253 69.1871C44.2602 69.189 44.295 69.1826 44.3268 69.1683L46.0519 68.3987C46.0896 68.3809 46.1188 68.349 46.1332 68.3099C46.1476 68.2708 46.146 68.2278 46.1289 68.1899ZM40.0112 72.4167C40.0095 72.4738 39.9856 72.528 39.9446 72.5678C39.9036 72.6076 39.8487 72.6298 39.7915 72.6298C39.7344 72.6298 39.6795 72.6076 39.6385 72.5678C39.5975 72.528 39.5735 72.4738 39.5718 72.4167V70.2011L39.3585 70.333C39.309 70.3623 39.25 70.3709 39.1941 70.3572C39.1383 70.3434 39.09 70.3082 39.0598 70.2593C39.0296 70.2103 39.0198 70.1515 39.0325 70.0954C39.0453 70.0392 39.0795 69.9904 39.1279 69.9592L39.6751 69.6184C39.7086 69.5985 39.7467 69.5877 39.7856 69.5872C39.8245 69.5866 39.863 69.5963 39.897 69.6152C39.931 69.6341 39.9595 69.6616 39.9796 69.695C39.9997 69.7284 40.0107 69.7664 40.0114 69.8054L40.0112 72.4167ZM41.5918 72.4167C41.5918 72.475 41.5687 72.5309 41.5274 72.5721C41.4862 72.6133 41.4303 72.6365 41.372 72.6365C41.3137 72.6365 41.2578 72.6133 41.2166 72.5721C41.1753 72.5309 41.1522 72.475 41.1522 72.4167V70.2011L40.9391 70.333C40.8895 70.3636 40.8299 70.3732 40.7732 70.3598C40.7165 70.3465 40.6674 70.3111 40.6368 70.2615C40.6062 70.212 40.5965 70.1523 40.6099 70.0956C40.6233 70.0389 40.6587 69.9899 40.7083 69.9592L41.2555 69.6184C41.2889 69.5985 41.3271 69.5877 41.366 69.5872C41.4049 69.5866 41.4433 69.5963 41.4774 69.6152C41.5114 69.6341 41.5399 69.6616 41.56 69.695C41.5801 69.7284 41.591 69.7664 41.5918 69.8054V72.4167Z" fill="#FAFAFA"/>
<path d="M40.0112 72.4167C40.0095 72.4738 39.9856 72.528 39.9446 72.5678C39.9036 72.6076 39.8487 72.6298 39.7915 72.6298C39.7344 72.6298 39.6795 72.6076 39.6385 72.5678C39.5975 72.528 39.5735 72.4738 39.5718 72.4167V70.2011L39.3585 70.333C39.309 70.3623 39.25 70.3709 39.1941 70.3572C39.1383 70.3434 39.09 70.3082 39.0598 70.2593C39.0296 70.2103 39.0198 70.1515 39.0325 70.0954C39.0453 70.0392 39.0795 69.9904 39.1279 69.9592L39.6751 69.6184C39.7086 69.5985 39.7467 69.5877 39.7856 69.5872C39.8245 69.5866 39.863 69.5963 39.897 69.6152C39.931 69.6341 39.9595 69.6616 39.9796 69.695C39.9997 69.7284 40.0107 69.7664 40.0114 69.8054L40.0112 72.4167Z" fill="#FAFAFA"/>
<path d="M41.5918 72.4167C41.5918 72.475 41.5687 72.5309 41.5274 72.5721C41.4862 72.6133 41.4303 72.6365 41.372 72.6365C41.3137 72.6365 41.2578 72.6133 41.2166 72.5721C41.1753 72.5309 41.1522 72.475 41.1522 72.4167V70.2011L40.9391 70.333C40.8895 70.3636 40.8299 70.3732 40.7732 70.3598C40.7165 70.3465 40.6674 70.3111 40.6368 70.2615C40.6062 70.212 40.5965 70.1523 40.6099 70.0956C40.6233 70.0389 40.6587 69.9899 40.7083 69.9592L41.2555 69.6184C41.2889 69.5985 41.3271 69.5877 41.366 69.5872C41.4049 69.5866 41.4433 69.5963 41.4774 69.6152C41.5114 69.6341 41.5399 69.6616 41.56 69.695C41.5801 69.7284 41.591 69.7664 41.5918 69.8054V72.4167Z" fill="#FAFAFA"/>
<path d="M39.3979 69.8965H41.6897" stroke="#191919" stroke-width="0.343756" stroke-linecap="round" stroke-linejoin="round"/>
<path d="M40.5439 71.0437V68.752" stroke="#191919" stroke-width="0.343756" stroke-linecap="round" stroke-linejoin="round"/>
</g>
<g clip-path="url(#clip1_8747_15101)">
<path d="M15.4495 48.5372C15.8184 48.5368 16.172 48.39 16.4329 48.1292C16.6937 47.8684 16.8404 47.5147 16.8409 47.1458V46.6643C15.9207 46.8377 14.9757 46.8309 14.0581 46.6445V47.1458C14.0585 47.5147 14.2053 47.8684 14.4661 48.1292C14.727 48.39 15.0806 48.5368 15.4495 48.5372Z" fill="#FAFAFA"/>
<path d="M21.1494 51.2914L20.0084 48.8932C19.7933 48.4443 19.4141 48.0949 18.9491 47.9171L18.0784 47.5853C17.7339 47.4834 17.4824 47.0787 17.2804 46.8027V47.0801C17.2886 47.336 17.2434 47.5907 17.1477 47.8281C17.052 48.0655 16.9078 48.2803 16.7244 48.4589C16.541 48.6375 16.3224 48.7758 16.0825 48.8652C15.8427 48.9545 15.5868 48.9929 15.3313 48.9778C15.0757 48.9628 14.8262 48.8946 14.5984 48.7777C14.3707 48.6607 14.1699 48.4976 14.0088 48.2988C13.8476 48.0999 13.7297 47.8696 13.6626 47.6226C13.5954 47.3756 13.5805 47.1173 13.6187 46.8642C13.4682 47.1537 13.2219 47.382 12.9219 47.5104L12.1063 47.8029C11.6382 47.9684 11.2522 48.3087 11.0292 48.7523L9.7497 51.2914C9.73193 51.3299 9.73005 51.3739 9.74445 51.4138C9.75885 51.4536 9.78838 51.4862 9.82665 51.5045L11.5309 52.2795C11.5629 52.2941 11.598 52.3008 11.6331 52.2991C11.6683 52.2973 11.7025 52.2871 11.7329 52.2694C11.7633 52.2517 11.789 52.2269 11.8078 52.1972C11.8267 52.1675 11.8381 52.1337 11.8412 52.0987L11.9038 51.3843C11.9104 51.327 11.939 51.2745 11.9837 51.238C12.0283 51.2015 12.0855 51.1839 12.143 51.1889C12.2004 51.194 12.2536 51.2212 12.2913 51.2649C12.3289 51.3086 12.348 51.3653 12.3445 51.4229L11.8138 57.455C11.8136 57.4978 11.8222 57.5403 11.839 57.5797C11.8558 57.6191 11.8806 57.6546 11.9117 57.684C11.9428 57.7135 11.9796 57.7363 12.0198 57.7509C12.0601 57.7656 12.1029 57.7719 12.1457 57.7693H18.771C18.8139 57.7719 18.8569 57.7655 18.8973 57.7507C18.9377 57.7359 18.9747 57.713 19.0058 57.6833C19.0369 57.6536 19.0616 57.6178 19.0783 57.5781C19.095 57.5385 19.1034 57.4958 19.1028 57.4528C19.0089 56.4461 18.6203 52.3409 18.5342 51.4241C18.5301 51.3667 18.5486 51.31 18.5857 51.2661C18.6229 51.2222 18.6758 51.1946 18.733 51.1892C18.7903 51.1838 18.8474 51.2011 18.8921 51.2373C18.9368 51.2735 18.9656 51.3257 18.9722 51.3829L19.0389 52.0899C19.0422 52.1246 19.0538 52.1581 19.0725 52.1875C19.0913 52.2169 19.1168 52.2414 19.147 52.259C19.1771 52.2766 19.211 52.2868 19.2458 52.2886C19.2807 52.2905 19.3155 52.2841 19.3474 52.2699L21.0724 51.5002C21.1101 51.4824 21.1393 51.4506 21.1537 51.4115C21.1681 51.3724 21.1666 51.3294 21.1494 51.2914ZM15.0317 55.5182C15.03 55.5754 15.0061 55.6295 14.9651 55.6693C14.9241 55.7091 14.8692 55.7314 14.812 55.7314C14.7549 55.7314 14.7 55.7091 14.659 55.6693C14.618 55.6295 14.594 55.5754 14.5923 55.5182V53.3027L14.379 53.4345C14.3295 53.4638 14.2705 53.4725 14.2146 53.4587C14.1588 53.4449 14.1105 53.4098 14.0803 53.3608C14.0501 53.3119 14.0403 53.253 14.053 53.1969C14.0658 53.1408 14.1 53.0919 14.1484 53.0608L14.6956 52.72C14.7291 52.7001 14.7672 52.6893 14.8061 52.6887C14.8451 52.6882 14.8835 52.6978 14.9175 52.7168C14.9515 52.7357 14.98 52.7632 15.0001 52.7966C15.0202 52.8299 15.0312 52.868 15.032 52.9069L15.0317 55.5182ZM16.6123 55.5182C16.6123 55.5765 16.5892 55.6325 16.548 55.6737C16.5067 55.7149 16.4508 55.7381 16.3925 55.7381C16.3342 55.7381 16.2783 55.7149 16.2371 55.6737C16.1959 55.6325 16.1727 55.5765 16.1727 55.5182V53.3027L15.9596 53.4345C15.9101 53.4651 15.8504 53.4748 15.7937 53.4614C15.737 53.448 15.6879 53.4126 15.6573 53.3631C15.6267 53.3135 15.617 53.2538 15.6304 53.1972C15.6438 53.1405 15.6792 53.0914 15.7288 53.0608L16.276 52.72C16.3095 52.7001 16.3476 52.6893 16.3865 52.6887C16.4254 52.6882 16.4638 52.6978 16.4979 52.7168C16.5319 52.7357 16.5604 52.7632 16.5805 52.7966C16.6006 52.8299 16.6116 52.868 16.6123 52.9069V55.5182Z" fill="#FAFAFA"/>
<path d="M15.0317 55.5182C15.03 55.5754 15.0061 55.6295 14.9651 55.6693C14.9241 55.7091 14.8692 55.7314 14.812 55.7314C14.7549 55.7314 14.7 55.7091 14.659 55.6693C14.618 55.6295 14.594 55.5754 14.5923 55.5182V53.3027L14.379 53.4345C14.3295 53.4638 14.2705 53.4725 14.2146 53.4587C14.1588 53.4449 14.1105 53.4098 14.0803 53.3608C14.0501 53.3119 14.0403 53.253 14.053 53.1969C14.0658 53.1408 14.1 53.0919 14.1484 53.0608L14.6956 52.72C14.7291 52.7001 14.7672 52.6893 14.8061 52.6887C14.8451 52.6882 14.8835 52.6978 14.9175 52.7168C14.9515 52.7357 14.98 52.7632 15.0001 52.7966C15.0202 52.8299 15.0312 52.868 15.032 52.9069L15.0317 55.5182Z" fill="#FAFAFA"/>
<path d="M16.6123 55.5182C16.6123 55.5765 16.5892 55.6325 16.548 55.6737C16.5067 55.7149 16.4508 55.7381 16.3925 55.7381C16.3342 55.7381 16.2783 55.7149 16.2371 55.6737C16.1959 55.6325 16.1727 55.5765 16.1727 55.5182V53.3027L15.9596 53.4345C15.9101 53.4651 15.8504 53.4748 15.7937 53.4614C15.737 53.448 15.6879 53.4126 15.6573 53.3631C15.6267 53.3135 15.617 53.2538 15.6304 53.1972C15.6438 53.1405 15.6792 53.0914 15.7288 53.0608L16.276 52.72C16.3095 52.7001 16.3476 52.6893 16.3865 52.6887C16.4254 52.6882 16.4638 52.6978 16.4979 52.7168C16.5319 52.7357 16.5604 52.7632 16.5805 52.7966C16.6006 52.8299 16.6116 52.868 16.6123 52.9069V55.5182Z" fill="#FAFAFA"/>
<path d="M14.4185 53.002H16.7102" stroke="#191919" stroke-width="0.343756" stroke-linecap="round" stroke-linejoin="round"/>
<path d="M15.5645 54.1491V51.8574" stroke="#191919" stroke-width="0.343756" stroke-linecap="round" stroke-linejoin="round"/>
</g>
<g clip-path="url(#clip2_8747_15101)">
<path d="M21.4495 20.5372C21.8184 20.5368 22.172 20.39 22.4329 20.1292C22.6937 19.8684 22.8404 19.5147 22.8409 19.1458V18.6643C21.9207 18.8377 20.9757 18.8309 20.0581 18.6445V19.1458C20.0585 19.5147 20.2053 19.8684 20.4661 20.1292C20.727 20.39 21.0806 20.5368 21.4495 20.5372Z" fill="#FAFAFA"/>
<path d="M27.1494 23.2914L26.0084 20.8932C25.7933 20.4443 25.4141 20.0949 24.9491 19.9171L24.0784 19.5853C23.7339 19.4834 23.4824 19.0787 23.2804 18.8027V19.0801C23.2886 19.336 23.2434 19.5907 23.1477 19.8281C23.052 20.0655 22.9078 20.2803 22.7244 20.4589C22.541 20.6375 22.3224 20.7758 22.0825 20.8652C21.8427 20.9545 21.5868 20.9929 21.3313 20.9778C21.0757 20.9628 20.8262 20.8946 20.5984 20.7777C20.3707 20.6607 20.1699 20.4976 20.0088 20.2988C19.8476 20.0999 19.7297 19.8696 19.6626 19.6226C19.5954 19.3756 19.5805 19.1173 19.6187 18.8642C19.4682 19.1537 19.2219 19.382 18.9219 19.5104L18.1063 19.8029C17.6382 19.9684 17.2522 20.3087 17.0292 20.7523L15.7497 23.2914C15.7319 23.3299 15.73 23.3739 15.7444 23.4138C15.7589 23.4536 15.7884 23.4862 15.8267 23.5045L17.5309 24.2795C17.5629 24.2941 17.598 24.3008 17.6331 24.2991C17.6683 24.2973 17.7025 24.2871 17.7329 24.2694C17.7633 24.2517 17.789 24.2269 17.8078 24.1972C17.8267 24.1675 17.8381 24.1337 17.8412 24.0987L17.9038 23.3843C17.9104 23.327 17.939 23.2745 17.9837 23.238C18.0283 23.2015 18.0855 23.1839 18.143 23.1889C18.2004 23.194 18.2536 23.2212 18.2913 23.2649C18.3289 23.3086 18.348 23.3653 18.3445 23.4229L17.8138 29.455C17.8136 29.4978 17.8222 29.5403 17.839 29.5797C17.8558 29.6191 17.8806 29.6546 17.9117 29.684C17.9428 29.7135 17.9796 29.7363 18.0198 29.7509C18.0601 29.7656 18.1029 29.7719 18.1457 29.7693H24.771C24.8139 29.7719 24.8569 29.7655 24.8973 29.7507C24.9377 29.7359 24.9747 29.713 25.0058 29.6833C25.0369 29.6536 25.0616 29.6178 25.0783 29.5781C25.095 29.5385 25.1034 29.4958 25.1028 29.4528C25.0089 28.4461 24.6203 24.3409 24.5342 23.4241C24.5301 23.3667 24.5486 23.31 24.5857 23.2661C24.6229 23.2222 24.6758 23.1946 24.733 23.1892C24.7903 23.1838 24.8474 23.2011 24.8921 23.2373C24.9368 23.2735 24.9656 23.3257 24.9722 23.3829L25.0389 24.0899C25.0422 24.1246 25.0538 24.1581 25.0725 24.1875C25.0913 24.2169 25.1168 24.2414 25.147 24.259C25.1771 24.2766 25.211 24.2868 25.2458 24.2886C25.2807 24.2905 25.3155 24.2841 25.3474 24.2699L27.0724 23.5002C27.1101 23.4824 27.1393 23.4506 27.1537 23.4115C27.1681 23.3724 27.1666 23.3294 27.1494 23.2914ZM21.0317 27.5182C21.03 27.5754 21.0061 27.6295 20.9651 27.6693C20.9241 27.7091 20.8692 27.7314 20.812 27.7314C20.7549 27.7314 20.7 27.7091 20.659 27.6693C20.618 27.6295 20.594 27.5754 20.5923 27.5182V25.3027L20.379 25.4345C20.3295 25.4638 20.2705 25.4725 20.2146 25.4587C20.1588 25.4449 20.1105 25.4098 20.0803 25.3608C20.0501 25.3119 20.0403 25.253 20.053 25.1969C20.0658 25.1408 20.1 25.0919 20.1484 25.0608L20.6956 24.72C20.7291 24.7001 20.7672 24.6893 20.8061 24.6887C20.8451 24.6882 20.8835 24.6978 20.9175 24.7168C20.9515 24.7357 20.98 24.7632 21.0001 24.7966C21.0202 24.8299 21.0312 24.868 21.032 24.9069L21.0317 27.5182ZM22.6123 27.5182C22.6123 27.5765 22.5892 27.6325 22.548 27.6737C22.5067 27.7149 22.4508 27.7381 22.3925 27.7381C22.3342 27.7381 22.2783 27.7149 22.2371 27.6737C22.1959 27.6325 22.1727 27.5765 22.1727 27.5182V25.3027L21.9596 25.4345C21.9101 25.4651 21.8504 25.4748 21.7937 25.4614C21.737 25.448 21.6879 25.4126 21.6573 25.3631C21.6267 25.3135 21.617 25.2538 21.6304 25.1972C21.6438 25.1405 21.6792 25.0914 21.7288 25.0608L22.276 24.72C22.3095 24.7001 22.3476 24.6893 22.3865 24.6887C22.4254 24.6882 22.4638 24.6978 22.4979 24.7168C22.5319 24.7357 22.5604 24.7632 22.5805 24.7966C22.6006 24.8299 22.6116 24.868 22.6123 24.9069V27.5182Z" fill="#FAFAFA"/>
<path d="M21.0317 27.5182C21.03 27.5754 21.0061 27.6295 20.9651 27.6693C20.9241 27.7091 20.8692 27.7314 20.812 27.7314C20.7549 27.7314 20.7 27.7091 20.659 27.6693C20.618 27.6295 20.594 27.5754 20.5923 27.5182V25.3027L20.379 25.4345C20.3295 25.4638 20.2705 25.4725 20.2146 25.4587C20.1588 25.4449 20.1105 25.4098 20.0803 25.3608C20.0501 25.3119 20.0403 25.253 20.053 25.1969C20.0658 25.1408 20.1 25.0919 20.1484 25.0608L20.6956 24.72C20.7291 24.7001 20.7672 24.6893 20.8061 24.6887C20.8451 24.6882 20.8835 24.6978 20.9175 24.7168C20.9515 24.7357 20.98 24.7632 21.0001 24.7966C21.0202 24.8299 21.0312 24.868 21.032 24.9069L21.0317 27.5182Z" fill="#FAFAFA"/>
<path d="M22.6123 27.5182C22.6123 27.5765 22.5892 27.6325 22.548 27.6737C22.5067 27.7149 22.4508 27.7381 22.3925 27.7381C22.3342 27.7381 22.2783 27.7149 22.2371 27.6737C22.1959 27.6325 22.1727 27.5765 22.1727 27.5182V25.3027L21.9596 25.4345C21.9101 25.4651 21.8504 25.4748 21.7937 25.4614C21.737 25.448 21.6879 25.4126 21.6573 25.3631C21.6267 25.3135 21.617 25.2538 21.6304 25.1972C21.6438 25.1405 21.6792 25.0914 21.7288 25.0608L22.276 24.72C22.3095 24.7001 22.3476 24.6893 22.3865 24.6887C22.4254 24.6882 22.4638 24.6978 22.4979 24.7168C22.5319 24.7357 22.5604 24.7632 22.5805 24.7966C22.6006 24.8299 22.6116 24.868 22.6123 24.9069V27.5182Z" fill="#FAFAFA"/>
<path d="M20.4185 25.002H22.7102" stroke="#191919" stroke-width="0.343756" stroke-linecap="round" stroke-linejoin="round"/>
<path d="M21.5645 26.1491V23.8574" stroke="#191919" stroke-width="0.343756" stroke-linecap="round" stroke-linejoin="round"/>
</g>
<path d="M65.1795 48.5372C65.5484 48.5368 65.902 48.39 66.1629 48.1292C66.4237 47.8684 66.5704 47.5147 66.5709 47.1458V46.6643C65.6507 46.8377 64.7057 46.8309 63.7881 46.6445V47.1458C63.7885 47.5147 63.9352 47.8684 64.1961 48.1292C64.4569 48.39 64.8106 48.5368 65.1795 48.5372Z" fill="#FAFAFA"/>
<path d="M70.8794 51.2914L69.7384 48.8932C69.5233 48.4443 69.1441 48.0949 68.6791 47.9171L67.8084 47.5853C67.4639 47.4834 67.2124 47.0787 67.0104 46.8027V47.0801C67.0186 47.336 66.9734 47.5907 66.8777 47.8281C66.782 48.0655 66.6378 48.2803 66.4544 48.4589C66.271 48.6375 66.0524 48.7758 65.8125 48.8652C65.5726 48.9545 65.3168 48.9929 65.0612 48.9778C64.8057 48.9628 64.5561 48.8946 64.3284 48.7777C64.1007 48.6607 63.8999 48.4976 63.7387 48.2988C63.5776 48.0999 63.4597 47.8696 63.3925 47.6226C63.3254 47.3756 63.3105 47.1173 63.3487 46.8642C63.1981 47.1537 62.9519 47.382 62.6519 47.5104L61.8363 47.8029C61.3682 47.9684 60.9822 48.3087 60.7592 48.7523L59.4797 51.2914C59.4619 51.3299 59.46 51.3739 59.4744 51.4138C59.4888 51.4536 59.5184 51.4862 59.5566 51.5045L61.2609 52.2795C61.2929 52.2941 61.328 52.3008 61.3631 52.2991C61.3983 52.2973 61.4325 52.2871 61.4629 52.2694C61.4933 52.2517 61.519 52.2269 61.5378 52.1972C61.5567 52.1675 61.5681 52.1337 61.5712 52.0987L61.6338 51.3843C61.6403 51.327 61.669 51.2745 61.7137 51.238C61.7583 51.2015 61.8155 51.1839 61.8729 51.1889C61.9304 51.194 61.9836 51.2212 62.0213 51.2649C62.0589 51.3086 62.078 51.3653 62.0745 51.4229L61.5438 57.455C61.5436 57.4978 61.5522 57.5403 61.569 57.5797C61.5858 57.6191 61.6106 57.6546 61.6417 57.684C61.6728 57.7135 61.7096 57.7363 61.7498 57.7509C61.7901 57.7656 61.8329 57.7719 61.8757 57.7693H68.5009C68.5439 57.7719 68.5869 57.7655 68.6273 57.7507C68.6677 57.7359 68.7046 57.713 68.7358 57.6833C68.7669 57.6536 68.7916 57.6178 68.8083 57.5781C68.825 57.5385 68.8333 57.4958 68.8328 57.4528C68.7389 56.4461 68.3503 52.3409 68.2642 51.4241C68.26 51.3667 68.2785 51.31 68.3157 51.2661C68.3529 51.2222 68.4057 51.1946 68.463 51.1892C68.5203 51.1838 68.5774 51.2011 68.6221 51.2373C68.6668 51.2735 68.6955 51.3257 68.7022 51.3829L68.7689 52.0899C68.7722 52.1246 68.7837 52.1581 68.8025 52.1875C68.8213 52.2169 68.8468 52.2414 68.877 52.259C68.9071 52.2766 68.941 52.2868 68.9758 52.2886C69.0107 52.2905 69.0455 52.2841 69.0773 52.2699L70.8024 51.5002C70.8401 51.4824 70.8693 51.4506 70.8837 51.4115C70.8981 51.3724 70.8965 51.3294 70.8794 51.2914ZM64.7617 55.5182C64.76 55.5754 64.7361 55.6295 64.6951 55.6693C64.654 55.7091 64.5991 55.7314 64.542 55.7314C64.4849 55.7314 64.43 55.7091 64.389 55.6693C64.3479 55.6295 64.324 55.5754 64.3223 55.5182V53.3027L64.109 53.4345C64.0595 53.4638 64.0004 53.4725 63.9446 53.4587C63.8887 53.4449 63.8405 53.4098 63.8103 53.3608C63.7801 53.3119 63.7703 53.253 63.783 53.1969C63.7957 53.1408 63.83 53.0919 63.8784 53.0608L64.4256 52.72C64.459 52.7001 64.4972 52.6893 64.5361 52.6887C64.575 52.6882 64.6134 52.6978 64.6475 52.7168C64.6815 52.7357 64.71 52.7632 64.7301 52.7966C64.7502 52.8299 64.7611 52.868 64.7619 52.9069L64.7617 55.5182ZM66.3423 55.5182C66.3423 55.5765 66.3192 55.6325 66.2779 55.6737C66.2367 55.7149 66.1808 55.7381 66.1225 55.7381C66.0642 55.7381 66.0083 55.7149 65.9671 55.6737C65.9258 55.6325 65.9027 55.5765 65.9027 55.5182V53.3027L65.6896 53.4345C65.64 53.4651 65.5803 53.4748 65.5237 53.4614C65.467 53.448 65.4179 53.4126 65.3873 53.3631C65.3567 53.3135 65.347 53.2538 65.3604 53.1972C65.3738 53.1405 65.4092 53.0914 65.4587 53.0608L66.006 52.72C66.0394 52.7001 66.0775 52.6893 66.1165 52.6887C66.1554 52.6882 66.1938 52.6978 66.2279 52.7168C66.2619 52.7357 66.2904 52.7632 66.3105 52.7966C66.3306 52.8299 66.3415 52.868 66.3423 52.9069V55.5182Z" fill="#FAFAFA"/>
<path d="M64.7617 55.5182C64.76 55.5754 64.7361 55.6295 64.6951 55.6693C64.654 55.7091 64.5991 55.7314 64.542 55.7314C64.4849 55.7314 64.43 55.7091 64.389 55.6693C64.3479 55.6295 64.324 55.5754 64.3223 55.5182V53.3027L64.109 53.4345C64.0595 53.4638 64.0004 53.4725 63.9446 53.4587C63.8887 53.4449 63.8405 53.4098 63.8103 53.3608C63.7801 53.3119 63.7703 53.253 63.783 53.1969C63.7957 53.1408 63.83 53.0919 63.8784 53.0608L64.4256 52.72C64.459 52.7001 64.4972 52.6893 64.5361 52.6887C64.575 52.6882 64.6134 52.6978 64.6475 52.7168C64.6815 52.7357 64.71 52.7632 64.7301 52.7966C64.7502 52.8299 64.7611 52.868 64.7619 52.9069L64.7617 55.5182Z" fill="#FAFAFA"/>
<path d="M66.3423 55.5182C66.3423 55.5765 66.3192 55.6325 66.2779 55.6737C66.2367 55.7149 66.1808 55.7381 66.1225 55.7381C66.0642 55.7381 66.0083 55.7149 65.9671 55.6737C65.9258 55.6325 65.9027 55.5765 65.9027 55.5182V53.3027L65.6896 53.4345C65.64 53.4651 65.5803 53.4748 65.5237 53.4614C65.467 53.448 65.4179 53.4126 65.3873 53.3631C65.3567 53.3135 65.347 53.2538 65.3604 53.1972C65.3738 53.1405 65.4092 53.0914 65.4587 53.0608L66.006 52.72C66.0394 52.7001 66.0775 52.6893 66.1165 52.6887C66.1554 52.6882 66.1938 52.6978 66.2279 52.7168C66.2619 52.7357 66.2904 52.7632 66.3105 52.7966C66.3306 52.8299 66.3415 52.868 66.3423 52.9069V55.5182Z" fill="#FAFAFA"/>
<path d="M64.1484 53.002H66.4401" stroke="#191919" stroke-width="0.343756" stroke-linecap="round" stroke-linejoin="round"/>
<path d="M65.2944 54.1491V51.8574" stroke="#191919" stroke-width="0.343756" stroke-linecap="round" stroke-linejoin="round"/>
<path d="M60.1795 20.5372C60.5484 20.5368 60.902 20.39 61.1629 20.1292C61.4237 19.8684 61.5704 19.5147 61.5709 19.1458V18.6643C60.6507 18.8377 59.7057 18.8309 58.7881 18.6445V19.1458C58.7885 19.5147 58.9352 19.8684 59.1961 20.1292C59.4569 20.39 59.8106 20.5368 60.1795 20.5372Z" fill="#FAFAFA"/>
<path d="M65.8794 23.2914L64.7384 20.8932C64.5233 20.4443 64.1441 20.0949 63.6791 19.9171L62.8084 19.5853C62.4639 19.4834 62.2124 19.0787 62.0104 18.8027V19.0801C62.0186 19.336 61.9734 19.5907 61.8777 19.8281C61.782 20.0655 61.6378 20.2803 61.4544 20.4589C61.271 20.6375 61.0524 20.7758 60.8125 20.8652C60.5726 20.9545 60.3168 20.9929 60.0612 20.9778C59.8057 20.9628 59.5561 20.8946 59.3284 20.7777C59.1007 20.6607 58.8999 20.4976 58.7387 20.2988C58.5776 20.0999 58.4597 19.8696 58.3925 19.6226C58.3254 19.3756 58.3105 19.1173 58.3487 18.8642C58.1981 19.1537 57.9519 19.382 57.6519 19.5104L56.8363 19.8029C56.3682 19.9684 55.9822 20.3087 55.7592 20.7523L54.4797 23.2914C54.4619 23.3299 54.46 23.3739 54.4744 23.4138C54.4888 23.4536 54.5184 23.4862 54.5566 23.5045L56.2609 24.2795C56.2929 24.2941 56.328 24.3008 56.3631 24.2991C56.3983 24.2973 56.4325 24.2871 56.4629 24.2694C56.4933 24.2517 56.519 24.2269 56.5378 24.1972C56.5567 24.1675 56.5681 24.1337 56.5712 24.0987L56.6338 23.3843C56.6403 23.327 56.669 23.2745 56.7137 23.238C56.7583 23.2015 56.8155 23.1839 56.8729 23.1889C56.9304 23.194 56.9836 23.2212 57.0213 23.2649C57.0589 23.3086 57.078 23.3653 57.0745 23.4229L56.5438 29.455C56.5436 29.4978 56.5522 29.5403 56.569 29.5797C56.5858 29.6191 56.6106 29.6546 56.6417 29.684C56.6728 29.7135 56.7096 29.7363 56.7498 29.7509C56.7901 29.7656 56.8329 29.7719 56.8757 29.7693H63.5009C63.5439 29.7719 63.5869 29.7655 63.6273 29.7507C63.6677 29.7359 63.7046 29.713 63.7358 29.6833C63.7669 29.6536 63.7916 29.6178 63.8083 29.5781C63.825 29.5385 63.8333 29.4958 63.8328 29.4528C63.7389 28.4461 63.3503 24.3409 63.2642 23.4241C63.26 23.3667 63.2785 23.31 63.3157 23.2661C63.3529 23.2222 63.4057 23.1946 63.463 23.1892C63.5203 23.1838 63.5774 23.2011 63.6221 23.2373C63.6668 23.2735 63.6955 23.3257 63.7022 23.3829L63.7689 24.0899C63.7722 24.1246 63.7837 24.1581 63.8025 24.1875C63.8213 24.2169 63.8468 24.2414 63.877 24.259C63.9071 24.2766 63.941 24.2868 63.9758 24.2886C64.0107 24.2905 64.0455 24.2841 64.0773 24.2699L65.8024 23.5002C65.8401 23.4824 65.8693 23.4506 65.8837 23.4115C65.8981 23.3724 65.8965 23.3294 65.8794 23.2914ZM59.7617 27.5182C59.76 27.5754 59.7361 27.6295 59.6951 27.6693C59.654 27.7091 59.5991 27.7314 59.542 27.7314C59.4849 27.7314 59.43 27.7091 59.389 27.6693C59.3479 27.6295 59.324 27.5754 59.3223 27.5182V25.3027L59.109 25.4345C59.0595 25.4638 59.0004 25.4725 58.9446 25.4587C58.8887 25.4449 58.8405 25.4098 58.8103 25.3608C58.7801 25.3119 58.7703 25.253 58.783 25.1969C58.7957 25.1408 58.83 25.0919 58.8784 25.0608L59.4256 24.72C59.459 24.7001 59.4972 24.6893 59.5361 24.6887C59.575 24.6882 59.6134 24.6978 59.6475 24.7168C59.6815 24.7357 59.71 24.7632 59.7301 24.7966C59.7502 24.8299 59.7611 24.868 59.7619 24.9069L59.7617 27.5182ZM61.3423 27.5182C61.3423 27.5765 61.3192 27.6325 61.2779 27.6737C61.2367 27.7149 61.1808 27.7381 61.1225 27.7381C61.0642 27.7381 61.0083 27.7149 60.9671 27.6737C60.9258 27.6325 60.9027 27.5765 60.9027 27.5182V25.3027L60.6896 25.4345C60.64 25.4651 60.5803 25.4748 60.5237 25.4614C60.467 25.448 60.4179 25.4126 60.3873 25.3631C60.3567 25.3135 60.347 25.2538 60.3604 25.1972C60.3738 25.1405 60.4092 25.0914 60.4587 25.0608L61.006 24.72C61.0394 24.7001 61.0775 24.6893 61.1165 24.6887C61.1554 24.6882 61.1938 24.6978 61.2279 24.7168C61.2619 24.7357 61.2904 24.7632 61.3105 24.7966C61.3306 24.8299 61.3415 24.868 61.3423 24.9069V27.5182Z" fill="#FAFAFA"/>
<path d="M59.7617 27.5182C59.76 27.5754 59.7361 27.6295 59.6951 27.6693C59.654 27.7091 59.5991 27.7314 59.542 27.7314C59.4849 27.7314 59.43 27.7091 59.389 27.6693C59.3479 27.6295 59.324 27.5754 59.3223 27.5182V25.3027L59.109 25.4345C59.0595 25.4638 59.0004 25.4725 58.9446 25.4587C58.8887 25.4449 58.8405 25.4098 58.8103 25.3608C58.7801 25.3119 58.7703 25.253 58.783 25.1969C58.7957 25.1408 58.83 25.0919 58.8784 25.0608L59.4256 24.72C59.459 24.7001 59.4972 24.6893 59.5361 24.6887C59.575 24.6882 59.6134 24.6978 59.6475 24.7168C59.6815 24.7357 59.71 24.7632 59.7301 24.7966C59.7502 24.8299 59.7611 24.868 59.7619 24.9069L59.7617 27.5182Z" fill="#FAFAFA"/>
<path d="M61.3423 27.5182C61.3423 27.5765 61.3192 27.6325 61.2779 27.6737C61.2367 27.7149 61.1808 27.7381 61.1225 27.7381C61.0642 27.7381 61.0083 27.7149 60.9671 27.6737C60.9258 27.6325 60.9027 27.5765 60.9027 27.5182V25.3027L60.6896 25.4345C60.64 25.4651 60.5803 25.4748 60.5237 25.4614C60.467 25.448 60.4179 25.4126 60.3873 25.3631C60.3567 25.3135 60.347 25.2538 60.3604 25.1972C60.3738 25.1405 60.4092 25.0914 60.4587 25.0608L61.006 24.72C61.0394 24.7001 61.0775 24.6893 61.1165 24.6887C61.1554 24.6882 61.1938 24.6978 61.2279 24.7168C61.2619 24.7357 61.2904 24.7632 61.3105 24.7966C61.3306 24.8299 61.3415 24.868 61.3423 24.9069V27.5182Z" fill="#FAFAFA"/>
<path d="M59.1484 25.002H61.4401" stroke="#191919" stroke-width="0.343756" stroke-linecap="round" stroke-linejoin="round"/>
<path d="M60.2944 26.1491V23.8574" stroke="#191919" stroke-width="0.343756" stroke-linecap="round" stroke-linejoin="round"/>
<g clip-path="url(#clip3_8747_15101)">
<path d="M40.429 48.6427C40.7979 48.6422 41.1515 48.4955 41.4124 48.2347C41.6732 47.9738 41.8199 47.6202 41.8204 47.2513V46.7698C40.9002 46.9431 39.9552 46.9364 39.0376 46.75V47.2513C39.038 47.6202 39.1848 47.9738 39.4456 48.2347C39.7064 48.4955 40.0601 48.6422 40.429 48.6427Z" fill="#FAFAFA"/>
<path d="M46.1289 51.3969L44.9879 48.9987C44.7728 48.5497 44.3936 48.2004 43.9286 48.0226L43.0579 47.6907C42.7134 47.5889 42.4619 47.1842 42.2599 46.9082V47.1856C42.2681 47.4414 42.2229 47.6962 42.1272 47.9336C42.0315 48.171 41.8873 48.3858 41.7039 48.5644C41.5205 48.7429 41.3019 48.8813 41.062 48.9707C40.8222 49.06 40.5663 49.0984 40.3108 49.0833C40.0552 49.0682 39.8056 49.0001 39.5779 48.8831C39.3502 48.7662 39.1494 48.6031 38.9883 48.4042C38.8271 48.2053 38.7092 47.975 38.6421 47.728C38.5749 47.481 38.56 47.2227 38.5982 46.9696C38.4477 47.2591 38.2014 47.4875 37.9014 47.6158L37.0858 47.9083C36.6177 48.0739 36.2317 48.4141 36.0087 48.8578L34.7292 51.3969C34.7114 51.4354 34.7095 51.4793 34.7239 51.5192C34.7383 51.5591 34.7679 51.5917 34.8061 51.61L36.5104 52.385C36.5424 52.3996 36.5775 52.4063 36.6126 52.4045C36.6478 52.4028 36.682 52.3926 36.7124 52.3749C36.7428 52.3572 36.7685 52.3324 36.7873 52.3027C36.8062 52.273 36.8176 52.2392 36.8207 52.2041L36.8833 51.4898C36.8899 51.4325 36.9185 51.38 36.9632 51.3435C37.0078 51.307 37.065 51.2894 37.1224 51.2944C37.1799 51.2994 37.2331 51.3267 37.2708 51.3704C37.3084 51.4141 37.3275 51.4708 37.324 51.5283L36.7933 57.5605C36.7931 57.6033 36.8017 57.6457 36.8185 57.6851C36.8353 57.7245 36.8601 57.76 36.8912 57.7895C36.9223 57.819 36.9591 57.8417 36.9993 57.8564C37.0396 57.8711 37.0824 57.8773 37.1252 57.8748H43.7504C43.7934 57.8773 43.8364 57.871 43.8768 57.8562C43.9172 57.8414 43.9542 57.8184 43.9853 57.7887C44.0164 57.759 44.0411 57.7232 44.0578 57.6836C44.0745 57.6439 44.0828 57.6012 44.0823 57.5582C43.9884 56.5516 43.5998 52.4464 43.5137 51.5296C43.5095 51.4722 43.528 51.4155 43.5652 51.3716C43.6024 51.3277 43.6553 51.3001 43.7125 51.2947C43.7698 51.2893 43.8269 51.3065 43.8716 51.3427C43.9163 51.3789 43.9451 51.4312 43.9517 51.4883L44.0184 52.1953C44.0217 52.2301 44.0332 52.2635 44.052 52.293C44.0708 52.3224 44.0963 52.3469 44.1265 52.3645C44.1566 52.3821 44.1905 52.3922 44.2253 52.3941C44.2602 52.396 44.295 52.3896 44.3268 52.3754L46.0519 51.6057C46.0896 51.5879 46.1188 51.556 46.1332 51.5169C46.1476 51.4778 46.146 51.4349 46.1289 51.3969ZM40.0112 55.6237C40.0095 55.6808 39.9856 55.735 39.9446 55.7748C39.9036 55.8146 39.8487 55.8368 39.7915 55.8368C39.7344 55.8368 39.6795 55.8146 39.6385 55.7748C39.5975 55.735 39.5735 55.6808 39.5718 55.6237V53.4081L39.3585 53.54C39.309 53.5693 39.25 53.578 39.1941 53.5642C39.1383 53.5504 39.09 53.5153 39.0598 53.4663C39.0296 53.4173 39.0198 53.3585 39.0325 53.3024C39.0453 53.2463 39.0795 53.1974 39.1279 53.1663L39.6751 52.8254C39.7086 52.8055 39.7467 52.7948 39.7856 52.7942C39.8245 52.7937 39.863 52.8033 39.897 52.8222C39.931 52.8412 39.9595 52.8687 39.9796 52.902C39.9997 52.9354 40.0107 52.9734 40.0114 53.0124L40.0112 55.6237ZM41.5918 55.6237C41.5918 55.682 41.5687 55.7379 41.5274 55.7791C41.4862 55.8204 41.4303 55.8435 41.372 55.8435C41.3137 55.8435 41.2578 55.8204 41.2166 55.7791C41.1753 55.7379 41.1522 55.682 41.1522 55.6237V53.4081L40.9391 53.54C40.8895 53.5706 40.8299 53.5803 40.7732 53.5669C40.7165 53.5535 40.6674 53.5181 40.6368 53.4686C40.6062 53.419 40.5965 53.3593 40.6099 53.3026C40.6233 53.2459 40.6587 53.1969 40.7083 53.1663L41.2555 52.8254C41.2889 52.8055 41.3271 52.7948 41.366 52.7942C41.4049 52.7937 41.4433 52.8033 41.4774 52.8222C41.5114 52.8412 41.5399 52.8687 41.56 52.902C41.5801 52.9354 41.591 52.9734 41.5918 53.0124V55.6237Z" fill="#FAFAFA"/>
<path d="M40.0112 55.6237C40.0095 55.6808 39.9856 55.735 39.9446 55.7748C39.9036 55.8146 39.8487 55.8368 39.7915 55.8368C39.7344 55.8368 39.6795 55.8146 39.6385 55.7748C39.5975 55.735 39.5735 55.6808 39.5718 55.6237V53.4081L39.3585 53.54C39.309 53.5693 39.25 53.578 39.1941 53.5642C39.1383 53.5504 39.09 53.5153 39.0598 53.4663C39.0296 53.4173 39.0198 53.3585 39.0325 53.3024C39.0453 53.2463 39.0795 53.1974 39.1279 53.1663L39.6751 52.8254C39.7086 52.8055 39.7467 52.7948 39.7856 52.7942C39.8245 52.7937 39.863 52.8033 39.897 52.8222C39.931 52.8412 39.9595 52.8687 39.9796 52.902C39.9997 52.9354 40.0107 52.9734 40.0114 53.0124L40.0112 55.6237Z" fill="#FAFAFA"/>
<path d="M41.5918 55.6237C41.5918 55.682 41.5687 55.7379 41.5274 55.7791C41.4862 55.8204 41.4303 55.8435 41.372 55.8435C41.3137 55.8435 41.2578 55.8204 41.2166 55.7791C41.1753 55.7379 41.1522 55.682 41.1522 55.6237V53.4081L40.9391 53.54C40.8895 53.5706 40.8299 53.5803 40.7732 53.5669C40.7165 53.5535 40.6674 53.5181 40.6368 53.4686C40.6062 53.419 40.5965 53.3593 40.6099 53.3026C40.6233 53.2459 40.6587 53.1969 40.7083 53.1663L41.2555 52.8254C41.2889 52.8055 41.3271 52.7948 41.366 52.7942C41.4049 52.7937 41.4433 52.8033 41.4774 52.8222C41.5114 52.8412 41.5399 52.8687 41.56 52.902C41.5801 52.9354 41.591 52.9734 41.5918 53.0124V55.6237Z" fill="#FAFAFA"/>
<path d="M39.3979 53.1055H41.6897" stroke="#191919" stroke-width="0.343756" stroke-linecap="round" stroke-linejoin="round"/>
<path d="M40.5439 54.2526V51.9609" stroke="#191919" stroke-width="0.343756" stroke-linecap="round" stroke-linejoin="round"/>
</g>
<g clip-path="url(#clip4_8747_15101)">
<path d="M40.429 32.6427C40.7979 32.6422 41.1515 32.4955 41.4124 32.2347C41.6732 31.9738 41.8199 31.6202 41.8204 31.2513V30.7698C40.9002 30.9431 39.9552 30.9364 39.0376 30.75V31.2513C39.038 31.6202 39.1848 31.9738 39.4456 32.2347C39.7064 32.4955 40.0601 32.6422 40.429 32.6427Z" fill="#FAFAFA"/>
<path d="M46.1289 35.3969L44.9879 32.9987C44.7728 32.5497 44.3936 32.2004 43.9286 32.0226L43.0579 31.6907C42.7134 31.5889 42.4619 31.1842 42.2599 30.9082V31.1856C42.2681 31.4414 42.2229 31.6962 42.1272 31.9336C42.0315 32.171 41.8873 32.3858 41.7039 32.5644C41.5205 32.7429 41.3019 32.8813 41.062 32.9707C40.8222 33.06 40.5663 33.0984 40.3108 33.0833C40.0552 33.0682 39.8056 33.0001 39.5779 32.8831C39.3502 32.7662 39.1494 32.6031 38.9883 32.4042C38.8271 32.2053 38.7092 31.975 38.6421 31.728C38.5749 31.481 38.56 31.2227 38.5982 30.9696C38.4477 31.2591 38.2014 31.4875 37.9014 31.6158L37.0858 31.9083C36.6177 32.0739 36.2317 32.4141 36.0087 32.8578L34.7292 35.3969C34.7114 35.4354 34.7095 35.4793 34.7239 35.5192C34.7383 35.5591 34.7679 35.5917 34.8061 35.61L36.5104 36.385C36.5424 36.3996 36.5775 36.4063 36.6126 36.4045C36.6478 36.4028 36.682 36.3926 36.7124 36.3749C36.7428 36.3572 36.7685 36.3324 36.7873 36.3027C36.8062 36.273 36.8176 36.2392 36.8207 36.2041L36.8833 35.4898C36.8899 35.4325 36.9185 35.38 36.9632 35.3435C37.0078 35.307 37.065 35.2894 37.1224 35.2944C37.1799 35.2994 37.2331 35.3267 37.2708 35.3704C37.3084 35.4141 37.3275 35.4708 37.324 35.5283L36.7933 41.5605C36.7931 41.6033 36.8017 41.6457 36.8185 41.6851C36.8353 41.7245 36.8601 41.76 36.8912 41.7895C36.9223 41.819 36.9591 41.8417 36.9993 41.8564C37.0396 41.8711 37.0824 41.8773 37.1252 41.8748H43.7504C43.7934 41.8773 43.8364 41.871 43.8768 41.8562C43.9172 41.8414 43.9542 41.8184 43.9853 41.7887C44.0164 41.759 44.0411 41.7232 44.0578 41.6836C44.0745 41.6439 44.0828 41.6012 44.0823 41.5582C43.9884 40.5516 43.5998 36.4464 43.5137 35.5296C43.5095 35.4722 43.528 35.4155 43.5652 35.3716C43.6024 35.3277 43.6553 35.3001 43.7125 35.2947C43.7698 35.2893 43.8269 35.3065 43.8716 35.3427C43.9163 35.3789 43.9451 35.4312 43.9517 35.4883L44.0184 36.1953C44.0217 36.2301 44.0332 36.2635 44.052 36.293C44.0708 36.3224 44.0963 36.3469 44.1265 36.3645C44.1566 36.3821 44.1905 36.3922 44.2253 36.3941C44.2602 36.396 44.295 36.3896 44.3268 36.3754L46.0519 35.6057C46.0896 35.5879 46.1188 35.556 46.1332 35.5169C46.1476 35.4778 46.146 35.4349 46.1289 35.3969ZM40.0112 39.6237C40.0095 39.6808 39.9856 39.735 39.9446 39.7748C39.9036 39.8146 39.8487 39.8368 39.7915 39.8368C39.7344 39.8368 39.6795 39.8146 39.6385 39.7748C39.5975 39.735 39.5735 39.6808 39.5718 39.6237V37.4081L39.3585 37.54C39.309 37.5693 39.25 37.578 39.1941 37.5642C39.1383 37.5504 39.09 37.5153 39.0598 37.4663C39.0296 37.4173 39.0198 37.3585 39.0325 37.3024C39.0453 37.2463 39.0795 37.1974 39.1279 37.1663L39.6751 36.8254C39.7086 36.8055 39.7467 36.7948 39.7856 36.7942C39.8245 36.7937 39.863 36.8033 39.897 36.8222C39.931 36.8412 39.9595 36.8687 39.9796 36.902C39.9997 36.9354 40.0107 36.9734 40.0114 37.0124L40.0112 39.6237ZM41.5918 39.6237C41.5918 39.682 41.5687 39.7379 41.5274 39.7791C41.4862 39.8204 41.4303 39.8435 41.372 39.8435C41.3137 39.8435 41.2578 39.8204 41.2166 39.7791C41.1753 39.7379 41.1522 39.682 41.1522 39.6237V37.4081L40.9391 37.54C40.8895 37.5706 40.8299 37.5803 40.7732 37.5669C40.7165 37.5535 40.6674 37.5181 40.6368 37.4686C40.6062 37.419 40.5965 37.3593 40.6099 37.3026C40.6233 37.2459 40.6587 37.1969 40.7083 37.1663L41.2555 36.8254C41.2889 36.8055 41.3271 36.7948 41.366 36.7942C41.4049 36.7937 41.4433 36.8033 41.4774 36.8222C41.5114 36.8412 41.5399 36.8687 41.56 36.902C41.5801 36.9354 41.591 36.9734 41.5918 37.0124V39.6237Z" fill="#FAFAFA"/>
<path d="M40.0112 39.6237C40.0095 39.6808 39.9856 39.735 39.9446 39.7748C39.9036 39.8146 39.8487 39.8368 39.7915 39.8368C39.7344 39.8368 39.6795 39.8146 39.6385 39.7748C39.5975 39.735 39.5735 39.6808 39.5718 39.6237V37.4081L39.3585 37.54C39.309 37.5693 39.25 37.578 39.1941 37.5642C39.1383 37.5504 39.09 37.5153 39.0598 37.4663C39.0296 37.4173 39.0198 37.3585 39.0325 37.3024C39.0453 37.2463 39.0795 37.1974 39.1279 37.1663L39.6751 36.8254C39.7086 36.8055 39.7467 36.7948 39.7856 36.7942C39.8245 36.7937 39.863 36.8033 39.897 36.8222C39.931 36.8412 39.9595 36.8687 39.9796 36.902C39.9997 36.9354 40.0107 36.9734 40.0114 37.0124L40.0112 39.6237Z" fill="#FAFAFA"/>
<path d="M41.5918 39.6237C41.5918 39.682 41.5687 39.7379 41.5274 39.7791C41.4862 39.8204 41.4303 39.8435 41.372 39.8435C41.3137 39.8435 41.2578 39.8204 41.2166 39.7791C41.1753 39.7379 41.1522 39.682 41.1522 39.6237V37.4081L40.9391 37.54C40.8895 37.5706 40.8299 37.5803 40.7732 37.5669C40.7165 37.5535 40.6674 37.5181 40.6368 37.4686C40.6062 37.419 40.5965 37.3593 40.6099 37.3026C40.6233 37.2459 40.6587 37.1969 40.7083 37.1663L41.2555 36.8254C41.2889 36.8055 41.3271 36.7948 41.366 36.7942C41.4049 36.7937 41.4433 36.8033 41.4774 36.8222C41.5114 36.8412 41.5399 36.8687 41.56 36.902C41.5801 36.9354 41.591 36.9734 41.5918 37.0124V39.6237Z" fill="#FAFAFA"/>
<path d="M39.3979 37.1055H41.6897" stroke="#191919" stroke-width="0.343756" stroke-linecap="round" stroke-linejoin="round"/>
<path d="M40.5439 38.2526V35.9609" stroke="#191919" stroke-width="0.343756" stroke-linecap="round" stroke-linejoin="round"/>
</g>
<g clip-path="url(#clip5_8747_15101)">
<path d="M40.429 6.99618C40.7979 6.99575 41.1515 6.84902 41.4124 6.58818C41.6732 6.32734 41.8199 5.97368 41.8204 5.6048V5.12331C40.9002 5.29665 39.9552 5.28993 39.0376 5.10352V5.6048C39.038 5.97368 39.1848 6.32734 39.4456 6.58818C39.7064 6.84902 40.0601 6.99575 40.429 6.99618Z" fill="#FAFAFA"/>
<path d="M46.1289 9.7504L44.9879 7.35217C44.7728 6.90324 44.3936 6.55392 43.9286 6.37613L43.0579 6.04426C42.7134 5.94241 42.4619 5.53767 42.2599 5.26172V5.5391C42.2681 5.79494 42.2229 6.04969 42.1272 6.28709C42.0315 6.52449 41.8873 6.73932 41.7039 6.91789C41.5205 7.09646 41.3019 7.23483 41.062 7.32418C40.8222 7.41353 40.5663 7.45189 40.3108 7.43682C40.0552 7.42175 39.8056 7.35358 39.5779 7.23666C39.3502 7.11973 39.1494 6.95662 38.9883 6.75774C38.8271 6.55885 38.7092 6.32856 38.6421 6.08155C38.5749 5.83455 38.56 5.57625 38.5982 5.32315C38.4477 5.61265 38.2014 5.84101 37.9014 5.96935L37.0858 6.26184C36.6177 6.42743 36.2317 6.76766 36.0087 7.21133L34.7292 9.7504C34.7114 9.7889 34.7095 9.83286 34.7239 9.87274C34.7383 9.91262 34.7679 9.94522 34.8061 9.96349L36.5104 10.7385C36.5424 10.7531 36.5775 10.7598 36.6126 10.758C36.6478 10.7563 36.682 10.7461 36.7124 10.7284C36.7428 10.7107 36.7685 10.6859 36.7873 10.6562C36.8062 10.6265 36.8176 10.5927 36.8207 10.5576L36.8833 9.84327C36.8899 9.78597 36.9185 9.73348 36.9632 9.69699C37.0078 9.6605 37.065 9.64289 37.1224 9.64792C37.1799 9.65295 37.2331 9.68022 37.2708 9.72392C37.3084 9.76761 37.3275 9.82428 37.324 9.88185L36.7933 15.914C36.7931 15.9568 36.8017 15.9992 36.8185 16.0386C36.8353 16.078 36.8601 16.1136 36.8912 16.143C36.9223 16.1725 36.9591 16.1952 36.9993 16.2099C37.0396 16.2246 37.0824 16.2308 37.1252 16.2283H43.7504C43.7934 16.2309 43.8364 16.2245 43.8768 16.2097C43.9172 16.1949 43.9542 16.172 43.9853 16.1423C44.0164 16.1126 44.0411 16.0768 44.0578 16.0371C44.0745 15.9974 44.0828 15.9548 44.0823 15.9117C43.9884 14.9051 43.5998 10.7999 43.5137 9.88307C43.5095 9.8257 43.528 9.76899 43.5652 9.72508C43.6024 9.68118 43.6553 9.65357 43.7125 9.64818C43.7698 9.64279 43.8269 9.66004 43.8716 9.69624C43.9163 9.73244 43.9451 9.78471 43.9517 9.84184L44.0184 10.5489C44.0217 10.5836 44.0332 10.6171 44.052 10.6465C44.0708 10.6759 44.0963 10.7004 44.1265 10.718C44.1566 10.7356 44.1905 10.7457 44.2253 10.7476C44.2602 10.7495 44.295 10.7431 44.3268 10.7289L46.0519 9.9592C46.0896 9.94143 46.1188 9.90955 46.1332 9.87045C46.1476 9.83136 46.146 9.78837 46.1289 9.7504ZM40.0112 13.9772C40.0095 14.0343 39.9856 14.0885 39.9446 14.1283C39.9036 14.1681 39.8487 14.1903 39.7915 14.1903C39.7344 14.1903 39.6795 14.1681 39.6385 14.1283C39.5975 14.0885 39.5735 14.0343 39.5718 13.9772V11.7617L39.3585 11.8935C39.309 11.9228 39.25 11.9315 39.1941 11.9177C39.1383 11.9039 39.09 11.8688 39.0598 11.8198C39.0296 11.7709 39.0198 11.712 39.0325 11.6559C39.0453 11.5998 39.0795 11.5509 39.1279 11.5198L39.6751 11.1789C39.7086 11.159 39.7467 11.1483 39.7856 11.1477C39.8245 11.1472 39.863 11.1568 39.897 11.1757C39.931 11.1947 39.9595 11.2222 39.9796 11.2555C39.9997 11.2889 40.0107 11.327 40.0114 11.3659L40.0112 13.9772ZM41.5918 13.9772C41.5918 14.0355 41.5687 14.0914 41.5274 14.1327C41.4862 14.1739 41.4303 14.197 41.372 14.197C41.3137 14.197 41.2578 14.1739 41.2166 14.1327C41.1753 14.0914 41.1522 14.0355 41.1522 13.9772V11.7617L40.9391 11.8935C40.8895 11.9241 40.8299 11.9338 40.7732 11.9204C40.7165 11.907 40.6674 11.8716 40.6368 11.8221C40.6062 11.7725 40.5965 11.7128 40.6099 11.6561C40.6233 11.5995 40.6587 11.5504 40.7083 11.5198L41.2555 11.1789C41.2889 11.159 41.3271 11.1483 41.366 11.1477C41.4049 11.1472 41.4433 11.1568 41.4774 11.1757C41.5114 11.1947 41.5399 11.2222 41.56 11.2555C41.5801 11.2889 41.591 11.327 41.5918 11.3659V13.9772Z" fill="#FAFAFA"/>
<path d="M40.0112 13.9772C40.0095 14.0343 39.9856 14.0885 39.9446 14.1283C39.9036 14.1681 39.8487 14.1903 39.7915 14.1903C39.7344 14.1903 39.6795 14.1681 39.6385 14.1283C39.5975 14.0885 39.5735 14.0343 39.5718 13.9772V11.7617L39.3585 11.8935C39.309 11.9228 39.25 11.9315 39.1941 11.9177C39.1383 11.9039 39.09 11.8688 39.0598 11.8198C39.0296 11.7709 39.0198 11.712 39.0325 11.6559C39.0453 11.5998 39.0795 11.5509 39.1279 11.5198L39.6751 11.1789C39.7086 11.159 39.7467 11.1483 39.7856 11.1477C39.8245 11.1472 39.863 11.1568 39.897 11.1757C39.931 11.1947 39.9595 11.2222 39.9796 11.2555C39.9997 11.2889 40.0107 11.327 40.0114 11.3659L40.0112 13.9772Z" fill="#FAFAFA"/>
<path d="M41.5918 13.9772C41.5918 14.0355 41.5687 14.0914 41.5274 14.1327C41.4862 14.1739 41.4303 14.197 41.372 14.197C41.3137 14.197 41.2578 14.1739 41.2166 14.1327C41.1753 14.0914 41.1522 14.0355 41.1522 13.9772V11.7617L40.9391 11.8935C40.8895 11.9241 40.8299 11.9338 40.7732 11.9204C40.7165 11.907 40.6674 11.8716 40.6368 11.8221C40.6062 11.7725 40.5965 11.7128 40.6099 11.6561C40.6233 11.5995 40.6587 11.5504 40.7083 11.5198L41.2555 11.1789C41.2889 11.159 41.3271 11.1483 41.366 11.1477C41.4049 11.1472 41.4433 11.1568 41.4774 11.1757C41.5114 11.1947 41.5399 11.2222 41.56 11.2555C41.5801 11.2889 41.591 11.327 41.5918 11.3659V13.9772Z" fill="#FAFAFA"/>
<path d="M39.3979 11.4609H41.6897" stroke="#191919" stroke-width="0.343756" stroke-linecap="round" stroke-linejoin="round"/>
<path d="M40.5439 12.6081V10.3164" stroke="#191919" stroke-width="0.343756" stroke-linecap="round" stroke-linejoin="round"/>
</g>
<defs>
<clipPath id="clip0_8747_15101">
<rect width="13.0627" height="13.0627" fill="white" transform="translate(33.8979 62.5645)"/>
</clipPath>
<clipPath id="clip1_8747_15101">
<rect width="13.0627" height="13.0627" fill="white" transform="translate(8.91846 45.6699)"/>
</clipPath>
<clipPath id="clip2_8747_15101">
<rect width="13.0627" height="13.0627" fill="white" transform="translate(14.9185 17.6699)"/>
</clipPath>
<clipPath id="clip3_8747_15101">
<rect width="13.0627" height="13.0627" fill="white" transform="translate(33.8979 45.7734)"/>
</clipPath>
<clipPath id="clip4_8747_15101">
<rect width="13.0627" height="13.0627" fill="white" transform="translate(33.8979 29.7734)"/>
</clipPath>
<clipPath id="clip5_8747_15101">
<rect width="13.0627" height="13.0627" fill="white" transform="translate(33.8979 4.12695)"/>
</clipPath>
</defs>
</svg>
