<svg width="81" height="81" viewBox="0 0 81 81" fill="none" xmlns="http://www.w3.org/2000/svg">
<rect x="0.534263" y="0.118492" width="79.9807" height="79.9807" rx="5.88541" fill="#828284" stroke="#FAFAFA" stroke-width="0.229171"/>
<mask id="path-2-inside-1_8747_15139" fill="white">
<path d="M24.2534 66.4609H56.7957V80.2112H24.2534V66.4609Z"/>
</mask>
<path d="M24.2534 66.4609V66.2318H24.0242V66.4609H24.2534ZM56.7957 66.4609H57.0249V66.2318H56.7957V66.4609ZM24.2534 66.6901H56.7957V66.2318H24.2534V66.6901ZM56.5665 66.4609V80.2112H57.0249V66.4609H56.5665ZM24.4826 80.2112V66.4609H24.0242V80.2112H24.4826Z" fill="#FAFAFA" mask="url(#path-2-inside-1_8747_15139)"/>
<mask id="path-4-inside-2_8747_15139" fill="white">
<path d="M13.0239 55.0039H68.025V80.2127H13.0239V55.0039Z"/>
</mask>
<path d="M13.0239 55.0039V54.7747H12.7948V55.0039H13.0239ZM68.025 55.0039H68.2541V54.7747H68.025V55.0039ZM13.0239 55.2331H68.025V54.7747H13.0239V55.2331ZM67.7958 55.0039V80.2127H68.2541V55.0039H67.7958ZM13.2531 80.2127V55.0039H12.7948V80.2127H13.2531Z" fill="#FAFAFA" mask="url(#path-4-inside-2_8747_15139)"/>
<path d="M54.7331 9.53674e-07C54.7331 1.65523 54.3478 3.29426 53.5992 4.8235C52.8506 6.35273 51.7534 7.74223 50.3702 8.91266C48.9869 10.0831 47.3448 11.0115 45.5375 11.645C43.7302 12.2784 41.7932 12.6044 39.837 12.6044C37.8808 12.6044 35.9438 12.2784 34.1365 11.645C32.3293 11.0115 30.6871 10.0831 29.3039 8.91266C27.9207 7.74223 26.8234 6.35273 26.0748 4.8235C25.3262 3.29426 24.9409 1.65523 24.9409 0" stroke="#FAFAFA" stroke-width="0.229171"/>
<path d="M30.212 57.9824C30.212 57.0796 30.4788 56.1856 30.997 55.3514C31.5153 54.5173 32.2749 53.7594 33.2325 53.121C34.1902 52.4826 35.327 51.9761 36.5782 51.6306C37.8294 51.2851 39.1704 51.1073 40.5247 51.1073C41.879 51.1073 43.22 51.2851 44.4712 51.6306C45.7224 51.9761 46.8593 52.4826 47.8169 53.121C48.7745 53.7594 49.5341 54.5173 50.0524 55.3514C50.5707 56.1856 50.8374 57.0796 50.8374 57.9824" stroke="#FAFAFA" stroke-width="0.229171"/>
<rect x="27.9202" y="55.2305" width="26.1255" height="3.89591" fill="#828284"/>
<path d="M0.648926 76.5479C1.76545 76.4958 3.96938 77.1099 3.85288 79.9825" stroke="#FAFAFA" stroke-width="0.229171"/>
<path d="M80.4004 76.5479C79.2839 76.4958 77.0799 77.1099 77.1964 79.9825" stroke="#FAFAFA" stroke-width="0.229171"/>
<g clip-path="url(#clip0_8747_15139)">
<path d="M40.6389 69.4356C41.0078 69.4352 41.3615 69.2885 41.6223 69.0276C41.8832 68.7668 42.0299 68.4131 42.0303 68.0443V67.5628C41.1102 67.7361 40.1651 67.7294 39.2476 67.543V68.0443C39.248 68.4131 39.3947 68.7668 39.6556 69.0276C39.9164 69.2885 40.2701 69.4352 40.6389 69.4356Z" fill="#FAFAFA"/>
<path d="M46.3389 72.1899L45.1979 69.7916C44.9827 69.3427 44.6036 68.9934 44.1386 68.8156L43.2679 68.4837C42.9234 68.3819 42.6719 67.9771 42.4698 67.7012V67.9786C42.4781 68.2344 42.4329 68.4891 42.3372 68.7265C42.2414 68.9639 42.0973 69.1788 41.9139 69.3573C41.7305 69.5359 41.5119 69.6743 41.272 69.7636C41.0321 69.853 40.7762 69.8913 40.5207 69.8763C40.2652 69.8612 40.0156 69.793 39.7879 69.6761C39.5602 69.5592 39.3594 69.3961 39.1982 69.1972C39.0371 68.9983 38.9192 68.768 38.852 68.521C38.7849 68.274 38.7699 68.0157 38.8082 67.7626C38.6576 68.0521 38.4114 68.2805 38.1114 68.4088L37.2958 68.7013C36.8276 68.8669 36.4417 69.2071 36.2187 69.6508L34.9392 72.1899C34.9214 72.2284 34.9195 72.2723 34.9339 72.3122C34.9483 72.3521 34.9778 72.3847 35.0161 72.4029L36.7204 73.1779C36.7524 73.1925 36.7874 73.1992 36.8226 73.1975C36.8577 73.1957 36.8919 73.1856 36.9223 73.1679C36.9527 73.1501 36.9784 73.1254 36.9973 73.0957C37.0161 73.066 37.0276 73.0321 37.0306 72.9971L37.0933 72.2827C37.0998 72.2254 37.1285 72.1729 37.1731 72.1364C37.2178 72.1 37.2749 72.0823 37.3324 72.0874C37.3899 72.0924 37.4431 72.1197 37.4807 72.1634C37.5184 72.2071 37.5375 72.2637 37.5339 72.3213L37.0033 78.3534C37.0031 78.3963 37.0116 78.4387 37.0285 78.4781C37.0453 78.5175 37.07 78.553 37.1011 78.5825C37.1322 78.6119 37.1691 78.6347 37.2093 78.6494C37.2496 78.664 37.2924 78.6703 37.3351 78.6678H43.9604C44.0034 78.6703 44.0464 78.664 44.0868 78.6492C44.1272 78.6344 44.1641 78.6114 44.1953 78.5817C44.2264 78.552 44.2511 78.5162 44.2678 78.4766C44.2845 78.4369 44.2928 78.3942 44.2923 78.3512C44.1984 77.3445 43.8098 73.2394 43.7236 72.3225C43.7195 72.2652 43.738 72.2084 43.7752 72.1645C43.8123 72.1206 43.8652 72.093 43.9225 72.0876C43.9798 72.0822 44.0369 72.0995 44.0816 72.1357C44.1263 72.1719 44.155 72.2242 44.1617 72.2813L44.2284 72.9883C44.2317 73.0231 44.2432 73.0565 44.262 73.0859C44.2808 73.1153 44.3063 73.1398 44.3364 73.1574C44.3666 73.175 44.4005 73.1852 44.4353 73.1871C44.4701 73.189 44.5049 73.1826 44.5368 73.1683L46.2619 72.3987C46.2996 72.3809 46.3288 72.349 46.3432 72.3099C46.3576 72.2708 46.356 72.2278 46.3389 72.1899ZM40.2212 76.4167C40.2195 76.4738 40.1955 76.528 40.1545 76.5678C40.1135 76.6076 40.0586 76.6298 40.0015 76.6298C39.9443 76.6298 39.8894 76.6076 39.8484 76.5678C39.8074 76.528 39.7835 76.4738 39.7818 76.4167V74.2011L39.5685 74.333C39.519 74.3623 39.4599 74.3709 39.4041 74.3572C39.3482 74.3434 39.3 74.3082 39.2698 74.2593C39.2396 74.2103 39.2298 74.1515 39.2425 74.0954C39.2552 74.0392 39.2895 73.9904 39.3378 73.9592L39.885 73.6184C39.9185 73.5985 39.9566 73.5877 39.9956 73.5872C40.0345 73.5866 40.0729 73.5963 40.107 73.6152C40.141 73.6341 40.1695 73.6616 40.1896 73.695C40.2096 73.7284 40.2206 73.7664 40.2214 73.8054L40.2212 76.4167ZM41.8018 76.4167C41.8018 76.475 41.7786 76.5309 41.7374 76.5721C41.6962 76.6133 41.6403 76.6365 41.582 76.6365C41.5237 76.6365 41.4678 76.6133 41.4265 76.5721C41.3853 76.5309 41.3621 76.475 41.3621 76.4167V74.2011L41.1491 74.333C41.0995 74.3636 41.0398 74.3732 40.9831 74.3598C40.9264 74.3465 40.8774 74.3111 40.8468 74.2615C40.8162 74.212 40.8065 74.1523 40.8199 74.0956C40.8333 74.0389 40.8687 73.9899 40.9182 73.9592L41.4654 73.6184C41.4989 73.5985 41.537 73.5877 41.576 73.5872C41.6149 73.5866 41.6533 73.5963 41.6873 73.6152C41.7214 73.6341 41.7499 73.6616 41.7699 73.695C41.79 73.7284 41.801 73.7664 41.8018 73.8054V76.4167Z" fill="#FAFAFA"/>
<path d="M40.2212 76.4167C40.2195 76.4738 40.1955 76.528 40.1545 76.5678C40.1135 76.6076 40.0586 76.6298 40.0015 76.6298C39.9443 76.6298 39.8894 76.6076 39.8484 76.5678C39.8074 76.528 39.7835 76.4738 39.7818 76.4167V74.2011L39.5685 74.333C39.519 74.3623 39.4599 74.3709 39.4041 74.3572C39.3482 74.3434 39.3 74.3082 39.2698 74.2593C39.2396 74.2103 39.2298 74.1515 39.2425 74.0954C39.2552 74.0392 39.2895 73.9904 39.3378 73.9592L39.885 73.6184C39.9185 73.5985 39.9566 73.5877 39.9956 73.5872C40.0345 73.5866 40.0729 73.5963 40.107 73.6152C40.141 73.6341 40.1695 73.6616 40.1896 73.695C40.2096 73.7284 40.2206 73.7664 40.2214 73.8054L40.2212 76.4167Z" fill="#FAFAFA"/>
<path d="M41.8018 76.4167C41.8018 76.475 41.7786 76.5309 41.7374 76.5721C41.6962 76.6133 41.6403 76.6365 41.582 76.6365C41.5237 76.6365 41.4678 76.6133 41.4265 76.5721C41.3853 76.5309 41.3621 76.475 41.3621 76.4167V74.2011L41.1491 74.333C41.0995 74.3636 41.0398 74.3732 40.9831 74.3598C40.9264 74.3465 40.8774 74.3111 40.8468 74.2615C40.8162 74.212 40.8065 74.1523 40.8199 74.0956C40.8333 74.0389 40.8687 73.9899 40.9182 73.9592L41.4654 73.6184C41.4989 73.5985 41.537 73.5877 41.576 73.5872C41.6149 73.5866 41.6533 73.5963 41.6873 73.6152C41.7214 73.6341 41.7499 73.6616 41.7699 73.695C41.79 73.7284 41.801 73.7664 41.8018 73.8054V76.4167Z" fill="#FAFAFA"/>
<path d="M39.6079 73.8965H41.8996" stroke="#191919" stroke-width="0.343756" stroke-linecap="round" stroke-linejoin="round"/>
<path d="M40.7539 75.0437V72.752" stroke="#191919" stroke-width="0.343756" stroke-linecap="round" stroke-linejoin="round"/>
</g>
<g clip-path="url(#clip1_8747_15139)">
<path d="M15.6592 48.5372C16.0281 48.5368 16.3817 48.39 16.6426 48.1292C16.9034 47.8684 17.0502 47.5147 17.0506 47.1458V46.6643C16.1304 46.8377 15.1854 46.8309 14.2678 46.6445V47.1458C14.2683 47.5147 14.415 47.8684 14.6758 48.1292C14.9367 48.39 15.2903 48.5368 15.6592 48.5372Z" fill="#FAFAFA"/>
<path d="M21.3591 51.2914L20.2182 48.8932C20.003 48.4443 19.6239 48.0949 19.1589 47.9171L18.2881 47.5853C17.9436 47.4834 17.6922 47.0787 17.4901 46.8027V47.0801C17.4983 47.336 17.4531 47.5907 17.3574 47.8281C17.2617 48.0655 17.1175 48.2803 16.9341 48.4589C16.7507 48.6375 16.5321 48.7758 16.2922 48.8652C16.0524 48.9545 15.7965 48.9929 15.541 48.9778C15.2855 48.9628 15.0359 48.8946 14.8082 48.7777C14.5805 48.6607 14.3796 48.4976 14.2185 48.2988C14.0573 48.0999 13.9394 47.8696 13.8723 47.6226C13.8051 47.3756 13.7902 47.1173 13.8284 46.8642C13.6779 47.1537 13.4316 47.382 13.1316 47.5104L12.316 47.8029C11.8479 47.9684 11.4619 48.3087 11.239 48.7523L9.95942 51.2914C9.94165 51.3299 9.93976 51.3739 9.95417 51.4138C9.96857 51.4536 9.9981 51.4862 10.0364 51.5045L11.7406 52.2795C11.7727 52.2941 11.8077 52.3008 11.8429 52.2991C11.878 52.2973 11.9122 52.2871 11.9426 52.2694C11.973 52.2517 11.9987 52.2269 12.0175 52.1972C12.0364 52.1675 12.0478 52.1337 12.0509 52.0987L12.1135 51.3843C12.1201 51.327 12.1487 51.2745 12.1934 51.238C12.2381 51.2015 12.2952 51.1839 12.3527 51.1889C12.4101 51.194 12.4633 51.2212 12.501 51.2649C12.5386 51.3086 12.5577 51.3653 12.5542 51.4229L12.0235 57.455C12.0233 57.4978 12.0319 57.5403 12.0487 57.5797C12.0656 57.6191 12.0903 57.6546 12.1214 57.684C12.1525 57.7135 12.1893 57.7363 12.2296 57.7509C12.2698 57.7656 12.3126 57.7719 12.3554 57.7693H18.9807C19.0236 57.7719 19.0667 57.7655 19.1071 57.7507C19.1475 57.7359 19.1844 57.713 19.2155 57.6833C19.2467 57.6536 19.2713 57.6178 19.288 57.5781C19.3047 57.5385 19.3131 57.4958 19.3125 57.4528C19.2187 56.4461 18.83 52.3409 18.7439 51.4241C18.7398 51.3667 18.7583 51.31 18.7954 51.2661C18.8326 51.2222 18.8855 51.1946 18.9427 51.1892C19 51.1838 19.0571 51.2011 19.1018 51.2373C19.1465 51.2735 19.1753 51.3257 19.1819 51.3829L19.2487 52.0899C19.252 52.1246 19.2635 52.1581 19.2823 52.1875C19.301 52.2169 19.3266 52.2414 19.3567 52.259C19.3868 52.2766 19.4207 52.2868 19.4556 52.2886C19.4904 52.2905 19.5252 52.2841 19.5571 52.2699L21.2822 51.5002C21.3198 51.4824 21.349 51.4506 21.3634 51.4115C21.3778 51.3724 21.3763 51.3294 21.3591 51.2914ZM15.2415 55.5182C15.2397 55.5754 15.2158 55.6295 15.1748 55.6693C15.1338 55.7091 15.0789 55.7314 15.0217 55.7314C14.9646 55.7314 14.9097 55.7091 14.8687 55.6693C14.8277 55.6295 14.8038 55.5754 14.802 55.5182V53.3027L14.5887 53.4345C14.5392 53.4638 14.4802 53.4725 14.4243 53.4587C14.3685 53.4449 14.3203 53.4098 14.29 53.3608C14.2598 53.3119 14.25 53.253 14.2628 53.1969C14.2755 53.1408 14.3097 53.0919 14.3581 53.0608L14.9053 52.72C14.9388 52.7001 14.9769 52.6893 15.0158 52.6887C15.0548 52.6882 15.0932 52.6978 15.1272 52.7168C15.1613 52.7357 15.1897 52.7632 15.2098 52.7966C15.2299 52.8299 15.2409 52.868 15.2417 52.9069L15.2415 55.5182ZM16.8221 55.5182C16.8221 55.5765 16.7989 55.6325 16.7577 55.6737C16.7164 55.7149 16.6605 55.7381 16.6022 55.7381C16.5439 55.7381 16.488 55.7149 16.4468 55.6737C16.4056 55.6325 16.3824 55.5765 16.3824 55.5182V53.3027L16.1693 53.4345C16.1198 53.4651 16.0601 53.4748 16.0034 53.4614C15.9467 53.448 15.8977 53.4126 15.867 53.3631C15.8364 53.3135 15.8268 53.2538 15.8402 53.1972C15.8536 53.1405 15.8889 53.0914 15.9385 53.0608L16.4857 52.72C16.5192 52.7001 16.5573 52.6893 16.5962 52.6887C16.6352 52.6882 16.6736 52.6978 16.7076 52.7168C16.7416 52.7357 16.7701 52.7632 16.7902 52.7966C16.8103 52.8299 16.8213 52.868 16.8221 52.9069V55.5182Z" fill="#FAFAFA"/>
<path d="M15.2415 55.5182C15.2397 55.5754 15.2158 55.6295 15.1748 55.6693C15.1338 55.7091 15.0789 55.7314 15.0217 55.7314C14.9646 55.7314 14.9097 55.7091 14.8687 55.6693C14.8277 55.6295 14.8038 55.5754 14.802 55.5182V53.3027L14.5887 53.4345C14.5392 53.4638 14.4802 53.4725 14.4243 53.4587C14.3685 53.4449 14.3203 53.4098 14.29 53.3608C14.2598 53.3119 14.25 53.253 14.2628 53.1969C14.2755 53.1408 14.3097 53.0919 14.3581 53.0608L14.9053 52.72C14.9388 52.7001 14.9769 52.6893 15.0158 52.6887C15.0548 52.6882 15.0932 52.6978 15.1272 52.7168C15.1613 52.7357 15.1897 52.7632 15.2098 52.7966C15.2299 52.8299 15.2409 52.868 15.2417 52.9069L15.2415 55.5182Z" fill="#FAFAFA"/>
<path d="M16.8221 55.5182C16.8221 55.5765 16.7989 55.6325 16.7577 55.6737C16.7164 55.7149 16.6605 55.7381 16.6022 55.7381C16.5439 55.7381 16.488 55.7149 16.4468 55.6737C16.4056 55.6325 16.3824 55.5765 16.3824 55.5182V53.3027L16.1693 53.4345C16.1198 53.4651 16.0601 53.4748 16.0034 53.4614C15.9467 53.448 15.8977 53.4126 15.867 53.3631C15.8364 53.3135 15.8268 53.2538 15.8402 53.1972C15.8536 53.1405 15.8889 53.0914 15.9385 53.0608L16.4857 52.72C16.5192 52.7001 16.5573 52.6893 16.5962 52.6887C16.6352 52.6882 16.6736 52.6978 16.7076 52.7168C16.7416 52.7357 16.7701 52.7632 16.7902 52.7966C16.8103 52.8299 16.8213 52.868 16.8221 52.9069V55.5182Z" fill="#FAFAFA"/>
<path d="M14.6282 53.002H16.9199" stroke="#191919" stroke-width="0.343756" stroke-linecap="round" stroke-linejoin="round"/>
<path d="M15.7742 54.1491V51.8574" stroke="#191919" stroke-width="0.343756" stroke-linecap="round" stroke-linejoin="round"/>
</g>
<g clip-path="url(#clip2_8747_15139)">
<path d="M40.6592 48.5372C41.0281 48.5368 41.3817 48.39 41.6426 48.1292C41.9034 47.8684 42.0502 47.5147 42.0506 47.1458V46.6643C41.1304 46.8377 40.1854 46.8309 39.2678 46.6445V47.1458C39.2683 47.5147 39.415 47.8684 39.6758 48.1292C39.9367 48.39 40.2903 48.5368 40.6592 48.5372Z" fill="#FAFAFA"/>
<path d="M46.3591 51.2914L45.2182 48.8932C45.003 48.4443 44.6239 48.0949 44.1589 47.9171L43.2881 47.5853C42.9436 47.4834 42.6922 47.0787 42.4901 46.8027V47.0801C42.4983 47.336 42.4531 47.5907 42.3574 47.8281C42.2617 48.0655 42.1175 48.2803 41.9341 48.4589C41.7507 48.6375 41.5321 48.7758 41.2922 48.8652C41.0524 48.9545 40.7965 48.9929 40.541 48.9778C40.2855 48.9628 40.0359 48.8946 39.8082 48.7777C39.5805 48.6607 39.3796 48.4976 39.2185 48.2988C39.0573 48.0999 38.9394 47.8696 38.8723 47.6226C38.8051 47.3756 38.7902 47.1173 38.8284 46.8642C38.6779 47.1537 38.4316 47.382 38.1316 47.5104L37.316 47.8029C36.8479 47.9684 36.4619 48.3087 36.239 48.7523L34.9594 51.2914C34.9417 51.3299 34.9398 51.3739 34.9542 51.4138C34.9686 51.4536 34.9981 51.4862 35.0364 51.5045L36.7406 52.2795C36.7727 52.2941 36.8077 52.3008 36.8429 52.2991C36.878 52.2973 36.9122 52.2871 36.9426 52.2694C36.973 52.2517 36.9987 52.2269 37.0175 52.1972C37.0364 52.1675 37.0478 52.1337 37.0509 52.0987L37.1135 51.3843C37.1201 51.327 37.1487 51.2745 37.1934 51.238C37.2381 51.2015 37.2952 51.1839 37.3527 51.1889C37.4101 51.194 37.4633 51.2212 37.501 51.2649C37.5386 51.3086 37.5577 51.3653 37.5542 51.4229L37.0235 57.455C37.0233 57.4978 37.0319 57.5403 37.0487 57.5797C37.0656 57.6191 37.0903 57.6546 37.1214 57.684C37.1525 57.7135 37.1893 57.7363 37.2296 57.7509C37.2698 57.7656 37.3126 57.7719 37.3554 57.7693H43.9807C44.0236 57.7719 44.0667 57.7655 44.1071 57.7507C44.1475 57.7359 44.1844 57.713 44.2155 57.6833C44.2467 57.6536 44.2713 57.6178 44.288 57.5781C44.3047 57.5385 44.3131 57.4958 44.3125 57.4528C44.2187 56.4461 43.83 52.3409 43.7439 51.4241C43.7398 51.3667 43.7583 51.31 43.7954 51.2661C43.8326 51.2222 43.8855 51.1946 43.9427 51.1892C44 51.1838 44.0571 51.2011 44.1018 51.2373C44.1465 51.2735 44.1753 51.3257 44.1819 51.3829L44.2487 52.0899C44.252 52.1246 44.2635 52.1581 44.2823 52.1875C44.301 52.2169 44.3266 52.2414 44.3567 52.259C44.3868 52.2766 44.4207 52.2868 44.4556 52.2886C44.4904 52.2905 44.5252 52.2841 44.5571 52.2699L46.2822 51.5002C46.3198 51.4824 46.349 51.4506 46.3634 51.4115C46.3778 51.3724 46.3763 51.3294 46.3591 51.2914ZM40.2415 55.5182C40.2397 55.5754 40.2158 55.6295 40.1748 55.6693C40.1338 55.7091 40.0789 55.7314 40.0217 55.7314C39.9646 55.7314 39.9097 55.7091 39.8687 55.6693C39.8277 55.6295 39.8038 55.5754 39.802 55.5182V53.3027L39.5887 53.4345C39.5392 53.4638 39.4802 53.4725 39.4243 53.4587C39.3685 53.4449 39.3203 53.4098 39.29 53.3608C39.2598 53.3119 39.25 53.253 39.2628 53.1969C39.2755 53.1408 39.3097 53.0919 39.3581 53.0608L39.9053 52.72C39.9388 52.7001 39.9769 52.6893 40.0158 52.6887C40.0548 52.6882 40.0932 52.6978 40.1272 52.7168C40.1613 52.7357 40.1897 52.7632 40.2098 52.7966C40.2299 52.8299 40.2409 52.868 40.2417 52.9069L40.2415 55.5182ZM41.8221 55.5182C41.8221 55.5765 41.7989 55.6325 41.7577 55.6737C41.7164 55.7149 41.6605 55.7381 41.6022 55.7381C41.5439 55.7381 41.488 55.7149 41.4468 55.6737C41.4056 55.6325 41.3824 55.5765 41.3824 55.5182V53.3027L41.1693 53.4345C41.1198 53.4651 41.0601 53.4748 41.0034 53.4614C40.9467 53.448 40.8977 53.4126 40.867 53.3631C40.8364 53.3135 40.8268 53.2538 40.8402 53.1972C40.8536 53.1405 40.8889 53.0914 40.9385 53.0608L41.4857 52.72C41.5192 52.7001 41.5573 52.6893 41.5962 52.6887C41.6352 52.6882 41.6736 52.6978 41.7076 52.7168C41.7416 52.7357 41.7701 52.7632 41.7902 52.7966C41.8103 52.8299 41.8213 52.868 41.8221 52.9069V55.5182Z" fill="#FAFAFA"/>
<path d="M40.2415 55.5182C40.2397 55.5754 40.2158 55.6295 40.1748 55.6693C40.1338 55.7091 40.0789 55.7314 40.0217 55.7314C39.9646 55.7314 39.9097 55.7091 39.8687 55.6693C39.8277 55.6295 39.8038 55.5754 39.802 55.5182V53.3027L39.5887 53.4345C39.5392 53.4638 39.4802 53.4725 39.4243 53.4587C39.3685 53.4449 39.3203 53.4098 39.29 53.3608C39.2598 53.3119 39.25 53.253 39.2628 53.1969C39.2755 53.1408 39.3097 53.0919 39.3581 53.0608L39.9053 52.72C39.9388 52.7001 39.9769 52.6893 40.0158 52.6887C40.0548 52.6882 40.0932 52.6978 40.1272 52.7168C40.1613 52.7357 40.1897 52.7632 40.2098 52.7966C40.2299 52.8299 40.2409 52.868 40.2417 52.9069L40.2415 55.5182Z" fill="#FAFAFA"/>
<path d="M41.8221 55.5182C41.8221 55.5765 41.7989 55.6325 41.7577 55.6737C41.7164 55.7149 41.6605 55.7381 41.6022 55.7381C41.5439 55.7381 41.488 55.7149 41.4468 55.6737C41.4056 55.6325 41.3824 55.5765 41.3824 55.5182V53.3027L41.1693 53.4345C41.1198 53.4651 41.0601 53.4748 41.0034 53.4614C40.9467 53.448 40.8977 53.4126 40.867 53.3631C40.8364 53.3135 40.8268 53.2538 40.8402 53.1972C40.8536 53.1405 40.8889 53.0914 40.9385 53.0608L41.4857 52.72C41.5192 52.7001 41.5573 52.6893 41.5962 52.6887C41.6352 52.6882 41.6736 52.6978 41.7076 52.7168C41.7416 52.7357 41.7701 52.7632 41.7902 52.7966C41.8103 52.8299 41.8213 52.868 41.8221 52.9069V55.5182Z" fill="#FAFAFA"/>
<path d="M39.6282 53.002H41.9199" stroke="#191919" stroke-width="0.343756" stroke-linecap="round" stroke-linejoin="round"/>
<path d="M40.7742 54.1491V51.8574" stroke="#191919" stroke-width="0.343756" stroke-linecap="round" stroke-linejoin="round"/>
</g>
<g clip-path="url(#clip3_8747_15139)">
<path d="M10.6592 24.5372C11.0281 24.5368 11.3817 24.39 11.6426 24.1292C11.9034 23.8684 12.0502 23.5147 12.0506 23.1458V22.6643C11.1304 22.8377 10.1854 22.8309 9.26782 22.6445V23.1458C9.26825 23.5147 9.41499 23.8684 9.67583 24.1292C9.93667 24.39 10.2903 24.5368 10.6592 24.5372Z" fill="#FAFAFA"/>
<path d="M16.3591 27.2914L15.2182 24.8932C15.003 24.4443 14.6239 24.0949 14.1589 23.9171L13.2881 23.5853C12.9436 23.4834 12.6922 23.0787 12.4901 22.8027V23.0801C12.4983 23.336 12.4531 23.5907 12.3574 23.8281C12.2617 24.0655 12.1175 24.2803 11.9341 24.4589C11.7507 24.6375 11.5321 24.7758 11.2922 24.8652C11.0524 24.9545 10.7965 24.9929 10.541 24.9778C10.2855 24.9628 10.0359 24.8946 9.80817 24.7777C9.58046 24.6607 9.37963 24.4976 9.21849 24.2988C9.05734 24.0999 8.93943 23.8696 8.87227 23.6226C8.80512 23.3756 8.79019 23.1173 8.82844 22.8642C8.67788 23.1537 8.43163 23.382 8.13163 23.5104L7.31602 23.8029C6.84789 23.9684 6.46195 24.3087 6.23896 24.7523L4.95942 27.2914C4.94165 27.3299 4.93976 27.3739 4.95417 27.4138C4.96857 27.4536 4.9981 27.4862 5.03637 27.5045L6.74065 28.2795C6.77266 28.2941 6.80771 28.3008 6.84285 28.2991C6.87799 28.2973 6.9122 28.2871 6.9426 28.2694C6.973 28.2517 6.9987 28.2269 7.01755 28.1972C7.03639 28.1675 7.04782 28.1337 7.05089 28.0987L7.11355 27.3843C7.12008 27.327 7.14873 27.2745 7.1934 27.238C7.23806 27.2015 7.29521 27.1839 7.35267 27.1889C7.41013 27.194 7.46335 27.2212 7.50099 27.2649C7.53864 27.3086 7.55774 27.3653 7.55421 27.4229L7.02354 33.455C7.02332 33.4978 7.0319 33.5403 7.04873 33.5797C7.06556 33.6191 7.09029 33.6546 7.1214 33.684C7.1525 33.7135 7.18931 33.7363 7.22957 33.7509C7.26982 33.7656 7.31265 33.7719 7.35541 33.7693H13.9807C14.0236 33.7719 14.0667 33.7655 14.1071 33.7507C14.1475 33.7359 14.1844 33.713 14.2155 33.6833C14.2467 33.6536 14.2713 33.6178 14.288 33.5781C14.3047 33.5385 14.3131 33.4958 14.3125 33.4528C14.2187 32.4461 13.83 28.3409 13.7439 27.4241C13.7398 27.3667 13.7583 27.31 13.7954 27.2661C13.8326 27.2222 13.8855 27.1946 13.9427 27.1892C14 27.1838 14.0571 27.2011 14.1018 27.2373C14.1465 27.2735 14.1753 27.3257 14.1819 27.3829L14.2487 28.0899C14.252 28.1246 14.2635 28.1581 14.2823 28.1875C14.301 28.2169 14.3266 28.2414 14.3567 28.259C14.3868 28.2766 14.4207 28.2868 14.4556 28.2886C14.4904 28.2905 14.5252 28.2841 14.5571 28.2699L16.2822 27.5002C16.3198 27.4824 16.349 27.4506 16.3634 27.4115C16.3778 27.3724 16.3763 27.3294 16.3591 27.2914ZM10.2415 31.5182C10.2397 31.5754 10.2158 31.6295 10.1748 31.6693C10.1338 31.7091 10.0789 31.7314 10.0217 31.7314C9.9646 31.7314 9.90971 31.7091 9.86869 31.6693C9.82768 31.6295 9.80377 31.5754 9.80202 31.5182V29.3027L9.58873 29.4345C9.53922 29.4638 9.48019 29.4725 9.42433 29.4587C9.36848 29.4449 9.32026 29.4098 9.29004 29.3608C9.25983 29.3119 9.25003 29.253 9.26276 29.1969C9.27548 29.1408 9.30972 29.0919 9.3581 29.0608L9.9053 28.72C9.93878 28.7001 9.97689 28.6893 10.0158 28.6887C10.0548 28.6882 10.0932 28.6978 10.1272 28.7168C10.1613 28.7357 10.1897 28.7632 10.2098 28.7966C10.2299 28.8299 10.2409 28.868 10.2417 28.9069L10.2415 31.5182ZM11.8221 31.5182C11.8221 31.5765 11.7989 31.6325 11.7577 31.6737C11.7164 31.7149 11.6605 31.7381 11.6022 31.7381C11.5439 31.7381 11.488 31.7149 11.4468 31.6737C11.4056 31.6325 11.3824 31.5765 11.3824 31.5182V29.3027L11.1693 29.4345C11.1198 29.4651 11.0601 29.4748 11.0034 29.4614C10.9467 29.448 10.8977 29.4126 10.867 29.3631C10.8364 29.3135 10.8268 29.2538 10.8402 29.1972C10.8536 29.1405 10.8889 29.0914 10.9385 29.0608L11.4857 28.72C11.5192 28.7001 11.5573 28.6893 11.5962 28.6887C11.6352 28.6882 11.6736 28.6978 11.7076 28.7168C11.7416 28.7357 11.7701 28.7632 11.7902 28.7966C11.8103 28.8299 11.8213 28.868 11.8221 28.9069V31.5182Z" fill="#FAFAFA"/>
<path d="M10.2415 31.5182C10.2397 31.5754 10.2158 31.6295 10.1748 31.6693C10.1338 31.7091 10.0789 31.7314 10.0217 31.7314C9.9646 31.7314 9.90971 31.7091 9.86869 31.6693C9.82768 31.6295 9.80377 31.5754 9.80202 31.5182V29.3027L9.58873 29.4345C9.53922 29.4638 9.48019 29.4725 9.42433 29.4587C9.36848 29.4449 9.32026 29.4098 9.29004 29.3608C9.25983 29.3119 9.25003 29.253 9.26276 29.1969C9.27548 29.1408 9.30972 29.0919 9.3581 29.0608L9.9053 28.72C9.93878 28.7001 9.97689 28.6893 10.0158 28.6887C10.0548 28.6882 10.0932 28.6978 10.1272 28.7168C10.1613 28.7357 10.1897 28.7632 10.2098 28.7966C10.2299 28.8299 10.2409 28.868 10.2417 28.9069L10.2415 31.5182Z" fill="#FAFAFA"/>
<path d="M11.8221 31.5182C11.8221 31.5765 11.7989 31.6325 11.7577 31.6737C11.7164 31.7149 11.6605 31.7381 11.6022 31.7381C11.5439 31.7381 11.488 31.7149 11.4468 31.6737C11.4056 31.6325 11.3824 31.5765 11.3824 31.5182V29.3027L11.1693 29.4345C11.1198 29.4651 11.0601 29.4748 11.0034 29.4614C10.9467 29.448 10.8977 29.4126 10.867 29.3631C10.8364 29.3135 10.8268 29.2538 10.8402 29.1972C10.8536 29.1405 10.8889 29.0914 10.9385 29.0608L11.4857 28.72C11.5192 28.7001 11.5573 28.6893 11.5962 28.6887C11.6352 28.6882 11.6736 28.6978 11.7076 28.7168C11.7416 28.7357 11.7701 28.7632 11.7902 28.7966C11.8103 28.8299 11.8213 28.868 11.8221 28.9069V31.5182Z" fill="#FAFAFA"/>
<path d="M9.62817 29.002H11.9199" stroke="#191919" stroke-width="0.343756" stroke-linecap="round" stroke-linejoin="round"/>
<path d="M10.7742 30.1491V27.8574" stroke="#191919" stroke-width="0.343756" stroke-linecap="round" stroke-linejoin="round"/>
</g>
<g clip-path="url(#clip4_8747_15139)">
<path d="M30.6592 24.5372C31.0281 24.5368 31.3817 24.39 31.6426 24.1292C31.9034 23.8684 32.0502 23.5147 32.0506 23.1458V22.6643C31.1304 22.8377 30.1854 22.8309 29.2678 22.6445V23.1458C29.2683 23.5147 29.415 23.8684 29.6758 24.1292C29.9367 24.39 30.2903 24.5368 30.6592 24.5372Z" fill="#FAFAFA"/>
<path d="M36.3591 27.2914L35.2182 24.8932C35.003 24.4443 34.6239 24.0949 34.1589 23.9171L33.2881 23.5853C32.9436 23.4834 32.6922 23.0787 32.4901 22.8027V23.0801C32.4983 23.336 32.4531 23.5907 32.3574 23.8281C32.2617 24.0655 32.1175 24.2803 31.9341 24.4589C31.7507 24.6375 31.5321 24.7758 31.2922 24.8652C31.0524 24.9545 30.7965 24.9929 30.541 24.9778C30.2855 24.9628 30.0359 24.8946 29.8082 24.7777C29.5805 24.6607 29.3796 24.4976 29.2185 24.2988C29.0573 24.0999 28.9394 23.8696 28.8723 23.6226C28.8051 23.3756 28.7902 23.1173 28.8284 22.8642C28.6779 23.1537 28.4316 23.382 28.1316 23.5104L27.316 23.8029C26.8479 23.9684 26.4619 24.3087 26.239 24.7523L24.9594 27.2914C24.9417 27.3299 24.9398 27.3739 24.9542 27.4138C24.9686 27.4536 24.9981 27.4862 25.0364 27.5045L26.7406 28.2795C26.7727 28.2941 26.8077 28.3008 26.8429 28.2991C26.878 28.2973 26.9122 28.2871 26.9426 28.2694C26.973 28.2517 26.9987 28.2269 27.0175 28.1972C27.0364 28.1675 27.0478 28.1337 27.0509 28.0987L27.1135 27.3843C27.1201 27.327 27.1487 27.2745 27.1934 27.238C27.2381 27.2015 27.2952 27.1839 27.3527 27.1889C27.4101 27.194 27.4633 27.2212 27.501 27.2649C27.5386 27.3086 27.5577 27.3653 27.5542 27.4229L27.0235 33.455C27.0233 33.4978 27.0319 33.5403 27.0487 33.5797C27.0656 33.6191 27.0903 33.6546 27.1214 33.684C27.1525 33.7135 27.1893 33.7363 27.2296 33.7509C27.2698 33.7656 27.3126 33.7719 27.3554 33.7693H33.9807C34.0236 33.7719 34.0667 33.7655 34.1071 33.7507C34.1475 33.7359 34.1844 33.713 34.2155 33.6833C34.2467 33.6536 34.2713 33.6178 34.288 33.5781C34.3047 33.5385 34.3131 33.4958 34.3125 33.4528C34.2187 32.4461 33.83 28.3409 33.7439 27.4241C33.7398 27.3667 33.7583 27.31 33.7954 27.2661C33.8326 27.2222 33.8855 27.1946 33.9427 27.1892C34 27.1838 34.0571 27.2011 34.1018 27.2373C34.1465 27.2735 34.1753 27.3257 34.1819 27.3829L34.2487 28.0899C34.252 28.1246 34.2635 28.1581 34.2823 28.1875C34.301 28.2169 34.3266 28.2414 34.3567 28.259C34.3868 28.2766 34.4207 28.2868 34.4556 28.2886C34.4904 28.2905 34.5252 28.2841 34.5571 28.2699L36.2822 27.5002C36.3198 27.4824 36.349 27.4506 36.3634 27.4115C36.3778 27.3724 36.3763 27.3294 36.3591 27.2914ZM30.2415 31.5182C30.2397 31.5754 30.2158 31.6295 30.1748 31.6693C30.1338 31.7091 30.0789 31.7314 30.0217 31.7314C29.9646 31.7314 29.9097 31.7091 29.8687 31.6693C29.8277 31.6295 29.8038 31.5754 29.802 31.5182V29.3027L29.5887 29.4345C29.5392 29.4638 29.4802 29.4725 29.4243 29.4587C29.3685 29.4449 29.3203 29.4098 29.29 29.3608C29.2598 29.3119 29.25 29.253 29.2628 29.1969C29.2755 29.1408 29.3097 29.0919 29.3581 29.0608L29.9053 28.72C29.9388 28.7001 29.9769 28.6893 30.0158 28.6887C30.0548 28.6882 30.0932 28.6978 30.1272 28.7168C30.1613 28.7357 30.1897 28.7632 30.2098 28.7966C30.2299 28.8299 30.2409 28.868 30.2417 28.9069L30.2415 31.5182ZM31.8221 31.5182C31.8221 31.5765 31.7989 31.6325 31.7577 31.6737C31.7164 31.7149 31.6605 31.7381 31.6022 31.7381C31.5439 31.7381 31.488 31.7149 31.4468 31.6737C31.4056 31.6325 31.3824 31.5765 31.3824 31.5182V29.3027L31.1693 29.4345C31.1198 29.4651 31.0601 29.4748 31.0034 29.4614C30.9467 29.448 30.8977 29.4126 30.867 29.3631C30.8364 29.3135 30.8268 29.2538 30.8402 29.1972C30.8536 29.1405 30.8889 29.0914 30.9385 29.0608L31.4857 28.72C31.5192 28.7001 31.5573 28.6893 31.5962 28.6887C31.6352 28.6882 31.6736 28.6978 31.7076 28.7168C31.7416 28.7357 31.7701 28.7632 31.7902 28.7966C31.8103 28.8299 31.8213 28.868 31.8221 28.9069V31.5182Z" fill="#FAFAFA"/>
<path d="M30.2415 31.5182C30.2397 31.5754 30.2158 31.6295 30.1748 31.6693C30.1338 31.7091 30.0789 31.7314 30.0217 31.7314C29.9646 31.7314 29.9097 31.7091 29.8687 31.6693C29.8277 31.6295 29.8038 31.5754 29.802 31.5182V29.3027L29.5887 29.4345C29.5392 29.4638 29.4802 29.4725 29.4243 29.4587C29.3685 29.4449 29.3203 29.4098 29.29 29.3608C29.2598 29.3119 29.25 29.253 29.2628 29.1969C29.2755 29.1408 29.3097 29.0919 29.3581 29.0608L29.9053 28.72C29.9388 28.7001 29.9769 28.6893 30.0158 28.6887C30.0548 28.6882 30.0932 28.6978 30.1272 28.7168C30.1613 28.7357 30.1897 28.7632 30.2098 28.7966C30.2299 28.8299 30.2409 28.868 30.2417 28.9069L30.2415 31.5182Z" fill="#FAFAFA"/>
<path d="M31.8221 31.5182C31.8221 31.5765 31.7989 31.6325 31.7577 31.6737C31.7164 31.7149 31.6605 31.7381 31.6022 31.7381C31.5439 31.7381 31.488 31.7149 31.4468 31.6737C31.4056 31.6325 31.3824 31.5765 31.3824 31.5182V29.3027L31.1693 29.4345C31.1198 29.4651 31.0601 29.4748 31.0034 29.4614C30.9467 29.448 30.8977 29.4126 30.867 29.3631C30.8364 29.3135 30.8268 29.2538 30.8402 29.1972C30.8536 29.1405 30.8889 29.0914 30.9385 29.0608L31.4857 28.72C31.5192 28.7001 31.5573 28.6893 31.5962 28.6887C31.6352 28.6882 31.6736 28.6978 31.7076 28.7168C31.7416 28.7357 31.7701 28.7632 31.7902 28.7966C31.8103 28.8299 31.8213 28.868 31.8221 28.9069V31.5182Z" fill="#FAFAFA"/>
<path d="M29.6282 29.002H31.9199" stroke="#191919" stroke-width="0.343756" stroke-linecap="round" stroke-linejoin="round"/>
<path d="M30.7742 30.1491V27.8574" stroke="#191919" stroke-width="0.343756" stroke-linecap="round" stroke-linejoin="round"/>
</g>
<g clip-path="url(#clip5_8747_15139)">
<path d="M65.3892 48.5372C65.7581 48.5368 66.1117 48.39 66.3726 48.1292C66.6334 47.8684 66.7801 47.5147 66.7806 47.1458V46.6643C65.8604 46.8377 64.9154 46.8309 63.9978 46.6445V47.1458C63.9982 47.5147 64.145 47.8684 64.4058 48.1292C64.6666 48.39 65.0203 48.5368 65.3892 48.5372Z" fill="#FAFAFA"/>
<path d="M71.0891 51.2914L69.9481 48.8932C69.733 48.4443 69.3538 48.0949 68.8888 47.9171L68.0181 47.5853C67.6736 47.4834 67.4221 47.0787 67.2201 46.8027V47.0801C67.2283 47.336 67.1831 47.5907 67.0874 47.8281C66.9917 48.0655 66.8475 48.2803 66.6641 48.4589C66.4807 48.6375 66.2621 48.7758 66.0222 48.8652C65.7824 48.9545 65.5265 48.9929 65.271 48.9778C65.0154 48.9628 64.7659 48.8946 64.5381 48.7777C64.3104 48.6607 64.1096 48.4976 63.9485 48.2988C63.7873 48.0999 63.6694 47.8696 63.6023 47.6226C63.5351 47.3756 63.5202 47.1173 63.5584 46.8642C63.4079 47.1537 63.1616 47.382 62.8616 47.5104L62.046 47.8029C61.5779 47.9684 61.1919 48.3087 60.9689 48.7523L59.6894 51.2914C59.6716 51.3299 59.6697 51.3739 59.6841 51.4138C59.6985 51.4536 59.7281 51.4862 59.7663 51.5045L61.4706 52.2795C61.5026 52.2941 61.5377 52.3008 61.5728 52.2991C61.608 52.2973 61.6422 52.2871 61.6726 52.2694C61.703 52.2517 61.7287 52.2269 61.7475 52.1972C61.7664 52.1675 61.7778 52.1337 61.7809 52.0987L61.8435 51.3843C61.8501 51.327 61.8787 51.2745 61.9234 51.238C61.968 51.2015 62.0252 51.1839 62.0827 51.1889C62.1401 51.194 62.1933 51.2212 62.231 51.2649C62.2686 51.3086 62.2877 51.3653 62.2842 51.4229L61.7535 57.455C61.7533 57.4978 61.7619 57.5403 61.7787 57.5797C61.7955 57.6191 61.8203 57.6546 61.8514 57.684C61.8825 57.7135 61.9193 57.7363 61.9595 57.7509C61.9998 57.7656 62.0426 57.7719 62.0854 57.7693H68.7107C68.7536 57.7719 68.7966 57.7655 68.837 57.7507C68.8774 57.7359 68.9144 57.713 68.9455 57.6833C68.9766 57.6536 69.0013 57.6178 69.018 57.5781C69.0347 57.5385 69.0431 57.4958 69.0425 57.4528C68.9486 56.4461 68.56 52.3409 68.4739 51.4241C68.4698 51.3667 68.4882 51.31 68.5254 51.2661C68.5626 51.2222 68.6155 51.1946 68.6727 51.1892C68.73 51.1838 68.7871 51.2011 68.8318 51.2373C68.8765 51.2735 68.9053 51.3257 68.9119 51.3829L68.9786 52.0899C68.9819 52.1246 68.9934 52.1581 69.0122 52.1875C69.031 52.2169 69.0565 52.2414 69.0867 52.259C69.1168 52.2766 69.1507 52.2868 69.1855 52.2886C69.2204 52.2905 69.2552 52.2841 69.287 52.2699L71.0121 51.5002C71.0498 51.4824 71.079 51.4506 71.0934 51.4115C71.1078 51.3724 71.1063 51.3294 71.0891 51.2914ZM64.9714 55.5182C64.9697 55.5754 64.9458 55.6295 64.9048 55.6693C64.8638 55.7091 64.8089 55.7314 64.7517 55.7314C64.6946 55.7314 64.6397 55.7091 64.5987 55.6693C64.5577 55.6295 64.5337 55.5754 64.532 55.5182V53.3027L64.3187 53.4345C64.2692 53.4638 64.2102 53.4725 64.1543 53.4587C64.0985 53.4449 64.0502 53.4098 64.02 53.3608C63.9898 53.3119 63.98 53.253 63.9927 53.1969C64.0055 53.1408 64.0397 53.0919 64.0881 53.0608L64.6353 52.72C64.6688 52.7001 64.7069 52.6893 64.7458 52.6887C64.7848 52.6882 64.8232 52.6978 64.8572 52.7168C64.8912 52.7357 64.9197 52.7632 64.9398 52.7966C64.9599 52.8299 64.9709 52.868 64.9716 52.9069L64.9714 55.5182ZM66.552 55.5182C66.552 55.5765 66.5289 55.6325 66.4877 55.6737C66.4464 55.7149 66.3905 55.7381 66.3322 55.7381C66.2739 55.7381 66.218 55.7149 66.1768 55.6737C66.1356 55.6325 66.1124 55.5765 66.1124 55.5182V53.3027L65.8993 53.4345C65.8497 53.4651 65.7901 53.4748 65.7334 53.4614C65.6767 53.448 65.6276 53.4126 65.597 53.3631C65.5664 53.3135 65.5567 53.2538 65.5701 53.1972C65.5835 53.1405 65.6189 53.0914 65.6685 53.0608L66.2157 52.72C66.2492 52.7001 66.2873 52.6893 66.3262 52.6887C66.3651 52.6882 66.4035 52.6978 66.4376 52.7168C66.4716 52.7357 66.5001 52.7632 66.5202 52.7966C66.5403 52.8299 66.5513 52.868 66.552 52.9069V55.5182Z" fill="#FAFAFA"/>
<path d="M64.9714 55.5182C64.9697 55.5754 64.9458 55.6295 64.9048 55.6693C64.8638 55.7091 64.8089 55.7314 64.7517 55.7314C64.6946 55.7314 64.6397 55.7091 64.5987 55.6693C64.5577 55.6295 64.5337 55.5754 64.532 55.5182V53.3027L64.3187 53.4345C64.2692 53.4638 64.2102 53.4725 64.1543 53.4587C64.0985 53.4449 64.0502 53.4098 64.02 53.3608C63.9898 53.3119 63.98 53.253 63.9927 53.1969C64.0055 53.1408 64.0397 53.0919 64.0881 53.0608L64.6353 52.72C64.6688 52.7001 64.7069 52.6893 64.7458 52.6887C64.7848 52.6882 64.8232 52.6978 64.8572 52.7168C64.8912 52.7357 64.9197 52.7632 64.9398 52.7966C64.9599 52.8299 64.9709 52.868 64.9716 52.9069L64.9714 55.5182Z" fill="#FAFAFA"/>
<path d="M66.552 55.5182C66.552 55.5765 66.5289 55.6325 66.4877 55.6737C66.4464 55.7149 66.3905 55.7381 66.3322 55.7381C66.2739 55.7381 66.218 55.7149 66.1768 55.6737C66.1356 55.6325 66.1124 55.5765 66.1124 55.5182V53.3027L65.8993 53.4345C65.8497 53.4651 65.7901 53.4748 65.7334 53.4614C65.6767 53.448 65.6276 53.4126 65.597 53.3631C65.5664 53.3135 65.5567 53.2538 65.5701 53.1972C65.5835 53.1405 65.6189 53.0914 65.6685 53.0608L66.2157 52.72C66.2492 52.7001 66.2873 52.6893 66.3262 52.6887C66.3651 52.6882 66.4035 52.6978 66.4376 52.7168C66.4716 52.7357 66.5001 52.7632 66.5202 52.7966C66.5403 52.8299 66.5513 52.868 66.552 52.9069V55.5182Z" fill="#FAFAFA"/>
<path d="M64.3582 53.002H66.6499" stroke="#191919" stroke-width="0.343756" stroke-linecap="round" stroke-linejoin="round"/>
<path d="M65.5042 54.1491V51.8574" stroke="#191919" stroke-width="0.343756" stroke-linecap="round" stroke-linejoin="round"/>
</g>
<g clip-path="url(#clip6_8747_15139)">
<path d="M70.3892 24.5372C70.7581 24.5368 71.1117 24.39 71.3726 24.1292C71.6334 23.8684 71.7801 23.5147 71.7806 23.1458V22.6643C70.8604 22.8377 69.9154 22.8309 68.9978 22.6445V23.1458C68.9982 23.5147 69.145 23.8684 69.4058 24.1292C69.6666 24.39 70.0203 24.5368 70.3892 24.5372Z" fill="#FAFAFA"/>
<path d="M76.0891 27.2914L74.9481 24.8932C74.733 24.4443 74.3538 24.0949 73.8888 23.9171L73.0181 23.5853C72.6736 23.4834 72.4221 23.0787 72.2201 22.8027V23.0801C72.2283 23.336 72.1831 23.5907 72.0874 23.8281C71.9917 24.0655 71.8475 24.2803 71.6641 24.4589C71.4807 24.6375 71.2621 24.7758 71.0222 24.8652C70.7824 24.9545 70.5265 24.9929 70.271 24.9778C70.0154 24.9628 69.7659 24.8946 69.5381 24.7777C69.3104 24.6607 69.1096 24.4976 68.9485 24.2988C68.7873 24.0999 68.6694 23.8696 68.6023 23.6226C68.5351 23.3756 68.5202 23.1173 68.5584 22.8642C68.4079 23.1537 68.1616 23.382 67.8616 23.5104L67.046 23.8029C66.5779 23.9684 66.1919 24.3087 65.9689 24.7523L64.6894 27.2914C64.6716 27.3299 64.6697 27.3739 64.6841 27.4138C64.6985 27.4536 64.7281 27.4862 64.7663 27.5045L66.4706 28.2795C66.5026 28.2941 66.5377 28.3008 66.5728 28.2991C66.608 28.2973 66.6422 28.2871 66.6726 28.2694C66.703 28.2517 66.7287 28.2269 66.7475 28.1972C66.7664 28.1675 66.7778 28.1337 66.7809 28.0987L66.8435 27.3843C66.8501 27.327 66.8787 27.2745 66.9234 27.238C66.968 27.2015 67.0252 27.1839 67.0827 27.1889C67.1401 27.194 67.1933 27.2212 67.231 27.2649C67.2686 27.3086 67.2877 27.3653 67.2842 27.4229L66.7535 33.455C66.7533 33.4978 66.7619 33.5403 66.7787 33.5797C66.7955 33.6191 66.8203 33.6546 66.8514 33.684C66.8825 33.7135 66.9193 33.7363 66.9595 33.7509C66.9998 33.7656 67.0426 33.7719 67.0854 33.7693H73.7107C73.7536 33.7719 73.7966 33.7655 73.837 33.7507C73.8774 33.7359 73.9144 33.713 73.9455 33.6833C73.9766 33.6536 74.0013 33.6178 74.018 33.5781C74.0347 33.5385 74.0431 33.4958 74.0425 33.4528C73.9486 32.4461 73.56 28.3409 73.4739 27.4241C73.4698 27.3667 73.4882 27.31 73.5254 27.2661C73.5626 27.2222 73.6155 27.1946 73.6727 27.1892C73.73 27.1838 73.7871 27.2011 73.8318 27.2373C73.8765 27.2735 73.9053 27.3257 73.9119 27.3829L73.9786 28.0899C73.9819 28.1246 73.9934 28.1581 74.0122 28.1875C74.031 28.2169 74.0565 28.2414 74.0867 28.259C74.1168 28.2766 74.1507 28.2868 74.1855 28.2886C74.2204 28.2905 74.2552 28.2841 74.287 28.2699L76.0121 27.5002C76.0498 27.4824 76.079 27.4506 76.0934 27.4115C76.1078 27.3724 76.1063 27.3294 76.0891 27.2914ZM69.9714 31.5182C69.9697 31.5754 69.9458 31.6295 69.9048 31.6693C69.8638 31.7091 69.8089 31.7314 69.7517 31.7314C69.6946 31.7314 69.6397 31.7091 69.5987 31.6693C69.5577 31.6295 69.5337 31.5754 69.532 31.5182V29.3027L69.3187 29.4345C69.2692 29.4638 69.2102 29.4725 69.1543 29.4587C69.0985 29.4449 69.0502 29.4098 69.02 29.3608C68.9898 29.3119 68.98 29.253 68.9927 29.1969C69.0055 29.1408 69.0397 29.0919 69.0881 29.0608L69.6353 28.72C69.6688 28.7001 69.7069 28.6893 69.7458 28.6887C69.7848 28.6882 69.8232 28.6978 69.8572 28.7168C69.8912 28.7357 69.9197 28.7632 69.9398 28.7966C69.9599 28.8299 69.9709 28.868 69.9716 28.9069L69.9714 31.5182ZM71.552 31.5182C71.552 31.5765 71.5289 31.6325 71.4877 31.6737C71.4464 31.7149 71.3905 31.7381 71.3322 31.7381C71.2739 31.7381 71.218 31.7149 71.1768 31.6737C71.1356 31.6325 71.1124 31.5765 71.1124 31.5182V29.3027L70.8993 29.4345C70.8497 29.4651 70.7901 29.4748 70.7334 29.4614C70.6767 29.448 70.6276 29.4126 70.597 29.3631C70.5664 29.3135 70.5567 29.2538 70.5701 29.1972C70.5835 29.1405 70.6189 29.0914 70.6685 29.0608L71.2157 28.72C71.2492 28.7001 71.2873 28.6893 71.3262 28.6887C71.3651 28.6882 71.4035 28.6978 71.4376 28.7168C71.4716 28.7357 71.5001 28.7632 71.5202 28.7966C71.5403 28.8299 71.5513 28.868 71.552 28.9069V31.5182Z" fill="#FAFAFA"/>
<path d="M69.9714 31.5182C69.9697 31.5754 69.9458 31.6295 69.9048 31.6693C69.8638 31.7091 69.8089 31.7314 69.7517 31.7314C69.6946 31.7314 69.6397 31.7091 69.5987 31.6693C69.5577 31.6295 69.5337 31.5754 69.532 31.5182V29.3027L69.3187 29.4345C69.2692 29.4638 69.2102 29.4725 69.1543 29.4587C69.0985 29.4449 69.0502 29.4098 69.02 29.3608C68.9898 29.3119 68.98 29.253 68.9927 29.1969C69.0055 29.1408 69.0397 29.0919 69.0881 29.0608L69.6353 28.72C69.6688 28.7001 69.7069 28.6893 69.7458 28.6887C69.7848 28.6882 69.8232 28.6978 69.8572 28.7168C69.8912 28.7357 69.9197 28.7632 69.9398 28.7966C69.9599 28.8299 69.9709 28.868 69.9716 28.9069L69.9714 31.5182Z" fill="#FAFAFA"/>
<path d="M71.552 31.5182C71.552 31.5765 71.5289 31.6325 71.4877 31.6737C71.4464 31.7149 71.3905 31.7381 71.3322 31.7381C71.2739 31.7381 71.218 31.7149 71.1768 31.6737C71.1356 31.6325 71.1124 31.5765 71.1124 31.5182V29.3027L70.8993 29.4345C70.8497 29.4651 70.7901 29.4748 70.7334 29.4614C70.6767 29.448 70.6276 29.4126 70.597 29.3631C70.5664 29.3135 70.5567 29.2538 70.5701 29.1972C70.5835 29.1405 70.6189 29.0914 70.6685 29.0608L71.2157 28.72C71.2492 28.7001 71.2873 28.6893 71.3262 28.6887C71.3651 28.6882 71.4035 28.6978 71.4376 28.7168C71.4716 28.7357 71.5001 28.7632 71.5202 28.7966C71.5403 28.8299 71.5513 28.868 71.552 28.9069V31.5182Z" fill="#FAFAFA"/>
<path d="M69.3582 29.002H71.6499" stroke="#191919" stroke-width="0.343756" stroke-linecap="round" stroke-linejoin="round"/>
<path d="M70.5042 30.1491V27.8574" stroke="#191919" stroke-width="0.343756" stroke-linecap="round" stroke-linejoin="round"/>
</g>
<g clip-path="url(#clip7_8747_15139)">
<path d="M51.3892 24.5372C51.7581 24.5368 52.1117 24.39 52.3726 24.1292C52.6334 23.8684 52.7801 23.5147 52.7806 23.1458V22.6643C51.8604 22.8377 50.9154 22.8309 49.9978 22.6445V23.1458C49.9982 23.5147 50.145 23.8684 50.4058 24.1292C50.6666 24.39 51.0203 24.5368 51.3892 24.5372Z" fill="#FAFAFA"/>
<path d="M57.0891 27.2914L55.9481 24.8932C55.733 24.4443 55.3538 24.0949 54.8888 23.9171L54.0181 23.5853C53.6736 23.4834 53.4221 23.0787 53.2201 22.8027V23.0801C53.2283 23.336 53.1831 23.5907 53.0874 23.8281C52.9917 24.0655 52.8475 24.2803 52.6641 24.4589C52.4807 24.6375 52.2621 24.7758 52.0222 24.8652C51.7824 24.9545 51.5265 24.9929 51.271 24.9778C51.0154 24.9628 50.7659 24.8946 50.5381 24.7777C50.3104 24.6607 50.1096 24.4976 49.9485 24.2988C49.7873 24.0999 49.6694 23.8696 49.6023 23.6226C49.5351 23.3756 49.5202 23.1173 49.5584 22.8642C49.4079 23.1537 49.1616 23.382 48.8616 23.5104L48.046 23.8029C47.5779 23.9684 47.1919 24.3087 46.9689 24.7523L45.6894 27.2914C45.6716 27.3299 45.6697 27.3739 45.6841 27.4138C45.6985 27.4536 45.7281 27.4862 45.7663 27.5045L47.4706 28.2795C47.5026 28.2941 47.5377 28.3008 47.5728 28.2991C47.608 28.2973 47.6422 28.2871 47.6726 28.2694C47.703 28.2517 47.7287 28.2269 47.7475 28.1972C47.7664 28.1675 47.7778 28.1337 47.7809 28.0987L47.8435 27.3843C47.8501 27.327 47.8787 27.2745 47.9234 27.238C47.968 27.2015 48.0252 27.1839 48.0827 27.1889C48.1401 27.194 48.1933 27.2212 48.231 27.2649C48.2686 27.3086 48.2877 27.3653 48.2842 27.4229L47.7535 33.455C47.7533 33.4978 47.7619 33.5403 47.7787 33.5797C47.7955 33.6191 47.8203 33.6546 47.8514 33.684C47.8825 33.7135 47.9193 33.7363 47.9595 33.7509C47.9998 33.7656 48.0426 33.7719 48.0854 33.7693H54.7107C54.7536 33.7719 54.7966 33.7655 54.837 33.7507C54.8774 33.7359 54.9144 33.713 54.9455 33.6833C54.9766 33.6536 55.0013 33.6178 55.018 33.5781C55.0347 33.5385 55.0431 33.4958 55.0425 33.4528C54.9486 32.4461 54.56 28.3409 54.4739 27.4241C54.4698 27.3667 54.4882 27.31 54.5254 27.2661C54.5626 27.2222 54.6155 27.1946 54.6727 27.1892C54.73 27.1838 54.7871 27.2011 54.8318 27.2373C54.8765 27.2735 54.9053 27.3257 54.9119 27.3829L54.9786 28.0899C54.9819 28.1246 54.9934 28.1581 55.0122 28.1875C55.031 28.2169 55.0565 28.2414 55.0867 28.259C55.1168 28.2766 55.1507 28.2868 55.1855 28.2886C55.2204 28.2905 55.2552 28.2841 55.287 28.2699L57.0121 27.5002C57.0498 27.4824 57.079 27.4506 57.0934 27.4115C57.1078 27.3724 57.1063 27.3294 57.0891 27.2914ZM50.9714 31.5182C50.9697 31.5754 50.9458 31.6295 50.9048 31.6693C50.8638 31.7091 50.8089 31.7314 50.7517 31.7314C50.6946 31.7314 50.6397 31.7091 50.5987 31.6693C50.5577 31.6295 50.5337 31.5754 50.532 31.5182V29.3027L50.3187 29.4345C50.2692 29.4638 50.2102 29.4725 50.1543 29.4587C50.0985 29.4449 50.0502 29.4098 50.02 29.3608C49.9898 29.3119 49.98 29.253 49.9927 29.1969C50.0055 29.1408 50.0397 29.0919 50.0881 29.0608L50.6353 28.72C50.6688 28.7001 50.7069 28.6893 50.7458 28.6887C50.7848 28.6882 50.8232 28.6978 50.8572 28.7168C50.8912 28.7357 50.9197 28.7632 50.9398 28.7966C50.9599 28.8299 50.9709 28.868 50.9716 28.9069L50.9714 31.5182ZM52.552 31.5182C52.552 31.5765 52.5289 31.6325 52.4877 31.6737C52.4464 31.7149 52.3905 31.7381 52.3322 31.7381C52.2739 31.7381 52.218 31.7149 52.1768 31.6737C52.1356 31.6325 52.1124 31.5765 52.1124 31.5182V29.3027L51.8993 29.4345C51.8497 29.4651 51.7901 29.4748 51.7334 29.4614C51.6767 29.448 51.6276 29.4126 51.597 29.3631C51.5664 29.3135 51.5567 29.2538 51.5701 29.1972C51.5835 29.1405 51.6189 29.0914 51.6685 29.0608L52.2157 28.72C52.2492 28.7001 52.2873 28.6893 52.3262 28.6887C52.3651 28.6882 52.4035 28.6978 52.4376 28.7168C52.4716 28.7357 52.5001 28.7632 52.5202 28.7966C52.5403 28.8299 52.5513 28.868 52.552 28.9069V31.5182Z" fill="#FAFAFA"/>
<path d="M50.9714 31.5182C50.9697 31.5754 50.9458 31.6295 50.9048 31.6693C50.8638 31.7091 50.8089 31.7314 50.7517 31.7314C50.6946 31.7314 50.6397 31.7091 50.5987 31.6693C50.5577 31.6295 50.5337 31.5754 50.532 31.5182V29.3027L50.3187 29.4345C50.2692 29.4638 50.2102 29.4725 50.1543 29.4587C50.0985 29.4449 50.0502 29.4098 50.02 29.3608C49.9898 29.3119 49.98 29.253 49.9927 29.1969C50.0055 29.1408 50.0397 29.0919 50.0881 29.0608L50.6353 28.72C50.6688 28.7001 50.7069 28.6893 50.7458 28.6887C50.7848 28.6882 50.8232 28.6978 50.8572 28.7168C50.8912 28.7357 50.9197 28.7632 50.9398 28.7966C50.9599 28.8299 50.9709 28.868 50.9716 28.9069L50.9714 31.5182Z" fill="#FAFAFA"/>
<path d="M52.552 31.5182C52.552 31.5765 52.5289 31.6325 52.4877 31.6737C52.4464 31.7149 52.3905 31.7381 52.3322 31.7381C52.2739 31.7381 52.218 31.7149 52.1768 31.6737C52.1356 31.6325 52.1124 31.5765 52.1124 31.5182V29.3027L51.8993 29.4345C51.8497 29.4651 51.7901 29.4748 51.7334 29.4614C51.6767 29.448 51.6276 29.4126 51.597 29.3631C51.5664 29.3135 51.5567 29.2538 51.5701 29.1972C51.5835 29.1405 51.6189 29.0914 51.6685 29.0608L52.2157 28.72C52.2492 28.7001 52.2873 28.6893 52.3262 28.6887C52.3651 28.6882 52.4035 28.6978 52.4376 28.7168C52.4716 28.7357 52.5001 28.7632 52.5202 28.7966C52.5403 28.8299 52.5513 28.868 52.552 28.9069V31.5182Z" fill="#FAFAFA"/>
<path d="M50.3582 29.002H52.6499" stroke="#191919" stroke-width="0.343756" stroke-linecap="round" stroke-linejoin="round"/>
<path d="M51.5042 30.1491V27.8574" stroke="#191919" stroke-width="0.343756" stroke-linecap="round" stroke-linejoin="round"/>
</g>
<defs>
<clipPath id="clip0_8747_15139">
<rect width="13.0627" height="13.0627" fill="white" transform="translate(34.1079 66.5645)"/>
</clipPath>
<clipPath id="clip1_8747_15139">
<rect width="13.0627" height="13.0627" fill="white" transform="translate(9.12817 45.6699)"/>
</clipPath>
<clipPath id="clip2_8747_15139">
<rect width="13.0627" height="13.0627" fill="white" transform="translate(34.1282 45.6699)"/>
</clipPath>
<clipPath id="clip3_8747_15139">
<rect width="13.0627" height="13.0627" fill="white" transform="translate(4.12817 21.6699)"/>
</clipPath>
<clipPath id="clip4_8747_15139">
<rect width="13.0627" height="13.0627" fill="white" transform="translate(24.1282 21.6699)"/>
</clipPath>
<clipPath id="clip5_8747_15139">
<rect width="13.0627" height="13.0627" fill="white" transform="translate(58.8582 45.6699)"/>
</clipPath>
<clipPath id="clip6_8747_15139">
<rect width="13.0627" height="13.0627" fill="white" transform="translate(63.8582 21.6699)"/>
</clipPath>
<clipPath id="clip7_8747_15139">
<rect width="13.0627" height="13.0627" fill="white" transform="translate(44.8582 21.6699)"/>
</clipPath>
</defs>
</svg>
