<svg width="81" height="81" viewBox="0 0 81 81" fill="none" xmlns="http://www.w3.org/2000/svg">
<rect x="0.114585" y="0.118492" width="79.9807" height="79.9807" rx="5.88541" fill="#828284" stroke="#FAFAFA" stroke-width="0.229171"/>
<mask id="path-2-inside-1_8747_14791" fill="white">
<path d="M23.8337 66.4609H56.376V80.2112H23.8337V66.4609Z"/>
</mask>
<path d="M23.8337 66.4609V66.2318H23.6046V66.4609H23.8337ZM56.376 66.4609H56.6052V66.2318H56.376V66.4609ZM23.8337 66.6901H56.376V66.2318H23.8337V66.6901ZM56.1468 66.4609V80.2112H56.6052V66.4609H56.1468ZM24.0629 80.2112V66.4609H23.6046V80.2112H24.0629Z" fill="#FAFAFA" mask="url(#path-2-inside-1_8747_14791)"/>
<mask id="path-4-inside-2_8747_14791" fill="white">
<path d="M12.6045 55.0039H67.6055V80.2127H12.6045V55.0039Z"/>
</mask>
<path d="M12.6045 55.0039V54.7747H12.3753V55.0039H12.6045ZM67.6055 55.0039H67.8347V54.7747H67.6055V55.0039ZM12.6045 55.2331H67.6055V54.7747H12.6045V55.2331ZM67.3764 55.0039V80.2127H67.8347V55.0039H67.3764ZM12.8337 80.2127V55.0039H12.3753V80.2127H12.8337Z" fill="#FAFAFA" mask="url(#path-4-inside-2_8747_14791)"/>
<path d="M54.3135 9.53674e-07C54.3135 1.65523 53.9282 3.29426 53.1796 4.8235C52.431 6.35273 51.3337 7.74223 49.9505 8.91266C48.5673 10.0831 46.9251 11.0115 45.1178 11.645C43.3106 12.2784 41.3735 12.6044 39.4174 12.6044C37.4612 12.6044 35.5241 12.2784 33.7169 11.645C31.9096 11.0115 30.2674 10.0831 28.8842 8.91266C27.501 7.74223 26.4037 6.35273 25.6551 4.8235C24.9065 3.29426 24.5212 1.65523 24.5212 0" stroke="#FAFAFA" stroke-width="0.229171"/>
<path d="M30.5772 55.3516C31.0955 54.5174 31.8551 53.7595 32.8127 53.1211C33.7703 52.4827 34.9072 51.9763 36.1584 51.6308C37.4096 51.2853 38.7506 51.1074 40.1049 51.1074C41.4592 51.1074 42.8002 51.2853 44.0514 51.6308C45.3026 51.9763 46.4394 52.4827 47.3971 53.1211C48.3547 53.7595 49.1143 54.5174 49.6326 55.3516" stroke="#FAFAFA" stroke-width="0.229171"/>
<path d="M0.229004 76.5479C1.34553 76.4958 3.54946 77.1099 3.43295 79.9825" stroke="#FAFAFA" stroke-width="0.229171"/>
<path d="M79.9805 76.5479C78.8639 76.4958 76.66 77.1099 76.7765 79.9825" stroke="#FAFAFA" stroke-width="0.229171"/>
<path d="M40.219 65.4356C40.5879 65.4352 40.9416 65.2885 41.2024 65.0276C41.4632 64.7668 41.61 64.4131 41.6104 64.0443V63.5628C40.6903 63.7361 39.7452 63.7294 38.8276 63.543V64.0443C38.8281 64.4131 38.9748 64.7668 39.2356 65.0276C39.4965 65.2885 39.8501 65.4352 40.219 65.4356Z" fill="#FAFAFA"/>
<path d="M45.9189 68.1899L44.778 65.7916C44.5628 65.3427 44.1837 64.9934 43.7187 64.8156L42.848 64.4837C42.5034 64.3819 42.252 63.9771 42.0499 63.7012V63.9786C42.0581 64.2344 42.013 64.4891 41.9172 64.7265C41.8215 64.9639 41.6773 65.1788 41.4939 65.3573C41.3105 65.5359 41.0919 65.6743 40.8521 65.7636C40.6122 65.853 40.3563 65.8913 40.1008 65.8763C39.8453 65.8612 39.5957 65.793 39.368 65.6761C39.1403 65.5592 38.9394 65.3961 38.7783 65.1972C38.6172 64.9983 38.4992 64.768 38.4321 64.521C38.3649 64.274 38.35 64.0157 38.3883 63.7626C38.2377 64.0521 37.9914 64.2805 37.6914 64.4088L36.8758 64.7013C36.4077 64.8669 36.0218 65.2071 35.7988 65.6508L34.5192 68.1899C34.5015 68.2284 34.4996 68.2723 34.514 68.3122C34.5284 68.3521 34.5579 68.3847 34.5962 68.4029L36.3005 69.1779C36.3325 69.1925 36.3675 69.1992 36.4027 69.1975C36.4378 69.1957 36.472 69.1856 36.5024 69.1679C36.5328 69.1501 36.5585 69.1254 36.5774 69.0957C36.5962 69.066 36.6076 69.0321 36.6107 68.9971L36.6734 68.2827C36.6799 68.2254 36.7085 68.1729 36.7532 68.1364C36.7979 68.1 36.855 68.0823 36.9125 68.0874C36.9699 68.0924 37.0232 68.1197 37.0608 68.1634C37.0985 68.2071 37.1176 68.2637 37.114 68.3213L36.5834 74.3534C36.5831 74.3963 36.5917 74.4387 36.6085 74.4781C36.6254 74.5175 36.6501 74.553 36.6812 74.5825C36.7123 74.6119 36.7491 74.6347 36.7894 74.6494C36.8296 74.664 36.8725 74.6703 36.9152 74.6678H43.5405C43.5834 74.6703 43.6265 74.664 43.6669 74.6492C43.7073 74.6344 43.7442 74.6114 43.7753 74.5817C43.8065 74.552 43.8312 74.5162 43.8478 74.4766C43.8645 74.4369 43.8729 74.3942 43.8724 74.3512C43.7785 73.3445 43.3899 69.2394 43.3037 68.3225C43.2996 68.2652 43.3181 68.2084 43.3552 68.1645C43.3924 68.1206 43.4453 68.093 43.5026 68.0876C43.5598 68.0822 43.6169 68.0995 43.6616 68.1357C43.7063 68.1719 43.7351 68.2242 43.7417 68.2813L43.8085 68.9883C43.8118 69.0231 43.8233 69.0565 43.8421 69.0859C43.8609 69.1153 43.8864 69.1398 43.9165 69.1574C43.9466 69.175 43.9805 69.1852 44.0154 69.1871C44.0502 69.189 44.085 69.1826 44.1169 69.1683L45.842 68.3987C45.8797 68.3809 45.9088 68.349 45.9232 68.3099C45.9376 68.2708 45.9361 68.2278 45.9189 68.1899ZM39.8013 72.4167C39.7995 72.4738 39.7756 72.528 39.7346 72.5678C39.6936 72.6076 39.6387 72.6298 39.5816 72.6298C39.5244 72.6298 39.4695 72.6076 39.4285 72.5678C39.3875 72.528 39.3636 72.4738 39.3618 72.4167V70.2011L39.1485 70.333C39.099 70.3623 39.04 70.3709 38.9841 70.3572C38.9283 70.3434 38.8801 70.3082 38.8499 70.2593C38.8196 70.2103 38.8098 70.1515 38.8226 70.0954C38.8353 70.0392 38.8695 69.9904 38.9179 69.9592L39.4651 69.6184C39.4986 69.5985 39.5367 69.5877 39.5756 69.5872C39.6146 69.5866 39.653 69.5963 39.687 69.6152C39.7211 69.6341 39.7496 69.6616 39.7696 69.695C39.7897 69.7284 39.8007 69.7664 39.8015 69.8054L39.8013 72.4167ZM41.3819 72.4167C41.3819 72.475 41.3587 72.5309 41.3175 72.5721C41.2763 72.6133 41.2203 72.6365 41.162 72.6365C41.1037 72.6365 41.0478 72.6133 41.0066 72.5721C40.9654 72.5309 40.9422 72.475 40.9422 72.4167V70.2011L40.7291 70.333C40.6796 70.3636 40.6199 70.3732 40.5632 70.3598C40.5065 70.3465 40.4575 70.3111 40.4269 70.2615C40.3963 70.212 40.3866 70.1523 40.4 70.0956C40.4134 70.0389 40.4487 69.9899 40.4983 69.9592L41.0455 69.6184C41.079 69.5985 41.1171 69.5877 41.156 69.5872C41.195 69.5866 41.2334 69.5963 41.2674 69.6152C41.3015 69.6341 41.3299 69.6616 41.35 69.695C41.3701 69.7284 41.3811 69.7664 41.3819 69.8054V72.4167Z" fill="#FAFAFA"/>
<path d="M39.8013 72.4167C39.7995 72.4738 39.7756 72.528 39.7346 72.5678C39.6936 72.6076 39.6387 72.6298 39.5816 72.6298C39.5244 72.6298 39.4695 72.6076 39.4285 72.5678C39.3875 72.528 39.3636 72.4738 39.3618 72.4167V70.2011L39.1485 70.333C39.099 70.3623 39.04 70.3709 38.9841 70.3572C38.9283 70.3434 38.8801 70.3082 38.8499 70.2593C38.8196 70.2103 38.8098 70.1515 38.8226 70.0954C38.8353 70.0392 38.8695 69.9904 38.9179 69.9592L39.4651 69.6184C39.4986 69.5985 39.5367 69.5877 39.5756 69.5872C39.6146 69.5866 39.653 69.5963 39.687 69.6152C39.7211 69.6341 39.7496 69.6616 39.7696 69.695C39.7897 69.7284 39.8007 69.7664 39.8015 69.8054L39.8013 72.4167Z" fill="#FAFAFA"/>
<path d="M41.3819 72.4167C41.3819 72.475 41.3587 72.5309 41.3175 72.5721C41.2763 72.6133 41.2203 72.6365 41.162 72.6365C41.1037 72.6365 41.0478 72.6133 41.0066 72.5721C40.9654 72.5309 40.9422 72.475 40.9422 72.4167V70.2011L40.7291 70.333C40.6796 70.3636 40.6199 70.3732 40.5632 70.3598C40.5065 70.3465 40.4575 70.3111 40.4269 70.2615C40.3963 70.212 40.3866 70.1523 40.4 70.0956C40.4134 70.0389 40.4487 69.9899 40.4983 69.9592L41.0455 69.6184C41.079 69.5985 41.1171 69.5877 41.156 69.5872C41.195 69.5866 41.2334 69.5963 41.2674 69.6152C41.3015 69.6341 41.3299 69.6616 41.35 69.695C41.3701 69.7284 41.3811 69.7664 41.3819 69.8054V72.4167Z" fill="#FAFAFA"/>
<path d="M39.188 69.8965H41.4797" stroke="#191919" stroke-width="0.343756" stroke-linecap="round" stroke-linejoin="round"/>
<path d="M40.334 71.0437V68.752" stroke="#191919" stroke-width="0.343756" stroke-linecap="round" stroke-linejoin="round"/>
<path d="M15.2395 48.5372C15.6084 48.5368 15.9621 48.39 16.2229 48.1292C16.4838 47.8684 16.6305 47.5147 16.6309 47.1458V46.6643C15.7108 46.8377 14.7657 46.8309 13.8481 46.6445V47.1458C13.8486 47.5147 13.9953 47.8684 14.2561 48.1292C14.517 48.39 14.8706 48.5368 15.2395 48.5372Z" fill="#FAFAFA"/>
<path d="M20.9394 51.2914L19.7985 48.8932C19.5833 48.4443 19.2042 48.0949 18.7392 47.9171L17.8685 47.5853C17.5239 47.4834 17.2725 47.0787 17.0704 46.8027V47.0801C17.0787 47.336 17.0335 47.5907 16.9377 47.8281C16.842 48.0655 16.6979 48.2803 16.5145 48.4589C16.3311 48.6375 16.1124 48.7758 15.8726 48.8652C15.6327 48.9545 15.3768 48.9929 15.1213 48.9778C14.8658 48.9628 14.6162 48.8946 14.3885 48.7777C14.1608 48.6607 13.9599 48.4976 13.7988 48.2988C13.6377 48.0999 13.5198 47.8696 13.4526 47.6226C13.3854 47.3756 13.3705 47.1173 13.4088 46.8642C13.2582 47.1537 13.012 47.382 12.7119 47.5104L11.8963 47.8029C11.4282 47.9684 11.0423 48.3087 10.8193 48.7523L9.53974 51.2914C9.52197 51.3299 9.52009 51.3739 9.53449 51.4138C9.54889 51.4536 9.57842 51.4862 9.61669 51.5045L11.321 52.2795C11.353 52.2941 11.388 52.3008 11.4232 52.2991C11.4583 52.2973 11.4925 52.2871 11.5229 52.2694C11.5533 52.2517 11.579 52.2269 11.5979 52.1972C11.6167 52.1675 11.6281 52.1337 11.6312 52.0987L11.6939 51.3843C11.7004 51.327 11.7291 51.2745 11.7737 51.238C11.8184 51.2015 11.8755 51.1839 11.933 51.1889C11.9904 51.194 12.0437 51.2212 12.0813 51.2649C12.119 51.3086 12.1381 51.3653 12.1345 51.4229L11.6039 57.455C11.6036 57.4978 11.6122 57.5403 11.6291 57.5797C11.6459 57.6191 11.6706 57.6546 11.7017 57.684C11.7328 57.7135 11.7696 57.7363 11.8099 57.7509C11.8501 57.7656 11.893 57.7719 11.9357 57.7693H18.561C18.604 57.7719 18.647 57.7655 18.6874 57.7507C18.7278 57.7359 18.7647 57.713 18.7958 57.6833C18.827 57.6536 18.8517 57.6178 18.8684 57.5781C18.8851 57.5385 18.8934 57.4958 18.8929 57.4528C18.799 56.4461 18.4104 52.3409 18.3242 51.4241C18.3201 51.3667 18.3386 51.31 18.3758 51.2661C18.4129 51.2222 18.4658 51.1946 18.5231 51.1892C18.5803 51.1838 18.6374 51.2011 18.6821 51.2373C18.7269 51.2735 18.7556 51.3257 18.7622 51.3829L18.829 52.0899C18.8323 52.1246 18.8438 52.1581 18.8626 52.1875C18.8814 52.2169 18.9069 52.2414 18.937 52.259C18.9671 52.2766 19.001 52.2868 19.0359 52.2886C19.0707 52.2905 19.1055 52.2841 19.1374 52.2699L20.8625 51.5002C20.9002 51.4824 20.9294 51.4506 20.9437 51.4115C20.9581 51.3724 20.9566 51.3294 20.9394 51.2914ZM14.8218 55.5182C14.82 55.5754 14.7961 55.6295 14.7551 55.6693C14.7141 55.7091 14.6592 55.7314 14.6021 55.7314C14.5449 55.7314 14.49 55.7091 14.449 55.6693C14.408 55.6295 14.3841 55.5754 14.3823 55.5182V53.3027L14.1691 53.4345C14.1195 53.4638 14.0605 53.4725 14.0047 53.4587C13.9488 53.4449 13.9006 53.4098 13.8704 53.3608C13.8402 53.3119 13.8304 53.253 13.8431 53.1969C13.8558 53.1408 13.89 53.0919 13.9384 53.0608L14.4856 52.72C14.5191 52.7001 14.5572 52.6893 14.5962 52.6887C14.6351 52.6882 14.6735 52.6978 14.7075 52.7168C14.7416 52.7357 14.7701 52.7632 14.7901 52.7966C14.8102 52.8299 14.8212 52.868 14.822 52.9069L14.8218 55.5182ZM16.4024 55.5182C16.4024 55.5765 16.3792 55.6325 16.338 55.6737C16.2968 55.7149 16.2409 55.7381 16.1826 55.7381C16.1243 55.7381 16.0683 55.7149 16.0271 55.6737C15.9859 55.6325 15.9627 55.5765 15.9627 55.5182V53.3027L15.7496 53.4345C15.7001 53.4651 15.6404 53.4748 15.5837 53.4614C15.527 53.448 15.478 53.4126 15.4474 53.3631C15.4168 53.3135 15.4071 53.2538 15.4205 53.1972C15.4339 53.1405 15.4692 53.0914 15.5188 53.0608L16.066 52.72C16.0995 52.7001 16.1376 52.6893 16.1765 52.6887C16.2155 52.6882 16.2539 52.6978 16.2879 52.7168C16.322 52.7357 16.3504 52.7632 16.3705 52.7966C16.3906 52.8299 16.4016 52.868 16.4024 52.9069V55.5182Z" fill="#FAFAFA"/>
<path d="M14.8218 55.5182C14.82 55.5754 14.7961 55.6295 14.7551 55.6693C14.7141 55.7091 14.6592 55.7314 14.6021 55.7314C14.5449 55.7314 14.49 55.7091 14.449 55.6693C14.408 55.6295 14.3841 55.5754 14.3823 55.5182V53.3027L14.1691 53.4345C14.1195 53.4638 14.0605 53.4725 14.0047 53.4587C13.9488 53.4449 13.9006 53.4098 13.8704 53.3608C13.8402 53.3119 13.8304 53.253 13.8431 53.1969C13.8558 53.1408 13.89 53.0919 13.9384 53.0608L14.4856 52.72C14.5191 52.7001 14.5572 52.6893 14.5962 52.6887C14.6351 52.6882 14.6735 52.6978 14.7075 52.7168C14.7416 52.7357 14.7701 52.7632 14.7901 52.7966C14.8102 52.8299 14.8212 52.868 14.822 52.9069L14.8218 55.5182Z" fill="#FAFAFA"/>
<path d="M16.4024 55.5182C16.4024 55.5765 16.3792 55.6325 16.338 55.6737C16.2968 55.7149 16.2409 55.7381 16.1826 55.7381C16.1243 55.7381 16.0683 55.7149 16.0271 55.6737C15.9859 55.6325 15.9627 55.5765 15.9627 55.5182V53.3027L15.7496 53.4345C15.7001 53.4651 15.6404 53.4748 15.5837 53.4614C15.527 53.448 15.478 53.4126 15.4474 53.3631C15.4168 53.3135 15.4071 53.2538 15.4205 53.1972C15.4339 53.1405 15.4692 53.0914 15.5188 53.0608L16.066 52.72C16.0995 52.7001 16.1376 52.6893 16.1765 52.6887C16.2155 52.6882 16.2539 52.6978 16.2879 52.7168C16.322 52.7357 16.3504 52.7632 16.3705 52.7966C16.3906 52.8299 16.4016 52.868 16.4024 52.9069V55.5182Z" fill="#FAFAFA"/>
<path d="M14.2085 53.002H16.5002" stroke="#191919" stroke-width="0.343756" stroke-linecap="round" stroke-linejoin="round"/>
<path d="M15.3545 54.1491V51.8574" stroke="#191919" stroke-width="0.343756" stroke-linecap="round" stroke-linejoin="round"/>
<path d="M15.2395 26.5372C15.6084 26.5368 15.9621 26.39 16.2229 26.1292C16.4838 25.8684 16.6305 25.5147 16.6309 25.1458V24.6643C15.7108 24.8377 14.7657 24.8309 13.8481 24.6445V25.1458C13.8486 25.5147 13.9953 25.8684 14.2561 26.1292C14.517 26.39 14.8706 26.5368 15.2395 26.5372Z" fill="#FAFAFA"/>
<path d="M20.9394 29.2914L19.7985 26.8932C19.5833 26.4443 19.2042 26.0949 18.7392 25.9171L17.8685 25.5853C17.5239 25.4834 17.2725 25.0787 17.0704 24.8027V25.0801C17.0787 25.336 17.0335 25.5907 16.9377 25.8281C16.842 26.0655 16.6979 26.2803 16.5145 26.4589C16.3311 26.6375 16.1124 26.7758 15.8726 26.8652C15.6327 26.9545 15.3768 26.9929 15.1213 26.9778C14.8658 26.9628 14.6162 26.8946 14.3885 26.7777C14.1608 26.6607 13.9599 26.4976 13.7988 26.2988C13.6377 26.0999 13.5198 25.8696 13.4526 25.6226C13.3854 25.3756 13.3705 25.1173 13.4088 24.8642C13.2582 25.1537 13.012 25.382 12.7119 25.5104L11.8963 25.8029C11.4282 25.9684 11.0423 26.3087 10.8193 26.7523L9.53974 29.2914C9.52197 29.3299 9.52009 29.3739 9.53449 29.4138C9.54889 29.4536 9.57842 29.4862 9.61669 29.5045L11.321 30.2795C11.353 30.2941 11.388 30.3008 11.4232 30.2991C11.4583 30.2973 11.4925 30.2871 11.5229 30.2694C11.5533 30.2517 11.579 30.2269 11.5979 30.1972C11.6167 30.1675 11.6281 30.1337 11.6312 30.0987L11.6939 29.3843C11.7004 29.327 11.7291 29.2745 11.7737 29.238C11.8184 29.2015 11.8755 29.1839 11.933 29.1889C11.9904 29.194 12.0437 29.2212 12.0813 29.2649C12.119 29.3086 12.1381 29.3653 12.1345 29.4229L11.6039 35.455C11.6036 35.4978 11.6122 35.5403 11.6291 35.5797C11.6459 35.6191 11.6706 35.6546 11.7017 35.684C11.7328 35.7135 11.7696 35.7363 11.8099 35.7509C11.8501 35.7656 11.893 35.7719 11.9357 35.7693H18.561C18.604 35.7719 18.647 35.7655 18.6874 35.7507C18.7278 35.7359 18.7647 35.713 18.7958 35.6833C18.827 35.6536 18.8517 35.6178 18.8684 35.5781C18.8851 35.5385 18.8934 35.4958 18.8929 35.4528C18.799 34.4461 18.4104 30.3409 18.3242 29.4241C18.3201 29.3667 18.3386 29.31 18.3758 29.2661C18.4129 29.2222 18.4658 29.1946 18.5231 29.1892C18.5803 29.1838 18.6374 29.2011 18.6821 29.2373C18.7269 29.2735 18.7556 29.3257 18.7622 29.3829L18.829 30.0899C18.8323 30.1246 18.8438 30.1581 18.8626 30.1875C18.8814 30.2169 18.9069 30.2414 18.937 30.259C18.9671 30.2766 19.001 30.2868 19.0359 30.2886C19.0707 30.2905 19.1055 30.2841 19.1374 30.2699L20.8625 29.5002C20.9002 29.4824 20.9294 29.4506 20.9437 29.4115C20.9581 29.3724 20.9566 29.3294 20.9394 29.2914ZM14.8218 33.5182C14.82 33.5754 14.7961 33.6295 14.7551 33.6693C14.7141 33.7091 14.6592 33.7314 14.6021 33.7314C14.5449 33.7314 14.49 33.7091 14.449 33.6693C14.408 33.6295 14.3841 33.5754 14.3823 33.5182V31.3027L14.1691 31.4345C14.1195 31.4638 14.0605 31.4725 14.0047 31.4587C13.9488 31.4449 13.9006 31.4098 13.8704 31.3608C13.8402 31.3119 13.8304 31.253 13.8431 31.1969C13.8558 31.1408 13.89 31.0919 13.9384 31.0608L14.4856 30.72C14.5191 30.7001 14.5572 30.6893 14.5962 30.6887C14.6351 30.6882 14.6735 30.6978 14.7075 30.7168C14.7416 30.7357 14.7701 30.7632 14.7901 30.7966C14.8102 30.8299 14.8212 30.868 14.822 30.9069L14.8218 33.5182ZM16.4024 33.5182C16.4024 33.5765 16.3792 33.6325 16.338 33.6737C16.2968 33.7149 16.2409 33.7381 16.1826 33.7381C16.1243 33.7381 16.0683 33.7149 16.0271 33.6737C15.9859 33.6325 15.9627 33.5765 15.9627 33.5182V31.3027L15.7496 31.4345C15.7001 31.4651 15.6404 31.4748 15.5837 31.4614C15.527 31.448 15.478 31.4126 15.4474 31.3631C15.4168 31.3135 15.4071 31.2538 15.4205 31.1972C15.4339 31.1405 15.4692 31.0914 15.5188 31.0608L16.066 30.72C16.0995 30.7001 16.1376 30.6893 16.1765 30.6887C16.2155 30.6882 16.2539 30.6978 16.2879 30.7168C16.322 30.7357 16.3504 30.7632 16.3705 30.7966C16.3906 30.8299 16.4016 30.868 16.4024 30.9069V33.5182Z" fill="#FAFAFA"/>
<path d="M14.8218 33.5182C14.82 33.5754 14.7961 33.6295 14.7551 33.6693C14.7141 33.7091 14.6592 33.7314 14.6021 33.7314C14.5449 33.7314 14.49 33.7091 14.449 33.6693C14.408 33.6295 14.3841 33.5754 14.3823 33.5182V31.3027L14.1691 31.4345C14.1195 31.4638 14.0605 31.4725 14.0047 31.4587C13.9488 31.4449 13.9006 31.4098 13.8704 31.3608C13.8402 31.3119 13.8304 31.253 13.8431 31.1969C13.8558 31.1408 13.89 31.0919 13.9384 31.0608L14.4856 30.72C14.5191 30.7001 14.5572 30.6893 14.5962 30.6887C14.6351 30.6882 14.6735 30.6978 14.7075 30.7168C14.7416 30.7357 14.7701 30.7632 14.7901 30.7966C14.8102 30.8299 14.8212 30.868 14.822 30.9069L14.8218 33.5182Z" fill="#FAFAFA"/>
<path d="M16.4024 33.5182C16.4024 33.5765 16.3792 33.6325 16.338 33.6737C16.2968 33.7149 16.2409 33.7381 16.1826 33.7381C16.1243 33.7381 16.0683 33.7149 16.0271 33.6737C15.9859 33.6325 15.9627 33.5765 15.9627 33.5182V31.3027L15.7496 31.4345C15.7001 31.4651 15.6404 31.4748 15.5837 31.4614C15.527 31.448 15.478 31.4126 15.4474 31.3631C15.4168 31.3135 15.4071 31.2538 15.4205 31.1972C15.4339 31.1405 15.4692 31.0914 15.5188 31.0608L16.066 30.72C16.0995 30.7001 16.1376 30.6893 16.1765 30.6887C16.2155 30.6882 16.2539 30.6978 16.2879 30.7168C16.322 30.7357 16.3504 30.7632 16.3705 30.7966C16.3906 30.8299 16.4016 30.868 16.4024 30.9069V33.5182Z" fill="#FAFAFA"/>
<path d="M14.2085 31.002H16.5002" stroke="#191919" stroke-width="0.343756" stroke-linecap="round" stroke-linejoin="round"/>
<path d="M15.3545 32.1491V29.8574" stroke="#191919" stroke-width="0.343756" stroke-linecap="round" stroke-linejoin="round"/>
<path d="M64.9695 48.5372C65.3384 48.5368 65.6921 48.39 65.9529 48.1292C66.2137 47.8684 66.3605 47.5147 66.3609 47.1458V46.6643C65.4407 46.8377 64.4957 46.8309 63.5781 46.6445V47.1458C63.5786 47.5147 63.7253 47.8684 63.9861 48.1292C64.247 48.39 64.6006 48.5368 64.9695 48.5372Z" fill="#FAFAFA"/>
<path d="M70.6694 51.2914L69.5285 48.8932C69.3133 48.4443 68.9342 48.0949 68.4692 47.9171L67.5984 47.5853C67.2539 47.4834 67.0025 47.0787 66.8004 46.8027V47.0801C66.8086 47.336 66.7634 47.5907 66.6677 47.8281C66.572 48.0655 66.4278 48.2803 66.2444 48.4589C66.061 48.6375 65.8424 48.7758 65.6026 48.8652C65.3627 48.9545 65.1068 48.9929 64.8513 48.9778C64.5958 48.9628 64.3462 48.8946 64.1185 48.7777C63.8908 48.6607 63.6899 48.4976 63.5288 48.2988C63.3676 48.0999 63.2497 47.8696 63.1826 47.6226C63.1154 47.3756 63.1005 47.1173 63.1387 46.8642C62.9882 47.1537 62.7419 47.382 62.4419 47.5104L61.6263 47.8029C61.1582 47.9684 60.7722 48.3087 60.5493 48.7523L59.2697 51.2914C59.252 51.3299 59.2501 51.3739 59.2645 51.4138C59.2789 51.4536 59.3084 51.4862 59.3467 51.5045L61.051 52.2795C61.083 52.2941 61.118 52.3008 61.1532 52.2991C61.1883 52.2973 61.2225 52.2871 61.2529 52.2694C61.2833 52.2517 61.309 52.2269 61.3278 52.1972C61.3467 52.1675 61.3581 52.1337 61.3612 52.0987L61.4239 51.3843C61.4304 51.327 61.459 51.2745 61.5037 51.238C61.5484 51.2015 61.6055 51.1839 61.663 51.1889C61.7204 51.194 61.7737 51.2212 61.8113 51.2649C61.8489 51.3086 61.868 51.3653 61.8645 51.4229L61.3338 57.455C61.3336 57.4978 61.3422 57.5403 61.359 57.5797C61.3759 57.6191 61.4006 57.6546 61.4317 57.684C61.4628 57.7135 61.4996 57.7363 61.5399 57.7509C61.5801 57.7656 61.623 57.7719 61.6657 57.7693H68.291C68.3339 57.7719 68.377 57.7655 68.4174 57.7507C68.4578 57.7359 68.4947 57.713 68.5258 57.6833C68.557 57.6536 68.5816 57.6178 68.5983 57.5781C68.615 57.5385 68.6234 57.4958 68.6229 57.4528C68.529 56.4461 68.1403 52.3409 68.0542 51.4241C68.0501 51.3667 68.0686 51.31 68.1057 51.2661C68.1429 51.2222 68.1958 51.1946 68.2531 51.1892C68.3103 51.1838 68.3674 51.2011 68.4121 51.2373C68.4568 51.2735 68.4856 51.3257 68.4922 51.3829L68.559 52.0899C68.5623 52.1246 68.5738 52.1581 68.5926 52.1875C68.6113 52.2169 68.6369 52.2414 68.667 52.259C68.6971 52.2766 68.731 52.2868 68.7659 52.2886C68.8007 52.2905 68.8355 52.2841 68.8674 52.2699L70.5925 51.5002C70.6301 51.4824 70.6593 51.4506 70.6737 51.4115C70.6881 51.3724 70.6866 51.3294 70.6694 51.2914ZM64.5518 55.5182C64.55 55.5754 64.5261 55.6295 64.4851 55.6693C64.4441 55.7091 64.3892 55.7314 64.332 55.7314C64.2749 55.7314 64.22 55.7091 64.179 55.6693C64.138 55.6295 64.1141 55.5754 64.1123 55.5182V53.3027L63.899 53.4345C63.8495 53.4638 63.7905 53.4725 63.7346 53.4587C63.6788 53.4449 63.6306 53.4098 63.6003 53.3608C63.5701 53.3119 63.5603 53.253 63.5731 53.1969C63.5858 53.1408 63.62 53.0919 63.6684 53.0608L64.2156 52.72C64.2491 52.7001 64.2872 52.6893 64.3261 52.6887C64.3651 52.6882 64.4035 52.6978 64.4375 52.7168C64.4716 52.7357 64.5 52.7632 64.5201 52.7966C64.5402 52.8299 64.5512 52.868 64.552 52.9069L64.5518 55.5182ZM66.1324 55.5182C66.1324 55.5765 66.1092 55.6325 66.068 55.6737C66.0267 55.7149 65.9708 55.7381 65.9125 55.7381C65.8542 55.7381 65.7983 55.7149 65.7571 55.6737C65.7159 55.6325 65.6927 55.5765 65.6927 55.5182V53.3027L65.4796 53.4345C65.4301 53.4651 65.3704 53.4748 65.3137 53.4614C65.257 53.448 65.208 53.4126 65.1774 53.3631C65.1467 53.3135 65.1371 53.2538 65.1505 53.1972C65.1639 53.1405 65.1992 53.0914 65.2488 53.0608L65.796 52.72C65.8295 52.7001 65.8676 52.6893 65.9065 52.6887C65.9455 52.6882 65.9839 52.6978 66.0179 52.7168C66.0519 52.7357 66.0804 52.7632 66.1005 52.7966C66.1206 52.8299 66.1316 52.868 66.1324 52.9069V55.5182Z" fill="#FAFAFA"/>
<path d="M64.5518 55.5182C64.55 55.5754 64.5261 55.6295 64.4851 55.6693C64.4441 55.7091 64.3892 55.7314 64.332 55.7314C64.2749 55.7314 64.22 55.7091 64.179 55.6693C64.138 55.6295 64.1141 55.5754 64.1123 55.5182V53.3027L63.899 53.4345C63.8495 53.4638 63.7905 53.4725 63.7346 53.4587C63.6788 53.4449 63.6306 53.4098 63.6003 53.3608C63.5701 53.3119 63.5603 53.253 63.5731 53.1969C63.5858 53.1408 63.62 53.0919 63.6684 53.0608L64.2156 52.72C64.2491 52.7001 64.2872 52.6893 64.3261 52.6887C64.3651 52.6882 64.4035 52.6978 64.4375 52.7168C64.4716 52.7357 64.5 52.7632 64.5201 52.7966C64.5402 52.8299 64.5512 52.868 64.552 52.9069L64.5518 55.5182Z" fill="#FAFAFA"/>
<path d="M66.1324 55.5182C66.1324 55.5765 66.1092 55.6325 66.068 55.6737C66.0267 55.7149 65.9708 55.7381 65.9125 55.7381C65.8542 55.7381 65.7983 55.7149 65.7571 55.6737C65.7159 55.6325 65.6927 55.5765 65.6927 55.5182V53.3027L65.4796 53.4345C65.4301 53.4651 65.3704 53.4748 65.3137 53.4614C65.257 53.448 65.208 53.4126 65.1774 53.3631C65.1467 53.3135 65.1371 53.2538 65.1505 53.1972C65.1639 53.1405 65.1992 53.0914 65.2488 53.0608L65.796 52.72C65.8295 52.7001 65.8676 52.6893 65.9065 52.6887C65.9455 52.6882 65.9839 52.6978 66.0179 52.7168C66.0519 52.7357 66.0804 52.7632 66.1005 52.7966C66.1206 52.8299 66.1316 52.868 66.1324 52.9069V55.5182Z" fill="#FAFAFA"/>
<path d="M63.9385 53.002H66.2302" stroke="#191919" stroke-width="0.343756" stroke-linecap="round" stroke-linejoin="round"/>
<path d="M65.0845 54.1491V51.8574" stroke="#191919" stroke-width="0.343756" stroke-linecap="round" stroke-linejoin="round"/>
<path d="M64.9695 26.5372C65.3384 26.5368 65.6921 26.39 65.9529 26.1292C66.2137 25.8684 66.3605 25.5147 66.3609 25.1458V24.6643C65.4407 24.8377 64.4957 24.8309 63.5781 24.6445V25.1458C63.5786 25.5147 63.7253 25.8684 63.9861 26.1292C64.247 26.39 64.6006 26.5368 64.9695 26.5372Z" fill="#FAFAFA"/>
<path d="M70.6694 29.2914L69.5285 26.8932C69.3133 26.4443 68.9342 26.0949 68.4692 25.9171L67.5984 25.5853C67.2539 25.4834 67.0025 25.0787 66.8004 24.8027V25.0801C66.8086 25.336 66.7634 25.5907 66.6677 25.8281C66.572 26.0655 66.4278 26.2803 66.2444 26.4589C66.061 26.6375 65.8424 26.7758 65.6026 26.8652C65.3627 26.9545 65.1068 26.9929 64.8513 26.9778C64.5958 26.9628 64.3462 26.8946 64.1185 26.7777C63.8908 26.6607 63.6899 26.4976 63.5288 26.2988C63.3676 26.0999 63.2497 25.8696 63.1826 25.6226C63.1154 25.3756 63.1005 25.1173 63.1387 24.8642C62.9882 25.1537 62.7419 25.382 62.4419 25.5104L61.6263 25.8029C61.1582 25.9684 60.7722 26.3087 60.5493 26.7523L59.2697 29.2914C59.252 29.3299 59.2501 29.3739 59.2645 29.4138C59.2789 29.4536 59.3084 29.4862 59.3467 29.5045L61.051 30.2795C61.083 30.2941 61.118 30.3008 61.1532 30.2991C61.1883 30.2973 61.2225 30.2871 61.2529 30.2694C61.2833 30.2517 61.309 30.2269 61.3278 30.1972C61.3467 30.1675 61.3581 30.1337 61.3612 30.0987L61.4239 29.3843C61.4304 29.327 61.459 29.2745 61.5037 29.238C61.5484 29.2015 61.6055 29.1839 61.663 29.1889C61.7204 29.194 61.7737 29.2212 61.8113 29.2649C61.8489 29.3086 61.868 29.3653 61.8645 29.4229L61.3338 35.455C61.3336 35.4978 61.3422 35.5403 61.359 35.5797C61.3759 35.6191 61.4006 35.6546 61.4317 35.684C61.4628 35.7135 61.4996 35.7363 61.5399 35.7509C61.5801 35.7656 61.623 35.7719 61.6657 35.7693H68.291C68.3339 35.7719 68.377 35.7655 68.4174 35.7507C68.4578 35.7359 68.4947 35.713 68.5258 35.6833C68.557 35.6536 68.5816 35.6178 68.5983 35.5781C68.615 35.5385 68.6234 35.4958 68.6229 35.4528C68.529 34.4461 68.1403 30.3409 68.0542 29.4241C68.0501 29.3667 68.0686 29.31 68.1057 29.2661C68.1429 29.2222 68.1958 29.1946 68.2531 29.1892C68.3103 29.1838 68.3674 29.2011 68.4121 29.2373C68.4568 29.2735 68.4856 29.3257 68.4922 29.3829L68.559 30.0899C68.5623 30.1246 68.5738 30.1581 68.5926 30.1875C68.6113 30.2169 68.6369 30.2414 68.667 30.259C68.6971 30.2766 68.731 30.2868 68.7659 30.2886C68.8007 30.2905 68.8355 30.2841 68.8674 30.2699L70.5925 29.5002C70.6301 29.4824 70.6593 29.4506 70.6737 29.4115C70.6881 29.3724 70.6866 29.3294 70.6694 29.2914ZM64.5518 33.5182C64.55 33.5754 64.5261 33.6295 64.4851 33.6693C64.4441 33.7091 64.3892 33.7314 64.332 33.7314C64.2749 33.7314 64.22 33.7091 64.179 33.6693C64.138 33.6295 64.1141 33.5754 64.1123 33.5182V31.3027L63.899 31.4345C63.8495 31.4638 63.7905 31.4725 63.7346 31.4587C63.6788 31.4449 63.6306 31.4098 63.6003 31.3608C63.5701 31.3119 63.5603 31.253 63.5731 31.1969C63.5858 31.1408 63.62 31.0919 63.6684 31.0608L64.2156 30.72C64.2491 30.7001 64.2872 30.6893 64.3261 30.6887C64.3651 30.6882 64.4035 30.6978 64.4375 30.7168C64.4716 30.7357 64.5 30.7632 64.5201 30.7966C64.5402 30.8299 64.5512 30.868 64.552 30.9069L64.5518 33.5182ZM66.1324 33.5182C66.1324 33.5765 66.1092 33.6325 66.068 33.6737C66.0267 33.7149 65.9708 33.7381 65.9125 33.7381C65.8542 33.7381 65.7983 33.7149 65.7571 33.6737C65.7159 33.6325 65.6927 33.5765 65.6927 33.5182V31.3027L65.4796 31.4345C65.4301 31.4651 65.3704 31.4748 65.3137 31.4614C65.257 31.448 65.208 31.4126 65.1774 31.3631C65.1467 31.3135 65.1371 31.2538 65.1505 31.1972C65.1639 31.1405 65.1992 31.0914 65.2488 31.0608L65.796 30.72C65.8295 30.7001 65.8676 30.6893 65.9065 30.6887C65.9455 30.6882 65.9839 30.6978 66.0179 30.7168C66.0519 30.7357 66.0804 30.7632 66.1005 30.7966C66.1206 30.8299 66.1316 30.868 66.1324 30.9069V33.5182Z" fill="#FAFAFA"/>
<path d="M64.5518 33.5182C64.55 33.5754 64.5261 33.6295 64.4851 33.6693C64.4441 33.7091 64.3892 33.7314 64.332 33.7314C64.2749 33.7314 64.22 33.7091 64.179 33.6693C64.138 33.6295 64.1141 33.5754 64.1123 33.5182V31.3027L63.899 31.4345C63.8495 31.4638 63.7905 31.4725 63.7346 31.4587C63.6788 31.4449 63.6306 31.4098 63.6003 31.3608C63.5701 31.3119 63.5603 31.253 63.5731 31.1969C63.5858 31.1408 63.62 31.0919 63.6684 31.0608L64.2156 30.72C64.2491 30.7001 64.2872 30.6893 64.3261 30.6887C64.3651 30.6882 64.4035 30.6978 64.4375 30.7168C64.4716 30.7357 64.5 30.7632 64.5201 30.7966C64.5402 30.8299 64.5512 30.868 64.552 30.9069L64.5518 33.5182Z" fill="#FAFAFA"/>
<path d="M66.1324 33.5182C66.1324 33.5765 66.1092 33.6325 66.068 33.6737C66.0267 33.7149 65.9708 33.7381 65.9125 33.7381C65.8542 33.7381 65.7983 33.7149 65.7571 33.6737C65.7159 33.6325 65.6927 33.5765 65.6927 33.5182V31.3027L65.4796 31.4345C65.4301 31.4651 65.3704 31.4748 65.3137 31.4614C65.257 31.448 65.208 31.4126 65.1774 31.3631C65.1467 31.3135 65.1371 31.2538 65.1505 31.1972C65.1639 31.1405 65.1992 31.0914 65.2488 31.0608L65.796 30.72C65.8295 30.7001 65.8676 30.6893 65.9065 30.6887C65.9455 30.6882 65.9839 30.6978 66.0179 30.7168C66.0519 30.7357 66.0804 30.7632 66.1005 30.7966C66.1206 30.8299 66.1316 30.868 66.1324 30.9069V33.5182Z" fill="#FAFAFA"/>
<path d="M63.9385 31.002H66.2302" stroke="#191919" stroke-width="0.343756" stroke-linecap="round" stroke-linejoin="round"/>
<path d="M65.0845 32.1491V29.8574" stroke="#191919" stroke-width="0.343756" stroke-linecap="round" stroke-linejoin="round"/>
<path d="M40.219 48.6427C40.5879 48.6422 40.9416 48.4955 41.2024 48.2347C41.4632 47.9738 41.61 47.6202 41.6104 47.2513V46.7698C40.6903 46.9431 39.7452 46.9364 38.8276 46.75V47.2513C38.8281 47.6202 38.9748 47.9738 39.2356 48.2347C39.4965 48.4955 39.8501 48.6422 40.219 48.6427Z" fill="#FAFAFA"/>
<path d="M45.9189 51.3969L44.778 48.9987C44.5628 48.5497 44.1837 48.2004 43.7187 48.0226L42.848 47.6907C42.5034 47.5889 42.252 47.1842 42.0499 46.9082V47.1856C42.0581 47.4414 42.013 47.6962 41.9172 47.9336C41.8215 48.171 41.6773 48.3858 41.4939 48.5644C41.3105 48.7429 41.0919 48.8813 40.8521 48.9707C40.6122 49.06 40.3563 49.0984 40.1008 49.0833C39.8453 49.0682 39.5957 49.0001 39.368 48.8831C39.1403 48.7662 38.9394 48.6031 38.7783 48.4042C38.6172 48.2053 38.4992 47.975 38.4321 47.728C38.3649 47.481 38.35 47.2227 38.3883 46.9696C38.2377 47.2591 37.9914 47.4875 37.6914 47.6158L36.8758 47.9083C36.4077 48.0739 36.0218 48.4141 35.7988 48.8578L34.5192 51.3969C34.5015 51.4354 34.4996 51.4793 34.514 51.5192C34.5284 51.5591 34.5579 51.5917 34.5962 51.61L36.3005 52.385C36.3325 52.3996 36.3675 52.4063 36.4027 52.4045C36.4378 52.4028 36.472 52.3926 36.5024 52.3749C36.5328 52.3572 36.5585 52.3324 36.5774 52.3027C36.5962 52.273 36.6076 52.2392 36.6107 52.2041L36.6734 51.4898C36.6799 51.4325 36.7085 51.38 36.7532 51.3435C36.7979 51.307 36.855 51.2894 36.9125 51.2944C36.9699 51.2994 37.0232 51.3267 37.0608 51.3704C37.0985 51.4141 37.1176 51.4708 37.114 51.5283L36.5834 57.5605C36.5831 57.6033 36.5917 57.6457 36.6085 57.6851C36.6254 57.7245 36.6501 57.76 36.6812 57.7895C36.7123 57.819 36.7491 57.8417 36.7894 57.8564C36.8296 57.8711 36.8725 57.8773 36.9152 57.8748H43.5405C43.5834 57.8773 43.6265 57.871 43.6669 57.8562C43.7073 57.8414 43.7442 57.8184 43.7753 57.7887C43.8065 57.759 43.8312 57.7232 43.8478 57.6836C43.8645 57.6439 43.8729 57.6012 43.8724 57.5582C43.7785 56.5516 43.3899 52.4464 43.3037 51.5296C43.2996 51.4722 43.3181 51.4155 43.3552 51.3716C43.3924 51.3277 43.4453 51.3001 43.5026 51.2947C43.5598 51.2893 43.6169 51.3065 43.6616 51.3427C43.7063 51.3789 43.7351 51.4312 43.7417 51.4883L43.8085 52.1953C43.8118 52.2301 43.8233 52.2635 43.8421 52.293C43.8609 52.3224 43.8864 52.3469 43.9165 52.3645C43.9466 52.3821 43.9805 52.3922 44.0154 52.3941C44.0502 52.396 44.085 52.3896 44.1169 52.3754L45.842 51.6057C45.8797 51.5879 45.9088 51.556 45.9232 51.5169C45.9376 51.4778 45.9361 51.4349 45.9189 51.3969ZM39.8013 55.6237C39.7995 55.6808 39.7756 55.735 39.7346 55.7748C39.6936 55.8146 39.6387 55.8368 39.5816 55.8368C39.5244 55.8368 39.4695 55.8146 39.4285 55.7748C39.3875 55.735 39.3636 55.6808 39.3618 55.6237V53.4081L39.1485 53.54C39.099 53.5693 39.04 53.578 38.9841 53.5642C38.9283 53.5504 38.8801 53.5153 38.8499 53.4663C38.8196 53.4173 38.8098 53.3585 38.8226 53.3024C38.8353 53.2463 38.8695 53.1974 38.9179 53.1663L39.4651 52.8254C39.4986 52.8055 39.5367 52.7948 39.5756 52.7942C39.6146 52.7937 39.653 52.8033 39.687 52.8222C39.7211 52.8412 39.7496 52.8687 39.7696 52.902C39.7897 52.9354 39.8007 52.9734 39.8015 53.0124L39.8013 55.6237ZM41.3819 55.6237C41.3819 55.682 41.3587 55.7379 41.3175 55.7791C41.2763 55.8204 41.2203 55.8435 41.162 55.8435C41.1037 55.8435 41.0478 55.8204 41.0066 55.7791C40.9654 55.7379 40.9422 55.682 40.9422 55.6237V53.4081L40.7291 53.54C40.6796 53.5706 40.6199 53.5803 40.5632 53.5669C40.5065 53.5535 40.4575 53.5181 40.4269 53.4686C40.3963 53.419 40.3866 53.3593 40.4 53.3026C40.4134 53.2459 40.4487 53.1969 40.4983 53.1663L41.0455 52.8254C41.079 52.8055 41.1171 52.7948 41.156 52.7942C41.195 52.7937 41.2334 52.8033 41.2674 52.8222C41.3015 52.8412 41.3299 52.8687 41.35 52.902C41.3701 52.9354 41.3811 52.9734 41.3819 53.0124V55.6237Z" fill="#FAFAFA"/>
<path d="M39.8013 55.6237C39.7995 55.6808 39.7756 55.735 39.7346 55.7748C39.6936 55.8146 39.6387 55.8368 39.5816 55.8368C39.5244 55.8368 39.4695 55.8146 39.4285 55.7748C39.3875 55.735 39.3636 55.6808 39.3618 55.6237V53.4081L39.1485 53.54C39.099 53.5693 39.04 53.578 38.9841 53.5642C38.9283 53.5504 38.8801 53.5153 38.8499 53.4663C38.8196 53.4173 38.8098 53.3585 38.8226 53.3024C38.8353 53.2463 38.8695 53.1974 38.9179 53.1663L39.4651 52.8254C39.4986 52.8055 39.5367 52.7948 39.5756 52.7942C39.6146 52.7937 39.653 52.8033 39.687 52.8222C39.7211 52.8412 39.7496 52.8687 39.7696 52.902C39.7897 52.9354 39.8007 52.9734 39.8015 53.0124L39.8013 55.6237Z" fill="#FAFAFA"/>
<path d="M41.3819 55.6237C41.3819 55.682 41.3587 55.7379 41.3175 55.7791C41.2763 55.8204 41.2203 55.8435 41.162 55.8435C41.1037 55.8435 41.0478 55.8204 41.0066 55.7791C40.9654 55.7379 40.9422 55.682 40.9422 55.6237V53.4081L40.7291 53.54C40.6796 53.5706 40.6199 53.5803 40.5632 53.5669C40.5065 53.5535 40.4575 53.5181 40.4269 53.4686C40.3963 53.419 40.3866 53.3593 40.4 53.3026C40.4134 53.2459 40.4487 53.1969 40.4983 53.1663L41.0455 52.8254C41.079 52.8055 41.1171 52.7948 41.156 52.7942C41.195 52.7937 41.2334 52.8033 41.2674 52.8222C41.3015 52.8412 41.3299 52.8687 41.35 52.902C41.3701 52.9354 41.3811 52.9734 41.3819 53.0124V55.6237Z" fill="#FAFAFA"/>
<path d="M39.188 53.1055H41.4797" stroke="#191919" stroke-width="0.343756" stroke-linecap="round" stroke-linejoin="round"/>
<path d="M40.334 54.2526V51.9609" stroke="#191919" stroke-width="0.343756" stroke-linecap="round" stroke-linejoin="round"/>
<path d="M40.219 6.99618C40.5879 6.99575 40.9416 6.84902 41.2024 6.58818C41.4632 6.32734 41.61 5.97368 41.6104 5.6048V5.12331C40.6903 5.29665 39.7452 5.28993 38.8276 5.10352V5.6048C38.8281 5.97368 38.9748 6.32734 39.2356 6.58818C39.4965 6.84902 39.8501 6.99575 40.219 6.99618Z" fill="#FAFAFA"/>
<path d="M45.9189 9.7504L44.778 7.35217C44.5628 6.90324 44.1837 6.55392 43.7187 6.37613L42.848 6.04426C42.5034 5.94241 42.252 5.53767 42.0499 5.26172V5.5391C42.0581 5.79494 42.013 6.04969 41.9172 6.28709C41.8215 6.52449 41.6773 6.73932 41.4939 6.91789C41.3105 7.09646 41.0919 7.23483 40.8521 7.32418C40.6122 7.41353 40.3563 7.45189 40.1008 7.43682C39.8453 7.42175 39.5957 7.35358 39.368 7.23666C39.1403 7.11973 38.9394 6.95662 38.7783 6.75774C38.6172 6.55885 38.4992 6.32856 38.4321 6.08155C38.3649 5.83455 38.35 5.57625 38.3883 5.32315C38.2377 5.61265 37.9914 5.84101 37.6914 5.96935L36.8758 6.26184C36.4077 6.42743 36.0218 6.76766 35.7988 7.21133L34.5192 9.7504C34.5015 9.7889 34.4996 9.83286 34.514 9.87274C34.5284 9.91262 34.5579 9.94522 34.5962 9.96349L36.3005 10.7385C36.3325 10.7531 36.3675 10.7598 36.4027 10.758C36.4378 10.7563 36.472 10.7461 36.5024 10.7284C36.5328 10.7107 36.5585 10.6859 36.5774 10.6562C36.5962 10.6265 36.6076 10.5927 36.6107 10.5576L36.6734 9.84327C36.6799 9.78597 36.7085 9.73348 36.7532 9.69699C36.7979 9.6605 36.855 9.64289 36.9125 9.64792C36.9699 9.65295 37.0232 9.68022 37.0608 9.72392C37.0985 9.76761 37.1176 9.82428 37.114 9.88185L36.5834 15.914C36.5831 15.9568 36.5917 15.9992 36.6085 16.0386C36.6254 16.078 36.6501 16.1136 36.6812 16.143C36.7123 16.1725 36.7491 16.1952 36.7894 16.2099C36.8296 16.2246 36.8725 16.2308 36.9152 16.2283H43.5405C43.5834 16.2309 43.6265 16.2245 43.6669 16.2097C43.7073 16.1949 43.7442 16.172 43.7753 16.1423C43.8065 16.1126 43.8312 16.0768 43.8478 16.0371C43.8645 15.9974 43.8729 15.9548 43.8724 15.9117C43.7785 14.9051 43.3899 10.7999 43.3037 9.88307C43.2996 9.8257 43.3181 9.76899 43.3552 9.72508C43.3924 9.68118 43.4453 9.65357 43.5026 9.64818C43.5598 9.64279 43.6169 9.66004 43.6616 9.69624C43.7063 9.73244 43.7351 9.78471 43.7417 9.84184L43.8085 10.5489C43.8118 10.5836 43.8233 10.6171 43.8421 10.6465C43.8609 10.6759 43.8864 10.7004 43.9165 10.718C43.9466 10.7356 43.9805 10.7457 44.0154 10.7476C44.0502 10.7495 44.085 10.7431 44.1169 10.7289L45.842 9.9592C45.8797 9.94143 45.9088 9.90955 45.9232 9.87045C45.9376 9.83136 45.9361 9.78837 45.9189 9.7504ZM39.8013 13.9772C39.7995 14.0343 39.7756 14.0885 39.7346 14.1283C39.6936 14.1681 39.6387 14.1903 39.5816 14.1903C39.5244 14.1903 39.4695 14.1681 39.4285 14.1283C39.3875 14.0885 39.3636 14.0343 39.3618 13.9772V11.7617L39.1485 11.8935C39.099 11.9228 39.04 11.9315 38.9841 11.9177C38.9283 11.9039 38.8801 11.8688 38.8499 11.8198C38.8196 11.7709 38.8098 11.712 38.8226 11.6559C38.8353 11.5998 38.8695 11.5509 38.9179 11.5198L39.4651 11.1789C39.4986 11.159 39.5367 11.1483 39.5756 11.1477C39.6146 11.1472 39.653 11.1568 39.687 11.1757C39.7211 11.1947 39.7496 11.2222 39.7696 11.2555C39.7897 11.2889 39.8007 11.327 39.8015 11.3659L39.8013 13.9772ZM41.3819 13.9772C41.3819 14.0355 41.3587 14.0914 41.3175 14.1327C41.2763 14.1739 41.2203 14.197 41.162 14.197C41.1037 14.197 41.0478 14.1739 41.0066 14.1327C40.9654 14.0914 40.9422 14.0355 40.9422 13.9772V11.7617L40.7291 11.8935C40.6796 11.9241 40.6199 11.9338 40.5632 11.9204C40.5065 11.907 40.4575 11.8716 40.4269 11.8221C40.3963 11.7725 40.3866 11.7128 40.4 11.6561C40.4134 11.5995 40.4487 11.5504 40.4983 11.5198L41.0455 11.1789C41.079 11.159 41.1171 11.1483 41.156 11.1477C41.195 11.1472 41.2334 11.1568 41.2674 11.1757C41.3015 11.1947 41.3299 11.2222 41.35 11.2555C41.3701 11.2889 41.3811 11.327 41.3819 11.3659V13.9772Z" fill="#FAFAFA"/>
<path d="M39.8013 13.9772C39.7995 14.0343 39.7756 14.0885 39.7346 14.1283C39.6936 14.1681 39.6387 14.1903 39.5816 14.1903C39.5244 14.1903 39.4695 14.1681 39.4285 14.1283C39.3875 14.0885 39.3636 14.0343 39.3618 13.9772V11.7617L39.1485 11.8935C39.099 11.9228 39.04 11.9315 38.9841 11.9177C38.9283 11.9039 38.8801 11.8688 38.8499 11.8198C38.8196 11.7709 38.8098 11.712 38.8226 11.6559C38.8353 11.5998 38.8695 11.5509 38.9179 11.5198L39.4651 11.1789C39.4986 11.159 39.5367 11.1483 39.5756 11.1477C39.6146 11.1472 39.653 11.1568 39.687 11.1757C39.7211 11.1947 39.7496 11.2222 39.7696 11.2555C39.7897 11.2889 39.8007 11.327 39.8015 11.3659L39.8013 13.9772Z" fill="#FAFAFA"/>
<path d="M41.3819 13.9772C41.3819 14.0355 41.3587 14.0914 41.3175 14.1327C41.2763 14.1739 41.2203 14.197 41.162 14.197C41.1037 14.197 41.0478 14.1739 41.0066 14.1327C40.9654 14.0914 40.9422 14.0355 40.9422 13.9772V11.7617L40.7291 11.8935C40.6796 11.9241 40.6199 11.9338 40.5632 11.9204C40.5065 11.907 40.4575 11.8716 40.4269 11.8221C40.3963 11.7725 40.3866 11.7128 40.4 11.6561C40.4134 11.5995 40.4487 11.5504 40.4983 11.5198L41.0455 11.1789C41.079 11.159 41.1171 11.1483 41.156 11.1477C41.195 11.1472 41.2334 11.1568 41.2674 11.1757C41.3015 11.1947 41.3299 11.2222 41.35 11.2555C41.3701 11.2889 41.3811 11.327 41.3819 11.3659V13.9772Z" fill="#FAFAFA"/>
<path d="M39.188 11.4609H41.4797" stroke="#191919" stroke-width="0.343756" stroke-linecap="round" stroke-linejoin="round"/>
<path d="M40.334 12.6081V10.3164" stroke="#191919" stroke-width="0.343756" stroke-linecap="round" stroke-linejoin="round"/>
</svg>
