<svg width="57" height="57" viewBox="0 0 57 57" fill="none" xmlns="http://www.w3.org/2000/svg">
<path d="M28.4984 12.5166C30.108 12.5147 31.6512 11.8744 32.7894 10.7362C33.9276 9.59803 34.5679 8.05484 34.5698 6.44519V4.3442C30.5547 5.10057 26.431 5.07123 22.427 4.25781V6.44519C22.4289 8.05484 23.0692 9.59803 24.2074 10.7362C25.3456 11.8744 26.8887 12.5147 28.4984 12.5166Z" fill="#FAFAFA"/>
<path d="M53.3704 24.5358L48.3918 14.071C47.4529 12.1121 45.7986 10.5878 43.7695 9.81203L39.9701 8.36388C38.4667 7.91945 37.3695 6.15334 36.4878 4.94922V6.15958C36.5237 7.27595 36.3265 8.38756 35.9088 9.42346C35.4911 10.4594 34.8621 11.3968 34.0618 12.176C33.2615 12.9552 32.3076 13.559 31.2609 13.9489C30.2142 14.3388 29.0977 14.5062 27.9827 14.4404C26.8677 14.3746 25.7786 14.0772 24.785 13.567C23.7914 13.0568 22.9151 12.345 22.2119 11.4772C21.5088 10.6093 20.9943 9.60443 20.7012 8.5266C20.4082 7.44878 20.343 6.3217 20.5099 5.2173C19.853 6.48051 18.7784 7.47697 17.4694 8.03702L13.9104 9.31328C11.8677 10.0359 10.1836 11.5205 9.21058 13.4565L3.62726 24.5358C3.54972 24.7038 3.54148 24.8956 3.60433 25.0697C3.66717 25.2437 3.79604 25.386 3.96302 25.4657L11.3997 28.8474C11.5394 28.9111 11.6924 28.9404 11.8457 28.9327C11.9991 28.9251 12.1483 28.8807 12.281 28.8034C12.4136 28.7261 12.5258 28.6181 12.608 28.4884C12.6902 28.3587 12.7401 28.2112 12.7535 28.0583L13.0269 24.9411C13.0554 24.691 13.1804 24.462 13.3753 24.3028C13.5702 24.1435 13.8196 24.0667 14.0703 24.0887C14.321 24.1106 14.5533 24.2296 14.7176 24.4203C14.8818 24.6109 14.9651 24.8582 14.9498 25.1094L12.6341 51.4309C12.6332 51.6179 12.6706 51.803 12.7441 51.9749C12.8175 52.1468 12.9254 52.3018 13.0612 52.4304C13.1969 52.5589 13.3575 52.6583 13.5332 52.7223C13.7088 52.7863 13.8957 52.8136 14.0823 52.8025H42.992C43.1794 52.8136 43.3672 52.7861 43.5435 52.7215C43.7198 52.6569 43.8809 52.5566 44.0167 52.427C44.1526 52.2974 44.2603 52.1412 44.3332 51.9682C44.406 51.7951 44.4424 51.6089 44.4401 51.4211C44.0305 47.0286 42.3347 29.1154 41.9589 25.1147C41.9408 24.8644 42.0215 24.6169 42.1837 24.4254C42.3459 24.2338 42.5766 24.1133 42.8265 24.0898C43.0764 24.0663 43.3256 24.1416 43.5206 24.2995C43.7157 24.4575 43.8412 24.6855 43.8701 24.9348L44.1614 28.02C44.1757 28.1716 44.226 28.3175 44.3079 28.4459C44.3899 28.5742 44.5013 28.6812 44.6328 28.7579C44.7643 28.8347 44.9122 28.879 45.0642 28.8873C45.2162 28.8956 45.3681 28.8675 45.5071 28.8055L53.0347 25.447C53.1991 25.3694 53.3264 25.2303 53.3893 25.0597C53.4521 24.8891 53.4453 24.7015 53.3704 24.5358ZM26.6757 42.9798C26.6681 43.229 26.5638 43.4655 26.3848 43.6391C26.2059 43.8127 25.9663 43.9098 25.717 43.9098C25.4676 43.9098 25.2281 43.8127 25.0491 43.6391C24.8702 43.4655 24.7658 43.229 24.7582 42.9798V33.3121L23.8275 33.8874C23.6115 34.0152 23.3539 34.0531 23.1101 33.993C22.8664 33.9328 22.656 33.7795 22.5242 33.5659C22.3923 33.3522 22.3496 33.0954 22.4051 32.8506C22.4606 32.6058 22.61 32.3925 22.8211 32.2567L25.2089 30.7693C25.355 30.6825 25.5213 30.6356 25.6912 30.6331C25.8611 30.6307 26.0287 30.6728 26.1772 30.7554C26.3257 30.838 26.45 30.958 26.5377 31.1036C26.6253 31.2492 26.6732 31.4152 26.6766 31.5851L26.6757 42.9798ZM33.5727 42.9798C33.5727 43.2342 33.4717 43.4782 33.2918 43.6581C33.1119 43.8379 32.8679 43.939 32.6135 43.939C32.3591 43.939 32.1152 43.8379 31.9353 43.6581C31.7554 43.4782 31.6543 43.2342 31.6543 42.9798V33.3121L30.7245 33.8874C30.5083 34.021 30.2478 34.0632 30.0005 34.0047C29.7531 33.9463 29.5391 33.7919 29.4055 33.5757C29.2719 33.3594 29.2297 33.099 29.2882 32.8516C29.3467 32.6043 29.501 32.3902 29.7172 32.2567L32.105 30.7693C32.2511 30.6825 32.4174 30.6356 32.5873 30.6331C32.7572 30.6307 32.9248 30.6728 33.0733 30.7554C33.2219 30.838 33.3461 30.958 33.4338 31.1036C33.5214 31.2492 33.5693 31.4152 33.5727 31.5851V42.9798Z" fill="#FAFAFA"/>
<path d="M26.6757 42.9798C26.6681 43.229 26.5638 43.4655 26.3848 43.6391C26.2059 43.8127 25.9663 43.9098 25.717 43.9098C25.4676 43.9098 25.2281 43.8127 25.0491 43.6391C24.8702 43.4655 24.7658 43.229 24.7582 42.9798V33.3121L23.8275 33.8874C23.6115 34.0152 23.3539 34.0531 23.1101 33.993C22.8664 33.9328 22.656 33.7795 22.5242 33.5659C22.3923 33.3522 22.3496 33.0954 22.4051 32.8506C22.4606 32.6058 22.61 32.3925 22.8211 32.2567L25.2089 30.7693C25.355 30.6825 25.5213 30.6356 25.6912 30.6331C25.8611 30.6307 26.0287 30.6728 26.1772 30.7554C26.3257 30.838 26.45 30.958 26.5377 31.1036C26.6253 31.2492 26.6732 31.4152 26.6766 31.5851L26.6757 42.9798Z" fill="#FAFAFA"/>
<path d="M33.5727 42.9798C33.5727 43.2342 33.4717 43.4782 33.2918 43.6581C33.1119 43.8379 32.8679 43.939 32.6135 43.939C32.3591 43.939 32.1152 43.8379 31.9353 43.6581C31.7554 43.4782 31.6543 43.2342 31.6543 42.9798V33.3121L30.7245 33.8874C30.5083 34.021 30.2478 34.0632 30.0005 34.0047C29.7531 33.9463 29.5391 33.7919 29.4055 33.5757C29.2719 33.3594 29.2297 33.099 29.2882 32.8516C29.3467 32.6043 29.501 32.3902 29.7172 32.2567L32.105 30.7693C32.2511 30.6825 32.4174 30.6356 32.5873 30.6331C32.7572 30.6307 32.9248 30.6728 33.0733 30.7554C33.2219 30.838 33.3461 30.958 33.4338 31.1036C33.5214 31.2492 33.5693 31.4152 33.5727 31.5851V42.9798Z" fill="#FAFAFA"/>
<path d="M24 32H34" stroke="#191919" stroke-width="1.5" stroke-linecap="round" stroke-linejoin="round"/>
<path d="M29 37V27" stroke="#191919" stroke-width="1.5" stroke-linecap="round" stroke-linejoin="round"/>
</svg>
