<svg width="81" height="81" viewBox="0 0 81 81" fill="none" xmlns="http://www.w3.org/2000/svg">
<rect x="0.74398" y="0.118492" width="79.9807" height="79.9807" rx="5.88541" fill="#828284" stroke="#FAFAFA" stroke-width="0.229171"/>
<mask id="path-2-inside-1_8747_14362" fill="white">
<path d="M24.4631 66.4609H57.0054V80.2112H24.4631V66.4609Z"/>
</mask>
<path d="M24.4631 66.4609V66.2318H24.234V66.4609H24.4631ZM57.0054 66.4609H57.2346V66.2318H57.0054V66.4609ZM24.4631 66.6901H57.0054V66.2318H24.4631V66.6901ZM56.7762 66.4609V80.2112H57.2346V66.4609H56.7762ZM24.6923 80.2112V66.4609H24.234V80.2112H24.6923Z" fill="#FAFAFA" mask="url(#path-2-inside-1_8747_14362)"/>
<mask id="path-4-inside-2_8747_14362" fill="white">
<path d="M13.2339 55.0039H68.2349V80.2127H13.2339V55.0039Z"/>
</mask>
<path d="M13.2339 55.0039V54.7747H13.0047V55.0039H13.2339ZM68.2349 55.0039H68.4641V54.7747H68.2349V55.0039ZM13.2339 55.2331H68.2349V54.7747H13.2339V55.2331ZM68.0057 55.0039V80.2127H68.4641V55.0039H68.0057ZM13.4631 80.2127V55.0039H13.0047V80.2127H13.4631Z" fill="#FAFAFA" mask="url(#path-4-inside-2_8747_14362)"/>
<path d="M54.9429 9.53674e-07C54.9429 1.65523 54.5576 3.29426 53.809 4.8235C53.0604 6.35273 51.9631 7.74223 50.5799 8.91266C49.1967 10.0831 47.5545 11.0115 45.7472 11.645C43.94 12.2784 42.0029 12.6044 40.0467 12.6044C38.0906 12.6044 36.1535 12.2784 34.3463 11.645C32.539 11.0115 30.8968 10.0831 29.5136 8.91266C28.1304 7.74223 27.0331 6.35273 26.2845 4.8235C25.5359 3.29426 25.1506 1.65523 25.1506 0" stroke="#FAFAFA" stroke-width="0.229171"/>
<path d="M30.4215 57.9824C30.4215 57.0796 30.6882 56.1856 31.2065 55.3514C31.7248 54.5173 32.4844 53.7594 33.442 53.121C34.3996 52.4826 35.5365 51.9761 36.7877 51.6306C38.0389 51.2851 39.3799 51.1073 40.7342 51.1073C42.0885 51.1073 43.4295 51.2851 44.6807 51.6306C45.9319 51.9761 47.0687 52.4826 48.0264 53.121C48.984 53.7594 49.7436 54.5173 50.2619 55.3514C50.7801 56.1856 51.0469 57.0796 51.0469 57.9824" stroke="#FAFAFA" stroke-width="0.229171"/>
<rect x="28.1299" y="55.2305" width="26.1255" height="3.89591" fill="#828284"/>
<path d="M0.858398 76.5479C1.97493 76.4958 4.17886 77.1099 4.06235 79.9825" stroke="#FAFAFA" stroke-width="0.229171"/>
<path d="M80.6099 76.5479C79.4933 76.4958 77.2894 77.1099 77.4059 79.9825" stroke="#FAFAFA" stroke-width="0.229171"/>
<path d="M40.8689 28.5372C41.2378 28.5368 41.5915 28.39 41.8523 28.1292C42.1131 27.8684 42.2599 27.5147 42.2603 27.1458V26.6643C41.3402 26.8377 40.3951 26.8309 39.4775 26.6445V27.1458C39.478 27.5147 39.6247 27.8684 39.8855 28.1292C40.1464 28.39 40.5 28.5368 40.8689 28.5372Z" fill="#FAFAFA"/>
<path d="M46.5688 31.2914L45.4279 28.8932C45.2127 28.4443 44.8336 28.0949 44.3686 27.9171L43.4979 27.5853C43.1533 27.4834 42.9019 27.0787 42.6998 26.8027V27.0801C42.708 27.336 42.6629 27.5907 42.5671 27.8281C42.4714 28.0655 42.3273 28.2803 42.1438 28.4589C41.9604 28.6375 41.7418 28.7758 41.502 28.8652C41.2621 28.9545 41.0062 28.9929 40.7507 28.9778C40.4952 28.9628 40.2456 28.8946 40.0179 28.7777C39.7902 28.6607 39.5893 28.4976 39.4282 28.2988C39.2671 28.0999 39.1491 27.8696 39.082 27.6226C39.0148 27.3756 38.9999 27.1173 39.0382 26.8642C38.8876 27.1537 38.6413 27.382 38.3413 27.5104L37.5257 27.8029C37.0576 27.9684 36.6717 28.3087 36.4487 28.7523L35.1691 31.2914C35.1514 31.3299 35.1495 31.3739 35.1639 31.4138C35.1783 31.4536 35.2078 31.4862 35.2461 31.5045L36.9504 32.2795C36.9824 32.2941 37.0174 32.3008 37.0526 32.2991C37.0877 32.2973 37.1219 32.2871 37.1523 32.2694C37.1827 32.2517 37.2084 32.2269 37.2273 32.1972C37.2461 32.1675 37.2575 32.1337 37.2606 32.0987L37.3233 31.3843C37.3298 31.327 37.3584 31.2745 37.4031 31.238C37.4478 31.2015 37.5049 31.1839 37.5624 31.1889C37.6198 31.194 37.6731 31.2212 37.7107 31.2649C37.7484 31.3086 37.7675 31.3653 37.7639 31.4229L37.2333 37.455C37.233 37.4978 37.2416 37.5403 37.2584 37.5797C37.2753 37.6191 37.3 37.6546 37.3311 37.684C37.3622 37.7135 37.399 37.7363 37.4393 37.7509C37.4795 37.7656 37.5224 37.7719 37.5651 37.7693H44.1904C44.2333 37.7719 44.2764 37.7655 44.3168 37.7507C44.3572 37.7359 44.3941 37.713 44.4252 37.6833C44.4564 37.6536 44.4811 37.6178 44.4978 37.5781C44.5144 37.5385 44.5228 37.4958 44.5223 37.4528C44.4284 36.4461 44.0398 32.3409 43.9536 31.4241C43.9495 31.3667 43.968 31.31 44.0051 31.2661C44.0423 31.2222 44.0952 31.1946 44.1525 31.1892C44.2097 31.1838 44.2668 31.2011 44.3115 31.2373C44.3562 31.2735 44.385 31.3257 44.3916 31.3829L44.4584 32.0899C44.4617 32.1246 44.4732 32.1581 44.492 32.1875C44.5108 32.2169 44.5363 32.2414 44.5664 32.259C44.5965 32.2766 44.6304 32.2868 44.6653 32.2886C44.7001 32.2905 44.7349 32.2841 44.7668 32.2699L46.4919 31.5002C46.5296 31.4824 46.5587 31.4506 46.5731 31.4115C46.5875 31.3724 46.586 31.3294 46.5688 31.2914ZM40.4512 35.5182C40.4494 35.5754 40.4255 35.6295 40.3845 35.6693C40.3435 35.7091 40.2886 35.7314 40.2315 35.7314C40.1743 35.7314 40.1194 35.7091 40.0784 35.6693C40.0374 35.6295 40.0135 35.5754 40.0117 35.5182V33.3027L39.7985 33.4345C39.7489 33.4638 39.6899 33.4725 39.634 33.4587C39.5782 33.4449 39.53 33.4098 39.4998 33.3608C39.4695 33.3119 39.4597 33.253 39.4725 33.1969C39.4852 33.1408 39.5194 33.0919 39.5678 33.0608L40.115 32.72C40.1485 32.7001 40.1866 32.6893 40.2256 32.6887C40.2645 32.6882 40.3029 32.6978 40.3369 32.7168C40.371 32.7357 40.3995 32.7632 40.4195 32.7966C40.4396 32.8299 40.4506 32.868 40.4514 32.9069L40.4512 35.5182ZM42.0318 35.5182C42.0318 35.5765 42.0086 35.6325 41.9674 35.6737C41.9262 35.7149 41.8703 35.7381 41.812 35.7381C41.7537 35.7381 41.6977 35.7149 41.6565 35.6737C41.6153 35.6325 41.5921 35.5765 41.5921 35.5182V33.3027L41.379 33.4345C41.3295 33.4651 41.2698 33.4748 41.2131 33.4614C41.1564 33.448 41.1074 33.4126 41.0768 33.3631C41.0462 33.3135 41.0365 33.2538 41.0499 33.1972C41.0633 33.1405 41.0986 33.0914 41.1482 33.0608L41.6954 32.72C41.7289 32.7001 41.767 32.6893 41.8059 32.6887C41.8449 32.6882 41.8833 32.6978 41.9173 32.7168C41.9514 32.7357 41.9798 32.7632 41.9999 32.7966C42.02 32.8299 42.031 32.868 42.0318 32.9069V35.5182Z" fill="#FAFAFA"/>
<path d="M40.4512 35.5182C40.4494 35.5754 40.4255 35.6295 40.3845 35.6693C40.3435 35.7091 40.2886 35.7314 40.2315 35.7314C40.1743 35.7314 40.1194 35.7091 40.0784 35.6693C40.0374 35.6295 40.0135 35.5754 40.0117 35.5182V33.3027L39.7985 33.4345C39.7489 33.4638 39.6899 33.4725 39.634 33.4587C39.5782 33.4449 39.53 33.4098 39.4998 33.3608C39.4695 33.3119 39.4597 33.253 39.4725 33.1969C39.4852 33.1408 39.5194 33.0919 39.5678 33.0608L40.115 32.72C40.1485 32.7001 40.1866 32.6893 40.2256 32.6887C40.2645 32.6882 40.3029 32.6978 40.3369 32.7168C40.371 32.7357 40.3995 32.7632 40.4195 32.7966C40.4396 32.8299 40.4506 32.868 40.4514 32.9069L40.4512 35.5182Z" fill="#FAFAFA"/>
<path d="M42.0318 35.5182C42.0318 35.5765 42.0086 35.6325 41.9674 35.6737C41.9262 35.7149 41.8703 35.7381 41.812 35.7381C41.7537 35.7381 41.6977 35.7149 41.6565 35.6737C41.6153 35.6325 41.5921 35.5765 41.5921 35.5182V33.3027L41.379 33.4345C41.3295 33.4651 41.2698 33.4748 41.2131 33.4614C41.1564 33.448 41.1074 33.4126 41.0768 33.3631C41.0462 33.3135 41.0365 33.2538 41.0499 33.1972C41.0633 33.1405 41.0986 33.0914 41.1482 33.0608L41.6954 32.72C41.7289 32.7001 41.767 32.6893 41.8059 32.6887C41.8449 32.6882 41.8833 32.6978 41.9173 32.7168C41.9514 32.7357 41.9798 32.7632 41.9999 32.7966C42.02 32.8299 42.031 32.868 42.0318 32.9069V35.5182Z" fill="#FAFAFA"/>
<path d="M39.8379 33.002H42.1296" stroke="#191919" stroke-width="0.343756" stroke-linecap="round" stroke-linejoin="round"/>
<path d="M40.9839 34.1491V31.8574" stroke="#191919" stroke-width="0.343756" stroke-linecap="round" stroke-linejoin="round"/>
<path d="M40.8484 49.6427C41.2173 49.6422 41.571 49.4955 41.8318 49.2347C42.0926 48.9738 42.2394 48.6202 42.2398 48.2513V47.7698C41.3197 47.9431 40.3746 47.9364 39.457 47.75V48.2513C39.4575 48.6202 39.6042 48.9738 39.865 49.2347C40.1259 49.4955 40.4795 49.6422 40.8484 49.6427Z" fill="#FAFAFA"/>
<path d="M46.5483 52.3969L45.4074 49.9987C45.1922 49.5497 44.8131 49.2004 44.3481 49.0226L43.4774 48.6907C43.1328 48.5889 42.8814 48.1842 42.6793 47.9082V48.1856C42.6875 48.4414 42.6424 48.6962 42.5466 48.9336C42.4509 49.171 42.3067 49.3858 42.1233 49.5644C41.9399 49.7429 41.7213 49.8813 41.4815 49.9707C41.2416 50.06 40.9857 50.0984 40.7302 50.0833C40.4747 50.0682 40.2251 50.0001 39.9974 49.8831C39.7697 49.7662 39.5688 49.6031 39.4077 49.4042C39.2466 49.2053 39.1286 48.975 39.0615 48.728C38.9943 48.481 38.9794 48.2227 39.0177 47.9696C38.8671 48.2591 38.6208 48.4875 38.3208 48.6158L37.5052 48.9083C37.0371 49.0739 36.6512 49.4141 36.4282 49.8578L35.1486 52.3969C35.1309 52.4354 35.129 52.4793 35.1434 52.5192C35.1578 52.5591 35.1873 52.5917 35.2256 52.61L36.9299 53.385C36.9619 53.3996 36.9969 53.4063 37.0321 53.4045C37.0672 53.4028 37.1014 53.3926 37.1318 53.3749C37.1622 53.3572 37.1879 53.3324 37.2068 53.3027C37.2256 53.273 37.237 53.2392 37.2401 53.2041L37.3028 52.4898C37.3093 52.4325 37.3379 52.38 37.3826 52.3435C37.4273 52.307 37.4844 52.2894 37.5419 52.2944C37.5993 52.2994 37.6526 52.3267 37.6902 52.3704C37.7278 52.4141 37.7469 52.4708 37.7434 52.5283L37.2127 58.5605C37.2125 58.6033 37.2211 58.6457 37.2379 58.6851C37.2548 58.7245 37.2795 58.76 37.3106 58.7895C37.3417 58.819 37.3785 58.8417 37.4188 58.8564C37.459 58.8711 37.5019 58.8773 37.5446 58.8748H44.1699C44.2128 58.8773 44.2559 58.871 44.2963 58.8562C44.3367 58.8414 44.3736 58.8184 44.4047 58.7887C44.4359 58.759 44.4606 58.7232 44.4772 58.6836C44.4939 58.6439 44.5023 58.6012 44.5018 58.5582C44.4079 57.5516 44.0193 53.4464 43.9331 52.5296C43.929 52.4722 43.9475 52.4155 43.9846 52.3716C44.0218 52.3277 44.0747 52.3001 44.132 52.2947C44.1892 52.2893 44.2463 52.3065 44.291 52.3427C44.3357 52.3789 44.3645 52.4312 44.3711 52.4883L44.4379 53.1953C44.4412 53.2301 44.4527 53.2635 44.4715 53.293C44.4902 53.3224 44.5158 53.3469 44.5459 53.3645C44.576 53.3821 44.6099 53.3922 44.6448 53.3941C44.6796 53.396 44.7144 53.3896 44.7463 53.3754L46.4714 52.6057C46.5091 52.5879 46.5382 52.556 46.5526 52.5169C46.567 52.4778 46.5655 52.4349 46.5483 52.3969ZM40.4307 56.6237C40.4289 56.6808 40.405 56.735 40.364 56.7748C40.323 56.8146 40.2681 56.8368 40.211 56.8368C40.1538 56.8368 40.0989 56.8146 40.0579 56.7748C40.0169 56.735 39.993 56.6808 39.9912 56.6237V54.4081L39.7779 54.54C39.7284 54.5693 39.6694 54.578 39.6135 54.5642C39.5577 54.5504 39.5095 54.5153 39.4793 54.4663C39.449 54.4173 39.4392 54.3585 39.452 54.3024C39.4647 54.2463 39.4989 54.1974 39.5473 54.1663L40.0945 53.8254C40.128 53.8055 40.1661 53.7948 40.205 53.7942C40.244 53.7937 40.2824 53.8033 40.3164 53.8222C40.3505 53.8412 40.3789 53.8687 40.399 53.902C40.4191 53.9354 40.4301 53.9734 40.4309 54.0124L40.4307 56.6237ZM42.0113 56.6237C42.0113 56.682 41.9881 56.7379 41.9469 56.7791C41.9057 56.8204 41.8497 56.8435 41.7914 56.8435C41.7331 56.8435 41.6772 56.8204 41.636 56.7791C41.5948 56.7379 41.5716 56.682 41.5716 56.6237V54.4081L41.3585 54.54C41.309 54.5706 41.2493 54.5803 41.1926 54.5669C41.1359 54.5535 41.0869 54.5181 41.0563 54.4686C41.0256 54.419 41.016 54.3593 41.0294 54.3026C41.0428 54.2459 41.0781 54.1969 41.1277 54.1663L41.6749 53.8254C41.7084 53.8055 41.7465 53.7948 41.7854 53.7942C41.8244 53.7937 41.8628 53.8033 41.8968 53.8222C41.9309 53.8412 41.9593 53.8687 41.9794 53.902C41.9995 53.9354 42.0105 53.9734 42.0113 54.0124V56.6237Z" fill="#FAFAFA"/>
<path d="M40.4307 56.6237C40.4289 56.6808 40.405 56.735 40.364 56.7748C40.323 56.8146 40.2681 56.8368 40.211 56.8368C40.1538 56.8368 40.0989 56.8146 40.0579 56.7748C40.0169 56.735 39.993 56.6808 39.9912 56.6237V54.4081L39.7779 54.54C39.7284 54.5693 39.6694 54.578 39.6135 54.5642C39.5577 54.5504 39.5095 54.5153 39.4793 54.4663C39.449 54.4173 39.4392 54.3585 39.452 54.3024C39.4647 54.2463 39.4989 54.1974 39.5473 54.1663L40.0945 53.8254C40.128 53.8055 40.1661 53.7948 40.205 53.7942C40.244 53.7937 40.2824 53.8033 40.3164 53.8222C40.3505 53.8412 40.3789 53.8687 40.399 53.902C40.4191 53.9354 40.4301 53.9734 40.4309 54.0124L40.4307 56.6237Z" fill="#FAFAFA"/>
<path d="M42.0113 56.6237C42.0113 56.682 41.9881 56.7379 41.9469 56.7791C41.9057 56.8204 41.8497 56.8435 41.7914 56.8435C41.7331 56.8435 41.6772 56.8204 41.636 56.7791C41.5948 56.7379 41.5716 56.682 41.5716 56.6237V54.4081L41.3585 54.54C41.309 54.5706 41.2493 54.5803 41.1926 54.5669C41.1359 54.5535 41.0869 54.5181 41.0563 54.4686C41.0256 54.419 41.016 54.3593 41.0294 54.3026C41.0428 54.2459 41.0781 54.1969 41.1277 54.1663L41.6749 53.8254C41.7084 53.8055 41.7465 53.7948 41.7854 53.7942C41.8244 53.7937 41.8628 53.8033 41.8968 53.8222C41.9309 53.8412 41.9593 53.8687 41.9794 53.902C41.9995 53.9354 42.0105 53.9734 42.0113 54.0124V56.6237Z" fill="#FAFAFA"/>
<path d="M39.8174 54.1055H42.1091" stroke="#191919" stroke-width="0.343756" stroke-linecap="round" stroke-linejoin="round"/>
<path d="M40.9634 55.2526V52.9609" stroke="#191919" stroke-width="0.343756" stroke-linecap="round" stroke-linejoin="round"/>
<path d="M15.8484 6.99618C16.2173 6.99575 16.571 6.84902 16.8318 6.58818C17.0926 6.32734 17.2394 5.97368 17.2398 5.6048V5.12331C16.3197 5.29665 15.3746 5.28993 14.457 5.10352V5.6048C14.4575 5.97368 14.6042 6.32734 14.865 6.58818C15.1259 6.84902 15.4795 6.99575 15.8484 6.99618Z" fill="#FAFAFA"/>
<path d="M21.5483 9.7504L20.4074 7.35217C20.1922 6.90324 19.8131 6.55392 19.3481 6.37613L18.4774 6.04426C18.1328 5.94241 17.8814 5.53767 17.6793 5.26172V5.5391C17.6875 5.79494 17.6424 6.04969 17.5466 6.28709C17.4509 6.52449 17.3067 6.73932 17.1233 6.91789C16.9399 7.09646 16.7213 7.23483 16.4815 7.32418C16.2416 7.41353 15.9857 7.45189 15.7302 7.43682C15.4747 7.42175 15.2251 7.35358 14.9974 7.23666C14.7697 7.11973 14.5688 6.95662 14.4077 6.75774C14.2466 6.55885 14.1286 6.32856 14.0615 6.08155C13.9943 5.83455 13.9794 5.57625 14.0177 5.32315C13.8671 5.61265 13.6208 5.84101 13.3208 5.96935L12.5052 6.26184C12.0371 6.42743 11.6512 6.76766 11.4282 7.21133L10.1486 9.7504C10.1309 9.7889 10.129 9.83286 10.1434 9.87274C10.1578 9.91262 10.1873 9.94522 10.2256 9.96349L11.9299 10.7385C11.9619 10.7531 11.9969 10.7598 12.0321 10.758C12.0672 10.7563 12.1014 10.7461 12.1318 10.7284C12.1622 10.7107 12.1879 10.6859 12.2068 10.6562C12.2256 10.6265 12.237 10.5927 12.2401 10.5576L12.3028 9.84327C12.3093 9.78597 12.3379 9.73348 12.3826 9.69699C12.4273 9.6605 12.4844 9.64289 12.5419 9.64792C12.5993 9.65295 12.6526 9.68022 12.6902 9.72392C12.7278 9.76761 12.7469 9.82428 12.7434 9.88185L12.2127 15.914C12.2125 15.9568 12.2211 15.9992 12.2379 16.0386C12.2548 16.078 12.2795 16.1136 12.3106 16.143C12.3417 16.1725 12.3785 16.1952 12.4188 16.2099C12.459 16.2246 12.5019 16.2308 12.5446 16.2283H19.1699C19.2128 16.2309 19.2559 16.2245 19.2963 16.2097C19.3367 16.1949 19.3736 16.172 19.4047 16.1423C19.4359 16.1126 19.4606 16.0768 19.4772 16.0371C19.4939 15.9974 19.5023 15.9548 19.5018 15.9117C19.4079 14.9051 19.0193 10.7999 18.9331 9.88307C18.929 9.8257 18.9475 9.76899 18.9846 9.72508C19.0218 9.68118 19.0747 9.65357 19.132 9.64818C19.1892 9.64279 19.2463 9.66004 19.291 9.69624C19.3357 9.73244 19.3645 9.78471 19.3711 9.84184L19.4379 10.5489C19.4412 10.5836 19.4527 10.6171 19.4715 10.6465C19.4902 10.6759 19.5158 10.7004 19.5459 10.718C19.576 10.7356 19.6099 10.7457 19.6448 10.7476C19.6796 10.7495 19.7144 10.7431 19.7463 10.7289L21.4714 9.9592C21.5091 9.94143 21.5382 9.90955 21.5526 9.87045C21.567 9.83136 21.5655 9.78837 21.5483 9.7504ZM15.4307 13.9772C15.4289 14.0343 15.405 14.0885 15.364 14.1283C15.323 14.1681 15.2681 14.1903 15.211 14.1903C15.1538 14.1903 15.0989 14.1681 15.0579 14.1283C15.0169 14.0885 14.993 14.0343 14.9912 13.9772V11.7617L14.7779 11.8935C14.7284 11.9228 14.6694 11.9315 14.6135 11.9177C14.5577 11.9039 14.5095 11.8688 14.4793 11.8198C14.449 11.7709 14.4392 11.712 14.452 11.6559C14.4647 11.5998 14.4989 11.5509 14.5473 11.5198L15.0945 11.1789C15.128 11.159 15.1661 11.1483 15.205 11.1477C15.244 11.1472 15.2824 11.1568 15.3164 11.1757C15.3505 11.1947 15.3789 11.2222 15.399 11.2555C15.4191 11.2889 15.4301 11.327 15.4309 11.3659L15.4307 13.9772ZM17.0113 13.9772C17.0113 14.0355 16.9881 14.0914 16.9469 14.1327C16.9057 14.1739 16.8497 14.197 16.7914 14.197C16.7331 14.197 16.6772 14.1739 16.636 14.1327C16.5948 14.0914 16.5716 14.0355 16.5716 13.9772V11.7617L16.3585 11.8935C16.309 11.9241 16.2493 11.9338 16.1926 11.9204C16.1359 11.907 16.0869 11.8716 16.0563 11.8221C16.0256 11.7725 16.016 11.7128 16.0294 11.6561C16.0428 11.5995 16.0781 11.5504 16.1277 11.5198L16.6749 11.1789C16.7084 11.159 16.7465 11.1483 16.7854 11.1477C16.8244 11.1472 16.8628 11.1568 16.8968 11.1757C16.9309 11.1947 16.9593 11.2222 16.9794 11.2555C16.9995 11.2889 17.0105 11.327 17.0113 11.3659V13.9772Z" fill="#FAFAFA"/>
<path d="M15.4307 13.9772C15.4289 14.0343 15.405 14.0885 15.364 14.1283C15.323 14.1681 15.2681 14.1903 15.211 14.1903C15.1538 14.1903 15.0989 14.1681 15.0579 14.1283C15.0169 14.0885 14.993 14.0343 14.9912 13.9772V11.7617L14.7779 11.8935C14.7284 11.9228 14.6694 11.9315 14.6135 11.9177C14.5577 11.9039 14.5095 11.8688 14.4793 11.8198C14.449 11.7709 14.4392 11.712 14.452 11.6559C14.4647 11.5998 14.4989 11.5509 14.5473 11.5198L15.0945 11.1789C15.128 11.159 15.1661 11.1483 15.205 11.1477C15.244 11.1472 15.2824 11.1568 15.3164 11.1757C15.3505 11.1947 15.3789 11.2222 15.399 11.2555C15.4191 11.2889 15.4301 11.327 15.4309 11.3659L15.4307 13.9772Z" fill="#FAFAFA"/>
<path d="M17.0113 13.9772C17.0113 14.0355 16.9881 14.0914 16.9469 14.1327C16.9057 14.1739 16.8497 14.197 16.7914 14.197C16.7331 14.197 16.6772 14.1739 16.636 14.1327C16.5948 14.0914 16.5716 14.0355 16.5716 13.9772V11.7617L16.3585 11.8935C16.309 11.9241 16.2493 11.9338 16.1926 11.9204C16.1359 11.907 16.0869 11.8716 16.0563 11.8221C16.0256 11.7725 16.016 11.7128 16.0294 11.6561C16.0428 11.5995 16.0781 11.5504 16.1277 11.5198L16.6749 11.1789C16.7084 11.159 16.7465 11.1483 16.7854 11.1477C16.8244 11.1472 16.8628 11.1568 16.8968 11.1757C16.9309 11.1947 16.9593 11.2222 16.9794 11.2555C16.9995 11.2889 17.0105 11.327 17.0113 11.3659V13.9772Z" fill="#FAFAFA"/>
<path d="M14.8174 11.4609H17.1091" stroke="#191919" stroke-width="0.343756" stroke-linecap="round" stroke-linejoin="round"/>
<path d="M15.9634 12.6081V10.3164" stroke="#191919" stroke-width="0.343756" stroke-linecap="round" stroke-linejoin="round"/>
<path d="M65.8484 6.99618C66.2173 6.99575 66.571 6.84902 66.8318 6.58818C67.0926 6.32734 67.2394 5.97368 67.2398 5.6048V5.12331C66.3197 5.29665 65.3746 5.28993 64.457 5.10352V5.6048C64.4575 5.97368 64.6042 6.32734 64.865 6.58818C65.1259 6.84902 65.4795 6.99575 65.8484 6.99618Z" fill="#FAFAFA"/>
<path d="M71.5483 9.7504L70.4074 7.35217C70.1922 6.90324 69.8131 6.55392 69.3481 6.37613L68.4774 6.04426C68.1328 5.94241 67.8814 5.53767 67.6793 5.26172V5.5391C67.6875 5.79494 67.6424 6.04969 67.5466 6.28709C67.4509 6.52449 67.3067 6.73932 67.1233 6.91789C66.9399 7.09646 66.7213 7.23483 66.4815 7.32418C66.2416 7.41353 65.9857 7.45189 65.7302 7.43682C65.4747 7.42175 65.2251 7.35358 64.9974 7.23666C64.7697 7.11973 64.5688 6.95662 64.4077 6.75774C64.2466 6.55885 64.1286 6.32856 64.0615 6.08155C63.9943 5.83455 63.9794 5.57625 64.0177 5.32315C63.8671 5.61265 63.6208 5.84101 63.3208 5.96935L62.5052 6.26184C62.0371 6.42743 61.6512 6.76766 61.4282 7.21133L60.1486 9.7504C60.1309 9.7889 60.129 9.83286 60.1434 9.87274C60.1578 9.91262 60.1873 9.94522 60.2256 9.96349L61.9299 10.7385C61.9619 10.7531 61.9969 10.7598 62.0321 10.758C62.0672 10.7563 62.1014 10.7461 62.1318 10.7284C62.1622 10.7107 62.1879 10.6859 62.2068 10.6562C62.2256 10.6265 62.237 10.5927 62.2401 10.5576L62.3028 9.84327C62.3093 9.78597 62.3379 9.73348 62.3826 9.69699C62.4273 9.6605 62.4844 9.64289 62.5419 9.64792C62.5993 9.65295 62.6526 9.68022 62.6902 9.72392C62.7278 9.76761 62.7469 9.82428 62.7434 9.88185L62.2127 15.914C62.2125 15.9568 62.2211 15.9992 62.2379 16.0386C62.2548 16.078 62.2795 16.1136 62.3106 16.143C62.3417 16.1725 62.3785 16.1952 62.4188 16.2099C62.459 16.2246 62.5019 16.2308 62.5446 16.2283H69.1699C69.2128 16.2309 69.2559 16.2245 69.2963 16.2097C69.3367 16.1949 69.3736 16.172 69.4047 16.1423C69.4359 16.1126 69.4606 16.0768 69.4772 16.0371C69.4939 15.9974 69.5023 15.9548 69.5018 15.9117C69.4079 14.9051 69.0193 10.7999 68.9331 9.88307C68.929 9.8257 68.9475 9.76899 68.9846 9.72508C69.0218 9.68118 69.0747 9.65357 69.132 9.64818C69.1892 9.64279 69.2463 9.66004 69.291 9.69624C69.3357 9.73244 69.3645 9.78471 69.3711 9.84184L69.4379 10.5489C69.4412 10.5836 69.4527 10.6171 69.4715 10.6465C69.4902 10.6759 69.5158 10.7004 69.5459 10.718C69.576 10.7356 69.6099 10.7457 69.6448 10.7476C69.6796 10.7495 69.7144 10.7431 69.7463 10.7289L71.4714 9.9592C71.5091 9.94143 71.5382 9.90955 71.5526 9.87045C71.567 9.83136 71.5655 9.78837 71.5483 9.7504ZM65.4307 13.9772C65.4289 14.0343 65.405 14.0885 65.364 14.1283C65.323 14.1681 65.2681 14.1903 65.211 14.1903C65.1538 14.1903 65.0989 14.1681 65.0579 14.1283C65.0169 14.0885 64.993 14.0343 64.9912 13.9772V11.7617L64.7779 11.8935C64.7284 11.9228 64.6694 11.9315 64.6135 11.9177C64.5577 11.9039 64.5095 11.8688 64.4793 11.8198C64.449 11.7709 64.4392 11.712 64.452 11.6559C64.4647 11.5998 64.4989 11.5509 64.5473 11.5198L65.0945 11.1789C65.128 11.159 65.1661 11.1483 65.205 11.1477C65.244 11.1472 65.2824 11.1568 65.3164 11.1757C65.3505 11.1947 65.3789 11.2222 65.399 11.2555C65.4191 11.2889 65.4301 11.327 65.4309 11.3659L65.4307 13.9772ZM67.0113 13.9772C67.0113 14.0355 66.9881 14.0914 66.9469 14.1327C66.9057 14.1739 66.8497 14.197 66.7914 14.197C66.7331 14.197 66.6772 14.1739 66.636 14.1327C66.5948 14.0914 66.5716 14.0355 66.5716 13.9772V11.7617L66.3585 11.8935C66.309 11.9241 66.2493 11.9338 66.1926 11.9204C66.1359 11.907 66.0869 11.8716 66.0563 11.8221C66.0256 11.7725 66.016 11.7128 66.0294 11.6561C66.0428 11.5995 66.0781 11.5504 66.1277 11.5198L66.6749 11.1789C66.7084 11.159 66.7465 11.1483 66.7854 11.1477C66.8244 11.1472 66.8628 11.1568 66.8968 11.1757C66.9309 11.1947 66.9593 11.2222 66.9794 11.2555C66.9995 11.2889 67.0105 11.327 67.0113 11.3659V13.9772Z" fill="#FAFAFA"/>
<path d="M65.4307 13.9772C65.4289 14.0343 65.405 14.0885 65.364 14.1283C65.323 14.1681 65.2681 14.1903 65.211 14.1903C65.1538 14.1903 65.0989 14.1681 65.0579 14.1283C65.0169 14.0885 64.993 14.0343 64.9912 13.9772V11.7617L64.7779 11.8935C64.7284 11.9228 64.6694 11.9315 64.6135 11.9177C64.5577 11.9039 64.5095 11.8688 64.4793 11.8198C64.449 11.7709 64.4392 11.712 64.452 11.6559C64.4647 11.5998 64.4989 11.5509 64.5473 11.5198L65.0945 11.1789C65.128 11.159 65.1661 11.1483 65.205 11.1477C65.244 11.1472 65.2824 11.1568 65.3164 11.1757C65.3505 11.1947 65.3789 11.2222 65.399 11.2555C65.4191 11.2889 65.4301 11.327 65.4309 11.3659L65.4307 13.9772Z" fill="#FAFAFA"/>
<path d="M67.0113 13.9772C67.0113 14.0355 66.9881 14.0914 66.9469 14.1327C66.9057 14.1739 66.8497 14.197 66.7914 14.197C66.7331 14.197 66.6772 14.1739 66.636 14.1327C66.5948 14.0914 66.5716 14.0355 66.5716 13.9772V11.7617L66.3585 11.8935C66.309 11.9241 66.2493 11.9338 66.1926 11.9204C66.1359 11.907 66.0869 11.8716 66.0563 11.8221C66.0256 11.7725 66.016 11.7128 66.0294 11.6561C66.0428 11.5995 66.0781 11.5504 66.1277 11.5198L66.6749 11.1789C66.7084 11.159 66.7465 11.1483 66.7854 11.1477C66.8244 11.1472 66.8628 11.1568 66.8968 11.1757C66.9309 11.1947 66.9593 11.2222 66.9794 11.2555C66.9995 11.2889 67.0105 11.327 67.0113 11.3659V13.9772Z" fill="#FAFAFA"/>
<path d="M64.8174 11.4609H67.1091" stroke="#191919" stroke-width="0.343756" stroke-linecap="round" stroke-linejoin="round"/>
<path d="M65.9634 12.6081V10.3164" stroke="#191919" stroke-width="0.343756" stroke-linecap="round" stroke-linejoin="round"/>
</svg>
