<svg width="81" height="81" viewBox="0 0 81 81" fill="none" xmlns="http://www.w3.org/2000/svg">
<rect x="0.74398" y="0.118492" width="79.9807" height="79.9807" rx="5.88541" fill="#828284" stroke="#FAFAFA" stroke-width="0.229171"/>
<mask id="path-2-inside-1_8749_15916" fill="white">
<path d="M24.4631 66.4609H57.0054V80.2112H24.4631V66.4609Z"/>
</mask>
<path d="M24.4631 66.4609V66.2318H24.234V66.4609H24.4631ZM57.0054 66.4609H57.2346V66.2318H57.0054V66.4609ZM24.4631 66.6901H57.0054V66.2318H24.4631V66.6901ZM56.7762 66.4609V80.2112H57.2346V66.4609H56.7762ZM24.6923 80.2112V66.4609H24.234V80.2112H24.6923Z" fill="#FAFAFA" mask="url(#path-2-inside-1_8749_15916)"/>
<mask id="path-4-inside-2_8749_15916" fill="white">
<path d="M13.2339 55.0039H68.2349V80.2127H13.2339V55.0039Z"/>
</mask>
<path d="M13.2339 55.0039V54.7747H13.0047V55.0039H13.2339ZM68.2349 55.0039H68.4641V54.7747H68.2349V55.0039ZM13.2339 55.2331H68.2349V54.7747H13.2339V55.2331ZM68.0057 55.0039V80.2127H68.4641V55.0039H68.0057ZM13.4631 80.2127V55.0039H13.0047V80.2127H13.4631Z" fill="#FAFAFA" mask="url(#path-4-inside-2_8749_15916)"/>
<path d="M54.9429 9.53674e-07C54.9429 1.65523 54.5576 3.29426 53.809 4.8235C53.0604 6.35273 51.9631 7.74223 50.5799 8.91266C49.1967 10.0831 47.5545 11.0115 45.7472 11.645C43.94 12.2784 42.0029 12.6044 40.0467 12.6044C38.0906 12.6044 36.1535 12.2784 34.3463 11.645C32.539 11.0115 30.8968 10.0831 29.5136 8.91266C28.1304 7.74223 27.0331 6.35273 26.2845 4.8235C25.5359 3.29426 25.1506 1.65523 25.1506 0" stroke="#FAFAFA" stroke-width="0.229171"/>
<path d="M30.4215 57.9824C30.4215 57.0796 30.6882 56.1856 31.2065 55.3514C31.7248 54.5173 32.4844 53.7594 33.442 53.121C34.3996 52.4826 35.5365 51.9761 36.7877 51.6306C38.0389 51.2851 39.3799 51.1073 40.7342 51.1073C42.0885 51.1073 43.4295 51.2851 44.6807 51.6306C45.9319 51.9761 47.0687 52.4826 48.0264 53.121C48.984 53.7594 49.7436 54.5173 50.2619 55.3514C50.7801 56.1856 51.0469 57.0796 51.0469 57.9824" stroke="#FAFAFA" stroke-width="0.229171"/>
<rect x="28.1299" y="55.2305" width="26.1255" height="3.89591" fill="#828284"/>
<path d="M0.858398 76.5479C1.97493 76.4958 4.17886 77.1099 4.06235 79.9825" stroke="#FAFAFA" stroke-width="0.229171"/>
<path d="M80.6099 76.5479C79.4933 76.4958 77.2894 77.1099 77.4059 79.9825" stroke="#FAFAFA" stroke-width="0.229171"/>
<path d="M40.8484 65.4356C41.2173 65.4352 41.571 65.2885 41.8318 65.0276C42.0926 64.7668 42.2394 64.4131 42.2398 64.0443V63.5628C41.3197 63.7361 40.3746 63.7294 39.457 63.543V64.0443C39.4575 64.4131 39.6042 64.7668 39.865 65.0276C40.1259 65.2885 40.4795 65.4352 40.8484 65.4356Z" fill="#FAFAFA"/>
<path d="M46.5483 68.1899L45.4074 65.7916C45.1922 65.3427 44.8131 64.9934 44.3481 64.8156L43.4774 64.4837C43.1328 64.3819 42.8814 63.9771 42.6793 63.7012V63.9786C42.6875 64.2344 42.6424 64.4891 42.5466 64.7265C42.4509 64.9639 42.3067 65.1788 42.1233 65.3573C41.9399 65.5359 41.7213 65.6743 41.4815 65.7636C41.2416 65.853 40.9857 65.8913 40.7302 65.8763C40.4747 65.8612 40.2251 65.793 39.9974 65.6761C39.7697 65.5592 39.5688 65.3961 39.4077 65.1972C39.2466 64.9983 39.1286 64.768 39.0615 64.521C38.9943 64.274 38.9794 64.0157 39.0177 63.7626C38.8671 64.0521 38.6208 64.2805 38.3208 64.4088L37.5052 64.7013C37.0371 64.8669 36.6512 65.2071 36.4282 65.6508L35.1486 68.1899C35.1309 68.2284 35.129 68.2723 35.1434 68.3122C35.1578 68.3521 35.1873 68.3847 35.2256 68.4029L36.9299 69.1779C36.9619 69.1925 36.9969 69.1992 37.0321 69.1975C37.0672 69.1957 37.1014 69.1856 37.1318 69.1679C37.1622 69.1501 37.1879 69.1254 37.2068 69.0957C37.2256 69.066 37.237 69.0321 37.2401 68.9971L37.3028 68.2827C37.3093 68.2254 37.3379 68.1729 37.3826 68.1364C37.4273 68.1 37.4844 68.0823 37.5419 68.0874C37.5993 68.0924 37.6526 68.1197 37.6902 68.1634C37.7278 68.2071 37.7469 68.2637 37.7434 68.3213L37.2127 74.3534C37.2125 74.3963 37.2211 74.4387 37.2379 74.4781C37.2548 74.5175 37.2795 74.553 37.3106 74.5825C37.3417 74.6119 37.3785 74.6347 37.4188 74.6494C37.459 74.664 37.5019 74.6703 37.5446 74.6678H44.1699C44.2128 74.6703 44.2559 74.664 44.2963 74.6492C44.3367 74.6344 44.3736 74.6114 44.4047 74.5817C44.4359 74.552 44.4606 74.5162 44.4772 74.4766C44.4939 74.4369 44.5023 74.3942 44.5018 74.3512C44.4079 73.3445 44.0193 69.2394 43.9331 68.3225C43.929 68.2652 43.9475 68.2084 43.9846 68.1645C44.0218 68.1206 44.0747 68.093 44.132 68.0876C44.1892 68.0822 44.2463 68.0995 44.291 68.1357C44.3357 68.1719 44.3645 68.2242 44.3711 68.2813L44.4379 68.9883C44.4412 69.0231 44.4527 69.0565 44.4715 69.0859C44.4902 69.1153 44.5158 69.1398 44.5459 69.1574C44.576 69.175 44.6099 69.1852 44.6448 69.1871C44.6796 69.189 44.7144 69.1826 44.7463 69.1683L46.4714 68.3987C46.5091 68.3809 46.5382 68.349 46.5526 68.3099C46.567 68.2708 46.5655 68.2278 46.5483 68.1899ZM40.4307 72.4167C40.4289 72.4738 40.405 72.528 40.364 72.5678C40.323 72.6076 40.2681 72.6298 40.211 72.6298C40.1538 72.6298 40.0989 72.6076 40.0579 72.5678C40.0169 72.528 39.993 72.4738 39.9912 72.4167V70.2011L39.7779 70.333C39.7284 70.3623 39.6694 70.3709 39.6135 70.3572C39.5577 70.3434 39.5095 70.3082 39.4793 70.2593C39.449 70.2103 39.4392 70.1515 39.452 70.0954C39.4647 70.0392 39.4989 69.9904 39.5473 69.9592L40.0945 69.6184C40.128 69.5985 40.1661 69.5877 40.205 69.5872C40.244 69.5866 40.2824 69.5963 40.3164 69.6152C40.3505 69.6341 40.3789 69.6616 40.399 69.695C40.4191 69.7284 40.4301 69.7664 40.4309 69.8054L40.4307 72.4167ZM42.0113 72.4167C42.0113 72.475 41.9881 72.5309 41.9469 72.5721C41.9057 72.6133 41.8497 72.6365 41.7914 72.6365C41.7331 72.6365 41.6772 72.6133 41.636 72.5721C41.5948 72.5309 41.5716 72.475 41.5716 72.4167V70.2011L41.3585 70.333C41.309 70.3636 41.2493 70.3732 41.1926 70.3598C41.1359 70.3465 41.0869 70.3111 41.0563 70.2615C41.0256 70.212 41.016 70.1523 41.0294 70.0956C41.0428 70.0389 41.0781 69.9899 41.1277 69.9592L41.6749 69.6184C41.7084 69.5985 41.7465 69.5877 41.7854 69.5872C41.8244 69.5866 41.8628 69.5963 41.8968 69.6152C41.9309 69.6341 41.9593 69.6616 41.9794 69.695C41.9995 69.7284 42.0105 69.7664 42.0113 69.8054V72.4167Z" fill="#FAFAFA"/>
<path d="M40.4307 72.4167C40.4289 72.4738 40.405 72.528 40.364 72.5678C40.323 72.6076 40.2681 72.6298 40.211 72.6298C40.1538 72.6298 40.0989 72.6076 40.0579 72.5678C40.0169 72.528 39.993 72.4738 39.9912 72.4167V70.2011L39.7779 70.333C39.7284 70.3623 39.6694 70.3709 39.6135 70.3572C39.5577 70.3434 39.5095 70.3082 39.4793 70.2593C39.449 70.2103 39.4392 70.1515 39.452 70.0954C39.4647 70.0392 39.4989 69.9904 39.5473 69.9592L40.0945 69.6184C40.128 69.5985 40.1661 69.5877 40.205 69.5872C40.244 69.5866 40.2824 69.5963 40.3164 69.6152C40.3505 69.6341 40.3789 69.6616 40.399 69.695C40.4191 69.7284 40.4301 69.7664 40.4309 69.8054L40.4307 72.4167Z" fill="#FAFAFA"/>
<path d="M42.0113 72.4167C42.0113 72.475 41.9881 72.5309 41.9469 72.5721C41.9057 72.6133 41.8497 72.6365 41.7914 72.6365C41.7331 72.6365 41.6772 72.6133 41.636 72.5721C41.5948 72.5309 41.5716 72.475 41.5716 72.4167V70.2011L41.3585 70.333C41.309 70.3636 41.2493 70.3732 41.1926 70.3598C41.1359 70.3465 41.0869 70.3111 41.0563 70.2615C41.0256 70.212 41.016 70.1523 41.0294 70.0956C41.0428 70.0389 41.0781 69.9899 41.1277 69.9592L41.6749 69.6184C41.7084 69.5985 41.7465 69.5877 41.7854 69.5872C41.8244 69.5866 41.8628 69.5963 41.8968 69.6152C41.9309 69.6341 41.9593 69.6616 41.9794 69.695C41.9995 69.7284 42.0105 69.7664 42.0113 69.8054V72.4167Z" fill="#FAFAFA"/>
<path d="M39.8174 69.8965H42.1091" stroke="#191919" stroke-width="0.343756" stroke-linecap="round" stroke-linejoin="round"/>
<path d="M40.9634 71.0437V68.752" stroke="#191919" stroke-width="0.343756" stroke-linecap="round" stroke-linejoin="round"/>
<path d="M40.8487 29.4356C41.2175 29.4352 41.5712 29.2885 41.832 29.0276C42.0929 28.7668 42.2396 28.4131 42.24 28.0443V27.5628C41.3199 27.7361 40.3749 27.7294 39.4573 27.543V28.0443C39.4577 28.4131 39.6044 28.7668 39.8653 29.0276C40.1261 29.2885 40.4798 29.4352 40.8487 29.4356Z" fill="#FAFAFA"/>
<path d="M46.5486 32.1899L45.4076 29.7916C45.1924 29.3427 44.8133 28.9934 44.3483 28.8156L43.4776 28.4837C43.1331 28.3819 42.8816 27.9771 42.6795 27.7012V27.9786C42.6878 28.2344 42.6426 28.4891 42.5469 28.7265C42.4511 28.9639 42.307 29.1788 42.1236 29.3573C41.9402 29.5359 41.7216 29.6743 41.4817 29.7636C41.2418 29.853 40.986 29.8913 40.7304 29.8763C40.4749 29.8612 40.2253 29.793 39.9976 29.6761C39.7699 29.5592 39.5691 29.3961 39.4079 29.1972C39.2468 28.9983 39.1289 28.768 39.0617 28.521C38.9946 28.274 38.9796 28.0157 39.0179 27.7626C38.8673 28.0521 38.6211 28.2805 38.3211 28.4088L37.5055 28.7013C37.0373 28.8669 36.6514 29.2071 36.4284 29.6508L35.1489 32.1899C35.1311 32.2284 35.1292 32.2723 35.1436 32.3122C35.158 32.3521 35.1876 32.3847 35.2258 32.4029L36.9301 33.1779C36.9621 33.1925 36.9972 33.1992 37.0323 33.1975C37.0674 33.1957 37.1017 33.1856 37.1321 33.1679C37.1625 33.1501 37.1882 33.1254 37.207 33.0957C37.2258 33.066 37.2373 33.0321 37.2403 32.9971L37.303 32.2827C37.3095 32.2254 37.3382 32.1729 37.3829 32.1364C37.4275 32.1 37.4847 32.0823 37.5421 32.0874C37.5996 32.0924 37.6528 32.1197 37.6904 32.1634C37.7281 32.2071 37.7472 32.2637 37.7437 32.3213L37.213 38.3534C37.2128 38.3963 37.2213 38.4387 37.2382 38.4781C37.255 38.5175 37.2797 38.553 37.3108 38.5825C37.342 38.6119 37.3788 38.6347 37.419 38.6494C37.4593 38.664 37.5021 38.6703 37.5449 38.6678H44.1701C44.2131 38.6703 44.2561 38.664 44.2965 38.6492C44.3369 38.6344 44.3738 38.6114 44.405 38.5817C44.4361 38.552 44.4608 38.5162 44.4775 38.4766C44.4942 38.4369 44.5025 38.3942 44.502 38.3512C44.4081 37.3445 44.0195 33.2394 43.9334 32.3225C43.9292 32.2652 43.9477 32.2084 43.9849 32.1645C44.0221 32.1206 44.0749 32.093 44.1322 32.0876C44.1895 32.0822 44.2466 32.0995 44.2913 32.1357C44.336 32.1719 44.3647 32.2242 44.3714 32.2813L44.4381 32.9883C44.4414 33.0231 44.4529 33.0565 44.4717 33.0859C44.4905 33.1153 44.516 33.1398 44.5461 33.1574C44.5763 33.175 44.6102 33.1852 44.645 33.1871C44.6799 33.189 44.7147 33.1826 44.7465 33.1683L46.4716 32.3987C46.5093 32.3809 46.5385 32.349 46.5529 32.3099C46.5673 32.2708 46.5657 32.2278 46.5486 32.1899ZM40.4309 36.4167C40.4292 36.4738 40.4053 36.528 40.3642 36.5678C40.3232 36.6076 40.2683 36.6298 40.2112 36.6298C40.1541 36.6298 40.0992 36.6076 40.0581 36.5678C40.0171 36.528 39.9932 36.4738 39.9915 36.4167V34.2011L39.7782 34.333C39.7287 34.3623 39.6696 34.3709 39.6138 34.3572C39.5579 34.3434 39.5097 34.3082 39.4795 34.2593C39.4493 34.2103 39.4395 34.1515 39.4522 34.0954C39.4649 34.0392 39.4992 33.9904 39.5475 33.9592L40.0948 33.6184C40.1282 33.5985 40.1663 33.5877 40.2053 33.5872C40.2442 33.5866 40.2826 33.5963 40.3167 33.6152C40.3507 33.6341 40.3792 33.6616 40.3993 33.695C40.4194 33.7284 40.4303 33.7664 40.4311 33.8054L40.4309 36.4167ZM42.0115 36.4167C42.0115 36.475 41.9883 36.5309 41.9471 36.5721C41.9059 36.6133 41.85 36.6365 41.7917 36.6365C41.7334 36.6365 41.6775 36.6133 41.6363 36.5721C41.595 36.5309 41.5719 36.475 41.5719 36.4167V34.2011L41.3588 34.333C41.3092 34.3636 41.2495 34.3732 41.1928 34.3598C41.1362 34.3465 41.0871 34.3111 41.0565 34.2615C41.0259 34.212 41.0162 34.1523 41.0296 34.0956C41.043 34.0389 41.0784 33.9899 41.1279 33.9592L41.6751 33.6184C41.7086 33.5985 41.7467 33.5877 41.7857 33.5872C41.8246 33.5866 41.863 33.5963 41.8971 33.6152C41.9311 33.6341 41.9596 33.6616 41.9797 33.695C41.9997 33.7284 42.0107 33.7664 42.0115 33.8054V36.4167Z" fill="#FAFAFA"/>
<path d="M40.4309 36.4167C40.4292 36.4738 40.4053 36.528 40.3642 36.5678C40.3232 36.6076 40.2683 36.6298 40.2112 36.6298C40.1541 36.6298 40.0992 36.6076 40.0581 36.5678C40.0171 36.528 39.9932 36.4738 39.9915 36.4167V34.2011L39.7782 34.333C39.7287 34.3623 39.6696 34.3709 39.6138 34.3572C39.5579 34.3434 39.5097 34.3082 39.4795 34.2593C39.4493 34.2103 39.4395 34.1515 39.4522 34.0954C39.4649 34.0392 39.4992 33.9904 39.5475 33.9592L40.0948 33.6184C40.1282 33.5985 40.1663 33.5877 40.2053 33.5872C40.2442 33.5866 40.2826 33.5963 40.3167 33.6152C40.3507 33.6341 40.3792 33.6616 40.3993 33.695C40.4194 33.7284 40.4303 33.7664 40.4311 33.8054L40.4309 36.4167Z" fill="#FAFAFA"/>
<path d="M42.0115 36.4167C42.0115 36.475 41.9883 36.5309 41.9471 36.5721C41.9059 36.6133 41.85 36.6365 41.7917 36.6365C41.7334 36.6365 41.6775 36.6133 41.6363 36.5721C41.595 36.5309 41.5719 36.475 41.5719 36.4167V34.2011L41.3588 34.333C41.3092 34.3636 41.2495 34.3732 41.1928 34.3598C41.1362 34.3465 41.0871 34.3111 41.0565 34.2615C41.0259 34.212 41.0162 34.1523 41.0296 34.0956C41.043 34.0389 41.0784 33.9899 41.1279 33.9592L41.6751 33.6184C41.7086 33.5985 41.7467 33.5877 41.7857 33.5872C41.8246 33.5866 41.863 33.5963 41.8971 33.6152C41.9311 33.6341 41.9596 33.6616 41.9797 33.695C41.9997 33.7284 42.0107 33.7664 42.0115 33.8054V36.4167Z" fill="#FAFAFA"/>
<path d="M39.8176 33.8965H42.1093" stroke="#191919" stroke-width="0.343756" stroke-linecap="round" stroke-linejoin="round"/>
<path d="M40.9636 35.0437V32.752" stroke="#191919" stroke-width="0.343756" stroke-linecap="round" stroke-linejoin="round"/>
<path d="M15.8689 48.5372C16.2378 48.5368 16.5915 48.39 16.8523 48.1292C17.1131 47.8684 17.2599 47.5147 17.2603 47.1458V46.6643C16.3402 46.8377 15.3951 46.8309 14.4775 46.6445V47.1458C14.478 47.5147 14.6247 47.8684 14.8855 48.1292C15.1464 48.39 15.5 48.5368 15.8689 48.5372Z" fill="#FAFAFA"/>
<path d="M21.5688 51.2914L20.4279 48.8932C20.2127 48.4443 19.8336 48.0949 19.3686 47.9171L18.4979 47.5853C18.1533 47.4834 17.9019 47.0787 17.6998 46.8027V47.0801C17.708 47.336 17.6629 47.5907 17.5671 47.8281C17.4714 48.0655 17.3273 48.2803 17.1438 48.4589C16.9604 48.6375 16.7418 48.7758 16.502 48.8652C16.2621 48.9545 16.0062 48.9929 15.7507 48.9778C15.4952 48.9628 15.2456 48.8946 15.0179 48.7777C14.7902 48.6607 14.5893 48.4976 14.4282 48.2988C14.2671 48.0999 14.1491 47.8696 14.082 47.6226C14.0148 47.3756 13.9999 47.1173 14.0382 46.8642C13.8876 47.1537 13.6413 47.382 13.3413 47.5104L12.5257 47.8029C12.0576 47.9684 11.6717 48.3087 11.4487 48.7523L10.1691 51.2914C10.1514 51.3299 10.1495 51.3739 10.1639 51.4138C10.1783 51.4536 10.2078 51.4862 10.2461 51.5045L11.9504 52.2795C11.9824 52.2941 12.0174 52.3008 12.0526 52.2991C12.0877 52.2973 12.1219 52.2871 12.1523 52.2694C12.1827 52.2517 12.2084 52.2269 12.2273 52.1972C12.2461 52.1675 12.2575 52.1337 12.2606 52.0987L12.3233 51.3843C12.3298 51.327 12.3584 51.2745 12.4031 51.238C12.4478 51.2015 12.5049 51.1839 12.5624 51.1889C12.6198 51.194 12.6731 51.2212 12.7107 51.2649C12.7484 51.3086 12.7675 51.3653 12.7639 51.4229L12.2333 57.455C12.233 57.4978 12.2416 57.5403 12.2584 57.5797C12.2753 57.6191 12.3 57.6546 12.3311 57.684C12.3622 57.7135 12.399 57.7363 12.4393 57.7509C12.4795 57.7656 12.5224 57.7719 12.5651 57.7693H19.1904C19.2333 57.7719 19.2764 57.7655 19.3168 57.7507C19.3572 57.7359 19.3941 57.713 19.4252 57.6833C19.4564 57.6536 19.4811 57.6178 19.4978 57.5781C19.5144 57.5385 19.5228 57.4958 19.5223 57.4528C19.4284 56.4461 19.0398 52.3409 18.9536 51.4241C18.9495 51.3667 18.968 51.31 19.0051 51.2661C19.0423 51.2222 19.0952 51.1946 19.1525 51.1892C19.2097 51.1838 19.2668 51.2011 19.3115 51.2373C19.3562 51.2735 19.385 51.3257 19.3916 51.3829L19.4584 52.0899C19.4617 52.1246 19.4732 52.1581 19.492 52.1875C19.5108 52.2169 19.5363 52.2414 19.5664 52.259C19.5965 52.2766 19.6304 52.2868 19.6653 52.2886C19.7001 52.2905 19.7349 52.2841 19.7668 52.2699L21.4919 51.5002C21.5296 51.4824 21.5587 51.4506 21.5731 51.4115C21.5875 51.3724 21.586 51.3294 21.5688 51.2914ZM15.4512 55.5182C15.4494 55.5754 15.4255 55.6295 15.3845 55.6693C15.3435 55.7091 15.2886 55.7314 15.2315 55.7314C15.1743 55.7314 15.1194 55.7091 15.0784 55.6693C15.0374 55.6295 15.0135 55.5754 15.0117 55.5182V53.3027L14.7985 53.4345C14.7489 53.4638 14.6899 53.4725 14.634 53.4587C14.5782 53.4449 14.53 53.4098 14.4998 53.3608C14.4695 53.3119 14.4597 53.253 14.4725 53.1969C14.4852 53.1408 14.5194 53.0919 14.5678 53.0608L15.115 52.72C15.1485 52.7001 15.1866 52.6893 15.2256 52.6887C15.2645 52.6882 15.3029 52.6978 15.3369 52.7168C15.371 52.7357 15.3995 52.7632 15.4195 52.7966C15.4396 52.8299 15.4506 52.868 15.4514 52.9069L15.4512 55.5182ZM17.0318 55.5182C17.0318 55.5765 17.0086 55.6325 16.9674 55.6737C16.9262 55.7149 16.8703 55.7381 16.812 55.7381C16.7537 55.7381 16.6977 55.7149 16.6565 55.6737C16.6153 55.6325 16.5921 55.5765 16.5921 55.5182V53.3027L16.379 53.4345C16.3295 53.4651 16.2698 53.4748 16.2131 53.4614C16.1564 53.448 16.1074 53.4126 16.0768 53.3631C16.0462 53.3135 16.0365 53.2538 16.0499 53.1972C16.0633 53.1405 16.0986 53.0914 16.1482 53.0608L16.6954 52.72C16.7289 52.7001 16.767 52.6893 16.8059 52.6887C16.8449 52.6882 16.8833 52.6978 16.9173 52.7168C16.9514 52.7357 16.9798 52.7632 16.9999 52.7966C17.02 52.8299 17.031 52.868 17.0318 52.9069V55.5182Z" fill="#FAFAFA"/>
<path d="M15.4512 55.5182C15.4494 55.5754 15.4255 55.6295 15.3845 55.6693C15.3435 55.7091 15.2886 55.7314 15.2315 55.7314C15.1743 55.7314 15.1194 55.7091 15.0784 55.6693C15.0374 55.6295 15.0135 55.5754 15.0117 55.5182V53.3027L14.7985 53.4345C14.7489 53.4638 14.6899 53.4725 14.634 53.4587C14.5782 53.4449 14.53 53.4098 14.4998 53.3608C14.4695 53.3119 14.4597 53.253 14.4725 53.1969C14.4852 53.1408 14.5194 53.0919 14.5678 53.0608L15.115 52.72C15.1485 52.7001 15.1866 52.6893 15.2256 52.6887C15.2645 52.6882 15.3029 52.6978 15.3369 52.7168C15.371 52.7357 15.3995 52.7632 15.4195 52.7966C15.4396 52.8299 15.4506 52.868 15.4514 52.9069L15.4512 55.5182Z" fill="#FAFAFA"/>
<path d="M17.0318 55.5182C17.0318 55.5765 17.0086 55.6325 16.9674 55.6737C16.9262 55.7149 16.8703 55.7381 16.812 55.7381C16.7537 55.7381 16.6977 55.7149 16.6565 55.6737C16.6153 55.6325 16.5921 55.5765 16.5921 55.5182V53.3027L16.379 53.4345C16.3295 53.4651 16.2698 53.4748 16.2131 53.4614C16.1564 53.448 16.1074 53.4126 16.0768 53.3631C16.0462 53.3135 16.0365 53.2538 16.0499 53.1972C16.0633 53.1405 16.0986 53.0914 16.1482 53.0608L16.6954 52.72C16.7289 52.7001 16.767 52.6893 16.8059 52.6887C16.8449 52.6882 16.8833 52.6978 16.9173 52.7168C16.9514 52.7357 16.9798 52.7632 16.9999 52.7966C17.02 52.8299 17.031 52.868 17.0318 52.9069V55.5182Z" fill="#FAFAFA"/>
<path d="M14.8379 53.002H17.1296" stroke="#191919" stroke-width="0.343756" stroke-linecap="round" stroke-linejoin="round"/>
<path d="M15.9839 54.1491V51.8574" stroke="#191919" stroke-width="0.343756" stroke-linecap="round" stroke-linejoin="round"/>
<path d="M15.8689 8.5372C16.2378 8.53677 16.5915 8.39004 16.8523 8.1292C17.1131 7.86835 17.2599 7.5147 17.2603 7.14581V6.66433C16.3402 6.83767 15.3951 6.83094 14.4775 6.64453V7.14581C14.478 7.5147 14.6247 7.86835 14.8855 8.1292C15.1464 8.39004 15.5 8.53677 15.8689 8.5372Z" fill="#FAFAFA"/>
<path d="M21.5688 11.2914L20.4279 8.89318C20.2127 8.44426 19.8336 8.09493 19.3686 7.91715L18.4979 7.58527C18.1533 7.48343 17.9019 7.07868 17.6998 6.80273V7.08011C17.708 7.33595 17.6629 7.5907 17.5671 7.8281C17.4714 8.0655 17.3273 8.28034 17.1438 8.45891C16.9604 8.63747 16.7418 8.77584 16.502 8.86519C16.2621 8.95454 16.0062 8.99291 15.7507 8.97784C15.4952 8.96277 15.2456 8.8946 15.0179 8.77767C14.7902 8.66075 14.5893 8.49764 14.4282 8.29875C14.2671 8.09987 14.1491 7.86957 14.082 7.62257C14.0148 7.37556 13.9999 7.11727 14.0382 6.86417C13.8876 7.15366 13.6413 7.38202 13.3413 7.51037L12.5257 7.80285C12.0576 7.96844 11.6717 8.30868 11.4487 8.75235L10.1691 11.2914C10.1514 11.3299 10.1495 11.3739 10.1639 11.4138C10.1783 11.4536 10.2078 11.4862 10.2461 11.5045L11.9504 12.2795C11.9824 12.2941 12.0174 12.3008 12.0526 12.2991C12.0877 12.2973 12.1219 12.2871 12.1523 12.2694C12.1827 12.2517 12.2084 12.2269 12.2273 12.1972C12.2461 12.1675 12.2575 12.1337 12.2606 12.0987L12.3233 11.3843C12.3298 11.327 12.3584 11.2745 12.4031 11.238C12.4478 11.2015 12.5049 11.1839 12.5624 11.1889C12.6198 11.194 12.6731 11.2212 12.7107 11.2649C12.7484 11.3086 12.7675 11.3653 12.7639 11.4229L12.2333 17.455C12.233 17.4978 12.2416 17.5403 12.2584 17.5797C12.2753 17.6191 12.3 17.6546 12.3311 17.684C12.3622 17.7135 12.399 17.7363 12.4393 17.7509C12.4795 17.7656 12.5224 17.7719 12.5651 17.7693H19.1904C19.2333 17.7719 19.2764 17.7655 19.3168 17.7507C19.3572 17.7359 19.3941 17.713 19.4252 17.6833C19.4564 17.6536 19.4811 17.6178 19.4978 17.5781C19.5144 17.5385 19.5228 17.4958 19.5223 17.4528C19.4284 16.4461 19.0398 12.3409 18.9536 11.4241C18.9495 11.3667 18.968 11.31 19.0051 11.2661C19.0423 11.2222 19.0952 11.1946 19.1525 11.1892C19.2097 11.1838 19.2668 11.2011 19.3115 11.2373C19.3562 11.2735 19.385 11.3257 19.3916 11.3829L19.4584 12.0899C19.4617 12.1246 19.4732 12.1581 19.492 12.1875C19.5108 12.2169 19.5363 12.2414 19.5664 12.259C19.5965 12.2766 19.6304 12.2868 19.6653 12.2886C19.7001 12.2905 19.7349 12.2841 19.7668 12.2699L21.4919 11.5002C21.5296 11.4824 21.5587 11.4506 21.5731 11.4115C21.5875 11.3724 21.586 11.3294 21.5688 11.2914ZM15.4512 15.5182C15.4494 15.5754 15.4255 15.6295 15.3845 15.6693C15.3435 15.7091 15.2886 15.7314 15.2315 15.7314C15.1743 15.7314 15.1194 15.7091 15.0784 15.6693C15.0374 15.6295 15.0135 15.5754 15.0117 15.5182V13.3027L14.7985 13.4345C14.7489 13.4638 14.6899 13.4725 14.634 13.4587C14.5782 13.4449 14.53 13.4098 14.4998 13.3608C14.4695 13.3119 14.4597 13.253 14.4725 13.1969C14.4852 13.1408 14.5194 13.0919 14.5678 13.0608L15.115 12.72C15.1485 12.7001 15.1866 12.6893 15.2256 12.6887C15.2645 12.6882 15.3029 12.6978 15.3369 12.7168C15.371 12.7357 15.3995 12.7632 15.4195 12.7966C15.4396 12.8299 15.4506 12.868 15.4514 12.9069L15.4512 15.5182ZM17.0318 15.5182C17.0318 15.5765 17.0086 15.6325 16.9674 15.6737C16.9262 15.7149 16.8703 15.7381 16.812 15.7381C16.7537 15.7381 16.6977 15.7149 16.6565 15.6737C16.6153 15.6325 16.5921 15.5765 16.5921 15.5182V13.3027L16.379 13.4345C16.3295 13.4651 16.2698 13.4748 16.2131 13.4614C16.1564 13.448 16.1074 13.4126 16.0768 13.3631C16.0462 13.3135 16.0365 13.2538 16.0499 13.1972C16.0633 13.1405 16.0986 13.0914 16.1482 13.0608L16.6954 12.72C16.7289 12.7001 16.767 12.6893 16.8059 12.6887C16.8449 12.6882 16.8833 12.6978 16.9173 12.7168C16.9514 12.7357 16.9798 12.7632 16.9999 12.7966C17.02 12.8299 17.031 12.868 17.0318 12.9069V15.5182Z" fill="#FAFAFA"/>
<path d="M15.4512 15.5182C15.4494 15.5754 15.4255 15.6295 15.3845 15.6693C15.3435 15.7091 15.2886 15.7314 15.2315 15.7314C15.1743 15.7314 15.1194 15.7091 15.0784 15.6693C15.0374 15.6295 15.0135 15.5754 15.0117 15.5182V13.3027L14.7985 13.4345C14.7489 13.4638 14.6899 13.4725 14.634 13.4587C14.5782 13.4449 14.53 13.4098 14.4998 13.3608C14.4695 13.3119 14.4597 13.253 14.4725 13.1969C14.4852 13.1408 14.5194 13.0919 14.5678 13.0608L15.115 12.72C15.1485 12.7001 15.1866 12.6893 15.2256 12.6887C15.2645 12.6882 15.3029 12.6978 15.3369 12.7168C15.371 12.7357 15.3995 12.7632 15.4195 12.7966C15.4396 12.8299 15.4506 12.868 15.4514 12.9069L15.4512 15.5182Z" fill="#FAFAFA"/>
<path d="M17.0318 15.5182C17.0318 15.5765 17.0086 15.6325 16.9674 15.6737C16.9262 15.7149 16.8703 15.7381 16.812 15.7381C16.7537 15.7381 16.6977 15.7149 16.6565 15.6737C16.6153 15.6325 16.5921 15.5765 16.5921 15.5182V13.3027L16.379 13.4345C16.3295 13.4651 16.2698 13.4748 16.2131 13.4614C16.1564 13.448 16.1074 13.4126 16.0768 13.3631C16.0462 13.3135 16.0365 13.2538 16.0499 13.1972C16.0633 13.1405 16.0986 13.0914 16.1482 13.0608L16.6954 12.72C16.7289 12.7001 16.767 12.6893 16.8059 12.6887C16.8449 12.6882 16.8833 12.6978 16.9173 12.7168C16.9514 12.7357 16.9798 12.7632 16.9999 12.7966C17.02 12.8299 17.031 12.868 17.0318 12.9069V15.5182Z" fill="#FAFAFA"/>
<path d="M14.8379 13.002H17.1296" stroke="#191919" stroke-width="0.343756" stroke-linecap="round" stroke-linejoin="round"/>
<path d="M15.9839 14.1491V11.8574" stroke="#191919" stroke-width="0.343756" stroke-linecap="round" stroke-linejoin="round"/>
<g clip-path="url(#clip0_8749_15916)">
<path d="M65.5989 48.5372C65.9678 48.5368 66.3214 48.39 66.5823 48.1292C66.8431 47.8684 66.9899 47.5147 66.9903 47.1458V46.6643C66.0701 46.8377 65.1251 46.8309 64.2075 46.6445V47.1458C64.208 47.5147 64.3547 47.8684 64.6155 48.1292C64.8764 48.39 65.23 48.5368 65.5989 48.5372Z" fill="#FAFAFA"/>
<path d="M71.2988 51.2914L70.1579 48.8932C69.9427 48.4443 69.5636 48.0949 69.0986 47.9171L68.2278 47.5853C67.8833 47.4834 67.6319 47.0787 67.4298 46.8027V47.0801C67.438 47.336 67.3928 47.5907 67.2971 47.8281C67.2014 48.0655 67.0572 48.2803 66.8738 48.4589C66.6904 48.6375 66.4718 48.7758 66.2319 48.8652C65.9921 48.9545 65.7362 48.9929 65.4807 48.9778C65.2252 48.9628 64.9756 48.8946 64.7479 48.7777C64.5202 48.6607 64.3193 48.4976 64.1582 48.2988C63.997 48.0999 63.8791 47.8696 63.812 47.6226C63.7448 47.3756 63.7299 47.1173 63.7681 46.8642C63.6176 47.1537 63.3713 47.382 63.0713 47.5104L62.2557 47.8029C61.7876 47.9684 61.4016 48.3087 61.1787 48.7523L59.8991 51.2914C59.8813 51.3299 59.8795 51.3739 59.8939 51.4138C59.9083 51.4536 59.9378 51.4862 59.9761 51.5045L61.6803 52.2795C61.7124 52.2941 61.7474 52.3008 61.7825 52.2991C61.8177 52.2973 61.8519 52.2871 61.8823 52.2694C61.9127 52.2517 61.9384 52.2269 61.9572 52.1972C61.9761 52.1675 61.9875 52.1337 61.9906 52.0987L62.0532 51.3843C62.0598 51.327 62.0884 51.2745 62.1331 51.238C62.1778 51.2015 62.2349 51.1839 62.2924 51.1889C62.3498 51.194 62.403 51.2212 62.4407 51.2649C62.4783 51.3086 62.4974 51.3653 62.4939 51.4229L61.9632 57.455C61.963 57.4978 61.9716 57.5403 61.9884 57.5797C62.0053 57.6191 62.03 57.6546 62.0611 57.684C62.0922 57.7135 62.129 57.7363 62.1693 57.7509C62.2095 57.7656 62.2523 57.7719 62.2951 57.7693H68.9204C68.9633 57.7719 69.0063 57.7655 69.0468 57.7507C69.0872 57.7359 69.1241 57.713 69.1552 57.6833C69.1864 57.6536 69.211 57.6178 69.2277 57.5781C69.2444 57.5385 69.2528 57.4958 69.2522 57.4528C69.1584 56.4461 68.7697 52.3409 68.6836 51.4241C68.6795 51.3667 68.698 51.31 68.7351 51.2661C68.7723 51.2222 68.8252 51.1946 68.8824 51.1892C68.9397 51.1838 68.9968 51.2011 69.0415 51.2373C69.0862 51.2735 69.115 51.3257 69.1216 51.3829L69.1884 52.0899C69.1917 52.1246 69.2032 52.1581 69.2219 52.1875C69.2407 52.2169 69.2663 52.2414 69.2964 52.259C69.3265 52.2766 69.3604 52.2868 69.3953 52.2886C69.4301 52.2905 69.4649 52.2841 69.4968 52.2699L71.2219 51.5002C71.2595 51.4824 71.2887 51.4506 71.3031 51.4115C71.3175 51.3724 71.316 51.3294 71.2988 51.2914ZM65.1812 55.5182C65.1794 55.5754 65.1555 55.6295 65.1145 55.6693C65.0735 55.7091 65.0186 55.7314 64.9614 55.7314C64.9043 55.7314 64.8494 55.7091 64.8084 55.6693C64.7674 55.6295 64.7435 55.5754 64.7417 55.5182V53.3027L64.5284 53.4345C64.4789 53.4638 64.4199 53.4725 64.364 53.4587C64.3082 53.4449 64.26 53.4098 64.2297 53.3608C64.1995 53.3119 64.1897 53.253 64.2025 53.1969C64.2152 53.1408 64.2494 53.0919 64.2978 53.0608L64.845 52.72C64.8785 52.7001 64.9166 52.6893 64.9555 52.6887C64.9945 52.6882 65.0329 52.6978 65.0669 52.7168C65.101 52.7357 65.1294 52.7632 65.1495 52.7966C65.1696 52.8299 65.1806 52.868 65.1814 52.9069L65.1812 55.5182ZM66.7618 55.5182C66.7618 55.5765 66.7386 55.6325 66.6974 55.6737C66.6561 55.7149 66.6002 55.7381 66.5419 55.7381C66.4836 55.7381 66.4277 55.7149 66.3865 55.6737C66.3453 55.6325 66.3221 55.5765 66.3221 55.5182V53.3027L66.109 53.4345C66.0595 53.4651 65.9998 53.4748 65.9431 53.4614C65.8864 53.448 65.8374 53.4126 65.8067 53.3631C65.7761 53.3135 65.7665 53.2538 65.7799 53.1972C65.7933 53.1405 65.8286 53.0914 65.8782 53.0608L66.4254 52.72C66.4589 52.7001 66.497 52.6893 66.5359 52.6887C66.5749 52.6882 66.6133 52.6978 66.6473 52.7168C66.6813 52.7357 66.7098 52.7632 66.7299 52.7966C66.75 52.8299 66.761 52.868 66.7618 52.9069V55.5182Z" fill="#FAFAFA"/>
<path d="M65.1812 55.5182C65.1794 55.5754 65.1555 55.6295 65.1145 55.6693C65.0735 55.7091 65.0186 55.7314 64.9614 55.7314C64.9043 55.7314 64.8494 55.7091 64.8084 55.6693C64.7674 55.6295 64.7435 55.5754 64.7417 55.5182V53.3027L64.5284 53.4345C64.4789 53.4638 64.4199 53.4725 64.364 53.4587C64.3082 53.4449 64.26 53.4098 64.2297 53.3608C64.1995 53.3119 64.1897 53.253 64.2025 53.1969C64.2152 53.1408 64.2494 53.0919 64.2978 53.0608L64.845 52.72C64.8785 52.7001 64.9166 52.6893 64.9555 52.6887C64.9945 52.6882 65.0329 52.6978 65.0669 52.7168C65.101 52.7357 65.1294 52.7632 65.1495 52.7966C65.1696 52.8299 65.1806 52.868 65.1814 52.9069L65.1812 55.5182Z" fill="#FAFAFA"/>
<path d="M66.7618 55.5182C66.7618 55.5765 66.7386 55.6325 66.6974 55.6737C66.6561 55.7149 66.6002 55.7381 66.5419 55.7381C66.4836 55.7381 66.4277 55.7149 66.3865 55.6737C66.3453 55.6325 66.3221 55.5765 66.3221 55.5182V53.3027L66.109 53.4345C66.0595 53.4651 65.9998 53.4748 65.9431 53.4614C65.8864 53.448 65.8374 53.4126 65.8067 53.3631C65.7761 53.3135 65.7665 53.2538 65.7799 53.1972C65.7933 53.1405 65.8286 53.0914 65.8782 53.0608L66.4254 52.72C66.4589 52.7001 66.497 52.6893 66.5359 52.6887C66.5749 52.6882 66.6133 52.6978 66.6473 52.7168C66.6813 52.7357 66.7098 52.7632 66.7299 52.7966C66.75 52.8299 66.761 52.868 66.7618 52.9069V55.5182Z" fill="#FAFAFA"/>
<path d="M64.5679 53.002H66.8596" stroke="#191919" stroke-width="0.343756" stroke-linecap="round" stroke-linejoin="round"/>
<path d="M65.7139 54.1491V51.8574" stroke="#191919" stroke-width="0.343756" stroke-linecap="round" stroke-linejoin="round"/>
</g>
<g clip-path="url(#clip1_8749_15916)">
<path d="M65.5989 8.5372C65.9678 8.53677 66.3214 8.39004 66.5823 8.1292C66.8431 7.86835 66.9899 7.5147 66.9903 7.14581V6.66433C66.0701 6.83767 65.1251 6.83094 64.2075 6.64453V7.14581C64.208 7.5147 64.3547 7.86835 64.6155 8.1292C64.8764 8.39004 65.23 8.53677 65.5989 8.5372Z" fill="#FAFAFA"/>
<path d="M71.2988 11.2914L70.1579 8.89318C69.9427 8.44426 69.5636 8.09493 69.0986 7.91715L68.2278 7.58527C67.8833 7.48343 67.6319 7.07868 67.4298 6.80273V7.08011C67.438 7.33595 67.3928 7.5907 67.2971 7.8281C67.2014 8.0655 67.0572 8.28034 66.8738 8.45891C66.6904 8.63747 66.4718 8.77584 66.2319 8.86519C65.9921 8.95454 65.7362 8.99291 65.4807 8.97784C65.2252 8.96277 64.9756 8.8946 64.7479 8.77767C64.5202 8.66075 64.3193 8.49764 64.1582 8.29875C63.997 8.09987 63.8791 7.86957 63.812 7.62257C63.7448 7.37556 63.7299 7.11727 63.7681 6.86417C63.6176 7.15366 63.3713 7.38202 63.0713 7.51037L62.2557 7.80285C61.7876 7.96844 61.4016 8.30868 61.1787 8.75235L59.8991 11.2914C59.8813 11.3299 59.8795 11.3739 59.8939 11.4138C59.9083 11.4536 59.9378 11.4862 59.9761 11.5045L61.6803 12.2795C61.7124 12.2941 61.7474 12.3008 61.7825 12.2991C61.8177 12.2973 61.8519 12.2871 61.8823 12.2694C61.9127 12.2517 61.9384 12.2269 61.9572 12.1972C61.9761 12.1675 61.9875 12.1337 61.9906 12.0987L62.0532 11.3843C62.0598 11.327 62.0884 11.2745 62.1331 11.238C62.1778 11.2015 62.2349 11.1839 62.2924 11.1889C62.3498 11.194 62.403 11.2212 62.4407 11.2649C62.4783 11.3086 62.4974 11.3653 62.4939 11.4229L61.9632 17.455C61.963 17.4978 61.9716 17.5403 61.9884 17.5797C62.0053 17.6191 62.03 17.6546 62.0611 17.684C62.0922 17.7135 62.129 17.7363 62.1693 17.7509C62.2095 17.7656 62.2523 17.7719 62.2951 17.7693H68.9204C68.9633 17.7719 69.0063 17.7655 69.0468 17.7507C69.0872 17.7359 69.1241 17.713 69.1552 17.6833C69.1864 17.6536 69.211 17.6178 69.2277 17.5781C69.2444 17.5385 69.2528 17.4958 69.2522 17.4528C69.1584 16.4461 68.7697 12.3409 68.6836 11.4241C68.6795 11.3667 68.698 11.31 68.7351 11.2661C68.7723 11.2222 68.8252 11.1946 68.8824 11.1892C68.9397 11.1838 68.9968 11.2011 69.0415 11.2373C69.0862 11.2735 69.115 11.3257 69.1216 11.3829L69.1884 12.0899C69.1917 12.1246 69.2032 12.1581 69.2219 12.1875C69.2407 12.2169 69.2663 12.2414 69.2964 12.259C69.3265 12.2766 69.3604 12.2868 69.3953 12.2886C69.4301 12.2905 69.4649 12.2841 69.4968 12.2699L71.2219 11.5002C71.2595 11.4824 71.2887 11.4506 71.3031 11.4115C71.3175 11.3724 71.316 11.3294 71.2988 11.2914ZM65.1812 15.5182C65.1794 15.5754 65.1555 15.6295 65.1145 15.6693C65.0735 15.7091 65.0186 15.7314 64.9614 15.7314C64.9043 15.7314 64.8494 15.7091 64.8084 15.6693C64.7674 15.6295 64.7435 15.5754 64.7417 15.5182V13.3027L64.5284 13.4345C64.4789 13.4638 64.4199 13.4725 64.364 13.4587C64.3082 13.4449 64.26 13.4098 64.2297 13.3608C64.1995 13.3119 64.1897 13.253 64.2025 13.1969C64.2152 13.1408 64.2494 13.0919 64.2978 13.0608L64.845 12.72C64.8785 12.7001 64.9166 12.6893 64.9555 12.6887C64.9945 12.6882 65.0329 12.6978 65.0669 12.7168C65.101 12.7357 65.1294 12.7632 65.1495 12.7966C65.1696 12.8299 65.1806 12.868 65.1814 12.9069L65.1812 15.5182ZM66.7618 15.5182C66.7618 15.5765 66.7386 15.6325 66.6974 15.6737C66.6561 15.7149 66.6002 15.7381 66.5419 15.7381C66.4836 15.7381 66.4277 15.7149 66.3865 15.6737C66.3453 15.6325 66.3221 15.5765 66.3221 15.5182V13.3027L66.109 13.4345C66.0595 13.4651 65.9998 13.4748 65.9431 13.4614C65.8864 13.448 65.8374 13.4126 65.8067 13.3631C65.7761 13.3135 65.7665 13.2538 65.7799 13.1972C65.7933 13.1405 65.8286 13.0914 65.8782 13.0608L66.4254 12.72C66.4589 12.7001 66.497 12.6893 66.5359 12.6887C66.5749 12.6882 66.6133 12.6978 66.6473 12.7168C66.6813 12.7357 66.7098 12.7632 66.7299 12.7966C66.75 12.8299 66.761 12.868 66.7618 12.9069V15.5182Z" fill="#FAFAFA"/>
<path d="M65.1812 15.5182C65.1794 15.5754 65.1555 15.6295 65.1145 15.6693C65.0735 15.7091 65.0186 15.7314 64.9614 15.7314C64.9043 15.7314 64.8494 15.7091 64.8084 15.6693C64.7674 15.6295 64.7435 15.5754 64.7417 15.5182V13.3027L64.5284 13.4345C64.4789 13.4638 64.4199 13.4725 64.364 13.4587C64.3082 13.4449 64.26 13.4098 64.2297 13.3608C64.1995 13.3119 64.1897 13.253 64.2025 13.1969C64.2152 13.1408 64.2494 13.0919 64.2978 13.0608L64.845 12.72C64.8785 12.7001 64.9166 12.6893 64.9555 12.6887C64.9945 12.6882 65.0329 12.6978 65.0669 12.7168C65.101 12.7357 65.1294 12.7632 65.1495 12.7966C65.1696 12.8299 65.1806 12.868 65.1814 12.9069L65.1812 15.5182Z" fill="#FAFAFA"/>
<path d="M66.7618 15.5182C66.7618 15.5765 66.7386 15.6325 66.6974 15.6737C66.6561 15.7149 66.6002 15.7381 66.5419 15.7381C66.4836 15.7381 66.4277 15.7149 66.3865 15.6737C66.3453 15.6325 66.3221 15.5765 66.3221 15.5182V13.3027L66.109 13.4345C66.0595 13.4651 65.9998 13.4748 65.9431 13.4614C65.8864 13.448 65.8374 13.4126 65.8067 13.3631C65.7761 13.3135 65.7665 13.2538 65.7799 13.1972C65.7933 13.1405 65.8286 13.0914 65.8782 13.0608L66.4254 12.72C66.4589 12.7001 66.497 12.6893 66.5359 12.6887C66.5749 12.6882 66.6133 12.6978 66.6473 12.7168C66.6813 12.7357 66.7098 12.7632 66.7299 12.7966C66.75 12.8299 66.761 12.868 66.7618 12.9069V15.5182Z" fill="#FAFAFA"/>
<path d="M64.5679 13.002H66.8596" stroke="#191919" stroke-width="0.343756" stroke-linecap="round" stroke-linejoin="round"/>
<path d="M65.7139 14.1491V11.8574" stroke="#191919" stroke-width="0.343756" stroke-linecap="round" stroke-linejoin="round"/>
</g>
<defs>
<clipPath id="clip0_8749_15916">
<rect width="13.0627" height="13.0627" fill="white" transform="translate(59.0679 45.6699)"/>
</clipPath>
<clipPath id="clip1_8749_15916">
<rect width="13.0627" height="13.0627" fill="white" transform="translate(59.0679 5.66992)"/>
</clipPath>
</defs>
</svg>
