<svg width="81" height="81" viewBox="0 0 81 81" fill="none" xmlns="http://www.w3.org/2000/svg">
<rect x="0.534263" y="0.118492" width="79.9807" height="79.9807" rx="5.88541" fill="#828284" stroke="#FAFAFA" stroke-width="0.229171"/>
<mask id="path-2-inside-1_8747_14595" fill="white">
<path d="M24.2534 66.4609H56.7957V80.2112H24.2534V66.4609Z"/>
</mask>
<path d="M24.2534 66.4609V66.2318H24.0242V66.4609H24.2534ZM56.7957 66.4609H57.0249V66.2318H56.7957V66.4609ZM24.2534 66.6901H56.7957V66.2318H24.2534V66.6901ZM56.5665 66.4609V80.2112H57.0249V66.4609H56.5665ZM24.4826 80.2112V66.4609H24.0242V80.2112H24.4826Z" fill="#FAFAFA" mask="url(#path-2-inside-1_8747_14595)"/>
<mask id="path-4-inside-2_8747_14595" fill="white">
<path d="M13.0239 55.0039H68.025V80.2127H13.0239V55.0039Z"/>
</mask>
<path d="M13.0239 55.0039V54.7747H12.7948V55.0039H13.0239ZM68.025 55.0039H68.2541V54.7747H68.025V55.0039ZM13.0239 55.2331H68.025V54.7747H13.0239V55.2331ZM67.7958 55.0039V80.2127H68.2541V55.0039H67.7958ZM13.2531 80.2127V55.0039H12.7948V80.2127H13.2531Z" fill="#FAFAFA" mask="url(#path-4-inside-2_8747_14595)"/>
<path d="M54.7331 9.53674e-07C54.7331 1.65523 54.3478 3.29426 53.5992 4.8235C52.8506 6.35273 51.7534 7.74223 50.3702 8.91266C48.9869 10.0831 47.3448 11.0115 45.5375 11.645C43.7302 12.2784 41.7932 12.6044 39.837 12.6044C37.8808 12.6044 35.9438 12.2784 34.1365 11.645C32.3293 11.0115 30.6871 10.0831 29.3039 8.91266C27.9207 7.74223 26.8234 6.35273 26.0748 4.8235C25.3262 3.29426 24.9409 1.65523 24.9409 0" stroke="#FAFAFA" stroke-width="0.229171"/>
<path d="M30.212 57.9824C30.212 57.0796 30.4788 56.1856 30.997 55.3514C31.5153 54.5173 32.2749 53.7594 33.2325 53.121C34.1902 52.4826 35.327 51.9761 36.5782 51.6306C37.8294 51.2851 39.1704 51.1073 40.5247 51.1073C41.879 51.1073 43.22 51.2851 44.4712 51.6306C45.7224 51.9761 46.8593 52.4826 47.8169 53.121C48.7745 53.7594 49.5341 54.5173 50.0524 55.3514C50.5707 56.1856 50.8374 57.0796 50.8374 57.9824" stroke="#FAFAFA" stroke-width="0.229171"/>
<rect x="27.9202" y="55.2305" width="26.1255" height="3.89591" fill="#828284"/>
<path d="M0.648926 76.5479C1.76545 76.4958 3.96938 77.1099 3.85288 79.9825" stroke="#FAFAFA" stroke-width="0.229171"/>
<path d="M80.4004 76.5479C79.2839 76.4958 77.0799 77.1099 77.1964 79.9825" stroke="#FAFAFA" stroke-width="0.229171"/>
<g clip-path="url(#clip0_8747_14595)">
<path d="M40.6389 65.4356C41.0078 65.4352 41.3615 65.2885 41.6223 65.0276C41.8832 64.7668 42.0299 64.4131 42.0303 64.0443V63.5628C41.1102 63.7361 40.1651 63.7294 39.2476 63.543V64.0443C39.248 64.4131 39.3947 64.7668 39.6556 65.0276C39.9164 65.2885 40.2701 65.4352 40.6389 65.4356Z" fill="#FAFAFA"/>
<path d="M46.3389 68.1899L45.1979 65.7916C44.9827 65.3427 44.6036 64.9934 44.1386 64.8156L43.2679 64.4837C42.9234 64.3819 42.6719 63.9771 42.4698 63.7012V63.9786C42.4781 64.2344 42.4329 64.4891 42.3372 64.7265C42.2414 64.9639 42.0973 65.1788 41.9139 65.3573C41.7305 65.5359 41.5119 65.6743 41.272 65.7636C41.0321 65.853 40.7762 65.8913 40.5207 65.8763C40.2652 65.8612 40.0156 65.793 39.7879 65.6761C39.5602 65.5592 39.3594 65.3961 39.1982 65.1972C39.0371 64.9983 38.9192 64.768 38.852 64.521C38.7849 64.274 38.7699 64.0157 38.8082 63.7626C38.6576 64.0521 38.4114 64.2805 38.1114 64.4088L37.2958 64.7013C36.8276 64.8669 36.4417 65.2071 36.2187 65.6508L34.9392 68.1899C34.9214 68.2284 34.9195 68.2723 34.9339 68.3122C34.9483 68.3521 34.9778 68.3847 35.0161 68.4029L36.7204 69.1779C36.7524 69.1925 36.7874 69.1992 36.8226 69.1975C36.8577 69.1957 36.8919 69.1856 36.9223 69.1679C36.9527 69.1501 36.9784 69.1254 36.9973 69.0957C37.0161 69.066 37.0276 69.0321 37.0306 68.9971L37.0933 68.2827C37.0998 68.2254 37.1285 68.1729 37.1731 68.1364C37.2178 68.1 37.2749 68.0823 37.3324 68.0874C37.3899 68.0924 37.4431 68.1197 37.4807 68.1634C37.5184 68.2071 37.5375 68.2637 37.5339 68.3213L37.0033 74.3534C37.0031 74.3963 37.0116 74.4387 37.0285 74.4781C37.0453 74.5175 37.07 74.553 37.1011 74.5825C37.1322 74.6119 37.1691 74.6347 37.2093 74.6494C37.2496 74.664 37.2924 74.6703 37.3351 74.6678H43.9604C44.0034 74.6703 44.0464 74.664 44.0868 74.6492C44.1272 74.6344 44.1641 74.6114 44.1953 74.5817C44.2264 74.552 44.2511 74.5162 44.2678 74.4766C44.2845 74.4369 44.2928 74.3942 44.2923 74.3512C44.1984 73.3445 43.8098 69.2394 43.7236 68.3225C43.7195 68.2652 43.738 68.2084 43.7752 68.1645C43.8123 68.1206 43.8652 68.093 43.9225 68.0876C43.9798 68.0822 44.0369 68.0995 44.0816 68.1357C44.1263 68.1719 44.155 68.2242 44.1617 68.2813L44.2284 68.9883C44.2317 69.0231 44.2432 69.0565 44.262 69.0859C44.2808 69.1153 44.3063 69.1398 44.3364 69.1574C44.3666 69.175 44.4005 69.1852 44.4353 69.1871C44.4701 69.189 44.5049 69.1826 44.5368 69.1683L46.2619 68.3987C46.2996 68.3809 46.3288 68.349 46.3432 68.3099C46.3576 68.2708 46.356 68.2278 46.3389 68.1899ZM40.2212 72.4167C40.2195 72.4738 40.1955 72.528 40.1545 72.5678C40.1135 72.6076 40.0586 72.6298 40.0015 72.6298C39.9443 72.6298 39.8894 72.6076 39.8484 72.5678C39.8074 72.528 39.7835 72.4738 39.7818 72.4167V70.2011L39.5685 70.333C39.519 70.3623 39.4599 70.3709 39.4041 70.3572C39.3482 70.3434 39.3 70.3082 39.2698 70.2593C39.2396 70.2103 39.2298 70.1515 39.2425 70.0954C39.2552 70.0392 39.2895 69.9904 39.3378 69.9592L39.885 69.6184C39.9185 69.5985 39.9566 69.5877 39.9956 69.5872C40.0345 69.5866 40.0729 69.5963 40.107 69.6152C40.141 69.6341 40.1695 69.6616 40.1896 69.695C40.2096 69.7284 40.2206 69.7664 40.2214 69.8054L40.2212 72.4167ZM41.8018 72.4167C41.8018 72.475 41.7786 72.5309 41.7374 72.5721C41.6962 72.6133 41.6403 72.6365 41.582 72.6365C41.5237 72.6365 41.4678 72.6133 41.4265 72.5721C41.3853 72.5309 41.3621 72.475 41.3621 72.4167V70.2011L41.1491 70.333C41.0995 70.3636 41.0398 70.3732 40.9831 70.3598C40.9264 70.3465 40.8774 70.3111 40.8468 70.2615C40.8162 70.212 40.8065 70.1523 40.8199 70.0956C40.8333 70.0389 40.8687 69.9899 40.9182 69.9592L41.4654 69.6184C41.4989 69.5985 41.537 69.5877 41.576 69.5872C41.6149 69.5866 41.6533 69.5963 41.6873 69.6152C41.7214 69.6341 41.7499 69.6616 41.7699 69.695C41.79 69.7284 41.801 69.7664 41.8018 69.8054V72.4167Z" fill="#FAFAFA"/>
<path d="M40.2212 72.4167C40.2195 72.4738 40.1955 72.528 40.1545 72.5678C40.1135 72.6076 40.0586 72.6298 40.0015 72.6298C39.9443 72.6298 39.8894 72.6076 39.8484 72.5678C39.8074 72.528 39.7835 72.4738 39.7818 72.4167V70.2011L39.5685 70.333C39.519 70.3623 39.4599 70.3709 39.4041 70.3572C39.3482 70.3434 39.3 70.3082 39.2698 70.2593C39.2396 70.2103 39.2298 70.1515 39.2425 70.0954C39.2552 70.0392 39.2895 69.9904 39.3378 69.9592L39.885 69.6184C39.9185 69.5985 39.9566 69.5877 39.9956 69.5872C40.0345 69.5866 40.0729 69.5963 40.107 69.6152C40.141 69.6341 40.1695 69.6616 40.1896 69.695C40.2096 69.7284 40.2206 69.7664 40.2214 69.8054L40.2212 72.4167Z" fill="#FAFAFA"/>
<path d="M41.8018 72.4167C41.8018 72.475 41.7786 72.5309 41.7374 72.5721C41.6962 72.6133 41.6403 72.6365 41.582 72.6365C41.5237 72.6365 41.4678 72.6133 41.4265 72.5721C41.3853 72.5309 41.3621 72.475 41.3621 72.4167V70.2011L41.1491 70.333C41.0995 70.3636 41.0398 70.3732 40.9831 70.3598C40.9264 70.3465 40.8774 70.3111 40.8468 70.2615C40.8162 70.212 40.8065 70.1523 40.8199 70.0956C40.8333 70.0389 40.8687 69.9899 40.9182 69.9592L41.4654 69.6184C41.4989 69.5985 41.537 69.5877 41.576 69.5872C41.6149 69.5866 41.6533 69.5963 41.6873 69.6152C41.7214 69.6341 41.7499 69.6616 41.7699 69.695C41.79 69.7284 41.801 69.7664 41.8018 69.8054V72.4167Z" fill="#FAFAFA"/>
<path d="M39.6079 69.8965H41.8996" stroke="#191919" stroke-width="0.343756" stroke-linecap="round" stroke-linejoin="round"/>
<path d="M40.7539 71.0437V68.752" stroke="#191919" stroke-width="0.343756" stroke-linecap="round" stroke-linejoin="round"/>
</g>
<g clip-path="url(#clip1_8747_14595)">
<path d="M40.6389 9.43564C41.0078 9.43521 41.3615 9.28847 41.6223 9.02763C41.8832 8.76679 42.0299 8.41314 42.0303 8.04425V7.56277C41.1102 7.7361 40.1651 7.72938 39.2476 7.54297V8.04425C39.248 8.41314 39.3947 8.76679 39.6556 9.02763C39.9164 9.28847 40.2701 9.43521 40.6389 9.43564Z" fill="#FAFAFA"/>
<path d="M46.3389 12.1899L45.1979 9.79162C44.9827 9.34269 44.6036 8.99337 44.1386 8.81559L43.2679 8.48371C42.9234 8.38186 42.6719 7.97712 42.4698 7.70117V7.97855C42.4781 8.23439 42.4329 8.48914 42.3372 8.72654C42.2414 8.96394 42.0973 9.17878 41.9139 9.35734C41.7305 9.53591 41.5119 9.67428 41.272 9.76363C41.0321 9.85298 40.7762 9.89135 40.5207 9.87628C40.2652 9.86121 40.0156 9.79303 39.7879 9.67611C39.5602 9.55918 39.3594 9.39608 39.1982 9.19719C39.0371 8.9983 38.9192 8.76801 38.852 8.521C38.7849 8.274 38.7699 8.01571 38.8082 7.76261C38.6576 8.0521 38.4114 8.28046 38.1114 8.40881L37.2958 8.70129C36.8276 8.86688 36.4417 9.20712 36.2187 9.65079L34.9392 12.1899C34.9214 12.2284 34.9195 12.2723 34.9339 12.3122C34.9483 12.3521 34.9778 12.3847 35.0161 12.4029L36.7204 13.1779C36.7524 13.1925 36.7874 13.1992 36.8226 13.1975C36.8577 13.1957 36.8919 13.1856 36.9223 13.1679C36.9527 13.1501 36.9784 13.1254 36.9973 13.0957C37.0161 13.066 37.0276 13.0321 37.0306 12.9971L37.0933 12.2827C37.0998 12.2254 37.1285 12.1729 37.1731 12.1364C37.2178 12.1 37.2749 12.0823 37.3324 12.0874C37.3899 12.0924 37.4431 12.1197 37.4807 12.1634C37.5184 12.2071 37.5375 12.2637 37.5339 12.3213L37.0033 18.3534C37.0031 18.3963 37.0116 18.4387 37.0285 18.4781C37.0453 18.5175 37.07 18.553 37.1011 18.5825C37.1322 18.6119 37.1691 18.6347 37.2093 18.6494C37.2496 18.664 37.2924 18.6703 37.3351 18.6678H43.9604C44.0034 18.6703 44.0464 18.664 44.0868 18.6492C44.1272 18.6344 44.1641 18.6114 44.1953 18.5817C44.2264 18.552 44.2511 18.5162 44.2678 18.4766C44.2845 18.4369 44.2928 18.3942 44.2923 18.3512C44.1984 17.3445 43.8098 13.2394 43.7236 12.3225C43.7195 12.2652 43.738 12.2084 43.7752 12.1645C43.8123 12.1206 43.8652 12.093 43.9225 12.0876C43.9798 12.0822 44.0369 12.0995 44.0816 12.1357C44.1263 12.1719 44.155 12.2242 44.1617 12.2813L44.2284 12.9883C44.2317 13.0231 44.2432 13.0565 44.262 13.0859C44.2808 13.1153 44.3063 13.1398 44.3364 13.1574C44.3666 13.175 44.4005 13.1852 44.4353 13.1871C44.4701 13.189 44.5049 13.1826 44.5368 13.1683L46.2619 12.3987C46.2996 12.3809 46.3288 12.349 46.3432 12.3099C46.3576 12.2708 46.356 12.2278 46.3389 12.1899ZM40.2212 16.4167C40.2195 16.4738 40.1955 16.528 40.1545 16.5678C40.1135 16.6076 40.0586 16.6298 40.0015 16.6298C39.9443 16.6298 39.8894 16.6076 39.8484 16.5678C39.8074 16.528 39.7835 16.4738 39.7818 16.4167V14.2011L39.5685 14.333C39.519 14.3623 39.4599 14.3709 39.4041 14.3572C39.3482 14.3434 39.3 14.3082 39.2698 14.2593C39.2396 14.2103 39.2298 14.1515 39.2425 14.0954C39.2552 14.0392 39.2895 13.9904 39.3378 13.9592L39.885 13.6184C39.9185 13.5985 39.9566 13.5877 39.9956 13.5872C40.0345 13.5866 40.0729 13.5963 40.107 13.6152C40.141 13.6341 40.1695 13.6616 40.1896 13.695C40.2096 13.7284 40.2206 13.7664 40.2214 13.8054L40.2212 16.4167ZM41.8018 16.4167C41.8018 16.475 41.7786 16.5309 41.7374 16.5721C41.6962 16.6133 41.6403 16.6365 41.582 16.6365C41.5237 16.6365 41.4678 16.6133 41.4265 16.5721C41.3853 16.5309 41.3621 16.475 41.3621 16.4167V14.2011L41.1491 14.333C41.0995 14.3636 41.0398 14.3732 40.9831 14.3598C40.9264 14.3465 40.8774 14.3111 40.8468 14.2615C40.8162 14.212 40.8065 14.1523 40.8199 14.0956C40.8333 14.0389 40.8687 13.9899 40.9182 13.9592L41.4654 13.6184C41.4989 13.5985 41.537 13.5877 41.576 13.5872C41.6149 13.5866 41.6533 13.5963 41.6873 13.6152C41.7214 13.6341 41.7499 13.6616 41.7699 13.695C41.79 13.7284 41.801 13.7664 41.8018 13.8054V16.4167Z" fill="#FAFAFA"/>
<path d="M40.2212 16.4167C40.2195 16.4738 40.1955 16.528 40.1545 16.5678C40.1135 16.6076 40.0586 16.6298 40.0015 16.6298C39.9443 16.6298 39.8894 16.6076 39.8484 16.5678C39.8074 16.528 39.7835 16.4738 39.7818 16.4167V14.2011L39.5685 14.333C39.519 14.3623 39.4599 14.3709 39.4041 14.3572C39.3482 14.3434 39.3 14.3082 39.2698 14.2593C39.2396 14.2103 39.2298 14.1515 39.2425 14.0954C39.2552 14.0392 39.2895 13.9904 39.3378 13.9592L39.885 13.6184C39.9185 13.5985 39.9566 13.5877 39.9956 13.5872C40.0345 13.5866 40.0729 13.5963 40.107 13.6152C40.141 13.6341 40.1695 13.6616 40.1896 13.695C40.2096 13.7284 40.2206 13.7664 40.2214 13.8054L40.2212 16.4167Z" fill="#FAFAFA"/>
<path d="M41.8018 16.4167C41.8018 16.475 41.7786 16.5309 41.7374 16.5721C41.6962 16.6133 41.6403 16.6365 41.582 16.6365C41.5237 16.6365 41.4678 16.6133 41.4265 16.5721C41.3853 16.5309 41.3621 16.475 41.3621 16.4167V14.2011L41.1491 14.333C41.0995 14.3636 41.0398 14.3732 40.9831 14.3598C40.9264 14.3465 40.8774 14.3111 40.8468 14.2615C40.8162 14.212 40.8065 14.1523 40.8199 14.0956C40.8333 14.0389 40.8687 13.9899 40.9182 13.9592L41.4654 13.6184C41.4989 13.5985 41.537 13.5877 41.576 13.5872C41.6149 13.5866 41.6533 13.5963 41.6873 13.6152C41.7214 13.6341 41.7499 13.6616 41.7699 13.695C41.79 13.7284 41.801 13.7664 41.8018 13.8054V16.4167Z" fill="#FAFAFA"/>
<path d="M39.6079 13.8965H41.8996" stroke="#191919" stroke-width="0.343756" stroke-linecap="round" stroke-linejoin="round"/>
<path d="M40.7539 15.0437V12.752" stroke="#191919" stroke-width="0.343756" stroke-linecap="round" stroke-linejoin="round"/>
</g>
<g clip-path="url(#clip2_8747_14595)">
<path d="M15.6592 48.5372C16.0281 48.5368 16.3817 48.39 16.6426 48.1292C16.9034 47.8684 17.0502 47.5147 17.0506 47.1458V46.6643C16.1304 46.8377 15.1854 46.8309 14.2678 46.6445V47.1458C14.2683 47.5147 14.415 47.8684 14.6758 48.1292C14.9367 48.39 15.2903 48.5368 15.6592 48.5372Z" fill="#FAFAFA"/>
<path d="M21.3591 51.2914L20.2182 48.8932C20.003 48.4443 19.6239 48.0949 19.1589 47.9171L18.2881 47.5853C17.9436 47.4834 17.6922 47.0787 17.4901 46.8027V47.0801C17.4983 47.336 17.4531 47.5907 17.3574 47.8281C17.2617 48.0655 17.1175 48.2803 16.9341 48.4589C16.7507 48.6375 16.5321 48.7758 16.2922 48.8652C16.0524 48.9545 15.7965 48.9929 15.541 48.9778C15.2855 48.9628 15.0359 48.8946 14.8082 48.7777C14.5805 48.6607 14.3796 48.4976 14.2185 48.2988C14.0573 48.0999 13.9394 47.8696 13.8723 47.6226C13.8051 47.3756 13.7902 47.1173 13.8284 46.8642C13.6779 47.1537 13.4316 47.382 13.1316 47.5104L12.316 47.8029C11.8479 47.9684 11.4619 48.3087 11.239 48.7523L9.95942 51.2914C9.94165 51.3299 9.93976 51.3739 9.95417 51.4138C9.96857 51.4536 9.9981 51.4862 10.0364 51.5045L11.7406 52.2795C11.7727 52.2941 11.8077 52.3008 11.8429 52.2991C11.878 52.2973 11.9122 52.2871 11.9426 52.2694C11.973 52.2517 11.9987 52.2269 12.0175 52.1972C12.0364 52.1675 12.0478 52.1337 12.0509 52.0987L12.1135 51.3843C12.1201 51.327 12.1487 51.2745 12.1934 51.238C12.2381 51.2015 12.2952 51.1839 12.3527 51.1889C12.4101 51.194 12.4633 51.2212 12.501 51.2649C12.5386 51.3086 12.5577 51.3653 12.5542 51.4229L12.0235 57.455C12.0233 57.4978 12.0319 57.5403 12.0487 57.5797C12.0656 57.6191 12.0903 57.6546 12.1214 57.684C12.1525 57.7135 12.1893 57.7363 12.2296 57.7509C12.2698 57.7656 12.3126 57.7719 12.3554 57.7693H18.9807C19.0236 57.7719 19.0667 57.7655 19.1071 57.7507C19.1475 57.7359 19.1844 57.713 19.2155 57.6833C19.2467 57.6536 19.2713 57.6178 19.288 57.5781C19.3047 57.5385 19.3131 57.4958 19.3125 57.4528C19.2187 56.4461 18.83 52.3409 18.7439 51.4241C18.7398 51.3667 18.7583 51.31 18.7954 51.2661C18.8326 51.2222 18.8855 51.1946 18.9427 51.1892C19 51.1838 19.0571 51.2011 19.1018 51.2373C19.1465 51.2735 19.1753 51.3257 19.1819 51.3829L19.2487 52.0899C19.252 52.1246 19.2635 52.1581 19.2823 52.1875C19.301 52.2169 19.3266 52.2414 19.3567 52.259C19.3868 52.2766 19.4207 52.2868 19.4556 52.2886C19.4904 52.2905 19.5252 52.2841 19.5571 52.2699L21.2822 51.5002C21.3198 51.4824 21.349 51.4506 21.3634 51.4115C21.3778 51.3724 21.3763 51.3294 21.3591 51.2914ZM15.2415 55.5182C15.2397 55.5754 15.2158 55.6295 15.1748 55.6693C15.1338 55.7091 15.0789 55.7314 15.0217 55.7314C14.9646 55.7314 14.9097 55.7091 14.8687 55.6693C14.8277 55.6295 14.8038 55.5754 14.802 55.5182V53.3027L14.5887 53.4345C14.5392 53.4638 14.4802 53.4725 14.4243 53.4587C14.3685 53.4449 14.3203 53.4098 14.29 53.3608C14.2598 53.3119 14.25 53.253 14.2628 53.1969C14.2755 53.1408 14.3097 53.0919 14.3581 53.0608L14.9053 52.72C14.9388 52.7001 14.9769 52.6893 15.0158 52.6887C15.0548 52.6882 15.0932 52.6978 15.1272 52.7168C15.1613 52.7357 15.1897 52.7632 15.2098 52.7966C15.2299 52.8299 15.2409 52.868 15.2417 52.9069L15.2415 55.5182ZM16.8221 55.5182C16.8221 55.5765 16.7989 55.6325 16.7577 55.6737C16.7164 55.7149 16.6605 55.7381 16.6022 55.7381C16.5439 55.7381 16.488 55.7149 16.4468 55.6737C16.4056 55.6325 16.3824 55.5765 16.3824 55.5182V53.3027L16.1693 53.4345C16.1198 53.4651 16.0601 53.4748 16.0034 53.4614C15.9467 53.448 15.8977 53.4126 15.867 53.3631C15.8364 53.3135 15.8268 53.2538 15.8402 53.1972C15.8536 53.1405 15.8889 53.0914 15.9385 53.0608L16.4857 52.72C16.5192 52.7001 16.5573 52.6893 16.5962 52.6887C16.6352 52.6882 16.6736 52.6978 16.7076 52.7168C16.7416 52.7357 16.7701 52.7632 16.7902 52.7966C16.8103 52.8299 16.8213 52.868 16.8221 52.9069V55.5182Z" fill="#FAFAFA"/>
<path d="M15.2415 55.5182C15.2397 55.5754 15.2158 55.6295 15.1748 55.6693C15.1338 55.7091 15.0789 55.7314 15.0217 55.7314C14.9646 55.7314 14.9097 55.7091 14.8687 55.6693C14.8277 55.6295 14.8038 55.5754 14.802 55.5182V53.3027L14.5887 53.4345C14.5392 53.4638 14.4802 53.4725 14.4243 53.4587C14.3685 53.4449 14.3203 53.4098 14.29 53.3608C14.2598 53.3119 14.25 53.253 14.2628 53.1969C14.2755 53.1408 14.3097 53.0919 14.3581 53.0608L14.9053 52.72C14.9388 52.7001 14.9769 52.6893 15.0158 52.6887C15.0548 52.6882 15.0932 52.6978 15.1272 52.7168C15.1613 52.7357 15.1897 52.7632 15.2098 52.7966C15.2299 52.8299 15.2409 52.868 15.2417 52.9069L15.2415 55.5182Z" fill="#FAFAFA"/>
<path d="M16.8221 55.5182C16.8221 55.5765 16.7989 55.6325 16.7577 55.6737C16.7164 55.7149 16.6605 55.7381 16.6022 55.7381C16.5439 55.7381 16.488 55.7149 16.4468 55.6737C16.4056 55.6325 16.3824 55.5765 16.3824 55.5182V53.3027L16.1693 53.4345C16.1198 53.4651 16.0601 53.4748 16.0034 53.4614C15.9467 53.448 15.8977 53.4126 15.867 53.3631C15.8364 53.3135 15.8268 53.2538 15.8402 53.1972C15.8536 53.1405 15.8889 53.0914 15.9385 53.0608L16.4857 52.72C16.5192 52.7001 16.5573 52.6893 16.5962 52.6887C16.6352 52.6882 16.6736 52.6978 16.7076 52.7168C16.7416 52.7357 16.7701 52.7632 16.7902 52.7966C16.8103 52.8299 16.8213 52.868 16.8221 52.9069V55.5182Z" fill="#FAFAFA"/>
<path d="M14.6282 53.002H16.9199" stroke="#191919" stroke-width="0.343756" stroke-linecap="round" stroke-linejoin="round"/>
<path d="M15.7742 54.1491V51.8574" stroke="#191919" stroke-width="0.343756" stroke-linecap="round" stroke-linejoin="round"/>
</g>
<g clip-path="url(#clip3_8747_14595)">
<path d="M15.6592 28.5372C16.0281 28.5368 16.3817 28.39 16.6426 28.1292C16.9034 27.8684 17.0502 27.5147 17.0506 27.1458V26.6643C16.1304 26.8377 15.1854 26.8309 14.2678 26.6445V27.1458C14.2683 27.5147 14.415 27.8684 14.6758 28.1292C14.9367 28.39 15.2903 28.5368 15.6592 28.5372Z" fill="#FAFAFA"/>
<path d="M21.3591 31.2914L20.2182 28.8932C20.003 28.4443 19.6239 28.0949 19.1589 27.9171L18.2881 27.5853C17.9436 27.4834 17.6922 27.0787 17.4901 26.8027V27.0801C17.4983 27.336 17.4531 27.5907 17.3574 27.8281C17.2617 28.0655 17.1175 28.2803 16.9341 28.4589C16.7507 28.6375 16.5321 28.7758 16.2922 28.8652C16.0524 28.9545 15.7965 28.9929 15.541 28.9778C15.2855 28.9628 15.0359 28.8946 14.8082 28.7777C14.5805 28.6607 14.3796 28.4976 14.2185 28.2988C14.0573 28.0999 13.9394 27.8696 13.8723 27.6226C13.8051 27.3756 13.7902 27.1173 13.8284 26.8642C13.6779 27.1537 13.4316 27.382 13.1316 27.5104L12.316 27.8029C11.8479 27.9684 11.4619 28.3087 11.239 28.7523L9.95942 31.2914C9.94165 31.3299 9.93976 31.3739 9.95417 31.4138C9.96857 31.4536 9.9981 31.4862 10.0364 31.5045L11.7406 32.2795C11.7727 32.2941 11.8077 32.3008 11.8429 32.2991C11.878 32.2973 11.9122 32.2871 11.9426 32.2694C11.973 32.2517 11.9987 32.2269 12.0175 32.1972C12.0364 32.1675 12.0478 32.1337 12.0509 32.0987L12.1135 31.3843C12.1201 31.327 12.1487 31.2745 12.1934 31.238C12.2381 31.2015 12.2952 31.1839 12.3527 31.1889C12.4101 31.194 12.4633 31.2212 12.501 31.2649C12.5386 31.3086 12.5577 31.3653 12.5542 31.4229L12.0235 37.455C12.0233 37.4978 12.0319 37.5403 12.0487 37.5797C12.0656 37.6191 12.0903 37.6546 12.1214 37.684C12.1525 37.7135 12.1893 37.7363 12.2296 37.7509C12.2698 37.7656 12.3126 37.7719 12.3554 37.7693H18.9807C19.0236 37.7719 19.0667 37.7655 19.1071 37.7507C19.1475 37.7359 19.1844 37.713 19.2155 37.6833C19.2467 37.6536 19.2713 37.6178 19.288 37.5781C19.3047 37.5385 19.3131 37.4958 19.3125 37.4528C19.2187 36.4461 18.83 32.3409 18.7439 31.4241C18.7398 31.3667 18.7583 31.31 18.7954 31.2661C18.8326 31.2222 18.8855 31.1946 18.9427 31.1892C19 31.1838 19.0571 31.2011 19.1018 31.2373C19.1465 31.2735 19.1753 31.3257 19.1819 31.3829L19.2487 32.0899C19.252 32.1246 19.2635 32.1581 19.2823 32.1875C19.301 32.2169 19.3266 32.2414 19.3567 32.259C19.3868 32.2766 19.4207 32.2868 19.4556 32.2886C19.4904 32.2905 19.5252 32.2841 19.5571 32.2699L21.2822 31.5002C21.3198 31.4824 21.349 31.4506 21.3634 31.4115C21.3778 31.3724 21.3763 31.3294 21.3591 31.2914ZM15.2415 35.5182C15.2397 35.5754 15.2158 35.6295 15.1748 35.6693C15.1338 35.7091 15.0789 35.7314 15.0217 35.7314C14.9646 35.7314 14.9097 35.7091 14.8687 35.6693C14.8277 35.6295 14.8038 35.5754 14.802 35.5182V33.3027L14.5887 33.4345C14.5392 33.4638 14.4802 33.4725 14.4243 33.4587C14.3685 33.4449 14.3203 33.4098 14.29 33.3608C14.2598 33.3119 14.25 33.253 14.2628 33.1969C14.2755 33.1408 14.3097 33.0919 14.3581 33.0608L14.9053 32.72C14.9388 32.7001 14.9769 32.6893 15.0158 32.6887C15.0548 32.6882 15.0932 32.6978 15.1272 32.7168C15.1613 32.7357 15.1897 32.7632 15.2098 32.7966C15.2299 32.8299 15.2409 32.868 15.2417 32.9069L15.2415 35.5182ZM16.8221 35.5182C16.8221 35.5765 16.7989 35.6325 16.7577 35.6737C16.7164 35.7149 16.6605 35.7381 16.6022 35.7381C16.5439 35.7381 16.488 35.7149 16.4468 35.6737C16.4056 35.6325 16.3824 35.5765 16.3824 35.5182V33.3027L16.1693 33.4345C16.1198 33.4651 16.0601 33.4748 16.0034 33.4614C15.9467 33.448 15.8977 33.4126 15.867 33.3631C15.8364 33.3135 15.8268 33.2538 15.8402 33.1972C15.8536 33.1405 15.8889 33.0914 15.9385 33.0608L16.4857 32.72C16.5192 32.7001 16.5573 32.6893 16.5962 32.6887C16.6352 32.6882 16.6736 32.6978 16.7076 32.7168C16.7416 32.7357 16.7701 32.7632 16.7902 32.7966C16.8103 32.8299 16.8213 32.868 16.8221 32.9069V35.5182Z" fill="#FAFAFA"/>
<path d="M15.2415 35.5182C15.2397 35.5754 15.2158 35.6295 15.1748 35.6693C15.1338 35.7091 15.0789 35.7314 15.0217 35.7314C14.9646 35.7314 14.9097 35.7091 14.8687 35.6693C14.8277 35.6295 14.8038 35.5754 14.802 35.5182V33.3027L14.5887 33.4345C14.5392 33.4638 14.4802 33.4725 14.4243 33.4587C14.3685 33.4449 14.3203 33.4098 14.29 33.3608C14.2598 33.3119 14.25 33.253 14.2628 33.1969C14.2755 33.1408 14.3097 33.0919 14.3581 33.0608L14.9053 32.72C14.9388 32.7001 14.9769 32.6893 15.0158 32.6887C15.0548 32.6882 15.0932 32.6978 15.1272 32.7168C15.1613 32.7357 15.1897 32.7632 15.2098 32.7966C15.2299 32.8299 15.2409 32.868 15.2417 32.9069L15.2415 35.5182Z" fill="#FAFAFA"/>
<path d="M16.8221 35.5182C16.8221 35.5765 16.7989 35.6325 16.7577 35.6737C16.7164 35.7149 16.6605 35.7381 16.6022 35.7381C16.5439 35.7381 16.488 35.7149 16.4468 35.6737C16.4056 35.6325 16.3824 35.5765 16.3824 35.5182V33.3027L16.1693 33.4345C16.1198 33.4651 16.0601 33.4748 16.0034 33.4614C15.9467 33.448 15.8977 33.4126 15.867 33.3631C15.8364 33.3135 15.8268 33.2538 15.8402 33.1972C15.8536 33.1405 15.8889 33.0914 15.9385 33.0608L16.4857 32.72C16.5192 32.7001 16.5573 32.6893 16.5962 32.6887C16.6352 32.6882 16.6736 32.6978 16.7076 32.7168C16.7416 32.7357 16.7701 32.7632 16.7902 32.7966C16.8103 32.8299 16.8213 32.868 16.8221 32.9069V35.5182Z" fill="#FAFAFA"/>
<path d="M14.6282 33.002H16.9199" stroke="#191919" stroke-width="0.343756" stroke-linecap="round" stroke-linejoin="round"/>
<path d="M15.7742 34.1491V31.8574" stroke="#191919" stroke-width="0.343756" stroke-linecap="round" stroke-linejoin="round"/>
</g>
<g clip-path="url(#clip4_8747_14595)">
<path d="M65.3892 48.5372C65.7581 48.5368 66.1117 48.39 66.3726 48.1292C66.6334 47.8684 66.7801 47.5147 66.7806 47.1458V46.6643C65.8604 46.8377 64.9154 46.8309 63.9978 46.6445V47.1458C63.9982 47.5147 64.145 47.8684 64.4058 48.1292C64.6666 48.39 65.0203 48.5368 65.3892 48.5372Z" fill="#FAFAFA"/>
<path d="M71.0891 51.2914L69.9481 48.8932C69.733 48.4443 69.3538 48.0949 68.8888 47.9171L68.0181 47.5853C67.6736 47.4834 67.4221 47.0787 67.2201 46.8027V47.0801C67.2283 47.336 67.1831 47.5907 67.0874 47.8281C66.9917 48.0655 66.8475 48.2803 66.6641 48.4589C66.4807 48.6375 66.2621 48.7758 66.0222 48.8652C65.7824 48.9545 65.5265 48.9929 65.271 48.9778C65.0154 48.9628 64.7659 48.8946 64.5381 48.7777C64.3104 48.6607 64.1096 48.4976 63.9485 48.2988C63.7873 48.0999 63.6694 47.8696 63.6023 47.6226C63.5351 47.3756 63.5202 47.1173 63.5584 46.8642C63.4079 47.1537 63.1616 47.382 62.8616 47.5104L62.046 47.8029C61.5779 47.9684 61.1919 48.3087 60.9689 48.7523L59.6894 51.2914C59.6716 51.3299 59.6697 51.3739 59.6841 51.4138C59.6985 51.4536 59.7281 51.4862 59.7663 51.5045L61.4706 52.2795C61.5026 52.2941 61.5377 52.3008 61.5728 52.2991C61.608 52.2973 61.6422 52.2871 61.6726 52.2694C61.703 52.2517 61.7287 52.2269 61.7475 52.1972C61.7664 52.1675 61.7778 52.1337 61.7809 52.0987L61.8435 51.3843C61.8501 51.327 61.8787 51.2745 61.9234 51.238C61.968 51.2015 62.0252 51.1839 62.0827 51.1889C62.1401 51.194 62.1933 51.2212 62.231 51.2649C62.2686 51.3086 62.2877 51.3653 62.2842 51.4229L61.7535 57.455C61.7533 57.4978 61.7619 57.5403 61.7787 57.5797C61.7955 57.6191 61.8203 57.6546 61.8514 57.684C61.8825 57.7135 61.9193 57.7363 61.9595 57.7509C61.9998 57.7656 62.0426 57.7719 62.0854 57.7693H68.7107C68.7536 57.7719 68.7966 57.7655 68.837 57.7507C68.8774 57.7359 68.9144 57.713 68.9455 57.6833C68.9766 57.6536 69.0013 57.6178 69.018 57.5781C69.0347 57.5385 69.0431 57.4958 69.0425 57.4528C68.9486 56.4461 68.56 52.3409 68.4739 51.4241C68.4698 51.3667 68.4882 51.31 68.5254 51.2661C68.5626 51.2222 68.6155 51.1946 68.6727 51.1892C68.73 51.1838 68.7871 51.2011 68.8318 51.2373C68.8765 51.2735 68.9053 51.3257 68.9119 51.3829L68.9786 52.0899C68.9819 52.1246 68.9934 52.1581 69.0122 52.1875C69.031 52.2169 69.0565 52.2414 69.0867 52.259C69.1168 52.2766 69.1507 52.2868 69.1855 52.2886C69.2204 52.2905 69.2552 52.2841 69.287 52.2699L71.0121 51.5002C71.0498 51.4824 71.079 51.4506 71.0934 51.4115C71.1078 51.3724 71.1063 51.3294 71.0891 51.2914ZM64.9714 55.5182C64.9697 55.5754 64.9458 55.6295 64.9048 55.6693C64.8638 55.7091 64.8089 55.7314 64.7517 55.7314C64.6946 55.7314 64.6397 55.7091 64.5987 55.6693C64.5577 55.6295 64.5337 55.5754 64.532 55.5182V53.3027L64.3187 53.4345C64.2692 53.4638 64.2102 53.4725 64.1543 53.4587C64.0985 53.4449 64.0502 53.4098 64.02 53.3608C63.9898 53.3119 63.98 53.253 63.9927 53.1969C64.0055 53.1408 64.0397 53.0919 64.0881 53.0608L64.6353 52.72C64.6688 52.7001 64.7069 52.6893 64.7458 52.6887C64.7848 52.6882 64.8232 52.6978 64.8572 52.7168C64.8912 52.7357 64.9197 52.7632 64.9398 52.7966C64.9599 52.8299 64.9709 52.868 64.9716 52.9069L64.9714 55.5182ZM66.552 55.5182C66.552 55.5765 66.5289 55.6325 66.4877 55.6737C66.4464 55.7149 66.3905 55.7381 66.3322 55.7381C66.2739 55.7381 66.218 55.7149 66.1768 55.6737C66.1356 55.6325 66.1124 55.5765 66.1124 55.5182V53.3027L65.8993 53.4345C65.8497 53.4651 65.7901 53.4748 65.7334 53.4614C65.6767 53.448 65.6276 53.4126 65.597 53.3631C65.5664 53.3135 65.5567 53.2538 65.5701 53.1972C65.5835 53.1405 65.6189 53.0914 65.6685 53.0608L66.2157 52.72C66.2492 52.7001 66.2873 52.6893 66.3262 52.6887C66.3651 52.6882 66.4035 52.6978 66.4376 52.7168C66.4716 52.7357 66.5001 52.7632 66.5202 52.7966C66.5403 52.8299 66.5513 52.868 66.552 52.9069V55.5182Z" fill="#FAFAFA"/>
<path d="M64.9714 55.5182C64.9697 55.5754 64.9458 55.6295 64.9048 55.6693C64.8638 55.7091 64.8089 55.7314 64.7517 55.7314C64.6946 55.7314 64.6397 55.7091 64.5987 55.6693C64.5577 55.6295 64.5337 55.5754 64.532 55.5182V53.3027L64.3187 53.4345C64.2692 53.4638 64.2102 53.4725 64.1543 53.4587C64.0985 53.4449 64.0502 53.4098 64.02 53.3608C63.9898 53.3119 63.98 53.253 63.9927 53.1969C64.0055 53.1408 64.0397 53.0919 64.0881 53.0608L64.6353 52.72C64.6688 52.7001 64.7069 52.6893 64.7458 52.6887C64.7848 52.6882 64.8232 52.6978 64.8572 52.7168C64.8912 52.7357 64.9197 52.7632 64.9398 52.7966C64.9599 52.8299 64.9709 52.868 64.9716 52.9069L64.9714 55.5182Z" fill="#FAFAFA"/>
<path d="M66.552 55.5182C66.552 55.5765 66.5289 55.6325 66.4877 55.6737C66.4464 55.7149 66.3905 55.7381 66.3322 55.7381C66.2739 55.7381 66.218 55.7149 66.1768 55.6737C66.1356 55.6325 66.1124 55.5765 66.1124 55.5182V53.3027L65.8993 53.4345C65.8497 53.4651 65.7901 53.4748 65.7334 53.4614C65.6767 53.448 65.6276 53.4126 65.597 53.3631C65.5664 53.3135 65.5567 53.2538 65.5701 53.1972C65.5835 53.1405 65.6189 53.0914 65.6685 53.0608L66.2157 52.72C66.2492 52.7001 66.2873 52.6893 66.3262 52.6887C66.3651 52.6882 66.4035 52.6978 66.4376 52.7168C66.4716 52.7357 66.5001 52.7632 66.5202 52.7966C66.5403 52.8299 66.5513 52.868 66.552 52.9069V55.5182Z" fill="#FAFAFA"/>
<path d="M64.3582 53.002H66.6499" stroke="#191919" stroke-width="0.343756" stroke-linecap="round" stroke-linejoin="round"/>
<path d="M65.5042 54.1491V51.8574" stroke="#191919" stroke-width="0.343756" stroke-linecap="round" stroke-linejoin="round"/>
</g>
<g clip-path="url(#clip5_8747_14595)">
<path d="M65.3892 28.5372C65.7581 28.5368 66.1117 28.39 66.3726 28.1292C66.6334 27.8684 66.7801 27.5147 66.7806 27.1458V26.6643C65.8604 26.8377 64.9154 26.8309 63.9978 26.6445V27.1458C63.9982 27.5147 64.145 27.8684 64.4058 28.1292C64.6666 28.39 65.0203 28.5368 65.3892 28.5372Z" fill="#FAFAFA"/>
<path d="M71.0891 31.2914L69.9481 28.8932C69.733 28.4443 69.3538 28.0949 68.8888 27.9171L68.0181 27.5853C67.6736 27.4834 67.4221 27.0787 67.2201 26.8027V27.0801C67.2283 27.336 67.1831 27.5907 67.0874 27.8281C66.9917 28.0655 66.8475 28.2803 66.6641 28.4589C66.4807 28.6375 66.2621 28.7758 66.0222 28.8652C65.7824 28.9545 65.5265 28.9929 65.271 28.9778C65.0154 28.9628 64.7659 28.8946 64.5381 28.7777C64.3104 28.6607 64.1096 28.4976 63.9485 28.2988C63.7873 28.0999 63.6694 27.8696 63.6023 27.6226C63.5351 27.3756 63.5202 27.1173 63.5584 26.8642C63.4079 27.1537 63.1616 27.382 62.8616 27.5104L62.046 27.8029C61.5779 27.9684 61.1919 28.3087 60.9689 28.7523L59.6894 31.2914C59.6716 31.3299 59.6697 31.3739 59.6841 31.4138C59.6985 31.4536 59.7281 31.4862 59.7663 31.5045L61.4706 32.2795C61.5026 32.2941 61.5377 32.3008 61.5728 32.2991C61.608 32.2973 61.6422 32.2871 61.6726 32.2694C61.703 32.2517 61.7287 32.2269 61.7475 32.1972C61.7664 32.1675 61.7778 32.1337 61.7809 32.0987L61.8435 31.3843C61.8501 31.327 61.8787 31.2745 61.9234 31.238C61.968 31.2015 62.0252 31.1839 62.0827 31.1889C62.1401 31.194 62.1933 31.2212 62.231 31.2649C62.2686 31.3086 62.2877 31.3653 62.2842 31.4229L61.7535 37.455C61.7533 37.4978 61.7619 37.5403 61.7787 37.5797C61.7955 37.6191 61.8203 37.6546 61.8514 37.684C61.8825 37.7135 61.9193 37.7363 61.9595 37.7509C61.9998 37.7656 62.0426 37.7719 62.0854 37.7693H68.7107C68.7536 37.7719 68.7966 37.7655 68.837 37.7507C68.8774 37.7359 68.9144 37.713 68.9455 37.6833C68.9766 37.6536 69.0013 37.6178 69.018 37.5781C69.0347 37.5385 69.0431 37.4958 69.0425 37.4528C68.9486 36.4461 68.56 32.3409 68.4739 31.4241C68.4698 31.3667 68.4882 31.31 68.5254 31.2661C68.5626 31.2222 68.6155 31.1946 68.6727 31.1892C68.73 31.1838 68.7871 31.2011 68.8318 31.2373C68.8765 31.2735 68.9053 31.3257 68.9119 31.3829L68.9786 32.0899C68.9819 32.1246 68.9934 32.1581 69.0122 32.1875C69.031 32.2169 69.0565 32.2414 69.0867 32.259C69.1168 32.2766 69.1507 32.2868 69.1855 32.2886C69.2204 32.2905 69.2552 32.2841 69.287 32.2699L71.0121 31.5002C71.0498 31.4824 71.079 31.4506 71.0934 31.4115C71.1078 31.3724 71.1063 31.3294 71.0891 31.2914ZM64.9714 35.5182C64.9697 35.5754 64.9458 35.6295 64.9048 35.6693C64.8638 35.7091 64.8089 35.7314 64.7517 35.7314C64.6946 35.7314 64.6397 35.7091 64.5987 35.6693C64.5577 35.6295 64.5337 35.5754 64.532 35.5182V33.3027L64.3187 33.4345C64.2692 33.4638 64.2102 33.4725 64.1543 33.4587C64.0985 33.4449 64.0502 33.4098 64.02 33.3608C63.9898 33.3119 63.98 33.253 63.9927 33.1969C64.0055 33.1408 64.0397 33.0919 64.0881 33.0608L64.6353 32.72C64.6688 32.7001 64.7069 32.6893 64.7458 32.6887C64.7848 32.6882 64.8232 32.6978 64.8572 32.7168C64.8912 32.7357 64.9197 32.7632 64.9398 32.7966C64.9599 32.8299 64.9709 32.868 64.9716 32.9069L64.9714 35.5182ZM66.552 35.5182C66.552 35.5765 66.5289 35.6325 66.4877 35.6737C66.4464 35.7149 66.3905 35.7381 66.3322 35.7381C66.2739 35.7381 66.218 35.7149 66.1768 35.6737C66.1356 35.6325 66.1124 35.5765 66.1124 35.5182V33.3027L65.8993 33.4345C65.8497 33.4651 65.7901 33.4748 65.7334 33.4614C65.6767 33.448 65.6276 33.4126 65.597 33.3631C65.5664 33.3135 65.5567 33.2538 65.5701 33.1972C65.5835 33.1405 65.6189 33.0914 65.6685 33.0608L66.2157 32.72C66.2492 32.7001 66.2873 32.6893 66.3262 32.6887C66.3651 32.6882 66.4035 32.6978 66.4376 32.7168C66.4716 32.7357 66.5001 32.7632 66.5202 32.7966C66.5403 32.8299 66.5513 32.868 66.552 32.9069V35.5182Z" fill="#FAFAFA"/>
<path d="M64.9714 35.5182C64.9697 35.5754 64.9458 35.6295 64.9048 35.6693C64.8638 35.7091 64.8089 35.7314 64.7517 35.7314C64.6946 35.7314 64.6397 35.7091 64.5987 35.6693C64.5577 35.6295 64.5337 35.5754 64.532 35.5182V33.3027L64.3187 33.4345C64.2692 33.4638 64.2102 33.4725 64.1543 33.4587C64.0985 33.4449 64.0502 33.4098 64.02 33.3608C63.9898 33.3119 63.98 33.253 63.9927 33.1969C64.0055 33.1408 64.0397 33.0919 64.0881 33.0608L64.6353 32.72C64.6688 32.7001 64.7069 32.6893 64.7458 32.6887C64.7848 32.6882 64.8232 32.6978 64.8572 32.7168C64.8912 32.7357 64.9197 32.7632 64.9398 32.7966C64.9599 32.8299 64.9709 32.868 64.9716 32.9069L64.9714 35.5182Z" fill="#FAFAFA"/>
<path d="M66.552 35.5182C66.552 35.5765 66.5289 35.6325 66.4877 35.6737C66.4464 35.7149 66.3905 35.7381 66.3322 35.7381C66.2739 35.7381 66.218 35.7149 66.1768 35.6737C66.1356 35.6325 66.1124 35.5765 66.1124 35.5182V33.3027L65.8993 33.4345C65.8497 33.4651 65.7901 33.4748 65.7334 33.4614C65.6767 33.448 65.6276 33.4126 65.597 33.3631C65.5664 33.3135 65.5567 33.2538 65.5701 33.1972C65.5835 33.1405 65.6189 33.0914 65.6685 33.0608L66.2157 32.72C66.2492 32.7001 66.2873 32.6893 66.3262 32.6887C66.3651 32.6882 66.4035 32.6978 66.4376 32.7168C66.4716 32.7357 66.5001 32.7632 66.5202 32.7966C66.5403 32.8299 66.5513 32.868 66.552 32.9069V35.5182Z" fill="#FAFAFA"/>
<path d="M64.3582 33.002H66.6499" stroke="#191919" stroke-width="0.343756" stroke-linecap="round" stroke-linejoin="round"/>
<path d="M65.5042 34.1491V31.8574" stroke="#191919" stroke-width="0.343756" stroke-linecap="round" stroke-linejoin="round"/>
</g>
<defs>
<clipPath id="clip0_8747_14595">
<rect width="13.0627" height="13.0627" fill="white" transform="translate(34.1079 62.5645)"/>
</clipPath>
<clipPath id="clip1_8747_14595">
<rect width="13.0627" height="13.0627" fill="white" transform="translate(34.1079 6.56445)"/>
</clipPath>
<clipPath id="clip2_8747_14595">
<rect width="13.0627" height="13.0627" fill="white" transform="translate(9.12817 45.6699)"/>
</clipPath>
<clipPath id="clip3_8747_14595">
<rect width="13.0627" height="13.0627" fill="white" transform="translate(9.12817 25.6699)"/>
</clipPath>
<clipPath id="clip4_8747_14595">
<rect width="13.0627" height="13.0627" fill="white" transform="translate(58.8582 45.6699)"/>
</clipPath>
<clipPath id="clip5_8747_14595">
<rect width="13.0627" height="13.0627" fill="white" transform="translate(58.8582 25.6699)"/>
</clipPath>
</defs>
</svg>
