<svg width="82" height="81" viewBox="0 0 82 81" fill="none" xmlns="http://www.w3.org/2000/svg">
<rect x="0.953941" y="0.118492" width="79.9807" height="79.9807" rx="5.88541" fill="#828284" stroke="#FAFAFA" stroke-width="0.229171"/>
<mask id="path-2-inside-1_8747_14634" fill="white">
<path d="M24.6731 66.4609H57.2154V80.2112H24.6731V66.4609Z"/>
</mask>
<path d="M24.6731 66.4609V66.2318H24.4439V66.4609H24.6731ZM57.2154 66.4609H57.4445V66.2318H57.2154V66.4609ZM24.6731 66.6901H57.2154V66.2318H24.6731V66.6901ZM56.9862 66.4609V80.2112H57.4445V66.4609H56.9862ZM24.9023 80.2112V66.4609H24.4439V80.2112H24.9023Z" fill="#FAFAFA" mask="url(#path-2-inside-1_8747_14634)"/>
<mask id="path-4-inside-2_8747_14634" fill="white">
<path d="M13.4438 55.0039H68.4449V80.2127H13.4438V55.0039Z"/>
</mask>
<path d="M13.4438 55.0039V54.7747H13.2147V55.0039H13.4438ZM68.4449 55.0039H68.674V54.7747H68.4449V55.0039ZM13.4438 55.2331H68.4449V54.7747H13.4438V55.2331ZM68.2157 55.0039V80.2127H68.674V55.0039H68.2157ZM13.673 80.2127V55.0039H13.2147V80.2127H13.673Z" fill="#FAFAFA" mask="url(#path-4-inside-2_8747_14634)"/>
<path d="M55.1528 9.53674e-07C55.1528 1.65523 54.7675 3.29426 54.0189 4.8235C53.2703 6.35273 52.1731 7.74223 50.7899 8.91266C49.4066 10.0831 47.7645 11.0115 45.9572 11.645C44.1499 12.2784 42.2129 12.6044 40.2567 12.6044C38.3005 12.6044 36.3635 12.2784 34.5562 11.645C32.7489 11.0115 31.1068 10.0831 29.7236 8.91266C28.3403 7.74223 27.2431 6.35273 26.4945 4.8235C25.7459 3.29426 25.3606 1.65523 25.3606 0" stroke="#FAFAFA" stroke-width="0.229171"/>
<path d="M30.6314 57.9824C30.6314 57.0796 30.8982 56.1856 31.4165 55.3514C31.9347 54.5173 32.6943 53.7594 33.652 53.121C34.6096 52.4826 35.7465 51.9761 36.9976 51.6306C38.2488 51.2851 39.5899 51.1073 40.9441 51.1073C42.2984 51.1073 43.6394 51.2851 44.8906 51.6306C46.1418 51.9761 47.2787 52.4826 48.2363 53.121C49.1939 53.7594 49.9536 54.5173 50.4718 55.3514C50.9901 56.1856 51.2568 57.0796 51.2568 57.9824" stroke="#FAFAFA" stroke-width="0.229171"/>
<rect x="28.3398" y="55.2305" width="26.1255" height="3.89591" fill="#828284"/>
<path d="M1.06836 76.5479C2.18489 76.4958 4.38882 77.1099 4.27231 79.9825" stroke="#FAFAFA" stroke-width="0.229171"/>
<path d="M80.8198 76.5479C79.7033 76.4958 77.4994 77.1099 77.6159 79.9825" stroke="#FAFAFA" stroke-width="0.229171"/>
<path d="M41.0584 67.4356C41.4273 67.4352 41.7809 67.2885 42.0418 67.0276C42.3026 66.7668 42.4493 66.4131 42.4498 66.0443V65.5628C41.5296 65.7361 40.5846 65.7294 39.667 65.543V66.0443C39.6674 66.4131 39.8142 66.7668 40.075 67.0276C40.3358 67.2885 40.6895 67.4352 41.0584 67.4356Z" fill="#FAFAFA"/>
<path d="M46.7583 70.1899L45.6173 67.7916C45.4022 67.3427 45.023 66.9934 44.558 66.8156L43.6873 66.4837C43.3428 66.3819 43.0913 65.9771 42.8893 65.7012V65.9786C42.8975 66.2344 42.8523 66.4891 42.7566 66.7265C42.6609 66.9639 42.5167 67.1788 42.3333 67.3573C42.1499 67.5359 41.9313 67.6743 41.6914 67.7636C41.4515 67.853 41.1957 67.8913 40.9402 67.8763C40.6846 67.8612 40.435 67.793 40.2073 67.6761C39.9796 67.5592 39.7788 67.3961 39.6177 67.1972C39.4565 66.9983 39.3386 66.768 39.2714 66.521C39.2043 66.274 39.1894 66.0157 39.2276 65.7626C39.077 66.0521 38.8308 66.2805 38.5308 66.4088L37.7152 66.7013C37.2471 66.8669 36.8611 67.2071 36.6381 67.6508L35.3586 70.1899C35.3408 70.2284 35.3389 70.2723 35.3533 70.3122C35.3677 70.3521 35.3973 70.3847 35.4355 70.4029L37.1398 71.1779C37.1718 71.1925 37.2069 71.1992 37.242 71.1975C37.2772 71.1957 37.3114 71.1856 37.3418 71.1679C37.3722 71.1501 37.3979 71.1254 37.4167 71.0957C37.4356 71.066 37.447 71.0321 37.4501 70.9971L37.5127 70.2827C37.5193 70.2254 37.5479 70.1729 37.5926 70.1364C37.6372 70.1 37.6944 70.0823 37.7518 70.0874C37.8093 70.0924 37.8625 70.1197 37.9002 70.1634C37.9378 70.2071 37.9569 70.2637 37.9534 70.3213L37.4227 76.3534C37.4225 76.3963 37.4311 76.4387 37.4479 76.4781C37.4647 76.5175 37.4895 76.553 37.5206 76.5825C37.5517 76.6119 37.5885 76.6347 37.6287 76.6494C37.669 76.664 37.7118 76.6703 37.7546 76.6678H44.3798C44.4228 76.6703 44.4658 76.664 44.5062 76.6492C44.5466 76.6344 44.5836 76.6114 44.6147 76.5817C44.6458 76.552 44.6705 76.5162 44.6872 76.4766C44.7039 76.4369 44.7122 76.3942 44.7117 76.3512C44.6178 75.3445 44.2292 71.2394 44.1431 70.3225C44.1389 70.2652 44.1574 70.2084 44.1946 70.1645C44.2318 70.1206 44.2846 70.093 44.3419 70.0876C44.3992 70.0822 44.4563 70.0995 44.501 70.1357C44.5457 70.1719 44.5745 70.2242 44.5811 70.2813L44.6478 70.9883C44.6511 71.0231 44.6626 71.0565 44.6814 71.0859C44.7002 71.1153 44.7257 71.1398 44.7559 71.1574C44.786 71.175 44.8199 71.1852 44.8547 71.1871C44.8896 71.189 44.9244 71.1826 44.9562 71.1683L46.6813 70.3987C46.719 70.3809 46.7482 70.349 46.7626 70.3099C46.777 70.2708 46.7754 70.2278 46.7583 70.1899ZM40.6406 74.4167C40.6389 74.4738 40.615 74.528 40.574 74.5678C40.533 74.6076 40.4781 74.6298 40.4209 74.6298C40.3638 74.6298 40.3089 74.6076 40.2679 74.5678C40.2268 74.528 40.2029 74.4738 40.2012 74.4167V72.2011L39.9879 72.333C39.9384 72.3623 39.8794 72.3709 39.8235 72.3572C39.7676 72.3434 39.7194 72.3082 39.6892 72.2593C39.659 72.2103 39.6492 72.1515 39.6619 72.0954C39.6747 72.0392 39.7089 71.9904 39.7573 71.9592L40.3045 71.6184C40.338 71.5985 40.3761 71.5877 40.415 71.5872C40.4539 71.5866 40.4923 71.5963 40.5264 71.6152C40.5604 71.6341 40.5889 71.6616 40.609 71.695C40.6291 71.7284 40.6401 71.7664 40.6408 71.8054L40.6406 74.4167ZM42.2212 74.4167C42.2212 74.475 42.1981 74.5309 42.1568 74.5721C42.1156 74.6133 42.0597 74.6365 42.0014 74.6365C41.9431 74.6365 41.8872 74.6133 41.846 74.5721C41.8047 74.5309 41.7816 74.475 41.7816 74.4167V72.2011L41.5685 72.333C41.5189 72.3636 41.4592 72.3732 41.4026 72.3598C41.3459 72.3465 41.2968 72.3111 41.2662 72.2615C41.2356 72.212 41.2259 72.1523 41.2393 72.0956C41.2527 72.0389 41.2881 71.9899 41.3377 71.9592L41.8849 71.6184C41.9183 71.5985 41.9565 71.5877 41.9954 71.5872C42.0343 71.5866 42.0727 71.5963 42.1068 71.6152C42.1408 71.6341 42.1693 71.6616 42.1894 71.695C42.2095 71.7284 42.2204 71.7664 42.2212 71.8054V74.4167Z" fill="#FAFAFA"/>
<path d="M40.6406 74.4167C40.6389 74.4738 40.615 74.528 40.574 74.5678C40.533 74.6076 40.4781 74.6298 40.4209 74.6298C40.3638 74.6298 40.3089 74.6076 40.2679 74.5678C40.2268 74.528 40.2029 74.4738 40.2012 74.4167V72.2011L39.9879 72.333C39.9384 72.3623 39.8794 72.3709 39.8235 72.3572C39.7676 72.3434 39.7194 72.3082 39.6892 72.2593C39.659 72.2103 39.6492 72.1515 39.6619 72.0954C39.6747 72.0392 39.7089 71.9904 39.7573 71.9592L40.3045 71.6184C40.338 71.5985 40.3761 71.5877 40.415 71.5872C40.4539 71.5866 40.4923 71.5963 40.5264 71.6152C40.5604 71.6341 40.5889 71.6616 40.609 71.695C40.6291 71.7284 40.6401 71.7664 40.6408 71.8054L40.6406 74.4167Z" fill="#FAFAFA"/>
<path d="M42.2212 74.4167C42.2212 74.475 42.1981 74.5309 42.1568 74.5721C42.1156 74.6133 42.0597 74.6365 42.0014 74.6365C41.9431 74.6365 41.8872 74.6133 41.846 74.5721C41.8047 74.5309 41.7816 74.475 41.7816 74.4167V72.2011L41.5685 72.333C41.5189 72.3636 41.4592 72.3732 41.4026 72.3598C41.3459 72.3465 41.2968 72.3111 41.2662 72.2615C41.2356 72.212 41.2259 72.1523 41.2393 72.0956C41.2527 72.0389 41.2881 71.9899 41.3377 71.9592L41.8849 71.6184C41.9183 71.5985 41.9565 71.5877 41.9954 71.5872C42.0343 71.5866 42.0727 71.5963 42.1068 71.6152C42.1408 71.6341 42.1693 71.6616 42.1894 71.695C42.2095 71.7284 42.2204 71.7664 42.2212 71.8054V74.4167Z" fill="#FAFAFA"/>
<path d="M40.0273 71.8965H42.3191" stroke="#191919" stroke-width="0.343756" stroke-linecap="round" stroke-linejoin="round"/>
<path d="M41.1733 73.0437V70.752" stroke="#191919" stroke-width="0.343756" stroke-linecap="round" stroke-linejoin="round"/>
<path d="M30.0789 25.5372C30.4478 25.5368 30.8014 25.39 31.0623 25.1292C31.3231 24.8684 31.4698 24.5147 31.4703 24.1458V23.6643C30.5501 23.8377 29.6051 23.8309 28.6875 23.6445V24.1458C28.6879 24.5147 28.8347 24.8684 29.0955 25.1292C29.3563 25.39 29.71 25.5368 30.0789 25.5372Z" fill="#FAFAFA"/>
<path d="M35.7788 28.2914L34.6378 25.8932C34.4227 25.4443 34.0435 25.0949 33.5785 24.9171L32.7078 24.5853C32.3633 24.4834 32.1118 24.0787 31.9098 23.8027V24.0801C31.918 24.336 31.8728 24.5907 31.7771 24.8281C31.6814 25.0655 31.5372 25.2803 31.3538 25.4589C31.1704 25.6375 30.9518 25.7758 30.7119 25.8652C30.4721 25.9545 30.2162 25.9929 29.9607 25.9778C29.7051 25.9628 29.4556 25.8946 29.2278 25.7777C29.0001 25.6607 28.7993 25.4976 28.6382 25.2988C28.477 25.0999 28.3591 24.8696 28.292 24.6226C28.2248 24.3756 28.2099 24.1173 28.2481 23.8642C28.0976 24.1537 27.8513 24.382 27.5513 24.5104L26.7357 24.8029C26.2676 24.9684 25.8816 25.3087 25.6586 25.7523L24.3791 28.2914C24.3613 28.3299 24.3594 28.3739 24.3738 28.4138C24.3882 28.4536 24.4178 28.4862 24.456 28.5045L26.1603 29.2795C26.1923 29.2941 26.2274 29.3008 26.2625 29.2991C26.2977 29.2973 26.3319 29.2871 26.3623 29.2694C26.3927 29.2517 26.4184 29.2269 26.4372 29.1972C26.4561 29.1675 26.4675 29.1337 26.4706 29.0987L26.5332 28.3843C26.5398 28.327 26.5684 28.2745 26.6131 28.238C26.6577 28.2015 26.7149 28.1839 26.7723 28.1889C26.8298 28.194 26.883 28.2212 26.9207 28.2649C26.9583 28.3086 26.9774 28.3653 26.9739 28.4229L26.4432 34.455C26.443 34.4978 26.4516 34.5403 26.4684 34.5797C26.4852 34.6191 26.51 34.6546 26.5411 34.684C26.5722 34.7135 26.609 34.7363 26.6492 34.7509C26.6895 34.7656 26.7323 34.7719 26.7751 34.7693H33.4004C33.4433 34.7719 33.4863 34.7655 33.5267 34.7507C33.5671 34.7359 33.6041 34.713 33.6352 34.6833C33.6663 34.6536 33.691 34.6178 33.7077 34.5781C33.7244 34.5385 33.7328 34.4958 33.7322 34.4528C33.6383 33.4461 33.2497 29.3409 33.1636 28.4241C33.1595 28.3667 33.1779 28.31 33.2151 28.2661C33.2523 28.2222 33.3052 28.1946 33.3624 28.1892C33.4197 28.1838 33.4768 28.2011 33.5215 28.2373C33.5662 28.2735 33.595 28.3257 33.6016 28.3829L33.6683 29.0899C33.6716 29.1246 33.6831 29.1581 33.7019 29.1875C33.7207 29.2169 33.7462 29.2414 33.7764 29.259C33.8065 29.2766 33.8404 29.2868 33.8752 29.2886C33.9101 29.2905 33.9449 29.2841 33.9767 29.2699L35.7018 28.5002C35.7395 28.4824 35.7687 28.4506 35.7831 28.4115C35.7975 28.3724 35.7959 28.3294 35.7788 28.2914ZM29.6611 32.5182C29.6594 32.5754 29.6355 32.6295 29.5945 32.6693C29.5535 32.7091 29.4986 32.7314 29.4414 32.7314C29.3843 32.7314 29.3294 32.7091 29.2884 32.6693C29.2474 32.6295 29.2234 32.5754 29.2217 32.5182V30.3027L29.0084 30.4345C28.9589 30.4638 28.8999 30.4725 28.844 30.4587C28.7882 30.4449 28.7399 30.4098 28.7097 30.3608C28.6795 30.3119 28.6697 30.253 28.6824 30.1969C28.6952 30.1408 28.7294 30.0919 28.7778 30.0608L29.325 29.72C29.3585 29.7001 29.3966 29.6893 29.4355 29.6887C29.4745 29.6882 29.5129 29.6978 29.5469 29.7168C29.5809 29.7357 29.6094 29.7632 29.6295 29.7966C29.6496 29.8299 29.6606 29.868 29.6613 29.9069L29.6611 32.5182ZM31.2417 32.5182C31.2417 32.5765 31.2186 32.6325 31.1773 32.6737C31.1361 32.7149 31.0802 32.7381 31.0219 32.7381C30.9636 32.7381 30.9077 32.7149 30.8665 32.6737C30.8253 32.6325 30.8021 32.5765 30.8021 32.5182V30.3027L30.589 30.4345C30.5394 30.4651 30.4798 30.4748 30.4231 30.4614C30.3664 30.448 30.3173 30.4126 30.2867 30.3631C30.2561 30.3135 30.2464 30.2538 30.2598 30.1972C30.2732 30.1405 30.3086 30.0914 30.3582 30.0608L30.9054 29.72C30.9388 29.7001 30.977 29.6893 31.0159 29.6887C31.0548 29.6882 31.0932 29.6978 31.1273 29.7168C31.1613 29.7357 31.1898 29.7632 31.2099 29.7966C31.23 29.8299 31.2409 29.868 31.2417 29.9069V32.5182Z" fill="#FAFAFA"/>
<path d="M29.6611 32.5182C29.6594 32.5754 29.6355 32.6295 29.5945 32.6693C29.5535 32.7091 29.4986 32.7314 29.4414 32.7314C29.3843 32.7314 29.3294 32.7091 29.2884 32.6693C29.2474 32.6295 29.2234 32.5754 29.2217 32.5182V30.3027L29.0084 30.4345C28.9589 30.4638 28.8999 30.4725 28.844 30.4587C28.7882 30.4449 28.7399 30.4098 28.7097 30.3608C28.6795 30.3119 28.6697 30.253 28.6824 30.1969C28.6952 30.1408 28.7294 30.0919 28.7778 30.0608L29.325 29.72C29.3585 29.7001 29.3966 29.6893 29.4355 29.6887C29.4745 29.6882 29.5129 29.6978 29.5469 29.7168C29.5809 29.7357 29.6094 29.7632 29.6295 29.7966C29.6496 29.8299 29.6606 29.868 29.6613 29.9069L29.6611 32.5182Z" fill="#FAFAFA"/>
<path d="M31.2417 32.5182C31.2417 32.5765 31.2186 32.6325 31.1773 32.6737C31.1361 32.7149 31.0802 32.7381 31.0219 32.7381C30.9636 32.7381 30.9077 32.7149 30.8665 32.6737C30.8253 32.6325 30.8021 32.5765 30.8021 32.5182V30.3027L30.589 30.4345C30.5394 30.4651 30.4798 30.4748 30.4231 30.4614C30.3664 30.448 30.3173 30.4126 30.2867 30.3631C30.2561 30.3135 30.2464 30.2538 30.2598 30.1972C30.2732 30.1405 30.3086 30.0914 30.3582 30.0608L30.9054 29.72C30.9388 29.7001 30.977 29.6893 31.0159 29.6887C31.0548 29.6882 31.0932 29.6978 31.1273 29.7168C31.1613 29.7357 31.1898 29.7632 31.2099 29.7966C31.23 29.8299 31.2409 29.868 31.2417 29.9069V32.5182Z" fill="#FAFAFA"/>
<path d="M29.0479 30.002H31.3396" stroke="#191919" stroke-width="0.343756" stroke-linecap="round" stroke-linejoin="round"/>
<path d="M30.1938 31.1491V28.8574" stroke="#191919" stroke-width="0.343756" stroke-linecap="round" stroke-linejoin="round"/>
<path d="M56.0789 25.5372C56.4478 25.5368 56.8014 25.39 57.0623 25.1292C57.3231 24.8684 57.4698 24.5147 57.4703 24.1458V23.6643C56.5501 23.8377 55.6051 23.8309 54.6875 23.6445V24.1458C54.6879 24.5147 54.8347 24.8684 55.0955 25.1292C55.3563 25.39 55.71 25.5368 56.0789 25.5372Z" fill="#FAFAFA"/>
<path d="M61.7788 28.2914L60.6378 25.8932C60.4227 25.4443 60.0435 25.0949 59.5785 24.9171L58.7078 24.5853C58.3633 24.4834 58.1118 24.0787 57.9098 23.8027V24.0801C57.918 24.336 57.8728 24.5907 57.7771 24.8281C57.6814 25.0655 57.5372 25.2803 57.3538 25.4589C57.1704 25.6375 56.9518 25.7758 56.7119 25.8652C56.4721 25.9545 56.2162 25.9929 55.9607 25.9778C55.7051 25.9628 55.4556 25.8946 55.2278 25.7777C55.0001 25.6607 54.7993 25.4976 54.6382 25.2988C54.477 25.0999 54.3591 24.8696 54.292 24.6226C54.2248 24.3756 54.2099 24.1173 54.2481 23.8642C54.0976 24.1537 53.8513 24.382 53.5513 24.5104L52.7357 24.8029C52.2676 24.9684 51.8816 25.3087 51.6586 25.7523L50.3791 28.2914C50.3613 28.3299 50.3594 28.3739 50.3738 28.4138C50.3882 28.4536 50.4178 28.4862 50.456 28.5045L52.1603 29.2795C52.1923 29.2941 52.2274 29.3008 52.2625 29.2991C52.2977 29.2973 52.3319 29.2871 52.3623 29.2694C52.3927 29.2517 52.4184 29.2269 52.4372 29.1972C52.4561 29.1675 52.4675 29.1337 52.4706 29.0987L52.5332 28.3843C52.5398 28.327 52.5684 28.2745 52.6131 28.238C52.6577 28.2015 52.7149 28.1839 52.7723 28.1889C52.8298 28.194 52.883 28.2212 52.9207 28.2649C52.9583 28.3086 52.9774 28.3653 52.9739 28.4229L52.4432 34.455C52.443 34.4978 52.4516 34.5403 52.4684 34.5797C52.4852 34.6191 52.51 34.6546 52.5411 34.684C52.5722 34.7135 52.609 34.7363 52.6492 34.7509C52.6895 34.7656 52.7323 34.7719 52.7751 34.7693H59.4004C59.4433 34.7719 59.4863 34.7655 59.5267 34.7507C59.5671 34.7359 59.6041 34.713 59.6352 34.6833C59.6663 34.6536 59.691 34.6178 59.7077 34.5781C59.7244 34.5385 59.7328 34.4958 59.7322 34.4528C59.6383 33.4461 59.2497 29.3409 59.1636 28.4241C59.1595 28.3667 59.1779 28.31 59.2151 28.2661C59.2523 28.2222 59.3052 28.1946 59.3624 28.1892C59.4197 28.1838 59.4768 28.2011 59.5215 28.2373C59.5662 28.2735 59.595 28.3257 59.6016 28.3829L59.6683 29.0899C59.6716 29.1246 59.6831 29.1581 59.7019 29.1875C59.7207 29.2169 59.7462 29.2414 59.7764 29.259C59.8065 29.2766 59.8404 29.2868 59.8752 29.2886C59.9101 29.2905 59.9449 29.2841 59.9767 29.2699L61.7018 28.5002C61.7395 28.4824 61.7687 28.4506 61.7831 28.4115C61.7975 28.3724 61.7959 28.3294 61.7788 28.2914ZM55.6611 32.5182C55.6594 32.5754 55.6355 32.6295 55.5945 32.6693C55.5535 32.7091 55.4986 32.7314 55.4414 32.7314C55.3843 32.7314 55.3294 32.7091 55.2884 32.6693C55.2474 32.6295 55.2234 32.5754 55.2217 32.5182V30.3027L55.0084 30.4345C54.9589 30.4638 54.8999 30.4725 54.844 30.4587C54.7882 30.4449 54.7399 30.4098 54.7097 30.3608C54.6795 30.3119 54.6697 30.253 54.6824 30.1969C54.6952 30.1408 54.7294 30.0919 54.7778 30.0608L55.325 29.72C55.3585 29.7001 55.3966 29.6893 55.4355 29.6887C55.4745 29.6882 55.5129 29.6978 55.5469 29.7168C55.5809 29.7357 55.6094 29.7632 55.6295 29.7966C55.6496 29.8299 55.6606 29.868 55.6613 29.9069L55.6611 32.5182ZM57.2417 32.5182C57.2417 32.5765 57.2186 32.6325 57.1773 32.6737C57.1361 32.7149 57.0802 32.7381 57.0219 32.7381C56.9636 32.7381 56.9077 32.7149 56.8665 32.6737C56.8253 32.6325 56.8021 32.5765 56.8021 32.5182V30.3027L56.589 30.4345C56.5394 30.4651 56.4798 30.4748 56.4231 30.4614C56.3664 30.448 56.3173 30.4126 56.2867 30.3631C56.2561 30.3135 56.2464 30.2538 56.2598 30.1972C56.2732 30.1405 56.3086 30.0914 56.3582 30.0608L56.9054 29.72C56.9388 29.7001 56.977 29.6893 57.0159 29.6887C57.0548 29.6882 57.0932 29.6978 57.1273 29.7168C57.1613 29.7357 57.1898 29.7632 57.2099 29.7966C57.23 29.8299 57.2409 29.868 57.2417 29.9069V32.5182Z" fill="#FAFAFA"/>
<path d="M55.6611 32.5182C55.6594 32.5754 55.6355 32.6295 55.5945 32.6693C55.5535 32.7091 55.4986 32.7314 55.4414 32.7314C55.3843 32.7314 55.3294 32.7091 55.2884 32.6693C55.2474 32.6295 55.2234 32.5754 55.2217 32.5182V30.3027L55.0084 30.4345C54.9589 30.4638 54.8999 30.4725 54.844 30.4587C54.7882 30.4449 54.7399 30.4098 54.7097 30.3608C54.6795 30.3119 54.6697 30.253 54.6824 30.1969C54.6952 30.1408 54.7294 30.0919 54.7778 30.0608L55.325 29.72C55.3585 29.7001 55.3966 29.6893 55.4355 29.6887C55.4745 29.6882 55.5129 29.6978 55.5469 29.7168C55.5809 29.7357 55.6094 29.7632 55.6295 29.7966C55.6496 29.8299 55.6606 29.868 55.6613 29.9069L55.6611 32.5182Z" fill="#FAFAFA"/>
<path d="M57.2417 32.5182C57.2417 32.5765 57.2186 32.6325 57.1773 32.6737C57.1361 32.7149 57.0802 32.7381 57.0219 32.7381C56.9636 32.7381 56.9077 32.7149 56.8665 32.6737C56.8253 32.6325 56.8021 32.5765 56.8021 32.5182V30.3027L56.589 30.4345C56.5394 30.4651 56.4798 30.4748 56.4231 30.4614C56.3664 30.448 56.3173 30.4126 56.2867 30.3631C56.2561 30.3135 56.2464 30.2538 56.2598 30.1972C56.2732 30.1405 56.3086 30.0914 56.3582 30.0608L56.9054 29.72C56.9388 29.7001 56.977 29.6893 57.0159 29.6887C57.0548 29.6882 57.0932 29.6978 57.1273 29.7168C57.1613 29.7357 57.1898 29.7632 57.2099 29.7966C57.23 29.8299 57.2409 29.868 57.2417 29.9069V32.5182Z" fill="#FAFAFA"/>
<path d="M55.0479 30.002H57.3396" stroke="#191919" stroke-width="0.343756" stroke-linecap="round" stroke-linejoin="round"/>
<path d="M56.1938 31.1491V28.8574" stroke="#191919" stroke-width="0.343756" stroke-linecap="round" stroke-linejoin="round"/>
<path d="M41.0584 46.6427C41.4273 46.6422 41.7809 46.4955 42.0418 46.2347C42.3026 45.9738 42.4493 45.6202 42.4498 45.2513V44.7698C41.5296 44.9431 40.5846 44.9364 39.667 44.75V45.2513C39.6674 45.6202 39.8142 45.9738 40.075 46.2347C40.3358 46.4955 40.6895 46.6422 41.0584 46.6427Z" fill="#FAFAFA"/>
<path d="M46.7583 49.3969L45.6173 46.9987C45.4022 46.5497 45.023 46.2004 44.558 46.0226L43.6873 45.6907C43.3428 45.5889 43.0913 45.1842 42.8893 44.9082V45.1856C42.8975 45.4414 42.8523 45.6962 42.7566 45.9336C42.6609 46.171 42.5167 46.3858 42.3333 46.5644C42.1499 46.7429 41.9313 46.8813 41.6914 46.9707C41.4515 47.06 41.1957 47.0984 40.9402 47.0833C40.6846 47.0682 40.435 47.0001 40.2073 46.8831C39.9796 46.7662 39.7788 46.6031 39.6177 46.4042C39.4565 46.2053 39.3386 45.975 39.2714 45.728C39.2043 45.481 39.1894 45.2227 39.2276 44.9696C39.077 45.2591 38.8308 45.4875 38.5308 45.6158L37.7152 45.9083C37.2471 46.0739 36.8611 46.4141 36.6381 46.8578L35.3586 49.3969C35.3408 49.4354 35.3389 49.4793 35.3533 49.5192C35.3677 49.5591 35.3973 49.5917 35.4355 49.61L37.1398 50.385C37.1718 50.3996 37.2069 50.4063 37.242 50.4045C37.2772 50.4028 37.3114 50.3926 37.3418 50.3749C37.3722 50.3572 37.3979 50.3324 37.4167 50.3027C37.4356 50.273 37.447 50.2392 37.4501 50.2041L37.5127 49.4898C37.5193 49.4325 37.5479 49.38 37.5926 49.3435C37.6372 49.307 37.6944 49.2894 37.7518 49.2944C37.8093 49.2994 37.8625 49.3267 37.9002 49.3704C37.9378 49.4141 37.9569 49.4708 37.9534 49.5283L37.4227 55.5605C37.4225 55.6033 37.4311 55.6457 37.4479 55.6851C37.4647 55.7245 37.4895 55.76 37.5206 55.7895C37.5517 55.819 37.5885 55.8417 37.6287 55.8564C37.669 55.8711 37.7118 55.8773 37.7546 55.8748H44.3798C44.4228 55.8773 44.4658 55.871 44.5062 55.8562C44.5466 55.8414 44.5836 55.8184 44.6147 55.7887C44.6458 55.759 44.6705 55.7232 44.6872 55.6836C44.7039 55.6439 44.7122 55.6012 44.7117 55.5582C44.6178 54.5516 44.2292 50.4464 44.1431 49.5296C44.1389 49.4722 44.1574 49.4155 44.1946 49.3716C44.2318 49.3277 44.2846 49.3001 44.3419 49.2947C44.3992 49.2893 44.4563 49.3065 44.501 49.3427C44.5457 49.3789 44.5745 49.4312 44.5811 49.4883L44.6478 50.1953C44.6511 50.2301 44.6626 50.2635 44.6814 50.293C44.7002 50.3224 44.7257 50.3469 44.7559 50.3645C44.786 50.3821 44.8199 50.3922 44.8547 50.3941C44.8896 50.396 44.9244 50.3896 44.9562 50.3754L46.6813 49.6057C46.719 49.5879 46.7482 49.556 46.7626 49.5169C46.777 49.4778 46.7754 49.4349 46.7583 49.3969ZM40.6406 53.6237C40.6389 53.6808 40.615 53.735 40.574 53.7748C40.533 53.8146 40.4781 53.8368 40.4209 53.8368C40.3638 53.8368 40.3089 53.8146 40.2679 53.7748C40.2268 53.735 40.2029 53.6808 40.2012 53.6237V51.4081L39.9879 51.54C39.9384 51.5693 39.8794 51.578 39.8235 51.5642C39.7676 51.5504 39.7194 51.5153 39.6892 51.4663C39.659 51.4173 39.6492 51.3585 39.6619 51.3024C39.6747 51.2463 39.7089 51.1974 39.7573 51.1663L40.3045 50.8254C40.338 50.8055 40.3761 50.7948 40.415 50.7942C40.4539 50.7937 40.4923 50.8033 40.5264 50.8222C40.5604 50.8412 40.5889 50.8687 40.609 50.902C40.6291 50.9354 40.6401 50.9734 40.6408 51.0124L40.6406 53.6237ZM42.2212 53.6237C42.2212 53.682 42.1981 53.7379 42.1568 53.7791C42.1156 53.8204 42.0597 53.8435 42.0014 53.8435C41.9431 53.8435 41.8872 53.8204 41.846 53.7791C41.8047 53.7379 41.7816 53.682 41.7816 53.6237V51.4081L41.5685 51.54C41.5189 51.5706 41.4592 51.5803 41.4026 51.5669C41.3459 51.5535 41.2968 51.5181 41.2662 51.4686C41.2356 51.419 41.2259 51.3593 41.2393 51.3026C41.2527 51.2459 41.2881 51.1969 41.3377 51.1663L41.8849 50.8254C41.9183 50.8055 41.9565 50.7948 41.9954 50.7942C42.0343 50.7937 42.0727 50.8033 42.1068 50.8222C42.1408 50.8412 42.1693 50.8687 42.1894 50.902C42.2095 50.9354 42.2204 50.9734 42.2212 51.0124V53.6237Z" fill="#FAFAFA"/>
<path d="M40.6406 53.6237C40.6389 53.6808 40.615 53.735 40.574 53.7748C40.533 53.8146 40.4781 53.8368 40.4209 53.8368C40.3638 53.8368 40.3089 53.8146 40.2679 53.7748C40.2268 53.735 40.2029 53.6808 40.2012 53.6237V51.4081L39.9879 51.54C39.9384 51.5693 39.8794 51.578 39.8235 51.5642C39.7676 51.5504 39.7194 51.5153 39.6892 51.4663C39.659 51.4173 39.6492 51.3585 39.6619 51.3024C39.6747 51.2463 39.7089 51.1974 39.7573 51.1663L40.3045 50.8254C40.338 50.8055 40.3761 50.7948 40.415 50.7942C40.4539 50.7937 40.4923 50.8033 40.5264 50.8222C40.5604 50.8412 40.5889 50.8687 40.609 50.902C40.6291 50.9354 40.6401 50.9734 40.6408 51.0124L40.6406 53.6237Z" fill="#FAFAFA"/>
<path d="M42.2212 53.6237C42.2212 53.682 42.1981 53.7379 42.1568 53.7791C42.1156 53.8204 42.0597 53.8435 42.0014 53.8435C41.9431 53.8435 41.8872 53.8204 41.846 53.7791C41.8047 53.7379 41.7816 53.682 41.7816 53.6237V51.4081L41.5685 51.54C41.5189 51.5706 41.4592 51.5803 41.4026 51.5669C41.3459 51.5535 41.2968 51.5181 41.2662 51.4686C41.2356 51.419 41.2259 51.3593 41.2393 51.3026C41.2527 51.2459 41.2881 51.1969 41.3377 51.1663L41.8849 50.8254C41.9183 50.8055 41.9565 50.7948 41.9954 50.7942C42.0343 50.7937 42.0727 50.8033 42.1068 50.8222C42.1408 50.8412 42.1693 50.8687 42.1894 50.902C42.2095 50.9354 42.2204 50.9734 42.2212 51.0124V53.6237Z" fill="#FAFAFA"/>
<path d="M40.0273 51.1055H42.3191" stroke="#191919" stroke-width="0.343756" stroke-linecap="round" stroke-linejoin="round"/>
<path d="M41.1733 52.2526V49.9609" stroke="#191919" stroke-width="0.343756" stroke-linecap="round" stroke-linejoin="round"/>
<path d="M16.0584 46.9962C16.4273 46.9958 16.7809 46.849 17.0418 46.5882C17.3026 46.3273 17.4493 45.9737 17.4498 45.6048V45.1233C16.5296 45.2967 15.5846 45.2899 14.667 45.1035V45.6048C14.6674 45.9737 14.8142 46.3273 15.075 46.5882C15.3358 46.849 15.6895 46.9958 16.0584 46.9962Z" fill="#FAFAFA"/>
<path d="M21.7583 49.7504L20.6173 47.3522C20.4022 46.9032 20.023 46.5539 19.558 46.3761L18.6873 46.0443C18.3428 45.9424 18.0913 45.5377 17.8893 45.2617V45.5391C17.8975 45.7949 17.8523 46.0497 17.7566 46.2871C17.6609 46.5245 17.5167 46.7393 17.3333 46.9179C17.1499 47.0965 16.9313 47.2348 16.6914 47.3242C16.4515 47.4135 16.1957 47.4519 15.9402 47.4368C15.6846 47.4218 15.435 47.3536 15.2073 47.2367C14.9796 47.1197 14.7788 46.9566 14.6177 46.7577C14.4565 46.5589 14.3386 46.3286 14.2714 46.0816C14.2043 45.8345 14.1894 45.5763 14.2276 45.3232C14.077 45.6126 13.8308 45.841 13.5308 45.9694L12.7152 46.2618C12.2471 46.4274 11.8611 46.7677 11.6381 47.2113L10.3586 49.7504C10.3408 49.7889 10.3389 49.8329 10.3533 49.8727C10.3677 49.9126 10.3973 49.9452 10.4355 49.9635L12.1398 50.7385C12.1718 50.7531 12.2069 50.7598 12.242 50.758C12.2772 50.7563 12.3114 50.7461 12.3418 50.7284C12.3722 50.7107 12.3979 50.6859 12.4167 50.6562C12.4356 50.6265 12.447 50.5927 12.4501 50.5576L12.5127 49.8433C12.5193 49.786 12.5479 49.7335 12.5926 49.697C12.6372 49.6605 12.6944 49.6429 12.7518 49.6479C12.8093 49.653 12.8625 49.6802 12.9002 49.7239C12.9378 49.7676 12.9569 49.8243 12.9534 49.8818L12.4227 55.914C12.4225 55.9568 12.4311 55.9992 12.4479 56.0386C12.4647 56.078 12.4895 56.1136 12.5206 56.143C12.5517 56.1725 12.5885 56.1952 12.6287 56.2099C12.669 56.2246 12.7118 56.2308 12.7546 56.2283H19.3798C19.4228 56.2309 19.4658 56.2245 19.5062 56.2097C19.5466 56.1949 19.5836 56.172 19.6147 56.1423C19.6458 56.1126 19.6705 56.0768 19.6872 56.0371C19.7039 55.9974 19.7122 55.9548 19.7117 55.9117C19.6178 54.9051 19.2292 50.7999 19.1431 49.8831C19.1389 49.8257 19.1574 49.769 19.1946 49.7251C19.2318 49.6812 19.2846 49.6536 19.3419 49.6482C19.3992 49.6428 19.4563 49.66 19.501 49.6962C19.5457 49.7324 19.5745 49.7847 19.5811 49.8418L19.6478 50.5489C19.6511 50.5836 19.6626 50.6171 19.6814 50.6465C19.7002 50.6759 19.7257 50.7004 19.7559 50.718C19.786 50.7356 19.8199 50.7457 19.8547 50.7476C19.8896 50.7495 19.9244 50.7431 19.9562 50.7289L21.6813 49.9592C21.719 49.9414 21.7482 49.9096 21.7626 49.8705C21.777 49.8314 21.7754 49.7884 21.7583 49.7504ZM15.6406 53.9772C15.6389 54.0343 15.615 54.0885 15.574 54.1283C15.533 54.1681 15.4781 54.1903 15.4209 54.1903C15.3638 54.1903 15.3089 54.1681 15.2679 54.1283C15.2268 54.0885 15.2029 54.0343 15.2012 53.9772V51.7617L14.9879 51.8935C14.9384 51.9228 14.8794 51.9315 14.8235 51.9177C14.7676 51.9039 14.7194 51.8688 14.6892 51.8198C14.659 51.7709 14.6492 51.712 14.6619 51.6559C14.6747 51.5998 14.7089 51.5509 14.7573 51.5198L15.3045 51.1789C15.338 51.159 15.3761 51.1483 15.415 51.1477C15.4539 51.1472 15.4923 51.1568 15.5264 51.1757C15.5604 51.1947 15.5889 51.2222 15.609 51.2555C15.6291 51.2889 15.6401 51.327 15.6408 51.3659L15.6406 53.9772ZM17.2212 53.9772C17.2212 54.0355 17.1981 54.0914 17.1568 54.1327C17.1156 54.1739 17.0597 54.197 17.0014 54.197C16.9431 54.197 16.8872 54.1739 16.846 54.1327C16.8047 54.0914 16.7816 54.0355 16.7816 53.9772V51.7617L16.5685 51.8935C16.5189 51.9241 16.4592 51.9338 16.4026 51.9204C16.3459 51.907 16.2968 51.8716 16.2662 51.8221C16.2356 51.7725 16.2259 51.7128 16.2393 51.6561C16.2527 51.5995 16.2881 51.5504 16.3377 51.5198L16.8849 51.1789C16.9183 51.159 16.9565 51.1483 16.9954 51.1477C17.0343 51.1472 17.0727 51.1568 17.1068 51.1757C17.1408 51.1947 17.1693 51.2222 17.1894 51.2555C17.2095 51.2889 17.2204 51.327 17.2212 51.3659V53.9772Z" fill="#FAFAFA"/>
<path d="M15.6406 53.9772C15.6389 54.0343 15.615 54.0885 15.574 54.1283C15.533 54.1681 15.4781 54.1903 15.4209 54.1903C15.3638 54.1903 15.3089 54.1681 15.2679 54.1283C15.2268 54.0885 15.2029 54.0343 15.2012 53.9772V51.7617L14.9879 51.8935C14.9384 51.9228 14.8794 51.9315 14.8235 51.9177C14.7676 51.9039 14.7194 51.8688 14.6892 51.8198C14.659 51.7709 14.6492 51.712 14.6619 51.6559C14.6747 51.5998 14.7089 51.5509 14.7573 51.5198L15.3045 51.1789C15.338 51.159 15.3761 51.1483 15.415 51.1477C15.4539 51.1472 15.4923 51.1568 15.5264 51.1757C15.5604 51.1947 15.5889 51.2222 15.609 51.2555C15.6291 51.2889 15.6401 51.327 15.6408 51.3659L15.6406 53.9772Z" fill="#FAFAFA"/>
<path d="M17.2212 53.9772C17.2212 54.0355 17.1981 54.0914 17.1568 54.1327C17.1156 54.1739 17.0597 54.197 17.0014 54.197C16.9431 54.197 16.8872 54.1739 16.846 54.1327C16.8047 54.0914 16.7816 54.0355 16.7816 53.9772V51.7617L16.5685 51.8935C16.5189 51.9241 16.4592 51.9338 16.4026 51.9204C16.3459 51.907 16.2968 51.8716 16.2662 51.8221C16.2356 51.7725 16.2259 51.7128 16.2393 51.6561C16.2527 51.5995 16.2881 51.5504 16.3377 51.5198L16.8849 51.1789C16.9183 51.159 16.9565 51.1483 16.9954 51.1477C17.0343 51.1472 17.0727 51.1568 17.1068 51.1757C17.1408 51.1947 17.1693 51.2222 17.1894 51.2555C17.2095 51.2889 17.2204 51.327 17.2212 51.3659V53.9772Z" fill="#FAFAFA"/>
<path d="M15.0273 51.4609H17.3191" stroke="#191919" stroke-width="0.343756" stroke-linecap="round" stroke-linejoin="round"/>
<path d="M16.1733 52.6081V50.3164" stroke="#191919" stroke-width="0.343756" stroke-linecap="round" stroke-linejoin="round"/>
<path d="M66.0584 46.9962C66.4273 46.9958 66.7809 46.849 67.0418 46.5882C67.3026 46.3273 67.4493 45.9737 67.4498 45.6048V45.1233C66.5296 45.2967 65.5846 45.2899 64.667 45.1035V45.6048C64.6674 45.9737 64.8142 46.3273 65.075 46.5882C65.3358 46.849 65.6895 46.9958 66.0584 46.9962Z" fill="#FAFAFA"/>
<path d="M71.7583 49.7504L70.6173 47.3522C70.4022 46.9032 70.023 46.5539 69.558 46.3761L68.6873 46.0443C68.3428 45.9424 68.0913 45.5377 67.8893 45.2617V45.5391C67.8975 45.7949 67.8523 46.0497 67.7566 46.2871C67.6609 46.5245 67.5167 46.7393 67.3333 46.9179C67.1499 47.0965 66.9313 47.2348 66.6914 47.3242C66.4515 47.4135 66.1957 47.4519 65.9402 47.4368C65.6846 47.4218 65.435 47.3536 65.2073 47.2367C64.9796 47.1197 64.7788 46.9566 64.6177 46.7577C64.4565 46.5589 64.3386 46.3286 64.2714 46.0816C64.2043 45.8345 64.1894 45.5763 64.2276 45.3232C64.077 45.6126 63.8308 45.841 63.5308 45.9694L62.7152 46.2618C62.2471 46.4274 61.8611 46.7677 61.6381 47.2113L60.3586 49.7504C60.3408 49.7889 60.3389 49.8329 60.3533 49.8727C60.3677 49.9126 60.3973 49.9452 60.4355 49.9635L62.1398 50.7385C62.1718 50.7531 62.2069 50.7598 62.242 50.758C62.2772 50.7563 62.3114 50.7461 62.3418 50.7284C62.3722 50.7107 62.3979 50.6859 62.4167 50.6562C62.4356 50.6265 62.447 50.5927 62.4501 50.5576L62.5127 49.8433C62.5193 49.786 62.5479 49.7335 62.5926 49.697C62.6372 49.6605 62.6944 49.6429 62.7518 49.6479C62.8093 49.653 62.8625 49.6802 62.9002 49.7239C62.9378 49.7676 62.9569 49.8243 62.9534 49.8818L62.4227 55.914C62.4225 55.9568 62.4311 55.9992 62.4479 56.0386C62.4647 56.078 62.4895 56.1136 62.5206 56.143C62.5517 56.1725 62.5885 56.1952 62.6287 56.2099C62.669 56.2246 62.7118 56.2308 62.7546 56.2283H69.3798C69.4228 56.2309 69.4658 56.2245 69.5062 56.2097C69.5466 56.1949 69.5836 56.172 69.6147 56.1423C69.6458 56.1126 69.6705 56.0768 69.6872 56.0371C69.7039 55.9974 69.7122 55.9548 69.7117 55.9117C69.6178 54.9051 69.2292 50.7999 69.1431 49.8831C69.1389 49.8257 69.1574 49.769 69.1946 49.7251C69.2318 49.6812 69.2846 49.6536 69.3419 49.6482C69.3992 49.6428 69.4563 49.66 69.501 49.6962C69.5457 49.7324 69.5745 49.7847 69.5811 49.8418L69.6478 50.5489C69.6511 50.5836 69.6626 50.6171 69.6814 50.6465C69.7002 50.6759 69.7257 50.7004 69.7559 50.718C69.786 50.7356 69.8199 50.7457 69.8547 50.7476C69.8896 50.7495 69.9244 50.7431 69.9562 50.7289L71.6813 49.9592C71.719 49.9414 71.7482 49.9096 71.7626 49.8705C71.777 49.8314 71.7754 49.7884 71.7583 49.7504ZM65.6406 53.9772C65.6389 54.0343 65.615 54.0885 65.574 54.1283C65.533 54.1681 65.4781 54.1903 65.4209 54.1903C65.3638 54.1903 65.3089 54.1681 65.2679 54.1283C65.2268 54.0885 65.2029 54.0343 65.2012 53.9772V51.7617L64.9879 51.8935C64.9384 51.9228 64.8794 51.9315 64.8235 51.9177C64.7676 51.9039 64.7194 51.8688 64.6892 51.8198C64.659 51.7709 64.6492 51.712 64.6619 51.6559C64.6747 51.5998 64.7089 51.5509 64.7573 51.5198L65.3045 51.1789C65.338 51.159 65.3761 51.1483 65.415 51.1477C65.4539 51.1472 65.4923 51.1568 65.5264 51.1757C65.5604 51.1947 65.5889 51.2222 65.609 51.2555C65.6291 51.2889 65.6401 51.327 65.6408 51.3659L65.6406 53.9772ZM67.2212 53.9772C67.2212 54.0355 67.1981 54.0914 67.1568 54.1327C67.1156 54.1739 67.0597 54.197 67.0014 54.197C66.9431 54.197 66.8872 54.1739 66.846 54.1327C66.8047 54.0914 66.7816 54.0355 66.7816 53.9772V51.7617L66.5685 51.8935C66.5189 51.9241 66.4592 51.9338 66.4026 51.9204C66.3459 51.907 66.2968 51.8716 66.2662 51.8221C66.2356 51.7725 66.2259 51.7128 66.2393 51.6561C66.2527 51.5995 66.2881 51.5504 66.3377 51.5198L66.8849 51.1789C66.9183 51.159 66.9565 51.1483 66.9954 51.1477C67.0343 51.1472 67.0727 51.1568 67.1068 51.1757C67.1408 51.1947 67.1693 51.2222 67.1894 51.2555C67.2095 51.2889 67.2204 51.327 67.2212 51.3659V53.9772Z" fill="#FAFAFA"/>
<path d="M65.6406 53.9772C65.6389 54.0343 65.615 54.0885 65.574 54.1283C65.533 54.1681 65.4781 54.1903 65.4209 54.1903C65.3638 54.1903 65.3089 54.1681 65.2679 54.1283C65.2268 54.0885 65.2029 54.0343 65.2012 53.9772V51.7617L64.9879 51.8935C64.9384 51.9228 64.8794 51.9315 64.8235 51.9177C64.7676 51.9039 64.7194 51.8688 64.6892 51.8198C64.659 51.7709 64.6492 51.712 64.6619 51.6559C64.6747 51.5998 64.7089 51.5509 64.7573 51.5198L65.3045 51.1789C65.338 51.159 65.3761 51.1483 65.415 51.1477C65.4539 51.1472 65.4923 51.1568 65.5264 51.1757C65.5604 51.1947 65.5889 51.2222 65.609 51.2555C65.6291 51.2889 65.6401 51.327 65.6408 51.3659L65.6406 53.9772Z" fill="#FAFAFA"/>
<path d="M67.2212 53.9772C67.2212 54.0355 67.1981 54.0914 67.1568 54.1327C67.1156 54.1739 67.0597 54.197 67.0014 54.197C66.9431 54.197 66.8872 54.1739 66.846 54.1327C66.8047 54.0914 66.7816 54.0355 66.7816 53.9772V51.7617L66.5685 51.8935C66.5189 51.9241 66.4592 51.9338 66.4026 51.9204C66.3459 51.907 66.2968 51.8716 66.2662 51.8221C66.2356 51.7725 66.2259 51.7128 66.2393 51.6561C66.2527 51.5995 66.2881 51.5504 66.3377 51.5198L66.8849 51.1789C66.9183 51.159 66.9565 51.1483 66.9954 51.1477C67.0343 51.1472 67.0727 51.1568 67.1068 51.1757C67.1408 51.1947 67.1693 51.2222 67.1894 51.2555C67.2095 51.2889 67.2204 51.327 67.2212 51.3659V53.9772Z" fill="#FAFAFA"/>
<path d="M65.0273 51.4609H67.3191" stroke="#191919" stroke-width="0.343756" stroke-linecap="round" stroke-linejoin="round"/>
<path d="M66.1733 52.6081V50.3164" stroke="#191919" stroke-width="0.343756" stroke-linecap="round" stroke-linejoin="round"/>
</svg>
