<svg width="81" height="81" viewBox="0 0 81 81" fill="none" xmlns="http://www.w3.org/2000/svg">
<rect x="0.324546" y="0.118492" width="79.9807" height="79.9807" rx="5.88541" fill="#828284" stroke="#FAFAFA" stroke-width="0.229171"/>
<mask id="path-2-inside-1_8747_14012" fill="white">
<path d="M24.0437 66.4609H56.586V80.2112H24.0437V66.4609Z"/>
</mask>
<path d="M24.0437 66.4609V66.2318H23.8145V66.4609H24.0437ZM56.586 66.4609H56.8152V66.2318H56.586V66.4609ZM24.0437 66.6901H56.586V66.2318H24.0437V66.6901ZM56.3568 66.4609V80.2112H56.8152V66.4609H56.3568ZM24.2729 80.2112V66.4609H23.8145V80.2112H24.2729Z" fill="#FAFAFA" mask="url(#path-2-inside-1_8747_14012)"/>
<mask id="path-4-inside-2_8747_14012" fill="white">
<path d="M12.8145 55.0039H67.8155V80.2127H12.8145V55.0039Z"/>
</mask>
<path d="M12.8145 55.0039V54.7747H12.5853V55.0039H12.8145ZM67.8155 55.0039H68.0447V54.7747H67.8155V55.0039ZM12.8145 55.2331H67.8155V54.7747H12.8145V55.2331ZM67.5863 55.0039V80.2127H68.0447V55.0039H67.5863ZM13.0436 80.2127V55.0039H12.5853V80.2127H13.0436Z" fill="#FAFAFA" mask="url(#path-4-inside-2_8747_14012)"/>
<path d="M54.5234 9.53674e-07C54.5234 1.65523 54.1381 3.29426 53.3895 4.8235C52.6409 6.35273 51.5437 7.74223 50.1605 8.91266C48.7772 10.0831 47.1351 11.0115 45.3278 11.645C43.5205 12.2784 41.5835 12.6044 39.6273 12.6044C37.6711 12.6044 35.7341 12.2784 33.9268 11.645C32.1195 11.0115 30.4774 10.0831 29.0942 8.91266C27.7109 7.74223 26.6137 6.35273 25.8651 4.8235C25.1165 3.29426 24.7312 1.65523 24.7312 0" stroke="#FAFAFA" stroke-width="0.229171"/>
<path d="M30.7872 55.3516C31.3054 54.5174 32.065 53.7595 33.0227 53.1211C33.9803 52.4827 35.1172 51.9763 36.3683 51.6308C37.6195 51.2853 38.9606 51.1074 40.3148 51.1074C41.6691 51.1074 43.0101 51.2853 44.2613 51.6308C45.5125 51.9763 46.6494 52.4827 47.607 53.1211C48.5646 53.7595 49.3243 54.5174 49.8425 55.3516" stroke="#FAFAFA" stroke-width="0.229171"/>
<path d="M0.438965 76.5479C1.55549 76.4958 3.75942 77.1099 3.64292 79.9825" stroke="#FAFAFA" stroke-width="0.229171"/>
<path d="M80.1904 76.5479C79.0739 76.4958 76.87 77.1099 76.9865 79.9825" stroke="#FAFAFA" stroke-width="0.229171"/>
<g clip-path="url(#clip0_8747_14012)">
<path d="M40.429 65.4356C40.7979 65.4352 41.1515 65.2885 41.4124 65.0276C41.6732 64.7668 41.8199 64.4131 41.8204 64.0443V63.5628C40.9002 63.7361 39.9552 63.7294 39.0376 63.543V64.0443C39.038 64.4131 39.1848 64.7668 39.4456 65.0276C39.7064 65.2885 40.0601 65.4352 40.429 65.4356Z" fill="#FAFAFA"/>
<path d="M46.1289 68.1899L44.9879 65.7916C44.7728 65.3427 44.3936 64.9934 43.9286 64.8156L43.0579 64.4837C42.7134 64.3819 42.4619 63.9771 42.2599 63.7012V63.9786C42.2681 64.2344 42.2229 64.4891 42.1272 64.7265C42.0315 64.9639 41.8873 65.1788 41.7039 65.3573C41.5205 65.5359 41.3019 65.6743 41.062 65.7636C40.8222 65.853 40.5663 65.8913 40.3108 65.8763C40.0552 65.8612 39.8056 65.793 39.5779 65.6761C39.3502 65.5592 39.1494 65.3961 38.9883 65.1972C38.8271 64.9983 38.7092 64.768 38.6421 64.521C38.5749 64.274 38.56 64.0157 38.5982 63.7626C38.4477 64.0521 38.2014 64.2805 37.9014 64.4088L37.0858 64.7013C36.6177 64.8669 36.2317 65.2071 36.0087 65.6508L34.7292 68.1899C34.7114 68.2284 34.7095 68.2723 34.7239 68.3122C34.7383 68.3521 34.7679 68.3847 34.8061 68.4029L36.5104 69.1779C36.5424 69.1925 36.5775 69.1992 36.6126 69.1975C36.6478 69.1957 36.682 69.1856 36.7124 69.1679C36.7428 69.1501 36.7685 69.1254 36.7873 69.0957C36.8062 69.066 36.8176 69.0321 36.8207 68.9971L36.8833 68.2827C36.8899 68.2254 36.9185 68.1729 36.9632 68.1364C37.0078 68.1 37.065 68.0823 37.1224 68.0874C37.1799 68.0924 37.2331 68.1197 37.2708 68.1634C37.3084 68.2071 37.3275 68.2637 37.324 68.3213L36.7933 74.3534C36.7931 74.3963 36.8017 74.4387 36.8185 74.4781C36.8353 74.5175 36.8601 74.553 36.8912 74.5825C36.9223 74.6119 36.9591 74.6347 36.9993 74.6494C37.0396 74.664 37.0824 74.6703 37.1252 74.6678H43.7504C43.7934 74.6703 43.8364 74.664 43.8768 74.6492C43.9172 74.6344 43.9542 74.6114 43.9853 74.5817C44.0164 74.552 44.0411 74.5162 44.0578 74.4766C44.0745 74.4369 44.0828 74.3942 44.0823 74.3512C43.9884 73.3445 43.5998 69.2394 43.5137 68.3225C43.5095 68.2652 43.528 68.2084 43.5652 68.1645C43.6024 68.1206 43.6553 68.093 43.7125 68.0876C43.7698 68.0822 43.8269 68.0995 43.8716 68.1357C43.9163 68.1719 43.9451 68.2242 43.9517 68.2813L44.0184 68.9883C44.0217 69.0231 44.0332 69.0565 44.052 69.0859C44.0708 69.1153 44.0963 69.1398 44.1265 69.1574C44.1566 69.175 44.1905 69.1852 44.2253 69.1871C44.2602 69.189 44.295 69.1826 44.3268 69.1683L46.0519 68.3987C46.0896 68.3809 46.1188 68.349 46.1332 68.3099C46.1476 68.2708 46.146 68.2278 46.1289 68.1899ZM40.0112 72.4167C40.0095 72.4738 39.9856 72.528 39.9446 72.5678C39.9036 72.6076 39.8487 72.6298 39.7915 72.6298C39.7344 72.6298 39.6795 72.6076 39.6385 72.5678C39.5975 72.528 39.5735 72.4738 39.5718 72.4167V70.2011L39.3585 70.333C39.309 70.3623 39.25 70.3709 39.1941 70.3572C39.1383 70.3434 39.09 70.3082 39.0598 70.2593C39.0296 70.2103 39.0198 70.1515 39.0325 70.0954C39.0453 70.0392 39.0795 69.9904 39.1279 69.9592L39.6751 69.6184C39.7086 69.5985 39.7467 69.5877 39.7856 69.5872C39.8245 69.5866 39.863 69.5963 39.897 69.6152C39.931 69.6341 39.9595 69.6616 39.9796 69.695C39.9997 69.7284 40.0107 69.7664 40.0114 69.8054L40.0112 72.4167ZM41.5918 72.4167C41.5918 72.475 41.5687 72.5309 41.5274 72.5721C41.4862 72.6133 41.4303 72.6365 41.372 72.6365C41.3137 72.6365 41.2578 72.6133 41.2166 72.5721C41.1753 72.5309 41.1522 72.475 41.1522 72.4167V70.2011L40.9391 70.333C40.8895 70.3636 40.8299 70.3732 40.7732 70.3598C40.7165 70.3465 40.6674 70.3111 40.6368 70.2615C40.6062 70.212 40.5965 70.1523 40.6099 70.0956C40.6233 70.0389 40.6587 69.9899 40.7083 69.9592L41.2555 69.6184C41.2889 69.5985 41.3271 69.5877 41.366 69.5872C41.4049 69.5866 41.4433 69.5963 41.4774 69.6152C41.5114 69.6341 41.5399 69.6616 41.56 69.695C41.5801 69.7284 41.591 69.7664 41.5918 69.8054V72.4167Z" fill="#FAFAFA"/>
<path d="M40.0112 72.4167C40.0095 72.4738 39.9856 72.528 39.9446 72.5678C39.9036 72.6076 39.8487 72.6298 39.7915 72.6298C39.7344 72.6298 39.6795 72.6076 39.6385 72.5678C39.5975 72.528 39.5735 72.4738 39.5718 72.4167V70.2011L39.3585 70.333C39.309 70.3623 39.25 70.3709 39.1941 70.3572C39.1383 70.3434 39.09 70.3082 39.0598 70.2593C39.0296 70.2103 39.0198 70.1515 39.0325 70.0954C39.0453 70.0392 39.0795 69.9904 39.1279 69.9592L39.6751 69.6184C39.7086 69.5985 39.7467 69.5877 39.7856 69.5872C39.8245 69.5866 39.863 69.5963 39.897 69.6152C39.931 69.6341 39.9595 69.6616 39.9796 69.695C39.9997 69.7284 40.0107 69.7664 40.0114 69.8054L40.0112 72.4167Z" fill="#FAFAFA"/>
<path d="M41.5918 72.4167C41.5918 72.475 41.5687 72.5309 41.5274 72.5721C41.4862 72.6133 41.4303 72.6365 41.372 72.6365C41.3137 72.6365 41.2578 72.6133 41.2166 72.5721C41.1753 72.5309 41.1522 72.475 41.1522 72.4167V70.2011L40.9391 70.333C40.8895 70.3636 40.8299 70.3732 40.7732 70.3598C40.7165 70.3465 40.6674 70.3111 40.6368 70.2615C40.6062 70.212 40.5965 70.1523 40.6099 70.0956C40.6233 70.0389 40.6587 69.9899 40.7083 69.9592L41.2555 69.6184C41.2889 69.5985 41.3271 69.5877 41.366 69.5872C41.4049 69.5866 41.4433 69.5963 41.4774 69.6152C41.5114 69.6341 41.5399 69.6616 41.56 69.695C41.5801 69.7284 41.591 69.7664 41.5918 69.8054V72.4167Z" fill="#FAFAFA"/>
<path d="M39.3979 69.8965H41.6897" stroke="#191919" stroke-width="0.343756" stroke-linecap="round" stroke-linejoin="round"/>
<path d="M40.5439 71.0437V68.752" stroke="#191919" stroke-width="0.343756" stroke-linecap="round" stroke-linejoin="round"/>
</g>
<g clip-path="url(#clip1_8747_14012)">
<path d="M15.4495 28.5372C15.8184 28.5368 16.172 28.39 16.4329 28.1292C16.6937 27.8684 16.8404 27.5147 16.8409 27.1458V26.6643C15.9207 26.8377 14.9757 26.8309 14.0581 26.6445V27.1458C14.0585 27.5147 14.2053 27.8684 14.4661 28.1292C14.727 28.39 15.0806 28.5368 15.4495 28.5372Z" fill="#FAFAFA"/>
<path d="M21.1494 31.2914L20.0084 28.8932C19.7933 28.4443 19.4141 28.0949 18.9491 27.9171L18.0784 27.5853C17.7339 27.4834 17.4824 27.0787 17.2804 26.8027V27.0801C17.2886 27.336 17.2434 27.5907 17.1477 27.8281C17.052 28.0655 16.9078 28.2803 16.7244 28.4589C16.541 28.6375 16.3224 28.7758 16.0825 28.8652C15.8427 28.9545 15.5868 28.9929 15.3313 28.9778C15.0757 28.9628 14.8262 28.8946 14.5984 28.7777C14.3707 28.6607 14.1699 28.4976 14.0088 28.2988C13.8476 28.0999 13.7297 27.8696 13.6626 27.6226C13.5954 27.3756 13.5805 27.1173 13.6187 26.8642C13.4682 27.1537 13.2219 27.382 12.9219 27.5104L12.1063 27.8029C11.6382 27.9684 11.2522 28.3087 11.0292 28.7523L9.7497 31.2914C9.73193 31.3299 9.73005 31.3739 9.74445 31.4138C9.75885 31.4536 9.78838 31.4862 9.82665 31.5045L11.5309 32.2795C11.5629 32.2941 11.598 32.3008 11.6331 32.2991C11.6683 32.2973 11.7025 32.2871 11.7329 32.2694C11.7633 32.2517 11.789 32.2269 11.8078 32.1972C11.8267 32.1675 11.8381 32.1337 11.8412 32.0987L11.9038 31.3843C11.9104 31.327 11.939 31.2745 11.9837 31.238C12.0283 31.2015 12.0855 31.1839 12.143 31.1889C12.2004 31.194 12.2536 31.2212 12.2913 31.2649C12.3289 31.3086 12.348 31.3653 12.3445 31.4229L11.8138 37.455C11.8136 37.4978 11.8222 37.5403 11.839 37.5797C11.8558 37.6191 11.8806 37.6546 11.9117 37.684C11.9428 37.7135 11.9796 37.7363 12.0198 37.7509C12.0601 37.7656 12.1029 37.7719 12.1457 37.7693H18.771C18.8139 37.7719 18.8569 37.7655 18.8973 37.7507C18.9377 37.7359 18.9747 37.713 19.0058 37.6833C19.0369 37.6536 19.0616 37.6178 19.0783 37.5781C19.095 37.5385 19.1034 37.4958 19.1028 37.4528C19.0089 36.4461 18.6203 32.3409 18.5342 31.4241C18.5301 31.3667 18.5486 31.31 18.5857 31.2661C18.6229 31.2222 18.6758 31.1946 18.733 31.1892C18.7903 31.1838 18.8474 31.2011 18.8921 31.2373C18.9368 31.2735 18.9656 31.3257 18.9722 31.3829L19.0389 32.0899C19.0422 32.1246 19.0538 32.1581 19.0725 32.1875C19.0913 32.2169 19.1168 32.2414 19.147 32.259C19.1771 32.2766 19.211 32.2868 19.2458 32.2886C19.2807 32.2905 19.3155 32.2841 19.3474 32.2699L21.0724 31.5002C21.1101 31.4824 21.1393 31.4506 21.1537 31.4115C21.1681 31.3724 21.1666 31.3294 21.1494 31.2914ZM15.0317 35.5182C15.03 35.5754 15.0061 35.6295 14.9651 35.6693C14.9241 35.7091 14.8692 35.7314 14.812 35.7314C14.7549 35.7314 14.7 35.7091 14.659 35.6693C14.618 35.6295 14.594 35.5754 14.5923 35.5182V33.3027L14.379 33.4345C14.3295 33.4638 14.2705 33.4725 14.2146 33.4587C14.1588 33.4449 14.1105 33.4098 14.0803 33.3608C14.0501 33.3119 14.0403 33.253 14.053 33.1969C14.0658 33.1408 14.1 33.0919 14.1484 33.0608L14.6956 32.72C14.7291 32.7001 14.7672 32.6893 14.8061 32.6887C14.8451 32.6882 14.8835 32.6978 14.9175 32.7168C14.9515 32.7357 14.98 32.7632 15.0001 32.7966C15.0202 32.8299 15.0312 32.868 15.032 32.9069L15.0317 35.5182ZM16.6123 35.5182C16.6123 35.5765 16.5892 35.6325 16.548 35.6737C16.5067 35.7149 16.4508 35.7381 16.3925 35.7381C16.3342 35.7381 16.2783 35.7149 16.2371 35.6737C16.1959 35.6325 16.1727 35.5765 16.1727 35.5182V33.3027L15.9596 33.4345C15.9101 33.4651 15.8504 33.4748 15.7937 33.4614C15.737 33.448 15.6879 33.4126 15.6573 33.3631C15.6267 33.3135 15.617 33.2538 15.6304 33.1972C15.6438 33.1405 15.6792 33.0914 15.7288 33.0608L16.276 32.72C16.3095 32.7001 16.3476 32.6893 16.3865 32.6887C16.4254 32.6882 16.4638 32.6978 16.4979 32.7168C16.5319 32.7357 16.5604 32.7632 16.5805 32.7966C16.6006 32.8299 16.6116 32.868 16.6123 32.9069V35.5182Z" fill="#FAFAFA"/>
<path d="M15.0317 35.5182C15.03 35.5754 15.0061 35.6295 14.9651 35.6693C14.9241 35.7091 14.8692 35.7314 14.812 35.7314C14.7549 35.7314 14.7 35.7091 14.659 35.6693C14.618 35.6295 14.594 35.5754 14.5923 35.5182V33.3027L14.379 33.4345C14.3295 33.4638 14.2705 33.4725 14.2146 33.4587C14.1588 33.4449 14.1105 33.4098 14.0803 33.3608C14.0501 33.3119 14.0403 33.253 14.053 33.1969C14.0658 33.1408 14.1 33.0919 14.1484 33.0608L14.6956 32.72C14.7291 32.7001 14.7672 32.6893 14.8061 32.6887C14.8451 32.6882 14.8835 32.6978 14.9175 32.7168C14.9515 32.7357 14.98 32.7632 15.0001 32.7966C15.0202 32.8299 15.0312 32.868 15.032 32.9069L15.0317 35.5182Z" fill="#FAFAFA"/>
<path d="M16.6123 35.5182C16.6123 35.5765 16.5892 35.6325 16.548 35.6737C16.5067 35.7149 16.4508 35.7381 16.3925 35.7381C16.3342 35.7381 16.2783 35.7149 16.2371 35.6737C16.1959 35.6325 16.1727 35.5765 16.1727 35.5182V33.3027L15.9596 33.4345C15.9101 33.4651 15.8504 33.4748 15.7937 33.4614C15.737 33.448 15.6879 33.4126 15.6573 33.3631C15.6267 33.3135 15.617 33.2538 15.6304 33.1972C15.6438 33.1405 15.6792 33.0914 15.7288 33.0608L16.276 32.72C16.3095 32.7001 16.3476 32.6893 16.3865 32.6887C16.4254 32.6882 16.4638 32.6978 16.4979 32.7168C16.5319 32.7357 16.5604 32.7632 16.5805 32.7966C16.6006 32.8299 16.6116 32.868 16.6123 32.9069V35.5182Z" fill="#FAFAFA"/>
<path d="M14.4185 33.002H16.7102" stroke="#191919" stroke-width="0.343756" stroke-linecap="round" stroke-linejoin="round"/>
<path d="M15.5645 34.1491V31.8574" stroke="#191919" stroke-width="0.343756" stroke-linecap="round" stroke-linejoin="round"/>
</g>
<path d="M65.1795 28.5372C65.5484 28.5368 65.902 28.39 66.1629 28.1292C66.4237 27.8684 66.5704 27.5147 66.5709 27.1458V26.6643C65.6507 26.8377 64.7057 26.8309 63.7881 26.6445V27.1458C63.7885 27.5147 63.9352 27.8684 64.1961 28.1292C64.4569 28.39 64.8106 28.5368 65.1795 28.5372Z" fill="#FAFAFA"/>
<path d="M70.8794 31.2914L69.7384 28.8932C69.5233 28.4443 69.1441 28.0949 68.6791 27.9171L67.8084 27.5853C67.4639 27.4834 67.2124 27.0787 67.0104 26.8027V27.0801C67.0186 27.336 66.9734 27.5907 66.8777 27.8281C66.782 28.0655 66.6378 28.2803 66.4544 28.4589C66.271 28.6375 66.0524 28.7758 65.8125 28.8652C65.5726 28.9545 65.3168 28.9929 65.0612 28.9778C64.8057 28.9628 64.5561 28.8946 64.3284 28.7777C64.1007 28.6607 63.8999 28.4976 63.7387 28.2988C63.5776 28.0999 63.4597 27.8696 63.3925 27.6226C63.3254 27.3756 63.3105 27.1173 63.3487 26.8642C63.1981 27.1537 62.9519 27.382 62.6519 27.5104L61.8363 27.8029C61.3682 27.9684 60.9822 28.3087 60.7592 28.7523L59.4797 31.2914C59.4619 31.3299 59.46 31.3739 59.4744 31.4138C59.4888 31.4536 59.5184 31.4862 59.5566 31.5045L61.2609 32.2795C61.2929 32.2941 61.328 32.3008 61.3631 32.2991C61.3983 32.2973 61.4325 32.2871 61.4629 32.2694C61.4933 32.2517 61.519 32.2269 61.5378 32.1972C61.5567 32.1675 61.5681 32.1337 61.5712 32.0987L61.6338 31.3843C61.6403 31.327 61.669 31.2745 61.7137 31.238C61.7583 31.2015 61.8155 31.1839 61.8729 31.1889C61.9304 31.194 61.9836 31.2212 62.0213 31.2649C62.0589 31.3086 62.078 31.3653 62.0745 31.4229L61.5438 37.455C61.5436 37.4978 61.5522 37.5403 61.569 37.5797C61.5858 37.6191 61.6106 37.6546 61.6417 37.684C61.6728 37.7135 61.7096 37.7363 61.7498 37.7509C61.7901 37.7656 61.8329 37.7719 61.8757 37.7693H68.5009C68.5439 37.7719 68.5869 37.7655 68.6273 37.7507C68.6677 37.7359 68.7046 37.713 68.7358 37.6833C68.7669 37.6536 68.7916 37.6178 68.8083 37.5781C68.825 37.5385 68.8333 37.4958 68.8328 37.4528C68.7389 36.4461 68.3503 32.3409 68.2642 31.4241C68.26 31.3667 68.2785 31.31 68.3157 31.2661C68.3529 31.2222 68.4057 31.1946 68.463 31.1892C68.5203 31.1838 68.5774 31.2011 68.6221 31.2373C68.6668 31.2735 68.6955 31.3257 68.7022 31.3829L68.7689 32.0899C68.7722 32.1246 68.7837 32.1581 68.8025 32.1875C68.8213 32.2169 68.8468 32.2414 68.877 32.259C68.9071 32.2766 68.941 32.2868 68.9758 32.2886C69.0107 32.2905 69.0455 32.2841 69.0773 32.2699L70.8024 31.5002C70.8401 31.4824 70.8693 31.4506 70.8837 31.4115C70.8981 31.3724 70.8965 31.3294 70.8794 31.2914ZM64.7617 35.5182C64.76 35.5754 64.7361 35.6295 64.6951 35.6693C64.654 35.7091 64.5991 35.7314 64.542 35.7314C64.4849 35.7314 64.43 35.7091 64.389 35.6693C64.3479 35.6295 64.324 35.5754 64.3223 35.5182V33.3027L64.109 33.4345C64.0595 33.4638 64.0004 33.4725 63.9446 33.4587C63.8887 33.4449 63.8405 33.4098 63.8103 33.3608C63.7801 33.3119 63.7703 33.253 63.783 33.1969C63.7957 33.1408 63.83 33.0919 63.8784 33.0608L64.4256 32.72C64.459 32.7001 64.4972 32.6893 64.5361 32.6887C64.575 32.6882 64.6134 32.6978 64.6475 32.7168C64.6815 32.7357 64.71 32.7632 64.7301 32.7966C64.7502 32.8299 64.7611 32.868 64.7619 32.9069L64.7617 35.5182ZM66.3423 35.5182C66.3423 35.5765 66.3192 35.6325 66.2779 35.6737C66.2367 35.7149 66.1808 35.7381 66.1225 35.7381C66.0642 35.7381 66.0083 35.7149 65.9671 35.6737C65.9258 35.6325 65.9027 35.5765 65.9027 35.5182V33.3027L65.6896 33.4345C65.64 33.4651 65.5803 33.4748 65.5237 33.4614C65.467 33.448 65.4179 33.4126 65.3873 33.3631C65.3567 33.3135 65.347 33.2538 65.3604 33.1972C65.3738 33.1405 65.4092 33.0914 65.4587 33.0608L66.006 32.72C66.0394 32.7001 66.0775 32.6893 66.1165 32.6887C66.1554 32.6882 66.1938 32.6978 66.2279 32.7168C66.2619 32.7357 66.2904 32.7632 66.3105 32.7966C66.3306 32.8299 66.3415 32.868 66.3423 32.9069V35.5182Z" fill="#FAFAFA"/>
<path d="M64.7617 35.5182C64.76 35.5754 64.7361 35.6295 64.6951 35.6693C64.654 35.7091 64.5991 35.7314 64.542 35.7314C64.4849 35.7314 64.43 35.7091 64.389 35.6693C64.3479 35.6295 64.324 35.5754 64.3223 35.5182V33.3027L64.109 33.4345C64.0595 33.4638 64.0004 33.4725 63.9446 33.4587C63.8887 33.4449 63.8405 33.4098 63.8103 33.3608C63.7801 33.3119 63.7703 33.253 63.783 33.1969C63.7957 33.1408 63.83 33.0919 63.8784 33.0608L64.4256 32.72C64.459 32.7001 64.4972 32.6893 64.5361 32.6887C64.575 32.6882 64.6134 32.6978 64.6475 32.7168C64.6815 32.7357 64.71 32.7632 64.7301 32.7966C64.7502 32.8299 64.7611 32.868 64.7619 32.9069L64.7617 35.5182Z" fill="#FAFAFA"/>
<path d="M66.3423 35.5182C66.3423 35.5765 66.3192 35.6325 66.2779 35.6737C66.2367 35.7149 66.1808 35.7381 66.1225 35.7381C66.0642 35.7381 66.0083 35.7149 65.9671 35.6737C65.9258 35.6325 65.9027 35.5765 65.9027 35.5182V33.3027L65.6896 33.4345C65.64 33.4651 65.5803 33.4748 65.5237 33.4614C65.467 33.448 65.4179 33.4126 65.3873 33.3631C65.3567 33.3135 65.347 33.2538 65.3604 33.1972C65.3738 33.1405 65.4092 33.0914 65.4587 33.0608L66.006 32.72C66.0394 32.7001 66.0775 32.6893 66.1165 32.6887C66.1554 32.6882 66.1938 32.6978 66.2279 32.7168C66.2619 32.7357 66.2904 32.7632 66.3105 32.7966C66.3306 32.8299 66.3415 32.868 66.3423 32.9069V35.5182Z" fill="#FAFAFA"/>
<path d="M64.1484 33.002H66.4401" stroke="#191919" stroke-width="0.343756" stroke-linecap="round" stroke-linejoin="round"/>
<path d="M65.2944 34.1491V31.8574" stroke="#191919" stroke-width="0.343756" stroke-linecap="round" stroke-linejoin="round"/>
<g clip-path="url(#clip2_8747_14012)">
<path d="M40.429 46.6427C40.7979 46.6422 41.1515 46.4955 41.4124 46.2347C41.6732 45.9738 41.8199 45.6202 41.8204 45.2513V44.7698C40.9002 44.9431 39.9552 44.9364 39.0376 44.75V45.2513C39.038 45.6202 39.1848 45.9738 39.4456 46.2347C39.7064 46.4955 40.0601 46.6422 40.429 46.6427Z" fill="#FAFAFA"/>
<path d="M46.1289 49.3969L44.9879 46.9987C44.7728 46.5497 44.3936 46.2004 43.9286 46.0226L43.0579 45.6907C42.7134 45.5889 42.4619 45.1842 42.2599 44.9082V45.1856C42.2681 45.4414 42.2229 45.6962 42.1272 45.9336C42.0315 46.171 41.8873 46.3858 41.7039 46.5644C41.5205 46.7429 41.3019 46.8813 41.062 46.9707C40.8222 47.06 40.5663 47.0984 40.3108 47.0833C40.0552 47.0682 39.8056 47.0001 39.5779 46.8831C39.3502 46.7662 39.1494 46.6031 38.9883 46.4042C38.8271 46.2053 38.7092 45.975 38.6421 45.728C38.5749 45.481 38.56 45.2227 38.5982 44.9696C38.4477 45.2591 38.2014 45.4875 37.9014 45.6158L37.0858 45.9083C36.6177 46.0739 36.2317 46.4141 36.0087 46.8578L34.7292 49.3969C34.7114 49.4354 34.7095 49.4793 34.7239 49.5192C34.7383 49.5591 34.7679 49.5917 34.8061 49.61L36.5104 50.385C36.5424 50.3996 36.5775 50.4063 36.6126 50.4045C36.6478 50.4028 36.682 50.3926 36.7124 50.3749C36.7428 50.3572 36.7685 50.3324 36.7873 50.3027C36.8062 50.273 36.8176 50.2392 36.8207 50.2041L36.8833 49.4898C36.8899 49.4325 36.9185 49.38 36.9632 49.3435C37.0078 49.307 37.065 49.2894 37.1224 49.2944C37.1799 49.2994 37.2331 49.3267 37.2708 49.3704C37.3084 49.4141 37.3275 49.4708 37.324 49.5283L36.7933 55.5605C36.7931 55.6033 36.8017 55.6457 36.8185 55.6851C36.8353 55.7245 36.8601 55.76 36.8912 55.7895C36.9223 55.819 36.9591 55.8417 36.9993 55.8564C37.0396 55.8711 37.0824 55.8773 37.1252 55.8748H43.7504C43.7934 55.8773 43.8364 55.871 43.8768 55.8562C43.9172 55.8414 43.9542 55.8184 43.9853 55.7887C44.0164 55.759 44.0411 55.7232 44.0578 55.6836C44.0745 55.6439 44.0828 55.6012 44.0823 55.5582C43.9884 54.5516 43.5998 50.4464 43.5137 49.5296C43.5095 49.4722 43.528 49.4155 43.5652 49.3716C43.6024 49.3277 43.6553 49.3001 43.7125 49.2947C43.7698 49.2893 43.8269 49.3065 43.8716 49.3427C43.9163 49.3789 43.9451 49.4312 43.9517 49.4883L44.0184 50.1953C44.0217 50.2301 44.0332 50.2635 44.052 50.293C44.0708 50.3224 44.0963 50.3469 44.1265 50.3645C44.1566 50.3821 44.1905 50.3922 44.2253 50.3941C44.2602 50.396 44.295 50.3896 44.3268 50.3754L46.0519 49.6057C46.0896 49.5879 46.1188 49.556 46.1332 49.5169C46.1476 49.4778 46.146 49.4349 46.1289 49.3969ZM40.0112 53.6237C40.0095 53.6808 39.9856 53.735 39.9446 53.7748C39.9036 53.8146 39.8487 53.8368 39.7915 53.8368C39.7344 53.8368 39.6795 53.8146 39.6385 53.7748C39.5975 53.735 39.5735 53.6808 39.5718 53.6237V51.4081L39.3585 51.54C39.309 51.5693 39.25 51.578 39.1941 51.5642C39.1383 51.5504 39.09 51.5153 39.0598 51.4663C39.0296 51.4173 39.0198 51.3585 39.0325 51.3024C39.0453 51.2463 39.0795 51.1974 39.1279 51.1663L39.6751 50.8254C39.7086 50.8055 39.7467 50.7948 39.7856 50.7942C39.8245 50.7937 39.863 50.8033 39.897 50.8222C39.931 50.8412 39.9595 50.8687 39.9796 50.902C39.9997 50.9354 40.0107 50.9734 40.0114 51.0124L40.0112 53.6237ZM41.5918 53.6237C41.5918 53.682 41.5687 53.7379 41.5274 53.7791C41.4862 53.8204 41.4303 53.8435 41.372 53.8435C41.3137 53.8435 41.2578 53.8204 41.2166 53.7791C41.1753 53.7379 41.1522 53.682 41.1522 53.6237V51.4081L40.9391 51.54C40.8895 51.5706 40.8299 51.5803 40.7732 51.5669C40.7165 51.5535 40.6674 51.5181 40.6368 51.4686C40.6062 51.419 40.5965 51.3593 40.6099 51.3026C40.6233 51.2459 40.6587 51.1969 40.7083 51.1663L41.2555 50.8254C41.2889 50.8055 41.3271 50.7948 41.366 50.7942C41.4049 50.7937 41.4433 50.8033 41.4774 50.8222C41.5114 50.8412 41.5399 50.8687 41.56 50.902C41.5801 50.9354 41.591 50.9734 41.5918 51.0124V53.6237Z" fill="#FAFAFA"/>
<path d="M40.0112 53.6237C40.0095 53.6808 39.9856 53.735 39.9446 53.7748C39.9036 53.8146 39.8487 53.8368 39.7915 53.8368C39.7344 53.8368 39.6795 53.8146 39.6385 53.7748C39.5975 53.735 39.5735 53.6808 39.5718 53.6237V51.4081L39.3585 51.54C39.309 51.5693 39.25 51.578 39.1941 51.5642C39.1383 51.5504 39.09 51.5153 39.0598 51.4663C39.0296 51.4173 39.0198 51.3585 39.0325 51.3024C39.0453 51.2463 39.0795 51.1974 39.1279 51.1663L39.6751 50.8254C39.7086 50.8055 39.7467 50.7948 39.7856 50.7942C39.8245 50.7937 39.863 50.8033 39.897 50.8222C39.931 50.8412 39.9595 50.8687 39.9796 50.902C39.9997 50.9354 40.0107 50.9734 40.0114 51.0124L40.0112 53.6237Z" fill="#FAFAFA"/>
<path d="M41.5918 53.6237C41.5918 53.682 41.5687 53.7379 41.5274 53.7791C41.4862 53.8204 41.4303 53.8435 41.372 53.8435C41.3137 53.8435 41.2578 53.8204 41.2166 53.7791C41.1753 53.7379 41.1522 53.682 41.1522 53.6237V51.4081L40.9391 51.54C40.8895 51.5706 40.8299 51.5803 40.7732 51.5669C40.7165 51.5535 40.6674 51.5181 40.6368 51.4686C40.6062 51.419 40.5965 51.3593 40.6099 51.3026C40.6233 51.2459 40.6587 51.1969 40.7083 51.1663L41.2555 50.8254C41.2889 50.8055 41.3271 50.7948 41.366 50.7942C41.4049 50.7937 41.4433 50.8033 41.4774 50.8222C41.5114 50.8412 41.5399 50.8687 41.56 50.902C41.5801 50.9354 41.591 50.9734 41.5918 51.0124V53.6237Z" fill="#FAFAFA"/>
<path d="M39.3979 51.1055H41.6897" stroke="#191919" stroke-width="0.343756" stroke-linecap="round" stroke-linejoin="round"/>
<path d="M40.5439 52.2526V49.9609" stroke="#191919" stroke-width="0.343756" stroke-linecap="round" stroke-linejoin="round"/>
</g>
<g clip-path="url(#clip3_8747_14012)">
<path d="M40.429 6.99618C40.7979 6.99575 41.1515 6.84902 41.4124 6.58818C41.6732 6.32734 41.8199 5.97368 41.8204 5.6048V5.12331C40.9002 5.29665 39.9552 5.28993 39.0376 5.10352V5.6048C39.038 5.97368 39.1848 6.32734 39.4456 6.58818C39.7064 6.84902 40.0601 6.99575 40.429 6.99618Z" fill="#FAFAFA"/>
<path d="M46.1289 9.7504L44.9879 7.35217C44.7728 6.90324 44.3936 6.55392 43.9286 6.37613L43.0579 6.04426C42.7134 5.94241 42.4619 5.53767 42.2599 5.26172V5.5391C42.2681 5.79494 42.2229 6.04969 42.1272 6.28709C42.0315 6.52449 41.8873 6.73932 41.7039 6.91789C41.5205 7.09646 41.3019 7.23483 41.062 7.32418C40.8222 7.41353 40.5663 7.45189 40.3108 7.43682C40.0552 7.42175 39.8056 7.35358 39.5779 7.23666C39.3502 7.11973 39.1494 6.95662 38.9883 6.75774C38.8271 6.55885 38.7092 6.32856 38.6421 6.08155C38.5749 5.83455 38.56 5.57625 38.5982 5.32315C38.4477 5.61265 38.2014 5.84101 37.9014 5.96935L37.0858 6.26184C36.6177 6.42743 36.2317 6.76766 36.0087 7.21133L34.7292 9.7504C34.7114 9.7889 34.7095 9.83286 34.7239 9.87274C34.7383 9.91262 34.7679 9.94522 34.8061 9.96349L36.5104 10.7385C36.5424 10.7531 36.5775 10.7598 36.6126 10.758C36.6478 10.7563 36.682 10.7461 36.7124 10.7284C36.7428 10.7107 36.7685 10.6859 36.7873 10.6562C36.8062 10.6265 36.8176 10.5927 36.8207 10.5576L36.8833 9.84327C36.8899 9.78597 36.9185 9.73348 36.9632 9.69699C37.0078 9.6605 37.065 9.64289 37.1224 9.64792C37.1799 9.65295 37.2331 9.68022 37.2708 9.72392C37.3084 9.76761 37.3275 9.82428 37.324 9.88185L36.7933 15.914C36.7931 15.9568 36.8017 15.9992 36.8185 16.0386C36.8353 16.078 36.8601 16.1136 36.8912 16.143C36.9223 16.1725 36.9591 16.1952 36.9993 16.2099C37.0396 16.2246 37.0824 16.2308 37.1252 16.2283H43.7504C43.7934 16.2309 43.8364 16.2245 43.8768 16.2097C43.9172 16.1949 43.9542 16.172 43.9853 16.1423C44.0164 16.1126 44.0411 16.0768 44.0578 16.0371C44.0745 15.9974 44.0828 15.9548 44.0823 15.9117C43.9884 14.9051 43.5998 10.7999 43.5137 9.88307C43.5095 9.8257 43.528 9.76899 43.5652 9.72508C43.6024 9.68118 43.6553 9.65357 43.7125 9.64818C43.7698 9.64279 43.8269 9.66004 43.8716 9.69624C43.9163 9.73244 43.9451 9.78471 43.9517 9.84184L44.0184 10.5489C44.0217 10.5836 44.0332 10.6171 44.052 10.6465C44.0708 10.6759 44.0963 10.7004 44.1265 10.718C44.1566 10.7356 44.1905 10.7457 44.2253 10.7476C44.2602 10.7495 44.295 10.7431 44.3268 10.7289L46.0519 9.9592C46.0896 9.94143 46.1188 9.90955 46.1332 9.87045C46.1476 9.83136 46.146 9.78837 46.1289 9.7504ZM40.0112 13.9772C40.0095 14.0343 39.9856 14.0885 39.9446 14.1283C39.9036 14.1681 39.8487 14.1903 39.7915 14.1903C39.7344 14.1903 39.6795 14.1681 39.6385 14.1283C39.5975 14.0885 39.5735 14.0343 39.5718 13.9772V11.7617L39.3585 11.8935C39.309 11.9228 39.25 11.9315 39.1941 11.9177C39.1383 11.9039 39.09 11.8688 39.0598 11.8198C39.0296 11.7709 39.0198 11.712 39.0325 11.6559C39.0453 11.5998 39.0795 11.5509 39.1279 11.5198L39.6751 11.1789C39.7086 11.159 39.7467 11.1483 39.7856 11.1477C39.8245 11.1472 39.863 11.1568 39.897 11.1757C39.931 11.1947 39.9595 11.2222 39.9796 11.2555C39.9997 11.2889 40.0107 11.327 40.0114 11.3659L40.0112 13.9772ZM41.5918 13.9772C41.5918 14.0355 41.5687 14.0914 41.5274 14.1327C41.4862 14.1739 41.4303 14.197 41.372 14.197C41.3137 14.197 41.2578 14.1739 41.2166 14.1327C41.1753 14.0914 41.1522 14.0355 41.1522 13.9772V11.7617L40.9391 11.8935C40.8895 11.9241 40.8299 11.9338 40.7732 11.9204C40.7165 11.907 40.6674 11.8716 40.6368 11.8221C40.6062 11.7725 40.5965 11.7128 40.6099 11.6561C40.6233 11.5995 40.6587 11.5504 40.7083 11.5198L41.2555 11.1789C41.2889 11.159 41.3271 11.1483 41.366 11.1477C41.4049 11.1472 41.4433 11.1568 41.4774 11.1757C41.5114 11.1947 41.5399 11.2222 41.56 11.2555C41.5801 11.2889 41.591 11.327 41.5918 11.3659V13.9772Z" fill="#FAFAFA"/>
<path d="M40.0112 13.9772C40.0095 14.0343 39.9856 14.0885 39.9446 14.1283C39.9036 14.1681 39.8487 14.1903 39.7915 14.1903C39.7344 14.1903 39.6795 14.1681 39.6385 14.1283C39.5975 14.0885 39.5735 14.0343 39.5718 13.9772V11.7617L39.3585 11.8935C39.309 11.9228 39.25 11.9315 39.1941 11.9177C39.1383 11.9039 39.09 11.8688 39.0598 11.8198C39.0296 11.7709 39.0198 11.712 39.0325 11.6559C39.0453 11.5998 39.0795 11.5509 39.1279 11.5198L39.6751 11.1789C39.7086 11.159 39.7467 11.1483 39.7856 11.1477C39.8245 11.1472 39.863 11.1568 39.897 11.1757C39.931 11.1947 39.9595 11.2222 39.9796 11.2555C39.9997 11.2889 40.0107 11.327 40.0114 11.3659L40.0112 13.9772Z" fill="#FAFAFA"/>
<path d="M41.5918 13.9772C41.5918 14.0355 41.5687 14.0914 41.5274 14.1327C41.4862 14.1739 41.4303 14.197 41.372 14.197C41.3137 14.197 41.2578 14.1739 41.2166 14.1327C41.1753 14.0914 41.1522 14.0355 41.1522 13.9772V11.7617L40.9391 11.8935C40.8895 11.9241 40.8299 11.9338 40.7732 11.9204C40.7165 11.907 40.6674 11.8716 40.6368 11.8221C40.6062 11.7725 40.5965 11.7128 40.6099 11.6561C40.6233 11.5995 40.6587 11.5504 40.7083 11.5198L41.2555 11.1789C41.2889 11.159 41.3271 11.1483 41.366 11.1477C41.4049 11.1472 41.4433 11.1568 41.4774 11.1757C41.5114 11.1947 41.5399 11.2222 41.56 11.2555C41.5801 11.2889 41.591 11.327 41.5918 11.3659V13.9772Z" fill="#FAFAFA"/>
<path d="M39.3979 11.4609H41.6897" stroke="#191919" stroke-width="0.343756" stroke-linecap="round" stroke-linejoin="round"/>
<path d="M40.5439 12.6081V10.3164" stroke="#191919" stroke-width="0.343756" stroke-linecap="round" stroke-linejoin="round"/>
</g>
<defs>
<clipPath id="clip0_8747_14012">
<rect width="13.0627" height="13.0627" fill="white" transform="translate(33.8979 62.5645)"/>
</clipPath>
<clipPath id="clip1_8747_14012">
<rect width="13.0627" height="13.0627" fill="white" transform="translate(8.91846 25.6699)"/>
</clipPath>
<clipPath id="clip2_8747_14012">
<rect width="13.0627" height="13.0627" fill="white" transform="translate(33.8979 43.7734)"/>
</clipPath>
<clipPath id="clip3_8747_14012">
<rect width="13.0627" height="13.0627" fill="white" transform="translate(33.8979 4.12695)"/>
</clipPath>
</defs>
</svg>
