<svg width="81" height="81" viewBox="0 0 81 81" fill="none" xmlns="http://www.w3.org/2000/svg">
<rect x="0.534263" y="0.118492" width="79.9807" height="79.9807" rx="5.88541" fill="#828284" stroke="#FAFAFA" stroke-width="0.229171"/>
<mask id="path-2-inside-1_8747_14050" fill="white">
<path d="M24.2534 66.4609H56.7957V80.2112H24.2534V66.4609Z"/>
</mask>
<path d="M24.2534 66.4609V66.2318H24.0242V66.4609H24.2534ZM56.7957 66.4609H57.0249V66.2318H56.7957V66.4609ZM24.2534 66.6901H56.7957V66.2318H24.2534V66.6901ZM56.5665 66.4609V80.2112H57.0249V66.4609H56.5665ZM24.4826 80.2112V66.4609H24.0242V80.2112H24.4826Z" fill="#FAFAFA" mask="url(#path-2-inside-1_8747_14050)"/>
<mask id="path-4-inside-2_8747_14050" fill="white">
<path d="M13.0239 55.0039H68.025V80.2127H13.0239V55.0039Z"/>
</mask>
<path d="M13.0239 55.0039V54.7747H12.7948V55.0039H13.0239ZM68.025 55.0039H68.2541V54.7747H68.025V55.0039ZM13.0239 55.2331H68.025V54.7747H13.0239V55.2331ZM67.7958 55.0039V80.2127H68.2541V55.0039H67.7958ZM13.2531 80.2127V55.0039H12.7948V80.2127H13.2531Z" fill="#FAFAFA" mask="url(#path-4-inside-2_8747_14050)"/>
<path d="M54.7331 9.53674e-07C54.7331 1.65523 54.3478 3.29426 53.5992 4.8235C52.8506 6.35273 51.7534 7.74223 50.3702 8.91266C48.9869 10.0831 47.3448 11.0115 45.5375 11.645C43.7302 12.2784 41.7932 12.6044 39.837 12.6044C37.8808 12.6044 35.9438 12.2784 34.1365 11.645C32.3293 11.0115 30.6871 10.0831 29.3039 8.91266C27.9207 7.74223 26.8234 6.35273 26.0748 4.8235C25.3262 3.29426 24.9409 1.65523 24.9409 0" stroke="#FAFAFA" stroke-width="0.229171"/>
<path d="M30.212 57.9824C30.212 57.0796 30.4788 56.1856 30.997 55.3514C31.5153 54.5173 32.2749 53.7594 33.2325 53.121C34.1902 52.4826 35.327 51.9761 36.5782 51.6306C37.8294 51.2851 39.1704 51.1073 40.5247 51.1073C41.879 51.1073 43.22 51.2851 44.4712 51.6306C45.7224 51.9761 46.8593 52.4826 47.8169 53.121C48.7745 53.7594 49.5341 54.5173 50.0524 55.3514C50.5707 56.1856 50.8374 57.0796 50.8374 57.9824" stroke="#FAFAFA" stroke-width="0.229171"/>
<rect x="27.9202" y="55.2305" width="26.1255" height="3.89591" fill="#828284"/>
<path d="M0.648926 76.5479C1.76545 76.4958 3.96938 77.1099 3.85288 79.9825" stroke="#FAFAFA" stroke-width="0.229171"/>
<path d="M80.4004 76.5479C79.2839 76.4958 77.0799 77.1099 77.1964 79.9825" stroke="#FAFAFA" stroke-width="0.229171"/>
<g clip-path="url(#clip0_8747_14050)">
<path d="M40.6389 65.4356C41.0078 65.4352 41.3615 65.2885 41.6223 65.0276C41.8832 64.7668 42.0299 64.4131 42.0303 64.0443V63.5628C41.1102 63.7361 40.1651 63.7294 39.2476 63.543V64.0443C39.248 64.4131 39.3947 64.7668 39.6556 65.0276C39.9164 65.2885 40.2701 65.4352 40.6389 65.4356Z" fill="#FAFAFA"/>
<path d="M46.3389 68.1899L45.1979 65.7916C44.9827 65.3427 44.6036 64.9934 44.1386 64.8156L43.2679 64.4837C42.9234 64.3819 42.6719 63.9771 42.4698 63.7012V63.9786C42.4781 64.2344 42.4329 64.4891 42.3372 64.7265C42.2414 64.9639 42.0973 65.1788 41.9139 65.3573C41.7305 65.5359 41.5119 65.6743 41.272 65.7636C41.0321 65.853 40.7762 65.8913 40.5207 65.8763C40.2652 65.8612 40.0156 65.793 39.7879 65.6761C39.5602 65.5592 39.3594 65.3961 39.1982 65.1972C39.0371 64.9983 38.9192 64.768 38.852 64.521C38.7849 64.274 38.7699 64.0157 38.8082 63.7626C38.6576 64.0521 38.4114 64.2805 38.1114 64.4088L37.2958 64.7013C36.8276 64.8669 36.4417 65.2071 36.2187 65.6508L34.9392 68.1899C34.9214 68.2284 34.9195 68.2723 34.9339 68.3122C34.9483 68.3521 34.9778 68.3847 35.0161 68.4029L36.7204 69.1779C36.7524 69.1925 36.7874 69.1992 36.8226 69.1975C36.8577 69.1957 36.8919 69.1856 36.9223 69.1679C36.9527 69.1501 36.9784 69.1254 36.9973 69.0957C37.0161 69.066 37.0276 69.0321 37.0306 68.9971L37.0933 68.2827C37.0998 68.2254 37.1285 68.1729 37.1731 68.1364C37.2178 68.1 37.2749 68.0823 37.3324 68.0874C37.3899 68.0924 37.4431 68.1197 37.4807 68.1634C37.5184 68.2071 37.5375 68.2637 37.5339 68.3213L37.0033 74.3534C37.0031 74.3963 37.0116 74.4387 37.0285 74.4781C37.0453 74.5175 37.07 74.553 37.1011 74.5825C37.1322 74.6119 37.1691 74.6347 37.2093 74.6494C37.2496 74.664 37.2924 74.6703 37.3351 74.6678H43.9604C44.0034 74.6703 44.0464 74.664 44.0868 74.6492C44.1272 74.6344 44.1641 74.6114 44.1953 74.5817C44.2264 74.552 44.2511 74.5162 44.2678 74.4766C44.2845 74.4369 44.2928 74.3942 44.2923 74.3512C44.1984 73.3445 43.8098 69.2394 43.7236 68.3225C43.7195 68.2652 43.738 68.2084 43.7752 68.1645C43.8123 68.1206 43.8652 68.093 43.9225 68.0876C43.9798 68.0822 44.0369 68.0995 44.0816 68.1357C44.1263 68.1719 44.155 68.2242 44.1617 68.2813L44.2284 68.9883C44.2317 69.0231 44.2432 69.0565 44.262 69.0859C44.2808 69.1153 44.3063 69.1398 44.3364 69.1574C44.3666 69.175 44.4005 69.1852 44.4353 69.1871C44.4701 69.189 44.5049 69.1826 44.5368 69.1683L46.2619 68.3987C46.2996 68.3809 46.3288 68.349 46.3432 68.3099C46.3576 68.2708 46.356 68.2278 46.3389 68.1899ZM40.2212 72.4167C40.2195 72.4738 40.1955 72.528 40.1545 72.5678C40.1135 72.6076 40.0586 72.6298 40.0015 72.6298C39.9443 72.6298 39.8894 72.6076 39.8484 72.5678C39.8074 72.528 39.7835 72.4738 39.7818 72.4167V70.2011L39.5685 70.333C39.519 70.3623 39.4599 70.3709 39.4041 70.3572C39.3482 70.3434 39.3 70.3082 39.2698 70.2593C39.2396 70.2103 39.2298 70.1515 39.2425 70.0954C39.2552 70.0392 39.2895 69.9904 39.3378 69.9592L39.885 69.6184C39.9185 69.5985 39.9566 69.5877 39.9956 69.5872C40.0345 69.5866 40.0729 69.5963 40.107 69.6152C40.141 69.6341 40.1695 69.6616 40.1896 69.695C40.2096 69.7284 40.2206 69.7664 40.2214 69.8054L40.2212 72.4167ZM41.8018 72.4167C41.8018 72.475 41.7786 72.5309 41.7374 72.5721C41.6962 72.6133 41.6403 72.6365 41.582 72.6365C41.5237 72.6365 41.4678 72.6133 41.4265 72.5721C41.3853 72.5309 41.3621 72.475 41.3621 72.4167V70.2011L41.1491 70.333C41.0995 70.3636 41.0398 70.3732 40.9831 70.3598C40.9264 70.3465 40.8774 70.3111 40.8468 70.2615C40.8162 70.212 40.8065 70.1523 40.8199 70.0956C40.8333 70.0389 40.8687 69.9899 40.9182 69.9592L41.4654 69.6184C41.4989 69.5985 41.537 69.5877 41.576 69.5872C41.6149 69.5866 41.6533 69.5963 41.6873 69.6152C41.7214 69.6341 41.7499 69.6616 41.7699 69.695C41.79 69.7284 41.801 69.7664 41.8018 69.8054V72.4167Z" fill="#FAFAFA"/>
<path d="M40.2212 72.4167C40.2195 72.4738 40.1955 72.528 40.1545 72.5678C40.1135 72.6076 40.0586 72.6298 40.0015 72.6298C39.9443 72.6298 39.8894 72.6076 39.8484 72.5678C39.8074 72.528 39.7835 72.4738 39.7818 72.4167V70.2011L39.5685 70.333C39.519 70.3623 39.4599 70.3709 39.4041 70.3572C39.3482 70.3434 39.3 70.3082 39.2698 70.2593C39.2396 70.2103 39.2298 70.1515 39.2425 70.0954C39.2552 70.0392 39.2895 69.9904 39.3378 69.9592L39.885 69.6184C39.9185 69.5985 39.9566 69.5877 39.9956 69.5872C40.0345 69.5866 40.0729 69.5963 40.107 69.6152C40.141 69.6341 40.1695 69.6616 40.1896 69.695C40.2096 69.7284 40.2206 69.7664 40.2214 69.8054L40.2212 72.4167Z" fill="#FAFAFA"/>
<path d="M41.8018 72.4167C41.8018 72.475 41.7786 72.5309 41.7374 72.5721C41.6962 72.6133 41.6403 72.6365 41.582 72.6365C41.5237 72.6365 41.4678 72.6133 41.4265 72.5721C41.3853 72.5309 41.3621 72.475 41.3621 72.4167V70.2011L41.1491 70.333C41.0995 70.3636 41.0398 70.3732 40.9831 70.3598C40.9264 70.3465 40.8774 70.3111 40.8468 70.2615C40.8162 70.212 40.8065 70.1523 40.8199 70.0956C40.8333 70.0389 40.8687 69.9899 40.9182 69.9592L41.4654 69.6184C41.4989 69.5985 41.537 69.5877 41.576 69.5872C41.6149 69.5866 41.6533 69.5963 41.6873 69.6152C41.7214 69.6341 41.7499 69.6616 41.7699 69.695C41.79 69.7284 41.801 69.7664 41.8018 69.8054V72.4167Z" fill="#FAFAFA"/>
<path d="M39.6079 69.8965H41.8996" stroke="#191919" stroke-width="0.343756" stroke-linecap="round" stroke-linejoin="round"/>
<path d="M40.7539 71.0437V68.752" stroke="#191919" stroke-width="0.343756" stroke-linecap="round" stroke-linejoin="round"/>
</g>
<g clip-path="url(#clip1_8747_14050)">
<path d="M15.6592 48.5372C16.0281 48.5368 16.3817 48.39 16.6426 48.1292C16.9034 47.8684 17.0502 47.5147 17.0506 47.1458V46.6643C16.1304 46.8377 15.1854 46.8309 14.2678 46.6445V47.1458C14.2683 47.5147 14.415 47.8684 14.6758 48.1292C14.9367 48.39 15.2903 48.5368 15.6592 48.5372Z" fill="#FAFAFA"/>
<path d="M21.3591 51.2914L20.2182 48.8932C20.003 48.4443 19.6239 48.0949 19.1589 47.9171L18.2881 47.5853C17.9436 47.4834 17.6922 47.0787 17.4901 46.8027V47.0801C17.4983 47.336 17.4531 47.5907 17.3574 47.8281C17.2617 48.0655 17.1175 48.2803 16.9341 48.4589C16.7507 48.6375 16.5321 48.7758 16.2922 48.8652C16.0524 48.9545 15.7965 48.9929 15.541 48.9778C15.2855 48.9628 15.0359 48.8946 14.8082 48.7777C14.5805 48.6607 14.3796 48.4976 14.2185 48.2988C14.0573 48.0999 13.9394 47.8696 13.8723 47.6226C13.8051 47.3756 13.7902 47.1173 13.8284 46.8642C13.6779 47.1537 13.4316 47.382 13.1316 47.5104L12.316 47.8029C11.8479 47.9684 11.4619 48.3087 11.239 48.7523L9.95942 51.2914C9.94165 51.3299 9.93976 51.3739 9.95417 51.4138C9.96857 51.4536 9.9981 51.4862 10.0364 51.5045L11.7406 52.2795C11.7727 52.2941 11.8077 52.3008 11.8429 52.2991C11.878 52.2973 11.9122 52.2871 11.9426 52.2694C11.973 52.2517 11.9987 52.2269 12.0175 52.1972C12.0364 52.1675 12.0478 52.1337 12.0509 52.0987L12.1135 51.3843C12.1201 51.327 12.1487 51.2745 12.1934 51.238C12.2381 51.2015 12.2952 51.1839 12.3527 51.1889C12.4101 51.194 12.4633 51.2212 12.501 51.2649C12.5386 51.3086 12.5577 51.3653 12.5542 51.4229L12.0235 57.455C12.0233 57.4978 12.0319 57.5403 12.0487 57.5797C12.0656 57.6191 12.0903 57.6546 12.1214 57.684C12.1525 57.7135 12.1893 57.7363 12.2296 57.7509C12.2698 57.7656 12.3126 57.7719 12.3554 57.7693H18.9807C19.0236 57.7719 19.0667 57.7655 19.1071 57.7507C19.1475 57.7359 19.1844 57.713 19.2155 57.6833C19.2467 57.6536 19.2713 57.6178 19.288 57.5781C19.3047 57.5385 19.3131 57.4958 19.3125 57.4528C19.2187 56.4461 18.83 52.3409 18.7439 51.4241C18.7398 51.3667 18.7583 51.31 18.7954 51.2661C18.8326 51.2222 18.8855 51.1946 18.9427 51.1892C19 51.1838 19.0571 51.2011 19.1018 51.2373C19.1465 51.2735 19.1753 51.3257 19.1819 51.3829L19.2487 52.0899C19.252 52.1246 19.2635 52.1581 19.2823 52.1875C19.301 52.2169 19.3266 52.2414 19.3567 52.259C19.3868 52.2766 19.4207 52.2868 19.4556 52.2886C19.4904 52.2905 19.5252 52.2841 19.5571 52.2699L21.2822 51.5002C21.3198 51.4824 21.349 51.4506 21.3634 51.4115C21.3778 51.3724 21.3763 51.3294 21.3591 51.2914ZM15.2415 55.5182C15.2397 55.5754 15.2158 55.6295 15.1748 55.6693C15.1338 55.7091 15.0789 55.7314 15.0217 55.7314C14.9646 55.7314 14.9097 55.7091 14.8687 55.6693C14.8277 55.6295 14.8038 55.5754 14.802 55.5182V53.3027L14.5887 53.4345C14.5392 53.4638 14.4802 53.4725 14.4243 53.4587C14.3685 53.4449 14.3203 53.4098 14.29 53.3608C14.2598 53.3119 14.25 53.253 14.2628 53.1969C14.2755 53.1408 14.3097 53.0919 14.3581 53.0608L14.9053 52.72C14.9388 52.7001 14.9769 52.6893 15.0158 52.6887C15.0548 52.6882 15.0932 52.6978 15.1272 52.7168C15.1613 52.7357 15.1897 52.7632 15.2098 52.7966C15.2299 52.8299 15.2409 52.868 15.2417 52.9069L15.2415 55.5182ZM16.8221 55.5182C16.8221 55.5765 16.7989 55.6325 16.7577 55.6737C16.7164 55.7149 16.6605 55.7381 16.6022 55.7381C16.5439 55.7381 16.488 55.7149 16.4468 55.6737C16.4056 55.6325 16.3824 55.5765 16.3824 55.5182V53.3027L16.1693 53.4345C16.1198 53.4651 16.0601 53.4748 16.0034 53.4614C15.9467 53.448 15.8977 53.4126 15.867 53.3631C15.8364 53.3135 15.8268 53.2538 15.8402 53.1972C15.8536 53.1405 15.8889 53.0914 15.9385 53.0608L16.4857 52.72C16.5192 52.7001 16.5573 52.6893 16.5962 52.6887C16.6352 52.6882 16.6736 52.6978 16.7076 52.7168C16.7416 52.7357 16.7701 52.7632 16.7902 52.7966C16.8103 52.8299 16.8213 52.868 16.8221 52.9069V55.5182Z" fill="#FAFAFA"/>
<path d="M15.2415 55.5182C15.2397 55.5754 15.2158 55.6295 15.1748 55.6693C15.1338 55.7091 15.0789 55.7314 15.0217 55.7314C14.9646 55.7314 14.9097 55.7091 14.8687 55.6693C14.8277 55.6295 14.8038 55.5754 14.802 55.5182V53.3027L14.5887 53.4345C14.5392 53.4638 14.4802 53.4725 14.4243 53.4587C14.3685 53.4449 14.3203 53.4098 14.29 53.3608C14.2598 53.3119 14.25 53.253 14.2628 53.1969C14.2755 53.1408 14.3097 53.0919 14.3581 53.0608L14.9053 52.72C14.9388 52.7001 14.9769 52.6893 15.0158 52.6887C15.0548 52.6882 15.0932 52.6978 15.1272 52.7168C15.1613 52.7357 15.1897 52.7632 15.2098 52.7966C15.2299 52.8299 15.2409 52.868 15.2417 52.9069L15.2415 55.5182Z" fill="#FAFAFA"/>
<path d="M16.8221 55.5182C16.8221 55.5765 16.7989 55.6325 16.7577 55.6737C16.7164 55.7149 16.6605 55.7381 16.6022 55.7381C16.5439 55.7381 16.488 55.7149 16.4468 55.6737C16.4056 55.6325 16.3824 55.5765 16.3824 55.5182V53.3027L16.1693 53.4345C16.1198 53.4651 16.0601 53.4748 16.0034 53.4614C15.9467 53.448 15.8977 53.4126 15.867 53.3631C15.8364 53.3135 15.8268 53.2538 15.8402 53.1972C15.8536 53.1405 15.8889 53.0914 15.9385 53.0608L16.4857 52.72C16.5192 52.7001 16.5573 52.6893 16.5962 52.6887C16.6352 52.6882 16.6736 52.6978 16.7076 52.7168C16.7416 52.7357 16.7701 52.7632 16.7902 52.7966C16.8103 52.8299 16.8213 52.868 16.8221 52.9069V55.5182Z" fill="#FAFAFA"/>
<path d="M14.6282 53.002H16.9199" stroke="#191919" stroke-width="0.343756" stroke-linecap="round" stroke-linejoin="round"/>
<path d="M15.7742 54.1491V51.8574" stroke="#191919" stroke-width="0.343756" stroke-linecap="round" stroke-linejoin="round"/>
</g>
<g clip-path="url(#clip2_8747_14050)">
<path d="M15.6592 8.5372C16.0281 8.53677 16.3817 8.39004 16.6426 8.1292C16.9034 7.86835 17.0502 7.5147 17.0506 7.14581V6.66433C16.1304 6.83767 15.1854 6.83094 14.2678 6.64453V7.14581C14.2683 7.5147 14.415 7.86835 14.6758 8.1292C14.9367 8.39004 15.2903 8.53677 15.6592 8.5372Z" fill="#FAFAFA"/>
<path d="M21.3591 11.2914L20.2182 8.89318C20.003 8.44426 19.6239 8.09493 19.1589 7.91715L18.2881 7.58527C17.9436 7.48343 17.6922 7.07868 17.4901 6.80273V7.08011C17.4983 7.33595 17.4531 7.5907 17.3574 7.8281C17.2617 8.0655 17.1175 8.28034 16.9341 8.45891C16.7507 8.63747 16.5321 8.77584 16.2922 8.86519C16.0524 8.95454 15.7965 8.99291 15.541 8.97784C15.2855 8.96277 15.0359 8.8946 14.8082 8.77767C14.5805 8.66075 14.3796 8.49764 14.2185 8.29875C14.0573 8.09987 13.9394 7.86957 13.8723 7.62257C13.8051 7.37556 13.7902 7.11727 13.8284 6.86417C13.6779 7.15366 13.4316 7.38202 13.1316 7.51037L12.316 7.80285C11.8479 7.96844 11.4619 8.30868 11.239 8.75235L9.95942 11.2914C9.94165 11.3299 9.93976 11.3739 9.95417 11.4138C9.96857 11.4536 9.9981 11.4862 10.0364 11.5045L11.7406 12.2795C11.7727 12.2941 11.8077 12.3008 11.8429 12.2991C11.878 12.2973 11.9122 12.2871 11.9426 12.2694C11.973 12.2517 11.9987 12.2269 12.0175 12.1972C12.0364 12.1675 12.0478 12.1337 12.0509 12.0987L12.1135 11.3843C12.1201 11.327 12.1487 11.2745 12.1934 11.238C12.2381 11.2015 12.2952 11.1839 12.3527 11.1889C12.4101 11.194 12.4633 11.2212 12.501 11.2649C12.5386 11.3086 12.5577 11.3653 12.5542 11.4229L12.0235 17.455C12.0233 17.4978 12.0319 17.5403 12.0487 17.5797C12.0656 17.6191 12.0903 17.6546 12.1214 17.684C12.1525 17.7135 12.1893 17.7363 12.2296 17.7509C12.2698 17.7656 12.3126 17.7719 12.3554 17.7693H18.9807C19.0236 17.7719 19.0667 17.7655 19.1071 17.7507C19.1475 17.7359 19.1844 17.713 19.2155 17.6833C19.2467 17.6536 19.2713 17.6178 19.288 17.5781C19.3047 17.5385 19.3131 17.4958 19.3125 17.4528C19.2187 16.4461 18.83 12.3409 18.7439 11.4241C18.7398 11.3667 18.7583 11.31 18.7954 11.2661C18.8326 11.2222 18.8855 11.1946 18.9427 11.1892C19 11.1838 19.0571 11.2011 19.1018 11.2373C19.1465 11.2735 19.1753 11.3257 19.1819 11.3829L19.2487 12.0899C19.252 12.1246 19.2635 12.1581 19.2823 12.1875C19.301 12.2169 19.3266 12.2414 19.3567 12.259C19.3868 12.2766 19.4207 12.2868 19.4556 12.2886C19.4904 12.2905 19.5252 12.2841 19.5571 12.2699L21.2822 11.5002C21.3198 11.4824 21.349 11.4506 21.3634 11.4115C21.3778 11.3724 21.3763 11.3294 21.3591 11.2914ZM15.2415 15.5182C15.2397 15.5754 15.2158 15.6295 15.1748 15.6693C15.1338 15.7091 15.0789 15.7314 15.0217 15.7314C14.9646 15.7314 14.9097 15.7091 14.8687 15.6693C14.8277 15.6295 14.8038 15.5754 14.802 15.5182V13.3027L14.5887 13.4345C14.5392 13.4638 14.4802 13.4725 14.4243 13.4587C14.3685 13.4449 14.3203 13.4098 14.29 13.3608C14.2598 13.3119 14.25 13.253 14.2628 13.1969C14.2755 13.1408 14.3097 13.0919 14.3581 13.0608L14.9053 12.72C14.9388 12.7001 14.9769 12.6893 15.0158 12.6887C15.0548 12.6882 15.0932 12.6978 15.1272 12.7168C15.1613 12.7357 15.1897 12.7632 15.2098 12.7966C15.2299 12.8299 15.2409 12.868 15.2417 12.9069L15.2415 15.5182ZM16.8221 15.5182C16.8221 15.5765 16.7989 15.6325 16.7577 15.6737C16.7164 15.7149 16.6605 15.7381 16.6022 15.7381C16.5439 15.7381 16.488 15.7149 16.4468 15.6737C16.4056 15.6325 16.3824 15.5765 16.3824 15.5182V13.3027L16.1693 13.4345C16.1198 13.4651 16.0601 13.4748 16.0034 13.4614C15.9467 13.448 15.8977 13.4126 15.867 13.3631C15.8364 13.3135 15.8268 13.2538 15.8402 13.1972C15.8536 13.1405 15.8889 13.0914 15.9385 13.0608L16.4857 12.72C16.5192 12.7001 16.5573 12.6893 16.5962 12.6887C16.6352 12.6882 16.6736 12.6978 16.7076 12.7168C16.7416 12.7357 16.7701 12.7632 16.7902 12.7966C16.8103 12.8299 16.8213 12.868 16.8221 12.9069V15.5182Z" fill="#FAFAFA"/>
<path d="M15.2415 15.5182C15.2397 15.5754 15.2158 15.6295 15.1748 15.6693C15.1338 15.7091 15.0789 15.7314 15.0217 15.7314C14.9646 15.7314 14.9097 15.7091 14.8687 15.6693C14.8277 15.6295 14.8038 15.5754 14.802 15.5182V13.3027L14.5887 13.4345C14.5392 13.4638 14.4802 13.4725 14.4243 13.4587C14.3685 13.4449 14.3203 13.4098 14.29 13.3608C14.2598 13.3119 14.25 13.253 14.2628 13.1969C14.2755 13.1408 14.3097 13.0919 14.3581 13.0608L14.9053 12.72C14.9388 12.7001 14.9769 12.6893 15.0158 12.6887C15.0548 12.6882 15.0932 12.6978 15.1272 12.7168C15.1613 12.7357 15.1897 12.7632 15.2098 12.7966C15.2299 12.8299 15.2409 12.868 15.2417 12.9069L15.2415 15.5182Z" fill="#FAFAFA"/>
<path d="M16.8221 15.5182C16.8221 15.5765 16.7989 15.6325 16.7577 15.6737C16.7164 15.7149 16.6605 15.7381 16.6022 15.7381C16.5439 15.7381 16.488 15.7149 16.4468 15.6737C16.4056 15.6325 16.3824 15.5765 16.3824 15.5182V13.3027L16.1693 13.4345C16.1198 13.4651 16.0601 13.4748 16.0034 13.4614C15.9467 13.448 15.8977 13.4126 15.867 13.3631C15.8364 13.3135 15.8268 13.2538 15.8402 13.1972C15.8536 13.1405 15.8889 13.0914 15.9385 13.0608L16.4857 12.72C16.5192 12.7001 16.5573 12.6893 16.5962 12.6887C16.6352 12.6882 16.6736 12.6978 16.7076 12.7168C16.7416 12.7357 16.7701 12.7632 16.7902 12.7966C16.8103 12.8299 16.8213 12.868 16.8221 12.9069V15.5182Z" fill="#FAFAFA"/>
<path d="M14.6282 13.002H16.9199" stroke="#191919" stroke-width="0.343756" stroke-linecap="round" stroke-linejoin="round"/>
<path d="M15.7742 14.1491V11.8574" stroke="#191919" stroke-width="0.343756" stroke-linecap="round" stroke-linejoin="round"/>
</g>
<g clip-path="url(#clip3_8747_14050)">
<path d="M65.3892 48.5372C65.7581 48.5368 66.1117 48.39 66.3726 48.1292C66.6334 47.8684 66.7801 47.5147 66.7806 47.1458V46.6643C65.8604 46.8377 64.9154 46.8309 63.9978 46.6445V47.1458C63.9982 47.5147 64.145 47.8684 64.4058 48.1292C64.6666 48.39 65.0203 48.5368 65.3892 48.5372Z" fill="#FAFAFA"/>
<path d="M71.0891 51.2914L69.9481 48.8932C69.733 48.4443 69.3538 48.0949 68.8888 47.9171L68.0181 47.5853C67.6736 47.4834 67.4221 47.0787 67.2201 46.8027V47.0801C67.2283 47.336 67.1831 47.5907 67.0874 47.8281C66.9917 48.0655 66.8475 48.2803 66.6641 48.4589C66.4807 48.6375 66.2621 48.7758 66.0222 48.8652C65.7824 48.9545 65.5265 48.9929 65.271 48.9778C65.0154 48.9628 64.7659 48.8946 64.5381 48.7777C64.3104 48.6607 64.1096 48.4976 63.9485 48.2988C63.7873 48.0999 63.6694 47.8696 63.6023 47.6226C63.5351 47.3756 63.5202 47.1173 63.5584 46.8642C63.4079 47.1537 63.1616 47.382 62.8616 47.5104L62.046 47.8029C61.5779 47.9684 61.1919 48.3087 60.9689 48.7523L59.6894 51.2914C59.6716 51.3299 59.6697 51.3739 59.6841 51.4138C59.6985 51.4536 59.7281 51.4862 59.7663 51.5045L61.4706 52.2795C61.5026 52.2941 61.5377 52.3008 61.5728 52.2991C61.608 52.2973 61.6422 52.2871 61.6726 52.2694C61.703 52.2517 61.7287 52.2269 61.7475 52.1972C61.7664 52.1675 61.7778 52.1337 61.7809 52.0987L61.8435 51.3843C61.8501 51.327 61.8787 51.2745 61.9234 51.238C61.968 51.2015 62.0252 51.1839 62.0827 51.1889C62.1401 51.194 62.1933 51.2212 62.231 51.2649C62.2686 51.3086 62.2877 51.3653 62.2842 51.4229L61.7535 57.455C61.7533 57.4978 61.7619 57.5403 61.7787 57.5797C61.7955 57.6191 61.8203 57.6546 61.8514 57.684C61.8825 57.7135 61.9193 57.7363 61.9595 57.7509C61.9998 57.7656 62.0426 57.7719 62.0854 57.7693H68.7107C68.7536 57.7719 68.7966 57.7655 68.837 57.7507C68.8774 57.7359 68.9144 57.713 68.9455 57.6833C68.9766 57.6536 69.0013 57.6178 69.018 57.5781C69.0347 57.5385 69.0431 57.4958 69.0425 57.4528C68.9486 56.4461 68.56 52.3409 68.4739 51.4241C68.4698 51.3667 68.4882 51.31 68.5254 51.2661C68.5626 51.2222 68.6155 51.1946 68.6727 51.1892C68.73 51.1838 68.7871 51.2011 68.8318 51.2373C68.8765 51.2735 68.9053 51.3257 68.9119 51.3829L68.9786 52.0899C68.9819 52.1246 68.9934 52.1581 69.0122 52.1875C69.031 52.2169 69.0565 52.2414 69.0867 52.259C69.1168 52.2766 69.1507 52.2868 69.1855 52.2886C69.2204 52.2905 69.2552 52.2841 69.287 52.2699L71.0121 51.5002C71.0498 51.4824 71.079 51.4506 71.0934 51.4115C71.1078 51.3724 71.1063 51.3294 71.0891 51.2914ZM64.9714 55.5182C64.9697 55.5754 64.9458 55.6295 64.9048 55.6693C64.8638 55.7091 64.8089 55.7314 64.7517 55.7314C64.6946 55.7314 64.6397 55.7091 64.5987 55.6693C64.5577 55.6295 64.5337 55.5754 64.532 55.5182V53.3027L64.3187 53.4345C64.2692 53.4638 64.2102 53.4725 64.1543 53.4587C64.0985 53.4449 64.0502 53.4098 64.02 53.3608C63.9898 53.3119 63.98 53.253 63.9927 53.1969C64.0055 53.1408 64.0397 53.0919 64.0881 53.0608L64.6353 52.72C64.6688 52.7001 64.7069 52.6893 64.7458 52.6887C64.7848 52.6882 64.8232 52.6978 64.8572 52.7168C64.8912 52.7357 64.9197 52.7632 64.9398 52.7966C64.9599 52.8299 64.9709 52.868 64.9716 52.9069L64.9714 55.5182ZM66.552 55.5182C66.552 55.5765 66.5289 55.6325 66.4877 55.6737C66.4464 55.7149 66.3905 55.7381 66.3322 55.7381C66.2739 55.7381 66.218 55.7149 66.1768 55.6737C66.1356 55.6325 66.1124 55.5765 66.1124 55.5182V53.3027L65.8993 53.4345C65.8497 53.4651 65.7901 53.4748 65.7334 53.4614C65.6767 53.448 65.6276 53.4126 65.597 53.3631C65.5664 53.3135 65.5567 53.2538 65.5701 53.1972C65.5835 53.1405 65.6189 53.0914 65.6685 53.0608L66.2157 52.72C66.2492 52.7001 66.2873 52.6893 66.3262 52.6887C66.3651 52.6882 66.4035 52.6978 66.4376 52.7168C66.4716 52.7357 66.5001 52.7632 66.5202 52.7966C66.5403 52.8299 66.5513 52.868 66.552 52.9069V55.5182Z" fill="#FAFAFA"/>
<path d="M64.9714 55.5182C64.9697 55.5754 64.9458 55.6295 64.9048 55.6693C64.8638 55.7091 64.8089 55.7314 64.7517 55.7314C64.6946 55.7314 64.6397 55.7091 64.5987 55.6693C64.5577 55.6295 64.5337 55.5754 64.532 55.5182V53.3027L64.3187 53.4345C64.2692 53.4638 64.2102 53.4725 64.1543 53.4587C64.0985 53.4449 64.0502 53.4098 64.02 53.3608C63.9898 53.3119 63.98 53.253 63.9927 53.1969C64.0055 53.1408 64.0397 53.0919 64.0881 53.0608L64.6353 52.72C64.6688 52.7001 64.7069 52.6893 64.7458 52.6887C64.7848 52.6882 64.8232 52.6978 64.8572 52.7168C64.8912 52.7357 64.9197 52.7632 64.9398 52.7966C64.9599 52.8299 64.9709 52.868 64.9716 52.9069L64.9714 55.5182Z" fill="#FAFAFA"/>
<path d="M66.552 55.5182C66.552 55.5765 66.5289 55.6325 66.4877 55.6737C66.4464 55.7149 66.3905 55.7381 66.3322 55.7381C66.2739 55.7381 66.218 55.7149 66.1768 55.6737C66.1356 55.6325 66.1124 55.5765 66.1124 55.5182V53.3027L65.8993 53.4345C65.8497 53.4651 65.7901 53.4748 65.7334 53.4614C65.6767 53.448 65.6276 53.4126 65.597 53.3631C65.5664 53.3135 65.5567 53.2538 65.5701 53.1972C65.5835 53.1405 65.6189 53.0914 65.6685 53.0608L66.2157 52.72C66.2492 52.7001 66.2873 52.6893 66.3262 52.6887C66.3651 52.6882 66.4035 52.6978 66.4376 52.7168C66.4716 52.7357 66.5001 52.7632 66.5202 52.7966C66.5403 52.8299 66.5513 52.868 66.552 52.9069V55.5182Z" fill="#FAFAFA"/>
<path d="M64.3582 53.002H66.6499" stroke="#191919" stroke-width="0.343756" stroke-linecap="round" stroke-linejoin="round"/>
<path d="M65.5042 54.1491V51.8574" stroke="#191919" stroke-width="0.343756" stroke-linecap="round" stroke-linejoin="round"/>
</g>
<g clip-path="url(#clip4_8747_14050)">
<path d="M65.3892 8.5372C65.7581 8.53677 66.1117 8.39004 66.3726 8.1292C66.6334 7.86835 66.7801 7.5147 66.7806 7.14581V6.66433C65.8604 6.83767 64.9154 6.83094 63.9978 6.64453V7.14581C63.9982 7.5147 64.145 7.86835 64.4058 8.1292C64.6666 8.39004 65.0203 8.53677 65.3892 8.5372Z" fill="#FAFAFA"/>
<path d="M71.0891 11.2914L69.9481 8.89318C69.733 8.44426 69.3538 8.09493 68.8888 7.91715L68.0181 7.58527C67.6736 7.48343 67.4221 7.07868 67.2201 6.80273V7.08011C67.2283 7.33595 67.1831 7.5907 67.0874 7.8281C66.9917 8.0655 66.8475 8.28034 66.6641 8.45891C66.4807 8.63747 66.2621 8.77584 66.0222 8.86519C65.7824 8.95454 65.5265 8.99291 65.271 8.97784C65.0154 8.96277 64.7659 8.8946 64.5381 8.77767C64.3104 8.66075 64.1096 8.49764 63.9485 8.29875C63.7873 8.09987 63.6694 7.86957 63.6023 7.62257C63.5351 7.37556 63.5202 7.11727 63.5584 6.86417C63.4079 7.15366 63.1616 7.38202 62.8616 7.51037L62.046 7.80285C61.5779 7.96844 61.1919 8.30868 60.9689 8.75235L59.6894 11.2914C59.6716 11.3299 59.6697 11.3739 59.6841 11.4138C59.6985 11.4536 59.7281 11.4862 59.7663 11.5045L61.4706 12.2795C61.5026 12.2941 61.5377 12.3008 61.5728 12.2991C61.608 12.2973 61.6422 12.2871 61.6726 12.2694C61.703 12.2517 61.7287 12.2269 61.7475 12.1972C61.7664 12.1675 61.7778 12.1337 61.7809 12.0987L61.8435 11.3843C61.8501 11.327 61.8787 11.2745 61.9234 11.238C61.968 11.2015 62.0252 11.1839 62.0827 11.1889C62.1401 11.194 62.1933 11.2212 62.231 11.2649C62.2686 11.3086 62.2877 11.3653 62.2842 11.4229L61.7535 17.455C61.7533 17.4978 61.7619 17.5403 61.7787 17.5797C61.7955 17.6191 61.8203 17.6546 61.8514 17.684C61.8825 17.7135 61.9193 17.7363 61.9595 17.7509C61.9998 17.7656 62.0426 17.7719 62.0854 17.7693H68.7107C68.7536 17.7719 68.7966 17.7655 68.837 17.7507C68.8774 17.7359 68.9144 17.713 68.9455 17.6833C68.9766 17.6536 69.0013 17.6178 69.018 17.5781C69.0347 17.5385 69.0431 17.4958 69.0425 17.4528C68.9486 16.4461 68.56 12.3409 68.4739 11.4241C68.4698 11.3667 68.4882 11.31 68.5254 11.2661C68.5626 11.2222 68.6155 11.1946 68.6727 11.1892C68.73 11.1838 68.7871 11.2011 68.8318 11.2373C68.8765 11.2735 68.9053 11.3257 68.9119 11.3829L68.9786 12.0899C68.9819 12.1246 68.9934 12.1581 69.0122 12.1875C69.031 12.2169 69.0565 12.2414 69.0867 12.259C69.1168 12.2766 69.1507 12.2868 69.1855 12.2886C69.2204 12.2905 69.2552 12.2841 69.287 12.2699L71.0121 11.5002C71.0498 11.4824 71.079 11.4506 71.0934 11.4115C71.1078 11.3724 71.1063 11.3294 71.0891 11.2914ZM64.9714 15.5182C64.9697 15.5754 64.9458 15.6295 64.9048 15.6693C64.8638 15.7091 64.8089 15.7314 64.7517 15.7314C64.6946 15.7314 64.6397 15.7091 64.5987 15.6693C64.5577 15.6295 64.5337 15.5754 64.532 15.5182V13.3027L64.3187 13.4345C64.2692 13.4638 64.2102 13.4725 64.1543 13.4587C64.0985 13.4449 64.0502 13.4098 64.02 13.3608C63.9898 13.3119 63.98 13.253 63.9927 13.1969C64.0055 13.1408 64.0397 13.0919 64.0881 13.0608L64.6353 12.72C64.6688 12.7001 64.7069 12.6893 64.7458 12.6887C64.7848 12.6882 64.8232 12.6978 64.8572 12.7168C64.8912 12.7357 64.9197 12.7632 64.9398 12.7966C64.9599 12.8299 64.9709 12.868 64.9716 12.9069L64.9714 15.5182ZM66.552 15.5182C66.552 15.5765 66.5289 15.6325 66.4877 15.6737C66.4464 15.7149 66.3905 15.7381 66.3322 15.7381C66.2739 15.7381 66.218 15.7149 66.1768 15.6737C66.1356 15.6325 66.1124 15.5765 66.1124 15.5182V13.3027L65.8993 13.4345C65.8497 13.4651 65.7901 13.4748 65.7334 13.4614C65.6767 13.448 65.6276 13.4126 65.597 13.3631C65.5664 13.3135 65.5567 13.2538 65.5701 13.1972C65.5835 13.1405 65.6189 13.0914 65.6685 13.0608L66.2157 12.72C66.2492 12.7001 66.2873 12.6893 66.3262 12.6887C66.3651 12.6882 66.4035 12.6978 66.4376 12.7168C66.4716 12.7357 66.5001 12.7632 66.5202 12.7966C66.5403 12.8299 66.5513 12.868 66.552 12.9069V15.5182Z" fill="#FAFAFA"/>
<path d="M64.9714 15.5182C64.9697 15.5754 64.9458 15.6295 64.9048 15.6693C64.8638 15.7091 64.8089 15.7314 64.7517 15.7314C64.6946 15.7314 64.6397 15.7091 64.5987 15.6693C64.5577 15.6295 64.5337 15.5754 64.532 15.5182V13.3027L64.3187 13.4345C64.2692 13.4638 64.2102 13.4725 64.1543 13.4587C64.0985 13.4449 64.0502 13.4098 64.02 13.3608C63.9898 13.3119 63.98 13.253 63.9927 13.1969C64.0055 13.1408 64.0397 13.0919 64.0881 13.0608L64.6353 12.72C64.6688 12.7001 64.7069 12.6893 64.7458 12.6887C64.7848 12.6882 64.8232 12.6978 64.8572 12.7168C64.8912 12.7357 64.9197 12.7632 64.9398 12.7966C64.9599 12.8299 64.9709 12.868 64.9716 12.9069L64.9714 15.5182Z" fill="#FAFAFA"/>
<path d="M66.552 15.5182C66.552 15.5765 66.5289 15.6325 66.4877 15.6737C66.4464 15.7149 66.3905 15.7381 66.3322 15.7381C66.2739 15.7381 66.218 15.7149 66.1768 15.6737C66.1356 15.6325 66.1124 15.5765 66.1124 15.5182V13.3027L65.8993 13.4345C65.8497 13.4651 65.7901 13.4748 65.7334 13.4614C65.6767 13.448 65.6276 13.4126 65.597 13.3631C65.5664 13.3135 65.5567 13.2538 65.5701 13.1972C65.5835 13.1405 65.6189 13.0914 65.6685 13.0608L66.2157 12.72C66.2492 12.7001 66.2873 12.6893 66.3262 12.6887C66.3651 12.6882 66.4035 12.6978 66.4376 12.7168C66.4716 12.7357 66.5001 12.7632 66.5202 12.7966C66.5403 12.8299 66.5513 12.868 66.552 12.9069V15.5182Z" fill="#FAFAFA"/>
<path d="M64.3582 13.002H66.6499" stroke="#191919" stroke-width="0.343756" stroke-linecap="round" stroke-linejoin="round"/>
<path d="M65.5042 14.1491V11.8574" stroke="#191919" stroke-width="0.343756" stroke-linecap="round" stroke-linejoin="round"/>
</g>
<defs>
<clipPath id="clip0_8747_14050">
<rect width="13.0627" height="13.0627" fill="white" transform="translate(34.1079 62.5645)"/>
</clipPath>
<clipPath id="clip1_8747_14050">
<rect width="13.0627" height="13.0627" fill="white" transform="translate(9.12817 45.6699)"/>
</clipPath>
<clipPath id="clip2_8747_14050">
<rect width="13.0627" height="13.0627" fill="white" transform="translate(9.12817 5.66992)"/>
</clipPath>
<clipPath id="clip3_8747_14050">
<rect width="13.0627" height="13.0627" fill="white" transform="translate(58.8582 45.6699)"/>
</clipPath>
<clipPath id="clip4_8747_14050">
<rect width="13.0627" height="13.0627" fill="white" transform="translate(58.8582 5.66992)"/>
</clipPath>
</defs>
</svg>
