<svg width="81" height="81" viewBox="0 0 81 81" fill="none" xmlns="http://www.w3.org/2000/svg">
<rect x="0.262046" y="0.118492" width="79.9807" height="79.9807" rx="5.88541" fill="#828284" stroke="#FAFAFA" stroke-width="0.229171"/>
<mask id="path-2-inside-1_8758_18372" fill="white">
<path d="M23.9812 66.4609H56.5235V80.2112H23.9812V66.4609Z"/>
</mask>
<path d="M23.9812 66.4609V66.2318H23.752V66.4609H23.9812ZM56.5235 66.4609H56.7527V66.2318H56.5235V66.4609ZM23.9812 66.6901H56.5235V66.2318H23.9812V66.6901ZM56.2943 66.4609V80.2112H56.7527V66.4609H56.2943ZM24.2104 80.2112V66.4609H23.752V80.2112H24.2104Z" fill="#FAFAFA" mask="url(#path-2-inside-1_8758_18372)"/>
<mask id="path-4-inside-2_8758_18372" fill="white">
<path d="M12.752 55.0039H67.753V80.2127H12.752V55.0039Z"/>
</mask>
<path d="M12.752 55.0039V54.7747H12.5228V55.0039H12.752ZM67.753 55.0039H67.9822V54.7747H67.753V55.0039ZM12.752 55.2331H67.753V54.7747H12.752V55.2331ZM67.5238 55.0039V80.2127H67.9822V55.0039H67.5238ZM12.9811 80.2127V55.0039H12.5228V80.2127H12.9811Z" fill="#FAFAFA" mask="url(#path-4-inside-2_8758_18372)"/>
<path d="M54.4609 9.53674e-07C54.4609 1.65523 54.0756 3.29426 53.327 4.8235C52.5784 6.35273 51.4812 7.74223 50.098 8.91266C48.7147 10.0831 47.0726 11.0115 45.2653 11.645C43.458 12.2784 41.521 12.6044 39.5648 12.6044C37.6086 12.6044 35.6716 12.2784 33.8643 11.645C32.057 11.0115 30.4149 10.0831 29.0317 8.91266C27.6484 7.74223 26.5512 6.35273 25.8026 4.8235C25.054 3.29426 24.6687 1.65523 24.6687 0" stroke="#FAFAFA" stroke-width="0.229171"/>
<path d="M30.7247 55.3516C31.2429 54.5174 32.0025 53.7595 32.9602 53.1211C33.9178 52.4827 35.0547 51.9763 36.3058 51.6308C37.557 51.2853 38.8981 51.1074 40.2523 51.1074C41.6066 51.1074 42.9476 51.2853 44.1988 51.6308C45.45 51.9763 46.5869 52.4827 47.5445 53.1211C48.5021 53.7595 49.2618 54.5174 49.78 55.3516" stroke="#FAFAFA" stroke-width="0.229171"/>
<path d="M0.376465 76.5479C1.49299 76.4958 3.69692 77.1099 3.58042 79.9825" stroke="#FAFAFA" stroke-width="0.229171"/>
<path d="M80.1279 76.5479C79.0114 76.4958 76.8075 77.1099 76.924 79.9825" stroke="#FAFAFA" stroke-width="0.229171"/>
<g clip-path="url(#clip0_8758_18372)">
<path d="M40.3665 69.4356C40.7354 69.4352 41.089 69.2885 41.3499 69.0276C41.6107 68.7668 41.7574 68.4131 41.7579 68.0443V67.5628C40.8377 67.7361 39.8927 67.7294 38.9751 67.543V68.0443C38.9755 68.4131 39.1223 68.7668 39.3831 69.0276C39.6439 69.2885 39.9976 69.4352 40.3665 69.4356Z" fill="#FAFAFA"/>
<path d="M46.0664 72.1899L44.9254 69.7916C44.7103 69.3427 44.3311 68.9934 43.8661 68.8156L42.9954 68.4837C42.6509 68.3819 42.3994 67.9771 42.1974 67.7012V67.9786C42.2056 68.2344 42.1604 68.4891 42.0647 68.7265C41.969 68.9639 41.8248 69.1788 41.6414 69.3573C41.458 69.5359 41.2394 69.6743 40.9995 69.7636C40.7597 69.853 40.5038 69.8913 40.2483 69.8763C39.9927 69.8612 39.7431 69.793 39.5154 69.6761C39.2877 69.5592 39.0869 69.3961 38.9258 69.1972C38.7646 68.9983 38.6467 68.768 38.5796 68.521C38.5124 68.274 38.4975 68.0157 38.5357 67.7626C38.3852 68.0521 38.1389 68.2805 37.8389 68.4088L37.0233 68.7013C36.5552 68.8669 36.1692 69.2071 35.9462 69.6508L34.6667 72.1899C34.6489 72.2284 34.647 72.2723 34.6614 72.3122C34.6758 72.3521 34.7054 72.3847 34.7436 72.4029L36.4479 73.1779C36.4799 73.1925 36.515 73.1992 36.5501 73.1975C36.5853 73.1957 36.6195 73.1856 36.6499 73.1679C36.6803 73.1501 36.706 73.1254 36.7248 73.0957C36.7437 73.066 36.7551 73.0321 36.7582 72.9971L36.8208 72.2827C36.8274 72.2254 36.856 72.1729 36.9007 72.1364C36.9453 72.1 37.0025 72.0823 37.0599 72.0874C37.1174 72.0924 37.1706 72.1197 37.2083 72.1634C37.2459 72.2071 37.265 72.2637 37.2615 72.3213L36.7308 78.3534C36.7306 78.3963 36.7392 78.4387 36.756 78.4781C36.7728 78.5175 36.7976 78.553 36.8287 78.5825C36.8598 78.6119 36.8966 78.6347 36.9368 78.6494C36.9771 78.664 37.0199 78.6703 37.0627 78.6678H43.6879C43.7309 78.6703 43.7739 78.664 43.8143 78.6492C43.8547 78.6344 43.8917 78.6114 43.9228 78.5817C43.9539 78.552 43.9786 78.5162 43.9953 78.4766C44.012 78.4369 44.0203 78.3942 44.0198 78.3512C43.9259 77.3445 43.5373 73.2394 43.4512 72.3225C43.447 72.2652 43.4655 72.2084 43.5027 72.1645C43.5399 72.1206 43.5928 72.093 43.65 72.0876C43.7073 72.0822 43.7644 72.0995 43.8091 72.1357C43.8538 72.1719 43.8826 72.2242 43.8892 72.2813L43.9559 72.9883C43.9592 73.0231 43.9707 73.0565 43.9895 73.0859C44.0083 73.1153 44.0338 73.1398 44.064 73.1574C44.0941 73.175 44.128 73.1852 44.1628 73.1871C44.1977 73.189 44.2325 73.1826 44.2643 73.1683L45.9894 72.3987C46.0271 72.3809 46.0563 72.349 46.0707 72.3099C46.0851 72.2708 46.0835 72.2278 46.0664 72.1899ZM39.9487 76.4167C39.947 76.4738 39.9231 76.528 39.8821 76.5678C39.8411 76.6076 39.7862 76.6298 39.729 76.6298C39.6719 76.6298 39.617 76.6076 39.576 76.5678C39.535 76.528 39.511 76.4738 39.5093 76.4167V74.2011L39.296 74.333C39.2465 74.3623 39.1875 74.3709 39.1316 74.3572C39.0758 74.3434 39.0275 74.3082 38.9973 74.2593C38.9671 74.2103 38.9573 74.1515 38.97 74.0954C38.9828 74.0392 39.017 73.9904 39.0654 73.9592L39.6126 73.6184C39.6461 73.5985 39.6842 73.5877 39.7231 73.5872C39.762 73.5866 39.8005 73.5963 39.8345 73.6152C39.8685 73.6341 39.897 73.6616 39.9171 73.695C39.9372 73.7284 39.9482 73.7664 39.9489 73.8054L39.9487 76.4167ZM41.5293 76.4167C41.5293 76.475 41.5062 76.5309 41.4649 76.5721C41.4237 76.6133 41.3678 76.6365 41.3095 76.6365C41.2512 76.6365 41.1953 76.6133 41.1541 76.5721C41.1128 76.5309 41.0897 76.475 41.0897 76.4167V74.2011L40.8766 74.333C40.827 74.3636 40.7674 74.3732 40.7107 74.3598C40.654 74.3465 40.6049 74.3111 40.5743 74.2615C40.5437 74.212 40.534 74.1523 40.5474 74.0956C40.5608 74.0389 40.5962 73.9899 40.6458 73.9592L41.193 73.6184C41.2264 73.5985 41.2646 73.5877 41.3035 73.5872C41.3424 73.5866 41.3808 73.5963 41.4149 73.6152C41.4489 73.6341 41.4774 73.6616 41.4975 73.695C41.5176 73.7284 41.5285 73.7664 41.5293 73.8054V76.4167Z" fill="#FAFAFA"/>
<path d="M39.9487 76.4167C39.947 76.4738 39.9231 76.528 39.8821 76.5678C39.8411 76.6076 39.7862 76.6298 39.729 76.6298C39.6719 76.6298 39.617 76.6076 39.576 76.5678C39.535 76.528 39.511 76.4738 39.5093 76.4167V74.2011L39.296 74.333C39.2465 74.3623 39.1875 74.3709 39.1316 74.3572C39.0758 74.3434 39.0275 74.3082 38.9973 74.2593C38.9671 74.2103 38.9573 74.1515 38.97 74.0954C38.9828 74.0392 39.017 73.9904 39.0654 73.9592L39.6126 73.6184C39.6461 73.5985 39.6842 73.5877 39.7231 73.5872C39.762 73.5866 39.8005 73.5963 39.8345 73.6152C39.8685 73.6341 39.897 73.6616 39.9171 73.695C39.9372 73.7284 39.9482 73.7664 39.9489 73.8054L39.9487 76.4167Z" fill="#FAFAFA"/>
<path d="M41.5293 76.4167C41.5293 76.475 41.5062 76.5309 41.4649 76.5721C41.4237 76.6133 41.3678 76.6365 41.3095 76.6365C41.2512 76.6365 41.1953 76.6133 41.1541 76.5721C41.1128 76.5309 41.0897 76.475 41.0897 76.4167V74.2011L40.8766 74.333C40.827 74.3636 40.7674 74.3732 40.7107 74.3598C40.654 74.3465 40.6049 74.3111 40.5743 74.2615C40.5437 74.212 40.534 74.1523 40.5474 74.0956C40.5608 74.0389 40.5962 73.9899 40.6458 73.9592L41.193 73.6184C41.2264 73.5985 41.2646 73.5877 41.3035 73.5872C41.3424 73.5866 41.3808 73.5963 41.4149 73.6152C41.4489 73.6341 41.4774 73.6616 41.4975 73.695C41.5176 73.7284 41.5285 73.7664 41.5293 73.8054V76.4167Z" fill="#FAFAFA"/>
<path d="M39.3354 73.8965H41.6272" stroke="#191919" stroke-width="0.343756" stroke-linecap="round" stroke-linejoin="round"/>
<path d="M40.4814 75.0437V72.752" stroke="#191919" stroke-width="0.343756" stroke-linecap="round" stroke-linejoin="round"/>
</g>
<path d="M19.531 48.8673C19.8999 48.8668 20.2536 48.7201 20.5144 48.4593C20.7753 48.1984 20.922 47.8448 20.9224 47.4759V46.9944C20.0023 47.1677 19.0572 47.161 18.1396 46.9746V47.4759C18.1401 47.8448 18.2868 48.1984 18.5477 48.4593C18.8085 48.7201 19.1621 48.8668 19.531 48.8673Z" fill="#FAFAFA"/>
<path d="M25.2309 51.6215L24.09 49.2233C23.8748 48.7743 23.4957 48.425 23.0307 48.2472L22.16 47.9154C21.8154 47.8135 21.564 47.4088 21.3619 47.1328V47.4102C21.3702 47.666 21.325 47.9208 21.2292 48.1582C21.1335 48.3956 20.9894 48.6104 20.806 48.789C20.6226 48.9675 20.4039 49.1059 20.1641 49.1953C19.9242 49.2846 19.6683 49.323 19.4128 49.3079C19.1573 49.2928 18.9077 49.2247 18.68 49.1077C18.4523 48.9908 18.2515 48.8277 18.0903 48.6288C17.9292 48.4299 17.8113 48.1997 17.7441 47.9526C17.6769 47.7056 17.662 47.4473 17.7003 47.1942C17.5497 47.4837 17.3035 47.7121 17.0035 47.8404L16.1878 48.1329C15.7197 48.2985 15.3338 48.6388 15.1108 49.0824L13.8312 51.6215C13.8135 51.66 13.8116 51.7039 13.826 51.7438C13.8404 51.7837 13.8699 51.8163 13.9082 51.8346L15.6125 52.6096C15.6445 52.6242 15.6795 52.6309 15.7147 52.6291C15.7498 52.6274 15.784 52.6172 15.8144 52.5995C15.8448 52.5818 15.8705 52.557 15.8894 52.5273C15.9082 52.4976 15.9196 52.4638 15.9227 52.4287L15.9854 51.7144C15.9919 51.6571 16.0206 51.6046 16.0652 51.5681C16.1099 51.5316 16.167 51.514 16.2245 51.519C16.282 51.524 16.3352 51.5513 16.3728 51.595C16.4105 51.6387 16.4296 51.6954 16.426 51.7529L15.8954 57.7851C15.8951 57.8279 15.9037 57.8703 15.9206 57.9097C15.9374 57.9491 15.9621 57.9847 15.9932 58.0141C16.0243 58.0436 16.0611 58.0663 16.1014 58.081C16.1416 58.0957 16.1845 58.1019 16.2272 58.0994H22.8525C22.8955 58.1019 22.9385 58.0956 22.9789 58.0808C23.0193 58.066 23.0562 58.0431 23.0873 58.0133C23.1185 57.9836 23.1432 57.9479 23.1599 57.9082C23.1766 57.8685 23.1849 57.8259 23.1844 57.7828C23.0905 56.7762 22.7019 52.671 22.6157 51.7542C22.6116 51.6968 22.6301 51.6401 22.6673 51.5962C22.7044 51.5523 22.7573 51.5247 22.8146 51.5193C22.8718 51.5139 22.9289 51.5311 22.9737 51.5673C23.0184 51.6035 23.0471 51.6558 23.0537 51.7129L23.1205 52.42C23.1238 52.4547 23.1353 52.4882 23.1541 52.5176C23.1729 52.547 23.1984 52.5715 23.2285 52.5891C23.2587 52.6067 23.2925 52.6168 23.3274 52.6187C23.3622 52.6206 23.397 52.6142 23.4289 52.6L25.154 51.8303C25.1917 51.8125 25.2209 51.7806 25.2353 51.7415C25.2496 51.7024 25.2481 51.6595 25.2309 51.6215ZM19.1133 55.8483C19.1115 55.9054 19.0876 55.9596 19.0466 55.9994C19.0056 56.0392 18.9507 56.0614 18.8936 56.0614C18.8364 56.0614 18.7815 56.0392 18.7405 55.9994C18.6995 55.9596 18.6756 55.9054 18.6739 55.8483V53.6328L18.4606 53.7646C18.411 53.7939 18.352 53.8026 18.2962 53.7888C18.2403 53.775 18.1921 53.7399 18.1619 53.6909C18.1317 53.642 18.1219 53.5831 18.1346 53.527C18.1473 53.4709 18.1815 53.422 18.2299 53.3909L18.7771 53.05C18.8106 53.0301 18.8487 53.0194 18.8877 53.0188C18.9266 53.0183 18.965 53.0279 18.999 53.0468C19.0331 53.0658 19.0616 53.0933 19.0816 53.1266C19.1017 53.16 19.1127 53.1981 19.1135 53.237L19.1133 55.8483ZM20.6939 55.8483C20.6939 55.9066 20.6707 55.9625 20.6295 56.0038C20.5883 56.045 20.5324 56.0681 20.4741 56.0681C20.4158 56.0681 20.3598 56.045 20.3186 56.0038C20.2774 55.9625 20.2542 55.9066 20.2542 55.8483V53.6328L20.0412 53.7646C19.9916 53.7952 19.9319 53.8049 19.8752 53.7915C19.8185 53.7781 19.7695 53.7427 19.7389 53.6932C19.7083 53.6436 19.6986 53.5839 19.712 53.5272C19.7254 53.4705 19.7608 53.4215 19.8103 53.3909L20.3575 53.05C20.391 53.0301 20.4291 53.0194 20.468 53.0188C20.507 53.0183 20.5454 53.0279 20.5794 53.0468C20.6135 53.0658 20.642 53.0933 20.662 53.1266C20.6821 53.16 20.6931 53.1981 20.6939 53.237V55.8483Z" fill="#FAFAFA"/>
<path d="M19.1133 55.8483C19.1115 55.9054 19.0876 55.9596 19.0466 55.9994C19.0056 56.0392 18.9507 56.0614 18.8936 56.0614C18.8364 56.0614 18.7815 56.0392 18.7405 55.9994C18.6995 55.9596 18.6756 55.9054 18.6739 55.8483V53.6328L18.4606 53.7646C18.411 53.7939 18.352 53.8026 18.2962 53.7888C18.2403 53.775 18.1921 53.7399 18.1619 53.6909C18.1317 53.642 18.1219 53.5831 18.1346 53.527C18.1473 53.4709 18.1815 53.422 18.2299 53.3909L18.7771 53.05C18.8106 53.0301 18.8487 53.0194 18.8877 53.0188C18.9266 53.0183 18.965 53.0279 18.999 53.0468C19.0331 53.0658 19.0616 53.0933 19.0816 53.1266C19.1017 53.16 19.1127 53.1981 19.1135 53.237L19.1133 55.8483Z" fill="#FAFAFA"/>
<path d="M20.6939 55.8483C20.6939 55.9066 20.6707 55.9625 20.6295 56.0038C20.5883 56.045 20.5324 56.0681 20.4741 56.0681C20.4158 56.0681 20.3598 56.045 20.3186 56.0038C20.2774 55.9625 20.2542 55.9066 20.2542 55.8483V53.6328L20.0412 53.7646C19.9916 53.7952 19.9319 53.8049 19.8752 53.7915C19.8185 53.7781 19.7695 53.7427 19.7389 53.6932C19.7083 53.6436 19.6986 53.5839 19.712 53.5272C19.7254 53.4705 19.7608 53.4215 19.8103 53.3909L20.3575 53.05C20.391 53.0301 20.4291 53.0194 20.468 53.0188C20.507 53.0183 20.5454 53.0279 20.5794 53.0468C20.6135 53.0658 20.642 53.0933 20.662 53.1266C20.6821 53.16 20.6931 53.1981 20.6939 53.237V55.8483Z" fill="#FAFAFA"/>
<path d="M18.5 53.332H20.7917" stroke="#191919" stroke-width="0.343756" stroke-linecap="round" stroke-linejoin="round"/>
<path d="M19.646 54.4792V52.1875" stroke="#191919" stroke-width="0.343756" stroke-linecap="round" stroke-linejoin="round"/>
<path d="M59.531 48.8673C59.8999 48.8668 60.2536 48.7201 60.5144 48.4593C60.7753 48.1984 60.922 47.8448 60.9224 47.4759V46.9944C60.0023 47.1677 59.0572 47.161 58.1396 46.9746V47.4759C58.1401 47.8448 58.2868 48.1984 58.5477 48.4593C58.8085 48.7201 59.1621 48.8668 59.531 48.8673Z" fill="#FAFAFA"/>
<path d="M65.2309 51.6215L64.09 49.2233C63.8748 48.7743 63.4957 48.425 63.0307 48.2472L62.16 47.9154C61.8154 47.8135 61.564 47.4088 61.3619 47.1328V47.4102C61.3702 47.666 61.325 47.9208 61.2292 48.1582C61.1335 48.3956 60.9894 48.6104 60.806 48.789C60.6226 48.9675 60.4039 49.1059 60.1641 49.1953C59.9242 49.2846 59.6683 49.323 59.4128 49.3079C59.1573 49.2928 58.9077 49.2247 58.68 49.1077C58.4523 48.9908 58.2515 48.8277 58.0903 48.6288C57.9292 48.4299 57.8113 48.1997 57.7441 47.9526C57.6769 47.7056 57.662 47.4473 57.7003 47.1942C57.5497 47.4837 57.3035 47.7121 57.0035 47.8404L56.1878 48.1329C55.7197 48.2985 55.3338 48.6388 55.1108 49.0824L53.8312 51.6215C53.8135 51.66 53.8116 51.7039 53.826 51.7438C53.8404 51.7837 53.8699 51.8163 53.9082 51.8346L55.6125 52.6096C55.6445 52.6242 55.6795 52.6309 55.7147 52.6291C55.7498 52.6274 55.784 52.6172 55.8144 52.5995C55.8448 52.5818 55.8705 52.557 55.8894 52.5273C55.9082 52.4976 55.9196 52.4638 55.9227 52.4287L55.9854 51.7144C55.9919 51.6571 56.0206 51.6046 56.0652 51.5681C56.1099 51.5316 56.167 51.514 56.2245 51.519C56.282 51.524 56.3352 51.5513 56.3728 51.595C56.4105 51.6387 56.4296 51.6954 56.426 51.7529L55.8954 57.7851C55.8951 57.8279 55.9037 57.8703 55.9206 57.9097C55.9374 57.9491 55.9621 57.9847 55.9932 58.0141C56.0243 58.0436 56.0611 58.0663 56.1014 58.081C56.1416 58.0957 56.1845 58.1019 56.2272 58.0994H62.8525C62.8955 58.1019 62.9385 58.0956 62.9789 58.0808C63.0193 58.066 63.0562 58.0431 63.0873 58.0133C63.1185 57.9836 63.1432 57.9479 63.1599 57.9082C63.1766 57.8685 63.1849 57.8259 63.1844 57.7828C63.0905 56.7762 62.7019 52.671 62.6157 51.7542C62.6116 51.6968 62.6301 51.6401 62.6673 51.5962C62.7044 51.5523 62.7573 51.5247 62.8146 51.5193C62.8718 51.5139 62.9289 51.5311 62.9737 51.5673C63.0184 51.6035 63.0471 51.6558 63.0537 51.7129L63.1205 52.42C63.1238 52.4547 63.1353 52.4882 63.1541 52.5176C63.1729 52.547 63.1984 52.5715 63.2285 52.5891C63.2587 52.6067 63.2925 52.6168 63.3274 52.6187C63.3622 52.6206 63.397 52.6142 63.4289 52.6L65.154 51.8303C65.1917 51.8125 65.2209 51.7806 65.2353 51.7415C65.2496 51.7024 65.2481 51.6595 65.2309 51.6215ZM59.1133 55.8483C59.1115 55.9054 59.0876 55.9596 59.0466 55.9994C59.0056 56.0392 58.9507 56.0614 58.8936 56.0614C58.8364 56.0614 58.7815 56.0392 58.7405 55.9994C58.6995 55.9596 58.6756 55.9054 58.6739 55.8483V53.6328L58.4606 53.7646C58.411 53.7939 58.352 53.8026 58.2962 53.7888C58.2403 53.775 58.1921 53.7399 58.1619 53.6909C58.1317 53.642 58.1219 53.5831 58.1346 53.527C58.1473 53.4709 58.1815 53.422 58.2299 53.3909L58.7771 53.05C58.8106 53.0301 58.8487 53.0194 58.8877 53.0188C58.9266 53.0183 58.965 53.0279 58.999 53.0468C59.0331 53.0658 59.0616 53.0933 59.0816 53.1266C59.1017 53.16 59.1127 53.1981 59.1135 53.237L59.1133 55.8483ZM60.6939 55.8483C60.6939 55.9066 60.6707 55.9625 60.6295 56.0038C60.5883 56.045 60.5324 56.0681 60.4741 56.0681C60.4158 56.0681 60.3598 56.045 60.3186 56.0038C60.2774 55.9625 60.2542 55.9066 60.2542 55.8483V53.6328L60.0412 53.7646C59.9916 53.7952 59.9319 53.8049 59.8752 53.7915C59.8185 53.7781 59.7695 53.7427 59.7389 53.6932C59.7083 53.6436 59.6986 53.5839 59.712 53.5272C59.7254 53.4705 59.7608 53.4215 59.8103 53.3909L60.3575 53.05C60.391 53.0301 60.4291 53.0194 60.468 53.0188C60.507 53.0183 60.5454 53.0279 60.5794 53.0468C60.6135 53.0658 60.642 53.0933 60.662 53.1266C60.6821 53.16 60.6931 53.1981 60.6939 53.237V55.8483Z" fill="#FAFAFA"/>
<path d="M59.1133 55.8483C59.1115 55.9054 59.0876 55.9596 59.0466 55.9994C59.0056 56.0392 58.9507 56.0614 58.8936 56.0614C58.8364 56.0614 58.7815 56.0392 58.7405 55.9994C58.6995 55.9596 58.6756 55.9054 58.6739 55.8483V53.6328L58.4606 53.7646C58.411 53.7939 58.352 53.8026 58.2962 53.7888C58.2403 53.775 58.1921 53.7399 58.1619 53.6909C58.1317 53.642 58.1219 53.5831 58.1346 53.527C58.1473 53.4709 58.1815 53.422 58.2299 53.3909L58.7771 53.05C58.8106 53.0301 58.8487 53.0194 58.8877 53.0188C58.9266 53.0183 58.965 53.0279 58.999 53.0468C59.0331 53.0658 59.0616 53.0933 59.0816 53.1266C59.1017 53.16 59.1127 53.1981 59.1135 53.237L59.1133 55.8483Z" fill="#FAFAFA"/>
<path d="M60.6939 55.8483C60.6939 55.9066 60.6707 55.9625 60.6295 56.0038C60.5883 56.045 60.5324 56.0681 60.4741 56.0681C60.4158 56.0681 60.3598 56.045 60.3186 56.0038C60.2774 55.9625 60.2542 55.9066 60.2542 55.8483V53.6328L60.0412 53.7646C59.9916 53.7952 59.9319 53.8049 59.8752 53.7915C59.8185 53.7781 59.7695 53.7427 59.7389 53.6932C59.7083 53.6436 59.6986 53.5839 59.712 53.5272C59.7254 53.4705 59.7608 53.4215 59.8103 53.3909L60.3575 53.05C60.391 53.0301 60.4291 53.0194 60.468 53.0188C60.507 53.0183 60.5454 53.0279 60.5794 53.0468C60.6135 53.0658 60.642 53.0933 60.662 53.1266C60.6821 53.16 60.6931 53.1981 60.6939 53.237V55.8483Z" fill="#FAFAFA"/>
<path d="M58.5 53.332H60.7917" stroke="#191919" stroke-width="0.343756" stroke-linecap="round" stroke-linejoin="round"/>
<path d="M59.646 54.4792V52.1875" stroke="#191919" stroke-width="0.343756" stroke-linecap="round" stroke-linejoin="round"/>
<path d="M53.531 3.86728C53.8999 3.86685 54.2536 3.72012 54.5144 3.45927C54.7753 3.19843 54.922 2.84478 54.9224 2.47589V1.99441C54.0023 2.16774 53.0572 2.16102 52.1396 1.97461V2.47589C52.1401 2.84478 52.2868 3.19843 52.5477 3.45927C52.8085 3.72012 53.1621 3.86685 53.531 3.86728Z" fill="#FAFAFA"/>
<path d="M59.2309 6.6215L58.09 4.22326C57.8748 3.77433 57.4957 3.42501 57.0307 3.24723L56.16 2.91535C55.8154 2.8135 55.564 2.40876 55.3619 2.13281V2.41019C55.3702 2.66603 55.325 2.92078 55.2292 3.15818C55.1335 3.39558 54.9894 3.61042 54.806 3.78898C54.6226 3.96755 54.4039 4.10592 54.1641 4.19527C53.9242 4.28462 53.6683 4.32299 53.4128 4.30792C53.1573 4.29285 52.9077 4.22467 52.68 4.10775C52.4523 3.99082 52.2515 3.82772 52.0903 3.62883C51.9292 3.42994 51.8113 3.19965 51.7441 2.95265C51.6769 2.70564 51.662 2.44735 51.7003 2.19425C51.5497 2.48374 51.3035 2.7121 51.0035 2.84045L50.1878 3.13293C49.7197 3.29852 49.3338 3.63876 49.1108 4.08243L47.8312 6.6215C47.8135 6.66 47.8116 6.70395 47.826 6.74383C47.8404 6.78371 47.8699 6.81632 47.9082 6.83458L49.6125 7.60957C49.6445 7.62418 49.6795 7.63089 49.7147 7.62913C49.7498 7.62738 49.784 7.61722 49.8144 7.5995C49.8448 7.58178 49.8705 7.55702 49.8894 7.52731C49.9082 7.49759 49.9196 7.46379 49.9227 7.42873L49.9854 6.71437C49.9919 6.65706 50.0206 6.60457 50.0652 6.56808C50.1099 6.53159 50.167 6.51399 50.2245 6.51902C50.282 6.52405 50.3352 6.55131 50.3728 6.59501C50.4105 6.6387 50.4296 6.69537 50.426 6.75294L49.8954 12.7851C49.8951 12.8279 49.9037 12.8703 49.9206 12.9097C49.9374 12.9491 49.9621 12.9847 49.9932 13.0141C50.0243 13.0436 50.0611 13.0663 50.1014 13.081C50.1416 13.0957 50.1845 13.1019 50.2272 13.0994H56.8525C56.8955 13.1019 56.9385 13.0956 56.9789 13.0808C57.0193 13.066 57.0562 13.0431 57.0873 13.0133C57.1185 12.9836 57.1432 12.9479 57.1599 12.9082C57.1766 12.8685 57.1849 12.8259 57.1844 12.7828C57.0905 11.7762 56.7019 7.67101 56.6157 6.75417C56.6116 6.69679 56.6301 6.64008 56.6673 6.59618C56.7044 6.55227 56.7573 6.52467 56.8146 6.51928C56.8718 6.51389 56.9289 6.53114 56.9737 6.56734C57.0184 6.60353 57.0471 6.6558 57.0537 6.71294L57.1205 7.41996C57.1238 7.4547 57.1353 7.48815 57.1541 7.51756C57.1729 7.54697 57.1984 7.57148 57.2285 7.58908C57.2587 7.60667 57.2925 7.61683 57.3274 7.61873C57.3622 7.62062 57.397 7.6142 57.4289 7.59998L59.154 6.8303C59.1917 6.81252 59.2209 6.78065 59.2353 6.74155C59.2496 6.70245 59.2481 6.65946 59.2309 6.6215ZM53.1133 10.8483C53.1115 10.9054 53.0876 10.9596 53.0466 10.9994C53.0056 11.0392 52.9507 11.0614 52.8936 11.0614C52.8364 11.0614 52.7815 11.0392 52.7405 10.9994C52.6995 10.9596 52.6756 10.9054 52.6739 10.8483V8.63275L52.4606 8.7646C52.411 8.79389 52.352 8.80258 52.2962 8.7888C52.2403 8.77502 52.1921 8.73987 52.1619 8.69091C52.1317 8.64196 52.1219 8.5831 52.1346 8.52699C52.1473 8.47089 52.1815 8.42202 52.2299 8.39089L52.7771 8.05003C52.8106 8.03014 52.8487 8.01938 52.8877 8.01882C52.9266 8.01826 52.965 8.02792 52.999 8.04684C53.0331 8.06576 53.0616 8.09328 53.0816 8.12664C53.1017 8.16001 53.1127 8.19806 53.1135 8.23699L53.1133 10.8483ZM54.6939 10.8483C54.6939 10.9066 54.6707 10.9625 54.6295 11.0038C54.5883 11.045 54.5324 11.0681 54.4741 11.0681C54.4158 11.0681 54.3598 11.045 54.3186 11.0038C54.2774 10.9625 54.2542 10.9066 54.2542 10.8483V8.63275L54.0412 8.7646C53.9916 8.79522 53.9319 8.80489 53.8752 8.79149C53.8185 8.77809 53.7695 8.74273 53.7389 8.69317C53.7083 8.64361 53.6986 8.58392 53.712 8.52723C53.7254 8.47054 53.7608 8.4215 53.8103 8.39089L54.3575 8.05003C54.391 8.03014 54.4291 8.01938 54.468 8.01882C54.507 8.01826 54.5454 8.02792 54.5794 8.04684C54.6135 8.06576 54.642 8.09328 54.662 8.12664C54.6821 8.16001 54.6931 8.19806 54.6939 8.23699V10.8483Z" fill="#FAFAFA"/>
<path d="M53.1133 10.8483C53.1115 10.9054 53.0876 10.9596 53.0466 10.9994C53.0056 11.0392 52.9507 11.0614 52.8936 11.0614C52.8364 11.0614 52.7815 11.0392 52.7405 10.9994C52.6995 10.9596 52.6756 10.9054 52.6739 10.8483V8.63275L52.4606 8.7646C52.411 8.79389 52.352 8.80258 52.2962 8.7888C52.2403 8.77502 52.1921 8.73987 52.1619 8.69091C52.1317 8.64196 52.1219 8.5831 52.1346 8.52699C52.1473 8.47089 52.1815 8.42202 52.2299 8.39089L52.7771 8.05003C52.8106 8.03014 52.8487 8.01938 52.8877 8.01882C52.9266 8.01826 52.965 8.02792 52.999 8.04684C53.0331 8.06576 53.0616 8.09328 53.0816 8.12664C53.1017 8.16001 53.1127 8.19806 53.1135 8.23699L53.1133 10.8483Z" fill="#FAFAFA"/>
<path d="M54.6939 10.8483C54.6939 10.9066 54.6707 10.9625 54.6295 11.0038C54.5883 11.045 54.5324 11.0681 54.4741 11.0681C54.4158 11.0681 54.3598 11.045 54.3186 11.0038C54.2774 10.9625 54.2542 10.9066 54.2542 10.8483V8.63275L54.0412 8.7646C53.9916 8.79522 53.9319 8.80489 53.8752 8.79149C53.8185 8.77809 53.7695 8.74273 53.7389 8.69317C53.7083 8.64361 53.6986 8.58392 53.712 8.52723C53.7254 8.47054 53.7608 8.4215 53.8103 8.39089L54.3575 8.05003C54.391 8.03014 54.4291 8.01938 54.468 8.01882C54.507 8.01826 54.5454 8.02792 54.5794 8.04684C54.6135 8.06576 54.642 8.09328 54.662 8.12664C54.6821 8.16001 54.6931 8.19806 54.6939 8.23699V10.8483Z" fill="#FAFAFA"/>
<path d="M52.5 8.33203H54.7917" stroke="#191919" stroke-width="0.343756" stroke-linecap="round" stroke-linejoin="round"/>
<path d="M53.646 9.47921V7.1875" stroke="#191919" stroke-width="0.343756" stroke-linecap="round" stroke-linejoin="round"/>
<path d="M40.531 50.8673C40.8999 50.8668 41.2536 50.7201 41.5144 50.4593C41.7753 50.1984 41.922 49.8448 41.9224 49.4759V48.9944C41.0023 49.1677 40.0572 49.161 39.1396 48.9746V49.4759C39.1401 49.8448 39.2868 50.1984 39.5477 50.4593C39.8085 50.7201 40.1621 50.8668 40.531 50.8673Z" fill="#FAFAFA"/>
<path d="M46.2309 53.6215L45.09 51.2233C44.8748 50.7743 44.4957 50.425 44.0307 50.2472L43.16 49.9154C42.8154 49.8135 42.564 49.4088 42.3619 49.1328V49.4102C42.3702 49.666 42.325 49.9208 42.2292 50.1582C42.1335 50.3956 41.9894 50.6104 41.806 50.789C41.6226 50.9675 41.4039 51.1059 41.1641 51.1953C40.9242 51.2846 40.6683 51.323 40.4128 51.3079C40.1573 51.2928 39.9077 51.2247 39.68 51.1077C39.4523 50.9908 39.2515 50.8277 39.0903 50.6288C38.9292 50.4299 38.8113 50.1997 38.7441 49.9526C38.6769 49.7056 38.662 49.4473 38.7003 49.1942C38.5497 49.4837 38.3035 49.7121 38.0035 49.8404L37.1878 50.1329C36.7197 50.2985 36.3338 50.6388 36.1108 51.0824L34.8312 53.6215C34.8135 53.66 34.8116 53.7039 34.826 53.7438C34.8404 53.7837 34.8699 53.8163 34.9082 53.8346L36.6125 54.6096C36.6445 54.6242 36.6795 54.6309 36.7147 54.6291C36.7498 54.6274 36.784 54.6172 36.8144 54.5995C36.8448 54.5818 36.8705 54.557 36.8894 54.5273C36.9082 54.4976 36.9196 54.4638 36.9227 54.4287L36.9854 53.7144C36.9919 53.6571 37.0206 53.6046 37.0652 53.5681C37.1099 53.5316 37.167 53.514 37.2245 53.519C37.282 53.524 37.3352 53.5513 37.3728 53.595C37.4105 53.6387 37.4296 53.6954 37.426 53.7529L36.8954 59.7851C36.8951 59.8279 36.9037 59.8703 36.9206 59.9097C36.9374 59.9491 36.9621 59.9847 36.9932 60.0141C37.0243 60.0436 37.0611 60.0663 37.1014 60.081C37.1416 60.0957 37.1845 60.1019 37.2272 60.0994H43.8525C43.8955 60.1019 43.9385 60.0956 43.9789 60.0808C44.0193 60.066 44.0562 60.0431 44.0873 60.0133C44.1185 59.9836 44.1432 59.9479 44.1599 59.9082C44.1766 59.8685 44.1849 59.8259 44.1844 59.7828C44.0905 58.7762 43.7019 54.671 43.6157 53.7542C43.6116 53.6968 43.6301 53.6401 43.6673 53.5962C43.7044 53.5523 43.7573 53.5247 43.8146 53.5193C43.8718 53.5139 43.9289 53.5311 43.9737 53.5673C44.0184 53.6035 44.0471 53.6558 44.0537 53.7129L44.1205 54.42C44.1238 54.4547 44.1353 54.4882 44.1541 54.5176C44.1729 54.547 44.1984 54.5715 44.2285 54.5891C44.2587 54.6067 44.2925 54.6168 44.3274 54.6187C44.3622 54.6206 44.397 54.6142 44.4289 54.6L46.154 53.8303C46.1917 53.8125 46.2209 53.7806 46.2353 53.7415C46.2496 53.7024 46.2481 53.6595 46.2309 53.6215ZM40.1133 57.8483C40.1115 57.9054 40.0876 57.9596 40.0466 57.9994C40.0056 58.0392 39.9507 58.0614 39.8936 58.0614C39.8364 58.0614 39.7815 58.0392 39.7405 57.9994C39.6995 57.9596 39.6756 57.9054 39.6739 57.8483V55.6328L39.4606 55.7646C39.411 55.7939 39.352 55.8026 39.2962 55.7888C39.2403 55.775 39.1921 55.7399 39.1619 55.6909C39.1317 55.642 39.1219 55.5831 39.1346 55.527C39.1473 55.4709 39.1815 55.422 39.2299 55.3909L39.7771 55.05C39.8106 55.0301 39.8487 55.0194 39.8877 55.0188C39.9266 55.0183 39.965 55.0279 39.999 55.0468C40.0331 55.0658 40.0616 55.0933 40.0816 55.1266C40.1017 55.16 40.1127 55.1981 40.1135 55.237L40.1133 57.8483ZM41.6939 57.8483C41.6939 57.9066 41.6707 57.9625 41.6295 58.0038C41.5883 58.045 41.5324 58.0681 41.4741 58.0681C41.4158 58.0681 41.3598 58.045 41.3186 58.0038C41.2774 57.9625 41.2542 57.9066 41.2542 57.8483V55.6328L41.0412 55.7646C40.9916 55.7952 40.9319 55.8049 40.8752 55.7915C40.8185 55.7781 40.7695 55.7427 40.7389 55.6932C40.7083 55.6436 40.6986 55.5839 40.712 55.5272C40.7254 55.4705 40.7608 55.4215 40.8103 55.3909L41.3575 55.05C41.391 55.0301 41.4291 55.0194 41.468 55.0188C41.507 55.0183 41.5454 55.0279 41.5794 55.0468C41.6135 55.0658 41.642 55.0933 41.662 55.1266C41.6821 55.16 41.6931 55.1981 41.6939 55.237V57.8483Z" fill="#FAFAFA"/>
<path d="M40.1133 57.8483C40.1115 57.9054 40.0876 57.9596 40.0466 57.9994C40.0056 58.0392 39.9507 58.0614 39.8936 58.0614C39.8364 58.0614 39.7815 58.0392 39.7405 57.9994C39.6995 57.9596 39.6756 57.9054 39.6739 57.8483V55.6328L39.4606 55.7646C39.411 55.7939 39.352 55.8026 39.2962 55.7888C39.2403 55.775 39.1921 55.7399 39.1619 55.6909C39.1317 55.642 39.1219 55.5831 39.1346 55.527C39.1473 55.4709 39.1815 55.422 39.2299 55.3909L39.7771 55.05C39.8106 55.0301 39.8487 55.0194 39.8877 55.0188C39.9266 55.0183 39.965 55.0279 39.999 55.0468C40.0331 55.0658 40.0616 55.0933 40.0816 55.1266C40.1017 55.16 40.1127 55.1981 40.1135 55.237L40.1133 57.8483Z" fill="#FAFAFA"/>
<path d="M41.6939 57.8483C41.6939 57.9066 41.6707 57.9625 41.6295 58.0038C41.5883 58.045 41.5324 58.0681 41.4741 58.0681C41.4158 58.0681 41.3598 58.045 41.3186 58.0038C41.2774 57.9625 41.2542 57.9066 41.2542 57.8483V55.6328L41.0412 55.7646C40.9916 55.7952 40.9319 55.8049 40.8752 55.7915C40.8185 55.7781 40.7695 55.7427 40.7389 55.6932C40.7083 55.6436 40.6986 55.5839 40.712 55.5272C40.7254 55.4705 40.7608 55.4215 40.8103 55.3909L41.3575 55.05C41.391 55.0301 41.4291 55.0194 41.468 55.0188C41.507 55.0183 41.5454 55.0279 41.5794 55.0468C41.6135 55.0658 41.642 55.0933 41.662 55.1266C41.6821 55.16 41.6931 55.1981 41.6939 55.237V57.8483Z" fill="#FAFAFA"/>
<path d="M39.5 55.332H41.7917" stroke="#191919" stroke-width="0.343756" stroke-linecap="round" stroke-linejoin="round"/>
<path d="M40.646 56.4792V54.1875" stroke="#191919" stroke-width="0.343756" stroke-linecap="round" stroke-linejoin="round"/>
<path d="M8.46853 14.8673C8.83742 14.8668 9.19107 14.7201 9.45192 14.4593C9.71276 14.1984 9.85949 13.8448 9.85992 13.4759V12.9944C8.93977 13.1677 7.99474 13.161 7.07715 12.9746V13.4759C7.07758 13.8448 7.22431 14.1984 7.48515 14.4593C7.746 14.7201 8.09965 14.8668 8.46853 14.8673Z" fill="#FAFAFA"/>
<path d="M14.1684 17.6215L13.0275 15.2233C12.8123 14.7743 12.4332 14.425 11.9682 14.2472L11.0975 13.9154C10.7529 13.8135 10.5015 13.4088 10.2994 13.1328V13.4102C10.3077 13.666 10.2625 13.9208 10.1667 14.1582C10.071 14.3956 9.92686 14.6104 9.74346 14.789C9.56006 14.9675 9.34145 15.1059 9.10157 15.1953C8.8617 15.2846 8.60584 15.323 8.35031 15.3079C8.09478 15.2928 7.8452 15.2247 7.61749 15.1077C7.38978 14.9908 7.18895 14.8277 7.02781 14.6288C6.86667 14.4299 6.74876 14.1997 6.6816 13.9526C6.61444 13.7056 6.59952 13.4473 6.63777 13.1942C6.4872 13.4837 6.24096 13.7121 5.94095 13.8404L5.12535 14.1329C4.65722 14.2985 4.27127 14.6388 4.04828 15.0824L2.76875 17.6215C2.75098 17.66 2.74909 17.7039 2.76349 17.7438C2.77789 17.7837 2.80743 17.8163 2.84569 17.8346L4.54997 18.6096C4.58199 18.6242 4.61704 18.6309 4.65218 18.6291C4.68732 18.6274 4.72153 18.6172 4.75193 18.5995C4.78233 18.5818 4.80803 18.557 4.82687 18.5273C4.84571 18.4976 4.85715 18.4638 4.86021 18.4287L4.92287 17.7144C4.92941 17.6571 4.95806 17.6046 5.00272 17.5681C5.04739 17.5316 5.10454 17.514 5.162 17.519C5.21945 17.524 5.27267 17.5513 5.31032 17.595C5.34797 17.6387 5.36706 17.6954 5.36354 17.7529L4.83286 23.7851C4.83265 23.8279 4.84122 23.8703 4.85805 23.9097C4.87489 23.9491 4.89962 23.9847 4.93072 24.0141C4.96183 24.0436 4.99864 24.0663 5.03889 24.081C5.07914 24.0957 5.12197 24.1019 5.16474 24.0994H11.79C11.833 24.1019 11.876 24.0956 11.9164 24.0808C11.9568 24.066 11.9937 24.0431 12.0248 24.0133C12.056 23.9836 12.0807 23.9479 12.0974 23.9082C12.1141 23.8685 12.1224 23.8259 12.1219 23.7828C12.028 22.7762 11.6394 18.671 11.5532 17.7542C11.5491 17.6968 11.5676 17.6401 11.6048 17.5962C11.6419 17.5523 11.6948 17.5247 11.7521 17.5193C11.8093 17.5139 11.8664 17.5311 11.9112 17.5673C11.9559 17.6035 11.9846 17.6558 11.9912 17.7129L12.058 18.42C12.0613 18.4547 12.0728 18.4882 12.0916 18.5176C12.1104 18.547 12.1359 18.5715 12.166 18.5891C12.1962 18.6067 12.23 18.6168 12.2649 18.6187C12.2997 18.6206 12.3345 18.6142 12.3664 18.6L14.0915 17.8303C14.1292 17.8125 14.1584 17.7806 14.1728 17.7415C14.1871 17.7024 14.1856 17.6595 14.1684 17.6215ZM8.05079 21.8483C8.04905 21.9054 8.02514 21.9596 7.98412 21.9994C7.94311 22.0392 7.88821 22.0614 7.83107 22.0614C7.77393 22.0614 7.71903 22.0392 7.67802 21.9994C7.637 21.9596 7.61309 21.9054 7.61135 21.8483V19.6328L7.39806 19.7646C7.34854 19.7939 7.28951 19.8026 7.23366 19.7888C7.1778 19.775 7.12958 19.7399 7.09937 19.6909C7.06916 19.642 7.05936 19.5831 7.07208 19.527C7.08481 19.4709 7.11904 19.422 7.16742 19.3909L7.71463 19.05C7.74811 19.0301 7.78622 19.0194 7.82516 19.0188C7.8641 19.0183 7.9025 19.0279 7.93654 19.0468C7.97058 19.0658 7.99906 19.0933 8.01915 19.1266C8.03923 19.16 8.05021 19.1981 8.05099 19.237L8.05079 21.8483ZM9.63138 21.8483C9.63138 21.9066 9.60822 21.9625 9.567 22.0038C9.52577 22.045 9.46986 22.0681 9.41156 22.0681C9.35326 22.0681 9.29735 22.045 9.25612 22.0038C9.2149 21.9625 9.19174 21.9066 9.19174 21.8483V19.6328L8.97865 19.7646C8.92909 19.7952 8.86941 19.8049 8.81272 19.7915C8.75603 19.7781 8.70699 19.7427 8.67637 19.6932C8.64576 19.6436 8.63609 19.5839 8.64949 19.5272C8.66288 19.4705 8.69825 19.4215 8.74781 19.3909L9.29502 19.05C9.3285 19.0301 9.36661 19.0194 9.40555 19.0188C9.44449 19.0183 9.48289 19.0279 9.51693 19.0468C9.55097 19.0658 9.57945 19.0933 9.59953 19.1266C9.61962 19.16 9.6306 19.1981 9.63138 19.237V21.8483Z" fill="#FAFAFA"/>
<path d="M8.05079 21.8483C8.04905 21.9054 8.02514 21.9596 7.98412 21.9994C7.94311 22.0392 7.88821 22.0614 7.83107 22.0614C7.77393 22.0614 7.71903 22.0392 7.67802 21.9994C7.637 21.9596 7.61309 21.9054 7.61135 21.8483V19.6328L7.39806 19.7646C7.34854 19.7939 7.28951 19.8026 7.23366 19.7888C7.1778 19.775 7.12958 19.7399 7.09937 19.6909C7.06916 19.642 7.05936 19.5831 7.07208 19.527C7.08481 19.4709 7.11904 19.422 7.16742 19.3909L7.71463 19.05C7.74811 19.0301 7.78622 19.0194 7.82516 19.0188C7.8641 19.0183 7.9025 19.0279 7.93654 19.0468C7.97058 19.0658 7.99906 19.0933 8.01915 19.1266C8.03923 19.16 8.05021 19.1981 8.05099 19.237L8.05079 21.8483Z" fill="#FAFAFA"/>
<path d="M9.63138 21.8483C9.63138 21.9066 9.60822 21.9625 9.567 22.0038C9.52577 22.045 9.46986 22.0681 9.41156 22.0681C9.35326 22.0681 9.29735 22.045 9.25612 22.0038C9.2149 21.9625 9.19174 21.9066 9.19174 21.8483V19.6328L8.97865 19.7646C8.92909 19.7952 8.86941 19.8049 8.81272 19.7915C8.75603 19.7781 8.70699 19.7427 8.67637 19.6932C8.64576 19.6436 8.63609 19.5839 8.64949 19.5272C8.66288 19.4705 8.69825 19.4215 8.74781 19.3909L9.29502 19.05C9.3285 19.0301 9.36661 19.0194 9.40555 19.0188C9.44449 19.0183 9.48289 19.0279 9.51693 19.0468C9.55097 19.0658 9.57945 19.0933 9.59953 19.1266C9.61962 19.16 9.6306 19.1981 9.63138 19.237V21.8483Z" fill="#FAFAFA"/>
<path d="M7.4375 19.332H9.72921" stroke="#191919" stroke-width="0.343756" stroke-linecap="round" stroke-linejoin="round"/>
<path d="M8.5835 20.4792V18.1875" stroke="#191919" stroke-width="0.343756" stroke-linecap="round" stroke-linejoin="round"/>
<g clip-path="url(#clip1_8758_18372)">
<path d="M23.5313 20.8673C23.9002 20.8668 24.2538 20.7201 24.5147 20.4593C24.7755 20.1984 24.9222 19.8448 24.9227 19.4759V18.9944C24.0025 19.1677 23.0575 19.161 22.1399 18.9746V19.4759C22.1403 19.8448 22.2871 20.1984 22.5479 20.4593C22.8087 20.7201 23.1624 20.8668 23.5313 20.8673Z" fill="#FAFAFA"/>
<path d="M29.2312 23.6215L28.0902 21.2233C27.8751 20.7743 27.4959 20.425 27.0309 20.2472L26.1602 19.9154C25.8157 19.8135 25.5642 19.4088 25.3622 19.1328V19.4102C25.3704 19.666 25.3252 19.9208 25.2295 20.1582C25.1338 20.3956 24.9896 20.6104 24.8062 20.789C24.6228 20.9675 24.4042 21.1059 24.1643 21.1953C23.9244 21.2846 23.6686 21.323 23.4131 21.3079C23.1575 21.2928 22.9079 21.2247 22.6802 21.1077C22.4525 20.9908 22.2517 20.8277 22.0906 20.6288C21.9294 20.4299 21.8115 20.1997 21.7443 19.9526C21.6772 19.7056 21.6623 19.4473 21.7005 19.1942C21.5499 19.4837 21.3037 19.7121 21.0037 19.8404L20.1881 20.1329C19.72 20.2985 19.334 20.6388 19.111 21.0824L17.8315 23.6215C17.8137 23.66 17.8118 23.7039 17.8262 23.7438C17.8406 23.7837 17.8702 23.8163 17.9084 23.8346L19.6127 24.6096C19.6447 24.6242 19.6798 24.6309 19.7149 24.6291C19.7501 24.6274 19.7843 24.6172 19.8147 24.5995C19.8451 24.5818 19.8708 24.557 19.8896 24.5273C19.9085 24.4976 19.9199 24.4638 19.923 24.4287L19.9856 23.7144C19.9922 23.6571 20.0208 23.6046 20.0655 23.5681C20.1101 23.5316 20.1673 23.514 20.2247 23.519C20.2822 23.524 20.3354 23.5513 20.3731 23.595C20.4107 23.6387 20.4298 23.6954 20.4263 23.7529L19.8956 29.7851C19.8954 29.8279 19.904 29.8703 19.9208 29.9097C19.9376 29.9491 19.9624 29.9847 19.9935 30.0141C20.0246 30.0436 20.0614 30.0663 20.1016 30.081C20.1419 30.0957 20.1847 30.1019 20.2275 30.0994H26.8527C26.8957 30.1019 26.9387 30.0956 26.9791 30.0808C27.0195 30.066 27.0565 30.0431 27.0876 30.0133C27.1187 29.9836 27.1434 29.9479 27.1601 29.9082C27.1768 29.8685 27.1851 29.8259 27.1846 29.7828C27.0907 28.7762 26.7021 24.671 26.616 23.7542C26.6118 23.6968 26.6303 23.6401 26.6675 23.5962C26.7047 23.5523 26.7575 23.5247 26.8148 23.5193C26.8721 23.5139 26.9292 23.5311 26.9739 23.5673C27.0186 23.6035 27.0474 23.6558 27.054 23.7129L27.1207 24.42C27.124 24.4547 27.1355 24.4882 27.1543 24.5176C27.1731 24.547 27.1986 24.5715 27.2288 24.5891C27.2589 24.6067 27.2928 24.6168 27.3276 24.6187C27.3625 24.6206 27.3973 24.6142 27.4291 24.6L29.1542 23.8303C29.1919 23.8125 29.2211 23.7806 29.2355 23.7415C29.2499 23.7024 29.2483 23.6595 29.2312 23.6215ZM23.1135 27.8483C23.1118 27.9054 23.0879 27.9596 23.0469 27.9994C23.0059 28.0392 22.951 28.0614 22.8938 28.0614C22.8367 28.0614 22.7818 28.0392 22.7408 27.9994C22.6997 27.9596 22.6758 27.9054 22.6741 27.8483V25.6328L22.4608 25.7646C22.4113 25.7939 22.3523 25.8026 22.2964 25.7888C22.2405 25.775 22.1923 25.7399 22.1621 25.6909C22.1319 25.642 22.1221 25.5831 22.1348 25.527C22.1476 25.4709 22.1818 25.422 22.2302 25.3909L22.7774 25.05C22.8109 25.0301 22.849 25.0194 22.8879 25.0188C22.9268 25.0183 22.9652 25.0279 22.9993 25.0468C23.0333 25.0658 23.0618 25.0933 23.0819 25.1266C23.102 25.16 23.113 25.1981 23.1137 25.237L23.1135 27.8483ZM24.6941 27.8483C24.6941 27.9066 24.671 27.9625 24.6297 28.0038C24.5885 28.045 24.5326 28.0681 24.4743 28.0681C24.416 28.0681 24.3601 28.045 24.3189 28.0038C24.2776 27.9625 24.2545 27.9066 24.2545 27.8483V25.6328L24.0414 25.7646C23.9918 25.7952 23.9322 25.8049 23.8755 25.7915C23.8188 25.7781 23.7697 25.7427 23.7391 25.6932C23.7085 25.6436 23.6988 25.5839 23.7122 25.5272C23.7256 25.4705 23.761 25.4215 23.8106 25.3909L24.3578 25.05C24.3912 25.0301 24.4294 25.0194 24.4683 25.0188C24.5072 25.0183 24.5456 25.0279 24.5797 25.0468C24.6137 25.0658 24.6422 25.0933 24.6623 25.1266C24.6824 25.16 24.6933 25.1981 24.6941 25.237V27.8483Z" fill="#FAFAFA"/>
<path d="M23.1135 27.8483C23.1118 27.9054 23.0879 27.9596 23.0469 27.9994C23.0059 28.0392 22.951 28.0614 22.8938 28.0614C22.8367 28.0614 22.7818 28.0392 22.7408 27.9994C22.6997 27.9596 22.6758 27.9054 22.6741 27.8483V25.6328L22.4608 25.7646C22.4113 25.7939 22.3523 25.8026 22.2964 25.7888C22.2405 25.775 22.1923 25.7399 22.1621 25.6909C22.1319 25.642 22.1221 25.5831 22.1348 25.527C22.1476 25.4709 22.1818 25.422 22.2302 25.3909L22.7774 25.05C22.8109 25.0301 22.849 25.0194 22.8879 25.0188C22.9268 25.0183 22.9652 25.0279 22.9993 25.0468C23.0333 25.0658 23.0618 25.0933 23.0819 25.1266C23.102 25.16 23.113 25.1981 23.1137 25.237L23.1135 27.8483Z" fill="#FAFAFA"/>
<path d="M24.6941 27.8483C24.6941 27.9066 24.671 27.9625 24.6297 28.0038C24.5885 28.045 24.5326 28.0681 24.4743 28.0681C24.416 28.0681 24.3601 28.045 24.3189 28.0038C24.2776 27.9625 24.2545 27.9066 24.2545 27.8483V25.6328L24.0414 25.7646C23.9918 25.7952 23.9322 25.8049 23.8755 25.7915C23.8188 25.7781 23.7697 25.7427 23.7391 25.6932C23.7085 25.6436 23.6988 25.5839 23.7122 25.5272C23.7256 25.4705 23.761 25.4215 23.8106 25.3909L24.3578 25.05C24.3912 25.0301 24.4294 25.0194 24.4683 25.0188C24.5072 25.0183 24.5456 25.0279 24.5797 25.0468C24.6137 25.0658 24.6422 25.0933 24.6623 25.1266C24.6824 25.16 24.6933 25.1981 24.6941 25.237V27.8483Z" fill="#FAFAFA"/>
<path d="M22.5002 25.332H24.792" stroke="#191919" stroke-width="0.343756" stroke-linecap="round" stroke-linejoin="round"/>
<path d="M23.6462 26.4792V24.1875" stroke="#191919" stroke-width="0.343756" stroke-linecap="round" stroke-linejoin="round"/>
</g>
<g clip-path="url(#clip2_8758_18372)">
<path d="M71.594 14.8673C71.9629 14.8668 72.3166 14.7201 72.5774 14.4593C72.8382 14.1984 72.985 13.8448 72.9854 13.4759V12.9944C72.0653 13.1677 71.1202 13.161 70.2026 12.9746V13.4759C70.2031 13.8448 70.3498 14.1984 70.6106 14.4593C70.8715 14.7201 71.2251 14.8668 71.594 14.8673Z" fill="#FAFAFA"/>
<path d="M77.2939 17.6215L76.153 15.2233C75.9378 14.7743 75.5587 14.425 75.0937 14.2472L74.223 13.9154C73.8784 13.8135 73.627 13.4088 73.4249 13.1328V13.4102C73.4331 13.666 73.388 13.9208 73.2922 14.1582C73.1965 14.3956 73.0523 14.6104 72.8689 14.789C72.6855 14.9675 72.4669 15.1059 72.2271 15.1953C71.9872 15.2846 71.7313 15.323 71.4758 15.3079C71.2203 15.2928 70.9707 15.2247 70.743 15.1077C70.5153 14.9908 70.3144 14.8277 70.1533 14.6288C69.9922 14.4299 69.8742 14.1997 69.8071 13.9526C69.7399 13.7056 69.725 13.4473 69.7633 13.1942C69.6127 13.4837 69.3664 13.7121 69.0664 13.8404L68.2508 14.1329C67.7827 14.2985 67.3968 14.6388 67.1738 15.0824L65.8942 17.6215C65.8765 17.66 65.8746 17.7039 65.889 17.7438C65.9034 17.7837 65.9329 17.8163 65.9712 17.8346L67.6755 18.6096C67.7075 18.6242 67.7425 18.6309 67.7777 18.6291C67.8128 18.6274 67.847 18.6172 67.8774 18.5995C67.9078 18.5818 67.9335 18.557 67.9524 18.5273C67.9712 18.4976 67.9826 18.4638 67.9857 18.4287L68.0484 17.7144C68.0549 17.6571 68.0835 17.6046 68.1282 17.5681C68.1729 17.5316 68.23 17.514 68.2875 17.519C68.3449 17.524 68.3982 17.5513 68.4358 17.595C68.4735 17.6387 68.4926 17.6954 68.489 17.7529L67.9584 23.7851C67.9581 23.8279 67.9667 23.8703 67.9835 23.9097C68.0004 23.9491 68.0251 23.9847 68.0562 24.0141C68.0873 24.0436 68.1241 24.0663 68.1644 24.081C68.2046 24.0957 68.2475 24.1019 68.2902 24.0994H74.9155C74.9584 24.1019 75.0015 24.0956 75.0419 24.0808C75.0823 24.066 75.1192 24.0431 75.1503 24.0133C75.1815 23.9836 75.2062 23.9479 75.2228 23.9082C75.2395 23.8685 75.2479 23.8259 75.2474 23.7828C75.1535 22.7762 74.7649 18.671 74.6787 17.7542C74.6746 17.6968 74.6931 17.6401 74.7302 17.5962C74.7674 17.5523 74.8203 17.5247 74.8776 17.5193C74.9348 17.5139 74.9919 17.5311 75.0366 17.5673C75.0813 17.6035 75.1101 17.6558 75.1167 17.7129L75.1835 18.42C75.1868 18.4547 75.1983 18.4882 75.2171 18.5176C75.2359 18.547 75.2614 18.5715 75.2915 18.5891C75.3216 18.6067 75.3555 18.6168 75.3904 18.6187C75.4252 18.6206 75.46 18.6142 75.4919 18.6L77.217 17.8303C77.2547 17.8125 77.2838 17.7806 77.2982 17.7415C77.3126 17.7024 77.3111 17.6595 77.2939 17.6215ZM71.1763 21.8483C71.1745 21.9054 71.1506 21.9596 71.1096 21.9994C71.0686 22.0392 71.0137 22.0614 70.9566 22.0614C70.8994 22.0614 70.8445 22.0392 70.8035 21.9994C70.7625 21.9596 70.7386 21.9054 70.7368 21.8483V19.6328L70.5235 19.7646C70.474 19.7939 70.415 19.8026 70.3591 19.7888C70.3033 19.775 70.2551 19.7399 70.2249 19.6909C70.1946 19.642 70.1848 19.5831 70.1976 19.527C70.2103 19.4709 70.2445 19.422 70.2929 19.3909L70.8401 19.05C70.8736 19.0301 70.9117 19.0194 70.9506 19.0188C70.9896 19.0183 71.028 19.0279 71.062 19.0468C71.0961 19.0658 71.1246 19.0933 71.1446 19.1266C71.1647 19.16 71.1757 19.1981 71.1765 19.237L71.1763 21.8483ZM72.7569 21.8483C72.7569 21.9066 72.7337 21.9625 72.6925 22.0038C72.6513 22.045 72.5953 22.0681 72.537 22.0681C72.4787 22.0681 72.4228 22.045 72.3816 22.0038C72.3404 21.9625 72.3172 21.9066 72.3172 21.8483V19.6328L72.1041 19.7646C72.0546 19.7952 71.9949 19.8049 71.9382 19.7915C71.8815 19.7781 71.8325 19.7427 71.8019 19.6932C71.7713 19.6436 71.7616 19.5839 71.775 19.5272C71.7884 19.4705 71.8237 19.4215 71.8733 19.3909L72.4205 19.05C72.454 19.0301 72.4921 19.0194 72.531 19.0188C72.57 19.0183 72.6084 19.0279 72.6424 19.0468C72.6765 19.0658 72.7049 19.0933 72.725 19.1266C72.7451 19.16 72.7561 19.1981 72.7569 19.237V21.8483Z" fill="#FAFAFA"/>
<path d="M71.1763 21.8483C71.1745 21.9054 71.1506 21.9596 71.1096 21.9994C71.0686 22.0392 71.0137 22.0614 70.9566 22.0614C70.8994 22.0614 70.8445 22.0392 70.8035 21.9994C70.7625 21.9596 70.7386 21.9054 70.7368 21.8483V19.6328L70.5235 19.7646C70.474 19.7939 70.415 19.8026 70.3591 19.7888C70.3033 19.775 70.2551 19.7399 70.2249 19.6909C70.1946 19.642 70.1848 19.5831 70.1976 19.527C70.2103 19.4709 70.2445 19.422 70.2929 19.3909L70.8401 19.05C70.8736 19.0301 70.9117 19.0194 70.9506 19.0188C70.9896 19.0183 71.028 19.0279 71.062 19.0468C71.0961 19.0658 71.1246 19.0933 71.1446 19.1266C71.1647 19.16 71.1757 19.1981 71.1765 19.237L71.1763 21.8483Z" fill="#FAFAFA"/>
<path d="M72.7569 21.8483C72.7569 21.9066 72.7337 21.9625 72.6925 22.0038C72.6513 22.045 72.5953 22.0681 72.537 22.0681C72.4787 22.0681 72.4228 22.045 72.3816 22.0038C72.3404 21.9625 72.3172 21.9066 72.3172 21.8483V19.6328L72.1041 19.7646C72.0546 19.7952 71.9949 19.8049 71.9382 19.7915C71.8815 19.7781 71.8325 19.7427 71.8019 19.6932C71.7713 19.6436 71.7616 19.5839 71.775 19.5272C71.7884 19.4705 71.8237 19.4215 71.8733 19.3909L72.4205 19.05C72.454 19.0301 72.4921 19.0194 72.531 19.0188C72.57 19.0183 72.6084 19.0279 72.6424 19.0468C72.6765 19.0658 72.7049 19.0933 72.725 19.1266C72.7451 19.16 72.7561 19.1981 72.7569 19.237V21.8483Z" fill="#FAFAFA"/>
<path d="M70.563 19.332H72.8547" stroke="#191919" stroke-width="0.343756" stroke-linecap="round" stroke-linejoin="round"/>
<path d="M71.709 20.4792V18.1875" stroke="#191919" stroke-width="0.343756" stroke-linecap="round" stroke-linejoin="round"/>
</g>
<g clip-path="url(#clip3_8758_18372)">
<path d="M40.6568 31.8673C41.0257 31.8668 41.3793 31.7201 41.6401 31.4593C41.901 31.1984 42.0477 30.8448 42.0482 30.4759V29.9944C41.128 30.1677 40.183 30.161 39.2654 29.9746V30.4759C39.2658 30.8448 39.4125 31.1984 39.6734 31.4593C39.9342 31.7201 40.2879 31.8668 40.6568 31.8673Z" fill="#FAFAFA"/>
<path d="M46.3567 34.6215L45.2157 32.2233C45.0005 31.7743 44.6214 31.425 44.1564 31.2472L43.2857 30.9154C42.9412 30.8135 42.6897 30.4088 42.4877 30.1328V30.4102C42.4959 30.666 42.4507 30.9208 42.355 31.1582C42.2593 31.3956 42.1151 31.6104 41.9317 31.789C41.7483 31.9675 41.5297 32.1059 41.2898 32.1953C41.0499 32.2846 40.7941 32.323 40.5385 32.3079C40.283 32.2928 40.0334 32.2247 39.8057 32.1077C39.578 31.9908 39.3772 31.8277 39.216 31.6288C39.0549 31.4299 38.937 31.1997 38.8698 30.9526C38.8027 30.7056 38.7877 30.4473 38.826 30.1942C38.6754 30.4837 38.4292 30.7121 38.1292 30.8404L37.3136 31.1329C36.8454 31.2985 36.4595 31.6388 36.2365 32.0824L34.957 34.6215C34.9392 34.66 34.9373 34.7039 34.9517 34.7438C34.9661 34.7837 34.9957 34.8163 35.0339 34.8346L36.7382 35.6096C36.7702 35.6242 36.8053 35.6309 36.8404 35.6291C36.8756 35.6274 36.9098 35.6172 36.9402 35.5995C36.9706 35.5818 36.9963 35.557 37.0151 35.5273C37.0339 35.4976 37.0454 35.4638 37.0484 35.4287L37.1111 34.7144C37.1176 34.6571 37.1463 34.6046 37.191 34.5681C37.2356 34.5316 37.2928 34.514 37.3502 34.519C37.4077 34.524 37.4609 34.5513 37.4986 34.595C37.5362 34.6387 37.5553 34.6954 37.5518 34.7529L37.0211 40.7851C37.0209 40.8279 37.0295 40.8703 37.0463 40.9097C37.0631 40.9491 37.0879 40.9847 37.119 41.0141C37.1501 41.0436 37.1869 41.0663 37.2271 41.081C37.2674 41.0957 37.3102 41.1019 37.353 41.0994H43.9782C44.0212 41.1019 44.0642 41.0956 44.1046 41.0808C44.145 41.066 44.1819 41.0431 44.2131 41.0133C44.2442 40.9836 44.2689 40.9479 44.2856 40.9082C44.3023 40.8685 44.3106 40.8259 44.3101 40.7828C44.2162 39.7762 43.8276 35.671 43.7415 34.7542C43.7373 34.6968 43.7558 34.6401 43.793 34.5962C43.8302 34.5523 43.883 34.5247 43.9403 34.5193C43.9976 34.5139 44.0547 34.5311 44.0994 34.5673C44.1441 34.6035 44.1728 34.6558 44.1795 34.7129L44.2462 35.42C44.2495 35.4547 44.261 35.4882 44.2798 35.5176C44.2986 35.547 44.3241 35.5715 44.3542 35.5891C44.3844 35.6067 44.4183 35.6168 44.4531 35.6187C44.488 35.6206 44.5228 35.6142 44.5546 35.6L46.2797 34.8303C46.3174 34.8125 46.3466 34.7806 46.361 34.7415C46.3754 34.7024 46.3738 34.6595 46.3567 34.6215ZM40.239 38.8483C40.2373 38.9054 40.2134 38.9596 40.1724 38.9994C40.1313 39.0392 40.0764 39.0614 40.0193 39.0614C39.9622 39.0614 39.9073 39.0392 39.8663 38.9994C39.8252 38.9596 39.8013 38.9054 39.7996 38.8483V36.6328L39.5863 36.7646C39.5368 36.7939 39.4777 36.8026 39.4219 36.7888C39.366 36.775 39.3178 36.7399 39.2876 36.6909C39.2574 36.642 39.2476 36.5831 39.2603 36.527C39.273 36.4709 39.3073 36.422 39.3557 36.3909L39.9029 36.05C39.9363 36.0301 39.9745 36.0194 40.0134 36.0188C40.0523 36.0183 40.0907 36.0279 40.1248 36.0468C40.1588 36.0658 40.1873 36.0933 40.2074 36.1266C40.2275 36.16 40.2384 36.1981 40.2392 36.237L40.239 38.8483ZM41.8196 38.8483C41.8196 38.9066 41.7965 38.9625 41.7552 39.0038C41.714 39.045 41.6581 39.0681 41.5998 39.0681C41.5415 39.0681 41.4856 39.045 41.4444 39.0038C41.4031 38.9625 41.38 38.9066 41.38 38.8483V36.6328L41.1669 36.7646C41.1173 36.7952 41.0576 36.8049 41.0009 36.7915C40.9443 36.7781 40.8952 36.7427 40.8646 36.6932C40.834 36.6436 40.8243 36.5839 40.8377 36.5272C40.8511 36.4705 40.8865 36.4215 40.936 36.3909L41.4832 36.05C41.5167 36.0301 41.5548 36.0194 41.5938 36.0188C41.6327 36.0183 41.6711 36.0279 41.7052 36.0468C41.7392 36.0658 41.7677 36.0933 41.7878 36.1266C41.8078 36.16 41.8188 36.1981 41.8196 36.237V38.8483Z" fill="#FAFAFA"/>
<path d="M40.239 38.8483C40.2373 38.9054 40.2134 38.9596 40.1724 38.9994C40.1313 39.0392 40.0764 39.0614 40.0193 39.0614C39.9622 39.0614 39.9073 39.0392 39.8663 38.9994C39.8252 38.9596 39.8013 38.9054 39.7996 38.8483V36.6328L39.5863 36.7646C39.5368 36.7939 39.4777 36.8026 39.4219 36.7888C39.366 36.775 39.3178 36.7399 39.2876 36.6909C39.2574 36.642 39.2476 36.5831 39.2603 36.527C39.273 36.4709 39.3073 36.422 39.3557 36.3909L39.9029 36.05C39.9363 36.0301 39.9745 36.0194 40.0134 36.0188C40.0523 36.0183 40.0907 36.0279 40.1248 36.0468C40.1588 36.0658 40.1873 36.0933 40.2074 36.1266C40.2275 36.16 40.2384 36.1981 40.2392 36.237L40.239 38.8483Z" fill="#FAFAFA"/>
<path d="M41.8196 38.8483C41.8196 38.9066 41.7965 38.9625 41.7552 39.0038C41.714 39.045 41.6581 39.0681 41.5998 39.0681C41.5415 39.0681 41.4856 39.045 41.4444 39.0038C41.4031 38.9625 41.38 38.9066 41.38 38.8483V36.6328L41.1669 36.7646C41.1173 36.7952 41.0576 36.8049 41.0009 36.7915C40.9443 36.7781 40.8952 36.7427 40.8646 36.6932C40.834 36.6436 40.8243 36.5839 40.8377 36.5272C40.8511 36.4705 40.8865 36.4215 40.936 36.3909L41.4832 36.05C41.5167 36.0301 41.5548 36.0194 41.5938 36.0188C41.6327 36.0183 41.6711 36.0279 41.7052 36.0468C41.7392 36.0658 41.7677 36.0933 41.7878 36.1266C41.8078 36.16 41.8188 36.1981 41.8196 36.237V38.8483Z" fill="#FAFAFA"/>
<path d="M39.6257 36.332H41.9174" stroke="#191919" stroke-width="0.343756" stroke-linecap="round" stroke-linejoin="round"/>
<path d="M40.7717 37.4792V35.1875" stroke="#191919" stroke-width="0.343756" stroke-linecap="round" stroke-linejoin="round"/>
</g>
<path d="M57.7195 20.8673C58.0884 20.8668 58.4421 20.7201 58.7029 20.4593C58.9637 20.1984 59.1105 19.8448 59.1109 19.4759V18.9944C58.1907 19.1677 57.2457 19.161 56.3281 18.9746V19.4759C56.3286 19.8448 56.4753 20.1984 56.7361 20.4593C56.997 20.7201 57.3506 20.8668 57.7195 20.8673Z" fill="#FAFAFA"/>
<path d="M63.4194 23.6215L62.2785 21.2233C62.0633 20.7743 61.6842 20.425 61.2192 20.2472L60.3484 19.9154C60.0039 19.8135 59.7525 19.4088 59.5504 19.1328V19.4102C59.5586 19.666 59.5134 19.9208 59.4177 20.1582C59.322 20.3956 59.1778 20.6104 58.9944 20.789C58.811 20.9675 58.5924 21.1059 58.3526 21.1953C58.1127 21.2846 57.8568 21.323 57.6013 21.3079C57.3458 21.2928 57.0962 21.2247 56.8685 21.1077C56.6408 20.9908 56.4399 20.8277 56.2788 20.6288C56.1176 20.4299 55.9997 20.1997 55.9326 19.9526C55.8654 19.7056 55.8505 19.4473 55.8887 19.1942C55.7382 19.4837 55.4919 19.7121 55.1919 19.8404L54.3763 20.1329C53.9082 20.2985 53.5222 20.6388 53.2993 21.0824L52.0197 23.6215C52.002 23.66 52.0001 23.7039 52.0145 23.7438C52.0289 23.7837 52.0584 23.8163 52.0967 23.8346L53.801 24.6096C53.833 24.6242 53.868 24.6309 53.9032 24.6291C53.9383 24.6274 53.9725 24.6172 54.0029 24.5995C54.0333 24.5818 54.059 24.557 54.0778 24.5273C54.0967 24.4976 54.1081 24.4638 54.1112 24.4287L54.1739 23.7144C54.1804 23.6571 54.209 23.6046 54.2537 23.5681C54.2984 23.5316 54.3555 23.514 54.413 23.519C54.4704 23.524 54.5237 23.5513 54.5613 23.595C54.5989 23.6387 54.618 23.6954 54.6145 23.7529L54.0838 29.7851C54.0836 29.8279 54.0922 29.8703 54.109 29.9097C54.1259 29.9491 54.1506 29.9847 54.1817 30.0141C54.2128 30.0436 54.2496 30.0663 54.2899 30.081C54.3301 30.0957 54.373 30.1019 54.4157 30.0994H61.041C61.0839 30.1019 61.127 30.0956 61.1674 30.0808C61.2078 30.066 61.2447 30.0431 61.2758 30.0133C61.307 29.9836 61.3316 29.9479 61.3483 29.9082C61.365 29.8685 61.3734 29.8259 61.3729 29.7828C61.279 28.7762 60.8903 24.671 60.8042 23.7542C60.8001 23.6968 60.8186 23.6401 60.8557 23.5962C60.8929 23.5523 60.9458 23.5247 61.0031 23.5193C61.0603 23.5139 61.1174 23.5311 61.1621 23.5673C61.2068 23.6035 61.2356 23.6558 61.2422 23.7129L61.309 24.42C61.3123 24.4547 61.3238 24.4882 61.3426 24.5176C61.3613 24.547 61.3869 24.5715 61.417 24.5891C61.4471 24.6067 61.481 24.6168 61.5159 24.6187C61.5507 24.6206 61.5855 24.6142 61.6174 24.6L63.3425 23.8303C63.3801 23.8125 63.4093 23.7806 63.4237 23.7415C63.4381 23.7024 63.4366 23.6595 63.4194 23.6215ZM57.3018 27.8483C57.3 27.9054 57.2761 27.9596 57.2351 27.9994C57.1941 28.0392 57.1392 28.0614 57.082 28.0614C57.0249 28.0614 56.97 28.0392 56.929 27.9994C56.888 27.9596 56.8641 27.9054 56.8623 27.8483V25.6328L56.649 25.7646C56.5995 25.7939 56.5405 25.8026 56.4846 25.7888C56.4288 25.775 56.3806 25.7399 56.3503 25.6909C56.3201 25.642 56.3103 25.5831 56.3231 25.527C56.3358 25.4709 56.37 25.422 56.4184 25.3909L56.9656 25.05C56.9991 25.0301 57.0372 25.0194 57.0761 25.0188C57.1151 25.0183 57.1535 25.0279 57.1875 25.0468C57.2216 25.0658 57.25 25.0933 57.2701 25.1266C57.2902 25.16 57.3012 25.1981 57.302 25.237L57.3018 27.8483ZM58.8824 27.8483C58.8824 27.9066 58.8592 27.9625 58.818 28.0038C58.7767 28.045 58.7208 28.0681 58.6625 28.0681C58.6042 28.0681 58.5483 28.045 58.5071 28.0038C58.4659 27.9625 58.4427 27.9066 58.4427 27.8483V25.6328L58.2296 25.7646C58.1801 25.7952 58.1204 25.8049 58.0637 25.7915C58.007 25.7781 57.958 25.7427 57.9274 25.6932C57.8967 25.6436 57.8871 25.5839 57.9005 25.5272C57.9139 25.4705 57.9492 25.4215 57.9988 25.3909L58.546 25.05C58.5795 25.0301 58.6176 25.0194 58.6565 25.0188C58.6955 25.0183 58.7339 25.0279 58.7679 25.0468C58.8019 25.0658 58.8304 25.0933 58.8505 25.1266C58.8706 25.16 58.8816 25.1981 58.8824 25.237V27.8483Z" fill="#FAFAFA"/>
<path d="M57.3018 27.8483C57.3 27.9054 57.2761 27.9596 57.2351 27.9994C57.1941 28.0392 57.1392 28.0614 57.082 28.0614C57.0249 28.0614 56.97 28.0392 56.929 27.9994C56.888 27.9596 56.8641 27.9054 56.8623 27.8483V25.6328L56.649 25.7646C56.5995 25.7939 56.5405 25.8026 56.4846 25.7888C56.4288 25.775 56.3806 25.7399 56.3503 25.6909C56.3201 25.642 56.3103 25.5831 56.3231 25.527C56.3358 25.4709 56.37 25.422 56.4184 25.3909L56.9656 25.05C56.9991 25.0301 57.0372 25.0194 57.0761 25.0188C57.1151 25.0183 57.1535 25.0279 57.1875 25.0468C57.2216 25.0658 57.25 25.0933 57.2701 25.1266C57.2902 25.16 57.3012 25.1981 57.302 25.237L57.3018 27.8483Z" fill="#FAFAFA"/>
<path d="M58.8824 27.8483C58.8824 27.9066 58.8592 27.9625 58.818 28.0038C58.7767 28.045 58.7208 28.0681 58.6625 28.0681C58.6042 28.0681 58.5483 28.045 58.5071 28.0038C58.4659 27.9625 58.4427 27.9066 58.4427 27.8483V25.6328L58.2296 25.7646C58.1801 25.7952 58.1204 25.8049 58.0637 25.7915C58.007 25.7781 57.958 25.7427 57.9274 25.6932C57.8967 25.6436 57.8871 25.5839 57.9005 25.5272C57.9139 25.4705 57.9492 25.4215 57.9988 25.3909L58.546 25.05C58.5795 25.0301 58.6176 25.0194 58.6565 25.0188C58.6955 25.0183 58.7339 25.0279 58.7679 25.0468C58.8019 25.0658 58.8304 25.0933 58.8505 25.1266C58.8706 25.16 58.8816 25.1981 58.8824 25.237V27.8483Z" fill="#FAFAFA"/>
<path d="M56.6885 25.332H58.9802" stroke="#191919" stroke-width="0.343756" stroke-linecap="round" stroke-linejoin="round"/>
<path d="M57.8345 26.4792V24.1875" stroke="#191919" stroke-width="0.343756" stroke-linecap="round" stroke-linejoin="round"/>
<path d="M26.531 3.86923C26.8999 3.8688 27.2536 3.72207 27.5144 3.46123C27.7753 3.20038 27.922 2.84673 27.9224 2.47785V1.99636C27.0023 2.1697 26.0572 2.16297 25.1396 1.97656V2.47785C25.1401 2.84673 25.2868 3.20038 25.5477 3.46123C25.8085 3.72207 26.1621 3.8688 26.531 3.86923Z" fill="#FAFAFA"/>
<path d="M32.2309 6.62345L31.09 4.22521C30.8748 3.77629 30.4957 3.42696 30.0307 3.24918L29.16 2.91731C28.8154 2.81546 28.564 2.41072 28.3619 2.13477V2.41214C28.3702 2.66798 28.325 2.92273 28.2292 3.16013C28.1335 3.39753 27.9894 3.61237 27.806 3.79094C27.6226 3.9695 27.4039 4.10788 27.1641 4.19723C26.9242 4.28658 26.6683 4.32494 26.4128 4.30987C26.1573 4.2948 25.9077 4.22663 25.68 4.1097C25.4523 3.99278 25.2515 3.82967 25.0903 3.63078C24.9292 3.4319 24.8113 3.2016 24.7441 2.9546C24.6769 2.70759 24.662 2.4493 24.7003 2.1962C24.5497 2.48569 24.3035 2.71405 24.0035 2.8424L23.1878 3.13488C22.7197 3.30048 22.3338 3.64071 22.1108 4.08438L20.8312 6.62345C20.8135 6.66195 20.8116 6.7059 20.826 6.74579C20.8404 6.78567 20.8699 6.81827 20.9082 6.83654L22.6125 7.61153C22.6445 7.62613 22.6795 7.63284 22.7147 7.63109C22.7498 7.62933 22.784 7.61917 22.8144 7.60145C22.8448 7.58373 22.8705 7.55898 22.8894 7.52926C22.9082 7.49955 22.9196 7.46574 22.9227 7.43069L22.9854 6.71632C22.9919 6.65901 23.0206 6.60652 23.0652 6.57004C23.1099 6.53355 23.167 6.51594 23.2245 6.52097C23.282 6.526 23.3352 6.55327 23.3728 6.59696C23.4105 6.64066 23.4296 6.69733 23.426 6.75489L22.8954 12.787C22.8951 12.8299 22.9037 12.8723 22.9206 12.9117C22.9374 12.9511 22.9621 12.9866 22.9932 13.0161C23.0243 13.0455 23.0611 13.0683 23.1014 13.083C23.1416 13.0976 23.1845 13.1039 23.2272 13.1013H29.8525C29.8955 13.1039 29.9385 13.0976 29.9789 13.0828C30.0193 13.068 30.0562 13.045 30.0873 13.0153C30.1185 12.9856 30.1432 12.9498 30.1599 12.9101C30.1766 12.8705 30.1849 12.8278 30.1844 12.7848C30.0905 11.7781 29.7019 7.67296 29.6157 6.75612C29.6116 6.69875 29.6301 6.64203 29.6673 6.59813C29.7044 6.55422 29.7573 6.52662 29.8146 6.52123C29.8718 6.51584 29.9289 6.53309 29.9737 6.56929C30.0184 6.60549 30.0471 6.65775 30.0537 6.71489L30.1205 7.42191C30.1238 7.45665 30.1353 7.49011 30.1541 7.51952C30.1729 7.54892 30.1984 7.57344 30.2285 7.59103C30.2587 7.60862 30.2925 7.61878 30.3274 7.62068C30.3622 7.62258 30.397 7.61615 30.4289 7.60193L32.154 6.83225C32.1917 6.81447 32.2209 6.7826 32.2353 6.7435C32.2496 6.7044 32.2481 6.66142 32.2309 6.62345ZM26.1133 10.8503C26.1115 10.9074 26.0876 10.9616 26.0466 11.0014C26.0056 11.0411 25.9507 11.0634 25.8936 11.0634C25.8364 11.0634 25.7815 11.0411 25.7405 11.0014C25.6995 10.9616 25.6756 10.9074 25.6739 10.8503V8.63471L25.4606 8.76656C25.411 8.79584 25.352 8.80453 25.2962 8.79075C25.2403 8.77697 25.1921 8.74182 25.1619 8.69287C25.1317 8.64391 25.1219 8.58505 25.1346 8.52895C25.1473 8.47284 25.1815 8.42397 25.2299 8.39284L25.7771 8.05198C25.8106 8.03209 25.8487 8.02133 25.8877 8.02077C25.9266 8.02021 25.965 8.02987 25.999 8.04879C26.0331 8.06771 26.0616 8.09523 26.0816 8.1286C26.1017 8.16196 26.1127 8.20001 26.1135 8.23895L26.1133 10.8503ZM27.6939 10.8503C27.6939 10.9086 27.6707 10.9645 27.6295 11.0057C27.5883 11.0469 27.5324 11.0701 27.4741 11.0701C27.4158 11.0701 27.3598 11.0469 27.3186 11.0057C27.2774 10.9645 27.2542 10.9086 27.2542 10.8503V8.63471L27.0412 8.76656C26.9916 8.79717 26.9319 8.80684 26.8752 8.79344C26.8185 8.78005 26.7695 8.74468 26.7389 8.69512C26.7083 8.64556 26.6986 8.58587 26.712 8.52919C26.7254 8.4725 26.7608 8.42345 26.8103 8.39284L27.3575 8.05198C27.391 8.03209 27.4291 8.02133 27.468 8.02077C27.507 8.02021 27.5454 8.02987 27.5794 8.04879C27.6135 8.06771 27.642 8.09523 27.662 8.1286C27.6821 8.16196 27.6931 8.20001 27.6939 8.23895V10.8503Z" fill="#FAFAFA"/>
<path d="M26.1133 10.8503C26.1115 10.9074 26.0876 10.9616 26.0466 11.0014C26.0056 11.0411 25.9507 11.0634 25.8936 11.0634C25.8364 11.0634 25.7815 11.0411 25.7405 11.0014C25.6995 10.9616 25.6756 10.9074 25.6739 10.8503V8.63471L25.4606 8.76656C25.411 8.79584 25.352 8.80453 25.2962 8.79075C25.2403 8.77697 25.1921 8.74182 25.1619 8.69287C25.1317 8.64391 25.1219 8.58505 25.1346 8.52895C25.1473 8.47284 25.1815 8.42397 25.2299 8.39284L25.7771 8.05198C25.8106 8.03209 25.8487 8.02133 25.8877 8.02077C25.9266 8.02021 25.965 8.02987 25.999 8.04879C26.0331 8.06771 26.0616 8.09523 26.0816 8.1286C26.1017 8.16196 26.1127 8.20001 26.1135 8.23895L26.1133 10.8503Z" fill="#FAFAFA"/>
<path d="M27.6939 10.8503C27.6939 10.9086 27.6707 10.9645 27.6295 11.0057C27.5883 11.0469 27.5324 11.0701 27.4741 11.0701C27.4158 11.0701 27.3598 11.0469 27.3186 11.0057C27.2774 10.9645 27.2542 10.9086 27.2542 10.8503V8.63471L27.0412 8.76656C26.9916 8.79717 26.9319 8.80684 26.8752 8.79344C26.8185 8.78005 26.7695 8.74468 26.7389 8.69512C26.7083 8.64556 26.6986 8.58587 26.712 8.52919C26.7254 8.4725 26.7608 8.42345 26.8103 8.39284L27.3575 8.05198C27.391 8.03209 27.4291 8.02133 27.468 8.02077C27.507 8.02021 27.5454 8.02987 27.5794 8.04879C27.6135 8.06771 27.642 8.09523 27.662 8.1286C27.6821 8.16196 27.6931 8.20001 27.6939 8.23895V10.8503Z" fill="#FAFAFA"/>
<path d="M25.5 8.33398H27.7917" stroke="#191919" stroke-width="0.343756" stroke-linecap="round" stroke-linejoin="round"/>
<path d="M26.646 9.48116V7.18945" stroke="#191919" stroke-width="0.343756" stroke-linecap="round" stroke-linejoin="round"/>
<defs>
<clipPath id="clip0_8758_18372">
<rect width="13.0627" height="13.0627" fill="white" transform="translate(33.8354 66.5645)"/>
</clipPath>
<clipPath id="clip1_8758_18372">
<rect width="13.0627" height="13.0627" fill="white" transform="translate(17.0002 18)"/>
</clipPath>
<clipPath id="clip2_8758_18372">
<rect width="13.0627" height="13.0627" fill="white" transform="translate(65.063 12)"/>
</clipPath>
<clipPath id="clip3_8758_18372">
<rect width="13.0627" height="13.0627" fill="white" transform="translate(34.1257 29)"/>
</clipPath>
</defs>
</svg>
