<svg width="81" height="81" viewBox="0 0 81 81" fill="none" xmlns="http://www.w3.org/2000/svg">
<rect x="0.472007" y="0.118492" width="79.9807" height="79.9807" rx="5.88541" fill="#828284" stroke="#FAFAFA" stroke-width="0.229171"/>
<mask id="path-2-inside-1_8758_19039" fill="white">
<path d="M24.1912 66.4609H56.7334V80.2112H24.1912V66.4609Z"/>
</mask>
<path d="M24.1912 66.4609V66.2318H23.962V66.4609H24.1912ZM56.7334 66.4609H56.9626V66.2318H56.7334V66.4609ZM24.1912 66.6901H56.7334V66.2318H24.1912V66.6901ZM56.5043 66.4609V80.2112H56.9626V66.4609H56.5043ZM24.4203 80.2112V66.4609H23.962V80.2112H24.4203Z" fill="#FAFAFA" mask="url(#path-2-inside-1_8758_19039)"/>
<mask id="path-4-inside-2_8758_19039" fill="white">
<path d="M12.9619 55.0039H67.9629V80.2127H12.9619V55.0039Z"/>
</mask>
<path d="M12.9619 55.0039V54.7747H12.7327V55.0039H12.9619ZM67.9629 55.0039H68.1921V54.7747H67.9629V55.0039ZM12.9619 55.2331H67.9629V54.7747H12.9619V55.2331ZM67.7338 55.0039V80.2127H68.1921V55.0039H67.7338ZM13.1911 80.2127V55.0039H12.7327V80.2127H13.1911Z" fill="#FAFAFA" mask="url(#path-4-inside-2_8758_19039)"/>
<path d="M54.6709 9.53674e-07C54.6709 1.65523 54.2856 3.29426 53.537 4.8235C52.7884 6.35273 51.6912 7.74223 50.3079 8.91266C48.9247 10.0831 47.2826 11.0115 45.4753 11.645C43.668 12.2784 41.731 12.6044 39.7748 12.6044C37.8186 12.6044 35.8816 12.2784 34.0743 11.645C32.267 11.0115 30.6249 10.0831 29.2416 8.91266C27.8584 7.74223 26.7612 6.35273 26.0126 4.8235C25.264 3.29426 24.8787 1.65523 24.8787 0" stroke="#FAFAFA" stroke-width="0.229171"/>
<path d="M30.9346 55.3516C31.4529 54.5174 32.2125 53.7595 33.1701 53.1211C34.1278 52.4827 35.2646 51.9763 36.5158 51.6308C37.767 51.2853 39.108 51.1074 40.4623 51.1074C41.8166 51.1074 43.1576 51.2853 44.4088 51.6308C45.66 51.9763 46.7969 52.4827 47.7545 53.1211C48.7121 53.7595 49.4717 54.5174 49.99 55.3516" stroke="#FAFAFA" stroke-width="0.229171"/>
<path d="M0.586426 76.5479C1.70295 76.4958 3.90688 77.1099 3.79038 79.9825" stroke="#FAFAFA" stroke-width="0.229171"/>
<path d="M80.3379 76.5479C79.2214 76.4958 77.0174 77.1099 77.1339 79.9825" stroke="#FAFAFA" stroke-width="0.229171"/>
<g clip-path="url(#clip0_8758_19039)">
<path d="M40.5764 69.4356C40.9453 69.4352 41.299 69.2885 41.5598 69.0276C41.8207 68.7668 41.9674 68.4131 41.9678 68.0443V67.5628C41.0477 67.7361 40.1026 67.7294 39.1851 67.543V68.0443C39.1855 68.4131 39.3322 68.7668 39.5931 69.0276C39.8539 69.2885 40.2076 69.4352 40.5764 69.4356Z" fill="#FAFAFA"/>
<path d="M46.2764 72.1899L45.1354 69.7916C44.9202 69.3427 44.5411 68.9934 44.0761 68.8156L43.2054 68.4837C42.8609 68.3819 42.6094 67.9771 42.4073 67.7012V67.9786C42.4156 68.2344 42.3704 68.4891 42.2747 68.7265C42.1789 68.9639 42.0348 69.1788 41.8514 69.3573C41.668 69.5359 41.4494 69.6743 41.2095 69.7636C40.9696 69.853 40.7137 69.8913 40.4582 69.8763C40.2027 69.8612 39.9531 69.793 39.7254 69.6761C39.4977 69.5592 39.2969 69.3961 39.1357 69.1972C38.9746 68.9983 38.8567 68.768 38.7895 68.521C38.7224 68.274 38.7074 68.0157 38.7457 67.7626C38.5951 68.0521 38.3489 68.2805 38.0489 68.4088L37.2333 68.7013C36.7651 68.8669 36.3792 69.2071 36.1562 69.6508L34.8767 72.1899C34.8589 72.2284 34.857 72.2723 34.8714 72.3122C34.8858 72.3521 34.9153 72.3847 34.9536 72.4029L36.6579 73.1779C36.6899 73.1925 36.7249 73.1992 36.7601 73.1975C36.7952 73.1957 36.8294 73.1856 36.8598 73.1679C36.8902 73.1501 36.9159 73.1254 36.9348 73.0957C36.9536 73.066 36.9651 73.0321 36.9681 72.9971L37.0308 72.2827C37.0373 72.2254 37.066 72.1729 37.1106 72.1364C37.1553 72.1 37.2124 72.0823 37.2699 72.0874C37.3274 72.0924 37.3806 72.1197 37.4182 72.1634C37.4559 72.2071 37.475 72.2637 37.4714 72.3213L36.9408 78.3534C36.9406 78.3963 36.9491 78.4387 36.966 78.4781C36.9828 78.5175 37.0075 78.553 37.0386 78.5825C37.0697 78.6119 37.1066 78.6347 37.1468 78.6494C37.1871 78.664 37.2299 78.6703 37.2726 78.6678H43.8979C43.9409 78.6703 43.9839 78.664 44.0243 78.6492C44.0647 78.6344 44.1016 78.6114 44.1328 78.5817C44.1639 78.552 44.1886 78.5162 44.2053 78.4766C44.222 78.4369 44.2303 78.3942 44.2298 78.3512C44.1359 77.3445 43.7473 73.2394 43.6611 72.3225C43.657 72.2652 43.6755 72.2084 43.7127 72.1645C43.7498 72.1206 43.8027 72.093 43.86 72.0876C43.9173 72.0822 43.9744 72.0995 44.0191 72.1357C44.0638 72.1719 44.0925 72.2242 44.0992 72.2813L44.1659 72.9883C44.1692 73.0231 44.1807 73.0565 44.1995 73.0859C44.2183 73.1153 44.2438 73.1398 44.2739 73.1574C44.3041 73.175 44.338 73.1852 44.3728 73.1871C44.4076 73.189 44.4424 73.1826 44.4743 73.1683L46.1994 72.3987C46.2371 72.3809 46.2663 72.349 46.2807 72.3099C46.2951 72.2708 46.2935 72.2278 46.2764 72.1899ZM40.1587 76.4167C40.157 76.4738 40.133 76.528 40.092 76.5678C40.051 76.6076 39.9961 76.6298 39.939 76.6298C39.8818 76.6298 39.8269 76.6076 39.7859 76.5678C39.7449 76.528 39.721 76.4738 39.7193 76.4167V74.2011L39.506 74.333C39.4565 74.3623 39.3974 74.3709 39.3416 74.3572C39.2857 74.3434 39.2375 74.3082 39.2073 74.2593C39.1771 74.2103 39.1673 74.1515 39.18 74.0954C39.1927 74.0392 39.227 73.9904 39.2753 73.9592L39.8225 73.6184C39.856 73.5985 39.8941 73.5877 39.9331 73.5872C39.972 73.5866 40.0104 73.5963 40.0445 73.6152C40.0785 73.6341 40.107 73.6616 40.1271 73.695C40.1471 73.7284 40.1581 73.7664 40.1589 73.8054L40.1587 76.4167ZM41.7393 76.4167C41.7393 76.475 41.7161 76.5309 41.6749 76.5721C41.6337 76.6133 41.5778 76.6365 41.5195 76.6365C41.4612 76.6365 41.4053 76.6133 41.364 76.5721C41.3228 76.5309 41.2996 76.475 41.2996 76.4167V74.2011L41.0866 74.333C41.037 74.3636 40.9773 74.3732 40.9206 74.3598C40.8639 74.3465 40.8149 74.3111 40.7843 74.2615C40.7537 74.212 40.744 74.1523 40.7574 74.0956C40.7708 74.0389 40.8062 73.9899 40.8557 73.9592L41.4029 73.6184C41.4364 73.5985 41.4745 73.5877 41.5135 73.5872C41.5524 73.5866 41.5908 73.5963 41.6248 73.6152C41.6589 73.6341 41.6874 73.6616 41.7074 73.695C41.7275 73.7284 41.7385 73.7664 41.7393 73.8054V76.4167Z" fill="#FAFAFA"/>
<path d="M40.1587 76.4167C40.157 76.4738 40.133 76.528 40.092 76.5678C40.051 76.6076 39.9961 76.6298 39.939 76.6298C39.8818 76.6298 39.8269 76.6076 39.7859 76.5678C39.7449 76.528 39.721 76.4738 39.7193 76.4167V74.2011L39.506 74.333C39.4565 74.3623 39.3974 74.3709 39.3416 74.3572C39.2857 74.3434 39.2375 74.3082 39.2073 74.2593C39.1771 74.2103 39.1673 74.1515 39.18 74.0954C39.1927 74.0392 39.227 73.9904 39.2753 73.9592L39.8225 73.6184C39.856 73.5985 39.8941 73.5877 39.9331 73.5872C39.972 73.5866 40.0104 73.5963 40.0445 73.6152C40.0785 73.6341 40.107 73.6616 40.1271 73.695C40.1471 73.7284 40.1581 73.7664 40.1589 73.8054L40.1587 76.4167Z" fill="#FAFAFA"/>
<path d="M41.7393 76.4167C41.7393 76.475 41.7161 76.5309 41.6749 76.5721C41.6337 76.6133 41.5778 76.6365 41.5195 76.6365C41.4612 76.6365 41.4053 76.6133 41.364 76.5721C41.3228 76.5309 41.2996 76.475 41.2996 76.4167V74.2011L41.0866 74.333C41.037 74.3636 40.9773 74.3732 40.9206 74.3598C40.8639 74.3465 40.8149 74.3111 40.7843 74.2615C40.7537 74.212 40.744 74.1523 40.7574 74.0956C40.7708 74.0389 40.8062 73.9899 40.8557 73.9592L41.4029 73.6184C41.4364 73.5985 41.4745 73.5877 41.5135 73.5872C41.5524 73.5866 41.5908 73.5963 41.6248 73.6152C41.6589 73.6341 41.6874 73.6616 41.7074 73.695C41.7275 73.7284 41.7385 73.7664 41.7393 73.8054V76.4167Z" fill="#FAFAFA"/>
<path d="M39.5454 73.8965H41.8371" stroke="#191919" stroke-width="0.343756" stroke-linecap="round" stroke-linejoin="round"/>
<path d="M40.6914 75.0437V72.752" stroke="#191919" stroke-width="0.343756" stroke-linecap="round" stroke-linejoin="round"/>
</g>
<path d="M19.741 48.8673C20.1099 48.8668 20.4635 48.7201 20.7244 48.4593C20.9852 48.1984 21.132 47.8448 21.1324 47.4759V46.9944C20.2122 47.1677 19.2672 47.161 18.3496 46.9746V47.4759C18.35 47.8448 18.4968 48.1984 18.7576 48.4593C19.0185 48.7201 19.3721 48.8668 19.741 48.8673Z" fill="#FAFAFA"/>
<path d="M25.4409 51.6215L24.3 49.2233C24.0848 48.7743 23.7056 48.425 23.2406 48.2472L22.3699 47.9154C22.0254 47.8135 21.7739 47.4088 21.5719 47.1328V47.4102C21.5801 47.666 21.5349 47.9208 21.4392 48.1582C21.3435 48.3956 21.1993 48.6104 21.0159 48.789C20.8325 48.9675 20.6139 49.1059 20.374 49.1953C20.1342 49.2846 19.8783 49.323 19.6228 49.3079C19.3672 49.2928 19.1177 49.2247 18.89 49.1077C18.6622 48.9908 18.4614 48.8277 18.3003 48.6288C18.1391 48.4299 18.0212 48.1997 17.9541 47.9526C17.8869 47.7056 17.872 47.4473 17.9102 47.1942C17.7597 47.4837 17.5134 47.7121 17.2134 47.8404L16.3978 48.1329C15.9297 48.2985 15.5437 48.6388 15.3207 49.0824L14.0412 51.6215C14.0234 51.66 14.0216 51.7039 14.036 51.7438C14.0504 51.7837 14.0799 51.8163 14.1182 51.8346L15.8224 52.6096C15.8544 52.6242 15.8895 52.6309 15.9246 52.6291C15.9598 52.6274 15.994 52.6172 16.0244 52.5995C16.0548 52.5818 16.0805 52.557 16.0993 52.5273C16.1182 52.4976 16.1296 52.4638 16.1327 52.4287L16.1953 51.7144C16.2019 51.6571 16.2305 51.6046 16.2752 51.5681C16.3199 51.5316 16.377 51.514 16.4345 51.519C16.4919 51.524 16.5451 51.5513 16.5828 51.595C16.6204 51.6387 16.6395 51.6954 16.636 51.7529L16.1053 57.7851C16.1051 57.8279 16.1137 57.8703 16.1305 57.9097C16.1473 57.9491 16.1721 57.9847 16.2032 58.0141C16.2343 58.0436 16.2711 58.0663 16.3114 58.081C16.3516 58.0957 16.3944 58.1019 16.4372 58.0994H23.0625C23.1054 58.1019 23.1484 58.0956 23.1888 58.0808C23.2292 58.066 23.2662 58.0431 23.2973 58.0133C23.3284 57.9836 23.3531 57.9479 23.3698 57.9082C23.3865 57.8685 23.3949 57.8259 23.3943 57.7828C23.3004 56.7762 22.9118 52.671 22.8257 51.7542C22.8216 51.6968 22.8401 51.6401 22.8772 51.5962C22.9144 51.5523 22.9673 51.5247 23.0245 51.5193C23.0818 51.5139 23.1389 51.5311 23.1836 51.5673C23.2283 51.6035 23.2571 51.6558 23.2637 51.7129L23.3305 52.42C23.3337 52.4547 23.3453 52.4882 23.364 52.5176C23.3828 52.547 23.4083 52.5715 23.4385 52.5891C23.4686 52.6067 23.5025 52.6168 23.5373 52.6187C23.5722 52.6206 23.607 52.6142 23.6389 52.6L25.364 51.8303C25.4016 51.8125 25.4308 51.7806 25.4452 51.7415C25.4596 51.7024 25.4581 51.6595 25.4409 51.6215ZM19.3233 55.8483C19.3215 55.9054 19.2976 55.9596 19.2566 55.9994C19.2156 56.0392 19.1607 56.0614 19.1035 56.0614C19.0464 56.0614 18.9915 56.0392 18.9505 55.9994C18.9095 55.9596 18.8856 55.9054 18.8838 55.8483V53.6328L18.6705 53.7646C18.621 53.7939 18.562 53.8026 18.5061 53.7888C18.4503 53.775 18.402 53.7399 18.3718 53.6909C18.3416 53.642 18.3318 53.5831 18.3445 53.527C18.3573 53.4709 18.3915 53.422 18.4399 53.3909L18.9871 53.05C19.0206 53.0301 19.0587 53.0194 19.0976 53.0188C19.1366 53.0183 19.175 53.0279 19.209 53.0468C19.243 53.0658 19.2715 53.0933 19.2916 53.1266C19.3117 53.16 19.3227 53.1981 19.3235 53.237L19.3233 55.8483ZM20.9038 55.8483C20.9038 55.9066 20.8807 55.9625 20.8395 56.0038C20.7982 56.045 20.7423 56.0681 20.684 56.0681C20.6257 56.0681 20.5698 56.045 20.5286 56.0038C20.4874 55.9625 20.4642 55.9066 20.4642 55.8483V53.6328L20.2511 53.7646C20.2016 53.7952 20.1419 53.8049 20.0852 53.7915C20.0285 53.7781 19.9794 53.7427 19.9488 53.6932C19.9182 53.6436 19.9086 53.5839 19.9219 53.5272C19.9353 53.4705 19.9707 53.4215 20.0203 53.3909L20.5675 53.05C20.601 53.0301 20.6391 53.0194 20.678 53.0188C20.7169 53.0183 20.7554 53.0279 20.7894 53.0468C20.8234 53.0658 20.8519 53.0933 20.872 53.1266C20.8921 53.16 20.9031 53.1981 20.9038 53.237V55.8483Z" fill="#FAFAFA"/>
<path d="M19.3233 55.8483C19.3215 55.9054 19.2976 55.9596 19.2566 55.9994C19.2156 56.0392 19.1607 56.0614 19.1035 56.0614C19.0464 56.0614 18.9915 56.0392 18.9505 55.9994C18.9095 55.9596 18.8856 55.9054 18.8838 55.8483V53.6328L18.6705 53.7646C18.621 53.7939 18.562 53.8026 18.5061 53.7888C18.4503 53.775 18.402 53.7399 18.3718 53.6909C18.3416 53.642 18.3318 53.5831 18.3445 53.527C18.3573 53.4709 18.3915 53.422 18.4399 53.3909L18.9871 53.05C19.0206 53.0301 19.0587 53.0194 19.0976 53.0188C19.1366 53.0183 19.175 53.0279 19.209 53.0468C19.243 53.0658 19.2715 53.0933 19.2916 53.1266C19.3117 53.16 19.3227 53.1981 19.3235 53.237L19.3233 55.8483Z" fill="#FAFAFA"/>
<path d="M20.9038 55.8483C20.9038 55.9066 20.8807 55.9625 20.8395 56.0038C20.7982 56.045 20.7423 56.0681 20.684 56.0681C20.6257 56.0681 20.5698 56.045 20.5286 56.0038C20.4874 55.9625 20.4642 55.9066 20.4642 55.8483V53.6328L20.2511 53.7646C20.2016 53.7952 20.1419 53.8049 20.0852 53.7915C20.0285 53.7781 19.9794 53.7427 19.9488 53.6932C19.9182 53.6436 19.9086 53.5839 19.9219 53.5272C19.9353 53.4705 19.9707 53.4215 20.0203 53.3909L20.5675 53.05C20.601 53.0301 20.6391 53.0194 20.678 53.0188C20.7169 53.0183 20.7554 53.0279 20.7894 53.0468C20.8234 53.0658 20.8519 53.0933 20.872 53.1266C20.8921 53.16 20.9031 53.1981 20.9038 53.237V55.8483Z" fill="#FAFAFA"/>
<path d="M18.71 53.332H21.0017" stroke="#191919" stroke-width="0.343756" stroke-linecap="round" stroke-linejoin="round"/>
<path d="M19.856 54.4792V52.1875" stroke="#191919" stroke-width="0.343756" stroke-linecap="round" stroke-linejoin="round"/>
<path d="M59.741 48.8673C60.1099 48.8668 60.4635 48.7201 60.7244 48.4593C60.9852 48.1984 61.132 47.8448 61.1324 47.4759V46.9944C60.2122 47.1677 59.2672 47.161 58.3496 46.9746V47.4759C58.35 47.8448 58.4968 48.1984 58.7576 48.4593C59.0185 48.7201 59.3721 48.8668 59.741 48.8673Z" fill="#FAFAFA"/>
<path d="M65.4409 51.6215L64.3 49.2233C64.0848 48.7743 63.7056 48.425 63.2406 48.2472L62.3699 47.9154C62.0254 47.8135 61.7739 47.4088 61.5719 47.1328V47.4102C61.5801 47.666 61.5349 47.9208 61.4392 48.1582C61.3435 48.3956 61.1993 48.6104 61.0159 48.789C60.8325 48.9675 60.6139 49.1059 60.374 49.1953C60.1342 49.2846 59.8783 49.323 59.6228 49.3079C59.3672 49.2928 59.1177 49.2247 58.89 49.1077C58.6622 48.9908 58.4614 48.8277 58.3003 48.6288C58.1391 48.4299 58.0212 48.1997 57.9541 47.9526C57.8869 47.7056 57.872 47.4473 57.9102 47.1942C57.7597 47.4837 57.5134 47.7121 57.2134 47.8404L56.3978 48.1329C55.9297 48.2985 55.5437 48.6388 55.3207 49.0824L54.0412 51.6215C54.0234 51.66 54.0216 51.7039 54.036 51.7438C54.0504 51.7837 54.0799 51.8163 54.1182 51.8346L55.8224 52.6096C55.8544 52.6242 55.8895 52.6309 55.9246 52.6291C55.9598 52.6274 55.994 52.6172 56.0244 52.5995C56.0548 52.5818 56.0805 52.557 56.0993 52.5273C56.1182 52.4976 56.1296 52.4638 56.1327 52.4287L56.1953 51.7144C56.2019 51.6571 56.2305 51.6046 56.2752 51.5681C56.3199 51.5316 56.377 51.514 56.4345 51.519C56.4919 51.524 56.5451 51.5513 56.5828 51.595C56.6204 51.6387 56.6395 51.6954 56.636 51.7529L56.1053 57.7851C56.1051 57.8279 56.1137 57.8703 56.1305 57.9097C56.1473 57.9491 56.1721 57.9847 56.2032 58.0141C56.2343 58.0436 56.2711 58.0663 56.3114 58.081C56.3516 58.0957 56.3944 58.1019 56.4372 58.0994H63.0625C63.1054 58.1019 63.1484 58.0956 63.1888 58.0808C63.2292 58.066 63.2662 58.0431 63.2973 58.0133C63.3284 57.9836 63.3531 57.9479 63.3698 57.9082C63.3865 57.8685 63.3949 57.8259 63.3943 57.7828C63.3004 56.7762 62.9118 52.671 62.8257 51.7542C62.8216 51.6968 62.8401 51.6401 62.8772 51.5962C62.9144 51.5523 62.9673 51.5247 63.0245 51.5193C63.0818 51.5139 63.1389 51.5311 63.1836 51.5673C63.2283 51.6035 63.2571 51.6558 63.2637 51.7129L63.3305 52.42C63.3337 52.4547 63.3453 52.4882 63.364 52.5176C63.3828 52.547 63.4083 52.5715 63.4385 52.5891C63.4686 52.6067 63.5025 52.6168 63.5373 52.6187C63.5722 52.6206 63.607 52.6142 63.6389 52.6L65.364 51.8303C65.4016 51.8125 65.4308 51.7806 65.4452 51.7415C65.4596 51.7024 65.4581 51.6595 65.4409 51.6215ZM59.3233 55.8483C59.3215 55.9054 59.2976 55.9596 59.2566 55.9994C59.2156 56.0392 59.1607 56.0614 59.1035 56.0614C59.0464 56.0614 58.9915 56.0392 58.9505 55.9994C58.9095 55.9596 58.8856 55.9054 58.8838 55.8483V53.6328L58.6705 53.7646C58.621 53.7939 58.562 53.8026 58.5061 53.7888C58.4503 53.775 58.402 53.7399 58.3718 53.6909C58.3416 53.642 58.3318 53.5831 58.3445 53.527C58.3573 53.4709 58.3915 53.422 58.4399 53.3909L58.9871 53.05C59.0206 53.0301 59.0587 53.0194 59.0976 53.0188C59.1366 53.0183 59.175 53.0279 59.209 53.0468C59.243 53.0658 59.2715 53.0933 59.2916 53.1266C59.3117 53.16 59.3227 53.1981 59.3235 53.237L59.3233 55.8483ZM60.9038 55.8483C60.9038 55.9066 60.8807 55.9625 60.8395 56.0038C60.7982 56.045 60.7423 56.0681 60.684 56.0681C60.6257 56.0681 60.5698 56.045 60.5286 56.0038C60.4874 55.9625 60.4642 55.9066 60.4642 55.8483V53.6328L60.2511 53.7646C60.2016 53.7952 60.1419 53.8049 60.0852 53.7915C60.0285 53.7781 59.9794 53.7427 59.9488 53.6932C59.9182 53.6436 59.9086 53.5839 59.9219 53.5272C59.9353 53.4705 59.9707 53.4215 60.0203 53.3909L60.5675 53.05C60.601 53.0301 60.6391 53.0194 60.678 53.0188C60.7169 53.0183 60.7554 53.0279 60.7894 53.0468C60.8234 53.0658 60.8519 53.0933 60.872 53.1266C60.8921 53.16 60.9031 53.1981 60.9038 53.237V55.8483Z" fill="#FAFAFA"/>
<path d="M59.3233 55.8483C59.3215 55.9054 59.2976 55.9596 59.2566 55.9994C59.2156 56.0392 59.1607 56.0614 59.1035 56.0614C59.0464 56.0614 58.9915 56.0392 58.9505 55.9994C58.9095 55.9596 58.8856 55.9054 58.8838 55.8483V53.6328L58.6705 53.7646C58.621 53.7939 58.562 53.8026 58.5061 53.7888C58.4503 53.775 58.402 53.7399 58.3718 53.6909C58.3416 53.642 58.3318 53.5831 58.3445 53.527C58.3573 53.4709 58.3915 53.422 58.4399 53.3909L58.9871 53.05C59.0206 53.0301 59.0587 53.0194 59.0976 53.0188C59.1366 53.0183 59.175 53.0279 59.209 53.0468C59.243 53.0658 59.2715 53.0933 59.2916 53.1266C59.3117 53.16 59.3227 53.1981 59.3235 53.237L59.3233 55.8483Z" fill="#FAFAFA"/>
<path d="M60.9038 55.8483C60.9038 55.9066 60.8807 55.9625 60.8395 56.0038C60.7982 56.045 60.7423 56.0681 60.684 56.0681C60.6257 56.0681 60.5698 56.045 60.5286 56.0038C60.4874 55.9625 60.4642 55.9066 60.4642 55.8483V53.6328L60.2511 53.7646C60.2016 53.7952 60.1419 53.8049 60.0852 53.7915C60.0285 53.7781 59.9794 53.7427 59.9488 53.6932C59.9182 53.6436 59.9086 53.5839 59.9219 53.5272C59.9353 53.4705 59.9707 53.4215 60.0203 53.3909L60.5675 53.05C60.601 53.0301 60.6391 53.0194 60.678 53.0188C60.7169 53.0183 60.7554 53.0279 60.7894 53.0468C60.8234 53.0658 60.8519 53.0933 60.872 53.1266C60.8921 53.16 60.9031 53.1981 60.9038 53.237V55.8483Z" fill="#FAFAFA"/>
<path d="M58.71 53.332H61.0017" stroke="#191919" stroke-width="0.343756" stroke-linecap="round" stroke-linejoin="round"/>
<path d="M59.856 54.4792V52.1875" stroke="#191919" stroke-width="0.343756" stroke-linecap="round" stroke-linejoin="round"/>
<path d="M53.741 3.86728C54.1099 3.86685 54.4635 3.72012 54.7244 3.45927C54.9852 3.19843 55.132 2.84478 55.1324 2.47589V1.99441C54.2122 2.16774 53.2672 2.16102 52.3496 1.97461V2.47589C52.35 2.84478 52.4968 3.19843 52.7576 3.45927C53.0185 3.72012 53.3721 3.86685 53.741 3.86728Z" fill="#FAFAFA"/>
<path d="M59.4409 6.6215L58.3 4.22326C58.0848 3.77433 57.7056 3.42501 57.2406 3.24723L56.3699 2.91535C56.0254 2.8135 55.7739 2.40876 55.5719 2.13281V2.41019C55.5801 2.66603 55.5349 2.92078 55.4392 3.15818C55.3435 3.39558 55.1993 3.61042 55.0159 3.78898C54.8325 3.96755 54.6139 4.10592 54.374 4.19527C54.1342 4.28462 53.8783 4.32299 53.6228 4.30792C53.3672 4.29285 53.1177 4.22467 52.89 4.10775C52.6622 3.99082 52.4614 3.82772 52.3003 3.62883C52.1391 3.42994 52.0212 3.19965 51.9541 2.95265C51.8869 2.70564 51.872 2.44735 51.9102 2.19425C51.7597 2.48374 51.5134 2.7121 51.2134 2.84045L50.3978 3.13293C49.9297 3.29852 49.5437 3.63876 49.3207 4.08243L48.0412 6.6215C48.0234 6.66 48.0216 6.70395 48.036 6.74383C48.0504 6.78371 48.0799 6.81632 48.1182 6.83458L49.8224 7.60957C49.8544 7.62418 49.8895 7.63089 49.9246 7.62913C49.9598 7.62738 49.994 7.61722 50.0244 7.5995C50.0548 7.58178 50.0805 7.55702 50.0993 7.52731C50.1182 7.49759 50.1296 7.46379 50.1327 7.42873L50.1953 6.71437C50.2019 6.65706 50.2305 6.60457 50.2752 6.56808C50.3199 6.53159 50.377 6.51399 50.4345 6.51902C50.4919 6.52405 50.5451 6.55131 50.5828 6.59501C50.6204 6.6387 50.6395 6.69537 50.636 6.75294L50.1053 12.7851C50.1051 12.8279 50.1137 12.8703 50.1305 12.9097C50.1473 12.9491 50.1721 12.9847 50.2032 13.0141C50.2343 13.0436 50.2711 13.0663 50.3114 13.081C50.3516 13.0957 50.3944 13.1019 50.4372 13.0994H57.0625C57.1054 13.1019 57.1484 13.0956 57.1888 13.0808C57.2292 13.066 57.2662 13.0431 57.2973 13.0133C57.3284 12.9836 57.3531 12.9479 57.3698 12.9082C57.3865 12.8685 57.3949 12.8259 57.3943 12.7828C57.3004 11.7762 56.9118 7.67101 56.8257 6.75417C56.8216 6.69679 56.8401 6.64008 56.8772 6.59618C56.9144 6.55227 56.9673 6.52467 57.0245 6.51928C57.0818 6.51389 57.1389 6.53114 57.1836 6.56734C57.2283 6.60353 57.2571 6.6558 57.2637 6.71294L57.3305 7.41996C57.3337 7.4547 57.3453 7.48815 57.364 7.51756C57.3828 7.54697 57.4083 7.57148 57.4385 7.58908C57.4686 7.60667 57.5025 7.61683 57.5373 7.61873C57.5722 7.62062 57.607 7.6142 57.6389 7.59998L59.364 6.8303C59.4016 6.81252 59.4308 6.78065 59.4452 6.74155C59.4596 6.70245 59.4581 6.65946 59.4409 6.6215ZM53.3233 10.8483C53.3215 10.9054 53.2976 10.9596 53.2566 10.9994C53.2156 11.0392 53.1607 11.0614 53.1035 11.0614C53.0464 11.0614 52.9915 11.0392 52.9505 10.9994C52.9095 10.9596 52.8856 10.9054 52.8838 10.8483V8.63275L52.6705 8.7646C52.621 8.79389 52.562 8.80258 52.5061 8.7888C52.4503 8.77502 52.402 8.73987 52.3718 8.69091C52.3416 8.64196 52.3318 8.5831 52.3445 8.52699C52.3573 8.47089 52.3915 8.42202 52.4399 8.39089L52.9871 8.05003C53.0206 8.03014 53.0587 8.01938 53.0976 8.01882C53.1366 8.01826 53.175 8.02792 53.209 8.04684C53.243 8.06576 53.2715 8.09328 53.2916 8.12664C53.3117 8.16001 53.3227 8.19806 53.3235 8.23699L53.3233 10.8483ZM54.9038 10.8483C54.9038 10.9066 54.8807 10.9625 54.8395 11.0038C54.7982 11.045 54.7423 11.0681 54.684 11.0681C54.6257 11.0681 54.5698 11.045 54.5286 11.0038C54.4874 10.9625 54.4642 10.9066 54.4642 10.8483V8.63275L54.2511 8.7646C54.2016 8.79522 54.1419 8.80489 54.0852 8.79149C54.0285 8.77809 53.9794 8.74273 53.9488 8.69317C53.9182 8.64361 53.9086 8.58392 53.9219 8.52723C53.9353 8.47054 53.9707 8.4215 54.0203 8.39089L54.5675 8.05003C54.601 8.03014 54.6391 8.01938 54.678 8.01882C54.7169 8.01826 54.7554 8.02792 54.7894 8.04684C54.8234 8.06576 54.8519 8.09328 54.872 8.12664C54.8921 8.16001 54.9031 8.19806 54.9038 8.23699V10.8483Z" fill="#FAFAFA"/>
<path d="M53.3233 10.8483C53.3215 10.9054 53.2976 10.9596 53.2566 10.9994C53.2156 11.0392 53.1607 11.0614 53.1035 11.0614C53.0464 11.0614 52.9915 11.0392 52.9505 10.9994C52.9095 10.9596 52.8856 10.9054 52.8838 10.8483V8.63275L52.6705 8.7646C52.621 8.79389 52.562 8.80258 52.5061 8.7888C52.4503 8.77502 52.402 8.73987 52.3718 8.69091C52.3416 8.64196 52.3318 8.5831 52.3445 8.52699C52.3573 8.47089 52.3915 8.42202 52.4399 8.39089L52.9871 8.05003C53.0206 8.03014 53.0587 8.01938 53.0976 8.01882C53.1366 8.01826 53.175 8.02792 53.209 8.04684C53.243 8.06576 53.2715 8.09328 53.2916 8.12664C53.3117 8.16001 53.3227 8.19806 53.3235 8.23699L53.3233 10.8483Z" fill="#FAFAFA"/>
<path d="M54.9038 10.8483C54.9038 10.9066 54.8807 10.9625 54.8395 11.0038C54.7982 11.045 54.7423 11.0681 54.684 11.0681C54.6257 11.0681 54.5698 11.045 54.5286 11.0038C54.4874 10.9625 54.4642 10.9066 54.4642 10.8483V8.63275L54.2511 8.7646C54.2016 8.79522 54.1419 8.80489 54.0852 8.79149C54.0285 8.77809 53.9794 8.74273 53.9488 8.69317C53.9182 8.64361 53.9086 8.58392 53.9219 8.52723C53.9353 8.47054 53.9707 8.4215 54.0203 8.39089L54.5675 8.05003C54.601 8.03014 54.6391 8.01938 54.678 8.01882C54.7169 8.01826 54.7554 8.02792 54.7894 8.04684C54.8234 8.06576 54.8519 8.09328 54.872 8.12664C54.8921 8.16001 54.9031 8.19806 54.9038 8.23699V10.8483Z" fill="#FAFAFA"/>
<path d="M52.71 8.33203H55.0017" stroke="#191919" stroke-width="0.343756" stroke-linecap="round" stroke-linejoin="round"/>
<path d="M53.856 9.47921V7.1875" stroke="#191919" stroke-width="0.343756" stroke-linecap="round" stroke-linejoin="round"/>
<path d="M40.741 50.8673C41.1099 50.8668 41.4635 50.7201 41.7244 50.4593C41.9852 50.1984 42.132 49.8448 42.1324 49.4759V48.9944C41.2122 49.1677 40.2672 49.161 39.3496 48.9746V49.4759C39.35 49.8448 39.4968 50.1984 39.7576 50.4593C40.0185 50.7201 40.3721 50.8668 40.741 50.8673Z" fill="#FAFAFA"/>
<path d="M46.4409 53.6215L45.3 51.2233C45.0848 50.7743 44.7056 50.425 44.2406 50.2472L43.3699 49.9154C43.0254 49.8135 42.7739 49.4088 42.5719 49.1328V49.4102C42.5801 49.666 42.5349 49.9208 42.4392 50.1582C42.3435 50.3956 42.1993 50.6104 42.0159 50.789C41.8325 50.9675 41.6139 51.1059 41.374 51.1953C41.1342 51.2846 40.8783 51.323 40.6228 51.3079C40.3672 51.2928 40.1177 51.2247 39.89 51.1077C39.6622 50.9908 39.4614 50.8277 39.3003 50.6288C39.1391 50.4299 39.0212 50.1997 38.9541 49.9526C38.8869 49.7056 38.872 49.4473 38.9102 49.1942C38.7597 49.4837 38.5134 49.7121 38.2134 49.8404L37.3978 50.1329C36.9297 50.2985 36.5437 50.6388 36.3207 51.0824L35.0412 53.6215C35.0234 53.66 35.0216 53.7039 35.036 53.7438C35.0504 53.7837 35.0799 53.8163 35.1182 53.8346L36.8224 54.6096C36.8544 54.6242 36.8895 54.6309 36.9246 54.6291C36.9598 54.6274 36.994 54.6172 37.0244 54.5995C37.0548 54.5818 37.0805 54.557 37.0993 54.5273C37.1182 54.4976 37.1296 54.4638 37.1327 54.4287L37.1953 53.7144C37.2019 53.6571 37.2305 53.6046 37.2752 53.5681C37.3199 53.5316 37.377 53.514 37.4345 53.519C37.4919 53.524 37.5451 53.5513 37.5828 53.595C37.6204 53.6387 37.6395 53.6954 37.636 53.7529L37.1053 59.7851C37.1051 59.8279 37.1137 59.8703 37.1305 59.9097C37.1473 59.9491 37.1721 59.9847 37.2032 60.0141C37.2343 60.0436 37.2711 60.0663 37.3114 60.081C37.3516 60.0957 37.3944 60.1019 37.4372 60.0994H44.0625C44.1054 60.1019 44.1484 60.0956 44.1888 60.0808C44.2292 60.066 44.2662 60.0431 44.2973 60.0133C44.3284 59.9836 44.3531 59.9479 44.3698 59.9082C44.3865 59.8685 44.3949 59.8259 44.3943 59.7828C44.3004 58.7762 43.9118 54.671 43.8257 53.7542C43.8216 53.6968 43.8401 53.6401 43.8772 53.5962C43.9144 53.5523 43.9673 53.5247 44.0245 53.5193C44.0818 53.5139 44.1389 53.5311 44.1836 53.5673C44.2283 53.6035 44.2571 53.6558 44.2637 53.7129L44.3305 54.42C44.3337 54.4547 44.3453 54.4882 44.364 54.5176C44.3828 54.547 44.4083 54.5715 44.4385 54.5891C44.4686 54.6067 44.5025 54.6168 44.5373 54.6187C44.5722 54.6206 44.607 54.6142 44.6389 54.6L46.364 53.8303C46.4016 53.8125 46.4308 53.7806 46.4452 53.7415C46.4596 53.7024 46.4581 53.6595 46.4409 53.6215ZM40.3233 57.8483C40.3215 57.9054 40.2976 57.9596 40.2566 57.9994C40.2156 58.0392 40.1607 58.0614 40.1035 58.0614C40.0464 58.0614 39.9915 58.0392 39.9505 57.9994C39.9095 57.9596 39.8856 57.9054 39.8838 57.8483V55.6328L39.6705 55.7646C39.621 55.7939 39.562 55.8026 39.5061 55.7888C39.4503 55.775 39.402 55.7399 39.3718 55.6909C39.3416 55.642 39.3318 55.5831 39.3445 55.527C39.3573 55.4709 39.3915 55.422 39.4399 55.3909L39.9871 55.05C40.0206 55.0301 40.0587 55.0194 40.0976 55.0188C40.1366 55.0183 40.175 55.0279 40.209 55.0468C40.243 55.0658 40.2715 55.0933 40.2916 55.1266C40.3117 55.16 40.3227 55.1981 40.3235 55.237L40.3233 57.8483ZM41.9038 57.8483C41.9038 57.9066 41.8807 57.9625 41.8395 58.0038C41.7982 58.045 41.7423 58.0681 41.684 58.0681C41.6257 58.0681 41.5698 58.045 41.5286 58.0038C41.4874 57.9625 41.4642 57.9066 41.4642 57.8483V55.6328L41.2511 55.7646C41.2016 55.7952 41.1419 55.8049 41.0852 55.7915C41.0285 55.7781 40.9794 55.7427 40.9488 55.6932C40.9182 55.6436 40.9086 55.5839 40.9219 55.5272C40.9353 55.4705 40.9707 55.4215 41.0203 55.3909L41.5675 55.05C41.601 55.0301 41.6391 55.0194 41.678 55.0188C41.7169 55.0183 41.7554 55.0279 41.7894 55.0468C41.8234 55.0658 41.8519 55.0933 41.872 55.1266C41.8921 55.16 41.9031 55.1981 41.9038 55.237V57.8483Z" fill="#FAFAFA"/>
<path d="M40.3233 57.8483C40.3215 57.9054 40.2976 57.9596 40.2566 57.9994C40.2156 58.0392 40.1607 58.0614 40.1035 58.0614C40.0464 58.0614 39.9915 58.0392 39.9505 57.9994C39.9095 57.9596 39.8856 57.9054 39.8838 57.8483V55.6328L39.6705 55.7646C39.621 55.7939 39.562 55.8026 39.5061 55.7888C39.4503 55.775 39.402 55.7399 39.3718 55.6909C39.3416 55.642 39.3318 55.5831 39.3445 55.527C39.3573 55.4709 39.3915 55.422 39.4399 55.3909L39.9871 55.05C40.0206 55.0301 40.0587 55.0194 40.0976 55.0188C40.1366 55.0183 40.175 55.0279 40.209 55.0468C40.243 55.0658 40.2715 55.0933 40.2916 55.1266C40.3117 55.16 40.3227 55.1981 40.3235 55.237L40.3233 57.8483Z" fill="#FAFAFA"/>
<path d="M41.9038 57.8483C41.9038 57.9066 41.8807 57.9625 41.8395 58.0038C41.7982 58.045 41.7423 58.0681 41.684 58.0681C41.6257 58.0681 41.5698 58.045 41.5286 58.0038C41.4874 57.9625 41.4642 57.9066 41.4642 57.8483V55.6328L41.2511 55.7646C41.2016 55.7952 41.1419 55.8049 41.0852 55.7915C41.0285 55.7781 40.9794 55.7427 40.9488 55.6932C40.9182 55.6436 40.9086 55.5839 40.9219 55.5272C40.9353 55.4705 40.9707 55.4215 41.0203 55.3909L41.5675 55.05C41.601 55.0301 41.6391 55.0194 41.678 55.0188C41.7169 55.0183 41.7554 55.0279 41.7894 55.0468C41.8234 55.0658 41.8519 55.0933 41.872 55.1266C41.8921 55.16 41.9031 55.1981 41.9038 55.237V57.8483Z" fill="#FAFAFA"/>
<path d="M39.71 55.332H42.0017" stroke="#191919" stroke-width="0.343756" stroke-linecap="round" stroke-linejoin="round"/>
<path d="M40.856 56.4792V54.1875" stroke="#191919" stroke-width="0.343756" stroke-linecap="round" stroke-linejoin="round"/>
<g clip-path="url(#clip1_8758_19039)">
<path d="M8.6785 27.8673C9.04738 27.8668 9.40104 27.7201 9.66188 27.4593C9.92272 27.1984 10.0695 26.8448 10.0699 26.4759V25.9944C9.14973 26.1677 8.2047 26.161 7.28711 25.9746V26.4759C7.28754 26.8448 7.43427 27.1984 7.69511 27.4593C7.95596 27.7201 8.30961 27.8668 8.6785 27.8673Z" fill="#FAFAFA"/>
<path d="M14.3784 30.6215L13.2375 28.2233C13.0223 27.7743 12.6431 27.425 12.1781 27.2472L11.3074 26.9154C10.9629 26.8135 10.7114 26.4088 10.5094 26.1328V26.4102C10.5176 26.666 10.4724 26.9208 10.3767 27.1582C10.281 27.3956 10.1368 27.6104 9.95342 27.789C9.77002 27.9675 9.55141 28.1059 9.31153 28.1953C9.07166 28.2846 8.8158 28.323 8.56027 28.3079C8.30474 28.2928 8.05516 28.2247 7.82745 28.1077C7.59975 27.9908 7.39891 27.8277 7.23777 27.6288C7.07663 27.4299 6.95872 27.1997 6.89156 26.9526C6.8244 26.7056 6.80948 26.4473 6.84773 26.1942C6.69717 26.4837 6.45092 26.7121 6.15091 26.8404L5.33531 27.1329C4.86718 27.2985 4.48123 27.6388 4.25824 28.0824L2.97871 30.6215C2.96094 30.66 2.95905 30.7039 2.97345 30.7438C2.98785 30.7837 3.01739 30.8163 3.05566 30.8346L4.75994 31.6096C4.79195 31.6242 4.827 31.6309 4.86214 31.6291C4.89728 31.6274 4.93149 31.6172 4.96189 31.5995C4.99229 31.5818 5.01799 31.557 5.03683 31.5273C5.05568 31.4976 5.06711 31.4638 5.07018 31.4287L5.13284 30.7144C5.13937 30.6571 5.16802 30.6046 5.21269 30.5681C5.25735 30.5316 5.3145 30.514 5.37196 30.519C5.42941 30.524 5.48263 30.5513 5.52028 30.595C5.55793 30.6387 5.57702 30.6954 5.5735 30.7529L5.04283 36.7851C5.04261 36.8279 5.05118 36.8703 5.06802 36.9097C5.08485 36.9491 5.10958 36.9847 5.14068 37.0141C5.17179 37.0436 5.2086 37.0663 5.24885 37.081C5.2891 37.0957 5.33194 37.1019 5.3747 37.0994H12C12.0429 37.1019 12.0859 37.0956 12.1263 37.0808C12.1667 37.066 12.2037 37.0431 12.2348 37.0133C12.2659 36.9836 12.2906 36.9479 12.3073 36.9082C12.324 36.8685 12.3324 36.8259 12.3318 36.7828C12.2379 35.7762 11.8493 31.671 11.7632 30.7542C11.7591 30.6968 11.7776 30.6401 11.8147 30.5962C11.8519 30.5523 11.9048 30.5247 11.962 30.5193C12.0193 30.5139 12.0764 30.5311 12.1211 30.5673C12.1658 30.6035 12.1946 30.6558 12.2012 30.7129L12.268 31.42C12.2712 31.4547 12.2828 31.4882 12.3015 31.5176C12.3203 31.547 12.3458 31.5715 12.376 31.5891C12.4061 31.6067 12.44 31.6168 12.4748 31.6187C12.5097 31.6206 12.5445 31.6142 12.5764 31.6L14.3015 30.8303C14.3391 30.8125 14.3683 30.7806 14.3827 30.7415C14.3971 30.7024 14.3956 30.6595 14.3784 30.6215ZM8.26075 34.8483C8.25901 34.9054 8.2351 34.9596 8.19408 34.9994C8.15307 35.0392 8.09817 35.0614 8.04103 35.0614C7.98389 35.0614 7.929 35.0392 7.88798 34.9994C7.84696 34.9596 7.82305 34.9054 7.82131 34.8483V32.6328L7.60802 32.7646C7.5585 32.7939 7.49947 32.8026 7.44362 32.7888C7.38776 32.775 7.33954 32.7399 7.30933 32.6909C7.27912 32.642 7.26932 32.5831 7.28205 32.527C7.29477 32.4709 7.329 32.422 7.37738 32.3909L7.92459 32.05C7.95807 32.0301 7.99618 32.0194 8.03512 32.0188C8.07406 32.0183 8.11246 32.0279 8.1465 32.0468C8.18054 32.0658 8.20902 32.0933 8.22911 32.1266C8.24919 32.16 8.26017 32.1981 8.26096 32.237L8.26075 34.8483ZM9.84134 34.8483C9.84134 34.9066 9.81818 34.9625 9.77696 35.0038C9.73573 35.045 9.67982 35.0681 9.62152 35.0681C9.56322 35.0681 9.50731 35.045 9.46608 35.0038C9.42486 34.9625 9.4017 34.9066 9.4017 34.8483V32.6328L9.18861 32.7646C9.13906 32.7952 9.07937 32.8049 9.02268 32.7915C8.96599 32.7781 8.91695 32.7427 8.88633 32.6932C8.85572 32.6436 8.84605 32.5839 8.85945 32.5272C8.87285 32.4705 8.90821 32.4215 8.95777 32.3909L9.50498 32.05C9.53846 32.0301 9.57657 32.0194 9.61551 32.0188C9.65445 32.0183 9.69285 32.0279 9.72689 32.0468C9.76093 32.0658 9.78941 32.0933 9.80949 32.1266C9.82958 32.16 9.84056 32.1981 9.84134 32.237V34.8483Z" fill="#FAFAFA"/>
<path d="M8.26075 34.8483C8.25901 34.9054 8.2351 34.9596 8.19408 34.9994C8.15307 35.0392 8.09817 35.0614 8.04103 35.0614C7.98389 35.0614 7.929 35.0392 7.88798 34.9994C7.84696 34.9596 7.82305 34.9054 7.82131 34.8483V32.6328L7.60802 32.7646C7.5585 32.7939 7.49947 32.8026 7.44362 32.7888C7.38776 32.775 7.33954 32.7399 7.30933 32.6909C7.27912 32.642 7.26932 32.5831 7.28205 32.527C7.29477 32.4709 7.329 32.422 7.37738 32.3909L7.92459 32.05C7.95807 32.0301 7.99618 32.0194 8.03512 32.0188C8.07406 32.0183 8.11246 32.0279 8.1465 32.0468C8.18054 32.0658 8.20902 32.0933 8.22911 32.1266C8.24919 32.16 8.26017 32.1981 8.26096 32.237L8.26075 34.8483Z" fill="#FAFAFA"/>
<path d="M9.84134 34.8483C9.84134 34.9066 9.81818 34.9625 9.77696 35.0038C9.73573 35.045 9.67982 35.0681 9.62152 35.0681C9.56322 35.0681 9.50731 35.045 9.46608 35.0038C9.42486 34.9625 9.4017 34.9066 9.4017 34.8483V32.6328L9.18861 32.7646C9.13906 32.7952 9.07937 32.8049 9.02268 32.7915C8.96599 32.7781 8.91695 32.7427 8.88633 32.6932C8.85572 32.6436 8.84605 32.5839 8.85945 32.5272C8.87285 32.4705 8.90821 32.4215 8.95777 32.3909L9.50498 32.05C9.53846 32.0301 9.57657 32.0194 9.61551 32.0188C9.65445 32.0183 9.69285 32.0279 9.72689 32.0468C9.76093 32.0658 9.78941 32.0933 9.80949 32.1266C9.82958 32.16 9.84056 32.1981 9.84134 32.237V34.8483Z" fill="#FAFAFA"/>
<path d="M7.64746 32.332H9.93917" stroke="#191919" stroke-width="0.343756" stroke-linecap="round" stroke-linejoin="round"/>
<path d="M8.79346 33.4792V31.1875" stroke="#191919" stroke-width="0.343756" stroke-linecap="round" stroke-linejoin="round"/>
</g>
<path d="M26.7412 30.8673C27.1101 30.8668 27.4638 30.7201 27.7246 30.4593C27.9855 30.1984 28.1322 29.8448 28.1326 29.4759V28.9944C27.2125 29.1677 26.2674 29.161 25.3499 28.9746V29.4759C25.3503 29.8448 25.497 30.1984 25.7579 30.4593C26.0187 30.7201 26.3724 30.8668 26.7412 30.8673Z" fill="#FAFAFA"/>
<path d="M32.4411 33.6215L31.3002 31.2233C31.085 30.7743 30.7059 30.425 30.2409 30.2472L29.3702 29.9154C29.0256 29.8135 28.7742 29.4088 28.5721 29.1328V29.4102C28.5804 29.666 28.5352 29.9208 28.4395 30.1582C28.3437 30.3956 28.1996 30.6104 28.0162 30.789C27.8328 30.9675 27.6142 31.1059 27.3743 31.1953C27.1344 31.2846 26.8785 31.323 26.623 31.3079C26.3675 31.2928 26.1179 31.2247 25.8902 31.1077C25.6625 30.9908 25.4617 30.8277 25.3005 30.6288C25.1394 30.4299 25.0215 30.1997 24.9543 29.9526C24.8871 29.7056 24.8722 29.4473 24.9105 29.1942C24.7599 29.4837 24.5137 29.7121 24.2137 29.8404L23.3981 30.1329C22.9299 30.2985 22.544 30.6388 22.321 31.0824L21.0415 33.6215C21.0237 33.66 21.0218 33.7039 21.0362 33.7438C21.0506 33.7837 21.0801 33.8163 21.1184 33.8346L22.8227 34.6096C22.8547 34.6242 22.8897 34.6309 22.9249 34.6291C22.96 34.6274 22.9942 34.6172 23.0246 34.5995C23.055 34.5818 23.0807 34.557 23.0996 34.5273C23.1184 34.4976 23.1299 34.4638 23.1329 34.4287L23.1956 33.7144C23.2021 33.6571 23.2308 33.6046 23.2754 33.5681C23.3201 33.5316 23.3772 33.514 23.4347 33.519C23.4922 33.524 23.5454 33.5513 23.583 33.595C23.6207 33.6387 23.6398 33.6954 23.6362 33.7529L23.1056 39.7851C23.1054 39.8279 23.1139 39.8703 23.1308 39.9097C23.1476 39.9491 23.1723 39.9847 23.2034 40.0141C23.2345 40.0436 23.2713 40.0663 23.3116 40.081C23.3518 40.0957 23.3947 40.1019 23.4374 40.0994H30.0627C30.1057 40.1019 30.1487 40.0956 30.1891 40.0808C30.2295 40.066 30.2664 40.0431 30.2975 40.0133C30.3287 39.9836 30.3534 39.9479 30.3701 39.9082C30.3868 39.8685 30.3951 39.8259 30.3946 39.7828C30.3007 38.7762 29.9121 34.671 29.8259 33.7542C29.8218 33.6968 29.8403 33.6401 29.8775 33.5962C29.9146 33.5523 29.9675 33.5247 30.0248 33.5193C30.082 33.5139 30.1392 33.5311 30.1839 33.5673C30.2286 33.6035 30.2573 33.6558 30.264 33.7129L30.3307 34.42C30.334 34.4547 30.3455 34.4882 30.3643 34.5176C30.3831 34.547 30.4086 34.5715 30.4387 34.5891C30.4689 34.6067 30.5028 34.6168 30.5376 34.6187C30.5724 34.6206 30.6072 34.6142 30.6391 34.6L32.3642 33.8303C32.4019 33.8125 32.4311 33.7806 32.4455 33.7415C32.4599 33.7024 32.4583 33.6595 32.4411 33.6215ZM26.3235 37.8483C26.3218 37.9054 26.2978 37.9596 26.2568 37.9994C26.2158 38.0392 26.1609 38.0614 26.1038 38.0614C26.0466 38.0614 25.9917 38.0392 25.9507 37.9994C25.9097 37.9596 25.8858 37.9054 25.8841 37.8483V35.6328L25.6708 35.7646C25.6212 35.7939 25.5622 35.8026 25.5064 35.7888C25.4505 35.775 25.4023 35.7399 25.3721 35.6909C25.3419 35.642 25.3321 35.5831 25.3448 35.527C25.3575 35.4709 25.3917 35.422 25.4401 35.3909L25.9873 35.05C26.0208 35.0301 26.0589 35.0194 26.0979 35.0188C26.1368 35.0183 26.1752 35.0279 26.2092 35.0468C26.2433 35.0658 26.2718 35.0933 26.2919 35.1266C26.3119 35.16 26.3229 35.1981 26.3237 35.237L26.3235 37.8483ZM27.9041 37.8483C27.9041 37.9066 27.8809 37.9625 27.8397 38.0038C27.7985 38.045 27.7426 38.0681 27.6843 38.0681C27.626 38.0681 27.5701 38.045 27.5288 38.0038C27.4876 37.9625 27.4644 37.9066 27.4644 37.8483V35.6328L27.2514 35.7646C27.2018 35.7952 27.1421 35.8049 27.0854 35.7915C27.0287 35.7781 26.9797 35.7427 26.9491 35.6932C26.9185 35.6436 26.9088 35.5839 26.9222 35.5272C26.9356 35.4705 26.971 35.4215 27.0205 35.3909L27.5677 35.05C27.6012 35.0301 27.6393 35.0194 27.6783 35.0188C27.7172 35.0183 27.7556 35.0279 27.7896 35.0468C27.8237 35.0658 27.8522 35.0933 27.8722 35.1266C27.8923 35.16 27.9033 35.1981 27.9041 35.237V37.8483Z" fill="#FAFAFA"/>
<path d="M26.3235 37.8483C26.3218 37.9054 26.2978 37.9596 26.2568 37.9994C26.2158 38.0392 26.1609 38.0614 26.1038 38.0614C26.0466 38.0614 25.9917 38.0392 25.9507 37.9994C25.9097 37.9596 25.8858 37.9054 25.8841 37.8483V35.6328L25.6708 35.7646C25.6212 35.7939 25.5622 35.8026 25.5064 35.7888C25.4505 35.775 25.4023 35.7399 25.3721 35.6909C25.3419 35.642 25.3321 35.5831 25.3448 35.527C25.3575 35.4709 25.3917 35.422 25.4401 35.3909L25.9873 35.05C26.0208 35.0301 26.0589 35.0194 26.0979 35.0188C26.1368 35.0183 26.1752 35.0279 26.2092 35.0468C26.2433 35.0658 26.2718 35.0933 26.2919 35.1266C26.3119 35.16 26.3229 35.1981 26.3237 35.237L26.3235 37.8483Z" fill="#FAFAFA"/>
<path d="M27.9041 37.8483C27.9041 37.9066 27.8809 37.9625 27.8397 38.0038C27.7985 38.045 27.7426 38.0681 27.6843 38.0681C27.626 38.0681 27.5701 38.045 27.5288 38.0038C27.4876 37.9625 27.4644 37.9066 27.4644 37.8483V35.6328L27.2514 35.7646C27.2018 35.7952 27.1421 35.8049 27.0854 35.7915C27.0287 35.7781 26.9797 35.7427 26.9491 35.6932C26.9185 35.6436 26.9088 35.5839 26.9222 35.5272C26.9356 35.4705 26.971 35.4215 27.0205 35.3909L27.5677 35.05C27.6012 35.0301 27.6393 35.0194 27.6783 35.0188C27.7172 35.0183 27.7556 35.0279 27.7896 35.0468C27.8237 35.0658 27.8522 35.0933 27.8722 35.1266C27.8923 35.16 27.9033 35.1981 27.9041 35.237V37.8483Z" fill="#FAFAFA"/>
<path d="M25.7102 35.332H28.0019" stroke="#191919" stroke-width="0.343756" stroke-linecap="round" stroke-linejoin="round"/>
<path d="M26.8562 36.4792V34.1875" stroke="#191919" stroke-width="0.343756" stroke-linecap="round" stroke-linejoin="round"/>
<path d="M71.804 28.8673C72.1729 28.8668 72.5265 28.7201 72.7874 28.4593C73.0482 28.1984 73.1949 27.8448 73.1954 27.4759V26.9944C72.2752 27.1677 71.3302 27.161 70.4126 26.9746V27.4759C70.413 27.8448 70.5598 28.1984 70.8206 28.4593C71.0814 28.7201 71.4351 28.8668 71.804 28.8673Z" fill="#FAFAFA"/>
<path d="M77.5039 31.6215L76.3629 29.2233C76.1478 28.7743 75.7686 28.425 75.3036 28.2472L74.4329 27.9154C74.0884 27.8135 73.8369 27.4088 73.6349 27.1328V27.4102C73.6431 27.666 73.5979 27.9208 73.5022 28.1582C73.4065 28.3956 73.2623 28.6104 73.0789 28.789C72.8955 28.9675 72.6769 29.1059 72.437 29.1953C72.1972 29.2846 71.9413 29.323 71.6858 29.3079C71.4302 29.2928 71.1806 29.2247 70.9529 29.1077C70.7252 28.9908 70.5244 28.8277 70.3633 28.6288C70.2021 28.4299 70.0842 28.1997 70.0171 27.9526C69.9499 27.7056 69.935 27.4473 69.9732 27.1942C69.8227 27.4837 69.5764 27.7121 69.2764 27.8404L68.4608 28.1329C67.9927 28.2985 67.6067 28.6388 67.3837 29.0824L66.1042 31.6215C66.0864 31.66 66.0845 31.7039 66.0989 31.7438C66.1133 31.7837 66.1429 31.8163 66.1811 31.8346L67.8854 32.6096C67.9174 32.6242 67.9525 32.6309 67.9876 32.6291C68.0228 32.6274 68.057 32.6172 68.0874 32.5995C68.1178 32.5818 68.1435 32.557 68.1623 32.5273C68.1812 32.4976 68.1926 32.4638 68.1957 32.4287L68.2583 31.7144C68.2649 31.6571 68.2935 31.6046 68.3382 31.5681C68.3828 31.5316 68.44 31.514 68.4974 31.519C68.5549 31.524 68.6081 31.5513 68.6458 31.595C68.6834 31.6387 68.7025 31.6954 68.699 31.7529L68.1683 37.7851C68.1681 37.8279 68.1767 37.8703 68.1935 37.9097C68.2103 37.9491 68.2351 37.9847 68.2662 38.0141C68.2973 38.0436 68.3341 38.0663 68.3743 38.081C68.4146 38.0957 68.4574 38.1019 68.5002 38.0994H75.1254C75.1684 38.1019 75.2114 38.0956 75.2518 38.0808C75.2922 38.066 75.3292 38.0431 75.3603 38.0133C75.3914 37.9836 75.4161 37.9479 75.4328 37.9082C75.4495 37.8685 75.4578 37.8259 75.4573 37.7828C75.3634 36.7762 74.9748 32.671 74.8887 31.7542C74.8845 31.6968 74.903 31.6401 74.9402 31.5962C74.9774 31.5523 75.0303 31.5247 75.0875 31.5193C75.1448 31.5139 75.2019 31.5311 75.2466 31.5673C75.2913 31.6035 75.3201 31.6558 75.3267 31.7129L75.3934 32.42C75.3967 32.4547 75.4082 32.4882 75.427 32.5176C75.4458 32.547 75.4713 32.5715 75.5015 32.5891C75.5316 32.6067 75.5655 32.6168 75.6003 32.6187C75.6352 32.6206 75.67 32.6142 75.7018 32.6L77.4269 31.8303C77.4646 31.8125 77.4938 31.7806 77.5082 31.7415C77.5226 31.7024 77.521 31.6595 77.5039 31.6215ZM71.3862 35.8483C71.3845 35.9054 71.3606 35.9596 71.3196 35.9994C71.2786 36.0392 71.2237 36.0614 71.1665 36.0614C71.1094 36.0614 71.0545 36.0392 71.0135 35.9994C70.9725 35.9596 70.9485 35.9054 70.9468 35.8483V33.6328L70.7335 33.7646C70.684 33.7939 70.625 33.8026 70.5691 33.7888C70.5133 33.775 70.465 33.7399 70.4348 33.6909C70.4046 33.642 70.3948 33.5831 70.4075 33.527C70.4203 33.4709 70.4545 33.422 70.5029 33.3909L71.0501 33.05C71.0836 33.0301 71.1217 33.0194 71.1606 33.0188C71.1995 33.0183 71.238 33.0279 71.272 33.0468C71.306 33.0658 71.3345 33.0933 71.3546 33.1266C71.3747 33.16 71.3857 33.1981 71.3864 33.237L71.3862 35.8483ZM72.9668 35.8483C72.9668 35.9066 72.9437 35.9625 72.9024 36.0038C72.8612 36.045 72.8053 36.0681 72.747 36.0681C72.6887 36.0681 72.6328 36.045 72.5916 36.0038C72.5503 35.9625 72.5272 35.9066 72.5272 35.8483V33.6328L72.3141 33.7646C72.2645 33.7952 72.2049 33.8049 72.1482 33.7915C72.0915 33.7781 72.0424 33.7427 72.0118 33.6932C71.9812 33.6436 71.9715 33.5839 71.9849 33.5272C71.9983 33.4705 72.0337 33.4215 72.0833 33.3909L72.6305 33.05C72.6639 33.0301 72.7021 33.0194 72.741 33.0188C72.7799 33.0183 72.8183 33.0279 72.8524 33.0468C72.8864 33.0658 72.9149 33.0933 72.935 33.1266C72.9551 33.16 72.966 33.1981 72.9668 33.237V35.8483Z" fill="#FAFAFA"/>
<path d="M71.3862 35.8483C71.3845 35.9054 71.3606 35.9596 71.3196 35.9994C71.2786 36.0392 71.2237 36.0614 71.1665 36.0614C71.1094 36.0614 71.0545 36.0392 71.0135 35.9994C70.9725 35.9596 70.9485 35.9054 70.9468 35.8483V33.6328L70.7335 33.7646C70.684 33.7939 70.625 33.8026 70.5691 33.7888C70.5133 33.775 70.465 33.7399 70.4348 33.6909C70.4046 33.642 70.3948 33.5831 70.4075 33.527C70.4203 33.4709 70.4545 33.422 70.5029 33.3909L71.0501 33.05C71.0836 33.0301 71.1217 33.0194 71.1606 33.0188C71.1995 33.0183 71.238 33.0279 71.272 33.0468C71.306 33.0658 71.3345 33.0933 71.3546 33.1266C71.3747 33.16 71.3857 33.1981 71.3864 33.237L71.3862 35.8483Z" fill="#FAFAFA"/>
<path d="M72.9668 35.8483C72.9668 35.9066 72.9437 35.9625 72.9024 36.0038C72.8612 36.045 72.8053 36.0681 72.747 36.0681C72.6887 36.0681 72.6328 36.045 72.5916 36.0038C72.5503 35.9625 72.5272 35.9066 72.5272 35.8483V33.6328L72.3141 33.7646C72.2645 33.7952 72.2049 33.8049 72.1482 33.7915C72.0915 33.7781 72.0424 33.7427 72.0118 33.6932C71.9812 33.6436 71.9715 33.5839 71.9849 33.5272C71.9983 33.4705 72.0337 33.4215 72.0833 33.3909L72.6305 33.05C72.6639 33.0301 72.7021 33.0194 72.741 33.0188C72.7799 33.0183 72.8183 33.0279 72.8524 33.0468C72.8864 33.0658 72.9149 33.0933 72.935 33.1266C72.9551 33.16 72.966 33.1981 72.9668 33.237V35.8483Z" fill="#FAFAFA"/>
<path d="M70.7729 33.332H73.0647" stroke="#191919" stroke-width="0.343756" stroke-linecap="round" stroke-linejoin="round"/>
<path d="M71.9189 34.4792V32.1875" stroke="#191919" stroke-width="0.343756" stroke-linecap="round" stroke-linejoin="round"/>
<path d="M40.8667 20.8673C41.2356 20.8668 41.5893 20.7201 41.8501 20.4593C42.111 20.1984 42.2577 19.8448 42.2581 19.4759V18.9944C41.338 19.1677 40.3929 19.161 39.4753 18.9746V19.4759C39.4758 19.8448 39.6225 20.1984 39.8833 20.4593C40.1442 20.7201 40.4978 20.8668 40.8667 20.8673Z" fill="#FAFAFA"/>
<path d="M46.5666 23.6215L45.4257 21.2233C45.2105 20.7743 44.8314 20.425 44.3664 20.2472L43.4957 19.9154C43.1511 19.8135 42.8997 19.4088 42.6976 19.1328V19.4102C42.7059 19.666 42.6607 19.9208 42.5649 20.1582C42.4692 20.3956 42.3251 20.6104 42.1417 20.789C41.9583 20.9675 41.7396 21.1059 41.4998 21.1953C41.2599 21.2846 41.004 21.323 40.7485 21.3079C40.493 21.2928 40.2434 21.2247 40.0157 21.1077C39.788 20.9908 39.5871 20.8277 39.426 20.6288C39.2649 20.4299 39.147 20.1997 39.0798 19.9526C39.0126 19.7056 38.9977 19.4473 39.036 19.1942C38.8854 19.4837 38.6392 19.7121 38.3391 19.8404L37.5235 20.1329C37.0554 20.2985 36.6695 20.6388 36.4465 21.0824L35.1669 23.6215C35.1492 23.66 35.1473 23.7039 35.1617 23.7438C35.1761 23.7837 35.2056 23.8163 35.2439 23.8346L36.9482 24.6096C36.9802 24.6242 37.0152 24.6309 37.0504 24.6291C37.0855 24.6274 37.1197 24.6172 37.1501 24.5995C37.1805 24.5818 37.2062 24.557 37.2251 24.5273C37.2439 24.4976 37.2553 24.4638 37.2584 24.4287L37.3211 23.7144C37.3276 23.6571 37.3563 23.6046 37.4009 23.5681C37.4456 23.5316 37.5027 23.514 37.5602 23.519C37.6176 23.524 37.6709 23.5513 37.7085 23.595C37.7462 23.6387 37.7653 23.6954 37.7617 23.7529L37.2311 29.7851C37.2308 29.8279 37.2394 29.8703 37.2562 29.9097C37.2731 29.9491 37.2978 29.9847 37.3289 30.0141C37.36 30.0436 37.3968 30.0663 37.4371 30.081C37.4773 30.0957 37.5202 30.1019 37.5629 30.0994H44.1882C44.2311 30.1019 44.2742 30.0956 44.3146 30.0808C44.355 30.066 44.3919 30.0431 44.423 30.0133C44.4542 29.9836 44.4789 29.9479 44.4956 29.9082C44.5122 29.8685 44.5206 29.8259 44.5201 29.7828C44.4262 28.7762 44.0376 24.671 43.9514 23.7542C43.9473 23.6968 43.9658 23.6401 44.003 23.5962C44.0401 23.5523 44.093 23.5247 44.1503 23.5193C44.2075 23.5139 44.2646 23.5311 44.3093 23.5673C44.3541 23.6035 44.3828 23.6558 44.3894 23.7129L44.4562 24.42C44.4595 24.4547 44.471 24.4882 44.4898 24.5176C44.5086 24.547 44.5341 24.5715 44.5642 24.5891C44.5943 24.6067 44.6282 24.6168 44.6631 24.6187C44.6979 24.6206 44.7327 24.6142 44.7646 24.6L46.4897 23.8303C46.5274 23.8125 46.5566 23.7806 46.5709 23.7415C46.5853 23.7024 46.5838 23.6595 46.5666 23.6215ZM40.449 27.8483C40.4472 27.9054 40.4233 27.9596 40.3823 27.9994C40.3413 28.0392 40.2864 28.0614 40.2293 28.0614C40.1721 28.0614 40.1172 28.0392 40.0762 27.9994C40.0352 27.9596 40.0113 27.9054 40.0095 27.8483V25.6328L39.7963 25.7646C39.7467 25.7939 39.6877 25.8026 39.6319 25.7888C39.576 25.775 39.5278 25.7399 39.4976 25.6909C39.4673 25.642 39.4576 25.5831 39.4703 25.527C39.483 25.4709 39.5172 25.422 39.5656 25.3909L40.1128 25.05C40.1463 25.0301 40.1844 25.0194 40.2234 25.0188C40.2623 25.0183 40.3007 25.0279 40.3347 25.0468C40.3688 25.0658 40.3973 25.0933 40.4173 25.1266C40.4374 25.16 40.4484 25.1981 40.4492 25.237L40.449 27.8483ZM42.0296 27.8483C42.0296 27.9066 42.0064 27.9625 41.9652 28.0038C41.924 28.045 41.8681 28.0681 41.8098 28.0681C41.7515 28.0681 41.6955 28.045 41.6543 28.0038C41.6131 27.9625 41.5899 27.9066 41.5899 27.8483V25.6328L41.3768 25.7646C41.3273 25.7952 41.2676 25.8049 41.2109 25.7915C41.1542 25.7781 41.1052 25.7427 41.0746 25.6932C41.044 25.6436 41.0343 25.5839 41.0477 25.5272C41.0611 25.4705 41.0964 25.4215 41.146 25.3909L41.6932 25.05C41.7267 25.0301 41.7648 25.0194 41.8037 25.0188C41.8427 25.0183 41.8811 25.0279 41.9151 25.0468C41.9492 25.0658 41.9776 25.0933 41.9977 25.1266C42.0178 25.16 42.0288 25.1981 42.0296 25.237V27.8483Z" fill="#FAFAFA"/>
<path d="M40.449 27.8483C40.4472 27.9054 40.4233 27.9596 40.3823 27.9994C40.3413 28.0392 40.2864 28.0614 40.2293 28.0614C40.1721 28.0614 40.1172 28.0392 40.0762 27.9994C40.0352 27.9596 40.0113 27.9054 40.0095 27.8483V25.6328L39.7963 25.7646C39.7467 25.7939 39.6877 25.8026 39.6319 25.7888C39.576 25.775 39.5278 25.7399 39.4976 25.6909C39.4673 25.642 39.4576 25.5831 39.4703 25.527C39.483 25.4709 39.5172 25.422 39.5656 25.3909L40.1128 25.05C40.1463 25.0301 40.1844 25.0194 40.2234 25.0188C40.2623 25.0183 40.3007 25.0279 40.3347 25.0468C40.3688 25.0658 40.3973 25.0933 40.4173 25.1266C40.4374 25.16 40.4484 25.1981 40.4492 25.237L40.449 27.8483Z" fill="#FAFAFA"/>
<path d="M42.0296 27.8483C42.0296 27.9066 42.0064 27.9625 41.9652 28.0038C41.924 28.045 41.8681 28.0681 41.8098 28.0681C41.7515 28.0681 41.6955 28.045 41.6543 28.0038C41.6131 27.9625 41.5899 27.9066 41.5899 27.8483V25.6328L41.3768 25.7646C41.3273 25.7952 41.2676 25.8049 41.2109 25.7915C41.1542 25.7781 41.1052 25.7427 41.0746 25.6932C41.044 25.6436 41.0343 25.5839 41.0477 25.5272C41.0611 25.4705 41.0964 25.4215 41.146 25.3909L41.6932 25.05C41.7267 25.0301 41.7648 25.0194 41.8037 25.0188C41.8427 25.0183 41.8811 25.0279 41.9151 25.0468C41.9492 25.0658 41.9776 25.0933 41.9977 25.1266C42.0178 25.16 42.0288 25.1981 42.0296 25.237V27.8483Z" fill="#FAFAFA"/>
<path d="M39.8357 25.332H42.1274" stroke="#191919" stroke-width="0.343756" stroke-linecap="round" stroke-linejoin="round"/>
<path d="M40.9817 26.4792V24.1875" stroke="#191919" stroke-width="0.343756" stroke-linecap="round" stroke-linejoin="round"/>
<path d="M54.9295 30.8673C55.2984 30.8668 55.652 30.7201 55.9129 30.4593C56.1737 30.1984 56.3204 29.8448 56.3209 29.4759V28.9944C55.4007 29.1677 54.4557 29.161 53.5381 28.9746V29.4759C53.5385 29.8448 53.6852 30.1984 53.9461 30.4593C54.2069 30.7201 54.5606 30.8668 54.9295 30.8673Z" fill="#FAFAFA"/>
<path d="M60.6294 33.6215L59.4884 31.2233C59.2733 30.7743 58.8941 30.425 58.4291 30.2472L57.5584 29.9154C57.2139 29.8135 56.9624 29.4088 56.7604 29.1328V29.4102C56.7686 29.666 56.7234 29.9208 56.6277 30.1582C56.532 30.3956 56.3878 30.6104 56.2044 30.789C56.021 30.9675 55.8024 31.1059 55.5625 31.1953C55.3226 31.2846 55.0668 31.323 54.8112 31.3079C54.5557 31.2928 54.3061 31.2247 54.0784 31.1077C53.8507 30.9908 53.6499 30.8277 53.4887 30.6288C53.3276 30.4299 53.2097 30.1997 53.1425 29.9526C53.0754 29.7056 53.0605 29.4473 53.0987 29.1942C52.9481 29.4837 52.7019 29.7121 52.4019 29.8404L51.5863 30.1329C51.1182 30.2985 50.7322 30.6388 50.5092 31.0824L49.2297 33.6215C49.2119 33.66 49.21 33.7039 49.2244 33.7438C49.2388 33.7837 49.2684 33.8163 49.3066 33.8346L51.0109 34.6096C51.0429 34.6242 51.078 34.6309 51.1131 34.6291C51.1483 34.6274 51.1825 34.6172 51.2129 34.5995C51.2433 34.5818 51.269 34.557 51.2878 34.5273C51.3067 34.4976 51.3181 34.4638 51.3212 34.4287L51.3838 33.7144C51.3903 33.6571 51.419 33.6046 51.4637 33.5681C51.5083 33.5316 51.5655 33.514 51.6229 33.519C51.6804 33.524 51.7336 33.5513 51.7713 33.595C51.8089 33.6387 51.828 33.6954 51.8245 33.7529L51.2938 39.7851C51.2936 39.8279 51.3022 39.8703 51.319 39.9097C51.3358 39.9491 51.3606 39.9847 51.3917 40.0141C51.4228 40.0436 51.4596 40.0663 51.4998 40.081C51.5401 40.0957 51.5829 40.1019 51.6257 40.0994H58.2509C58.2939 40.1019 58.3369 40.0956 58.3773 40.0808C58.4177 40.066 58.4546 40.0431 58.4858 40.0133C58.5169 39.9836 58.5416 39.9479 58.5583 39.9082C58.575 39.8685 58.5833 39.8259 58.5828 39.7828C58.4889 38.7762 58.1003 34.671 58.0142 33.7542C58.01 33.6968 58.0285 33.6401 58.0657 33.5962C58.1029 33.5523 58.1557 33.5247 58.213 33.5193C58.2703 33.5139 58.3274 33.5311 58.3721 33.5673C58.4168 33.6035 58.4455 33.6558 58.4522 33.7129L58.5189 34.42C58.5222 34.4547 58.5337 34.4882 58.5525 34.5176C58.5713 34.547 58.5968 34.5715 58.627 34.5891C58.6571 34.6067 58.691 34.6168 58.7258 34.6187C58.7607 34.6206 58.7955 34.6142 58.8273 34.6L60.5524 33.8303C60.5901 33.8125 60.6193 33.7806 60.6337 33.7415C60.6481 33.7024 60.6465 33.6595 60.6294 33.6215ZM54.5117 37.8483C54.51 37.9054 54.4861 37.9596 54.4451 37.9994C54.404 38.0392 54.3491 38.0614 54.292 38.0614C54.2349 38.0614 54.18 38.0392 54.139 37.9994C54.0979 37.9596 54.074 37.9054 54.0723 37.8483V35.6328L53.859 35.7646C53.8095 35.7939 53.7504 35.8026 53.6946 35.7888C53.6387 35.775 53.5905 35.7399 53.5603 35.6909C53.5301 35.642 53.5203 35.5831 53.533 35.527C53.5457 35.4709 53.58 35.422 53.6284 35.3909L54.1756 35.05C54.209 35.0301 54.2472 35.0194 54.2861 35.0188C54.325 35.0183 54.3634 35.0279 54.3975 35.0468C54.4315 35.0658 54.46 35.0933 54.4801 35.1266C54.5002 35.16 54.5111 35.1981 54.5119 35.237L54.5117 37.8483ZM56.0923 37.8483C56.0923 37.9066 56.0692 37.9625 56.0279 38.0038C55.9867 38.045 55.9308 38.0681 55.8725 38.0681C55.8142 38.0681 55.7583 38.045 55.7171 38.0038C55.6758 37.9625 55.6527 37.9066 55.6527 37.8483V35.6328L55.4396 35.7646C55.39 35.7952 55.3303 35.8049 55.2737 35.7915C55.217 35.7781 55.1679 35.7427 55.1373 35.6932C55.1067 35.6436 55.097 35.5839 55.1104 35.5272C55.1238 35.4705 55.1592 35.4215 55.2087 35.3909L55.756 35.05C55.7894 35.0301 55.8275 35.0194 55.8665 35.0188C55.9054 35.0183 55.9438 35.0279 55.9779 35.0468C56.0119 35.0658 56.0404 35.0933 56.0605 35.1266C56.0806 35.16 56.0915 35.1981 56.0923 35.237V37.8483Z" fill="#FAFAFA"/>
<path d="M54.5117 37.8483C54.51 37.9054 54.4861 37.9596 54.4451 37.9994C54.404 38.0392 54.3491 38.0614 54.292 38.0614C54.2349 38.0614 54.18 38.0392 54.139 37.9994C54.0979 37.9596 54.074 37.9054 54.0723 37.8483V35.6328L53.859 35.7646C53.8095 35.7939 53.7504 35.8026 53.6946 35.7888C53.6387 35.775 53.5905 35.7399 53.5603 35.6909C53.5301 35.642 53.5203 35.5831 53.533 35.527C53.5457 35.4709 53.58 35.422 53.6284 35.3909L54.1756 35.05C54.209 35.0301 54.2472 35.0194 54.2861 35.0188C54.325 35.0183 54.3634 35.0279 54.3975 35.0468C54.4315 35.0658 54.46 35.0933 54.4801 35.1266C54.5002 35.16 54.5111 35.1981 54.5119 35.237L54.5117 37.8483Z" fill="#FAFAFA"/>
<path d="M56.0923 37.8483C56.0923 37.9066 56.0692 37.9625 56.0279 38.0038C55.9867 38.045 55.9308 38.0681 55.8725 38.0681C55.8142 38.0681 55.7583 38.045 55.7171 38.0038C55.6758 37.9625 55.6527 37.9066 55.6527 37.8483V35.6328L55.4396 35.7646C55.39 35.7952 55.3303 35.8049 55.2737 35.7915C55.217 35.7781 55.1679 35.7427 55.1373 35.6932C55.1067 35.6436 55.097 35.5839 55.1104 35.5272C55.1238 35.4705 55.1592 35.4215 55.2087 35.3909L55.756 35.05C55.7894 35.0301 55.8275 35.0194 55.8665 35.0188C55.9054 35.0183 55.9438 35.0279 55.9779 35.0468C56.0119 35.0658 56.0404 35.0933 56.0605 35.1266C56.0806 35.16 56.0915 35.1981 56.0923 35.237V37.8483Z" fill="#FAFAFA"/>
<path d="M53.8984 35.332H56.1901" stroke="#191919" stroke-width="0.343756" stroke-linecap="round" stroke-linejoin="round"/>
<path d="M55.0444 36.4792V34.1875" stroke="#191919" stroke-width="0.343756" stroke-linecap="round" stroke-linejoin="round"/>
<path d="M26.741 3.86923C27.1099 3.8688 27.4635 3.72207 27.7244 3.46123C27.9852 3.20038 28.132 2.84673 28.1324 2.47785V1.99636C27.2122 2.1697 26.2672 2.16297 25.3496 1.97656V2.47785C25.35 2.84673 25.4968 3.20038 25.7576 3.46123C26.0185 3.72207 26.3721 3.8688 26.741 3.86923Z" fill="#FAFAFA"/>
<path d="M32.4409 6.62345L31.3 4.22521C31.0848 3.77629 30.7056 3.42696 30.2406 3.24918L29.3699 2.91731C29.0254 2.81546 28.7739 2.41072 28.5719 2.13477V2.41214C28.5801 2.66798 28.5349 2.92273 28.4392 3.16013C28.3435 3.39753 28.1993 3.61237 28.0159 3.79094C27.8325 3.9695 27.6139 4.10788 27.374 4.19723C27.1342 4.28658 26.8783 4.32494 26.6228 4.30987C26.3672 4.2948 26.1177 4.22663 25.89 4.1097C25.6622 3.99278 25.4614 3.82967 25.3003 3.63078C25.1391 3.4319 25.0212 3.2016 24.9541 2.9546C24.8869 2.70759 24.872 2.4493 24.9102 2.1962C24.7597 2.48569 24.5134 2.71405 24.2134 2.8424L23.3978 3.13488C22.9297 3.30048 22.5437 3.64071 22.3207 4.08438L21.0412 6.62345C21.0234 6.66195 21.0216 6.7059 21.036 6.74579C21.0504 6.78567 21.0799 6.81827 21.1182 6.83654L22.8224 7.61153C22.8544 7.62613 22.8895 7.63284 22.9246 7.63109C22.9598 7.62933 22.994 7.61917 23.0244 7.60145C23.0548 7.58373 23.0805 7.55898 23.0993 7.52926C23.1182 7.49955 23.1296 7.46574 23.1327 7.43069L23.1953 6.71632C23.2019 6.65901 23.2305 6.60652 23.2752 6.57004C23.3199 6.53355 23.377 6.51594 23.4345 6.52097C23.4919 6.526 23.5451 6.55327 23.5828 6.59696C23.6204 6.64066 23.6395 6.69733 23.636 6.75489L23.1053 12.787C23.1051 12.8299 23.1137 12.8723 23.1305 12.9117C23.1473 12.9511 23.1721 12.9866 23.2032 13.0161C23.2343 13.0455 23.2711 13.0683 23.3114 13.083C23.3516 13.0976 23.3944 13.1039 23.4372 13.1013H30.0625C30.1054 13.1039 30.1484 13.0976 30.1888 13.0828C30.2292 13.068 30.2662 13.045 30.2973 13.0153C30.3284 12.9856 30.3531 12.9498 30.3698 12.9101C30.3865 12.8705 30.3949 12.8278 30.3943 12.7848C30.3004 11.7781 29.9118 7.67296 29.8257 6.75612C29.8216 6.69875 29.8401 6.64203 29.8772 6.59813C29.9144 6.55422 29.9673 6.52662 30.0245 6.52123C30.0818 6.51584 30.1389 6.53309 30.1836 6.56929C30.2283 6.60549 30.2571 6.65775 30.2637 6.71489L30.3305 7.42191C30.3337 7.45665 30.3453 7.49011 30.364 7.51952C30.3828 7.54892 30.4083 7.57344 30.4385 7.59103C30.4686 7.60862 30.5025 7.61878 30.5373 7.62068C30.5722 7.62258 30.607 7.61615 30.6389 7.60193L32.364 6.83225C32.4016 6.81447 32.4308 6.7826 32.4452 6.7435C32.4596 6.7044 32.4581 6.66142 32.4409 6.62345ZM26.3233 10.8503C26.3215 10.9074 26.2976 10.9616 26.2566 11.0014C26.2156 11.0411 26.1607 11.0634 26.1035 11.0634C26.0464 11.0634 25.9915 11.0411 25.9505 11.0014C25.9095 10.9616 25.8856 10.9074 25.8838 10.8503V8.63471L25.6705 8.76656C25.621 8.79584 25.562 8.80453 25.5061 8.79075C25.4503 8.77697 25.402 8.74182 25.3718 8.69287C25.3416 8.64391 25.3318 8.58505 25.3445 8.52895C25.3573 8.47284 25.3915 8.42397 25.4399 8.39284L25.9871 8.05198C26.0206 8.03209 26.0587 8.02133 26.0976 8.02077C26.1366 8.02021 26.175 8.02987 26.209 8.04879C26.243 8.06771 26.2715 8.09523 26.2916 8.1286C26.3117 8.16196 26.3227 8.20001 26.3235 8.23895L26.3233 10.8503ZM27.9038 10.8503C27.9038 10.9086 27.8807 10.9645 27.8395 11.0057C27.7982 11.0469 27.7423 11.0701 27.684 11.0701C27.6257 11.0701 27.5698 11.0469 27.5286 11.0057C27.4874 10.9645 27.4642 10.9086 27.4642 10.8503V8.63471L27.2511 8.76656C27.2016 8.79717 27.1419 8.80684 27.0852 8.79344C27.0285 8.78005 26.9794 8.74468 26.9488 8.69512C26.9182 8.64556 26.9086 8.58587 26.9219 8.52919C26.9353 8.4725 26.9707 8.42345 27.0203 8.39284L27.5675 8.05198C27.601 8.03209 27.6391 8.02133 27.678 8.02077C27.7169 8.02021 27.7554 8.02987 27.7894 8.04879C27.8234 8.06771 27.8519 8.09523 27.872 8.1286C27.8921 8.16196 27.9031 8.20001 27.9038 8.23895V10.8503Z" fill="#FAFAFA"/>
<path d="M26.3233 10.8503C26.3215 10.9074 26.2976 10.9616 26.2566 11.0014C26.2156 11.0411 26.1607 11.0634 26.1035 11.0634C26.0464 11.0634 25.9915 11.0411 25.9505 11.0014C25.9095 10.9616 25.8856 10.9074 25.8838 10.8503V8.63471L25.6705 8.76656C25.621 8.79584 25.562 8.80453 25.5061 8.79075C25.4503 8.77697 25.402 8.74182 25.3718 8.69287C25.3416 8.64391 25.3318 8.58505 25.3445 8.52895C25.3573 8.47284 25.3915 8.42397 25.4399 8.39284L25.9871 8.05198C26.0206 8.03209 26.0587 8.02133 26.0976 8.02077C26.1366 8.02021 26.175 8.02987 26.209 8.04879C26.243 8.06771 26.2715 8.09523 26.2916 8.1286C26.3117 8.16196 26.3227 8.20001 26.3235 8.23895L26.3233 10.8503Z" fill="#FAFAFA"/>
<path d="M27.9038 10.8503C27.9038 10.9086 27.8807 10.9645 27.8395 11.0057C27.7982 11.0469 27.7423 11.0701 27.684 11.0701C27.6257 11.0701 27.5698 11.0469 27.5286 11.0057C27.4874 10.9645 27.4642 10.9086 27.4642 10.8503V8.63471L27.2511 8.76656C27.2016 8.79717 27.1419 8.80684 27.0852 8.79344C27.0285 8.78005 26.9794 8.74468 26.9488 8.69512C26.9182 8.64556 26.9086 8.58587 26.9219 8.52919C26.9353 8.4725 26.9707 8.42345 27.0203 8.39284L27.5675 8.05198C27.601 8.03209 27.6391 8.02133 27.678 8.02077C27.7169 8.02021 27.7554 8.02987 27.7894 8.04879C27.8234 8.06771 27.8519 8.09523 27.872 8.1286C27.8921 8.16196 27.9031 8.20001 27.9038 8.23895V10.8503Z" fill="#FAFAFA"/>
<path d="M25.71 8.33398H28.0017" stroke="#191919" stroke-width="0.343756" stroke-linecap="round" stroke-linejoin="round"/>
<path d="M26.856 9.48116V7.18945" stroke="#191919" stroke-width="0.343756" stroke-linecap="round" stroke-linejoin="round"/>
<defs>
<clipPath id="clip0_8758_19039">
<rect width="13.0627" height="13.0627" fill="white" transform="translate(34.0454 66.5645)"/>
</clipPath>
<clipPath id="clip1_8758_19039">
<rect width="13.0627" height="13.0627" fill="white" transform="translate(2.14746 25)"/>
</clipPath>
</defs>
</svg>
