<svg width="82" height="81" viewBox="0 0 82 81" fill="none" xmlns="http://www.w3.org/2000/svg">
<rect x="1.1014" y="0.118492" width="79.9807" height="79.9807" rx="5.88541" fill="#828284" stroke="#FAFAFA" stroke-width="0.229171"/>
<mask id="path-2-inside-1_8758_19406" fill="white">
<path d="M24.8206 66.4609H57.3628V80.2112H24.8206V66.4609Z"/>
</mask>
<path d="M24.8206 66.4609V66.2318H24.5914V66.4609H24.8206ZM57.3628 66.4609H57.592V66.2318H57.3628V66.4609ZM24.8206 66.6901H57.3628V66.2318H24.8206V66.6901ZM57.1337 66.4609V80.2112H57.592V66.4609H57.1337ZM25.0497 80.2112V66.4609H24.5914V80.2112H25.0497Z" fill="#FAFAFA" mask="url(#path-2-inside-1_8758_19406)"/>
<mask id="path-4-inside-2_8758_19406" fill="white">
<path d="M13.5913 55.0039H68.5923V80.2127H13.5913V55.0039Z"/>
</mask>
<path d="M13.5913 55.0039V54.7747H13.3621V55.0039H13.5913ZM68.5923 55.0039H68.8215V54.7747H68.5923V55.0039ZM13.5913 55.2331H68.5923V54.7747H13.5913V55.2331ZM68.3632 55.0039V80.2127H68.8215V55.0039H68.3632ZM13.8205 80.2127V55.0039H13.3621V80.2127H13.8205Z" fill="#FAFAFA" mask="url(#path-4-inside-2_8758_19406)"/>
<path d="M55.3003 9.53674e-07C55.3003 1.65523 54.915 3.29426 54.1664 4.8235C53.4178 6.35273 52.3205 7.74223 50.9373 8.91266C49.5541 10.0831 47.9119 11.0115 46.1047 11.645C44.2974 12.2784 42.3604 12.6044 40.4042 12.6044C38.448 12.6044 36.511 12.2784 34.7037 11.645C32.8964 11.0115 31.2543 10.0831 29.871 8.91266C28.4878 7.74223 27.3906 6.35273 26.642 4.8235C25.8934 3.29426 25.5081 1.65523 25.5081 0" stroke="#FAFAFA" stroke-width="0.229171"/>
<path d="M31.564 55.3516C32.0823 54.5174 32.8419 53.7595 33.7995 53.1211C34.7571 52.4827 35.894 51.9763 37.1452 51.6308C38.3964 51.2853 39.7374 51.1074 41.0917 51.1074C42.446 51.1074 43.787 51.2853 45.0382 51.6308C46.2894 51.9763 47.4263 52.4827 48.3839 53.1211C49.3415 53.7595 50.1011 54.5174 50.6194 55.3516" stroke="#FAFAFA" stroke-width="0.229171"/>
<path d="M1.21582 76.5479C2.33235 76.4958 4.53628 77.1099 4.41977 79.9825" stroke="#FAFAFA" stroke-width="0.229171"/>
<path d="M80.9673 76.5479C79.8508 76.4958 77.6468 77.1099 77.7633 79.9825" stroke="#FAFAFA" stroke-width="0.229171"/>
<path d="M41.2058 69.4356C41.5747 69.4352 41.9284 69.2885 42.1892 69.0276C42.4501 68.7668 42.5968 68.4131 42.5972 68.0443V67.5628C41.6771 67.7361 40.732 67.7294 39.8145 67.543V68.0443C39.8149 68.4131 39.9616 68.7668 40.2225 69.0276C40.4833 69.2885 40.837 69.4352 41.2058 69.4356Z" fill="#FAFAFA"/>
<path d="M46.9057 72.1899L45.7648 69.7916C45.5496 69.3427 45.1705 68.9934 44.7055 68.8156L43.8348 68.4837C43.4902 68.3819 43.2388 67.9771 43.0367 67.7012V67.9786C43.045 68.2344 42.9998 68.4891 42.9041 68.7265C42.8083 68.9639 42.6642 69.1788 42.4808 69.3573C42.2974 69.5359 42.0788 69.6743 41.8389 69.7636C41.599 69.853 41.3431 69.8913 41.0876 69.8763C40.8321 69.8612 40.5825 69.793 40.3548 69.6761C40.1271 69.5592 39.9263 69.3961 39.7651 69.1972C39.604 68.9983 39.4861 68.768 39.4189 68.521C39.3517 68.274 39.3368 68.0157 39.3751 67.7626C39.2245 68.0521 38.9783 68.2805 38.6783 68.4088L37.8627 68.7013C37.3945 68.8669 37.0086 69.2071 36.7856 69.6508L35.5061 72.1899C35.4883 72.2284 35.4864 72.2723 35.5008 72.3122C35.5152 72.3521 35.5447 72.3847 35.583 72.4029L37.2873 73.1779C37.3193 73.1925 37.3543 73.1992 37.3895 73.1975C37.4246 73.1957 37.4588 73.1856 37.4892 73.1679C37.5196 73.1501 37.5453 73.1254 37.5642 73.0957C37.583 73.066 37.5945 73.0321 37.5975 72.9971L37.6602 72.2827C37.6667 72.2254 37.6954 72.1729 37.74 72.1364C37.7847 72.1 37.8418 72.0823 37.8993 72.0874C37.9568 72.0924 38.01 72.1197 38.0476 72.1634C38.0853 72.2071 38.1044 72.2637 38.1008 72.3213L37.5702 78.3534C37.57 78.3963 37.5785 78.4387 37.5954 78.4781C37.6122 78.5175 37.6369 78.553 37.668 78.5825C37.6991 78.6119 37.7359 78.6347 37.7762 78.6494C37.8164 78.664 37.8593 78.6703 37.902 78.6678H44.5273C44.5703 78.6703 44.6133 78.664 44.6537 78.6492C44.6941 78.6344 44.731 78.6114 44.7621 78.5817C44.7933 78.552 44.818 78.5162 44.8347 78.4766C44.8514 78.4369 44.8597 78.3942 44.8592 78.3512C44.7653 77.3445 44.3767 73.2394 44.2905 72.3225C44.2864 72.2652 44.3049 72.2084 44.3421 72.1645C44.3792 72.1206 44.4321 72.093 44.4894 72.0876C44.5466 72.0822 44.6038 72.0995 44.6485 72.1357C44.6932 72.1719 44.7219 72.2242 44.7286 72.2813L44.7953 72.9883C44.7986 73.0231 44.8101 73.0565 44.8289 73.0859C44.8477 73.1153 44.8732 73.1398 44.9033 73.1574C44.9335 73.175 44.9674 73.1852 45.0022 73.1871C45.037 73.189 45.0718 73.1826 45.1037 73.1683L46.8288 72.3987C46.8665 72.3809 46.8957 72.349 46.9101 72.3099C46.9244 72.2708 46.9229 72.2278 46.9057 72.1899ZM40.7881 76.4167C40.7864 76.4738 40.7624 76.528 40.7214 76.5678C40.6804 76.6076 40.6255 76.6298 40.5684 76.6298C40.5112 76.6298 40.4563 76.6076 40.4153 76.5678C40.3743 76.528 40.3504 76.4738 40.3487 76.4167V74.2011L40.1354 74.333C40.0858 74.3623 40.0268 74.3709 39.971 74.3572C39.9151 74.3434 39.8669 74.3082 39.8367 74.2593C39.8065 74.2103 39.7967 74.1515 39.8094 74.0954C39.8221 74.0392 39.8563 73.9904 39.9047 73.9592L40.4519 73.6184C40.4854 73.5985 40.5235 73.5877 40.5625 73.5872C40.6014 73.5866 40.6398 73.5963 40.6738 73.6152C40.7079 73.6341 40.7364 73.6616 40.7565 73.695C40.7765 73.7284 40.7875 73.7664 40.7883 73.8054L40.7881 76.4167ZM42.3687 76.4167C42.3687 76.475 42.3455 76.5309 42.3043 76.5721C42.2631 76.6133 42.2072 76.6365 42.1489 76.6365C42.0906 76.6365 42.0347 76.6133 41.9934 76.5721C41.9522 76.5309 41.929 76.475 41.929 76.4167V74.2011L41.716 74.333C41.6664 74.3636 41.6067 74.3732 41.55 74.3598C41.4933 74.3465 41.4443 74.3111 41.4137 74.2615C41.3831 74.212 41.3734 74.1523 41.3868 74.0956C41.4002 74.0389 41.4356 73.9899 41.4851 73.9592L42.0323 73.6184C42.0658 73.5985 42.1039 73.5877 42.1429 73.5872C42.1818 73.5866 42.2202 73.5963 42.2542 73.6152C42.2883 73.6341 42.3168 73.6616 42.3368 73.695C42.3569 73.7284 42.3679 73.7664 42.3687 73.8054V76.4167Z" fill="#FAFAFA"/>
<path d="M40.7881 76.4167C40.7864 76.4738 40.7624 76.528 40.7214 76.5678C40.6804 76.6076 40.6255 76.6298 40.5684 76.6298C40.5112 76.6298 40.4563 76.6076 40.4153 76.5678C40.3743 76.528 40.3504 76.4738 40.3487 76.4167V74.2011L40.1354 74.333C40.0858 74.3623 40.0268 74.3709 39.971 74.3572C39.9151 74.3434 39.8669 74.3082 39.8367 74.2593C39.8065 74.2103 39.7967 74.1515 39.8094 74.0954C39.8221 74.0392 39.8563 73.9904 39.9047 73.9592L40.4519 73.6184C40.4854 73.5985 40.5235 73.5877 40.5625 73.5872C40.6014 73.5866 40.6398 73.5963 40.6738 73.6152C40.7079 73.6341 40.7364 73.6616 40.7565 73.695C40.7765 73.7284 40.7875 73.7664 40.7883 73.8054L40.7881 76.4167Z" fill="#FAFAFA"/>
<path d="M42.3687 76.4167C42.3687 76.475 42.3455 76.5309 42.3043 76.5721C42.2631 76.6133 42.2072 76.6365 42.1489 76.6365C42.0906 76.6365 42.0347 76.6133 41.9934 76.5721C41.9522 76.5309 41.929 76.475 41.929 76.4167V74.2011L41.716 74.333C41.6664 74.3636 41.6067 74.3732 41.55 74.3598C41.4933 74.3465 41.4443 74.3111 41.4137 74.2615C41.3831 74.212 41.3734 74.1523 41.3868 74.0956C41.4002 74.0389 41.4356 73.9899 41.4851 73.9592L42.0323 73.6184C42.0658 73.5985 42.1039 73.5877 42.1429 73.5872C42.1818 73.5866 42.2202 73.5963 42.2542 73.6152C42.2883 73.6341 42.3168 73.6616 42.3368 73.695C42.3569 73.7284 42.3679 73.7664 42.3687 73.8054V76.4167Z" fill="#FAFAFA"/>
<path d="M40.1748 73.8965H42.4665" stroke="#191919" stroke-width="0.343756" stroke-linecap="round" stroke-linejoin="round"/>
<path d="M41.3208 75.0437V72.752" stroke="#191919" stroke-width="0.343756" stroke-linecap="round" stroke-linejoin="round"/>
<g clip-path="url(#clip0_8758_19406)">
<path d="M20.3704 51.8673C20.7393 51.8668 21.0929 51.7201 21.3538 51.4593C21.6146 51.1984 21.7613 50.8448 21.7618 50.4759V49.9944C20.8416 50.1677 19.8966 50.161 18.979 49.9746V50.4759C18.9794 50.8448 19.1262 51.1984 19.387 51.4593C19.6479 51.7201 20.0015 51.8668 20.3704 51.8673Z" fill="#FAFAFA"/>
<path d="M26.0703 54.6215L24.9293 52.2233C24.7142 51.7743 24.335 51.425 23.87 51.2472L22.9993 50.9154C22.6548 50.8135 22.4033 50.4088 22.2013 50.1328V50.4102C22.2095 50.666 22.1643 50.9208 22.0686 51.1582C21.9729 51.3956 21.8287 51.6104 21.6453 51.789C21.4619 51.9675 21.2433 52.1059 21.0034 52.1953C20.7636 52.2846 20.5077 52.323 20.2522 52.3079C19.9966 52.2928 19.7471 52.2247 19.5193 52.1077C19.2916 51.9908 19.0908 51.8277 18.9297 51.6288C18.7685 51.4299 18.6506 51.1997 18.5835 50.9526C18.5163 50.7056 18.5014 50.4473 18.5396 50.1942C18.3891 50.4837 18.1428 50.7121 17.8428 50.8404L17.0272 51.1329C16.5591 51.2985 16.1731 51.6388 15.9501 52.0824L14.6706 54.6215C14.6528 54.66 14.6509 54.7039 14.6653 54.7438C14.6797 54.7837 14.7093 54.8163 14.7475 54.8346L16.4518 55.6096C16.4838 55.6242 16.5189 55.6309 16.554 55.6291C16.5892 55.6274 16.6234 55.6172 16.6538 55.5995C16.6842 55.5818 16.7099 55.557 16.7287 55.5273C16.7476 55.4976 16.759 55.4638 16.7621 55.4287L16.8247 54.7144C16.8313 54.6571 16.8599 54.6046 16.9046 54.5681C16.9492 54.5316 17.0064 54.514 17.0639 54.519C17.1213 54.524 17.1745 54.5513 17.2122 54.595C17.2498 54.6387 17.2689 54.6954 17.2654 54.7529L16.7347 60.7851C16.7345 60.8279 16.7431 60.8703 16.7599 60.9097C16.7767 60.9491 16.8015 60.9847 16.8326 61.0141C16.8637 61.0436 16.9005 61.0663 16.9407 61.081C16.981 61.0957 17.0238 61.1019 17.0666 61.0994H23.6919C23.7348 61.1019 23.7778 61.0956 23.8182 61.0808C23.8586 61.066 23.8956 61.0431 23.9267 61.0133C23.9578 60.9836 23.9825 60.9479 23.9992 60.9082C24.0159 60.8685 24.0243 60.8259 24.0237 60.7828C23.9298 59.7762 23.5412 55.671 23.4551 54.7542C23.451 54.6968 23.4694 54.6401 23.5066 54.5962C23.5438 54.5523 23.5967 54.5247 23.6539 54.5193C23.7112 54.5139 23.7683 54.5311 23.813 54.5673C23.8577 54.6035 23.8865 54.6558 23.8931 54.7129L23.9598 55.42C23.9631 55.4547 23.9746 55.4882 23.9934 55.5176C24.0122 55.547 24.0377 55.5715 24.0679 55.5891C24.098 55.6067 24.1319 55.6168 24.1667 55.6187C24.2016 55.6206 24.2364 55.6142 24.2682 55.6L25.9933 54.8303C26.031 54.8125 26.0602 54.7806 26.0746 54.7415C26.089 54.7024 26.0875 54.6595 26.0703 54.6215ZM19.9526 58.8483C19.9509 58.9054 19.927 58.9596 19.886 58.9994C19.845 59.0392 19.7901 59.0614 19.7329 59.0614C19.6758 59.0614 19.6209 59.0392 19.5799 58.9994C19.5389 58.9596 19.5149 58.9054 19.5132 58.8483V56.6328L19.2999 56.7646C19.2504 56.7939 19.1914 56.8026 19.1355 56.7888C19.0797 56.775 19.0314 56.7399 19.0012 56.6909C18.971 56.642 18.9612 56.5831 18.9739 56.527C18.9867 56.4709 19.0209 56.422 19.0693 56.3909L19.6165 56.05C19.65 56.0301 19.6881 56.0194 19.727 56.0188C19.766 56.0183 19.8044 56.0279 19.8384 56.0468C19.8724 56.0658 19.9009 56.0933 19.921 56.1266C19.9411 56.16 19.9521 56.1981 19.9528 56.237L19.9526 58.8483ZM21.5332 58.8483C21.5332 58.9066 21.5101 58.9625 21.4689 59.0038C21.4276 59.045 21.3717 59.0681 21.3134 59.0681C21.2551 59.0681 21.1992 59.045 21.158 59.0038C21.1168 58.9625 21.0936 58.9066 21.0936 58.8483V56.6328L20.8805 56.7646C20.831 56.7952 20.7713 56.8049 20.7146 56.7915C20.6579 56.7781 20.6088 56.7427 20.5782 56.6932C20.5476 56.6436 20.5379 56.5839 20.5513 56.5272C20.5647 56.4705 20.6001 56.4215 20.6497 56.3909L21.1969 56.05C21.2304 56.0301 21.2685 56.0194 21.3074 56.0188C21.3463 56.0183 21.3847 56.0279 21.4188 56.0468C21.4528 56.0658 21.4813 56.0933 21.5014 56.1266C21.5215 56.16 21.5325 56.1981 21.5332 56.237V58.8483Z" fill="#FAFAFA"/>
<path d="M19.9526 58.8483C19.9509 58.9054 19.927 58.9596 19.886 58.9994C19.845 59.0392 19.7901 59.0614 19.7329 59.0614C19.6758 59.0614 19.6209 59.0392 19.5799 58.9994C19.5389 58.9596 19.5149 58.9054 19.5132 58.8483V56.6328L19.2999 56.7646C19.2504 56.7939 19.1914 56.8026 19.1355 56.7888C19.0797 56.775 19.0314 56.7399 19.0012 56.6909C18.971 56.642 18.9612 56.5831 18.9739 56.527C18.9867 56.4709 19.0209 56.422 19.0693 56.3909L19.6165 56.05C19.65 56.0301 19.6881 56.0194 19.727 56.0188C19.766 56.0183 19.8044 56.0279 19.8384 56.0468C19.8724 56.0658 19.9009 56.0933 19.921 56.1266C19.9411 56.16 19.9521 56.1981 19.9528 56.237L19.9526 58.8483Z" fill="#FAFAFA"/>
<path d="M21.5332 58.8483C21.5332 58.9066 21.5101 58.9625 21.4689 59.0038C21.4276 59.045 21.3717 59.0681 21.3134 59.0681C21.2551 59.0681 21.1992 59.045 21.158 59.0038C21.1168 58.9625 21.0936 58.9066 21.0936 58.8483V56.6328L20.8805 56.7646C20.831 56.7952 20.7713 56.8049 20.7146 56.7915C20.6579 56.7781 20.6088 56.7427 20.5782 56.6932C20.5476 56.6436 20.5379 56.5839 20.5513 56.5272C20.5647 56.4705 20.6001 56.4215 20.6497 56.3909L21.1969 56.05C21.2304 56.0301 21.2685 56.0194 21.3074 56.0188C21.3463 56.0183 21.3847 56.0279 21.4188 56.0468C21.4528 56.0658 21.4813 56.0933 21.5014 56.1266C21.5215 56.16 21.5325 56.1981 21.5332 56.237V58.8483Z" fill="#FAFAFA"/>
<path d="M19.3394 56.332H21.6311" stroke="#191919" stroke-width="0.343756" stroke-linecap="round" stroke-linejoin="round"/>
<path d="M20.4854 57.4792V55.1875" stroke="#191919" stroke-width="0.343756" stroke-linecap="round" stroke-linejoin="round"/>
</g>
<g clip-path="url(#clip1_8758_19406)">
<path d="M60.3704 51.8673C60.7393 51.8668 61.0929 51.7201 61.3538 51.4593C61.6146 51.1984 61.7613 50.8448 61.7618 50.4759V49.9944C60.8416 50.1677 59.8966 50.161 58.979 49.9746V50.4759C58.9794 50.8448 59.1262 51.1984 59.387 51.4593C59.6479 51.7201 60.0015 51.8668 60.3704 51.8673Z" fill="#FAFAFA"/>
<path d="M66.0703 54.6215L64.9293 52.2233C64.7142 51.7743 64.335 51.425 63.87 51.2472L62.9993 50.9154C62.6548 50.8135 62.4033 50.4088 62.2013 50.1328V50.4102C62.2095 50.666 62.1643 50.9208 62.0686 51.1582C61.9729 51.3956 61.8287 51.6104 61.6453 51.789C61.4619 51.9675 61.2433 52.1059 61.0034 52.1953C60.7636 52.2846 60.5077 52.323 60.2522 52.3079C59.9966 52.2928 59.7471 52.2247 59.5193 52.1077C59.2916 51.9908 59.0908 51.8277 58.9297 51.6288C58.7685 51.4299 58.6506 51.1997 58.5835 50.9526C58.5163 50.7056 58.5014 50.4473 58.5396 50.1942C58.3891 50.4837 58.1428 50.7121 57.8428 50.8404L57.0272 51.1329C56.5591 51.2985 56.1731 51.6388 55.9501 52.0824L54.6706 54.6215C54.6528 54.66 54.6509 54.7039 54.6653 54.7438C54.6797 54.7837 54.7093 54.8163 54.7475 54.8346L56.4518 55.6096C56.4838 55.6242 56.5189 55.6309 56.554 55.6291C56.5892 55.6274 56.6234 55.6172 56.6538 55.5995C56.6842 55.5818 56.7099 55.557 56.7287 55.5273C56.7476 55.4976 56.759 55.4638 56.7621 55.4287L56.8247 54.7144C56.8313 54.6571 56.8599 54.6046 56.9046 54.5681C56.9492 54.5316 57.0064 54.514 57.0639 54.519C57.1213 54.524 57.1745 54.5513 57.2122 54.595C57.2498 54.6387 57.2689 54.6954 57.2654 54.7529L56.7347 60.7851C56.7345 60.8279 56.7431 60.8703 56.7599 60.9097C56.7767 60.9491 56.8015 60.9847 56.8326 61.0141C56.8637 61.0436 56.9005 61.0663 56.9407 61.081C56.981 61.0957 57.0238 61.1019 57.0666 61.0994H63.6919C63.7348 61.1019 63.7778 61.0956 63.8182 61.0808C63.8586 61.066 63.8956 61.0431 63.9267 61.0133C63.9578 60.9836 63.9825 60.9479 63.9992 60.9082C64.0159 60.8685 64.0243 60.8259 64.0237 60.7828C63.9298 59.7762 63.5412 55.671 63.4551 54.7542C63.451 54.6968 63.4694 54.6401 63.5066 54.5962C63.5438 54.5523 63.5967 54.5247 63.6539 54.5193C63.7112 54.5139 63.7683 54.5311 63.813 54.5673C63.8577 54.6035 63.8865 54.6558 63.8931 54.7129L63.9598 55.42C63.9631 55.4547 63.9746 55.4882 63.9934 55.5176C64.0122 55.547 64.0377 55.5715 64.0679 55.5891C64.098 55.6067 64.1319 55.6168 64.1667 55.6187C64.2016 55.6206 64.2364 55.6142 64.2682 55.6L65.9933 54.8303C66.031 54.8125 66.0602 54.7806 66.0746 54.7415C66.089 54.7024 66.0875 54.6595 66.0703 54.6215ZM59.9526 58.8483C59.9509 58.9054 59.927 58.9596 59.886 58.9994C59.845 59.0392 59.7901 59.0614 59.7329 59.0614C59.6758 59.0614 59.6209 59.0392 59.5799 58.9994C59.5389 58.9596 59.5149 58.9054 59.5132 58.8483V56.6328L59.2999 56.7646C59.2504 56.7939 59.1914 56.8026 59.1355 56.7888C59.0797 56.775 59.0314 56.7399 59.0012 56.6909C58.971 56.642 58.9612 56.5831 58.9739 56.527C58.9867 56.4709 59.0209 56.422 59.0693 56.3909L59.6165 56.05C59.65 56.0301 59.6881 56.0194 59.727 56.0188C59.766 56.0183 59.8044 56.0279 59.8384 56.0468C59.8724 56.0658 59.9009 56.0933 59.921 56.1266C59.9411 56.16 59.9521 56.1981 59.9528 56.237L59.9526 58.8483ZM61.5332 58.8483C61.5332 58.9066 61.5101 58.9625 61.4689 59.0038C61.4276 59.045 61.3717 59.0681 61.3134 59.0681C61.2551 59.0681 61.1992 59.045 61.158 59.0038C61.1168 58.9625 61.0936 58.9066 61.0936 58.8483V56.6328L60.8805 56.7646C60.831 56.7952 60.7713 56.8049 60.7146 56.7915C60.6579 56.7781 60.6088 56.7427 60.5782 56.6932C60.5476 56.6436 60.5379 56.5839 60.5513 56.5272C60.5647 56.4705 60.6001 56.4215 60.6497 56.3909L61.1969 56.05C61.2304 56.0301 61.2685 56.0194 61.3074 56.0188C61.3463 56.0183 61.3847 56.0279 61.4188 56.0468C61.4528 56.0658 61.4813 56.0933 61.5014 56.1266C61.5215 56.16 61.5325 56.1981 61.5332 56.237V58.8483Z" fill="#FAFAFA"/>
<path d="M59.9526 58.8483C59.9509 58.9054 59.927 58.9596 59.886 58.9994C59.845 59.0392 59.7901 59.0614 59.7329 59.0614C59.6758 59.0614 59.6209 59.0392 59.5799 58.9994C59.5389 58.9596 59.5149 58.9054 59.5132 58.8483V56.6328L59.2999 56.7646C59.2504 56.7939 59.1914 56.8026 59.1355 56.7888C59.0797 56.775 59.0314 56.7399 59.0012 56.6909C58.971 56.642 58.9612 56.5831 58.9739 56.527C58.9867 56.4709 59.0209 56.422 59.0693 56.3909L59.6165 56.05C59.65 56.0301 59.6881 56.0194 59.727 56.0188C59.766 56.0183 59.8044 56.0279 59.8384 56.0468C59.8724 56.0658 59.9009 56.0933 59.921 56.1266C59.9411 56.16 59.9521 56.1981 59.9528 56.237L59.9526 58.8483Z" fill="#FAFAFA"/>
<path d="M61.5332 58.8483C61.5332 58.9066 61.5101 58.9625 61.4689 59.0038C61.4276 59.045 61.3717 59.0681 61.3134 59.0681C61.2551 59.0681 61.1992 59.045 61.158 59.0038C61.1168 58.9625 61.0936 58.9066 61.0936 58.8483V56.6328L60.8805 56.7646C60.831 56.7952 60.7713 56.8049 60.7146 56.7915C60.6579 56.7781 60.6088 56.7427 60.5782 56.6932C60.5476 56.6436 60.5379 56.5839 60.5513 56.5272C60.5647 56.4705 60.6001 56.4215 60.6497 56.3909L61.1969 56.05C61.2304 56.0301 61.2685 56.0194 61.3074 56.0188C61.3463 56.0183 61.3847 56.0279 61.4188 56.0468C61.4528 56.0658 61.4813 56.0933 61.5014 56.1266C61.5215 56.16 61.5325 56.1981 61.5332 56.237V58.8483Z" fill="#FAFAFA"/>
<path d="M59.3394 56.332H61.6311" stroke="#191919" stroke-width="0.343756" stroke-linecap="round" stroke-linejoin="round"/>
<path d="M60.4849 57.4792V55.1875" stroke="#191919" stroke-width="0.343756" stroke-linecap="round" stroke-linejoin="round"/>
</g>
<g clip-path="url(#clip2_8758_19406)">
<path d="M61.3704 13.8673C61.7393 13.8668 62.0929 13.7201 62.3538 13.4593C62.6146 13.1984 62.7613 12.8448 62.7618 12.4759V11.9944C61.8416 12.1677 60.8966 12.161 59.979 11.9746V12.4759C59.9794 12.8448 60.1262 13.1984 60.387 13.4593C60.6479 13.7201 61.0015 13.8668 61.3704 13.8673Z" fill="#FAFAFA"/>
<path d="M67.0703 16.6215L65.9293 14.2233C65.7142 13.7743 65.335 13.425 64.87 13.2472L63.9993 12.9154C63.6548 12.8135 63.4033 12.4088 63.2013 12.1328V12.4102C63.2095 12.666 63.1643 12.9208 63.0686 13.1582C62.9729 13.3956 62.8287 13.6104 62.6453 13.789C62.4619 13.9675 62.2433 14.1059 62.0034 14.1953C61.7636 14.2846 61.5077 14.323 61.2522 14.3079C60.9966 14.2928 60.7471 14.2247 60.5193 14.1077C60.2916 13.9908 60.0908 13.8277 59.9297 13.6288C59.7685 13.4299 59.6506 13.1997 59.5835 12.9526C59.5163 12.7056 59.5014 12.4473 59.5396 12.1942C59.3891 12.4837 59.1428 12.7121 58.8428 12.8404L58.0272 13.1329C57.5591 13.2985 57.1731 13.6388 56.9501 14.0824L55.6706 16.6215C55.6528 16.66 55.6509 16.7039 55.6653 16.7438C55.6797 16.7837 55.7093 16.8163 55.7475 16.8346L57.4518 17.6096C57.4838 17.6242 57.5189 17.6309 57.554 17.6291C57.5892 17.6274 57.6234 17.6172 57.6538 17.5995C57.6842 17.5818 57.7099 17.557 57.7287 17.5273C57.7476 17.4976 57.759 17.4638 57.7621 17.4287L57.8247 16.7144C57.8313 16.6571 57.8599 16.6046 57.9046 16.5681C57.9492 16.5316 58.0064 16.514 58.0639 16.519C58.1213 16.524 58.1745 16.5513 58.2122 16.595C58.2498 16.6387 58.2689 16.6954 58.2654 16.7529L57.7347 22.7851C57.7345 22.8279 57.7431 22.8703 57.7599 22.9097C57.7767 22.9491 57.8015 22.9847 57.8326 23.0141C57.8637 23.0436 57.9005 23.0663 57.9407 23.081C57.981 23.0957 58.0238 23.1019 58.0666 23.0994H64.6919C64.7348 23.1019 64.7778 23.0956 64.8182 23.0808C64.8586 23.066 64.8956 23.0431 64.9267 23.0133C64.9578 22.9836 64.9825 22.9479 64.9992 22.9082C65.0159 22.8685 65.0243 22.8259 65.0237 22.7828C64.9298 21.7762 64.5412 17.671 64.4551 16.7542C64.451 16.6968 64.4694 16.6401 64.5066 16.5962C64.5438 16.5523 64.5967 16.5247 64.6539 16.5193C64.7112 16.5139 64.7683 16.5311 64.813 16.5673C64.8577 16.6035 64.8865 16.6558 64.8931 16.7129L64.9598 17.42C64.9631 17.4547 64.9746 17.4882 64.9934 17.5176C65.0122 17.547 65.0377 17.5715 65.0679 17.5891C65.098 17.6067 65.1319 17.6168 65.1667 17.6187C65.2016 17.6206 65.2364 17.6142 65.2682 17.6L66.9933 16.8303C67.031 16.8125 67.0602 16.7806 67.0746 16.7415C67.089 16.7024 67.0875 16.6595 67.0703 16.6215ZM60.9526 20.8483C60.9509 20.9054 60.927 20.9596 60.886 20.9994C60.845 21.0392 60.7901 21.0614 60.7329 21.0614C60.6758 21.0614 60.6209 21.0392 60.5799 20.9994C60.5389 20.9596 60.5149 20.9054 60.5132 20.8483V18.6328L60.2999 18.7646C60.2504 18.7939 60.1914 18.8026 60.1355 18.7888C60.0797 18.775 60.0314 18.7399 60.0012 18.6909C59.971 18.642 59.9612 18.5831 59.9739 18.527C59.9867 18.4709 60.0209 18.422 60.0693 18.3909L60.6165 18.05C60.65 18.0301 60.6881 18.0194 60.727 18.0188C60.766 18.0183 60.8044 18.0279 60.8384 18.0468C60.8724 18.0658 60.9009 18.0933 60.921 18.1266C60.9411 18.16 60.9521 18.1981 60.9528 18.237L60.9526 20.8483ZM62.5332 20.8483C62.5332 20.9066 62.5101 20.9625 62.4689 21.0038C62.4276 21.045 62.3717 21.0681 62.3134 21.0681C62.2551 21.0681 62.1992 21.045 62.158 21.0038C62.1168 20.9625 62.0936 20.9066 62.0936 20.8483V18.6328L61.8805 18.7646C61.831 18.7952 61.7713 18.8049 61.7146 18.7915C61.6579 18.7781 61.6088 18.7427 61.5782 18.6932C61.5476 18.6436 61.5379 18.5839 61.5513 18.5272C61.5647 18.4705 61.6001 18.4215 61.6497 18.3909L62.1969 18.05C62.2304 18.0301 62.2685 18.0194 62.3074 18.0188C62.3463 18.0183 62.3847 18.0279 62.4188 18.0468C62.4528 18.0658 62.4813 18.0933 62.5014 18.1266C62.5215 18.16 62.5325 18.1981 62.5332 18.237V20.8483Z" fill="#FAFAFA"/>
<path d="M60.9526 20.8483C60.9509 20.9054 60.927 20.9596 60.886 20.9994C60.845 21.0392 60.7901 21.0614 60.7329 21.0614C60.6758 21.0614 60.6209 21.0392 60.5799 20.9994C60.5389 20.9596 60.5149 20.9054 60.5132 20.8483V18.6328L60.2999 18.7646C60.2504 18.7939 60.1914 18.8026 60.1355 18.7888C60.0797 18.775 60.0314 18.7399 60.0012 18.6909C59.971 18.642 59.9612 18.5831 59.9739 18.527C59.9867 18.4709 60.0209 18.422 60.0693 18.3909L60.6165 18.05C60.65 18.0301 60.6881 18.0194 60.727 18.0188C60.766 18.0183 60.8044 18.0279 60.8384 18.0468C60.8724 18.0658 60.9009 18.0933 60.921 18.1266C60.9411 18.16 60.9521 18.1981 60.9528 18.237L60.9526 20.8483Z" fill="#FAFAFA"/>
<path d="M62.5332 20.8483C62.5332 20.9066 62.5101 20.9625 62.4689 21.0038C62.4276 21.045 62.3717 21.0681 62.3134 21.0681C62.2551 21.0681 62.1992 21.045 62.158 21.0038C62.1168 20.9625 62.0936 20.9066 62.0936 20.8483V18.6328L61.8805 18.7646C61.831 18.7952 61.7713 18.8049 61.7146 18.7915C61.6579 18.7781 61.6088 18.7427 61.5782 18.6932C61.5476 18.6436 61.5379 18.5839 61.5513 18.5272C61.5647 18.4705 61.6001 18.4215 61.6497 18.3909L62.1969 18.05C62.2304 18.0301 62.2685 18.0194 62.3074 18.0188C62.3463 18.0183 62.3847 18.0279 62.4188 18.0468C62.4528 18.0658 62.4813 18.0933 62.5014 18.1266C62.5215 18.16 62.5325 18.1981 62.5332 18.237V20.8483Z" fill="#FAFAFA"/>
<path d="M60.3394 18.332H62.6311" stroke="#191919" stroke-width="0.343756" stroke-linecap="round" stroke-linejoin="round"/>
<path d="M61.4849 19.4792V17.1875" stroke="#191919" stroke-width="0.343756" stroke-linecap="round" stroke-linejoin="round"/>
</g>
<g clip-path="url(#clip3_8758_19406)">
<path d="M41.3704 53.8673C41.7393 53.8668 42.0929 53.7201 42.3538 53.4593C42.6146 53.1984 42.7613 52.8448 42.7618 52.4759V51.9944C41.8416 52.1677 40.8966 52.161 39.979 51.9746V52.4759C39.9794 52.8448 40.1262 53.1984 40.387 53.4593C40.6479 53.7201 41.0015 53.8668 41.3704 53.8673Z" fill="#FAFAFA"/>
<path d="M47.0703 56.6215L45.9293 54.2233C45.7142 53.7743 45.335 53.425 44.87 53.2472L43.9993 52.9154C43.6548 52.8135 43.4033 52.4088 43.2013 52.1328V52.4102C43.2095 52.666 43.1643 52.9208 43.0686 53.1582C42.9729 53.3956 42.8287 53.6104 42.6453 53.789C42.4619 53.9675 42.2433 54.1059 42.0034 54.1953C41.7636 54.2846 41.5077 54.323 41.2522 54.3079C40.9966 54.2928 40.7471 54.2247 40.5193 54.1077C40.2916 53.9908 40.0908 53.8277 39.9297 53.6288C39.7685 53.4299 39.6506 53.1997 39.5835 52.9526C39.5163 52.7056 39.5014 52.4473 39.5396 52.1942C39.3891 52.4837 39.1428 52.7121 38.8428 52.8404L38.0272 53.1329C37.5591 53.2985 37.1731 53.6388 36.9501 54.0824L35.6706 56.6215C35.6528 56.66 35.6509 56.7039 35.6653 56.7438C35.6797 56.7837 35.7093 56.8163 35.7475 56.8346L37.4518 57.6096C37.4838 57.6242 37.5189 57.6309 37.554 57.6291C37.5892 57.6274 37.6234 57.6172 37.6538 57.5995C37.6842 57.5818 37.7099 57.557 37.7287 57.5273C37.7476 57.4976 37.759 57.4638 37.7621 57.4287L37.8247 56.7144C37.8313 56.6571 37.8599 56.6046 37.9046 56.5681C37.9492 56.5316 38.0064 56.514 38.0639 56.519C38.1213 56.524 38.1745 56.5513 38.2122 56.595C38.2498 56.6387 38.2689 56.6954 38.2654 56.7529L37.7347 62.7851C37.7345 62.8279 37.7431 62.8703 37.7599 62.9097C37.7767 62.9491 37.8015 62.9847 37.8326 63.0141C37.8637 63.0436 37.9005 63.0663 37.9407 63.081C37.981 63.0957 38.0238 63.1019 38.0666 63.0994H44.6919C44.7348 63.1019 44.7778 63.0956 44.8182 63.0808C44.8586 63.066 44.8956 63.0431 44.9267 63.0133C44.9578 62.9836 44.9825 62.9479 44.9992 62.9082C45.0159 62.8685 45.0243 62.8259 45.0237 62.7828C44.9298 61.7762 44.5412 57.671 44.4551 56.7542C44.451 56.6968 44.4694 56.6401 44.5066 56.5962C44.5438 56.5523 44.5967 56.5247 44.6539 56.5193C44.7112 56.5139 44.7683 56.5311 44.813 56.5673C44.8577 56.6035 44.8865 56.6558 44.8931 56.7129L44.9598 57.42C44.9631 57.4547 44.9746 57.4882 44.9934 57.5176C45.0122 57.547 45.0377 57.5715 45.0679 57.5891C45.098 57.6067 45.1319 57.6168 45.1667 57.6187C45.2016 57.6206 45.2364 57.6142 45.2682 57.6L46.9933 56.8303C47.031 56.8125 47.0602 56.7806 47.0746 56.7415C47.089 56.7024 47.0875 56.6595 47.0703 56.6215ZM40.9526 60.8483C40.9509 60.9054 40.927 60.9596 40.886 60.9994C40.845 61.0392 40.7901 61.0614 40.7329 61.0614C40.6758 61.0614 40.6209 61.0392 40.5799 60.9994C40.5389 60.9596 40.5149 60.9054 40.5132 60.8483V58.6328L40.2999 58.7646C40.2504 58.7939 40.1914 58.8026 40.1355 58.7888C40.0797 58.775 40.0314 58.7399 40.0012 58.6909C39.971 58.642 39.9612 58.5831 39.9739 58.527C39.9867 58.4709 40.0209 58.422 40.0693 58.3909L40.6165 58.05C40.65 58.0301 40.6881 58.0194 40.727 58.0188C40.766 58.0183 40.8044 58.0279 40.8384 58.0468C40.8724 58.0658 40.9009 58.0933 40.921 58.1266C40.9411 58.16 40.9521 58.1981 40.9528 58.237L40.9526 60.8483ZM42.5332 60.8483C42.5332 60.9066 42.5101 60.9625 42.4689 61.0038C42.4276 61.045 42.3717 61.0681 42.3134 61.0681C42.2551 61.0681 42.1992 61.045 42.158 61.0038C42.1168 60.9625 42.0936 60.9066 42.0936 60.8483V58.6328L41.8805 58.7646C41.831 58.7952 41.7713 58.8049 41.7146 58.7915C41.6579 58.7781 41.6088 58.7427 41.5782 58.6932C41.5476 58.6436 41.5379 58.5839 41.5513 58.5272C41.5647 58.4705 41.6001 58.4215 41.6497 58.3909L42.1969 58.05C42.2304 58.0301 42.2685 58.0194 42.3074 58.0188C42.3463 58.0183 42.3847 58.0279 42.4188 58.0468C42.4528 58.0658 42.4813 58.0933 42.5014 58.1266C42.5215 58.16 42.5325 58.1981 42.5332 58.237V60.8483Z" fill="#FAFAFA"/>
<path d="M40.9526 60.8483C40.9509 60.9054 40.927 60.9596 40.886 60.9994C40.845 61.0392 40.7901 61.0614 40.7329 61.0614C40.6758 61.0614 40.6209 61.0392 40.5799 60.9994C40.5389 60.9596 40.5149 60.9054 40.5132 60.8483V58.6328L40.2999 58.7646C40.2504 58.7939 40.1914 58.8026 40.1355 58.7888C40.0797 58.775 40.0314 58.7399 40.0012 58.6909C39.971 58.642 39.9612 58.5831 39.9739 58.527C39.9867 58.4709 40.0209 58.422 40.0693 58.3909L40.6165 58.05C40.65 58.0301 40.6881 58.0194 40.727 58.0188C40.766 58.0183 40.8044 58.0279 40.8384 58.0468C40.8724 58.0658 40.9009 58.0933 40.921 58.1266C40.9411 58.16 40.9521 58.1981 40.9528 58.237L40.9526 60.8483Z" fill="#FAFAFA"/>
<path d="M42.5332 60.8483C42.5332 60.9066 42.5101 60.9625 42.4689 61.0038C42.4276 61.045 42.3717 61.0681 42.3134 61.0681C42.2551 61.0681 42.1992 61.045 42.158 61.0038C42.1168 60.9625 42.0936 60.9066 42.0936 60.8483V58.6328L41.8805 58.7646C41.831 58.7952 41.7713 58.8049 41.7146 58.7915C41.6579 58.7781 41.6088 58.7427 41.5782 58.6932C41.5476 58.6436 41.5379 58.5839 41.5513 58.5272C41.5647 58.4705 41.6001 58.4215 41.6497 58.3909L42.1969 58.05C42.2304 58.0301 42.2685 58.0194 42.3074 58.0188C42.3463 58.0183 42.3847 58.0279 42.4188 58.0468C42.4528 58.0658 42.4813 58.0933 42.5014 58.1266C42.5215 58.16 42.5325 58.1981 42.5332 58.237V60.8483Z" fill="#FAFAFA"/>
<path d="M40.3394 58.332H42.6311" stroke="#191919" stroke-width="0.343756" stroke-linecap="round" stroke-linejoin="round"/>
<path d="M41.4854 59.4792V57.1875" stroke="#191919" stroke-width="0.343756" stroke-linecap="round" stroke-linejoin="round"/>
</g>
<g clip-path="url(#clip4_8758_19406)">
<path d="M9.30789 32.8673C9.67678 32.8668 10.0304 32.7201 10.2913 32.4593C10.5521 32.1984 10.6988 31.8448 10.6993 31.4759V30.9944C9.77913 31.1677 8.8341 31.161 7.9165 30.9746V31.4759C7.91694 31.8448 8.06367 32.1984 8.32451 32.4593C8.58535 32.7201 8.939 32.8668 9.30789 32.8673Z" fill="#FAFAFA"/>
<path d="M15.0078 35.6215L13.8668 33.2233C13.6517 32.7743 13.2725 32.425 12.8075 32.2472L11.9368 31.9154C11.5923 31.8135 11.3408 31.4088 11.1388 31.1328V31.4102C11.147 31.666 11.1018 31.9208 11.0061 32.1582C10.9104 32.3956 10.7662 32.6104 10.5828 32.789C10.3994 32.9675 10.1808 33.1059 9.94093 33.1953C9.70106 33.2846 9.44519 33.323 9.18966 33.3079C8.93414 33.2928 8.68455 33.2247 8.45685 33.1077C8.22914 32.9908 8.02831 32.8277 7.86717 32.6288C7.70603 32.4299 7.58811 32.1997 7.52096 31.9526C7.4538 31.7056 7.43887 31.4473 7.47712 31.1942C7.32656 31.4837 7.08031 31.7121 6.78031 31.8404L5.9647 32.1329C5.49657 32.2985 5.11063 32.6388 4.88764 33.0824L3.6081 35.6215C3.59033 35.66 3.58845 35.7039 3.60285 35.7438C3.61725 35.7837 3.64678 35.8163 3.68505 35.8346L5.38933 36.6096C5.42134 36.6242 5.45639 36.6309 5.49153 36.6291C5.52668 36.6274 5.56088 36.6172 5.59128 36.5995C5.62168 36.5818 5.64738 36.557 5.66623 36.5273C5.68507 36.4976 5.69651 36.4638 5.69957 36.4287L5.76223 35.7144C5.76876 35.6571 5.79741 35.6046 5.84208 35.5681C5.88675 35.5316 5.9439 35.514 6.00135 35.519C6.05881 35.524 6.11203 35.5513 6.14968 35.595C6.18732 35.6387 6.20642 35.6954 6.20289 35.7529L5.67222 41.7851C5.672 41.8279 5.68058 41.8703 5.69741 41.9097C5.71424 41.9491 5.73897 41.9847 5.77008 42.0141C5.80118 42.0436 5.838 42.0663 5.87825 42.081C5.9185 42.0957 5.96133 42.1019 6.0041 42.0994H12.6294C12.6723 42.1019 12.7153 42.0956 12.7557 42.0808C12.7961 42.066 12.8331 42.0431 12.8642 42.0133C12.8953 41.9836 12.92 41.9479 12.9367 41.9082C12.9534 41.8685 12.9618 41.8259 12.9612 41.7828C12.8673 40.7762 12.4787 36.671 12.3926 35.7542C12.3885 35.6968 12.4069 35.6401 12.4441 35.5962C12.4813 35.5523 12.5342 35.5247 12.5914 35.5193C12.6487 35.5139 12.7058 35.5311 12.7505 35.5673C12.7952 35.6035 12.824 35.6558 12.8306 35.7129L12.8973 36.42C12.9006 36.4547 12.9121 36.4882 12.9309 36.5176C12.9497 36.547 12.9752 36.5715 13.0054 36.5891C13.0355 36.6067 13.0694 36.6168 13.1042 36.6187C13.1391 36.6206 13.1739 36.6142 13.2057 36.6L14.9308 35.8303C14.9685 35.8125 14.9977 35.7806 15.0121 35.7415C15.0265 35.7024 15.025 35.6595 15.0078 35.6215ZM8.89015 39.8483C8.8884 39.9054 8.86449 39.9596 8.82348 39.9994C8.78246 40.0392 8.72757 40.0614 8.67043 40.0614C8.61329 40.0614 8.55839 40.0392 8.51737 39.9994C8.47636 39.9596 8.45245 39.9054 8.45071 39.8483V37.6328L8.23742 37.7646C8.1879 37.7939 8.12887 37.8026 8.07301 37.7888C8.01716 37.775 7.96894 37.7399 7.93873 37.6909C7.90851 37.642 7.89871 37.5831 7.91144 37.527C7.92417 37.4709 7.9584 37.422 8.00678 37.3909L8.55398 37.05C8.58746 37.0301 8.62558 37.0194 8.66452 37.0188C8.70345 37.0183 8.74186 37.0279 8.7759 37.0468C8.80994 37.0658 8.83842 37.0933 8.8585 37.1266C8.87858 37.16 8.88957 37.1981 8.89035 37.237L8.89015 39.8483ZM10.4707 39.8483C10.4707 39.9066 10.4476 39.9625 10.4064 40.0038C10.3651 40.045 10.3092 40.0681 10.2509 40.0681C10.1926 40.0681 10.1367 40.045 10.0955 40.0038C10.0543 39.9625 10.0311 39.9066 10.0311 39.8483V37.6328L9.81801 37.7646C9.76845 37.7952 9.70876 37.8049 9.65207 37.7915C9.59538 37.7781 9.54634 37.7427 9.51573 37.6932C9.48512 37.6436 9.47545 37.5839 9.48884 37.5272C9.50224 37.4705 9.53761 37.4215 9.58717 37.3909L10.1344 37.05C10.1679 37.0301 10.206 37.0194 10.2449 37.0188C10.2838 37.0183 10.3222 37.0279 10.3563 37.0468C10.3903 37.0658 10.4188 37.0933 10.4389 37.1266C10.459 37.16 10.47 37.1981 10.4707 37.237V39.8483Z" fill="#FAFAFA"/>
<path d="M8.89015 39.8483C8.8884 39.9054 8.86449 39.9596 8.82348 39.9994C8.78246 40.0392 8.72757 40.0614 8.67043 40.0614C8.61329 40.0614 8.55839 40.0392 8.51737 39.9994C8.47636 39.9596 8.45245 39.9054 8.45071 39.8483V37.6328L8.23742 37.7646C8.1879 37.7939 8.12887 37.8026 8.07301 37.7888C8.01716 37.775 7.96894 37.7399 7.93873 37.6909C7.90851 37.642 7.89871 37.5831 7.91144 37.527C7.92417 37.4709 7.9584 37.422 8.00678 37.3909L8.55398 37.05C8.58746 37.0301 8.62558 37.0194 8.66452 37.0188C8.70345 37.0183 8.74186 37.0279 8.7759 37.0468C8.80994 37.0658 8.83842 37.0933 8.8585 37.1266C8.87858 37.16 8.88957 37.1981 8.89035 37.237L8.89015 39.8483Z" fill="#FAFAFA"/>
<path d="M10.4707 39.8483C10.4707 39.9066 10.4476 39.9625 10.4064 40.0038C10.3651 40.045 10.3092 40.0681 10.2509 40.0681C10.1926 40.0681 10.1367 40.045 10.0955 40.0038C10.0543 39.9625 10.0311 39.9066 10.0311 39.8483V37.6328L9.81801 37.7646C9.76845 37.7952 9.70876 37.8049 9.65207 37.7915C9.59538 37.7781 9.54634 37.7427 9.51573 37.6932C9.48512 37.6436 9.47545 37.5839 9.48884 37.5272C9.50224 37.4705 9.53761 37.4215 9.58717 37.3909L10.1344 37.05C10.1679 37.0301 10.206 37.0194 10.2449 37.0188C10.2838 37.0183 10.3222 37.0279 10.3563 37.0468C10.3903 37.0658 10.4188 37.0933 10.4389 37.1266C10.459 37.16 10.47 37.1981 10.4707 37.237V39.8483Z" fill="#FAFAFA"/>
<path d="M8.27686 37.332H10.5686" stroke="#191919" stroke-width="0.343756" stroke-linecap="round" stroke-linejoin="round"/>
<path d="M9.42285 38.4792V36.1875" stroke="#191919" stroke-width="0.343756" stroke-linecap="round" stroke-linejoin="round"/>
</g>
<g clip-path="url(#clip5_8758_19406)">
<path d="M27.3706 35.8673C27.7395 35.8668 28.0932 35.7201 28.354 35.4593C28.6149 35.1984 28.7616 34.8448 28.762 34.4759V33.9944C27.8419 34.1677 26.8968 34.161 25.9792 33.9746V34.4759C25.9797 34.8448 26.1264 35.1984 26.3873 35.4593C26.6481 35.7201 27.0017 35.8668 27.3706 35.8673Z" fill="#FAFAFA"/>
<path d="M33.0705 38.6215L31.9296 36.2233C31.7144 35.7743 31.3353 35.425 30.8703 35.2472L29.9996 34.9154C29.655 34.8135 29.4036 34.4088 29.2015 34.1328V34.4102C29.2098 34.666 29.1646 34.9208 29.0688 35.1582C28.9731 35.3956 28.829 35.6104 28.6456 35.789C28.4622 35.9675 28.2435 36.1059 28.0037 36.1953C27.7638 36.2846 27.5079 36.323 27.2524 36.3079C26.9969 36.2928 26.7473 36.2247 26.5196 36.1077C26.2919 35.9908 26.0911 35.8277 25.9299 35.6288C25.7688 35.4299 25.6509 35.1997 25.5837 34.9526C25.5165 34.7056 25.5016 34.4473 25.5399 34.1942C25.3893 34.4837 25.1431 34.7121 24.8431 34.8404L24.0274 35.1329C23.5593 35.2985 23.1734 35.6388 22.9504 36.0824L21.6708 38.6215C21.6531 38.66 21.6512 38.7039 21.6656 38.7438C21.68 38.7837 21.7095 38.8163 21.7478 38.8346L23.4521 39.6096C23.4841 39.6242 23.5191 39.6309 23.5543 39.6291C23.5894 39.6274 23.6236 39.6172 23.654 39.5995C23.6844 39.5818 23.7101 39.557 23.729 39.5273C23.7478 39.4976 23.7592 39.4638 23.7623 39.4287L23.825 38.7144C23.8315 38.6571 23.8602 38.6046 23.9048 38.5681C23.9495 38.5316 24.0066 38.514 24.0641 38.519C24.1216 38.524 24.1748 38.5513 24.2124 38.595C24.2501 38.6387 24.2692 38.6954 24.2656 38.7529L23.735 44.7851C23.7347 44.8279 23.7433 44.8703 23.7602 44.9097C23.777 44.9491 23.8017 44.9847 23.8328 45.0141C23.8639 45.0436 23.9007 45.0663 23.941 45.081C23.9812 45.0957 24.0241 45.1019 24.0668 45.0994H30.6921C30.7351 45.1019 30.7781 45.0956 30.8185 45.0808C30.8589 45.066 30.8958 45.0431 30.9269 45.0133C30.9581 44.9836 30.9828 44.9479 30.9995 44.9082C31.0162 44.8685 31.0245 44.8259 31.024 44.7828C30.9301 43.7762 30.5415 39.671 30.4553 38.7542C30.4512 38.6968 30.4697 38.6401 30.5069 38.5962C30.544 38.5523 30.5969 38.5247 30.6542 38.5193C30.7114 38.5139 30.7685 38.5311 30.8133 38.5673C30.858 38.6035 30.8867 38.6558 30.8933 38.7129L30.9601 39.42C30.9634 39.4547 30.9749 39.4882 30.9937 39.5176C31.0125 39.547 31.038 39.5715 31.0681 39.5891C31.0983 39.6067 31.1321 39.6168 31.167 39.6187C31.2018 39.6206 31.2366 39.6142 31.2685 39.6L32.9936 38.8303C33.0313 38.8125 33.0605 38.7806 33.0749 38.7415C33.0892 38.7024 33.0877 38.6595 33.0705 38.6215ZM26.9529 42.8483C26.9511 42.9054 26.9272 42.9596 26.8862 42.9994C26.8452 43.0392 26.7903 43.0614 26.7332 43.0614C26.676 43.0614 26.6211 43.0392 26.5801 42.9994C26.5391 42.9596 26.5152 42.9054 26.5135 42.8483V40.6328L26.3002 40.7646C26.2506 40.7939 26.1916 40.8026 26.1358 40.7888C26.0799 40.775 26.0317 40.7399 26.0015 40.6909C25.9713 40.642 25.9615 40.5831 25.9742 40.527C25.9869 40.4709 26.0211 40.422 26.0695 40.3909L26.6167 40.05C26.6502 40.0301 26.6883 40.0194 26.7273 40.0188C26.7662 40.0183 26.8046 40.0279 26.8386 40.0468C26.8727 40.0658 26.9012 40.0933 26.9212 40.1266C26.9413 40.16 26.9523 40.1981 26.9531 40.237L26.9529 42.8483ZM28.5335 42.8483C28.5335 42.9066 28.5103 42.9625 28.4691 43.0038C28.4279 43.045 28.372 43.0681 28.3137 43.0681C28.2554 43.0681 28.1994 43.045 28.1582 43.0038C28.117 42.9625 28.0938 42.9066 28.0938 42.8483V40.6328L27.8808 40.7646C27.8312 40.7952 27.7715 40.8049 27.7148 40.7915C27.6581 40.7781 27.6091 40.7427 27.5785 40.6932C27.5479 40.6436 27.5382 40.5839 27.5516 40.5272C27.565 40.4705 27.6004 40.4215 27.6499 40.3909L28.1971 40.05C28.2306 40.0301 28.2687 40.0194 28.3076 40.0188C28.3466 40.0183 28.385 40.0279 28.419 40.0468C28.4531 40.0658 28.4816 40.0933 28.5016 40.1266C28.5217 40.16 28.5327 40.1981 28.5335 40.237V42.8483Z" fill="#FAFAFA"/>
<path d="M26.9529 42.8483C26.9511 42.9054 26.9272 42.9596 26.8862 42.9994C26.8452 43.0392 26.7903 43.0614 26.7332 43.0614C26.676 43.0614 26.6211 43.0392 26.5801 42.9994C26.5391 42.9596 26.5152 42.9054 26.5135 42.8483V40.6328L26.3002 40.7646C26.2506 40.7939 26.1916 40.8026 26.1358 40.7888C26.0799 40.775 26.0317 40.7399 26.0015 40.6909C25.9713 40.642 25.9615 40.5831 25.9742 40.527C25.9869 40.4709 26.0211 40.422 26.0695 40.3909L26.6167 40.05C26.6502 40.0301 26.6883 40.0194 26.7273 40.0188C26.7662 40.0183 26.8046 40.0279 26.8386 40.0468C26.8727 40.0658 26.9012 40.0933 26.9212 40.1266C26.9413 40.16 26.9523 40.1981 26.9531 40.237L26.9529 42.8483Z" fill="#FAFAFA"/>
<path d="M28.5335 42.8483C28.5335 42.9066 28.5103 42.9625 28.4691 43.0038C28.4279 43.045 28.372 43.0681 28.3137 43.0681C28.2554 43.0681 28.1994 43.045 28.1582 43.0038C28.117 42.9625 28.0938 42.9066 28.0938 42.8483V40.6328L27.8808 40.7646C27.8312 40.7952 27.7715 40.8049 27.7148 40.7915C27.6581 40.7781 27.6091 40.7427 27.5785 40.6932C27.5479 40.6436 27.5382 40.5839 27.5516 40.5272C27.565 40.4705 27.6004 40.4215 27.6499 40.3909L28.1971 40.05C28.2306 40.0301 28.2687 40.0194 28.3076 40.0188C28.3466 40.0183 28.385 40.0279 28.419 40.0468C28.4531 40.0658 28.4816 40.0933 28.5016 40.1266C28.5217 40.16 28.5327 40.1981 28.5335 40.237V42.8483Z" fill="#FAFAFA"/>
<path d="M26.3396 40.332H28.6313" stroke="#191919" stroke-width="0.343756" stroke-linecap="round" stroke-linejoin="round"/>
<path d="M27.4856 41.4792V39.1875" stroke="#191919" stroke-width="0.343756" stroke-linecap="round" stroke-linejoin="round"/>
</g>
<g clip-path="url(#clip6_8758_19406)">
<path d="M72.4334 33.8673C72.8023 33.8668 73.1559 33.7201 73.4168 33.4593C73.6776 33.1984 73.8243 32.8448 73.8248 32.4759V31.9944C72.9046 32.1677 71.9596 32.161 71.042 31.9746V32.4759C71.0424 32.8448 71.1892 33.1984 71.45 33.4593C71.7108 33.7201 72.0645 33.8668 72.4334 33.8673Z" fill="#FAFAFA"/>
<path d="M78.1333 36.6215L76.9923 34.2233C76.7772 33.7743 76.398 33.425 75.933 33.2472L75.0623 32.9154C74.7178 32.8135 74.4663 32.4088 74.2643 32.1328V32.4102C74.2725 32.666 74.2273 32.9208 74.1316 33.1582C74.0359 33.3956 73.8917 33.6104 73.7083 33.789C73.5249 33.9675 73.3063 34.1059 73.0664 34.1953C72.8265 34.2846 72.5707 34.323 72.3152 34.3079C72.0596 34.2928 71.81 34.2247 71.5823 34.1077C71.3546 33.9908 71.1538 33.8277 70.9927 33.6288C70.8315 33.4299 70.7136 33.1997 70.6464 32.9526C70.5793 32.7056 70.5644 32.4473 70.6026 32.1942C70.452 32.4837 70.2058 32.7121 69.9058 32.8404L69.0902 33.1329C68.6221 33.2985 68.2361 33.6388 68.0131 34.0824L66.7336 36.6215C66.7158 36.66 66.7139 36.7039 66.7283 36.7438C66.7427 36.7837 66.7723 36.8163 66.8105 36.8346L68.5148 37.6096C68.5468 37.6242 68.5819 37.6309 68.617 37.6291C68.6522 37.6274 68.6864 37.6172 68.7168 37.5995C68.7472 37.5818 68.7729 37.557 68.7917 37.5273C68.8106 37.4976 68.822 37.4638 68.8251 37.4287L68.8877 36.7144C68.8943 36.6571 68.9229 36.6046 68.9676 36.5681C69.0122 36.5316 69.0694 36.514 69.1268 36.519C69.1843 36.524 69.2375 36.5513 69.2752 36.595C69.3128 36.6387 69.3319 36.6954 69.3284 36.7529L68.7977 42.7851C68.7975 42.8279 68.8061 42.8703 68.8229 42.9097C68.8397 42.9491 68.8645 42.9847 68.8956 43.0141C68.9267 43.0436 68.9635 43.0663 69.0037 43.081C69.044 43.0957 69.0868 43.1019 69.1296 43.0994H75.7548C75.7978 43.1019 75.8408 43.0956 75.8812 43.0808C75.9216 43.066 75.9586 43.0431 75.9897 43.0133C76.0208 42.9836 76.0455 42.9479 76.0622 42.9082C76.0789 42.8685 76.0872 42.8259 76.0867 42.7828C75.9928 41.7762 75.6042 37.671 75.5181 36.7542C75.5139 36.6968 75.5324 36.6401 75.5696 36.5962C75.6068 36.5523 75.6596 36.5247 75.7169 36.5193C75.7742 36.5139 75.8313 36.5311 75.876 36.5673C75.9207 36.6035 75.9495 36.6558 75.9561 36.7129L76.0228 37.42C76.0261 37.4547 76.0376 37.4882 76.0564 37.5176C76.0752 37.547 76.1007 37.5715 76.1309 37.5891C76.161 37.6067 76.1949 37.6168 76.2297 37.6187C76.2646 37.6206 76.2994 37.6142 76.3312 37.6L78.0563 36.8303C78.094 36.8125 78.1232 36.7806 78.1376 36.7415C78.152 36.7024 78.1504 36.6595 78.1333 36.6215ZM72.0156 40.8483C72.0139 40.9054 71.99 40.9596 71.949 40.9994C71.908 41.0392 71.8531 41.0614 71.7959 41.0614C71.7388 41.0614 71.6839 41.0392 71.6429 40.9994C71.6018 40.9596 71.5779 40.9054 71.5762 40.8483V38.6328L71.3629 38.7646C71.3134 38.7939 71.2544 38.8026 71.1985 38.7888C71.1426 38.775 71.0944 38.7399 71.0642 38.6909C71.034 38.642 71.0242 38.5831 71.0369 38.527C71.0497 38.4709 71.0839 38.422 71.1323 38.3909L71.6795 38.05C71.713 38.0301 71.7511 38.0194 71.79 38.0188C71.8289 38.0183 71.8673 38.0279 71.9014 38.0468C71.9354 38.0658 71.9639 38.0933 71.984 38.1266C72.0041 38.16 72.0151 38.1981 72.0158 38.237L72.0156 40.8483ZM73.5962 40.8483C73.5962 40.9066 73.5731 40.9625 73.5318 41.0038C73.4906 41.045 73.4347 41.0681 73.3764 41.0681C73.3181 41.0681 73.2622 41.045 73.221 41.0038C73.1797 40.9625 73.1566 40.9066 73.1566 40.8483V38.6328L72.9435 38.7646C72.8939 38.7952 72.8342 38.8049 72.7776 38.7915C72.7209 38.7781 72.6718 38.7427 72.6412 38.6932C72.6106 38.6436 72.6009 38.5839 72.6143 38.5272C72.6277 38.4705 72.6631 38.4215 72.7127 38.3909L73.2599 38.05C73.2933 38.0301 73.3315 38.0194 73.3704 38.0188C73.4093 38.0183 73.4477 38.0279 73.4818 38.0468C73.5158 38.0658 73.5443 38.0933 73.5644 38.1266C73.5845 38.16 73.5954 38.1981 73.5962 38.237V40.8483Z" fill="#FAFAFA"/>
<path d="M72.0156 40.8483C72.0139 40.9054 71.99 40.9596 71.949 40.9994C71.908 41.0392 71.8531 41.0614 71.7959 41.0614C71.7388 41.0614 71.6839 41.0392 71.6429 40.9994C71.6018 40.9596 71.5779 40.9054 71.5762 40.8483V38.6328L71.3629 38.7646C71.3134 38.7939 71.2544 38.8026 71.1985 38.7888C71.1426 38.775 71.0944 38.7399 71.0642 38.6909C71.034 38.642 71.0242 38.5831 71.0369 38.527C71.0497 38.4709 71.0839 38.422 71.1323 38.3909L71.6795 38.05C71.713 38.0301 71.7511 38.0194 71.79 38.0188C71.8289 38.0183 71.8673 38.0279 71.9014 38.0468C71.9354 38.0658 71.9639 38.0933 71.984 38.1266C72.0041 38.16 72.0151 38.1981 72.0158 38.237L72.0156 40.8483Z" fill="#FAFAFA"/>
<path d="M73.5962 40.8483C73.5962 40.9066 73.5731 40.9625 73.5318 41.0038C73.4906 41.045 73.4347 41.0681 73.3764 41.0681C73.3181 41.0681 73.2622 41.045 73.221 41.0038C73.1797 40.9625 73.1566 40.9066 73.1566 40.8483V38.6328L72.9435 38.7646C72.8939 38.7952 72.8342 38.8049 72.7776 38.7915C72.7209 38.7781 72.6718 38.7427 72.6412 38.6932C72.6106 38.6436 72.6009 38.5839 72.6143 38.5272C72.6277 38.4705 72.6631 38.4215 72.7127 38.3909L73.2599 38.05C73.2933 38.0301 73.3315 38.0194 73.3704 38.0188C73.4093 38.0183 73.4477 38.0279 73.4818 38.0468C73.5158 38.0658 73.5443 38.0933 73.5644 38.1266C73.5845 38.16 73.5954 38.1981 73.5962 38.237V40.8483Z" fill="#FAFAFA"/>
<path d="M71.4028 38.332H73.6945" stroke="#191919" stroke-width="0.343756" stroke-linecap="round" stroke-linejoin="round"/>
<path d="M72.5483 39.4792V37.1875" stroke="#191919" stroke-width="0.343756" stroke-linecap="round" stroke-linejoin="round"/>
</g>
<path d="M41.4961 2.86728C41.865 2.86685 42.2187 2.72012 42.4795 2.45927C42.7403 2.19843 42.8871 1.84478 42.8875 1.47589V0.994408C41.9674 1.16774 41.0223 1.16102 40.1047 0.974609V1.47589C40.1052 1.84478 40.2519 2.19843 40.5127 2.45927C40.7736 2.72012 41.1272 2.86685 41.4961 2.86728Z" fill="#FAFAFA"/>
<path d="M47.196 5.6215L46.0551 3.22326C45.8399 2.77433 45.4608 2.42501 44.9958 2.24723L44.1251 1.91535C43.7805 1.8135 43.5291 1.40876 43.327 1.13281V1.41019C43.3352 1.66603 43.2901 1.92078 43.1943 2.15818C43.0986 2.39558 42.9544 2.61042 42.771 2.78898C42.5876 2.96755 42.369 3.10592 42.1292 3.19527C41.8893 3.28462 41.6334 3.32299 41.3779 3.30792C41.1224 3.29285 40.8728 3.22467 40.6451 3.10775C40.4174 2.99082 40.2165 2.82772 40.0554 2.62883C39.8943 2.42994 39.7763 2.19965 39.7092 1.95265C39.642 1.70564 39.6271 1.44735 39.6654 1.19425C39.5148 1.48374 39.2685 1.7121 38.9685 1.84045L38.1529 2.13293C37.6848 2.29852 37.2989 2.63876 37.0759 3.08243L35.7963 5.6215C35.7786 5.66 35.7767 5.70395 35.7911 5.74383C35.8055 5.78371 35.835 5.81632 35.8733 5.83458L37.5776 6.60957C37.6096 6.62418 37.6446 6.63089 37.6798 6.62913C37.7149 6.62738 37.7491 6.61722 37.7795 6.5995C37.8099 6.58178 37.8356 6.55702 37.8545 6.52731C37.8733 6.49759 37.8847 6.46379 37.8878 6.42873L37.9505 5.71437C37.957 5.65706 37.9856 5.60457 38.0303 5.56808C38.075 5.53159 38.1321 5.51399 38.1896 5.51902C38.247 5.52405 38.3003 5.55131 38.3379 5.59501C38.3756 5.6387 38.3946 5.69537 38.3911 5.75294L37.8605 11.7851C37.8602 11.8279 37.8688 11.8703 37.8856 11.9097C37.9025 11.9491 37.9272 11.9847 37.9583 12.0141C37.9894 12.0436 38.0262 12.0663 38.0665 12.081C38.1067 12.0957 38.1496 12.1019 38.1923 12.0994H44.8176C44.8605 12.1019 44.9036 12.0956 44.944 12.0808C44.9844 12.066 45.0213 12.0431 45.0524 12.0133C45.0836 11.9836 45.1083 11.9479 45.1249 11.9082C45.1416 11.8685 45.15 11.8259 45.1495 11.7828C45.0556 10.7762 44.667 6.67101 44.5808 5.75417C44.5767 5.69679 44.5952 5.64008 44.6323 5.59618C44.6695 5.55227 44.7224 5.52467 44.7797 5.51928C44.8369 5.51389 44.894 5.53114 44.9387 5.56734C44.9834 5.60353 45.0122 5.6558 45.0188 5.71294L45.0856 6.41996C45.0889 6.4547 45.1004 6.48815 45.1192 6.51756C45.138 6.54697 45.1635 6.57148 45.1936 6.58908C45.2237 6.60667 45.2576 6.61683 45.2925 6.61873C45.3273 6.62062 45.3621 6.6142 45.394 6.59998L47.1191 5.8303C47.1568 5.81252 47.1859 5.78065 47.2003 5.74155C47.2147 5.70245 47.2132 5.65946 47.196 5.6215ZM41.0784 9.84832C41.0766 9.90543 41.0527 9.95962 41.0117 9.99941C40.9707 10.0392 40.9158 10.0614 40.8587 10.0614C40.8015 10.0614 40.7466 10.0392 40.7056 9.99941C40.6646 9.95962 40.6407 9.90543 40.6389 9.84832V7.63275L40.4256 7.7646C40.3761 7.79389 40.3171 7.80258 40.2612 7.7888C40.2054 7.77502 40.1572 7.73987 40.127 7.69091C40.0967 7.64196 40.0869 7.5831 40.0997 7.52699C40.1124 7.47089 40.1466 7.42202 40.195 7.39089L40.7422 7.05003C40.7757 7.03014 40.8138 7.01938 40.8527 7.01882C40.8917 7.01826 40.9301 7.02792 40.9641 7.04684C40.9982 7.06576 41.0267 7.09328 41.0467 7.12664C41.0668 7.16001 41.0778 7.19806 41.0786 7.23699L41.0784 9.84832ZM42.659 9.84832C42.659 9.90662 42.6358 9.96253 42.5946 10.0038C42.5534 10.045 42.4974 10.0681 42.4391 10.0681C42.3808 10.0681 42.3249 10.045 42.2837 10.0038C42.2425 9.96253 42.2193 9.90662 42.2193 9.84832V7.63275L42.0062 7.7646C41.9567 7.79522 41.897 7.80489 41.8403 7.79149C41.7836 7.77809 41.7346 7.74273 41.704 7.69317C41.6733 7.64361 41.6637 7.58392 41.6771 7.52723C41.6905 7.47054 41.7258 7.4215 41.7754 7.39089L42.3226 7.05003C42.3561 7.03014 42.3942 7.01938 42.4331 7.01882C42.4721 7.01826 42.5105 7.02792 42.5445 7.04684C42.5786 7.06576 42.607 7.09328 42.6271 7.12664C42.6472 7.16001 42.6582 7.19806 42.659 7.23699V9.84832Z" fill="#FAFAFA"/>
<path d="M41.0784 9.84832C41.0766 9.90543 41.0527 9.95962 41.0117 9.99941C40.9707 10.0392 40.9158 10.0614 40.8587 10.0614C40.8015 10.0614 40.7466 10.0392 40.7056 9.99941C40.6646 9.95962 40.6407 9.90543 40.6389 9.84832V7.63275L40.4256 7.7646C40.3761 7.79389 40.3171 7.80258 40.2612 7.7888C40.2054 7.77502 40.1572 7.73987 40.127 7.69091C40.0967 7.64196 40.0869 7.5831 40.0997 7.52699C40.1124 7.47089 40.1466 7.42202 40.195 7.39089L40.7422 7.05003C40.7757 7.03014 40.8138 7.01938 40.8527 7.01882C40.8917 7.01826 40.9301 7.02792 40.9641 7.04684C40.9982 7.06576 41.0267 7.09328 41.0467 7.12664C41.0668 7.16001 41.0778 7.19806 41.0786 7.23699L41.0784 9.84832Z" fill="#FAFAFA"/>
<path d="M42.659 9.84832C42.659 9.90662 42.6358 9.96253 42.5946 10.0038C42.5534 10.045 42.4974 10.0681 42.4391 10.0681C42.3808 10.0681 42.3249 10.045 42.2837 10.0038C42.2425 9.96253 42.2193 9.90662 42.2193 9.84832V7.63275L42.0062 7.7646C41.9567 7.79522 41.897 7.80489 41.8403 7.79149C41.7836 7.77809 41.7346 7.74273 41.704 7.69317C41.6733 7.64361 41.6637 7.58392 41.6771 7.52723C41.6905 7.47054 41.7258 7.4215 41.7754 7.39089L42.3226 7.05003C42.3561 7.03014 42.3942 7.01938 42.4331 7.01882C42.4721 7.01826 42.5105 7.02792 42.5445 7.04684C42.5786 7.06576 42.607 7.09328 42.6271 7.12664C42.6472 7.16001 42.6582 7.19806 42.659 7.23699V9.84832Z" fill="#FAFAFA"/>
<path d="M40.4651 7.33203H42.7568" stroke="#191919" stroke-width="0.343756" stroke-linecap="round" stroke-linejoin="round"/>
<path d="M41.6111 8.47921V6.1875" stroke="#191919" stroke-width="0.343756" stroke-linecap="round" stroke-linejoin="round"/>
<g clip-path="url(#clip7_8758_19406)">
<path d="M55.5589 35.8673C55.9278 35.8668 56.2814 35.7201 56.5422 35.4593C56.8031 35.1984 56.9498 34.8448 56.9503 34.4759V33.9944C56.0301 34.1677 55.0851 34.161 54.1675 33.9746V34.4759C54.1679 34.8448 54.3146 35.1984 54.5755 35.4593C54.8363 35.7201 55.19 35.8668 55.5589 35.8673Z" fill="#FAFAFA"/>
<path d="M61.2588 38.6215L60.1178 36.2233C59.9026 35.7743 59.5235 35.425 59.0585 35.2472L58.1878 34.9154C57.8433 34.8135 57.5918 34.4088 57.3898 34.1328V34.4102C57.398 34.666 57.3528 34.9208 57.2571 35.1582C57.1614 35.3956 57.0172 35.6104 56.8338 35.789C56.6504 35.9675 56.4318 36.1059 56.1919 36.1953C55.952 36.2846 55.6962 36.323 55.4406 36.3079C55.1851 36.2928 54.9355 36.2247 54.7078 36.1077C54.4801 35.9908 54.2793 35.8277 54.1181 35.6288C53.957 35.4299 53.8391 35.1997 53.7719 34.9526C53.7048 34.7056 53.6898 34.4473 53.7281 34.1942C53.5775 34.4837 53.3313 34.7121 53.0313 34.8404L52.2157 35.1329C51.7475 35.2985 51.3616 35.6388 51.1386 36.0824L49.8591 38.6215C49.8413 38.66 49.8394 38.7039 49.8538 38.7438C49.8682 38.7837 49.8978 38.8163 49.936 38.8346L51.6403 39.6096C51.6723 39.6242 51.7074 39.6309 51.7425 39.6291C51.7777 39.6274 51.8119 39.6172 51.8423 39.5995C51.8727 39.5818 51.8984 39.557 51.9172 39.5273C51.936 39.4976 51.9475 39.4638 51.9505 39.4287L52.0132 38.7144C52.0197 38.6571 52.0484 38.6046 52.0931 38.5681C52.1377 38.5316 52.1949 38.514 52.2523 38.519C52.3098 38.524 52.363 38.5513 52.4007 38.595C52.4383 38.6387 52.4574 38.6954 52.4539 38.7529L51.9232 44.7851C51.923 44.8279 51.9316 44.8703 51.9484 44.9097C51.9652 44.9491 51.9899 44.9847 52.0211 45.0141C52.0522 45.0436 52.089 45.0663 52.1292 45.081C52.1695 45.0957 52.2123 45.1019 52.2551 45.0994H58.8803C58.9233 45.1019 58.9663 45.0956 59.0067 45.0808C59.0471 45.066 59.084 45.0431 59.1152 45.0133C59.1463 44.9836 59.171 44.9479 59.1877 44.9082C59.2044 44.8685 59.2127 44.8259 59.2122 44.7828C59.1183 43.7762 58.7297 39.671 58.6436 38.7542C58.6394 38.6968 58.6579 38.6401 58.6951 38.5962C58.7323 38.5523 58.7851 38.5247 58.8424 38.5193C58.8997 38.5139 58.9568 38.5311 59.0015 38.5673C59.0462 38.6035 59.0749 38.6558 59.0816 38.7129L59.1483 39.42C59.1516 39.4547 59.1631 39.4882 59.1819 39.5176C59.2007 39.547 59.2262 39.5715 59.2563 39.5891C59.2865 39.6067 59.3204 39.6168 59.3552 39.6187C59.3901 39.6206 59.4249 39.6142 59.4567 39.6L61.1818 38.8303C61.2195 38.8125 61.2487 38.7806 61.2631 38.7415C61.2775 38.7024 61.2759 38.6595 61.2588 38.6215ZM55.1411 42.8483C55.1394 42.9054 55.1155 42.9596 55.0745 42.9994C55.0334 43.0392 54.9785 43.0614 54.9214 43.0614C54.8643 43.0614 54.8094 43.0392 54.7684 42.9994C54.7273 42.9596 54.7034 42.9054 54.7017 42.8483V40.6328L54.4884 40.7646C54.4389 40.7939 54.3798 40.8026 54.324 40.7888C54.2681 40.775 54.2199 40.7399 54.1897 40.6909C54.1595 40.642 54.1497 40.5831 54.1624 40.527C54.1751 40.4709 54.2094 40.422 54.2578 40.3909L54.805 40.05C54.8384 40.0301 54.8766 40.0194 54.9155 40.0188C54.9544 40.0183 54.9928 40.0279 55.0269 40.0468C55.0609 40.0658 55.0894 40.0933 55.1095 40.1266C55.1296 40.16 55.1405 40.1981 55.1413 40.237L55.1411 42.8483ZM56.7217 42.8483C56.7217 42.9066 56.6986 42.9625 56.6573 43.0038C56.6161 43.045 56.5602 43.0681 56.5019 43.0681C56.4436 43.0681 56.3877 43.045 56.3465 43.0038C56.3052 42.9625 56.2821 42.9066 56.2821 42.8483V40.6328L56.069 40.7646C56.0194 40.7952 55.9597 40.8049 55.903 40.7915C55.8464 40.7781 55.7973 40.7427 55.7667 40.6932C55.7361 40.6436 55.7264 40.5839 55.7398 40.5272C55.7532 40.4705 55.7886 40.4215 55.8381 40.3909L56.3853 40.05C56.4188 40.0301 56.4569 40.0194 56.4959 40.0188C56.5348 40.0183 56.5732 40.0279 56.6073 40.0468C56.6413 40.0658 56.6698 40.0933 56.6899 40.1266C56.7099 40.16 56.7209 40.1981 56.7217 40.237V42.8483Z" fill="#FAFAFA"/>
<path d="M55.1411 42.8483C55.1394 42.9054 55.1155 42.9596 55.0745 42.9994C55.0334 43.0392 54.9785 43.0614 54.9214 43.0614C54.8643 43.0614 54.8094 43.0392 54.7684 42.9994C54.7273 42.9596 54.7034 42.9054 54.7017 42.8483V40.6328L54.4884 40.7646C54.4389 40.7939 54.3798 40.8026 54.324 40.7888C54.2681 40.775 54.2199 40.7399 54.1897 40.6909C54.1595 40.642 54.1497 40.5831 54.1624 40.527C54.1751 40.4709 54.2094 40.422 54.2578 40.3909L54.805 40.05C54.8384 40.0301 54.8766 40.0194 54.9155 40.0188C54.9544 40.0183 54.9928 40.0279 55.0269 40.0468C55.0609 40.0658 55.0894 40.0933 55.1095 40.1266C55.1296 40.16 55.1405 40.1981 55.1413 40.237L55.1411 42.8483Z" fill="#FAFAFA"/>
<path d="M56.7217 42.8483C56.7217 42.9066 56.6986 42.9625 56.6573 43.0038C56.6161 43.045 56.5602 43.0681 56.5019 43.0681C56.4436 43.0681 56.3877 43.045 56.3465 43.0038C56.3052 42.9625 56.2821 42.9066 56.2821 42.8483V40.6328L56.069 40.7646C56.0194 40.7952 55.9597 40.8049 55.903 40.7915C55.8464 40.7781 55.7973 40.7427 55.7667 40.6932C55.7361 40.6436 55.7264 40.5839 55.7398 40.5272C55.7532 40.4705 55.7886 40.4215 55.8381 40.3909L56.3853 40.05C56.4188 40.0301 56.4569 40.0194 56.4959 40.0188C56.5348 40.0183 56.5732 40.0279 56.6073 40.0468C56.6413 40.0658 56.6698 40.0933 56.6899 40.1266C56.7099 40.16 56.7209 40.1981 56.7217 40.237V42.8483Z" fill="#FAFAFA"/>
<path d="M54.5278 40.332H56.8195" stroke="#191919" stroke-width="0.343756" stroke-linecap="round" stroke-linejoin="round"/>
<path d="M55.6733 41.4792V39.1875" stroke="#191919" stroke-width="0.343756" stroke-linecap="round" stroke-linejoin="round"/>
</g>
<g clip-path="url(#clip8_8758_19406)">
<path d="M20.3704 13.8692C20.7393 13.8688 21.0929 13.7221 21.3538 13.4612C21.6146 13.2004 21.7613 12.8467 21.7618 12.4778V11.9964C20.8416 12.1697 19.8966 12.163 18.979 11.9766V12.4778C18.9794 12.8467 19.1262 13.2004 19.387 13.4612C19.6479 13.7221 20.0015 13.8688 20.3704 13.8692Z" fill="#FAFAFA"/>
<path d="M26.0703 16.6235L24.9293 14.2252C24.7142 13.7763 24.335 13.427 23.87 13.2492L22.9993 12.9173C22.6548 12.8155 22.4033 12.4107 22.2013 12.1348V12.4121C22.2095 12.668 22.1643 12.9227 22.0686 13.1601C21.9729 13.3975 21.8287 13.6124 21.6453 13.7909C21.4619 13.9695 21.2433 14.1079 21.0034 14.1972C20.7636 14.2866 20.5077 14.3249 20.2522 14.3099C19.9966 14.2948 19.7471 14.2266 19.5193 14.1097C19.2916 13.9928 19.0908 13.8297 18.9297 13.6308C18.7685 13.4319 18.6506 13.2016 18.5835 12.9546C18.5163 12.7076 18.5014 12.4493 18.5396 12.1962C18.3891 12.4857 18.1428 12.7141 17.8428 12.8424L17.0272 13.1349C16.5591 13.3005 16.1731 13.6407 15.9501 14.0844L14.6706 16.6235C14.6528 16.662 14.6509 16.7059 14.6653 16.7458C14.6797 16.7857 14.7093 16.8183 14.7475 16.8365L16.4518 17.6115C16.4838 17.6261 16.5189 17.6328 16.554 17.6311C16.5892 17.6293 16.6234 17.6192 16.6538 17.6015C16.6842 17.5837 16.7099 17.559 16.7287 17.5293C16.7476 17.4995 16.759 17.4657 16.7621 17.4307L16.8247 16.7163C16.8313 16.659 16.8599 16.6065 16.9046 16.57C16.9492 16.5335 17.0064 16.5159 17.0639 16.521C17.1213 16.526 17.1745 16.5533 17.2122 16.597C17.2498 16.6407 17.2689 16.6973 17.2654 16.7549L16.7347 22.787C16.7345 22.8299 16.7431 22.8723 16.7599 22.9117C16.7767 22.9511 16.8015 22.9866 16.8326 23.0161C16.8637 23.0455 16.9005 23.0683 16.9407 23.083C16.981 23.0976 17.0238 23.1039 17.0666 23.1013H23.6919C23.7348 23.1039 23.7778 23.0976 23.8182 23.0828C23.8586 23.068 23.8956 23.045 23.9267 23.0153C23.9578 22.9856 23.9825 22.9498 23.9992 22.9101C24.0159 22.8705 24.0243 22.8278 24.0237 22.7848C23.9298 21.7781 23.5412 17.673 23.4551 16.7561C23.451 16.6987 23.4694 16.642 23.5066 16.5981C23.5438 16.5542 23.5967 16.5266 23.6539 16.5212C23.7112 16.5158 23.7683 16.5331 23.813 16.5693C23.8577 16.6055 23.8865 16.6578 23.8931 16.7149L23.9598 17.4219C23.9631 17.4567 23.9746 17.4901 23.9934 17.5195C24.0122 17.5489 24.0377 17.5734 24.0679 17.591C24.098 17.6086 24.1319 17.6188 24.1667 17.6207C24.2016 17.6226 24.2364 17.6161 24.2682 17.6019L25.9933 16.8323C26.031 16.8145 26.0602 16.7826 26.0746 16.7435C26.089 16.7044 26.0875 16.6614 26.0703 16.6235ZM19.9526 20.8503C19.9509 20.9074 19.927 20.9616 19.886 21.0014C19.845 21.0411 19.7901 21.0634 19.7329 21.0634C19.6758 21.0634 19.6209 21.0411 19.5799 21.0014C19.5389 20.9616 19.5149 20.9074 19.5132 20.8503V18.6347L19.2999 18.7666C19.2504 18.7958 19.1914 18.8045 19.1355 18.7908C19.0797 18.777 19.0314 18.7418 19.0012 18.6929C18.971 18.6439 18.9612 18.5851 18.9739 18.5289C18.9867 18.4728 19.0209 18.424 19.0693 18.3928L19.6165 18.052C19.65 18.0321 19.6881 18.0213 19.727 18.0208C19.766 18.0202 19.8044 18.0299 19.8384 18.0488C19.8724 18.0677 19.9009 18.0952 19.921 18.1286C19.9411 18.162 19.9521 18.2 19.9528 18.2389L19.9526 20.8503ZM21.5332 20.8503C21.5332 20.9086 21.5101 20.9645 21.4689 21.0057C21.4276 21.0469 21.3717 21.0701 21.3134 21.0701C21.2551 21.0701 21.1992 21.0469 21.158 21.0057C21.1168 20.9645 21.0936 20.9086 21.0936 20.8503V18.6347L20.8805 18.7666C20.831 18.7972 20.7713 18.8068 20.7146 18.7934C20.6579 18.78 20.6088 18.7447 20.5782 18.6951C20.5476 18.6456 20.5379 18.5859 20.5513 18.5292C20.5647 18.4725 20.6001 18.4235 20.6497 18.3928L21.1969 18.052C21.2304 18.0321 21.2685 18.0213 21.3074 18.0208C21.3463 18.0202 21.3847 18.0299 21.4188 18.0488C21.4528 18.0677 21.4813 18.0952 21.5014 18.1286C21.5215 18.162 21.5325 18.2 21.5332 18.2389V20.8503Z" fill="#FAFAFA"/>
<path d="M19.9526 20.8503C19.9509 20.9074 19.927 20.9616 19.886 21.0014C19.845 21.0411 19.7901 21.0634 19.7329 21.0634C19.6758 21.0634 19.6209 21.0411 19.5799 21.0014C19.5389 20.9616 19.5149 20.9074 19.5132 20.8503V18.6347L19.2999 18.7666C19.2504 18.7958 19.1914 18.8045 19.1355 18.7908C19.0797 18.777 19.0314 18.7418 19.0012 18.6929C18.971 18.6439 18.9612 18.5851 18.9739 18.5289C18.9867 18.4728 19.0209 18.424 19.0693 18.3928L19.6165 18.052C19.65 18.0321 19.6881 18.0213 19.727 18.0208C19.766 18.0202 19.8044 18.0299 19.8384 18.0488C19.8724 18.0677 19.9009 18.0952 19.921 18.1286C19.9411 18.162 19.9521 18.2 19.9528 18.2389L19.9526 20.8503Z" fill="#FAFAFA"/>
<path d="M21.5332 20.8503C21.5332 20.9086 21.5101 20.9645 21.4689 21.0057C21.4276 21.0469 21.3717 21.0701 21.3134 21.0701C21.2551 21.0701 21.1992 21.0469 21.158 21.0057C21.1168 20.9645 21.0936 20.9086 21.0936 20.8503V18.6347L20.8805 18.7666C20.831 18.7972 20.7713 18.8068 20.7146 18.7934C20.6579 18.78 20.6088 18.7447 20.5782 18.6951C20.5476 18.6456 20.5379 18.5859 20.5513 18.5292C20.5647 18.4725 20.6001 18.4235 20.6497 18.3928L21.1969 18.052C21.2304 18.0321 21.2685 18.0213 21.3074 18.0208C21.3463 18.0202 21.3847 18.0299 21.4188 18.0488C21.4528 18.0677 21.4813 18.0952 21.5014 18.1286C21.5215 18.162 21.5325 18.2 21.5332 18.2389V20.8503Z" fill="#FAFAFA"/>
<path d="M19.3394 18.334H21.6311" stroke="#191919" stroke-width="0.343756" stroke-linecap="round" stroke-linejoin="round"/>
<path d="M20.4854 19.4812V17.1895" stroke="#191919" stroke-width="0.343756" stroke-linecap="round" stroke-linejoin="round"/>
</g>
<defs>
<clipPath id="clip0_8758_19406">
<rect width="13.0627" height="13.0627" fill="white" transform="translate(13.8394 49)"/>
</clipPath>
<clipPath id="clip1_8758_19406">
<rect width="13.0627" height="13.0627" fill="white" transform="translate(53.8394 49)"/>
</clipPath>
<clipPath id="clip2_8758_19406">
<rect width="13.0627" height="13.0627" fill="white" transform="translate(54.8394 11)"/>
</clipPath>
<clipPath id="clip3_8758_19406">
<rect width="13.0627" height="13.0627" fill="white" transform="translate(34.8394 51)"/>
</clipPath>
<clipPath id="clip4_8758_19406">
<rect width="13.0627" height="13.0627" fill="white" transform="translate(2.77686 30)"/>
</clipPath>
<clipPath id="clip5_8758_19406">
<rect width="13.0627" height="13.0627" fill="white" transform="translate(20.8396 33)"/>
</clipPath>
<clipPath id="clip6_8758_19406">
<rect width="13.0627" height="13.0627" fill="white" transform="translate(65.9023 31)"/>
</clipPath>
<clipPath id="clip7_8758_19406">
<rect width="13.0627" height="13.0627" fill="white" transform="translate(49.0278 33)"/>
</clipPath>
<clipPath id="clip8_8758_19406">
<rect width="13.0627" height="13.0627" fill="white" transform="translate(13.8394 11)"/>
</clipPath>
</defs>
</svg>
