<svg width="81" height="81" viewBox="0 0 81 81" fill="none" xmlns="http://www.w3.org/2000/svg">
<rect x="0.311363" y="0.118492" width="79.9807" height="79.9807" rx="5.88541" fill="#828284" stroke="#FAFAFA" stroke-width="0.229171"/>
<mask id="path-2-inside-1_8758_19530" fill="white">
<path d="M24.0303 66.4609H56.5726V80.2112H24.0303V66.4609Z"/>
</mask>
<path d="M24.0303 66.4609V66.2318H23.8011V66.4609H24.0303ZM56.5726 66.4609H56.8017V66.2318H56.5726V66.4609ZM24.0303 66.6901H56.5726V66.2318H24.0303V66.6901ZM56.3434 66.4609V80.2112H56.8017V66.4609H56.3434ZM24.2594 80.2112V66.4609H23.8011V80.2112H24.2594Z" fill="#FAFAFA" mask="url(#path-2-inside-1_8758_19530)"/>
<mask id="path-4-inside-2_8758_19530" fill="white">
<path d="M12.8013 55.0039H67.8023V80.2127H12.8013V55.0039Z"/>
</mask>
<path d="M12.8013 55.0039V54.7747H12.5721V55.0039H12.8013ZM67.8023 55.0039H68.0315V54.7747H67.8023V55.0039ZM12.8013 55.2331H67.8023V54.7747H12.8013V55.2331ZM67.5731 55.0039V80.2127H68.0315V55.0039H67.5731ZM13.0304 80.2127V55.0039H12.5721V80.2127H13.0304Z" fill="#FAFAFA" mask="url(#path-4-inside-2_8758_19530)"/>
<path d="M54.51 9.53674e-07C54.51 1.65523 54.1247 3.29426 53.3761 4.8235C52.6275 6.35273 51.5303 7.74223 50.147 8.91266C48.7638 10.0831 47.1217 11.0115 45.3144 11.645C43.5071 12.2784 41.5701 12.6044 39.6139 12.6044C37.6577 12.6044 35.7207 12.2784 33.9134 11.645C32.1061 11.0115 30.464 10.0831 29.0807 8.91266C27.6975 7.74223 26.6003 6.35273 25.8517 4.8235C25.1031 3.29426 24.7178 1.65523 24.7178 0" stroke="#FAFAFA" stroke-width="0.229171"/>
<path d="M30.7742 55.3516C31.2925 54.5174 32.0521 53.7595 33.0097 53.1211C33.9674 52.4827 35.1042 51.9763 36.3554 51.6308C37.6066 51.2853 38.9476 51.1074 40.3019 51.1074C41.6562 51.1074 42.9972 51.2853 44.2484 51.6308C45.4996 51.9763 46.6365 52.4827 47.5941 53.1211C48.5517 53.7595 49.3113 54.5174 49.8296 55.3516" stroke="#FAFAFA" stroke-width="0.229171"/>
<path d="M0.425781 76.5479C1.54231 76.4958 3.74624 77.1099 3.62973 79.9825" stroke="#FAFAFA" stroke-width="0.229171"/>
<path d="M80.1772 76.5479C79.0607 76.4958 76.8568 77.1099 76.9733 79.9825" stroke="#FAFAFA" stroke-width="0.229171"/>
<g clip-path="url(#clip0_8758_19530)">
<path d="M40.4158 69.4356C40.7847 69.4352 41.1383 69.2885 41.3992 69.0276C41.66 68.7668 41.8068 68.4131 41.8072 68.0443V67.5628C40.887 67.7361 39.942 67.7294 39.0244 67.543V68.0443C39.0248 68.4131 39.1716 68.7668 39.4324 69.0276C39.6933 69.2885 40.0469 69.4352 40.4158 69.4356Z" fill="#FAFAFA"/>
<path d="M46.1157 72.1899L44.9748 69.7916C44.7596 69.3427 44.3805 68.9934 43.9154 68.8156L43.0447 68.4837C42.7002 68.3819 42.4487 67.9771 42.2467 67.7012V67.9786C42.2549 68.2344 42.2097 68.4891 42.114 68.7265C42.0183 68.9639 41.8741 69.1788 41.6907 69.3573C41.5073 69.5359 41.2887 69.6743 41.0488 69.7636C40.809 69.853 40.5531 69.8913 40.2976 69.8763C40.042 69.8612 39.7925 69.793 39.5648 69.6761C39.3371 69.5592 39.1362 69.3961 38.9751 69.1972C38.8139 68.9983 38.696 68.768 38.6289 68.521C38.5617 68.274 38.5468 68.0157 38.585 67.7626C38.4345 68.0521 38.1882 68.2805 37.8882 68.4088L37.0726 68.7013C36.6045 68.8669 36.2185 69.2071 35.9955 69.6508L34.716 72.1899C34.6982 72.2284 34.6964 72.2723 34.7108 72.3122C34.7252 72.3521 34.7547 72.3847 34.793 72.4029L36.4972 73.1779C36.5293 73.1925 36.5643 73.1992 36.5994 73.1975C36.6346 73.1957 36.6688 73.1856 36.6992 73.1679C36.7296 73.1501 36.7553 73.1254 36.7741 73.0957C36.793 73.066 36.8044 73.0321 36.8075 72.9971L36.8701 72.2827C36.8767 72.2254 36.9053 72.1729 36.95 72.1364C36.9947 72.1 37.0518 72.0823 37.1093 72.0874C37.1667 72.0924 37.2199 72.1197 37.2576 72.1634C37.2952 72.2071 37.3143 72.2637 37.3108 72.3213L36.7801 78.3534C36.7799 78.3963 36.7885 78.4387 36.8053 78.4781C36.8222 78.5175 36.8469 78.553 36.878 78.5825C36.9091 78.6119 36.9459 78.6347 36.9862 78.6494C37.0264 78.664 37.0692 78.6703 37.112 78.6678H43.7373C43.7802 78.6703 43.8232 78.664 43.8636 78.6492C43.9041 78.6344 43.941 78.6114 43.9721 78.5817C44.0032 78.552 44.0279 78.5162 44.0446 78.4766C44.0613 78.4369 44.0697 78.3942 44.0691 78.3512C43.9753 77.3445 43.5866 73.2394 43.5005 72.3225C43.4964 72.2652 43.5149 72.2084 43.552 72.1645C43.5892 72.1206 43.6421 72.093 43.6993 72.0876C43.7566 72.0822 43.8137 72.0995 43.8584 72.1357C43.9031 72.1719 43.9319 72.2242 43.9385 72.2813L44.0053 72.9883C44.0085 73.0231 44.0201 73.0565 44.0388 73.0859C44.0576 73.1153 44.0831 73.1398 44.1133 73.1574C44.1434 73.175 44.1773 73.1852 44.2122 73.1871C44.247 73.189 44.2818 73.1826 44.3137 73.1683L46.0388 72.3987C46.0764 72.3809 46.1056 72.349 46.12 72.3099C46.1344 72.2708 46.1329 72.2278 46.1157 72.1899ZM39.9981 76.4167C39.9963 76.4738 39.9724 76.528 39.9314 76.5678C39.8904 76.6076 39.8355 76.6298 39.7783 76.6298C39.7212 76.6298 39.6663 76.6076 39.6253 76.5678C39.5843 76.528 39.5604 76.4738 39.5586 76.4167V74.2011L39.3453 74.333C39.2958 74.3623 39.2368 74.3709 39.1809 74.3572C39.1251 74.3434 39.0768 74.3082 39.0466 74.2593C39.0164 74.2103 39.0066 74.1515 39.0194 74.0954C39.0321 74.0392 39.0663 73.9904 39.1147 73.9592L39.6619 73.6184C39.6954 73.5985 39.7335 73.5877 39.7724 73.5872C39.8114 73.5866 39.8498 73.5963 39.8838 73.6152C39.9178 73.6341 39.9463 73.6616 39.9664 73.695C39.9865 73.7284 39.9975 73.7664 39.9983 73.8054L39.9981 76.4167ZM41.5786 76.4167C41.5786 76.475 41.5555 76.5309 41.5143 76.5721C41.473 76.6133 41.4171 76.6365 41.3588 76.6365C41.3005 76.6365 41.2446 76.6133 41.2034 76.5721C41.1622 76.5309 41.139 76.475 41.139 76.4167V74.2011L40.9259 74.333C40.8764 74.3636 40.8167 74.3732 40.76 74.3598C40.7033 74.3465 40.6543 74.3111 40.6236 74.2615C40.593 74.212 40.5834 74.1523 40.5968 74.0956C40.6102 74.0389 40.6455 73.9899 40.6951 73.9592L41.2423 73.6184C41.2758 73.5985 41.3139 73.5877 41.3528 73.5872C41.3918 73.5866 41.4302 73.5963 41.4642 73.6152C41.4982 73.6341 41.5267 73.6616 41.5468 73.695C41.5669 73.7284 41.5779 73.7664 41.5786 73.8054V76.4167Z" fill="#FAFAFA"/>
<path d="M39.9981 76.4167C39.9963 76.4738 39.9724 76.528 39.9314 76.5678C39.8904 76.6076 39.8355 76.6298 39.7783 76.6298C39.7212 76.6298 39.6663 76.6076 39.6253 76.5678C39.5843 76.528 39.5604 76.4738 39.5586 76.4167V74.2011L39.3453 74.333C39.2958 74.3623 39.2368 74.3709 39.1809 74.3572C39.1251 74.3434 39.0768 74.3082 39.0466 74.2593C39.0164 74.2103 39.0066 74.1515 39.0194 74.0954C39.0321 74.0392 39.0663 73.9904 39.1147 73.9592L39.6619 73.6184C39.6954 73.5985 39.7335 73.5877 39.7724 73.5872C39.8114 73.5866 39.8498 73.5963 39.8838 73.6152C39.9178 73.6341 39.9463 73.6616 39.9664 73.695C39.9865 73.7284 39.9975 73.7664 39.9983 73.8054L39.9981 76.4167Z" fill="#FAFAFA"/>
<path d="M41.5786 76.4167C41.5786 76.475 41.5555 76.5309 41.5143 76.5721C41.473 76.6133 41.4171 76.6365 41.3588 76.6365C41.3005 76.6365 41.2446 76.6133 41.2034 76.5721C41.1622 76.5309 41.139 76.475 41.139 76.4167V74.2011L40.9259 74.333C40.8764 74.3636 40.8167 74.3732 40.76 74.3598C40.7033 74.3465 40.6543 74.3111 40.6236 74.2615C40.593 74.212 40.5834 74.1523 40.5968 74.0956C40.6102 74.0389 40.6455 73.9899 40.6951 73.9592L41.2423 73.6184C41.2758 73.5985 41.3139 73.5877 41.3528 73.5872C41.3918 73.5866 41.4302 73.5963 41.4642 73.6152C41.4982 73.6341 41.5267 73.6616 41.5468 73.695C41.5669 73.7284 41.5779 73.7664 41.5786 73.8054V76.4167Z" fill="#FAFAFA"/>
<path d="M39.3853 73.8965H41.677" stroke="#191919" stroke-width="0.343756" stroke-linecap="round" stroke-linejoin="round"/>
<path d="M40.5308 75.0437V72.752" stroke="#191919" stroke-width="0.343756" stroke-linecap="round" stroke-linejoin="round"/>
</g>
<g clip-path="url(#clip1_8758_19530)">
<path d="M19.5804 51.8673C19.9492 51.8668 20.3029 51.7201 20.5637 51.4593C20.8246 51.1984 20.9713 50.8448 20.9717 50.4759V49.9944C20.0516 50.1677 19.1066 50.161 18.189 49.9746V50.4759C18.1894 50.8448 18.3361 51.1984 18.597 51.4593C18.8578 51.7201 19.2115 51.8668 19.5804 51.8673Z" fill="#FAFAFA"/>
<path d="M25.2803 54.6215L24.1393 52.2233C23.9241 51.7743 23.545 51.425 23.08 51.2472L22.2093 50.9154C21.8648 50.8135 21.6133 50.4088 21.4112 50.1328V50.4102C21.4195 50.666 21.3743 50.9208 21.2786 51.1582C21.1828 51.3956 21.0387 51.6104 20.8553 51.789C20.6719 51.9675 20.4533 52.1059 20.2134 52.1953C19.9735 52.2846 19.7177 52.323 19.4621 52.3079C19.2066 52.2928 18.957 52.2247 18.7293 52.1077C18.5016 51.9908 18.3008 51.8277 18.1396 51.6288C17.9785 51.4299 17.8606 51.1997 17.7934 50.9526C17.7263 50.7056 17.7113 50.4473 17.7496 50.1942C17.599 50.4837 17.3528 50.7121 17.0528 50.8404L16.2372 51.1329C15.769 51.2985 15.3831 51.6388 15.1601 52.0824L13.8806 54.6215C13.8628 54.66 13.8609 54.7039 13.8753 54.7438C13.8897 54.7837 13.9192 54.8163 13.9575 54.8346L15.6618 55.6096C15.6938 55.6242 15.7289 55.6309 15.764 55.6291C15.7991 55.6274 15.8333 55.6172 15.8637 55.5995C15.8941 55.5818 15.9198 55.557 15.9387 55.5273C15.9575 55.4976 15.969 55.4638 15.972 55.4287L16.0347 54.7144C16.0412 54.6571 16.0699 54.6046 16.1145 54.5681C16.1592 54.5316 16.2164 54.514 16.2738 54.519C16.3313 54.524 16.3845 54.5513 16.4221 54.595C16.4598 54.6387 16.4789 54.6954 16.4754 54.7529L15.9447 60.7851C15.9445 60.8279 15.953 60.8703 15.9699 60.9097C15.9867 60.9491 16.0114 60.9847 16.0425 61.0141C16.0736 61.0436 16.1105 61.0663 16.1507 61.081C16.191 61.0957 16.2338 61.1019 16.2766 61.0994H22.9018C22.9448 61.1019 22.9878 61.0956 23.0282 61.0808C23.0686 61.066 23.1055 61.0431 23.1367 61.0133C23.1678 60.9836 23.1925 60.9479 23.2092 60.9082C23.2259 60.8685 23.2342 60.8259 23.2337 60.7828C23.1398 59.7762 22.7512 55.671 22.6651 54.7542C22.6609 54.6968 22.6794 54.6401 22.7166 54.5962C22.7537 54.5523 22.8066 54.5247 22.8639 54.5193C22.9212 54.5139 22.9783 54.5311 23.023 54.5673C23.0677 54.6035 23.0964 54.6558 23.1031 54.7129L23.1698 55.42C23.1731 55.4547 23.1846 55.4882 23.2034 55.5176C23.2222 55.547 23.2477 55.5715 23.2778 55.5891C23.308 55.6067 23.3419 55.6168 23.3767 55.6187C23.4115 55.6206 23.4463 55.6142 23.4782 55.6L25.2033 54.8303C25.241 54.8125 25.2702 54.7806 25.2846 54.7415C25.299 54.7024 25.2974 54.6595 25.2803 54.6215ZM19.1626 58.8483C19.1609 58.9054 19.137 58.9596 19.0959 58.9994C19.0549 59.0392 19 59.0614 18.9429 59.0614C18.8857 59.0614 18.8309 59.0392 18.7898 58.9994C18.7488 58.9596 18.7249 58.9054 18.7232 58.8483V56.6328L18.5099 56.7646C18.4604 56.7939 18.4013 56.8026 18.3455 56.7888C18.2896 56.775 18.2414 56.7399 18.2112 56.6909C18.181 56.642 18.1712 56.5831 18.1839 56.527C18.1966 56.4709 18.2309 56.422 18.2792 56.3909L18.8264 56.05C18.8599 56.0301 18.898 56.0194 18.937 56.0188C18.9759 56.0183 19.0143 56.0279 19.0484 56.0468C19.0824 56.0658 19.1109 56.0933 19.131 56.1266C19.151 56.16 19.162 56.1981 19.1628 56.237L19.1626 58.8483ZM20.7432 58.8483C20.7432 58.9066 20.72 58.9625 20.6788 59.0038C20.6376 59.045 20.5817 59.0681 20.5234 59.0681C20.4651 59.0681 20.4092 59.045 20.3679 59.0038C20.3267 58.9625 20.3036 58.9066 20.3036 58.8483V56.6328L20.0905 56.7646C20.0409 56.7952 19.9812 56.8049 19.9245 56.7915C19.8678 56.7781 19.8188 56.7427 19.7882 56.6932C19.7576 56.6436 19.7479 56.5839 19.7613 56.5272C19.7747 56.4705 19.8101 56.4215 19.8596 56.3909L20.4068 56.05C20.4403 56.0301 20.4784 56.0194 20.5174 56.0188C20.5563 56.0183 20.5947 56.0279 20.6287 56.0468C20.6628 56.0658 20.6913 56.0933 20.7114 56.1266C20.7314 56.16 20.7424 56.1981 20.7432 56.237V58.8483Z" fill="#FAFAFA"/>
<path d="M19.1626 58.8483C19.1609 58.9054 19.137 58.9596 19.0959 58.9994C19.0549 59.0392 19 59.0614 18.9429 59.0614C18.8857 59.0614 18.8309 59.0392 18.7898 58.9994C18.7488 58.9596 18.7249 58.9054 18.7232 58.8483V56.6328L18.5099 56.7646C18.4604 56.7939 18.4013 56.8026 18.3455 56.7888C18.2896 56.775 18.2414 56.7399 18.2112 56.6909C18.181 56.642 18.1712 56.5831 18.1839 56.527C18.1966 56.4709 18.2309 56.422 18.2792 56.3909L18.8264 56.05C18.8599 56.0301 18.898 56.0194 18.937 56.0188C18.9759 56.0183 19.0143 56.0279 19.0484 56.0468C19.0824 56.0658 19.1109 56.0933 19.131 56.1266C19.151 56.16 19.162 56.1981 19.1628 56.237L19.1626 58.8483Z" fill="#FAFAFA"/>
<path d="M20.7432 58.8483C20.7432 58.9066 20.72 58.9625 20.6788 59.0038C20.6376 59.045 20.5817 59.0681 20.5234 59.0681C20.4651 59.0681 20.4092 59.045 20.3679 59.0038C20.3267 58.9625 20.3036 58.9066 20.3036 58.8483V56.6328L20.0905 56.7646C20.0409 56.7952 19.9812 56.8049 19.9245 56.7915C19.8678 56.7781 19.8188 56.7427 19.7882 56.6932C19.7576 56.6436 19.7479 56.5839 19.7613 56.5272C19.7747 56.4705 19.8101 56.4215 19.8596 56.3909L20.4068 56.05C20.4403 56.0301 20.4784 56.0194 20.5174 56.0188C20.5563 56.0183 20.5947 56.0279 20.6287 56.0468C20.6628 56.0658 20.6913 56.0933 20.7114 56.1266C20.7314 56.16 20.7424 56.1981 20.7432 56.237V58.8483Z" fill="#FAFAFA"/>
<path d="M18.5493 56.332H20.841" stroke="#191919" stroke-width="0.343756" stroke-linecap="round" stroke-linejoin="round"/>
<path d="M19.6948 57.4792V55.1875" stroke="#191919" stroke-width="0.343756" stroke-linecap="round" stroke-linejoin="round"/>
</g>
<g clip-path="url(#clip2_8758_19530)">
<path d="M59.5804 51.8673C59.9492 51.8668 60.3029 51.7201 60.5637 51.4593C60.8246 51.1984 60.9713 50.8448 60.9717 50.4759V49.9944C60.0516 50.1677 59.1066 50.161 58.189 49.9746V50.4759C58.1894 50.8448 58.3361 51.1984 58.597 51.4593C58.8578 51.7201 59.2115 51.8668 59.5804 51.8673Z" fill="#FAFAFA"/>
<path d="M65.2803 54.6215L64.1393 52.2233C63.9241 51.7743 63.545 51.425 63.08 51.2472L62.2093 50.9154C61.8648 50.8135 61.6133 50.4088 61.4112 50.1328V50.4102C61.4195 50.666 61.3743 50.9208 61.2786 51.1582C61.1828 51.3956 61.0387 51.6104 60.8553 51.789C60.6719 51.9675 60.4533 52.1059 60.2134 52.1953C59.9735 52.2846 59.7177 52.323 59.4621 52.3079C59.2066 52.2928 58.957 52.2247 58.7293 52.1077C58.5016 51.9908 58.3008 51.8277 58.1396 51.6288C57.9785 51.4299 57.8606 51.1997 57.7934 50.9526C57.7263 50.7056 57.7113 50.4473 57.7496 50.1942C57.599 50.4837 57.3528 50.7121 57.0528 50.8404L56.2372 51.1329C55.769 51.2985 55.3831 51.6388 55.1601 52.0824L53.8806 54.6215C53.8628 54.66 53.8609 54.7039 53.8753 54.7438C53.8897 54.7837 53.9192 54.8163 53.9575 54.8346L55.6618 55.6096C55.6938 55.6242 55.7289 55.6309 55.764 55.6291C55.7991 55.6274 55.8333 55.6172 55.8637 55.5995C55.8941 55.5818 55.9198 55.557 55.9387 55.5273C55.9575 55.4976 55.969 55.4638 55.972 55.4287L56.0347 54.7144C56.0412 54.6571 56.0699 54.6046 56.1145 54.5681C56.1592 54.5316 56.2164 54.514 56.2738 54.519C56.3313 54.524 56.3845 54.5513 56.4221 54.595C56.4598 54.6387 56.4789 54.6954 56.4754 54.7529L55.9447 60.7851C55.9445 60.8279 55.953 60.8703 55.9699 60.9097C55.9867 60.9491 56.0114 60.9847 56.0425 61.0141C56.0736 61.0436 56.1105 61.0663 56.1507 61.081C56.191 61.0957 56.2338 61.1019 56.2766 61.0994H62.9018C62.9448 61.1019 62.9878 61.0956 63.0282 61.0808C63.0686 61.066 63.1055 61.0431 63.1367 61.0133C63.1678 60.9836 63.1925 60.9479 63.2092 60.9082C63.2259 60.8685 63.2342 60.8259 63.2337 60.7828C63.1398 59.7762 62.7512 55.671 62.6651 54.7542C62.6609 54.6968 62.6794 54.6401 62.7166 54.5962C62.7537 54.5523 62.8066 54.5247 62.8639 54.5193C62.9212 54.5139 62.9783 54.5311 63.023 54.5673C63.0677 54.6035 63.0964 54.6558 63.1031 54.7129L63.1698 55.42C63.1731 55.4547 63.1846 55.4882 63.2034 55.5176C63.2222 55.547 63.2477 55.5715 63.2778 55.5891C63.308 55.6067 63.3419 55.6168 63.3767 55.6187C63.4115 55.6206 63.4463 55.6142 63.4782 55.6L65.2033 54.8303C65.241 54.8125 65.2702 54.7806 65.2846 54.7415C65.299 54.7024 65.2974 54.6595 65.2803 54.6215ZM59.1626 58.8483C59.1609 58.9054 59.137 58.9596 59.0959 58.9994C59.0549 59.0392 59 59.0614 58.9429 59.0614C58.8857 59.0614 58.8309 59.0392 58.7898 58.9994C58.7488 58.9596 58.7249 58.9054 58.7232 58.8483V56.6328L58.5099 56.7646C58.4604 56.7939 58.4013 56.8026 58.3455 56.7888C58.2896 56.775 58.2414 56.7399 58.2112 56.6909C58.181 56.642 58.1712 56.5831 58.1839 56.527C58.1966 56.4709 58.2309 56.422 58.2792 56.3909L58.8264 56.05C58.8599 56.0301 58.898 56.0194 58.937 56.0188C58.9759 56.0183 59.0143 56.0279 59.0484 56.0468C59.0824 56.0658 59.1109 56.0933 59.131 56.1266C59.151 56.16 59.162 56.1981 59.1628 56.237L59.1626 58.8483ZM60.7432 58.8483C60.7432 58.9066 60.72 58.9625 60.6788 59.0038C60.6376 59.045 60.5817 59.0681 60.5234 59.0681C60.4651 59.0681 60.4092 59.045 60.3679 59.0038C60.3267 58.9625 60.3036 58.9066 60.3036 58.8483V56.6328L60.0905 56.7646C60.0409 56.7952 59.9812 56.8049 59.9245 56.7915C59.8678 56.7781 59.8188 56.7427 59.7882 56.6932C59.7576 56.6436 59.7479 56.5839 59.7613 56.5272C59.7747 56.4705 59.8101 56.4215 59.8596 56.3909L60.4068 56.05C60.4403 56.0301 60.4784 56.0194 60.5174 56.0188C60.5563 56.0183 60.5947 56.0279 60.6287 56.0468C60.6628 56.0658 60.6913 56.0933 60.7114 56.1266C60.7314 56.16 60.7424 56.1981 60.7432 56.237V58.8483Z" fill="#FAFAFA"/>
<path d="M59.1626 58.8483C59.1609 58.9054 59.137 58.9596 59.0959 58.9994C59.0549 59.0392 59 59.0614 58.9429 59.0614C58.8857 59.0614 58.8309 59.0392 58.7898 58.9994C58.7488 58.9596 58.7249 58.9054 58.7232 58.8483V56.6328L58.5099 56.7646C58.4604 56.7939 58.4013 56.8026 58.3455 56.7888C58.2896 56.775 58.2414 56.7399 58.2112 56.6909C58.181 56.642 58.1712 56.5831 58.1839 56.527C58.1966 56.4709 58.2309 56.422 58.2792 56.3909L58.8264 56.05C58.8599 56.0301 58.898 56.0194 58.937 56.0188C58.9759 56.0183 59.0143 56.0279 59.0484 56.0468C59.0824 56.0658 59.1109 56.0933 59.131 56.1266C59.151 56.16 59.162 56.1981 59.1628 56.237L59.1626 58.8483Z" fill="#FAFAFA"/>
<path d="M60.7432 58.8483C60.7432 58.9066 60.72 58.9625 60.6788 59.0038C60.6376 59.045 60.5817 59.0681 60.5234 59.0681C60.4651 59.0681 60.4092 59.045 60.3679 59.0038C60.3267 58.9625 60.3036 58.9066 60.3036 58.8483V56.6328L60.0905 56.7646C60.0409 56.7952 59.9812 56.8049 59.9245 56.7915C59.8678 56.7781 59.8188 56.7427 59.7882 56.6932C59.7576 56.6436 59.7479 56.5839 59.7613 56.5272C59.7747 56.4705 59.8101 56.4215 59.8596 56.3909L60.4068 56.05C60.4403 56.0301 60.4784 56.0194 60.5174 56.0188C60.5563 56.0183 60.5947 56.0279 60.6287 56.0468C60.6628 56.0658 60.6913 56.0933 60.7114 56.1266C60.7314 56.16 60.7424 56.1981 60.7432 56.237V58.8483Z" fill="#FAFAFA"/>
<path d="M58.5493 56.332H60.841" stroke="#191919" stroke-width="0.343756" stroke-linecap="round" stroke-linejoin="round"/>
<path d="M59.6948 57.4792V55.1875" stroke="#191919" stroke-width="0.343756" stroke-linecap="round" stroke-linejoin="round"/>
</g>
<g clip-path="url(#clip3_8758_19530)">
<path d="M71.6433 6.86728C72.0122 6.86685 72.3659 6.72012 72.6267 6.45927C72.8876 6.19843 73.0343 5.84478 73.0347 5.47589V4.99441C72.1146 5.16774 71.1695 5.16102 70.252 4.97461V5.47589C70.2524 5.84478 70.3991 6.19843 70.66 6.45927C70.9208 6.72012 71.2745 6.86685 71.6433 6.86728Z" fill="#FAFAFA"/>
<path d="M77.3432 9.6215L76.2023 7.22326C75.9871 6.77433 75.608 6.42501 75.143 6.24723L74.2723 5.91535C73.9277 5.8135 73.6763 5.40876 73.4742 5.13281V5.41019C73.4825 5.66603 73.4373 5.92078 73.3416 6.15818C73.2458 6.39558 73.1017 6.61042 72.9183 6.78898C72.7349 6.96755 72.5163 7.10592 72.2764 7.19527C72.0365 7.28462 71.7806 7.32299 71.5251 7.30792C71.2696 7.29285 71.02 7.22467 70.7923 7.10775C70.5646 6.99082 70.3638 6.82772 70.2026 6.62883C70.0415 6.42994 69.9236 6.19965 69.8564 5.95265C69.7892 5.70564 69.7743 5.44735 69.8126 5.19425C69.662 5.48374 69.4158 5.7121 69.1158 5.84045L68.3002 6.13293C67.832 6.29852 67.4461 6.63876 67.2231 7.08243L65.9436 9.6215C65.9258 9.66 65.9239 9.70395 65.9383 9.74383C65.9527 9.78371 65.9822 9.81632 66.0205 9.83458L67.7248 10.6096C67.7568 10.6242 67.7918 10.6309 67.827 10.6291C67.8621 10.6274 67.8963 10.6172 67.9267 10.5995C67.9571 10.5818 67.9828 10.557 68.0017 10.5273C68.0205 10.4976 68.032 10.4638 68.035 10.4287L68.0977 9.71437C68.1042 9.65706 68.1329 9.60457 68.1775 9.56808C68.2222 9.53159 68.2793 9.51399 68.3368 9.51902C68.3943 9.52405 68.4475 9.55131 68.4851 9.59501C68.5228 9.6387 68.5419 9.69537 68.5383 9.75294L68.0077 15.7851C68.0075 15.8279 68.016 15.8703 68.0329 15.9097C68.0497 15.9491 68.0744 15.9847 68.1055 16.0141C68.1366 16.0436 68.1734 16.0663 68.2137 16.081C68.2539 16.0957 68.2968 16.1019 68.3395 16.0994H74.9648C75.0078 16.1019 75.0508 16.0956 75.0912 16.0808C75.1316 16.066 75.1685 16.0431 75.1996 16.0133C75.2308 15.9836 75.2555 15.9479 75.2722 15.9082C75.2889 15.8685 75.2972 15.8259 75.2967 15.7828C75.2028 14.7762 74.8142 10.671 74.728 9.75417C74.7239 9.69679 74.7424 9.64008 74.7796 9.59618C74.8167 9.55227 74.8696 9.52467 74.9269 9.51928C74.9841 9.51389 75.0413 9.53114 75.086 9.56734C75.1307 9.60353 75.1594 9.6558 75.1661 9.71294L75.2328 10.42C75.2361 10.4547 75.2476 10.4882 75.2664 10.5176C75.2852 10.547 75.3107 10.5715 75.3408 10.5891C75.371 10.6067 75.4049 10.6168 75.4397 10.6187C75.4745 10.6206 75.5093 10.6142 75.5412 10.6L77.2663 9.8303C77.304 9.81252 77.3332 9.78065 77.3476 9.74155C77.3619 9.70245 77.3604 9.65946 77.3432 9.6215ZM71.2256 13.8483C71.2239 13.9054 71.1999 13.9596 71.1589 13.9994C71.1179 14.0392 71.063 14.0614 71.0059 14.0614C70.9487 14.0614 70.8938 14.0392 70.8528 13.9994C70.8118 13.9596 70.7879 13.9054 70.7862 13.8483V11.6328L70.5729 11.7646C70.5233 11.7939 70.4643 11.8026 70.4085 11.7888C70.3526 11.775 70.3044 11.7399 70.2742 11.6909C70.244 11.642 70.2342 11.5831 70.2469 11.527C70.2596 11.4709 70.2938 11.422 70.3422 11.3909L70.8894 11.05C70.9229 11.0301 70.961 11.0194 71 11.0188C71.0389 11.0183 71.0773 11.0279 71.1113 11.0468C71.1454 11.0658 71.1739 11.0933 71.194 11.1266C71.214 11.16 71.225 11.1981 71.2258 11.237L71.2256 13.8483ZM72.8062 13.8483C72.8062 13.9066 72.783 13.9625 72.7418 14.0038C72.7006 14.045 72.6447 14.0681 72.5864 14.0681C72.5281 14.0681 72.4722 14.045 72.4309 14.0038C72.3897 13.9625 72.3665 13.9066 72.3665 13.8483V11.6328L72.1535 11.7646C72.1039 11.7952 72.0442 11.8049 71.9875 11.7915C71.9308 11.7781 71.8818 11.7427 71.8512 11.6932C71.8206 11.6436 71.8109 11.5839 71.8243 11.5272C71.8377 11.4705 71.8731 11.4215 71.9226 11.3909L72.4698 11.05C72.5033 11.0301 72.5414 11.0194 72.5804 11.0188C72.6193 11.0183 72.6577 11.0279 72.6917 11.0468C72.7258 11.0658 72.7543 11.0933 72.7743 11.1266C72.7944 11.16 72.8054 11.1981 72.8062 11.237V13.8483Z" fill="#FAFAFA"/>
<path d="M71.2256 13.8483C71.2239 13.9054 71.1999 13.9596 71.1589 13.9994C71.1179 14.0392 71.063 14.0614 71.0059 14.0614C70.9487 14.0614 70.8938 14.0392 70.8528 13.9994C70.8118 13.9596 70.7879 13.9054 70.7862 13.8483V11.6328L70.5729 11.7646C70.5233 11.7939 70.4643 11.8026 70.4085 11.7888C70.3526 11.775 70.3044 11.7399 70.2742 11.6909C70.244 11.642 70.2342 11.5831 70.2469 11.527C70.2596 11.4709 70.2938 11.422 70.3422 11.3909L70.8894 11.05C70.9229 11.0301 70.961 11.0194 71 11.0188C71.0389 11.0183 71.0773 11.0279 71.1113 11.0468C71.1454 11.0658 71.1739 11.0933 71.194 11.1266C71.214 11.16 71.225 11.1981 71.2258 11.237L71.2256 13.8483Z" fill="#FAFAFA"/>
<path d="M72.8062 13.8483C72.8062 13.9066 72.783 13.9625 72.7418 14.0038C72.7006 14.045 72.6447 14.0681 72.5864 14.0681C72.5281 14.0681 72.4722 14.045 72.4309 14.0038C72.3897 13.9625 72.3665 13.9066 72.3665 13.8483V11.6328L72.1535 11.7646C72.1039 11.7952 72.0442 11.8049 71.9875 11.7915C71.9308 11.7781 71.8818 11.7427 71.8512 11.6932C71.8206 11.6436 71.8109 11.5839 71.8243 11.5272C71.8377 11.4705 71.8731 11.4215 71.9226 11.3909L72.4698 11.05C72.5033 11.0301 72.5414 11.0194 72.5804 11.0188C72.6193 11.0183 72.6577 11.0279 72.6917 11.0468C72.7258 11.0658 72.7543 11.0933 72.7743 11.1266C72.7944 11.16 72.8054 11.1981 72.8062 11.237V13.8483Z" fill="#FAFAFA"/>
<path d="M70.6123 11.332H72.904" stroke="#191919" stroke-width="0.343756" stroke-linecap="round" stroke-linejoin="round"/>
<path d="M71.7578 12.4792V10.1875" stroke="#191919" stroke-width="0.343756" stroke-linecap="round" stroke-linejoin="round"/>
</g>
<g clip-path="url(#clip4_8758_19530)">
<path d="M40.5804 53.8673C40.9492 53.8668 41.3029 53.7201 41.5637 53.4593C41.8246 53.1984 41.9713 52.8448 41.9717 52.4759V51.9944C41.0516 52.1677 40.1066 52.161 39.189 51.9746V52.4759C39.1894 52.8448 39.3361 53.1984 39.597 53.4593C39.8578 53.7201 40.2115 53.8668 40.5804 53.8673Z" fill="#FAFAFA"/>
<path d="M46.2803 56.6215L45.1393 54.2233C44.9241 53.7743 44.545 53.425 44.08 53.2472L43.2093 52.9154C42.8648 52.8135 42.6133 52.4088 42.4112 52.1328V52.4102C42.4195 52.666 42.3743 52.9208 42.2786 53.1582C42.1828 53.3956 42.0387 53.6104 41.8553 53.789C41.6719 53.9675 41.4533 54.1059 41.2134 54.1953C40.9735 54.2846 40.7177 54.323 40.4621 54.3079C40.2066 54.2928 39.957 54.2247 39.7293 54.1077C39.5016 53.9908 39.3008 53.8277 39.1396 53.6288C38.9785 53.4299 38.8606 53.1997 38.7934 52.9526C38.7263 52.7056 38.7113 52.4473 38.7496 52.1942C38.599 52.4837 38.3528 52.7121 38.0528 52.8404L37.2372 53.1329C36.769 53.2985 36.3831 53.6388 36.1601 54.0824L34.8806 56.6215C34.8628 56.66 34.8609 56.7039 34.8753 56.7438C34.8897 56.7837 34.9192 56.8163 34.9575 56.8346L36.6618 57.6096C36.6938 57.6242 36.7289 57.6309 36.764 57.6291C36.7991 57.6274 36.8333 57.6172 36.8637 57.5995C36.8941 57.5818 36.9198 57.557 36.9387 57.5273C36.9575 57.4976 36.969 57.4638 36.972 57.4287L37.0347 56.7144C37.0412 56.6571 37.0699 56.6046 37.1145 56.5681C37.1592 56.5316 37.2164 56.514 37.2738 56.519C37.3313 56.524 37.3845 56.5513 37.4221 56.595C37.4598 56.6387 37.4789 56.6954 37.4754 56.7529L36.9447 62.7851C36.9445 62.8279 36.953 62.8703 36.9699 62.9097C36.9867 62.9491 37.0114 62.9847 37.0425 63.0141C37.0736 63.0436 37.1105 63.0663 37.1507 63.081C37.191 63.0957 37.2338 63.1019 37.2766 63.0994H43.9018C43.9448 63.1019 43.9878 63.0956 44.0282 63.0808C44.0686 63.066 44.1055 63.0431 44.1367 63.0133C44.1678 62.9836 44.1925 62.9479 44.2092 62.9082C44.2259 62.8685 44.2342 62.8259 44.2337 62.7828C44.1398 61.7762 43.7512 57.671 43.6651 56.7542C43.6609 56.6968 43.6794 56.6401 43.7166 56.5962C43.7537 56.5523 43.8066 56.5247 43.8639 56.5193C43.9212 56.5139 43.9783 56.5311 44.023 56.5673C44.0677 56.6035 44.0964 56.6558 44.1031 56.7129L44.1698 57.42C44.1731 57.4547 44.1846 57.4882 44.2034 57.5176C44.2222 57.547 44.2477 57.5715 44.2778 57.5891C44.308 57.6067 44.3419 57.6168 44.3767 57.6187C44.4115 57.6206 44.4463 57.6142 44.4782 57.6L46.2033 56.8303C46.241 56.8125 46.2702 56.7806 46.2846 56.7415C46.299 56.7024 46.2974 56.6595 46.2803 56.6215ZM40.1626 60.8483C40.1609 60.9054 40.137 60.9596 40.0959 60.9994C40.0549 61.0392 40 61.0614 39.9429 61.0614C39.8857 61.0614 39.8309 61.0392 39.7898 60.9994C39.7488 60.9596 39.7249 60.9054 39.7232 60.8483V58.6328L39.5099 58.7646C39.4604 58.7939 39.4013 58.8026 39.3455 58.7888C39.2896 58.775 39.2414 58.7399 39.2112 58.6909C39.181 58.642 39.1712 58.5831 39.1839 58.527C39.1966 58.4709 39.2309 58.422 39.2792 58.3909L39.8264 58.05C39.8599 58.0301 39.898 58.0194 39.937 58.0188C39.9759 58.0183 40.0143 58.0279 40.0484 58.0468C40.0824 58.0658 40.1109 58.0933 40.131 58.1266C40.151 58.16 40.162 58.1981 40.1628 58.237L40.1626 60.8483ZM41.7432 60.8483C41.7432 60.9066 41.72 60.9625 41.6788 61.0038C41.6376 61.045 41.5817 61.0681 41.5234 61.0681C41.4651 61.0681 41.4092 61.045 41.3679 61.0038C41.3267 60.9625 41.3036 60.9066 41.3036 60.8483V58.6328L41.0905 58.7646C41.0409 58.7952 40.9812 58.8049 40.9245 58.7915C40.8678 58.7781 40.8188 58.7427 40.7882 58.6932C40.7576 58.6436 40.7479 58.5839 40.7613 58.5272C40.7747 58.4705 40.8101 58.4215 40.8596 58.3909L41.4068 58.05C41.4403 58.0301 41.4784 58.0194 41.5174 58.0188C41.5563 58.0183 41.5947 58.0279 41.6287 58.0468C41.6628 58.0658 41.6913 58.0933 41.7114 58.1266C41.7314 58.16 41.7424 58.1981 41.7432 58.237V60.8483Z" fill="#FAFAFA"/>
<path d="M40.1626 60.8483C40.1609 60.9054 40.137 60.9596 40.0959 60.9994C40.0549 61.0392 40 61.0614 39.9429 61.0614C39.8857 61.0614 39.8309 61.0392 39.7898 60.9994C39.7488 60.9596 39.7249 60.9054 39.7232 60.8483V58.6328L39.5099 58.7646C39.4604 58.7939 39.4013 58.8026 39.3455 58.7888C39.2896 58.775 39.2414 58.7399 39.2112 58.6909C39.181 58.642 39.1712 58.5831 39.1839 58.527C39.1966 58.4709 39.2309 58.422 39.2792 58.3909L39.8264 58.05C39.8599 58.0301 39.898 58.0194 39.937 58.0188C39.9759 58.0183 40.0143 58.0279 40.0484 58.0468C40.0824 58.0658 40.1109 58.0933 40.131 58.1266C40.151 58.16 40.162 58.1981 40.1628 58.237L40.1626 60.8483Z" fill="#FAFAFA"/>
<path d="M41.7432 60.8483C41.7432 60.9066 41.72 60.9625 41.6788 61.0038C41.6376 61.045 41.5817 61.0681 41.5234 61.0681C41.4651 61.0681 41.4092 61.045 41.3679 61.0038C41.3267 60.9625 41.3036 60.9066 41.3036 60.8483V58.6328L41.0905 58.7646C41.0409 58.7952 40.9812 58.8049 40.9245 58.7915C40.8678 58.7781 40.8188 58.7427 40.7882 58.6932C40.7576 58.6436 40.7479 58.5839 40.7613 58.5272C40.7747 58.4705 40.8101 58.4215 40.8596 58.3909L41.4068 58.05C41.4403 58.0301 41.4784 58.0194 41.5174 58.0188C41.5563 58.0183 41.5947 58.0279 41.6287 58.0468C41.6628 58.0658 41.6913 58.0933 41.7114 58.1266C41.7314 58.16 41.7424 58.1981 41.7432 58.237V60.8483Z" fill="#FAFAFA"/>
<path d="M39.5493 58.332H41.841" stroke="#191919" stroke-width="0.343756" stroke-linecap="round" stroke-linejoin="round"/>
<path d="M40.6948 59.4792V57.1875" stroke="#191919" stroke-width="0.343756" stroke-linecap="round" stroke-linejoin="round"/>
</g>
<path d="M8.51785 28.8673C8.88674 28.8668 9.24039 28.7201 9.50123 28.4593C9.76207 28.1984 9.90881 27.8448 9.90924 27.4759V26.9944C8.98909 27.1677 8.04406 27.161 7.12646 26.9746V27.4759C7.1269 27.8448 7.27363 28.1984 7.53447 28.4593C7.79531 28.7201 8.14897 28.8668 8.51785 28.8673Z" fill="#FAFAFA"/>
<path d="M14.2178 31.6215L13.0768 29.2233C12.8616 28.7743 12.4825 28.425 12.0175 28.2472L11.1468 27.9154C10.8023 27.8135 10.5508 27.4088 10.3487 27.1328V27.4102C10.357 27.666 10.3118 27.9208 10.2161 28.1582C10.1203 28.3956 9.97618 28.6104 9.79277 28.789C9.60937 28.9675 9.39076 29.1059 9.15089 29.1953C8.91102 29.2846 8.65515 29.323 8.39963 29.3079C8.1441 29.2928 7.89452 29.2247 7.66681 29.1077C7.4391 28.9908 7.23827 28.8277 7.07713 28.6288C6.91599 28.4299 6.79807 28.1997 6.73092 27.9526C6.66376 27.7056 6.64883 27.4473 6.68708 27.1942C6.53652 27.4837 6.29027 27.7121 5.99027 27.8404L5.17466 28.1329C4.70653 28.2985 4.32059 28.6388 4.0976 29.0824L2.81806 31.6215C2.80029 31.66 2.79841 31.7039 2.81281 31.7438C2.82721 31.7837 2.85674 31.8163 2.89501 31.8346L4.59929 32.6096C4.6313 32.6242 4.66635 32.6309 4.70149 32.6291C4.73664 32.6274 4.77085 32.6172 4.80124 32.5995C4.83164 32.5818 4.85734 32.557 4.87619 32.5273C4.89503 32.4976 4.90647 32.4638 4.90953 32.4287L4.97219 31.7144C4.97872 31.6571 5.00738 31.6046 5.05204 31.5681C5.09671 31.5316 5.15386 31.514 5.21131 31.519C5.26877 31.524 5.32199 31.5513 5.35964 31.595C5.39728 31.6387 5.41638 31.6954 5.41285 31.7529L4.88218 37.7851C4.88197 37.8279 4.89054 37.8703 4.90737 37.9097C4.9242 37.9491 4.94893 37.9847 4.98004 38.0141C5.01114 38.0436 5.04796 38.0663 5.08821 38.081C5.12846 38.0957 5.17129 38.1019 5.21406 38.0994H11.8393C11.8823 38.1019 11.9253 38.0956 11.9657 38.0808C12.0061 38.066 12.043 38.0431 12.0742 38.0133C12.1053 37.9836 12.13 37.9479 12.1467 37.9082C12.1634 37.8685 12.1717 37.8259 12.1712 37.7828C12.0773 36.7762 11.6887 32.671 11.6026 31.7542C11.5984 31.6968 11.6169 31.6401 11.6541 31.5962C11.6912 31.5523 11.7441 31.5247 11.8014 31.5193C11.8587 31.5139 11.9158 31.5311 11.9605 31.5673C12.0052 31.6035 12.0339 31.6558 12.0406 31.7129L12.1073 32.42C12.1106 32.4547 12.1221 32.4882 12.1409 32.5176C12.1597 32.547 12.1852 32.5715 12.2153 32.5891C12.2455 32.6067 12.2794 32.6168 12.3142 32.6187C12.349 32.6206 12.3838 32.6142 12.4157 32.6L14.1408 31.8303C14.1785 31.8125 14.2077 31.7806 14.2221 31.7415C14.2365 31.7024 14.2349 31.6595 14.2178 31.6215ZM8.10011 35.8483C8.09837 35.9054 8.07445 35.9596 8.03344 35.9994C7.99242 36.0392 7.93753 36.0614 7.88039 36.0614C7.82325 36.0614 7.76835 36.0392 7.72734 35.9994C7.68632 35.9596 7.66241 35.9054 7.66067 35.8483V33.6328L7.44738 33.7646C7.39786 33.7939 7.33883 33.8026 7.28297 33.7888C7.22712 33.775 7.1789 33.7399 7.14869 33.6909C7.11847 33.642 7.10868 33.5831 7.1214 33.527C7.13413 33.4709 7.16836 33.422 7.21674 33.3909L7.76395 33.05C7.79743 33.0301 7.83554 33.0194 7.87448 33.0188C7.91342 33.0183 7.95182 33.0279 7.98586 33.0468C8.0199 33.0658 8.04838 33.0933 8.06846 33.1266C8.08854 33.16 8.09953 33.1981 8.10031 33.237L8.10011 35.8483ZM9.6807 35.8483C9.6807 35.9066 9.65754 35.9625 9.61631 36.0038C9.57509 36.045 9.51918 36.0681 9.46088 36.0681C9.40258 36.0681 9.34666 36.045 9.30544 36.0038C9.26421 35.9625 9.24106 35.9066 9.24106 35.8483V33.6328L9.02797 33.7646C8.97841 33.7952 8.91872 33.8049 8.86203 33.7915C8.80535 33.7781 8.7563 33.7427 8.72569 33.6932C8.69508 33.6436 8.68541 33.5839 8.6988 33.5272C8.7122 33.4705 8.74757 33.4215 8.79713 33.3909L9.34433 33.05C9.37781 33.0301 9.41593 33.0194 9.45486 33.0188C9.4938 33.0183 9.53221 33.0279 9.56625 33.0468C9.60029 33.0658 9.62877 33.0933 9.64885 33.1266C9.66893 33.16 9.67991 33.1981 9.6807 33.237V35.8483Z" fill="#FAFAFA"/>
<path d="M8.10011 35.8483C8.09837 35.9054 8.07445 35.9596 8.03344 35.9994C7.99242 36.0392 7.93753 36.0614 7.88039 36.0614C7.82325 36.0614 7.76835 36.0392 7.72734 35.9994C7.68632 35.9596 7.66241 35.9054 7.66067 35.8483V33.6328L7.44738 33.7646C7.39786 33.7939 7.33883 33.8026 7.28297 33.7888C7.22712 33.775 7.1789 33.7399 7.14869 33.6909C7.11847 33.642 7.10868 33.5831 7.1214 33.527C7.13413 33.4709 7.16836 33.422 7.21674 33.3909L7.76395 33.05C7.79743 33.0301 7.83554 33.0194 7.87448 33.0188C7.91342 33.0183 7.95182 33.0279 7.98586 33.0468C8.0199 33.0658 8.04838 33.0933 8.06846 33.1266C8.08854 33.16 8.09953 33.1981 8.10031 33.237L8.10011 35.8483Z" fill="#FAFAFA"/>
<path d="M9.6807 35.8483C9.6807 35.9066 9.65754 35.9625 9.61631 36.0038C9.57509 36.045 9.51918 36.0681 9.46088 36.0681C9.40258 36.0681 9.34666 36.045 9.30544 36.0038C9.26421 35.9625 9.24106 35.9066 9.24106 35.8483V33.6328L9.02797 33.7646C8.97841 33.7952 8.91872 33.8049 8.86203 33.7915C8.80535 33.7781 8.7563 33.7427 8.72569 33.6932C8.69508 33.6436 8.68541 33.5839 8.6988 33.5272C8.7122 33.4705 8.74757 33.4215 8.79713 33.3909L9.34433 33.05C9.37781 33.0301 9.41593 33.0194 9.45486 33.0188C9.4938 33.0183 9.53221 33.0279 9.56625 33.0468C9.60029 33.0658 9.62877 33.0933 9.64885 33.1266C9.66893 33.16 9.67991 33.1981 9.6807 33.237V35.8483Z" fill="#FAFAFA"/>
<path d="M7.48682 33.332H9.77853" stroke="#191919" stroke-width="0.343756" stroke-linecap="round" stroke-linejoin="round"/>
<path d="M8.63232 34.4792V32.1875" stroke="#191919" stroke-width="0.343756" stroke-linecap="round" stroke-linejoin="round"/>
<g clip-path="url(#clip5_8758_19530)">
<path d="M26.5808 31.8673C26.9497 31.8668 27.3034 31.7201 27.5642 31.4593C27.8251 31.1984 27.9718 30.8448 27.9722 30.4759V29.9944C27.0521 30.1677 26.107 30.161 25.1895 29.9746V30.4759C25.1899 30.8448 25.3366 31.1984 25.5975 31.4593C25.8583 31.7201 26.212 31.8668 26.5808 31.8673Z" fill="#FAFAFA"/>
<path d="M32.2807 34.6215L31.1398 32.2233C30.9246 31.7743 30.5455 31.425 30.0805 31.2472L29.2098 30.9154C28.8652 30.8135 28.6138 30.4088 28.4117 30.1328V30.4102C28.42 30.666 28.3748 30.9208 28.2791 31.1582C28.1833 31.3956 28.0392 31.6104 27.8558 31.789C27.6724 31.9675 27.4538 32.1059 27.2139 32.1953C26.974 32.2846 26.7181 32.323 26.4626 32.3079C26.2071 32.2928 25.9575 32.2247 25.7298 32.1077C25.5021 31.9908 25.3013 31.8277 25.1401 31.6288C24.979 31.4299 24.8611 31.1997 24.7939 30.9526C24.7267 30.7056 24.7118 30.4473 24.7501 30.1942C24.5995 30.4837 24.3533 30.7121 24.0533 30.8404L23.2377 31.1329C22.7695 31.2985 22.3836 31.6388 22.1606 32.0824L20.8811 34.6215C20.8633 34.66 20.8614 34.7039 20.8758 34.7438C20.8902 34.7837 20.9197 34.8163 20.958 34.8346L22.6623 35.6096C22.6943 35.6242 22.7293 35.6309 22.7645 35.6291C22.7996 35.6274 22.8338 35.6172 22.8642 35.5995C22.8946 35.5818 22.9203 35.557 22.9392 35.5273C22.958 35.4976 22.9695 35.4638 22.9725 35.4287L23.0352 34.7144C23.0417 34.6571 23.0704 34.6046 23.115 34.5681C23.1597 34.5316 23.2168 34.514 23.2743 34.519C23.3318 34.524 23.385 34.5513 23.4226 34.595C23.4603 34.6387 23.4794 34.6954 23.4758 34.7529L22.9452 40.7851C22.945 40.8279 22.9535 40.8703 22.9704 40.9097C22.9872 40.9491 23.0119 40.9847 23.043 41.0141C23.0741 41.0436 23.1109 41.0663 23.1512 41.081C23.1914 41.0957 23.2343 41.1019 23.277 41.0994H29.9023C29.9453 41.1019 29.9883 41.0956 30.0287 41.0808C30.0691 41.066 30.106 41.0431 30.1371 41.0133C30.1683 40.9836 30.193 40.9479 30.2097 40.9082C30.2264 40.8685 30.2347 40.8259 30.2342 40.7828C30.1403 39.7762 29.7517 35.671 29.6655 34.7542C29.6614 34.6968 29.6799 34.6401 29.7171 34.5962C29.7542 34.5523 29.8071 34.5247 29.8644 34.5193C29.9216 34.5139 29.9788 34.5311 30.0235 34.5673C30.0682 34.6035 30.0969 34.6558 30.1036 34.7129L30.1703 35.42C30.1736 35.4547 30.1851 35.4882 30.2039 35.5176C30.2227 35.547 30.2482 35.5715 30.2783 35.5891C30.3085 35.6067 30.3424 35.6168 30.3772 35.6187C30.412 35.6206 30.4468 35.6142 30.4787 35.6L32.2038 34.8303C32.2415 34.8125 32.2707 34.7806 32.2851 34.7415C32.2994 34.7024 32.2979 34.6595 32.2807 34.6215ZM26.1631 38.8483C26.1614 38.9054 26.1374 38.9596 26.0964 38.9994C26.0554 39.0392 26.0005 39.0614 25.9434 39.0614C25.8862 39.0614 25.8313 39.0392 25.7903 38.9994C25.7493 38.9596 25.7254 38.9054 25.7237 38.8483V36.6328L25.5104 36.7646C25.4608 36.7939 25.4018 36.8026 25.346 36.7888C25.2901 36.775 25.2419 36.7399 25.2117 36.6909C25.1815 36.642 25.1717 36.5831 25.1844 36.527C25.1971 36.4709 25.2313 36.422 25.2797 36.3909L25.8269 36.05C25.8604 36.0301 25.8985 36.0194 25.9375 36.0188C25.9764 36.0183 26.0148 36.0279 26.0488 36.0468C26.0829 36.0658 26.1114 36.0933 26.1315 36.1266C26.1515 36.16 26.1625 36.1981 26.1633 36.237L26.1631 38.8483ZM27.7437 38.8483C27.7437 38.9066 27.7205 38.9625 27.6793 39.0038C27.6381 39.045 27.5822 39.0681 27.5239 39.0681C27.4656 39.0681 27.4097 39.045 27.3684 39.0038C27.3272 38.9625 27.304 38.9066 27.304 38.8483V36.6328L27.091 36.7646C27.0414 36.7952 26.9817 36.8049 26.925 36.7915C26.8683 36.7781 26.8193 36.7427 26.7887 36.6932C26.7581 36.6436 26.7484 36.5839 26.7618 36.5272C26.7752 36.4705 26.8106 36.4215 26.8601 36.3909L27.4073 36.05C27.4408 36.0301 27.4789 36.0194 27.5179 36.0188C27.5568 36.0183 27.5952 36.0279 27.6292 36.0468C27.6633 36.0658 27.6918 36.0933 27.7118 36.1266C27.7319 36.16 27.7429 36.1981 27.7437 36.237V38.8483Z" fill="#FAFAFA"/>
<path d="M26.1631 38.8483C26.1614 38.9054 26.1374 38.9596 26.0964 38.9994C26.0554 39.0392 26.0005 39.0614 25.9434 39.0614C25.8862 39.0614 25.8313 39.0392 25.7903 38.9994C25.7493 38.9596 25.7254 38.9054 25.7237 38.8483V36.6328L25.5104 36.7646C25.4608 36.7939 25.4018 36.8026 25.346 36.7888C25.2901 36.775 25.2419 36.7399 25.2117 36.6909C25.1815 36.642 25.1717 36.5831 25.1844 36.527C25.1971 36.4709 25.2313 36.422 25.2797 36.3909L25.8269 36.05C25.8604 36.0301 25.8985 36.0194 25.9375 36.0188C25.9764 36.0183 26.0148 36.0279 26.0488 36.0468C26.0829 36.0658 26.1114 36.0933 26.1315 36.1266C26.1515 36.16 26.1625 36.1981 26.1633 36.237L26.1631 38.8483Z" fill="#FAFAFA"/>
<path d="M27.7437 38.8483C27.7437 38.9066 27.7205 38.9625 27.6793 39.0038C27.6381 39.045 27.5822 39.0681 27.5239 39.0681C27.4656 39.0681 27.4097 39.045 27.3684 39.0038C27.3272 38.9625 27.304 38.9066 27.304 38.8483V36.6328L27.091 36.7646C27.0414 36.7952 26.9817 36.8049 26.925 36.7915C26.8683 36.7781 26.8193 36.7427 26.7887 36.6932C26.7581 36.6436 26.7484 36.5839 26.7618 36.5272C26.7752 36.4705 26.8106 36.4215 26.8601 36.3909L27.4073 36.05C27.4408 36.0301 27.4789 36.0194 27.5179 36.0188C27.5568 36.0183 27.5952 36.0279 27.6292 36.0468C27.6633 36.0658 27.6918 36.0933 27.7118 36.1266C27.7319 36.16 27.7429 36.1981 27.7437 36.237V38.8483Z" fill="#FAFAFA"/>
<path d="M25.5503 36.332H27.842" stroke="#191919" stroke-width="0.343756" stroke-linecap="round" stroke-linejoin="round"/>
<path d="M26.6958 37.4792V35.1875" stroke="#191919" stroke-width="0.343756" stroke-linecap="round" stroke-linejoin="round"/>
</g>
<g clip-path="url(#clip6_8758_19530)">
<path d="M71.6433 29.8673C72.0122 29.8668 72.3659 29.7201 72.6267 29.4593C72.8876 29.1984 73.0343 28.8448 73.0347 28.4759V27.9944C72.1146 28.1677 71.1695 28.161 70.252 27.9746V28.4759C70.2524 28.8448 70.3991 29.1984 70.66 29.4593C70.9208 29.7201 71.2745 29.8668 71.6433 29.8673Z" fill="#FAFAFA"/>
<path d="M77.3432 32.6215L76.2023 30.2233C75.9871 29.7743 75.608 29.425 75.143 29.2472L74.2723 28.9154C73.9277 28.8135 73.6763 28.4088 73.4742 28.1328V28.4102C73.4825 28.666 73.4373 28.9208 73.3416 29.1582C73.2458 29.3956 73.1017 29.6104 72.9183 29.789C72.7349 29.9675 72.5163 30.1059 72.2764 30.1953C72.0365 30.2846 71.7806 30.323 71.5251 30.3079C71.2696 30.2928 71.02 30.2247 70.7923 30.1077C70.5646 29.9908 70.3638 29.8277 70.2026 29.6288C70.0415 29.4299 69.9236 29.1997 69.8564 28.9526C69.7892 28.7056 69.7743 28.4473 69.8126 28.1942C69.662 28.4837 69.4158 28.7121 69.1158 28.8404L68.3002 29.1329C67.832 29.2985 67.4461 29.6388 67.2231 30.0824L65.9436 32.6215C65.9258 32.66 65.9239 32.7039 65.9383 32.7438C65.9527 32.7837 65.9822 32.8163 66.0205 32.8346L67.7248 33.6096C67.7568 33.6242 67.7918 33.6309 67.827 33.6291C67.8621 33.6274 67.8963 33.6172 67.9267 33.5995C67.9571 33.5818 67.9828 33.557 68.0017 33.5273C68.0205 33.4976 68.032 33.4638 68.035 33.4287L68.0977 32.7144C68.1042 32.6571 68.1329 32.6046 68.1775 32.5681C68.2222 32.5316 68.2793 32.514 68.3368 32.519C68.3943 32.524 68.4475 32.5513 68.4851 32.595C68.5228 32.6387 68.5419 32.6954 68.5383 32.7529L68.0077 38.7851C68.0075 38.8279 68.016 38.8703 68.0329 38.9097C68.0497 38.9491 68.0744 38.9847 68.1055 39.0141C68.1366 39.0436 68.1734 39.0663 68.2137 39.081C68.2539 39.0957 68.2968 39.1019 68.3395 39.0994H74.9648C75.0078 39.1019 75.0508 39.0956 75.0912 39.0808C75.1316 39.066 75.1685 39.0431 75.1996 39.0133C75.2308 38.9836 75.2555 38.9479 75.2722 38.9082C75.2889 38.8685 75.2972 38.8259 75.2967 38.7828C75.2028 37.7762 74.8142 33.671 74.728 32.7542C74.7239 32.6968 74.7424 32.6401 74.7796 32.5962C74.8167 32.5523 74.8696 32.5247 74.9269 32.5193C74.9841 32.5139 75.0413 32.5311 75.086 32.5673C75.1307 32.6035 75.1594 32.6558 75.1661 32.7129L75.2328 33.42C75.2361 33.4547 75.2476 33.4882 75.2664 33.5176C75.2852 33.547 75.3107 33.5715 75.3408 33.5891C75.371 33.6067 75.4049 33.6168 75.4397 33.6187C75.4745 33.6206 75.5093 33.6142 75.5412 33.6L77.2663 32.8303C77.304 32.8125 77.3332 32.7806 77.3476 32.7415C77.3619 32.7024 77.3604 32.6595 77.3432 32.6215ZM71.2256 36.8483C71.2239 36.9054 71.1999 36.9596 71.1589 36.9994C71.1179 37.0392 71.063 37.0614 71.0059 37.0614C70.9487 37.0614 70.8938 37.0392 70.8528 36.9994C70.8118 36.9596 70.7879 36.9054 70.7862 36.8483V34.6328L70.5729 34.7646C70.5233 34.7939 70.4643 34.8026 70.4085 34.7888C70.3526 34.775 70.3044 34.7399 70.2742 34.6909C70.244 34.642 70.2342 34.5831 70.2469 34.527C70.2596 34.4709 70.2938 34.422 70.3422 34.3909L70.8894 34.05C70.9229 34.0301 70.961 34.0194 71 34.0188C71.0389 34.0183 71.0773 34.0279 71.1113 34.0468C71.1454 34.0658 71.1739 34.0933 71.194 34.1266C71.214 34.16 71.225 34.1981 71.2258 34.237L71.2256 36.8483ZM72.8062 36.8483C72.8062 36.9066 72.783 36.9625 72.7418 37.0038C72.7006 37.045 72.6447 37.0681 72.5864 37.0681C72.5281 37.0681 72.4722 37.045 72.4309 37.0038C72.3897 36.9625 72.3665 36.9066 72.3665 36.8483V34.6328L72.1535 34.7646C72.1039 34.7952 72.0442 34.8049 71.9875 34.7915C71.9308 34.7781 71.8818 34.7427 71.8512 34.6932C71.8206 34.6436 71.8109 34.5839 71.8243 34.5272C71.8377 34.4705 71.8731 34.4215 71.9226 34.3909L72.4698 34.05C72.5033 34.0301 72.5414 34.0194 72.5804 34.0188C72.6193 34.0183 72.6577 34.0279 72.6917 34.0468C72.7258 34.0658 72.7543 34.0933 72.7743 34.1266C72.7944 34.16 72.8054 34.1981 72.8062 34.237V36.8483Z" fill="#FAFAFA"/>
<path d="M71.2256 36.8483C71.2239 36.9054 71.1999 36.9596 71.1589 36.9994C71.1179 37.0392 71.063 37.0614 71.0059 37.0614C70.9487 37.0614 70.8938 37.0392 70.8528 36.9994C70.8118 36.9596 70.7879 36.9054 70.7862 36.8483V34.6328L70.5729 34.7646C70.5233 34.7939 70.4643 34.8026 70.4085 34.7888C70.3526 34.775 70.3044 34.7399 70.2742 34.6909C70.244 34.642 70.2342 34.5831 70.2469 34.527C70.2596 34.4709 70.2938 34.422 70.3422 34.3909L70.8894 34.05C70.9229 34.0301 70.961 34.0194 71 34.0188C71.0389 34.0183 71.0773 34.0279 71.1113 34.0468C71.1454 34.0658 71.1739 34.0933 71.194 34.1266C71.214 34.16 71.225 34.1981 71.2258 34.237L71.2256 36.8483Z" fill="#FAFAFA"/>
<path d="M72.8062 36.8483C72.8062 36.9066 72.783 36.9625 72.7418 37.0038C72.7006 37.045 72.6447 37.0681 72.5864 37.0681C72.5281 37.0681 72.4722 37.045 72.4309 37.0038C72.3897 36.9625 72.3665 36.9066 72.3665 36.8483V34.6328L72.1535 34.7646C72.1039 34.7952 72.0442 34.8049 71.9875 34.7915C71.9308 34.7781 71.8818 34.7427 71.8512 34.6932C71.8206 34.6436 71.8109 34.5839 71.8243 34.5272C71.8377 34.4705 71.8731 34.4215 71.9226 34.3909L72.4698 34.05C72.5033 34.0301 72.5414 34.0194 72.5804 34.0188C72.6193 34.0183 72.6577 34.0279 72.6917 34.0468C72.7258 34.0658 72.7543 34.0933 72.7743 34.1266C72.7944 34.16 72.8054 34.1981 72.8062 34.237V36.8483Z" fill="#FAFAFA"/>
<path d="M70.6128 34.332H72.9045" stroke="#191919" stroke-width="0.343756" stroke-linecap="round" stroke-linejoin="round"/>
<path d="M71.7583 35.4792V33.1875" stroke="#191919" stroke-width="0.343756" stroke-linecap="round" stroke-linejoin="round"/>
</g>
<g clip-path="url(#clip7_8758_19530)">
<path d="M40.7058 5.86728C41.0747 5.86685 41.4284 5.72012 41.6892 5.45927C41.9501 5.19843 42.0968 4.84478 42.0972 4.47589V3.99441C41.1771 4.16774 40.232 4.16102 39.3145 3.97461V4.47589C39.3149 4.84478 39.4616 5.19843 39.7225 5.45927C39.9833 5.72012 40.337 5.86685 40.7058 5.86728Z" fill="#FAFAFA"/>
<path d="M46.4057 8.6215L45.2648 6.22326C45.0496 5.77433 44.6705 5.42501 44.2055 5.24723L43.3348 4.91535C42.9902 4.8135 42.7388 4.40876 42.5367 4.13281V4.41019C42.545 4.66603 42.4998 4.92078 42.4041 5.15818C42.3083 5.39558 42.1642 5.61042 41.9808 5.78898C41.7974 5.96755 41.5788 6.10592 41.3389 6.19527C41.099 6.28462 40.8431 6.32299 40.5876 6.30792C40.3321 6.29285 40.0825 6.22467 39.8548 6.10775C39.6271 5.99082 39.4263 5.82772 39.2651 5.62883C39.104 5.42994 38.9861 5.19965 38.9189 4.95265C38.8517 4.70564 38.8368 4.44735 38.8751 4.19425C38.7245 4.48374 38.4783 4.7121 38.1783 4.84045L37.3627 5.13293C36.8945 5.29852 36.5086 5.63876 36.2856 6.08243L35.0061 8.6215C34.9883 8.66 34.9864 8.70395 35.0008 8.74383C35.0152 8.78371 35.0447 8.81632 35.083 8.83458L36.7873 9.60957C36.8193 9.62418 36.8543 9.63089 36.8895 9.62913C36.9246 9.62738 36.9588 9.61722 36.9892 9.5995C37.0196 9.58178 37.0453 9.55702 37.0642 9.52731C37.083 9.49759 37.0945 9.46379 37.0975 9.42873L37.1602 8.71437C37.1667 8.65706 37.1954 8.60457 37.24 8.56808C37.2847 8.53159 37.3418 8.51399 37.3993 8.51902C37.4568 8.52405 37.51 8.55131 37.5476 8.59501C37.5853 8.6387 37.6044 8.69537 37.6008 8.75294L37.0702 14.7851C37.07 14.8279 37.0785 14.8703 37.0954 14.9097C37.1122 14.9491 37.1369 14.9847 37.168 15.0141C37.1991 15.0436 37.2359 15.0663 37.2762 15.081C37.3164 15.0957 37.3593 15.1019 37.402 15.0994H44.0273C44.0703 15.1019 44.1133 15.0956 44.1537 15.0808C44.1941 15.066 44.231 15.0431 44.2621 15.0133C44.2933 14.9836 44.318 14.9479 44.3347 14.9082C44.3514 14.8685 44.3597 14.8259 44.3592 14.7828C44.2653 13.7762 43.8767 9.67101 43.7905 8.75417C43.7864 8.69679 43.8049 8.64008 43.8421 8.59618C43.8792 8.55227 43.9321 8.52467 43.9894 8.51928C44.0466 8.51389 44.1038 8.53114 44.1485 8.56734C44.1932 8.60353 44.2219 8.6558 44.2286 8.71294L44.2953 9.41996C44.2986 9.4547 44.3101 9.48815 44.3289 9.51756C44.3477 9.54697 44.3732 9.57148 44.4033 9.58908C44.4335 9.60667 44.4674 9.61683 44.5022 9.61873C44.537 9.62062 44.5718 9.6142 44.6037 9.59998L46.3288 8.8303C46.3665 8.81252 46.3957 8.78065 46.4101 8.74155C46.4244 8.70245 46.4229 8.65946 46.4057 8.6215ZM40.2881 12.8483C40.2864 12.9054 40.2624 12.9596 40.2214 12.9994C40.1804 13.0392 40.1255 13.0614 40.0684 13.0614C40.0112 13.0614 39.9563 13.0392 39.9153 12.9994C39.8743 12.9596 39.8504 12.9054 39.8487 12.8483V10.6328L39.6354 10.7646C39.5858 10.7939 39.5268 10.8026 39.471 10.7888C39.4151 10.775 39.3669 10.7399 39.3367 10.6909C39.3065 10.642 39.2967 10.5831 39.3094 10.527C39.3221 10.4709 39.3563 10.422 39.4047 10.3909L39.9519 10.05C39.9854 10.0301 40.0235 10.0194 40.0625 10.0188C40.1014 10.0183 40.1398 10.0279 40.1738 10.0468C40.2079 10.0658 40.2364 10.0933 40.2565 10.1266C40.2765 10.16 40.2875 10.1981 40.2883 10.237L40.2881 12.8483ZM41.8687 12.8483C41.8687 12.9066 41.8455 12.9625 41.8043 13.0038C41.7631 13.045 41.7072 13.0681 41.6489 13.0681C41.5906 13.0681 41.5347 13.045 41.4934 13.0038C41.4522 12.9625 41.429 12.9066 41.429 12.8483V10.6328L41.216 10.7646C41.1664 10.7952 41.1067 10.8049 41.05 10.7915C40.9933 10.7781 40.9443 10.7427 40.9137 10.6932C40.8831 10.6436 40.8734 10.5839 40.8868 10.5272C40.9002 10.4705 40.9356 10.4215 40.9851 10.3909L41.5323 10.05C41.5658 10.0301 41.6039 10.0194 41.6429 10.0188C41.6818 10.0183 41.7202 10.0279 41.7542 10.0468C41.7883 10.0658 41.8168 10.0933 41.8368 10.1266C41.8569 10.16 41.8679 10.1981 41.8687 10.237V12.8483Z" fill="#FAFAFA"/>
<path d="M40.2881 12.8483C40.2864 12.9054 40.2624 12.9596 40.2214 12.9994C40.1804 13.0392 40.1255 13.0614 40.0684 13.0614C40.0112 13.0614 39.9563 13.0392 39.9153 12.9994C39.8743 12.9596 39.8504 12.9054 39.8487 12.8483V10.6328L39.6354 10.7646C39.5858 10.7939 39.5268 10.8026 39.471 10.7888C39.4151 10.775 39.3669 10.7399 39.3367 10.6909C39.3065 10.642 39.2967 10.5831 39.3094 10.527C39.3221 10.4709 39.3563 10.422 39.4047 10.3909L39.9519 10.05C39.9854 10.0301 40.0235 10.0194 40.0625 10.0188C40.1014 10.0183 40.1398 10.0279 40.1738 10.0468C40.2079 10.0658 40.2364 10.0933 40.2565 10.1266C40.2765 10.16 40.2875 10.1981 40.2883 10.237L40.2881 12.8483Z" fill="#FAFAFA"/>
<path d="M41.8687 12.8483C41.8687 12.9066 41.8455 12.9625 41.8043 13.0038C41.7631 13.045 41.7072 13.0681 41.6489 13.0681C41.5906 13.0681 41.5347 13.045 41.4934 13.0038C41.4522 12.9625 41.429 12.9066 41.429 12.8483V10.6328L41.216 10.7646C41.1664 10.7952 41.1067 10.8049 41.05 10.7915C40.9933 10.7781 40.9443 10.7427 40.9137 10.6932C40.8831 10.6436 40.8734 10.5839 40.8868 10.5272C40.9002 10.4705 40.9356 10.4215 40.9851 10.3909L41.5323 10.05C41.5658 10.0301 41.6039 10.0194 41.6429 10.0188C41.6818 10.0183 41.7202 10.0279 41.7542 10.0468C41.7883 10.0658 41.8168 10.0933 41.8368 10.1266C41.8569 10.16 41.8679 10.1981 41.8687 10.237V12.8483Z" fill="#FAFAFA"/>
<path d="M39.6753 10.332H41.967" stroke="#191919" stroke-width="0.343756" stroke-linecap="round" stroke-linejoin="round"/>
<path d="M40.8208 11.4792V9.1875" stroke="#191919" stroke-width="0.343756" stroke-linecap="round" stroke-linejoin="round"/>
</g>
<path d="M54.7688 31.8673C55.1377 31.8668 55.4914 31.7201 55.7522 31.4593C56.0131 31.1984 56.1598 30.8448 56.1602 30.4759V29.9944C55.2401 30.1677 54.295 30.161 53.3774 29.9746V30.4759C53.3779 30.8448 53.5246 31.1984 53.7854 31.4593C54.0463 31.7201 54.3999 31.8668 54.7688 31.8673Z" fill="#FAFAFA"/>
<path d="M60.4687 34.6215L59.3278 32.2233C59.1126 31.7743 58.7335 31.425 58.2685 31.2472L57.3978 30.9154C57.0532 30.8135 56.8018 30.4088 56.5997 30.1328V30.4102C56.608 30.666 56.5628 30.9208 56.467 31.1582C56.3713 31.3956 56.2272 31.6104 56.0438 31.789C55.8604 31.9675 55.6417 32.1059 55.4019 32.1953C55.162 32.2846 54.9061 32.323 54.6506 32.3079C54.3951 32.2928 54.1455 32.2247 53.9178 32.1077C53.6901 31.9908 53.4892 31.8277 53.3281 31.6288C53.167 31.4299 53.0491 31.1997 52.9819 30.9526C52.9147 30.7056 52.8998 30.4473 52.9381 30.1942C52.7875 30.4837 52.5413 30.7121 52.2412 30.8404L51.4256 31.1329C50.9575 31.2985 50.5716 31.6388 50.3486 32.0824L49.069 34.6215C49.0513 34.66 49.0494 34.7039 49.0638 34.7438C49.0782 34.7837 49.1077 34.8163 49.146 34.8346L50.8503 35.6096C50.8823 35.6242 50.9173 35.6309 50.9525 35.6291C50.9876 35.6274 51.0218 35.6172 51.0522 35.5995C51.0826 35.5818 51.1083 35.557 51.1272 35.5273C51.146 35.4976 51.1574 35.4638 51.1605 35.4287L51.2232 34.7144C51.2297 34.6571 51.2584 34.6046 51.303 34.5681C51.3477 34.5316 51.4048 34.514 51.4623 34.519C51.5197 34.524 51.573 34.5513 51.6106 34.595C51.6483 34.6387 51.6674 34.6954 51.6638 34.7529L51.1332 40.7851C51.1329 40.8279 51.1415 40.8703 51.1583 40.9097C51.1752 40.9491 51.1999 40.9847 51.231 41.0141C51.2621 41.0436 51.2989 41.0663 51.3392 41.081C51.3794 41.0957 51.4223 41.1019 51.465 41.0994H58.0903C58.1332 41.1019 58.1763 41.0956 58.2167 41.0808C58.2571 41.066 58.294 41.0431 58.3251 41.0133C58.3563 40.9836 58.381 40.9479 58.3977 40.9082C58.4143 40.8685 58.4227 40.8259 58.4222 40.7828C58.3283 39.7762 57.9397 35.671 57.8535 34.7542C57.8494 34.6968 57.8679 34.6401 57.9051 34.5962C57.9422 34.5523 57.9951 34.5247 58.0524 34.5193C58.1096 34.5139 58.1667 34.5311 58.2114 34.5673C58.2562 34.6035 58.2849 34.6558 58.2915 34.7129L58.3583 35.42C58.3616 35.4547 58.3731 35.4882 58.3919 35.5176C58.4107 35.547 58.4362 35.5715 58.4663 35.5891C58.4964 35.6067 58.5303 35.6168 58.5652 35.6187C58.6 35.6206 58.6348 35.6142 58.6667 35.6L60.3918 34.8303C60.4295 34.8125 60.4586 34.7806 60.473 34.7415C60.4874 34.7024 60.4859 34.6595 60.4687 34.6215ZM54.3511 38.8483C54.3493 38.9054 54.3254 38.9596 54.2844 38.9994C54.2434 39.0392 54.1885 39.0614 54.1314 39.0614C54.0742 39.0614 54.0193 39.0392 53.9783 38.9994C53.9373 38.9596 53.9134 38.9054 53.9116 38.8483V36.6328L53.6984 36.7646C53.6488 36.7939 53.5898 36.8026 53.5339 36.7888C53.4781 36.775 53.4299 36.7399 53.3997 36.6909C53.3694 36.642 53.3597 36.5831 53.3724 36.527C53.3851 36.4709 53.4193 36.422 53.4677 36.3909L54.0149 36.05C54.0484 36.0301 54.0865 36.0194 54.1255 36.0188C54.1644 36.0183 54.2028 36.0279 54.2368 36.0468C54.2709 36.0658 54.2994 36.0933 54.3194 36.1266C54.3395 36.16 54.3505 36.1981 54.3513 36.237L54.3511 38.8483ZM55.9317 38.8483C55.9317 38.9066 55.9085 38.9625 55.8673 39.0038C55.8261 39.045 55.7702 39.0681 55.7119 39.0681C55.6536 39.0681 55.5976 39.045 55.5564 39.0038C55.5152 38.9625 55.492 38.9066 55.492 38.8483V36.6328L55.2789 36.7646C55.2294 36.7952 55.1697 36.8049 55.113 36.7915C55.0563 36.7781 55.0073 36.7427 54.9767 36.6932C54.9461 36.6436 54.9364 36.5839 54.9498 36.5272C54.9632 36.4705 54.9985 36.4215 55.0481 36.3909L55.5953 36.05C55.6288 36.0301 55.6669 36.0194 55.7058 36.0188C55.7448 36.0183 55.7832 36.0279 55.8172 36.0468C55.8513 36.0658 55.8797 36.0933 55.8998 36.1266C55.9199 36.16 55.9309 36.1981 55.9317 36.237V38.8483Z" fill="#FAFAFA"/>
<path d="M54.3511 38.8483C54.3493 38.9054 54.3254 38.9596 54.2844 38.9994C54.2434 39.0392 54.1885 39.0614 54.1314 39.0614C54.0742 39.0614 54.0193 39.0392 53.9783 38.9994C53.9373 38.9596 53.9134 38.9054 53.9116 38.8483V36.6328L53.6984 36.7646C53.6488 36.7939 53.5898 36.8026 53.5339 36.7888C53.4781 36.775 53.4299 36.7399 53.3997 36.6909C53.3694 36.642 53.3597 36.5831 53.3724 36.527C53.3851 36.4709 53.4193 36.422 53.4677 36.3909L54.0149 36.05C54.0484 36.0301 54.0865 36.0194 54.1255 36.0188C54.1644 36.0183 54.2028 36.0279 54.2368 36.0468C54.2709 36.0658 54.2994 36.0933 54.3194 36.1266C54.3395 36.16 54.3505 36.1981 54.3513 36.237L54.3511 38.8483Z" fill="#FAFAFA"/>
<path d="M55.9317 38.8483C55.9317 38.9066 55.9085 38.9625 55.8673 39.0038C55.8261 39.045 55.7702 39.0681 55.7119 39.0681C55.6536 39.0681 55.5976 39.045 55.5564 39.0038C55.5152 38.9625 55.492 38.9066 55.492 38.8483V36.6328L55.2789 36.7646C55.2294 36.7952 55.1697 36.8049 55.113 36.7915C55.0563 36.7781 55.0073 36.7427 54.9767 36.6932C54.9461 36.6436 54.9364 36.5839 54.9498 36.5272C54.9632 36.4705 54.9985 36.4215 55.0481 36.3909L55.5953 36.05C55.6288 36.0301 55.6669 36.0194 55.7058 36.0188C55.7448 36.0183 55.7832 36.0279 55.8172 36.0468C55.8513 36.0658 55.8797 36.0933 55.8998 36.1266C55.9199 36.16 55.9309 36.1981 55.9317 36.237V38.8483Z" fill="#FAFAFA"/>
<path d="M53.7378 36.332H56.0295" stroke="#191919" stroke-width="0.343756" stroke-linecap="round" stroke-linejoin="round"/>
<path d="M54.8833 37.4792V35.1875" stroke="#191919" stroke-width="0.343756" stroke-linecap="round" stroke-linejoin="round"/>
<g clip-path="url(#clip8_8758_19530)">
<path d="M8.58035 6.86923C8.94924 6.8688 9.30289 6.72207 9.56373 6.46123C9.82457 6.20038 9.97131 5.84673 9.97174 5.47785V4.99636C9.05159 5.1697 8.10656 5.16297 7.18896 4.97656V5.47785C7.1894 5.84673 7.33613 6.20038 7.59697 6.46123C7.85781 6.72207 8.21147 6.8688 8.58035 6.86923Z" fill="#FAFAFA"/>
<path d="M14.2803 9.62345L13.1393 7.22521C12.9241 6.77629 12.545 6.42696 12.08 6.24918L11.2093 5.91731C10.8648 5.81546 10.6133 5.41072 10.4112 5.13477V5.41214C10.4195 5.66798 10.3743 5.92273 10.2786 6.16013C10.1828 6.39753 10.0387 6.61237 9.85527 6.79094C9.67187 6.9695 9.45326 7.10788 9.21339 7.19723C8.97352 7.28658 8.71765 7.32494 8.46213 7.30987C8.2066 7.2948 7.95702 7.22663 7.72931 7.1097C7.5016 6.99278 7.30077 6.82967 7.13963 6.63078C6.97849 6.4319 6.86057 6.2016 6.79342 5.9546C6.72626 5.70759 6.71133 5.4493 6.74958 5.1962C6.59902 5.48569 6.35277 5.71405 6.05277 5.8424L5.23716 6.13488C4.76903 6.30048 4.38309 6.64071 4.1601 7.08438L2.88056 9.62345C2.86279 9.66195 2.86091 9.7059 2.87531 9.74579C2.88971 9.78567 2.91924 9.81827 2.95751 9.83654L4.66179 10.6115C4.6938 10.6261 4.72885 10.6328 4.76399 10.6311C4.79914 10.6293 4.83335 10.6192 4.86374 10.6015C4.89414 10.5837 4.91984 10.559 4.93869 10.5293C4.95753 10.4995 4.96897 10.4657 4.97203 10.4307L5.03469 9.71632C5.04122 9.65901 5.06988 9.60652 5.11454 9.57004C5.15921 9.53355 5.21636 9.51594 5.27381 9.52097C5.33127 9.526 5.38449 9.55327 5.42214 9.59696C5.45978 9.64066 5.47888 9.69733 5.47535 9.75489L4.94468 15.787C4.94447 15.8299 4.95304 15.8723 4.96987 15.9117C4.9867 15.9511 5.01143 15.9866 5.04254 16.0161C5.07364 16.0455 5.11046 16.0683 5.15071 16.083C5.19096 16.0976 5.23379 16.1039 5.27656 16.1013H11.9018C11.9448 16.1039 11.9878 16.0976 12.0282 16.0828C12.0686 16.068 12.1055 16.045 12.1367 16.0153C12.1678 15.9856 12.1925 15.9498 12.2092 15.9101C12.2259 15.8705 12.2342 15.8278 12.2337 15.7848C12.1398 14.7781 11.7512 10.673 11.6651 9.75612C11.6609 9.69875 11.6794 9.64203 11.7166 9.59813C11.7537 9.55422 11.8066 9.52662 11.8639 9.52123C11.9212 9.51584 11.9783 9.53309 12.023 9.56929C12.0677 9.60549 12.0964 9.65775 12.1031 9.71489L12.1698 10.4219C12.1731 10.4567 12.1846 10.4901 12.2034 10.5195C12.2222 10.5489 12.2477 10.5734 12.2778 10.591C12.308 10.6086 12.3419 10.6188 12.3767 10.6207C12.4115 10.6226 12.4463 10.6161 12.4782 10.6019L14.2033 9.83225C14.241 9.81447 14.2702 9.7826 14.2846 9.7435C14.299 9.7044 14.2974 9.66142 14.2803 9.62345ZM8.16261 13.8503C8.16087 13.9074 8.13695 13.9616 8.09594 14.0014C8.05492 14.0411 8.00003 14.0634 7.94289 14.0634C7.88575 14.0634 7.83085 14.0411 7.78984 14.0014C7.74882 13.9616 7.72491 13.9074 7.72317 13.8503V11.6347L7.50988 11.7666C7.46036 11.7958 7.40133 11.8045 7.34547 11.7908C7.28962 11.777 7.2414 11.7418 7.21119 11.6929C7.18097 11.6439 7.17118 11.5851 7.1839 11.5289C7.19663 11.4728 7.23086 11.424 7.27924 11.3928L7.82645 11.052C7.85993 11.0321 7.89804 11.0213 7.93698 11.0208C7.97592 11.0202 8.01432 11.0299 8.04836 11.0488C8.0824 11.0677 8.11088 11.0952 8.13096 11.1286C8.15104 11.162 8.16203 11.2 8.16281 11.2389L8.16261 13.8503ZM9.7432 13.8503C9.7432 13.9086 9.72004 13.9645 9.67881 14.0057C9.63759 14.0469 9.58168 14.0701 9.52338 14.0701C9.46508 14.0701 9.40916 14.0469 9.36794 14.0057C9.32671 13.9645 9.30356 13.9086 9.30356 13.8503V11.6347L9.09047 11.7666C9.04091 11.7972 8.98122 11.8068 8.92453 11.7934C8.86785 11.78 8.8188 11.7447 8.78819 11.6951C8.75758 11.6456 8.74791 11.5859 8.7613 11.5292C8.7747 11.4725 8.81007 11.4235 8.85963 11.3928L9.40683 11.052C9.44031 11.0321 9.47843 11.0213 9.51736 11.0208C9.5563 11.0202 9.59471 11.0299 9.62875 11.0488C9.66279 11.0677 9.69127 11.0952 9.71135 11.1286C9.73143 11.162 9.74241 11.2 9.7432 11.2389V13.8503Z" fill="#FAFAFA"/>
<path d="M8.16261 13.8503C8.16087 13.9074 8.13695 13.9616 8.09594 14.0014C8.05492 14.0411 8.00003 14.0634 7.94289 14.0634C7.88575 14.0634 7.83085 14.0411 7.78984 14.0014C7.74882 13.9616 7.72491 13.9074 7.72317 13.8503V11.6347L7.50988 11.7666C7.46036 11.7958 7.40133 11.8045 7.34547 11.7908C7.28962 11.777 7.2414 11.7418 7.21119 11.6929C7.18097 11.6439 7.17118 11.5851 7.1839 11.5289C7.19663 11.4728 7.23086 11.424 7.27924 11.3928L7.82645 11.052C7.85993 11.0321 7.89804 11.0213 7.93698 11.0208C7.97592 11.0202 8.01432 11.0299 8.04836 11.0488C8.0824 11.0677 8.11088 11.0952 8.13096 11.1286C8.15104 11.162 8.16203 11.2 8.16281 11.2389L8.16261 13.8503Z" fill="#FAFAFA"/>
<path d="M9.7432 13.8503C9.7432 13.9086 9.72004 13.9645 9.67881 14.0057C9.63759 14.0469 9.58168 14.0701 9.52338 14.0701C9.46508 14.0701 9.40916 14.0469 9.36794 14.0057C9.32671 13.9645 9.30356 13.9086 9.30356 13.8503V11.6347L9.09047 11.7666C9.04091 11.7972 8.98122 11.8068 8.92453 11.7934C8.86785 11.78 8.8188 11.7447 8.78819 11.6951C8.75758 11.6456 8.74791 11.5859 8.7613 11.5292C8.7747 11.4725 8.81007 11.4235 8.85963 11.3928L9.40683 11.052C9.44031 11.0321 9.47843 11.0213 9.51736 11.0208C9.5563 11.0202 9.59471 11.0299 9.62875 11.0488C9.66279 11.0677 9.69127 11.0952 9.71135 11.1286C9.73143 11.162 9.74241 11.2 9.7432 11.2389V13.8503Z" fill="#FAFAFA"/>
<path d="M7.54932 11.334H9.84103" stroke="#191919" stroke-width="0.343756" stroke-linecap="round" stroke-linejoin="round"/>
<path d="M8.69482 12.4812V10.1895" stroke="#191919" stroke-width="0.343756" stroke-linecap="round" stroke-linejoin="round"/>
</g>
<defs>
<clipPath id="clip0_8758_19530">
<rect width="13.0627" height="13.0627" fill="white" transform="translate(33.8848 66.5645)"/>
</clipPath>
<clipPath id="clip1_8758_19530">
<rect width="13.0627" height="13.0627" fill="white" transform="translate(13.0493 49)"/>
</clipPath>
<clipPath id="clip2_8758_19530">
<rect width="13.0627" height="13.0627" fill="white" transform="translate(53.0493 49)"/>
</clipPath>
<clipPath id="clip3_8758_19530">
<rect width="13.0627" height="13.0627" fill="white" transform="translate(65.1123 4)"/>
</clipPath>
<clipPath id="clip4_8758_19530">
<rect width="13.0627" height="13.0627" fill="white" transform="translate(34.0493 51)"/>
</clipPath>
<clipPath id="clip5_8758_19530">
<rect width="13.0627" height="13.0627" fill="white" transform="translate(20.0498 29)"/>
</clipPath>
<clipPath id="clip6_8758_19530">
<rect width="13.0627" height="13.0627" fill="white" transform="translate(65.1123 27)"/>
</clipPath>
<clipPath id="clip7_8758_19530">
<rect width="13.0627" height="13.0627" fill="white" transform="translate(34.1748 3)"/>
</clipPath>
<clipPath id="clip8_8758_19530">
<rect width="13.0627" height="13.0627" fill="white" transform="translate(2.04932 4)"/>
</clipPath>
</defs>
</svg>
