<svg width="81" height="81" viewBox="0 0 81 81" fill="none" xmlns="http://www.w3.org/2000/svg">
<rect x="0.891685" y="0.118492" width="79.9807" height="79.9807" rx="5.88541" fill="#828284" stroke="#FAFAFA" stroke-width="0.229171"/>
<mask id="path-2-inside-1_8758_19282" fill="white">
<path d="M24.6108 66.4609H57.1531V80.2112H24.6108V66.4609Z"/>
</mask>
<path d="M24.6108 66.4609V66.2318H24.3817V66.4609H24.6108ZM57.1531 66.4609H57.3823V66.2318H57.1531V66.4609ZM24.6108 66.6901H57.1531V66.2318H24.6108V66.6901ZM56.9239 66.4609V80.2112H57.3823V66.4609H56.9239ZM24.84 80.2112V66.4609H24.3817V80.2112H24.84Z" fill="#FAFAFA" mask="url(#path-2-inside-1_8758_19282)"/>
<mask id="path-4-inside-2_8758_19282" fill="white">
<path d="M13.3813 55.0039H68.3824V80.2127H13.3813V55.0039Z"/>
</mask>
<path d="M13.3813 55.0039V54.7747H13.1522V55.0039H13.3813ZM68.3824 55.0039H68.6115V54.7747H68.3824V55.0039ZM13.3813 55.2331H68.3824V54.7747H13.3813V55.2331ZM68.1532 55.0039V80.2127H68.6115V55.0039H68.1532ZM13.6105 80.2127V55.0039H13.1522V80.2127H13.6105Z" fill="#FAFAFA" mask="url(#path-4-inside-2_8758_19282)"/>
<path d="M55.0906 9.53674e-07C55.0906 1.65523 54.7053 3.29426 53.9567 4.8235C53.2081 6.35273 52.1108 7.74223 50.7276 8.91266C49.3444 10.0831 47.7022 11.0115 45.8949 11.645C44.0877 12.2784 42.1506 12.6044 40.1945 12.6044C38.2383 12.6044 36.3012 12.2784 34.494 11.645C32.6867 11.0115 31.0445 10.0831 29.6613 8.91266C28.2781 7.74223 27.1808 6.35273 26.4322 4.8235C25.6836 3.29426 25.2983 1.65523 25.2983 0" stroke="#FAFAFA" stroke-width="0.229171"/>
<path d="M31.3543 55.3516C31.8726 54.5174 32.6322 53.7595 33.5898 53.1211C34.5474 52.4827 35.6843 51.9763 36.9355 51.6308C38.1867 51.2853 39.5277 51.1074 40.882 51.1074C42.2363 51.1074 43.5773 51.2853 44.8285 51.6308C46.0797 51.9763 47.2165 52.4827 48.1742 53.1211C49.1318 53.7595 49.8914 54.5174 50.4097 55.3516" stroke="#FAFAFA" stroke-width="0.229171"/>
<path d="M1.00635 76.5479C2.12288 76.4958 4.32681 77.1099 4.2103 79.9825" stroke="#FAFAFA" stroke-width="0.229171"/>
<path d="M80.7578 76.5479C79.6413 76.4958 77.4374 77.1099 77.5539 79.9825" stroke="#FAFAFA" stroke-width="0.229171"/>
<path d="M40.9961 69.4356C41.365 69.4352 41.7187 69.2885 41.9795 69.0276C42.2403 68.7668 42.3871 68.4131 42.3875 68.0443V67.5628C41.4674 67.7361 40.5223 67.7294 39.6047 67.543V68.0443C39.6052 68.4131 39.7519 68.7668 40.0127 69.0276C40.2736 69.2885 40.6272 69.4352 40.9961 69.4356Z" fill="#FAFAFA"/>
<path d="M46.696 72.1899L45.5551 69.7916C45.3399 69.3427 44.9608 68.9934 44.4958 68.8156L43.6251 68.4837C43.2805 68.3819 43.0291 67.9771 42.827 67.7012V67.9786C42.8352 68.2344 42.7901 68.4891 42.6943 68.7265C42.5986 68.9639 42.4544 69.1788 42.271 69.3573C42.0876 69.5359 41.869 69.6743 41.6292 69.7636C41.3893 69.853 41.1334 69.8913 40.8779 69.8763C40.6224 69.8612 40.3728 69.793 40.1451 69.6761C39.9174 69.5592 39.7165 69.3961 39.5554 69.1972C39.3943 68.9983 39.2763 68.768 39.2092 68.521C39.142 68.274 39.1271 68.0157 39.1654 67.7626C39.0148 68.0521 38.7685 68.2805 38.4685 68.4088L37.6529 68.7013C37.1848 68.8669 36.7989 69.2071 36.5759 69.6508L35.2963 72.1899C35.2786 72.2284 35.2767 72.2723 35.2911 72.3122C35.3055 72.3521 35.335 72.3847 35.3733 72.4029L37.0776 73.1779C37.1096 73.1925 37.1446 73.1992 37.1798 73.1975C37.2149 73.1957 37.2491 73.1856 37.2795 73.1679C37.3099 73.1501 37.3356 73.1254 37.3545 73.0957C37.3733 73.066 37.3847 73.0321 37.3878 72.9971L37.4505 72.2827C37.457 72.2254 37.4856 72.1729 37.5303 72.1364C37.575 72.1 37.6321 72.0823 37.6896 72.0874C37.747 72.0924 37.8003 72.1197 37.8379 72.1634C37.8756 72.2071 37.8946 72.2637 37.8911 72.3213L37.3605 78.3534C37.3602 78.3963 37.3688 78.4387 37.3856 78.4781C37.4025 78.5175 37.4272 78.553 37.4583 78.5825C37.4894 78.6119 37.5262 78.6347 37.5665 78.6494C37.6067 78.664 37.6496 78.6703 37.6923 78.6678H44.3176C44.3605 78.6703 44.4036 78.664 44.444 78.6492C44.4844 78.6344 44.5213 78.6114 44.5524 78.5817C44.5836 78.552 44.6083 78.5162 44.6249 78.4766C44.6416 78.4369 44.65 78.3942 44.6495 78.3512C44.5556 77.3445 44.167 73.2394 44.0808 72.3225C44.0767 72.2652 44.0952 72.2084 44.1323 72.1645C44.1695 72.1206 44.2224 72.093 44.2797 72.0876C44.3369 72.0822 44.394 72.0995 44.4387 72.1357C44.4834 72.1719 44.5122 72.2242 44.5188 72.2813L44.5856 72.9883C44.5889 73.0231 44.6004 73.0565 44.6192 73.0859C44.638 73.1153 44.6635 73.1398 44.6936 73.1574C44.7237 73.175 44.7576 73.1852 44.7925 73.1871C44.8273 73.189 44.8621 73.1826 44.894 73.1683L46.6191 72.3987C46.6568 72.3809 46.6859 72.349 46.7003 72.3099C46.7147 72.2708 46.7132 72.2278 46.696 72.1899ZM40.5784 76.4167C40.5766 76.4738 40.5527 76.528 40.5117 76.5678C40.4707 76.6076 40.4158 76.6298 40.3587 76.6298C40.3015 76.6298 40.2466 76.6076 40.2056 76.5678C40.1646 76.528 40.1407 76.4738 40.1389 76.4167V74.2011L39.9256 74.333C39.8761 74.3623 39.8171 74.3709 39.7612 74.3572C39.7054 74.3434 39.6572 74.3082 39.627 74.2593C39.5967 74.2103 39.5869 74.1515 39.5997 74.0954C39.6124 74.0392 39.6466 73.9904 39.695 73.9592L40.2422 73.6184C40.2757 73.5985 40.3138 73.5877 40.3527 73.5872C40.3917 73.5866 40.4301 73.5963 40.4641 73.6152C40.4982 73.6341 40.5267 73.6616 40.5467 73.695C40.5668 73.7284 40.5778 73.7664 40.5786 73.8054L40.5784 76.4167ZM42.159 76.4167C42.159 76.475 42.1358 76.5309 42.0946 76.5721C42.0534 76.6133 41.9974 76.6365 41.9391 76.6365C41.8808 76.6365 41.8249 76.6133 41.7837 76.5721C41.7425 76.5309 41.7193 76.475 41.7193 76.4167V74.2011L41.5062 74.333C41.4567 74.3636 41.397 74.3732 41.3403 74.3598C41.2836 74.3465 41.2346 74.3111 41.204 74.2615C41.1733 74.212 41.1637 74.1523 41.1771 74.0956C41.1905 74.0389 41.2258 73.9899 41.2754 73.9592L41.8226 73.6184C41.8561 73.5985 41.8942 73.5877 41.9331 73.5872C41.9721 73.5866 42.0105 73.5963 42.0445 73.6152C42.0786 73.6341 42.107 73.6616 42.1271 73.695C42.1472 73.7284 42.1582 73.7664 42.159 73.8054V76.4167Z" fill="#FAFAFA"/>
<path d="M40.5784 76.4167C40.5766 76.4738 40.5527 76.528 40.5117 76.5678C40.4707 76.6076 40.4158 76.6298 40.3587 76.6298C40.3015 76.6298 40.2466 76.6076 40.2056 76.5678C40.1646 76.528 40.1407 76.4738 40.1389 76.4167V74.2011L39.9256 74.333C39.8761 74.3623 39.8171 74.3709 39.7612 74.3572C39.7054 74.3434 39.6572 74.3082 39.627 74.2593C39.5967 74.2103 39.5869 74.1515 39.5997 74.0954C39.6124 74.0392 39.6466 73.9904 39.695 73.9592L40.2422 73.6184C40.2757 73.5985 40.3138 73.5877 40.3527 73.5872C40.3917 73.5866 40.4301 73.5963 40.4641 73.6152C40.4982 73.6341 40.5267 73.6616 40.5467 73.695C40.5668 73.7284 40.5778 73.7664 40.5786 73.8054L40.5784 76.4167Z" fill="#FAFAFA"/>
<path d="M42.159 76.4167C42.159 76.475 42.1358 76.5309 42.0946 76.5721C42.0534 76.6133 41.9974 76.6365 41.9391 76.6365C41.8808 76.6365 41.8249 76.6133 41.7837 76.5721C41.7425 76.5309 41.7193 76.475 41.7193 76.4167V74.2011L41.5062 74.333C41.4567 74.3636 41.397 74.3732 41.3403 74.3598C41.2836 74.3465 41.2346 74.3111 41.204 74.2615C41.1733 74.212 41.1637 74.1523 41.1771 74.0956C41.1905 74.0389 41.2258 73.9899 41.2754 73.9592L41.8226 73.6184C41.8561 73.5985 41.8942 73.5877 41.9331 73.5872C41.9721 73.5866 42.0105 73.5963 42.0445 73.6152C42.0786 73.6341 42.107 73.6616 42.1271 73.695C42.1472 73.7284 42.1582 73.7664 42.159 73.8054V76.4167Z" fill="#FAFAFA"/>
<path d="M39.9651 73.8965H42.2568" stroke="#191919" stroke-width="0.343756" stroke-linecap="round" stroke-linejoin="round"/>
<path d="M41.1111 75.0437V72.752" stroke="#191919" stroke-width="0.343756" stroke-linecap="round" stroke-linejoin="round"/>
<path d="M20.1607 51.8673C20.5296 51.8668 20.8832 51.7201 21.1441 51.4593C21.4049 51.1984 21.5516 50.8448 21.5521 50.4759V49.9944C20.6319 50.1677 19.6869 50.161 18.7693 49.9746V50.4759C18.7697 50.8448 18.9164 51.1984 19.1773 51.4593C19.4381 51.7201 19.7918 51.8668 20.1607 51.8673Z" fill="#FAFAFA"/>
<path d="M25.8606 54.6215L24.7196 52.2233C24.5045 51.7743 24.1253 51.425 23.6603 51.2472L22.7896 50.9154C22.4451 50.8135 22.1936 50.4088 21.9916 50.1328V50.4102C21.9998 50.666 21.9546 50.9208 21.8589 51.1582C21.7632 51.3956 21.619 51.6104 21.4356 51.789C21.2522 51.9675 21.0336 52.1059 20.7937 52.1953C20.5538 52.2846 20.298 52.323 20.0424 52.3079C19.7869 52.2928 19.5373 52.2247 19.3096 52.1077C19.0819 51.9908 18.8811 51.8277 18.72 51.6288C18.5588 51.4299 18.4409 51.1997 18.3737 50.9526C18.3066 50.7056 18.2917 50.4473 18.3299 50.1942C18.1793 50.4837 17.9331 50.7121 17.6331 50.8404L16.8175 51.1329C16.3494 51.2985 15.9634 51.6388 15.7404 52.0824L14.4609 54.6215C14.4431 54.66 14.4412 54.7039 14.4556 54.7438C14.47 54.7837 14.4996 54.8163 14.5378 54.8346L16.2421 55.6096C16.2741 55.6242 16.3092 55.6309 16.3443 55.6291C16.3795 55.6274 16.4137 55.6172 16.4441 55.5995C16.4745 55.5818 16.5002 55.557 16.519 55.5273C16.5379 55.4976 16.5493 55.4638 16.5524 55.4287L16.615 54.7144C16.6215 54.6571 16.6502 54.6046 16.6949 54.5681C16.7395 54.5316 16.7967 54.514 16.8541 54.519C16.9116 54.524 16.9648 54.5513 17.0025 54.595C17.0401 54.6387 17.0592 54.6954 17.0557 54.7529L16.525 60.7851C16.5248 60.8279 16.5334 60.8703 16.5502 60.9097C16.567 60.9491 16.5918 60.9847 16.6229 61.0141C16.654 61.0436 16.6908 61.0663 16.731 61.081C16.7713 61.0957 16.8141 61.1019 16.8569 61.0994H23.4821C23.5251 61.1019 23.5681 61.0956 23.6085 61.0808C23.6489 61.066 23.6858 61.0431 23.717 61.0133C23.7481 60.9836 23.7728 60.9479 23.7895 60.9082C23.8062 60.8685 23.8145 60.8259 23.814 60.7828C23.7201 59.7762 23.3315 55.671 23.2454 54.7542C23.2412 54.6968 23.2597 54.6401 23.2969 54.5962C23.3341 54.5523 23.3869 54.5247 23.4442 54.5193C23.5015 54.5139 23.5586 54.5311 23.6033 54.5673C23.648 54.6035 23.6767 54.6558 23.6834 54.7129L23.7501 55.42C23.7534 55.4547 23.7649 55.4882 23.7837 55.5176C23.8025 55.547 23.828 55.5715 23.8582 55.5891C23.8883 55.6067 23.9222 55.6168 23.957 55.6187C23.9919 55.6206 24.0267 55.6142 24.0585 55.6L25.7836 54.8303C25.8213 54.8125 25.8505 54.7806 25.8649 54.7415C25.8793 54.7024 25.8777 54.6595 25.8606 54.6215ZM19.7429 58.8483C19.7412 58.9054 19.7173 58.9596 19.6763 58.9994C19.6352 59.0392 19.5803 59.0614 19.5232 59.0614C19.4661 59.0614 19.4112 59.0392 19.3702 58.9994C19.3291 58.9596 19.3052 58.9054 19.3035 58.8483V56.6328L19.0902 56.7646C19.0407 56.7939 18.9817 56.8026 18.9258 56.7888C18.8699 56.775 18.8217 56.7399 18.7915 56.6909C18.7613 56.642 18.7515 56.5831 18.7642 56.527C18.7769 56.4709 18.8112 56.422 18.8596 56.3909L19.4068 56.05C19.4402 56.0301 19.4784 56.0194 19.5173 56.0188C19.5562 56.0183 19.5946 56.0279 19.6287 56.0468C19.6627 56.0658 19.6912 56.0933 19.7113 56.1266C19.7314 56.16 19.7423 56.1981 19.7431 56.237L19.7429 58.8483ZM21.3235 58.8483C21.3235 58.9066 21.3004 58.9625 21.2591 59.0038C21.2179 59.045 21.162 59.0681 21.1037 59.0681C21.0454 59.0681 20.9895 59.045 20.9483 59.0038C20.907 58.9625 20.8839 58.9066 20.8839 58.8483V56.6328L20.6708 56.7646C20.6212 56.7952 20.5615 56.8049 20.5049 56.7915C20.4482 56.7781 20.3991 56.7427 20.3685 56.6932C20.3379 56.6436 20.3282 56.5839 20.3416 56.5272C20.355 56.4705 20.3904 56.4215 20.4399 56.3909L20.9872 56.05C21.0206 56.0301 21.0587 56.0194 21.0977 56.0188C21.1366 56.0183 21.175 56.0279 21.2091 56.0468C21.2431 56.0658 21.2716 56.0933 21.2917 56.1266C21.3118 56.16 21.3227 56.1981 21.3235 56.237V58.8483Z" fill="#FAFAFA"/>
<path d="M19.7429 58.8483C19.7412 58.9054 19.7173 58.9596 19.6763 58.9994C19.6352 59.0392 19.5803 59.0614 19.5232 59.0614C19.4661 59.0614 19.4112 59.0392 19.3702 58.9994C19.3291 58.9596 19.3052 58.9054 19.3035 58.8483V56.6328L19.0902 56.7646C19.0407 56.7939 18.9817 56.8026 18.9258 56.7888C18.8699 56.775 18.8217 56.7399 18.7915 56.6909C18.7613 56.642 18.7515 56.5831 18.7642 56.527C18.7769 56.4709 18.8112 56.422 18.8596 56.3909L19.4068 56.05C19.4402 56.0301 19.4784 56.0194 19.5173 56.0188C19.5562 56.0183 19.5946 56.0279 19.6287 56.0468C19.6627 56.0658 19.6912 56.0933 19.7113 56.1266C19.7314 56.16 19.7423 56.1981 19.7431 56.237L19.7429 58.8483Z" fill="#FAFAFA"/>
<path d="M21.3235 58.8483C21.3235 58.9066 21.3004 58.9625 21.2591 59.0038C21.2179 59.045 21.162 59.0681 21.1037 59.0681C21.0454 59.0681 20.9895 59.045 20.9483 59.0038C20.907 58.9625 20.8839 58.9066 20.8839 58.8483V56.6328L20.6708 56.7646C20.6212 56.7952 20.5615 56.8049 20.5049 56.7915C20.4482 56.7781 20.3991 56.7427 20.3685 56.6932C20.3379 56.6436 20.3282 56.5839 20.3416 56.5272C20.355 56.4705 20.3904 56.4215 20.4399 56.3909L20.9872 56.05C21.0206 56.0301 21.0587 56.0194 21.0977 56.0188C21.1366 56.0183 21.175 56.0279 21.2091 56.0468C21.2431 56.0658 21.2716 56.0933 21.2917 56.1266C21.3118 56.16 21.3227 56.1981 21.3235 56.237V58.8483Z" fill="#FAFAFA"/>
<path d="M19.1296 56.332H21.4213" stroke="#191919" stroke-width="0.343756" stroke-linecap="round" stroke-linejoin="round"/>
<path d="M20.2756 57.4792V55.1875" stroke="#191919" stroke-width="0.343756" stroke-linecap="round" stroke-linejoin="round"/>
<path d="M60.1607 51.8673C60.5296 51.8668 60.8832 51.7201 61.1441 51.4593C61.4049 51.1984 61.5516 50.8448 61.5521 50.4759V49.9944C60.6319 50.1677 59.6869 50.161 58.7693 49.9746V50.4759C58.7697 50.8448 58.9164 51.1984 59.1773 51.4593C59.4381 51.7201 59.7918 51.8668 60.1607 51.8673Z" fill="#FAFAFA"/>
<path d="M65.8606 54.6215L64.7196 52.2233C64.5045 51.7743 64.1253 51.425 63.6603 51.2472L62.7896 50.9154C62.4451 50.8135 62.1936 50.4088 61.9916 50.1328V50.4102C61.9998 50.666 61.9546 50.9208 61.8589 51.1582C61.7632 51.3956 61.619 51.6104 61.4356 51.789C61.2522 51.9675 61.0336 52.1059 60.7937 52.1953C60.5538 52.2846 60.298 52.323 60.0424 52.3079C59.7869 52.2928 59.5373 52.2247 59.3096 52.1077C59.0819 51.9908 58.8811 51.8277 58.72 51.6288C58.5588 51.4299 58.4409 51.1997 58.3737 50.9526C58.3066 50.7056 58.2917 50.4473 58.3299 50.1942C58.1793 50.4837 57.9331 50.7121 57.6331 50.8404L56.8175 51.1329C56.3494 51.2985 55.9634 51.6388 55.7404 52.0824L54.4609 54.6215C54.4431 54.66 54.4412 54.7039 54.4556 54.7438C54.47 54.7837 54.4996 54.8163 54.5378 54.8346L56.2421 55.6096C56.2741 55.6242 56.3092 55.6309 56.3443 55.6291C56.3795 55.6274 56.4137 55.6172 56.4441 55.5995C56.4745 55.5818 56.5002 55.557 56.519 55.5273C56.5379 55.4976 56.5493 55.4638 56.5524 55.4287L56.615 54.7144C56.6215 54.6571 56.6502 54.6046 56.6949 54.5681C56.7395 54.5316 56.7967 54.514 56.8541 54.519C56.9116 54.524 56.9648 54.5513 57.0025 54.595C57.0401 54.6387 57.0592 54.6954 57.0557 54.7529L56.525 60.7851C56.5248 60.8279 56.5334 60.8703 56.5502 60.9097C56.567 60.9491 56.5918 60.9847 56.6229 61.0141C56.654 61.0436 56.6908 61.0663 56.731 61.081C56.7713 61.0957 56.8141 61.1019 56.8569 61.0994H63.4821C63.5251 61.1019 63.5681 61.0956 63.6085 61.0808C63.6489 61.066 63.6858 61.0431 63.717 61.0133C63.7481 60.9836 63.7728 60.9479 63.7895 60.9082C63.8062 60.8685 63.8145 60.8259 63.814 60.7828C63.7201 59.7762 63.3315 55.671 63.2454 54.7542C63.2412 54.6968 63.2597 54.6401 63.2969 54.5962C63.3341 54.5523 63.3869 54.5247 63.4442 54.5193C63.5015 54.5139 63.5586 54.5311 63.6033 54.5673C63.648 54.6035 63.6767 54.6558 63.6834 54.7129L63.7501 55.42C63.7534 55.4547 63.7649 55.4882 63.7837 55.5176C63.8025 55.547 63.828 55.5715 63.8582 55.5891C63.8883 55.6067 63.9222 55.6168 63.957 55.6187C63.9919 55.6206 64.0267 55.6142 64.0585 55.6L65.7836 54.8303C65.8213 54.8125 65.8505 54.7806 65.8649 54.7415C65.8793 54.7024 65.8777 54.6595 65.8606 54.6215ZM59.7429 58.8483C59.7412 58.9054 59.7173 58.9596 59.6763 58.9994C59.6352 59.0392 59.5803 59.0614 59.5232 59.0614C59.4661 59.0614 59.4112 59.0392 59.3702 58.9994C59.3291 58.9596 59.3052 58.9054 59.3035 58.8483V56.6328L59.0902 56.7646C59.0407 56.7939 58.9817 56.8026 58.9258 56.7888C58.8699 56.775 58.8217 56.7399 58.7915 56.6909C58.7613 56.642 58.7515 56.5831 58.7642 56.527C58.7769 56.4709 58.8112 56.422 58.8596 56.3909L59.4068 56.05C59.4402 56.0301 59.4784 56.0194 59.5173 56.0188C59.5562 56.0183 59.5946 56.0279 59.6287 56.0468C59.6627 56.0658 59.6912 56.0933 59.7113 56.1266C59.7314 56.16 59.7423 56.1981 59.7431 56.237L59.7429 58.8483ZM61.3235 58.8483C61.3235 58.9066 61.3004 58.9625 61.2591 59.0038C61.2179 59.045 61.162 59.0681 61.1037 59.0681C61.0454 59.0681 60.9895 59.045 60.9483 59.0038C60.907 58.9625 60.8839 58.9066 60.8839 58.8483V56.6328L60.6708 56.7646C60.6212 56.7952 60.5615 56.8049 60.5049 56.7915C60.4482 56.7781 60.3991 56.7427 60.3685 56.6932C60.3379 56.6436 60.3282 56.5839 60.3416 56.5272C60.355 56.4705 60.3904 56.4215 60.4399 56.3909L60.9872 56.05C61.0206 56.0301 61.0587 56.0194 61.0977 56.0188C61.1366 56.0183 61.175 56.0279 61.2091 56.0468C61.2431 56.0658 61.2716 56.0933 61.2917 56.1266C61.3118 56.16 61.3227 56.1981 61.3235 56.237V58.8483Z" fill="#FAFAFA"/>
<path d="M59.7429 58.8483C59.7412 58.9054 59.7173 58.9596 59.6763 58.9994C59.6352 59.0392 59.5803 59.0614 59.5232 59.0614C59.4661 59.0614 59.4112 59.0392 59.3702 58.9994C59.3291 58.9596 59.3052 58.9054 59.3035 58.8483V56.6328L59.0902 56.7646C59.0407 56.7939 58.9817 56.8026 58.9258 56.7888C58.8699 56.775 58.8217 56.7399 58.7915 56.6909C58.7613 56.642 58.7515 56.5831 58.7642 56.527C58.7769 56.4709 58.8112 56.422 58.8596 56.3909L59.4068 56.05C59.4402 56.0301 59.4784 56.0194 59.5173 56.0188C59.5562 56.0183 59.5946 56.0279 59.6287 56.0468C59.6627 56.0658 59.6912 56.0933 59.7113 56.1266C59.7314 56.16 59.7423 56.1981 59.7431 56.237L59.7429 58.8483Z" fill="#FAFAFA"/>
<path d="M61.3235 58.8483C61.3235 58.9066 61.3004 58.9625 61.2591 59.0038C61.2179 59.045 61.162 59.0681 61.1037 59.0681C61.0454 59.0681 60.9895 59.045 60.9483 59.0038C60.907 58.9625 60.8839 58.9066 60.8839 58.8483V56.6328L60.6708 56.7646C60.6212 56.7952 60.5615 56.8049 60.5049 56.7915C60.4482 56.7781 60.3991 56.7427 60.3685 56.6932C60.3379 56.6436 60.3282 56.5839 60.3416 56.5272C60.355 56.4705 60.3904 56.4215 60.4399 56.3909L60.9872 56.05C61.0206 56.0301 61.0587 56.0194 61.0977 56.0188C61.1366 56.0183 61.175 56.0279 61.2091 56.0468C61.2431 56.0658 61.2716 56.0933 61.2917 56.1266C61.3118 56.16 61.3227 56.1981 61.3235 56.237V58.8483Z" fill="#FAFAFA"/>
<path d="M59.1296 56.332H61.4213" stroke="#191919" stroke-width="0.343756" stroke-linecap="round" stroke-linejoin="round"/>
<path d="M60.2756 57.4792V55.1875" stroke="#191919" stroke-width="0.343756" stroke-linecap="round" stroke-linejoin="round"/>
<path d="M41.531 17.8673C41.8999 17.8668 42.2536 17.7201 42.5144 17.4593C42.7753 17.1984 42.922 16.8448 42.9224 16.4759V15.9944C42.0023 16.1677 41.0572 16.161 40.1396 15.9746V16.4759C40.1401 16.8448 40.2868 17.1984 40.5477 17.4593C40.8085 17.7201 41.1621 17.8668 41.531 17.8673Z" fill="#FAFAFA"/>
<path d="M47.2309 20.6215L46.09 18.2233C45.8748 17.7743 45.4957 17.425 45.0307 17.2472L44.16 16.9154C43.8154 16.8135 43.564 16.4088 43.3619 16.1328V16.4102C43.3702 16.666 43.325 16.9208 43.2292 17.1582C43.1335 17.3956 42.9894 17.6104 42.806 17.789C42.6226 17.9675 42.4039 18.1059 42.1641 18.1953C41.9242 18.2846 41.6683 18.323 41.4128 18.3079C41.1573 18.2928 40.9077 18.2247 40.68 18.1077C40.4523 17.9908 40.2515 17.8277 40.0903 17.6288C39.9292 17.4299 39.8113 17.1997 39.7441 16.9526C39.6769 16.7056 39.662 16.4473 39.7003 16.1942C39.5497 16.4837 39.3035 16.7121 39.0035 16.8404L38.1878 17.1329C37.7197 17.2985 37.3338 17.6388 37.1108 18.0824L35.8312 20.6215C35.8135 20.66 35.8116 20.7039 35.826 20.7438C35.8404 20.7837 35.8699 20.8163 35.9082 20.8346L37.6125 21.6096C37.6445 21.6242 37.6795 21.6309 37.7147 21.6291C37.7498 21.6274 37.784 21.6172 37.8144 21.5995C37.8448 21.5818 37.8705 21.557 37.8894 21.5273C37.9082 21.4976 37.9196 21.4638 37.9227 21.4287L37.9854 20.7144C37.9919 20.6571 38.0206 20.6046 38.0652 20.5681C38.1099 20.5316 38.167 20.514 38.2245 20.519C38.282 20.524 38.3352 20.5513 38.3728 20.595C38.4105 20.6387 38.4296 20.6954 38.426 20.7529L37.8954 26.7851C37.8951 26.8279 37.9037 26.8703 37.9206 26.9097C37.9374 26.9491 37.9621 26.9847 37.9932 27.0141C38.0243 27.0436 38.0611 27.0663 38.1014 27.081C38.1416 27.0957 38.1845 27.1019 38.2272 27.0994H44.8525C44.8955 27.1019 44.9385 27.0956 44.9789 27.0808C45.0193 27.066 45.0562 27.0431 45.0873 27.0133C45.1185 26.9836 45.1432 26.9479 45.1599 26.9082C45.1766 26.8685 45.1849 26.8259 45.1844 26.7828C45.0905 25.7762 44.7019 21.671 44.6157 20.7542C44.6116 20.6968 44.6301 20.6401 44.6673 20.5962C44.7044 20.5523 44.7573 20.5247 44.8146 20.5193C44.8718 20.5139 44.9289 20.5311 44.9737 20.5673C45.0184 20.6035 45.0471 20.6558 45.0537 20.7129L45.1205 21.42C45.1238 21.4547 45.1353 21.4882 45.1541 21.5176C45.1729 21.547 45.1984 21.5715 45.2285 21.5891C45.2587 21.6067 45.2925 21.6168 45.3274 21.6187C45.3622 21.6206 45.397 21.6142 45.4289 21.6L47.154 20.8303C47.1917 20.8125 47.2209 20.7806 47.2353 20.7415C47.2496 20.7024 47.2481 20.6595 47.2309 20.6215ZM41.1133 24.8483C41.1115 24.9054 41.0876 24.9596 41.0466 24.9994C41.0056 25.0392 40.9507 25.0614 40.8936 25.0614C40.8364 25.0614 40.7815 25.0392 40.7405 24.9994C40.6995 24.9596 40.6756 24.9054 40.6739 24.8483V22.6328L40.4606 22.7646C40.411 22.7939 40.352 22.8026 40.2962 22.7888C40.2403 22.775 40.1921 22.7399 40.1619 22.6909C40.1317 22.642 40.1219 22.5831 40.1346 22.527C40.1473 22.4709 40.1815 22.422 40.2299 22.3909L40.7771 22.05C40.8106 22.0301 40.8487 22.0194 40.8877 22.0188C40.9266 22.0183 40.965 22.0279 40.999 22.0468C41.0331 22.0658 41.0616 22.0933 41.0816 22.1266C41.1017 22.16 41.1127 22.1981 41.1135 22.237L41.1133 24.8483ZM42.6939 24.8483C42.6939 24.9066 42.6707 24.9625 42.6295 25.0038C42.5883 25.045 42.5324 25.0681 42.4741 25.0681C42.4158 25.0681 42.3598 25.045 42.3186 25.0038C42.2774 24.9625 42.2542 24.9066 42.2542 24.8483V22.6328L42.0412 22.7646C41.9916 22.7952 41.9319 22.8049 41.8752 22.7915C41.8185 22.7781 41.7695 22.7427 41.7389 22.6932C41.7083 22.6436 41.6986 22.5839 41.712 22.5272C41.7254 22.4705 41.7608 22.4215 41.8103 22.3909L42.3575 22.05C42.391 22.0301 42.4291 22.0194 42.468 22.0188C42.507 22.0183 42.5454 22.0279 42.5794 22.0468C42.6135 22.0658 42.642 22.0933 42.662 22.1266C42.6821 22.16 42.6931 22.1981 42.6939 22.237V24.8483Z" fill="#FAFAFA"/>
<path d="M41.1133 24.8483C41.1115 24.9054 41.0876 24.9596 41.0466 24.9994C41.0056 25.0392 40.9507 25.0614 40.8936 25.0614C40.8364 25.0614 40.7815 25.0392 40.7405 24.9994C40.6995 24.9596 40.6756 24.9054 40.6739 24.8483V22.6328L40.4606 22.7646C40.411 22.7939 40.352 22.8026 40.2962 22.7888C40.2403 22.775 40.1921 22.7399 40.1619 22.6909C40.1317 22.642 40.1219 22.5831 40.1346 22.527C40.1473 22.4709 40.1815 22.422 40.2299 22.3909L40.7771 22.05C40.8106 22.0301 40.8487 22.0194 40.8877 22.0188C40.9266 22.0183 40.965 22.0279 40.999 22.0468C41.0331 22.0658 41.0616 22.0933 41.0816 22.1266C41.1017 22.16 41.1127 22.1981 41.1135 22.237L41.1133 24.8483Z" fill="#FAFAFA"/>
<path d="M42.6939 24.8483C42.6939 24.9066 42.6707 24.9625 42.6295 25.0038C42.5883 25.045 42.5324 25.0681 42.4741 25.0681C42.4158 25.0681 42.3598 25.045 42.3186 25.0038C42.2774 24.9625 42.2542 24.9066 42.2542 24.8483V22.6328L42.0412 22.7646C41.9916 22.7952 41.9319 22.8049 41.8752 22.7915C41.8185 22.7781 41.7695 22.7427 41.7389 22.6932C41.7083 22.6436 41.6986 22.5839 41.712 22.5272C41.7254 22.4705 41.7608 22.4215 41.8103 22.3909L42.3575 22.05C42.391 22.0301 42.4291 22.0194 42.468 22.0188C42.507 22.0183 42.5454 22.0279 42.5794 22.0468C42.6135 22.0658 42.642 22.0933 42.662 22.1266C42.6821 22.16 42.6931 22.1981 42.6939 22.237V24.8483Z" fill="#FAFAFA"/>
<path d="M40.5 22.332H42.7917" stroke="#191919" stroke-width="0.343756" stroke-linecap="round" stroke-linejoin="round"/>
<path d="M41.646 23.4792V21.1875" stroke="#191919" stroke-width="0.343756" stroke-linecap="round" stroke-linejoin="round"/>
<path d="M41.1607 53.8673C41.5296 53.8668 41.8832 53.7201 42.1441 53.4593C42.4049 53.1984 42.5516 52.8448 42.5521 52.4759V51.9944C41.6319 52.1677 40.6869 52.161 39.7693 51.9746V52.4759C39.7697 52.8448 39.9164 53.1984 40.1773 53.4593C40.4381 53.7201 40.7918 53.8668 41.1607 53.8673Z" fill="#FAFAFA"/>
<path d="M46.8606 56.6215L45.7196 54.2233C45.5045 53.7743 45.1253 53.425 44.6603 53.2472L43.7896 52.9154C43.4451 52.8135 43.1936 52.4088 42.9916 52.1328V52.4102C42.9998 52.666 42.9546 52.9208 42.8589 53.1582C42.7632 53.3956 42.619 53.6104 42.4356 53.789C42.2522 53.9675 42.0336 54.1059 41.7937 54.1953C41.5538 54.2846 41.298 54.323 41.0424 54.3079C40.7869 54.2928 40.5373 54.2247 40.3096 54.1077C40.0819 53.9908 39.8811 53.8277 39.72 53.6288C39.5588 53.4299 39.4409 53.1997 39.3737 52.9526C39.3066 52.7056 39.2917 52.4473 39.3299 52.1942C39.1793 52.4837 38.9331 52.7121 38.6331 52.8404L37.8175 53.1329C37.3494 53.2985 36.9634 53.6388 36.7404 54.0824L35.4609 56.6215C35.4431 56.66 35.4412 56.7039 35.4556 56.7438C35.47 56.7837 35.4996 56.8163 35.5378 56.8346L37.2421 57.6096C37.2741 57.6242 37.3092 57.6309 37.3443 57.6291C37.3795 57.6274 37.4137 57.6172 37.4441 57.5995C37.4745 57.5818 37.5002 57.557 37.519 57.5273C37.5379 57.4976 37.5493 57.4638 37.5524 57.4287L37.615 56.7144C37.6215 56.6571 37.6502 56.6046 37.6949 56.5681C37.7395 56.5316 37.7967 56.514 37.8541 56.519C37.9116 56.524 37.9648 56.5513 38.0025 56.595C38.0401 56.6387 38.0592 56.6954 38.0557 56.7529L37.525 62.7851C37.5248 62.8279 37.5334 62.8703 37.5502 62.9097C37.567 62.9491 37.5918 62.9847 37.6229 63.0141C37.654 63.0436 37.6908 63.0663 37.731 63.081C37.7713 63.0957 37.8141 63.1019 37.8569 63.0994H44.4821C44.5251 63.1019 44.5681 63.0956 44.6085 63.0808C44.6489 63.066 44.6858 63.0431 44.717 63.0133C44.7481 62.9836 44.7728 62.9479 44.7895 62.9082C44.8062 62.8685 44.8145 62.8259 44.814 62.7828C44.7201 61.7762 44.3315 57.671 44.2454 56.7542C44.2412 56.6968 44.2597 56.6401 44.2969 56.5962C44.3341 56.5523 44.3869 56.5247 44.4442 56.5193C44.5015 56.5139 44.5586 56.5311 44.6033 56.5673C44.648 56.6035 44.6767 56.6558 44.6834 56.7129L44.7501 57.42C44.7534 57.4547 44.7649 57.4882 44.7837 57.5176C44.8025 57.547 44.828 57.5715 44.8582 57.5891C44.8883 57.6067 44.9222 57.6168 44.957 57.6187C44.9919 57.6206 45.0267 57.6142 45.0585 57.6L46.7836 56.8303C46.8213 56.8125 46.8505 56.7806 46.8649 56.7415C46.8793 56.7024 46.8777 56.6595 46.8606 56.6215ZM40.7429 60.8483C40.7412 60.9054 40.7173 60.9596 40.6763 60.9994C40.6352 61.0392 40.5803 61.0614 40.5232 61.0614C40.4661 61.0614 40.4112 61.0392 40.3702 60.9994C40.3291 60.9596 40.3052 60.9054 40.3035 60.8483V58.6328L40.0902 58.7646C40.0407 58.7939 39.9817 58.8026 39.9258 58.7888C39.8699 58.775 39.8217 58.7399 39.7915 58.6909C39.7613 58.642 39.7515 58.5831 39.7642 58.527C39.7769 58.4709 39.8112 58.422 39.8596 58.3909L40.4068 58.05C40.4402 58.0301 40.4784 58.0194 40.5173 58.0188C40.5562 58.0183 40.5946 58.0279 40.6287 58.0468C40.6627 58.0658 40.6912 58.0933 40.7113 58.1266C40.7314 58.16 40.7423 58.1981 40.7431 58.237L40.7429 60.8483ZM42.3235 60.8483C42.3235 60.9066 42.3004 60.9625 42.2591 61.0038C42.2179 61.045 42.162 61.0681 42.1037 61.0681C42.0454 61.0681 41.9895 61.045 41.9483 61.0038C41.907 60.9625 41.8839 60.9066 41.8839 60.8483V58.6328L41.6708 58.7646C41.6212 58.7952 41.5615 58.8049 41.5049 58.7915C41.4482 58.7781 41.3991 58.7427 41.3685 58.6932C41.3379 58.6436 41.3282 58.5839 41.3416 58.5272C41.355 58.4705 41.3904 58.4215 41.4399 58.3909L41.9872 58.05C42.0206 58.0301 42.0587 58.0194 42.0977 58.0188C42.1366 58.0183 42.175 58.0279 42.2091 58.0468C42.2431 58.0658 42.2716 58.0933 42.2917 58.1266C42.3118 58.16 42.3227 58.1981 42.3235 58.237V60.8483Z" fill="#FAFAFA"/>
<path d="M40.7429 60.8483C40.7412 60.9054 40.7173 60.9596 40.6763 60.9994C40.6352 61.0392 40.5803 61.0614 40.5232 61.0614C40.4661 61.0614 40.4112 61.0392 40.3702 60.9994C40.3291 60.9596 40.3052 60.9054 40.3035 60.8483V58.6328L40.0902 58.7646C40.0407 58.7939 39.9817 58.8026 39.9258 58.7888C39.8699 58.775 39.8217 58.7399 39.7915 58.6909C39.7613 58.642 39.7515 58.5831 39.7642 58.527C39.7769 58.4709 39.8112 58.422 39.8596 58.3909L40.4068 58.05C40.4402 58.0301 40.4784 58.0194 40.5173 58.0188C40.5562 58.0183 40.5946 58.0279 40.6287 58.0468C40.6627 58.0658 40.6912 58.0933 40.7113 58.1266C40.7314 58.16 40.7423 58.1981 40.7431 58.237L40.7429 60.8483Z" fill="#FAFAFA"/>
<path d="M42.3235 60.8483C42.3235 60.9066 42.3004 60.9625 42.2591 61.0038C42.2179 61.045 42.162 61.0681 42.1037 61.0681C42.0454 61.0681 41.9895 61.045 41.9483 61.0038C41.907 60.9625 41.8839 60.9066 41.8839 60.8483V58.6328L41.6708 58.7646C41.6212 58.7952 41.5615 58.8049 41.5049 58.7915C41.4482 58.7781 41.3991 58.7427 41.3685 58.6932C41.3379 58.6436 41.3282 58.5839 41.3416 58.5272C41.355 58.4705 41.3904 58.4215 41.4399 58.3909L41.9872 58.05C42.0206 58.0301 42.0587 58.0194 42.0977 58.0188C42.1366 58.0183 42.175 58.0279 42.2091 58.0468C42.2431 58.0658 42.2716 58.0933 42.2917 58.1266C42.3118 58.16 42.3227 58.1981 42.3235 58.237V60.8483Z" fill="#FAFAFA"/>
<path d="M40.1296 58.332H42.4213" stroke="#191919" stroke-width="0.343756" stroke-linecap="round" stroke-linejoin="round"/>
<path d="M41.2756 59.4792V57.1875" stroke="#191919" stroke-width="0.343756" stroke-linecap="round" stroke-linejoin="round"/>
<path d="M9.09817 20.8673C9.46706 20.8668 9.82071 20.7201 10.0816 20.4593C10.3424 20.1984 10.4891 19.8448 10.4896 19.4759V18.9944C9.56941 19.1677 8.62438 19.161 7.70679 18.9746V19.4759C7.70722 19.8448 7.85395 20.1984 8.11479 20.4593C8.37563 20.7201 8.72929 20.8668 9.09817 20.8673Z" fill="#FAFAFA"/>
<path d="M14.7981 23.6215L13.6571 21.2233C13.442 20.7743 13.0628 20.425 12.5978 20.2472L11.7271 19.9154C11.3826 19.8135 11.1311 19.4088 10.9291 19.1328V19.4102C10.9373 19.666 10.8921 19.9208 10.7964 20.1582C10.7007 20.3956 10.5565 20.6104 10.3731 20.789C10.1897 20.9675 9.97108 21.1059 9.73121 21.1953C9.49134 21.2846 9.23548 21.323 8.97995 21.3079C8.72442 21.2928 8.47484 21.2247 8.24713 21.1077C8.01942 20.9908 7.81859 20.8277 7.65745 20.6288C7.49631 20.4299 7.3784 20.1997 7.31124 19.9526C7.24408 19.7056 7.22915 19.4473 7.26741 19.1942C7.11684 19.4837 6.8706 19.7121 6.57059 19.8404L5.75499 20.1329C5.28685 20.2985 4.90091 20.6388 4.67792 21.0824L3.39839 23.6215C3.38062 23.66 3.37873 23.7039 3.39313 23.7438C3.40753 23.7837 3.43707 23.8163 3.47533 23.8346L5.17961 24.6096C5.21162 24.6242 5.24667 24.6309 5.28182 24.6291C5.31696 24.6274 5.35117 24.6172 5.38157 24.5995C5.41197 24.5818 5.43767 24.557 5.45651 24.5273C5.47535 24.4976 5.48679 24.4638 5.48985 24.4287L5.55251 23.7144C5.55905 23.6571 5.5877 23.6046 5.63236 23.5681C5.67703 23.5316 5.73418 23.514 5.79163 23.519C5.84909 23.524 5.90231 23.5513 5.93996 23.595C5.97761 23.6387 5.9967 23.6954 5.99318 23.7529L5.4625 29.7851C5.46229 29.8279 5.47086 29.8703 5.48769 29.9097C5.50452 29.9491 5.52926 29.9847 5.56036 30.0141C5.59146 30.0436 5.62828 30.0663 5.66853 30.081C5.70878 30.0957 5.75161 30.1019 5.79438 30.0994H12.4196C12.4626 30.1019 12.5056 30.0956 12.546 30.0808C12.5864 30.066 12.6233 30.0431 12.6545 30.0133C12.6856 29.9836 12.7103 29.9479 12.727 29.9082C12.7437 29.8685 12.752 29.8259 12.7515 29.7828C12.6576 28.7762 12.269 24.671 12.1829 23.7542C12.1787 23.6968 12.1972 23.6401 12.2344 23.5962C12.2716 23.5523 12.3244 23.5247 12.3817 23.5193C12.439 23.5139 12.4961 23.5311 12.5408 23.5673C12.5855 23.6035 12.6142 23.6558 12.6209 23.7129L12.6876 24.42C12.6909 24.4547 12.7024 24.4882 12.7212 24.5176C12.74 24.547 12.7655 24.5715 12.7957 24.5891C12.8258 24.6067 12.8597 24.6168 12.8945 24.6187C12.9294 24.6206 12.9642 24.6142 12.996 24.6L14.7211 23.8303C14.7588 23.8125 14.788 23.7806 14.8024 23.7415C14.8168 23.7024 14.8152 23.6595 14.7981 23.6215ZM8.68043 27.8483C8.67869 27.9054 8.65478 27.9596 8.61376 27.9994C8.57275 28.0392 8.51785 28.0614 8.46071 28.0614C8.40357 28.0614 8.34867 28.0392 8.30766 27.9994C8.26664 27.9596 8.24273 27.9054 8.24099 27.8483V25.6328L8.0277 25.7646C7.97818 25.7939 7.91915 25.8026 7.8633 25.7888C7.80744 25.775 7.75922 25.7399 7.72901 25.6909C7.69879 25.642 7.689 25.5831 7.70172 25.527C7.71445 25.4709 7.74868 25.422 7.79706 25.3909L8.34427 25.05C8.37775 25.0301 8.41586 25.0194 8.4548 25.0188C8.49374 25.0183 8.53214 25.0279 8.56618 25.0468C8.60022 25.0658 8.6287 25.0933 8.64878 25.1266C8.66887 25.16 8.67985 25.1981 8.68063 25.237L8.68043 27.8483ZM10.261 27.8483C10.261 27.9066 10.2379 27.9625 10.1966 28.0038C10.1554 28.045 10.0995 28.0681 10.0412 28.0681C9.9829 28.0681 9.92699 28.045 9.88576 28.0038C9.84454 27.9625 9.82138 27.9066 9.82138 27.8483V25.6328L9.60829 25.7646C9.55873 25.7952 9.49904 25.8049 9.44236 25.7915C9.38567 25.7781 9.33662 25.7427 9.30601 25.6932C9.2754 25.6436 9.26573 25.5839 9.27913 25.5272C9.29252 25.4705 9.32789 25.4215 9.37745 25.3909L9.92465 25.05C9.95814 25.0301 9.99625 25.0194 10.0352 25.0188C10.0741 25.0183 10.1125 25.0279 10.1466 25.0468C10.1806 25.0658 10.2091 25.0933 10.2292 25.1266C10.2493 25.16 10.2602 25.1981 10.261 25.237V27.8483Z" fill="#FAFAFA"/>
<path d="M8.68043 27.8483C8.67869 27.9054 8.65478 27.9596 8.61376 27.9994C8.57275 28.0392 8.51785 28.0614 8.46071 28.0614C8.40357 28.0614 8.34867 28.0392 8.30766 27.9994C8.26664 27.9596 8.24273 27.9054 8.24099 27.8483V25.6328L8.0277 25.7646C7.97818 25.7939 7.91915 25.8026 7.8633 25.7888C7.80744 25.775 7.75922 25.7399 7.72901 25.6909C7.69879 25.642 7.689 25.5831 7.70172 25.527C7.71445 25.4709 7.74868 25.422 7.79706 25.3909L8.34427 25.05C8.37775 25.0301 8.41586 25.0194 8.4548 25.0188C8.49374 25.0183 8.53214 25.0279 8.56618 25.0468C8.60022 25.0658 8.6287 25.0933 8.64878 25.1266C8.66887 25.16 8.67985 25.1981 8.68063 25.237L8.68043 27.8483Z" fill="#FAFAFA"/>
<path d="M10.261 27.8483C10.261 27.9066 10.2379 27.9625 10.1966 28.0038C10.1554 28.045 10.0995 28.0681 10.0412 28.0681C9.9829 28.0681 9.92699 28.045 9.88576 28.0038C9.84454 27.9625 9.82138 27.9066 9.82138 27.8483V25.6328L9.60829 25.7646C9.55873 25.7952 9.49904 25.8049 9.44236 25.7915C9.38567 25.7781 9.33662 25.7427 9.30601 25.6932C9.2754 25.6436 9.26573 25.5839 9.27913 25.5272C9.29252 25.4705 9.32789 25.4215 9.37745 25.3909L9.92465 25.05C9.95814 25.0301 9.99625 25.0194 10.0352 25.0188C10.0741 25.0183 10.1125 25.0279 10.1466 25.0468C10.1806 25.0658 10.2091 25.0933 10.2292 25.1266C10.2493 25.16 10.2602 25.1981 10.261 25.237V27.8483Z" fill="#FAFAFA"/>
<path d="M8.06714 25.332H10.3588" stroke="#191919" stroke-width="0.343756" stroke-linecap="round" stroke-linejoin="round"/>
<path d="M9.21313 26.4792V24.1875" stroke="#191919" stroke-width="0.343756" stroke-linecap="round" stroke-linejoin="round"/>
<path d="M27.1609 35.8673C27.5298 35.8668 27.8835 35.7201 28.1443 35.4593C28.4051 35.1984 28.5519 34.8448 28.5523 34.4759V33.9944C27.6322 34.1677 26.6871 34.161 25.7695 33.9746V34.4759C25.77 34.8448 25.9167 35.1984 26.1775 35.4593C26.4384 35.7201 26.792 35.8668 27.1609 35.8673Z" fill="#FAFAFA"/>
<path d="M32.8608 38.6215L31.7199 36.2233C31.5047 35.7743 31.1256 35.425 30.6606 35.2472L29.7899 34.9154C29.4453 34.8135 29.1939 34.4088 28.9918 34.1328V34.4102C29 34.666 28.9549 34.9208 28.8591 35.1582C28.7634 35.3956 28.6192 35.6104 28.4358 35.789C28.2524 35.9675 28.0338 36.1059 27.794 36.1953C27.5541 36.2846 27.2982 36.323 27.0427 36.3079C26.7872 36.2928 26.5376 36.2247 26.3099 36.1077C26.0822 35.9908 25.8813 35.8277 25.7202 35.6288C25.5591 35.4299 25.4411 35.1997 25.374 34.9526C25.3068 34.7056 25.2919 34.4473 25.3302 34.1942C25.1796 34.4837 24.9333 34.7121 24.6333 34.8404L23.8177 35.1329C23.3496 35.2985 22.9637 35.6388 22.7407 36.0824L21.4611 38.6215C21.4434 38.66 21.4415 38.7039 21.4559 38.7438C21.4703 38.7837 21.4998 38.8163 21.5381 38.8346L23.2424 39.6096C23.2744 39.6242 23.3094 39.6309 23.3446 39.6291C23.3797 39.6274 23.4139 39.6172 23.4443 39.5995C23.4747 39.5818 23.5004 39.557 23.5193 39.5273C23.5381 39.4976 23.5495 39.4638 23.5526 39.4287L23.6153 38.7144C23.6218 38.6571 23.6504 38.6046 23.6951 38.5681C23.7398 38.5316 23.7969 38.514 23.8544 38.519C23.9118 38.524 23.9651 38.5513 24.0027 38.595C24.0403 38.6387 24.0594 38.6954 24.0559 38.7529L23.5252 44.7851C23.525 44.8279 23.5336 44.8703 23.5504 44.9097C23.5673 44.9491 23.592 44.9847 23.6231 45.0141C23.6542 45.0436 23.691 45.0663 23.7313 45.081C23.7715 45.0957 23.8144 45.1019 23.8571 45.0994H30.4824C30.5253 45.1019 30.5684 45.0956 30.6088 45.0808C30.6492 45.066 30.6861 45.0431 30.7172 45.0133C30.7484 44.9836 30.7731 44.9479 30.7897 44.9082C30.8064 44.8685 30.8148 44.8259 30.8143 44.7828C30.7204 43.7762 30.3318 39.671 30.2456 38.7542C30.2415 38.6968 30.26 38.6401 30.2971 38.5962C30.3343 38.5523 30.3872 38.5247 30.4445 38.5193C30.5017 38.5139 30.5588 38.5311 30.6035 38.5673C30.6482 38.6035 30.677 38.6558 30.6836 38.7129L30.7504 39.42C30.7537 39.4547 30.7652 39.4882 30.784 39.5176C30.8027 39.547 30.8283 39.5715 30.8584 39.5891C30.8885 39.6067 30.9224 39.6168 30.9573 39.6187C30.9921 39.6206 31.0269 39.6142 31.0588 39.6L32.7839 38.8303C32.8216 38.8125 32.8507 38.7806 32.8651 38.7415C32.8795 38.7024 32.878 38.6595 32.8608 38.6215ZM26.7432 42.8483C26.7414 42.9054 26.7175 42.9596 26.6765 42.9994C26.6355 43.0392 26.5806 43.0614 26.5235 43.0614C26.4663 43.0614 26.4114 43.0392 26.3704 42.9994C26.3294 42.9596 26.3055 42.9054 26.3037 42.8483V40.6328L26.0904 40.7646C26.0409 40.7939 25.9819 40.8026 25.926 40.7888C25.8702 40.775 25.822 40.7399 25.7918 40.6909C25.7615 40.642 25.7517 40.5831 25.7645 40.527C25.7772 40.4709 25.8114 40.422 25.8598 40.3909L26.407 40.05C26.4405 40.0301 26.4786 40.0194 26.5175 40.0188C26.5565 40.0183 26.5949 40.0279 26.6289 40.0468C26.663 40.0658 26.6914 40.0933 26.7115 40.1266C26.7316 40.16 26.7426 40.1981 26.7434 40.237L26.7432 42.8483ZM28.3238 42.8483C28.3238 42.9066 28.3006 42.9625 28.2594 43.0038C28.2182 43.045 28.1622 43.0681 28.1039 43.0681C28.0456 43.0681 27.9897 43.045 27.9485 43.0038C27.9073 42.9625 27.8841 42.9066 27.8841 42.8483V40.6328L27.671 40.7646C27.6215 40.7952 27.5618 40.8049 27.5051 40.7915C27.4484 40.7781 27.3994 40.7427 27.3688 40.6932C27.3381 40.6436 27.3285 40.5839 27.3419 40.5272C27.3553 40.4705 27.3906 40.4215 27.4402 40.3909L27.9874 40.05C28.0209 40.0301 28.059 40.0194 28.0979 40.0188C28.1369 40.0183 28.1753 40.0279 28.2093 40.0468C28.2434 40.0658 28.2718 40.0933 28.2919 40.1266C28.312 40.16 28.323 40.1981 28.3238 40.237V42.8483Z" fill="#FAFAFA"/>
<path d="M26.7432 42.8483C26.7414 42.9054 26.7175 42.9596 26.6765 42.9994C26.6355 43.0392 26.5806 43.0614 26.5235 43.0614C26.4663 43.0614 26.4114 43.0392 26.3704 42.9994C26.3294 42.9596 26.3055 42.9054 26.3037 42.8483V40.6328L26.0904 40.7646C26.0409 40.7939 25.9819 40.8026 25.926 40.7888C25.8702 40.775 25.822 40.7399 25.7918 40.6909C25.7615 40.642 25.7517 40.5831 25.7645 40.527C25.7772 40.4709 25.8114 40.422 25.8598 40.3909L26.407 40.05C26.4405 40.0301 26.4786 40.0194 26.5175 40.0188C26.5565 40.0183 26.5949 40.0279 26.6289 40.0468C26.663 40.0658 26.6914 40.0933 26.7115 40.1266C26.7316 40.16 26.7426 40.1981 26.7434 40.237L26.7432 42.8483Z" fill="#FAFAFA"/>
<path d="M28.3238 42.8483C28.3238 42.9066 28.3006 42.9625 28.2594 43.0038C28.2182 43.045 28.1622 43.0681 28.1039 43.0681C28.0456 43.0681 27.9897 43.045 27.9485 43.0038C27.9073 42.9625 27.8841 42.9066 27.8841 42.8483V40.6328L27.671 40.7646C27.6215 40.7952 27.5618 40.8049 27.5051 40.7915C27.4484 40.7781 27.3994 40.7427 27.3688 40.6932C27.3381 40.6436 27.3285 40.5839 27.3419 40.5272C27.3553 40.4705 27.3906 40.4215 27.4402 40.3909L27.9874 40.05C28.0209 40.0301 28.059 40.0194 28.0979 40.0188C28.1369 40.0183 28.1753 40.0279 28.2093 40.0468C28.2434 40.0658 28.2718 40.0933 28.2919 40.1266C28.312 40.16 28.323 40.1981 28.3238 40.237V42.8483Z" fill="#FAFAFA"/>
<path d="M26.1299 40.332H28.4216" stroke="#191919" stroke-width="0.343756" stroke-linecap="round" stroke-linejoin="round"/>
<path d="M27.2759 41.4792V39.1875" stroke="#191919" stroke-width="0.343756" stroke-linecap="round" stroke-linejoin="round"/>
<path d="M72.2237 21.8673C72.5925 21.8668 72.9462 21.7201 73.207 21.4593C73.4679 21.1984 73.6146 20.8448 73.615 20.4759V19.9944C72.6949 20.1677 71.7499 20.161 70.8323 19.9746V20.4759C70.8327 20.8448 70.9794 21.1984 71.2403 21.4593C71.5011 21.7201 71.8548 21.8668 72.2237 21.8673Z" fill="#FAFAFA"/>
<path d="M77.9236 24.6215L76.7826 22.2233C76.5674 21.7743 76.1883 21.425 75.7233 21.2472L74.8526 20.9154C74.5081 20.8135 74.2566 20.4088 74.0545 20.1328V20.4102C74.0628 20.666 74.0176 20.9208 73.9219 21.1582C73.8261 21.3956 73.682 21.6104 73.4986 21.789C73.3152 21.9675 73.0966 22.1059 72.8567 22.1953C72.6168 22.2846 72.361 22.323 72.1054 22.3079C71.8499 22.2928 71.6003 22.2247 71.3726 22.1077C71.1449 21.9908 70.9441 21.8277 70.7829 21.6288C70.6218 21.4299 70.5039 21.1997 70.4367 20.9526C70.3696 20.7056 70.3546 20.4473 70.3929 20.1942C70.2423 20.4837 69.9961 20.7121 69.6961 20.8404L68.8805 21.1329C68.4123 21.2985 68.0264 21.6388 67.8034 22.0824L66.5239 24.6215C66.5061 24.66 66.5042 24.7039 66.5186 24.7438C66.533 24.7837 66.5626 24.8163 66.6008 24.8346L68.3051 25.6096C68.3371 25.6242 68.3722 25.6309 68.4073 25.6291C68.4424 25.6274 68.4767 25.6172 68.5071 25.5995C68.5375 25.5818 68.5632 25.557 68.582 25.5273C68.6008 25.4976 68.6123 25.4638 68.6153 25.4287L68.678 24.7144C68.6845 24.6571 68.7132 24.6046 68.7579 24.5681C68.8025 24.5316 68.8597 24.514 68.9171 24.519C68.9746 24.524 69.0278 24.5513 69.0654 24.595C69.1031 24.6387 69.1222 24.6954 69.1187 24.7529L68.588 30.7851C68.5878 30.8279 68.5963 30.8703 68.6132 30.9097C68.63 30.9491 68.6547 30.9847 68.6858 31.0141C68.717 31.0436 68.7538 31.0663 68.794 31.081C68.8343 31.0957 68.8771 31.1019 68.9199 31.0994H75.5451C75.5881 31.1019 75.6311 31.0956 75.6715 31.0808C75.7119 31.066 75.7488 31.0431 75.78 31.0133C75.8111 30.9836 75.8358 30.9479 75.8525 30.9082C75.8692 30.8685 75.8775 30.8259 75.877 30.7828C75.7831 29.7762 75.3945 25.671 75.3084 24.7542C75.3042 24.6968 75.3227 24.6401 75.3599 24.5962C75.3971 24.5523 75.4499 24.5247 75.5072 24.5193C75.5645 24.5139 75.6216 24.5311 75.6663 24.5673C75.711 24.6035 75.7397 24.6558 75.7464 24.7129L75.8131 25.42C75.8164 25.4547 75.8279 25.4882 75.8467 25.5176C75.8655 25.547 75.891 25.5715 75.9211 25.5891C75.9513 25.6067 75.9852 25.6168 76.02 25.6187C76.0549 25.6206 76.0897 25.6142 76.1215 25.6L77.8466 24.8303C77.8843 24.8125 77.9135 24.7806 77.9279 24.7415C77.9423 24.7024 77.9407 24.6595 77.9236 24.6215ZM71.8059 28.8483C71.8042 28.9054 71.7803 28.9596 71.7392 28.9994C71.6982 29.0392 71.6433 29.0614 71.5862 29.0614C71.5291 29.0614 71.4742 29.0392 71.4331 28.9994C71.3921 28.9596 71.3682 28.9054 71.3665 28.8483V26.6328L71.1532 26.7646C71.1037 26.7939 71.0446 26.8026 70.9888 26.7888C70.9329 26.775 70.8847 26.7399 70.8545 26.6909C70.8243 26.642 70.8145 26.5831 70.8272 26.527C70.8399 26.4709 70.8742 26.422 70.9225 26.3909L71.4698 26.05C71.5032 26.0301 71.5413 26.0194 71.5803 26.0188C71.6192 26.0183 71.6576 26.0279 71.6917 26.0468C71.7257 26.0658 71.7542 26.0933 71.7743 26.1266C71.7944 26.16 71.8053 26.1981 71.8061 26.237L71.8059 28.8483ZM73.3865 28.8483C73.3865 28.9066 73.3633 28.9625 73.3221 29.0038C73.2809 29.045 73.225 29.0681 73.1667 29.0681C73.1084 29.0681 73.0525 29.045 73.0113 29.0038C72.97 28.9625 72.9469 28.9066 72.9469 28.8483V26.6328L72.7338 26.7646C72.6842 26.7952 72.6245 26.8049 72.5678 26.7915C72.5112 26.7781 72.4621 26.7427 72.4315 26.6932C72.4009 26.6436 72.3912 26.5839 72.4046 26.5272C72.418 26.4705 72.4534 26.4215 72.5029 26.3909L73.0501 26.05C73.0836 26.0301 73.1217 26.0194 73.1607 26.0188C73.1996 26.0183 73.238 26.0279 73.2721 26.0468C73.3061 26.0658 73.3346 26.0933 73.3547 26.1266C73.3747 26.16 73.3857 26.1981 73.3865 26.237V28.8483Z" fill="#FAFAFA"/>
<path d="M71.8059 28.8483C71.8042 28.9054 71.7803 28.9596 71.7392 28.9994C71.6982 29.0392 71.6433 29.0614 71.5862 29.0614C71.5291 29.0614 71.4742 29.0392 71.4331 28.9994C71.3921 28.9596 71.3682 28.9054 71.3665 28.8483V26.6328L71.1532 26.7646C71.1037 26.7939 71.0446 26.8026 70.9888 26.7888C70.9329 26.775 70.8847 26.7399 70.8545 26.6909C70.8243 26.642 70.8145 26.5831 70.8272 26.527C70.8399 26.4709 70.8742 26.422 70.9225 26.3909L71.4698 26.05C71.5032 26.0301 71.5413 26.0194 71.5803 26.0188C71.6192 26.0183 71.6576 26.0279 71.6917 26.0468C71.7257 26.0658 71.7542 26.0933 71.7743 26.1266C71.7944 26.16 71.8053 26.1981 71.8061 26.237L71.8059 28.8483Z" fill="#FAFAFA"/>
<path d="M73.3865 28.8483C73.3865 28.9066 73.3633 28.9625 73.3221 29.0038C73.2809 29.045 73.225 29.0681 73.1667 29.0681C73.1084 29.0681 73.0525 29.045 73.0113 29.0038C72.97 28.9625 72.9469 28.9066 72.9469 28.8483V26.6328L72.7338 26.7646C72.6842 26.7952 72.6245 26.8049 72.5678 26.7915C72.5112 26.7781 72.4621 26.7427 72.4315 26.6932C72.4009 26.6436 72.3912 26.5839 72.4046 26.5272C72.418 26.4705 72.4534 26.4215 72.5029 26.3909L73.0501 26.05C73.0836 26.0301 73.1217 26.0194 73.1607 26.0188C73.1996 26.0183 73.238 26.0279 73.2721 26.0468C73.3061 26.0658 73.3346 26.0933 73.3547 26.1266C73.3747 26.16 73.3857 26.1981 73.3865 26.237V28.8483Z" fill="#FAFAFA"/>
<path d="M71.1926 26.332H73.4843" stroke="#191919" stroke-width="0.343756" stroke-linecap="round" stroke-linejoin="round"/>
<path d="M72.3386 27.4792V25.1875" stroke="#191919" stroke-width="0.343756" stroke-linecap="round" stroke-linejoin="round"/>
<path d="M41.2864 31.8673C41.6553 31.8668 42.0089 31.7201 42.2698 31.4593C42.5306 31.1984 42.6774 30.8448 42.6778 30.4759V29.9944C41.7576 30.1677 40.8126 30.161 39.895 29.9746V30.4759C39.8955 30.8448 40.0422 31.1984 40.303 31.4593C40.5639 31.7201 40.9175 31.8668 41.2864 31.8673Z" fill="#FAFAFA"/>
<path d="M46.9863 34.6215L45.8454 32.2233C45.6302 31.7743 45.2511 31.425 44.7861 31.2472L43.9153 30.9154C43.5708 30.8135 43.3194 30.4088 43.1173 30.1328V30.4102C43.1255 30.666 43.0803 30.9208 42.9846 31.1582C42.8889 31.3956 42.7447 31.6104 42.5613 31.789C42.3779 31.9675 42.1593 32.1059 41.9194 32.1953C41.6796 32.2846 41.4237 32.323 41.1682 32.3079C40.9127 32.2928 40.6631 32.2247 40.4354 32.1077C40.2077 31.9908 40.0068 31.8277 39.8457 31.6288C39.6845 31.4299 39.5666 31.1997 39.4995 30.9526C39.4323 30.7056 39.4174 30.4473 39.4556 30.1942C39.3051 30.4837 39.0588 30.7121 38.7588 30.8404L37.9432 31.1329C37.4751 31.2985 37.0891 31.6388 36.8662 32.0824L35.5866 34.6215C35.5688 34.66 35.567 34.7039 35.5814 34.7438C35.5958 34.7837 35.6253 34.8163 35.6636 34.8346L37.3678 35.6096C37.3999 35.6242 37.4349 35.6309 37.47 35.6291C37.5052 35.6274 37.5394 35.6172 37.5698 35.5995C37.6002 35.5818 37.6259 35.557 37.6447 35.5273C37.6636 35.4976 37.675 35.4638 37.6781 35.4287L37.7407 34.7144C37.7473 34.6571 37.7759 34.6046 37.8206 34.5681C37.8653 34.5316 37.9224 34.514 37.9799 34.519C38.0373 34.524 38.0905 34.5513 38.1282 34.595C38.1658 34.6387 38.1849 34.6954 38.1814 34.7529L37.6507 40.7851C37.6505 40.8279 37.6591 40.8703 37.6759 40.9097C37.6928 40.9491 37.7175 40.9847 37.7486 41.0141C37.7797 41.0436 37.8165 41.0663 37.8568 41.081C37.897 41.0957 37.9398 41.1019 37.9826 41.0994H44.6079C44.6508 41.1019 44.6938 41.0956 44.7343 41.0808C44.7747 41.066 44.8116 41.0431 44.8427 41.0133C44.8739 40.9836 44.8985 40.9479 44.9152 40.9082C44.9319 40.8685 44.9403 40.8259 44.9397 40.7828C44.8459 39.7762 44.4572 35.671 44.3711 34.7542C44.367 34.6968 44.3855 34.6401 44.4226 34.5962C44.4598 34.5523 44.5127 34.5247 44.5699 34.5193C44.6272 34.5139 44.6843 34.5311 44.729 34.5673C44.7737 34.6035 44.8025 34.6558 44.8091 34.7129L44.8759 35.42C44.8792 35.4547 44.8907 35.4882 44.9094 35.5176C44.9282 35.547 44.9538 35.5715 44.9839 35.5891C45.014 35.6067 45.0479 35.6168 45.0828 35.6187C45.1176 35.6206 45.1524 35.6142 45.1843 35.6L46.9094 34.8303C46.947 34.8125 46.9762 34.7806 46.9906 34.7415C47.005 34.7024 47.0035 34.6595 46.9863 34.6215ZM40.8687 38.8483C40.8669 38.9054 40.843 38.9596 40.802 38.9994C40.761 39.0392 40.7061 39.0614 40.6489 39.0614C40.5918 39.0614 40.5369 39.0392 40.4959 38.9994C40.4549 38.9596 40.431 38.9054 40.4292 38.8483V36.6328L40.2159 36.7646C40.1664 36.7939 40.1074 36.8026 40.0515 36.7888C39.9957 36.775 39.9475 36.7399 39.9172 36.6909C39.887 36.642 39.8772 36.5831 39.89 36.527C39.9027 36.4709 39.9369 36.422 39.9853 36.3909L40.5325 36.05C40.566 36.0301 40.6041 36.0194 40.643 36.0188C40.682 36.0183 40.7204 36.0279 40.7544 36.0468C40.7885 36.0658 40.8169 36.0933 40.837 36.1266C40.8571 36.16 40.8681 36.1981 40.8689 36.237L40.8687 38.8483ZM42.4493 38.8483C42.4493 38.9066 42.4261 38.9625 42.3849 39.0038C42.3436 39.045 42.2877 39.0681 42.2294 39.0681C42.1711 39.0681 42.1152 39.045 42.074 39.0038C42.0328 38.9625 42.0096 38.9066 42.0096 38.8483V36.6328L41.7965 36.7646C41.747 36.7952 41.6873 36.8049 41.6306 36.7915C41.5739 36.7781 41.5249 36.7427 41.4942 36.6932C41.4636 36.6436 41.454 36.5839 41.4674 36.5272C41.4808 36.4705 41.5161 36.4215 41.5657 36.3909L42.1129 36.05C42.1464 36.0301 42.1845 36.0194 42.2234 36.0188C42.2624 36.0183 42.3008 36.0279 42.3348 36.0468C42.3688 36.0658 42.3973 36.0933 42.4174 36.1266C42.4375 36.16 42.4485 36.1981 42.4493 36.237V38.8483Z" fill="#FAFAFA"/>
<path d="M40.8687 38.8483C40.8669 38.9054 40.843 38.9596 40.802 38.9994C40.761 39.0392 40.7061 39.0614 40.6489 39.0614C40.5918 39.0614 40.5369 39.0392 40.4959 38.9994C40.4549 38.9596 40.431 38.9054 40.4292 38.8483V36.6328L40.2159 36.7646C40.1664 36.7939 40.1074 36.8026 40.0515 36.7888C39.9957 36.775 39.9475 36.7399 39.9172 36.6909C39.887 36.642 39.8772 36.5831 39.89 36.527C39.9027 36.4709 39.9369 36.422 39.9853 36.3909L40.5325 36.05C40.566 36.0301 40.6041 36.0194 40.643 36.0188C40.682 36.0183 40.7204 36.0279 40.7544 36.0468C40.7885 36.0658 40.8169 36.0933 40.837 36.1266C40.8571 36.16 40.8681 36.1981 40.8689 36.237L40.8687 38.8483Z" fill="#FAFAFA"/>
<path d="M42.4493 38.8483C42.4493 38.9066 42.4261 38.9625 42.3849 39.0038C42.3436 39.045 42.2877 39.0681 42.2294 39.0681C42.1711 39.0681 42.1152 39.045 42.074 39.0038C42.0328 38.9625 42.0096 38.9066 42.0096 38.8483V36.6328L41.7965 36.7646C41.747 36.7952 41.6873 36.8049 41.6306 36.7915C41.5739 36.7781 41.5249 36.7427 41.4942 36.6932C41.4636 36.6436 41.454 36.5839 41.4674 36.5272C41.4808 36.4705 41.5161 36.4215 41.5657 36.3909L42.1129 36.05C42.1464 36.0301 42.1845 36.0194 42.2234 36.0188C42.2624 36.0183 42.3008 36.0279 42.3348 36.0468C42.3688 36.0658 42.3973 36.0933 42.4174 36.1266C42.4375 36.16 42.4485 36.1981 42.4493 36.237V38.8483Z" fill="#FAFAFA"/>
<path d="M40.2554 36.332H42.5471" stroke="#191919" stroke-width="0.343756" stroke-linecap="round" stroke-linejoin="round"/>
<path d="M41.4014 37.4792V35.1875" stroke="#191919" stroke-width="0.343756" stroke-linecap="round" stroke-linejoin="round"/>
<g clip-path="url(#clip0_8758_19282)">
<path d="M55.3491 35.8673C55.718 35.8668 56.0717 35.7201 56.3325 35.4593C56.5934 35.1984 56.7401 34.8448 56.7405 34.4759V33.9944C55.8204 34.1677 54.8754 34.161 53.9578 33.9746V34.4759C53.9582 34.8448 54.1049 35.1984 54.3658 35.4593C54.6266 35.7201 54.9803 35.8668 55.3491 35.8673Z" fill="#FAFAFA"/>
<path d="M61.0491 38.6215L59.9081 36.2233C59.6929 35.7743 59.3138 35.425 58.8488 35.2472L57.9781 34.9154C57.6336 34.8135 57.3821 34.4088 57.18 34.1328V34.4102C57.1883 34.666 57.1431 34.9208 57.0474 35.1582C56.9516 35.3956 56.8075 35.6104 56.6241 35.789C56.4407 35.9675 56.2221 36.1059 55.9822 36.1953C55.7423 36.2846 55.4865 36.323 55.2309 36.3079C54.9754 36.2928 54.7258 36.2247 54.4981 36.1077C54.2704 35.9908 54.0696 35.8277 53.9084 35.6288C53.7473 35.4299 53.6294 35.1997 53.5622 34.9526C53.4951 34.7056 53.4801 34.4473 53.5184 34.1942C53.3678 34.4837 53.1216 34.7121 52.8216 34.8404L52.006 35.1329C51.5378 35.2985 51.1519 35.6388 50.9289 36.0824L49.6494 38.6215C49.6316 38.66 49.6297 38.7039 49.6441 38.7438C49.6585 38.7837 49.688 38.8163 49.7263 38.8346L51.4306 39.6096C51.4626 39.6242 51.4977 39.6309 51.5328 39.6291C51.5679 39.6274 51.6021 39.6172 51.6325 39.5995C51.6629 39.5818 51.6886 39.557 51.7075 39.5273C51.7263 39.4976 51.7378 39.4638 51.7408 39.4287L51.8035 38.7144C51.81 38.6571 51.8387 38.6046 51.8833 38.5681C51.928 38.5316 51.9852 38.514 52.0426 38.519C52.1001 38.524 52.1533 38.5513 52.1909 38.595C52.2286 38.6387 52.2477 38.6954 52.2442 38.7529L51.7135 44.7851C51.7133 44.8279 51.7218 44.8703 51.7387 44.9097C51.7555 44.9491 51.7802 44.9847 51.8113 45.0141C51.8424 45.0436 51.8793 45.0663 51.9195 45.081C51.9598 45.0957 52.0026 45.1019 52.0454 45.0994H58.6706C58.7136 45.1019 58.7566 45.0956 58.797 45.0808C58.8374 45.066 58.8743 45.0431 58.9055 45.0133C58.9366 44.9836 58.9613 44.9479 58.978 44.9082C58.9947 44.8685 59.003 44.8259 59.0025 44.7828C58.9086 43.7762 58.52 39.671 58.4339 38.7542C58.4297 38.6968 58.4482 38.6401 58.4854 38.5962C58.5225 38.5523 58.5754 38.5247 58.6327 38.5193C58.69 38.5139 58.7471 38.5311 58.7918 38.5673C58.8365 38.6035 58.8652 38.6558 58.8719 38.7129L58.9386 39.42C58.9419 39.4547 58.9534 39.4882 58.9722 39.5176C58.991 39.547 59.0165 39.5715 59.0466 39.5891C59.0768 39.6067 59.1107 39.6168 59.1455 39.6187C59.1803 39.6206 59.2151 39.6142 59.247 39.6L60.9721 38.8303C61.0098 38.8125 61.039 38.7806 61.0534 38.7415C61.0678 38.7024 61.0662 38.6595 61.0491 38.6215ZM54.9314 42.8483C54.9297 42.9054 54.9058 42.9596 54.8647 42.9994C54.8237 43.0392 54.7688 43.0614 54.7117 43.0614C54.6545 43.0614 54.5996 43.0392 54.5586 42.9994C54.5176 42.9596 54.4937 42.9054 54.492 42.8483V40.6328L54.2787 40.7646C54.2292 40.7939 54.1701 40.8026 54.1143 40.7888C54.0584 40.775 54.0102 40.7399 53.98 40.6909C53.9498 40.642 53.94 40.5831 53.9527 40.527C53.9654 40.4709 53.9997 40.422 54.048 40.3909L54.5952 40.05C54.6287 40.0301 54.6668 40.0194 54.7058 40.0188C54.7447 40.0183 54.7831 40.0279 54.8172 40.0468C54.8512 40.0658 54.8797 40.0933 54.8998 40.1266C54.9198 40.16 54.9308 40.1981 54.9316 40.237L54.9314 42.8483ZM56.512 42.8483C56.512 42.9066 56.4888 42.9625 56.4476 43.0038C56.4064 43.045 56.3505 43.0681 56.2922 43.0681C56.2339 43.0681 56.178 43.045 56.1367 43.0038C56.0955 42.9625 56.0724 42.9066 56.0724 42.8483V40.6328L55.8593 40.7646C55.8097 40.7952 55.75 40.8049 55.6933 40.7915C55.6366 40.7781 55.5876 40.7427 55.557 40.6932C55.5264 40.6436 55.5167 40.5839 55.5301 40.5272C55.5435 40.4705 55.5789 40.4215 55.6284 40.3909L56.1756 40.05C56.2091 40.0301 56.2472 40.0194 56.2862 40.0188C56.3251 40.0183 56.3635 40.0279 56.3975 40.0468C56.4316 40.0658 56.4601 40.0933 56.4801 40.1266C56.5002 40.16 56.5112 40.1981 56.512 40.237V42.8483Z" fill="#FAFAFA"/>
<path d="M54.9314 42.8483C54.9297 42.9054 54.9058 42.9596 54.8647 42.9994C54.8237 43.0392 54.7688 43.0614 54.7117 43.0614C54.6545 43.0614 54.5996 43.0392 54.5586 42.9994C54.5176 42.9596 54.4937 42.9054 54.492 42.8483V40.6328L54.2787 40.7646C54.2292 40.7939 54.1701 40.8026 54.1143 40.7888C54.0584 40.775 54.0102 40.7399 53.98 40.6909C53.9498 40.642 53.94 40.5831 53.9527 40.527C53.9654 40.4709 53.9997 40.422 54.048 40.3909L54.5952 40.05C54.6287 40.0301 54.6668 40.0194 54.7058 40.0188C54.7447 40.0183 54.7831 40.0279 54.8172 40.0468C54.8512 40.0658 54.8797 40.0933 54.8998 40.1266C54.9198 40.16 54.9308 40.1981 54.9316 40.237L54.9314 42.8483Z" fill="#FAFAFA"/>
<path d="M56.512 42.8483C56.512 42.9066 56.4888 42.9625 56.4476 43.0038C56.4064 43.045 56.3505 43.0681 56.2922 43.0681C56.2339 43.0681 56.178 43.045 56.1367 43.0038C56.0955 42.9625 56.0724 42.9066 56.0724 42.8483V40.6328L55.8593 40.7646C55.8097 40.7952 55.75 40.8049 55.6933 40.7915C55.6366 40.7781 55.5876 40.7427 55.557 40.6932C55.5264 40.6436 55.5167 40.5839 55.5301 40.5272C55.5435 40.4705 55.5789 40.4215 55.6284 40.3909L56.1756 40.05C56.2091 40.0301 56.2472 40.0194 56.2862 40.0188C56.3251 40.0183 56.3635 40.0279 56.3975 40.0468C56.4316 40.0658 56.4601 40.0933 56.4801 40.1266C56.5002 40.16 56.5112 40.1981 56.512 40.237V42.8483Z" fill="#FAFAFA"/>
<path d="M54.3181 40.332H56.6098" stroke="#191919" stroke-width="0.343756" stroke-linecap="round" stroke-linejoin="round"/>
<path d="M55.4641 41.4792V39.1875" stroke="#191919" stroke-width="0.343756" stroke-linecap="round" stroke-linejoin="round"/>
</g>
<path d="M42.1607 3.86923C42.5296 3.8688 42.8832 3.72207 43.1441 3.46123C43.4049 3.20038 43.5516 2.84673 43.5521 2.47785V1.99636C42.6319 2.1697 41.6869 2.16297 40.7693 1.97656V2.47785C40.7697 2.84673 40.9164 3.20038 41.1773 3.46123C41.4381 3.72207 41.7918 3.8688 42.1607 3.86923Z" fill="#FAFAFA"/>
<path d="M47.8606 6.62345L46.7196 4.22521C46.5045 3.77629 46.1253 3.42696 45.6603 3.24918L44.7896 2.91731C44.4451 2.81546 44.1936 2.41072 43.9916 2.13477V2.41214C43.9998 2.66798 43.9546 2.92273 43.8589 3.16013C43.7632 3.39753 43.619 3.61237 43.4356 3.79094C43.2522 3.9695 43.0336 4.10788 42.7937 4.19723C42.5538 4.28658 42.298 4.32494 42.0424 4.30987C41.7869 4.2948 41.5373 4.22663 41.3096 4.1097C41.0819 3.99278 40.8811 3.82967 40.72 3.63078C40.5588 3.4319 40.4409 3.2016 40.3737 2.9546C40.3066 2.70759 40.2917 2.4493 40.3299 2.1962C40.1793 2.48569 39.9331 2.71405 39.6331 2.8424L38.8175 3.13488C38.3494 3.30048 37.9634 3.64071 37.7404 4.08438L36.4609 6.62345C36.4431 6.66195 36.4412 6.7059 36.4556 6.74579C36.47 6.78567 36.4996 6.81827 36.5378 6.83654L38.2421 7.61153C38.2741 7.62613 38.3092 7.63284 38.3443 7.63109C38.3795 7.62933 38.4137 7.61917 38.4441 7.60145C38.4745 7.58373 38.5002 7.55898 38.519 7.52926C38.5379 7.49955 38.5493 7.46574 38.5524 7.43069L38.615 6.71632C38.6215 6.65901 38.6502 6.60652 38.6949 6.57004C38.7395 6.53355 38.7967 6.51594 38.8541 6.52097C38.9116 6.526 38.9648 6.55327 39.0025 6.59696C39.0401 6.64066 39.0592 6.69733 39.0557 6.75489L38.525 12.787C38.5248 12.8299 38.5334 12.8723 38.5502 12.9117C38.567 12.9511 38.5918 12.9866 38.6229 13.0161C38.654 13.0455 38.6908 13.0683 38.731 13.083C38.7713 13.0976 38.8141 13.1039 38.8569 13.1013H45.4821C45.5251 13.1039 45.5681 13.0976 45.6085 13.0828C45.6489 13.068 45.6858 13.045 45.717 13.0153C45.7481 12.9856 45.7728 12.9498 45.7895 12.9101C45.8062 12.8705 45.8145 12.8278 45.814 12.7848C45.7201 11.7781 45.3315 7.67296 45.2454 6.75612C45.2412 6.69875 45.2597 6.64203 45.2969 6.59813C45.3341 6.55422 45.3869 6.52662 45.4442 6.52123C45.5015 6.51584 45.5586 6.53309 45.6033 6.56929C45.648 6.60549 45.6767 6.65775 45.6834 6.71489L45.7501 7.42191C45.7534 7.45665 45.7649 7.49011 45.7837 7.51952C45.8025 7.54892 45.828 7.57344 45.8582 7.59103C45.8883 7.60862 45.9222 7.61878 45.957 7.62068C45.9919 7.62258 46.0267 7.61615 46.0585 7.60193L47.7836 6.83225C47.8213 6.81447 47.8505 6.7826 47.8649 6.7435C47.8793 6.7044 47.8777 6.66142 47.8606 6.62345ZM41.7429 10.8503C41.7412 10.9074 41.7173 10.9616 41.6763 11.0014C41.6352 11.0411 41.5803 11.0634 41.5232 11.0634C41.4661 11.0634 41.4112 11.0411 41.3702 11.0014C41.3291 10.9616 41.3052 10.9074 41.3035 10.8503V8.63471L41.0902 8.76656C41.0407 8.79584 40.9817 8.80453 40.9258 8.79075C40.8699 8.77697 40.8217 8.74182 40.7915 8.69287C40.7613 8.64391 40.7515 8.58505 40.7642 8.52895C40.7769 8.47284 40.8112 8.42397 40.8596 8.39284L41.4068 8.05198C41.4402 8.03209 41.4784 8.02133 41.5173 8.02077C41.5562 8.02021 41.5946 8.02987 41.6287 8.04879C41.6627 8.06771 41.6912 8.09523 41.7113 8.1286C41.7314 8.16196 41.7423 8.20001 41.7431 8.23895L41.7429 10.8503ZM43.3235 10.8503C43.3235 10.9086 43.3004 10.9645 43.2591 11.0057C43.2179 11.0469 43.162 11.0701 43.1037 11.0701C43.0454 11.0701 42.9895 11.0469 42.9483 11.0057C42.907 10.9645 42.8839 10.9086 42.8839 10.8503V8.63471L42.6708 8.76656C42.6212 8.79717 42.5615 8.80684 42.5049 8.79344C42.4482 8.78005 42.3991 8.74468 42.3685 8.69512C42.3379 8.64556 42.3282 8.58587 42.3416 8.52919C42.355 8.4725 42.3904 8.42345 42.4399 8.39284L42.9872 8.05198C43.0206 8.03209 43.0587 8.02133 43.0977 8.02077C43.1366 8.02021 43.175 8.02987 43.2091 8.04879C43.2431 8.06771 43.2716 8.09523 43.2917 8.1286C43.3118 8.16196 43.3227 8.20001 43.3235 8.23895V10.8503Z" fill="#FAFAFA"/>
<path d="M41.7429 10.8503C41.7412 10.9074 41.7173 10.9616 41.6763 11.0014C41.6352 11.0411 41.5803 11.0634 41.5232 11.0634C41.4661 11.0634 41.4112 11.0411 41.3702 11.0014C41.3291 10.9616 41.3052 10.9074 41.3035 10.8503V8.63471L41.0902 8.76656C41.0407 8.79584 40.9817 8.80453 40.9258 8.79075C40.8699 8.77697 40.8217 8.74182 40.7915 8.69287C40.7613 8.64391 40.7515 8.58505 40.7642 8.52895C40.7769 8.47284 40.8112 8.42397 40.8596 8.39284L41.4068 8.05198C41.4402 8.03209 41.4784 8.02133 41.5173 8.02077C41.5562 8.02021 41.5946 8.02987 41.6287 8.04879C41.6627 8.06771 41.6912 8.09523 41.7113 8.1286C41.7314 8.16196 41.7423 8.20001 41.7431 8.23895L41.7429 10.8503Z" fill="#FAFAFA"/>
<path d="M43.3235 10.8503C43.3235 10.9086 43.3004 10.9645 43.2591 11.0057C43.2179 11.0469 43.162 11.0701 43.1037 11.0701C43.0454 11.0701 42.9895 11.0469 42.9483 11.0057C42.907 10.9645 42.8839 10.9086 42.8839 10.8503V8.63471L42.6708 8.76656C42.6212 8.79717 42.5615 8.80684 42.5049 8.79344C42.4482 8.78005 42.3991 8.74468 42.3685 8.69512C42.3379 8.64556 42.3282 8.58587 42.3416 8.52919C42.355 8.4725 42.3904 8.42345 42.4399 8.39284L42.9872 8.05198C43.0206 8.03209 43.0587 8.02133 43.0977 8.02077C43.1366 8.02021 43.175 8.02987 43.2091 8.04879C43.2431 8.06771 43.2716 8.09523 43.2917 8.1286C43.3118 8.16196 43.3227 8.20001 43.3235 8.23895V10.8503Z" fill="#FAFAFA"/>
<path d="M41.1296 8.33398H43.4213" stroke="#191919" stroke-width="0.343756" stroke-linecap="round" stroke-linejoin="round"/>
<path d="M42.2756 9.48116V7.18945" stroke="#191919" stroke-width="0.343756" stroke-linecap="round" stroke-linejoin="round"/>
<defs>
<clipPath id="clip0_8758_19282">
<rect width="13.0627" height="13.0627" fill="white" transform="translate(48.8181 33)"/>
</clipPath>
</defs>
</svg>
