<svg width="81" height="81" viewBox="0 0 81 81" fill="none" xmlns="http://www.w3.org/2000/svg">
<rect x="0.681968" y="0.118492" width="79.9807" height="79.9807" rx="5.88541" fill="#828284" stroke="#FAFAFA" stroke-width="0.229171"/>
<mask id="path-2-inside-1_8758_19158" fill="white">
<path d="M24.4011 66.4609H56.9434V80.2112H24.4011V66.4609Z"/>
</mask>
<path d="M24.4011 66.4609V66.2318H24.172V66.4609H24.4011ZM56.9434 66.4609H57.1726V66.2318H56.9434V66.4609ZM24.4011 66.6901H56.9434V66.2318H24.4011V66.6901ZM56.7142 66.4609V80.2112H57.1726V66.4609H56.7142ZM24.6303 80.2112V66.4609H24.172V80.2112H24.6303Z" fill="#FAFAFA" mask="url(#path-2-inside-1_8758_19158)"/>
<mask id="path-4-inside-2_8758_19158" fill="white">
<path d="M13.1719 55.0039H68.1729V80.2127H13.1719V55.0039Z"/>
</mask>
<path d="M13.1719 55.0039V54.7747H12.9427V55.0039H13.1719ZM68.1729 55.0039H68.4021V54.7747H68.1729V55.0039ZM13.1719 55.2331H68.1729V54.7747H13.1719V55.2331ZM67.9437 55.0039V80.2127H68.4021V55.0039H67.9437ZM13.401 80.2127V55.0039H12.9427V80.2127H13.401Z" fill="#FAFAFA" mask="url(#path-4-inside-2_8758_19158)"/>
<path d="M54.8808 9.53674e-07C54.8808 1.65523 54.4955 3.29426 53.747 4.8235C52.9984 6.35273 51.9011 7.74223 50.5179 8.91266C49.1346 10.0831 47.4925 11.0115 45.6852 11.645C43.878 12.2784 41.9409 12.6044 39.9847 12.6044C38.0285 12.6044 36.0915 12.2784 34.2842 11.645C32.477 11.0115 30.8348 10.0831 29.4516 8.91266C28.0684 7.74223 26.9711 6.35273 26.2225 4.8235C25.4739 3.29426 25.0886 1.65523 25.0886 0" stroke="#FAFAFA" stroke-width="0.229171"/>
<path d="M31.1446 55.3516C31.6628 54.5174 32.4225 53.7595 33.3801 53.1211C34.3377 52.4827 35.4746 51.9763 36.7258 51.6308C37.977 51.2853 39.318 51.1074 40.6723 51.1074C42.0265 51.1074 43.3676 51.2853 44.6188 51.6308C45.87 51.9763 47.0068 52.4827 47.9644 53.1211C48.9221 53.7595 49.6817 54.5174 50.2 55.3516" stroke="#FAFAFA" stroke-width="0.229171"/>
<path d="M0.796387 76.5479C1.91292 76.4958 4.11684 77.1099 4.00034 79.9825" stroke="#FAFAFA" stroke-width="0.229171"/>
<path d="M80.5479 76.5479C79.4313 76.4958 77.2274 77.1099 77.3439 79.9825" stroke="#FAFAFA" stroke-width="0.229171"/>
<path d="M40.7864 69.4356C41.1553 69.4352 41.5089 69.2885 41.7698 69.0276C42.0306 68.7668 42.1774 68.4131 42.1778 68.0443V67.5628C41.2576 67.7361 40.3126 67.7294 39.395 67.543V68.0443C39.3955 68.4131 39.5422 68.7668 39.803 69.0276C40.0639 69.2885 40.4175 69.4352 40.7864 69.4356Z" fill="#FAFAFA"/>
<path d="M46.4863 72.1899L45.3454 69.7916C45.1302 69.3427 44.7511 68.9934 44.2861 68.8156L43.4153 68.4837C43.0708 68.3819 42.8194 67.9771 42.6173 67.7012V67.9786C42.6255 68.2344 42.5803 68.4891 42.4846 68.7265C42.3889 68.9639 42.2447 69.1788 42.0613 69.3573C41.8779 69.5359 41.6593 69.6743 41.4194 69.7636C41.1796 69.853 40.9237 69.8913 40.6682 69.8763C40.4127 69.8612 40.1631 69.793 39.9354 69.6761C39.7077 69.5592 39.5068 69.3961 39.3457 69.1972C39.1845 68.9983 39.0666 68.768 38.9995 68.521C38.9323 68.274 38.9174 68.0157 38.9556 67.7626C38.8051 68.0521 38.5588 68.2805 38.2588 68.4088L37.4432 68.7013C36.9751 68.8669 36.5891 69.2071 36.3662 69.6508L35.0866 72.1899C35.0688 72.2284 35.067 72.2723 35.0814 72.3122C35.0958 72.3521 35.1253 72.3847 35.1636 72.4029L36.8678 73.1779C36.8999 73.1925 36.9349 73.1992 36.97 73.1975C37.0052 73.1957 37.0394 73.1856 37.0698 73.1679C37.1002 73.1501 37.1259 73.1254 37.1447 73.0957C37.1636 73.066 37.175 73.0321 37.1781 72.9971L37.2407 72.2827C37.2473 72.2254 37.2759 72.1729 37.3206 72.1364C37.3653 72.1 37.4224 72.0823 37.4799 72.0874C37.5373 72.0924 37.5905 72.1197 37.6282 72.1634C37.6658 72.2071 37.6849 72.2637 37.6814 72.3213L37.1507 78.3534C37.1505 78.3963 37.1591 78.4387 37.1759 78.4781C37.1928 78.5175 37.2175 78.553 37.2486 78.5825C37.2797 78.6119 37.3165 78.6347 37.3568 78.6494C37.397 78.664 37.4398 78.6703 37.4826 78.6678H44.1079C44.1508 78.6703 44.1938 78.664 44.2343 78.6492C44.2747 78.6344 44.3116 78.6114 44.3427 78.5817C44.3739 78.552 44.3985 78.5162 44.4152 78.4766C44.4319 78.4369 44.4403 78.3942 44.4397 78.3512C44.3459 77.3445 43.9572 73.2394 43.8711 72.3225C43.867 72.2652 43.8855 72.2084 43.9226 72.1645C43.9598 72.1206 44.0127 72.093 44.0699 72.0876C44.1272 72.0822 44.1843 72.0995 44.229 72.1357C44.2737 72.1719 44.3025 72.2242 44.3091 72.2813L44.3759 72.9883C44.3792 73.0231 44.3907 73.0565 44.4094 73.0859C44.4282 73.1153 44.4538 73.1398 44.4839 73.1574C44.514 73.175 44.5479 73.1852 44.5828 73.1871C44.6176 73.189 44.6524 73.1826 44.6843 73.1683L46.4094 72.3987C46.447 72.3809 46.4762 72.349 46.4906 72.3099C46.505 72.2708 46.5035 72.2278 46.4863 72.1899ZM40.3687 76.4167C40.3669 76.4738 40.343 76.528 40.302 76.5678C40.261 76.6076 40.2061 76.6298 40.1489 76.6298C40.0918 76.6298 40.0369 76.6076 39.9959 76.5678C39.9549 76.528 39.931 76.4738 39.9292 76.4167V74.2011L39.7159 74.333C39.6664 74.3623 39.6074 74.3709 39.5515 74.3572C39.4957 74.3434 39.4475 74.3082 39.4172 74.2593C39.387 74.2103 39.3772 74.1515 39.39 74.0954C39.4027 74.0392 39.4369 73.9904 39.4853 73.9592L40.0325 73.6184C40.066 73.5985 40.1041 73.5877 40.143 73.5872C40.182 73.5866 40.2204 73.5963 40.2544 73.6152C40.2885 73.6341 40.3169 73.6616 40.337 73.695C40.3571 73.7284 40.3681 73.7664 40.3689 73.8054L40.3687 76.4167ZM41.9493 76.4167C41.9493 76.475 41.9261 76.5309 41.8849 76.5721C41.8436 76.6133 41.7877 76.6365 41.7294 76.6365C41.6711 76.6365 41.6152 76.6133 41.574 76.5721C41.5328 76.5309 41.5096 76.475 41.5096 76.4167V74.2011L41.2965 74.333C41.247 74.3636 41.1873 74.3732 41.1306 74.3598C41.0739 74.3465 41.0249 74.3111 40.9942 74.2615C40.9636 74.212 40.954 74.1523 40.9674 74.0956C40.9808 74.0389 41.0161 73.9899 41.0657 73.9592L41.6129 73.6184C41.6464 73.5985 41.6845 73.5877 41.7234 73.5872C41.7624 73.5866 41.8008 73.5963 41.8348 73.6152C41.8688 73.6341 41.8973 73.6616 41.9174 73.695C41.9375 73.7284 41.9485 73.7664 41.9493 73.8054V76.4167Z" fill="#FAFAFA"/>
<path d="M40.3687 76.4167C40.3669 76.4738 40.343 76.528 40.302 76.5678C40.261 76.6076 40.2061 76.6298 40.1489 76.6298C40.0918 76.6298 40.0369 76.6076 39.9959 76.5678C39.9549 76.528 39.931 76.4738 39.9292 76.4167V74.2011L39.7159 74.333C39.6664 74.3623 39.6074 74.3709 39.5515 74.3572C39.4957 74.3434 39.4475 74.3082 39.4172 74.2593C39.387 74.2103 39.3772 74.1515 39.39 74.0954C39.4027 74.0392 39.4369 73.9904 39.4853 73.9592L40.0325 73.6184C40.066 73.5985 40.1041 73.5877 40.143 73.5872C40.182 73.5866 40.2204 73.5963 40.2544 73.6152C40.2885 73.6341 40.3169 73.6616 40.337 73.695C40.3571 73.7284 40.3681 73.7664 40.3689 73.8054L40.3687 76.4167Z" fill="#FAFAFA"/>
<path d="M41.9493 76.4167C41.9493 76.475 41.9261 76.5309 41.8849 76.5721C41.8436 76.6133 41.7877 76.6365 41.7294 76.6365C41.6711 76.6365 41.6152 76.6133 41.574 76.5721C41.5328 76.5309 41.5096 76.475 41.5096 76.4167V74.2011L41.2965 74.333C41.247 74.3636 41.1873 74.3732 41.1306 74.3598C41.0739 74.3465 41.0249 74.3111 40.9942 74.2615C40.9636 74.212 40.954 74.1523 40.9674 74.0956C40.9808 74.0389 41.0161 73.9899 41.0657 73.9592L41.6129 73.6184C41.6464 73.5985 41.6845 73.5877 41.7234 73.5872C41.7624 73.5866 41.8008 73.5963 41.8348 73.6152C41.8688 73.6341 41.8973 73.6616 41.9174 73.695C41.9375 73.7284 41.9485 73.7664 41.9493 73.8054V76.4167Z" fill="#FAFAFA"/>
<path d="M39.7554 73.8965H42.0471" stroke="#191919" stroke-width="0.343756" stroke-linecap="round" stroke-linejoin="round"/>
<path d="M40.9014 75.0437V72.752" stroke="#191919" stroke-width="0.343756" stroke-linecap="round" stroke-linejoin="round"/>
<path d="M19.951 48.8673C20.3198 48.8668 20.6735 48.7201 20.9343 48.4593C21.1952 48.1984 21.3419 47.8448 21.3423 47.4759V46.9944C20.4222 47.1677 19.4772 47.161 18.5596 46.9746V47.4759C18.56 47.8448 18.7067 48.1984 18.9676 48.4593C19.2284 48.7201 19.5821 48.8668 19.951 48.8673Z" fill="#FAFAFA"/>
<path d="M25.6509 51.6215L24.5099 49.2233C24.2947 48.7743 23.9156 48.425 23.4506 48.2472L22.5799 47.9154C22.2354 47.8135 21.9839 47.4088 21.7818 47.1328V47.4102C21.7901 47.666 21.7449 47.9208 21.6492 48.1582C21.5534 48.3956 21.4093 48.6104 21.2259 48.789C21.0425 48.9675 20.8239 49.1059 20.584 49.1953C20.3441 49.2846 20.0883 49.323 19.8327 49.3079C19.5772 49.2928 19.3276 49.2247 19.0999 49.1077C18.8722 48.9908 18.6714 48.8277 18.5102 48.6288C18.3491 48.4299 18.2312 48.1997 18.164 47.9526C18.0969 47.7056 18.0819 47.4473 18.1202 47.1942C17.9696 47.4837 17.7234 47.7121 17.4234 47.8404L16.6078 48.1329C16.1396 48.2985 15.7537 48.6388 15.5307 49.0824L14.2512 51.6215C14.2334 51.66 14.2315 51.7039 14.2459 51.7438C14.2603 51.7837 14.2898 51.8163 14.3281 51.8346L16.0324 52.6096C16.0644 52.6242 16.0995 52.6309 16.1346 52.6291C16.1697 52.6274 16.204 52.6172 16.2343 52.5995C16.2647 52.5818 16.2905 52.557 16.3093 52.5273C16.3281 52.4976 16.3396 52.4638 16.3426 52.4287L16.4053 51.7144C16.4118 51.6571 16.4405 51.6046 16.4851 51.5681C16.5298 51.5316 16.587 51.514 16.6444 51.519C16.7019 51.524 16.7551 51.5513 16.7927 51.595C16.8304 51.6387 16.8495 51.6954 16.846 51.7529L16.3153 57.7851C16.3151 57.8279 16.3236 57.8703 16.3405 57.9097C16.3573 57.9491 16.382 57.9847 16.4131 58.0141C16.4442 58.0436 16.4811 58.0663 16.5213 58.081C16.5616 58.0957 16.6044 58.1019 16.6472 58.0994H23.2724C23.3154 58.1019 23.3584 58.0956 23.3988 58.0808C23.4392 58.066 23.4761 58.0431 23.5073 58.0133C23.5384 57.9836 23.5631 57.9479 23.5798 57.9082C23.5965 57.8685 23.6048 57.8259 23.6043 57.7828C23.5104 56.7762 23.1218 52.671 23.0357 51.7542C23.0315 51.6968 23.05 51.6401 23.0872 51.5962C23.1243 51.5523 23.1772 51.5247 23.2345 51.5193C23.2918 51.5139 23.3489 51.5311 23.3936 51.5673C23.4383 51.6035 23.467 51.6558 23.4737 51.7129L23.5404 52.42C23.5437 52.4547 23.5552 52.4882 23.574 52.5176C23.5928 52.547 23.6183 52.5715 23.6484 52.5891C23.6786 52.6067 23.7125 52.6168 23.7473 52.6187C23.7822 52.6206 23.8169 52.6142 23.8488 52.6L25.5739 51.8303C25.6116 51.8125 25.6408 51.7806 25.6552 51.7415C25.6696 51.7024 25.668 51.6595 25.6509 51.6215ZM19.5332 55.8483C19.5315 55.9054 19.5076 55.9596 19.4665 55.9994C19.4255 56.0392 19.3706 56.0614 19.3135 56.0614C19.2564 56.0614 19.2015 56.0392 19.1604 55.9994C19.1194 55.9596 19.0955 55.9054 19.0938 55.8483V53.6328L18.8805 53.7646C18.831 53.7939 18.7719 53.8026 18.7161 53.7888C18.6602 53.775 18.612 53.7399 18.5818 53.6909C18.5516 53.642 18.5418 53.5831 18.5545 53.527C18.5672 53.4709 18.6015 53.422 18.6498 53.3909L19.1971 53.05C19.2305 53.0301 19.2686 53.0194 19.3076 53.0188C19.3465 53.0183 19.3849 53.0279 19.419 53.0468C19.453 53.0658 19.4815 53.0933 19.5016 53.1266C19.5217 53.16 19.5326 53.1981 19.5334 53.237L19.5332 55.8483ZM21.1138 55.8483C21.1138 55.9066 21.0906 55.9625 21.0494 56.0038C21.0082 56.045 20.9523 56.0681 20.894 56.0681C20.8357 56.0681 20.7798 56.045 20.7385 56.0038C20.6973 55.9625 20.6742 55.9066 20.6742 55.8483V53.6328L20.4611 53.7646C20.4115 53.7952 20.3518 53.8049 20.2951 53.7915C20.2385 53.7781 20.1894 53.7427 20.1588 53.6932C20.1282 53.6436 20.1185 53.5839 20.1319 53.5272C20.1453 53.4705 20.1807 53.4215 20.2302 53.3909L20.7774 53.05C20.8109 53.0301 20.849 53.0194 20.888 53.0188C20.9269 53.0183 20.9653 53.0279 20.9994 53.0468C21.0334 53.0658 21.0619 53.0933 21.082 53.1266C21.102 53.16 21.113 53.1981 21.1138 53.237V55.8483Z" fill="#FAFAFA"/>
<path d="M19.5332 55.8483C19.5315 55.9054 19.5076 55.9596 19.4665 55.9994C19.4255 56.0392 19.3706 56.0614 19.3135 56.0614C19.2564 56.0614 19.2015 56.0392 19.1604 55.9994C19.1194 55.9596 19.0955 55.9054 19.0938 55.8483V53.6328L18.8805 53.7646C18.831 53.7939 18.7719 53.8026 18.7161 53.7888C18.6602 53.775 18.612 53.7399 18.5818 53.6909C18.5516 53.642 18.5418 53.5831 18.5545 53.527C18.5672 53.4709 18.6015 53.422 18.6498 53.3909L19.1971 53.05C19.2305 53.0301 19.2686 53.0194 19.3076 53.0188C19.3465 53.0183 19.3849 53.0279 19.419 53.0468C19.453 53.0658 19.4815 53.0933 19.5016 53.1266C19.5217 53.16 19.5326 53.1981 19.5334 53.237L19.5332 55.8483Z" fill="#FAFAFA"/>
<path d="M21.1138 55.8483C21.1138 55.9066 21.0906 55.9625 21.0494 56.0038C21.0082 56.045 20.9523 56.0681 20.894 56.0681C20.8357 56.0681 20.7798 56.045 20.7385 56.0038C20.6973 55.9625 20.6742 55.9066 20.6742 55.8483V53.6328L20.4611 53.7646C20.4115 53.7952 20.3518 53.8049 20.2951 53.7915C20.2385 53.7781 20.1894 53.7427 20.1588 53.6932C20.1282 53.6436 20.1185 53.5839 20.1319 53.5272C20.1453 53.4705 20.1807 53.4215 20.2302 53.3909L20.7774 53.05C20.8109 53.0301 20.849 53.0194 20.888 53.0188C20.9269 53.0183 20.9653 53.0279 20.9994 53.0468C21.0334 53.0658 21.0619 53.0933 21.082 53.1266C21.102 53.16 21.113 53.1981 21.1138 53.237V55.8483Z" fill="#FAFAFA"/>
<path d="M18.9199 53.332H21.2116" stroke="#191919" stroke-width="0.343756" stroke-linecap="round" stroke-linejoin="round"/>
<path d="M20.0659 54.4792V52.1875" stroke="#191919" stroke-width="0.343756" stroke-linecap="round" stroke-linejoin="round"/>
<path d="M59.951 48.8673C60.3198 48.8668 60.6735 48.7201 60.9343 48.4593C61.1952 48.1984 61.3419 47.8448 61.3423 47.4759V46.9944C60.4222 47.1677 59.4772 47.161 58.5596 46.9746V47.4759C58.56 47.8448 58.7067 48.1984 58.9676 48.4593C59.2284 48.7201 59.5821 48.8668 59.951 48.8673Z" fill="#FAFAFA"/>
<path d="M65.6509 51.6215L64.5099 49.2233C64.2947 48.7743 63.9156 48.425 63.4506 48.2472L62.5799 47.9154C62.2354 47.8135 61.9839 47.4088 61.7818 47.1328V47.4102C61.7901 47.666 61.7449 47.9208 61.6492 48.1582C61.5534 48.3956 61.4093 48.6104 61.2259 48.789C61.0425 48.9675 60.8239 49.1059 60.584 49.1953C60.3441 49.2846 60.0883 49.323 59.8327 49.3079C59.5772 49.2928 59.3276 49.2247 59.0999 49.1077C58.8722 48.9908 58.6714 48.8277 58.5102 48.6288C58.3491 48.4299 58.2312 48.1997 58.164 47.9526C58.0969 47.7056 58.0819 47.4473 58.1202 47.1942C57.9696 47.4837 57.7234 47.7121 57.4234 47.8404L56.6078 48.1329C56.1396 48.2985 55.7537 48.6388 55.5307 49.0824L54.2512 51.6215C54.2334 51.66 54.2315 51.7039 54.2459 51.7438C54.2603 51.7837 54.2898 51.8163 54.3281 51.8346L56.0324 52.6096C56.0644 52.6242 56.0995 52.6309 56.1346 52.6291C56.1697 52.6274 56.204 52.6172 56.2343 52.5995C56.2647 52.5818 56.2905 52.557 56.3093 52.5273C56.3281 52.4976 56.3396 52.4638 56.3426 52.4287L56.4053 51.7144C56.4118 51.6571 56.4405 51.6046 56.4851 51.5681C56.5298 51.5316 56.587 51.514 56.6444 51.519C56.7019 51.524 56.7551 51.5513 56.7927 51.595C56.8304 51.6387 56.8495 51.6954 56.846 51.7529L56.3153 57.7851C56.3151 57.8279 56.3236 57.8703 56.3405 57.9097C56.3573 57.9491 56.382 57.9847 56.4131 58.0141C56.4442 58.0436 56.4811 58.0663 56.5213 58.081C56.5616 58.0957 56.6044 58.1019 56.6472 58.0994H63.2724C63.3154 58.1019 63.3584 58.0956 63.3988 58.0808C63.4392 58.066 63.4761 58.0431 63.5073 58.0133C63.5384 57.9836 63.5631 57.9479 63.5798 57.9082C63.5965 57.8685 63.6048 57.8259 63.6043 57.7828C63.5104 56.7762 63.1218 52.671 63.0357 51.7542C63.0315 51.6968 63.05 51.6401 63.0872 51.5962C63.1243 51.5523 63.1772 51.5247 63.2345 51.5193C63.2918 51.5139 63.3489 51.5311 63.3936 51.5673C63.4383 51.6035 63.467 51.6558 63.4737 51.7129L63.5404 52.42C63.5437 52.4547 63.5552 52.4882 63.574 52.5176C63.5928 52.547 63.6183 52.5715 63.6484 52.5891C63.6786 52.6067 63.7125 52.6168 63.7473 52.6187C63.7822 52.6206 63.8169 52.6142 63.8488 52.6L65.5739 51.8303C65.6116 51.8125 65.6408 51.7806 65.6552 51.7415C65.6696 51.7024 65.668 51.6595 65.6509 51.6215ZM59.5332 55.8483C59.5315 55.9054 59.5076 55.9596 59.4665 55.9994C59.4255 56.0392 59.3706 56.0614 59.3135 56.0614C59.2564 56.0614 59.2015 56.0392 59.1604 55.9994C59.1194 55.9596 59.0955 55.9054 59.0938 55.8483V53.6328L58.8805 53.7646C58.831 53.7939 58.7719 53.8026 58.7161 53.7888C58.6602 53.775 58.612 53.7399 58.5818 53.6909C58.5516 53.642 58.5418 53.5831 58.5545 53.527C58.5672 53.4709 58.6015 53.422 58.6498 53.3909L59.1971 53.05C59.2305 53.0301 59.2686 53.0194 59.3076 53.0188C59.3465 53.0183 59.3849 53.0279 59.419 53.0468C59.453 53.0658 59.4815 53.0933 59.5016 53.1266C59.5217 53.16 59.5326 53.1981 59.5334 53.237L59.5332 55.8483ZM61.1138 55.8483C61.1138 55.9066 61.0906 55.9625 61.0494 56.0038C61.0082 56.045 60.9523 56.0681 60.894 56.0681C60.8357 56.0681 60.7798 56.045 60.7385 56.0038C60.6973 55.9625 60.6742 55.9066 60.6742 55.8483V53.6328L60.4611 53.7646C60.4115 53.7952 60.3518 53.8049 60.2951 53.7915C60.2385 53.7781 60.1894 53.7427 60.1588 53.6932C60.1282 53.6436 60.1185 53.5839 60.1319 53.5272C60.1453 53.4705 60.1807 53.4215 60.2302 53.3909L60.7774 53.05C60.8109 53.0301 60.849 53.0194 60.888 53.0188C60.9269 53.0183 60.9653 53.0279 60.9994 53.0468C61.0334 53.0658 61.0619 53.0933 61.082 53.1266C61.102 53.16 61.113 53.1981 61.1138 53.237V55.8483Z" fill="#FAFAFA"/>
<path d="M59.5332 55.8483C59.5315 55.9054 59.5076 55.9596 59.4665 55.9994C59.4255 56.0392 59.3706 56.0614 59.3135 56.0614C59.2564 56.0614 59.2015 56.0392 59.1604 55.9994C59.1194 55.9596 59.0955 55.9054 59.0938 55.8483V53.6328L58.8805 53.7646C58.831 53.7939 58.7719 53.8026 58.7161 53.7888C58.6602 53.775 58.612 53.7399 58.5818 53.6909C58.5516 53.642 58.5418 53.5831 58.5545 53.527C58.5672 53.4709 58.6015 53.422 58.6498 53.3909L59.1971 53.05C59.2305 53.0301 59.2686 53.0194 59.3076 53.0188C59.3465 53.0183 59.3849 53.0279 59.419 53.0468C59.453 53.0658 59.4815 53.0933 59.5016 53.1266C59.5217 53.16 59.5326 53.1981 59.5334 53.237L59.5332 55.8483Z" fill="#FAFAFA"/>
<path d="M61.1138 55.8483C61.1138 55.9066 61.0906 55.9625 61.0494 56.0038C61.0082 56.045 60.9523 56.0681 60.894 56.0681C60.8357 56.0681 60.7798 56.045 60.7385 56.0038C60.6973 55.9625 60.6742 55.9066 60.6742 55.8483V53.6328L60.4611 53.7646C60.4115 53.7952 60.3518 53.8049 60.2951 53.7915C60.2385 53.7781 60.1894 53.7427 60.1588 53.6932C60.1282 53.6436 60.1185 53.5839 60.1319 53.5272C60.1453 53.4705 60.1807 53.4215 60.2302 53.3909L60.7774 53.05C60.8109 53.0301 60.849 53.0194 60.888 53.0188C60.9269 53.0183 60.9653 53.0279 60.9994 53.0468C61.0334 53.0658 61.0619 53.0933 61.082 53.1266C61.102 53.16 61.113 53.1981 61.1138 53.237V55.8483Z" fill="#FAFAFA"/>
<path d="M58.9199 53.332H61.2116" stroke="#191919" stroke-width="0.343756" stroke-linecap="round" stroke-linejoin="round"/>
<path d="M60.0659 54.4792V52.1875" stroke="#191919" stroke-width="0.343756" stroke-linecap="round" stroke-linejoin="round"/>
<path d="M53.951 3.86728C54.3198 3.86685 54.6735 3.72012 54.9343 3.45927C55.1952 3.19843 55.3419 2.84478 55.3423 2.47589V1.99441C54.4222 2.16774 53.4772 2.16102 52.5596 1.97461V2.47589C52.56 2.84478 52.7067 3.19843 52.9676 3.45927C53.2284 3.72012 53.5821 3.86685 53.951 3.86728Z" fill="#FAFAFA"/>
<path d="M59.6509 6.6215L58.5099 4.22326C58.2947 3.77433 57.9156 3.42501 57.4506 3.24723L56.5799 2.91535C56.2354 2.8135 55.9839 2.40876 55.7818 2.13281V2.41019C55.7901 2.66603 55.7449 2.92078 55.6492 3.15818C55.5534 3.39558 55.4093 3.61042 55.2259 3.78898C55.0425 3.96755 54.8239 4.10592 54.584 4.19527C54.3441 4.28462 54.0883 4.32299 53.8327 4.30792C53.5772 4.29285 53.3276 4.22467 53.0999 4.10775C52.8722 3.99082 52.6714 3.82772 52.5102 3.62883C52.3491 3.42994 52.2312 3.19965 52.164 2.95265C52.0969 2.70564 52.0819 2.44735 52.1202 2.19425C51.9696 2.48374 51.7234 2.7121 51.4234 2.84045L50.6078 3.13293C50.1396 3.29852 49.7537 3.63876 49.5307 4.08243L48.2512 6.6215C48.2334 6.66 48.2315 6.70395 48.2459 6.74383C48.2603 6.78371 48.2898 6.81632 48.3281 6.83458L50.0324 7.60957C50.0644 7.62418 50.0995 7.63089 50.1346 7.62913C50.1697 7.62738 50.204 7.61722 50.2343 7.5995C50.2647 7.58178 50.2905 7.55702 50.3093 7.52731C50.3281 7.49759 50.3396 7.46379 50.3426 7.42873L50.4053 6.71437C50.4118 6.65706 50.4405 6.60457 50.4851 6.56808C50.5298 6.53159 50.587 6.51399 50.6444 6.51902C50.7019 6.52405 50.7551 6.55131 50.7927 6.59501C50.8304 6.6387 50.8495 6.69537 50.846 6.75294L50.3153 12.7851C50.3151 12.8279 50.3236 12.8703 50.3405 12.9097C50.3573 12.9491 50.382 12.9847 50.4131 13.0141C50.4442 13.0436 50.4811 13.0663 50.5213 13.081C50.5616 13.0957 50.6044 13.1019 50.6472 13.0994H57.2724C57.3154 13.1019 57.3584 13.0956 57.3988 13.0808C57.4392 13.066 57.4761 13.0431 57.5073 13.0133C57.5384 12.9836 57.5631 12.9479 57.5798 12.9082C57.5965 12.8685 57.6048 12.8259 57.6043 12.7828C57.5104 11.7762 57.1218 7.67101 57.0357 6.75417C57.0315 6.69679 57.05 6.64008 57.0872 6.59618C57.1243 6.55227 57.1772 6.52467 57.2345 6.51928C57.2918 6.51389 57.3489 6.53114 57.3936 6.56734C57.4383 6.60353 57.467 6.6558 57.4737 6.71294L57.5404 7.41996C57.5437 7.4547 57.5552 7.48815 57.574 7.51756C57.5928 7.54697 57.6183 7.57148 57.6484 7.58908C57.6786 7.60667 57.7125 7.61683 57.7473 7.61873C57.7822 7.62062 57.8169 7.6142 57.8488 7.59998L59.5739 6.8303C59.6116 6.81252 59.6408 6.78065 59.6552 6.74155C59.6696 6.70245 59.668 6.65946 59.6509 6.6215ZM53.5332 10.8483C53.5315 10.9054 53.5076 10.9596 53.4665 10.9994C53.4255 11.0392 53.3706 11.0614 53.3135 11.0614C53.2564 11.0614 53.2015 11.0392 53.1604 10.9994C53.1194 10.9596 53.0955 10.9054 53.0938 10.8483V8.63275L52.8805 8.7646C52.831 8.79389 52.7719 8.80258 52.7161 8.7888C52.6602 8.77502 52.612 8.73987 52.5818 8.69091C52.5516 8.64196 52.5418 8.5831 52.5545 8.52699C52.5672 8.47089 52.6015 8.42202 52.6498 8.39089L53.1971 8.05003C53.2305 8.03014 53.2686 8.01938 53.3076 8.01882C53.3465 8.01826 53.3849 8.02792 53.419 8.04684C53.453 8.06576 53.4815 8.09328 53.5016 8.12664C53.5217 8.16001 53.5326 8.19806 53.5334 8.23699L53.5332 10.8483ZM55.1138 10.8483C55.1138 10.9066 55.0906 10.9625 55.0494 11.0038C55.0082 11.045 54.9523 11.0681 54.894 11.0681C54.8357 11.0681 54.7798 11.045 54.7385 11.0038C54.6973 10.9625 54.6742 10.9066 54.6742 10.8483V8.63275L54.4611 8.7646C54.4115 8.79522 54.3518 8.80489 54.2951 8.79149C54.2385 8.77809 54.1894 8.74273 54.1588 8.69317C54.1282 8.64361 54.1185 8.58392 54.1319 8.52723C54.1453 8.47054 54.1807 8.4215 54.2302 8.39089L54.7774 8.05003C54.8109 8.03014 54.849 8.01938 54.888 8.01882C54.9269 8.01826 54.9653 8.02792 54.9994 8.04684C55.0334 8.06576 55.0619 8.09328 55.082 8.12664C55.102 8.16001 55.113 8.19806 55.1138 8.23699V10.8483Z" fill="#FAFAFA"/>
<path d="M53.5332 10.8483C53.5315 10.9054 53.5076 10.9596 53.4665 10.9994C53.4255 11.0392 53.3706 11.0614 53.3135 11.0614C53.2564 11.0614 53.2015 11.0392 53.1604 10.9994C53.1194 10.9596 53.0955 10.9054 53.0938 10.8483V8.63275L52.8805 8.7646C52.831 8.79389 52.7719 8.80258 52.7161 8.7888C52.6602 8.77502 52.612 8.73987 52.5818 8.69091C52.5516 8.64196 52.5418 8.5831 52.5545 8.52699C52.5672 8.47089 52.6015 8.42202 52.6498 8.39089L53.1971 8.05003C53.2305 8.03014 53.2686 8.01938 53.3076 8.01882C53.3465 8.01826 53.3849 8.02792 53.419 8.04684C53.453 8.06576 53.4815 8.09328 53.5016 8.12664C53.5217 8.16001 53.5326 8.19806 53.5334 8.23699L53.5332 10.8483Z" fill="#FAFAFA"/>
<path d="M55.1138 10.8483C55.1138 10.9066 55.0906 10.9625 55.0494 11.0038C55.0082 11.045 54.9523 11.0681 54.894 11.0681C54.8357 11.0681 54.7798 11.045 54.7385 11.0038C54.6973 10.9625 54.6742 10.9066 54.6742 10.8483V8.63275L54.4611 8.7646C54.4115 8.79522 54.3518 8.80489 54.2951 8.79149C54.2385 8.77809 54.1894 8.74273 54.1588 8.69317C54.1282 8.64361 54.1185 8.58392 54.1319 8.52723C54.1453 8.47054 54.1807 8.4215 54.2302 8.39089L54.7774 8.05003C54.8109 8.03014 54.849 8.01938 54.888 8.01882C54.9269 8.01826 54.9653 8.02792 54.9994 8.04684C55.0334 8.06576 55.0619 8.09328 55.082 8.12664C55.102 8.16001 55.113 8.19806 55.1138 8.23699V10.8483Z" fill="#FAFAFA"/>
<path d="M52.9199 8.33203H55.2116" stroke="#191919" stroke-width="0.343756" stroke-linecap="round" stroke-linejoin="round"/>
<path d="M54.0659 9.47921V7.1875" stroke="#191919" stroke-width="0.343756" stroke-linecap="round" stroke-linejoin="round"/>
<path d="M40.951 50.8673C41.3198 50.8668 41.6735 50.7201 41.9343 50.4593C42.1952 50.1984 42.3419 49.8448 42.3423 49.4759V48.9944C41.4222 49.1677 40.4772 49.161 39.5596 48.9746V49.4759C39.56 49.8448 39.7067 50.1984 39.9676 50.4593C40.2284 50.7201 40.5821 50.8668 40.951 50.8673Z" fill="#FAFAFA"/>
<path d="M46.6509 53.6215L45.5099 51.2233C45.2947 50.7743 44.9156 50.425 44.4506 50.2472L43.5799 49.9154C43.2354 49.8135 42.9839 49.4088 42.7818 49.1328V49.4102C42.7901 49.666 42.7449 49.9208 42.6492 50.1582C42.5534 50.3956 42.4093 50.6104 42.2259 50.789C42.0425 50.9675 41.8239 51.1059 41.584 51.1953C41.3441 51.2846 41.0883 51.323 40.8327 51.3079C40.5772 51.2928 40.3276 51.2247 40.0999 51.1077C39.8722 50.9908 39.6714 50.8277 39.5102 50.6288C39.3491 50.4299 39.2312 50.1997 39.164 49.9526C39.0969 49.7056 39.0819 49.4473 39.1202 49.1942C38.9696 49.4837 38.7234 49.7121 38.4234 49.8404L37.6078 50.1329C37.1396 50.2985 36.7537 50.6388 36.5307 51.0824L35.2512 53.6215C35.2334 53.66 35.2315 53.7039 35.2459 53.7438C35.2603 53.7837 35.2898 53.8163 35.3281 53.8346L37.0324 54.6096C37.0644 54.6242 37.0995 54.6309 37.1346 54.6291C37.1697 54.6274 37.204 54.6172 37.2343 54.5995C37.2647 54.5818 37.2905 54.557 37.3093 54.5273C37.3281 54.4976 37.3396 54.4638 37.3426 54.4287L37.4053 53.7144C37.4118 53.6571 37.4405 53.6046 37.4851 53.5681C37.5298 53.5316 37.587 53.514 37.6444 53.519C37.7019 53.524 37.7551 53.5513 37.7927 53.595C37.8304 53.6387 37.8495 53.6954 37.846 53.7529L37.3153 59.7851C37.3151 59.8279 37.3236 59.8703 37.3405 59.9097C37.3573 59.9491 37.382 59.9847 37.4131 60.0141C37.4442 60.0436 37.4811 60.0663 37.5213 60.081C37.5616 60.0957 37.6044 60.1019 37.6472 60.0994H44.2724C44.3154 60.1019 44.3584 60.0956 44.3988 60.0808C44.4392 60.066 44.4761 60.0431 44.5073 60.0133C44.5384 59.9836 44.5631 59.9479 44.5798 59.9082C44.5965 59.8685 44.6048 59.8259 44.6043 59.7828C44.5104 58.7762 44.1218 54.671 44.0357 53.7542C44.0315 53.6968 44.05 53.6401 44.0872 53.5962C44.1243 53.5523 44.1772 53.5247 44.2345 53.5193C44.2918 53.5139 44.3489 53.5311 44.3936 53.5673C44.4383 53.6035 44.467 53.6558 44.4737 53.7129L44.5404 54.42C44.5437 54.4547 44.5552 54.4882 44.574 54.5176C44.5928 54.547 44.6183 54.5715 44.6484 54.5891C44.6786 54.6067 44.7125 54.6168 44.7473 54.6187C44.7822 54.6206 44.8169 54.6142 44.8488 54.6L46.5739 53.8303C46.6116 53.8125 46.6408 53.7806 46.6552 53.7415C46.6696 53.7024 46.668 53.6595 46.6509 53.6215ZM40.5332 57.8483C40.5315 57.9054 40.5076 57.9596 40.4665 57.9994C40.4255 58.0392 40.3706 58.0614 40.3135 58.0614C40.2564 58.0614 40.2015 58.0392 40.1604 57.9994C40.1194 57.9596 40.0955 57.9054 40.0938 57.8483V55.6328L39.8805 55.7646C39.831 55.7939 39.7719 55.8026 39.7161 55.7888C39.6602 55.775 39.612 55.7399 39.5818 55.6909C39.5516 55.642 39.5418 55.5831 39.5545 55.527C39.5672 55.4709 39.6015 55.422 39.6498 55.3909L40.1971 55.05C40.2305 55.0301 40.2686 55.0194 40.3076 55.0188C40.3465 55.0183 40.3849 55.0279 40.419 55.0468C40.453 55.0658 40.4815 55.0933 40.5016 55.1266C40.5217 55.16 40.5326 55.1981 40.5334 55.237L40.5332 57.8483ZM42.1138 57.8483C42.1138 57.9066 42.0906 57.9625 42.0494 58.0038C42.0082 58.045 41.9523 58.0681 41.894 58.0681C41.8357 58.0681 41.7798 58.045 41.7385 58.0038C41.6973 57.9625 41.6742 57.9066 41.6742 57.8483V55.6328L41.4611 55.7646C41.4115 55.7952 41.3518 55.8049 41.2951 55.7915C41.2385 55.7781 41.1894 55.7427 41.1588 55.6932C41.1282 55.6436 41.1185 55.5839 41.1319 55.5272C41.1453 55.4705 41.1807 55.4215 41.2302 55.3909L41.7774 55.05C41.8109 55.0301 41.849 55.0194 41.888 55.0188C41.9269 55.0183 41.9653 55.0279 41.9994 55.0468C42.0334 55.0658 42.0619 55.0933 42.082 55.1266C42.102 55.16 42.113 55.1981 42.1138 55.237V57.8483Z" fill="#FAFAFA"/>
<path d="M40.5332 57.8483C40.5315 57.9054 40.5076 57.9596 40.4665 57.9994C40.4255 58.0392 40.3706 58.0614 40.3135 58.0614C40.2564 58.0614 40.2015 58.0392 40.1604 57.9994C40.1194 57.9596 40.0955 57.9054 40.0938 57.8483V55.6328L39.8805 55.7646C39.831 55.7939 39.7719 55.8026 39.7161 55.7888C39.6602 55.775 39.612 55.7399 39.5818 55.6909C39.5516 55.642 39.5418 55.5831 39.5545 55.527C39.5672 55.4709 39.6015 55.422 39.6498 55.3909L40.1971 55.05C40.2305 55.0301 40.2686 55.0194 40.3076 55.0188C40.3465 55.0183 40.3849 55.0279 40.419 55.0468C40.453 55.0658 40.4815 55.0933 40.5016 55.1266C40.5217 55.16 40.5326 55.1981 40.5334 55.237L40.5332 57.8483Z" fill="#FAFAFA"/>
<path d="M42.1138 57.8483C42.1138 57.9066 42.0906 57.9625 42.0494 58.0038C42.0082 58.045 41.9523 58.0681 41.894 58.0681C41.8357 58.0681 41.7798 58.045 41.7385 58.0038C41.6973 57.9625 41.6742 57.9066 41.6742 57.8483V55.6328L41.4611 55.7646C41.4115 55.7952 41.3518 55.8049 41.2951 55.7915C41.2385 55.7781 41.1894 55.7427 41.1588 55.6932C41.1282 55.6436 41.1185 55.5839 41.1319 55.5272C41.1453 55.4705 41.1807 55.4215 41.2302 55.3909L41.7774 55.05C41.8109 55.0301 41.849 55.0194 41.888 55.0188C41.9269 55.0183 41.9653 55.0279 41.9994 55.0468C42.0334 55.0658 42.0619 55.0933 42.082 55.1266C42.102 55.16 42.113 55.1981 42.1138 55.237V57.8483Z" fill="#FAFAFA"/>
<path d="M39.9199 55.332H42.2116" stroke="#191919" stroke-width="0.343756" stroke-linecap="round" stroke-linejoin="round"/>
<path d="M41.0659 56.4792V54.1875" stroke="#191919" stroke-width="0.343756" stroke-linecap="round" stroke-linejoin="round"/>
<path d="M8.88846 27.8673C9.25734 27.8668 9.611 27.7201 9.87184 27.4593C10.1327 27.1984 10.2794 26.8448 10.2798 26.4759V25.9944C9.35969 26.1677 8.41466 26.161 7.49707 25.9746V26.4759C7.4975 26.8448 7.64423 27.1984 7.90508 27.4593C8.16592 27.7201 8.51957 27.8668 8.88846 27.8673Z" fill="#FAFAFA"/>
<path d="M14.5884 30.6215L13.4474 28.2233C13.2322 27.7743 12.8531 27.425 12.3881 27.2472L11.5174 26.9154C11.1729 26.8135 10.9214 26.4088 10.7193 26.1328V26.4102C10.7276 26.666 10.6824 26.9208 10.5867 27.1582C10.4909 27.3956 10.3468 27.6104 10.1634 27.789C9.97998 27.9675 9.76137 28.1059 9.5215 28.1953C9.28162 28.2846 9.02576 28.323 8.77023 28.3079C8.5147 28.2928 8.26512 28.2247 8.03741 28.1077C7.80971 27.9908 7.60887 27.8277 7.44773 27.6288C7.28659 27.4299 7.16868 27.1997 7.10152 26.9526C7.03437 26.7056 7.01944 26.4473 7.05769 26.1942C6.90713 26.4837 6.66088 26.7121 6.36087 26.8404L5.54527 27.1329C5.07714 27.2985 4.69119 27.6388 4.46821 28.0824L3.18867 30.6215C3.1709 30.66 3.16901 30.7039 3.18341 30.7438C3.19782 30.7837 3.22735 30.8163 3.26562 30.8346L4.9699 31.6096C5.00191 31.6242 5.03696 31.6309 5.0721 31.6291C5.10724 31.6274 5.14145 31.6172 5.17185 31.5995C5.20225 31.5818 5.22795 31.557 5.24679 31.5273C5.26564 31.4976 5.27707 31.4638 5.28014 31.4287L5.3428 30.7144C5.34933 30.6571 5.37798 30.6046 5.42265 30.5681C5.46731 30.5316 5.52446 30.514 5.58192 30.519C5.63937 30.524 5.6926 30.5513 5.73024 30.595C5.76789 30.6387 5.78698 30.6954 5.78346 30.7529L5.25279 36.7851C5.25257 36.8279 5.26114 36.8703 5.27798 36.9097C5.29481 36.9491 5.31954 36.9847 5.35064 37.0141C5.38175 37.0436 5.41856 37.0663 5.45881 37.081C5.49906 37.0957 5.5419 37.1019 5.58466 37.0994H12.2099C12.2529 37.1019 12.2959 37.0956 12.3363 37.0808C12.3767 37.066 12.4136 37.0431 12.4448 37.0133C12.4759 36.9836 12.5006 36.9479 12.5173 36.9082C12.534 36.8685 12.5423 36.8259 12.5418 36.7828C12.4479 35.7762 12.0593 31.671 11.9732 30.7542C11.969 30.6968 11.9875 30.6401 12.0247 30.5962C12.0618 30.5523 12.1147 30.5247 12.172 30.5193C12.2293 30.5139 12.2864 30.5311 12.3311 30.5673C12.3758 30.6035 12.4045 30.6558 12.4112 30.7129L12.4779 31.42C12.4812 31.4547 12.4927 31.4882 12.5115 31.5176C12.5303 31.547 12.5558 31.5715 12.5859 31.5891C12.6161 31.6067 12.65 31.6168 12.6848 31.6187C12.7197 31.6206 12.7544 31.6142 12.7863 31.6L14.5114 30.8303C14.5491 30.8125 14.5783 30.7806 14.5927 30.7415C14.6071 30.7024 14.6055 30.6595 14.5884 30.6215ZM8.47071 34.8483C8.46897 34.9054 8.44506 34.9596 8.40404 34.9994C8.36303 35.0392 8.30813 35.0614 8.25099 35.0614C8.19385 35.0614 8.13896 35.0392 8.09794 34.9994C8.05693 34.9596 8.03301 34.9054 8.03127 34.8483V32.6328L7.81798 32.7646C7.76847 32.7939 7.70943 32.8026 7.65358 32.7888C7.59772 32.775 7.54951 32.7399 7.51929 32.6909C7.48908 32.642 7.47928 32.5831 7.49201 32.527C7.50473 32.4709 7.53896 32.422 7.58734 32.3909L8.13455 32.05C8.16803 32.0301 8.20614 32.0194 8.24508 32.0188C8.28402 32.0183 8.32243 32.0279 8.35646 32.0468C8.3905 32.0658 8.41898 32.0933 8.43907 32.1266C8.45915 32.16 8.47013 32.1981 8.47092 32.237L8.47071 34.8483ZM10.0513 34.8483C10.0513 34.9066 10.0281 34.9625 9.98692 35.0038C9.94569 35.045 9.88978 35.0681 9.83148 35.0681C9.77318 35.0681 9.71727 35.045 9.67604 35.0038C9.63482 34.9625 9.61166 34.9066 9.61166 34.8483V32.6328L9.39857 32.7646C9.34902 32.7952 9.28933 32.8049 9.23264 32.7915C9.17595 32.7781 9.12691 32.7427 9.0963 32.6932C9.06568 32.6436 9.05601 32.5839 9.06941 32.5272C9.08281 32.4705 9.11817 32.4215 9.16773 32.3909L9.71494 32.05C9.74842 32.0301 9.78653 32.0194 9.82547 32.0188C9.86441 32.0183 9.90281 32.0279 9.93685 32.0468C9.97089 32.0658 9.99937 32.0933 10.0195 32.1266C10.0395 32.16 10.0505 32.1981 10.0513 32.237V34.8483Z" fill="#FAFAFA"/>
<path d="M8.47071 34.8483C8.46897 34.9054 8.44506 34.9596 8.40404 34.9994C8.36303 35.0392 8.30813 35.0614 8.25099 35.0614C8.19385 35.0614 8.13896 35.0392 8.09794 34.9994C8.05693 34.9596 8.03301 34.9054 8.03127 34.8483V32.6328L7.81798 32.7646C7.76847 32.7939 7.70943 32.8026 7.65358 32.7888C7.59772 32.775 7.54951 32.7399 7.51929 32.6909C7.48908 32.642 7.47928 32.5831 7.49201 32.527C7.50473 32.4709 7.53896 32.422 7.58734 32.3909L8.13455 32.05C8.16803 32.0301 8.20614 32.0194 8.24508 32.0188C8.28402 32.0183 8.32243 32.0279 8.35646 32.0468C8.3905 32.0658 8.41898 32.0933 8.43907 32.1266C8.45915 32.16 8.47013 32.1981 8.47092 32.237L8.47071 34.8483Z" fill="#FAFAFA"/>
<path d="M10.0513 34.8483C10.0513 34.9066 10.0281 34.9625 9.98692 35.0038C9.94569 35.045 9.88978 35.0681 9.83148 35.0681C9.77318 35.0681 9.71727 35.045 9.67604 35.0038C9.63482 34.9625 9.61166 34.9066 9.61166 34.8483V32.6328L9.39857 32.7646C9.34902 32.7952 9.28933 32.8049 9.23264 32.7915C9.17595 32.7781 9.12691 32.7427 9.0963 32.6932C9.06568 32.6436 9.05601 32.5839 9.06941 32.5272C9.08281 32.4705 9.11817 32.4215 9.16773 32.3909L9.71494 32.05C9.74842 32.0301 9.78653 32.0194 9.82547 32.0188C9.86441 32.0183 9.90281 32.0279 9.93685 32.0468C9.97089 32.0658 9.99937 32.0933 10.0195 32.1266C10.0395 32.16 10.0505 32.1981 10.0513 32.237V34.8483Z" fill="#FAFAFA"/>
<path d="M7.85742 32.332H10.1491" stroke="#191919" stroke-width="0.343756" stroke-linecap="round" stroke-linejoin="round"/>
<path d="M9.00342 33.4792V31.1875" stroke="#191919" stroke-width="0.343756" stroke-linecap="round" stroke-linejoin="round"/>
<path d="M26.9512 30.8673C27.3201 30.8668 27.6737 30.7201 27.9346 30.4593C28.1954 30.1984 28.3422 29.8448 28.3426 29.4759V28.9944C27.4224 29.1677 26.4774 29.161 25.5598 28.9746V29.4759C25.5602 29.8448 25.707 30.1984 25.9678 30.4593C26.2287 30.7201 26.5823 30.8668 26.9512 30.8673Z" fill="#FAFAFA"/>
<path d="M32.6511 33.6215L31.5102 31.2233C31.295 30.7743 30.9159 30.425 30.4508 30.2472L29.5801 29.9154C29.2356 29.8135 28.9841 29.4088 28.7821 29.1328V29.4102C28.7903 29.666 28.7451 29.9208 28.6494 30.1582C28.5537 30.3956 28.4095 30.6104 28.2261 30.789C28.0427 30.9675 27.8241 31.1059 27.5842 31.1953C27.3444 31.2846 27.0885 31.323 26.833 31.3079C26.5774 31.2928 26.3279 31.2247 26.1002 31.1077C25.8725 30.9908 25.6716 30.8277 25.5105 30.6288C25.3493 30.4299 25.2314 30.1997 25.1643 29.9526C25.0971 29.7056 25.0822 29.4473 25.1204 29.1942C24.9699 29.4837 24.7236 29.7121 24.4236 29.8404L23.608 30.1329C23.1399 30.2985 22.7539 30.6388 22.5309 31.0824L21.2514 33.6215C21.2336 33.66 21.2318 33.7039 21.2462 33.7438C21.2606 33.7837 21.2901 33.8163 21.3284 33.8346L23.0326 34.6096C23.0647 34.6242 23.0997 34.6309 23.1348 34.6291C23.17 34.6274 23.2042 34.6172 23.2346 34.5995C23.265 34.5818 23.2907 34.557 23.3095 34.5273C23.3284 34.4976 23.3398 34.4638 23.3429 34.4287L23.4055 33.7144C23.4121 33.6571 23.4407 33.6046 23.4854 33.5681C23.5301 33.5316 23.5872 33.514 23.6447 33.519C23.7021 33.524 23.7553 33.5513 23.793 33.595C23.8306 33.6387 23.8497 33.6954 23.8462 33.7529L23.3155 39.7851C23.3153 39.8279 23.3239 39.8703 23.3407 39.9097C23.3576 39.9491 23.3823 39.9847 23.4134 40.0141C23.4445 40.0436 23.4813 40.0663 23.5216 40.081C23.5618 40.0957 23.6046 40.1019 23.6474 40.0994H30.2727C30.3156 40.1019 30.3586 40.0956 30.399 40.0808C30.4395 40.066 30.4764 40.0431 30.5075 40.0133C30.5386 39.9836 30.5633 39.9479 30.58 39.9082C30.5967 39.8685 30.6051 39.8259 30.6045 39.7828C30.5107 38.7762 30.122 34.671 30.0359 33.7542C30.0318 33.6968 30.0503 33.6401 30.0874 33.5962C30.1246 33.5523 30.1775 33.5247 30.2347 33.5193C30.292 33.5139 30.3491 33.5311 30.3938 33.5673C30.4385 33.6035 30.4673 33.6558 30.4739 33.7129L30.5407 34.42C30.5439 34.4547 30.5555 34.4882 30.5742 34.5176C30.593 34.547 30.6185 34.5715 30.6487 34.5891C30.6788 34.6067 30.7127 34.6168 30.7476 34.6187C30.7824 34.6206 30.8172 34.6142 30.8491 34.6L32.5742 33.8303C32.6118 33.8125 32.641 33.7806 32.6554 33.7415C32.6698 33.7024 32.6683 33.6595 32.6511 33.6215ZM26.5335 37.8483C26.5317 37.9054 26.5078 37.9596 26.4668 37.9994C26.4258 38.0392 26.3709 38.0614 26.3137 38.0614C26.2566 38.0614 26.2017 38.0392 26.1607 37.9994C26.1197 37.9596 26.0958 37.9054 26.094 37.8483V35.6328L25.8807 35.7646C25.8312 35.7939 25.7722 35.8026 25.7163 35.7888C25.6605 35.775 25.6122 35.7399 25.582 35.6909C25.5518 35.642 25.542 35.5831 25.5548 35.527C25.5675 35.4709 25.6017 35.422 25.6501 35.3909L26.1973 35.05C26.2308 35.0301 26.2689 35.0194 26.3078 35.0188C26.3468 35.0183 26.3852 35.0279 26.4192 35.0468C26.4532 35.0658 26.4817 35.0933 26.5018 35.1266C26.5219 35.16 26.5329 35.1981 26.5337 35.237L26.5335 37.8483ZM28.114 37.8483C28.114 37.9066 28.0909 37.9625 28.0497 38.0038C28.0084 38.045 27.9525 38.0681 27.8942 38.0681C27.8359 38.0681 27.78 38.045 27.7388 38.0038C27.6976 37.9625 27.6744 37.9066 27.6744 37.8483V35.6328L27.4613 35.7646C27.4118 35.7952 27.3521 35.8049 27.2954 35.7915C27.2387 35.7781 27.1897 35.7427 27.159 35.6932C27.1284 35.6436 27.1188 35.5839 27.1322 35.5272C27.1456 35.4705 27.1809 35.4215 27.2305 35.3909L27.7777 35.05C27.8112 35.0301 27.8493 35.0194 27.8882 35.0188C27.9272 35.0183 27.9656 35.0279 27.9996 35.0468C28.0336 35.0658 28.0621 35.0933 28.0822 35.1266C28.1023 35.16 28.1133 35.1981 28.114 35.237V37.8483Z" fill="#FAFAFA"/>
<path d="M26.5335 37.8483C26.5317 37.9054 26.5078 37.9596 26.4668 37.9994C26.4258 38.0392 26.3709 38.0614 26.3137 38.0614C26.2566 38.0614 26.2017 38.0392 26.1607 37.9994C26.1197 37.9596 26.0958 37.9054 26.094 37.8483V35.6328L25.8807 35.7646C25.8312 35.7939 25.7722 35.8026 25.7163 35.7888C25.6605 35.775 25.6122 35.7399 25.582 35.6909C25.5518 35.642 25.542 35.5831 25.5548 35.527C25.5675 35.4709 25.6017 35.422 25.6501 35.3909L26.1973 35.05C26.2308 35.0301 26.2689 35.0194 26.3078 35.0188C26.3468 35.0183 26.3852 35.0279 26.4192 35.0468C26.4532 35.0658 26.4817 35.0933 26.5018 35.1266C26.5219 35.16 26.5329 35.1981 26.5337 35.237L26.5335 37.8483Z" fill="#FAFAFA"/>
<path d="M28.114 37.8483C28.114 37.9066 28.0909 37.9625 28.0497 38.0038C28.0084 38.045 27.9525 38.0681 27.8942 38.0681C27.8359 38.0681 27.78 38.045 27.7388 38.0038C27.6976 37.9625 27.6744 37.9066 27.6744 37.8483V35.6328L27.4613 35.7646C27.4118 35.7952 27.3521 35.8049 27.2954 35.7915C27.2387 35.7781 27.1897 35.7427 27.159 35.6932C27.1284 35.6436 27.1188 35.5839 27.1322 35.5272C27.1456 35.4705 27.1809 35.4215 27.2305 35.3909L27.7777 35.05C27.8112 35.0301 27.8493 35.0194 27.8882 35.0188C27.9272 35.0183 27.9656 35.0279 27.9996 35.0468C28.0336 35.0658 28.0621 35.0933 28.0822 35.1266C28.1023 35.16 28.1133 35.1981 28.114 35.237V37.8483Z" fill="#FAFAFA"/>
<path d="M25.9202 35.332H28.2119" stroke="#191919" stroke-width="0.343756" stroke-linecap="round" stroke-linejoin="round"/>
<path d="M27.0662 36.4792V34.1875" stroke="#191919" stroke-width="0.343756" stroke-linecap="round" stroke-linejoin="round"/>
<path d="M72.0139 28.8673C72.3828 28.8668 72.7365 28.7201 72.9973 28.4593C73.2582 28.1984 73.4049 27.8448 73.4053 27.4759V26.9944C72.4852 27.1677 71.5401 27.161 70.6226 26.9746V27.4759C70.623 27.8448 70.7697 28.1984 71.0306 28.4593C71.2914 28.7201 71.6451 28.8668 72.0139 28.8673Z" fill="#FAFAFA"/>
<path d="M77.7139 31.6215L76.5729 29.2233C76.3577 28.7743 75.9786 28.425 75.5136 28.2472L74.6429 27.9154C74.2984 27.8135 74.0469 27.4088 73.8448 27.1328V27.4102C73.8531 27.666 73.8079 27.9208 73.7122 28.1582C73.6164 28.3956 73.4723 28.6104 73.2889 28.789C73.1055 28.9675 72.8869 29.1059 72.647 29.1953C72.4071 29.2846 72.1512 29.323 71.8957 29.3079C71.6402 29.2928 71.3906 29.2247 71.1629 29.1077C70.9352 28.9908 70.7344 28.8277 70.5732 28.6288C70.4121 28.4299 70.2942 28.1997 70.227 27.9526C70.1599 27.7056 70.1449 27.4473 70.1832 27.1942C70.0326 27.4837 69.7864 27.7121 69.4864 27.8404L68.6708 28.1329C68.2026 28.2985 67.8167 28.6388 67.5937 29.0824L66.3142 31.6215C66.2964 31.66 66.2945 31.7039 66.3089 31.7438C66.3233 31.7837 66.3528 31.8163 66.3911 31.8346L68.0954 32.6096C68.1274 32.6242 68.1624 32.6309 68.1976 32.6291C68.2327 32.6274 68.2669 32.6172 68.2973 32.5995C68.3277 32.5818 68.3534 32.557 68.3723 32.5273C68.3911 32.4976 68.4026 32.4638 68.4056 32.4287L68.4683 31.7144C68.4748 31.6571 68.5035 31.6046 68.5481 31.5681C68.5928 31.5316 68.6499 31.514 68.7074 31.519C68.7649 31.524 68.8181 31.5513 68.8557 31.595C68.8934 31.6387 68.9125 31.6954 68.9089 31.7529L68.3783 37.7851C68.3781 37.8279 68.3866 37.8703 68.4035 37.9097C68.4203 37.9491 68.445 37.9847 68.4761 38.0141C68.5072 38.0436 68.5441 38.0663 68.5843 38.081C68.6246 38.0957 68.6674 38.1019 68.7101 38.0994H75.3354C75.3784 38.1019 75.4214 38.0956 75.4618 38.0808C75.5022 38.066 75.5391 38.0431 75.5703 38.0133C75.6014 37.9836 75.6261 37.9479 75.6428 37.9082C75.6595 37.8685 75.6678 37.8259 75.6673 37.7828C75.5734 36.7762 75.1848 32.671 75.0986 31.7542C75.0945 31.6968 75.113 31.6401 75.1502 31.5962C75.1873 31.5523 75.2402 31.5247 75.2975 31.5193C75.3548 31.5139 75.4119 31.5311 75.4566 31.5673C75.5013 31.6035 75.53 31.6558 75.5367 31.7129L75.6034 32.42C75.6067 32.4547 75.6182 32.4882 75.637 32.5176C75.6558 32.547 75.6813 32.5715 75.7114 32.5891C75.7416 32.6067 75.7755 32.6168 75.8103 32.6187C75.8451 32.6206 75.8799 32.6142 75.9118 32.6L77.6369 31.8303C77.6746 31.8125 77.7038 31.7806 77.7182 31.7415C77.7326 31.7024 77.731 31.6595 77.7139 31.6215ZM71.5962 35.8483C71.5945 35.9054 71.5705 35.9596 71.5295 35.9994C71.4885 36.0392 71.4336 36.0614 71.3765 36.0614C71.3193 36.0614 71.2644 36.0392 71.2234 35.9994C71.1824 35.9596 71.1585 35.9054 71.1568 35.8483V33.6328L70.9435 33.7646C70.894 33.7939 70.8349 33.8026 70.7791 33.7888C70.7232 33.775 70.675 33.7399 70.6448 33.6909C70.6146 33.642 70.6048 33.5831 70.6175 33.527C70.6302 33.4709 70.6645 33.422 70.7128 33.3909L71.26 33.05C71.2935 33.0301 71.3316 33.0194 71.3706 33.0188C71.4095 33.0183 71.4479 33.0279 71.482 33.0468C71.516 33.0658 71.5445 33.0933 71.5646 33.1266C71.5846 33.16 71.5956 33.1981 71.5964 33.237L71.5962 35.8483ZM73.1768 35.8483C73.1768 35.9066 73.1536 35.9625 73.1124 36.0038C73.0712 36.045 73.0153 36.0681 72.957 36.0681C72.8987 36.0681 72.8428 36.045 72.8015 36.0038C72.7603 35.9625 72.7371 35.9066 72.7371 35.8483V33.6328L72.5241 33.7646C72.4745 33.7952 72.4148 33.8049 72.3581 33.7915C72.3014 33.7781 72.2524 33.7427 72.2218 33.6932C72.1912 33.6436 72.1815 33.5839 72.1949 33.5272C72.2083 33.4705 72.2437 33.4215 72.2932 33.3909L72.8404 33.05C72.8739 33.0301 72.912 33.0194 72.951 33.0188C72.9899 33.0183 73.0283 33.0279 73.0623 33.0468C73.0964 33.0658 73.1249 33.0933 73.1449 33.1266C73.165 33.16 73.176 33.1981 73.1768 33.237V35.8483Z" fill="#FAFAFA"/>
<path d="M71.5962 35.8483C71.5945 35.9054 71.5705 35.9596 71.5295 35.9994C71.4885 36.0392 71.4336 36.0614 71.3765 36.0614C71.3193 36.0614 71.2644 36.0392 71.2234 35.9994C71.1824 35.9596 71.1585 35.9054 71.1568 35.8483V33.6328L70.9435 33.7646C70.894 33.7939 70.8349 33.8026 70.7791 33.7888C70.7232 33.775 70.675 33.7399 70.6448 33.6909C70.6146 33.642 70.6048 33.5831 70.6175 33.527C70.6302 33.4709 70.6645 33.422 70.7128 33.3909L71.26 33.05C71.2935 33.0301 71.3316 33.0194 71.3706 33.0188C71.4095 33.0183 71.4479 33.0279 71.482 33.0468C71.516 33.0658 71.5445 33.0933 71.5646 33.1266C71.5846 33.16 71.5956 33.1981 71.5964 33.237L71.5962 35.8483Z" fill="#FAFAFA"/>
<path d="M73.1768 35.8483C73.1768 35.9066 73.1536 35.9625 73.1124 36.0038C73.0712 36.045 73.0153 36.0681 72.957 36.0681C72.8987 36.0681 72.8428 36.045 72.8015 36.0038C72.7603 35.9625 72.7371 35.9066 72.7371 35.8483V33.6328L72.5241 33.7646C72.4745 33.7952 72.4148 33.8049 72.3581 33.7915C72.3014 33.7781 72.2524 33.7427 72.2218 33.6932C72.1912 33.6436 72.1815 33.5839 72.1949 33.5272C72.2083 33.4705 72.2437 33.4215 72.2932 33.3909L72.8404 33.05C72.8739 33.0301 72.912 33.0194 72.951 33.0188C72.9899 33.0183 73.0283 33.0279 73.0623 33.0468C73.0964 33.0658 73.1249 33.0933 73.1449 33.1266C73.165 33.16 73.176 33.1981 73.1768 33.237V35.8483Z" fill="#FAFAFA"/>
<path d="M70.9829 33.332H73.2746" stroke="#191919" stroke-width="0.343756" stroke-linecap="round" stroke-linejoin="round"/>
<path d="M72.1289 34.4792V32.1875" stroke="#191919" stroke-width="0.343756" stroke-linecap="round" stroke-linejoin="round"/>
<path d="M41.0767 25.8673C41.4456 25.8668 41.7992 25.7201 42.0601 25.4593C42.3209 25.1984 42.4676 24.8448 42.4681 24.4759V23.9944C41.5479 24.1677 40.6029 24.161 39.6853 23.9746V24.4759C39.6857 24.8448 39.8325 25.1984 40.0933 25.4593C40.3541 25.7201 40.7078 25.8668 41.0767 25.8673Z" fill="#FAFAFA"/>
<path d="M46.7766 28.6215L45.6356 26.2233C45.4205 25.7743 45.0413 25.425 44.5763 25.2472L43.7056 24.9154C43.3611 24.8135 43.1096 24.4088 42.9076 24.1328V24.4102C42.9158 24.666 42.8706 24.9208 42.7749 25.1582C42.6792 25.3956 42.535 25.6104 42.3516 25.789C42.1682 25.9675 41.9496 26.1059 41.7097 26.1953C41.4699 26.2846 41.214 26.323 40.9585 26.3079C40.7029 26.2928 40.4534 26.2247 40.2256 26.1077C39.9979 25.9908 39.7971 25.8277 39.636 25.6288C39.4748 25.4299 39.3569 25.1997 39.2898 24.9526C39.2226 24.7056 39.2077 24.4473 39.2459 24.1942C39.0954 24.4837 38.8491 24.7121 38.5491 24.8404L37.7335 25.1329C37.2654 25.2985 36.8794 25.6388 36.6564 26.0824L35.3769 28.6215C35.3591 28.66 35.3572 28.7039 35.3716 28.7438C35.386 28.7837 35.4156 28.8163 35.4538 28.8346L37.1581 29.6096C37.1901 29.6242 37.2252 29.6309 37.2603 29.6291C37.2955 29.6274 37.3297 29.6172 37.3601 29.5995C37.3905 29.5818 37.4162 29.557 37.435 29.5273C37.4539 29.4976 37.4653 29.4638 37.4684 29.4287L37.531 28.7144C37.5376 28.6571 37.5662 28.6046 37.6109 28.5681C37.6555 28.5316 37.7127 28.514 37.7702 28.519C37.8276 28.524 37.8808 28.5513 37.9185 28.595C37.9561 28.6387 37.9752 28.6954 37.9717 28.7529L37.441 34.7851C37.4408 34.8279 37.4494 34.8703 37.4662 34.9097C37.483 34.9491 37.5078 34.9847 37.5389 35.0141C37.57 35.0436 37.6068 35.0663 37.647 35.081C37.6873 35.0957 37.7301 35.1019 37.7729 35.0994H44.3982C44.4411 35.1019 44.4841 35.0956 44.5245 35.0808C44.5649 35.066 44.6019 35.0431 44.633 35.0133C44.6641 34.9836 44.6888 34.9479 44.7055 34.9082C44.7222 34.8685 44.7306 34.8259 44.73 34.7828C44.6361 33.7762 44.2475 29.671 44.1614 28.7542C44.1573 28.6968 44.1757 28.6401 44.2129 28.5962C44.2501 28.5523 44.303 28.5247 44.3602 28.5193C44.4175 28.5139 44.4746 28.5311 44.5193 28.5673C44.564 28.6035 44.5928 28.6558 44.5994 28.7129L44.6661 29.42C44.6694 29.4547 44.6809 29.4882 44.6997 29.5176C44.7185 29.547 44.744 29.5715 44.7742 29.5891C44.8043 29.6067 44.8382 29.6168 44.873 29.6187C44.9079 29.6206 44.9427 29.6142 44.9745 29.6L46.6996 28.8303C46.7373 28.8125 46.7665 28.7806 46.7809 28.7415C46.7953 28.7024 46.7938 28.6595 46.7766 28.6215ZM40.6589 32.8483C40.6572 32.9054 40.6333 32.9596 40.5923 32.9994C40.5513 33.0392 40.4964 33.0614 40.4392 33.0614C40.3821 33.0614 40.3272 33.0392 40.2862 32.9994C40.2452 32.9596 40.2212 32.9054 40.2195 32.8483V30.6328L40.0062 30.7646C39.9567 30.7939 39.8977 30.8026 39.8418 30.7888C39.786 30.775 39.7377 30.7399 39.7075 30.6909C39.6773 30.642 39.6675 30.5831 39.6802 30.527C39.693 30.4709 39.7272 30.422 39.7756 30.3909L40.3228 30.05C40.3563 30.0301 40.3944 30.0194 40.4333 30.0188C40.4723 30.0183 40.5107 30.0279 40.5447 30.0468C40.5787 30.0658 40.6072 30.0933 40.6273 30.1266C40.6474 30.16 40.6584 30.1981 40.6591 30.237L40.6589 32.8483ZM42.2395 32.8483C42.2395 32.9066 42.2164 32.9625 42.1752 33.0038C42.1339 33.045 42.078 33.0681 42.0197 33.0681C41.9614 33.0681 41.9055 33.045 41.8643 33.0038C41.8231 32.9625 41.7999 32.9066 41.7999 32.8483V30.6328L41.5868 30.7646C41.5372 30.7952 41.4776 30.8049 41.4209 30.7915C41.3642 30.7781 41.3151 30.7427 41.2845 30.6932C41.2539 30.6436 41.2442 30.5839 41.2576 30.5272C41.271 30.4705 41.3064 30.4215 41.356 30.3909L41.9032 30.05C41.9367 30.0301 41.9748 30.0194 42.0137 30.0188C42.0526 30.0183 42.091 30.0279 42.1251 30.0468C42.1591 30.0658 42.1876 30.0933 42.2077 30.1266C42.2278 30.16 42.2388 30.1981 42.2395 30.237V32.8483Z" fill="#FAFAFA"/>
<path d="M40.6589 32.8483C40.6572 32.9054 40.6333 32.9596 40.5923 32.9994C40.5513 33.0392 40.4964 33.0614 40.4392 33.0614C40.3821 33.0614 40.3272 33.0392 40.2862 32.9994C40.2452 32.9596 40.2212 32.9054 40.2195 32.8483V30.6328L40.0062 30.7646C39.9567 30.7939 39.8977 30.8026 39.8418 30.7888C39.786 30.775 39.7377 30.7399 39.7075 30.6909C39.6773 30.642 39.6675 30.5831 39.6802 30.527C39.693 30.4709 39.7272 30.422 39.7756 30.3909L40.3228 30.05C40.3563 30.0301 40.3944 30.0194 40.4333 30.0188C40.4723 30.0183 40.5107 30.0279 40.5447 30.0468C40.5787 30.0658 40.6072 30.0933 40.6273 30.1266C40.6474 30.16 40.6584 30.1981 40.6591 30.237L40.6589 32.8483Z" fill="#FAFAFA"/>
<path d="M42.2395 32.8483C42.2395 32.9066 42.2164 32.9625 42.1752 33.0038C42.1339 33.045 42.078 33.0681 42.0197 33.0681C41.9614 33.0681 41.9055 33.045 41.8643 33.0038C41.8231 32.9625 41.7999 32.9066 41.7999 32.8483V30.6328L41.5868 30.7646C41.5372 30.7952 41.4776 30.8049 41.4209 30.7915C41.3642 30.7781 41.3151 30.7427 41.2845 30.6932C41.2539 30.6436 41.2442 30.5839 41.2576 30.5272C41.271 30.4705 41.3064 30.4215 41.356 30.3909L41.9032 30.05C41.9367 30.0301 41.9748 30.0194 42.0137 30.0188C42.0526 30.0183 42.091 30.0279 42.1251 30.0468C42.1591 30.0658 42.1876 30.0933 42.2077 30.1266C42.2278 30.16 42.2388 30.1981 42.2395 30.237V32.8483Z" fill="#FAFAFA"/>
<path d="M40.0457 30.332H42.3374" stroke="#191919" stroke-width="0.343756" stroke-linecap="round" stroke-linejoin="round"/>
<path d="M41.1917 31.4792V29.1875" stroke="#191919" stroke-width="0.343756" stroke-linecap="round" stroke-linejoin="round"/>
<path d="M55.1394 30.8673C55.5083 30.8668 55.862 30.7201 56.1228 30.4593C56.3837 30.1984 56.5304 29.8448 56.5308 29.4759V28.9944C55.6107 29.1677 54.6656 29.161 53.748 28.9746V29.4759C53.7485 29.8448 53.8952 30.1984 54.1561 30.4593C54.4169 30.7201 54.7705 30.8668 55.1394 30.8673Z" fill="#FAFAFA"/>
<path d="M60.8393 33.6215L59.6984 31.2233C59.4832 30.7743 59.1041 30.425 58.6391 30.2472L57.7684 29.9154C57.4238 29.8135 57.1724 29.4088 56.9703 29.1328V29.4102C56.9786 29.666 56.9334 29.9208 56.8376 30.1582C56.7419 30.3956 56.5978 30.6104 56.4144 30.789C56.231 30.9675 56.0123 31.1059 55.7725 31.1953C55.5326 31.2846 55.2767 31.323 55.0212 31.3079C54.7657 31.2928 54.5161 31.2247 54.2884 31.1077C54.0607 30.9908 53.8599 30.8277 53.6987 30.6288C53.5376 30.4299 53.4197 30.1997 53.3525 29.9526C53.2853 29.7056 53.2704 29.4473 53.3087 29.1942C53.1581 29.4837 52.9119 29.7121 52.6119 29.8404L51.7962 30.1329C51.3281 30.2985 50.9422 30.6388 50.7192 31.0824L49.4396 33.6215C49.4219 33.66 49.42 33.7039 49.4344 33.7438C49.4488 33.7837 49.4783 33.8163 49.5166 33.8346L51.2209 34.6096C51.2529 34.6242 51.2879 34.6309 51.3231 34.6291C51.3582 34.6274 51.3924 34.6172 51.4228 34.5995C51.4532 34.5818 51.4789 34.557 51.4978 34.5273C51.5166 34.4976 51.528 34.4638 51.5311 34.4287L51.5938 33.7144C51.6003 33.6571 51.629 33.6046 51.6736 33.5681C51.7183 33.5316 51.7754 33.514 51.8329 33.519C51.8904 33.524 51.9436 33.5513 51.9812 33.595C52.0189 33.6387 52.038 33.6954 52.0344 33.7529L51.5038 39.7851C51.5035 39.8279 51.5121 39.8703 51.529 39.9097C51.5458 39.9491 51.5705 39.9847 51.6016 40.0141C51.6327 40.0436 51.6695 40.0663 51.7098 40.081C51.75 40.0957 51.7929 40.1019 51.8356 40.0994H58.4609C58.5039 40.1019 58.5469 40.0956 58.5873 40.0808C58.6277 40.066 58.6646 40.0431 58.6957 40.0133C58.7269 39.9836 58.7516 39.9479 58.7683 39.9082C58.785 39.8685 58.7933 39.8259 58.7928 39.7828C58.6989 38.7762 58.3103 34.671 58.2241 33.7542C58.22 33.6968 58.2385 33.6401 58.2757 33.5962C58.3128 33.5523 58.3657 33.5247 58.423 33.5193C58.4802 33.5139 58.5373 33.5311 58.5821 33.5673C58.6268 33.6035 58.6555 33.6558 58.6621 33.7129L58.7289 34.42C58.7322 34.4547 58.7437 34.4882 58.7625 34.5176C58.7813 34.547 58.8068 34.5715 58.8369 34.5891C58.8671 34.6067 58.9009 34.6168 58.9358 34.6187C58.9706 34.6206 59.0054 34.6142 59.0373 34.6L60.7624 33.8303C60.8001 33.8125 60.8293 33.7806 60.8436 33.7415C60.858 33.7024 60.8565 33.6595 60.8393 33.6215ZM54.7217 37.8483C54.7199 37.9054 54.696 37.9596 54.655 37.9994C54.614 38.0392 54.5591 38.0614 54.502 38.0614C54.4448 38.0614 54.3899 38.0392 54.3489 37.9994C54.3079 37.9596 54.284 37.9054 54.2822 37.8483V35.6328L54.069 35.7646C54.0194 35.7939 53.9604 35.8026 53.9046 35.7888C53.8487 35.775 53.8005 35.7399 53.7703 35.6909C53.7401 35.642 53.7303 35.5831 53.743 35.527C53.7557 35.4709 53.7899 35.422 53.8383 35.3909L54.3855 35.05C54.419 35.0301 54.4571 35.0194 54.4961 35.0188C54.535 35.0183 54.5734 35.0279 54.6074 35.0468C54.6415 35.0658 54.67 35.0933 54.69 35.1266C54.7101 35.16 54.7211 35.1981 54.7219 35.237L54.7217 37.8483ZM56.3023 37.8483C56.3023 37.9066 56.2791 37.9625 56.2379 38.0038C56.1967 38.045 56.1408 38.0681 56.0825 38.0681C56.0242 38.0681 55.9682 38.045 55.927 38.0038C55.8858 37.9625 55.8626 37.9066 55.8626 37.8483V35.6328L55.6496 35.7646C55.6 35.7952 55.5403 35.8049 55.4836 35.7915C55.4269 35.7781 55.3779 35.7427 55.3473 35.6932C55.3167 35.6436 55.307 35.5839 55.3204 35.5272C55.3338 35.4705 55.3692 35.4215 55.4187 35.3909L55.9659 35.05C55.9994 35.0301 56.0375 35.0194 56.0764 35.0188C56.1154 35.0183 56.1538 35.0279 56.1878 35.0468C56.2219 35.0658 56.2503 35.0933 56.2704 35.1266C56.2905 35.16 56.3015 35.1981 56.3023 35.237V37.8483Z" fill="#FAFAFA"/>
<path d="M54.7217 37.8483C54.7199 37.9054 54.696 37.9596 54.655 37.9994C54.614 38.0392 54.5591 38.0614 54.502 38.0614C54.4448 38.0614 54.3899 38.0392 54.3489 37.9994C54.3079 37.9596 54.284 37.9054 54.2822 37.8483V35.6328L54.069 35.7646C54.0194 35.7939 53.9604 35.8026 53.9046 35.7888C53.8487 35.775 53.8005 35.7399 53.7703 35.6909C53.7401 35.642 53.7303 35.5831 53.743 35.527C53.7557 35.4709 53.7899 35.422 53.8383 35.3909L54.3855 35.05C54.419 35.0301 54.4571 35.0194 54.4961 35.0188C54.535 35.0183 54.5734 35.0279 54.6074 35.0468C54.6415 35.0658 54.67 35.0933 54.69 35.1266C54.7101 35.16 54.7211 35.1981 54.7219 35.237L54.7217 37.8483Z" fill="#FAFAFA"/>
<path d="M56.3023 37.8483C56.3023 37.9066 56.2791 37.9625 56.2379 38.0038C56.1967 38.045 56.1408 38.0681 56.0825 38.0681C56.0242 38.0681 55.9682 38.045 55.927 38.0038C55.8858 37.9625 55.8626 37.9066 55.8626 37.8483V35.6328L55.6496 35.7646C55.6 35.7952 55.5403 35.8049 55.4836 35.7915C55.4269 35.7781 55.3779 35.7427 55.3473 35.6932C55.3167 35.6436 55.307 35.5839 55.3204 35.5272C55.3338 35.4705 55.3692 35.4215 55.4187 35.3909L55.9659 35.05C55.9994 35.0301 56.0375 35.0194 56.0764 35.0188C56.1154 35.0183 56.1538 35.0279 56.1878 35.0468C56.2219 35.0658 56.2503 35.0933 56.2704 35.1266C56.2905 35.16 56.3015 35.1981 56.3023 35.237V37.8483Z" fill="#FAFAFA"/>
<path d="M54.1084 35.332H56.4001" stroke="#191919" stroke-width="0.343756" stroke-linecap="round" stroke-linejoin="round"/>
<path d="M55.2544 36.4792V34.1875" stroke="#191919" stroke-width="0.343756" stroke-linecap="round" stroke-linejoin="round"/>
<path d="M26.951 3.86923C27.3198 3.8688 27.6735 3.72207 27.9343 3.46123C28.1952 3.20038 28.3419 2.84673 28.3423 2.47785V1.99636C27.4222 2.1697 26.4772 2.16297 25.5596 1.97656V2.47785C25.56 2.84673 25.7067 3.20038 25.9676 3.46123C26.2284 3.72207 26.5821 3.8688 26.951 3.86923Z" fill="#FAFAFA"/>
<path d="M32.6509 6.62345L31.5099 4.22521C31.2947 3.77629 30.9156 3.42696 30.4506 3.24918L29.5799 2.91731C29.2354 2.81546 28.9839 2.41072 28.7818 2.13477V2.41214C28.7901 2.66798 28.7449 2.92273 28.6492 3.16013C28.5534 3.39753 28.4093 3.61237 28.2259 3.79094C28.0425 3.9695 27.8239 4.10788 27.584 4.19723C27.3441 4.28658 27.0883 4.32494 26.8327 4.30987C26.5772 4.2948 26.3276 4.22663 26.0999 4.1097C25.8722 3.99278 25.6714 3.82967 25.5102 3.63078C25.3491 3.4319 25.2312 3.2016 25.164 2.9546C25.0969 2.70759 25.0819 2.4493 25.1202 2.1962C24.9696 2.48569 24.7234 2.71405 24.4234 2.8424L23.6078 3.13488C23.1396 3.30048 22.7537 3.64071 22.5307 4.08438L21.2512 6.62345C21.2334 6.66195 21.2315 6.7059 21.2459 6.74579C21.2603 6.78567 21.2898 6.81827 21.3281 6.83654L23.0324 7.61153C23.0644 7.62613 23.0995 7.63284 23.1346 7.63109C23.1697 7.62933 23.204 7.61917 23.2343 7.60145C23.2647 7.58373 23.2905 7.55898 23.3093 7.52926C23.3281 7.49955 23.3396 7.46574 23.3426 7.43069L23.4053 6.71632C23.4118 6.65901 23.4405 6.60652 23.4851 6.57004C23.5298 6.53355 23.587 6.51594 23.6444 6.52097C23.7019 6.526 23.7551 6.55327 23.7927 6.59696C23.8304 6.64066 23.8495 6.69733 23.846 6.75489L23.3153 12.787C23.3151 12.8299 23.3236 12.8723 23.3405 12.9117C23.3573 12.9511 23.382 12.9866 23.4131 13.0161C23.4442 13.0455 23.4811 13.0683 23.5213 13.083C23.5616 13.0976 23.6044 13.1039 23.6472 13.1013H30.2724C30.3154 13.1039 30.3584 13.0976 30.3988 13.0828C30.4392 13.068 30.4761 13.045 30.5073 13.0153C30.5384 12.9856 30.5631 12.9498 30.5798 12.9101C30.5965 12.8705 30.6048 12.8278 30.6043 12.7848C30.5104 11.7781 30.1218 7.67296 30.0357 6.75612C30.0315 6.69875 30.05 6.64203 30.0872 6.59813C30.1243 6.55422 30.1772 6.52662 30.2345 6.52123C30.2918 6.51584 30.3489 6.53309 30.3936 6.56929C30.4383 6.60549 30.467 6.65775 30.4737 6.71489L30.5404 7.42191C30.5437 7.45665 30.5552 7.49011 30.574 7.51952C30.5928 7.54892 30.6183 7.57344 30.6484 7.59103C30.6786 7.60862 30.7125 7.61878 30.7473 7.62068C30.7822 7.62258 30.8169 7.61615 30.8488 7.60193L32.5739 6.83225C32.6116 6.81447 32.6408 6.7826 32.6552 6.7435C32.6696 6.7044 32.668 6.66142 32.6509 6.62345ZM26.5332 10.8503C26.5315 10.9074 26.5076 10.9616 26.4665 11.0014C26.4255 11.0411 26.3706 11.0634 26.3135 11.0634C26.2564 11.0634 26.2015 11.0411 26.1604 11.0014C26.1194 10.9616 26.0955 10.9074 26.0938 10.8503V8.63471L25.8805 8.76656C25.831 8.79584 25.7719 8.80453 25.7161 8.79075C25.6602 8.77697 25.612 8.74182 25.5818 8.69287C25.5516 8.64391 25.5418 8.58505 25.5545 8.52895C25.5672 8.47284 25.6015 8.42397 25.6498 8.39284L26.1971 8.05198C26.2305 8.03209 26.2686 8.02133 26.3076 8.02077C26.3465 8.02021 26.3849 8.02987 26.419 8.04879C26.453 8.06771 26.4815 8.09523 26.5016 8.1286C26.5217 8.16196 26.5326 8.20001 26.5334 8.23895L26.5332 10.8503ZM28.1138 10.8503C28.1138 10.9086 28.0906 10.9645 28.0494 11.0057C28.0082 11.0469 27.9523 11.0701 27.894 11.0701C27.8357 11.0701 27.7798 11.0469 27.7385 11.0057C27.6973 10.9645 27.6742 10.9086 27.6742 10.8503V8.63471L27.4611 8.76656C27.4115 8.79717 27.3518 8.80684 27.2951 8.79344C27.2385 8.78005 27.1894 8.74468 27.1588 8.69512C27.1282 8.64556 27.1185 8.58587 27.1319 8.52919C27.1453 8.4725 27.1807 8.42345 27.2302 8.39284L27.7774 8.05198C27.8109 8.03209 27.849 8.02133 27.888 8.02077C27.9269 8.02021 27.9653 8.02987 27.9994 8.04879C28.0334 8.06771 28.0619 8.09523 28.082 8.1286C28.102 8.16196 28.113 8.20001 28.1138 8.23895V10.8503Z" fill="#FAFAFA"/>
<path d="M26.5332 10.8503C26.5315 10.9074 26.5076 10.9616 26.4665 11.0014C26.4255 11.0411 26.3706 11.0634 26.3135 11.0634C26.2564 11.0634 26.2015 11.0411 26.1604 11.0014C26.1194 10.9616 26.0955 10.9074 26.0938 10.8503V8.63471L25.8805 8.76656C25.831 8.79584 25.7719 8.80453 25.7161 8.79075C25.6602 8.77697 25.612 8.74182 25.5818 8.69287C25.5516 8.64391 25.5418 8.58505 25.5545 8.52895C25.5672 8.47284 25.6015 8.42397 25.6498 8.39284L26.1971 8.05198C26.2305 8.03209 26.2686 8.02133 26.3076 8.02077C26.3465 8.02021 26.3849 8.02987 26.419 8.04879C26.453 8.06771 26.4815 8.09523 26.5016 8.1286C26.5217 8.16196 26.5326 8.20001 26.5334 8.23895L26.5332 10.8503Z" fill="#FAFAFA"/>
<path d="M28.1138 10.8503C28.1138 10.9086 28.0906 10.9645 28.0494 11.0057C28.0082 11.0469 27.9523 11.0701 27.894 11.0701C27.8357 11.0701 27.7798 11.0469 27.7385 11.0057C27.6973 10.9645 27.6742 10.9086 27.6742 10.8503V8.63471L27.4611 8.76656C27.4115 8.79717 27.3518 8.80684 27.2951 8.79344C27.2385 8.78005 27.1894 8.74468 27.1588 8.69512C27.1282 8.64556 27.1185 8.58587 27.1319 8.52919C27.1453 8.4725 27.1807 8.42345 27.2302 8.39284L27.7774 8.05198C27.8109 8.03209 27.849 8.02133 27.888 8.02077C27.9269 8.02021 27.9653 8.02987 27.9994 8.04879C28.0334 8.06771 28.0619 8.09523 28.082 8.1286C28.102 8.16196 28.113 8.20001 28.1138 8.23895V10.8503Z" fill="#FAFAFA"/>
<path d="M25.9199 8.33398H28.2116" stroke="#191919" stroke-width="0.343756" stroke-linecap="round" stroke-linejoin="round"/>
<path d="M27.0659 9.48116V7.18945" stroke="#191919" stroke-width="0.343756" stroke-linecap="round" stroke-linejoin="round"/>
</svg>
