<svg width="81" height="81" viewBox="0 0 81 81" fill="none" xmlns="http://www.w3.org/2000/svg">
<rect x="0.114585" y="0.118492" width="79.9807" height="79.9807" rx="5.88541" fill="#828284" stroke="#FAFAFA" stroke-width="0.229171"/>
<mask id="path-2-inside-1_8747_15607" fill="white">
<path d="M23.8337 66.4609H56.376V80.2112H23.8337V66.4609Z"/>
</mask>
<path d="M23.8337 66.4609V66.2318H23.6046V66.4609H23.8337ZM56.376 66.4609H56.6052V66.2318H56.376V66.4609ZM23.8337 66.6901H56.376V66.2318H23.8337V66.6901ZM56.1468 66.4609V80.2112H56.6052V66.4609H56.1468ZM24.0629 80.2112V66.4609H23.6046V80.2112H24.0629Z" fill="#FAFAFA" mask="url(#path-2-inside-1_8747_15607)"/>
<mask id="path-4-inside-2_8747_15607" fill="white">
<path d="M12.6045 55.0039H67.6055V80.2127H12.6045V55.0039Z"/>
</mask>
<path d="M12.6045 55.0039V54.7747H12.3753V55.0039H12.6045ZM67.6055 55.0039H67.8347V54.7747H67.6055V55.0039ZM12.6045 55.2331H67.6055V54.7747H12.6045V55.2331ZM67.3764 55.0039V80.2127H67.8347V55.0039H67.3764ZM12.8337 80.2127V55.0039H12.3753V80.2127H12.8337Z" fill="#FAFAFA" mask="url(#path-4-inside-2_8747_15607)"/>
<path d="M54.3135 9.53674e-07C54.3135 1.65523 53.9282 3.29426 53.1796 4.8235C52.431 6.35273 51.3337 7.74223 49.9505 8.91266C48.5673 10.0831 46.9251 11.0115 45.1178 11.645C43.3106 12.2784 41.3735 12.6044 39.4174 12.6044C37.4612 12.6044 35.5241 12.2784 33.7169 11.645C31.9096 11.0115 30.2674 10.0831 28.8842 8.91266C27.501 7.74223 26.4037 6.35273 25.6551 4.8235C24.9065 3.29426 24.5212 1.65523 24.5212 0" stroke="#FAFAFA" stroke-width="0.229171"/>
<path d="M30.5772 55.3516C31.0955 54.5174 31.8551 53.7595 32.8127 53.1211C33.7703 52.4827 34.9072 51.9763 36.1584 51.6308C37.4096 51.2853 38.7506 51.1074 40.1049 51.1074C41.4592 51.1074 42.8002 51.2853 44.0514 51.6308C45.3026 51.9763 46.4394 52.4827 47.3971 53.1211C48.3547 53.7595 49.1143 54.5174 49.6326 55.3516" stroke="#FAFAFA" stroke-width="0.229171"/>
<path d="M0.229004 76.5479C1.34553 76.4958 3.54946 77.1099 3.43295 79.9825" stroke="#FAFAFA" stroke-width="0.229171"/>
<path d="M79.9805 76.5479C78.8639 76.4958 76.66 77.1099 76.7765 79.9825" stroke="#FAFAFA" stroke-width="0.229171"/>
<path d="M40.219 69.4356C40.5879 69.4352 40.9416 69.2885 41.2024 69.0276C41.4632 68.7668 41.61 68.4131 41.6104 68.0443V67.5628C40.6903 67.7361 39.7452 67.7294 38.8276 67.543V68.0443C38.8281 68.4131 38.9748 68.7668 39.2356 69.0276C39.4965 69.2885 39.8501 69.4352 40.219 69.4356Z" fill="#FAFAFA"/>
<path d="M45.9189 72.1899L44.778 69.7916C44.5628 69.3427 44.1837 68.9934 43.7187 68.8156L42.848 68.4837C42.5034 68.3819 42.252 67.9771 42.0499 67.7012V67.9786C42.0581 68.2344 42.013 68.4891 41.9172 68.7265C41.8215 68.9639 41.6773 69.1788 41.4939 69.3573C41.3105 69.5359 41.0919 69.6743 40.8521 69.7636C40.6122 69.853 40.3563 69.8913 40.1008 69.8763C39.8453 69.8612 39.5957 69.793 39.368 69.6761C39.1403 69.5592 38.9394 69.3961 38.7783 69.1972C38.6172 68.9983 38.4992 68.768 38.4321 68.521C38.3649 68.274 38.35 68.0157 38.3883 67.7626C38.2377 68.0521 37.9914 68.2805 37.6914 68.4088L36.8758 68.7013C36.4077 68.8669 36.0218 69.2071 35.7988 69.6508L34.5192 72.1899C34.5015 72.2284 34.4996 72.2723 34.514 72.3122C34.5284 72.3521 34.5579 72.3847 34.5962 72.4029L36.3005 73.1779C36.3325 73.1925 36.3675 73.1992 36.4027 73.1975C36.4378 73.1957 36.472 73.1856 36.5024 73.1679C36.5328 73.1501 36.5585 73.1254 36.5774 73.0957C36.5962 73.066 36.6076 73.0321 36.6107 72.9971L36.6734 72.2827C36.6799 72.2254 36.7085 72.1729 36.7532 72.1364C36.7979 72.1 36.855 72.0823 36.9125 72.0874C36.9699 72.0924 37.0232 72.1197 37.0608 72.1634C37.0985 72.2071 37.1176 72.2637 37.114 72.3213L36.5834 78.3534C36.5831 78.3963 36.5917 78.4387 36.6085 78.4781C36.6254 78.5175 36.6501 78.553 36.6812 78.5825C36.7123 78.6119 36.7491 78.6347 36.7894 78.6494C36.8296 78.664 36.8725 78.6703 36.9152 78.6678H43.5405C43.5834 78.6703 43.6265 78.664 43.6669 78.6492C43.7073 78.6344 43.7442 78.6114 43.7753 78.5817C43.8065 78.552 43.8312 78.5162 43.8478 78.4766C43.8645 78.4369 43.8729 78.3942 43.8724 78.3512C43.7785 77.3445 43.3899 73.2394 43.3037 72.3225C43.2996 72.2652 43.3181 72.2084 43.3552 72.1645C43.3924 72.1206 43.4453 72.093 43.5026 72.0876C43.5598 72.0822 43.6169 72.0995 43.6616 72.1357C43.7063 72.1719 43.7351 72.2242 43.7417 72.2813L43.8085 72.9883C43.8118 73.0231 43.8233 73.0565 43.8421 73.0859C43.8609 73.1153 43.8864 73.1398 43.9165 73.1574C43.9466 73.175 43.9805 73.1852 44.0154 73.1871C44.0502 73.189 44.085 73.1826 44.1169 73.1683L45.842 72.3987C45.8797 72.3809 45.9088 72.349 45.9232 72.3099C45.9376 72.2708 45.9361 72.2278 45.9189 72.1899ZM39.8013 76.4167C39.7995 76.4738 39.7756 76.528 39.7346 76.5678C39.6936 76.6076 39.6387 76.6298 39.5816 76.6298C39.5244 76.6298 39.4695 76.6076 39.4285 76.5678C39.3875 76.528 39.3636 76.4738 39.3618 76.4167V74.2011L39.1485 74.333C39.099 74.3623 39.04 74.3709 38.9841 74.3572C38.9283 74.3434 38.8801 74.3082 38.8499 74.2593C38.8196 74.2103 38.8098 74.1515 38.8226 74.0954C38.8353 74.0392 38.8695 73.9904 38.9179 73.9592L39.4651 73.6184C39.4986 73.5985 39.5367 73.5877 39.5756 73.5872C39.6146 73.5866 39.653 73.5963 39.687 73.6152C39.7211 73.6341 39.7496 73.6616 39.7696 73.695C39.7897 73.7284 39.8007 73.7664 39.8015 73.8054L39.8013 76.4167ZM41.3819 76.4167C41.3819 76.475 41.3587 76.5309 41.3175 76.5721C41.2763 76.6133 41.2203 76.6365 41.162 76.6365C41.1037 76.6365 41.0478 76.6133 41.0066 76.5721C40.9654 76.5309 40.9422 76.475 40.9422 76.4167V74.2011L40.7291 74.333C40.6796 74.3636 40.6199 74.3732 40.5632 74.3598C40.5065 74.3465 40.4575 74.3111 40.4269 74.2615C40.3963 74.212 40.3866 74.1523 40.4 74.0956C40.4134 74.0389 40.4487 73.9899 40.4983 73.9592L41.0455 73.6184C41.079 73.5985 41.1171 73.5877 41.156 73.5872C41.195 73.5866 41.2334 73.5963 41.2674 73.6152C41.3015 73.6341 41.3299 73.6616 41.35 73.695C41.3701 73.7284 41.3811 73.7664 41.3819 73.8054V76.4167Z" fill="#FAFAFA"/>
<path d="M39.8013 76.4167C39.7995 76.4738 39.7756 76.528 39.7346 76.5678C39.6936 76.6076 39.6387 76.6298 39.5816 76.6298C39.5244 76.6298 39.4695 76.6076 39.4285 76.5678C39.3875 76.528 39.3636 76.4738 39.3618 76.4167V74.2011L39.1485 74.333C39.099 74.3623 39.04 74.3709 38.9841 74.3572C38.9283 74.3434 38.8801 74.3082 38.8499 74.2593C38.8196 74.2103 38.8098 74.1515 38.8226 74.0954C38.8353 74.0392 38.8695 73.9904 38.9179 73.9592L39.4651 73.6184C39.4986 73.5985 39.5367 73.5877 39.5756 73.5872C39.6146 73.5866 39.653 73.5963 39.687 73.6152C39.7211 73.6341 39.7496 73.6616 39.7696 73.695C39.7897 73.7284 39.8007 73.7664 39.8015 73.8054L39.8013 76.4167Z" fill="#FAFAFA"/>
<path d="M41.3819 76.4167C41.3819 76.475 41.3587 76.5309 41.3175 76.5721C41.2763 76.6133 41.2203 76.6365 41.162 76.6365C41.1037 76.6365 41.0478 76.6133 41.0066 76.5721C40.9654 76.5309 40.9422 76.475 40.9422 76.4167V74.2011L40.7291 74.333C40.6796 74.3636 40.6199 74.3732 40.5632 74.3598C40.5065 74.3465 40.4575 74.3111 40.4269 74.2615C40.3963 74.212 40.3866 74.1523 40.4 74.0956C40.4134 74.0389 40.4487 73.9899 40.4983 73.9592L41.0455 73.6184C41.079 73.5985 41.1171 73.5877 41.156 73.5872C41.195 73.5866 41.2334 73.5963 41.2674 73.6152C41.3015 73.6341 41.3299 73.6616 41.35 73.695C41.3701 73.7284 41.3811 73.7664 41.3819 73.8054V76.4167Z" fill="#FAFAFA"/>
<path d="M39.188 73.8965H41.4797" stroke="#191919" stroke-width="0.343756" stroke-linecap="round" stroke-linejoin="round"/>
<path d="M40.334 75.0437V72.752" stroke="#191919" stroke-width="0.343756" stroke-linecap="round" stroke-linejoin="round"/>
<path d="M10.2395 54.5372C10.6084 54.5368 10.9621 54.39 11.2229 54.1292C11.4838 53.8684 11.6305 53.5147 11.6309 53.1458V52.6643C10.7108 52.8377 9.76574 52.8309 8.84814 52.6445V53.1458C8.84858 53.5147 8.99531 53.8684 9.25615 54.1292C9.51699 54.39 9.87064 54.5368 10.2395 54.5372Z" fill="#FAFAFA"/>
<path d="M15.9394 57.2914L14.7985 54.8932C14.5833 54.4443 14.2042 54.0949 13.7392 53.9171L12.8685 53.5853C12.5239 53.4834 12.2725 53.0787 12.0704 52.8027V53.0801C12.0787 53.336 12.0335 53.5907 11.9377 53.8281C11.842 54.0655 11.6979 54.2803 11.5145 54.4589C11.3311 54.6375 11.1124 54.7758 10.8726 54.8652C10.6327 54.9545 10.3768 54.9929 10.1213 54.9778C9.86578 54.9628 9.6162 54.8946 9.38849 54.7777C9.16078 54.6607 8.95995 54.4976 8.79881 54.2988C8.63767 54.0999 8.51975 53.8696 8.4526 53.6226C8.38544 53.3756 8.37051 53.1173 8.40876 52.8642C8.2582 53.1537 8.01195 53.382 7.71195 53.5104L6.89634 53.8029C6.42821 53.9684 6.04227 54.3087 5.81928 54.7523L4.53974 57.2914C4.52197 57.3299 4.52009 57.3739 4.53449 57.4138C4.54889 57.4536 4.57842 57.4862 4.61669 57.5045L6.32097 58.2795C6.35298 58.2941 6.38803 58.3008 6.42317 58.2991C6.45832 58.2973 6.49253 58.2871 6.52292 58.2694C6.55332 58.2517 6.57902 58.2269 6.59787 58.1972C6.61671 58.1675 6.62815 58.1337 6.63121 58.0987L6.69387 57.3843C6.7004 57.327 6.72905 57.2745 6.77372 57.238C6.81839 57.2015 6.87554 57.1839 6.93299 57.1889C6.99045 57.194 7.04367 57.2212 7.08132 57.2649C7.11896 57.3086 7.13806 57.3653 7.13453 57.4229L6.60386 63.455C6.60365 63.4978 6.61222 63.5403 6.62905 63.5797C6.64588 63.6191 6.67061 63.6546 6.70172 63.684C6.73282 63.7135 6.76964 63.7363 6.80989 63.7509C6.85014 63.7656 6.89297 63.7719 6.93574 63.7693H13.561C13.604 63.7719 13.647 63.7655 13.6874 63.7507C13.7278 63.7359 13.7647 63.713 13.7958 63.6833C13.827 63.6536 13.8517 63.6178 13.8684 63.5781C13.8851 63.5385 13.8934 63.4958 13.8929 63.4528C13.799 62.4461 13.4104 58.3409 13.3242 57.4241C13.3201 57.3667 13.3386 57.31 13.3758 57.2661C13.4129 57.2222 13.4658 57.1946 13.5231 57.1892C13.5803 57.1838 13.6374 57.2011 13.6821 57.2373C13.7269 57.2735 13.7556 57.3257 13.7622 57.3829L13.829 58.0899C13.8323 58.1246 13.8438 58.1581 13.8626 58.1875C13.8814 58.2169 13.9069 58.2414 13.937 58.259C13.9671 58.2766 14.001 58.2868 14.0359 58.2886C14.0707 58.2905 14.1055 58.2841 14.1374 58.2699L15.8625 57.5002C15.9002 57.4824 15.9294 57.4506 15.9437 57.4115C15.9581 57.3724 15.9566 57.3294 15.9394 57.2914ZM9.82179 61.5182C9.82004 61.5754 9.79613 61.6295 9.75512 61.6693C9.7141 61.7091 9.65921 61.7314 9.60207 61.7314C9.54493 61.7314 9.49003 61.7091 9.44902 61.6693C9.408 61.6295 9.38409 61.5754 9.38235 61.5182V59.3027L9.16906 59.4345C9.11954 59.4638 9.06051 59.4725 9.00465 59.4587C8.9488 59.4449 8.90058 59.4098 8.87037 59.3608C8.84015 59.3119 8.83036 59.253 8.84308 59.1969C8.85581 59.1408 8.89004 59.0919 8.93842 59.0608L9.48562 58.72C9.51911 58.7001 9.55722 58.6893 9.59616 58.6887C9.6351 58.6882 9.6735 58.6978 9.70754 58.7168C9.74158 58.7357 9.77006 58.7632 9.79014 58.7966C9.81022 58.8299 9.82121 58.868 9.82199 58.9069L9.82179 61.5182ZM11.4024 61.5182C11.4024 61.5765 11.3792 61.6325 11.338 61.6737C11.2968 61.7149 11.2409 61.7381 11.1826 61.7381C11.1243 61.7381 11.0683 61.7149 11.0271 61.6737C10.9859 61.6325 10.9627 61.5765 10.9627 61.5182V59.3027L10.7496 59.4345C10.7001 59.4651 10.6404 59.4748 10.5837 59.4614C10.527 59.448 10.478 59.4126 10.4474 59.3631C10.4168 59.3135 10.4071 59.2538 10.4205 59.1972C10.4339 59.1405 10.4692 59.0914 10.5188 59.0608L11.066 58.72C11.0995 58.7001 11.1376 58.6893 11.1765 58.6887C11.2155 58.6882 11.2539 58.6978 11.2879 58.7168C11.322 58.7357 11.3504 58.7632 11.3705 58.7966C11.3906 58.8299 11.4016 58.868 11.4024 58.9069V61.5182Z" fill="#FAFAFA"/>
<path d="M9.82179 61.5182C9.82004 61.5754 9.79613 61.6295 9.75512 61.6693C9.7141 61.7091 9.65921 61.7314 9.60207 61.7314C9.54493 61.7314 9.49003 61.7091 9.44902 61.6693C9.408 61.6295 9.38409 61.5754 9.38235 61.5182V59.3027L9.16906 59.4345C9.11954 59.4638 9.06051 59.4725 9.00465 59.4587C8.9488 59.4449 8.90058 59.4098 8.87037 59.3608C8.84015 59.3119 8.83036 59.253 8.84308 59.1969C8.85581 59.1408 8.89004 59.0919 8.93842 59.0608L9.48562 58.72C9.51911 58.7001 9.55722 58.6893 9.59616 58.6887C9.6351 58.6882 9.6735 58.6978 9.70754 58.7168C9.74158 58.7357 9.77006 58.7632 9.79014 58.7966C9.81022 58.8299 9.82121 58.868 9.82199 58.9069L9.82179 61.5182Z" fill="#FAFAFA"/>
<path d="M11.4024 61.5182C11.4024 61.5765 11.3792 61.6325 11.338 61.6737C11.2968 61.7149 11.2409 61.7381 11.1826 61.7381C11.1243 61.7381 11.0683 61.7149 11.0271 61.6737C10.9859 61.6325 10.9627 61.5765 10.9627 61.5182V59.3027L10.7496 59.4345C10.7001 59.4651 10.6404 59.4748 10.5837 59.4614C10.527 59.448 10.478 59.4126 10.4474 59.3631C10.4168 59.3135 10.4071 59.2538 10.4205 59.1972C10.4339 59.1405 10.4692 59.0914 10.5188 59.0608L11.066 58.72C11.0995 58.7001 11.1376 58.6893 11.1765 58.6887C11.2155 58.6882 11.2539 58.6978 11.2879 58.7168C11.322 58.7357 11.3504 58.7632 11.3705 58.7966C11.3906 58.8299 11.4016 58.868 11.4024 58.9069V61.5182Z" fill="#FAFAFA"/>
<path d="M9.2085 59.002H11.5002" stroke="#191919" stroke-width="0.343756" stroke-linecap="round" stroke-linejoin="round"/>
<path d="M10.3545 60.1491V57.8574" stroke="#191919" stroke-width="0.343756" stroke-linecap="round" stroke-linejoin="round"/>
<path d="M10.2395 30.5372C10.6084 30.5368 10.9621 30.39 11.2229 30.1292C11.4838 29.8684 11.6305 29.5147 11.6309 29.1458V28.6643C10.7108 28.8377 9.76574 28.8309 8.84814 28.6445V29.1458C8.84858 29.5147 8.99531 29.8684 9.25615 30.1292C9.51699 30.39 9.87064 30.5368 10.2395 30.5372Z" fill="#FAFAFA"/>
<path d="M15.9394 33.2914L14.7985 30.8932C14.5833 30.4443 14.2042 30.0949 13.7392 29.9171L12.8685 29.5853C12.5239 29.4834 12.2725 29.0787 12.0704 28.8027V29.0801C12.0787 29.336 12.0335 29.5907 11.9377 29.8281C11.842 30.0655 11.6979 30.2803 11.5145 30.4589C11.3311 30.6375 11.1124 30.7758 10.8726 30.8652C10.6327 30.9545 10.3768 30.9929 10.1213 30.9778C9.86578 30.9628 9.6162 30.8946 9.38849 30.7777C9.16078 30.6607 8.95995 30.4976 8.79881 30.2988C8.63767 30.0999 8.51975 29.8696 8.4526 29.6226C8.38544 29.3756 8.37051 29.1173 8.40876 28.8642C8.2582 29.1537 8.01195 29.382 7.71195 29.5104L6.89634 29.8029C6.42821 29.9684 6.04227 30.3087 5.81928 30.7523L4.53974 33.2914C4.52197 33.3299 4.52009 33.3739 4.53449 33.4138C4.54889 33.4536 4.57842 33.4862 4.61669 33.5045L6.32097 34.2795C6.35298 34.2941 6.38803 34.3008 6.42317 34.2991C6.45832 34.2973 6.49253 34.2871 6.52292 34.2694C6.55332 34.2517 6.57902 34.2269 6.59787 34.1972C6.61671 34.1675 6.62815 34.1337 6.63121 34.0987L6.69387 33.3843C6.7004 33.327 6.72905 33.2745 6.77372 33.238C6.81839 33.2015 6.87554 33.1839 6.93299 33.1889C6.99045 33.194 7.04367 33.2212 7.08132 33.2649C7.11896 33.3086 7.13806 33.3653 7.13453 33.4229L6.60386 39.455C6.60365 39.4978 6.61222 39.5403 6.62905 39.5797C6.64588 39.6191 6.67061 39.6546 6.70172 39.684C6.73282 39.7135 6.76964 39.7363 6.80989 39.7509C6.85014 39.7656 6.89297 39.7719 6.93574 39.7693H13.561C13.604 39.7719 13.647 39.7655 13.6874 39.7507C13.7278 39.7359 13.7647 39.713 13.7958 39.6833C13.827 39.6536 13.8517 39.6178 13.8684 39.5781C13.8851 39.5385 13.8934 39.4958 13.8929 39.4528C13.799 38.4461 13.4104 34.3409 13.3242 33.4241C13.3201 33.3667 13.3386 33.31 13.3758 33.2661C13.4129 33.2222 13.4658 33.1946 13.5231 33.1892C13.5803 33.1838 13.6374 33.2011 13.6821 33.2373C13.7269 33.2735 13.7556 33.3257 13.7622 33.3829L13.829 34.0899C13.8323 34.1246 13.8438 34.1581 13.8626 34.1875C13.8814 34.2169 13.9069 34.2414 13.937 34.259C13.9671 34.2766 14.001 34.2868 14.0359 34.2886C14.0707 34.2905 14.1055 34.2841 14.1374 34.2699L15.8625 33.5002C15.9002 33.4824 15.9294 33.4506 15.9437 33.4115C15.9581 33.3724 15.9566 33.3294 15.9394 33.2914ZM9.82179 37.5182C9.82004 37.5754 9.79613 37.6295 9.75512 37.6693C9.7141 37.7091 9.65921 37.7314 9.60207 37.7314C9.54493 37.7314 9.49003 37.7091 9.44902 37.6693C9.408 37.6295 9.38409 37.5754 9.38235 37.5182V35.3027L9.16906 35.4345C9.11954 35.4638 9.06051 35.4725 9.00465 35.4587C8.9488 35.4449 8.90058 35.4098 8.87037 35.3608C8.84015 35.3119 8.83036 35.253 8.84308 35.1969C8.85581 35.1408 8.89004 35.0919 8.93842 35.0608L9.48562 34.72C9.51911 34.7001 9.55722 34.6893 9.59616 34.6887C9.6351 34.6882 9.6735 34.6978 9.70754 34.7168C9.74158 34.7357 9.77006 34.7632 9.79014 34.7966C9.81022 34.8299 9.82121 34.868 9.82199 34.9069L9.82179 37.5182ZM11.4024 37.5182C11.4024 37.5765 11.3792 37.6325 11.338 37.6737C11.2968 37.7149 11.2409 37.7381 11.1826 37.7381C11.1243 37.7381 11.0683 37.7149 11.0271 37.6737C10.9859 37.6325 10.9627 37.5765 10.9627 37.5182V35.3027L10.7496 35.4345C10.7001 35.4651 10.6404 35.4748 10.5837 35.4614C10.527 35.448 10.478 35.4126 10.4474 35.3631C10.4168 35.3135 10.4071 35.2538 10.4205 35.1972C10.4339 35.1405 10.4692 35.0914 10.5188 35.0608L11.066 34.72C11.0995 34.7001 11.1376 34.6893 11.1765 34.6887C11.2155 34.6882 11.2539 34.6978 11.2879 34.7168C11.322 34.7357 11.3504 34.7632 11.3705 34.7966C11.3906 34.8299 11.4016 34.868 11.4024 34.9069V37.5182Z" fill="#FAFAFA"/>
<path d="M9.82179 37.5182C9.82004 37.5754 9.79613 37.6295 9.75512 37.6693C9.7141 37.7091 9.65921 37.7314 9.60207 37.7314C9.54493 37.7314 9.49003 37.7091 9.44902 37.6693C9.408 37.6295 9.38409 37.5754 9.38235 37.5182V35.3027L9.16906 35.4345C9.11954 35.4638 9.06051 35.4725 9.00465 35.4587C8.9488 35.4449 8.90058 35.4098 8.87037 35.3608C8.84015 35.3119 8.83036 35.253 8.84308 35.1969C8.85581 35.1408 8.89004 35.0919 8.93842 35.0608L9.48562 34.72C9.51911 34.7001 9.55722 34.6893 9.59616 34.6887C9.6351 34.6882 9.6735 34.6978 9.70754 34.7168C9.74158 34.7357 9.77006 34.7632 9.79014 34.7966C9.81022 34.8299 9.82121 34.868 9.82199 34.9069L9.82179 37.5182Z" fill="#FAFAFA"/>
<path d="M11.4024 37.5182C11.4024 37.5765 11.3792 37.6325 11.338 37.6737C11.2968 37.7149 11.2409 37.7381 11.1826 37.7381C11.1243 37.7381 11.0683 37.7149 11.0271 37.6737C10.9859 37.6325 10.9627 37.5765 10.9627 37.5182V35.3027L10.7496 35.4345C10.7001 35.4651 10.6404 35.4748 10.5837 35.4614C10.527 35.448 10.478 35.4126 10.4474 35.3631C10.4168 35.3135 10.4071 35.2538 10.4205 35.1972C10.4339 35.1405 10.4692 35.0914 10.5188 35.0608L11.066 34.72C11.0995 34.7001 11.1376 34.6893 11.1765 34.6887C11.2155 34.6882 11.2539 34.6978 11.2879 34.7168C11.322 34.7357 11.3504 34.7632 11.3705 34.7966C11.3906 34.8299 11.4016 34.868 11.4024 34.9069V37.5182Z" fill="#FAFAFA"/>
<path d="M9.2085 35.002H11.5002" stroke="#191919" stroke-width="0.343756" stroke-linecap="round" stroke-linejoin="round"/>
<path d="M10.3545 36.1491V33.8574" stroke="#191919" stroke-width="0.343756" stroke-linecap="round" stroke-linejoin="round"/>
<path d="M20.2395 6.5372C20.6084 6.53677 20.9621 6.39004 21.2229 6.1292C21.4838 5.86835 21.6305 5.5147 21.6309 5.14581V4.66433C20.7108 4.83767 19.7657 4.83094 18.8481 4.64453V5.14581C18.8486 5.5147 18.9953 5.86835 19.2561 6.1292C19.517 6.39004 19.8706 6.53677 20.2395 6.5372Z" fill="#FAFAFA"/>
<path d="M25.9394 9.29142L24.7985 6.89318C24.5833 6.44426 24.2042 6.09493 23.7392 5.91715L22.8685 5.58527C22.5239 5.48343 22.2725 5.07868 22.0704 4.80273V5.08011C22.0787 5.33595 22.0335 5.5907 21.9377 5.8281C21.842 6.0655 21.6979 6.28034 21.5145 6.45891C21.3311 6.63747 21.1124 6.77584 20.8726 6.86519C20.6327 6.95454 20.3768 6.99291 20.1213 6.97784C19.8658 6.96277 19.6162 6.8946 19.3885 6.77767C19.1608 6.66075 18.9599 6.49764 18.7988 6.29875C18.6377 6.09987 18.5198 5.86957 18.4526 5.62257C18.3854 5.37556 18.3705 5.11727 18.4088 4.86417C18.2582 5.15366 18.012 5.38202 17.7119 5.51037L16.8963 5.80285C16.4282 5.96844 16.0423 6.30868 15.8193 6.75235L14.5397 9.29142C14.522 9.32992 14.5201 9.37387 14.5345 9.41375C14.5489 9.45364 14.5784 9.48624 14.6167 9.50451L16.321 10.2795C16.353 10.2941 16.388 10.3008 16.4232 10.2991C16.4583 10.2973 16.4925 10.2871 16.5229 10.2694C16.5533 10.2517 16.579 10.2269 16.5979 10.1972C16.6167 10.1675 16.6281 10.1337 16.6312 10.0987L16.6939 9.38429C16.7004 9.32698 16.7291 9.27449 16.7737 9.238C16.8184 9.20151 16.8755 9.18391 16.933 9.18894C16.9904 9.19397 17.0437 9.22124 17.0813 9.26493C17.119 9.30863 17.1381 9.3653 17.1345 9.42286L16.6039 15.455C16.6036 15.4978 16.6122 15.5403 16.6291 15.5797C16.6459 15.6191 16.6706 15.6546 16.7017 15.684C16.7328 15.7135 16.7696 15.7363 16.8099 15.7509C16.8501 15.7656 16.893 15.7719 16.9357 15.7693H23.561C23.604 15.7719 23.647 15.7655 23.6874 15.7507C23.7278 15.7359 23.7647 15.713 23.7958 15.6833C23.827 15.6536 23.8517 15.6178 23.8684 15.5781C23.8851 15.5385 23.8934 15.4958 23.8929 15.4528C23.799 14.4461 23.4104 10.3409 23.3242 9.42409C23.3201 9.36671 23.3386 9.31 23.3758 9.2661C23.4129 9.22219 23.4658 9.19459 23.5231 9.1892C23.5803 9.18381 23.6374 9.20106 23.6821 9.23726C23.7269 9.27346 23.7556 9.32572 23.7622 9.38286L23.829 10.0899C23.8323 10.1246 23.8438 10.1581 23.8626 10.1875C23.8814 10.2169 23.9069 10.2414 23.937 10.259C23.9671 10.2766 24.001 10.2868 24.0359 10.2886C24.0707 10.2905 24.1055 10.2841 24.1374 10.2699L25.8625 9.50022C25.9002 9.48244 25.9294 9.45057 25.9437 9.41147C25.9581 9.37237 25.9566 9.32939 25.9394 9.29142ZM19.8218 13.5182C19.82 13.5754 19.7961 13.6295 19.7551 13.6693C19.7141 13.7091 19.6592 13.7314 19.6021 13.7314C19.5449 13.7314 19.49 13.7091 19.449 13.6693C19.408 13.6295 19.3841 13.5754 19.3823 13.5182V11.3027L19.1691 11.4345C19.1195 11.4638 19.0605 11.4725 19.0047 11.4587C18.9488 11.4449 18.9006 11.4098 18.8704 11.3608C18.8402 11.3119 18.8304 11.253 18.8431 11.1969C18.8558 11.1408 18.89 11.0919 18.9384 11.0608L19.4856 10.72C19.5191 10.7001 19.5572 10.6893 19.5962 10.6887C19.6351 10.6882 19.6735 10.6978 19.7075 10.7168C19.7416 10.7357 19.7701 10.7632 19.7901 10.7966C19.8102 10.8299 19.8212 10.868 19.822 10.9069L19.8218 13.5182ZM21.4024 13.5182C21.4024 13.5765 21.3792 13.6325 21.338 13.6737C21.2968 13.7149 21.2409 13.7381 21.1826 13.7381C21.1243 13.7381 21.0683 13.7149 21.0271 13.6737C20.9859 13.6325 20.9627 13.5765 20.9627 13.5182V11.3027L20.7496 11.4345C20.7001 11.4651 20.6404 11.4748 20.5837 11.4614C20.527 11.448 20.478 11.4126 20.4474 11.3631C20.4168 11.3135 20.4071 11.2538 20.4205 11.1972C20.4339 11.1405 20.4692 11.0914 20.5188 11.0608L21.066 10.72C21.0995 10.7001 21.1376 10.6893 21.1765 10.6887C21.2155 10.6882 21.2539 10.6978 21.2879 10.7168C21.322 10.7357 21.3504 10.7632 21.3705 10.7966C21.3906 10.8299 21.4016 10.868 21.4024 10.9069V13.5182Z" fill="#FAFAFA"/>
<path d="M19.8218 13.5182C19.82 13.5754 19.7961 13.6295 19.7551 13.6693C19.7141 13.7091 19.6592 13.7314 19.6021 13.7314C19.5449 13.7314 19.49 13.7091 19.449 13.6693C19.408 13.6295 19.3841 13.5754 19.3823 13.5182V11.3027L19.1691 11.4345C19.1195 11.4638 19.0605 11.4725 19.0047 11.4587C18.9488 11.4449 18.9006 11.4098 18.8704 11.3608C18.8402 11.3119 18.8304 11.253 18.8431 11.1969C18.8558 11.1408 18.89 11.0919 18.9384 11.0608L19.4856 10.72C19.5191 10.7001 19.5572 10.6893 19.5962 10.6887C19.6351 10.6882 19.6735 10.6978 19.7075 10.7168C19.7416 10.7357 19.7701 10.7632 19.7901 10.7966C19.8102 10.8299 19.8212 10.868 19.822 10.9069L19.8218 13.5182Z" fill="#FAFAFA"/>
<path d="M21.4024 13.5182C21.4024 13.5765 21.3792 13.6325 21.338 13.6737C21.2968 13.7149 21.2409 13.7381 21.1826 13.7381C21.1243 13.7381 21.0683 13.7149 21.0271 13.6737C20.9859 13.6325 20.9627 13.5765 20.9627 13.5182V11.3027L20.7496 11.4345C20.7001 11.4651 20.6404 11.4748 20.5837 11.4614C20.527 11.448 20.478 11.4126 20.4474 11.3631C20.4168 11.3135 20.4071 11.2538 20.4205 11.1972C20.4339 11.1405 20.4692 11.0914 20.5188 11.0608L21.066 10.72C21.0995 10.7001 21.1376 10.6893 21.1765 10.6887C21.2155 10.6882 21.2539 10.6978 21.2879 10.7168C21.322 10.7357 21.3504 10.7632 21.3705 10.7966C21.3906 10.8299 21.4016 10.868 21.4024 10.9069V13.5182Z" fill="#FAFAFA"/>
<path d="M19.2085 11.002H21.5002" stroke="#191919" stroke-width="0.343756" stroke-linecap="round" stroke-linejoin="round"/>
<path d="M20.3545 12.1491V9.85742" stroke="#191919" stroke-width="0.343756" stroke-linecap="round" stroke-linejoin="round"/>
<path d="M70.9695 54.5372C71.3384 54.5368 71.6921 54.39 71.9529 54.1292C72.2137 53.8684 72.3605 53.5147 72.3609 53.1458V52.6643C71.4407 52.8377 70.4957 52.8309 69.5781 52.6445V53.1458C69.5786 53.5147 69.7253 53.8684 69.9861 54.1292C70.247 54.39 70.6006 54.5368 70.9695 54.5372Z" fill="#FAFAFA"/>
<path d="M76.6694 57.2914L75.5285 54.8932C75.3133 54.4443 74.9342 54.0949 74.4692 53.9171L73.5984 53.5853C73.2539 53.4834 73.0025 53.0787 72.8004 52.8027V53.0801C72.8086 53.336 72.7634 53.5907 72.6677 53.8281C72.572 54.0655 72.4278 54.2803 72.2444 54.4589C72.061 54.6375 71.8424 54.7758 71.6026 54.8652C71.3627 54.9545 71.1068 54.9929 70.8513 54.9778C70.5958 54.9628 70.3462 54.8946 70.1185 54.7777C69.8908 54.6607 69.6899 54.4976 69.5288 54.2988C69.3676 54.0999 69.2497 53.8696 69.1826 53.6226C69.1154 53.3756 69.1005 53.1173 69.1387 52.8642C68.9882 53.1537 68.7419 53.382 68.4419 53.5104L67.6263 53.8029C67.1582 53.9684 66.7722 54.3087 66.5493 54.7523L65.2697 57.2914C65.252 57.3299 65.2501 57.3739 65.2645 57.4138C65.2789 57.4536 65.3084 57.4862 65.3467 57.5045L67.051 58.2795C67.083 58.2941 67.118 58.3008 67.1532 58.2991C67.1883 58.2973 67.2225 58.2871 67.2529 58.2694C67.2833 58.2517 67.309 58.2269 67.3278 58.1972C67.3467 58.1675 67.3581 58.1337 67.3612 58.0987L67.4239 57.3843C67.4304 57.327 67.459 57.2745 67.5037 57.238C67.5484 57.2015 67.6055 57.1839 67.663 57.1889C67.7204 57.194 67.7737 57.2212 67.8113 57.2649C67.8489 57.3086 67.868 57.3653 67.8645 57.4229L67.3338 63.455C67.3336 63.4978 67.3422 63.5403 67.359 63.5797C67.3759 63.6191 67.4006 63.6546 67.4317 63.684C67.4628 63.7135 67.4996 63.7363 67.5399 63.7509C67.5801 63.7656 67.623 63.7719 67.6657 63.7693H74.291C74.3339 63.7719 74.377 63.7655 74.4174 63.7507C74.4578 63.7359 74.4947 63.713 74.5258 63.6833C74.557 63.6536 74.5816 63.6178 74.5983 63.5781C74.615 63.5385 74.6234 63.4958 74.6229 63.4528C74.529 62.4461 74.1403 58.3409 74.0542 57.4241C74.0501 57.3667 74.0686 57.31 74.1057 57.2661C74.1429 57.2222 74.1958 57.1946 74.2531 57.1892C74.3103 57.1838 74.3674 57.2011 74.4121 57.2373C74.4568 57.2735 74.4856 57.3257 74.4922 57.3829L74.559 58.0899C74.5623 58.1246 74.5738 58.1581 74.5926 58.1875C74.6113 58.2169 74.6369 58.2414 74.667 58.259C74.6971 58.2766 74.731 58.2868 74.7659 58.2886C74.8007 58.2905 74.8355 58.2841 74.8674 58.2699L76.5925 57.5002C76.6301 57.4824 76.6593 57.4506 76.6737 57.4115C76.6881 57.3724 76.6866 57.3294 76.6694 57.2914ZM70.5518 61.5182C70.55 61.5754 70.5261 61.6295 70.4851 61.6693C70.4441 61.7091 70.3892 61.7314 70.332 61.7314C70.2749 61.7314 70.22 61.7091 70.179 61.6693C70.138 61.6295 70.1141 61.5754 70.1123 61.5182V59.3027L69.899 59.4345C69.8495 59.4638 69.7905 59.4725 69.7346 59.4587C69.6788 59.4449 69.6306 59.4098 69.6003 59.3608C69.5701 59.3119 69.5603 59.253 69.5731 59.1969C69.5858 59.1408 69.62 59.0919 69.6684 59.0608L70.2156 58.72C70.2491 58.7001 70.2872 58.6893 70.3261 58.6887C70.3651 58.6882 70.4035 58.6978 70.4375 58.7168C70.4716 58.7357 70.5 58.7632 70.5201 58.7966C70.5402 58.8299 70.5512 58.868 70.552 58.9069L70.5518 61.5182ZM72.1324 61.5182C72.1324 61.5765 72.1092 61.6325 72.068 61.6737C72.0267 61.7149 71.9708 61.7381 71.9125 61.7381C71.8542 61.7381 71.7983 61.7149 71.7571 61.6737C71.7159 61.6325 71.6927 61.5765 71.6927 61.5182V59.3027L71.4796 59.4345C71.4301 59.4651 71.3704 59.4748 71.3137 59.4614C71.257 59.448 71.208 59.4126 71.1774 59.3631C71.1467 59.3135 71.1371 59.2538 71.1505 59.1972C71.1639 59.1405 71.1992 59.0914 71.2488 59.0608L71.796 58.72C71.8295 58.7001 71.8676 58.6893 71.9065 58.6887C71.9455 58.6882 71.9839 58.6978 72.0179 58.7168C72.0519 58.7357 72.0804 58.7632 72.1005 58.7966C72.1206 58.8299 72.1316 58.868 72.1324 58.9069V61.5182Z" fill="#FAFAFA"/>
<path d="M70.5518 61.5182C70.55 61.5754 70.5261 61.6295 70.4851 61.6693C70.4441 61.7091 70.3892 61.7314 70.332 61.7314C70.2749 61.7314 70.22 61.7091 70.179 61.6693C70.138 61.6295 70.1141 61.5754 70.1123 61.5182V59.3027L69.899 59.4345C69.8495 59.4638 69.7905 59.4725 69.7346 59.4587C69.6788 59.4449 69.6306 59.4098 69.6003 59.3608C69.5701 59.3119 69.5603 59.253 69.5731 59.1969C69.5858 59.1408 69.62 59.0919 69.6684 59.0608L70.2156 58.72C70.2491 58.7001 70.2872 58.6893 70.3261 58.6887C70.3651 58.6882 70.4035 58.6978 70.4375 58.7168C70.4716 58.7357 70.5 58.7632 70.5201 58.7966C70.5402 58.8299 70.5512 58.868 70.552 58.9069L70.5518 61.5182Z" fill="#FAFAFA"/>
<path d="M72.1324 61.5182C72.1324 61.5765 72.1092 61.6325 72.068 61.6737C72.0267 61.7149 71.9708 61.7381 71.9125 61.7381C71.8542 61.7381 71.7983 61.7149 71.7571 61.6737C71.7159 61.6325 71.6927 61.5765 71.6927 61.5182V59.3027L71.4796 59.4345C71.4301 59.4651 71.3704 59.4748 71.3137 59.4614C71.257 59.448 71.208 59.4126 71.1774 59.3631C71.1467 59.3135 71.1371 59.2538 71.1505 59.1972C71.1639 59.1405 71.1992 59.0914 71.2488 59.0608L71.796 58.72C71.8295 58.7001 71.8676 58.6893 71.9065 58.6887C71.9455 58.6882 71.9839 58.6978 72.0179 58.7168C72.0519 58.7357 72.0804 58.7632 72.1005 58.7966C72.1206 58.8299 72.1316 58.868 72.1324 58.9069V61.5182Z" fill="#FAFAFA"/>
<path d="M69.9385 59.002H72.2302" stroke="#191919" stroke-width="0.343756" stroke-linecap="round" stroke-linejoin="round"/>
<path d="M71.0845 60.1491V57.8574" stroke="#191919" stroke-width="0.343756" stroke-linecap="round" stroke-linejoin="round"/>
<path d="M70.9695 30.5372C71.3384 30.5368 71.6921 30.39 71.9529 30.1292C72.2137 29.8684 72.3605 29.5147 72.3609 29.1458V28.6643C71.4407 28.8377 70.4957 28.8309 69.5781 28.6445V29.1458C69.5786 29.5147 69.7253 29.8684 69.9861 30.1292C70.247 30.39 70.6006 30.5368 70.9695 30.5372Z" fill="#FAFAFA"/>
<path d="M76.6694 33.2914L75.5285 30.8932C75.3133 30.4443 74.9342 30.0949 74.4692 29.9171L73.5984 29.5853C73.2539 29.4834 73.0025 29.0787 72.8004 28.8027V29.0801C72.8086 29.336 72.7634 29.5907 72.6677 29.8281C72.572 30.0655 72.4278 30.2803 72.2444 30.4589C72.061 30.6375 71.8424 30.7758 71.6026 30.8652C71.3627 30.9545 71.1068 30.9929 70.8513 30.9778C70.5958 30.9628 70.3462 30.8946 70.1185 30.7777C69.8908 30.6607 69.6899 30.4976 69.5288 30.2988C69.3676 30.0999 69.2497 29.8696 69.1826 29.6226C69.1154 29.3756 69.1005 29.1173 69.1387 28.8642C68.9882 29.1537 68.7419 29.382 68.4419 29.5104L67.6263 29.8029C67.1582 29.9684 66.7722 30.3087 66.5493 30.7523L65.2697 33.2914C65.252 33.3299 65.2501 33.3739 65.2645 33.4138C65.2789 33.4536 65.3084 33.4862 65.3467 33.5045L67.051 34.2795C67.083 34.2941 67.118 34.3008 67.1532 34.2991C67.1883 34.2973 67.2225 34.2871 67.2529 34.2694C67.2833 34.2517 67.309 34.2269 67.3278 34.1972C67.3467 34.1675 67.3581 34.1337 67.3612 34.0987L67.4239 33.3843C67.4304 33.327 67.459 33.2745 67.5037 33.238C67.5484 33.2015 67.6055 33.1839 67.663 33.1889C67.7204 33.194 67.7737 33.2212 67.8113 33.2649C67.8489 33.3086 67.868 33.3653 67.8645 33.4229L67.3338 39.455C67.3336 39.4978 67.3422 39.5403 67.359 39.5797C67.3759 39.6191 67.4006 39.6546 67.4317 39.684C67.4628 39.7135 67.4996 39.7363 67.5399 39.7509C67.5801 39.7656 67.623 39.7719 67.6657 39.7693H74.291C74.3339 39.7719 74.377 39.7655 74.4174 39.7507C74.4578 39.7359 74.4947 39.713 74.5258 39.6833C74.557 39.6536 74.5816 39.6178 74.5983 39.5781C74.615 39.5385 74.6234 39.4958 74.6229 39.4528C74.529 38.4461 74.1403 34.3409 74.0542 33.4241C74.0501 33.3667 74.0686 33.31 74.1057 33.2661C74.1429 33.2222 74.1958 33.1946 74.2531 33.1892C74.3103 33.1838 74.3674 33.2011 74.4121 33.2373C74.4568 33.2735 74.4856 33.3257 74.4922 33.3829L74.559 34.0899C74.5623 34.1246 74.5738 34.1581 74.5926 34.1875C74.6113 34.2169 74.6369 34.2414 74.667 34.259C74.6971 34.2766 74.731 34.2868 74.7659 34.2886C74.8007 34.2905 74.8355 34.2841 74.8674 34.2699L76.5925 33.5002C76.6301 33.4824 76.6593 33.4506 76.6737 33.4115C76.6881 33.3724 76.6866 33.3294 76.6694 33.2914ZM70.5518 37.5182C70.55 37.5754 70.5261 37.6295 70.4851 37.6693C70.4441 37.7091 70.3892 37.7314 70.332 37.7314C70.2749 37.7314 70.22 37.7091 70.179 37.6693C70.138 37.6295 70.1141 37.5754 70.1123 37.5182V35.3027L69.899 35.4345C69.8495 35.4638 69.7905 35.4725 69.7346 35.4587C69.6788 35.4449 69.6306 35.4098 69.6003 35.3608C69.5701 35.3119 69.5603 35.253 69.5731 35.1969C69.5858 35.1408 69.62 35.0919 69.6684 35.0608L70.2156 34.72C70.2491 34.7001 70.2872 34.6893 70.3261 34.6887C70.3651 34.6882 70.4035 34.6978 70.4375 34.7168C70.4716 34.7357 70.5 34.7632 70.5201 34.7966C70.5402 34.8299 70.5512 34.868 70.552 34.9069L70.5518 37.5182ZM72.1324 37.5182C72.1324 37.5765 72.1092 37.6325 72.068 37.6737C72.0267 37.7149 71.9708 37.7381 71.9125 37.7381C71.8542 37.7381 71.7983 37.7149 71.7571 37.6737C71.7159 37.6325 71.6927 37.5765 71.6927 37.5182V35.3027L71.4796 35.4345C71.4301 35.4651 71.3704 35.4748 71.3137 35.4614C71.257 35.448 71.208 35.4126 71.1774 35.3631C71.1467 35.3135 71.1371 35.2538 71.1505 35.1972C71.1639 35.1405 71.1992 35.0914 71.2488 35.0608L71.796 34.72C71.8295 34.7001 71.8676 34.6893 71.9065 34.6887C71.9455 34.6882 71.9839 34.6978 72.0179 34.7168C72.0519 34.7357 72.0804 34.7632 72.1005 34.7966C72.1206 34.8299 72.1316 34.868 72.1324 34.9069V37.5182Z" fill="#FAFAFA"/>
<path d="M70.5518 37.5182C70.55 37.5754 70.5261 37.6295 70.4851 37.6693C70.4441 37.7091 70.3892 37.7314 70.332 37.7314C70.2749 37.7314 70.22 37.7091 70.179 37.6693C70.138 37.6295 70.1141 37.5754 70.1123 37.5182V35.3027L69.899 35.4345C69.8495 35.4638 69.7905 35.4725 69.7346 35.4587C69.6788 35.4449 69.6306 35.4098 69.6003 35.3608C69.5701 35.3119 69.5603 35.253 69.5731 35.1969C69.5858 35.1408 69.62 35.0919 69.6684 35.0608L70.2156 34.72C70.2491 34.7001 70.2872 34.6893 70.3261 34.6887C70.3651 34.6882 70.4035 34.6978 70.4375 34.7168C70.4716 34.7357 70.5 34.7632 70.5201 34.7966C70.5402 34.8299 70.5512 34.868 70.552 34.9069L70.5518 37.5182Z" fill="#FAFAFA"/>
<path d="M72.1324 37.5182C72.1324 37.5765 72.1092 37.6325 72.068 37.6737C72.0267 37.7149 71.9708 37.7381 71.9125 37.7381C71.8542 37.7381 71.7983 37.7149 71.7571 37.6737C71.7159 37.6325 71.6927 37.5765 71.6927 37.5182V35.3027L71.4796 35.4345C71.4301 35.4651 71.3704 35.4748 71.3137 35.4614C71.257 35.448 71.208 35.4126 71.1774 35.3631C71.1467 35.3135 71.1371 35.2538 71.1505 35.1972C71.1639 35.1405 71.1992 35.0914 71.2488 35.0608L71.796 34.72C71.8295 34.7001 71.8676 34.6893 71.9065 34.6887C71.9455 34.6882 71.9839 34.6978 72.0179 34.7168C72.0519 34.7357 72.0804 34.7632 72.1005 34.7966C72.1206 34.8299 72.1316 34.868 72.1324 34.9069V37.5182Z" fill="#FAFAFA"/>
<path d="M69.9385 35.002H72.2302" stroke="#191919" stroke-width="0.343756" stroke-linecap="round" stroke-linejoin="round"/>
<path d="M71.0845 36.1491V33.8574" stroke="#191919" stroke-width="0.343756" stroke-linecap="round" stroke-linejoin="round"/>
<path d="M60.9695 6.5372C61.3384 6.53677 61.6921 6.39004 61.9529 6.1292C62.2137 5.86835 62.3605 5.5147 62.3609 5.14581V4.66433C61.4407 4.83767 60.4957 4.83094 59.5781 4.64453V5.14581C59.5786 5.5147 59.7253 5.86835 59.9861 6.1292C60.247 6.39004 60.6006 6.53677 60.9695 6.5372Z" fill="#FAFAFA"/>
<path d="M66.6694 9.29142L65.5285 6.89318C65.3133 6.44426 64.9342 6.09493 64.4692 5.91715L63.5984 5.58527C63.2539 5.48343 63.0025 5.07868 62.8004 4.80273V5.08011C62.8086 5.33595 62.7634 5.5907 62.6677 5.8281C62.572 6.0655 62.4278 6.28034 62.2444 6.45891C62.061 6.63747 61.8424 6.77584 61.6026 6.86519C61.3627 6.95454 61.1068 6.99291 60.8513 6.97784C60.5958 6.96277 60.3462 6.8946 60.1185 6.77767C59.8908 6.66075 59.6899 6.49764 59.5288 6.29875C59.3676 6.09987 59.2497 5.86957 59.1826 5.62257C59.1154 5.37556 59.1005 5.11727 59.1387 4.86417C58.9882 5.15366 58.7419 5.38202 58.4419 5.51037L57.6263 5.80285C57.1582 5.96844 56.7722 6.30868 56.5493 6.75235L55.2697 9.29142C55.252 9.32992 55.2501 9.37387 55.2645 9.41375C55.2789 9.45364 55.3084 9.48624 55.3467 9.50451L57.051 10.2795C57.083 10.2941 57.118 10.3008 57.1532 10.2991C57.1883 10.2973 57.2225 10.2871 57.2529 10.2694C57.2833 10.2517 57.309 10.2269 57.3278 10.1972C57.3467 10.1675 57.3581 10.1337 57.3612 10.0987L57.4239 9.38429C57.4304 9.32698 57.459 9.27449 57.5037 9.238C57.5484 9.20151 57.6055 9.18391 57.663 9.18894C57.7204 9.19397 57.7737 9.22124 57.8113 9.26493C57.8489 9.30863 57.868 9.3653 57.8645 9.42286L57.3338 15.455C57.3336 15.4978 57.3422 15.5403 57.359 15.5797C57.3759 15.6191 57.4006 15.6546 57.4317 15.684C57.4628 15.7135 57.4996 15.7363 57.5399 15.7509C57.5801 15.7656 57.623 15.7719 57.6657 15.7693H64.291C64.3339 15.7719 64.377 15.7655 64.4174 15.7507C64.4578 15.7359 64.4947 15.713 64.5258 15.6833C64.557 15.6536 64.5816 15.6178 64.5983 15.5781C64.615 15.5385 64.6234 15.4958 64.6229 15.4528C64.529 14.4461 64.1403 10.3409 64.0542 9.42409C64.0501 9.36671 64.0686 9.31 64.1057 9.2661C64.1429 9.22219 64.1958 9.19459 64.2531 9.1892C64.3103 9.18381 64.3674 9.20106 64.4121 9.23726C64.4568 9.27346 64.4856 9.32572 64.4922 9.38286L64.559 10.0899C64.5623 10.1246 64.5738 10.1581 64.5926 10.1875C64.6113 10.2169 64.6369 10.2414 64.667 10.259C64.6971 10.2766 64.731 10.2868 64.7659 10.2886C64.8007 10.2905 64.8355 10.2841 64.8674 10.2699L66.5925 9.50022C66.6301 9.48244 66.6593 9.45057 66.6737 9.41147C66.6881 9.37237 66.6866 9.32939 66.6694 9.29142ZM60.5518 13.5182C60.55 13.5754 60.5261 13.6295 60.4851 13.6693C60.4441 13.7091 60.3892 13.7314 60.332 13.7314C60.2749 13.7314 60.22 13.7091 60.179 13.6693C60.138 13.6295 60.1141 13.5754 60.1123 13.5182V11.3027L59.899 11.4345C59.8495 11.4638 59.7905 11.4725 59.7346 11.4587C59.6788 11.4449 59.6306 11.4098 59.6003 11.3608C59.5701 11.3119 59.5603 11.253 59.5731 11.1969C59.5858 11.1408 59.62 11.0919 59.6684 11.0608L60.2156 10.72C60.2491 10.7001 60.2872 10.6893 60.3261 10.6887C60.3651 10.6882 60.4035 10.6978 60.4375 10.7168C60.4716 10.7357 60.5 10.7632 60.5201 10.7966C60.5402 10.8299 60.5512 10.868 60.552 10.9069L60.5518 13.5182ZM62.1324 13.5182C62.1324 13.5765 62.1092 13.6325 62.068 13.6737C62.0267 13.7149 61.9708 13.7381 61.9125 13.7381C61.8542 13.7381 61.7983 13.7149 61.7571 13.6737C61.7159 13.6325 61.6927 13.5765 61.6927 13.5182V11.3027L61.4796 11.4345C61.4301 11.4651 61.3704 11.4748 61.3137 11.4614C61.257 11.448 61.208 11.4126 61.1774 11.3631C61.1467 11.3135 61.1371 11.2538 61.1505 11.1972C61.1639 11.1405 61.1992 11.0914 61.2488 11.0608L61.796 10.72C61.8295 10.7001 61.8676 10.6893 61.9065 10.6887C61.9455 10.6882 61.9839 10.6978 62.0179 10.7168C62.0519 10.7357 62.0804 10.7632 62.1005 10.7966C62.1206 10.8299 62.1316 10.868 62.1324 10.9069V13.5182Z" fill="#FAFAFA"/>
<path d="M60.5518 13.5182C60.55 13.5754 60.5261 13.6295 60.4851 13.6693C60.4441 13.7091 60.3892 13.7314 60.332 13.7314C60.2749 13.7314 60.22 13.7091 60.179 13.6693C60.138 13.6295 60.1141 13.5754 60.1123 13.5182V11.3027L59.899 11.4345C59.8495 11.4638 59.7905 11.4725 59.7346 11.4587C59.6788 11.4449 59.6306 11.4098 59.6003 11.3608C59.5701 11.3119 59.5603 11.253 59.5731 11.1969C59.5858 11.1408 59.62 11.0919 59.6684 11.0608L60.2156 10.72C60.2491 10.7001 60.2872 10.6893 60.3261 10.6887C60.3651 10.6882 60.4035 10.6978 60.4375 10.7168C60.4716 10.7357 60.5 10.7632 60.5201 10.7966C60.5402 10.8299 60.5512 10.868 60.552 10.9069L60.5518 13.5182Z" fill="#FAFAFA"/>
<path d="M62.1324 13.5182C62.1324 13.5765 62.1092 13.6325 62.068 13.6737C62.0267 13.7149 61.9708 13.7381 61.9125 13.7381C61.8542 13.7381 61.7983 13.7149 61.7571 13.6737C61.7159 13.6325 61.6927 13.5765 61.6927 13.5182V11.3027L61.4796 11.4345C61.4301 11.4651 61.3704 11.4748 61.3137 11.4614C61.257 11.448 61.208 11.4126 61.1774 11.3631C61.1467 11.3135 61.1371 11.2538 61.1505 11.1972C61.1639 11.1405 61.1992 11.0914 61.2488 11.0608L61.796 10.72C61.8295 10.7001 61.8676 10.6893 61.9065 10.6887C61.9455 10.6882 61.9839 10.6978 62.0179 10.7168C62.0519 10.7357 62.0804 10.7632 62.1005 10.7966C62.1206 10.8299 62.1316 10.868 62.1324 10.9069V13.5182Z" fill="#FAFAFA"/>
<path d="M59.9385 11.002H62.2302" stroke="#191919" stroke-width="0.343756" stroke-linecap="round" stroke-linejoin="round"/>
<path d="M61.0845 12.1491V9.85742" stroke="#191919" stroke-width="0.343756" stroke-linecap="round" stroke-linejoin="round"/>
<path d="M52.9695 54.5372C53.3384 54.5368 53.6921 54.39 53.9529 54.1292C54.2137 53.8684 54.3605 53.5147 54.3609 53.1458V52.6643C53.4407 52.8377 52.4957 52.8309 51.5781 52.6445V53.1458C51.5786 53.5147 51.7253 53.8684 51.9861 54.1292C52.247 54.39 52.6006 54.5368 52.9695 54.5372Z" fill="#FAFAFA"/>
<path d="M58.6694 57.2914L57.5285 54.8932C57.3133 54.4443 56.9342 54.0949 56.4692 53.9171L55.5984 53.5853C55.2539 53.4834 55.0025 53.0787 54.8004 52.8027V53.0801C54.8086 53.336 54.7634 53.5907 54.6677 53.8281C54.572 54.0655 54.4278 54.2803 54.2444 54.4589C54.061 54.6375 53.8424 54.7758 53.6026 54.8652C53.3627 54.9545 53.1068 54.9929 52.8513 54.9778C52.5958 54.9628 52.3462 54.8946 52.1185 54.7777C51.8908 54.6607 51.6899 54.4976 51.5288 54.2988C51.3676 54.0999 51.2497 53.8696 51.1826 53.6226C51.1154 53.3756 51.1005 53.1173 51.1387 52.8642C50.9882 53.1537 50.7419 53.382 50.4419 53.5104L49.6263 53.8029C49.1582 53.9684 48.7722 54.3087 48.5493 54.7523L47.2697 57.2914C47.252 57.3299 47.2501 57.3739 47.2645 57.4138C47.2789 57.4536 47.3084 57.4862 47.3467 57.5045L49.051 58.2795C49.083 58.2941 49.118 58.3008 49.1532 58.2991C49.1883 58.2973 49.2225 58.2871 49.2529 58.2694C49.2833 58.2517 49.309 58.2269 49.3278 58.1972C49.3467 58.1675 49.3581 58.1337 49.3612 58.0987L49.4239 57.3843C49.4304 57.327 49.459 57.2745 49.5037 57.238C49.5484 57.2015 49.6055 57.1839 49.663 57.1889C49.7204 57.194 49.7737 57.2212 49.8113 57.2649C49.8489 57.3086 49.868 57.3653 49.8645 57.4229L49.3338 63.455C49.3336 63.4978 49.3422 63.5403 49.359 63.5797C49.3759 63.6191 49.4006 63.6546 49.4317 63.684C49.4628 63.7135 49.4996 63.7363 49.5399 63.7509C49.5801 63.7656 49.623 63.7719 49.6657 63.7693H56.291C56.3339 63.7719 56.377 63.7655 56.4174 63.7507C56.4578 63.7359 56.4947 63.713 56.5258 63.6833C56.557 63.6536 56.5816 63.6178 56.5983 63.5781C56.615 63.5385 56.6234 63.4958 56.6229 63.4528C56.529 62.4461 56.1403 58.3409 56.0542 57.4241C56.0501 57.3667 56.0686 57.31 56.1057 57.2661C56.1429 57.2222 56.1958 57.1946 56.2531 57.1892C56.3103 57.1838 56.3674 57.2011 56.4121 57.2373C56.4568 57.2735 56.4856 57.3257 56.4922 57.3829L56.559 58.0899C56.5623 58.1246 56.5738 58.1581 56.5926 58.1875C56.6113 58.2169 56.6369 58.2414 56.667 58.259C56.6971 58.2766 56.731 58.2868 56.7659 58.2886C56.8007 58.2905 56.8355 58.2841 56.8674 58.2699L58.5925 57.5002C58.6301 57.4824 58.6593 57.4506 58.6737 57.4115C58.6881 57.3724 58.6866 57.3294 58.6694 57.2914ZM52.5518 61.5182C52.55 61.5754 52.5261 61.6295 52.4851 61.6693C52.4441 61.7091 52.3892 61.7314 52.332 61.7314C52.2749 61.7314 52.22 61.7091 52.179 61.6693C52.138 61.6295 52.1141 61.5754 52.1123 61.5182V59.3027L51.899 59.4345C51.8495 59.4638 51.7905 59.4725 51.7346 59.4587C51.6788 59.4449 51.6306 59.4098 51.6003 59.3608C51.5701 59.3119 51.5603 59.253 51.5731 59.1969C51.5858 59.1408 51.62 59.0919 51.6684 59.0608L52.2156 58.72C52.2491 58.7001 52.2872 58.6893 52.3261 58.6887C52.3651 58.6882 52.4035 58.6978 52.4375 58.7168C52.4716 58.7357 52.5 58.7632 52.5201 58.7966C52.5402 58.8299 52.5512 58.868 52.552 58.9069L52.5518 61.5182ZM54.1324 61.5182C54.1324 61.5765 54.1092 61.6325 54.068 61.6737C54.0267 61.7149 53.9708 61.7381 53.9125 61.7381C53.8542 61.7381 53.7983 61.7149 53.7571 61.6737C53.7159 61.6325 53.6927 61.5765 53.6927 61.5182V59.3027L53.4796 59.4345C53.4301 59.4651 53.3704 59.4748 53.3137 59.4614C53.257 59.448 53.208 59.4126 53.1774 59.3631C53.1467 59.3135 53.1371 59.2538 53.1505 59.1972C53.1639 59.1405 53.1992 59.0914 53.2488 59.0608L53.796 58.72C53.8295 58.7001 53.8676 58.6893 53.9065 58.6887C53.9455 58.6882 53.9839 58.6978 54.0179 58.7168C54.0519 58.7357 54.0804 58.7632 54.1005 58.7966C54.1206 58.8299 54.1316 58.868 54.1324 58.9069V61.5182Z" fill="#FAFAFA"/>
<path d="M52.5518 61.5182C52.55 61.5754 52.5261 61.6295 52.4851 61.6693C52.4441 61.7091 52.3892 61.7314 52.332 61.7314C52.2749 61.7314 52.22 61.7091 52.179 61.6693C52.138 61.6295 52.1141 61.5754 52.1123 61.5182V59.3027L51.899 59.4345C51.8495 59.4638 51.7905 59.4725 51.7346 59.4587C51.6788 59.4449 51.6306 59.4098 51.6003 59.3608C51.5701 59.3119 51.5603 59.253 51.5731 59.1969C51.5858 59.1408 51.62 59.0919 51.6684 59.0608L52.2156 58.72C52.2491 58.7001 52.2872 58.6893 52.3261 58.6887C52.3651 58.6882 52.4035 58.6978 52.4375 58.7168C52.4716 58.7357 52.5 58.7632 52.5201 58.7966C52.5402 58.8299 52.5512 58.868 52.552 58.9069L52.5518 61.5182Z" fill="#FAFAFA"/>
<path d="M54.1324 61.5182C54.1324 61.5765 54.1092 61.6325 54.068 61.6737C54.0267 61.7149 53.9708 61.7381 53.9125 61.7381C53.8542 61.7381 53.7983 61.7149 53.7571 61.6737C53.7159 61.6325 53.6927 61.5765 53.6927 61.5182V59.3027L53.4796 59.4345C53.4301 59.4651 53.3704 59.4748 53.3137 59.4614C53.257 59.448 53.208 59.4126 53.1774 59.3631C53.1467 59.3135 53.1371 59.2538 53.1505 59.1972C53.1639 59.1405 53.1992 59.0914 53.2488 59.0608L53.796 58.72C53.8295 58.7001 53.8676 58.6893 53.9065 58.6887C53.9455 58.6882 53.9839 58.6978 54.0179 58.7168C54.0519 58.7357 54.0804 58.7632 54.1005 58.7966C54.1206 58.8299 54.1316 58.868 54.1324 58.9069V61.5182Z" fill="#FAFAFA"/>
<path d="M51.9385 59.002H54.2302" stroke="#191919" stroke-width="0.343756" stroke-linecap="round" stroke-linejoin="round"/>
<path d="M53.0845 60.1491V57.8574" stroke="#191919" stroke-width="0.343756" stroke-linecap="round" stroke-linejoin="round"/>
<path d="M28.9695 54.5372C29.3384 54.5368 29.6921 54.39 29.9529 54.1292C30.2137 53.8684 30.3605 53.5147 30.3609 53.1458V52.6643C29.4407 52.8377 28.4957 52.8309 27.5781 52.6445V53.1458C27.5786 53.5147 27.7253 53.8684 27.9861 54.1292C28.247 54.39 28.6006 54.5368 28.9695 54.5372Z" fill="#FAFAFA"/>
<path d="M34.6694 57.2914L33.5285 54.8932C33.3133 54.4443 32.9342 54.0949 32.4692 53.9171L31.5984 53.5853C31.2539 53.4834 31.0025 53.0787 30.8004 52.8027V53.0801C30.8086 53.336 30.7634 53.5907 30.6677 53.8281C30.572 54.0655 30.4278 54.2803 30.2444 54.4589C30.061 54.6375 29.8424 54.7758 29.6026 54.8652C29.3627 54.9545 29.1068 54.9929 28.8513 54.9778C28.5958 54.9628 28.3462 54.8946 28.1185 54.7777C27.8908 54.6607 27.6899 54.4976 27.5288 54.2988C27.3676 54.0999 27.2497 53.8696 27.1826 53.6226C27.1154 53.3756 27.1005 53.1173 27.1387 52.8642C26.9882 53.1537 26.7419 53.382 26.4419 53.5104L25.6263 53.8029C25.1582 53.9684 24.7722 54.3087 24.5493 54.7523L23.2697 57.2914C23.252 57.3299 23.2501 57.3739 23.2645 57.4138C23.2789 57.4536 23.3084 57.4862 23.3467 57.5045L25.051 58.2795C25.083 58.2941 25.118 58.3008 25.1532 58.2991C25.1883 58.2973 25.2225 58.2871 25.2529 58.2694C25.2833 58.2517 25.309 58.2269 25.3278 58.1972C25.3467 58.1675 25.3581 58.1337 25.3612 58.0987L25.4239 57.3843C25.4304 57.327 25.459 57.2745 25.5037 57.238C25.5484 57.2015 25.6055 57.1839 25.663 57.1889C25.7204 57.194 25.7737 57.2212 25.8113 57.2649C25.8489 57.3086 25.868 57.3653 25.8645 57.4229L25.3338 63.455C25.3336 63.4978 25.3422 63.5403 25.359 63.5797C25.3759 63.6191 25.4006 63.6546 25.4317 63.684C25.4628 63.7135 25.4996 63.7363 25.5399 63.7509C25.5801 63.7656 25.623 63.7719 25.6657 63.7693H32.291C32.3339 63.7719 32.377 63.7655 32.4174 63.7507C32.4578 63.7359 32.4947 63.713 32.5258 63.6833C32.557 63.6536 32.5816 63.6178 32.5983 63.5781C32.615 63.5385 32.6234 63.4958 32.6229 63.4528C32.529 62.4461 32.1403 58.3409 32.0542 57.4241C32.0501 57.3667 32.0686 57.31 32.1057 57.2661C32.1429 57.2222 32.1958 57.1946 32.2531 57.1892C32.3103 57.1838 32.3674 57.2011 32.4121 57.2373C32.4568 57.2735 32.4856 57.3257 32.4922 57.3829L32.559 58.0899C32.5623 58.1246 32.5738 58.1581 32.5926 58.1875C32.6113 58.2169 32.6369 58.2414 32.667 58.259C32.6971 58.2766 32.731 58.2868 32.7659 58.2886C32.8007 58.2905 32.8355 58.2841 32.8674 58.2699L34.5925 57.5002C34.6301 57.4824 34.6593 57.4506 34.6737 57.4115C34.6881 57.3724 34.6866 57.3294 34.6694 57.2914ZM28.5518 61.5182C28.55 61.5754 28.5261 61.6295 28.4851 61.6693C28.4441 61.7091 28.3892 61.7314 28.332 61.7314C28.2749 61.7314 28.22 61.7091 28.179 61.6693C28.138 61.6295 28.1141 61.5754 28.1123 61.5182V59.3027L27.899 59.4345C27.8495 59.4638 27.7905 59.4725 27.7346 59.4587C27.6788 59.4449 27.6306 59.4098 27.6003 59.3608C27.5701 59.3119 27.5603 59.253 27.5731 59.1969C27.5858 59.1408 27.62 59.0919 27.6684 59.0608L28.2156 58.72C28.2491 58.7001 28.2872 58.6893 28.3261 58.6887C28.3651 58.6882 28.4035 58.6978 28.4375 58.7168C28.4716 58.7357 28.5 58.7632 28.5201 58.7966C28.5402 58.8299 28.5512 58.868 28.552 58.9069L28.5518 61.5182ZM30.1324 61.5182C30.1324 61.5765 30.1092 61.6325 30.068 61.6737C30.0267 61.7149 29.9708 61.7381 29.9125 61.7381C29.8542 61.7381 29.7983 61.7149 29.7571 61.6737C29.7159 61.6325 29.6927 61.5765 29.6927 61.5182V59.3027L29.4796 59.4345C29.4301 59.4651 29.3704 59.4748 29.3137 59.4614C29.257 59.448 29.208 59.4126 29.1774 59.3631C29.1467 59.3135 29.1371 59.2538 29.1505 59.1972C29.1639 59.1405 29.1992 59.0914 29.2488 59.0608L29.796 58.72C29.8295 58.7001 29.8676 58.6893 29.9065 58.6887C29.9455 58.6882 29.9839 58.6978 30.0179 58.7168C30.0519 58.7357 30.0804 58.7632 30.1005 58.7966C30.1206 58.8299 30.1316 58.868 30.1324 58.9069V61.5182Z" fill="#FAFAFA"/>
<path d="M28.5518 61.5182C28.55 61.5754 28.5261 61.6295 28.4851 61.6693C28.4441 61.7091 28.3892 61.7314 28.332 61.7314C28.2749 61.7314 28.22 61.7091 28.179 61.6693C28.138 61.6295 28.1141 61.5754 28.1123 61.5182V59.3027L27.899 59.4345C27.8495 59.4638 27.7905 59.4725 27.7346 59.4587C27.6788 59.4449 27.6306 59.4098 27.6003 59.3608C27.5701 59.3119 27.5603 59.253 27.5731 59.1969C27.5858 59.1408 27.62 59.0919 27.6684 59.0608L28.2156 58.72C28.2491 58.7001 28.2872 58.6893 28.3261 58.6887C28.3651 58.6882 28.4035 58.6978 28.4375 58.7168C28.4716 58.7357 28.5 58.7632 28.5201 58.7966C28.5402 58.8299 28.5512 58.868 28.552 58.9069L28.5518 61.5182Z" fill="#FAFAFA"/>
<path d="M30.1324 61.5182C30.1324 61.5765 30.1092 61.6325 30.068 61.6737C30.0267 61.7149 29.9708 61.7381 29.9125 61.7381C29.8542 61.7381 29.7983 61.7149 29.7571 61.6737C29.7159 61.6325 29.6927 61.5765 29.6927 61.5182V59.3027L29.4796 59.4345C29.4301 59.4651 29.3704 59.4748 29.3137 59.4614C29.257 59.448 29.208 59.4126 29.1774 59.3631C29.1467 59.3135 29.1371 59.2538 29.1505 59.1972C29.1639 59.1405 29.1992 59.0914 29.2488 59.0608L29.796 58.72C29.8295 58.7001 29.8676 58.6893 29.9065 58.6887C29.9455 58.6882 29.9839 58.6978 30.0179 58.7168C30.0519 58.7357 30.0804 58.7632 30.1005 58.7966C30.1206 58.8299 30.1316 58.868 30.1324 58.9069V61.5182Z" fill="#FAFAFA"/>
<path d="M27.9385 59.002H30.2302" stroke="#191919" stroke-width="0.343756" stroke-linecap="round" stroke-linejoin="round"/>
<path d="M29.0845 60.1491V57.8574" stroke="#191919" stroke-width="0.343756" stroke-linecap="round" stroke-linejoin="round"/>
<path d="M40.219 40.6427C40.5879 40.6422 40.9416 40.4955 41.2024 40.2347C41.4632 39.9738 41.61 39.6202 41.6104 39.2513V38.7698C40.6903 38.9431 39.7452 38.9364 38.8276 38.75V39.2513C38.8281 39.6202 38.9748 39.9738 39.2356 40.2347C39.4965 40.4955 39.8501 40.6422 40.219 40.6427Z" fill="#FAFAFA"/>
<path d="M45.9189 43.3969L44.778 40.9987C44.5628 40.5497 44.1837 40.2004 43.7187 40.0226L42.848 39.6907C42.5034 39.5889 42.252 39.1842 42.0499 38.9082V39.1856C42.0581 39.4414 42.013 39.6962 41.9172 39.9336C41.8215 40.171 41.6773 40.3858 41.4939 40.5644C41.3105 40.7429 41.0919 40.8813 40.8521 40.9707C40.6122 41.06 40.3563 41.0984 40.1008 41.0833C39.8453 41.0682 39.5957 41.0001 39.368 40.8831C39.1403 40.7662 38.9394 40.6031 38.7783 40.4042C38.6172 40.2053 38.4992 39.975 38.4321 39.728C38.3649 39.481 38.35 39.2227 38.3883 38.9696C38.2377 39.2591 37.9914 39.4875 37.6914 39.6158L36.8758 39.9083C36.4077 40.0739 36.0218 40.4141 35.7988 40.8578L34.5192 43.3969C34.5015 43.4354 34.4996 43.4793 34.514 43.5192C34.5284 43.5591 34.5579 43.5917 34.5962 43.61L36.3005 44.385C36.3325 44.3996 36.3675 44.4063 36.4027 44.4045C36.4378 44.4028 36.472 44.3926 36.5024 44.3749C36.5328 44.3572 36.5585 44.3324 36.5774 44.3027C36.5962 44.273 36.6076 44.2392 36.6107 44.2041L36.6734 43.4898C36.6799 43.4325 36.7085 43.38 36.7532 43.3435C36.7979 43.307 36.855 43.2894 36.9125 43.2944C36.9699 43.2994 37.0232 43.3267 37.0608 43.3704C37.0985 43.4141 37.1176 43.4708 37.114 43.5283L36.5834 49.5605C36.5831 49.6033 36.5917 49.6457 36.6085 49.6851C36.6254 49.7245 36.6501 49.76 36.6812 49.7895C36.7123 49.819 36.7491 49.8417 36.7894 49.8564C36.8296 49.8711 36.8725 49.8773 36.9152 49.8748H43.5405C43.5834 49.8773 43.6265 49.871 43.6669 49.8562C43.7073 49.8414 43.7442 49.8184 43.7753 49.7887C43.8065 49.759 43.8312 49.7232 43.8478 49.6836C43.8645 49.6439 43.8729 49.6012 43.8724 49.5582C43.7785 48.5516 43.3899 44.4464 43.3037 43.5296C43.2996 43.4722 43.3181 43.4155 43.3552 43.3716C43.3924 43.3277 43.4453 43.3001 43.5026 43.2947C43.5598 43.2893 43.6169 43.3065 43.6616 43.3427C43.7063 43.3789 43.7351 43.4312 43.7417 43.4883L43.8085 44.1953C43.8118 44.2301 43.8233 44.2635 43.8421 44.293C43.8609 44.3224 43.8864 44.3469 43.9165 44.3645C43.9466 44.3821 43.9805 44.3922 44.0154 44.3941C44.0502 44.396 44.085 44.3896 44.1169 44.3754L45.842 43.6057C45.8797 43.5879 45.9088 43.556 45.9232 43.5169C45.9376 43.4778 45.9361 43.4349 45.9189 43.3969ZM39.8013 47.6237C39.7995 47.6808 39.7756 47.735 39.7346 47.7748C39.6936 47.8146 39.6387 47.8368 39.5816 47.8368C39.5244 47.8368 39.4695 47.8146 39.4285 47.7748C39.3875 47.735 39.3636 47.6808 39.3618 47.6237V45.4081L39.1485 45.54C39.099 45.5693 39.04 45.578 38.9841 45.5642C38.9283 45.5504 38.8801 45.5153 38.8499 45.4663C38.8196 45.4173 38.8098 45.3585 38.8226 45.3024C38.8353 45.2463 38.8695 45.1974 38.9179 45.1663L39.4651 44.8254C39.4986 44.8055 39.5367 44.7948 39.5756 44.7942C39.6146 44.7937 39.653 44.8033 39.687 44.8222C39.7211 44.8412 39.7496 44.8687 39.7696 44.902C39.7897 44.9354 39.8007 44.9734 39.8015 45.0124L39.8013 47.6237ZM41.3819 47.6237C41.3819 47.682 41.3587 47.7379 41.3175 47.7791C41.2763 47.8204 41.2203 47.8435 41.162 47.8435C41.1037 47.8435 41.0478 47.8204 41.0066 47.7791C40.9654 47.7379 40.9422 47.682 40.9422 47.6237V45.4081L40.7291 45.54C40.6796 45.5706 40.6199 45.5803 40.5632 45.5669C40.5065 45.5535 40.4575 45.5181 40.4269 45.4686C40.3963 45.419 40.3866 45.3593 40.4 45.3026C40.4134 45.2459 40.4487 45.1969 40.4983 45.1663L41.0455 44.8254C41.079 44.8055 41.1171 44.7948 41.156 44.7942C41.195 44.7937 41.2334 44.8033 41.2674 44.8222C41.3015 44.8412 41.3299 44.8687 41.35 44.902C41.3701 44.9354 41.3811 44.9734 41.3819 45.0124V47.6237Z" fill="#FAFAFA"/>
<path d="M39.8013 47.6237C39.7995 47.6808 39.7756 47.735 39.7346 47.7748C39.6936 47.8146 39.6387 47.8368 39.5816 47.8368C39.5244 47.8368 39.4695 47.8146 39.4285 47.7748C39.3875 47.735 39.3636 47.6808 39.3618 47.6237V45.4081L39.1485 45.54C39.099 45.5693 39.04 45.578 38.9841 45.5642C38.9283 45.5504 38.8801 45.5153 38.8499 45.4663C38.8196 45.4173 38.8098 45.3585 38.8226 45.3024C38.8353 45.2463 38.8695 45.1974 38.9179 45.1663L39.4651 44.8254C39.4986 44.8055 39.5367 44.7948 39.5756 44.7942C39.6146 44.7937 39.653 44.8033 39.687 44.8222C39.7211 44.8412 39.7496 44.8687 39.7696 44.902C39.7897 44.9354 39.8007 44.9734 39.8015 45.0124L39.8013 47.6237Z" fill="#FAFAFA"/>
<path d="M41.3819 47.6237C41.3819 47.682 41.3587 47.7379 41.3175 47.7791C41.2763 47.8204 41.2203 47.8435 41.162 47.8435C41.1037 47.8435 41.0478 47.8204 41.0066 47.7791C40.9654 47.7379 40.9422 47.682 40.9422 47.6237V45.4081L40.7291 45.54C40.6796 45.5706 40.6199 45.5803 40.5632 45.5669C40.5065 45.5535 40.4575 45.5181 40.4269 45.4686C40.3963 45.419 40.3866 45.3593 40.4 45.3026C40.4134 45.2459 40.4487 45.1969 40.4983 45.1663L41.0455 44.8254C41.079 44.8055 41.1171 44.7948 41.156 44.7942C41.195 44.7937 41.2334 44.8033 41.2674 44.8222C41.3015 44.8412 41.3299 44.8687 41.35 44.902C41.3701 44.9354 41.3811 44.9734 41.3819 45.0124V47.6237Z" fill="#FAFAFA"/>
<path d="M39.188 45.1055H41.4797" stroke="#191919" stroke-width="0.343756" stroke-linecap="round" stroke-linejoin="round"/>
<path d="M40.334 46.2526V43.9609" stroke="#191919" stroke-width="0.343756" stroke-linecap="round" stroke-linejoin="round"/>
<path d="M40.219 19.9962C40.5879 19.9958 40.9416 19.849 41.2024 19.5882C41.4632 19.3273 41.61 18.9737 41.6104 18.6048V18.1233C40.6903 18.2967 39.7452 18.2899 38.8276 18.1035V18.6048C38.8281 18.9737 38.9748 19.3273 39.2356 19.5882C39.4965 19.849 39.8501 19.9958 40.219 19.9962Z" fill="#FAFAFA"/>
<path d="M45.9189 22.7504L44.778 20.3522C44.5628 19.9032 44.1837 19.5539 43.7187 19.3761L42.848 19.0443C42.5034 18.9424 42.252 18.5377 42.0499 18.2617V18.5391C42.0581 18.7949 42.013 19.0497 41.9172 19.2871C41.8215 19.5245 41.6773 19.7393 41.4939 19.9179C41.3105 20.0965 41.0919 20.2348 40.8521 20.3242C40.6122 20.4135 40.3563 20.4519 40.1008 20.4368C39.8453 20.4218 39.5957 20.3536 39.368 20.2367C39.1403 20.1197 38.9394 19.9566 38.7783 19.7577C38.6172 19.5589 38.4992 19.3286 38.4321 19.0816C38.3649 18.8345 38.35 18.5763 38.3883 18.3232C38.2377 18.6126 37.9914 18.841 37.6914 18.9694L36.8758 19.2618C36.4077 19.4274 36.0218 19.7677 35.7988 20.2113L34.5192 22.7504C34.5015 22.7889 34.4996 22.8329 34.514 22.8727C34.5284 22.9126 34.5579 22.9452 34.5962 22.9635L36.3005 23.7385C36.3325 23.7531 36.3675 23.7598 36.4027 23.758C36.4378 23.7563 36.472 23.7461 36.5024 23.7284C36.5328 23.7107 36.5585 23.6859 36.5774 23.6562C36.5962 23.6265 36.6076 23.5927 36.6107 23.5576L36.6734 22.8433C36.6799 22.786 36.7085 22.7335 36.7532 22.697C36.7979 22.6605 36.855 22.6429 36.9125 22.6479C36.9699 22.653 37.0232 22.6802 37.0608 22.7239C37.0985 22.7676 37.1176 22.8243 37.114 22.8818L36.5834 28.914C36.5831 28.9568 36.5917 28.9992 36.6085 29.0386C36.6254 29.078 36.6501 29.1136 36.6812 29.143C36.7123 29.1725 36.7491 29.1952 36.7894 29.2099C36.8296 29.2246 36.8725 29.2308 36.9152 29.2283H43.5405C43.5834 29.2309 43.6265 29.2245 43.6669 29.2097C43.7073 29.1949 43.7442 29.172 43.7753 29.1423C43.8065 29.1126 43.8312 29.0768 43.8478 29.0371C43.8645 28.9974 43.8729 28.9548 43.8724 28.9117C43.7785 27.9051 43.3899 23.7999 43.3037 22.8831C43.2996 22.8257 43.3181 22.769 43.3552 22.7251C43.3924 22.6812 43.4453 22.6536 43.5026 22.6482C43.5598 22.6428 43.6169 22.66 43.6616 22.6962C43.7063 22.7324 43.7351 22.7847 43.7417 22.8418L43.8085 23.5489C43.8118 23.5836 43.8233 23.6171 43.8421 23.6465C43.8609 23.6759 43.8864 23.7004 43.9165 23.718C43.9466 23.7356 43.9805 23.7457 44.0154 23.7476C44.0502 23.7495 44.085 23.7431 44.1169 23.7289L45.842 22.9592C45.8797 22.9414 45.9088 22.9096 45.9232 22.8705C45.9376 22.8314 45.9361 22.7884 45.9189 22.7504ZM39.8013 26.9772C39.7995 27.0343 39.7756 27.0885 39.7346 27.1283C39.6936 27.1681 39.6387 27.1903 39.5816 27.1903C39.5244 27.1903 39.4695 27.1681 39.4285 27.1283C39.3875 27.0885 39.3636 27.0343 39.3618 26.9772V24.7617L39.1485 24.8935C39.099 24.9228 39.04 24.9315 38.9841 24.9177C38.9283 24.9039 38.8801 24.8688 38.8499 24.8198C38.8196 24.7709 38.8098 24.712 38.8226 24.6559C38.8353 24.5998 38.8695 24.5509 38.9179 24.5198L39.4651 24.1789C39.4986 24.159 39.5367 24.1483 39.5756 24.1477C39.6146 24.1472 39.653 24.1568 39.687 24.1757C39.7211 24.1947 39.7496 24.2222 39.7696 24.2555C39.7897 24.2889 39.8007 24.327 39.8015 24.3659L39.8013 26.9772ZM41.3819 26.9772C41.3819 27.0355 41.3587 27.0914 41.3175 27.1327C41.2763 27.1739 41.2203 27.197 41.162 27.197C41.1037 27.197 41.0478 27.1739 41.0066 27.1327C40.9654 27.0914 40.9422 27.0355 40.9422 26.9772V24.7617L40.7291 24.8935C40.6796 24.9241 40.6199 24.9338 40.5632 24.9204C40.5065 24.907 40.4575 24.8716 40.4269 24.8221C40.3963 24.7725 40.3866 24.7128 40.4 24.6561C40.4134 24.5995 40.4487 24.5504 40.4983 24.5198L41.0455 24.1789C41.079 24.159 41.1171 24.1483 41.156 24.1477C41.195 24.1472 41.2334 24.1568 41.2674 24.1757C41.3015 24.1947 41.3299 24.2222 41.35 24.2555C41.3701 24.2889 41.3811 24.327 41.3819 24.3659V26.9772Z" fill="#FAFAFA"/>
<path d="M39.8013 26.9772C39.7995 27.0343 39.7756 27.0885 39.7346 27.1283C39.6936 27.1681 39.6387 27.1903 39.5816 27.1903C39.5244 27.1903 39.4695 27.1681 39.4285 27.1283C39.3875 27.0885 39.3636 27.0343 39.3618 26.9772V24.7617L39.1485 24.8935C39.099 24.9228 39.04 24.9315 38.9841 24.9177C38.9283 24.9039 38.8801 24.8688 38.8499 24.8198C38.8196 24.7709 38.8098 24.712 38.8226 24.6559C38.8353 24.5998 38.8695 24.5509 38.9179 24.5198L39.4651 24.1789C39.4986 24.159 39.5367 24.1483 39.5756 24.1477C39.6146 24.1472 39.653 24.1568 39.687 24.1757C39.7211 24.1947 39.7496 24.2222 39.7696 24.2555C39.7897 24.2889 39.8007 24.327 39.8015 24.3659L39.8013 26.9772Z" fill="#FAFAFA"/>
<path d="M41.3819 26.9772C41.3819 27.0355 41.3587 27.0914 41.3175 27.1327C41.2763 27.1739 41.2203 27.197 41.162 27.197C41.1037 27.197 41.0478 27.1739 41.0066 27.1327C40.9654 27.0914 40.9422 27.0355 40.9422 26.9772V24.7617L40.7291 24.8935C40.6796 24.9241 40.6199 24.9338 40.5632 24.9204C40.5065 24.907 40.4575 24.8716 40.4269 24.8221C40.3963 24.7725 40.3866 24.7128 40.4 24.6561C40.4134 24.5995 40.4487 24.5504 40.4983 24.5198L41.0455 24.1789C41.079 24.159 41.1171 24.1483 41.156 24.1477C41.195 24.1472 41.2334 24.1568 41.2674 24.1757C41.3015 24.1947 41.3299 24.2222 41.35 24.2555C41.3701 24.2889 41.3811 24.327 41.3819 24.3659V26.9772Z" fill="#FAFAFA"/>
<path d="M39.188 24.4609H41.4797" stroke="#191919" stroke-width="0.343756" stroke-linecap="round" stroke-linejoin="round"/>
<path d="M40.334 25.6081V23.3164" stroke="#191919" stroke-width="0.343756" stroke-linecap="round" stroke-linejoin="round"/>
</svg>
