<svg width="81" height="81" viewBox="0 0 81 81" fill="none" xmlns="http://www.w3.org/2000/svg">
<rect x="0.74398" y="0.118492" width="79.9807" height="79.9807" rx="5.88541" fill="#828284" stroke="#FAFAFA" stroke-width="0.229171"/>
<mask id="path-2-inside-1_8754_16720" fill="white">
<path d="M24.4631 66.4609H57.0054V80.2112H24.4631V66.4609Z"/>
</mask>
<path d="M24.4631 66.4609V66.2318H24.234V66.4609H24.4631ZM57.0054 66.4609H57.2346V66.2318H57.0054V66.4609ZM24.4631 66.6901H57.0054V66.2318H24.4631V66.6901ZM56.7762 66.4609V80.2112H57.2346V66.4609H56.7762ZM24.6923 80.2112V66.4609H24.234V80.2112H24.6923Z" fill="#FAFAFA" mask="url(#path-2-inside-1_8754_16720)"/>
<mask id="path-4-inside-2_8754_16720" fill="white">
<path d="M13.2339 55.0039H68.2349V80.2127H13.2339V55.0039Z"/>
</mask>
<path d="M13.2339 55.0039V54.7747H13.0047V55.0039H13.2339ZM68.2349 55.0039H68.4641V54.7747H68.2349V55.0039ZM13.2339 55.2331H68.2349V54.7747H13.2339V55.2331ZM68.0057 55.0039V80.2127H68.4641V55.0039H68.0057ZM13.4631 80.2127V55.0039H13.0047V80.2127H13.4631Z" fill="#FAFAFA" mask="url(#path-4-inside-2_8754_16720)"/>
<path d="M54.9429 9.53674e-07C54.9429 1.65523 54.5576 3.29426 53.809 4.8235C53.0604 6.35273 51.9631 7.74223 50.5799 8.91266C49.1967 10.0831 47.5545 11.0115 45.7472 11.645C43.94 12.2784 42.0029 12.6044 40.0467 12.6044C38.0906 12.6044 36.1535 12.2784 34.3463 11.645C32.539 11.0115 30.8968 10.0831 29.5136 8.91266C28.1304 7.74223 27.0331 6.35273 26.2845 4.8235C25.5359 3.29426 25.1506 1.65523 25.1506 0" stroke="#FAFAFA" stroke-width="0.229171"/>
<path d="M31.2066 55.3516C31.7249 54.5174 32.4845 53.7595 33.4421 53.1211C34.3997 52.4827 35.5366 51.9763 36.7878 51.6308C38.039 51.2853 39.38 51.1074 40.7343 51.1074C42.0886 51.1074 43.4296 51.2853 44.6808 51.6308C45.932 51.9763 47.0688 52.4827 48.0265 53.1211C48.9841 53.7595 49.7437 54.5174 50.262 55.3516" stroke="#FAFAFA" stroke-width="0.229171"/>
<path d="M0.858398 76.5479C1.97493 76.4958 4.17886 77.1099 4.06235 79.9825" stroke="#FAFAFA" stroke-width="0.229171"/>
<path d="M80.6099 76.5479C79.4933 76.4958 77.2894 77.1099 77.4059 79.9825" stroke="#FAFAFA" stroke-width="0.229171"/>
<path d="M40.8484 69.4356C41.2173 69.4352 41.571 69.2885 41.8318 69.0276C42.0926 68.7668 42.2394 68.4131 42.2398 68.0443V67.5628C41.3197 67.7361 40.3746 67.7294 39.457 67.543V68.0443C39.4575 68.4131 39.6042 68.7668 39.865 69.0276C40.1259 69.2885 40.4795 69.4352 40.8484 69.4356Z" fill="#FAFAFA"/>
<path d="M46.5483 72.1899L45.4074 69.7916C45.1922 69.3427 44.8131 68.9934 44.3481 68.8156L43.4774 68.4837C43.1328 68.3819 42.8814 67.9771 42.6793 67.7012V67.9786C42.6875 68.2344 42.6424 68.4891 42.5466 68.7265C42.4509 68.9639 42.3067 69.1788 42.1233 69.3573C41.9399 69.5359 41.7213 69.6743 41.4815 69.7636C41.2416 69.853 40.9857 69.8913 40.7302 69.8763C40.4747 69.8612 40.2251 69.793 39.9974 69.6761C39.7697 69.5592 39.5688 69.3961 39.4077 69.1972C39.2466 68.9983 39.1286 68.768 39.0615 68.521C38.9943 68.274 38.9794 68.0157 39.0177 67.7626C38.8671 68.0521 38.6208 68.2805 38.3208 68.4088L37.5052 68.7013C37.0371 68.8669 36.6512 69.2071 36.4282 69.6508L35.1486 72.1899C35.1309 72.2284 35.129 72.2723 35.1434 72.3122C35.1578 72.3521 35.1873 72.3847 35.2256 72.4029L36.9299 73.1779C36.9619 73.1925 36.9969 73.1992 37.0321 73.1975C37.0672 73.1957 37.1014 73.1856 37.1318 73.1679C37.1622 73.1501 37.1879 73.1254 37.2068 73.0957C37.2256 73.066 37.237 73.0321 37.2401 72.9971L37.3028 72.2827C37.3093 72.2254 37.3379 72.1729 37.3826 72.1364C37.4273 72.1 37.4844 72.0823 37.5419 72.0874C37.5993 72.0924 37.6526 72.1197 37.6902 72.1634C37.7278 72.2071 37.7469 72.2637 37.7434 72.3213L37.2127 78.3534C37.2125 78.3963 37.2211 78.4387 37.2379 78.4781C37.2548 78.5175 37.2795 78.553 37.3106 78.5825C37.3417 78.6119 37.3785 78.6347 37.4188 78.6494C37.459 78.664 37.5019 78.6703 37.5446 78.6678H44.1699C44.2128 78.6703 44.2559 78.664 44.2963 78.6492C44.3367 78.6344 44.3736 78.6114 44.4047 78.5817C44.4359 78.552 44.4606 78.5162 44.4772 78.4766C44.4939 78.4369 44.5023 78.3942 44.5018 78.3512C44.4079 77.3445 44.0193 73.2394 43.9331 72.3225C43.929 72.2652 43.9475 72.2084 43.9846 72.1645C44.0218 72.1206 44.0747 72.093 44.132 72.0876C44.1892 72.0822 44.2463 72.0995 44.291 72.1357C44.3357 72.1719 44.3645 72.2242 44.3711 72.2813L44.4379 72.9883C44.4412 73.0231 44.4527 73.0565 44.4715 73.0859C44.4902 73.1153 44.5158 73.1398 44.5459 73.1574C44.576 73.175 44.6099 73.1852 44.6448 73.1871C44.6796 73.189 44.7144 73.1826 44.7463 73.1683L46.4714 72.3987C46.5091 72.3809 46.5382 72.349 46.5526 72.3099C46.567 72.2708 46.5655 72.2278 46.5483 72.1899ZM40.4307 76.4167C40.4289 76.4738 40.405 76.528 40.364 76.5678C40.323 76.6076 40.2681 76.6298 40.211 76.6298C40.1538 76.6298 40.0989 76.6076 40.0579 76.5678C40.0169 76.528 39.993 76.4738 39.9912 76.4167V74.2011L39.7779 74.333C39.7284 74.3623 39.6694 74.3709 39.6135 74.3572C39.5577 74.3434 39.5095 74.3082 39.4793 74.2593C39.449 74.2103 39.4392 74.1515 39.452 74.0954C39.4647 74.0392 39.4989 73.9904 39.5473 73.9592L40.0945 73.6184C40.128 73.5985 40.1661 73.5877 40.205 73.5872C40.244 73.5866 40.2824 73.5963 40.3164 73.6152C40.3505 73.6341 40.3789 73.6616 40.399 73.695C40.4191 73.7284 40.4301 73.7664 40.4309 73.8054L40.4307 76.4167ZM42.0113 76.4167C42.0113 76.475 41.9881 76.5309 41.9469 76.5721C41.9057 76.6133 41.8497 76.6365 41.7914 76.6365C41.7331 76.6365 41.6772 76.6133 41.636 76.5721C41.5948 76.5309 41.5716 76.475 41.5716 76.4167V74.2011L41.3585 74.333C41.309 74.3636 41.2493 74.3732 41.1926 74.3598C41.1359 74.3465 41.0869 74.3111 41.0563 74.2615C41.0256 74.212 41.016 74.1523 41.0294 74.0956C41.0428 74.0389 41.0781 73.9899 41.1277 73.9592L41.6749 73.6184C41.7084 73.5985 41.7465 73.5877 41.7854 73.5872C41.8244 73.5866 41.8628 73.5963 41.8968 73.6152C41.9309 73.6341 41.9593 73.6616 41.9794 73.695C41.9995 73.7284 42.0105 73.7664 42.0113 73.8054V76.4167Z" fill="#FAFAFA"/>
<path d="M40.4307 76.4167C40.4289 76.4738 40.405 76.528 40.364 76.5678C40.323 76.6076 40.2681 76.6298 40.211 76.6298C40.1538 76.6298 40.0989 76.6076 40.0579 76.5678C40.0169 76.528 39.993 76.4738 39.9912 76.4167V74.2011L39.7779 74.333C39.7284 74.3623 39.6694 74.3709 39.6135 74.3572C39.5577 74.3434 39.5095 74.3082 39.4793 74.2593C39.449 74.2103 39.4392 74.1515 39.452 74.0954C39.4647 74.0392 39.4989 73.9904 39.5473 73.9592L40.0945 73.6184C40.128 73.5985 40.1661 73.5877 40.205 73.5872C40.244 73.5866 40.2824 73.5963 40.3164 73.6152C40.3505 73.6341 40.3789 73.6616 40.399 73.695C40.4191 73.7284 40.4301 73.7664 40.4309 73.8054L40.4307 76.4167Z" fill="#FAFAFA"/>
<path d="M42.0113 76.4167C42.0113 76.475 41.9881 76.5309 41.9469 76.5721C41.9057 76.6133 41.8497 76.6365 41.7914 76.6365C41.7331 76.6365 41.6772 76.6133 41.636 76.5721C41.5948 76.5309 41.5716 76.475 41.5716 76.4167V74.2011L41.3585 74.333C41.309 74.3636 41.2493 74.3732 41.1926 74.3598C41.1359 74.3465 41.0869 74.3111 41.0563 74.2615C41.0256 74.212 41.016 74.1523 41.0294 74.0956C41.0428 74.0389 41.0781 73.9899 41.1277 73.9592L41.6749 73.6184C41.7084 73.5985 41.7465 73.5877 41.7854 73.5872C41.8244 73.5866 41.8628 73.5963 41.8968 73.6152C41.9309 73.6341 41.9593 73.6616 41.9794 73.695C41.9995 73.7284 42.0105 73.7664 42.0113 73.8054V76.4167Z" fill="#FAFAFA"/>
<path d="M39.8174 73.8965H42.1091" stroke="#191919" stroke-width="0.343756" stroke-linecap="round" stroke-linejoin="round"/>
<path d="M40.9634 75.0437V72.752" stroke="#191919" stroke-width="0.343756" stroke-linecap="round" stroke-linejoin="round"/>
<path d="M10.8689 47.8673C11.2378 47.8668 11.5915 47.7201 11.8523 47.4593C12.1131 47.1984 12.2599 46.8448 12.2603 46.4759V45.9944C11.3402 46.1677 10.3951 46.161 9.47754 45.9746V46.4759C9.47797 46.8448 9.6247 47.1984 9.88554 47.4593C10.1464 47.7201 10.5 47.8668 10.8689 47.8673Z" fill="#FAFAFA"/>
<path d="M16.5688 50.6215L15.4279 48.2233C15.2127 47.7743 14.8336 47.425 14.3686 47.2472L13.4979 46.9154C13.1533 46.8135 12.9019 46.4088 12.6998 46.1328V46.4102C12.708 46.666 12.6629 46.9208 12.5671 47.1582C12.4714 47.3956 12.3273 47.6104 12.1438 47.789C11.9604 47.9675 11.7418 48.1059 11.502 48.1953C11.2621 48.2846 11.0062 48.323 10.7507 48.3079C10.4952 48.2928 10.2456 48.2247 10.0179 48.1077C9.79018 47.9908 9.58934 47.8277 9.4282 47.6288C9.26706 47.4299 9.14915 47.1997 9.08199 46.9526C9.01483 46.7056 8.99991 46.4473 9.03816 46.1942C8.88759 46.4837 8.64135 46.7121 8.34134 46.8404L7.52574 47.1329C7.05761 47.2985 6.67166 47.6388 6.44867 48.0824L5.16914 50.6215C5.15137 50.66 5.14948 50.7039 5.16388 50.7438C5.17828 50.7837 5.20782 50.8163 5.24608 50.8346L6.95036 51.6096C6.98238 51.6242 7.01743 51.6309 7.05257 51.6291C7.08771 51.6274 7.12192 51.6172 7.15232 51.5995C7.18272 51.5818 7.20842 51.557 7.22726 51.5273C7.24611 51.4976 7.25754 51.4638 7.26061 51.4287L7.32327 50.7144C7.3298 50.6571 7.35845 50.6046 7.40312 50.5681C7.44778 50.5316 7.50493 50.514 7.56239 50.519C7.61984 50.524 7.67306 50.5513 7.71071 50.595C7.74836 50.6387 7.76745 50.6954 7.76393 50.7529L7.23325 56.7851C7.23304 56.8279 7.24161 56.8703 7.25844 56.9097C7.27528 56.9491 7.30001 56.9847 7.33111 57.0141C7.36222 57.0436 7.39903 57.0663 7.43928 57.081C7.47953 57.0957 7.52237 57.1019 7.56513 57.0994H14.1904C14.2333 57.1019 14.2764 57.0956 14.3168 57.0808C14.3572 57.066 14.3941 57.0431 14.4252 57.0133C14.4564 56.9836 14.4811 56.9479 14.4978 56.9082C14.5144 56.8685 14.5228 56.8259 14.5223 56.7828C14.4284 55.7762 14.0398 51.671 13.9536 50.7542C13.9495 50.6968 13.968 50.6401 14.0051 50.5962C14.0423 50.5523 14.0952 50.5247 14.1525 50.5193C14.2097 50.5139 14.2668 50.5311 14.3115 50.5673C14.3562 50.6035 14.385 50.6558 14.3916 50.7129L14.4584 51.42C14.4617 51.4547 14.4732 51.4882 14.492 51.5176C14.5108 51.547 14.5363 51.5715 14.5664 51.5891C14.5965 51.6067 14.6304 51.6168 14.6653 51.6187C14.7001 51.6206 14.7349 51.6142 14.7668 51.6L16.4919 50.8303C16.5296 50.8125 16.5587 50.7806 16.5731 50.7415C16.5875 50.7024 16.586 50.6595 16.5688 50.6215ZM10.4512 54.8483C10.4494 54.9054 10.4255 54.9596 10.3845 54.9994C10.3435 55.0392 10.2886 55.0614 10.2315 55.0614C10.1743 55.0614 10.1194 55.0392 10.0784 54.9994C10.0374 54.9596 10.0135 54.9054 10.0117 54.8483V52.6328L9.79845 52.7646C9.74893 52.7939 9.6899 52.8026 9.63405 52.7888C9.57819 52.775 9.52997 52.7399 9.49976 52.6909C9.46955 52.642 9.45975 52.5831 9.47248 52.527C9.4852 52.4709 9.51943 52.422 9.56781 52.3909L10.115 52.05C10.1485 52.0301 10.1866 52.0194 10.2256 52.0188C10.2645 52.0183 10.3029 52.0279 10.3369 52.0468C10.371 52.0658 10.3995 52.0933 10.4195 52.1266C10.4396 52.16 10.4506 52.1981 10.4514 52.237L10.4512 54.8483ZM12.0318 54.8483C12.0318 54.9066 12.0086 54.9625 11.9674 55.0038C11.9262 55.045 11.8703 55.0681 11.812 55.0681C11.7537 55.0681 11.6977 55.045 11.6565 55.0038C11.6153 54.9625 11.5921 54.9066 11.5921 54.8483V52.6328L11.379 52.7646C11.3295 52.7952 11.2698 52.8049 11.2131 52.7915C11.1564 52.7781 11.1074 52.7427 11.0768 52.6932C11.0462 52.6436 11.0365 52.5839 11.0499 52.5272C11.0633 52.4705 11.0986 52.4215 11.1482 52.3909L11.6954 52.05C11.7289 52.0301 11.767 52.0194 11.8059 52.0188C11.8449 52.0183 11.8833 52.0279 11.9173 52.0468C11.9514 52.0658 11.9798 52.0933 11.9999 52.1266C12.02 52.16 12.031 52.1981 12.0318 52.237V54.8483Z" fill="#FAFAFA"/>
<path d="M10.4512 54.8483C10.4494 54.9054 10.4255 54.9596 10.3845 54.9994C10.3435 55.0392 10.2886 55.0614 10.2315 55.0614C10.1743 55.0614 10.1194 55.0392 10.0784 54.9994C10.0374 54.9596 10.0135 54.9054 10.0117 54.8483V52.6328L9.79845 52.7646C9.74893 52.7939 9.6899 52.8026 9.63405 52.7888C9.57819 52.775 9.52997 52.7399 9.49976 52.6909C9.46955 52.642 9.45975 52.5831 9.47248 52.527C9.4852 52.4709 9.51943 52.422 9.56781 52.3909L10.115 52.05C10.1485 52.0301 10.1866 52.0194 10.2256 52.0188C10.2645 52.0183 10.3029 52.0279 10.3369 52.0468C10.371 52.0658 10.3995 52.0933 10.4195 52.1266C10.4396 52.16 10.4506 52.1981 10.4514 52.237L10.4512 54.8483Z" fill="#FAFAFA"/>
<path d="M12.0318 54.8483C12.0318 54.9066 12.0086 54.9625 11.9674 55.0038C11.9262 55.045 11.8703 55.0681 11.812 55.0681C11.7537 55.0681 11.6977 55.045 11.6565 55.0038C11.6153 54.9625 11.5921 54.9066 11.5921 54.8483V52.6328L11.379 52.7646C11.3295 52.7952 11.2698 52.8049 11.2131 52.7915C11.1564 52.7781 11.1074 52.7427 11.0768 52.6932C11.0462 52.6436 11.0365 52.5839 11.0499 52.5272C11.0633 52.4705 11.0986 52.4215 11.1482 52.3909L11.6954 52.05C11.7289 52.0301 11.767 52.0194 11.8059 52.0188C11.8449 52.0183 11.8833 52.0279 11.9173 52.0468C11.9514 52.0658 11.9798 52.0933 11.9999 52.1266C12.02 52.16 12.031 52.1981 12.0318 52.237V54.8483Z" fill="#FAFAFA"/>
<path d="M9.83789 52.332H12.1296" stroke="#191919" stroke-width="0.343756" stroke-linecap="round" stroke-linejoin="round"/>
<path d="M10.9839 53.4792V51.1875" stroke="#191919" stroke-width="0.343756" stroke-linecap="round" stroke-linejoin="round"/>
<path d="M69.9505 47.8673C70.3194 47.8668 70.673 47.7201 70.9338 47.4593C71.1947 47.1984 71.3414 46.8448 71.3419 46.4759V45.9944C70.4217 46.1677 69.4767 46.161 68.5591 45.9746V46.4759C68.5595 46.8448 68.7062 47.1984 68.9671 47.4593C69.2279 47.7201 69.5816 47.8668 69.9505 47.8673Z" fill="#FAFAFA"/>
<path d="M75.6504 50.6215L74.5094 48.2233C74.2943 47.7743 73.9151 47.425 73.4501 47.2472L72.5794 46.9154C72.2349 46.8135 71.9834 46.4088 71.7814 46.1328V46.4102C71.7896 46.666 71.7444 46.9208 71.6487 47.1582C71.553 47.3956 71.4088 47.6104 71.2254 47.789C71.042 47.9675 70.8234 48.1059 70.5835 48.1953C70.3436 48.2846 70.0878 48.323 69.8322 48.3079C69.5767 48.2928 69.3271 48.2247 69.0994 48.1077C68.8717 47.9908 68.6709 47.8277 68.5097 47.6288C68.3486 47.4299 68.2307 47.1997 68.1635 46.9526C68.0964 46.7056 68.0814 46.4473 68.1197 46.1942C67.9691 46.4837 67.7229 46.7121 67.4229 46.8404L66.6073 47.1329C66.1391 47.2985 65.7532 47.6388 65.5302 48.0824L64.2507 50.6215C64.2329 50.66 64.231 50.7039 64.2454 50.7438C64.2598 50.7837 64.2894 50.8163 64.3276 50.8346L66.0319 51.6096C66.0639 51.6242 66.099 51.6309 66.1341 51.6291C66.1693 51.6274 66.2035 51.6172 66.2339 51.5995C66.2643 51.5818 66.29 51.557 66.3088 51.5273C66.3276 51.4976 66.3391 51.4638 66.3421 51.4287L66.4048 50.7144C66.4113 50.6571 66.44 50.6046 66.4847 50.5681C66.5293 50.5316 66.5865 50.514 66.6439 50.519C66.7014 50.524 66.7546 50.5513 66.7923 50.595C66.8299 50.6387 66.849 50.6954 66.8455 50.7529L66.3148 56.7851C66.3146 56.8279 66.3232 56.8703 66.34 56.9097C66.3568 56.9491 66.3816 56.9847 66.4127 57.0141C66.4438 57.0436 66.4806 57.0663 66.5208 57.081C66.5611 57.0957 66.6039 57.1019 66.6467 57.0994H73.2719C73.3149 57.1019 73.3579 57.0956 73.3983 57.0808C73.4387 57.066 73.4756 57.0431 73.5068 57.0133C73.5379 56.9836 73.5626 56.9479 73.5793 56.9082C73.596 56.8685 73.6043 56.8259 73.6038 56.7828C73.5099 55.7762 73.1213 51.671 73.0352 50.7542C73.031 50.6968 73.0495 50.6401 73.0867 50.5962C73.1239 50.5523 73.1767 50.5247 73.234 50.5193C73.2913 50.5139 73.3484 50.5311 73.3931 50.5673C73.4378 50.6035 73.4665 50.6558 73.4732 50.7129L73.5399 51.42C73.5432 51.4547 73.5547 51.4882 73.5735 51.5176C73.5923 51.547 73.6178 51.5715 73.648 51.5891C73.6781 51.6067 73.712 51.6168 73.7468 51.6187C73.7817 51.6206 73.8165 51.6142 73.8483 51.6L75.5734 50.8303C75.6111 50.8125 75.6403 50.7806 75.6547 50.7415C75.6691 50.7024 75.6675 50.6595 75.6504 50.6215ZM69.5327 54.8483C69.531 54.9054 69.5071 54.9596 69.4661 54.9994C69.425 55.0392 69.3701 55.0614 69.313 55.0614C69.2559 55.0614 69.201 55.0392 69.16 54.9994C69.1189 54.9596 69.095 54.9054 69.0933 54.8483V52.6328L68.88 52.7646C68.8305 52.7939 68.7714 52.8026 68.7156 52.7888C68.6597 52.775 68.6115 52.7399 68.5813 52.6909C68.5511 52.642 68.5413 52.5831 68.554 52.527C68.5667 52.4709 68.601 52.422 68.6494 52.3909L69.1966 52.05C69.23 52.0301 69.2682 52.0194 69.3071 52.0188C69.346 52.0183 69.3844 52.0279 69.4185 52.0468C69.4525 52.0658 69.481 52.0933 69.5011 52.1266C69.5212 52.16 69.5321 52.1981 69.5329 52.237L69.5327 54.8483ZM71.1133 54.8483C71.1133 54.9066 71.0902 54.9625 71.0489 55.0038C71.0077 55.045 70.9518 55.0681 70.8935 55.0681C70.8352 55.0681 70.7793 55.045 70.7381 55.0038C70.6968 54.9625 70.6737 54.9066 70.6737 54.8483V52.6328L70.4606 52.7646C70.411 52.7952 70.3513 52.8049 70.2947 52.7915C70.238 52.7781 70.1889 52.7427 70.1583 52.6932C70.1277 52.6436 70.118 52.5839 70.1314 52.5272C70.1448 52.4705 70.1802 52.4215 70.2297 52.3909L70.7769 52.05C70.8104 52.0301 70.8485 52.0194 70.8875 52.0188C70.9264 52.0183 70.9648 52.0279 70.9989 52.0468C71.0329 52.0658 71.0614 52.0933 71.0815 52.1266C71.1016 52.16 71.1125 52.1981 71.1133 52.237V54.8483Z" fill="#FAFAFA"/>
<path d="M69.5327 54.8483C69.531 54.9054 69.5071 54.9596 69.4661 54.9994C69.425 55.0392 69.3701 55.0614 69.313 55.0614C69.2559 55.0614 69.201 55.0392 69.16 54.9994C69.1189 54.9596 69.095 54.9054 69.0933 54.8483V52.6328L68.88 52.7646C68.8305 52.7939 68.7714 52.8026 68.7156 52.7888C68.6597 52.775 68.6115 52.7399 68.5813 52.6909C68.5511 52.642 68.5413 52.5831 68.554 52.527C68.5667 52.4709 68.601 52.422 68.6494 52.3909L69.1966 52.05C69.23 52.0301 69.2682 52.0194 69.3071 52.0188C69.346 52.0183 69.3844 52.0279 69.4185 52.0468C69.4525 52.0658 69.481 52.0933 69.5011 52.1266C69.5212 52.16 69.5321 52.1981 69.5329 52.237L69.5327 54.8483Z" fill="#FAFAFA"/>
<path d="M71.1133 54.8483C71.1133 54.9066 71.0902 54.9625 71.0489 55.0038C71.0077 55.045 70.9518 55.0681 70.8935 55.0681C70.8352 55.0681 70.7793 55.045 70.7381 55.0038C70.6968 54.9625 70.6737 54.9066 70.6737 54.8483V52.6328L70.4606 52.7646C70.411 52.7952 70.3513 52.8049 70.2947 52.7915C70.238 52.7781 70.1889 52.7427 70.1583 52.6932C70.1277 52.6436 70.118 52.5839 70.1314 52.5272C70.1448 52.4705 70.1802 52.4215 70.2297 52.3909L70.7769 52.05C70.8104 52.0301 70.8485 52.0194 70.8875 52.0188C70.9264 52.0183 70.9648 52.0279 70.9989 52.0468C71.0329 52.0658 71.0614 52.0933 71.0815 52.1266C71.1016 52.16 71.1125 52.1981 71.1133 52.237V54.8483Z" fill="#FAFAFA"/>
<path d="M68.9194 52.332H71.2111" stroke="#191919" stroke-width="0.343756" stroke-linecap="round" stroke-linejoin="round"/>
<path d="M70.0654 53.4792V51.1875" stroke="#191919" stroke-width="0.343756" stroke-linecap="round" stroke-linejoin="round"/>
<path d="M50.9505 50.8673C51.3194 50.8668 51.673 50.7201 51.9338 50.4593C52.1947 50.1984 52.3414 49.8448 52.3419 49.4759V48.9944C51.4217 49.1677 50.4767 49.161 49.5591 48.9746V49.4759C49.5595 49.8448 49.7062 50.1984 49.9671 50.4593C50.2279 50.7201 50.5816 50.8668 50.9505 50.8673Z" fill="#FAFAFA"/>
<path d="M56.6504 53.6215L55.5094 51.2233C55.2943 50.7743 54.9151 50.425 54.4501 50.2472L53.5794 49.9154C53.2349 49.8135 52.9834 49.4088 52.7814 49.1328V49.4102C52.7896 49.666 52.7444 49.9208 52.6487 50.1582C52.553 50.3956 52.4088 50.6104 52.2254 50.789C52.042 50.9675 51.8234 51.1059 51.5835 51.1953C51.3436 51.2846 51.0878 51.323 50.8322 51.3079C50.5767 51.2928 50.3271 51.2247 50.0994 51.1077C49.8717 50.9908 49.6709 50.8277 49.5097 50.6288C49.3486 50.4299 49.2307 50.1997 49.1635 49.9526C49.0964 49.7056 49.0814 49.4473 49.1197 49.1942C48.9691 49.4837 48.7229 49.7121 48.4229 49.8404L47.6073 50.1329C47.1391 50.2985 46.7532 50.6388 46.5302 51.0824L45.2507 53.6215C45.2329 53.66 45.231 53.7039 45.2454 53.7438C45.2598 53.7837 45.2894 53.8163 45.3276 53.8346L47.0319 54.6096C47.0639 54.6242 47.099 54.6309 47.1341 54.6291C47.1693 54.6274 47.2035 54.6172 47.2339 54.5995C47.2643 54.5818 47.29 54.557 47.3088 54.5273C47.3276 54.4976 47.3391 54.4638 47.3421 54.4287L47.4048 53.7144C47.4113 53.6571 47.44 53.6046 47.4847 53.5681C47.5293 53.5316 47.5865 53.514 47.6439 53.519C47.7014 53.524 47.7546 53.5513 47.7923 53.595C47.8299 53.6387 47.849 53.6954 47.8455 53.7529L47.3148 59.7851C47.3146 59.8279 47.3232 59.8703 47.34 59.9097C47.3568 59.9491 47.3816 59.9847 47.4127 60.0141C47.4438 60.0436 47.4806 60.0663 47.5208 60.081C47.5611 60.0957 47.6039 60.1019 47.6467 60.0994H54.2719C54.3149 60.1019 54.3579 60.0956 54.3983 60.0808C54.4387 60.066 54.4756 60.0431 54.5068 60.0133C54.5379 59.9836 54.5626 59.9479 54.5793 59.9082C54.596 59.8685 54.6043 59.8259 54.6038 59.7828C54.5099 58.7762 54.1213 54.671 54.0352 53.7542C54.031 53.6968 54.0495 53.6401 54.0867 53.5962C54.1239 53.5523 54.1767 53.5247 54.234 53.5193C54.2913 53.5139 54.3484 53.5311 54.3931 53.5673C54.4378 53.6035 54.4665 53.6558 54.4732 53.7129L54.5399 54.42C54.5432 54.4547 54.5547 54.4882 54.5735 54.5176C54.5923 54.547 54.6178 54.5715 54.648 54.5891C54.6781 54.6067 54.712 54.6168 54.7468 54.6187C54.7817 54.6206 54.8165 54.6142 54.8483 54.6L56.5734 53.8303C56.6111 53.8125 56.6403 53.7806 56.6547 53.7415C56.6691 53.7024 56.6675 53.6595 56.6504 53.6215ZM50.5327 57.8483C50.531 57.9054 50.5071 57.9596 50.4661 57.9994C50.425 58.0392 50.3701 58.0614 50.313 58.0614C50.2559 58.0614 50.201 58.0392 50.16 57.9994C50.1189 57.9596 50.095 57.9054 50.0933 57.8483V55.6328L49.88 55.7646C49.8305 55.7939 49.7714 55.8026 49.7156 55.7888C49.6597 55.775 49.6115 55.7399 49.5813 55.6909C49.5511 55.642 49.5413 55.5831 49.554 55.527C49.5667 55.4709 49.601 55.422 49.6494 55.3909L50.1966 55.05C50.23 55.0301 50.2682 55.0194 50.3071 55.0188C50.346 55.0183 50.3844 55.0279 50.4185 55.0468C50.4525 55.0658 50.481 55.0933 50.5011 55.1266C50.5212 55.16 50.5321 55.1981 50.5329 55.237L50.5327 57.8483ZM52.1133 57.8483C52.1133 57.9066 52.0902 57.9625 52.0489 58.0038C52.0077 58.045 51.9518 58.0681 51.8935 58.0681C51.8352 58.0681 51.7793 58.045 51.7381 58.0038C51.6968 57.9625 51.6737 57.9066 51.6737 57.8483V55.6328L51.4606 55.7646C51.411 55.7952 51.3513 55.8049 51.2947 55.7915C51.238 55.7781 51.1889 55.7427 51.1583 55.6932C51.1277 55.6436 51.118 55.5839 51.1314 55.5272C51.1448 55.4705 51.1802 55.4215 51.2297 55.3909L51.7769 55.05C51.8104 55.0301 51.8485 55.0194 51.8875 55.0188C51.9264 55.0183 51.9648 55.0279 51.9989 55.0468C52.0329 55.0658 52.0614 55.0933 52.0815 55.1266C52.1016 55.16 52.1125 55.1981 52.1133 55.237V57.8483Z" fill="#FAFAFA"/>
<path d="M50.5327 57.8483C50.531 57.9054 50.5071 57.9596 50.4661 57.9994C50.425 58.0392 50.3701 58.0614 50.313 58.0614C50.2559 58.0614 50.201 58.0392 50.16 57.9994C50.1189 57.9596 50.095 57.9054 50.0933 57.8483V55.6328L49.88 55.7646C49.8305 55.7939 49.7714 55.8026 49.7156 55.7888C49.6597 55.775 49.6115 55.7399 49.5813 55.6909C49.5511 55.642 49.5413 55.5831 49.554 55.527C49.5667 55.4709 49.601 55.422 49.6494 55.3909L50.1966 55.05C50.23 55.0301 50.2682 55.0194 50.3071 55.0188C50.346 55.0183 50.3844 55.0279 50.4185 55.0468C50.4525 55.0658 50.481 55.0933 50.5011 55.1266C50.5212 55.16 50.5321 55.1981 50.5329 55.237L50.5327 57.8483Z" fill="#FAFAFA"/>
<path d="M52.1133 57.8483C52.1133 57.9066 52.0902 57.9625 52.0489 58.0038C52.0077 58.045 51.9518 58.0681 51.8935 58.0681C51.8352 58.0681 51.7793 58.045 51.7381 58.0038C51.6968 57.9625 51.6737 57.9066 51.6737 57.8483V55.6328L51.4606 55.7646C51.411 55.7952 51.3513 55.8049 51.2947 55.7915C51.238 55.7781 51.1889 55.7427 51.1583 55.6932C51.1277 55.6436 51.118 55.5839 51.1314 55.5272C51.1448 55.4705 51.1802 55.4215 51.2297 55.3909L51.7769 55.05C51.8104 55.0301 51.8485 55.0194 51.8875 55.0188C51.9264 55.0183 51.9648 55.0279 51.9989 55.0468C52.0329 55.0658 52.0614 55.0933 52.0815 55.1266C52.1016 55.16 52.1125 55.1981 52.1133 55.237V57.8483Z" fill="#FAFAFA"/>
<path d="M49.9194 55.332H52.2111" stroke="#191919" stroke-width="0.343756" stroke-linecap="round" stroke-linejoin="round"/>
<path d="M51.0654 56.4792V54.1875" stroke="#191919" stroke-width="0.343756" stroke-linecap="round" stroke-linejoin="round"/>
<path d="M30.9505 50.8673C31.3194 50.8668 31.673 50.7201 31.9338 50.4593C32.1947 50.1984 32.3414 49.8448 32.3419 49.4759V48.9944C31.4217 49.1677 30.4767 49.161 29.5591 48.9746V49.4759C29.5595 49.8448 29.7062 50.1984 29.9671 50.4593C30.2279 50.7201 30.5816 50.8668 30.9505 50.8673Z" fill="#FAFAFA"/>
<path d="M36.6504 53.6215L35.5094 51.2233C35.2943 50.7743 34.9151 50.425 34.4501 50.2472L33.5794 49.9154C33.2349 49.8135 32.9834 49.4088 32.7814 49.1328V49.4102C32.7896 49.666 32.7444 49.9208 32.6487 50.1582C32.553 50.3956 32.4088 50.6104 32.2254 50.789C32.042 50.9675 31.8234 51.1059 31.5835 51.1953C31.3436 51.2846 31.0878 51.323 30.8322 51.3079C30.5767 51.2928 30.3271 51.2247 30.0994 51.1077C29.8717 50.9908 29.6709 50.8277 29.5097 50.6288C29.3486 50.4299 29.2307 50.1997 29.1635 49.9526C29.0964 49.7056 29.0814 49.4473 29.1197 49.1942C28.9691 49.4837 28.7229 49.7121 28.4229 49.8404L27.6073 50.1329C27.1391 50.2985 26.7532 50.6388 26.5302 51.0824L25.2507 53.6215C25.2329 53.66 25.231 53.7039 25.2454 53.7438C25.2598 53.7837 25.2894 53.8163 25.3276 53.8346L27.0319 54.6096C27.0639 54.6242 27.099 54.6309 27.1341 54.6291C27.1693 54.6274 27.2035 54.6172 27.2339 54.5995C27.2643 54.5818 27.29 54.557 27.3088 54.5273C27.3276 54.4976 27.3391 54.4638 27.3421 54.4287L27.4048 53.7144C27.4113 53.6571 27.44 53.6046 27.4847 53.5681C27.5293 53.5316 27.5865 53.514 27.6439 53.519C27.7014 53.524 27.7546 53.5513 27.7923 53.595C27.8299 53.6387 27.849 53.6954 27.8455 53.7529L27.3148 59.7851C27.3146 59.8279 27.3232 59.8703 27.34 59.9097C27.3568 59.9491 27.3816 59.9847 27.4127 60.0141C27.4438 60.0436 27.4806 60.0663 27.5208 60.081C27.5611 60.0957 27.6039 60.1019 27.6467 60.0994H34.2719C34.3149 60.1019 34.3579 60.0956 34.3983 60.0808C34.4387 60.066 34.4756 60.0431 34.5068 60.0133C34.5379 59.9836 34.5626 59.9479 34.5793 59.9082C34.596 59.8685 34.6043 59.8259 34.6038 59.7828C34.5099 58.7762 34.1213 54.671 34.0352 53.7542C34.031 53.6968 34.0495 53.6401 34.0867 53.5962C34.1239 53.5523 34.1767 53.5247 34.234 53.5193C34.2913 53.5139 34.3484 53.5311 34.3931 53.5673C34.4378 53.6035 34.4665 53.6558 34.4732 53.7129L34.5399 54.42C34.5432 54.4547 34.5547 54.4882 34.5735 54.5176C34.5923 54.547 34.6178 54.5715 34.648 54.5891C34.6781 54.6067 34.712 54.6168 34.7468 54.6187C34.7817 54.6206 34.8165 54.6142 34.8483 54.6L36.5734 53.8303C36.6111 53.8125 36.6403 53.7806 36.6547 53.7415C36.6691 53.7024 36.6675 53.6595 36.6504 53.6215ZM30.5327 57.8483C30.531 57.9054 30.5071 57.9596 30.4661 57.9994C30.425 58.0392 30.3701 58.0614 30.313 58.0614C30.2559 58.0614 30.201 58.0392 30.16 57.9994C30.1189 57.9596 30.095 57.9054 30.0933 57.8483V55.6328L29.88 55.7646C29.8305 55.7939 29.7714 55.8026 29.7156 55.7888C29.6597 55.775 29.6115 55.7399 29.5813 55.6909C29.5511 55.642 29.5413 55.5831 29.554 55.527C29.5667 55.4709 29.601 55.422 29.6494 55.3909L30.1966 55.05C30.23 55.0301 30.2682 55.0194 30.3071 55.0188C30.346 55.0183 30.3844 55.0279 30.4185 55.0468C30.4525 55.0658 30.481 55.0933 30.5011 55.1266C30.5212 55.16 30.5321 55.1981 30.5329 55.237L30.5327 57.8483ZM32.1133 57.8483C32.1133 57.9066 32.0902 57.9625 32.0489 58.0038C32.0077 58.045 31.9518 58.0681 31.8935 58.0681C31.8352 58.0681 31.7793 58.045 31.7381 58.0038C31.6968 57.9625 31.6737 57.9066 31.6737 57.8483V55.6328L31.4606 55.7646C31.411 55.7952 31.3513 55.8049 31.2947 55.7915C31.238 55.7781 31.1889 55.7427 31.1583 55.6932C31.1277 55.6436 31.118 55.5839 31.1314 55.5272C31.1448 55.4705 31.1802 55.4215 31.2297 55.3909L31.7769 55.05C31.8104 55.0301 31.8485 55.0194 31.8875 55.0188C31.9264 55.0183 31.9648 55.0279 31.9989 55.0468C32.0329 55.0658 32.0614 55.0933 32.0815 55.1266C32.1016 55.16 32.1125 55.1981 32.1133 55.237V57.8483Z" fill="#FAFAFA"/>
<path d="M30.5327 57.8483C30.531 57.9054 30.5071 57.9596 30.4661 57.9994C30.425 58.0392 30.3701 58.0614 30.313 58.0614C30.2559 58.0614 30.201 58.0392 30.16 57.9994C30.1189 57.9596 30.095 57.9054 30.0933 57.8483V55.6328L29.88 55.7646C29.8305 55.7939 29.7714 55.8026 29.7156 55.7888C29.6597 55.775 29.6115 55.7399 29.5813 55.6909C29.5511 55.642 29.5413 55.5831 29.554 55.527C29.5667 55.4709 29.601 55.422 29.6494 55.3909L30.1966 55.05C30.23 55.0301 30.2682 55.0194 30.3071 55.0188C30.346 55.0183 30.3844 55.0279 30.4185 55.0468C30.4525 55.0658 30.481 55.0933 30.5011 55.1266C30.5212 55.16 30.5321 55.1981 30.5329 55.237L30.5327 57.8483Z" fill="#FAFAFA"/>
<path d="M32.1133 57.8483C32.1133 57.9066 32.0902 57.9625 32.0489 58.0038C32.0077 58.045 31.9518 58.0681 31.8935 58.0681C31.8352 58.0681 31.7793 58.045 31.7381 58.0038C31.6968 57.9625 31.6737 57.9066 31.6737 57.8483V55.6328L31.4606 55.7646C31.411 55.7952 31.3513 55.8049 31.2947 55.7915C31.238 55.7781 31.1889 55.7427 31.1583 55.6932C31.1277 55.6436 31.118 55.5839 31.1314 55.5272C31.1448 55.4705 31.1802 55.4215 31.2297 55.3909L31.7769 55.05C31.8104 55.0301 31.8485 55.0194 31.8875 55.0188C31.9264 55.0183 31.9648 55.0279 31.9989 55.0468C32.0329 55.0658 32.0614 55.0933 32.0815 55.1266C32.1016 55.16 32.1125 55.1981 32.1133 55.237V57.8483Z" fill="#FAFAFA"/>
<path d="M29.9194 55.332H32.2111" stroke="#191919" stroke-width="0.343756" stroke-linecap="round" stroke-linejoin="round"/>
<path d="M31.0654 56.4792V54.1875" stroke="#191919" stroke-width="0.343756" stroke-linecap="round" stroke-linejoin="round"/>
<path d="M11.9505 18.8673C12.3194 18.8668 12.673 18.7201 12.9338 18.4593C13.1947 18.1984 13.3414 17.8448 13.3419 17.4759V16.9944C12.4217 17.1677 11.4767 17.161 10.5591 16.9746V17.4759C10.5595 17.8448 10.7062 18.1984 10.9671 18.4593C11.2279 18.7201 11.5816 18.8668 11.9505 18.8673Z" fill="#FAFAFA"/>
<path d="M17.6504 21.6215L16.5094 19.2233C16.2943 18.7743 15.9151 18.425 15.4501 18.2472L14.5794 17.9154C14.2349 17.8135 13.9834 17.4088 13.7814 17.1328V17.4102C13.7896 17.666 13.7444 17.9208 13.6487 18.1582C13.553 18.3956 13.4088 18.6104 13.2254 18.789C13.042 18.9675 12.8234 19.1059 12.5835 19.1953C12.3436 19.2846 12.0878 19.323 11.8322 19.3079C11.5767 19.2928 11.3271 19.2247 11.0994 19.1077C10.8717 18.9908 10.6709 18.8277 10.5097 18.6288C10.3486 18.4299 10.2307 18.1997 10.1635 17.9526C10.0964 17.7056 10.0814 17.4473 10.1197 17.1942C9.96914 17.4837 9.72289 17.7121 9.42289 17.8404L8.60728 18.1329C8.13915 18.2985 7.75321 18.6388 7.53022 19.0824L6.25068 21.6215C6.23291 21.66 6.23102 21.7039 6.24543 21.7438C6.25983 21.7837 6.28936 21.8163 6.32763 21.8346L8.03191 22.6096C8.06392 22.6242 8.09897 22.6309 8.13411 22.6291C8.16925 22.6274 8.20346 22.6172 8.23386 22.5995C8.26426 22.5818 8.28996 22.557 8.3088 22.5273C8.32765 22.4976 8.33908 22.4638 8.34215 22.4287L8.40481 21.7144C8.41134 21.6571 8.43999 21.6046 8.48466 21.5681C8.52932 21.5316 8.58647 21.514 8.64393 21.519C8.70139 21.524 8.75461 21.5513 8.79225 21.595C8.8299 21.6387 8.849 21.6954 8.84547 21.7529L8.3148 27.7851C8.31458 27.8279 8.32316 27.8703 8.33999 27.9097C8.35682 27.9491 8.38155 27.9847 8.41266 28.0141C8.44376 28.0436 8.48057 28.0663 8.52083 28.081C8.56108 28.0957 8.60391 28.1019 8.64667 28.0994H15.2719C15.3149 28.1019 15.3579 28.0956 15.3983 28.0808C15.4387 28.066 15.4756 28.0431 15.5068 28.0133C15.5379 27.9836 15.5626 27.9479 15.5793 27.9082C15.596 27.8685 15.6043 27.8259 15.6038 27.7828C15.5099 26.7762 15.1213 22.671 15.0352 21.7542C15.031 21.6968 15.0495 21.6401 15.0867 21.5962C15.1239 21.5523 15.1767 21.5247 15.234 21.5193C15.2913 21.5139 15.3484 21.5311 15.3931 21.5673C15.4378 21.6035 15.4665 21.6558 15.4732 21.7129L15.5399 22.42C15.5432 22.4547 15.5547 22.4882 15.5735 22.5176C15.5923 22.547 15.6178 22.5715 15.648 22.5891C15.6781 22.6067 15.712 22.6168 15.7468 22.6187C15.7817 22.6206 15.8165 22.6142 15.8483 22.6L17.5734 21.8303C17.6111 21.8125 17.6403 21.7806 17.6547 21.7415C17.6691 21.7024 17.6675 21.6595 17.6504 21.6215ZM11.5327 25.8483C11.531 25.9054 11.5071 25.9596 11.4661 25.9994C11.425 26.0392 11.3701 26.0614 11.313 26.0614C11.2559 26.0614 11.201 26.0392 11.16 25.9994C11.1189 25.9596 11.095 25.9054 11.0933 25.8483V23.6328L10.88 23.7646C10.8305 23.7939 10.7714 23.8026 10.7156 23.7888C10.6597 23.775 10.6115 23.7399 10.5813 23.6909C10.5511 23.642 10.5413 23.5831 10.554 23.527C10.5667 23.4709 10.601 23.422 10.6494 23.3909L11.1966 23.05C11.23 23.0301 11.2682 23.0194 11.3071 23.0188C11.346 23.0183 11.3844 23.0279 11.4185 23.0468C11.4525 23.0658 11.481 23.0933 11.5011 23.1266C11.5212 23.16 11.5321 23.1981 11.5329 23.237L11.5327 25.8483ZM13.1133 25.8483C13.1133 25.9066 13.0902 25.9625 13.0489 26.0038C13.0077 26.045 12.9518 26.0681 12.8935 26.0681C12.8352 26.0681 12.7793 26.045 12.7381 26.0038C12.6968 25.9625 12.6737 25.9066 12.6737 25.8483V23.6328L12.4606 23.7646C12.411 23.7952 12.3513 23.8049 12.2947 23.7915C12.238 23.7781 12.1889 23.7427 12.1583 23.6932C12.1277 23.6436 12.118 23.5839 12.1314 23.5272C12.1448 23.4705 12.1802 23.4215 12.2297 23.3909L12.7769 23.05C12.8104 23.0301 12.8485 23.0194 12.8875 23.0188C12.9264 23.0183 12.9648 23.0279 12.9989 23.0468C13.0329 23.0658 13.0614 23.0933 13.0815 23.1266C13.1016 23.16 13.1125 23.1981 13.1133 23.237V25.8483Z" fill="#FAFAFA"/>
<path d="M11.5327 25.8483C11.531 25.9054 11.5071 25.9596 11.4661 25.9994C11.425 26.0392 11.3701 26.0614 11.313 26.0614C11.2559 26.0614 11.201 26.0392 11.16 25.9994C11.1189 25.9596 11.095 25.9054 11.0933 25.8483V23.6328L10.88 23.7646C10.8305 23.7939 10.7714 23.8026 10.7156 23.7888C10.6597 23.775 10.6115 23.7399 10.5813 23.6909C10.5511 23.642 10.5413 23.5831 10.554 23.527C10.5667 23.4709 10.601 23.422 10.6494 23.3909L11.1966 23.05C11.23 23.0301 11.2682 23.0194 11.3071 23.0188C11.346 23.0183 11.3844 23.0279 11.4185 23.0468C11.4525 23.0658 11.481 23.0933 11.5011 23.1266C11.5212 23.16 11.5321 23.1981 11.5329 23.237L11.5327 25.8483Z" fill="#FAFAFA"/>
<path d="M13.1133 25.8483C13.1133 25.9066 13.0902 25.9625 13.0489 26.0038C13.0077 26.045 12.9518 26.0681 12.8935 26.0681C12.8352 26.0681 12.7793 26.045 12.7381 26.0038C12.6968 25.9625 12.6737 25.9066 12.6737 25.8483V23.6328L12.4606 23.7646C12.411 23.7952 12.3513 23.8049 12.2947 23.7915C12.238 23.7781 12.1889 23.7427 12.1583 23.6932C12.1277 23.6436 12.118 23.5839 12.1314 23.5272C12.1448 23.4705 12.1802 23.4215 12.2297 23.3909L12.7769 23.05C12.8104 23.0301 12.8485 23.0194 12.8875 23.0188C12.9264 23.0183 12.9648 23.0279 12.9989 23.0468C13.0329 23.0658 13.0614 23.0933 13.0815 23.1266C13.1016 23.16 13.1125 23.1981 13.1133 23.237V25.8483Z" fill="#FAFAFA"/>
<path d="M10.9194 23.332H13.2111" stroke="#191919" stroke-width="0.343756" stroke-linecap="round" stroke-linejoin="round"/>
<path d="M12.0654 24.4792V22.1875" stroke="#191919" stroke-width="0.343756" stroke-linecap="round" stroke-linejoin="round"/>
<path d="M31.0132 18.8673C31.3821 18.8668 31.7358 18.7201 31.9966 18.4593C32.2574 18.1984 32.4042 17.8448 32.4046 17.4759V16.9944C31.4844 17.1677 30.5394 17.161 29.6218 16.9746V17.4759C29.6223 17.8448 29.769 18.1984 30.0298 18.4593C30.2907 18.7201 30.6443 18.8668 31.0132 18.8673Z" fill="#FAFAFA"/>
<path d="M36.7131 21.6215L35.5722 19.2233C35.357 18.7743 34.9779 18.425 34.5129 18.2472L33.6421 17.9154C33.2976 17.8135 33.0462 17.4088 32.8441 17.1328V17.4102C32.8523 17.666 32.8072 17.9208 32.7114 18.1582C32.6157 18.3956 32.4715 18.6104 32.2881 18.789C32.1047 18.9675 31.8861 19.1059 31.6463 19.1953C31.4064 19.2846 31.1505 19.323 30.895 19.3079C30.6395 19.2928 30.3899 19.2247 30.1622 19.1077C29.9345 18.9908 29.7336 18.8277 29.5725 18.6288C29.4113 18.4299 29.2934 18.1997 29.2263 17.9526C29.1591 17.7056 29.1442 17.4473 29.1824 17.1942C29.0319 17.4837 28.7856 17.7121 28.4856 17.8404L27.67 18.1329C27.2019 18.2985 26.8159 18.6388 26.593 19.0824L25.3134 21.6215C25.2957 21.66 25.2938 21.7039 25.3082 21.7438C25.3226 21.7837 25.3521 21.8163 25.3904 21.8346L27.0947 22.6096C27.1267 22.6242 27.1617 22.6309 27.1969 22.6291C27.232 22.6274 27.2662 22.6172 27.2966 22.5995C27.327 22.5818 27.3527 22.557 27.3715 22.5273C27.3904 22.4976 27.4018 22.4638 27.4049 22.4287L27.4676 21.7144C27.4741 21.6571 27.5027 21.6046 27.5474 21.5681C27.5921 21.5316 27.6492 21.514 27.7067 21.519C27.7641 21.524 27.8174 21.5513 27.855 21.595C27.8926 21.6387 27.9117 21.6954 27.9082 21.7529L27.3775 27.7851C27.3773 27.8279 27.3859 27.8703 27.4027 27.9097C27.4196 27.9491 27.4443 27.9847 27.4754 28.0141C27.5065 28.0436 27.5433 28.0663 27.5836 28.081C27.6238 28.0957 27.6667 28.1019 27.7094 28.0994H34.3347C34.3776 28.1019 34.4207 28.0956 34.4611 28.0808C34.5015 28.066 34.5384 28.0431 34.5695 28.0133C34.6007 27.9836 34.6253 27.9479 34.642 27.9082C34.6587 27.8685 34.6671 27.8259 34.6666 27.7828C34.5727 26.7762 34.184 22.671 34.0979 21.7542C34.0938 21.6968 34.1123 21.6401 34.1494 21.5962C34.1866 21.5523 34.2395 21.5247 34.2968 21.5193C34.354 21.5139 34.4111 21.5311 34.4558 21.5673C34.5005 21.6035 34.5293 21.6558 34.5359 21.7129L34.6027 22.42C34.606 22.4547 34.6175 22.4882 34.6363 22.5176C34.655 22.547 34.6806 22.5715 34.7107 22.5891C34.7408 22.6067 34.7747 22.6168 34.8096 22.6187C34.8444 22.6206 34.8792 22.6142 34.9111 22.6L36.6362 21.8303C36.6739 21.8125 36.703 21.7806 36.7174 21.7415C36.7318 21.7024 36.7303 21.6595 36.7131 21.6215ZM30.5955 25.8483C30.5937 25.9054 30.5698 25.9596 30.5288 25.9994C30.4878 26.0392 30.4329 26.0614 30.3757 26.0614C30.3186 26.0614 30.2637 26.0392 30.2227 25.9994C30.1817 25.9596 30.1578 25.9054 30.156 25.8483V23.6328L29.9427 23.7646C29.8932 23.7939 29.8342 23.8026 29.7783 23.7888C29.7225 23.775 29.6743 23.7399 29.644 23.6909C29.6138 23.642 29.604 23.5831 29.6168 23.527C29.6295 23.4709 29.6637 23.422 29.7121 23.3909L30.2593 23.05C30.2928 23.0301 30.3309 23.0194 30.3698 23.0188C30.4088 23.0183 30.4472 23.0279 30.4812 23.0468C30.5153 23.0658 30.5437 23.0933 30.5638 23.1266C30.5839 23.16 30.5949 23.1981 30.5957 23.237L30.5955 25.8483ZM32.1761 25.8483C32.1761 25.9066 32.1529 25.9625 32.1117 26.0038C32.0705 26.045 32.0145 26.0681 31.9562 26.0681C31.8979 26.0681 31.842 26.045 31.8008 26.0038C31.7596 25.9625 31.7364 25.9066 31.7364 25.8483V23.6328L31.5233 23.7646C31.4738 23.7952 31.4141 23.8049 31.3574 23.7915C31.3007 23.7781 31.2517 23.7427 31.2211 23.6932C31.1904 23.6436 31.1808 23.5839 31.1942 23.5272C31.2076 23.4705 31.2429 23.4215 31.2925 23.3909L31.8397 23.05C31.8732 23.0301 31.9113 23.0194 31.9502 23.0188C31.9892 23.0183 32.0276 23.0279 32.0616 23.0468C32.0956 23.0658 32.1241 23.0933 32.1442 23.1266C32.1643 23.16 32.1753 23.1981 32.1761 23.237V25.8483Z" fill="#FAFAFA"/>
<path d="M30.5955 25.8483C30.5937 25.9054 30.5698 25.9596 30.5288 25.9994C30.4878 26.0392 30.4329 26.0614 30.3757 26.0614C30.3186 26.0614 30.2637 26.0392 30.2227 25.9994C30.1817 25.9596 30.1578 25.9054 30.156 25.8483V23.6328L29.9427 23.7646C29.8932 23.7939 29.8342 23.8026 29.7783 23.7888C29.7225 23.775 29.6743 23.7399 29.644 23.6909C29.6138 23.642 29.604 23.5831 29.6168 23.527C29.6295 23.4709 29.6637 23.422 29.7121 23.3909L30.2593 23.05C30.2928 23.0301 30.3309 23.0194 30.3698 23.0188C30.4088 23.0183 30.4472 23.0279 30.4812 23.0468C30.5153 23.0658 30.5437 23.0933 30.5638 23.1266C30.5839 23.16 30.5949 23.1981 30.5957 23.237L30.5955 25.8483Z" fill="#FAFAFA"/>
<path d="M32.1761 25.8483C32.1761 25.9066 32.1529 25.9625 32.1117 26.0038C32.0705 26.045 32.0145 26.0681 31.9562 26.0681C31.8979 26.0681 31.842 26.045 31.8008 26.0038C31.7596 25.9625 31.7364 25.9066 31.7364 25.8483V23.6328L31.5233 23.7646C31.4738 23.7952 31.4141 23.8049 31.3574 23.7915C31.3007 23.7781 31.2517 23.7427 31.2211 23.6932C31.1904 23.6436 31.1808 23.5839 31.1942 23.5272C31.2076 23.4705 31.2429 23.4215 31.2925 23.3909L31.8397 23.05C31.8732 23.0301 31.9113 23.0194 31.9502 23.0188C31.9892 23.0183 32.0276 23.0279 32.0616 23.0468C32.0956 23.0658 32.1241 23.0933 32.1442 23.1266C32.1643 23.16 32.1753 23.1981 32.1761 23.237V25.8483Z" fill="#FAFAFA"/>
<path d="M29.9822 23.332H32.2739" stroke="#191919" stroke-width="0.343756" stroke-linecap="round" stroke-linejoin="round"/>
<path d="M31.1282 24.4792V22.1875" stroke="#191919" stroke-width="0.343756" stroke-linecap="round" stroke-linejoin="round"/>
<path d="M41.076 5.86728C41.4448 5.86685 41.7985 5.72012 42.0593 5.45927C42.3202 5.19843 42.4669 4.84478 42.4673 4.47589V3.99441C41.5472 4.16774 40.6022 4.16102 39.6846 3.97461V4.47589C39.685 4.84478 39.8317 5.19843 40.0926 5.45927C40.3534 5.72012 40.7071 5.86685 41.076 5.86728Z" fill="#FAFAFA"/>
<path d="M46.7759 8.6215L45.6349 6.22326C45.4197 5.77433 45.0406 5.42501 44.5756 5.24723L43.7049 4.91535C43.3604 4.8135 43.1089 4.40876 42.9068 4.13281V4.41019C42.9151 4.66603 42.8699 4.92078 42.7742 5.15818C42.6784 5.39558 42.5343 5.61042 42.3509 5.78898C42.1675 5.96755 41.9489 6.10592 41.709 6.19527C41.4691 6.28462 41.2133 6.32299 40.9577 6.30792C40.7022 6.29285 40.4526 6.22467 40.2249 6.10775C39.9972 5.99082 39.7964 5.82772 39.6352 5.62883C39.4741 5.42994 39.3562 5.19965 39.289 4.95265C39.2219 4.70564 39.2069 4.44735 39.2452 4.19425C39.0946 4.48374 38.8484 4.7121 38.5484 4.84045L37.7328 5.13293C37.2646 5.29852 36.8787 5.63876 36.6557 6.08243L35.3762 8.6215C35.3584 8.66 35.3565 8.70395 35.3709 8.74383C35.3853 8.78371 35.4148 8.81632 35.4531 8.83458L37.1574 9.60957C37.1894 9.62418 37.2245 9.63089 37.2596 9.62913C37.2947 9.62738 37.329 9.61722 37.3593 9.5995C37.3897 9.58178 37.4155 9.55702 37.4343 9.52731C37.4531 9.49759 37.4646 9.46379 37.4676 9.42873L37.5303 8.71437C37.5368 8.65706 37.5655 8.60457 37.6101 8.56808C37.6548 8.53159 37.712 8.51399 37.7694 8.51902C37.8269 8.52405 37.8801 8.55131 37.9177 8.59501C37.9554 8.6387 37.9745 8.69537 37.971 8.75294L37.4403 14.7851C37.4401 14.8279 37.4486 14.8703 37.4655 14.9097C37.4823 14.9491 37.507 14.9847 37.5381 15.0141C37.5692 15.0436 37.6061 15.0663 37.6463 15.081C37.6866 15.0957 37.7294 15.1019 37.7722 15.0994H44.3974C44.4404 15.1019 44.4834 15.0956 44.5238 15.0808C44.5642 15.066 44.6011 15.0431 44.6323 15.0133C44.6634 14.9836 44.6881 14.9479 44.7048 14.9082C44.7215 14.8685 44.7298 14.8259 44.7293 14.7828C44.6354 13.7762 44.2468 9.67101 44.1607 8.75417C44.1565 8.69679 44.175 8.64008 44.2122 8.59618C44.2493 8.55227 44.3022 8.52467 44.3595 8.51928C44.4168 8.51389 44.4739 8.53114 44.5186 8.56734C44.5633 8.60353 44.592 8.6558 44.5987 8.71294L44.6654 9.41996C44.6687 9.4547 44.6802 9.48815 44.699 9.51756C44.7178 9.54697 44.7433 9.57148 44.7734 9.58908C44.8036 9.60667 44.8375 9.61683 44.8723 9.61873C44.9072 9.62062 44.9419 9.6142 44.9738 9.59998L46.6989 8.8303C46.7366 8.81252 46.7658 8.78065 46.7802 8.74155C46.7946 8.70245 46.793 8.65946 46.7759 8.6215ZM40.6582 12.8483C40.6565 12.9054 40.6326 12.9596 40.5915 12.9994C40.5505 13.0392 40.4956 13.0614 40.4385 13.0614C40.3814 13.0614 40.3265 13.0392 40.2854 12.9994C40.2444 12.9596 40.2205 12.9054 40.2188 12.8483V10.6328L40.0055 10.7646C39.956 10.7939 39.8969 10.8026 39.8411 10.7888C39.7852 10.775 39.737 10.7399 39.7068 10.6909C39.6766 10.642 39.6668 10.5831 39.6795 10.527C39.6922 10.4709 39.7265 10.422 39.7748 10.3909L40.3221 10.05C40.3555 10.0301 40.3936 10.0194 40.4326 10.0188C40.4715 10.0183 40.5099 10.0279 40.544 10.0468C40.578 10.0658 40.6065 10.0933 40.6266 10.1266C40.6467 10.16 40.6576 10.1981 40.6584 10.237L40.6582 12.8483ZM42.2388 12.8483C42.2388 12.9066 42.2156 12.9625 42.1744 13.0038C42.1332 13.045 42.0773 13.0681 42.019 13.0681C41.9607 13.0681 41.9048 13.045 41.8635 13.0038C41.8223 12.9625 41.7992 12.9066 41.7992 12.8483V10.6328L41.5861 10.7646C41.5365 10.7952 41.4768 10.8049 41.4201 10.7915C41.3635 10.7781 41.3144 10.7427 41.2838 10.6932C41.2532 10.6436 41.2435 10.5839 41.2569 10.5272C41.2703 10.4705 41.3057 10.4215 41.3552 10.3909L41.9024 10.05C41.9359 10.0301 41.974 10.0194 42.013 10.0188C42.0519 10.0183 42.0903 10.0279 42.1244 10.0468C42.1584 10.0658 42.1869 10.0933 42.207 10.1266C42.227 10.16 42.238 10.1981 42.2388 10.237V12.8483Z" fill="#FAFAFA"/>
<path d="M40.6582 12.8483C40.6565 12.9054 40.6326 12.9596 40.5915 12.9994C40.5505 13.0392 40.4956 13.0614 40.4385 13.0614C40.3814 13.0614 40.3265 13.0392 40.2854 12.9994C40.2444 12.9596 40.2205 12.9054 40.2188 12.8483V10.6328L40.0055 10.7646C39.956 10.7939 39.8969 10.8026 39.8411 10.7888C39.7852 10.775 39.737 10.7399 39.7068 10.6909C39.6766 10.642 39.6668 10.5831 39.6795 10.527C39.6922 10.4709 39.7265 10.422 39.7748 10.3909L40.3221 10.05C40.3555 10.0301 40.3936 10.0194 40.4326 10.0188C40.4715 10.0183 40.5099 10.0279 40.544 10.0468C40.578 10.0658 40.6065 10.0933 40.6266 10.1266C40.6467 10.16 40.6576 10.1981 40.6584 10.237L40.6582 12.8483Z" fill="#FAFAFA"/>
<path d="M42.2388 12.8483C42.2388 12.9066 42.2156 12.9625 42.1744 13.0038C42.1332 13.045 42.0773 13.0681 42.019 13.0681C41.9607 13.0681 41.9048 13.045 41.8635 13.0038C41.8223 12.9625 41.7992 12.9066 41.7992 12.8483V10.6328L41.5861 10.7646C41.5365 10.7952 41.4768 10.8049 41.4201 10.7915C41.3635 10.7781 41.3144 10.7427 41.2838 10.6932C41.2532 10.6436 41.2435 10.5839 41.2569 10.5272C41.2703 10.4705 41.3057 10.4215 41.3552 10.3909L41.9024 10.05C41.9359 10.0301 41.974 10.0194 42.013 10.0188C42.0519 10.0183 42.0903 10.0279 42.1244 10.0468C42.1584 10.0658 42.1869 10.0933 42.207 10.1266C42.227 10.16 42.238 10.1981 42.2388 10.237V12.8483Z" fill="#FAFAFA"/>
<path d="M40.0449 10.332H42.3366" stroke="#191919" stroke-width="0.343756" stroke-linecap="round" stroke-linejoin="round"/>
<path d="M41.1909 11.4792V9.1875" stroke="#191919" stroke-width="0.343756" stroke-linecap="round" stroke-linejoin="round"/>
<path d="M52.1387 18.8673C52.5076 18.8668 52.8612 18.7201 53.1221 18.4593C53.3829 18.1984 53.5297 17.8448 53.5301 17.4759V16.9944C52.6099 17.1677 51.6649 17.161 50.7473 16.9746V17.4759C50.7477 17.8448 50.8945 18.1984 51.1553 18.4593C51.4162 18.7201 51.7698 18.8668 52.1387 18.8673Z" fill="#FAFAFA"/>
<path d="M57.8386 21.6215L56.6977 19.2233C56.4825 18.7743 56.1034 18.425 55.6383 18.2472L54.7676 17.9154C54.4231 17.8135 54.1716 17.4088 53.9696 17.1328V17.4102C53.9778 17.666 53.9326 17.9208 53.8369 18.1582C53.7412 18.3956 53.597 18.6104 53.4136 18.789C53.2302 18.9675 53.0116 19.1059 52.7717 19.1953C52.5319 19.2846 52.276 19.323 52.0205 19.3079C51.7649 19.2928 51.5154 19.2247 51.2877 19.1077C51.06 18.9908 50.8591 18.8277 50.698 18.6288C50.5368 18.4299 50.4189 18.1997 50.3518 17.9526C50.2846 17.7056 50.2697 17.4473 50.3079 17.1942C50.1574 17.4837 49.9111 17.7121 49.6111 17.8404L48.7955 18.1329C48.3274 18.2985 47.9414 18.6388 47.7184 19.0824L46.4389 21.6215C46.4211 21.66 46.4193 21.7039 46.4337 21.7438C46.4481 21.7837 46.4776 21.8163 46.5159 21.8346L48.2201 22.6096C48.2522 22.6242 48.2872 22.6309 48.3223 22.6291C48.3575 22.6274 48.3917 22.6172 48.4221 22.5995C48.4525 22.5818 48.4782 22.557 48.497 22.5273C48.5159 22.4976 48.5273 22.4638 48.5304 22.4287L48.593 21.7144C48.5996 21.6571 48.6282 21.6046 48.6729 21.5681C48.7176 21.5316 48.7747 21.514 48.8322 21.519C48.8896 21.524 48.9428 21.5513 48.9805 21.595C49.0181 21.6387 49.0372 21.6954 49.0337 21.7529L48.503 27.7851C48.5028 27.8279 48.5114 27.8703 48.5282 27.9097C48.5451 27.9491 48.5698 27.9847 48.6009 28.0141C48.632 28.0436 48.6688 28.0663 48.7091 28.081C48.7493 28.0957 48.7921 28.1019 48.8349 28.0994H55.4602C55.5031 28.1019 55.5461 28.0956 55.5865 28.0808C55.627 28.066 55.6639 28.0431 55.695 28.0133C55.7261 27.9836 55.7508 27.9479 55.7675 27.9082C55.7842 27.8685 55.7926 27.8259 55.792 27.7828C55.6982 26.7762 55.3095 22.671 55.2234 21.7542C55.2193 21.6968 55.2378 21.6401 55.2749 21.5962C55.3121 21.5523 55.365 21.5247 55.4222 21.5193C55.4795 21.5139 55.5366 21.5311 55.5813 21.5673C55.626 21.6035 55.6548 21.6558 55.6614 21.7129L55.7282 22.42C55.7314 22.4547 55.743 22.4882 55.7617 22.5176C55.7805 22.547 55.806 22.5715 55.8362 22.5891C55.8663 22.6067 55.9002 22.6168 55.9351 22.6187C55.9699 22.6206 56.0047 22.6142 56.0366 22.6L57.7617 21.8303C57.7993 21.8125 57.8285 21.7806 57.8429 21.7415C57.8573 21.7024 57.8558 21.6595 57.8386 21.6215ZM51.721 25.8483C51.7192 25.9054 51.6953 25.9596 51.6543 25.9994C51.6133 26.0392 51.5584 26.0614 51.5012 26.0614C51.4441 26.0614 51.3892 26.0392 51.3482 25.9994C51.3072 25.9596 51.2833 25.9054 51.2815 25.8483V23.6328L51.0682 23.7646C51.0187 23.7939 50.9597 23.8026 50.9038 23.7888C50.848 23.775 50.7997 23.7399 50.7695 23.6909C50.7393 23.642 50.7295 23.5831 50.7423 23.527C50.755 23.4709 50.7892 23.422 50.8376 23.3909L51.3848 23.05C51.4183 23.0301 51.4564 23.0194 51.4953 23.0188C51.5343 23.0183 51.5727 23.0279 51.6067 23.0468C51.6407 23.0658 51.6692 23.0933 51.6893 23.1266C51.7094 23.16 51.7204 23.1981 51.7212 23.237L51.721 25.8483ZM53.3015 25.8483C53.3015 25.9066 53.2784 25.9625 53.2372 26.0038C53.1959 26.045 53.14 26.0681 53.0817 26.0681C53.0234 26.0681 52.9675 26.045 52.9263 26.0038C52.8851 25.9625 52.8619 25.9066 52.8619 25.8483V23.6328L52.6488 23.7646C52.5993 23.7952 52.5396 23.8049 52.4829 23.7915C52.4262 23.7781 52.3772 23.7427 52.3465 23.6932C52.3159 23.6436 52.3063 23.5839 52.3197 23.5272C52.3331 23.4705 52.3684 23.4215 52.418 23.3909L52.9652 23.05C52.9987 23.0301 53.0368 23.0194 53.0757 23.0188C53.1147 23.0183 53.1531 23.0279 53.1871 23.0468C53.2211 23.0658 53.2496 23.0933 53.2697 23.1266C53.2898 23.16 53.3008 23.1981 53.3015 23.237V25.8483Z" fill="#FAFAFA"/>
<path d="M51.721 25.8483C51.7192 25.9054 51.6953 25.9596 51.6543 25.9994C51.6133 26.0392 51.5584 26.0614 51.5012 26.0614C51.4441 26.0614 51.3892 26.0392 51.3482 25.9994C51.3072 25.9596 51.2833 25.9054 51.2815 25.8483V23.6328L51.0682 23.7646C51.0187 23.7939 50.9597 23.8026 50.9038 23.7888C50.848 23.775 50.7997 23.7399 50.7695 23.6909C50.7393 23.642 50.7295 23.5831 50.7423 23.527C50.755 23.4709 50.7892 23.422 50.8376 23.3909L51.3848 23.05C51.4183 23.0301 51.4564 23.0194 51.4953 23.0188C51.5343 23.0183 51.5727 23.0279 51.6067 23.0468C51.6407 23.0658 51.6692 23.0933 51.6893 23.1266C51.7094 23.16 51.7204 23.1981 51.7212 23.237L51.721 25.8483Z" fill="#FAFAFA"/>
<path d="M53.3015 25.8483C53.3015 25.9066 53.2784 25.9625 53.2372 26.0038C53.1959 26.045 53.14 26.0681 53.0817 26.0681C53.0234 26.0681 52.9675 26.045 52.9263 26.0038C52.8851 25.9625 52.8619 25.9066 52.8619 25.8483V23.6328L52.6488 23.7646C52.5993 23.7952 52.5396 23.8049 52.4829 23.7915C52.4262 23.7781 52.3772 23.7427 52.3465 23.6932C52.3159 23.6436 52.3063 23.5839 52.3197 23.5272C52.3331 23.4705 52.3684 23.4215 52.418 23.3909L52.9652 23.05C52.9987 23.0301 53.0368 23.0194 53.0757 23.0188C53.1147 23.0183 53.1531 23.0279 53.1871 23.0468C53.2211 23.0658 53.2496 23.0933 53.2697 23.1266C53.2898 23.16 53.3008 23.1981 53.3015 23.237V25.8483Z" fill="#FAFAFA"/>
<path d="M51.1077 23.332H53.3994" stroke="#191919" stroke-width="0.343756" stroke-linecap="round" stroke-linejoin="round"/>
<path d="M52.2537 24.4792V22.1875" stroke="#191919" stroke-width="0.343756" stroke-linecap="round" stroke-linejoin="round"/>
<path d="M70.2014 18.8673C70.5703 18.8668 70.924 18.7201 71.1848 18.4593C71.4457 18.1984 71.5924 17.8448 71.5928 17.4759V16.9944C70.6727 17.1677 69.7276 17.161 68.8101 16.9746V17.4759C68.8105 17.8448 68.9572 18.1984 69.2181 18.4593C69.4789 18.7201 69.8326 18.8668 70.2014 18.8673Z" fill="#FAFAFA"/>
<path d="M75.9014 21.6215L74.7604 19.2233C74.5452 18.7743 74.1661 18.425 73.7011 18.2472L72.8304 17.9154C72.4859 17.8135 72.2344 17.4088 72.0323 17.1328V17.4102C72.0406 17.666 71.9954 17.9208 71.8997 18.1582C71.8039 18.3956 71.6598 18.6104 71.4764 18.789C71.293 18.9675 71.0744 19.1059 70.8345 19.1953C70.5946 19.2846 70.3387 19.323 70.0832 19.3079C69.8277 19.2928 69.5781 19.2247 69.3504 19.1077C69.1227 18.9908 68.9219 18.8277 68.7607 18.6288C68.5996 18.4299 68.4817 18.1997 68.4145 17.9526C68.3474 17.7056 68.3324 17.4473 68.3707 17.1942C68.2201 17.4837 67.9739 17.7121 67.6739 17.8404L66.8583 18.1329C66.3901 18.2985 66.0042 18.6388 65.7812 19.0824L64.5017 21.6215C64.4839 21.66 64.482 21.7039 64.4964 21.7438C64.5108 21.7837 64.5403 21.8163 64.5786 21.8346L66.2829 22.6096C66.3149 22.6242 66.3499 22.6309 66.3851 22.6291C66.4202 22.6274 66.4544 22.6172 66.4848 22.5995C66.5152 22.5818 66.5409 22.557 66.5598 22.5273C66.5786 22.4976 66.5901 22.4638 66.5931 22.4287L66.6558 21.7144C66.6623 21.6571 66.691 21.6046 66.7356 21.5681C66.7803 21.5316 66.8374 21.514 66.8949 21.519C66.9524 21.524 67.0056 21.5513 67.0432 21.595C67.0809 21.6387 67.1 21.6954 67.0964 21.7529L66.5658 27.7851C66.5656 27.8279 66.5741 27.8703 66.591 27.9097C66.6078 27.9491 66.6325 27.9847 66.6636 28.0141C66.6947 28.0436 66.7316 28.0663 66.7718 28.081C66.8121 28.0957 66.8549 28.1019 66.8976 28.0994H73.5229C73.5659 28.1019 73.6089 28.0956 73.6493 28.0808C73.6897 28.066 73.7266 28.0431 73.7578 28.0133C73.7889 27.9836 73.8136 27.9479 73.8303 27.9082C73.847 27.8685 73.8553 27.8259 73.8548 27.7828C73.7609 26.7762 73.3723 22.671 73.2861 21.7542C73.282 21.6968 73.3005 21.6401 73.3377 21.5962C73.3748 21.5523 73.4277 21.5247 73.485 21.5193C73.5423 21.5139 73.5994 21.5311 73.6441 21.5673C73.6888 21.6035 73.7175 21.6558 73.7242 21.7129L73.7909 22.42C73.7942 22.4547 73.8057 22.4882 73.8245 22.5176C73.8433 22.547 73.8688 22.5715 73.8989 22.5891C73.9291 22.6067 73.963 22.6168 73.9978 22.6187C74.0326 22.6206 74.0674 22.6142 74.0993 22.6L75.8244 21.8303C75.8621 21.8125 75.8913 21.7806 75.9057 21.7415C75.9201 21.7024 75.9185 21.6595 75.9014 21.6215ZM69.7837 25.8483C69.782 25.9054 69.758 25.9596 69.717 25.9994C69.676 26.0392 69.6211 26.0614 69.564 26.0614C69.5068 26.0614 69.4519 26.0392 69.4109 25.9994C69.3699 25.9596 69.346 25.9054 69.3443 25.8483V23.6328L69.131 23.7646C69.0815 23.7939 69.0224 23.8026 68.9666 23.7888C68.9107 23.775 68.8625 23.7399 68.8323 23.6909C68.8021 23.642 68.7923 23.5831 68.805 23.527C68.8177 23.4709 68.852 23.422 68.9003 23.3909L69.4475 23.05C69.481 23.0301 69.5191 23.0194 69.5581 23.0188C69.597 23.0183 69.6354 23.0279 69.6695 23.0468C69.7035 23.0658 69.732 23.0933 69.7521 23.1266C69.7721 23.16 69.7831 23.1981 69.7839 23.237L69.7837 25.8483ZM71.3643 25.8483C71.3643 25.9066 71.3411 25.9625 71.2999 26.0038C71.2587 26.045 71.2028 26.0681 71.1445 26.0681C71.0862 26.0681 71.0303 26.045 70.989 26.0038C70.9478 25.9625 70.9246 25.9066 70.9246 25.8483V23.6328L70.7116 23.7646C70.662 23.7952 70.6023 23.8049 70.5456 23.7915C70.4889 23.7781 70.4399 23.7427 70.4093 23.6932C70.3787 23.6436 70.369 23.5839 70.3824 23.5272C70.3958 23.4705 70.4312 23.4215 70.4807 23.3909L71.0279 23.05C71.0614 23.0301 71.0995 23.0194 71.1385 23.0188C71.1774 23.0183 71.2158 23.0279 71.2498 23.0468C71.2839 23.0658 71.3124 23.0933 71.3324 23.1266C71.3525 23.16 71.3635 23.1981 71.3643 23.237V25.8483Z" fill="#FAFAFA"/>
<path d="M69.7837 25.8483C69.782 25.9054 69.758 25.9596 69.717 25.9994C69.676 26.0392 69.6211 26.0614 69.564 26.0614C69.5068 26.0614 69.4519 26.0392 69.4109 25.9994C69.3699 25.9596 69.346 25.9054 69.3443 25.8483V23.6328L69.131 23.7646C69.0815 23.7939 69.0224 23.8026 68.9666 23.7888C68.9107 23.775 68.8625 23.7399 68.8323 23.6909C68.8021 23.642 68.7923 23.5831 68.805 23.527C68.8177 23.4709 68.852 23.422 68.9003 23.3909L69.4475 23.05C69.481 23.0301 69.5191 23.0194 69.5581 23.0188C69.597 23.0183 69.6354 23.0279 69.6695 23.0468C69.7035 23.0658 69.732 23.0933 69.7521 23.1266C69.7721 23.16 69.7831 23.1981 69.7839 23.237L69.7837 25.8483Z" fill="#FAFAFA"/>
<path d="M71.3643 25.8483C71.3643 25.9066 71.3411 25.9625 71.2999 26.0038C71.2587 26.045 71.2028 26.0681 71.1445 26.0681C71.0862 26.0681 71.0303 26.045 70.989 26.0038C70.9478 25.9625 70.9246 25.9066 70.9246 25.8483V23.6328L70.7116 23.7646C70.662 23.7952 70.6023 23.8049 70.5456 23.7915C70.4889 23.7781 70.4399 23.7427 70.4093 23.6932C70.3787 23.6436 70.369 23.5839 70.3824 23.5272C70.3958 23.4705 70.4312 23.4215 70.4807 23.3909L71.0279 23.05C71.0614 23.0301 71.0995 23.0194 71.1385 23.0188C71.1774 23.0183 71.2158 23.0279 71.2498 23.0468C71.2839 23.0658 71.3124 23.0933 71.3324 23.1266C71.3525 23.16 71.3635 23.1981 71.3643 23.237V25.8483Z" fill="#FAFAFA"/>
<path d="M69.1704 23.332H71.4621" stroke="#191919" stroke-width="0.343756" stroke-linecap="round" stroke-linejoin="round"/>
<path d="M70.3164 24.4792V22.1875" stroke="#191919" stroke-width="0.343756" stroke-linecap="round" stroke-linejoin="round"/>
<path d="M40.8484 35.9962C41.2173 35.9958 41.571 35.849 41.8318 35.5882C42.0926 35.3273 42.2394 34.9737 42.2398 34.6048V34.1233C41.3197 34.2967 40.3746 34.2899 39.457 34.1035V34.6048C39.4575 34.9737 39.6042 35.3273 39.865 35.5882C40.1259 35.849 40.4795 35.9958 40.8484 35.9962Z" fill="#FAFAFA"/>
<path d="M46.5483 38.7504L45.4074 36.3522C45.1922 35.9032 44.8131 35.5539 44.3481 35.3761L43.4774 35.0443C43.1328 34.9424 42.8814 34.5377 42.6793 34.2617V34.5391C42.6875 34.7949 42.6424 35.0497 42.5466 35.2871C42.4509 35.5245 42.3067 35.7393 42.1233 35.9179C41.9399 36.0965 41.7213 36.2348 41.4815 36.3242C41.2416 36.4135 40.9857 36.4519 40.7302 36.4368C40.4747 36.4218 40.2251 36.3536 39.9974 36.2367C39.7697 36.1197 39.5688 35.9566 39.4077 35.7577C39.2466 35.5589 39.1286 35.3286 39.0615 35.0816C38.9943 34.8345 38.9794 34.5763 39.0177 34.3232C38.8671 34.6126 38.6208 34.841 38.3208 34.9694L37.5052 35.2618C37.0371 35.4274 36.6512 35.7677 36.4282 36.2113L35.1486 38.7504C35.1309 38.7889 35.129 38.8329 35.1434 38.8727C35.1578 38.9126 35.1873 38.9452 35.2256 38.9635L36.9299 39.7385C36.9619 39.7531 36.9969 39.7598 37.0321 39.758C37.0672 39.7563 37.1014 39.7461 37.1318 39.7284C37.1622 39.7107 37.1879 39.6859 37.2068 39.6562C37.2256 39.6265 37.237 39.5927 37.2401 39.5576L37.3028 38.8433C37.3093 38.786 37.3379 38.7335 37.3826 38.697C37.4273 38.6605 37.4844 38.6429 37.5419 38.6479C37.5993 38.653 37.6526 38.6802 37.6902 38.7239C37.7278 38.7676 37.7469 38.8243 37.7434 38.8818L37.2127 44.914C37.2125 44.9568 37.2211 44.9992 37.2379 45.0386C37.2548 45.078 37.2795 45.1136 37.3106 45.143C37.3417 45.1725 37.3785 45.1952 37.4188 45.2099C37.459 45.2246 37.5019 45.2308 37.5446 45.2283H44.1699C44.2128 45.2309 44.2559 45.2245 44.2963 45.2097C44.3367 45.1949 44.3736 45.172 44.4047 45.1423C44.4359 45.1126 44.4606 45.0768 44.4772 45.0371C44.4939 44.9974 44.5023 44.9548 44.5018 44.9117C44.4079 43.9051 44.0193 39.7999 43.9331 38.8831C43.929 38.8257 43.9475 38.769 43.9846 38.7251C44.0218 38.6812 44.0747 38.6536 44.132 38.6482C44.1892 38.6428 44.2463 38.66 44.291 38.6962C44.3357 38.7324 44.3645 38.7847 44.3711 38.8418L44.4379 39.5489C44.4412 39.5836 44.4527 39.6171 44.4715 39.6465C44.4902 39.6759 44.5158 39.7004 44.5459 39.718C44.576 39.7356 44.6099 39.7457 44.6448 39.7476C44.6796 39.7495 44.7144 39.7431 44.7463 39.7289L46.4714 38.9592C46.5091 38.9414 46.5382 38.9096 46.5526 38.8705C46.567 38.8314 46.5655 38.7884 46.5483 38.7504ZM40.4307 42.9772C40.4289 43.0343 40.405 43.0885 40.364 43.1283C40.323 43.1681 40.2681 43.1903 40.211 43.1903C40.1538 43.1903 40.0989 43.1681 40.0579 43.1283C40.0169 43.0885 39.993 43.0343 39.9912 42.9772V40.7617L39.7779 40.8935C39.7284 40.9228 39.6694 40.9315 39.6135 40.9177C39.5577 40.9039 39.5095 40.8688 39.4793 40.8198C39.449 40.7709 39.4392 40.712 39.452 40.6559C39.4647 40.5998 39.4989 40.5509 39.5473 40.5198L40.0945 40.1789C40.128 40.159 40.1661 40.1483 40.205 40.1477C40.244 40.1472 40.2824 40.1568 40.3164 40.1757C40.3505 40.1947 40.3789 40.2222 40.399 40.2555C40.4191 40.2889 40.4301 40.327 40.4309 40.3659L40.4307 42.9772ZM42.0113 42.9772C42.0113 43.0355 41.9881 43.0914 41.9469 43.1327C41.9057 43.1739 41.8497 43.197 41.7914 43.197C41.7331 43.197 41.6772 43.1739 41.636 43.1327C41.5948 43.0914 41.5716 43.0355 41.5716 42.9772V40.7617L41.3585 40.8935C41.309 40.9241 41.2493 40.9338 41.1926 40.9204C41.1359 40.907 41.0869 40.8716 41.0563 40.8221C41.0256 40.7725 41.016 40.7128 41.0294 40.6561C41.0428 40.5995 41.0781 40.5504 41.1277 40.5198L41.6749 40.1789C41.7084 40.159 41.7465 40.1483 41.7854 40.1477C41.8244 40.1472 41.8628 40.1568 41.8968 40.1757C41.9309 40.1947 41.9593 40.2222 41.9794 40.2555C41.9995 40.2889 42.0105 40.327 42.0113 40.3659V42.9772Z" fill="#FAFAFA"/>
<path d="M40.4307 42.9772C40.4289 43.0343 40.405 43.0885 40.364 43.1283C40.323 43.1681 40.2681 43.1903 40.211 43.1903C40.1538 43.1903 40.0989 43.1681 40.0579 43.1283C40.0169 43.0885 39.993 43.0343 39.9912 42.9772V40.7617L39.7779 40.8935C39.7284 40.9228 39.6694 40.9315 39.6135 40.9177C39.5577 40.9039 39.5095 40.8688 39.4793 40.8198C39.449 40.7709 39.4392 40.712 39.452 40.6559C39.4647 40.5998 39.4989 40.5509 39.5473 40.5198L40.0945 40.1789C40.128 40.159 40.1661 40.1483 40.205 40.1477C40.244 40.1472 40.2824 40.1568 40.3164 40.1757C40.3505 40.1947 40.3789 40.2222 40.399 40.2555C40.4191 40.2889 40.4301 40.327 40.4309 40.3659L40.4307 42.9772Z" fill="#FAFAFA"/>
<path d="M42.0113 42.9772C42.0113 43.0355 41.9881 43.0914 41.9469 43.1327C41.9057 43.1739 41.8497 43.197 41.7914 43.197C41.7331 43.197 41.6772 43.1739 41.636 43.1327C41.5948 43.0914 41.5716 43.0355 41.5716 42.9772V40.7617L41.3585 40.8935C41.309 40.9241 41.2493 40.9338 41.1926 40.9204C41.1359 40.907 41.0869 40.8716 41.0563 40.8221C41.0256 40.7725 41.016 40.7128 41.0294 40.6561C41.0428 40.5995 41.0781 40.5504 41.1277 40.5198L41.6749 40.1789C41.7084 40.159 41.7465 40.1483 41.7854 40.1477C41.8244 40.1472 41.8628 40.1568 41.8968 40.1757C41.9309 40.1947 41.9593 40.2222 41.9794 40.2555C41.9995 40.2889 42.0105 40.327 42.0113 40.3659V42.9772Z" fill="#FAFAFA"/>
<path d="M39.8174 40.4609H42.1091" stroke="#191919" stroke-width="0.343756" stroke-linecap="round" stroke-linejoin="round"/>
<path d="M40.9634 41.6081V39.3164" stroke="#191919" stroke-width="0.343756" stroke-linecap="round" stroke-linejoin="round"/>
</svg>
