<svg width="81" height="81" viewBox="0 0 81 81" fill="none" xmlns="http://www.w3.org/2000/svg">
<rect x="0.793296" y="0.118492" width="79.9807" height="79.9807" rx="5.88541" fill="#828284" stroke="#FAFAFA" stroke-width="0.229171"/>
<mask id="path-2-inside-1_8758_17474" fill="white">
<path d="M24.5125 66.4609H57.0547V80.2112H24.5125V66.4609Z"/>
</mask>
<path d="M24.5125 66.4609V66.2318H24.2833V66.4609H24.5125ZM57.0547 66.4609H57.2839V66.2318H57.0547V66.4609ZM24.5125 66.6901H57.0547V66.2318H24.5125V66.6901ZM56.8256 66.4609V80.2112H57.2839V66.4609H56.8256ZM24.7416 80.2112V66.4609H24.2833V80.2112H24.7416Z" fill="#FAFAFA" mask="url(#path-2-inside-1_8758_17474)"/>
<mask id="path-4-inside-2_8758_17474" fill="white">
<path d="M13.2832 55.0039H68.2842V80.2127H13.2832V55.0039Z"/>
</mask>
<path d="M13.2832 55.0039V54.7747H13.054V55.0039H13.2832ZM68.2842 55.0039H68.5134V54.7747H68.2842V55.0039ZM13.2832 55.2331H68.2842V54.7747H13.2832V55.2331ZM68.0551 55.0039V80.2127H68.5134V55.0039H68.0551ZM13.5124 80.2127V55.0039H13.054V80.2127H13.5124Z" fill="#FAFAFA" mask="url(#path-4-inside-2_8758_17474)"/>
<path d="M54.9922 9.53674e-07C54.9922 1.65523 54.6069 3.29426 53.8583 4.8235C53.1097 6.35273 52.0124 7.74223 50.6292 8.91266C49.246 10.0831 47.6038 11.0115 45.7966 11.645C43.9893 12.2784 42.0522 12.6044 40.0961 12.6044C38.1399 12.6044 36.2028 12.2784 34.3956 11.645C32.5883 11.0115 30.9462 10.0831 29.5629 8.91266C28.1797 7.74223 27.0824 6.35273 26.3338 4.8235C25.5853 3.29426 25.2 1.65523 25.2 0" stroke="#FAFAFA" stroke-width="0.229171"/>
<path d="M31.2559 55.3516C31.7742 54.5174 32.5338 53.7595 33.4914 53.1211C34.449 52.4827 35.5859 51.9763 36.8371 51.6308C38.0883 51.2853 39.4293 51.1074 40.7836 51.1074C42.1379 51.1074 43.4789 51.2853 44.7301 51.6308C45.9813 51.9763 47.1181 52.4827 48.0758 53.1211C49.0334 53.7595 49.793 54.5174 50.3113 55.3516" stroke="#FAFAFA" stroke-width="0.229171"/>
<path d="M0.907715 76.5479C2.02424 76.4958 4.22817 77.1099 4.11167 79.9825" stroke="#FAFAFA" stroke-width="0.229171"/>
<path d="M80.6592 76.5479C79.5427 76.4958 77.3387 77.1099 77.4552 79.9825" stroke="#FAFAFA" stroke-width="0.229171"/>
<path d="M40.8977 69.4356C41.2666 69.4352 41.6203 69.2885 41.8811 69.0276C42.142 68.7668 42.2887 68.4131 42.2891 68.0443V67.5628C41.369 67.7361 40.4239 67.7294 39.5063 67.543V68.0443C39.5068 68.4131 39.6535 68.7668 39.9144 69.0276C40.1752 69.2885 40.5288 69.4352 40.8977 69.4356Z" fill="#FAFAFA"/>
<path d="M46.5976 72.1899L45.4567 69.7916C45.2415 69.3427 44.8624 68.9934 44.3974 68.8156L43.5267 68.4837C43.1821 68.3819 42.9307 67.9771 42.7286 67.7012V67.9786C42.7369 68.2344 42.6917 68.4891 42.5959 68.7265C42.5002 68.9639 42.3561 69.1788 42.1727 69.3573C41.9893 69.5359 41.7706 69.6743 41.5308 69.7636C41.2909 69.853 41.035 69.8913 40.7795 69.8763C40.524 69.8612 40.2744 69.793 40.0467 69.6761C39.819 69.5592 39.6182 69.3961 39.457 69.1972C39.2959 68.9983 39.178 68.768 39.1108 68.521C39.0436 68.274 39.0287 68.0157 39.067 67.7626C38.9164 68.0521 38.6702 68.2805 38.3702 68.4088L37.5545 68.7013C37.0864 68.8669 36.7005 69.2071 36.4775 69.6508L35.1979 72.1899C35.1802 72.2284 35.1783 72.2723 35.1927 72.3122C35.2071 72.3521 35.2366 72.3847 35.2749 72.4029L36.9792 73.1779C37.0112 73.1925 37.0462 73.1992 37.0814 73.1975C37.1165 73.1957 37.1507 73.1856 37.1811 73.1679C37.2115 73.1501 37.2372 73.1254 37.2561 73.0957C37.2749 73.066 37.2863 73.0321 37.2894 72.9971L37.3521 72.2827C37.3586 72.2254 37.3873 72.1729 37.4319 72.1364C37.4766 72.1 37.5337 72.0823 37.5912 72.0874C37.6487 72.0924 37.7019 72.1197 37.7395 72.1634C37.7772 72.2071 37.7963 72.2637 37.7927 72.3213L37.2621 78.3534C37.2618 78.3963 37.2704 78.4387 37.2873 78.4781C37.3041 78.5175 37.3288 78.553 37.3599 78.5825C37.391 78.6119 37.4278 78.6347 37.4681 78.6494C37.5083 78.664 37.5512 78.6703 37.5939 78.6678H44.2192C44.2622 78.6703 44.3052 78.664 44.3456 78.6492C44.386 78.6344 44.4229 78.6114 44.454 78.5817C44.4852 78.552 44.5099 78.5162 44.5266 78.4766C44.5433 78.4369 44.5516 78.3942 44.5511 78.3512C44.4572 77.3445 44.0686 73.2394 43.9824 72.3225C43.9783 72.2652 43.9968 72.2084 44.034 72.1645C44.0711 72.1206 44.124 72.093 44.1813 72.0876C44.2385 72.0822 44.2956 72.0995 44.3404 72.1357C44.3851 72.1719 44.4138 72.2242 44.4204 72.2813L44.4872 72.9883C44.4905 73.0231 44.502 73.0565 44.5208 73.0859C44.5396 73.1153 44.5651 73.1398 44.5952 73.1574C44.6254 73.175 44.6592 73.1852 44.6941 73.1871C44.7289 73.189 44.7637 73.1826 44.7956 73.1683L46.5207 72.3987C46.5584 72.3809 46.5876 72.349 46.6019 72.3099C46.6163 72.2708 46.6148 72.2278 46.5976 72.1899ZM40.48 76.4167C40.4782 76.4738 40.4543 76.528 40.4133 76.5678C40.3723 76.6076 40.3174 76.6298 40.2603 76.6298C40.2031 76.6298 40.1482 76.6076 40.1072 76.5678C40.0662 76.528 40.0423 76.4738 40.0405 76.4167V74.2011L39.8273 74.333C39.7777 74.3623 39.7187 74.3709 39.6629 74.3572C39.607 74.3434 39.5588 74.3082 39.5286 74.2593C39.4984 74.2103 39.4886 74.1515 39.5013 74.0954C39.514 74.0392 39.5482 73.9904 39.5966 73.9592L40.1438 73.6184C40.1773 73.5985 40.2154 73.5877 40.2544 73.5872C40.2933 73.5866 40.3317 73.5963 40.3657 73.6152C40.3998 73.6341 40.4283 73.6616 40.4483 73.695C40.4684 73.7284 40.4794 73.7664 40.4802 73.8054L40.48 76.4167ZM42.0606 76.4167C42.0606 76.475 42.0374 76.5309 41.9962 76.5721C41.955 76.6133 41.8991 76.6365 41.8408 76.6365C41.7825 76.6365 41.7265 76.6133 41.6853 76.5721C41.6441 76.5309 41.6209 76.475 41.6209 76.4167V74.2011L41.4079 74.333C41.3583 74.3636 41.2986 74.3732 41.2419 74.3598C41.1852 74.3465 41.1362 74.3111 41.1056 74.2615C41.075 74.212 41.0653 74.1523 41.0787 74.0956C41.0921 74.0389 41.1275 73.9899 41.177 73.9592L41.7242 73.6184C41.7577 73.5985 41.7958 73.5877 41.8347 73.5872C41.8737 73.5866 41.9121 73.5963 41.9461 73.6152C41.9802 73.6341 42.0087 73.6616 42.0287 73.695C42.0488 73.7284 42.0598 73.7664 42.0606 73.8054V76.4167Z" fill="#FAFAFA"/>
<path d="M40.48 76.4167C40.4782 76.4738 40.4543 76.528 40.4133 76.5678C40.3723 76.6076 40.3174 76.6298 40.2603 76.6298C40.2031 76.6298 40.1482 76.6076 40.1072 76.5678C40.0662 76.528 40.0423 76.4738 40.0405 76.4167V74.2011L39.8273 74.333C39.7777 74.3623 39.7187 74.3709 39.6629 74.3572C39.607 74.3434 39.5588 74.3082 39.5286 74.2593C39.4984 74.2103 39.4886 74.1515 39.5013 74.0954C39.514 74.0392 39.5482 73.9904 39.5966 73.9592L40.1438 73.6184C40.1773 73.5985 40.2154 73.5877 40.2544 73.5872C40.2933 73.5866 40.3317 73.5963 40.3657 73.6152C40.3998 73.6341 40.4283 73.6616 40.4483 73.695C40.4684 73.7284 40.4794 73.7664 40.4802 73.8054L40.48 76.4167Z" fill="#FAFAFA"/>
<path d="M42.0606 76.4167C42.0606 76.475 42.0374 76.5309 41.9962 76.5721C41.955 76.6133 41.8991 76.6365 41.8408 76.6365C41.7825 76.6365 41.7265 76.6133 41.6853 76.5721C41.6441 76.5309 41.6209 76.475 41.6209 76.4167V74.2011L41.4079 74.333C41.3583 74.3636 41.2986 74.3732 41.2419 74.3598C41.1852 74.3465 41.1362 74.3111 41.1056 74.2615C41.075 74.212 41.0653 74.1523 41.0787 74.0956C41.0921 74.0389 41.1275 73.9899 41.177 73.9592L41.7242 73.6184C41.7577 73.5985 41.7958 73.5877 41.8347 73.5872C41.8737 73.5866 41.9121 73.5963 41.9461 73.6152C41.9802 73.6341 42.0087 73.6616 42.0287 73.695C42.0488 73.7284 42.0598 73.7664 42.0606 73.8054V76.4167Z" fill="#FAFAFA"/>
<path d="M39.8667 73.8965H42.1584" stroke="#191919" stroke-width="0.343756" stroke-linecap="round" stroke-linejoin="round"/>
<path d="M41.0127 75.0437V72.752" stroke="#191919" stroke-width="0.343756" stroke-linecap="round" stroke-linejoin="round"/>
<path d="M9.53103 49.8673C9.89992 49.8668 10.2536 49.7201 10.5144 49.4593C10.7753 49.1984 10.922 48.8448 10.9224 48.4759V47.9944C10.0023 48.1677 9.05724 48.161 8.13965 47.9746V48.4759C8.14008 48.8448 8.28681 49.1984 8.54765 49.4593C8.8085 49.7201 9.16215 49.8668 9.53103 49.8673Z" fill="#FAFAFA"/>
<path d="M15.2309 52.6215L14.09 50.2233C13.8748 49.7743 13.4957 49.425 13.0307 49.2472L12.16 48.9154C11.8154 48.8135 11.564 48.4088 11.3619 48.1328V48.4102C11.3702 48.666 11.325 48.9208 11.2292 49.1582C11.1335 49.3956 10.9894 49.6104 10.806 49.789C10.6226 49.9675 10.4039 50.1059 10.1641 50.1953C9.9242 50.2846 9.66834 50.323 9.41281 50.3079C9.15728 50.2928 8.9077 50.2247 8.67999 50.1077C8.45228 49.9908 8.25145 49.8277 8.09031 49.6288C7.92917 49.4299 7.81126 49.1997 7.7441 48.9526C7.67694 48.7056 7.66202 48.4473 7.70027 48.1942C7.5497 48.4837 7.30346 48.7121 7.00345 48.8404L6.18785 49.1329C5.71972 49.2985 5.33377 49.6388 5.11078 50.0824L3.83125 52.6215C3.81348 52.66 3.81159 52.7039 3.82599 52.7438C3.84039 52.7837 3.86993 52.8163 3.90819 52.8346L5.61247 53.6096C5.64449 53.6242 5.67954 53.6309 5.71468 53.6291C5.74982 53.6274 5.78403 53.6172 5.81443 53.5995C5.84483 53.5818 5.87053 53.557 5.88937 53.5273C5.90821 53.4976 5.91965 53.4638 5.92271 53.4287L5.98537 52.7144C5.99191 52.6571 6.02056 52.6046 6.06522 52.5681C6.10989 52.5316 6.16704 52.514 6.2245 52.519C6.28195 52.524 6.33517 52.5513 6.37282 52.595C6.41047 52.6387 6.42956 52.6954 6.42604 52.7529L5.89536 58.7851C5.89515 58.8279 5.90372 58.8703 5.92055 58.9097C5.93739 58.9491 5.96212 58.9847 5.99322 59.0141C6.02433 59.0436 6.06114 59.0663 6.10139 59.081C6.14164 59.0957 6.18447 59.1019 6.22724 59.0994H12.8525C12.8955 59.1019 12.9385 59.0956 12.9789 59.0808C13.0193 59.066 13.0562 59.0431 13.0873 59.0133C13.1185 58.9836 13.1432 58.9479 13.1599 58.9082C13.1766 58.8685 13.1849 58.8259 13.1844 58.7828C13.0905 57.7762 12.7019 53.671 12.6157 52.7542C12.6116 52.6968 12.6301 52.6401 12.6673 52.5962C12.7044 52.5523 12.7573 52.5247 12.8146 52.5193C12.8718 52.5139 12.9289 52.5311 12.9737 52.5673C13.0184 52.6035 13.0471 52.6558 13.0537 52.7129L13.1205 53.42C13.1238 53.4547 13.1353 53.4882 13.1541 53.5176C13.1729 53.547 13.1984 53.5715 13.2285 53.5891C13.2587 53.6067 13.2925 53.6168 13.3274 53.6187C13.3622 53.6206 13.397 53.6142 13.4289 53.6L15.154 52.8303C15.1917 52.8125 15.2209 52.7806 15.2353 52.7415C15.2496 52.7024 15.2481 52.6595 15.2309 52.6215ZM9.11329 56.8483C9.11155 56.9054 9.08764 56.9596 9.04662 56.9994C9.00561 57.0392 8.95071 57.0614 8.89357 57.0614C8.83643 57.0614 8.78153 57.0392 8.74052 56.9994C8.6995 56.9596 8.67559 56.9054 8.67385 56.8483V54.6328L8.46056 54.7646C8.41104 54.7939 8.35201 54.8026 8.29616 54.7888C8.2403 54.775 8.19208 54.7399 8.16187 54.6909C8.13166 54.642 8.12186 54.5831 8.13458 54.527C8.14731 54.4709 8.18154 54.422 8.22992 54.3909L8.77713 54.05C8.81061 54.0301 8.84872 54.0194 8.88766 54.0188C8.9266 54.0183 8.965 54.0279 8.99904 54.0468C9.03308 54.0658 9.06156 54.0933 9.08165 54.1266C9.10173 54.16 9.11271 54.1981 9.11349 54.237L9.11329 56.8483ZM10.6939 56.8483C10.6939 56.9066 10.6707 56.9625 10.6295 57.0038C10.5883 57.045 10.5324 57.0681 10.4741 57.0681C10.4158 57.0681 10.3598 57.045 10.3186 57.0038C10.2774 56.9625 10.2542 56.9066 10.2542 56.8483V54.6328L10.0412 54.7646C9.99159 54.7952 9.93191 54.8049 9.87522 54.7915C9.81853 54.7781 9.76949 54.7427 9.73887 54.6932C9.70826 54.6436 9.69859 54.5839 9.71199 54.5272C9.72538 54.4705 9.76075 54.4215 9.81031 54.3909L10.3575 54.05C10.391 54.0301 10.4291 54.0194 10.468 54.0188C10.507 54.0183 10.5454 54.0279 10.5794 54.0468C10.6135 54.0658 10.642 54.0933 10.662 54.1266C10.6821 54.16 10.6931 54.1981 10.6939 54.237V56.8483Z" fill="#FAFAFA"/>
<path d="M9.11329 56.8483C9.11155 56.9054 9.08764 56.9596 9.04662 56.9994C9.00561 57.0392 8.95071 57.0614 8.89357 57.0614C8.83643 57.0614 8.78153 57.0392 8.74052 56.9994C8.6995 56.9596 8.67559 56.9054 8.67385 56.8483V54.6328L8.46056 54.7646C8.41104 54.7939 8.35201 54.8026 8.29616 54.7888C8.2403 54.775 8.19208 54.7399 8.16187 54.6909C8.13166 54.642 8.12186 54.5831 8.13458 54.527C8.14731 54.4709 8.18154 54.422 8.22992 54.3909L8.77713 54.05C8.81061 54.0301 8.84872 54.0194 8.88766 54.0188C8.9266 54.0183 8.965 54.0279 8.99904 54.0468C9.03308 54.0658 9.06156 54.0933 9.08165 54.1266C9.10173 54.16 9.11271 54.1981 9.11349 54.237L9.11329 56.8483Z" fill="#FAFAFA"/>
<path d="M10.6939 56.8483C10.6939 56.9066 10.6707 56.9625 10.6295 57.0038C10.5883 57.045 10.5324 57.0681 10.4741 57.0681C10.4158 57.0681 10.3598 57.045 10.3186 57.0038C10.2774 56.9625 10.2542 56.9066 10.2542 56.8483V54.6328L10.0412 54.7646C9.99159 54.7952 9.93191 54.8049 9.87522 54.7915C9.81853 54.7781 9.76949 54.7427 9.73887 54.6932C9.70826 54.6436 9.69859 54.5839 9.71199 54.5272C9.72538 54.4705 9.76075 54.4215 9.81031 54.3909L10.3575 54.05C10.391 54.0301 10.4291 54.0194 10.468 54.0188C10.507 54.0183 10.5454 54.0279 10.5794 54.0468C10.6135 54.0658 10.642 54.0933 10.662 54.1266C10.6821 54.16 10.6931 54.1981 10.6939 54.237V56.8483Z" fill="#FAFAFA"/>
<path d="M8.5 54.332H10.7917" stroke="#191919" stroke-width="0.343756" stroke-linecap="round" stroke-linejoin="round"/>
<path d="M9.646 55.4792V53.1875" stroke="#191919" stroke-width="0.343756" stroke-linecap="round" stroke-linejoin="round"/>
<path d="M71.531 49.8673C71.8999 49.8668 72.2536 49.7201 72.5144 49.4593C72.7753 49.1984 72.922 48.8448 72.9224 48.4759V47.9944C72.0023 48.1677 71.0572 48.161 70.1396 47.9746V48.4759C70.1401 48.8448 70.2868 49.1984 70.5477 49.4593C70.8085 49.7201 71.1621 49.8668 71.531 49.8673Z" fill="#FAFAFA"/>
<path d="M77.2309 52.6215L76.09 50.2233C75.8748 49.7743 75.4957 49.425 75.0307 49.2472L74.16 48.9154C73.8154 48.8135 73.564 48.4088 73.3619 48.1328V48.4102C73.3702 48.666 73.325 48.9208 73.2292 49.1582C73.1335 49.3956 72.9894 49.6104 72.806 49.789C72.6226 49.9675 72.4039 50.1059 72.1641 50.1953C71.9242 50.2846 71.6683 50.323 71.4128 50.3079C71.1573 50.2928 70.9077 50.2247 70.68 50.1077C70.4523 49.9908 70.2515 49.8277 70.0903 49.6288C69.9292 49.4299 69.8113 49.1997 69.7441 48.9526C69.6769 48.7056 69.662 48.4473 69.7003 48.1942C69.5497 48.4837 69.3035 48.7121 69.0035 48.8404L68.1878 49.1329C67.7197 49.2985 67.3338 49.6388 67.1108 50.0824L65.8312 52.6215C65.8135 52.66 65.8116 52.7039 65.826 52.7438C65.8404 52.7837 65.8699 52.8163 65.9082 52.8346L67.6125 53.6096C67.6445 53.6242 67.6795 53.6309 67.7147 53.6291C67.7498 53.6274 67.784 53.6172 67.8144 53.5995C67.8448 53.5818 67.8705 53.557 67.8894 53.5273C67.9082 53.4976 67.9196 53.4638 67.9227 53.4287L67.9854 52.7144C67.9919 52.6571 68.0206 52.6046 68.0652 52.5681C68.1099 52.5316 68.167 52.514 68.2245 52.519C68.282 52.524 68.3352 52.5513 68.3728 52.595C68.4105 52.6387 68.4296 52.6954 68.426 52.7529L67.8954 58.7851C67.8951 58.8279 67.9037 58.8703 67.9206 58.9097C67.9374 58.9491 67.9621 58.9847 67.9932 59.0141C68.0243 59.0436 68.0611 59.0663 68.1014 59.081C68.1416 59.0957 68.1845 59.1019 68.2272 59.0994H74.8525C74.8955 59.1019 74.9385 59.0956 74.9789 59.0808C75.0193 59.066 75.0562 59.0431 75.0873 59.0133C75.1185 58.9836 75.1432 58.9479 75.1599 58.9082C75.1766 58.8685 75.1849 58.8259 75.1844 58.7828C75.0905 57.7762 74.7019 53.671 74.6157 52.7542C74.6116 52.6968 74.6301 52.6401 74.6673 52.5962C74.7044 52.5523 74.7573 52.5247 74.8146 52.5193C74.8718 52.5139 74.9289 52.5311 74.9737 52.5673C75.0184 52.6035 75.0471 52.6558 75.0537 52.7129L75.1205 53.42C75.1238 53.4547 75.1353 53.4882 75.1541 53.5176C75.1729 53.547 75.1984 53.5715 75.2285 53.5891C75.2587 53.6067 75.2925 53.6168 75.3274 53.6187C75.3622 53.6206 75.397 53.6142 75.4289 53.6L77.154 52.8303C77.1917 52.8125 77.2209 52.7806 77.2353 52.7415C77.2496 52.7024 77.2481 52.6595 77.2309 52.6215ZM71.1133 56.8483C71.1115 56.9054 71.0876 56.9596 71.0466 56.9994C71.0056 57.0392 70.9507 57.0614 70.8936 57.0614C70.8364 57.0614 70.7815 57.0392 70.7405 56.9994C70.6995 56.9596 70.6756 56.9054 70.6739 56.8483V54.6328L70.4606 54.7646C70.411 54.7939 70.352 54.8026 70.2962 54.7888C70.2403 54.775 70.1921 54.7399 70.1619 54.6909C70.1317 54.642 70.1219 54.5831 70.1346 54.527C70.1473 54.4709 70.1815 54.422 70.2299 54.3909L70.7771 54.05C70.8106 54.0301 70.8487 54.0194 70.8877 54.0188C70.9266 54.0183 70.965 54.0279 70.999 54.0468C71.0331 54.0658 71.0616 54.0933 71.0816 54.1266C71.1017 54.16 71.1127 54.1981 71.1135 54.237L71.1133 56.8483ZM72.6939 56.8483C72.6939 56.9066 72.6707 56.9625 72.6295 57.0038C72.5883 57.045 72.5324 57.0681 72.4741 57.0681C72.4158 57.0681 72.3598 57.045 72.3186 57.0038C72.2774 56.9625 72.2542 56.9066 72.2542 56.8483V54.6328L72.0412 54.7646C71.9916 54.7952 71.9319 54.8049 71.8752 54.7915C71.8185 54.7781 71.7695 54.7427 71.7389 54.6932C71.7083 54.6436 71.6986 54.5839 71.712 54.5272C71.7254 54.4705 71.7608 54.4215 71.8103 54.3909L72.3575 54.05C72.391 54.0301 72.4291 54.0194 72.468 54.0188C72.507 54.0183 72.5454 54.0279 72.5794 54.0468C72.6135 54.0658 72.642 54.0933 72.662 54.1266C72.6821 54.16 72.6931 54.1981 72.6939 54.237V56.8483Z" fill="#FAFAFA"/>
<path d="M71.1133 56.8483C71.1115 56.9054 71.0876 56.9596 71.0466 56.9994C71.0056 57.0392 70.9507 57.0614 70.8936 57.0614C70.8364 57.0614 70.7815 57.0392 70.7405 56.9994C70.6995 56.9596 70.6756 56.9054 70.6739 56.8483V54.6328L70.4606 54.7646C70.411 54.7939 70.352 54.8026 70.2962 54.7888C70.2403 54.775 70.1921 54.7399 70.1619 54.6909C70.1317 54.642 70.1219 54.5831 70.1346 54.527C70.1473 54.4709 70.1815 54.422 70.2299 54.3909L70.7771 54.05C70.8106 54.0301 70.8487 54.0194 70.8877 54.0188C70.9266 54.0183 70.965 54.0279 70.999 54.0468C71.0331 54.0658 71.0616 54.0933 71.0816 54.1266C71.1017 54.16 71.1127 54.1981 71.1135 54.237L71.1133 56.8483Z" fill="#FAFAFA"/>
<path d="M72.6939 56.8483C72.6939 56.9066 72.6707 56.9625 72.6295 57.0038C72.5883 57.045 72.5324 57.0681 72.4741 57.0681C72.4158 57.0681 72.3598 57.045 72.3186 57.0038C72.2774 56.9625 72.2542 56.9066 72.2542 56.8483V54.6328L72.0412 54.7646C71.9916 54.7952 71.9319 54.8049 71.8752 54.7915C71.8185 54.7781 71.7695 54.7427 71.7389 54.6932C71.7083 54.6436 71.6986 54.5839 71.712 54.5272C71.7254 54.4705 71.7608 54.4215 71.8103 54.3909L72.3575 54.05C72.391 54.0301 72.4291 54.0194 72.468 54.0188C72.507 54.0183 72.5454 54.0279 72.5794 54.0468C72.6135 54.0658 72.642 54.0933 72.662 54.1266C72.6821 54.16 72.6931 54.1981 72.6939 54.237V56.8483Z" fill="#FAFAFA"/>
<path d="M70.5 54.332H72.7917" stroke="#191919" stroke-width="0.343756" stroke-linecap="round" stroke-linejoin="round"/>
<path d="M71.646 55.4792V53.1875" stroke="#191919" stroke-width="0.343756" stroke-linecap="round" stroke-linejoin="round"/>
<path d="M50.9998 52.8673C51.3687 52.8668 51.7223 52.7201 51.9832 52.4593C52.244 52.1984 52.3907 51.8448 52.3912 51.4759V50.9944C51.471 51.1677 50.526 51.161 49.6084 50.9746V51.4759C49.6088 51.8448 49.7556 52.1984 50.0164 52.4593C50.2772 52.7201 50.6309 52.8668 50.9998 52.8673Z" fill="#FAFAFA"/>
<path d="M56.6997 55.6215L55.5587 53.2233C55.3436 52.7743 54.9644 52.425 54.4994 52.2472L53.6287 51.9154C53.2842 51.8135 53.0327 51.4088 52.8307 51.1328V51.4102C52.8389 51.666 52.7937 51.9208 52.698 52.1582C52.6023 52.3956 52.4581 52.6104 52.2747 52.789C52.0913 52.9675 51.8727 53.1059 51.6328 53.1953C51.393 53.2846 51.1371 53.323 50.8816 53.3079C50.626 53.2928 50.3764 53.2247 50.1487 53.1077C49.921 52.9908 49.7202 52.8277 49.5591 52.6288C49.3979 52.4299 49.28 52.1997 49.2129 51.9526C49.1457 51.7056 49.1308 51.4473 49.169 51.1942C49.0185 51.4837 48.7722 51.7121 48.4722 51.8404L47.6566 52.1329C47.1885 52.2985 46.8025 52.6388 46.5795 53.0824L45.3 55.6215C45.2822 55.66 45.2803 55.7039 45.2947 55.7438C45.3091 55.7837 45.3387 55.8163 45.3769 55.8346L47.0812 56.6096C47.1132 56.6242 47.1483 56.6309 47.1834 56.6291C47.2186 56.6274 47.2528 56.6172 47.2832 56.5995C47.3136 56.5818 47.3393 56.557 47.3581 56.5273C47.377 56.4976 47.3884 56.4638 47.3915 56.4287L47.4541 55.7144C47.4607 55.6571 47.4893 55.6046 47.534 55.5681C47.5786 55.5316 47.6358 55.514 47.6932 55.519C47.7507 55.524 47.8039 55.5513 47.8416 55.595C47.8792 55.6387 47.8983 55.6954 47.8948 55.7529L47.3641 61.7851C47.3639 61.8279 47.3725 61.8703 47.3893 61.9097C47.4061 61.9491 47.4309 61.9847 47.462 62.0141C47.4931 62.0436 47.5299 62.0663 47.5701 62.081C47.6104 62.0957 47.6532 62.1019 47.696 62.0994H54.3212C54.3642 62.1019 54.4072 62.0956 54.4476 62.0808C54.488 62.066 54.525 62.0431 54.5561 62.0133C54.5872 61.9836 54.6119 61.9479 54.6286 61.9082C54.6453 61.8685 54.6537 61.8259 54.6531 61.7828C54.5592 60.7762 54.1706 56.671 54.0845 55.7542C54.0803 55.6968 54.0988 55.6401 54.136 55.5962C54.1732 55.5523 54.2261 55.5247 54.2833 55.5193C54.3406 55.5139 54.3977 55.5311 54.4424 55.5673C54.4871 55.6035 54.5159 55.6558 54.5225 55.7129L54.5892 56.42C54.5925 56.4547 54.604 56.4882 54.6228 56.5176C54.6416 56.547 54.6671 56.5715 54.6973 56.5891C54.7274 56.6067 54.7613 56.6168 54.7961 56.6187C54.831 56.6206 54.8658 56.6142 54.8976 56.6L56.6227 55.8303C56.6604 55.8125 56.6896 55.7806 56.704 55.7415C56.7184 55.7024 56.7168 55.6595 56.6997 55.6215ZM50.582 59.8483C50.5803 59.9054 50.5564 59.9596 50.5154 59.9994C50.4744 60.0392 50.4195 60.0614 50.3623 60.0614C50.3052 60.0614 50.2503 60.0392 50.2093 59.9994C50.1683 59.9596 50.1443 59.9054 50.1426 59.8483V57.6328L49.9293 57.7646C49.8798 57.7939 49.8208 57.8026 49.7649 57.7888C49.7091 57.775 49.6608 57.7399 49.6306 57.6909C49.6004 57.642 49.5906 57.5831 49.6033 57.527C49.6161 57.4709 49.6503 57.422 49.6987 57.3909L50.2459 57.05C50.2794 57.0301 50.3175 57.0194 50.3564 57.0188C50.3953 57.0183 50.4338 57.0279 50.4678 57.0468C50.5018 57.0658 50.5303 57.0933 50.5504 57.1266C50.5705 57.16 50.5815 57.1981 50.5822 57.237L50.582 59.8483ZM52.1626 59.8483C52.1626 59.9066 52.1395 59.9625 52.0982 60.0038C52.057 60.045 52.0011 60.0681 51.9428 60.0681C51.8845 60.0681 51.8286 60.045 51.7874 60.0038C51.7461 59.9625 51.723 59.9066 51.723 59.8483V57.6328L51.5099 57.7646C51.4603 57.7952 51.4007 57.8049 51.344 57.7915C51.2873 57.7781 51.2382 57.7427 51.2076 57.6932C51.177 57.6436 51.1673 57.5839 51.1807 57.5272C51.1941 57.4705 51.2295 57.4215 51.2791 57.3909L51.8263 57.05C51.8597 57.0301 51.8979 57.0194 51.9368 57.0188C51.9757 57.0183 52.0141 57.0279 52.0482 57.0468C52.0822 57.0658 52.1107 57.0933 52.1308 57.1266C52.1509 57.16 52.1618 57.1981 52.1626 57.237V59.8483Z" fill="#FAFAFA"/>
<path d="M50.582 59.8483C50.5803 59.9054 50.5564 59.9596 50.5154 59.9994C50.4744 60.0392 50.4195 60.0614 50.3623 60.0614C50.3052 60.0614 50.2503 60.0392 50.2093 59.9994C50.1683 59.9596 50.1443 59.9054 50.1426 59.8483V57.6328L49.9293 57.7646C49.8798 57.7939 49.8208 57.8026 49.7649 57.7888C49.7091 57.775 49.6608 57.7399 49.6306 57.6909C49.6004 57.642 49.5906 57.5831 49.6033 57.527C49.6161 57.4709 49.6503 57.422 49.6987 57.3909L50.2459 57.05C50.2794 57.0301 50.3175 57.0194 50.3564 57.0188C50.3953 57.0183 50.4338 57.0279 50.4678 57.0468C50.5018 57.0658 50.5303 57.0933 50.5504 57.1266C50.5705 57.16 50.5815 57.1981 50.5822 57.237L50.582 59.8483Z" fill="#FAFAFA"/>
<path d="M52.1626 59.8483C52.1626 59.9066 52.1395 59.9625 52.0982 60.0038C52.057 60.045 52.0011 60.0681 51.9428 60.0681C51.8845 60.0681 51.8286 60.045 51.7874 60.0038C51.7461 59.9625 51.723 59.9066 51.723 59.8483V57.6328L51.5099 57.7646C51.4603 57.7952 51.4007 57.8049 51.344 57.7915C51.2873 57.7781 51.2382 57.7427 51.2076 57.6932C51.177 57.6436 51.1673 57.5839 51.1807 57.5272C51.1941 57.4705 51.2295 57.4215 51.2791 57.3909L51.8263 57.05C51.8597 57.0301 51.8979 57.0194 51.9368 57.0188C51.9757 57.0183 52.0141 57.0279 52.0482 57.0468C52.0822 57.0658 52.1107 57.0933 52.1308 57.1266C52.1509 57.16 52.1618 57.1981 52.1626 57.237V59.8483Z" fill="#FAFAFA"/>
<path d="M49.9688 57.332H52.2605" stroke="#191919" stroke-width="0.343756" stroke-linecap="round" stroke-linejoin="round"/>
<path d="M51.1147 58.4792V56.1875" stroke="#191919" stroke-width="0.343756" stroke-linecap="round" stroke-linejoin="round"/>
<path d="M30.9998 52.8673C31.3687 52.8668 31.7223 52.7201 31.9832 52.4593C32.244 52.1984 32.3907 51.8448 32.3912 51.4759V50.9944C31.471 51.1677 30.526 51.161 29.6084 50.9746V51.4759C29.6088 51.8448 29.7556 52.1984 30.0164 52.4593C30.2772 52.7201 30.6309 52.8668 30.9998 52.8673Z" fill="#FAFAFA"/>
<path d="M36.6997 55.6215L35.5587 53.2233C35.3436 52.7743 34.9644 52.425 34.4994 52.2472L33.6287 51.9154C33.2842 51.8135 33.0327 51.4088 32.8307 51.1328V51.4102C32.8389 51.666 32.7937 51.9208 32.698 52.1582C32.6023 52.3956 32.4581 52.6104 32.2747 52.789C32.0913 52.9675 31.8727 53.1059 31.6328 53.1953C31.393 53.2846 31.1371 53.323 30.8816 53.3079C30.626 53.2928 30.3764 53.2247 30.1487 53.1077C29.921 52.9908 29.7202 52.8277 29.5591 52.6288C29.3979 52.4299 29.28 52.1997 29.2129 51.9526C29.1457 51.7056 29.1308 51.4473 29.169 51.1942C29.0185 51.4837 28.7722 51.7121 28.4722 51.8404L27.6566 52.1329C27.1885 52.2985 26.8025 52.6388 26.5795 53.0824L25.3 55.6215C25.2822 55.66 25.2803 55.7039 25.2947 55.7438C25.3091 55.7837 25.3387 55.8163 25.3769 55.8346L27.0812 56.6096C27.1132 56.6242 27.1483 56.6309 27.1834 56.6291C27.2186 56.6274 27.2528 56.6172 27.2832 56.5995C27.3136 56.5818 27.3393 56.557 27.3581 56.5273C27.377 56.4976 27.3884 56.4638 27.3915 56.4287L27.4541 55.7144C27.4607 55.6571 27.4893 55.6046 27.534 55.5681C27.5786 55.5316 27.6358 55.514 27.6932 55.519C27.7507 55.524 27.8039 55.5513 27.8416 55.595C27.8792 55.6387 27.8983 55.6954 27.8948 55.7529L27.3641 61.7851C27.3639 61.8279 27.3725 61.8703 27.3893 61.9097C27.4061 61.9491 27.4309 61.9847 27.462 62.0141C27.4931 62.0436 27.5299 62.0663 27.5701 62.081C27.6104 62.0957 27.6532 62.1019 27.696 62.0994H34.3212C34.3642 62.1019 34.4072 62.0956 34.4476 62.0808C34.488 62.066 34.525 62.0431 34.5561 62.0133C34.5872 61.9836 34.6119 61.9479 34.6286 61.9082C34.6453 61.8685 34.6537 61.8259 34.6531 61.7828C34.5592 60.7762 34.1706 56.671 34.0845 55.7542C34.0803 55.6968 34.0988 55.6401 34.136 55.5962C34.1732 55.5523 34.2261 55.5247 34.2833 55.5193C34.3406 55.5139 34.3977 55.5311 34.4424 55.5673C34.4871 55.6035 34.5159 55.6558 34.5225 55.7129L34.5892 56.42C34.5925 56.4547 34.604 56.4882 34.6228 56.5176C34.6416 56.547 34.6671 56.5715 34.6973 56.5891C34.7274 56.6067 34.7613 56.6168 34.7961 56.6187C34.831 56.6206 34.8658 56.6142 34.8976 56.6L36.6227 55.8303C36.6604 55.8125 36.6896 55.7806 36.704 55.7415C36.7184 55.7024 36.7168 55.6595 36.6997 55.6215ZM30.582 59.8483C30.5803 59.9054 30.5564 59.9596 30.5154 59.9994C30.4744 60.0392 30.4195 60.0614 30.3623 60.0614C30.3052 60.0614 30.2503 60.0392 30.2093 59.9994C30.1683 59.9596 30.1443 59.9054 30.1426 59.8483V57.6328L29.9293 57.7646C29.8798 57.7939 29.8208 57.8026 29.7649 57.7888C29.7091 57.775 29.6608 57.7399 29.6306 57.6909C29.6004 57.642 29.5906 57.5831 29.6033 57.527C29.6161 57.4709 29.6503 57.422 29.6987 57.3909L30.2459 57.05C30.2794 57.0301 30.3175 57.0194 30.3564 57.0188C30.3953 57.0183 30.4338 57.0279 30.4678 57.0468C30.5018 57.0658 30.5303 57.0933 30.5504 57.1266C30.5705 57.16 30.5815 57.1981 30.5822 57.237L30.582 59.8483ZM32.1626 59.8483C32.1626 59.9066 32.1395 59.9625 32.0982 60.0038C32.057 60.045 32.0011 60.0681 31.9428 60.0681C31.8845 60.0681 31.8286 60.045 31.7874 60.0038C31.7461 59.9625 31.723 59.9066 31.723 59.8483V57.6328L31.5099 57.7646C31.4603 57.7952 31.4007 57.8049 31.344 57.7915C31.2873 57.7781 31.2382 57.7427 31.2076 57.6932C31.177 57.6436 31.1673 57.5839 31.1807 57.5272C31.1941 57.4705 31.2295 57.4215 31.2791 57.3909L31.8263 57.05C31.8597 57.0301 31.8979 57.0194 31.9368 57.0188C31.9757 57.0183 32.0141 57.0279 32.0482 57.0468C32.0822 57.0658 32.1107 57.0933 32.1308 57.1266C32.1509 57.16 32.1618 57.1981 32.1626 57.237V59.8483Z" fill="#FAFAFA"/>
<path d="M30.582 59.8483C30.5803 59.9054 30.5564 59.9596 30.5154 59.9994C30.4744 60.0392 30.4195 60.0614 30.3623 60.0614C30.3052 60.0614 30.2503 60.0392 30.2093 59.9994C30.1683 59.9596 30.1443 59.9054 30.1426 59.8483V57.6328L29.9293 57.7646C29.8798 57.7939 29.8208 57.8026 29.7649 57.7888C29.7091 57.775 29.6608 57.7399 29.6306 57.6909C29.6004 57.642 29.5906 57.5831 29.6033 57.527C29.6161 57.4709 29.6503 57.422 29.6987 57.3909L30.2459 57.05C30.2794 57.0301 30.3175 57.0194 30.3564 57.0188C30.3953 57.0183 30.4338 57.0279 30.4678 57.0468C30.5018 57.0658 30.5303 57.0933 30.5504 57.1266C30.5705 57.16 30.5815 57.1981 30.5822 57.237L30.582 59.8483Z" fill="#FAFAFA"/>
<path d="M32.1626 59.8483C32.1626 59.9066 32.1395 59.9625 32.0982 60.0038C32.057 60.045 32.0011 60.0681 31.9428 60.0681C31.8845 60.0681 31.8286 60.045 31.7874 60.0038C31.7461 59.9625 31.723 59.9066 31.723 59.8483V57.6328L31.5099 57.7646C31.4603 57.7952 31.4007 57.8049 31.344 57.7915C31.2873 57.7781 31.2382 57.7427 31.2076 57.6932C31.177 57.6436 31.1673 57.5839 31.1807 57.5272C31.1941 57.4705 31.2295 57.4215 31.2791 57.3909L31.8263 57.05C31.8597 57.0301 31.8979 57.0194 31.9368 57.0188C31.9757 57.0183 32.0141 57.0279 32.0482 57.0468C32.0822 57.0658 32.1107 57.0933 32.1308 57.1266C32.1509 57.16 32.1618 57.1981 32.1626 57.237V59.8483Z" fill="#FAFAFA"/>
<path d="M29.9688 57.332H32.2605" stroke="#191919" stroke-width="0.343756" stroke-linecap="round" stroke-linejoin="round"/>
<path d="M31.1147 58.4792V56.1875" stroke="#191919" stroke-width="0.343756" stroke-linecap="round" stroke-linejoin="round"/>
<path d="M8.99978 22.8673C9.36867 22.8668 9.72232 22.7201 9.98317 22.4593C10.244 22.1984 10.3907 21.8448 10.3912 21.4759V20.9944C9.47102 21.1677 8.52599 21.161 7.6084 20.9746V21.4759C7.60883 21.8448 7.75556 22.1984 8.0164 22.4593C8.27725 22.7201 8.6309 22.8668 8.99978 22.8673Z" fill="#FAFAFA"/>
<path d="M14.6997 25.6215L13.5587 23.2233C13.3436 22.7743 12.9644 22.425 12.4994 22.2472L11.6287 21.9154C11.2842 21.8135 11.0327 21.4088 10.8307 21.1328V21.4102C10.8389 21.666 10.7937 21.9208 10.698 22.1582C10.6023 22.3956 10.4581 22.6104 10.2747 22.789C10.0913 22.9675 9.8727 23.1059 9.63282 23.1953C9.39295 23.2846 9.13709 23.323 8.88156 23.3079C8.62603 23.2928 8.37645 23.2247 8.14874 23.1077C7.92103 22.9908 7.7202 22.8277 7.55906 22.6288C7.39792 22.4299 7.28001 22.1997 7.21285 21.9526C7.14569 21.7056 7.13077 21.4473 7.16902 21.1942C7.01845 21.4837 6.77221 21.7121 6.4722 21.8404L5.6566 22.1329C5.18847 22.2985 4.80252 22.6388 4.57953 23.0824L3.3 25.6215C3.28223 25.66 3.28034 25.7039 3.29474 25.7438C3.30914 25.7837 3.33868 25.8163 3.37694 25.8346L5.08122 26.6096C5.11324 26.6242 5.14829 26.6309 5.18343 26.6291C5.21857 26.6274 5.25278 26.6172 5.28318 26.5995C5.31358 26.5818 5.33928 26.557 5.35812 26.5273C5.37696 26.4976 5.3884 26.4638 5.39146 26.4287L5.45412 25.7144C5.46066 25.6571 5.48931 25.6046 5.53397 25.5681C5.57864 25.5316 5.63579 25.514 5.69325 25.519C5.7507 25.524 5.80392 25.5513 5.84157 25.595C5.87922 25.6387 5.89831 25.6954 5.89479 25.7529L5.36411 31.7851C5.3639 31.8279 5.37247 31.8703 5.3893 31.9097C5.40614 31.9491 5.43087 31.9847 5.46197 32.0141C5.49308 32.0436 5.52989 32.0663 5.57014 32.081C5.61039 32.0957 5.65322 32.1019 5.69599 32.0994H12.3212C12.3642 32.1019 12.4072 32.0956 12.4476 32.0808C12.488 32.066 12.525 32.0431 12.5561 32.0133C12.5872 31.9836 12.6119 31.9479 12.6286 31.9082C12.6453 31.8685 12.6537 31.8259 12.6531 31.7828C12.5592 30.7762 12.1706 26.671 12.0845 25.7542C12.0803 25.6968 12.0988 25.6401 12.136 25.5962C12.1732 25.5523 12.2261 25.5247 12.2833 25.5193C12.3406 25.5139 12.3977 25.5311 12.4424 25.5673C12.4871 25.6035 12.5159 25.6558 12.5225 25.7129L12.5892 26.42C12.5925 26.4547 12.604 26.4882 12.6228 26.5176C12.6416 26.547 12.6671 26.5715 12.6973 26.5891C12.7274 26.6067 12.7613 26.6168 12.7961 26.6187C12.831 26.6206 12.8658 26.6142 12.8976 26.6L14.6227 25.8303C14.6604 25.8125 14.6896 25.7806 14.704 25.7415C14.7184 25.7024 14.7168 25.6595 14.6997 25.6215ZM8.58204 29.8483C8.5803 29.9054 8.55639 29.9596 8.51537 29.9994C8.47436 30.0392 8.41946 30.0614 8.36232 30.0614C8.30518 30.0614 8.25028 30.0392 8.20927 29.9994C8.16825 29.9596 8.14434 29.9054 8.1426 29.8483V27.6328L7.92931 27.7646C7.87979 27.7939 7.82076 27.8026 7.76491 27.7888C7.70905 27.775 7.66083 27.7399 7.63062 27.6909C7.60041 27.642 7.59061 27.5831 7.60333 27.527C7.61606 27.4709 7.65029 27.422 7.69867 27.3909L8.24588 27.05C8.27936 27.0301 8.31747 27.0194 8.35641 27.0188C8.39535 27.0183 8.43375 27.0279 8.46779 27.0468C8.50183 27.0658 8.53031 27.0933 8.5504 27.1266C8.57048 27.16 8.58146 27.1981 8.58224 27.237L8.58204 29.8483ZM10.1626 29.8483C10.1626 29.9066 10.1395 29.9625 10.0982 30.0038C10.057 30.045 10.0011 30.0681 9.94281 30.0681C9.88451 30.0681 9.8286 30.045 9.78737 30.0038C9.74615 29.9625 9.72299 29.9066 9.72299 29.8483V27.6328L9.5099 27.7646C9.46034 27.7952 9.40066 27.8049 9.34397 27.7915C9.28728 27.7781 9.23824 27.7427 9.20762 27.6932C9.17701 27.6436 9.16734 27.5839 9.18074 27.5272C9.19413 27.4705 9.2295 27.4215 9.27906 27.3909L9.82627 27.05C9.85975 27.0301 9.89786 27.0194 9.9368 27.0188C9.97574 27.0183 10.0141 27.0279 10.0482 27.0468C10.0822 27.0658 10.1107 27.0933 10.1308 27.1266C10.1509 27.16 10.1618 27.1981 10.1626 27.237V29.8483Z" fill="#FAFAFA"/>
<path d="M8.58204 29.8483C8.5803 29.9054 8.55639 29.9596 8.51537 29.9994C8.47436 30.0392 8.41946 30.0614 8.36232 30.0614C8.30518 30.0614 8.25028 30.0392 8.20927 29.9994C8.16825 29.9596 8.14434 29.9054 8.1426 29.8483V27.6328L7.92931 27.7646C7.87979 27.7939 7.82076 27.8026 7.76491 27.7888C7.70905 27.775 7.66083 27.7399 7.63062 27.6909C7.60041 27.642 7.59061 27.5831 7.60333 27.527C7.61606 27.4709 7.65029 27.422 7.69867 27.3909L8.24588 27.05C8.27936 27.0301 8.31747 27.0194 8.35641 27.0188C8.39535 27.0183 8.43375 27.0279 8.46779 27.0468C8.50183 27.0658 8.53031 27.0933 8.5504 27.1266C8.57048 27.16 8.58146 27.1981 8.58224 27.237L8.58204 29.8483Z" fill="#FAFAFA"/>
<path d="M10.1626 29.8483C10.1626 29.9066 10.1395 29.9625 10.0982 30.0038C10.057 30.045 10.0011 30.0681 9.94281 30.0681C9.88451 30.0681 9.8286 30.045 9.78737 30.0038C9.74615 29.9625 9.72299 29.9066 9.72299 29.8483V27.6328L9.5099 27.7646C9.46034 27.7952 9.40066 27.8049 9.34397 27.7915C9.28728 27.7781 9.23824 27.7427 9.20762 27.6932C9.17701 27.6436 9.16734 27.5839 9.18074 27.5272C9.19413 27.4705 9.2295 27.4215 9.27906 27.3909L9.82627 27.05C9.85975 27.0301 9.89786 27.0194 9.9368 27.0188C9.97574 27.0183 10.0141 27.0279 10.0482 27.0468C10.0822 27.0658 10.1107 27.0933 10.1308 27.1266C10.1509 27.16 10.1618 27.1981 10.1626 27.237V29.8483Z" fill="#FAFAFA"/>
<path d="M7.96875 27.332H10.2605" stroke="#191919" stroke-width="0.343756" stroke-linecap="round" stroke-linejoin="round"/>
<path d="M9.11475 28.4792V26.1875" stroke="#191919" stroke-width="0.343756" stroke-linecap="round" stroke-linejoin="round"/>
<path d="M41.0625 38.8673C41.4314 38.8668 41.7851 38.7201 42.0459 38.4593C42.3068 38.1984 42.4535 37.8448 42.4539 37.4759V36.9944C41.5338 37.1677 40.5887 37.161 39.6711 36.9746V37.4759C39.6716 37.8448 39.8183 38.1984 40.0791 38.4593C40.34 38.7201 40.6936 38.8668 41.0625 38.8673Z" fill="#FAFAFA"/>
<path d="M46.7624 41.6215L45.6215 39.2233C45.4063 38.7743 45.0272 38.425 44.5622 38.2472L43.6915 37.9154C43.3469 37.8135 43.0955 37.4088 42.8934 37.1328V37.4102C42.9017 37.666 42.8565 37.9208 42.7607 38.1582C42.665 38.3956 42.5209 38.6104 42.3375 38.789C42.1541 38.9675 41.9354 39.1059 41.6956 39.1953C41.4557 39.2846 41.1998 39.323 40.9443 39.3079C40.6888 39.2928 40.4392 39.2247 40.2115 39.1077C39.9838 38.9908 39.7829 38.8277 39.6218 38.6288C39.4607 38.4299 39.3428 38.1997 39.2756 37.9526C39.2084 37.7056 39.1935 37.4473 39.2318 37.1942C39.0812 37.4837 38.835 37.7121 38.5349 37.8404L37.7193 38.1329C37.2512 38.2985 36.8653 38.6388 36.6423 39.0824L35.3627 41.6215C35.345 41.66 35.3431 41.7039 35.3575 41.7438C35.3719 41.7837 35.4014 41.8163 35.4397 41.8346L37.144 42.6096C37.176 42.6242 37.211 42.6309 37.2462 42.6291C37.2813 42.6274 37.3155 42.6172 37.3459 42.5995C37.3763 42.5818 37.402 42.557 37.4209 42.5273C37.4397 42.4976 37.4511 42.4638 37.4542 42.4287L37.5169 41.7144C37.5234 41.6571 37.5521 41.6046 37.5967 41.5681C37.6414 41.5316 37.6985 41.514 37.756 41.519C37.8134 41.524 37.8667 41.5513 37.9043 41.595C37.942 41.6387 37.9611 41.6954 37.9575 41.7529L37.4269 47.7851C37.4266 47.8279 37.4352 47.8703 37.452 47.9097C37.4689 47.9491 37.4936 47.9847 37.5247 48.0141C37.5558 48.0436 37.5926 48.0663 37.6329 48.081C37.6731 48.0957 37.716 48.1019 37.7587 48.0994H44.384C44.4269 48.1019 44.47 48.0956 44.5104 48.0808C44.5508 48.066 44.5877 48.0431 44.6188 48.0133C44.65 47.9836 44.6747 47.9479 44.6914 47.9082C44.708 47.8685 44.7164 47.8259 44.7159 47.7828C44.622 46.7762 44.2334 42.671 44.1472 41.7542C44.1431 41.6968 44.1616 41.6401 44.1988 41.5962C44.2359 41.5523 44.2888 41.5247 44.3461 41.5193C44.4033 41.5139 44.4604 41.5311 44.5051 41.5673C44.5499 41.6035 44.5786 41.6558 44.5852 41.7129L44.652 42.42C44.6553 42.4547 44.6668 42.4882 44.6856 42.5176C44.7044 42.547 44.7299 42.5715 44.76 42.5891C44.7901 42.6067 44.824 42.6168 44.8589 42.6187C44.8937 42.6206 44.9285 42.6142 44.9604 42.6L46.6855 41.8303C46.7232 41.8125 46.7524 41.7806 46.7667 41.7415C46.7811 41.7024 46.7796 41.6595 46.7624 41.6215ZM40.6448 45.8483C40.643 45.9054 40.6191 45.9596 40.5781 45.9994C40.5371 46.0392 40.4822 46.0614 40.4251 46.0614C40.3679 46.0614 40.313 46.0392 40.272 45.9994C40.231 45.9596 40.2071 45.9054 40.2053 45.8483V43.6328L39.9921 43.7646C39.9425 43.7939 39.8835 43.8026 39.8277 43.7888C39.7718 43.775 39.7236 43.7399 39.6934 43.6909C39.6632 43.642 39.6534 43.5831 39.6661 43.527C39.6788 43.4709 39.713 43.422 39.7614 43.3909L40.3086 43.05C40.3421 43.0301 40.3802 43.0194 40.4192 43.0188C40.4581 43.0183 40.4965 43.0279 40.5305 43.0468C40.5646 43.0658 40.5931 43.0933 40.6131 43.1266C40.6332 43.16 40.6442 43.1981 40.645 43.237L40.6448 45.8483ZM42.2254 45.8483C42.2254 45.9066 42.2022 45.9625 42.161 46.0038C42.1198 46.045 42.0639 46.0681 42.0056 46.0681C41.9473 46.0681 41.8913 46.045 41.8501 46.0038C41.8089 45.9625 41.7857 45.9066 41.7857 45.8483V43.6328L41.5726 43.7646C41.5231 43.7952 41.4634 43.8049 41.4067 43.7915C41.35 43.7781 41.301 43.7427 41.2704 43.6932C41.2398 43.6436 41.2301 43.5839 41.2435 43.5272C41.2569 43.4705 41.2922 43.4215 41.3418 43.3909L41.889 43.05C41.9225 43.0301 41.9606 43.0194 41.9995 43.0188C42.0385 43.0183 42.0769 43.0279 42.1109 43.0468C42.145 43.0658 42.1734 43.0933 42.1935 43.1266C42.2136 43.16 42.2246 43.1981 42.2254 43.237V45.8483Z" fill="#FAFAFA"/>
<path d="M40.6448 45.8483C40.643 45.9054 40.6191 45.9596 40.5781 45.9994C40.5371 46.0392 40.4822 46.0614 40.4251 46.0614C40.3679 46.0614 40.313 46.0392 40.272 45.9994C40.231 45.9596 40.2071 45.9054 40.2053 45.8483V43.6328L39.9921 43.7646C39.9425 43.7939 39.8835 43.8026 39.8277 43.7888C39.7718 43.775 39.7236 43.7399 39.6934 43.6909C39.6632 43.642 39.6534 43.5831 39.6661 43.527C39.6788 43.4709 39.713 43.422 39.7614 43.3909L40.3086 43.05C40.3421 43.0301 40.3802 43.0194 40.4192 43.0188C40.4581 43.0183 40.4965 43.0279 40.5305 43.0468C40.5646 43.0658 40.5931 43.0933 40.6131 43.1266C40.6332 43.16 40.6442 43.1981 40.645 43.237L40.6448 45.8483Z" fill="#FAFAFA"/>
<path d="M42.2254 45.8483C42.2254 45.9066 42.2022 45.9625 42.161 46.0038C42.1198 46.045 42.0639 46.0681 42.0056 46.0681C41.9473 46.0681 41.8913 46.045 41.8501 46.0038C41.8089 45.9625 41.7857 45.9066 41.7857 45.8483V43.6328L41.5726 43.7646C41.5231 43.7952 41.4634 43.8049 41.4067 43.7915C41.35 43.7781 41.301 43.7427 41.2704 43.6932C41.2398 43.6436 41.2301 43.5839 41.2435 43.5272C41.2569 43.4705 41.2922 43.4215 41.3418 43.3909L41.889 43.05C41.9225 43.0301 41.9606 43.0194 41.9995 43.0188C42.0385 43.0183 42.0769 43.0279 42.1109 43.0468C42.145 43.0658 42.1734 43.0933 42.1935 43.1266C42.2136 43.16 42.2246 43.1981 42.2254 43.237V45.8483Z" fill="#FAFAFA"/>
<path d="M40.0315 43.332H42.3232" stroke="#191919" stroke-width="0.343756" stroke-linecap="round" stroke-linejoin="round"/>
<path d="M41.1775 44.4792V42.1875" stroke="#191919" stroke-width="0.343756" stroke-linecap="round" stroke-linejoin="round"/>
<path d="M41.1253 21.8673C41.4942 21.8668 41.8478 21.7201 42.1087 21.4593C42.3695 21.1984 42.5162 20.8448 42.5167 20.4759V19.9944C41.5965 20.1677 40.6515 20.161 39.7339 19.9746V20.4759C39.7343 20.8448 39.881 21.1984 40.1419 21.4593C40.4027 21.7201 40.7564 21.8668 41.1253 21.8673Z" fill="#FAFAFA"/>
<path d="M46.8252 24.6215L45.6842 22.2233C45.4691 21.7743 45.0899 21.425 44.6249 21.2472L43.7542 20.9154C43.4097 20.8135 43.1582 20.4088 42.9562 20.1328V20.4102C42.9644 20.666 42.9192 20.9208 42.8235 21.1582C42.7278 21.3956 42.5836 21.6104 42.4002 21.789C42.2168 21.9675 41.9982 22.1059 41.7583 22.1953C41.5184 22.2846 41.2626 22.323 41.007 22.3079C40.7515 22.2928 40.5019 22.2247 40.2742 22.1077C40.0465 21.9908 39.8457 21.8277 39.6845 21.6288C39.5234 21.4299 39.4055 21.1997 39.3383 20.9526C39.2712 20.7056 39.2563 20.4473 39.2945 20.1942C39.1439 20.4837 38.8977 20.7121 38.5977 20.8404L37.7821 21.1329C37.314 21.2985 36.928 21.6388 36.705 22.0824L35.4255 24.6215C35.4077 24.66 35.4058 24.7039 35.4202 24.7438C35.4346 24.7837 35.4642 24.8163 35.5024 24.8346L37.2067 25.6096C37.2387 25.6242 37.2738 25.6309 37.3089 25.6291C37.3441 25.6274 37.3783 25.6172 37.4087 25.5995C37.4391 25.5818 37.4648 25.557 37.4836 25.5273C37.5025 25.4976 37.5139 25.4638 37.517 25.4287L37.5796 24.7144C37.5861 24.6571 37.6148 24.6046 37.6595 24.5681C37.7041 24.5316 37.7613 24.514 37.8187 24.519C37.8762 24.524 37.9294 24.5513 37.9671 24.595C38.0047 24.6387 38.0238 24.6954 38.0203 24.7529L37.4896 30.7851C37.4894 30.8279 37.498 30.8703 37.5148 30.9097C37.5316 30.9491 37.5564 30.9847 37.5875 31.0141C37.6186 31.0436 37.6554 31.0663 37.6956 31.081C37.7359 31.0957 37.7787 31.1019 37.8215 31.0994H44.4467C44.4897 31.1019 44.5327 31.0956 44.5731 31.0808C44.6135 31.066 44.6504 31.0431 44.6816 31.0133C44.7127 30.9836 44.7374 30.9479 44.7541 30.9082C44.7708 30.8685 44.7791 30.8259 44.7786 30.7828C44.6847 29.7762 44.2961 25.671 44.21 24.7542C44.2058 24.6968 44.2243 24.6401 44.2615 24.5962C44.2987 24.5523 44.3515 24.5247 44.4088 24.5193C44.4661 24.5139 44.5232 24.5311 44.5679 24.5673C44.6126 24.6035 44.6413 24.6558 44.648 24.7129L44.7147 25.42C44.718 25.4547 44.7295 25.4882 44.7483 25.5176C44.7671 25.547 44.7926 25.5715 44.8228 25.5891C44.8529 25.6067 44.8868 25.6168 44.9216 25.6187C44.9565 25.6206 44.9913 25.6142 45.0231 25.6L46.7482 24.8303C46.7859 24.8125 46.8151 24.7806 46.8295 24.7415C46.8439 24.7024 46.8423 24.6595 46.8252 24.6215ZM40.7075 28.8483C40.7058 28.9054 40.6819 28.9596 40.6409 28.9994C40.5998 29.0392 40.5449 29.0614 40.4878 29.0614C40.4307 29.0614 40.3758 29.0392 40.3348 28.9994C40.2937 28.9596 40.2698 28.9054 40.2681 28.8483V26.6328L40.0548 26.7646C40.0053 26.7939 39.9462 26.8026 39.8904 26.7888C39.8345 26.775 39.7863 26.7399 39.7561 26.6909C39.7259 26.642 39.7161 26.5831 39.7288 26.527C39.7415 26.4709 39.7758 26.422 39.8242 26.3909L40.3714 26.05C40.4048 26.0301 40.443 26.0194 40.4819 26.0188C40.5208 26.0183 40.5592 26.0279 40.5933 26.0468C40.6273 26.0658 40.6558 26.0933 40.6759 26.1266C40.696 26.16 40.7069 26.1981 40.7077 26.237L40.7075 28.8483ZM42.2881 28.8483C42.2881 28.9066 42.265 28.9625 42.2237 29.0038C42.1825 29.045 42.1266 29.0681 42.0683 29.0681C42.01 29.0681 41.9541 29.045 41.9129 29.0038C41.8716 28.9625 41.8485 28.9066 41.8485 28.8483V26.6328L41.6354 26.7646C41.5858 26.7952 41.5261 26.8049 41.4695 26.7915C41.4128 26.7781 41.3637 26.7427 41.3331 26.6932C41.3025 26.6436 41.2928 26.5839 41.3062 26.5272C41.3196 26.4705 41.355 26.4215 41.4045 26.3909L41.9518 26.05C41.9852 26.0301 42.0233 26.0194 42.0623 26.0188C42.1012 26.0183 42.1396 26.0279 42.1737 26.0468C42.2077 26.0658 42.2362 26.0933 42.2563 26.1266C42.2764 26.16 42.2873 26.1981 42.2881 26.237V28.8483Z" fill="#FAFAFA"/>
<path d="M40.7075 28.8483C40.7058 28.9054 40.6819 28.9596 40.6409 28.9994C40.5998 29.0392 40.5449 29.0614 40.4878 29.0614C40.4307 29.0614 40.3758 29.0392 40.3348 28.9994C40.2937 28.9596 40.2698 28.9054 40.2681 28.8483V26.6328L40.0548 26.7646C40.0053 26.7939 39.9462 26.8026 39.8904 26.7888C39.8345 26.775 39.7863 26.7399 39.7561 26.6909C39.7259 26.642 39.7161 26.5831 39.7288 26.527C39.7415 26.4709 39.7758 26.422 39.8242 26.3909L40.3714 26.05C40.4048 26.0301 40.443 26.0194 40.4819 26.0188C40.5208 26.0183 40.5592 26.0279 40.5933 26.0468C40.6273 26.0658 40.6558 26.0933 40.6759 26.1266C40.696 26.16 40.7069 26.1981 40.7077 26.237L40.7075 28.8483Z" fill="#FAFAFA"/>
<path d="M42.2881 28.8483C42.2881 28.9066 42.265 28.9625 42.2237 29.0038C42.1825 29.045 42.1266 29.0681 42.0683 29.0681C42.01 29.0681 41.9541 29.045 41.9129 29.0038C41.8716 28.9625 41.8485 28.9066 41.8485 28.8483V26.6328L41.6354 26.7646C41.5858 26.7952 41.5261 26.8049 41.4695 26.7915C41.4128 26.7781 41.3637 26.7427 41.3331 26.6932C41.3025 26.6436 41.2928 26.5839 41.3062 26.5272C41.3196 26.4705 41.355 26.4215 41.4045 26.3909L41.9518 26.05C41.9852 26.0301 42.0233 26.0194 42.0623 26.0188C42.1012 26.0183 42.1396 26.0279 42.1737 26.0468C42.2077 26.0658 42.2362 26.0933 42.2563 26.1266C42.2764 26.16 42.2873 26.1981 42.2881 26.237V28.8483Z" fill="#FAFAFA"/>
<path d="M40.0942 26.332H42.3859" stroke="#191919" stroke-width="0.343756" stroke-linecap="round" stroke-linejoin="round"/>
<path d="M41.2402 27.4792V25.1875" stroke="#191919" stroke-width="0.343756" stroke-linecap="round" stroke-linejoin="round"/>
<path d="M55.531 2.86728C55.8999 2.86685 56.2536 2.72012 56.5144 2.45927C56.7753 2.19843 56.922 1.84478 56.9224 1.47589V0.994408C56.0023 1.16774 55.0572 1.16102 54.1396 0.974609V1.47589C54.1401 1.84478 54.2868 2.19843 54.5477 2.45927C54.8085 2.72012 55.1621 2.86685 55.531 2.86728Z" fill="#FAFAFA"/>
<path d="M61.2309 5.6215L60.09 3.22326C59.8748 2.77433 59.4957 2.42501 59.0307 2.24723L58.16 1.91535C57.8154 1.8135 57.564 1.40876 57.3619 1.13281V1.41019C57.3702 1.66603 57.325 1.92078 57.2292 2.15818C57.1335 2.39558 56.9894 2.61042 56.806 2.78898C56.6226 2.96755 56.4039 3.10592 56.1641 3.19527C55.9242 3.28462 55.6683 3.32299 55.4128 3.30792C55.1573 3.29285 54.9077 3.22467 54.68 3.10775C54.4523 2.99082 54.2515 2.82772 54.0903 2.62883C53.9292 2.42994 53.8113 2.19965 53.7441 1.95265C53.6769 1.70564 53.662 1.44735 53.7003 1.19425C53.5497 1.48374 53.3035 1.7121 53.0035 1.84045L52.1878 2.13293C51.7197 2.29852 51.3338 2.63876 51.1108 3.08243L49.8312 5.6215C49.8135 5.66 49.8116 5.70395 49.826 5.74383C49.8404 5.78371 49.8699 5.81632 49.9082 5.83458L51.6125 6.60957C51.6445 6.62418 51.6795 6.63089 51.7147 6.62913C51.7498 6.62738 51.784 6.61722 51.8144 6.5995C51.8448 6.58178 51.8705 6.55702 51.8894 6.52731C51.9082 6.49759 51.9196 6.46379 51.9227 6.42873L51.9854 5.71437C51.9919 5.65706 52.0206 5.60457 52.0652 5.56808C52.1099 5.53159 52.167 5.51399 52.2245 5.51902C52.282 5.52405 52.3352 5.55131 52.3728 5.59501C52.4105 5.6387 52.4296 5.69537 52.426 5.75294L51.8954 11.7851C51.8951 11.8279 51.9037 11.8703 51.9206 11.9097C51.9374 11.9491 51.9621 11.9847 51.9932 12.0141C52.0243 12.0436 52.0611 12.0663 52.1014 12.081C52.1416 12.0957 52.1845 12.1019 52.2272 12.0994H58.8525C58.8955 12.1019 58.9385 12.0956 58.9789 12.0808C59.0193 12.066 59.0562 12.0431 59.0873 12.0133C59.1185 11.9836 59.1432 11.9479 59.1599 11.9082C59.1766 11.8685 59.1849 11.8259 59.1844 11.7828C59.0905 10.7762 58.7019 6.67101 58.6157 5.75417C58.6116 5.69679 58.6301 5.64008 58.6673 5.59618C58.7044 5.55227 58.7573 5.52467 58.8146 5.51928C58.8718 5.51389 58.9289 5.53114 58.9737 5.56734C59.0184 5.60353 59.0471 5.6558 59.0537 5.71294L59.1205 6.41996C59.1238 6.4547 59.1353 6.48815 59.1541 6.51756C59.1729 6.54697 59.1984 6.57148 59.2285 6.58908C59.2587 6.60667 59.2925 6.61683 59.3274 6.61873C59.3622 6.62062 59.397 6.6142 59.4289 6.59998L61.154 5.8303C61.1917 5.81252 61.2209 5.78065 61.2353 5.74155C61.2496 5.70245 61.2481 5.65946 61.2309 5.6215ZM55.1133 9.84832C55.1115 9.90543 55.0876 9.95962 55.0466 9.99941C55.0056 10.0392 54.9507 10.0614 54.8936 10.0614C54.8364 10.0614 54.7815 10.0392 54.7405 9.99941C54.6995 9.95962 54.6756 9.90543 54.6739 9.84832V7.63275L54.4606 7.7646C54.411 7.79389 54.352 7.80258 54.2962 7.7888C54.2403 7.77502 54.1921 7.73987 54.1619 7.69091C54.1317 7.64196 54.1219 7.5831 54.1346 7.52699C54.1473 7.47089 54.1815 7.42202 54.2299 7.39089L54.7771 7.05003C54.8106 7.03014 54.8487 7.01938 54.8877 7.01882C54.9266 7.01826 54.965 7.02792 54.999 7.04684C55.0331 7.06576 55.0616 7.09328 55.0816 7.12664C55.1017 7.16001 55.1127 7.19806 55.1135 7.23699L55.1133 9.84832ZM56.6939 9.84832C56.6939 9.90662 56.6707 9.96253 56.6295 10.0038C56.5883 10.045 56.5324 10.0681 56.4741 10.0681C56.4158 10.0681 56.3598 10.045 56.3186 10.0038C56.2774 9.96253 56.2542 9.90662 56.2542 9.84832V7.63275L56.0412 7.7646C55.9916 7.79522 55.9319 7.80489 55.8752 7.79149C55.8185 7.77809 55.7695 7.74273 55.7389 7.69317C55.7083 7.64361 55.6986 7.58392 55.712 7.52723C55.7254 7.47054 55.7608 7.4215 55.8103 7.39089L56.3575 7.05003C56.391 7.03014 56.4291 7.01938 56.468 7.01882C56.507 7.01826 56.5454 7.02792 56.5794 7.04684C56.6135 7.06576 56.642 7.09328 56.662 7.12664C56.6821 7.16001 56.6931 7.19806 56.6939 7.23699V9.84832Z" fill="#FAFAFA"/>
<path d="M55.1133 9.84832C55.1115 9.90543 55.0876 9.95962 55.0466 9.99941C55.0056 10.0392 54.9507 10.0614 54.8936 10.0614C54.8364 10.0614 54.7815 10.0392 54.7405 9.99941C54.6995 9.95962 54.6756 9.90543 54.6739 9.84832V7.63275L54.4606 7.7646C54.411 7.79389 54.352 7.80258 54.2962 7.7888C54.2403 7.77502 54.1921 7.73987 54.1619 7.69091C54.1317 7.64196 54.1219 7.5831 54.1346 7.52699C54.1473 7.47089 54.1815 7.42202 54.2299 7.39089L54.7771 7.05003C54.8106 7.03014 54.8487 7.01938 54.8877 7.01882C54.9266 7.01826 54.965 7.02792 54.999 7.04684C55.0331 7.06576 55.0616 7.09328 55.0816 7.12664C55.1017 7.16001 55.1127 7.19806 55.1135 7.23699L55.1133 9.84832Z" fill="#FAFAFA"/>
<path d="M56.6939 9.84832C56.6939 9.90662 56.6707 9.96253 56.6295 10.0038C56.5883 10.045 56.5324 10.0681 56.4741 10.0681C56.4158 10.0681 56.3598 10.045 56.3186 10.0038C56.2774 9.96253 56.2542 9.90662 56.2542 9.84832V7.63275L56.0412 7.7646C55.9916 7.79522 55.9319 7.80489 55.8752 7.79149C55.8185 7.77809 55.7695 7.74273 55.7389 7.69317C55.7083 7.64361 55.6986 7.58392 55.712 7.52723C55.7254 7.47054 55.7608 7.4215 55.8103 7.39089L56.3575 7.05003C56.391 7.03014 56.4291 7.01938 56.468 7.01882C56.507 7.01826 56.5454 7.02792 56.5794 7.04684C56.6135 7.06576 56.642 7.09328 56.662 7.12664C56.6821 7.16001 56.6931 7.19806 56.6939 7.23699V9.84832Z" fill="#FAFAFA"/>
<path d="M54.5 7.33203H56.7917" stroke="#191919" stroke-width="0.343756" stroke-linecap="round" stroke-linejoin="round"/>
<path d="M55.646 8.47921V6.1875" stroke="#191919" stroke-width="0.343756" stroke-linecap="round" stroke-linejoin="round"/>
<path d="M72.2508 22.8673C72.6196 22.8668 72.9733 22.7201 73.2341 22.4593C73.495 22.1984 73.6417 21.8448 73.6421 21.4759V20.9944C72.722 21.1677 71.777 21.161 70.8594 20.9746V21.4759C70.8598 21.8448 71.0065 22.1984 71.2674 22.4593C71.5282 22.7201 71.8819 22.8668 72.2508 22.8673Z" fill="#FAFAFA"/>
<path d="M77.9507 25.6215L76.8097 23.2233C76.5945 22.7743 76.2154 22.425 75.7504 22.2472L74.8797 21.9154C74.5352 21.8135 74.2837 21.4088 74.0816 21.1328V21.4102C74.0899 21.666 74.0447 21.9208 73.949 22.1582C73.8532 22.3956 73.7091 22.6104 73.5257 22.789C73.3423 22.9675 73.1237 23.1059 72.8838 23.1953C72.6439 23.2846 72.3881 23.323 72.1325 23.3079C71.877 23.2928 71.6274 23.2247 71.3997 23.1077C71.172 22.9908 70.9712 22.8277 70.81 22.6288C70.6489 22.4299 70.531 22.1997 70.4638 21.9526C70.3967 21.7056 70.3817 21.4473 70.42 21.1942C70.2694 21.4837 70.0232 21.7121 69.7232 21.8404L68.9076 22.1329C68.4394 22.2985 68.0535 22.6388 67.8305 23.0824L66.551 25.6215C66.5332 25.66 66.5313 25.7039 66.5457 25.7438C66.5601 25.7837 66.5897 25.8163 66.6279 25.8346L68.3322 26.6096C68.3642 26.6242 68.3993 26.6309 68.4344 26.6291C68.4695 26.6274 68.5038 26.6172 68.5342 26.5995C68.5646 26.5818 68.5903 26.557 68.6091 26.5273C68.6279 26.4976 68.6394 26.4638 68.6424 26.4287L68.7051 25.7144C68.7116 25.6571 68.7403 25.6046 68.785 25.5681C68.8296 25.5316 68.8868 25.514 68.9442 25.519C69.0017 25.524 69.0549 25.5513 69.0925 25.595C69.1302 25.6387 69.1493 25.6954 69.1458 25.7529L68.6151 31.7851C68.6149 31.8279 68.6234 31.8703 68.6403 31.9097C68.6571 31.9491 68.6818 31.9847 68.7129 32.0141C68.7441 32.0436 68.7809 32.0663 68.8211 32.081C68.8614 32.0957 68.9042 32.1019 68.947 32.0994H75.5722C75.6152 32.1019 75.6582 32.0956 75.6986 32.0808C75.739 32.066 75.7759 32.0431 75.8071 32.0133C75.8382 31.9836 75.8629 31.9479 75.8796 31.9082C75.8963 31.8685 75.9046 31.8259 75.9041 31.7828C75.8102 30.7762 75.4216 26.671 75.3355 25.7542C75.3313 25.6968 75.3498 25.6401 75.387 25.5962C75.4242 25.5523 75.477 25.5247 75.5343 25.5193C75.5916 25.5139 75.6487 25.5311 75.6934 25.5673C75.7381 25.6035 75.7668 25.6558 75.7735 25.7129L75.8402 26.42C75.8435 26.4547 75.855 26.4882 75.8738 26.5176C75.8926 26.547 75.9181 26.5715 75.9482 26.5891C75.9784 26.6067 76.0123 26.6168 76.0471 26.6187C76.082 26.6206 76.1168 26.6142 76.1486 26.6L77.8737 25.8303C77.9114 25.8125 77.9406 25.7806 77.955 25.7415C77.9694 25.7024 77.9678 25.6595 77.9507 25.6215ZM71.833 29.8483C71.8313 29.9054 71.8074 29.9596 71.7663 29.9994C71.7253 30.0392 71.6704 30.0614 71.6133 30.0614C71.5562 30.0614 71.5013 30.0392 71.4602 29.9994C71.4192 29.9596 71.3953 29.9054 71.3936 29.8483V27.6328L71.1803 27.7646C71.1308 27.7939 71.0717 27.8026 71.0159 27.7888C70.96 27.775 70.9118 27.7399 70.8816 27.6909C70.8514 27.642 70.8416 27.5831 70.8543 27.527C70.867 27.4709 70.9013 27.422 70.9496 27.3909L71.4969 27.05C71.5303 27.0301 71.5684 27.0194 71.6074 27.0188C71.6463 27.0183 71.6847 27.0279 71.7188 27.0468C71.7528 27.0658 71.7813 27.0933 71.8014 27.1266C71.8215 27.16 71.8324 27.1981 71.8332 27.237L71.833 29.8483ZM73.4136 29.8483C73.4136 29.9066 73.3904 29.9625 73.3492 30.0038C73.308 30.045 73.2521 30.0681 73.1938 30.0681C73.1355 30.0681 73.0796 30.045 73.0383 30.0038C72.9971 29.9625 72.974 29.9066 72.974 29.8483V27.6328L72.7609 27.7646C72.7113 27.7952 72.6516 27.8049 72.5949 27.7915C72.5383 27.7781 72.4892 27.7427 72.4586 27.6932C72.428 27.6436 72.4183 27.5839 72.4317 27.5272C72.4451 27.4705 72.4805 27.4215 72.53 27.3909L73.0772 27.05C73.1107 27.0301 73.1488 27.0194 73.1878 27.0188C73.2267 27.0183 73.2651 27.0279 73.2992 27.0468C73.3332 27.0658 73.3617 27.0933 73.3818 27.1266C73.4018 27.16 73.4128 27.1981 73.4136 27.237V29.8483Z" fill="#FAFAFA"/>
<path d="M71.833 29.8483C71.8313 29.9054 71.8074 29.9596 71.7663 29.9994C71.7253 30.0392 71.6704 30.0614 71.6133 30.0614C71.5562 30.0614 71.5013 30.0392 71.4602 29.9994C71.4192 29.9596 71.3953 29.9054 71.3936 29.8483V27.6328L71.1803 27.7646C71.1308 27.7939 71.0717 27.8026 71.0159 27.7888C70.96 27.775 70.9118 27.7399 70.8816 27.6909C70.8514 27.642 70.8416 27.5831 70.8543 27.527C70.867 27.4709 70.9013 27.422 70.9496 27.3909L71.4969 27.05C71.5303 27.0301 71.5684 27.0194 71.6074 27.0188C71.6463 27.0183 71.6847 27.0279 71.7188 27.0468C71.7528 27.0658 71.7813 27.0933 71.8014 27.1266C71.8215 27.16 71.8324 27.1981 71.8332 27.237L71.833 29.8483Z" fill="#FAFAFA"/>
<path d="M73.4136 29.8483C73.4136 29.9066 73.3904 29.9625 73.3492 30.0038C73.308 30.045 73.2521 30.0681 73.1938 30.0681C73.1355 30.0681 73.0796 30.045 73.0383 30.0038C72.9971 29.9625 72.974 29.9066 72.974 29.8483V27.6328L72.7609 27.7646C72.7113 27.7952 72.6516 27.8049 72.5949 27.7915C72.5383 27.7781 72.4892 27.7427 72.4586 27.6932C72.428 27.6436 72.4183 27.5839 72.4317 27.5272C72.4451 27.4705 72.4805 27.4215 72.53 27.3909L73.0772 27.05C73.1107 27.0301 73.1488 27.0194 73.1878 27.0188C73.2267 27.0183 73.2651 27.0279 73.2992 27.0468C73.3332 27.0658 73.3617 27.0933 73.3818 27.1266C73.4018 27.16 73.4128 27.1981 73.4136 27.237V29.8483Z" fill="#FAFAFA"/>
<path d="M71.2197 27.332H73.5114" stroke="#191919" stroke-width="0.343756" stroke-linecap="round" stroke-linejoin="round"/>
<path d="M72.3657 28.4792V26.1875" stroke="#191919" stroke-width="0.343756" stroke-linecap="round" stroke-linejoin="round"/>
<path d="M25.531 2.86923C25.8999 2.8688 26.2536 2.72207 26.5144 2.46123C26.7753 2.20038 26.922 1.84673 26.9224 1.47785V0.996361C26.0023 1.1697 25.0572 1.16297 24.1396 0.976562V1.47785C24.1401 1.84673 24.2868 2.20038 24.5477 2.46123C24.8085 2.72207 25.1621 2.8688 25.531 2.86923Z" fill="#FAFAFA"/>
<path d="M31.2309 5.62345L30.09 3.22521C29.8748 2.77629 29.4957 2.42696 29.0307 2.24918L28.16 1.91731C27.8154 1.81546 27.564 1.41072 27.3619 1.13477V1.41214C27.3702 1.66798 27.325 1.92273 27.2292 2.16013C27.1335 2.39753 26.9894 2.61237 26.806 2.79094C26.6226 2.9695 26.4039 3.10788 26.1641 3.19723C25.9242 3.28658 25.6683 3.32494 25.4128 3.30987C25.1573 3.2948 24.9077 3.22663 24.68 3.1097C24.4523 2.99278 24.2515 2.82967 24.0903 2.63078C23.9292 2.4319 23.8113 2.2016 23.7441 1.9546C23.6769 1.70759 23.662 1.4493 23.7003 1.1962C23.5497 1.48569 23.3035 1.71405 23.0035 1.8424L22.1878 2.13488C21.7197 2.30048 21.3338 2.64071 21.1108 3.08438L19.8312 5.62345C19.8135 5.66195 19.8116 5.7059 19.826 5.74579C19.8404 5.78567 19.8699 5.81827 19.9082 5.83654L21.6125 6.61153C21.6445 6.62613 21.6795 6.63284 21.7147 6.63109C21.7498 6.62933 21.784 6.61917 21.8144 6.60145C21.8448 6.58373 21.8705 6.55898 21.8894 6.52926C21.9082 6.49955 21.9196 6.46574 21.9227 6.43069L21.9854 5.71632C21.9919 5.65901 22.0206 5.60652 22.0652 5.57004C22.1099 5.53355 22.167 5.51594 22.2245 5.52097C22.282 5.526 22.3352 5.55327 22.3728 5.59696C22.4105 5.64066 22.4296 5.69733 22.426 5.75489L21.8954 11.787C21.8951 11.8299 21.9037 11.8723 21.9206 11.9117C21.9374 11.9511 21.9621 11.9866 21.9932 12.0161C22.0243 12.0455 22.0611 12.0683 22.1014 12.083C22.1416 12.0976 22.1845 12.1039 22.2272 12.1013H28.8525C28.8955 12.1039 28.9385 12.0976 28.9789 12.0828C29.0193 12.068 29.0562 12.045 29.0873 12.0153C29.1185 11.9856 29.1432 11.9498 29.1599 11.9101C29.1766 11.8705 29.1849 11.8278 29.1844 11.7848C29.0905 10.7781 28.7019 6.67296 28.6157 5.75612C28.6116 5.69875 28.6301 5.64203 28.6673 5.59813C28.7044 5.55422 28.7573 5.52662 28.8146 5.52123C28.8718 5.51584 28.9289 5.53309 28.9737 5.56929C29.0184 5.60549 29.0471 5.65775 29.0537 5.71489L29.1205 6.42191C29.1238 6.45665 29.1353 6.49011 29.1541 6.51952C29.1729 6.54892 29.1984 6.57344 29.2285 6.59103C29.2587 6.60862 29.2925 6.61878 29.3274 6.62068C29.3622 6.62258 29.397 6.61615 29.4289 6.60193L31.154 5.83225C31.1917 5.81447 31.2209 5.7826 31.2353 5.7435C31.2496 5.7044 31.2481 5.66142 31.2309 5.62345ZM25.1133 9.85027C25.1115 9.90738 25.0876 9.96158 25.0466 10.0014C25.0056 10.0411 24.9507 10.0634 24.8936 10.0634C24.8364 10.0634 24.7815 10.0411 24.7405 10.0014C24.6995 9.96158 24.6756 9.90738 24.6739 9.85027V7.63471L24.4606 7.76656C24.411 7.79584 24.352 7.80453 24.2962 7.79075C24.2403 7.77697 24.1921 7.74182 24.1619 7.69287C24.1317 7.64391 24.1219 7.58505 24.1346 7.52895C24.1473 7.47284 24.1815 7.42397 24.2299 7.39284L24.7771 7.05198C24.8106 7.03209 24.8487 7.02133 24.8877 7.02077C24.9266 7.02021 24.965 7.02987 24.999 7.04879C25.0331 7.06771 25.0616 7.09523 25.0816 7.1286C25.1017 7.16196 25.1127 7.20001 25.1135 7.23895L25.1133 9.85027ZM26.6939 9.85027C26.6939 9.90857 26.6707 9.96448 26.6295 10.0057C26.5883 10.0469 26.5324 10.0701 26.4741 10.0701C26.4158 10.0701 26.3598 10.0469 26.3186 10.0057C26.2774 9.96448 26.2542 9.90857 26.2542 9.85027V7.63471L26.0412 7.76656C25.9916 7.79717 25.9319 7.80684 25.8752 7.79344C25.8185 7.78005 25.7695 7.74468 25.7389 7.69512C25.7083 7.64556 25.6986 7.58587 25.712 7.52919C25.7254 7.4725 25.7608 7.42345 25.8103 7.39284L26.3575 7.05198C26.391 7.03209 26.4291 7.02133 26.468 7.02077C26.507 7.02021 26.5454 7.02987 26.5794 7.04879C26.6135 7.06771 26.642 7.09523 26.662 7.1286C26.6821 7.16196 26.6931 7.20001 26.6939 7.23895V9.85027Z" fill="#FAFAFA"/>
<path d="M25.1133 9.85027C25.1115 9.90738 25.0876 9.96158 25.0466 10.0014C25.0056 10.0411 24.9507 10.0634 24.8936 10.0634C24.8364 10.0634 24.7815 10.0411 24.7405 10.0014C24.6995 9.96158 24.6756 9.90738 24.6739 9.85027V7.63471L24.4606 7.76656C24.411 7.79584 24.352 7.80453 24.2962 7.79075C24.2403 7.77697 24.1921 7.74182 24.1619 7.69287C24.1317 7.64391 24.1219 7.58505 24.1346 7.52895C24.1473 7.47284 24.1815 7.42397 24.2299 7.39284L24.7771 7.05198C24.8106 7.03209 24.8487 7.02133 24.8877 7.02077C24.9266 7.02021 24.965 7.02987 24.999 7.04879C25.0331 7.06771 25.0616 7.09523 25.0816 7.1286C25.1017 7.16196 25.1127 7.20001 25.1135 7.23895L25.1133 9.85027Z" fill="#FAFAFA"/>
<path d="M26.6939 9.85027C26.6939 9.90857 26.6707 9.96448 26.6295 10.0057C26.5883 10.0469 26.5324 10.0701 26.4741 10.0701C26.4158 10.0701 26.3598 10.0469 26.3186 10.0057C26.2774 9.96448 26.2542 9.90857 26.2542 9.85027V7.63471L26.0412 7.76656C25.9916 7.79717 25.9319 7.80684 25.8752 7.79344C25.8185 7.78005 25.7695 7.74468 25.7389 7.69512C25.7083 7.64556 25.6986 7.58587 25.712 7.52919C25.7254 7.4725 25.7608 7.42345 25.8103 7.39284L26.3575 7.05198C26.391 7.03209 26.4291 7.02133 26.468 7.02077C26.507 7.02021 26.5454 7.02987 26.5794 7.04879C26.6135 7.06771 26.642 7.09523 26.662 7.1286C26.6821 7.16196 26.6931 7.20001 26.6939 7.23895V9.85027Z" fill="#FAFAFA"/>
<path d="M24.5 7.33398H26.7917" stroke="#191919" stroke-width="0.343756" stroke-linecap="round" stroke-linejoin="round"/>
<path d="M25.646 8.48116V6.18945" stroke="#191919" stroke-width="0.343756" stroke-linecap="round" stroke-linejoin="round"/>
</svg>
