<svg width="82" height="81" viewBox="0 0 82 81" fill="none" xmlns="http://www.w3.org/2000/svg">
<rect x="0.953941" y="0.118492" width="79.9807" height="79.9807" rx="5.88541" fill="#828284" stroke="#FAFAFA" stroke-width="0.229171"/>
<mask id="path-2-inside-1_8754_16968" fill="white">
<path d="M24.6731 66.4609H57.2154V80.2112H24.6731V66.4609Z"/>
</mask>
<path d="M24.6731 66.4609V66.2318H24.4439V66.4609H24.6731ZM57.2154 66.4609H57.4445V66.2318H57.2154V66.4609ZM24.6731 66.6901H57.2154V66.2318H24.6731V66.6901ZM56.9862 66.4609V80.2112H57.4445V66.4609H56.9862ZM24.9023 80.2112V66.4609H24.4439V80.2112H24.9023Z" fill="#FAFAFA" mask="url(#path-2-inside-1_8754_16968)"/>
<mask id="path-4-inside-2_8754_16968" fill="white">
<path d="M13.4438 55.0039H68.4449V80.2127H13.4438V55.0039Z"/>
</mask>
<path d="M13.4438 55.0039V54.7747H13.2147V55.0039H13.4438ZM68.4449 55.0039H68.674V54.7747H68.4449V55.0039ZM13.4438 55.2331H68.4449V54.7747H13.4438V55.2331ZM68.2157 55.0039V80.2127H68.674V55.0039H68.2157ZM13.673 80.2127V55.0039H13.2147V80.2127H13.673Z" fill="#FAFAFA" mask="url(#path-4-inside-2_8754_16968)"/>
<path d="M55.1528 9.53674e-07C55.1528 1.65523 54.7675 3.29426 54.0189 4.8235C53.2703 6.35273 52.1731 7.74223 50.7899 8.91266C49.4066 10.0831 47.7645 11.0115 45.9572 11.645C44.1499 12.2784 42.2129 12.6044 40.2567 12.6044C38.3005 12.6044 36.3635 12.2784 34.5562 11.645C32.7489 11.0115 31.1068 10.0831 29.7236 8.91266C28.3403 7.74223 27.2431 6.35273 26.4945 4.8235C25.7459 3.29426 25.3606 1.65523 25.3606 0" stroke="#FAFAFA" stroke-width="0.229171"/>
<path d="M31.4165 55.3516C31.9348 54.5174 32.6944 53.7595 33.6521 53.1211C34.6097 52.4827 35.7465 51.9763 36.9977 51.6308C38.2489 51.2853 39.59 51.1074 40.9442 51.1074C42.2985 51.1074 43.6395 51.2853 44.8907 51.6308C46.1419 51.9763 47.2788 52.4827 48.2364 53.1211C49.194 53.7595 49.9537 54.5174 50.4719 55.3516" stroke="#FAFAFA" stroke-width="0.229171"/>
<path d="M1.06836 76.5479C2.18489 76.4958 4.38882 77.1099 4.27231 79.9825" stroke="#FAFAFA" stroke-width="0.229171"/>
<path d="M80.8198 76.5479C79.7033 76.4958 77.4994 77.1099 77.6159 79.9825" stroke="#FAFAFA" stroke-width="0.229171"/>
<path d="M41.0584 69.4356C41.4273 69.4352 41.7809 69.2885 42.0418 69.0276C42.3026 68.7668 42.4493 68.4131 42.4498 68.0443V67.5628C41.5296 67.7361 40.5846 67.7294 39.667 67.543V68.0443C39.6674 68.4131 39.8142 68.7668 40.075 69.0276C40.3358 69.2885 40.6895 69.4352 41.0584 69.4356Z" fill="#FAFAFA"/>
<path d="M46.7583 72.1899L45.6173 69.7916C45.4022 69.3427 45.023 68.9934 44.558 68.8156L43.6873 68.4837C43.3428 68.3819 43.0913 67.9771 42.8893 67.7012V67.9786C42.8975 68.2344 42.8523 68.4891 42.7566 68.7265C42.6609 68.9639 42.5167 69.1788 42.3333 69.3573C42.1499 69.5359 41.9313 69.6743 41.6914 69.7636C41.4515 69.853 41.1957 69.8913 40.9402 69.8763C40.6846 69.8612 40.435 69.793 40.2073 69.6761C39.9796 69.5592 39.7788 69.3961 39.6177 69.1972C39.4565 68.9983 39.3386 68.768 39.2714 68.521C39.2043 68.274 39.1894 68.0157 39.2276 67.7626C39.077 68.0521 38.8308 68.2805 38.5308 68.4088L37.7152 68.7013C37.2471 68.8669 36.8611 69.2071 36.6381 69.6508L35.3586 72.1899C35.3408 72.2284 35.3389 72.2723 35.3533 72.3122C35.3677 72.3521 35.3973 72.3847 35.4355 72.4029L37.1398 73.1779C37.1718 73.1925 37.2069 73.1992 37.242 73.1975C37.2772 73.1957 37.3114 73.1856 37.3418 73.1679C37.3722 73.1501 37.3979 73.1254 37.4167 73.0957C37.4356 73.066 37.447 73.0321 37.4501 72.9971L37.5127 72.2827C37.5193 72.2254 37.5479 72.1729 37.5926 72.1364C37.6372 72.1 37.6944 72.0823 37.7518 72.0874C37.8093 72.0924 37.8625 72.1197 37.9002 72.1634C37.9378 72.2071 37.9569 72.2637 37.9534 72.3213L37.4227 78.3534C37.4225 78.3963 37.4311 78.4387 37.4479 78.4781C37.4647 78.5175 37.4895 78.553 37.5206 78.5825C37.5517 78.6119 37.5885 78.6347 37.6287 78.6494C37.669 78.664 37.7118 78.6703 37.7546 78.6678H44.3798C44.4228 78.6703 44.4658 78.664 44.5062 78.6492C44.5466 78.6344 44.5836 78.6114 44.6147 78.5817C44.6458 78.552 44.6705 78.5162 44.6872 78.4766C44.7039 78.4369 44.7122 78.3942 44.7117 78.3512C44.6178 77.3445 44.2292 73.2394 44.1431 72.3225C44.1389 72.2652 44.1574 72.2084 44.1946 72.1645C44.2318 72.1206 44.2846 72.093 44.3419 72.0876C44.3992 72.0822 44.4563 72.0995 44.501 72.1357C44.5457 72.1719 44.5745 72.2242 44.5811 72.2813L44.6478 72.9883C44.6511 73.0231 44.6626 73.0565 44.6814 73.0859C44.7002 73.1153 44.7257 73.1398 44.7559 73.1574C44.786 73.175 44.8199 73.1852 44.8547 73.1871C44.8896 73.189 44.9244 73.1826 44.9562 73.1683L46.6813 72.3987C46.719 72.3809 46.7482 72.349 46.7626 72.3099C46.777 72.2708 46.7754 72.2278 46.7583 72.1899ZM40.6406 76.4167C40.6389 76.4738 40.615 76.528 40.574 76.5678C40.533 76.6076 40.4781 76.6298 40.4209 76.6298C40.3638 76.6298 40.3089 76.6076 40.2679 76.5678C40.2268 76.528 40.2029 76.4738 40.2012 76.4167V74.2011L39.9879 74.333C39.9384 74.3623 39.8794 74.3709 39.8235 74.3572C39.7676 74.3434 39.7194 74.3082 39.6892 74.2593C39.659 74.2103 39.6492 74.1515 39.6619 74.0954C39.6747 74.0392 39.7089 73.9904 39.7573 73.9592L40.3045 73.6184C40.338 73.5985 40.3761 73.5877 40.415 73.5872C40.4539 73.5866 40.4923 73.5963 40.5264 73.6152C40.5604 73.6341 40.5889 73.6616 40.609 73.695C40.6291 73.7284 40.6401 73.7664 40.6408 73.8054L40.6406 76.4167ZM42.2212 76.4167C42.2212 76.475 42.1981 76.5309 42.1568 76.5721C42.1156 76.6133 42.0597 76.6365 42.0014 76.6365C41.9431 76.6365 41.8872 76.6133 41.846 76.5721C41.8047 76.5309 41.7816 76.475 41.7816 76.4167V74.2011L41.5685 74.333C41.5189 74.3636 41.4592 74.3732 41.4026 74.3598C41.3459 74.3465 41.2968 74.3111 41.2662 74.2615C41.2356 74.212 41.2259 74.1523 41.2393 74.0956C41.2527 74.0389 41.2881 73.9899 41.3377 73.9592L41.8849 73.6184C41.9183 73.5985 41.9565 73.5877 41.9954 73.5872C42.0343 73.5866 42.0727 73.5963 42.1068 73.6152C42.1408 73.6341 42.1693 73.6616 42.1894 73.695C42.2095 73.7284 42.2204 73.7664 42.2212 73.8054V76.4167Z" fill="#FAFAFA"/>
<path d="M40.6406 76.4167C40.6389 76.4738 40.615 76.528 40.574 76.5678C40.533 76.6076 40.4781 76.6298 40.4209 76.6298C40.3638 76.6298 40.3089 76.6076 40.2679 76.5678C40.2268 76.528 40.2029 76.4738 40.2012 76.4167V74.2011L39.9879 74.333C39.9384 74.3623 39.8794 74.3709 39.8235 74.3572C39.7676 74.3434 39.7194 74.3082 39.6892 74.2593C39.659 74.2103 39.6492 74.1515 39.6619 74.0954C39.6747 74.0392 39.7089 73.9904 39.7573 73.9592L40.3045 73.6184C40.338 73.5985 40.3761 73.5877 40.415 73.5872C40.4539 73.5866 40.4923 73.5963 40.5264 73.6152C40.5604 73.6341 40.5889 73.6616 40.609 73.695C40.6291 73.7284 40.6401 73.7664 40.6408 73.8054L40.6406 76.4167Z" fill="#FAFAFA"/>
<path d="M42.2212 76.4167C42.2212 76.475 42.1981 76.5309 42.1568 76.5721C42.1156 76.6133 42.0597 76.6365 42.0014 76.6365C41.9431 76.6365 41.8872 76.6133 41.846 76.5721C41.8047 76.5309 41.7816 76.475 41.7816 76.4167V74.2011L41.5685 74.333C41.5189 74.3636 41.4592 74.3732 41.4026 74.3598C41.3459 74.3465 41.2968 74.3111 41.2662 74.2615C41.2356 74.212 41.2259 74.1523 41.2393 74.0956C41.2527 74.0389 41.2881 73.9899 41.3377 73.9592L41.8849 73.6184C41.9183 73.5985 41.9565 73.5877 41.9954 73.5872C42.0343 73.5866 42.0727 73.5963 42.1068 73.6152C42.1408 73.6341 42.1693 73.6616 42.1894 73.695C42.2095 73.7284 42.2204 73.7664 42.2212 73.8054V76.4167Z" fill="#FAFAFA"/>
<path d="M40.0273 73.8965H42.3191" stroke="#191919" stroke-width="0.343756" stroke-linecap="round" stroke-linejoin="round"/>
<path d="M41.1733 75.0437V72.752" stroke="#191919" stroke-width="0.343756" stroke-linecap="round" stroke-linejoin="round"/>
<path d="M10.0789 48.8673C10.4478 48.8668 10.8014 48.7201 11.0623 48.4593C11.3231 48.1984 11.4698 47.8448 11.4703 47.4759V46.9944C10.5501 47.1677 9.60509 47.161 8.6875 46.9746V47.4759C8.68793 47.8448 8.83466 48.1984 9.0955 48.4593C9.35635 48.7201 9.71 48.8668 10.0789 48.8673Z" fill="#FAFAFA"/>
<path d="M15.7788 51.6215L14.6378 49.2233C14.4227 48.7743 14.0435 48.425 13.5785 48.2472L12.7078 47.9154C12.3633 47.8135 12.1118 47.4088 11.9098 47.1328V47.4102C11.918 47.666 11.8728 47.9208 11.7771 48.1582C11.6814 48.3956 11.5372 48.6104 11.3538 48.789C11.1704 48.9675 10.9518 49.1059 10.7119 49.1953C10.4721 49.2846 10.2162 49.323 9.96066 49.3079C9.70513 49.2928 9.45555 49.2247 9.22784 49.1077C9.00014 48.9908 8.7993 48.8277 8.63816 48.6288C8.47702 48.4299 8.35911 48.1997 8.29195 47.9526C8.22479 47.7056 8.20987 47.4473 8.24812 47.1942C8.09756 47.4837 7.85131 47.7121 7.5513 47.8404L6.7357 48.1329C6.26757 48.2985 5.88162 48.6388 5.65863 49.0824L4.3791 51.6215C4.36133 51.66 4.35944 51.7039 4.37384 51.7438C4.38825 51.7837 4.41778 51.8163 4.45605 51.8346L6.16033 52.6096C6.19234 52.6242 6.22739 52.6309 6.26253 52.6291C6.29767 52.6274 6.33188 52.6172 6.36228 52.5995C6.39268 52.5818 6.41838 52.557 6.43722 52.5273C6.45607 52.4976 6.4675 52.4638 6.47057 52.4287L6.53323 51.7144C6.53976 51.6571 6.56841 51.6046 6.61308 51.5681C6.65774 51.5316 6.71489 51.514 6.77235 51.519C6.8298 51.524 6.88303 51.5513 6.92067 51.595C6.95832 51.6387 6.97741 51.6954 6.97389 51.7529L6.44322 57.7851C6.443 57.8279 6.45157 57.8703 6.46841 57.9097C6.48524 57.9491 6.50997 57.9847 6.54107 58.0141C6.57218 58.0436 6.60899 58.0663 6.64924 58.081C6.68949 58.0957 6.73233 58.1019 6.77509 58.0994H13.4004C13.4433 58.1019 13.4863 58.0956 13.5267 58.0808C13.5671 58.066 13.6041 58.0431 13.6352 58.0133C13.6663 57.9836 13.691 57.9479 13.7077 57.9082C13.7244 57.8685 13.7328 57.8259 13.7322 57.7828C13.6383 56.7762 13.2497 52.671 13.1636 51.7542C13.1595 51.6968 13.1779 51.6401 13.2151 51.5962C13.2523 51.5523 13.3052 51.5247 13.3624 51.5193C13.4197 51.5139 13.4768 51.5311 13.5215 51.5673C13.5662 51.6035 13.595 51.6558 13.6016 51.7129L13.6683 52.42C13.6716 52.4547 13.6831 52.4882 13.7019 52.5176C13.7207 52.547 13.7462 52.5715 13.7764 52.5891C13.8065 52.6067 13.8404 52.6168 13.8752 52.6187C13.9101 52.6206 13.9449 52.6142 13.9767 52.6L15.7018 51.8303C15.7395 51.8125 15.7687 51.7806 15.7831 51.7415C15.7975 51.7024 15.7959 51.6595 15.7788 51.6215ZM9.66114 55.8483C9.6594 55.9054 9.63549 55.9596 9.59447 55.9994C9.55346 56.0392 9.49856 56.0614 9.44142 56.0614C9.38428 56.0614 9.32939 56.0392 9.28837 55.9994C9.24736 55.9596 9.22344 55.9054 9.2217 55.8483V53.6328L9.00841 53.7646C8.95889 53.7939 8.89986 53.8026 8.84401 53.7888C8.78815 53.775 8.73994 53.7399 8.70972 53.6909C8.67951 53.642 8.66971 53.5831 8.68244 53.527C8.69516 53.4709 8.72939 53.422 8.77777 53.3909L9.32498 53.05C9.35846 53.0301 9.39657 53.0194 9.43551 53.0188C9.47445 53.0183 9.51286 53.0279 9.54689 53.0468C9.58093 53.0658 9.60941 53.0933 9.6295 53.1266C9.64958 53.16 9.66056 53.1981 9.66135 53.237L9.66114 55.8483ZM11.2417 55.8483C11.2417 55.9066 11.2186 55.9625 11.1773 56.0038C11.1361 56.045 11.0802 56.0681 11.0219 56.0681C10.9636 56.0681 10.9077 56.045 10.8665 56.0038C10.8253 55.9625 10.8021 55.9066 10.8021 55.8483V53.6328L10.589 53.7646C10.5394 53.7952 10.4798 53.8049 10.4231 53.7915C10.3664 53.7781 10.3173 53.7427 10.2867 53.6932C10.2561 53.6436 10.2464 53.5839 10.2598 53.5272C10.2732 53.4705 10.3086 53.4215 10.3582 53.3909L10.9054 53.05C10.9388 53.0301 10.977 53.0194 11.0159 53.0188C11.0548 53.0183 11.0932 53.0279 11.1273 53.0468C11.1613 53.0658 11.1898 53.0933 11.2099 53.1266C11.23 53.16 11.2409 53.1981 11.2417 53.237V55.8483Z" fill="#FAFAFA"/>
<path d="M9.66114 55.8483C9.6594 55.9054 9.63549 55.9596 9.59447 55.9994C9.55346 56.0392 9.49856 56.0614 9.44142 56.0614C9.38428 56.0614 9.32939 56.0392 9.28837 55.9994C9.24736 55.9596 9.22344 55.9054 9.2217 55.8483V53.6328L9.00841 53.7646C8.95889 53.7939 8.89986 53.8026 8.84401 53.7888C8.78815 53.775 8.73994 53.7399 8.70972 53.6909C8.67951 53.642 8.66971 53.5831 8.68244 53.527C8.69516 53.4709 8.72939 53.422 8.77777 53.3909L9.32498 53.05C9.35846 53.0301 9.39657 53.0194 9.43551 53.0188C9.47445 53.0183 9.51286 53.0279 9.54689 53.0468C9.58093 53.0658 9.60941 53.0933 9.6295 53.1266C9.64958 53.16 9.66056 53.1981 9.66135 53.237L9.66114 55.8483Z" fill="#FAFAFA"/>
<path d="M11.2417 55.8483C11.2417 55.9066 11.2186 55.9625 11.1773 56.0038C11.1361 56.045 11.0802 56.0681 11.0219 56.0681C10.9636 56.0681 10.9077 56.045 10.8665 56.0038C10.8253 55.9625 10.8021 55.9066 10.8021 55.8483V53.6328L10.589 53.7646C10.5394 53.7952 10.4798 53.8049 10.4231 53.7915C10.3664 53.7781 10.3173 53.7427 10.2867 53.6932C10.2561 53.6436 10.2464 53.5839 10.2598 53.5272C10.2732 53.4705 10.3086 53.4215 10.3582 53.3909L10.9054 53.05C10.9388 53.0301 10.977 53.0194 11.0159 53.0188C11.0548 53.0183 11.0932 53.0279 11.1273 53.0468C11.1613 53.0658 11.1898 53.0933 11.2099 53.1266C11.23 53.16 11.2409 53.1981 11.2417 53.237V55.8483Z" fill="#FAFAFA"/>
<path d="M9.04785 53.332H11.3396" stroke="#191919" stroke-width="0.343756" stroke-linecap="round" stroke-linejoin="round"/>
<path d="M10.1938 54.4792V52.1875" stroke="#191919" stroke-width="0.343756" stroke-linecap="round" stroke-linejoin="round"/>
<path d="M70.1604 48.8673C70.5293 48.8668 70.883 48.7201 71.1438 48.4593C71.4047 48.1984 71.5514 47.8448 71.5518 47.4759V46.9944C70.6317 47.1677 69.6866 47.161 68.769 46.9746V47.4759C68.7695 47.8448 68.9162 48.1984 69.177 48.4593C69.4379 48.7201 69.7915 48.8668 70.1604 48.8673Z" fill="#FAFAFA"/>
<path d="M75.8603 51.6215L74.7194 49.2233C74.5042 48.7743 74.1251 48.425 73.6601 48.2472L72.7894 47.9154C72.4448 47.8135 72.1934 47.4088 71.9913 47.1328V47.4102C71.9996 47.666 71.9544 47.9208 71.8586 48.1582C71.7629 48.3956 71.6188 48.6104 71.4354 48.789C71.252 48.9675 71.0333 49.1059 70.7935 49.1953C70.5536 49.2846 70.2977 49.323 70.0422 49.3079C69.7867 49.2928 69.5371 49.2247 69.3094 49.1077C69.0817 48.9908 68.8808 48.8277 68.7197 48.6288C68.5586 48.4299 68.4407 48.1997 68.3735 47.9526C68.3063 47.7056 68.2914 47.4473 68.3297 47.1942C68.1791 47.4837 67.9329 47.7121 67.6328 47.8404L66.8172 48.1329C66.3491 48.2985 65.9632 48.6388 65.7402 49.0824L64.4606 51.6215C64.4429 51.66 64.441 51.7039 64.4554 51.7438C64.4698 51.7837 64.4993 51.8163 64.5376 51.8346L66.2419 52.6096C66.2739 52.6242 66.3089 52.6309 66.3441 52.6291C66.3792 52.6274 66.4134 52.6172 66.4438 52.5995C66.4742 52.5818 66.4999 52.557 66.5188 52.5273C66.5376 52.4976 66.549 52.4638 66.5521 52.4287L66.6148 51.7144C66.6213 51.6571 66.65 51.6046 66.6946 51.5681C66.7393 51.5316 66.7964 51.514 66.8539 51.519C66.9113 51.524 66.9646 51.5513 67.0022 51.595C67.0399 51.6387 67.059 51.6954 67.0554 51.7529L66.5248 57.7851C66.5245 57.8279 66.5331 57.8703 66.5499 57.9097C66.5668 57.9491 66.5915 57.9847 66.6226 58.0141C66.6537 58.0436 66.6905 58.0663 66.7308 58.081C66.771 58.0957 66.8139 58.1019 66.8566 58.0994H73.4819C73.5248 58.1019 73.5679 58.0956 73.6083 58.0808C73.6487 58.066 73.6856 58.0431 73.7167 58.0133C73.7479 57.9836 73.7726 57.9479 73.7893 57.9082C73.8059 57.8685 73.8143 57.8259 73.8138 57.7828C73.7199 56.7762 73.3313 52.671 73.2451 51.7542C73.241 51.6968 73.2595 51.6401 73.2967 51.5962C73.3338 51.5523 73.3867 51.5247 73.444 51.5193C73.5012 51.5139 73.5583 51.5311 73.603 51.5673C73.6478 51.6035 73.6765 51.6558 73.6831 51.7129L73.7499 52.42C73.7532 52.4547 73.7647 52.4882 73.7835 52.5176C73.8023 52.547 73.8278 52.5715 73.8579 52.5891C73.888 52.6067 73.9219 52.6168 73.9568 52.6187C73.9916 52.6206 74.0264 52.6142 74.0583 52.6L75.7834 51.8303C75.8211 51.8125 75.8503 51.7806 75.8646 51.7415C75.879 51.7024 75.8775 51.6595 75.8603 51.6215ZM69.7427 55.8483C69.7409 55.9054 69.717 55.9596 69.676 55.9994C69.635 56.0392 69.5801 56.0614 69.523 56.0614C69.4658 56.0614 69.4109 56.0392 69.3699 55.9994C69.3289 55.9596 69.305 55.9054 69.3032 55.8483V53.6328L69.09 53.7646C69.0404 53.7939 68.9814 53.8026 68.9256 53.7888C68.8697 53.775 68.8215 53.7399 68.7913 53.6909C68.7611 53.642 68.7513 53.5831 68.764 53.527C68.7767 53.4709 68.8109 53.422 68.8593 53.3909L69.4065 53.05C69.44 53.0301 69.4781 53.0194 69.5171 53.0188C69.556 53.0183 69.5944 53.0279 69.6284 53.0468C69.6625 53.0658 69.691 53.0933 69.711 53.1266C69.7311 53.16 69.7421 53.1981 69.7429 53.237L69.7427 55.8483ZM71.3233 55.8483C71.3233 55.9066 71.3001 55.9625 71.2589 56.0038C71.2177 56.045 71.1618 56.0681 71.1035 56.0681C71.0452 56.0681 70.9892 56.045 70.948 56.0038C70.9068 55.9625 70.8836 55.9066 70.8836 55.8483V53.6328L70.6705 53.7646C70.621 53.7952 70.5613 53.8049 70.5046 53.7915C70.4479 53.7781 70.3989 53.7427 70.3683 53.6932C70.3377 53.6436 70.328 53.5839 70.3414 53.5272C70.3548 53.4705 70.3901 53.4215 70.4397 53.3909L70.9869 53.05C71.0204 53.0301 71.0585 53.0194 71.0974 53.0188C71.1364 53.0183 71.1748 53.0279 71.2088 53.0468C71.2429 53.0658 71.2713 53.0933 71.2914 53.1266C71.3115 53.16 71.3225 53.1981 71.3233 53.237V55.8483Z" fill="#FAFAFA"/>
<path d="M69.7427 55.8483C69.7409 55.9054 69.717 55.9596 69.676 55.9994C69.635 56.0392 69.5801 56.0614 69.523 56.0614C69.4658 56.0614 69.4109 56.0392 69.3699 55.9994C69.3289 55.9596 69.305 55.9054 69.3032 55.8483V53.6328L69.09 53.7646C69.0404 53.7939 68.9814 53.8026 68.9256 53.7888C68.8697 53.775 68.8215 53.7399 68.7913 53.6909C68.7611 53.642 68.7513 53.5831 68.764 53.527C68.7767 53.4709 68.8109 53.422 68.8593 53.3909L69.4065 53.05C69.44 53.0301 69.4781 53.0194 69.5171 53.0188C69.556 53.0183 69.5944 53.0279 69.6284 53.0468C69.6625 53.0658 69.691 53.0933 69.711 53.1266C69.7311 53.16 69.7421 53.1981 69.7429 53.237L69.7427 55.8483Z" fill="#FAFAFA"/>
<path d="M71.3233 55.8483C71.3233 55.9066 71.3001 55.9625 71.2589 56.0038C71.2177 56.045 71.1618 56.0681 71.1035 56.0681C71.0452 56.0681 70.9892 56.045 70.948 56.0038C70.9068 55.9625 70.8836 55.9066 70.8836 55.8483V53.6328L70.6705 53.7646C70.621 53.7952 70.5613 53.8049 70.5046 53.7915C70.4479 53.7781 70.3989 53.7427 70.3683 53.6932C70.3377 53.6436 70.328 53.5839 70.3414 53.5272C70.3548 53.4705 70.3901 53.4215 70.4397 53.3909L70.9869 53.05C71.0204 53.0301 71.0585 53.0194 71.0974 53.0188C71.1364 53.0183 71.1748 53.0279 71.2088 53.0468C71.2429 53.0658 71.2713 53.0933 71.2914 53.1266C71.3115 53.16 71.3225 53.1981 71.3233 53.237V55.8483Z" fill="#FAFAFA"/>
<path d="M69.1294 53.332H71.4211" stroke="#191919" stroke-width="0.343756" stroke-linecap="round" stroke-linejoin="round"/>
<path d="M70.2754 54.4792V52.1875" stroke="#191919" stroke-width="0.343756" stroke-linecap="round" stroke-linejoin="round"/>
<path d="M51.1604 50.8673C51.5293 50.8668 51.883 50.7201 52.1438 50.4593C52.4047 50.1984 52.5514 49.8448 52.5518 49.4759V48.9944C51.6317 49.1677 50.6866 49.161 49.769 48.9746V49.4759C49.7695 49.8448 49.9162 50.1984 50.177 50.4593C50.4379 50.7201 50.7915 50.8668 51.1604 50.8673Z" fill="#FAFAFA"/>
<path d="M56.8603 53.6215L55.7194 51.2233C55.5042 50.7743 55.1251 50.425 54.6601 50.2472L53.7894 49.9154C53.4448 49.8135 53.1934 49.4088 52.9913 49.1328V49.4102C52.9996 49.666 52.9544 49.9208 52.8586 50.1582C52.7629 50.3956 52.6188 50.6104 52.4354 50.789C52.252 50.9675 52.0333 51.1059 51.7935 51.1953C51.5536 51.2846 51.2977 51.323 51.0422 51.3079C50.7867 51.2928 50.5371 51.2247 50.3094 51.1077C50.0817 50.9908 49.8808 50.8277 49.7197 50.6288C49.5586 50.4299 49.4407 50.1997 49.3735 49.9526C49.3063 49.7056 49.2914 49.4473 49.3297 49.1942C49.1791 49.4837 48.9329 49.7121 48.6328 49.8404L47.8172 50.1329C47.3491 50.2985 46.9632 50.6388 46.7402 51.0824L45.4606 53.6215C45.4429 53.66 45.441 53.7039 45.4554 53.7438C45.4698 53.7837 45.4993 53.8163 45.5376 53.8346L47.2419 54.6096C47.2739 54.6242 47.3089 54.6309 47.3441 54.6291C47.3792 54.6274 47.4134 54.6172 47.4438 54.5995C47.4742 54.5818 47.4999 54.557 47.5188 54.5273C47.5376 54.4976 47.549 54.4638 47.5521 54.4287L47.6148 53.7144C47.6213 53.6571 47.65 53.6046 47.6946 53.5681C47.7393 53.5316 47.7964 53.514 47.8539 53.519C47.9113 53.524 47.9646 53.5513 48.0022 53.595C48.0399 53.6387 48.059 53.6954 48.0554 53.7529L47.5248 59.7851C47.5245 59.8279 47.5331 59.8703 47.5499 59.9097C47.5668 59.9491 47.5915 59.9847 47.6226 60.0141C47.6537 60.0436 47.6905 60.0663 47.7308 60.081C47.771 60.0957 47.8139 60.1019 47.8566 60.0994H54.4819C54.5248 60.1019 54.5679 60.0956 54.6083 60.0808C54.6487 60.066 54.6856 60.0431 54.7167 60.0133C54.7479 59.9836 54.7726 59.9479 54.7893 59.9082C54.8059 59.8685 54.8143 59.8259 54.8138 59.7828C54.7199 58.7762 54.3313 54.671 54.2451 53.7542C54.241 53.6968 54.2595 53.6401 54.2967 53.5962C54.3338 53.5523 54.3867 53.5247 54.444 53.5193C54.5012 53.5139 54.5583 53.5311 54.603 53.5673C54.6478 53.6035 54.6765 53.6558 54.6831 53.7129L54.7499 54.42C54.7532 54.4547 54.7647 54.4882 54.7835 54.5176C54.8023 54.547 54.8278 54.5715 54.8579 54.5891C54.888 54.6067 54.9219 54.6168 54.9568 54.6187C54.9916 54.6206 55.0264 54.6142 55.0583 54.6L56.7834 53.8303C56.8211 53.8125 56.8503 53.7806 56.8646 53.7415C56.879 53.7024 56.8775 53.6595 56.8603 53.6215ZM50.7427 57.8483C50.7409 57.9054 50.717 57.9596 50.676 57.9994C50.635 58.0392 50.5801 58.0614 50.523 58.0614C50.4658 58.0614 50.4109 58.0392 50.3699 57.9994C50.3289 57.9596 50.305 57.9054 50.3032 57.8483V55.6328L50.09 55.7646C50.0404 55.7939 49.9814 55.8026 49.9256 55.7888C49.8697 55.775 49.8215 55.7399 49.7913 55.6909C49.7611 55.642 49.7513 55.5831 49.764 55.527C49.7767 55.4709 49.8109 55.422 49.8593 55.3909L50.4065 55.05C50.44 55.0301 50.4781 55.0194 50.5171 55.0188C50.556 55.0183 50.5944 55.0279 50.6284 55.0468C50.6625 55.0658 50.691 55.0933 50.711 55.1266C50.7311 55.16 50.7421 55.1981 50.7429 55.237L50.7427 57.8483ZM52.3233 57.8483C52.3233 57.9066 52.3001 57.9625 52.2589 58.0038C52.2177 58.045 52.1618 58.0681 52.1035 58.0681C52.0452 58.0681 51.9892 58.045 51.948 58.0038C51.9068 57.9625 51.8836 57.9066 51.8836 57.8483V55.6328L51.6705 55.7646C51.621 55.7952 51.5613 55.8049 51.5046 55.7915C51.4479 55.7781 51.3989 55.7427 51.3683 55.6932C51.3377 55.6436 51.328 55.5839 51.3414 55.5272C51.3548 55.4705 51.3901 55.4215 51.4397 55.3909L51.9869 55.05C52.0204 55.0301 52.0585 55.0194 52.0974 55.0188C52.1364 55.0183 52.1748 55.0279 52.2088 55.0468C52.2429 55.0658 52.2713 55.0933 52.2914 55.1266C52.3115 55.16 52.3225 55.1981 52.3233 55.237V57.8483Z" fill="#FAFAFA"/>
<path d="M50.7427 57.8483C50.7409 57.9054 50.717 57.9596 50.676 57.9994C50.635 58.0392 50.5801 58.0614 50.523 58.0614C50.4658 58.0614 50.4109 58.0392 50.3699 57.9994C50.3289 57.9596 50.305 57.9054 50.3032 57.8483V55.6328L50.09 55.7646C50.0404 55.7939 49.9814 55.8026 49.9256 55.7888C49.8697 55.775 49.8215 55.7399 49.7913 55.6909C49.7611 55.642 49.7513 55.5831 49.764 55.527C49.7767 55.4709 49.8109 55.422 49.8593 55.3909L50.4065 55.05C50.44 55.0301 50.4781 55.0194 50.5171 55.0188C50.556 55.0183 50.5944 55.0279 50.6284 55.0468C50.6625 55.0658 50.691 55.0933 50.711 55.1266C50.7311 55.16 50.7421 55.1981 50.7429 55.237L50.7427 57.8483Z" fill="#FAFAFA"/>
<path d="M52.3233 57.8483C52.3233 57.9066 52.3001 57.9625 52.2589 58.0038C52.2177 58.045 52.1618 58.0681 52.1035 58.0681C52.0452 58.0681 51.9892 58.045 51.948 58.0038C51.9068 57.9625 51.8836 57.9066 51.8836 57.8483V55.6328L51.6705 55.7646C51.621 55.7952 51.5613 55.8049 51.5046 55.7915C51.4479 55.7781 51.3989 55.7427 51.3683 55.6932C51.3377 55.6436 51.328 55.5839 51.3414 55.5272C51.3548 55.4705 51.3901 55.4215 51.4397 55.3909L51.9869 55.05C52.0204 55.0301 52.0585 55.0194 52.0974 55.0188C52.1364 55.0183 52.1748 55.0279 52.2088 55.0468C52.2429 55.0658 52.2713 55.0933 52.2914 55.1266C52.3115 55.16 52.3225 55.1981 52.3233 55.237V57.8483Z" fill="#FAFAFA"/>
<path d="M50.1294 55.332H52.4211" stroke="#191919" stroke-width="0.343756" stroke-linecap="round" stroke-linejoin="round"/>
<path d="M51.2754 56.4792V54.1875" stroke="#191919" stroke-width="0.343756" stroke-linecap="round" stroke-linejoin="round"/>
<path d="M31.1604 50.8673C31.5293 50.8668 31.883 50.7201 32.1438 50.4593C32.4047 50.1984 32.5514 49.8448 32.5518 49.4759V48.9944C31.6317 49.1677 30.6866 49.161 29.769 48.9746V49.4759C29.7695 49.8448 29.9162 50.1984 30.177 50.4593C30.4379 50.7201 30.7915 50.8668 31.1604 50.8673Z" fill="#FAFAFA"/>
<path d="M36.8603 53.6215L35.7194 51.2233C35.5042 50.7743 35.1251 50.425 34.6601 50.2472L33.7894 49.9154C33.4448 49.8135 33.1934 49.4088 32.9913 49.1328V49.4102C32.9996 49.666 32.9544 49.9208 32.8586 50.1582C32.7629 50.3956 32.6188 50.6104 32.4354 50.789C32.252 50.9675 32.0333 51.1059 31.7935 51.1953C31.5536 51.2846 31.2977 51.323 31.0422 51.3079C30.7867 51.2928 30.5371 51.2247 30.3094 51.1077C30.0817 50.9908 29.8808 50.8277 29.7197 50.6288C29.5586 50.4299 29.4407 50.1997 29.3735 49.9526C29.3063 49.7056 29.2914 49.4473 29.3297 49.1942C29.1791 49.4837 28.9329 49.7121 28.6328 49.8404L27.8172 50.1329C27.3491 50.2985 26.9632 50.6388 26.7402 51.0824L25.4606 53.6215C25.4429 53.66 25.441 53.7039 25.4554 53.7438C25.4698 53.7837 25.4993 53.8163 25.5376 53.8346L27.2419 54.6096C27.2739 54.6242 27.3089 54.6309 27.3441 54.6291C27.3792 54.6274 27.4134 54.6172 27.4438 54.5995C27.4742 54.5818 27.4999 54.557 27.5188 54.5273C27.5376 54.4976 27.549 54.4638 27.5521 54.4287L27.6148 53.7144C27.6213 53.6571 27.65 53.6046 27.6946 53.5681C27.7393 53.5316 27.7964 53.514 27.8539 53.519C27.9113 53.524 27.9646 53.5513 28.0022 53.595C28.0399 53.6387 28.059 53.6954 28.0554 53.7529L27.5248 59.7851C27.5245 59.8279 27.5331 59.8703 27.5499 59.9097C27.5668 59.9491 27.5915 59.9847 27.6226 60.0141C27.6537 60.0436 27.6905 60.0663 27.7308 60.081C27.771 60.0957 27.8139 60.1019 27.8566 60.0994H34.4819C34.5248 60.1019 34.5679 60.0956 34.6083 60.0808C34.6487 60.066 34.6856 60.0431 34.7167 60.0133C34.7479 59.9836 34.7726 59.9479 34.7893 59.9082C34.8059 59.8685 34.8143 59.8259 34.8138 59.7828C34.7199 58.7762 34.3313 54.671 34.2451 53.7542C34.241 53.6968 34.2595 53.6401 34.2967 53.5962C34.3338 53.5523 34.3867 53.5247 34.444 53.5193C34.5012 53.5139 34.5583 53.5311 34.603 53.5673C34.6478 53.6035 34.6765 53.6558 34.6831 53.7129L34.7499 54.42C34.7532 54.4547 34.7647 54.4882 34.7835 54.5176C34.8023 54.547 34.8278 54.5715 34.8579 54.5891C34.888 54.6067 34.9219 54.6168 34.9568 54.6187C34.9916 54.6206 35.0264 54.6142 35.0583 54.6L36.7834 53.8303C36.8211 53.8125 36.8503 53.7806 36.8646 53.7415C36.879 53.7024 36.8775 53.6595 36.8603 53.6215ZM30.7427 57.8483C30.7409 57.9054 30.717 57.9596 30.676 57.9994C30.635 58.0392 30.5801 58.0614 30.523 58.0614C30.4658 58.0614 30.4109 58.0392 30.3699 57.9994C30.3289 57.9596 30.305 57.9054 30.3032 57.8483V55.6328L30.09 55.7646C30.0404 55.7939 29.9814 55.8026 29.9256 55.7888C29.8697 55.775 29.8215 55.7399 29.7913 55.6909C29.7611 55.642 29.7513 55.5831 29.764 55.527C29.7767 55.4709 29.8109 55.422 29.8593 55.3909L30.4065 55.05C30.44 55.0301 30.4781 55.0194 30.5171 55.0188C30.556 55.0183 30.5944 55.0279 30.6284 55.0468C30.6625 55.0658 30.691 55.0933 30.711 55.1266C30.7311 55.16 30.7421 55.1981 30.7429 55.237L30.7427 57.8483ZM32.3233 57.8483C32.3233 57.9066 32.3001 57.9625 32.2589 58.0038C32.2177 58.045 32.1618 58.0681 32.1035 58.0681C32.0452 58.0681 31.9892 58.045 31.948 58.0038C31.9068 57.9625 31.8836 57.9066 31.8836 57.8483V55.6328L31.6705 55.7646C31.621 55.7952 31.5613 55.8049 31.5046 55.7915C31.4479 55.7781 31.3989 55.7427 31.3683 55.6932C31.3377 55.6436 31.328 55.5839 31.3414 55.5272C31.3548 55.4705 31.3901 55.4215 31.4397 55.3909L31.9869 55.05C32.0204 55.0301 32.0585 55.0194 32.0974 55.0188C32.1364 55.0183 32.1748 55.0279 32.2088 55.0468C32.2429 55.0658 32.2713 55.0933 32.2914 55.1266C32.3115 55.16 32.3225 55.1981 32.3233 55.237V57.8483Z" fill="#FAFAFA"/>
<path d="M30.7427 57.8483C30.7409 57.9054 30.717 57.9596 30.676 57.9994C30.635 58.0392 30.5801 58.0614 30.523 58.0614C30.4658 58.0614 30.4109 58.0392 30.3699 57.9994C30.3289 57.9596 30.305 57.9054 30.3032 57.8483V55.6328L30.09 55.7646C30.0404 55.7939 29.9814 55.8026 29.9256 55.7888C29.8697 55.775 29.8215 55.7399 29.7913 55.6909C29.7611 55.642 29.7513 55.5831 29.764 55.527C29.7767 55.4709 29.8109 55.422 29.8593 55.3909L30.4065 55.05C30.44 55.0301 30.4781 55.0194 30.5171 55.0188C30.556 55.0183 30.5944 55.0279 30.6284 55.0468C30.6625 55.0658 30.691 55.0933 30.711 55.1266C30.7311 55.16 30.7421 55.1981 30.7429 55.237L30.7427 57.8483Z" fill="#FAFAFA"/>
<path d="M32.3233 57.8483C32.3233 57.9066 32.3001 57.9625 32.2589 58.0038C32.2177 58.045 32.1618 58.0681 32.1035 58.0681C32.0452 58.0681 31.9892 58.045 31.948 58.0038C31.9068 57.9625 31.8836 57.9066 31.8836 57.8483V55.6328L31.6705 55.7646C31.621 55.7952 31.5613 55.8049 31.5046 55.7915C31.4479 55.7781 31.3989 55.7427 31.3683 55.6932C31.3377 55.6436 31.328 55.5839 31.3414 55.5272C31.3548 55.4705 31.3901 55.4215 31.4397 55.3909L31.9869 55.05C32.0204 55.0301 32.0585 55.0194 32.0974 55.0188C32.1364 55.0183 32.1748 55.0279 32.2088 55.0468C32.2429 55.0658 32.2713 55.0933 32.2914 55.1266C32.3115 55.16 32.3225 55.1981 32.3233 55.237V57.8483Z" fill="#FAFAFA"/>
<path d="M30.1294 55.332H32.4211" stroke="#191919" stroke-width="0.343756" stroke-linecap="round" stroke-linejoin="round"/>
<path d="M31.2754 56.4792V54.1875" stroke="#191919" stroke-width="0.343756" stroke-linecap="round" stroke-linejoin="round"/>
<path d="M29.1604 34.8673C29.5293 34.8668 29.883 34.7201 30.1438 34.4593C30.4047 34.1984 30.5514 33.8448 30.5518 33.4759V32.9944C29.6317 33.1677 28.6866 33.161 27.769 32.9746V33.4759C27.7695 33.8448 27.9162 34.1984 28.177 34.4593C28.4379 34.7201 28.7915 34.8668 29.1604 34.8673Z" fill="#FAFAFA"/>
<path d="M34.8603 37.6215L33.7194 35.2233C33.5042 34.7743 33.1251 34.425 32.6601 34.2472L31.7894 33.9154C31.4448 33.8135 31.1934 33.4088 30.9913 33.1328V33.4102C30.9996 33.666 30.9544 33.9208 30.8586 34.1582C30.7629 34.3956 30.6188 34.6104 30.4354 34.789C30.252 34.9675 30.0333 35.1059 29.7935 35.1953C29.5536 35.2846 29.2977 35.323 29.0422 35.3079C28.7867 35.2928 28.5371 35.2247 28.3094 35.1077C28.0817 34.9908 27.8808 34.8277 27.7197 34.6288C27.5586 34.4299 27.4407 34.1997 27.3735 33.9526C27.3063 33.7056 27.2914 33.4473 27.3297 33.1942C27.1791 33.4837 26.9329 33.7121 26.6328 33.8404L25.8172 34.1329C25.3491 34.2985 24.9632 34.6388 24.7402 35.0824L23.4606 37.6215C23.4429 37.66 23.441 37.7039 23.4554 37.7438C23.4698 37.7837 23.4993 37.8163 23.5376 37.8346L25.2419 38.6096C25.2739 38.6242 25.3089 38.6309 25.3441 38.6291C25.3792 38.6274 25.4134 38.6172 25.4438 38.5995C25.4742 38.5818 25.4999 38.557 25.5188 38.5273C25.5376 38.4976 25.549 38.4638 25.5521 38.4287L25.6148 37.7144C25.6213 37.6571 25.65 37.6046 25.6946 37.5681C25.7393 37.5316 25.7964 37.514 25.8539 37.519C25.9113 37.524 25.9646 37.5513 26.0022 37.595C26.0399 37.6387 26.059 37.6954 26.0554 37.7529L25.5248 43.7851C25.5245 43.8279 25.5331 43.8703 25.5499 43.9097C25.5668 43.9491 25.5915 43.9847 25.6226 44.0141C25.6537 44.0436 25.6905 44.0663 25.7308 44.081C25.771 44.0957 25.8139 44.1019 25.8566 44.0994H32.4819C32.5248 44.1019 32.5679 44.0956 32.6083 44.0808C32.6487 44.066 32.6856 44.0431 32.7167 44.0133C32.7479 43.9836 32.7726 43.9479 32.7893 43.9082C32.8059 43.8685 32.8143 43.8259 32.8138 43.7828C32.7199 42.7762 32.3313 38.671 32.2451 37.7542C32.241 37.6968 32.2595 37.6401 32.2967 37.5962C32.3338 37.5523 32.3867 37.5247 32.444 37.5193C32.5012 37.5139 32.5583 37.5311 32.603 37.5673C32.6478 37.6035 32.6765 37.6558 32.6831 37.7129L32.7499 38.42C32.7532 38.4547 32.7647 38.4882 32.7835 38.5176C32.8023 38.547 32.8278 38.5715 32.8579 38.5891C32.888 38.6067 32.9219 38.6168 32.9568 38.6187C32.9916 38.6206 33.0264 38.6142 33.0583 38.6L34.7834 37.8303C34.8211 37.8125 34.8503 37.7806 34.8646 37.7415C34.879 37.7024 34.8775 37.6595 34.8603 37.6215ZM28.7427 41.8483C28.7409 41.9054 28.717 41.9596 28.676 41.9994C28.635 42.0392 28.5801 42.0614 28.523 42.0614C28.4658 42.0614 28.4109 42.0392 28.3699 41.9994C28.3289 41.9596 28.305 41.9054 28.3032 41.8483V39.6328L28.09 39.7646C28.0404 39.7939 27.9814 39.8026 27.9256 39.7888C27.8697 39.775 27.8215 39.7399 27.7913 39.6909C27.7611 39.642 27.7513 39.5831 27.764 39.527C27.7767 39.4709 27.8109 39.422 27.8593 39.3909L28.4065 39.05C28.44 39.0301 28.4781 39.0194 28.5171 39.0188C28.556 39.0183 28.5944 39.0279 28.6284 39.0468C28.6625 39.0658 28.691 39.0933 28.711 39.1266C28.7311 39.16 28.7421 39.1981 28.7429 39.237L28.7427 41.8483ZM30.3233 41.8483C30.3233 41.9066 30.3001 41.9625 30.2589 42.0038C30.2177 42.045 30.1618 42.0681 30.1035 42.0681C30.0452 42.0681 29.9892 42.045 29.948 42.0038C29.9068 41.9625 29.8836 41.9066 29.8836 41.8483V39.6328L29.6705 39.7646C29.621 39.7952 29.5613 39.8049 29.5046 39.7915C29.4479 39.7781 29.3989 39.7427 29.3683 39.6932C29.3377 39.6436 29.328 39.5839 29.3414 39.5272C29.3548 39.4705 29.3901 39.4215 29.4397 39.3909L29.9869 39.05C30.0204 39.0301 30.0585 39.0194 30.0974 39.0188C30.1364 39.0183 30.1748 39.0279 30.2088 39.0468C30.2429 39.0658 30.2713 39.0933 30.2914 39.1266C30.3115 39.16 30.3225 39.1981 30.3233 39.237V41.8483Z" fill="#FAFAFA"/>
<path d="M28.7427 41.8483C28.7409 41.9054 28.717 41.9596 28.676 41.9994C28.635 42.0392 28.5801 42.0614 28.523 42.0614C28.4658 42.0614 28.4109 42.0392 28.3699 41.9994C28.3289 41.9596 28.305 41.9054 28.3032 41.8483V39.6328L28.09 39.7646C28.0404 39.7939 27.9814 39.8026 27.9256 39.7888C27.8697 39.775 27.8215 39.7399 27.7913 39.6909C27.7611 39.642 27.7513 39.5831 27.764 39.527C27.7767 39.4709 27.8109 39.422 27.8593 39.3909L28.4065 39.05C28.44 39.0301 28.4781 39.0194 28.5171 39.0188C28.556 39.0183 28.5944 39.0279 28.6284 39.0468C28.6625 39.0658 28.691 39.0933 28.711 39.1266C28.7311 39.16 28.7421 39.1981 28.7429 39.237L28.7427 41.8483Z" fill="#FAFAFA"/>
<path d="M30.3233 41.8483C30.3233 41.9066 30.3001 41.9625 30.2589 42.0038C30.2177 42.045 30.1618 42.0681 30.1035 42.0681C30.0452 42.0681 29.9892 42.045 29.948 42.0038C29.9068 41.9625 29.8836 41.9066 29.8836 41.8483V39.6328L29.6705 39.7646C29.621 39.7952 29.5613 39.8049 29.5046 39.7915C29.4479 39.7781 29.3989 39.7427 29.3683 39.6932C29.3377 39.6436 29.328 39.5839 29.3414 39.5272C29.3548 39.4705 29.3901 39.4215 29.4397 39.3909L29.9869 39.05C30.0204 39.0301 30.0585 39.0194 30.0974 39.0188C30.1364 39.0183 30.1748 39.0279 30.2088 39.0468C30.2429 39.0658 30.2713 39.0933 30.2914 39.1266C30.3115 39.16 30.3225 39.1981 30.3233 39.237V41.8483Z" fill="#FAFAFA"/>
<path d="M28.1294 39.332H30.4211" stroke="#191919" stroke-width="0.343756" stroke-linecap="round" stroke-linejoin="round"/>
<path d="M29.2754 40.4792V38.1875" stroke="#191919" stroke-width="0.343756" stroke-linecap="round" stroke-linejoin="round"/>
<path d="M14.2232 19.8673C14.5921 19.8668 14.9457 19.7201 15.2066 19.4593C15.4674 19.1984 15.6141 18.8448 15.6146 18.4759V17.9944C14.6944 18.1677 13.7494 18.161 12.8318 17.9746V18.4759C12.8322 18.8448 12.9789 19.1984 13.2398 19.4593C13.5006 19.7201 13.8543 19.8668 14.2232 19.8673Z" fill="#FAFAFA"/>
<path d="M19.9231 22.6215L18.7821 20.2233C18.567 19.7743 18.1878 19.425 17.7228 19.2472L16.8521 18.9154C16.5076 18.8135 16.2561 18.4088 16.0541 18.1328V18.4102C16.0623 18.666 16.0171 18.9208 15.9214 19.1582C15.8257 19.3956 15.6815 19.6104 15.4981 19.789C15.3147 19.9675 15.0961 20.1059 14.8562 20.1953C14.6163 20.2846 14.3605 20.323 14.1049 20.3079C13.8494 20.2928 13.5998 20.2247 13.3721 20.1077C13.1444 19.9908 12.9436 19.8277 12.7825 19.6288C12.6213 19.4299 12.5034 19.1997 12.4362 18.9526C12.3691 18.7056 12.3542 18.4473 12.3924 18.1942C12.2418 18.4837 11.9956 18.7121 11.6956 18.8404L10.88 19.1329C10.4119 19.2985 10.0259 19.6388 9.80292 20.0824L8.52339 22.6215C8.50562 22.66 8.50373 22.7039 8.51813 22.7438C8.53253 22.7837 8.56207 22.8163 8.60033 22.8346L10.3046 23.6096C10.3366 23.6242 10.3717 23.6309 10.4068 23.6291C10.442 23.6274 10.4762 23.6172 10.5066 23.5995C10.537 23.5818 10.5627 23.557 10.5815 23.5273C10.6004 23.4976 10.6118 23.4638 10.6149 23.4287L10.6775 22.7144C10.684 22.6571 10.7127 22.6046 10.7574 22.5681C10.802 22.5316 10.8592 22.514 10.9166 22.519C10.9741 22.524 11.0273 22.5513 11.065 22.595C11.1026 22.6387 11.1217 22.6954 11.1182 22.7529L10.5875 28.7851C10.5873 28.8279 10.5959 28.8703 10.6127 28.9097C10.6295 28.9491 10.6543 28.9847 10.6854 29.0141C10.7165 29.0436 10.7533 29.0663 10.7935 29.081C10.8338 29.0957 10.8766 29.1019 10.9194 29.0994H17.5446C17.5876 29.1019 17.6306 29.0956 17.671 29.0808C17.7114 29.066 17.7483 29.0431 17.7795 29.0133C17.8106 28.9836 17.8353 28.9479 17.852 28.9082C17.8687 28.8685 17.877 28.8259 17.8765 28.7828C17.7826 27.7762 17.394 23.671 17.3079 22.7542C17.3037 22.6968 17.3222 22.6401 17.3594 22.5962C17.3966 22.5523 17.4494 22.5247 17.5067 22.5193C17.564 22.5139 17.6211 22.5311 17.6658 22.5673C17.7105 22.6035 17.7392 22.6558 17.7459 22.7129L17.8126 23.42C17.8159 23.4547 17.8274 23.4882 17.8462 23.5176C17.865 23.547 17.8905 23.5715 17.9207 23.5891C17.9508 23.6067 17.9847 23.6168 18.0195 23.6187C18.0544 23.6206 18.0892 23.6142 18.121 23.6L19.8461 22.8303C19.8838 22.8125 19.913 22.7806 19.9274 22.7415C19.9418 22.7024 19.9402 22.6595 19.9231 22.6215ZM13.8054 26.8483C13.8037 26.9054 13.7798 26.9596 13.7388 26.9994C13.6977 27.0392 13.6428 27.0614 13.5857 27.0614C13.5286 27.0614 13.4737 27.0392 13.4327 26.9994C13.3916 26.9596 13.3677 26.9054 13.366 26.8483V24.6328L13.1527 24.7646C13.1032 24.7939 13.0442 24.8026 12.9883 24.7888C12.9324 24.775 12.8842 24.7399 12.854 24.6909C12.8238 24.642 12.814 24.5831 12.8267 24.527C12.8394 24.4709 12.8737 24.422 12.9221 24.3909L13.4693 24.05C13.5027 24.0301 13.5409 24.0194 13.5798 24.0188C13.6187 24.0183 13.6571 24.0279 13.6912 24.0468C13.7252 24.0658 13.7537 24.0933 13.7738 24.1266C13.7939 24.16 13.8048 24.1981 13.8056 24.237L13.8054 26.8483ZM15.386 26.8483C15.386 26.9066 15.3629 26.9625 15.3216 27.0038C15.2804 27.045 15.2245 27.0681 15.1662 27.0681C15.1079 27.0681 15.052 27.045 15.0108 27.0038C14.9695 26.9625 14.9464 26.9066 14.9464 26.8483V24.6328L14.7333 24.7646C14.6837 24.7952 14.624 24.8049 14.5674 24.7915C14.5107 24.7781 14.4616 24.7427 14.431 24.6932C14.4004 24.6436 14.3907 24.5839 14.4041 24.5272C14.4175 24.4705 14.4529 24.4215 14.5024 24.3909L15.0497 24.05C15.0831 24.0301 15.1212 24.0194 15.1602 24.0188C15.1991 24.0183 15.2375 24.0279 15.2716 24.0468C15.3056 24.0658 15.3341 24.0933 15.3542 24.1266C15.3743 24.16 15.3852 24.1981 15.386 24.237V26.8483Z" fill="#FAFAFA"/>
<path d="M13.8054 26.8483C13.8037 26.9054 13.7798 26.9596 13.7388 26.9994C13.6977 27.0392 13.6428 27.0614 13.5857 27.0614C13.5286 27.0614 13.4737 27.0392 13.4327 26.9994C13.3916 26.9596 13.3677 26.9054 13.366 26.8483V24.6328L13.1527 24.7646C13.1032 24.7939 13.0442 24.8026 12.9883 24.7888C12.9324 24.775 12.8842 24.7399 12.854 24.6909C12.8238 24.642 12.814 24.5831 12.8267 24.527C12.8394 24.4709 12.8737 24.422 12.9221 24.3909L13.4693 24.05C13.5027 24.0301 13.5409 24.0194 13.5798 24.0188C13.6187 24.0183 13.6571 24.0279 13.6912 24.0468C13.7252 24.0658 13.7537 24.0933 13.7738 24.1266C13.7939 24.16 13.8048 24.1981 13.8056 24.237L13.8054 26.8483Z" fill="#FAFAFA"/>
<path d="M15.386 26.8483C15.386 26.9066 15.3629 26.9625 15.3216 27.0038C15.2804 27.045 15.2245 27.0681 15.1662 27.0681C15.1079 27.0681 15.052 27.045 15.0108 27.0038C14.9695 26.9625 14.9464 26.9066 14.9464 26.8483V24.6328L14.7333 24.7646C14.6837 24.7952 14.624 24.8049 14.5674 24.7915C14.5107 24.7781 14.4616 24.7427 14.431 24.6932C14.4004 24.6436 14.3907 24.5839 14.4041 24.5272C14.4175 24.4705 14.4529 24.4215 14.5024 24.3909L15.0497 24.05C15.0831 24.0301 15.1212 24.0194 15.1602 24.0188C15.1991 24.0183 15.2375 24.0279 15.2716 24.0468C15.3056 24.0658 15.3341 24.0933 15.3542 24.1266C15.3743 24.16 15.3852 24.1981 15.386 24.237V26.8483Z" fill="#FAFAFA"/>
<path d="M13.1921 24.332H15.4838" stroke="#191919" stroke-width="0.343756" stroke-linecap="round" stroke-linejoin="round"/>
<path d="M14.3381 25.4792V23.1875" stroke="#191919" stroke-width="0.343756" stroke-linecap="round" stroke-linejoin="round"/>
<path d="M41.2859 19.8673C41.6548 19.8668 42.0085 19.7201 42.2693 19.4593C42.5301 19.1984 42.6769 18.8448 42.6773 18.4759V17.9944C41.7572 18.1677 40.8121 18.161 39.8945 17.9746V18.4759C39.895 18.8448 40.0417 19.1984 40.3025 19.4593C40.5634 19.7201 40.917 19.8668 41.2859 19.8673Z" fill="#FAFAFA"/>
<path d="M46.9858 22.6215L45.8449 20.2233C45.6297 19.7743 45.2506 19.425 44.7856 19.2472L43.9149 18.9154C43.5703 18.8135 43.3189 18.4088 43.1168 18.1328V18.4102C43.125 18.666 43.0799 18.9208 42.9841 19.1582C42.8884 19.3956 42.7442 19.6104 42.5608 19.789C42.3774 19.9675 42.1588 20.1059 41.919 20.1953C41.6791 20.2846 41.4232 20.323 41.1677 20.3079C40.9122 20.2928 40.6626 20.2247 40.4349 20.1077C40.2072 19.9908 40.0063 19.8277 39.8452 19.6288C39.6841 19.4299 39.5661 19.1997 39.499 18.9526C39.4318 18.7056 39.4169 18.4473 39.4552 18.1942C39.3046 18.4837 39.0583 18.7121 38.7583 18.8404L37.9427 19.1329C37.4746 19.2985 37.0887 19.6388 36.8657 20.0824L35.5861 22.6215C35.5684 22.66 35.5665 22.7039 35.5809 22.7438C35.5953 22.7837 35.6248 22.8163 35.6631 22.8346L37.3674 23.6096C37.3994 23.6242 37.4344 23.6309 37.4696 23.6291C37.5047 23.6274 37.5389 23.6172 37.5693 23.5995C37.5997 23.5818 37.6254 23.557 37.6443 23.5273C37.6631 23.4976 37.6745 23.4638 37.6776 23.4287L37.7403 22.7144C37.7468 22.6571 37.7754 22.6046 37.8201 22.5681C37.8648 22.5316 37.9219 22.514 37.9794 22.519C38.0368 22.524 38.0901 22.5513 38.1277 22.595C38.1653 22.6387 38.1844 22.6954 38.1809 22.7529L37.6502 28.7851C37.65 28.8279 37.6586 28.8703 37.6754 28.9097C37.6923 28.9491 37.717 28.9847 37.7481 29.0141C37.7792 29.0436 37.816 29.0663 37.8563 29.081C37.8965 29.0957 37.9394 29.1019 37.9821 29.0994H44.6074C44.6503 29.1019 44.6934 29.0956 44.7338 29.0808C44.7742 29.066 44.8111 29.0431 44.8422 29.0133C44.8734 28.9836 44.8981 28.9479 44.9147 28.9082C44.9314 28.8685 44.9398 28.8259 44.9393 28.7828C44.8454 27.7762 44.4568 23.671 44.3706 22.7542C44.3665 22.6968 44.385 22.6401 44.4221 22.5962C44.4593 22.5523 44.5122 22.5247 44.5695 22.5193C44.6267 22.5139 44.6838 22.5311 44.7285 22.5673C44.7732 22.6035 44.802 22.6558 44.8086 22.7129L44.8754 23.42C44.8787 23.4547 44.8902 23.4882 44.909 23.5176C44.9277 23.547 44.9533 23.5715 44.9834 23.5891C45.0135 23.6067 45.0474 23.6168 45.0823 23.6187C45.1171 23.6206 45.1519 23.6142 45.1838 23.6L46.9089 22.8303C46.9466 22.8125 46.9757 22.7806 46.9901 22.7415C47.0045 22.7024 47.003 22.6595 46.9858 22.6215ZM40.8682 26.8483C40.8664 26.9054 40.8425 26.9596 40.8015 26.9994C40.7605 27.0392 40.7056 27.0614 40.6485 27.0614C40.5913 27.0614 40.5364 27.0392 40.4954 26.9994C40.4544 26.9596 40.4305 26.9054 40.4287 26.8483V24.6328L40.2154 24.7646C40.1659 24.7939 40.1069 24.8026 40.051 24.7888C39.9952 24.775 39.947 24.7399 39.9168 24.6909C39.8865 24.642 39.8767 24.5831 39.8895 24.527C39.9022 24.4709 39.9364 24.422 39.9848 24.3909L40.532 24.05C40.5655 24.0301 40.6036 24.0194 40.6425 24.0188C40.6815 24.0183 40.7199 24.0279 40.7539 24.0468C40.788 24.0658 40.8164 24.0933 40.8365 24.1266C40.8566 24.16 40.8676 24.1981 40.8684 24.237L40.8682 26.8483ZM42.4488 26.8483C42.4488 26.9066 42.4256 26.9625 42.3844 27.0038C42.3432 27.045 42.2872 27.0681 42.2289 27.0681C42.1706 27.0681 42.1147 27.045 42.0735 27.0038C42.0323 26.9625 42.0091 26.9066 42.0091 26.8483V24.6328L41.796 24.7646C41.7465 24.7952 41.6868 24.8049 41.6301 24.7915C41.5734 24.7781 41.5244 24.7427 41.4938 24.6932C41.4631 24.6436 41.4535 24.5839 41.4669 24.5272C41.4803 24.4705 41.5156 24.4215 41.5652 24.3909L42.1124 24.05C42.1459 24.0301 42.184 24.0194 42.2229 24.0188C42.2619 24.0183 42.3003 24.0279 42.3343 24.0468C42.3684 24.0658 42.3968 24.0933 42.4169 24.1266C42.437 24.16 42.448 24.1981 42.4488 24.237V26.8483Z" fill="#FAFAFA"/>
<path d="M40.8682 26.8483C40.8664 26.9054 40.8425 26.9596 40.8015 26.9994C40.7605 27.0392 40.7056 27.0614 40.6485 27.0614C40.5913 27.0614 40.5364 27.0392 40.4954 26.9994C40.4544 26.9596 40.4305 26.9054 40.4287 26.8483V24.6328L40.2154 24.7646C40.1659 24.7939 40.1069 24.8026 40.051 24.7888C39.9952 24.775 39.947 24.7399 39.9168 24.6909C39.8865 24.642 39.8767 24.5831 39.8895 24.527C39.9022 24.4709 39.9364 24.422 39.9848 24.3909L40.532 24.05C40.5655 24.0301 40.6036 24.0194 40.6425 24.0188C40.6815 24.0183 40.7199 24.0279 40.7539 24.0468C40.788 24.0658 40.8164 24.0933 40.8365 24.1266C40.8566 24.16 40.8676 24.1981 40.8684 24.237L40.8682 26.8483Z" fill="#FAFAFA"/>
<path d="M42.4488 26.8483C42.4488 26.9066 42.4256 26.9625 42.3844 27.0038C42.3432 27.045 42.2872 27.0681 42.2289 27.0681C42.1706 27.0681 42.1147 27.045 42.0735 27.0038C42.0323 26.9625 42.0091 26.9066 42.0091 26.8483V24.6328L41.796 24.7646C41.7465 24.7952 41.6868 24.8049 41.6301 24.7915C41.5734 24.7781 41.5244 24.7427 41.4938 24.6932C41.4631 24.6436 41.4535 24.5839 41.4669 24.5272C41.4803 24.4705 41.5156 24.4215 41.5652 24.3909L42.1124 24.05C42.1459 24.0301 42.184 24.0194 42.2229 24.0188C42.2619 24.0183 42.3003 24.0279 42.3343 24.0468C42.3684 24.0658 42.3968 24.0933 42.4169 24.1266C42.437 24.16 42.448 24.1981 42.4488 24.237V26.8483Z" fill="#FAFAFA"/>
<path d="M40.2549 24.332H42.5466" stroke="#191919" stroke-width="0.343756" stroke-linecap="round" stroke-linejoin="round"/>
<path d="M41.4009 25.4792V23.1875" stroke="#191919" stroke-width="0.343756" stroke-linecap="round" stroke-linejoin="round"/>
<g clip-path="url(#clip0_8754_16968)">
<path d="M67.3487 19.8673C67.7175 19.8668 68.0712 19.7201 68.332 19.4593C68.5929 19.1984 68.7396 18.8448 68.74 18.4759V17.9944C67.8199 18.1677 66.8749 18.161 65.9573 17.9746V18.4759C65.9577 18.8448 66.1044 19.1984 66.3653 19.4593C66.6261 19.7201 66.9798 19.8668 67.3487 19.8673Z" fill="#FAFAFA"/>
<path d="M73.0486 22.6215L71.9076 20.2233C71.6924 19.7743 71.3133 19.425 70.8483 19.2472L69.9776 18.9154C69.6331 18.8135 69.3816 18.4088 69.1795 18.1328V18.4102C69.1878 18.666 69.1426 18.9208 69.0469 19.1582C68.9511 19.3956 68.807 19.6104 68.6236 19.789C68.4402 19.9675 68.2216 20.1059 67.9817 20.1953C67.7418 20.2846 67.486 20.323 67.2304 20.3079C66.9749 20.2928 66.7253 20.2247 66.4976 20.1077C66.2699 19.9908 66.0691 19.8277 65.9079 19.6288C65.7468 19.4299 65.6289 19.1997 65.5617 18.9526C65.4946 18.7056 65.4796 18.4473 65.5179 18.1942C65.3673 18.4837 65.1211 18.7121 64.8211 18.8404L64.0055 19.1329C63.5373 19.2985 63.1514 19.6388 62.9284 20.0824L61.6489 22.6215C61.6311 22.66 61.6292 22.7039 61.6436 22.7438C61.658 22.7837 61.6876 22.8163 61.7258 22.8346L63.4301 23.6096C63.4621 23.6242 63.4972 23.6309 63.5323 23.6291C63.5674 23.6274 63.6017 23.6172 63.6321 23.5995C63.6625 23.5818 63.6882 23.557 63.707 23.5273C63.7258 23.4976 63.7373 23.4638 63.7403 23.4287L63.803 22.7144C63.8095 22.6571 63.8382 22.6046 63.8829 22.5681C63.9275 22.5316 63.9847 22.514 64.0421 22.519C64.0996 22.524 64.1528 22.5513 64.1904 22.595C64.2281 22.6387 64.2472 22.6954 64.2437 22.7529L63.713 28.7851C63.7128 28.8279 63.7213 28.8703 63.7382 28.9097C63.755 28.9491 63.7797 28.9847 63.8108 29.0141C63.842 29.0436 63.8788 29.0663 63.919 29.081C63.9593 29.0957 64.0021 29.1019 64.0449 29.0994H70.6701C70.7131 29.1019 70.7561 29.0956 70.7965 29.0808C70.8369 29.066 70.8738 29.0431 70.905 29.0133C70.9361 28.9836 70.9608 28.9479 70.9775 28.9082C70.9942 28.8685 71.0025 28.8259 71.002 28.7828C70.9081 27.7762 70.5195 23.671 70.4334 22.7542C70.4292 22.6968 70.4477 22.6401 70.4849 22.5962C70.5221 22.5523 70.5749 22.5247 70.6322 22.5193C70.6895 22.5139 70.7466 22.5311 70.7913 22.5673C70.836 22.6035 70.8647 22.6558 70.8714 22.7129L70.9381 23.42C70.9414 23.4547 70.9529 23.4882 70.9717 23.5176C70.9905 23.547 71.016 23.5715 71.0461 23.5891C71.0763 23.6067 71.1102 23.6168 71.145 23.6187C71.1799 23.6206 71.2147 23.6142 71.2465 23.6L72.9716 22.8303C73.0093 22.8125 73.0385 22.7806 73.0529 22.7415C73.0673 22.7024 73.0657 22.6595 73.0486 22.6215ZM66.9309 26.8483C66.9292 26.9054 66.9053 26.9596 66.8642 26.9994C66.8232 27.0392 66.7683 27.0614 66.7112 27.0614C66.6541 27.0614 66.5992 27.0392 66.5581 26.9994C66.5171 26.9596 66.4932 26.9054 66.4915 26.8483V24.6328L66.2782 24.7646C66.2287 24.7939 66.1696 24.8026 66.1138 24.7888C66.0579 24.775 66.0097 24.7399 65.9795 24.6909C65.9493 24.642 65.9395 24.5831 65.9522 24.527C65.9649 24.4709 65.9992 24.422 66.0475 24.3909L66.5948 24.05C66.6282 24.0301 66.6663 24.0194 66.7053 24.0188C66.7442 24.0183 66.7826 24.0279 66.8167 24.0468C66.8507 24.0658 66.8792 24.0933 66.8993 24.1266C66.9194 24.16 66.9303 24.1981 66.9311 24.237L66.9309 26.8483ZM68.5115 26.8483C68.5115 26.9066 68.4883 26.9625 68.4471 27.0038C68.4059 27.045 68.35 27.0681 68.2917 27.0681C68.2334 27.0681 68.1775 27.045 68.1363 27.0038C68.095 26.9625 68.0719 26.9066 68.0719 26.8483V24.6328L67.8588 24.7646C67.8092 24.7952 67.7495 24.8049 67.6928 24.7915C67.6362 24.7781 67.5871 24.7427 67.5565 24.6932C67.5259 24.6436 67.5162 24.5839 67.5296 24.5272C67.543 24.4705 67.5784 24.4215 67.6279 24.3909L68.1751 24.05C68.2086 24.0301 68.2467 24.0194 68.2857 24.0188C68.3246 24.0183 68.363 24.0279 68.3971 24.0468C68.4311 24.0658 68.4596 24.0933 68.4797 24.1266C68.4997 24.16 68.5107 24.1981 68.5115 24.237V26.8483Z" fill="#FAFAFA"/>
<path d="M66.9309 26.8483C66.9292 26.9054 66.9053 26.9596 66.8642 26.9994C66.8232 27.0392 66.7683 27.0614 66.7112 27.0614C66.6541 27.0614 66.5992 27.0392 66.5581 26.9994C66.5171 26.9596 66.4932 26.9054 66.4915 26.8483V24.6328L66.2782 24.7646C66.2287 24.7939 66.1696 24.8026 66.1138 24.7888C66.0579 24.775 66.0097 24.7399 65.9795 24.6909C65.9493 24.642 65.9395 24.5831 65.9522 24.527C65.9649 24.4709 65.9992 24.422 66.0475 24.3909L66.5948 24.05C66.6282 24.0301 66.6663 24.0194 66.7053 24.0188C66.7442 24.0183 66.7826 24.0279 66.8167 24.0468C66.8507 24.0658 66.8792 24.0933 66.8993 24.1266C66.9194 24.16 66.9303 24.1981 66.9311 24.237L66.9309 26.8483Z" fill="#FAFAFA"/>
<path d="M68.5115 26.8483C68.5115 26.9066 68.4883 26.9625 68.4471 27.0038C68.4059 27.045 68.35 27.0681 68.2917 27.0681C68.2334 27.0681 68.1775 27.045 68.1363 27.0038C68.095 26.9625 68.0719 26.9066 68.0719 26.8483V24.6328L67.8588 24.7646C67.8092 24.7952 67.7495 24.8049 67.6928 24.7915C67.6362 24.7781 67.5871 24.7427 67.5565 24.6932C67.5259 24.6436 67.5162 24.5839 67.5296 24.5272C67.543 24.4705 67.5784 24.4215 67.6279 24.3909L68.1751 24.05C68.2086 24.0301 68.2467 24.0194 68.2857 24.0188C68.3246 24.0183 68.363 24.0279 68.3971 24.0468C68.4311 24.0658 68.4596 24.0933 68.4797 24.1266C68.4997 24.16 68.5107 24.1981 68.5115 24.237V26.8483Z" fill="#FAFAFA"/>
<path d="M66.3176 24.332H68.6093" stroke="#191919" stroke-width="0.343756" stroke-linecap="round" stroke-linejoin="round"/>
<path d="M67.4636 25.4792V23.1875" stroke="#191919" stroke-width="0.343756" stroke-linecap="round" stroke-linejoin="round"/>
</g>
<g clip-path="url(#clip1_8754_16968)">
<path d="M52.4114 34.8673C52.7803 34.8668 53.1339 34.7201 53.3948 34.4593C53.6556 34.1984 53.8024 33.8448 53.8028 33.4759V32.9944C52.8826 33.1677 51.9376 33.161 51.02 32.9746V33.4759C51.0205 33.8448 51.1672 34.1984 51.428 34.4593C51.6889 34.7201 52.0425 34.8668 52.4114 34.8673Z" fill="#FAFAFA"/>
<path d="M58.1113 37.6215L56.9704 35.2233C56.7552 34.7743 56.3761 34.425 55.9111 34.2472L55.0403 33.9154C54.6958 33.8135 54.4444 33.4088 54.2423 33.1328V33.4102C54.2505 33.666 54.2053 33.9208 54.1096 34.1582C54.0139 34.3956 53.8697 34.6104 53.6863 34.789C53.5029 34.9675 53.2843 35.1059 53.0444 35.1953C52.8046 35.2846 52.5487 35.323 52.2932 35.3079C52.0377 35.2928 51.7881 35.2247 51.5604 35.1077C51.3327 34.9908 51.1318 34.8277 50.9707 34.6288C50.8095 34.4299 50.6916 34.1997 50.6245 33.9526C50.5573 33.7056 50.5424 33.4473 50.5806 33.1942C50.4301 33.4837 50.1838 33.7121 49.8838 33.8404L49.0682 34.1329C48.6001 34.2985 48.2141 34.6388 47.9912 35.0824L46.7116 37.6215C46.6938 37.66 46.692 37.7039 46.7064 37.7438C46.7208 37.7837 46.7503 37.8163 46.7886 37.8346L48.4928 38.6096C48.5249 38.6242 48.5599 38.6309 48.595 38.6291C48.6302 38.6274 48.6644 38.6172 48.6948 38.5995C48.7252 38.5818 48.7509 38.557 48.7697 38.5273C48.7886 38.4976 48.8 38.4638 48.8031 38.4287L48.8657 37.7144C48.8723 37.6571 48.9009 37.6046 48.9456 37.5681C48.9903 37.5316 49.0474 37.514 49.1049 37.519C49.1623 37.524 49.2155 37.5513 49.2532 37.595C49.2908 37.6387 49.3099 37.6954 49.3064 37.7529L48.7757 43.7851C48.7755 43.8279 48.7841 43.8703 48.8009 43.9097C48.8178 43.9491 48.8425 43.9847 48.8736 44.0141C48.9047 44.0436 48.9415 44.0663 48.9818 44.081C49.022 44.0957 49.0648 44.1019 49.1076 44.0994H55.7329C55.7758 44.1019 55.8188 44.0956 55.8593 44.0808C55.8997 44.066 55.9366 44.0431 55.9677 44.0133C55.9989 43.9836 56.0235 43.9479 56.0402 43.9082C56.0569 43.8685 56.0653 43.8259 56.0647 43.7828C55.9709 42.7762 55.5822 38.671 55.4961 37.7542C55.492 37.6968 55.5105 37.6401 55.5476 37.5962C55.5848 37.5523 55.6377 37.5247 55.6949 37.5193C55.7522 37.5139 55.8093 37.5311 55.854 37.5673C55.8987 37.6035 55.9275 37.6558 55.9341 37.7129L56.0009 38.42C56.0042 38.4547 56.0157 38.4882 56.0344 38.5176C56.0532 38.547 56.0788 38.5715 56.1089 38.5891C56.139 38.6067 56.1729 38.6168 56.2078 38.6187C56.2426 38.6206 56.2774 38.6142 56.3093 38.6L58.0344 37.8303C58.072 37.8125 58.1012 37.7806 58.1156 37.7415C58.13 37.7024 58.1285 37.6595 58.1113 37.6215ZM51.9937 41.8483C51.9919 41.9054 51.968 41.9596 51.927 41.9994C51.886 42.0392 51.8311 42.0614 51.7739 42.0614C51.7168 42.0614 51.6619 42.0392 51.6209 41.9994C51.5799 41.9596 51.556 41.9054 51.5542 41.8483V39.6328L51.3409 39.7646C51.2914 39.7939 51.2324 39.8026 51.1765 39.7888C51.1207 39.775 51.0725 39.7399 51.0422 39.6909C51.012 39.642 51.0022 39.5831 51.015 39.527C51.0277 39.4709 51.0619 39.422 51.1103 39.3909L51.6575 39.05C51.691 39.0301 51.7291 39.0194 51.768 39.0188C51.807 39.0183 51.8454 39.0279 51.8794 39.0468C51.9135 39.0658 51.9419 39.0933 51.962 39.1266C51.9821 39.16 51.9931 39.1981 51.9939 39.237L51.9937 41.8483ZM53.5743 41.8483C53.5743 41.9066 53.5511 41.9625 53.5099 42.0038C53.4686 42.045 53.4127 42.0681 53.3544 42.0681C53.2961 42.0681 53.2402 42.045 53.199 42.0038C53.1578 41.9625 53.1346 41.9066 53.1346 41.8483V39.6328L52.9215 39.7646C52.872 39.7952 52.8123 39.8049 52.7556 39.7915C52.6989 39.7781 52.6499 39.7427 52.6192 39.6932C52.5886 39.6436 52.579 39.5839 52.5924 39.5272C52.6058 39.4705 52.6411 39.4215 52.6907 39.3909L53.2379 39.05C53.2714 39.0301 53.3095 39.0194 53.3484 39.0188C53.3874 39.0183 53.4258 39.0279 53.4598 39.0468C53.4938 39.0658 53.5223 39.0933 53.5424 39.1266C53.5625 39.16 53.5735 39.1981 53.5743 39.237V41.8483Z" fill="#FAFAFA"/>
<path d="M51.9937 41.8483C51.9919 41.9054 51.968 41.9596 51.927 41.9994C51.886 42.0392 51.8311 42.0614 51.7739 42.0614C51.7168 42.0614 51.6619 42.0392 51.6209 41.9994C51.5799 41.9596 51.556 41.9054 51.5542 41.8483V39.6328L51.3409 39.7646C51.2914 39.7939 51.2324 39.8026 51.1765 39.7888C51.1207 39.775 51.0725 39.7399 51.0422 39.6909C51.012 39.642 51.0022 39.5831 51.015 39.527C51.0277 39.4709 51.0619 39.422 51.1103 39.3909L51.6575 39.05C51.691 39.0301 51.7291 39.0194 51.768 39.0188C51.807 39.0183 51.8454 39.0279 51.8794 39.0468C51.9135 39.0658 51.9419 39.0933 51.962 39.1266C51.9821 39.16 51.9931 39.1981 51.9939 39.237L51.9937 41.8483Z" fill="#FAFAFA"/>
<path d="M53.5743 41.8483C53.5743 41.9066 53.5511 41.9625 53.5099 42.0038C53.4686 42.045 53.4127 42.0681 53.3544 42.0681C53.2961 42.0681 53.2402 42.045 53.199 42.0038C53.1578 41.9625 53.1346 41.9066 53.1346 41.8483V39.6328L52.9215 39.7646C52.872 39.7952 52.8123 39.8049 52.7556 39.7915C52.6989 39.7781 52.6499 39.7427 52.6192 39.6932C52.5886 39.6436 52.579 39.5839 52.5924 39.5272C52.6058 39.4705 52.6411 39.4215 52.6907 39.3909L53.2379 39.05C53.2714 39.0301 53.3095 39.0194 53.3484 39.0188C53.3874 39.0183 53.4258 39.0279 53.4598 39.0468C53.4938 39.0658 53.5223 39.0933 53.5424 39.1266C53.5625 39.16 53.5735 39.1981 53.5743 39.237V41.8483Z" fill="#FAFAFA"/>
<path d="M51.3804 39.332H53.6721" stroke="#191919" stroke-width="0.343756" stroke-linecap="round" stroke-linejoin="round"/>
<path d="M52.5264 40.4792V38.1875" stroke="#191919" stroke-width="0.343756" stroke-linecap="round" stroke-linejoin="round"/>
</g>
<path d="M41.0584 4.99618C41.4273 4.99575 41.7809 4.84902 42.0418 4.58818C42.3026 4.32734 42.4493 3.97368 42.4498 3.6048V3.12331C41.5296 3.29665 40.5846 3.28993 39.667 3.10352V3.6048C39.6674 3.97368 39.8142 4.32734 40.075 4.58818C40.3358 4.84902 40.6895 4.99575 41.0584 4.99618Z" fill="#FAFAFA"/>
<path d="M46.7583 7.7504L45.6173 5.35217C45.4022 4.90324 45.023 4.55392 44.558 4.37613L43.6873 4.04426C43.3428 3.94241 43.0913 3.53767 42.8893 3.26172V3.5391C42.8975 3.79494 42.8523 4.04969 42.7566 4.28709C42.6609 4.52449 42.5167 4.73932 42.3333 4.91789C42.1499 5.09646 41.9313 5.23483 41.6914 5.32418C41.4515 5.41353 41.1957 5.45189 40.9402 5.43682C40.6846 5.42175 40.435 5.35358 40.2073 5.23666C39.9796 5.11973 39.7788 4.95662 39.6177 4.75774C39.4565 4.55885 39.3386 4.32856 39.2714 4.08155C39.2043 3.83455 39.1894 3.57625 39.2276 3.32315C39.077 3.61265 38.8308 3.84101 38.5308 3.96935L37.7152 4.26184C37.2471 4.42743 36.8611 4.76766 36.6381 5.21133L35.3586 7.7504C35.3408 7.7889 35.3389 7.83286 35.3533 7.87274C35.3677 7.91262 35.3973 7.94522 35.4355 7.96349L37.1398 8.73848C37.1718 8.75308 37.2069 8.75979 37.242 8.75804C37.2772 8.75629 37.3114 8.74613 37.3418 8.72841C37.3722 8.71069 37.3979 8.68593 37.4167 8.65621C37.4356 8.6265 37.447 8.59269 37.4501 8.55764L37.5127 7.84327C37.5193 7.78597 37.5479 7.73348 37.5926 7.69699C37.6372 7.6605 37.6944 7.64289 37.7518 7.64792C37.8093 7.65295 37.8625 7.68022 37.9002 7.72392C37.9378 7.76761 37.9569 7.82428 37.9534 7.88185L37.4227 13.914C37.4225 13.9568 37.4311 13.9992 37.4479 14.0386C37.4647 14.078 37.4895 14.1136 37.5206 14.143C37.5517 14.1725 37.5885 14.1952 37.6287 14.2099C37.669 14.2246 37.7118 14.2308 37.7546 14.2283H44.3798C44.4228 14.2309 44.4658 14.2245 44.5062 14.2097C44.5466 14.1949 44.5836 14.172 44.6147 14.1423C44.6458 14.1126 44.6705 14.0768 44.6872 14.0371C44.7039 13.9974 44.7122 13.9548 44.7117 13.9117C44.6178 12.9051 44.2292 8.79991 44.1431 7.88307C44.1389 7.8257 44.1574 7.76899 44.1946 7.72508C44.2318 7.68118 44.2846 7.65357 44.3419 7.64818C44.3992 7.64279 44.4563 7.66004 44.501 7.69624C44.5457 7.73244 44.5745 7.78471 44.5811 7.84184L44.6478 8.54886C44.6511 8.5836 44.6626 8.61706 44.6814 8.64647C44.7002 8.67588 44.7257 8.70039 44.7559 8.71798C44.786 8.73557 44.8199 8.74574 44.8547 8.74763C44.8896 8.74953 44.9244 8.7431 44.9562 8.72889L46.6813 7.9592C46.719 7.94143 46.7482 7.90955 46.7626 7.87045C46.777 7.83136 46.7754 7.78837 46.7583 7.7504ZM40.6406 11.9772C40.6389 12.0343 40.615 12.0885 40.574 12.1283C40.533 12.1681 40.4781 12.1903 40.4209 12.1903C40.3638 12.1903 40.3089 12.1681 40.2679 12.1283C40.2268 12.0885 40.2029 12.0343 40.2012 11.9772V9.76166L39.9879 9.89351C39.9384 9.9228 39.8794 9.93148 39.8235 9.9177C39.7676 9.90392 39.7194 9.86878 39.6892 9.81982C39.659 9.77086 39.6492 9.712 39.6619 9.6559C39.6747 9.5998 39.7089 9.55092 39.7573 9.51979L40.3045 9.17894C40.338 9.15905 40.3761 9.14829 40.415 9.14773C40.4539 9.14717 40.4923 9.15683 40.5264 9.17575C40.5604 9.19467 40.5889 9.22218 40.609 9.25555C40.6291 9.28891 40.6401 9.32696 40.6408 9.3659L40.6406 11.9772ZM42.2212 11.9772C42.2212 12.0355 42.1981 12.0914 42.1568 12.1327C42.1156 12.1739 42.0597 12.197 42.0014 12.197C41.9431 12.197 41.8872 12.1739 41.846 12.1327C41.8047 12.0914 41.7816 12.0355 41.7816 11.9772V9.76166L41.5685 9.89351C41.5189 9.92412 41.4592 9.93379 41.4026 9.9204C41.3459 9.907 41.2968 9.87163 41.2662 9.82207C41.2356 9.77252 41.2259 9.71283 41.2393 9.65614C41.2527 9.59945 41.2881 9.55041 41.3377 9.51979L41.8849 9.17894C41.9183 9.15905 41.9565 9.14829 41.9954 9.14773C42.0343 9.14717 42.0727 9.15683 42.1068 9.17575C42.1408 9.19467 42.1693 9.22218 42.1894 9.25555C42.2095 9.28891 42.2204 9.32696 42.2212 9.3659V11.9772Z" fill="#FAFAFA"/>
<path d="M40.6406 11.9772C40.6389 12.0343 40.615 12.0885 40.574 12.1283C40.533 12.1681 40.4781 12.1903 40.4209 12.1903C40.3638 12.1903 40.3089 12.1681 40.2679 12.1283C40.2268 12.0885 40.2029 12.0343 40.2012 11.9772V9.76166L39.9879 9.89351C39.9384 9.9228 39.8794 9.93148 39.8235 9.9177C39.7676 9.90392 39.7194 9.86878 39.6892 9.81982C39.659 9.77086 39.6492 9.712 39.6619 9.6559C39.6747 9.5998 39.7089 9.55092 39.7573 9.51979L40.3045 9.17894C40.338 9.15905 40.3761 9.14829 40.415 9.14773C40.4539 9.14717 40.4923 9.15683 40.5264 9.17575C40.5604 9.19467 40.5889 9.22218 40.609 9.25555C40.6291 9.28891 40.6401 9.32696 40.6408 9.3659L40.6406 11.9772Z" fill="#FAFAFA"/>
<path d="M42.2212 11.9772C42.2212 12.0355 42.1981 12.0914 42.1568 12.1327C42.1156 12.1739 42.0597 12.197 42.0014 12.197C41.9431 12.197 41.8872 12.1739 41.846 12.1327C41.8047 12.0914 41.7816 12.0355 41.7816 11.9772V9.76166L41.5685 9.89351C41.5189 9.92412 41.4592 9.93379 41.4026 9.9204C41.3459 9.907 41.2968 9.87163 41.2662 9.82207C41.2356 9.77252 41.2259 9.71283 41.2393 9.65614C41.2527 9.59945 41.2881 9.55041 41.3377 9.51979L41.8849 9.17894C41.9183 9.15905 41.9565 9.14829 41.9954 9.14773C42.0343 9.14717 42.0727 9.15683 42.1068 9.17575C42.1408 9.19467 42.1693 9.22218 42.1894 9.25555C42.2095 9.28891 42.2204 9.32696 42.2212 9.3659V11.9772Z" fill="#FAFAFA"/>
<path d="M40.0273 9.46094H42.3191" stroke="#191919" stroke-width="0.343756" stroke-linecap="round" stroke-linejoin="round"/>
<path d="M41.1733 10.6081V8.31641" stroke="#191919" stroke-width="0.343756" stroke-linecap="round" stroke-linejoin="round"/>
<defs>
<clipPath id="clip0_8754_16968">
<rect width="13.0627" height="13.0627" fill="white" transform="translate(60.8176 17)"/>
</clipPath>
<clipPath id="clip1_8754_16968">
<rect width="13.0627" height="13.0627" fill="white" transform="translate(45.8804 32)"/>
</clipPath>
</defs>
</svg>
