<svg width="81" height="81" viewBox="0 0 81 81" fill="none" xmlns="http://www.w3.org/2000/svg">
<rect x="0.212974" y="0.118492" width="79.9807" height="79.9807" rx="5.88541" fill="#828284" stroke="#FAFAFA" stroke-width="0.229171"/>
<mask id="path-2-inside-1_8758_17722" fill="white">
<path d="M23.9321 66.4609H56.4744V80.2112H23.9321V66.4609Z"/>
</mask>
<path d="M23.9321 66.4609V66.2318H23.703V66.4609H23.9321ZM56.4744 66.4609H56.7036V66.2318H56.4744V66.4609ZM23.9321 66.6901H56.4744V66.2318H23.9321V66.6901ZM56.2452 66.4609V80.2112H56.7036V66.4609H56.2452ZM24.1613 80.2112V66.4609H23.703V80.2112H24.1613Z" fill="#FAFAFA" mask="url(#path-2-inside-1_8758_17722)"/>
<mask id="path-4-inside-2_8758_17722" fill="white">
<path d="M12.7026 55.0039H67.7037V80.2127H12.7026V55.0039Z"/>
</mask>
<path d="M12.7026 55.0039V54.7747H12.4735V55.0039H12.7026ZM67.7037 55.0039H67.9328V54.7747H67.7037V55.0039ZM12.7026 55.2331H67.7037V54.7747H12.7026V55.2331ZM67.4745 55.0039V80.2127H67.9328V55.0039H67.4745ZM12.9318 80.2127V55.0039H12.4735V80.2127H12.9318Z" fill="#FAFAFA" mask="url(#path-4-inside-2_8758_17722)"/>
<path d="M54.4119 9.53674e-07C54.4119 1.65523 54.0266 3.29426 53.278 4.8235C52.5294 6.35273 51.4321 7.74223 50.0489 8.91266C48.6657 10.0831 47.0235 11.0115 45.2162 11.645C43.409 12.2784 41.4719 12.6044 39.5157 12.6044C37.5596 12.6044 35.6225 12.2784 33.8152 11.645C32.008 11.0115 30.3658 10.0831 28.9826 8.91266C27.5994 7.74223 26.5021 6.35273 25.7535 4.8235C25.0049 3.29426 24.6196 1.65523 24.6196 0" stroke="#FAFAFA" stroke-width="0.229171"/>
<path d="M30.6756 55.3516C31.1938 54.5174 31.9535 53.7595 32.9111 53.1211C33.8687 52.4827 35.0056 51.9763 36.2568 51.6308C37.508 51.2853 38.849 51.1074 40.2033 51.1074C41.5576 51.1074 42.8986 51.2853 44.1498 51.6308C45.401 51.9763 46.5378 52.4827 47.4954 53.1211C48.4531 53.7595 49.2127 54.5174 49.731 55.3516" stroke="#FAFAFA" stroke-width="0.229171"/>
<path d="M0.327637 76.5479C1.44417 76.4958 3.64809 77.1099 3.53159 79.9825" stroke="#FAFAFA" stroke-width="0.229171"/>
<path d="M80.0791 76.5479C78.9626 76.4958 76.7586 77.1099 76.8752 79.9825" stroke="#FAFAFA" stroke-width="0.229171"/>
<g clip-path="url(#clip0_8758_17722)">
<path d="M40.3174 69.4356C40.6863 69.4352 41.04 69.2885 41.3008 69.0276C41.5616 68.7668 41.7084 68.4131 41.7088 68.0443V67.5628C40.7886 67.7361 39.8436 67.7294 38.926 67.543V68.0443C38.9265 68.4131 39.0732 68.7668 39.334 69.0276C39.5949 69.2885 39.9485 69.4352 40.3174 69.4356Z" fill="#FAFAFA"/>
<path d="M46.0173 72.1899L44.8764 69.7916C44.6612 69.3427 44.2821 68.9934 43.8171 68.8156L42.9463 68.4837C42.6018 68.3819 42.3504 67.9771 42.1483 67.7012V67.9786C42.1565 68.2344 42.1113 68.4891 42.0156 68.7265C41.9199 68.9639 41.7757 69.1788 41.5923 69.3573C41.4089 69.5359 41.1903 69.6743 40.9505 69.7636C40.7106 69.853 40.4547 69.8913 40.1992 69.8763C39.9437 69.8612 39.6941 69.793 39.4664 69.6761C39.2387 69.5592 39.0378 69.3961 38.8767 69.1972C38.7155 68.9983 38.5976 68.768 38.5305 68.521C38.4633 68.274 38.4484 68.0157 38.4866 67.7626C38.3361 68.0521 38.0898 68.2805 37.7898 68.4088L36.9742 68.7013C36.5061 68.8669 36.1201 69.2071 35.8972 69.6508L34.6176 72.1899C34.5999 72.2284 34.598 72.2723 34.6124 72.3122C34.6268 72.3521 34.6563 72.3847 34.6946 72.4029L36.3989 73.1779C36.4309 73.1925 36.4659 73.1992 36.5011 73.1975C36.5362 73.1957 36.5704 73.1856 36.6008 73.1679C36.6312 73.1501 36.6569 73.1254 36.6757 73.0957C36.6946 73.066 36.706 73.0321 36.7091 72.9971L36.7718 72.2827C36.7783 72.2254 36.8069 72.1729 36.8516 72.1364C36.8963 72.1 36.9534 72.0823 37.0109 72.0874C37.0683 72.0924 37.1216 72.1197 37.1592 72.1634C37.1968 72.2071 37.2159 72.2637 37.2124 72.3213L36.6817 78.3534C36.6815 78.3963 36.6901 78.4387 36.7069 78.4781C36.7238 78.5175 36.7485 78.553 36.7796 78.5825C36.8107 78.6119 36.8475 78.6347 36.8878 78.6494C36.928 78.664 36.9709 78.6703 37.0136 78.6678H43.6389C43.6818 78.6703 43.7249 78.664 43.7653 78.6492C43.8057 78.6344 43.8426 78.6114 43.8737 78.5817C43.9049 78.552 43.9295 78.5162 43.9462 78.4766C43.9629 78.4369 43.9713 78.3942 43.9708 78.3512C43.8769 77.3445 43.4882 73.2394 43.4021 72.3225C43.398 72.2652 43.4165 72.2084 43.4536 72.1645C43.4908 72.1206 43.5437 72.093 43.601 72.0876C43.6582 72.0822 43.7153 72.0995 43.76 72.1357C43.8047 72.1719 43.8335 72.2242 43.8401 72.2813L43.9069 72.9883C43.9102 73.0231 43.9217 73.0565 43.9405 73.0859C43.9592 73.1153 43.9848 73.1398 44.0149 73.1574C44.045 73.175 44.0789 73.1852 44.1138 73.1871C44.1486 73.189 44.1834 73.1826 44.2153 73.1683L45.9404 72.3987C45.978 72.3809 46.0072 72.349 46.0216 72.3099C46.036 72.2708 46.0345 72.2278 46.0173 72.1899ZM39.8997 76.4167C39.8979 76.4738 39.874 76.528 39.833 76.5678C39.792 76.6076 39.7371 76.6298 39.6799 76.6298C39.6228 76.6298 39.5679 76.6076 39.5269 76.5678C39.4859 76.528 39.462 76.4738 39.4602 76.4167V74.2011L39.2469 74.333C39.1974 74.3623 39.1384 74.3709 39.0825 74.3572C39.0267 74.3434 38.9785 74.3082 38.9482 74.2593C38.918 74.2103 38.9082 74.1515 38.921 74.0954C38.9337 74.0392 38.9679 73.9904 39.0163 73.9592L39.5635 73.6184C39.597 73.5985 39.6351 73.5877 39.674 73.5872C39.713 73.5866 39.7514 73.5963 39.7854 73.6152C39.8195 73.6341 39.8479 73.6616 39.868 73.695C39.8881 73.7284 39.8991 73.7664 39.8999 73.8054L39.8997 76.4167ZM41.4803 76.4167C41.4803 76.475 41.4571 76.5309 41.4159 76.5721C41.3747 76.6133 41.3187 76.6365 41.2604 76.6365C41.2021 76.6365 41.1462 76.6133 41.105 76.5721C41.0638 76.5309 41.0406 76.475 41.0406 76.4167V74.2011L40.8275 74.333C40.778 74.3636 40.7183 74.3732 40.6616 74.3598C40.6049 74.3465 40.5559 74.3111 40.5253 74.2615C40.4946 74.212 40.485 74.1523 40.4984 74.0956C40.5118 74.0389 40.5471 73.9899 40.5967 73.9592L41.1439 73.6184C41.1774 73.5985 41.2155 73.5877 41.2544 73.5872C41.2934 73.5866 41.3318 73.5963 41.3658 73.6152C41.3998 73.6341 41.4283 73.6616 41.4484 73.695C41.4685 73.7284 41.4795 73.7664 41.4803 73.8054V76.4167Z" fill="#FAFAFA"/>
<path d="M39.8997 76.4167C39.8979 76.4738 39.874 76.528 39.833 76.5678C39.792 76.6076 39.7371 76.6298 39.6799 76.6298C39.6228 76.6298 39.5679 76.6076 39.5269 76.5678C39.4859 76.528 39.462 76.4738 39.4602 76.4167V74.2011L39.2469 74.333C39.1974 74.3623 39.1384 74.3709 39.0825 74.3572C39.0267 74.3434 38.9785 74.3082 38.9482 74.2593C38.918 74.2103 38.9082 74.1515 38.921 74.0954C38.9337 74.0392 38.9679 73.9904 39.0163 73.9592L39.5635 73.6184C39.597 73.5985 39.6351 73.5877 39.674 73.5872C39.713 73.5866 39.7514 73.5963 39.7854 73.6152C39.8195 73.6341 39.8479 73.6616 39.868 73.695C39.8881 73.7284 39.8991 73.7664 39.8999 73.8054L39.8997 76.4167Z" fill="#FAFAFA"/>
<path d="M41.4803 76.4167C41.4803 76.475 41.4571 76.5309 41.4159 76.5721C41.3747 76.6133 41.3187 76.6365 41.2604 76.6365C41.2021 76.6365 41.1462 76.6133 41.105 76.5721C41.0638 76.5309 41.0406 76.475 41.0406 76.4167V74.2011L40.8275 74.333C40.778 74.3636 40.7183 74.3732 40.6616 74.3598C40.6049 74.3465 40.5559 74.3111 40.5253 74.2615C40.4946 74.212 40.485 74.1523 40.4984 74.0956C40.5118 74.0389 40.5471 73.9899 40.5967 73.9592L41.1439 73.6184C41.1774 73.5985 41.2155 73.5877 41.2544 73.5872C41.2934 73.5866 41.3318 73.5963 41.3658 73.6152C41.3998 73.6341 41.4283 73.6616 41.4484 73.695C41.4685 73.7284 41.4795 73.7664 41.4803 73.8054V76.4167Z" fill="#FAFAFA"/>
<path d="M39.2864 73.8965H41.5781" stroke="#191919" stroke-width="0.343756" stroke-linecap="round" stroke-linejoin="round"/>
<path d="M40.4324 75.0437V72.752" stroke="#191919" stroke-width="0.343756" stroke-linecap="round" stroke-linejoin="round"/>
</g>
<g clip-path="url(#clip1_8758_17722)">
<path d="M8.33792 47.8673C8.70681 47.8668 9.06046 47.7201 9.3213 47.4593C9.58214 47.1984 9.72887 46.8448 9.72931 46.4759V45.9944C8.80916 46.1677 7.86412 46.161 6.94653 45.9746V46.4759C6.94697 46.8448 7.0937 47.1984 7.35454 47.4593C7.61538 47.7201 7.96903 47.8668 8.33792 47.8673Z" fill="#FAFAFA"/>
<path d="M14.0378 50.6215L12.8969 48.2233C12.6817 47.7743 12.3026 47.425 11.8376 47.2472L10.9669 46.9154C10.6223 46.8135 10.3709 46.4088 10.1688 46.1328V46.4102C10.177 46.666 10.1319 46.9208 10.0361 47.1582C9.94041 47.3956 9.79624 47.6104 9.61284 47.789C9.42944 47.9675 9.21083 48.1059 8.97096 48.1953C8.73109 48.2846 8.47522 48.323 8.21969 48.3079C7.96416 48.2928 7.71458 48.2247 7.48688 48.1077C7.25917 47.9908 7.05834 47.8277 6.8972 47.6288C6.73605 47.4299 6.61814 47.1997 6.55099 46.9526C6.48383 46.7056 6.4689 46.4473 6.50715 46.1942C6.35659 46.4837 6.11034 46.7121 5.81034 46.8404L4.99473 47.1329C4.5266 47.2985 4.14066 47.6388 3.91767 48.0824L2.63813 50.6215C2.62036 50.66 2.61847 50.7039 2.63288 50.7438C2.64728 50.7837 2.67681 50.8163 2.71508 50.8346L4.41936 51.6096C4.45137 51.6242 4.48642 51.6309 4.52156 51.6291C4.55671 51.6274 4.59091 51.6172 4.62131 51.5995C4.65171 51.5818 4.67741 51.557 4.69626 51.5273C4.7151 51.4976 4.72653 51.4638 4.7296 51.4287L4.79226 50.7144C4.79879 50.6571 4.82744 50.6046 4.87211 50.5681C4.91678 50.5316 4.97392 50.514 5.03138 50.519C5.08884 50.524 5.14206 50.5513 5.1797 50.595C5.21735 50.6387 5.23645 50.6954 5.23292 50.7529L4.70225 56.7851C4.70203 56.8279 4.71061 56.8703 4.72744 56.9097C4.74427 56.9491 4.769 56.9847 4.80011 57.0141C4.83121 57.0436 4.86803 57.0663 4.90828 57.081C4.94853 57.0957 4.99136 57.1019 5.03412 57.0994H11.6594C11.7023 57.1019 11.7454 57.0956 11.7858 57.0808C11.8262 57.066 11.8631 57.0431 11.8942 57.0133C11.9254 56.9836 11.9501 56.9479 11.9667 56.9082C11.9834 56.8685 11.9918 56.8259 11.9913 56.7828C11.8974 55.7762 11.5088 51.671 11.4226 50.7542C11.4185 50.6968 11.437 50.6401 11.4741 50.5962C11.5113 50.5523 11.5642 50.5247 11.6215 50.5193C11.6787 50.5139 11.7358 50.5311 11.7805 50.5673C11.8252 50.6035 11.854 50.6558 11.8606 50.7129L11.9274 51.42C11.9307 51.4547 11.9422 51.4882 11.961 51.5176C11.9797 51.547 12.0053 51.5715 12.0354 51.5891C12.0655 51.6067 12.0994 51.6168 12.1343 51.6187C12.1691 51.6206 12.2039 51.6142 12.2358 51.6L13.9609 50.8303C13.9986 50.8125 14.0277 50.7806 14.0421 50.7415C14.0565 50.7024 14.055 50.6595 14.0378 50.6215ZM7.92017 54.8483C7.91843 54.9054 7.89452 54.9596 7.85351 54.9994C7.81249 55.0392 7.7576 55.0614 7.70046 55.0614C7.64331 55.0614 7.58842 55.0392 7.5474 54.9994C7.50639 54.9596 7.48248 54.9054 7.48074 54.8483V52.6328L7.26745 52.7646C7.21793 52.7939 7.1589 52.8026 7.10304 52.7888C7.04719 52.775 6.99897 52.7399 6.96875 52.6909C6.93854 52.642 6.92874 52.5831 6.94147 52.527C6.9542 52.4709 6.98843 52.422 7.03681 52.3909L7.58401 52.05C7.61749 52.0301 7.65561 52.0194 7.69454 52.0188C7.73348 52.0183 7.77189 52.0279 7.80593 52.0468C7.83997 52.0658 7.86845 52.0933 7.88853 52.1266C7.90861 52.16 7.9196 52.1981 7.92038 52.237L7.92017 54.8483ZM9.50077 54.8483C9.50077 54.9066 9.47761 54.9625 9.43638 55.0038C9.39516 55.045 9.33924 55.0681 9.28094 55.0681C9.22264 55.0681 9.16673 55.045 9.12551 55.0038C9.08428 54.9625 9.06112 54.9066 9.06112 54.8483V52.6328L8.84804 52.7646C8.79848 52.7952 8.73879 52.8049 8.6821 52.7915C8.62541 52.7781 8.57637 52.7427 8.54576 52.6932C8.51515 52.6436 8.50548 52.5839 8.51887 52.5272C8.53227 52.4705 8.56764 52.4215 8.61719 52.3909L9.1644 52.05C9.19788 52.0301 9.23599 52.0194 9.27493 52.0188C9.31387 52.0183 9.35228 52.0279 9.38632 52.0468C9.42035 52.0658 9.44884 52.0933 9.46892 52.1266C9.489 52.16 9.49998 52.1981 9.50077 52.237V54.8483Z" fill="#FAFAFA"/>
<path d="M7.92017 54.8483C7.91843 54.9054 7.89452 54.9596 7.85351 54.9994C7.81249 55.0392 7.7576 55.0614 7.70046 55.0614C7.64331 55.0614 7.58842 55.0392 7.5474 54.9994C7.50639 54.9596 7.48248 54.9054 7.48074 54.8483V52.6328L7.26745 52.7646C7.21793 52.7939 7.1589 52.8026 7.10304 52.7888C7.04719 52.775 6.99897 52.7399 6.96875 52.6909C6.93854 52.642 6.92874 52.5831 6.94147 52.527C6.9542 52.4709 6.98843 52.422 7.03681 52.3909L7.58401 52.05C7.61749 52.0301 7.65561 52.0194 7.69454 52.0188C7.73348 52.0183 7.77189 52.0279 7.80593 52.0468C7.83997 52.0658 7.86845 52.0933 7.88853 52.1266C7.90861 52.16 7.9196 52.1981 7.92038 52.237L7.92017 54.8483Z" fill="#FAFAFA"/>
<path d="M9.50077 54.8483C9.50077 54.9066 9.47761 54.9625 9.43638 55.0038C9.39516 55.045 9.33924 55.0681 9.28094 55.0681C9.22264 55.0681 9.16673 55.045 9.12551 55.0038C9.08428 54.9625 9.06112 54.9066 9.06112 54.8483V52.6328L8.84804 52.7646C8.79848 52.7952 8.73879 52.8049 8.6821 52.7915C8.62541 52.7781 8.57637 52.7427 8.54576 52.6932C8.51515 52.6436 8.50548 52.5839 8.51887 52.5272C8.53227 52.4705 8.56764 52.4215 8.61719 52.3909L9.1644 52.05C9.19788 52.0301 9.23599 52.0194 9.27493 52.0188C9.31387 52.0183 9.35228 52.0279 9.38632 52.0468C9.42035 52.0658 9.44884 52.0933 9.46892 52.1266C9.489 52.16 9.49998 52.1981 9.50077 52.237V54.8483Z" fill="#FAFAFA"/>
<path d="M7.30688 52.332H9.59859" stroke="#191919" stroke-width="0.343756" stroke-linecap="round" stroke-linejoin="round"/>
<path d="M8.45288 53.4792V51.1875" stroke="#191919" stroke-width="0.343756" stroke-linecap="round" stroke-linejoin="round"/>
</g>
<g clip-path="url(#clip2_8758_17722)">
<path d="M71.4007 47.8673C71.7695 47.8668 72.1232 47.7201 72.384 47.4593C72.6449 47.1984 72.7916 46.8448 72.7921 46.4759V45.9944C71.8719 46.1677 70.9269 46.161 70.0093 45.9746V46.4759C70.0097 46.8448 70.1564 47.1984 70.4173 47.4593C70.6781 47.7201 71.0318 47.8668 71.4007 47.8673Z" fill="#FAFAFA"/>
<path d="M77.1006 50.6215L75.9596 48.2233C75.7444 47.7743 75.3653 47.425 74.9003 47.2472L74.0296 46.9154C73.6851 46.8135 73.4336 46.4088 73.2315 46.1328V46.4102C73.2398 46.666 73.1946 46.9208 73.0989 47.1582C73.0032 47.3956 72.859 47.6104 72.6756 47.789C72.4922 47.9675 72.2736 48.1059 72.0337 48.1953C71.7938 48.2846 71.538 48.323 71.2824 48.3079C71.0269 48.2928 70.7773 48.2247 70.5496 48.1077C70.3219 47.9908 70.1211 47.8277 69.9599 47.6288C69.7988 47.4299 69.6809 47.1997 69.6137 46.9526C69.5466 46.7056 69.5316 46.4473 69.5699 46.1942C69.4193 46.4837 69.1731 46.7121 68.8731 46.8404L68.0575 47.1329C67.5893 47.2985 67.2034 47.6388 66.9804 48.0824L65.7009 50.6215C65.6831 50.66 65.6812 50.7039 65.6956 50.7438C65.71 50.7837 65.7396 50.8163 65.7778 50.8346L67.4821 51.6096C67.5141 51.6242 67.5492 51.6309 67.5843 51.6291C67.6194 51.6274 67.6537 51.6172 67.6841 51.5995C67.7145 51.5818 67.7402 51.557 67.759 51.5273C67.7778 51.4976 67.7893 51.4638 67.7923 51.4287L67.855 50.7144C67.8615 50.6571 67.8902 50.6046 67.9349 50.5681C67.9795 50.5316 68.0367 50.514 68.0941 50.519C68.1516 50.524 68.2048 50.5513 68.2424 50.595C68.2801 50.6387 68.2992 50.6954 68.2957 50.7529L67.765 56.7851C67.7648 56.8279 67.7734 56.8703 67.7902 56.9097C67.807 56.9491 67.8317 56.9847 67.8629 57.0141C67.894 57.0436 67.9308 57.0663 67.971 57.081C68.0113 57.0957 68.0541 57.1019 68.0969 57.0994H74.7221C74.7651 57.1019 74.8081 57.0956 74.8485 57.0808C74.8889 57.066 74.9258 57.0431 74.957 57.0133C74.9881 56.9836 75.0128 56.9479 75.0295 56.9082C75.0462 56.8685 75.0545 56.8259 75.054 56.7828C74.9601 55.7762 74.5715 51.671 74.4854 50.7542C74.4812 50.6968 74.4997 50.6401 74.5369 50.5962C74.5741 50.5523 74.6269 50.5247 74.6842 50.5193C74.7415 50.5139 74.7986 50.5311 74.8433 50.5673C74.888 50.6035 74.9167 50.6558 74.9234 50.7129L74.9901 51.42C74.9934 51.4547 75.0049 51.4882 75.0237 51.5176C75.0425 51.547 75.068 51.5715 75.0981 51.5891C75.1283 51.6067 75.1622 51.6168 75.197 51.6187C75.2319 51.6206 75.2667 51.6142 75.2985 51.6L77.0236 50.8303C77.0613 50.8125 77.0905 50.7806 77.1049 50.7415C77.1193 50.7024 77.1177 50.6595 77.1006 50.6215ZM70.9829 54.8483C70.9812 54.9054 70.9573 54.9596 70.9163 54.9994C70.8752 55.0392 70.8203 55.0614 70.7632 55.0614C70.7061 55.0614 70.6512 55.0392 70.6101 54.9994C70.5691 54.9596 70.5452 54.9054 70.5435 54.8483V52.6328L70.3302 52.7646C70.2807 52.7939 70.2216 52.8026 70.1658 52.7888C70.1099 52.775 70.0617 52.7399 70.0315 52.6909C70.0013 52.642 69.9915 52.5831 70.0042 52.527C70.0169 52.4709 70.0512 52.422 70.0996 52.3909L70.6468 52.05C70.6802 52.0301 70.7183 52.0194 70.7573 52.0188C70.7962 52.0183 70.8346 52.0279 70.8687 52.0468C70.9027 52.0658 70.9312 52.0933 70.9513 52.1266C70.9714 52.16 70.9823 52.1981 70.9831 52.237L70.9829 54.8483ZM72.5635 54.8483C72.5635 54.9066 72.5404 54.9625 72.4991 55.0038C72.4579 55.045 72.402 55.0681 72.3437 55.0681C72.2854 55.0681 72.2295 55.045 72.1883 55.0038C72.147 54.9625 72.1239 54.9066 72.1239 54.8483V52.6328L71.9108 52.7646C71.8612 52.7952 71.8015 52.8049 71.7448 52.7915C71.6882 52.7781 71.6391 52.7427 71.6085 52.6932C71.5779 52.6436 71.5682 52.5839 71.5816 52.5272C71.595 52.4705 71.6304 52.4215 71.6799 52.3909L72.2271 52.05C72.2606 52.0301 72.2987 52.0194 72.3377 52.0188C72.3766 52.0183 72.415 52.0279 72.4491 52.0468C72.4831 52.0658 72.5116 52.0933 72.5317 52.1266C72.5517 52.16 72.5627 52.1981 72.5635 52.237V54.8483Z" fill="#FAFAFA"/>
<path d="M70.9829 54.8483C70.9812 54.9054 70.9573 54.9596 70.9163 54.9994C70.8752 55.0392 70.8203 55.0614 70.7632 55.0614C70.7061 55.0614 70.6512 55.0392 70.6101 54.9994C70.5691 54.9596 70.5452 54.9054 70.5435 54.8483V52.6328L70.3302 52.7646C70.2807 52.7939 70.2216 52.8026 70.1658 52.7888C70.1099 52.775 70.0617 52.7399 70.0315 52.6909C70.0013 52.642 69.9915 52.5831 70.0042 52.527C70.0169 52.4709 70.0512 52.422 70.0996 52.3909L70.6468 52.05C70.6802 52.0301 70.7183 52.0194 70.7573 52.0188C70.7962 52.0183 70.8346 52.0279 70.8687 52.0468C70.9027 52.0658 70.9312 52.0933 70.9513 52.1266C70.9714 52.16 70.9823 52.1981 70.9831 52.237L70.9829 54.8483Z" fill="#FAFAFA"/>
<path d="M72.5635 54.8483C72.5635 54.9066 72.5404 54.9625 72.4991 55.0038C72.4579 55.045 72.402 55.0681 72.3437 55.0681C72.2854 55.0681 72.2295 55.045 72.1883 55.0038C72.147 54.9625 72.1239 54.9066 72.1239 54.8483V52.6328L71.9108 52.7646C71.8612 52.7952 71.8015 52.8049 71.7448 52.7915C71.6882 52.7781 71.6391 52.7427 71.6085 52.6932C71.5779 52.6436 71.5682 52.5839 71.5816 52.5272C71.595 52.4705 71.6304 52.4215 71.6799 52.3909L72.2271 52.05C72.2606 52.0301 72.2987 52.0194 72.3377 52.0188C72.3766 52.0183 72.415 52.0279 72.4491 52.0468C72.4831 52.0658 72.5116 52.0933 72.5317 52.1266C72.5517 52.16 72.5627 52.1981 72.5635 52.237V54.8483Z" fill="#FAFAFA"/>
<path d="M70.3696 52.332H72.6613" stroke="#191919" stroke-width="0.343756" stroke-linecap="round" stroke-linejoin="round"/>
<path d="M71.5156 53.4792V51.1875" stroke="#191919" stroke-width="0.343756" stroke-linecap="round" stroke-linejoin="round"/>
</g>
<g clip-path="url(#clip3_8758_17722)">
<path d="M50.4195 52.8673C50.7883 52.8668 51.142 52.7201 51.4028 52.4593C51.6637 52.1984 51.8104 51.8448 51.8108 51.4759V50.9944C50.8907 51.1677 49.9457 51.161 49.0281 50.9746V51.4759C49.0285 51.8448 49.1752 52.1984 49.4361 52.4593C49.6969 52.7201 50.0506 52.8668 50.4195 52.8673Z" fill="#FAFAFA"/>
<path d="M56.1194 55.6215L54.9784 53.2233C54.7632 52.7743 54.3841 52.425 53.9191 52.2472L53.0484 51.9154C52.7039 51.8135 52.4524 51.4088 52.2503 51.1328V51.4102C52.2586 51.666 52.2134 51.9208 52.1177 52.1582C52.022 52.3956 51.8778 52.6104 51.6944 52.789C51.511 52.9675 51.2924 53.1059 51.0525 53.1953C50.8126 53.2846 50.5568 53.323 50.3012 53.3079C50.0457 53.2928 49.7961 53.2247 49.5684 53.1077C49.3407 52.9908 49.1399 52.8277 48.9787 52.6288C48.8176 52.4299 48.6997 52.1997 48.6325 51.9526C48.5654 51.7056 48.5504 51.4473 48.5887 51.1942C48.4381 51.4837 48.1919 51.7121 47.8919 51.8404L47.0763 52.1329C46.6081 52.2985 46.2222 52.6388 45.9992 53.0824L44.7197 55.6215C44.7019 55.66 44.7 55.7039 44.7144 55.7438C44.7288 55.7837 44.7584 55.8163 44.7966 55.8346L46.5009 56.6096C46.5329 56.6242 46.568 56.6309 46.6031 56.6291C46.6382 56.6274 46.6725 56.6172 46.7029 56.5995C46.7333 56.5818 46.759 56.557 46.7778 56.5273C46.7966 56.4976 46.8081 56.4638 46.8111 56.4287L46.8738 55.7144C46.8803 55.6571 46.909 55.6046 46.9537 55.5681C46.9983 55.5316 47.0555 55.514 47.1129 55.519C47.1704 55.524 47.2236 55.5513 47.2612 55.595C47.2989 55.6387 47.318 55.6954 47.3145 55.7529L46.7838 61.7851C46.7836 61.8279 46.7922 61.8703 46.809 61.9097C46.8258 61.9491 46.8505 61.9847 46.8816 62.0141C46.9128 62.0436 46.9496 62.0663 46.9898 62.081C47.0301 62.0957 47.0729 62.1019 47.1157 62.0994H53.7409C53.7839 62.1019 53.8269 62.0956 53.8673 62.0808C53.9077 62.066 53.9446 62.0431 53.9758 62.0133C54.0069 61.9836 54.0316 61.9479 54.0483 61.9082C54.065 61.8685 54.0733 61.8259 54.0728 61.7828C53.9789 60.7762 53.5903 56.671 53.5042 55.7542C53.5 55.6968 53.5185 55.6401 53.5557 55.5962C53.5929 55.5523 53.6457 55.5247 53.703 55.5193C53.7603 55.5139 53.8174 55.5311 53.8621 55.5673C53.9068 55.6035 53.9355 55.6558 53.9422 55.7129L54.0089 56.42C54.0122 56.4547 54.0237 56.4882 54.0425 56.5176C54.0613 56.547 54.0868 56.5715 54.1169 56.5891C54.1471 56.6067 54.181 56.6168 54.2158 56.6187C54.2507 56.6206 54.2855 56.6142 54.3173 56.6L56.0424 55.8303C56.0801 55.8125 56.1093 55.7806 56.1237 55.7415C56.1381 55.7024 56.1365 55.6595 56.1194 55.6215ZM50.0017 59.8483C50 59.9054 49.9761 59.9596 49.9351 59.9994C49.894 60.0392 49.8391 60.0614 49.782 60.0614C49.7249 60.0614 49.67 60.0392 49.6289 59.9994C49.5879 59.9596 49.564 59.9054 49.5623 59.8483V57.6328L49.349 57.7646C49.2995 57.7939 49.2404 57.8026 49.1846 57.7888C49.1287 57.775 49.0805 57.7399 49.0503 57.6909C49.0201 57.642 49.0103 57.5831 49.023 57.527C49.0357 57.4709 49.07 57.422 49.1183 57.3909L49.6656 57.05C49.699 57.0301 49.7371 57.0194 49.7761 57.0188C49.815 57.0183 49.8534 57.0279 49.8875 57.0468C49.9215 57.0658 49.95 57.0933 49.9701 57.1266C49.9902 57.16 50.0011 57.1981 50.0019 57.237L50.0017 59.8483ZM51.5823 59.8483C51.5823 59.9066 51.5591 59.9625 51.5179 60.0038C51.4767 60.045 51.4208 60.0681 51.3625 60.0681C51.3042 60.0681 51.2483 60.045 51.2071 60.0038C51.1658 59.9625 51.1427 59.9066 51.1427 59.8483V57.6328L50.9296 57.7646C50.88 57.7952 50.8203 57.8049 50.7636 57.7915C50.707 57.7781 50.6579 57.7427 50.6273 57.6932C50.5967 57.6436 50.587 57.5839 50.6004 57.5272C50.6138 57.4705 50.6492 57.4215 50.6987 57.3909L51.2459 57.05C51.2794 57.0301 51.3175 57.0194 51.3565 57.0188C51.3954 57.0183 51.4338 57.0279 51.4679 57.0468C51.5019 57.0658 51.5304 57.0933 51.5505 57.1266C51.5705 57.16 51.5815 57.1981 51.5823 57.237V59.8483Z" fill="#FAFAFA"/>
<path d="M50.0017 59.8483C50 59.9054 49.9761 59.9596 49.9351 59.9994C49.894 60.0392 49.8391 60.0614 49.782 60.0614C49.7249 60.0614 49.67 60.0392 49.6289 59.9994C49.5879 59.9596 49.564 59.9054 49.5623 59.8483V57.6328L49.349 57.7646C49.2995 57.7939 49.2404 57.8026 49.1846 57.7888C49.1287 57.775 49.0805 57.7399 49.0503 57.6909C49.0201 57.642 49.0103 57.5831 49.023 57.527C49.0357 57.4709 49.07 57.422 49.1183 57.3909L49.6656 57.05C49.699 57.0301 49.7371 57.0194 49.7761 57.0188C49.815 57.0183 49.8534 57.0279 49.8875 57.0468C49.9215 57.0658 49.95 57.0933 49.9701 57.1266C49.9902 57.16 50.0011 57.1981 50.0019 57.237L50.0017 59.8483Z" fill="#FAFAFA"/>
<path d="M51.5823 59.8483C51.5823 59.9066 51.5591 59.9625 51.5179 60.0038C51.4767 60.045 51.4208 60.0681 51.3625 60.0681C51.3042 60.0681 51.2483 60.045 51.2071 60.0038C51.1658 59.9625 51.1427 59.9066 51.1427 59.8483V57.6328L50.9296 57.7646C50.88 57.7952 50.8203 57.8049 50.7636 57.7915C50.707 57.7781 50.6579 57.7427 50.6273 57.6932C50.5967 57.6436 50.587 57.5839 50.6004 57.5272C50.6138 57.4705 50.6492 57.4215 50.6987 57.3909L51.2459 57.05C51.2794 57.0301 51.3175 57.0194 51.3565 57.0188C51.3954 57.0183 51.4338 57.0279 51.4679 57.0468C51.5019 57.0658 51.5304 57.0933 51.5505 57.1266C51.5705 57.16 51.5815 57.1981 51.5823 57.237V59.8483Z" fill="#FAFAFA"/>
<path d="M49.3884 57.332H51.6801" stroke="#191919" stroke-width="0.343756" stroke-linecap="round" stroke-linejoin="round"/>
<path d="M50.5344 58.4792V56.1875" stroke="#191919" stroke-width="0.343756" stroke-linecap="round" stroke-linejoin="round"/>
</g>
<g clip-path="url(#clip4_8758_17722)">
<path d="M30.4195 52.8673C30.7883 52.8668 31.142 52.7201 31.4028 52.4593C31.6637 52.1984 31.8104 51.8448 31.8108 51.4759V50.9944C30.8907 51.1677 29.9457 51.161 29.0281 50.9746V51.4759C29.0285 51.8448 29.1752 52.1984 29.4361 52.4593C29.6969 52.7201 30.0506 52.8668 30.4195 52.8673Z" fill="#FAFAFA"/>
<path d="M36.1194 55.6215L34.9784 53.2233C34.7632 52.7743 34.3841 52.425 33.9191 52.2472L33.0484 51.9154C32.7039 51.8135 32.4524 51.4088 32.2503 51.1328V51.4102C32.2586 51.666 32.2134 51.9208 32.1177 52.1582C32.022 52.3956 31.8778 52.6104 31.6944 52.789C31.511 52.9675 31.2924 53.1059 31.0525 53.1953C30.8126 53.2846 30.5568 53.323 30.3012 53.3079C30.0457 53.2928 29.7961 53.2247 29.5684 53.1077C29.3407 52.9908 29.1399 52.8277 28.9787 52.6288C28.8176 52.4299 28.6997 52.1997 28.6325 51.9526C28.5654 51.7056 28.5504 51.4473 28.5887 51.1942C28.4381 51.4837 28.1919 51.7121 27.8919 51.8404L27.0763 52.1329C26.6081 52.2985 26.2222 52.6388 25.9992 53.0824L24.7197 55.6215C24.7019 55.66 24.7 55.7039 24.7144 55.7438C24.7288 55.7837 24.7584 55.8163 24.7966 55.8346L26.5009 56.6096C26.5329 56.6242 26.568 56.6309 26.6031 56.6291C26.6382 56.6274 26.6725 56.6172 26.7029 56.5995C26.7333 56.5818 26.759 56.557 26.7778 56.5273C26.7966 56.4976 26.8081 56.4638 26.8111 56.4287L26.8738 55.7144C26.8803 55.6571 26.909 55.6046 26.9537 55.5681C26.9983 55.5316 27.0555 55.514 27.1129 55.519C27.1704 55.524 27.2236 55.5513 27.2612 55.595C27.2989 55.6387 27.318 55.6954 27.3145 55.7529L26.7838 61.7851C26.7836 61.8279 26.7922 61.8703 26.809 61.9097C26.8258 61.9491 26.8505 61.9847 26.8816 62.0141C26.9128 62.0436 26.9496 62.0663 26.9898 62.081C27.0301 62.0957 27.0729 62.1019 27.1157 62.0994H33.7409C33.7839 62.1019 33.8269 62.0956 33.8673 62.0808C33.9077 62.066 33.9446 62.0431 33.9758 62.0133C34.0069 61.9836 34.0316 61.9479 34.0483 61.9082C34.065 61.8685 34.0733 61.8259 34.0728 61.7828C33.9789 60.7762 33.5903 56.671 33.5042 55.7542C33.5 55.6968 33.5185 55.6401 33.5557 55.5962C33.5929 55.5523 33.6457 55.5247 33.703 55.5193C33.7603 55.5139 33.8174 55.5311 33.8621 55.5673C33.9068 55.6035 33.9355 55.6558 33.9422 55.7129L34.0089 56.42C34.0122 56.4547 34.0237 56.4882 34.0425 56.5176C34.0613 56.547 34.0868 56.5715 34.1169 56.5891C34.1471 56.6067 34.181 56.6168 34.2158 56.6187C34.2507 56.6206 34.2855 56.6142 34.3173 56.6L36.0424 55.8303C36.0801 55.8125 36.1093 55.7806 36.1237 55.7415C36.1381 55.7024 36.1365 55.6595 36.1194 55.6215ZM30.0017 59.8483C30 59.9054 29.9761 59.9596 29.9351 59.9994C29.894 60.0392 29.8391 60.0614 29.782 60.0614C29.7249 60.0614 29.67 60.0392 29.6289 59.9994C29.5879 59.9596 29.564 59.9054 29.5623 59.8483V57.6328L29.349 57.7646C29.2995 57.7939 29.2404 57.8026 29.1846 57.7888C29.1287 57.775 29.0805 57.7399 29.0503 57.6909C29.0201 57.642 29.0103 57.5831 29.023 57.527C29.0357 57.4709 29.07 57.422 29.1183 57.3909L29.6656 57.05C29.699 57.0301 29.7371 57.0194 29.7761 57.0188C29.815 57.0183 29.8534 57.0279 29.8875 57.0468C29.9215 57.0658 29.95 57.0933 29.9701 57.1266C29.9902 57.16 30.0011 57.1981 30.0019 57.237L30.0017 59.8483ZM31.5823 59.8483C31.5823 59.9066 31.5591 59.9625 31.5179 60.0038C31.4767 60.045 31.4208 60.0681 31.3625 60.0681C31.3042 60.0681 31.2483 60.045 31.2071 60.0038C31.1658 59.9625 31.1427 59.9066 31.1427 59.8483V57.6328L30.9296 57.7646C30.88 57.7952 30.8203 57.8049 30.7636 57.7915C30.707 57.7781 30.6579 57.7427 30.6273 57.6932C30.5967 57.6436 30.587 57.5839 30.6004 57.5272C30.6138 57.4705 30.6492 57.4215 30.6987 57.3909L31.2459 57.05C31.2794 57.0301 31.3175 57.0194 31.3565 57.0188C31.3954 57.0183 31.4338 57.0279 31.4679 57.0468C31.5019 57.0658 31.5304 57.0933 31.5505 57.1266C31.5705 57.16 31.5815 57.1981 31.5823 57.237V59.8483Z" fill="#FAFAFA"/>
<path d="M30.0017 59.8483C30 59.9054 29.9761 59.9596 29.9351 59.9994C29.894 60.0392 29.8391 60.0614 29.782 60.0614C29.7249 60.0614 29.67 60.0392 29.6289 59.9994C29.5879 59.9596 29.564 59.9054 29.5623 59.8483V57.6328L29.349 57.7646C29.2995 57.7939 29.2404 57.8026 29.1846 57.7888C29.1287 57.775 29.0805 57.7399 29.0503 57.6909C29.0201 57.642 29.0103 57.5831 29.023 57.527C29.0357 57.4709 29.07 57.422 29.1183 57.3909L29.6656 57.05C29.699 57.0301 29.7371 57.0194 29.7761 57.0188C29.815 57.0183 29.8534 57.0279 29.8875 57.0468C29.9215 57.0658 29.95 57.0933 29.9701 57.1266C29.9902 57.16 30.0011 57.1981 30.0019 57.237L30.0017 59.8483Z" fill="#FAFAFA"/>
<path d="M31.5823 59.8483C31.5823 59.9066 31.5591 59.9625 31.5179 60.0038C31.4767 60.045 31.4208 60.0681 31.3625 60.0681C31.3042 60.0681 31.2483 60.045 31.2071 60.0038C31.1658 59.9625 31.1427 59.9066 31.1427 59.8483V57.6328L30.9296 57.7646C30.88 57.7952 30.8203 57.8049 30.7636 57.7915C30.707 57.7781 30.6579 57.7427 30.6273 57.6932C30.5967 57.6436 30.587 57.5839 30.6004 57.5272C30.6138 57.4705 30.6492 57.4215 30.6987 57.3909L31.2459 57.05C31.2794 57.0301 31.3175 57.0194 31.3565 57.0188C31.3954 57.0183 31.4338 57.0279 31.4679 57.0468C31.5019 57.0658 31.5304 57.0933 31.5505 57.1266C31.5705 57.16 31.5815 57.1981 31.5823 57.237V59.8483Z" fill="#FAFAFA"/>
<path d="M29.3884 57.332H31.6801" stroke="#191919" stroke-width="0.343756" stroke-linecap="round" stroke-linejoin="round"/>
<path d="M30.5344 58.4792V56.1875" stroke="#191919" stroke-width="0.343756" stroke-linecap="round" stroke-linejoin="round"/>
</g>
<g clip-path="url(#clip5_8758_17722)">
<path d="M8.41946 14.8673C8.78835 14.8668 9.142 14.7201 9.40284 14.4593C9.66369 14.1984 9.81042 13.8448 9.81085 13.4759V12.9944C8.8907 13.1677 7.94567 13.161 7.02808 12.9746V13.4759C7.02851 13.8448 7.17524 14.1984 7.43608 14.4593C7.69692 14.7201 8.05058 14.8668 8.41946 14.8673Z" fill="#FAFAFA"/>
<path d="M14.1194 17.6215L12.9784 15.2233C12.7632 14.7743 12.3841 14.425 11.9191 14.2472L11.0484 13.9154C10.7039 13.8135 10.4524 13.4088 10.2503 13.1328V13.4102C10.2586 13.666 10.2134 13.9208 10.1177 14.1582C10.022 14.3956 9.87779 14.6104 9.69439 14.789C9.51098 14.9675 9.29237 15.1059 9.0525 15.1953C8.81263 15.2846 8.55677 15.323 8.30124 15.3079C8.04571 15.2928 7.79613 15.2247 7.56842 15.1077C7.34071 14.9908 7.13988 14.8277 6.97874 14.6288C6.8176 14.4299 6.69969 14.1997 6.63253 13.9526C6.56537 13.7056 6.55044 13.4473 6.5887 13.1942C6.43813 13.4837 6.19188 13.7121 5.89188 13.8404L5.07628 14.1329C4.60814 14.2985 4.2222 14.6388 3.99921 15.0824L2.71967 17.6215C2.70191 17.66 2.70002 17.7039 2.71442 17.7438C2.72882 17.7837 2.75835 17.8163 2.79662 17.8346L4.5009 18.6096C4.53291 18.6242 4.56796 18.6309 4.60311 18.6291C4.63825 18.6274 4.67246 18.6172 4.70286 18.5995C4.73325 18.5818 4.75896 18.557 4.7778 18.5273C4.79664 18.4976 4.80808 18.4638 4.81114 18.4287L4.8738 17.7144C4.88034 17.6571 4.90899 17.6046 4.95365 17.5681C4.99832 17.5316 5.05547 17.514 5.11292 17.519C5.17038 17.524 5.2236 17.5513 5.26125 17.595C5.29889 17.6387 5.31799 17.6954 5.31447 17.7529L4.78379 23.7851C4.78358 23.8279 4.79215 23.8703 4.80898 23.9097C4.82581 23.9491 4.85055 23.9847 4.88165 24.0141C4.91275 24.0436 4.94957 24.0663 4.98982 24.081C5.03007 24.0957 5.0729 24.1019 5.11567 24.0994H11.7409C11.7839 24.1019 11.8269 24.0956 11.8673 24.0808C11.9077 24.066 11.9446 24.0431 11.9758 24.0133C12.0069 23.9836 12.0316 23.9479 12.0483 23.9082C12.065 23.8685 12.0733 23.8259 12.0728 23.7828C11.9789 22.7762 11.5903 18.671 11.5042 17.7542C11.5 17.6968 11.5185 17.6401 11.5557 17.5962C11.5929 17.5523 11.6457 17.5247 11.703 17.5193C11.7603 17.5139 11.8174 17.5311 11.8621 17.5673C11.9068 17.6035 11.9355 17.6558 11.9422 17.7129L12.0089 18.42C12.0122 18.4547 12.0237 18.4882 12.0425 18.5176C12.0613 18.547 12.0868 18.5715 12.1169 18.5891C12.1471 18.6067 12.181 18.6168 12.2158 18.6187C12.2507 18.6206 12.2855 18.6142 12.3173 18.6L14.0424 17.8303C14.0801 17.8125 14.1093 17.7806 14.1237 17.7415C14.1381 17.7024 14.1365 17.6595 14.1194 17.6215ZM8.00172 21.8483C7.99998 21.9054 7.97607 21.9596 7.93505 21.9994C7.89403 22.0392 7.83914 22.0614 7.782 22.0614C7.72486 22.0614 7.66996 22.0392 7.62895 21.9994C7.58793 21.9596 7.56402 21.9054 7.56228 21.8483V19.6328L7.34899 19.7646C7.29947 19.7939 7.24044 19.8026 7.18458 19.7888C7.12873 19.775 7.08051 19.7399 7.0503 19.6909C7.02008 19.642 7.01029 19.5831 7.02301 19.527C7.03574 19.4709 7.06997 19.422 7.11835 19.3909L7.66556 19.05C7.69904 19.0301 7.73715 19.0194 7.77609 19.0188C7.81503 19.0183 7.85343 19.0279 7.88747 19.0468C7.92151 19.0658 7.94999 19.0933 7.97007 19.1266C7.99016 19.16 8.00114 19.1981 8.00192 19.237L8.00172 21.8483ZM9.58231 21.8483C9.58231 21.9066 9.55915 21.9625 9.51793 22.0038C9.4767 22.045 9.42079 22.0681 9.36249 22.0681C9.30419 22.0681 9.24828 22.045 9.20705 22.0038C9.16583 21.9625 9.14267 21.9066 9.14267 21.8483V19.6328L8.92958 19.7646C8.88002 19.7952 8.82033 19.8049 8.76365 19.7915C8.70696 19.7781 8.65791 19.7427 8.6273 19.6932C8.59669 19.6436 8.58702 19.5839 8.60042 19.5272C8.61381 19.4705 8.64918 19.4215 8.69874 19.3909L9.24594 19.05C9.27942 19.0301 9.31754 19.0194 9.35648 19.0188C9.39541 19.0183 9.43382 19.0279 9.46786 19.0468C9.5019 19.0658 9.53038 19.0933 9.55046 19.1266C9.57054 19.16 9.58153 19.1981 9.58231 19.237V21.8483Z" fill="#FAFAFA"/>
<path d="M8.00172 21.8483C7.99998 21.9054 7.97607 21.9596 7.93505 21.9994C7.89403 22.0392 7.83914 22.0614 7.782 22.0614C7.72486 22.0614 7.66996 22.0392 7.62895 21.9994C7.58793 21.9596 7.56402 21.9054 7.56228 21.8483V19.6328L7.34899 19.7646C7.29947 19.7939 7.24044 19.8026 7.18458 19.7888C7.12873 19.775 7.08051 19.7399 7.0503 19.6909C7.02008 19.642 7.01029 19.5831 7.02301 19.527C7.03574 19.4709 7.06997 19.422 7.11835 19.3909L7.66556 19.05C7.69904 19.0301 7.73715 19.0194 7.77609 19.0188C7.81503 19.0183 7.85343 19.0279 7.88747 19.0468C7.92151 19.0658 7.94999 19.0933 7.97007 19.1266C7.99016 19.16 8.00114 19.1981 8.00192 19.237L8.00172 21.8483Z" fill="#FAFAFA"/>
<path d="M9.58231 21.8483C9.58231 21.9066 9.55915 21.9625 9.51793 22.0038C9.4767 22.045 9.42079 22.0681 9.36249 22.0681C9.30419 22.0681 9.24828 22.045 9.20705 22.0038C9.16583 21.9625 9.14267 21.9066 9.14267 21.8483V19.6328L8.92958 19.7646C8.88002 19.7952 8.82033 19.8049 8.76365 19.7915C8.70696 19.7781 8.65791 19.7427 8.6273 19.6932C8.59669 19.6436 8.58702 19.5839 8.60042 19.5272C8.61381 19.4705 8.64918 19.4215 8.69874 19.3909L9.24594 19.05C9.27942 19.0301 9.31754 19.0194 9.35648 19.0188C9.39541 19.0183 9.43382 19.0279 9.46786 19.0468C9.5019 19.0658 9.53038 19.0933 9.55046 19.1266C9.57054 19.16 9.58153 19.1981 9.58231 19.237V21.8483Z" fill="#FAFAFA"/>
<path d="M7.38843 19.332H9.68014" stroke="#191919" stroke-width="0.343756" stroke-linecap="round" stroke-linejoin="round"/>
<path d="M8.53442 20.4792V18.1875" stroke="#191919" stroke-width="0.343756" stroke-linecap="round" stroke-linejoin="round"/>
</g>
<path d="M23.4822 29.8673C23.8511 29.8668 24.2047 29.7201 24.4656 29.4593C24.7264 29.1984 24.8732 28.8448 24.8736 28.4759V27.9944C23.9534 28.1677 23.0084 28.161 22.0908 27.9746V28.4759C22.0913 28.8448 22.238 29.1984 22.4988 29.4593C22.7597 29.7201 23.1133 29.8668 23.4822 29.8673Z" fill="#FAFAFA"/>
<path d="M29.1821 32.6215L28.0412 30.2233C27.826 29.7743 27.4469 29.425 26.9819 29.2472L26.1111 28.9154C25.7666 28.8135 25.5152 28.4088 25.3131 28.1328V28.4102C25.3213 28.666 25.2761 28.9208 25.1804 29.1582C25.0847 29.3956 24.9405 29.6104 24.7571 29.789C24.5737 29.9675 24.3551 30.1059 24.1152 30.1953C23.8754 30.2846 23.6195 30.323 23.364 30.3079C23.1085 30.2928 22.8589 30.2247 22.6312 30.1077C22.4035 29.9908 22.2026 29.8277 22.0415 29.6288C21.8803 29.4299 21.7624 29.1997 21.6953 28.9526C21.6281 28.7056 21.6132 28.4473 21.6514 28.1942C21.5009 28.4837 21.2546 28.7121 20.9546 28.8404L20.139 29.1329C19.6709 29.2985 19.2849 29.6388 19.062 30.0824L17.7824 32.6215C17.7646 32.66 17.7628 32.7039 17.7772 32.7438C17.7916 32.7837 17.8211 32.8163 17.8594 32.8346L19.5636 33.6096C19.5957 33.6242 19.6307 33.6309 19.6658 33.6291C19.701 33.6274 19.7352 33.6172 19.7656 33.5995C19.796 33.5818 19.8217 33.557 19.8405 33.5273C19.8594 33.4976 19.8708 33.4638 19.8739 33.4287L19.9365 32.7144C19.9431 32.6571 19.9717 32.6046 20.0164 32.5681C20.0611 32.5316 20.1182 32.514 20.1757 32.519C20.2331 32.524 20.2863 32.5513 20.324 32.595C20.3616 32.6387 20.3807 32.6954 20.3772 32.7529L19.8465 38.7851C19.8463 38.8279 19.8549 38.8703 19.8717 38.9097C19.8886 38.9491 19.9133 38.9847 19.9444 39.0141C19.9755 39.0436 20.0123 39.0663 20.0526 39.081C20.0928 39.0957 20.1356 39.1019 20.1784 39.0994H26.8037C26.8466 39.1019 26.8896 39.0956 26.9301 39.0808C26.9705 39.066 27.0074 39.0431 27.0385 39.0133C27.0697 38.9836 27.0943 38.9479 27.111 38.9082C27.1277 38.8685 27.1361 38.8259 27.1355 38.7828C27.0417 37.7762 26.653 33.671 26.5669 32.7542C26.5628 32.6968 26.5813 32.6401 26.6184 32.5962C26.6556 32.5523 26.7085 32.5247 26.7657 32.5193C26.823 32.5139 26.8801 32.5311 26.9248 32.5673C26.9695 32.6035 26.9983 32.6558 27.0049 32.7129L27.0717 33.42C27.075 33.4547 27.0865 33.4882 27.1053 33.5176C27.124 33.547 27.1496 33.5715 27.1797 33.5891C27.2098 33.6067 27.2437 33.6168 27.2786 33.6187C27.3134 33.6206 27.3482 33.6142 27.3801 33.6L29.1052 32.8303C29.1428 32.8125 29.172 32.7806 29.1864 32.7415C29.2008 32.7024 29.1993 32.6595 29.1821 32.6215ZM23.0645 36.8483C23.0627 36.9054 23.0388 36.9596 22.9978 36.9994C22.9568 37.0392 22.9019 37.0614 22.8447 37.0614C22.7876 37.0614 22.7327 37.0392 22.6917 36.9994C22.6507 36.9596 22.6268 36.9054 22.625 36.8483V34.6328L22.4117 34.7646C22.3622 34.7939 22.3032 34.8026 22.2473 34.7888C22.1915 34.775 22.1433 34.7399 22.113 34.6909C22.0828 34.642 22.073 34.5831 22.0858 34.527C22.0985 34.4709 22.1327 34.422 22.1811 34.3909L22.7283 34.05C22.7618 34.0301 22.7999 34.0194 22.8388 34.0188C22.8778 34.0183 22.9162 34.0279 22.9502 34.0468C22.9843 34.0658 23.0127 34.0933 23.0328 34.1266C23.0529 34.16 23.0639 34.1981 23.0647 34.237L23.0645 36.8483ZM24.6451 36.8483C24.6451 36.9066 24.6219 36.9625 24.5807 37.0038C24.5394 37.045 24.4835 37.0681 24.4252 37.0681C24.3669 37.0681 24.311 37.045 24.2698 37.0038C24.2286 36.9625 24.2054 36.9066 24.2054 36.8483V34.6328L23.9923 34.7646C23.9428 34.7952 23.8831 34.8049 23.8264 34.7915C23.7697 34.7781 23.7207 34.7427 23.69 34.6932C23.6594 34.6436 23.6498 34.5839 23.6632 34.5272C23.6766 34.4705 23.7119 34.4215 23.7615 34.3909L24.3087 34.05C24.3422 34.0301 24.3803 34.0194 24.4192 34.0188C24.4582 34.0183 24.4966 34.0279 24.5306 34.0468C24.5646 34.0658 24.5931 34.0933 24.6132 34.1266C24.6333 34.16 24.6443 34.1981 24.6451 34.237V36.8483Z" fill="#FAFAFA"/>
<path d="M23.0645 36.8483C23.0627 36.9054 23.0388 36.9596 22.9978 36.9994C22.9568 37.0392 22.9019 37.0614 22.8447 37.0614C22.7876 37.0614 22.7327 37.0392 22.6917 36.9994C22.6507 36.9596 22.6268 36.9054 22.625 36.8483V34.6328L22.4117 34.7646C22.3622 34.7939 22.3032 34.8026 22.2473 34.7888C22.1915 34.775 22.1433 34.7399 22.113 34.6909C22.0828 34.642 22.073 34.5831 22.0858 34.527C22.0985 34.4709 22.1327 34.422 22.1811 34.3909L22.7283 34.05C22.7618 34.0301 22.7999 34.0194 22.8388 34.0188C22.8778 34.0183 22.9162 34.0279 22.9502 34.0468C22.9843 34.0658 23.0127 34.0933 23.0328 34.1266C23.0529 34.16 23.0639 34.1981 23.0647 34.237L23.0645 36.8483Z" fill="#FAFAFA"/>
<path d="M24.6451 36.8483C24.6451 36.9066 24.6219 36.9625 24.5807 37.0038C24.5394 37.045 24.4835 37.0681 24.4252 37.0681C24.3669 37.0681 24.311 37.045 24.2698 37.0038C24.2286 36.9625 24.2054 36.9066 24.2054 36.8483V34.6328L23.9923 34.7646C23.9428 34.7952 23.8831 34.8049 23.8264 34.7915C23.7697 34.7781 23.7207 34.7427 23.69 34.6932C23.6594 34.6436 23.6498 34.5839 23.6632 34.5272C23.6766 34.4705 23.7119 34.4215 23.7615 34.3909L24.3087 34.05C24.3422 34.0301 24.3803 34.0194 24.4192 34.0188C24.4582 34.0183 24.4966 34.0279 24.5306 34.0468C24.5646 34.0658 24.5931 34.0933 24.6132 34.1266C24.6333 34.16 24.6443 34.1981 24.6451 34.237V36.8483Z" fill="#FAFAFA"/>
<path d="M22.4512 34.332H24.7429" stroke="#191919" stroke-width="0.343756" stroke-linecap="round" stroke-linejoin="round"/>
<path d="M23.5972 35.4792V33.1875" stroke="#191919" stroke-width="0.343756" stroke-linecap="round" stroke-linejoin="round"/>
<g clip-path="url(#clip6_8758_17722)">
<path d="M71.545 14.8673C71.9138 14.8668 72.2675 14.7201 72.5283 14.4593C72.7892 14.1984 72.9359 13.8448 72.9363 13.4759V12.9944C72.0162 13.1677 71.0712 13.161 70.1536 12.9746V13.4759C70.154 13.8448 70.3007 14.1984 70.5616 14.4593C70.8224 14.7201 71.1761 14.8668 71.545 14.8673Z" fill="#FAFAFA"/>
<path d="M77.2449 17.6215L76.1039 15.2233C75.8887 14.7743 75.5096 14.425 75.0446 14.2472L74.1739 13.9154C73.8294 13.8135 73.5779 13.4088 73.3758 13.1328V13.4102C73.3841 13.666 73.3389 13.9208 73.2432 14.1582C73.1474 14.3956 73.0033 14.6104 72.8199 14.789C72.6365 14.9675 72.4179 15.1059 72.178 15.1953C71.9381 15.2846 71.6823 15.323 71.4267 15.3079C71.1712 15.2928 70.9216 15.2247 70.6939 15.1077C70.4662 14.9908 70.2654 14.8277 70.1042 14.6288C69.9431 14.4299 69.8252 14.1997 69.758 13.9526C69.6909 13.7056 69.6759 13.4473 69.7142 13.1942C69.5636 13.4837 69.3174 13.7121 69.0174 13.8404L68.2018 14.1329C67.7336 14.2985 67.3477 14.6388 67.1247 15.0824L65.8452 17.6215C65.8274 17.66 65.8255 17.7039 65.8399 17.7438C65.8543 17.7837 65.8838 17.8163 65.9221 17.8346L67.6264 18.6096C67.6584 18.6242 67.6935 18.6309 67.7286 18.6291C67.7637 18.6274 67.7979 18.6172 67.8283 18.5995C67.8587 18.5818 67.8844 18.557 67.9033 18.5273C67.9221 18.4976 67.9336 18.4638 67.9366 18.4287L67.9993 17.7144C68.0058 17.6571 68.0345 17.6046 68.0791 17.5681C68.1238 17.5316 68.181 17.514 68.2384 17.519C68.2959 17.524 68.3491 17.5513 68.3867 17.595C68.4244 17.6387 68.4435 17.6954 68.44 17.7529L67.9093 23.7851C67.9091 23.8279 67.9176 23.8703 67.9345 23.9097C67.9513 23.9491 67.976 23.9847 68.0071 24.0141C68.0382 24.0436 68.0751 24.0663 68.1153 24.081C68.1556 24.0957 68.1984 24.1019 68.2412 24.0994H74.8664C74.9094 24.1019 74.9524 24.0956 74.9928 24.0808C75.0332 24.066 75.0701 24.0431 75.1013 24.0133C75.1324 23.9836 75.1571 23.9479 75.1738 23.9082C75.1905 23.8685 75.1988 23.8259 75.1983 23.7828C75.1044 22.7762 74.7158 18.671 74.6297 17.7542C74.6255 17.6968 74.644 17.6401 74.6812 17.5962C74.7183 17.5523 74.7712 17.5247 74.8285 17.5193C74.8858 17.5139 74.9429 17.5311 74.9876 17.5673C75.0323 17.6035 75.061 17.6558 75.0677 17.7129L75.1344 18.42C75.1377 18.4547 75.1492 18.4882 75.168 18.5176C75.1868 18.547 75.2123 18.5715 75.2424 18.5891C75.2726 18.6067 75.3065 18.6168 75.3413 18.6187C75.3761 18.6206 75.4109 18.6142 75.4428 18.6L77.1679 17.8303C77.2056 17.8125 77.2348 17.7806 77.2492 17.7415C77.2636 17.7024 77.262 17.6595 77.2449 17.6215ZM71.1272 21.8483C71.1255 21.9054 71.1016 21.9596 71.0605 21.9994C71.0195 22.0392 70.9646 22.0614 70.9075 22.0614C70.8503 22.0614 70.7955 22.0392 70.7544 21.9994C70.7134 21.9596 70.6895 21.9054 70.6878 21.8483V19.6328L70.4745 19.7646C70.425 19.7939 70.3659 19.8026 70.3101 19.7888C70.2542 19.775 70.206 19.7399 70.1758 19.6909C70.1456 19.642 70.1358 19.5831 70.1485 19.527C70.1612 19.4709 70.1955 19.422 70.2438 19.3909L70.791 19.05C70.8245 19.0301 70.8626 19.0194 70.9016 19.0188C70.9405 19.0183 70.9789 19.0279 71.013 19.0468C71.047 19.0658 71.0755 19.0933 71.0956 19.1266C71.1156 19.16 71.1266 19.1981 71.1274 19.237L71.1272 21.8483ZM72.7078 21.8483C72.7078 21.9066 72.6846 21.9625 72.6434 22.0038C72.6022 22.045 72.5463 22.0681 72.488 22.0681C72.4297 22.0681 72.3738 22.045 72.3325 22.0038C72.2913 21.9625 72.2682 21.9066 72.2682 21.8483V19.6328L72.0551 19.7646C72.0055 19.7952 71.9458 19.8049 71.8891 19.7915C71.8324 19.7781 71.7834 19.7427 71.7528 19.6932C71.7222 19.6436 71.7125 19.5839 71.7259 19.5272C71.7393 19.4705 71.7747 19.4215 71.8242 19.3909L72.3714 19.05C72.4049 19.0301 72.443 19.0194 72.482 19.0188C72.5209 19.0183 72.5593 19.0279 72.5933 19.0468C72.6274 19.0658 72.6559 19.0933 72.676 19.1266C72.696 19.16 72.707 19.1981 72.7078 19.237V21.8483Z" fill="#FAFAFA"/>
<path d="M71.1272 21.8483C71.1255 21.9054 71.1016 21.9596 71.0605 21.9994C71.0195 22.0392 70.9646 22.0614 70.9075 22.0614C70.8503 22.0614 70.7955 22.0392 70.7544 21.9994C70.7134 21.9596 70.6895 21.9054 70.6878 21.8483V19.6328L70.4745 19.7646C70.425 19.7939 70.3659 19.8026 70.3101 19.7888C70.2542 19.775 70.206 19.7399 70.1758 19.6909C70.1456 19.642 70.1358 19.5831 70.1485 19.527C70.1612 19.4709 70.1955 19.422 70.2438 19.3909L70.791 19.05C70.8245 19.0301 70.8626 19.0194 70.9016 19.0188C70.9405 19.0183 70.9789 19.0279 71.013 19.0468C71.047 19.0658 71.0755 19.0933 71.0956 19.1266C71.1156 19.16 71.1266 19.1981 71.1274 19.237L71.1272 21.8483Z" fill="#FAFAFA"/>
<path d="M72.7078 21.8483C72.7078 21.9066 72.6846 21.9625 72.6434 22.0038C72.6022 22.045 72.5463 22.0681 72.488 22.0681C72.4297 22.0681 72.3738 22.045 72.3325 22.0038C72.2913 21.9625 72.2682 21.9066 72.2682 21.8483V19.6328L72.0551 19.7646C72.0055 19.7952 71.9458 19.8049 71.8891 19.7915C71.8324 19.7781 71.7834 19.7427 71.7528 19.6932C71.7222 19.6436 71.7125 19.5839 71.7259 19.5272C71.7393 19.4705 71.7747 19.4215 71.8242 19.3909L72.3714 19.05C72.4049 19.0301 72.443 19.0194 72.482 19.0188C72.5209 19.0183 72.5593 19.0279 72.5933 19.0468C72.6274 19.0658 72.6559 19.0933 72.676 19.1266C72.696 19.16 72.707 19.1981 72.7078 19.237V21.8483Z" fill="#FAFAFA"/>
<path d="M70.5139 19.332H72.8056" stroke="#191919" stroke-width="0.343756" stroke-linecap="round" stroke-linejoin="round"/>
<path d="M71.6599 20.4792V18.1875" stroke="#191919" stroke-width="0.343756" stroke-linecap="round" stroke-linejoin="round"/>
</g>
<g clip-path="url(#clip7_8758_17722)">
<path d="M27.6077 4.86728C27.9766 4.86685 28.3302 4.72012 28.5911 4.45927C28.8519 4.19843 28.9986 3.84478 28.9991 3.47589V2.99441C28.0789 3.16774 27.1339 3.16102 26.2163 2.97461V3.47589C26.2167 3.84478 26.3635 4.19843 26.6243 4.45927C26.8852 4.72012 27.2388 4.86685 27.6077 4.86728Z" fill="#FAFAFA"/>
<path d="M33.3076 7.6215L32.1667 5.22326C31.9515 4.77433 31.5723 4.42501 31.1073 4.24723L30.2366 3.91535C29.8921 3.8135 29.6406 3.40876 29.4386 3.13281V3.41019C29.4468 3.66603 29.4016 3.92078 29.3059 4.15818C29.2102 4.39558 29.066 4.61042 28.8826 4.78898C28.6992 4.96755 28.4806 5.10592 28.2407 5.19527C28.0009 5.28462 27.745 5.32299 27.4895 5.30792C27.2339 5.29285 26.9844 5.22467 26.7567 5.10775C26.5289 4.99082 26.3281 4.82772 26.167 4.62883C26.0058 4.42994 25.8879 4.19965 25.8208 3.95265C25.7536 3.70564 25.7387 3.44735 25.7769 3.19425C25.6264 3.48374 25.3801 3.7121 25.0801 3.84045L24.2645 4.13293C23.7964 4.29852 23.4104 4.63876 23.1874 5.08243L21.9079 7.6215C21.8901 7.66 21.8882 7.70395 21.9027 7.74383C21.9171 7.78371 21.9466 7.81632 21.9849 7.83458L23.6891 8.60957C23.7211 8.62418 23.7562 8.63089 23.7913 8.62913C23.8265 8.62738 23.8607 8.61722 23.8911 8.5995C23.9215 8.58178 23.9472 8.55702 23.966 8.52731C23.9849 8.49759 23.9963 8.46379 23.9994 8.42873L24.062 7.71437C24.0686 7.65706 24.0972 7.60457 24.1419 7.56808C24.1866 7.53159 24.2437 7.51399 24.3012 7.51902C24.3586 7.52405 24.4118 7.55131 24.4495 7.59501C24.4871 7.6387 24.5062 7.69537 24.5027 7.75294L23.972 13.7851C23.9718 13.8279 23.9804 13.8703 23.9972 13.9097C24.014 13.9491 24.0388 13.9847 24.0699 14.0141C24.101 14.0436 24.1378 14.0663 24.1781 14.081C24.2183 14.0957 24.2611 14.1019 24.3039 14.0994H30.9292C30.9721 14.1019 31.0151 14.0956 31.0555 14.0808C31.0959 14.066 31.1329 14.0431 31.164 14.0133C31.1951 13.9836 31.2198 13.9479 31.2365 13.9082C31.2532 13.8685 31.2616 13.8259 31.261 13.7828C31.1671 12.7762 30.7785 8.67101 30.6924 7.75417C30.6883 7.69679 30.7068 7.64008 30.7439 7.59618C30.7811 7.55227 30.834 7.52467 30.8912 7.51928C30.9485 7.51389 31.0056 7.53114 31.0503 7.56734C31.095 7.60353 31.1238 7.6558 31.1304 7.71294L31.1972 8.41996C31.2004 8.4547 31.212 8.48815 31.2307 8.51756C31.2495 8.54697 31.275 8.57148 31.3052 8.58908C31.3353 8.60667 31.3692 8.61683 31.404 8.61873C31.4389 8.62062 31.4737 8.6142 31.5056 8.59998L33.2307 7.8303C33.2683 7.81252 33.2975 7.78065 33.3119 7.74155C33.3263 7.70245 33.3248 7.65946 33.3076 7.6215ZM27.1899 11.8483C27.1882 11.9054 27.1643 11.9596 27.1233 11.9994C27.0823 12.0392 27.0274 12.0614 26.9702 12.0614C26.9131 12.0614 26.8582 12.0392 26.8172 11.9994C26.7762 11.9596 26.7523 11.9054 26.7505 11.8483V9.63275L26.5372 9.7646C26.4877 9.79389 26.4287 9.80258 26.3728 9.7888C26.317 9.77502 26.2687 9.73987 26.2385 9.69091C26.2083 9.64196 26.1985 9.5831 26.2112 9.52699C26.224 9.47089 26.2582 9.42202 26.3066 9.39089L26.8538 9.05003C26.8873 9.03014 26.9254 9.01938 26.9643 9.01882C27.0033 9.01826 27.0417 9.02792 27.0757 9.04684C27.1097 9.06576 27.1382 9.09328 27.1583 9.12664C27.1784 9.16001 27.1894 9.19806 27.1902 9.23699L27.1899 11.8483ZM28.7705 11.8483C28.7705 11.9066 28.7474 11.9625 28.7062 12.0038C28.6649 12.045 28.609 12.0681 28.5507 12.0681C28.4924 12.0681 28.4365 12.045 28.3953 12.0038C28.3541 11.9625 28.3309 11.9066 28.3309 11.8483V9.63275L28.1178 9.7646C28.0683 9.79522 28.0086 9.80489 27.9519 9.79149C27.8952 9.77809 27.8461 9.74273 27.8155 9.69317C27.7849 9.64361 27.7753 9.58392 27.7886 9.52723C27.802 9.47054 27.8374 9.4215 27.887 9.39089L28.4342 9.05003C28.4677 9.03014 28.5058 9.01938 28.5447 9.01882C28.5836 9.01826 28.6221 9.02792 28.6561 9.04684C28.6901 9.06576 28.7186 9.09328 28.7387 9.12664C28.7588 9.16001 28.7698 9.19806 28.7705 9.23699V11.8483Z" fill="#FAFAFA"/>
<path d="M27.1899 11.8483C27.1882 11.9054 27.1643 11.9596 27.1233 11.9994C27.0823 12.0392 27.0274 12.0614 26.9702 12.0614C26.9131 12.0614 26.8582 12.0392 26.8172 11.9994C26.7762 11.9596 26.7523 11.9054 26.7505 11.8483V9.63275L26.5372 9.7646C26.4877 9.79389 26.4287 9.80258 26.3728 9.7888C26.317 9.77502 26.2687 9.73987 26.2385 9.69091C26.2083 9.64196 26.1985 9.5831 26.2112 9.52699C26.224 9.47089 26.2582 9.42202 26.3066 9.39089L26.8538 9.05003C26.8873 9.03014 26.9254 9.01938 26.9643 9.01882C27.0033 9.01826 27.0417 9.02792 27.0757 9.04684C27.1097 9.06576 27.1382 9.09328 27.1583 9.12664C27.1784 9.16001 27.1894 9.19806 27.1902 9.23699L27.1899 11.8483Z" fill="#FAFAFA"/>
<path d="M28.7705 11.8483C28.7705 11.9066 28.7474 11.9625 28.7062 12.0038C28.6649 12.045 28.609 12.0681 28.5507 12.0681C28.4924 12.0681 28.4365 12.045 28.3953 12.0038C28.3541 11.9625 28.3309 11.9066 28.3309 11.8483V9.63275L28.1178 9.7646C28.0683 9.79522 28.0086 9.80489 27.9519 9.79149C27.8952 9.77809 27.8461 9.74273 27.8155 9.69317C27.7849 9.64361 27.7753 9.58392 27.7886 9.52723C27.802 9.47054 27.8374 9.4215 27.887 9.39089L28.4342 9.05003C28.4677 9.03014 28.5058 9.01938 28.5447 9.01882C28.5836 9.01826 28.6221 9.02792 28.6561 9.04684C28.6901 9.06576 28.7186 9.09328 28.7387 9.12664C28.7588 9.16001 28.7698 9.19806 28.7705 9.23699V11.8483Z" fill="#FAFAFA"/>
<path d="M26.5767 9.33203H28.8684" stroke="#191919" stroke-width="0.343756" stroke-linecap="round" stroke-linejoin="round"/>
<path d="M27.7227 10.4792V8.1875" stroke="#191919" stroke-width="0.343756" stroke-linecap="round" stroke-linejoin="round"/>
</g>
<g clip-path="url(#clip8_8758_17722)">
<path d="M57.6704 29.8673C58.0393 29.8668 58.393 29.7201 58.6538 29.4593C58.9147 29.1984 59.0614 28.8448 59.0618 28.4759V27.9944C58.1417 28.1677 57.1966 28.161 56.2791 27.9746V28.4759C56.2795 28.8448 56.4262 29.1984 56.6871 29.4593C56.9479 29.7201 57.3016 29.8668 57.6704 29.8673Z" fill="#FAFAFA"/>
<path d="M63.3703 32.6215L62.2294 30.2233C62.0142 29.7743 61.6351 29.425 61.1701 29.2472L60.2994 28.9154C59.9548 28.8135 59.7034 28.4088 59.5013 28.1328V28.4102C59.5096 28.666 59.4644 28.9208 59.3687 29.1582C59.2729 29.3956 59.1288 29.6104 58.9454 29.789C58.762 29.9675 58.5434 30.1059 58.3035 30.1953C58.0636 30.2846 57.8077 30.323 57.5522 30.3079C57.2967 30.2928 57.0471 30.2247 56.8194 30.1077C56.5917 29.9908 56.3909 29.8277 56.2297 29.6288C56.0686 29.4299 55.9507 29.1997 55.8835 28.9526C55.8163 28.7056 55.8014 28.4473 55.8397 28.1942C55.6891 28.4837 55.4429 28.7121 55.1429 28.8404L54.3273 29.1329C53.8591 29.2985 53.4732 29.6388 53.2502 30.0824L51.9707 32.6215C51.9529 32.66 51.951 32.7039 51.9654 32.7438C51.9798 32.7837 52.0093 32.8163 52.0476 32.8346L53.7519 33.6096C53.7839 33.6242 53.8189 33.6309 53.8541 33.6291C53.8892 33.6274 53.9234 33.6172 53.9538 33.5995C53.9842 33.5818 54.0099 33.557 54.0288 33.5273C54.0476 33.4976 54.0591 33.4638 54.0621 33.4287L54.1248 32.7144C54.1313 32.6571 54.16 32.6046 54.2046 32.5681C54.2493 32.5316 54.3064 32.514 54.3639 32.519C54.4214 32.524 54.4746 32.5513 54.5122 32.595C54.5499 32.6387 54.569 32.6954 54.5654 32.7529L54.0348 38.7851C54.0346 38.8279 54.0431 38.8703 54.06 38.9097C54.0768 38.9491 54.1015 38.9847 54.1326 39.0141C54.1637 39.0436 54.2005 39.0663 54.2408 39.081C54.281 39.0957 54.3239 39.1019 54.3666 39.0994H60.9919C61.0349 39.1019 61.0779 39.0956 61.1183 39.0808C61.1587 39.066 61.1956 39.0431 61.2267 39.0133C61.2579 38.9836 61.2826 38.9479 61.2993 38.9082C61.316 38.8685 61.3243 38.8259 61.3238 38.7828C61.2299 37.7762 60.8413 33.671 60.7551 32.7542C60.751 32.6968 60.7695 32.6401 60.8067 32.5962C60.8438 32.5523 60.8967 32.5247 60.954 32.5193C61.0112 32.5139 61.0684 32.5311 61.1131 32.5673C61.1578 32.6035 61.1865 32.6558 61.1932 32.7129L61.2599 33.42C61.2632 33.4547 61.2747 33.4882 61.2935 33.5176C61.3123 33.547 61.3378 33.5715 61.3679 33.5891C61.3981 33.6067 61.4319 33.6168 61.4668 33.6187C61.5016 33.6206 61.5364 33.6142 61.5683 33.6L63.2934 32.8303C63.3311 32.8125 63.3603 32.7806 63.3747 32.7415C63.389 32.7024 63.3875 32.6595 63.3703 32.6215ZM57.2527 36.8483C57.251 36.9054 57.227 36.9596 57.186 36.9994C57.145 37.0392 57.0901 37.0614 57.033 37.0614C56.9758 37.0614 56.9209 37.0392 56.8799 36.9994C56.8389 36.9596 56.815 36.9054 56.8133 36.8483V34.6328L56.6 34.7646C56.5504 34.7939 56.4914 34.8026 56.4356 34.7888C56.3797 34.775 56.3315 34.7399 56.3013 34.6909C56.2711 34.642 56.2613 34.5831 56.274 34.527C56.2867 34.4709 56.3209 34.422 56.3693 34.3909L56.9165 34.05C56.95 34.0301 56.9881 34.0194 57.0271 34.0188C57.066 34.0183 57.1044 34.0279 57.1384 34.0468C57.1725 34.0658 57.201 34.0933 57.2211 34.1266C57.2411 34.16 57.2521 34.1981 57.2529 34.237L57.2527 36.8483ZM58.8333 36.8483C58.8333 36.9066 58.8101 36.9625 58.7689 37.0038C58.7277 37.045 58.6718 37.0681 58.6135 37.0681C58.5552 37.0681 58.4993 37.045 58.458 37.0038C58.4168 36.9625 58.3936 36.9066 58.3936 36.8483V34.6328L58.1806 34.7646C58.131 34.7952 58.0713 34.8049 58.0146 34.7915C57.9579 34.7781 57.9089 34.7427 57.8783 34.6932C57.8477 34.6436 57.838 34.5839 57.8514 34.5272C57.8648 34.4705 57.9002 34.4215 57.9497 34.3909L58.4969 34.05C58.5304 34.0301 58.5685 34.0194 58.6075 34.0188C58.6464 34.0183 58.6848 34.0279 58.7188 34.0468C58.7529 34.0658 58.7814 34.0933 58.8014 34.1266C58.8215 34.16 58.8325 34.1981 58.8333 34.237V36.8483Z" fill="#FAFAFA"/>
<path d="M57.2527 36.8483C57.251 36.9054 57.227 36.9596 57.186 36.9994C57.145 37.0392 57.0901 37.0614 57.033 37.0614C56.9758 37.0614 56.9209 37.0392 56.8799 36.9994C56.8389 36.9596 56.815 36.9054 56.8133 36.8483V34.6328L56.6 34.7646C56.5504 34.7939 56.4914 34.8026 56.4356 34.7888C56.3797 34.775 56.3315 34.7399 56.3013 34.6909C56.2711 34.642 56.2613 34.5831 56.274 34.527C56.2867 34.4709 56.3209 34.422 56.3693 34.3909L56.9165 34.05C56.95 34.0301 56.9881 34.0194 57.0271 34.0188C57.066 34.0183 57.1044 34.0279 57.1384 34.0468C57.1725 34.0658 57.201 34.0933 57.2211 34.1266C57.2411 34.16 57.2521 34.1981 57.2529 34.237L57.2527 36.8483Z" fill="#FAFAFA"/>
<path d="M58.8333 36.8483C58.8333 36.9066 58.8101 36.9625 58.7689 37.0038C58.7277 37.045 58.6718 37.0681 58.6135 37.0681C58.5552 37.0681 58.4993 37.045 58.458 37.0038C58.4168 36.9625 58.3936 36.9066 58.3936 36.8483V34.6328L58.1806 34.7646C58.131 34.7952 58.0713 34.8049 58.0146 34.7915C57.9579 34.7781 57.9089 34.7427 57.8783 34.6932C57.8477 34.6436 57.838 34.5839 57.8514 34.5272C57.8648 34.4705 57.9002 34.4215 57.9497 34.3909L58.4969 34.05C58.5304 34.0301 58.5685 34.0194 58.6075 34.0188C58.6464 34.0183 58.6848 34.0279 58.7188 34.0468C58.7529 34.0658 58.7814 34.0933 58.8014 34.1266C58.8215 34.16 58.8325 34.1981 58.8333 34.237V36.8483Z" fill="#FAFAFA"/>
<path d="M56.6394 34.332H58.9311" stroke="#191919" stroke-width="0.343756" stroke-linecap="round" stroke-linejoin="round"/>
<path d="M57.7854 35.4792V33.1875" stroke="#191919" stroke-width="0.343756" stroke-linecap="round" stroke-linejoin="round"/>
</g>
<g clip-path="url(#clip9_8758_17722)">
<path d="M52.3174 4.99618C52.6863 4.99575 53.04 4.84902 53.3008 4.58818C53.5616 4.32734 53.7084 3.97368 53.7088 3.6048V3.12331C52.7886 3.29665 51.8436 3.28993 50.926 3.10352V3.6048C50.9265 3.97368 51.0732 4.32734 51.334 4.58818C51.5949 4.84902 51.9485 4.99575 52.3174 4.99618Z" fill="#FAFAFA"/>
<path d="M58.0173 7.7504L56.8764 5.35217C56.6612 4.90324 56.2821 4.55392 55.8171 4.37613L54.9463 4.04426C54.6018 3.94241 54.3504 3.53767 54.1483 3.26172V3.5391C54.1565 3.79494 54.1113 4.04969 54.0156 4.28709C53.9199 4.52449 53.7757 4.73932 53.5923 4.91789C53.4089 5.09646 53.1903 5.23483 52.9505 5.32418C52.7106 5.41353 52.4547 5.45189 52.1992 5.43682C51.9437 5.42175 51.6941 5.35358 51.4664 5.23666C51.2387 5.11973 51.0378 4.95662 50.8767 4.75774C50.7155 4.55885 50.5976 4.32856 50.5305 4.08155C50.4633 3.83455 50.4484 3.57625 50.4866 3.32315C50.3361 3.61265 50.0898 3.84101 49.7898 3.96935L48.9742 4.26184C48.5061 4.42743 48.1201 4.76766 47.8972 5.21133L46.6176 7.7504C46.5999 7.7889 46.598 7.83286 46.6124 7.87274C46.6268 7.91262 46.6563 7.94522 46.6946 7.96349L48.3989 8.73848C48.4309 8.75308 48.4659 8.75979 48.5011 8.75804C48.5362 8.75629 48.5704 8.74613 48.6008 8.72841C48.6312 8.71069 48.6569 8.68593 48.6757 8.65621C48.6946 8.6265 48.706 8.59269 48.7091 8.55764L48.7718 7.84327C48.7783 7.78597 48.8069 7.73348 48.8516 7.69699C48.8963 7.6605 48.9534 7.64289 49.0109 7.64792C49.0683 7.65295 49.1216 7.68022 49.1592 7.72392C49.1968 7.76761 49.2159 7.82428 49.2124 7.88185L48.6817 13.914C48.6815 13.9568 48.6901 13.9992 48.7069 14.0386C48.7238 14.078 48.7485 14.1136 48.7796 14.143C48.8107 14.1725 48.8475 14.1952 48.8878 14.2099C48.928 14.2246 48.9709 14.2308 49.0136 14.2283H55.6389C55.6818 14.2309 55.7249 14.2245 55.7653 14.2097C55.8057 14.1949 55.8426 14.172 55.8737 14.1423C55.9049 14.1126 55.9295 14.0768 55.9462 14.0371C55.9629 13.9974 55.9713 13.9548 55.9708 13.9117C55.8769 12.9051 55.4882 8.79991 55.4021 7.88307C55.398 7.8257 55.4165 7.76899 55.4536 7.72508C55.4908 7.68118 55.5437 7.65357 55.601 7.64818C55.6582 7.64279 55.7153 7.66004 55.76 7.69624C55.8047 7.73244 55.8335 7.78471 55.8401 7.84184L55.9069 8.54886C55.9102 8.5836 55.9217 8.61706 55.9405 8.64647C55.9592 8.67588 55.9848 8.70039 56.0149 8.71798C56.045 8.73557 56.0789 8.74574 56.1138 8.74763C56.1486 8.74953 56.1834 8.7431 56.2153 8.72889L57.9404 7.9592C57.978 7.94143 58.0072 7.90955 58.0216 7.87045C58.036 7.83136 58.0345 7.78837 58.0173 7.7504ZM51.8997 11.9772C51.8979 12.0343 51.874 12.0885 51.833 12.1283C51.792 12.1681 51.7371 12.1903 51.6799 12.1903C51.6228 12.1903 51.5679 12.1681 51.5269 12.1283C51.4859 12.0885 51.462 12.0343 51.4602 11.9772V9.76166L51.2469 9.89351C51.1974 9.9228 51.1384 9.93148 51.0825 9.9177C51.0267 9.90392 50.9785 9.86878 50.9482 9.81982C50.918 9.77086 50.9082 9.712 50.921 9.6559C50.9337 9.5998 50.9679 9.55092 51.0163 9.51979L51.5635 9.17894C51.597 9.15905 51.6351 9.14829 51.674 9.14773C51.713 9.14717 51.7514 9.15683 51.7854 9.17575C51.8195 9.19467 51.8479 9.22218 51.868 9.25555C51.8881 9.28891 51.8991 9.32696 51.8999 9.3659L51.8997 11.9772ZM53.4803 11.9772C53.4803 12.0355 53.4571 12.0914 53.4159 12.1327C53.3747 12.1739 53.3187 12.197 53.2604 12.197C53.2021 12.197 53.1462 12.1739 53.105 12.1327C53.0638 12.0914 53.0406 12.0355 53.0406 11.9772V9.76166L52.8275 9.89351C52.778 9.92412 52.7183 9.93379 52.6616 9.9204C52.6049 9.907 52.5559 9.87163 52.5253 9.82207C52.4946 9.77252 52.485 9.71283 52.4984 9.65614C52.5118 9.59945 52.5471 9.55041 52.5967 9.51979L53.1439 9.17894C53.1774 9.15905 53.2155 9.14829 53.2544 9.14773C53.2934 9.14717 53.3318 9.15683 53.3658 9.17575C53.3998 9.19467 53.4283 9.22218 53.4484 9.25555C53.4685 9.28891 53.4795 9.32696 53.4803 9.3659V11.9772Z" fill="#FAFAFA"/>
<path d="M51.8997 11.9772C51.8979 12.0343 51.874 12.0885 51.833 12.1283C51.792 12.1681 51.7371 12.1903 51.6799 12.1903C51.6228 12.1903 51.5679 12.1681 51.5269 12.1283C51.4859 12.0885 51.462 12.0343 51.4602 11.9772V9.76166L51.2469 9.89351C51.1974 9.9228 51.1384 9.93148 51.0825 9.9177C51.0267 9.90392 50.9785 9.86878 50.9482 9.81982C50.918 9.77086 50.9082 9.712 50.921 9.6559C50.9337 9.5998 50.9679 9.55092 51.0163 9.51979L51.5635 9.17894C51.597 9.15905 51.6351 9.14829 51.674 9.14773C51.713 9.14717 51.7514 9.15683 51.7854 9.17575C51.8195 9.19467 51.8479 9.22218 51.868 9.25555C51.8881 9.28891 51.8991 9.32696 51.8999 9.3659L51.8997 11.9772Z" fill="#FAFAFA"/>
<path d="M53.4803 11.9772C53.4803 12.0355 53.4571 12.0914 53.4159 12.1327C53.3747 12.1739 53.3187 12.197 53.2604 12.197C53.2021 12.197 53.1462 12.1739 53.105 12.1327C53.0638 12.0914 53.0406 12.0355 53.0406 11.9772V9.76166L52.8275 9.89351C52.778 9.92412 52.7183 9.93379 52.6616 9.9204C52.6049 9.907 52.5559 9.87163 52.5253 9.82207C52.4946 9.77252 52.485 9.71283 52.4984 9.65614C52.5118 9.59945 52.5471 9.55041 52.5967 9.51979L53.1439 9.17894C53.1774 9.15905 53.2155 9.14829 53.2544 9.14773C53.2934 9.14717 53.3318 9.15683 53.3658 9.17575C53.3998 9.19467 53.4283 9.22218 53.4484 9.25555C53.4685 9.28891 53.4795 9.32696 53.4803 9.3659V11.9772Z" fill="#FAFAFA"/>
<path d="M51.2864 9.46094H53.5781" stroke="#191919" stroke-width="0.343756" stroke-linecap="round" stroke-linejoin="round"/>
<path d="M52.4324 10.6081V8.31641" stroke="#191919" stroke-width="0.343756" stroke-linecap="round" stroke-linejoin="round"/>
</g>
<defs>
<clipPath id="clip0_8758_17722">
<rect width="13.0627" height="13.0627" fill="white" transform="translate(33.7864 66.5645)"/>
</clipPath>
<clipPath id="clip1_8758_17722">
<rect width="13.0627" height="13.0627" fill="white" transform="translate(1.80688 45)"/>
</clipPath>
<clipPath id="clip2_8758_17722">
<rect width="13.0627" height="13.0627" fill="white" transform="translate(64.8696 45)"/>
</clipPath>
<clipPath id="clip3_8758_17722">
<rect width="13.0627" height="13.0627" fill="white" transform="translate(43.8884 50)"/>
</clipPath>
<clipPath id="clip4_8758_17722">
<rect width="13.0627" height="13.0627" fill="white" transform="translate(23.8884 50)"/>
</clipPath>
<clipPath id="clip5_8758_17722">
<rect width="13.0627" height="13.0627" fill="white" transform="translate(1.88843 12)"/>
</clipPath>
<clipPath id="clip6_8758_17722">
<rect width="13.0627" height="13.0627" fill="white" transform="translate(65.0139 12)"/>
</clipPath>
<clipPath id="clip7_8758_17722">
<rect width="13.0627" height="13.0627" fill="white" transform="translate(21.0767 2)"/>
</clipPath>
<clipPath id="clip8_8758_17722">
<rect width="13.0627" height="13.0627" fill="white" transform="translate(51.1394 27)"/>
</clipPath>
<clipPath id="clip9_8758_17722">
<rect width="13.0627" height="13.0627" fill="white" transform="translate(45.7864 2.12695)"/>
</clipPath>
</defs>
</svg>
