<svg width="81" height="81" viewBox="0 0 81 81" fill="none" xmlns="http://www.w3.org/2000/svg">
<rect x="0.373619" y="0.118492" width="79.9807" height="79.9807" rx="5.88541" fill="#828284" stroke="#FAFAFA" stroke-width="0.229171"/>
<mask id="path-2-inside-1_8758_17226" fill="white">
<path d="M24.0928 66.4609H56.6351V80.2112H24.0928V66.4609Z"/>
</mask>
<path d="M24.0928 66.4609V66.2318H23.8636V66.4609H24.0928ZM56.6351 66.4609H56.8642V66.2318H56.6351V66.4609ZM24.0928 66.6901H56.6351V66.2318H24.0928V66.6901ZM56.4059 66.4609V80.2112H56.8642V66.4609H56.4059ZM24.3219 80.2112V66.4609H23.8636V80.2112H24.3219Z" fill="#FAFAFA" mask="url(#path-2-inside-1_8758_17226)"/>
<mask id="path-4-inside-2_8758_17226" fill="white">
<path d="M12.8633 55.0039H67.8643V80.2127H12.8633V55.0039Z"/>
</mask>
<path d="M12.8633 55.0039V54.7747H12.6341V55.0039H12.8633ZM67.8643 55.0039H68.0935V54.7747H67.8643V55.0039ZM12.8633 55.2331H67.8643V54.7747H12.8633V55.2331ZM67.6351 55.0039V80.2127H68.0935V55.0039H67.6351ZM13.0925 80.2127V55.0039H12.6341V80.2127H13.0925Z" fill="#FAFAFA" mask="url(#path-4-inside-2_8758_17226)"/>
<path d="M54.5725 9.53674e-07C54.5725 1.65523 54.1872 3.29426 53.4386 4.8235C52.69 6.35273 51.5928 7.74223 50.2095 8.91266C48.8263 10.0831 47.1842 11.0115 45.3769 11.645C43.5696 12.2784 41.6326 12.6044 39.6764 12.6044C37.7202 12.6044 35.7832 12.2784 33.9759 11.645C32.1686 11.0115 30.5265 10.0831 29.1432 8.91266C27.76 7.74223 26.6628 6.35273 25.9142 4.8235C25.1656 3.29426 24.7803 1.65523 24.7803 0" stroke="#FAFAFA" stroke-width="0.229171"/>
<path d="M30.8362 55.3516C31.3545 54.5174 32.1141 53.7595 33.0717 53.1211C34.0294 52.4827 35.1662 51.9763 36.4174 51.6308C37.6686 51.2853 39.0096 51.1074 40.3639 51.1074C41.7182 51.1074 43.0592 51.2853 44.3104 51.6308C45.5616 51.9763 46.6985 52.4827 47.6561 53.1211C48.6137 53.7595 49.3733 54.5174 49.8916 55.3516" stroke="#FAFAFA" stroke-width="0.229171"/>
<path d="M0.488281 76.5479C1.60481 76.4958 3.80874 77.1099 3.69223 79.9825" stroke="#FAFAFA" stroke-width="0.229171"/>
<path d="M80.2397 76.5479C79.1232 76.4958 76.9193 77.1099 77.0358 79.9825" stroke="#FAFAFA" stroke-width="0.229171"/>
<path d="M40.4781 69.4356C40.8469 69.4352 41.2006 69.2885 41.4614 69.0276C41.7223 68.7668 41.869 68.4131 41.8694 68.0443V67.5628C40.9493 67.7361 40.0043 67.7294 39.0867 67.543V68.0443C39.0871 68.4131 39.2338 68.7668 39.4947 69.0276C39.7555 69.2885 40.1092 69.4352 40.4781 69.4356Z" fill="#FAFAFA"/>
<path d="M46.178 72.1899L45.037 69.7916C44.8218 69.3427 44.4427 68.9934 43.9777 68.8156L43.107 68.4837C42.7625 68.3819 42.511 67.9771 42.3089 67.7012V67.9786C42.3172 68.2344 42.272 68.4891 42.1763 68.7265C42.0805 68.9639 41.9364 69.1788 41.753 69.3573C41.5696 69.5359 41.351 69.6743 41.1111 69.7636C40.8712 69.853 40.6154 69.8913 40.3598 69.8763C40.1043 69.8612 39.8547 69.793 39.627 69.6761C39.3993 69.5592 39.1985 69.3961 39.0373 69.1972C38.8762 68.9983 38.7583 68.768 38.6911 68.521C38.624 68.274 38.609 68.0157 38.6473 67.7626C38.4967 68.0521 38.2505 68.2805 37.9505 68.4088L37.1349 68.7013C36.6667 68.8669 36.2808 69.2071 36.0578 69.6508L34.7783 72.1899C34.7605 72.2284 34.7586 72.2723 34.773 72.3122C34.7874 72.3521 34.8169 72.3847 34.8552 72.4029L36.5595 73.1779C36.5915 73.1925 36.6266 73.1992 36.6617 73.1975C36.6968 73.1957 36.7311 73.1856 36.7614 73.1679C36.7918 73.1501 36.8175 73.1254 36.8364 73.0957C36.8552 73.066 36.8667 73.0321 36.8697 72.9971L36.9324 72.2827C36.9389 72.2254 36.9676 72.1729 37.0122 72.1364C37.0569 72.1 37.1141 72.0823 37.1715 72.0874C37.229 72.0924 37.2822 72.1197 37.3198 72.1634C37.3575 72.2071 37.3766 72.2637 37.3731 72.3213L36.8424 78.3534C36.8422 78.3963 36.8507 78.4387 36.8676 78.4781C36.8844 78.5175 36.9091 78.553 36.9402 78.5825C36.9713 78.6119 37.0082 78.6347 37.0484 78.6494C37.0887 78.664 37.1315 78.6703 37.1743 78.6678H43.7995C43.8425 78.6703 43.8855 78.664 43.9259 78.6492C43.9663 78.6344 44.0032 78.6114 44.0344 78.5817C44.0655 78.552 44.0902 78.5162 44.1069 78.4766C44.1236 78.4369 44.1319 78.3942 44.1314 78.3512C44.0375 77.3445 43.6489 73.2394 43.5628 72.3225C43.5586 72.2652 43.5771 72.2084 43.6143 72.1645C43.6514 72.1206 43.7043 72.093 43.7616 72.0876C43.8189 72.0822 43.876 72.0995 43.9207 72.1357C43.9654 72.1719 43.9941 72.2242 44.0008 72.2813L44.0675 72.9883C44.0708 73.0231 44.0823 73.0565 44.1011 73.0859C44.1199 73.1153 44.1454 73.1398 44.1755 73.1574C44.2057 73.175 44.2396 73.1852 44.2744 73.1871C44.3093 73.189 44.344 73.1826 44.3759 73.1683L46.101 72.3987C46.1387 72.3809 46.1679 72.349 46.1823 72.3099C46.1967 72.2708 46.1951 72.2278 46.178 72.1899ZM40.0603 76.4167C40.0586 76.4738 40.0347 76.528 39.9936 76.5678C39.9526 76.6076 39.8977 76.6298 39.8406 76.6298C39.7835 76.6298 39.7286 76.6076 39.6875 76.5678C39.6465 76.528 39.6226 76.4738 39.6209 76.4167V74.2011L39.4076 74.333C39.3581 74.3623 39.299 74.3709 39.2432 74.3572C39.1873 74.3434 39.1391 74.3082 39.1089 74.2593C39.0787 74.2103 39.0689 74.1515 39.0816 74.0954C39.0943 74.0392 39.1286 73.9904 39.1769 73.9592L39.7242 73.6184C39.7576 73.5985 39.7957 73.5877 39.8347 73.5872C39.8736 73.5866 39.912 73.5963 39.9461 73.6152C39.9801 73.6341 40.0086 73.6616 40.0287 73.695C40.0487 73.7284 40.0597 73.7664 40.0605 73.8054L40.0603 76.4167ZM41.6409 76.4167C41.6409 76.475 41.6177 76.5309 41.5765 76.5721C41.5353 76.6133 41.4794 76.6365 41.4211 76.6365C41.3628 76.6365 41.3069 76.6133 41.2656 76.5721C41.2244 76.5309 41.2013 76.475 41.2013 76.4167V74.2011L40.9882 74.333C40.9386 74.3636 40.8789 74.3732 40.8222 74.3598C40.7656 74.3465 40.7165 74.3111 40.6859 74.2615C40.6553 74.212 40.6456 74.1523 40.659 74.0956C40.6724 74.0389 40.7078 73.9899 40.7573 73.9592L41.3045 73.6184C41.338 73.5985 41.3761 73.5877 41.4151 73.5872C41.454 73.5866 41.4924 73.5963 41.5265 73.6152C41.5605 73.6341 41.589 73.6616 41.6091 73.695C41.6291 73.7284 41.6401 73.7664 41.6409 73.8054V76.4167Z" fill="#FAFAFA"/>
<path d="M40.0603 76.4167C40.0586 76.4738 40.0347 76.528 39.9936 76.5678C39.9526 76.6076 39.8977 76.6298 39.8406 76.6298C39.7835 76.6298 39.7286 76.6076 39.6875 76.5678C39.6465 76.528 39.6226 76.4738 39.6209 76.4167V74.2011L39.4076 74.333C39.3581 74.3623 39.299 74.3709 39.2432 74.3572C39.1873 74.3434 39.1391 74.3082 39.1089 74.2593C39.0787 74.2103 39.0689 74.1515 39.0816 74.0954C39.0943 74.0392 39.1286 73.9904 39.1769 73.9592L39.7242 73.6184C39.7576 73.5985 39.7957 73.5877 39.8347 73.5872C39.8736 73.5866 39.912 73.5963 39.9461 73.6152C39.9801 73.6341 40.0086 73.6616 40.0287 73.695C40.0487 73.7284 40.0597 73.7664 40.0605 73.8054L40.0603 76.4167Z" fill="#FAFAFA"/>
<path d="M41.6409 76.4167C41.6409 76.475 41.6177 76.5309 41.5765 76.5721C41.5353 76.6133 41.4794 76.6365 41.4211 76.6365C41.3628 76.6365 41.3069 76.6133 41.2656 76.5721C41.2244 76.5309 41.2013 76.475 41.2013 76.4167V74.2011L40.9882 74.333C40.9386 74.3636 40.8789 74.3732 40.8222 74.3598C40.7656 74.3465 40.7165 74.3111 40.6859 74.2615C40.6553 74.212 40.6456 74.1523 40.659 74.0956C40.6724 74.0389 40.7078 73.9899 40.7573 73.9592L41.3045 73.6184C41.338 73.5985 41.3761 73.5877 41.4151 73.5872C41.454 73.5866 41.4924 73.5963 41.5265 73.6152C41.5605 73.6341 41.589 73.6616 41.6091 73.695C41.6291 73.7284 41.6401 73.7664 41.6409 73.8054V76.4167Z" fill="#FAFAFA"/>
<path d="M39.447 73.8965H41.7387" stroke="#191919" stroke-width="0.343756" stroke-linecap="round" stroke-linejoin="round"/>
<path d="M40.593 75.0437V72.752" stroke="#191919" stroke-width="0.343756" stroke-linecap="round" stroke-linejoin="round"/>
<path d="M8.53103 47.8673C8.89992 47.8668 9.25357 47.7201 9.51442 47.4593C9.77526 47.1984 9.92199 46.8448 9.92242 46.4759V45.9944C9.00227 46.1677 8.05724 46.161 7.13965 45.9746V46.4759C7.14008 46.8448 7.28681 47.1984 7.54765 47.4593C7.8085 47.7201 8.16215 47.8668 8.53103 47.8673Z" fill="#FAFAFA"/>
<path d="M14.2309 50.6215L13.09 48.2233C12.8748 47.7743 12.4957 47.425 12.0307 47.2472L11.16 46.9154C10.8154 46.8135 10.564 46.4088 10.3619 46.1328V46.4102C10.3702 46.666 10.325 46.9208 10.2292 47.1582C10.1335 47.3956 9.98936 47.6104 9.80596 47.789C9.62256 47.9675 9.40395 48.1059 9.16407 48.1953C8.9242 48.2846 8.66834 48.323 8.41281 48.3079C8.15728 48.2928 7.9077 48.2247 7.67999 48.1077C7.45228 47.9908 7.25145 47.8277 7.09031 47.6288C6.92917 47.4299 6.81126 47.1997 6.7441 46.9526C6.67694 46.7056 6.66202 46.4473 6.70027 46.1942C6.5497 46.4837 6.30346 46.7121 6.00345 46.8404L5.18785 47.1329C4.71972 47.2985 4.33377 47.6388 4.11078 48.0824L2.83125 50.6215C2.81348 50.66 2.81159 50.7039 2.82599 50.7438C2.84039 50.7837 2.86993 50.8163 2.90819 50.8346L4.61247 51.6096C4.64449 51.6242 4.67954 51.6309 4.71468 51.6291C4.74982 51.6274 4.78403 51.6172 4.81443 51.5995C4.84483 51.5818 4.87053 51.557 4.88937 51.5273C4.90821 51.4976 4.91965 51.4638 4.92271 51.4287L4.98537 50.7144C4.99191 50.6571 5.02056 50.6046 5.06522 50.5681C5.10989 50.5316 5.16704 50.514 5.2245 50.519C5.28195 50.524 5.33517 50.5513 5.37282 50.595C5.41047 50.6387 5.42956 50.6954 5.42604 50.7529L4.89536 56.7851C4.89515 56.8279 4.90372 56.8703 4.92055 56.9097C4.93739 56.9491 4.96212 56.9847 4.99322 57.0141C5.02433 57.0436 5.06114 57.0663 5.10139 57.081C5.14164 57.0957 5.18447 57.1019 5.22724 57.0994H11.8525C11.8955 57.1019 11.9385 57.0956 11.9789 57.0808C12.0193 57.066 12.0562 57.0431 12.0873 57.0133C12.1185 56.9836 12.1432 56.9479 12.1599 56.9082C12.1766 56.8685 12.1849 56.8259 12.1844 56.7828C12.0905 55.7762 11.7019 51.671 11.6157 50.7542C11.6116 50.6968 11.6301 50.6401 11.6673 50.5962C11.7044 50.5523 11.7573 50.5247 11.8146 50.5193C11.8718 50.5139 11.9289 50.5311 11.9737 50.5673C12.0184 50.6035 12.0471 50.6558 12.0537 50.7129L12.1205 51.42C12.1238 51.4547 12.1353 51.4882 12.1541 51.5176C12.1729 51.547 12.1984 51.5715 12.2285 51.5891C12.2587 51.6067 12.2925 51.6168 12.3274 51.6187C12.3622 51.6206 12.397 51.6142 12.4289 51.6L14.154 50.8303C14.1917 50.8125 14.2209 50.7806 14.2353 50.7415C14.2496 50.7024 14.2481 50.6595 14.2309 50.6215ZM8.11329 54.8483C8.11155 54.9054 8.08764 54.9596 8.04662 54.9994C8.00561 55.0392 7.95071 55.0614 7.89357 55.0614C7.83643 55.0614 7.78153 55.0392 7.74052 54.9994C7.6995 54.9596 7.67559 54.9054 7.67385 54.8483V52.6328L7.46056 52.7646C7.41104 52.7939 7.35201 52.8026 7.29616 52.7888C7.2403 52.775 7.19208 52.7399 7.16187 52.6909C7.13166 52.642 7.12186 52.5831 7.13458 52.527C7.14731 52.4709 7.18154 52.422 7.22992 52.3909L7.77713 52.05C7.81061 52.0301 7.84872 52.0194 7.88766 52.0188C7.9266 52.0183 7.965 52.0279 7.99904 52.0468C8.03308 52.0658 8.06156 52.0933 8.08165 52.1266C8.10173 52.16 8.11271 52.1981 8.11349 52.237L8.11329 54.8483ZM9.69388 54.8483C9.69388 54.9066 9.67072 54.9625 9.6295 55.0038C9.58827 55.045 9.53236 55.0681 9.47406 55.0681C9.41576 55.0681 9.35985 55.045 9.31862 55.0038C9.2774 54.9625 9.25424 54.9066 9.25424 54.8483V52.6328L9.04115 52.7646C8.99159 52.7952 8.93191 52.8049 8.87522 52.7915C8.81853 52.7781 8.76949 52.7427 8.73887 52.6932C8.70826 52.6436 8.69859 52.5839 8.71199 52.5272C8.72538 52.4705 8.76075 52.4215 8.81031 52.3909L9.35752 52.05C9.391 52.0301 9.42911 52.0194 9.46805 52.0188C9.50699 52.0183 9.54539 52.0279 9.57943 52.0468C9.61347 52.0658 9.64195 52.0933 9.66203 52.1266C9.68212 52.16 9.6931 52.1981 9.69388 52.237V54.8483Z" fill="#FAFAFA"/>
<path d="M8.11329 54.8483C8.11155 54.9054 8.08764 54.9596 8.04662 54.9994C8.00561 55.0392 7.95071 55.0614 7.89357 55.0614C7.83643 55.0614 7.78153 55.0392 7.74052 54.9994C7.6995 54.9596 7.67559 54.9054 7.67385 54.8483V52.6328L7.46056 52.7646C7.41104 52.7939 7.35201 52.8026 7.29616 52.7888C7.2403 52.775 7.19208 52.7399 7.16187 52.6909C7.13166 52.642 7.12186 52.5831 7.13458 52.527C7.14731 52.4709 7.18154 52.422 7.22992 52.3909L7.77713 52.05C7.81061 52.0301 7.84872 52.0194 7.88766 52.0188C7.9266 52.0183 7.965 52.0279 7.99904 52.0468C8.03308 52.0658 8.06156 52.0933 8.08165 52.1266C8.10173 52.16 8.11271 52.1981 8.11349 52.237L8.11329 54.8483Z" fill="#FAFAFA"/>
<path d="M9.69388 54.8483C9.69388 54.9066 9.67072 54.9625 9.6295 55.0038C9.58827 55.045 9.53236 55.0681 9.47406 55.0681C9.41576 55.0681 9.35985 55.045 9.31862 55.0038C9.2774 54.9625 9.25424 54.9066 9.25424 54.8483V52.6328L9.04115 52.7646C8.99159 52.7952 8.93191 52.8049 8.87522 52.7915C8.81853 52.7781 8.76949 52.7427 8.73887 52.6932C8.70826 52.6436 8.69859 52.5839 8.71199 52.5272C8.72538 52.4705 8.76075 52.4215 8.81031 52.3909L9.35752 52.05C9.391 52.0301 9.42911 52.0194 9.46805 52.0188C9.50699 52.0183 9.54539 52.0279 9.57943 52.0468C9.61347 52.0658 9.64195 52.0933 9.66203 52.1266C9.68212 52.16 9.6931 52.1981 9.69388 52.237V54.8483Z" fill="#FAFAFA"/>
<path d="M7.5 52.332H9.79171" stroke="#191919" stroke-width="0.343756" stroke-linecap="round" stroke-linejoin="round"/>
<path d="M8.646 53.4792V51.1875" stroke="#191919" stroke-width="0.343756" stroke-linecap="round" stroke-linejoin="round"/>
<g clip-path="url(#clip0_8758_17226)">
<path d="M71.5938 47.8673C71.9627 47.8668 72.3163 47.7201 72.5772 47.4593C72.838 47.1984 72.9847 46.8448 72.9852 46.4759V45.9944C72.065 46.1677 71.12 46.161 70.2024 45.9746V46.4759C70.2028 46.8448 70.3496 47.1984 70.6104 47.4593C70.8712 47.7201 71.2249 47.8668 71.5938 47.8673Z" fill="#FAFAFA"/>
<path d="M77.2937 50.6215L76.1527 48.2233C75.9376 47.7743 75.5584 47.425 75.0934 47.2472L74.2227 46.9154C73.8782 46.8135 73.6267 46.4088 73.4247 46.1328V46.4102C73.4329 46.666 73.3877 46.9208 73.292 47.1582C73.1963 47.3956 73.0521 47.6104 72.8687 47.789C72.6853 47.9675 72.4667 48.1059 72.2268 48.1953C71.9869 48.2846 71.7311 48.323 71.4756 48.3079C71.22 48.2928 70.9704 48.2247 70.7427 48.1077C70.515 47.9908 70.3142 47.8277 70.1531 47.6288C69.9919 47.4299 69.874 47.1997 69.8068 46.9526C69.7397 46.7056 69.7248 46.4473 69.763 46.1942C69.6124 46.4837 69.3662 46.7121 69.0662 46.8404L68.2506 47.1329C67.7825 47.2985 67.3965 47.6388 67.1735 48.0824L65.894 50.6215C65.8762 50.66 65.8743 50.7039 65.8887 50.7438C65.9031 50.7837 65.9327 50.8163 65.9709 50.8346L67.6752 51.6096C67.7072 51.6242 67.7423 51.6309 67.7774 51.6291C67.8126 51.6274 67.8468 51.6172 67.8772 51.5995C67.9076 51.5818 67.9333 51.557 67.9521 51.5273C67.971 51.4976 67.9824 51.4638 67.9855 51.4287L68.0481 50.7144C68.0547 50.6571 68.0833 50.6046 68.128 50.5681C68.1726 50.5316 68.2298 50.514 68.2872 50.519C68.3447 50.524 68.3979 50.5513 68.4356 50.595C68.4732 50.6387 68.4923 50.6954 68.4888 50.7529L67.9581 56.7851C67.9579 56.8279 67.9665 56.8703 67.9833 56.9097C68.0001 56.9491 68.0249 56.9847 68.056 57.0141C68.0871 57.0436 68.1239 57.0663 68.1641 57.081C68.2044 57.0957 68.2472 57.1019 68.29 57.0994H74.9152C74.9582 57.1019 75.0012 57.0956 75.0416 57.0808C75.082 57.066 75.119 57.0431 75.1501 57.0133C75.1812 56.9836 75.2059 56.9479 75.2226 56.9082C75.2393 56.8685 75.2476 56.8259 75.2471 56.7828C75.1532 55.7762 74.7646 51.671 74.6785 50.7542C74.6743 50.6968 74.6928 50.6401 74.73 50.5962C74.7672 50.5523 74.82 50.5247 74.8773 50.5193C74.9346 50.5139 74.9917 50.5311 75.0364 50.5673C75.0811 50.6035 75.1099 50.6558 75.1165 50.7129L75.1832 51.42C75.1865 51.4547 75.198 51.4882 75.2168 51.5176C75.2356 51.547 75.2611 51.5715 75.2913 51.5891C75.3214 51.6067 75.3553 51.6168 75.3901 51.6187C75.425 51.6206 75.4598 51.6142 75.4916 51.6L77.2167 50.8303C77.2544 50.8125 77.2836 50.7806 77.298 50.7415C77.3124 50.7024 77.3108 50.6595 77.2937 50.6215ZM71.176 54.8483C71.1743 54.9054 71.1504 54.9596 71.1094 54.9994C71.0684 55.0392 71.0135 55.0614 70.9563 55.0614C70.8992 55.0614 70.8443 55.0392 70.8033 54.9994C70.7622 54.9596 70.7383 54.9054 70.7366 54.8483V52.6328L70.5233 52.7646C70.4738 52.7939 70.4148 52.8026 70.3589 52.7888C70.303 52.775 70.2548 52.7399 70.2246 52.6909C70.1944 52.642 70.1846 52.5831 70.1973 52.527C70.2101 52.4709 70.2443 52.422 70.2927 52.3909L70.8399 52.05C70.8734 52.0301 70.9115 52.0194 70.9504 52.0188C70.9893 52.0183 71.0277 52.0279 71.0618 52.0468C71.0958 52.0658 71.1243 52.0933 71.1444 52.1266C71.1645 52.16 71.1755 52.1981 71.1762 52.237L71.176 54.8483ZM72.7566 54.8483C72.7566 54.9066 72.7335 54.9625 72.6922 55.0038C72.651 55.045 72.5951 55.0681 72.5368 55.0681C72.4785 55.0681 72.4226 55.045 72.3814 55.0038C72.3401 54.9625 72.317 54.9066 72.317 54.8483V52.6328L72.1039 52.7646C72.0543 52.7952 71.9947 52.8049 71.938 52.7915C71.8813 52.7781 71.8322 52.7427 71.8016 52.6932C71.771 52.6436 71.7613 52.5839 71.7747 52.5272C71.7881 52.4705 71.8235 52.4215 71.8731 52.3909L72.4203 52.05C72.4537 52.0301 72.4919 52.0194 72.5308 52.0188C72.5697 52.0183 72.6081 52.0279 72.6422 52.0468C72.6762 52.0658 72.7047 52.0933 72.7248 52.1266C72.7449 52.16 72.7558 52.1981 72.7566 52.237V54.8483Z" fill="#FAFAFA"/>
<path d="M71.176 54.8483C71.1743 54.9054 71.1504 54.9596 71.1094 54.9994C71.0684 55.0392 71.0135 55.0614 70.9563 55.0614C70.8992 55.0614 70.8443 55.0392 70.8033 54.9994C70.7622 54.9596 70.7383 54.9054 70.7366 54.8483V52.6328L70.5233 52.7646C70.4738 52.7939 70.4148 52.8026 70.3589 52.7888C70.303 52.775 70.2548 52.7399 70.2246 52.6909C70.1944 52.642 70.1846 52.5831 70.1973 52.527C70.2101 52.4709 70.2443 52.422 70.2927 52.3909L70.8399 52.05C70.8734 52.0301 70.9115 52.0194 70.9504 52.0188C70.9893 52.0183 71.0277 52.0279 71.0618 52.0468C71.0958 52.0658 71.1243 52.0933 71.1444 52.1266C71.1645 52.16 71.1755 52.1981 71.1762 52.237L71.176 54.8483Z" fill="#FAFAFA"/>
<path d="M72.7566 54.8483C72.7566 54.9066 72.7335 54.9625 72.6922 55.0038C72.651 55.045 72.5951 55.0681 72.5368 55.0681C72.4785 55.0681 72.4226 55.045 72.3814 55.0038C72.3401 54.9625 72.317 54.9066 72.317 54.8483V52.6328L72.1039 52.7646C72.0543 52.7952 71.9947 52.8049 71.938 52.7915C71.8813 52.7781 71.8322 52.7427 71.8016 52.6932C71.771 52.6436 71.7613 52.5839 71.7747 52.5272C71.7881 52.4705 71.8235 52.4215 71.8731 52.3909L72.4203 52.05C72.4537 52.0301 72.4919 52.0194 72.5308 52.0188C72.5697 52.0183 72.6081 52.0279 72.6422 52.0468C72.6762 52.0658 72.7047 52.0933 72.7248 52.1266C72.7449 52.16 72.7558 52.1981 72.7566 52.237V54.8483Z" fill="#FAFAFA"/>
<path d="M70.5627 52.332H72.8545" stroke="#191919" stroke-width="0.343756" stroke-linecap="round" stroke-linejoin="round"/>
<path d="M71.7087 53.4792V51.1875" stroke="#191919" stroke-width="0.343756" stroke-linecap="round" stroke-linejoin="round"/>
</g>
<g clip-path="url(#clip1_8758_17226)">
<path d="M50.5801 52.8673C50.949 52.8668 51.3026 52.7201 51.5635 52.4593C51.8243 52.1984 51.9711 51.8448 51.9715 51.4759V50.9944C51.0513 51.1677 50.1063 51.161 49.1887 50.9746V51.4759C49.1892 51.8448 49.3359 52.1984 49.5967 52.4593C49.8576 52.7201 50.2112 52.8668 50.5801 52.8673Z" fill="#FAFAFA"/>
<path d="M56.28 55.6215L55.1391 53.2233C54.9239 52.7743 54.5448 52.425 54.0798 52.2472L53.209 51.9154C52.8645 51.8135 52.6131 51.4088 52.411 51.1328V51.4102C52.4192 51.666 52.374 51.9208 52.2783 52.1582C52.1826 52.3956 52.0384 52.6104 51.855 52.789C51.6716 52.9675 51.453 53.1059 51.2131 53.1953C50.9733 53.2846 50.7174 53.323 50.4619 53.3079C50.2064 53.2928 49.9568 53.2247 49.7291 53.1077C49.5014 52.9908 49.3005 52.8277 49.1394 52.6288C48.9782 52.4299 48.8603 52.1997 48.7932 51.9526C48.726 51.7056 48.7111 51.4473 48.7493 51.1942C48.5988 51.4837 48.3525 51.7121 48.0525 51.8404L47.2369 52.1329C46.7688 52.2985 46.3828 52.6388 46.1599 53.0824L44.8803 55.6215C44.8625 55.66 44.8607 55.7039 44.8751 55.7438C44.8895 55.7837 44.919 55.8163 44.9573 55.8346L46.6615 56.6096C46.6936 56.6242 46.7286 56.6309 46.7638 56.6291C46.7989 56.6274 46.8331 56.6172 46.8635 56.5995C46.8939 56.5818 46.9196 56.557 46.9384 56.5273C46.9573 56.4976 46.9687 56.4638 46.9718 56.4287L47.0344 55.7144C47.041 55.6571 47.0696 55.6046 47.1143 55.5681C47.159 55.5316 47.2161 55.514 47.2736 55.519C47.331 55.524 47.3842 55.5513 47.4219 55.595C47.4595 55.6387 47.4786 55.6954 47.4751 55.7529L46.9444 61.7851C46.9442 61.8279 46.9528 61.8703 46.9696 61.9097C46.9865 61.9491 47.0112 61.9847 47.0423 62.0141C47.0734 62.0436 47.1102 62.0663 47.1505 62.081C47.1907 62.0957 47.2335 62.1019 47.2763 62.0994H53.9016C53.9445 62.1019 53.9875 62.0956 54.028 62.0808C54.0684 62.066 54.1053 62.0431 54.1364 62.0133C54.1676 61.9836 54.1922 61.9479 54.2089 61.9082C54.2256 61.8685 54.234 61.8259 54.2334 61.7828C54.1396 60.7762 53.7509 56.671 53.6648 55.7542C53.6607 55.6968 53.6792 55.6401 53.7163 55.5962C53.7535 55.5523 53.8064 55.5247 53.8636 55.5193C53.9209 55.5139 53.978 55.5311 54.0227 55.5673C54.0674 55.6035 54.0962 55.6558 54.1028 55.7129L54.1696 56.42C54.1729 56.4547 54.1844 56.4882 54.2032 56.5176C54.2219 56.547 54.2475 56.5715 54.2776 56.5891C54.3077 56.6067 54.3416 56.6168 54.3765 56.6187C54.4113 56.6206 54.4461 56.6142 54.478 56.6L56.2031 55.8303C56.2407 55.8125 56.2699 55.7806 56.2843 55.7415C56.2987 55.7024 56.2972 55.6595 56.28 55.6215ZM50.1624 59.8483C50.1606 59.9054 50.1367 59.9596 50.0957 59.9994C50.0547 60.0392 49.9998 60.0614 49.9426 60.0614C49.8855 60.0614 49.8306 60.0392 49.7896 59.9994C49.7486 59.9596 49.7247 59.9054 49.7229 59.8483V57.6328L49.5096 57.7646C49.4601 57.7939 49.4011 57.8026 49.3452 57.7888C49.2894 57.775 49.2412 57.7399 49.2109 57.6909C49.1807 57.642 49.1709 57.5831 49.1837 57.527C49.1964 57.4709 49.2306 57.422 49.279 57.3909L49.8262 57.05C49.8597 57.0301 49.8978 57.0194 49.9367 57.0188C49.9757 57.0183 50.0141 57.0279 50.0481 57.0468C50.0822 57.0658 50.1106 57.0933 50.1307 57.1266C50.1508 57.16 50.1618 57.1981 50.1626 57.237L50.1624 59.8483ZM51.743 59.8483C51.743 59.9066 51.7198 59.9625 51.6786 60.0038C51.6373 60.045 51.5814 60.0681 51.5231 60.0681C51.4648 60.0681 51.4089 60.045 51.3677 60.0038C51.3265 59.9625 51.3033 59.9066 51.3033 59.8483V57.6328L51.0902 57.7646C51.0407 57.7952 50.981 57.8049 50.9243 57.7915C50.8676 57.7781 50.8186 57.7427 50.7879 57.6932C50.7573 57.6436 50.7477 57.5839 50.7611 57.5272C50.7745 57.4705 50.8098 57.4215 50.8594 57.3909L51.4066 57.05C51.4401 57.0301 51.4782 57.0194 51.5171 57.0188C51.5561 57.0183 51.5945 57.0279 51.6285 57.0468C51.6625 57.0658 51.691 57.0933 51.7111 57.1266C51.7312 57.16 51.7422 57.1981 51.743 57.237V59.8483Z" fill="#FAFAFA"/>
<path d="M50.1624 59.8483C50.1606 59.9054 50.1367 59.9596 50.0957 59.9994C50.0547 60.0392 49.9998 60.0614 49.9426 60.0614C49.8855 60.0614 49.8306 60.0392 49.7896 59.9994C49.7486 59.9596 49.7247 59.9054 49.7229 59.8483V57.6328L49.5096 57.7646C49.4601 57.7939 49.4011 57.8026 49.3452 57.7888C49.2894 57.775 49.2412 57.7399 49.2109 57.6909C49.1807 57.642 49.1709 57.5831 49.1837 57.527C49.1964 57.4709 49.2306 57.422 49.279 57.3909L49.8262 57.05C49.8597 57.0301 49.8978 57.0194 49.9367 57.0188C49.9757 57.0183 50.0141 57.0279 50.0481 57.0468C50.0822 57.0658 50.1106 57.0933 50.1307 57.1266C50.1508 57.16 50.1618 57.1981 50.1626 57.237L50.1624 59.8483Z" fill="#FAFAFA"/>
<path d="M51.743 59.8483C51.743 59.9066 51.7198 59.9625 51.6786 60.0038C51.6373 60.045 51.5814 60.0681 51.5231 60.0681C51.4648 60.0681 51.4089 60.045 51.3677 60.0038C51.3265 59.9625 51.3033 59.9066 51.3033 59.8483V57.6328L51.0902 57.7646C51.0407 57.7952 50.981 57.8049 50.9243 57.7915C50.8676 57.7781 50.8186 57.7427 50.7879 57.6932C50.7573 57.6436 50.7477 57.5839 50.7611 57.5272C50.7745 57.4705 50.8098 57.4215 50.8594 57.3909L51.4066 57.05C51.4401 57.0301 51.4782 57.0194 51.5171 57.0188C51.5561 57.0183 51.5945 57.0279 51.6285 57.0468C51.6625 57.0658 51.691 57.0933 51.7111 57.1266C51.7312 57.16 51.7422 57.1981 51.743 57.237V59.8483Z" fill="#FAFAFA"/>
<path d="M49.5491 57.332H51.8408" stroke="#191919" stroke-width="0.343756" stroke-linecap="round" stroke-linejoin="round"/>
<path d="M50.6951 58.4792V56.1875" stroke="#191919" stroke-width="0.343756" stroke-linecap="round" stroke-linejoin="round"/>
</g>
<g clip-path="url(#clip2_8758_17226)">
<path d="M30.5801 52.8673C30.949 52.8668 31.3026 52.7201 31.5635 52.4593C31.8243 52.1984 31.9711 51.8448 31.9715 51.4759V50.9944C31.0513 51.1677 30.1063 51.161 29.1887 50.9746V51.4759C29.1892 51.8448 29.3359 52.1984 29.5967 52.4593C29.8576 52.7201 30.2112 52.8668 30.5801 52.8673Z" fill="#FAFAFA"/>
<path d="M36.28 55.6215L35.1391 53.2233C34.9239 52.7743 34.5448 52.425 34.0798 52.2472L33.209 51.9154C32.8645 51.8135 32.6131 51.4088 32.411 51.1328V51.4102C32.4192 51.666 32.374 51.9208 32.2783 52.1582C32.1826 52.3956 32.0384 52.6104 31.855 52.789C31.6716 52.9675 31.453 53.1059 31.2131 53.1953C30.9733 53.2846 30.7174 53.323 30.4619 53.3079C30.2064 53.2928 29.9568 53.2247 29.7291 53.1077C29.5014 52.9908 29.3005 52.8277 29.1394 52.6288C28.9782 52.4299 28.8603 52.1997 28.7932 51.9526C28.726 51.7056 28.7111 51.4473 28.7493 51.1942C28.5988 51.4837 28.3525 51.7121 28.0525 51.8404L27.2369 52.1329C26.7688 52.2985 26.3828 52.6388 26.1599 53.0824L24.8803 55.6215C24.8625 55.66 24.8607 55.7039 24.8751 55.7438C24.8895 55.7837 24.919 55.8163 24.9573 55.8346L26.6615 56.6096C26.6936 56.6242 26.7286 56.6309 26.7638 56.6291C26.7989 56.6274 26.8331 56.6172 26.8635 56.5995C26.8939 56.5818 26.9196 56.557 26.9384 56.5273C26.9573 56.4976 26.9687 56.4638 26.9718 56.4287L27.0344 55.7144C27.041 55.6571 27.0696 55.6046 27.1143 55.5681C27.159 55.5316 27.2161 55.514 27.2736 55.519C27.331 55.524 27.3842 55.5513 27.4219 55.595C27.4595 55.6387 27.4786 55.6954 27.4751 55.7529L26.9444 61.7851C26.9442 61.8279 26.9528 61.8703 26.9696 61.9097C26.9865 61.9491 27.0112 61.9847 27.0423 62.0141C27.0734 62.0436 27.1102 62.0663 27.1505 62.081C27.1907 62.0957 27.2335 62.1019 27.2763 62.0994H33.9016C33.9445 62.1019 33.9875 62.0956 34.028 62.0808C34.0684 62.066 34.1053 62.0431 34.1364 62.0133C34.1676 61.9836 34.1922 61.9479 34.2089 61.9082C34.2256 61.8685 34.234 61.8259 34.2334 61.7828C34.1396 60.7762 33.7509 56.671 33.6648 55.7542C33.6607 55.6968 33.6792 55.6401 33.7163 55.5962C33.7535 55.5523 33.8064 55.5247 33.8636 55.5193C33.9209 55.5139 33.978 55.5311 34.0227 55.5673C34.0674 55.6035 34.0962 55.6558 34.1028 55.7129L34.1696 56.42C34.1729 56.4547 34.1844 56.4882 34.2032 56.5176C34.2219 56.547 34.2475 56.5715 34.2776 56.5891C34.3077 56.6067 34.3416 56.6168 34.3765 56.6187C34.4113 56.6206 34.4461 56.6142 34.478 56.6L36.2031 55.8303C36.2407 55.8125 36.2699 55.7806 36.2843 55.7415C36.2987 55.7024 36.2972 55.6595 36.28 55.6215ZM30.1624 59.8483C30.1606 59.9054 30.1367 59.9596 30.0957 59.9994C30.0547 60.0392 29.9998 60.0614 29.9426 60.0614C29.8855 60.0614 29.8306 60.0392 29.7896 59.9994C29.7486 59.9596 29.7247 59.9054 29.7229 59.8483V57.6328L29.5096 57.7646C29.4601 57.7939 29.4011 57.8026 29.3452 57.7888C29.2894 57.775 29.2412 57.7399 29.2109 57.6909C29.1807 57.642 29.1709 57.5831 29.1837 57.527C29.1964 57.4709 29.2306 57.422 29.279 57.3909L29.8262 57.05C29.8597 57.0301 29.8978 57.0194 29.9367 57.0188C29.9757 57.0183 30.0141 57.0279 30.0481 57.0468C30.0822 57.0658 30.1106 57.0933 30.1307 57.1266C30.1508 57.16 30.1618 57.1981 30.1626 57.237L30.1624 59.8483ZM31.743 59.8483C31.743 59.9066 31.7198 59.9625 31.6786 60.0038C31.6373 60.045 31.5814 60.0681 31.5231 60.0681C31.4648 60.0681 31.4089 60.045 31.3677 60.0038C31.3265 59.9625 31.3033 59.9066 31.3033 59.8483V57.6328L31.0902 57.7646C31.0407 57.7952 30.981 57.8049 30.9243 57.7915C30.8676 57.7781 30.8186 57.7427 30.7879 57.6932C30.7573 57.6436 30.7477 57.5839 30.7611 57.5272C30.7745 57.4705 30.8098 57.4215 30.8594 57.3909L31.4066 57.05C31.4401 57.0301 31.4782 57.0194 31.5171 57.0188C31.5561 57.0183 31.5945 57.0279 31.6285 57.0468C31.6625 57.0658 31.691 57.0933 31.7111 57.1266C31.7312 57.16 31.7422 57.1981 31.743 57.237V59.8483Z" fill="#FAFAFA"/>
<path d="M30.1624 59.8483C30.1606 59.9054 30.1367 59.9596 30.0957 59.9994C30.0547 60.0392 29.9998 60.0614 29.9426 60.0614C29.8855 60.0614 29.8306 60.0392 29.7896 59.9994C29.7486 59.9596 29.7247 59.9054 29.7229 59.8483V57.6328L29.5096 57.7646C29.4601 57.7939 29.4011 57.8026 29.3452 57.7888C29.2894 57.775 29.2412 57.7399 29.2109 57.6909C29.1807 57.642 29.1709 57.5831 29.1837 57.527C29.1964 57.4709 29.2306 57.422 29.279 57.3909L29.8262 57.05C29.8597 57.0301 29.8978 57.0194 29.9367 57.0188C29.9757 57.0183 30.0141 57.0279 30.0481 57.0468C30.0822 57.0658 30.1106 57.0933 30.1307 57.1266C30.1508 57.16 30.1618 57.1981 30.1626 57.237L30.1624 59.8483Z" fill="#FAFAFA"/>
<path d="M31.743 59.8483C31.743 59.9066 31.7198 59.9625 31.6786 60.0038C31.6373 60.045 31.5814 60.0681 31.5231 60.0681C31.4648 60.0681 31.4089 60.045 31.3677 60.0038C31.3265 59.9625 31.3033 59.9066 31.3033 59.8483V57.6328L31.0902 57.7646C31.0407 57.7952 30.981 57.8049 30.9243 57.7915C30.8676 57.7781 30.8186 57.7427 30.7879 57.6932C30.7573 57.6436 30.7477 57.5839 30.7611 57.5272C30.7745 57.4705 30.8098 57.4215 30.8594 57.3909L31.4066 57.05C31.4401 57.0301 31.4782 57.0194 31.5171 57.0188C31.5561 57.0183 31.5945 57.0279 31.6285 57.0468C31.6625 57.0658 31.691 57.0933 31.7111 57.1266C31.7312 57.16 31.7422 57.1981 31.743 57.237V59.8483Z" fill="#FAFAFA"/>
<path d="M29.5491 57.332H31.8408" stroke="#191919" stroke-width="0.343756" stroke-linecap="round" stroke-linejoin="round"/>
<path d="M30.6951 58.4792V56.1875" stroke="#191919" stroke-width="0.343756" stroke-linecap="round" stroke-linejoin="round"/>
</g>
<g clip-path="url(#clip3_8758_17226)">
<path d="M28.5801 34.8673C28.949 34.8668 29.3026 34.7201 29.5635 34.4593C29.8243 34.1984 29.9711 33.8448 29.9715 33.4759V32.9944C29.0513 33.1677 28.1063 33.161 27.1887 32.9746V33.4759C27.1892 33.8448 27.3359 34.1984 27.5967 34.4593C27.8576 34.7201 28.2112 34.8668 28.5801 34.8673Z" fill="#FAFAFA"/>
<path d="M34.28 37.6215L33.1391 35.2233C32.9239 34.7743 32.5448 34.425 32.0798 34.2472L31.209 33.9154C30.8645 33.8135 30.6131 33.4088 30.411 33.1328V33.4102C30.4192 33.666 30.374 33.9208 30.2783 34.1582C30.1826 34.3956 30.0384 34.6104 29.855 34.789C29.6716 34.9675 29.453 35.1059 29.2131 35.1953C28.9733 35.2846 28.7174 35.323 28.4619 35.3079C28.2064 35.2928 27.9568 35.2247 27.7291 35.1077C27.5014 34.9908 27.3005 34.8277 27.1394 34.6288C26.9782 34.4299 26.8603 34.1997 26.7932 33.9526C26.726 33.7056 26.7111 33.4473 26.7493 33.1942C26.5988 33.4837 26.3525 33.7121 26.0525 33.8404L25.2369 34.1329C24.7688 34.2985 24.3828 34.6388 24.1599 35.0824L22.8803 37.6215C22.8625 37.66 22.8607 37.7039 22.8751 37.7438C22.8895 37.7837 22.919 37.8163 22.9573 37.8346L24.6615 38.6096C24.6936 38.6242 24.7286 38.6309 24.7638 38.6291C24.7989 38.6274 24.8331 38.6172 24.8635 38.5995C24.8939 38.5818 24.9196 38.557 24.9384 38.5273C24.9573 38.4976 24.9687 38.4638 24.9718 38.4287L25.0344 37.7144C25.041 37.6571 25.0696 37.6046 25.1143 37.5681C25.159 37.5316 25.2161 37.514 25.2736 37.519C25.331 37.524 25.3842 37.5513 25.4219 37.595C25.4595 37.6387 25.4786 37.6954 25.4751 37.7529L24.9444 43.7851C24.9442 43.8279 24.9528 43.8703 24.9696 43.9097C24.9865 43.9491 25.0112 43.9847 25.0423 44.0141C25.0734 44.0436 25.1102 44.0663 25.1505 44.081C25.1907 44.0957 25.2335 44.1019 25.2763 44.0994H31.9016C31.9445 44.1019 31.9875 44.0956 32.028 44.0808C32.0684 44.066 32.1053 44.0431 32.1364 44.0133C32.1676 43.9836 32.1922 43.9479 32.2089 43.9082C32.2256 43.8685 32.234 43.8259 32.2334 43.7828C32.1396 42.7762 31.7509 38.671 31.6648 37.7542C31.6607 37.6968 31.6792 37.6401 31.7163 37.5962C31.7535 37.5523 31.8064 37.5247 31.8636 37.5193C31.9209 37.5139 31.978 37.5311 32.0227 37.5673C32.0674 37.6035 32.0962 37.6558 32.1028 37.7129L32.1696 38.42C32.1729 38.4547 32.1844 38.4882 32.2032 38.5176C32.2219 38.547 32.2475 38.5715 32.2776 38.5891C32.3077 38.6067 32.3416 38.6168 32.3765 38.6187C32.4113 38.6206 32.4461 38.6142 32.478 38.6L34.2031 37.8303C34.2407 37.8125 34.2699 37.7806 34.2843 37.7415C34.2987 37.7024 34.2972 37.6595 34.28 37.6215ZM28.1624 41.8483C28.1606 41.9054 28.1367 41.9596 28.0957 41.9994C28.0547 42.0392 27.9998 42.0614 27.9426 42.0614C27.8855 42.0614 27.8306 42.0392 27.7896 41.9994C27.7486 41.9596 27.7247 41.9054 27.7229 41.8483V39.6328L27.5096 39.7646C27.4601 39.7939 27.4011 39.8026 27.3452 39.7888C27.2894 39.775 27.2412 39.7399 27.2109 39.6909C27.1807 39.642 27.1709 39.5831 27.1837 39.527C27.1964 39.4709 27.2306 39.422 27.279 39.3909L27.8262 39.05C27.8597 39.0301 27.8978 39.0194 27.9367 39.0188C27.9757 39.0183 28.0141 39.0279 28.0481 39.0468C28.0822 39.0658 28.1106 39.0933 28.1307 39.1266C28.1508 39.16 28.1618 39.1981 28.1626 39.237L28.1624 41.8483ZM29.743 41.8483C29.743 41.9066 29.7198 41.9625 29.6786 42.0038C29.6373 42.045 29.5814 42.0681 29.5231 42.0681C29.4648 42.0681 29.4089 42.045 29.3677 42.0038C29.3265 41.9625 29.3033 41.9066 29.3033 41.8483V39.6328L29.0902 39.7646C29.0407 39.7952 28.981 39.8049 28.9243 39.7915C28.8676 39.7781 28.8186 39.7427 28.7879 39.6932C28.7573 39.6436 28.7477 39.5839 28.7611 39.5272C28.7745 39.4705 28.8098 39.4215 28.8594 39.3909L29.4066 39.05C29.4401 39.0301 29.4782 39.0194 29.5171 39.0188C29.5561 39.0183 29.5945 39.0279 29.6285 39.0468C29.6625 39.0658 29.691 39.0933 29.7111 39.1266C29.7312 39.16 29.7422 39.1981 29.743 39.237V41.8483Z" fill="#FAFAFA"/>
<path d="M28.1624 41.8483C28.1606 41.9054 28.1367 41.9596 28.0957 41.9994C28.0547 42.0392 27.9998 42.0614 27.9426 42.0614C27.8855 42.0614 27.8306 42.0392 27.7896 41.9994C27.7486 41.9596 27.7247 41.9054 27.7229 41.8483V39.6328L27.5096 39.7646C27.4601 39.7939 27.4011 39.8026 27.3452 39.7888C27.2894 39.775 27.2412 39.7399 27.2109 39.6909C27.1807 39.642 27.1709 39.5831 27.1837 39.527C27.1964 39.4709 27.2306 39.422 27.279 39.3909L27.8262 39.05C27.8597 39.0301 27.8978 39.0194 27.9367 39.0188C27.9757 39.0183 28.0141 39.0279 28.0481 39.0468C28.0822 39.0658 28.1106 39.0933 28.1307 39.1266C28.1508 39.16 28.1618 39.1981 28.1626 39.237L28.1624 41.8483Z" fill="#FAFAFA"/>
<path d="M29.743 41.8483C29.743 41.9066 29.7198 41.9625 29.6786 42.0038C29.6373 42.045 29.5814 42.0681 29.5231 42.0681C29.4648 42.0681 29.4089 42.045 29.3677 42.0038C29.3265 41.9625 29.3033 41.9066 29.3033 41.8483V39.6328L29.0902 39.7646C29.0407 39.7952 28.981 39.8049 28.9243 39.7915C28.8676 39.7781 28.8186 39.7427 28.7879 39.6932C28.7573 39.6436 28.7477 39.5839 28.7611 39.5272C28.7745 39.4705 28.8098 39.4215 28.8594 39.3909L29.4066 39.05C29.4401 39.0301 29.4782 39.0194 29.5171 39.0188C29.5561 39.0183 29.5945 39.0279 29.6285 39.0468C29.6625 39.0658 29.691 39.0933 29.7111 39.1266C29.7312 39.16 29.7422 39.1981 29.743 39.237V41.8483Z" fill="#FAFAFA"/>
<path d="M27.5491 39.332H29.8408" stroke="#191919" stroke-width="0.343756" stroke-linecap="round" stroke-linejoin="round"/>
<path d="M28.6951 40.4792V38.1875" stroke="#191919" stroke-width="0.343756" stroke-linecap="round" stroke-linejoin="round"/>
</g>
<g clip-path="url(#clip4_8758_17226)">
<path d="M8.64285 22.8673C9.01174 22.8668 9.36539 22.7201 9.62623 22.4593C9.88707 22.1984 10.0338 21.8448 10.0342 21.4759V20.9944C9.11409 21.1677 8.16906 21.161 7.25146 20.9746V21.4759C7.2519 21.8448 7.39863 22.1984 7.65947 22.4593C7.92031 22.7201 8.27397 22.8668 8.64285 22.8673Z" fill="#FAFAFA"/>
<path d="M14.3428 25.6215L13.2018 23.2233C12.9866 22.7743 12.6075 22.425 12.1425 22.2472L11.2718 21.9154C10.9273 21.8135 10.6758 21.4088 10.4737 21.1328V21.4102C10.482 21.666 10.4368 21.9208 10.3411 22.1582C10.2453 22.3956 10.1012 22.6104 9.91777 22.789C9.73437 22.9675 9.51576 23.1059 9.27589 23.1953C9.03602 23.2846 8.78015 23.323 8.52463 23.3079C8.2691 23.2928 8.01952 23.2247 7.79181 23.1077C7.5641 22.9908 7.36327 22.8277 7.20213 22.6288C7.04099 22.4299 6.92307 22.1997 6.85592 21.9526C6.78876 21.7056 6.77383 21.4473 6.81208 21.1942C6.66152 21.4837 6.41527 21.7121 6.11527 21.8404L5.29966 22.1329C4.83153 22.2985 4.44559 22.6388 4.2226 23.0824L2.94306 25.6215C2.92529 25.66 2.92341 25.7039 2.93781 25.7438C2.95221 25.7837 2.98174 25.8163 3.02001 25.8346L4.72429 26.6096C4.7563 26.6242 4.79135 26.6309 4.82649 26.6291C4.86164 26.6274 4.89585 26.6172 4.92624 26.5995C4.95664 26.5818 4.98234 26.557 5.00119 26.5273C5.02003 26.4976 5.03147 26.4638 5.03453 26.4287L5.09719 25.7144C5.10372 25.6571 5.13238 25.6046 5.17704 25.5681C5.22171 25.5316 5.27886 25.514 5.33631 25.519C5.39377 25.524 5.44699 25.5513 5.48464 25.595C5.52228 25.6387 5.54138 25.6954 5.53785 25.7529L5.00718 31.7851C5.00697 31.8279 5.01554 31.8703 5.03237 31.9097C5.0492 31.9491 5.07393 31.9847 5.10504 32.0141C5.13614 32.0436 5.17296 32.0663 5.21321 32.081C5.25346 32.0957 5.29629 32.1019 5.33906 32.0994H11.9643C12.0073 32.1019 12.0503 32.0956 12.0907 32.0808C12.1311 32.066 12.168 32.0431 12.1992 32.0133C12.2303 31.9836 12.255 31.9479 12.2717 31.9082C12.2884 31.8685 12.2967 31.8259 12.2962 31.7828C12.2023 30.7762 11.8137 26.671 11.7276 25.7542C11.7234 25.6968 11.7419 25.6401 11.7791 25.5962C11.8162 25.5523 11.8691 25.5247 11.9264 25.5193C11.9837 25.5139 12.0408 25.5311 12.0855 25.5673C12.1302 25.6035 12.1589 25.6558 12.1656 25.7129L12.2323 26.42C12.2356 26.4547 12.2471 26.4882 12.2659 26.5176C12.2847 26.547 12.3102 26.5715 12.3403 26.5891C12.3705 26.6067 12.4044 26.6168 12.4392 26.6187C12.474 26.6206 12.5088 26.6142 12.5407 26.6L14.2658 25.8303C14.3035 25.8125 14.3327 25.7806 14.3471 25.7415C14.3615 25.7024 14.3599 25.6595 14.3428 25.6215ZM8.22511 29.8483C8.22337 29.9054 8.19945 29.9596 8.15844 29.9994C8.11742 30.0392 8.06253 30.0614 8.00539 30.0614C7.94825 30.0614 7.89335 30.0392 7.85234 29.9994C7.81132 29.9596 7.78741 29.9054 7.78567 29.8483V27.6328L7.57238 27.7646C7.52286 27.7939 7.46383 27.8026 7.40797 27.7888C7.35212 27.775 7.3039 27.7399 7.27369 27.6909C7.24347 27.642 7.23368 27.5831 7.2464 27.527C7.25913 27.4709 7.29336 27.422 7.34174 27.3909L7.88895 27.05C7.92243 27.0301 7.96054 27.0194 7.99948 27.0188C8.03842 27.0183 8.07682 27.0279 8.11086 27.0468C8.1449 27.0658 8.17338 27.0933 8.19346 27.1266C8.21354 27.16 8.22453 27.1981 8.22531 27.237L8.22511 29.8483ZM9.8057 29.8483C9.8057 29.9066 9.78254 29.9625 9.74131 30.0038C9.70009 30.045 9.64418 30.0681 9.58588 30.0681C9.52758 30.0681 9.47166 30.045 9.43044 30.0038C9.38921 29.9625 9.36606 29.9066 9.36606 29.8483V27.6328L9.15297 27.7646C9.10341 27.7952 9.04372 27.8049 8.98703 27.7915C8.93035 27.7781 8.8813 27.7427 8.85069 27.6932C8.82008 27.6436 8.81041 27.5839 8.8238 27.5272C8.8372 27.4705 8.87257 27.4215 8.92213 27.3909L9.46933 27.05C9.50281 27.0301 9.54093 27.0194 9.57986 27.0188C9.6188 27.0183 9.65721 27.0279 9.69125 27.0468C9.72529 27.0658 9.75377 27.0933 9.77385 27.1266C9.79393 27.16 9.80491 27.1981 9.8057 27.237V29.8483Z" fill="#FAFAFA"/>
<path d="M8.22511 29.8483C8.22337 29.9054 8.19945 29.9596 8.15844 29.9994C8.11742 30.0392 8.06253 30.0614 8.00539 30.0614C7.94825 30.0614 7.89335 30.0392 7.85234 29.9994C7.81132 29.9596 7.78741 29.9054 7.78567 29.8483V27.6328L7.57238 27.7646C7.52286 27.7939 7.46383 27.8026 7.40797 27.7888C7.35212 27.775 7.3039 27.7399 7.27369 27.6909C7.24347 27.642 7.23368 27.5831 7.2464 27.527C7.25913 27.4709 7.29336 27.422 7.34174 27.3909L7.88895 27.05C7.92243 27.0301 7.96054 27.0194 7.99948 27.0188C8.03842 27.0183 8.07682 27.0279 8.11086 27.0468C8.1449 27.0658 8.17338 27.0933 8.19346 27.1266C8.21354 27.16 8.22453 27.1981 8.22531 27.237L8.22511 29.8483Z" fill="#FAFAFA"/>
<path d="M9.8057 29.8483C9.8057 29.9066 9.78254 29.9625 9.74131 30.0038C9.70009 30.045 9.64418 30.0681 9.58588 30.0681C9.52758 30.0681 9.47166 30.045 9.43044 30.0038C9.38921 29.9625 9.36606 29.9066 9.36606 29.8483V27.6328L9.15297 27.7646C9.10341 27.7952 9.04372 27.8049 8.98703 27.7915C8.93035 27.7781 8.8813 27.7427 8.85069 27.6932C8.82008 27.6436 8.81041 27.5839 8.8238 27.5272C8.8372 27.4705 8.87257 27.4215 8.92213 27.3909L9.46933 27.05C9.50281 27.0301 9.54093 27.0194 9.57986 27.0188C9.6188 27.0183 9.65721 27.0279 9.69125 27.0468C9.72529 27.0658 9.75377 27.0933 9.77385 27.1266C9.79393 27.16 9.80491 27.1981 9.8057 27.237V29.8483Z" fill="#FAFAFA"/>
<path d="M7.61182 27.332H9.90353" stroke="#191919" stroke-width="0.343756" stroke-linecap="round" stroke-linejoin="round"/>
<path d="M8.75781 28.4792V26.1875" stroke="#191919" stroke-width="0.343756" stroke-linecap="round" stroke-linejoin="round"/>
</g>
<g clip-path="url(#clip5_8758_17226)">
<path d="M28.6429 5.86728C29.0117 5.86685 29.3654 5.72012 29.6262 5.45927C29.8871 5.19843 30.0338 4.84478 30.0342 4.47589V3.99441C29.1141 4.16774 28.1691 4.16102 27.2515 3.97461V4.47589C27.2519 4.84478 27.3986 5.19843 27.6595 5.45927C27.9203 5.72012 28.274 5.86685 28.6429 5.86728Z" fill="#FAFAFA"/>
<path d="M34.3428 8.6215L33.2018 6.22326C32.9866 5.77433 32.6075 5.42501 32.1425 5.24723L31.2718 4.91535C30.9273 4.8135 30.6758 4.40876 30.4737 4.13281V4.41019C30.482 4.66603 30.4368 4.92078 30.3411 5.15818C30.2453 5.39558 30.1012 5.61042 29.9178 5.78898C29.7344 5.96755 29.5158 6.10592 29.2759 6.19527C29.036 6.28462 28.7802 6.32299 28.5246 6.30792C28.2691 6.29285 28.0195 6.22467 27.7918 6.10775C27.5641 5.99082 27.3633 5.82772 27.2021 5.62883C27.041 5.42994 26.9231 5.19965 26.8559 4.95265C26.7888 4.70564 26.7738 4.44735 26.8121 4.19425C26.6615 4.48374 26.4153 4.7121 26.1153 4.84045L25.2997 5.13293C24.8315 5.29852 24.4456 5.63876 24.2226 6.08243L22.9431 8.6215C22.9253 8.66 22.9234 8.70395 22.9378 8.74383C22.9522 8.78371 22.9817 8.81632 23.02 8.83458L24.7243 9.60957C24.7563 9.62418 24.7914 9.63089 24.8265 9.62913C24.8616 9.62738 24.8958 9.61722 24.9262 9.5995C24.9566 9.58178 24.9823 9.55702 25.0012 9.52731C25.02 9.49759 25.0315 9.46379 25.0345 9.42873L25.0972 8.71437C25.1037 8.65706 25.1324 8.60457 25.177 8.56808C25.2217 8.53159 25.2789 8.51399 25.3363 8.51902C25.3938 8.52405 25.447 8.55131 25.4846 8.59501C25.5223 8.6387 25.5414 8.69537 25.5379 8.75294L25.0072 14.7851C25.007 14.8279 25.0155 14.8703 25.0324 14.9097C25.0492 14.9491 25.0739 14.9847 25.105 15.0141C25.1361 15.0436 25.173 15.0663 25.2132 15.081C25.2535 15.0957 25.2963 15.1019 25.3391 15.0994H31.9643C32.0073 15.1019 32.0503 15.0956 32.0907 15.0808C32.1311 15.066 32.168 15.0431 32.1992 15.0133C32.2303 14.9836 32.255 14.9479 32.2717 14.9082C32.2884 14.8685 32.2967 14.8259 32.2962 14.7828C32.2023 13.7762 31.8137 9.67101 31.7276 8.75417C31.7234 8.69679 31.7419 8.64008 31.7791 8.59618C31.8162 8.55227 31.8691 8.52467 31.9264 8.51928C31.9837 8.51389 32.0408 8.53114 32.0855 8.56734C32.1302 8.60353 32.1589 8.6558 32.1656 8.71294L32.2323 9.41996C32.2356 9.4547 32.2471 9.48815 32.2659 9.51756C32.2847 9.54697 32.3102 9.57148 32.3403 9.58908C32.3705 9.60667 32.4044 9.61683 32.4392 9.61873C32.474 9.62062 32.5088 9.6142 32.5407 9.59998L34.2658 8.8303C34.3035 8.81252 34.3327 8.78065 34.3471 8.74155C34.3615 8.70245 34.3599 8.65946 34.3428 8.6215ZM28.2251 12.8483C28.2234 12.9054 28.1995 12.9596 28.1584 12.9994C28.1174 13.0392 28.0625 13.0614 28.0054 13.0614C27.9482 13.0614 27.8934 13.0392 27.8523 12.9994C27.8113 12.9596 27.7874 12.9054 27.7857 12.8483V10.6328L27.5724 10.7646C27.5229 10.7939 27.4638 10.8026 27.408 10.7888C27.3521 10.775 27.3039 10.7399 27.2737 10.6909C27.2435 10.642 27.2337 10.5831 27.2464 10.527C27.2591 10.4709 27.2934 10.422 27.3417 10.3909L27.8889 10.05C27.9224 10.0301 27.9605 10.0194 27.9995 10.0188C28.0384 10.0183 28.0768 10.0279 28.1109 10.0468C28.1449 10.0658 28.1734 10.0933 28.1935 10.1266C28.2135 10.16 28.2245 10.1981 28.2253 10.237L28.2251 12.8483ZM29.8057 12.8483C29.8057 12.9066 29.7825 12.9625 29.7413 13.0038C29.7001 13.045 29.6442 13.0681 29.5859 13.0681C29.5276 13.0681 29.4717 13.045 29.4304 13.0038C29.3892 12.9625 29.3661 12.9066 29.3661 12.8483V10.6328L29.153 10.7646C29.1034 10.7952 29.0437 10.8049 28.987 10.7915C28.9303 10.7781 28.8813 10.7427 28.8507 10.6932C28.8201 10.6436 28.8104 10.5839 28.8238 10.5272C28.8372 10.4705 28.8726 10.4215 28.9221 10.3909L29.4693 10.05C29.5028 10.0301 29.5409 10.0194 29.5799 10.0188C29.6188 10.0183 29.6572 10.0279 29.6912 10.0468C29.7253 10.0658 29.7538 10.0933 29.7739 10.1266C29.7939 10.16 29.8049 10.1981 29.8057 10.237V12.8483Z" fill="#FAFAFA"/>
<path d="M28.2251 12.8483C28.2234 12.9054 28.1995 12.9596 28.1584 12.9994C28.1174 13.0392 28.0625 13.0614 28.0054 13.0614C27.9482 13.0614 27.8934 13.0392 27.8523 12.9994C27.8113 12.9596 27.7874 12.9054 27.7857 12.8483V10.6328L27.5724 10.7646C27.5229 10.7939 27.4638 10.8026 27.408 10.7888C27.3521 10.775 27.3039 10.7399 27.2737 10.6909C27.2435 10.642 27.2337 10.5831 27.2464 10.527C27.2591 10.4709 27.2934 10.422 27.3417 10.3909L27.8889 10.05C27.9224 10.0301 27.9605 10.0194 27.9995 10.0188C28.0384 10.0183 28.0768 10.0279 28.1109 10.0468C28.1449 10.0658 28.1734 10.0933 28.1935 10.1266C28.2135 10.16 28.2245 10.1981 28.2253 10.237L28.2251 12.8483Z" fill="#FAFAFA"/>
<path d="M29.8057 12.8483C29.8057 12.9066 29.7825 12.9625 29.7413 13.0038C29.7001 13.045 29.6442 13.0681 29.5859 13.0681C29.5276 13.0681 29.4717 13.045 29.4304 13.0038C29.3892 12.9625 29.3661 12.9066 29.3661 12.8483V10.6328L29.153 10.7646C29.1034 10.7952 29.0437 10.8049 28.987 10.7915C28.9303 10.7781 28.8813 10.7427 28.8507 10.6932C28.8201 10.6436 28.8104 10.5839 28.8238 10.5272C28.8372 10.4705 28.8726 10.4215 28.9221 10.3909L29.4693 10.05C29.5028 10.0301 29.5409 10.0194 29.5799 10.0188C29.6188 10.0183 29.6572 10.0279 29.6912 10.0468C29.7253 10.0658 29.7538 10.0933 29.7739 10.1266C29.7939 10.16 29.8049 10.1981 29.8057 10.237V12.8483Z" fill="#FAFAFA"/>
<path d="M27.6118 10.332H29.9035" stroke="#191919" stroke-width="0.343756" stroke-linecap="round" stroke-linejoin="round"/>
<path d="M28.7578 11.4792V9.1875" stroke="#191919" stroke-width="0.343756" stroke-linecap="round" stroke-linejoin="round"/>
</g>
<g clip-path="url(#clip6_8758_17226)">
<path d="M71.7056 22.8673C72.0745 22.8668 72.4281 22.7201 72.689 22.4593C72.9498 22.1984 73.0965 21.8448 73.097 21.4759V20.9944C72.1768 21.1677 71.2318 21.161 70.3142 20.9746V21.4759C70.3146 21.8448 70.4614 22.1984 70.7222 22.4593C70.9831 22.7201 71.3367 22.8668 71.7056 22.8673Z" fill="#FAFAFA"/>
<path d="M77.4055 25.6215L76.2646 23.2233C76.0494 22.7743 75.6702 22.425 75.2052 22.2472L74.3345 21.9154C73.99 21.8135 73.7385 21.4088 73.5365 21.1328V21.4102C73.5447 21.666 73.4995 21.9208 73.4038 22.1582C73.3081 22.3956 73.1639 22.6104 72.9805 22.789C72.7971 22.9675 72.5785 23.1059 72.3386 23.1953C72.0988 23.2846 71.8429 23.323 71.5874 23.3079C71.3318 23.2928 71.0823 23.2247 70.8546 23.1077C70.6268 22.9908 70.426 22.8277 70.2649 22.6288C70.1037 22.4299 69.9858 22.1997 69.9187 21.9526C69.8515 21.7056 69.8366 21.4473 69.8748 21.1942C69.7243 21.4837 69.478 21.7121 69.178 21.8404L68.3624 22.1329C67.8943 22.2985 67.5083 22.6388 67.2853 23.0824L66.0058 25.6215C65.988 25.66 65.9862 25.7039 66.0006 25.7438C66.015 25.7837 66.0445 25.8163 66.0828 25.8346L67.787 26.6096C67.819 26.6242 67.8541 26.6309 67.8892 26.6291C67.9244 26.6274 67.9586 26.6172 67.989 26.5995C68.0194 26.5818 68.0451 26.557 68.0639 26.5273C68.0828 26.4976 68.0942 26.4638 68.0973 26.4287L68.1599 25.7144C68.1665 25.6571 68.1951 25.6046 68.2398 25.5681C68.2845 25.5316 68.3416 25.514 68.3991 25.519C68.4565 25.524 68.5097 25.5513 68.5474 25.595C68.585 25.6387 68.6041 25.6954 68.6006 25.7529L68.0699 31.7851C68.0697 31.8279 68.0783 31.8703 68.0951 31.9097C68.1119 31.9491 68.1367 31.9847 68.1678 32.0141C68.1989 32.0436 68.2357 32.0663 68.276 32.081C68.3162 32.0957 68.359 32.1019 68.4018 32.0994H75.0271C75.07 32.1019 75.113 32.0956 75.1534 32.0808C75.1938 32.066 75.2308 32.0431 75.2619 32.0133C75.293 31.9836 75.3177 31.9479 75.3344 31.9082C75.3511 31.8685 75.3595 31.8259 75.3589 31.7828C75.265 30.7762 74.8764 26.671 74.7903 25.7542C74.7862 25.6968 74.8047 25.6401 74.8418 25.5962C74.879 25.5523 74.9319 25.5247 74.9891 25.5193C75.0464 25.5139 75.1035 25.5311 75.1482 25.5673C75.1929 25.6035 75.2217 25.6558 75.2283 25.7129L75.2951 26.42C75.2983 26.4547 75.3099 26.4882 75.3286 26.5176C75.3474 26.547 75.3729 26.5715 75.4031 26.5891C75.4332 26.6067 75.4671 26.6168 75.5019 26.6187C75.5368 26.6206 75.5716 26.6142 75.6035 26.6L77.3286 25.8303C77.3662 25.8125 77.3954 25.7806 77.4098 25.7415C77.4242 25.7024 77.4227 25.6595 77.4055 25.6215ZM71.2879 29.8483C71.2861 29.9054 71.2622 29.9596 71.2212 29.9994C71.1802 30.0392 71.1253 30.0614 71.0681 30.0614C71.011 30.0614 70.9561 30.0392 70.9151 29.9994C70.8741 29.9596 70.8502 29.9054 70.8484 29.8483V27.6328L70.6351 27.7646C70.5856 27.7939 70.5266 27.8026 70.4707 27.7888C70.4149 27.775 70.3666 27.7399 70.3364 27.6909C70.3062 27.642 70.2964 27.5831 70.3091 27.527C70.3219 27.4709 70.3561 27.422 70.4045 27.3909L70.9517 27.05C70.9852 27.0301 71.0233 27.0194 71.0622 27.0188C71.1012 27.0183 71.1396 27.0279 71.1736 27.0468C71.2076 27.0658 71.2361 27.0933 71.2562 27.1266C71.2763 27.16 71.2873 27.1981 71.2881 27.237L71.2879 29.8483ZM72.8684 29.8483C72.8684 29.9066 72.8453 29.9625 72.8041 30.0038C72.7628 30.045 72.7069 30.0681 72.6486 30.0681C72.5903 30.0681 72.5344 30.045 72.4932 30.0038C72.452 29.9625 72.4288 29.9066 72.4288 29.8483V27.6328L72.2157 27.7646C72.1662 27.7952 72.1065 27.8049 72.0498 27.7915C71.9931 27.7781 71.944 27.7427 71.9134 27.6932C71.8828 27.6436 71.8732 27.5839 71.8865 27.5272C71.8999 27.4705 71.9353 27.4215 71.9849 27.3909L72.5321 27.05C72.5656 27.0301 72.6037 27.0194 72.6426 27.0188C72.6815 27.0183 72.72 27.0279 72.754 27.0468C72.788 27.0658 72.8165 27.0933 72.8366 27.1266C72.8567 27.16 72.8677 27.1981 72.8684 27.237V29.8483Z" fill="#FAFAFA"/>
<path d="M71.2879 29.8483C71.2861 29.9054 71.2622 29.9596 71.2212 29.9994C71.1802 30.0392 71.1253 30.0614 71.0681 30.0614C71.011 30.0614 70.9561 30.0392 70.9151 29.9994C70.8741 29.9596 70.8502 29.9054 70.8484 29.8483V27.6328L70.6351 27.7646C70.5856 27.7939 70.5266 27.8026 70.4707 27.7888C70.4149 27.775 70.3666 27.7399 70.3364 27.6909C70.3062 27.642 70.2964 27.5831 70.3091 27.527C70.3219 27.4709 70.3561 27.422 70.4045 27.3909L70.9517 27.05C70.9852 27.0301 71.0233 27.0194 71.0622 27.0188C71.1012 27.0183 71.1396 27.0279 71.1736 27.0468C71.2076 27.0658 71.2361 27.0933 71.2562 27.1266C71.2763 27.16 71.2873 27.1981 71.2881 27.237L71.2879 29.8483Z" fill="#FAFAFA"/>
<path d="M72.8684 29.8483C72.8684 29.9066 72.8453 29.9625 72.8041 30.0038C72.7628 30.045 72.7069 30.0681 72.6486 30.0681C72.5903 30.0681 72.5344 30.045 72.4932 30.0038C72.452 29.9625 72.4288 29.9066 72.4288 29.8483V27.6328L72.2157 27.7646C72.1662 27.7952 72.1065 27.8049 72.0498 27.7915C71.9931 27.7781 71.944 27.7427 71.9134 27.6932C71.8828 27.6436 71.8732 27.5839 71.8865 27.5272C71.8999 27.4705 71.9353 27.4215 71.9849 27.3909L72.5321 27.05C72.5656 27.0301 72.6037 27.0194 72.6426 27.0188C72.6815 27.0183 72.72 27.0279 72.754 27.0468C72.788 27.0658 72.8165 27.0933 72.8366 27.1266C72.8567 27.16 72.8677 27.1981 72.8684 27.237V29.8483Z" fill="#FAFAFA"/>
<path d="M70.6746 27.332H72.9663" stroke="#191919" stroke-width="0.343756" stroke-linecap="round" stroke-linejoin="round"/>
<path d="M71.8206 28.4792V26.1875" stroke="#191919" stroke-width="0.343756" stroke-linecap="round" stroke-linejoin="round"/>
</g>
<g clip-path="url(#clip7_8758_17226)">
<path d="M51.7056 5.86728C52.0745 5.86685 52.4281 5.72012 52.689 5.45927C52.9498 5.19843 53.0965 4.84478 53.097 4.47589V3.99441C52.1768 4.16774 51.2318 4.16102 50.3142 3.97461V4.47589C50.3146 4.84478 50.4614 5.19843 50.7222 5.45927C50.9831 5.72012 51.3367 5.86685 51.7056 5.86728Z" fill="#FAFAFA"/>
<path d="M57.4055 8.6215L56.2646 6.22326C56.0494 5.77433 55.6702 5.42501 55.2052 5.24723L54.3345 4.91535C53.99 4.8135 53.7385 4.40876 53.5365 4.13281V4.41019C53.5447 4.66603 53.4995 4.92078 53.4038 5.15818C53.3081 5.39558 53.1639 5.61042 52.9805 5.78898C52.7971 5.96755 52.5785 6.10592 52.3386 6.19527C52.0988 6.28462 51.8429 6.32299 51.5874 6.30792C51.3318 6.29285 51.0823 6.22467 50.8546 6.10775C50.6268 5.99082 50.426 5.82772 50.2649 5.62883C50.1037 5.42994 49.9858 5.19965 49.9187 4.95265C49.8515 4.70564 49.8366 4.44735 49.8748 4.19425C49.7243 4.48374 49.478 4.7121 49.178 4.84045L48.3624 5.13293C47.8943 5.29852 47.5083 5.63876 47.2853 6.08243L46.0058 8.6215C45.988 8.66 45.9862 8.70395 46.0006 8.74383C46.015 8.78371 46.0445 8.81632 46.0828 8.83458L47.787 9.60957C47.819 9.62418 47.8541 9.63089 47.8892 9.62913C47.9244 9.62738 47.9586 9.61722 47.989 9.5995C48.0194 9.58178 48.0451 9.55702 48.0639 9.52731C48.0828 9.49759 48.0942 9.46379 48.0973 9.42873L48.1599 8.71437C48.1665 8.65706 48.1951 8.60457 48.2398 8.56808C48.2845 8.53159 48.3416 8.51399 48.3991 8.51902C48.4565 8.52405 48.5097 8.55131 48.5474 8.59501C48.585 8.6387 48.6041 8.69537 48.6006 8.75294L48.0699 14.7851C48.0697 14.8279 48.0783 14.8703 48.0951 14.9097C48.1119 14.9491 48.1367 14.9847 48.1678 15.0141C48.1989 15.0436 48.2357 15.0663 48.276 15.081C48.3162 15.0957 48.359 15.1019 48.4018 15.0994H55.0271C55.07 15.1019 55.113 15.0956 55.1534 15.0808C55.1938 15.066 55.2308 15.0431 55.2619 15.0133C55.293 14.9836 55.3177 14.9479 55.3344 14.9082C55.3511 14.8685 55.3595 14.8259 55.3589 14.7828C55.265 13.7762 54.8764 9.67101 54.7903 8.75417C54.7862 8.69679 54.8047 8.64008 54.8418 8.59618C54.879 8.55227 54.9319 8.52467 54.9891 8.51928C55.0464 8.51389 55.1035 8.53114 55.1482 8.56734C55.1929 8.60353 55.2217 8.6558 55.2283 8.71294L55.2951 9.41996C55.2983 9.4547 55.3099 9.48815 55.3286 9.51756C55.3474 9.54697 55.3729 9.57148 55.4031 9.58908C55.4332 9.60667 55.4671 9.61683 55.5019 9.61873C55.5368 9.62062 55.5716 9.6142 55.6035 9.59998L57.3286 8.8303C57.3662 8.81252 57.3954 8.78065 57.4098 8.74155C57.4242 8.70245 57.4227 8.65946 57.4055 8.6215ZM51.2879 12.8483C51.2861 12.9054 51.2622 12.9596 51.2212 12.9994C51.1802 13.0392 51.1253 13.0614 51.0681 13.0614C51.011 13.0614 50.9561 13.0392 50.9151 12.9994C50.8741 12.9596 50.8502 12.9054 50.8484 12.8483V10.6328L50.6351 10.7646C50.5856 10.7939 50.5266 10.8026 50.4707 10.7888C50.4149 10.775 50.3666 10.7399 50.3364 10.6909C50.3062 10.642 50.2964 10.5831 50.3091 10.527C50.3219 10.4709 50.3561 10.422 50.4045 10.3909L50.9517 10.05C50.9852 10.0301 51.0233 10.0194 51.0622 10.0188C51.1012 10.0183 51.1396 10.0279 51.1736 10.0468C51.2076 10.0658 51.2361 10.0933 51.2562 10.1266C51.2763 10.16 51.2873 10.1981 51.2881 10.237L51.2879 12.8483ZM52.8684 12.8483C52.8684 12.9066 52.8453 12.9625 52.8041 13.0038C52.7628 13.045 52.7069 13.0681 52.6486 13.0681C52.5903 13.0681 52.5344 13.045 52.4932 13.0038C52.452 12.9625 52.4288 12.9066 52.4288 12.8483V10.6328L52.2157 10.7646C52.1662 10.7952 52.1065 10.8049 52.0498 10.7915C51.9931 10.7781 51.944 10.7427 51.9134 10.6932C51.8828 10.6436 51.8732 10.5839 51.8865 10.5272C51.8999 10.4705 51.9353 10.4215 51.9849 10.3909L52.5321 10.05C52.5656 10.0301 52.6037 10.0194 52.6426 10.0188C52.6815 10.0183 52.72 10.0279 52.754 10.0468C52.788 10.0658 52.8165 10.0933 52.8366 10.1266C52.8567 10.16 52.8677 10.1981 52.8684 10.237V12.8483Z" fill="#FAFAFA"/>
<path d="M51.2879 12.8483C51.2861 12.9054 51.2622 12.9596 51.2212 12.9994C51.1802 13.0392 51.1253 13.0614 51.0681 13.0614C51.011 13.0614 50.9561 13.0392 50.9151 12.9994C50.8741 12.9596 50.8502 12.9054 50.8484 12.8483V10.6328L50.6351 10.7646C50.5856 10.7939 50.5266 10.8026 50.4707 10.7888C50.4149 10.775 50.3666 10.7399 50.3364 10.6909C50.3062 10.642 50.2964 10.5831 50.3091 10.527C50.3219 10.4709 50.3561 10.422 50.4045 10.3909L50.9517 10.05C50.9852 10.0301 51.0233 10.0194 51.0622 10.0188C51.1012 10.0183 51.1396 10.0279 51.1736 10.0468C51.2076 10.0658 51.2361 10.0933 51.2562 10.1266C51.2763 10.16 51.2873 10.1981 51.2881 10.237L51.2879 12.8483Z" fill="#FAFAFA"/>
<path d="M52.8684 12.8483C52.8684 12.9066 52.8453 12.9625 52.8041 13.0038C52.7628 13.045 52.7069 13.0681 52.6486 13.0681C52.5903 13.0681 52.5344 13.045 52.4932 13.0038C52.452 12.9625 52.4288 12.9066 52.4288 12.8483V10.6328L52.2157 10.7646C52.1662 10.7952 52.1065 10.8049 52.0498 10.7915C51.9931 10.7781 51.944 10.7427 51.9134 10.6932C51.8828 10.6436 51.8732 10.5839 51.8865 10.5272C51.8999 10.4705 51.9353 10.4215 51.9849 10.3909L52.5321 10.05C52.5656 10.0301 52.6037 10.0194 52.6426 10.0188C52.6815 10.0183 52.72 10.0279 52.754 10.0468C52.788 10.0658 52.8165 10.0933 52.8366 10.1266C52.8567 10.16 52.8677 10.1981 52.8684 10.237V12.8483Z" fill="#FAFAFA"/>
<path d="M50.6746 10.332H52.9663" stroke="#191919" stroke-width="0.343756" stroke-linecap="round" stroke-linejoin="round"/>
<path d="M51.8206 11.4792V9.1875" stroke="#191919" stroke-width="0.343756" stroke-linecap="round" stroke-linejoin="round"/>
</g>
<path d="M52.8311 34.8673C53.2 34.8668 53.5536 34.7201 53.8145 34.4593C54.0753 34.1984 54.222 33.8448 54.2225 33.4759V32.9944C53.3023 33.1677 52.3573 33.161 51.4397 32.9746V33.4759C51.4401 33.8448 51.5869 34.1984 51.8477 34.4593C52.1085 34.7201 52.4622 34.8668 52.8311 34.8673Z" fill="#FAFAFA"/>
<path d="M58.531 37.6215L57.39 35.2233C57.1749 34.7743 56.7957 34.425 56.3307 34.2472L55.46 33.9154C55.1155 33.8135 54.864 33.4088 54.662 33.1328V33.4102C54.6702 33.666 54.625 33.9208 54.5293 34.1582C54.4336 34.3956 54.2894 34.6104 54.106 34.789C53.9226 34.9675 53.704 35.1059 53.4641 35.1953C53.2243 35.2846 52.9684 35.323 52.7129 35.3079C52.4573 35.2928 52.2077 35.2247 51.98 35.1077C51.7523 34.9908 51.5515 34.8277 51.3904 34.6288C51.2292 34.4299 51.1113 34.1997 51.0441 33.9526C50.977 33.7056 50.9621 33.4473 51.0003 33.1942C50.8498 33.4837 50.6035 33.7121 50.3035 33.8404L49.4879 34.1329C49.0198 34.2985 48.6338 34.6388 48.4108 35.0824L47.1313 37.6215C47.1135 37.66 47.1116 37.7039 47.126 37.7438C47.1404 37.7837 47.17 37.8163 47.2082 37.8346L48.9125 38.6096C48.9445 38.6242 48.9796 38.6309 49.0147 38.6291C49.0499 38.6274 49.0841 38.6172 49.1145 38.5995C49.1449 38.5818 49.1706 38.557 49.1894 38.5273C49.2083 38.4976 49.2197 38.4638 49.2228 38.4287L49.2854 37.7144C49.292 37.6571 49.3206 37.6046 49.3653 37.5681C49.4099 37.5316 49.4671 37.514 49.5245 37.519C49.582 37.524 49.6352 37.5513 49.6729 37.595C49.7105 37.6387 49.7296 37.6954 49.7261 37.7529L49.1954 43.7851C49.1952 43.8279 49.2038 43.8703 49.2206 43.9097C49.2374 43.9491 49.2622 43.9847 49.2933 44.0141C49.3244 44.0436 49.3612 44.0663 49.4014 44.081C49.4417 44.0957 49.4845 44.1019 49.5273 44.0994H56.1525C56.1955 44.1019 56.2385 44.0956 56.2789 44.0808C56.3193 44.066 56.3563 44.0431 56.3874 44.0133C56.4185 43.9836 56.4432 43.9479 56.4599 43.9082C56.4766 43.8685 56.4849 43.8259 56.4844 43.7828C56.3905 42.7762 56.0019 38.671 55.9158 37.7542C55.9116 37.6968 55.9301 37.6401 55.9673 37.5962C56.0045 37.5523 56.0574 37.5247 56.1146 37.5193C56.1719 37.5139 56.229 37.5311 56.2737 37.5673C56.3184 37.6035 56.3472 37.6558 56.3538 37.7129L56.4205 38.42C56.4238 38.4547 56.4353 38.4882 56.4541 38.5176C56.4729 38.547 56.4984 38.5715 56.5286 38.5891C56.5587 38.6067 56.5926 38.6168 56.6274 38.6187C56.6623 38.6206 56.6971 38.6142 56.7289 38.6L58.454 37.8303C58.4917 37.8125 58.5209 37.7806 58.5353 37.7415C58.5497 37.7024 58.5481 37.6595 58.531 37.6215ZM52.4133 41.8483C52.4116 41.9054 52.3877 41.9596 52.3467 41.9994C52.3057 42.0392 52.2508 42.0614 52.1936 42.0614C52.1365 42.0614 52.0816 42.0392 52.0406 41.9994C51.9996 41.9596 51.9756 41.9054 51.9739 41.8483V39.6328L51.7606 39.7646C51.7111 39.7939 51.6521 39.8026 51.5962 39.7888C51.5404 39.775 51.4921 39.7399 51.4619 39.6909C51.4317 39.642 51.4219 39.5831 51.4346 39.527C51.4474 39.4709 51.4816 39.422 51.53 39.3909L52.0772 39.05C52.1107 39.0301 52.1488 39.0194 52.1877 39.0188C52.2266 39.0183 52.2651 39.0279 52.2991 39.0468C52.3331 39.0658 52.3616 39.0933 52.3817 39.1266C52.4018 39.16 52.4128 39.1981 52.4135 39.237L52.4133 41.8483ZM53.9939 41.8483C53.9939 41.9066 53.9708 41.9625 53.9295 42.0038C53.8883 42.045 53.8324 42.0681 53.7741 42.0681C53.7158 42.0681 53.6599 42.045 53.6187 42.0038C53.5774 41.9625 53.5543 41.9066 53.5543 41.8483V39.6328L53.3412 39.7646C53.2916 39.7952 53.232 39.8049 53.1753 39.7915C53.1186 39.7781 53.0695 39.7427 53.0389 39.6932C53.0083 39.6436 52.9986 39.5839 53.012 39.5272C53.0254 39.4705 53.0608 39.4215 53.1104 39.3909L53.6576 39.05C53.691 39.0301 53.7292 39.0194 53.7681 39.0188C53.807 39.0183 53.8454 39.0279 53.8795 39.0468C53.9135 39.0658 53.942 39.0933 53.9621 39.1266C53.9822 39.16 53.9931 39.1981 53.9939 39.237V41.8483Z" fill="#FAFAFA"/>
<path d="M52.4133 41.8483C52.4116 41.9054 52.3877 41.9596 52.3467 41.9994C52.3057 42.0392 52.2508 42.0614 52.1936 42.0614C52.1365 42.0614 52.0816 42.0392 52.0406 41.9994C51.9996 41.9596 51.9756 41.9054 51.9739 41.8483V39.6328L51.7606 39.7646C51.7111 39.7939 51.6521 39.8026 51.5962 39.7888C51.5404 39.775 51.4921 39.7399 51.4619 39.6909C51.4317 39.642 51.4219 39.5831 51.4346 39.527C51.4474 39.4709 51.4816 39.422 51.53 39.3909L52.0772 39.05C52.1107 39.0301 52.1488 39.0194 52.1877 39.0188C52.2266 39.0183 52.2651 39.0279 52.2991 39.0468C52.3331 39.0658 52.3616 39.0933 52.3817 39.1266C52.4018 39.16 52.4128 39.1981 52.4135 39.237L52.4133 41.8483Z" fill="#FAFAFA"/>
<path d="M53.9939 41.8483C53.9939 41.9066 53.9708 41.9625 53.9295 42.0038C53.8883 42.045 53.8324 42.0681 53.7741 42.0681C53.7158 42.0681 53.6599 42.045 53.6187 42.0038C53.5774 41.9625 53.5543 41.9066 53.5543 41.8483V39.6328L53.3412 39.7646C53.2916 39.7952 53.232 39.8049 53.1753 39.7915C53.1186 39.7781 53.0695 39.7427 53.0389 39.6932C53.0083 39.6436 52.9986 39.5839 53.012 39.5272C53.0254 39.4705 53.0608 39.4215 53.1104 39.3909L53.6576 39.05C53.691 39.0301 53.7292 39.0194 53.7681 39.0188C53.807 39.0183 53.8454 39.0279 53.8795 39.0468C53.9135 39.0658 53.942 39.0933 53.9621 39.1266C53.9822 39.16 53.9931 39.1981 53.9939 39.237V41.8483Z" fill="#FAFAFA"/>
<path d="M51.8 39.332H54.0918" stroke="#191919" stroke-width="0.343756" stroke-linecap="round" stroke-linejoin="round"/>
<path d="M52.946 40.4792V38.1875" stroke="#191919" stroke-width="0.343756" stroke-linecap="round" stroke-linejoin="round"/>
<defs>
<clipPath id="clip0_8758_17226">
<rect width="13.0627" height="13.0627" fill="white" transform="translate(65.0627 45)"/>
</clipPath>
<clipPath id="clip1_8758_17226">
<rect width="13.0627" height="13.0627" fill="white" transform="translate(44.0491 50)"/>
</clipPath>
<clipPath id="clip2_8758_17226">
<rect width="13.0627" height="13.0627" fill="white" transform="translate(24.0491 50)"/>
</clipPath>
<clipPath id="clip3_8758_17226">
<rect width="13.0627" height="13.0627" fill="white" transform="translate(22.0491 32)"/>
</clipPath>
<clipPath id="clip4_8758_17226">
<rect width="13.0627" height="13.0627" fill="white" transform="translate(2.11182 20)"/>
</clipPath>
<clipPath id="clip5_8758_17226">
<rect width="13.0627" height="13.0627" fill="white" transform="translate(22.1118 3)"/>
</clipPath>
<clipPath id="clip6_8758_17226">
<rect width="13.0627" height="13.0627" fill="white" transform="translate(65.1746 20)"/>
</clipPath>
<clipPath id="clip7_8758_17226">
<rect width="13.0627" height="13.0627" fill="white" transform="translate(45.1746 3)"/>
</clipPath>
</defs>
</svg>
