<svg width="82" height="81" viewBox="0 0 82 81" fill="none" xmlns="http://www.w3.org/2000/svg">
<rect x="1.00326" y="0.118492" width="79.9807" height="79.9807" rx="5.88541" fill="#828284" stroke="#FAFAFA" stroke-width="0.229171"/>
<mask id="path-2-inside-1_8758_17598" fill="white">
<path d="M24.7224 66.4609H57.2647V80.2112H24.7224V66.4609Z"/>
</mask>
<path d="M24.7224 66.4609V66.2318H24.4932V66.4609H24.7224ZM57.2647 66.4609H57.4939V66.2318H57.2647V66.4609ZM24.7224 66.6901H57.2647V66.2318H24.7224V66.6901ZM57.0355 66.4609V80.2112H57.4939V66.4609H57.0355ZM24.9516 80.2112V66.4609H24.4932V80.2112H24.9516Z" fill="#FAFAFA" mask="url(#path-2-inside-1_8758_17598)"/>
<mask id="path-4-inside-2_8758_17598" fill="white">
<path d="M13.4932 55.0039H68.4942V80.2127H13.4932V55.0039Z"/>
</mask>
<path d="M13.4932 55.0039V54.7747H13.264V55.0039H13.4932ZM68.4942 55.0039H68.7234V54.7747H68.4942V55.0039ZM13.4932 55.2331H68.4942V54.7747H13.4932V55.2331ZM68.265 55.0039V80.2127H68.7234V55.0039H68.265ZM13.7223 80.2127V55.0039H13.264V80.2127H13.7223Z" fill="#FAFAFA" mask="url(#path-4-inside-2_8758_17598)"/>
<path d="M55.2021 9.53674e-07C55.2021 1.65523 54.8168 3.29426 54.0682 4.8235C53.3196 6.35273 52.2224 7.74223 50.8392 8.91266C49.4559 10.0831 47.8138 11.0115 46.0065 11.645C44.1992 12.2784 42.2622 12.6044 40.306 12.6044C38.3498 12.6044 36.4128 12.2784 34.6055 11.645C32.7982 11.0115 31.1561 10.0831 29.7729 8.91266C28.3896 7.74223 27.2924 6.35273 26.5438 4.8235C25.7952 3.29426 25.4099 1.65523 25.4099 0" stroke="#FAFAFA" stroke-width="0.229171"/>
<path d="M31.4659 55.3516C31.9841 54.5174 32.7438 53.7595 33.7014 53.1211C34.659 52.4827 35.7959 51.9763 37.0471 51.6308C38.2983 51.2853 39.6393 51.1074 40.9936 51.1074C42.3478 51.1074 43.6889 51.2853 44.9401 51.6308C46.1912 51.9763 47.3281 52.4827 48.2857 53.1211C49.2434 53.7595 50.003 54.5174 50.5212 55.3516" stroke="#FAFAFA" stroke-width="0.229171"/>
<path d="M1.11768 76.5479C2.2342 76.4958 4.43813 77.1099 4.32163 79.9825" stroke="#FAFAFA" stroke-width="0.229171"/>
<path d="M80.8691 76.5479C79.7526 76.4958 77.5487 77.1099 77.6652 79.9825" stroke="#FAFAFA" stroke-width="0.229171"/>
<path d="M41.1077 69.4356C41.4766 69.4352 41.8302 69.2885 42.0911 69.0276C42.3519 68.7668 42.4986 68.4131 42.4991 68.0443V67.5628C41.5789 67.7361 40.6339 67.7294 39.7163 67.543V68.0443C39.7167 68.4131 39.8635 68.7668 40.1243 69.0276C40.3852 69.2885 40.7388 69.4352 41.1077 69.4356Z" fill="#FAFAFA"/>
<path d="M46.8076 72.1899L45.6667 69.7916C45.4515 69.3427 45.0723 68.9934 44.6073 68.8156L43.7366 68.4837C43.3921 68.3819 43.1406 67.9771 42.9386 67.7012V67.9786C42.9468 68.2344 42.9016 68.4891 42.8059 68.7265C42.7102 68.9639 42.566 69.1788 42.3826 69.3573C42.1992 69.5359 41.9806 69.6743 41.7407 69.7636C41.5009 69.853 41.245 69.8913 40.9895 69.8763C40.7339 69.8612 40.4844 69.793 40.2567 69.6761C40.0289 69.5592 39.8281 69.3961 39.667 69.1972C39.5058 68.9983 39.3879 68.768 39.3208 68.521C39.2536 68.274 39.2387 68.0157 39.2769 67.7626C39.1264 68.0521 38.8801 68.2805 38.5801 68.4088L37.7645 68.7013C37.2964 68.8669 36.9104 69.2071 36.6874 69.6508L35.4079 72.1899C35.3901 72.2284 35.3882 72.2723 35.4027 72.3122C35.4171 72.3521 35.4466 72.3847 35.4849 72.4029L37.1891 73.1779C37.2211 73.1925 37.2562 73.1992 37.2913 73.1975C37.3265 73.1957 37.3607 73.1856 37.3911 73.1679C37.4215 73.1501 37.4472 73.1254 37.466 73.0957C37.4849 73.066 37.4963 73.0321 37.4994 72.9971L37.562 72.2827C37.5686 72.2254 37.5972 72.1729 37.6419 72.1364C37.6866 72.1 37.7437 72.0823 37.8012 72.0874C37.8586 72.0924 37.9118 72.1197 37.9495 72.1634C37.9871 72.2071 38.0062 72.2637 38.0027 72.3213L37.472 78.3534C37.4718 78.3963 37.4804 78.4387 37.4972 78.4781C37.514 78.5175 37.5388 78.553 37.5699 78.5825C37.601 78.6119 37.6378 78.6347 37.6781 78.6494C37.7183 78.664 37.7611 78.6703 37.8039 78.6678H44.4292C44.4721 78.6703 44.5151 78.664 44.5555 78.6492C44.5959 78.6344 44.6329 78.6114 44.664 78.5817C44.6951 78.552 44.7198 78.5162 44.7365 78.4766C44.7532 78.4369 44.7616 78.3942 44.761 78.3512C44.6671 77.3445 44.2785 73.2394 44.1924 72.3225C44.1883 72.2652 44.2068 72.2084 44.2439 72.1645C44.2811 72.1206 44.334 72.093 44.3912 72.0876C44.4485 72.0822 44.5056 72.0995 44.5503 72.1357C44.595 72.1719 44.6238 72.2242 44.6304 72.2813L44.6972 72.9883C44.7004 73.0231 44.712 73.0565 44.7307 73.0859C44.7495 73.1153 44.775 73.1398 44.8052 73.1574C44.8353 73.175 44.8692 73.1852 44.904 73.1871C44.9389 73.189 44.9737 73.1826 45.0056 73.1683L46.7307 72.3987C46.7683 72.3809 46.7975 72.349 46.8119 72.3099C46.8263 72.2708 46.8248 72.2278 46.8076 72.1899ZM40.6899 76.4167C40.6882 76.4738 40.6643 76.528 40.6233 76.5678C40.5823 76.6076 40.5274 76.6298 40.4702 76.6298C40.4131 76.6298 40.3582 76.6076 40.3172 76.5678C40.2762 76.528 40.2523 76.4738 40.2505 76.4167V74.2011L40.0372 74.333C39.9877 74.3623 39.9287 74.3709 39.8728 74.3572C39.817 74.3434 39.7687 74.3082 39.7385 74.2593C39.7083 74.2103 39.6985 74.1515 39.7112 74.0954C39.724 74.0392 39.7582 73.9904 39.8066 73.9592L40.3538 73.6184C40.3873 73.5985 40.4254 73.5877 40.4643 73.5872C40.5033 73.5866 40.5417 73.5963 40.5757 73.6152C40.6097 73.6341 40.6382 73.6616 40.6583 73.695C40.6784 73.7284 40.6894 73.7664 40.6902 73.8054L40.6899 76.4167ZM42.2705 76.4167C42.2705 76.475 42.2474 76.5309 42.2062 76.5721C42.1649 76.6133 42.109 76.6365 42.0507 76.6365C41.9924 76.6365 41.9365 76.6133 41.8953 76.5721C41.8541 76.5309 41.8309 76.475 41.8309 76.4167V74.2011L41.6178 74.333C41.5683 74.3636 41.5086 74.3732 41.4519 74.3598C41.3952 74.3465 41.3461 74.3111 41.3155 74.2615C41.2849 74.212 41.2753 74.1523 41.2886 74.0956C41.302 74.0389 41.3374 73.9899 41.387 73.9592L41.9342 73.6184C41.9677 73.5985 42.0058 73.5877 42.0447 73.5872C42.0836 73.5866 42.1221 73.5963 42.1561 73.6152C42.1901 73.6341 42.2186 73.6616 42.2387 73.695C42.2588 73.7284 42.2698 73.7664 42.2705 73.8054V76.4167Z" fill="#FAFAFA"/>
<path d="M40.6899 76.4167C40.6882 76.4738 40.6643 76.528 40.6233 76.5678C40.5823 76.6076 40.5274 76.6298 40.4702 76.6298C40.4131 76.6298 40.3582 76.6076 40.3172 76.5678C40.2762 76.528 40.2523 76.4738 40.2505 76.4167V74.2011L40.0372 74.333C39.9877 74.3623 39.9287 74.3709 39.8728 74.3572C39.817 74.3434 39.7687 74.3082 39.7385 74.2593C39.7083 74.2103 39.6985 74.1515 39.7112 74.0954C39.724 74.0392 39.7582 73.9904 39.8066 73.9592L40.3538 73.6184C40.3873 73.5985 40.4254 73.5877 40.4643 73.5872C40.5033 73.5866 40.5417 73.5963 40.5757 73.6152C40.6097 73.6341 40.6382 73.6616 40.6583 73.695C40.6784 73.7284 40.6894 73.7664 40.6902 73.8054L40.6899 76.4167Z" fill="#FAFAFA"/>
<path d="M42.2705 76.4167C42.2705 76.475 42.2474 76.5309 42.2062 76.5721C42.1649 76.6133 42.109 76.6365 42.0507 76.6365C41.9924 76.6365 41.9365 76.6133 41.8953 76.5721C41.8541 76.5309 41.8309 76.475 41.8309 76.4167V74.2011L41.6178 74.333C41.5683 74.3636 41.5086 74.3732 41.4519 74.3598C41.3952 74.3465 41.3461 74.3111 41.3155 74.2615C41.2849 74.212 41.2753 74.1523 41.2886 74.0956C41.302 74.0389 41.3374 73.9899 41.387 73.9592L41.9342 73.6184C41.9677 73.5985 42.0058 73.5877 42.0447 73.5872C42.0836 73.5866 42.1221 73.5963 42.1561 73.6152C42.1901 73.6341 42.2186 73.6616 42.2387 73.695C42.2588 73.7284 42.2698 73.7664 42.2705 73.8054V76.4167Z" fill="#FAFAFA"/>
<path d="M40.0767 73.8965H42.3684" stroke="#191919" stroke-width="0.343756" stroke-linecap="round" stroke-linejoin="round"/>
<path d="M41.2227 75.0437V72.752" stroke="#191919" stroke-width="0.343756" stroke-linecap="round" stroke-linejoin="round"/>
<path d="M10.1282 48.8673C10.4971 48.8668 10.8507 48.7201 11.1116 48.4593C11.3724 48.1984 11.5192 47.8448 11.5196 47.4759V46.9944C10.5994 47.1677 9.65441 47.161 8.73682 46.9746V47.4759C8.73725 47.8448 8.88398 48.1984 9.14482 48.4593C9.40566 48.7201 9.75932 48.8668 10.1282 48.8673Z" fill="#FAFAFA"/>
<path d="M15.8281 51.6215L14.6872 49.2233C14.472 48.7743 14.0929 48.425 13.6279 48.2472L12.7571 47.9154C12.4126 47.8135 12.1612 47.4088 11.9591 47.1328V47.4102C11.9673 47.666 11.9221 47.9208 11.8264 48.1582C11.7307 48.3956 11.5865 48.6104 11.4031 48.789C11.2197 48.9675 11.0011 49.1059 10.7612 49.1953C10.5214 49.2846 10.2655 49.323 10.01 49.3079C9.75445 49.2928 9.50487 49.2247 9.27716 49.1077C9.04945 48.9908 8.84862 48.8277 8.68748 48.6288C8.52634 48.4299 8.40843 48.1997 8.34127 47.9526C8.27411 47.7056 8.25918 47.4473 8.29744 47.1942C8.14687 47.4837 7.90063 47.7121 7.60062 47.8404L6.78502 48.1329C6.31688 48.2985 5.93094 48.6388 5.70795 49.0824L4.42841 51.6215C4.41065 51.66 4.40876 51.7039 4.42316 51.7438C4.43756 51.7837 4.46709 51.8163 4.50536 51.8346L6.20964 52.6096C6.24165 52.6242 6.2767 52.6309 6.31185 52.6291C6.34699 52.6274 6.3812 52.6172 6.4116 52.5995C6.44199 52.5818 6.4677 52.557 6.48654 52.5273C6.50538 52.4976 6.51682 52.4638 6.51988 52.4287L6.58254 51.7144C6.58908 51.6571 6.61773 51.6046 6.66239 51.5681C6.70706 51.5316 6.76421 51.514 6.82166 51.519C6.87912 51.524 6.93234 51.5513 6.96999 51.595C7.00763 51.6387 7.02673 51.6954 7.02321 51.7529L6.49253 57.7851C6.49232 57.8279 6.50089 57.8703 6.51772 57.9097C6.53455 57.9491 6.55929 57.9847 6.59039 58.0141C6.62149 58.0436 6.65831 58.0663 6.69856 58.081C6.73881 58.0957 6.78164 58.1019 6.82441 58.0994H13.4497C13.4926 58.1019 13.5356 58.0956 13.576 58.0808C13.6165 58.066 13.6534 58.0431 13.6845 58.0133C13.7156 57.9836 13.7403 57.9479 13.757 57.9082C13.7737 57.8685 13.7821 57.8259 13.7815 57.7828C13.6877 56.7762 13.299 52.671 13.2129 51.7542C13.2088 51.6968 13.2273 51.6401 13.2644 51.5962C13.3016 51.5523 13.3545 51.5247 13.4117 51.5193C13.469 51.5139 13.5261 51.5311 13.5708 51.5673C13.6155 51.6035 13.6443 51.6558 13.6509 51.7129L13.7177 52.42C13.7209 52.4547 13.7325 52.4882 13.7512 52.5176C13.77 52.547 13.7955 52.5715 13.8257 52.5891C13.8558 52.6067 13.8897 52.6168 13.9246 52.6187C13.9594 52.6206 13.9942 52.6142 14.0261 52.6L15.7512 51.8303C15.7888 51.8125 15.818 51.7806 15.8324 51.7415C15.8468 51.7024 15.8453 51.6595 15.8281 51.6215ZM9.71046 55.8483C9.70872 55.9054 9.68481 55.9596 9.64379 55.9994C9.60277 56.0392 9.54788 56.0614 9.49074 56.0614C9.4336 56.0614 9.3787 56.0392 9.33769 55.9994C9.29667 55.9596 9.27276 55.9054 9.27102 55.8483V53.6328L9.05773 53.7646C9.00821 53.7939 8.94918 53.8026 8.89332 53.7888C8.83747 53.775 8.78925 53.7399 8.75904 53.6909C8.72882 53.642 8.71903 53.5831 8.73175 53.527C8.74448 53.4709 8.77871 53.422 8.82709 53.3909L9.3743 53.05C9.40778 53.0301 9.44589 53.0194 9.48483 53.0188C9.52377 53.0183 9.56217 53.0279 9.59621 53.0468C9.63025 53.0658 9.65873 53.0933 9.67881 53.1266C9.6989 53.16 9.70988 53.1981 9.71066 53.237L9.71046 55.8483ZM11.291 55.8483C11.291 55.9066 11.2679 55.9625 11.2267 56.0038C11.1854 56.045 11.1295 56.0681 11.0712 56.0681C11.0129 56.0681 10.957 56.045 10.9158 56.0038C10.8746 55.9625 10.8514 55.9066 10.8514 55.8483V53.6328L10.6383 53.7646C10.5888 53.7952 10.5291 53.8049 10.4724 53.7915C10.4157 53.7781 10.3667 53.7427 10.336 53.6932C10.3054 53.6436 10.2958 53.5839 10.3092 53.5272C10.3226 53.4705 10.3579 53.4215 10.4075 53.3909L10.9547 53.05C10.9882 53.0301 11.0263 53.0194 11.0652 53.0188C11.1042 53.0183 11.1426 53.0279 11.1766 53.0468C11.2106 53.0658 11.2391 53.0933 11.2592 53.1266C11.2793 53.16 11.2903 53.1981 11.291 53.237V55.8483Z" fill="#FAFAFA"/>
<path d="M9.71046 55.8483C9.70872 55.9054 9.68481 55.9596 9.64379 55.9994C9.60277 56.0392 9.54788 56.0614 9.49074 56.0614C9.4336 56.0614 9.3787 56.0392 9.33769 55.9994C9.29667 55.9596 9.27276 55.9054 9.27102 55.8483V53.6328L9.05773 53.7646C9.00821 53.7939 8.94918 53.8026 8.89332 53.7888C8.83747 53.775 8.78925 53.7399 8.75904 53.6909C8.72882 53.642 8.71903 53.5831 8.73175 53.527C8.74448 53.4709 8.77871 53.422 8.82709 53.3909L9.3743 53.05C9.40778 53.0301 9.44589 53.0194 9.48483 53.0188C9.52377 53.0183 9.56217 53.0279 9.59621 53.0468C9.63025 53.0658 9.65873 53.0933 9.67881 53.1266C9.6989 53.16 9.70988 53.1981 9.71066 53.237L9.71046 55.8483Z" fill="#FAFAFA"/>
<path d="M11.291 55.8483C11.291 55.9066 11.2679 55.9625 11.2267 56.0038C11.1854 56.045 11.1295 56.0681 11.0712 56.0681C11.0129 56.0681 10.957 56.045 10.9158 56.0038C10.8746 55.9625 10.8514 55.9066 10.8514 55.8483V53.6328L10.6383 53.7646C10.5888 53.7952 10.5291 53.8049 10.4724 53.7915C10.4157 53.7781 10.3667 53.7427 10.336 53.6932C10.3054 53.6436 10.2958 53.5839 10.3092 53.5272C10.3226 53.4705 10.3579 53.4215 10.4075 53.3909L10.9547 53.05C10.9882 53.0301 11.0263 53.0194 11.0652 53.0188C11.1042 53.0183 11.1426 53.0279 11.1766 53.0468C11.2106 53.0658 11.2391 53.0933 11.2592 53.1266C11.2793 53.16 11.2903 53.1981 11.291 53.237V55.8483Z" fill="#FAFAFA"/>
<path d="M9.09717 53.332H11.3889" stroke="#191919" stroke-width="0.343756" stroke-linecap="round" stroke-linejoin="round"/>
<path d="M10.2432 54.4792V52.1875" stroke="#191919" stroke-width="0.343756" stroke-linecap="round" stroke-linejoin="round"/>
<path d="M71.2097 48.8673C71.5786 48.8668 71.9323 48.7201 72.1931 48.4593C72.454 48.1984 72.6007 47.8448 72.6011 47.4759V46.9944C71.681 47.1677 70.736 47.161 69.8184 46.9746V47.4759C69.8188 47.8448 69.9655 48.1984 70.2264 48.4593C70.4872 48.7201 70.8409 48.8668 71.2097 48.8673Z" fill="#FAFAFA"/>
<path d="M76.9097 51.6215L75.7687 49.2233C75.5535 48.7743 75.1744 48.425 74.7094 48.2472L73.8387 47.9154C73.4942 47.8135 73.2427 47.4088 73.0406 47.1328V47.4102C73.0489 47.666 73.0037 47.9208 72.908 48.1582C72.8122 48.3956 72.6681 48.6104 72.4847 48.789C72.3013 48.9675 72.0827 49.1059 71.8428 49.1953C71.6029 49.2846 71.347 49.323 71.0915 49.3079C70.836 49.2928 70.5864 49.2247 70.3587 49.1077C70.131 48.9908 69.9302 48.8277 69.769 48.6288C69.6079 48.4299 69.49 48.1997 69.4228 47.9526C69.3557 47.7056 69.3407 47.4473 69.379 47.1942C69.2284 47.4837 68.9822 47.7121 68.6822 47.8404L67.8666 48.1329C67.3984 48.2985 67.0125 48.6388 66.7895 49.0824L65.51 51.6215C65.4922 51.66 65.4903 51.7039 65.5047 51.7438C65.5191 51.7837 65.5486 51.8163 65.5869 51.8346L67.2912 52.6096C67.3232 52.6242 67.3582 52.6309 67.3934 52.6291C67.4285 52.6274 67.4627 52.6172 67.4931 52.5995C67.5235 52.5818 67.5492 52.557 67.5681 52.5273C67.5869 52.4976 67.5984 52.4638 67.6014 52.4287L67.6641 51.7144C67.6706 51.6571 67.6993 51.6046 67.7439 51.5681C67.7886 51.5316 67.8458 51.514 67.9032 51.519C67.9607 51.524 68.0139 51.5513 68.0515 51.595C68.0892 51.6387 68.1083 51.6954 68.1047 51.7529L67.5741 57.7851C67.5739 57.8279 67.5824 57.8703 67.5993 57.9097C67.6161 57.9491 67.6408 57.9847 67.6719 58.0141C67.703 58.0436 67.7399 58.0663 67.7801 58.081C67.8204 58.0957 67.8632 58.1019 67.906 58.0994H74.5312C74.5742 58.1019 74.6172 58.0956 74.6576 58.0808C74.698 58.066 74.7349 58.0431 74.7661 58.0133C74.7972 57.9836 74.8219 57.9479 74.8386 57.9082C74.8553 57.8685 74.8636 57.8259 74.8631 57.7828C74.7692 56.7762 74.3806 52.671 74.2944 51.7542C74.2903 51.6968 74.3088 51.6401 74.346 51.5962C74.3831 51.5523 74.436 51.5247 74.4933 51.5193C74.5506 51.5139 74.6077 51.5311 74.6524 51.5673C74.6971 51.6035 74.7258 51.6558 74.7325 51.7129L74.7992 52.42C74.8025 52.4547 74.814 52.4882 74.8328 52.5176C74.8516 52.547 74.8771 52.5715 74.9072 52.5891C74.9374 52.6067 74.9713 52.6168 75.0061 52.6187C75.0409 52.6206 75.0757 52.6142 75.1076 52.6L76.8327 51.8303C76.8704 51.8125 76.8996 51.7806 76.914 51.7415C76.9284 51.7024 76.9268 51.6595 76.9097 51.6215ZM70.792 55.8483C70.7903 55.9054 70.7663 55.9596 70.7253 55.9994C70.6843 56.0392 70.6294 56.0614 70.5723 56.0614C70.5151 56.0614 70.4602 56.0392 70.4192 55.9994C70.3782 55.9596 70.3543 55.9054 70.3526 55.8483V53.6328L70.1393 53.7646C70.0898 53.7939 70.0307 53.8026 69.9749 53.7888C69.919 53.775 69.8708 53.7399 69.8406 53.6909C69.8104 53.642 69.8006 53.5831 69.8133 53.527C69.826 53.4709 69.8603 53.422 69.9086 53.3909L70.4558 53.05C70.4893 53.0301 70.5274 53.0194 70.5664 53.0188C70.6053 53.0183 70.6437 53.0279 70.6778 53.0468C70.7118 53.0658 70.7403 53.0933 70.7604 53.1266C70.7804 53.16 70.7914 53.1981 70.7922 53.237L70.792 55.8483ZM72.3726 55.8483C72.3726 55.9066 72.3494 55.9625 72.3082 56.0038C72.267 56.045 72.2111 56.0681 72.1528 56.0681C72.0945 56.0681 72.0386 56.045 71.9973 56.0038C71.9561 55.9625 71.933 55.9066 71.933 55.8483V53.6328L71.7199 53.7646C71.6703 53.7952 71.6106 53.8049 71.5539 53.7915C71.4972 53.7781 71.4482 53.7427 71.4176 53.6932C71.387 53.6436 71.3773 53.5839 71.3907 53.5272C71.4041 53.4705 71.4395 53.4215 71.489 53.3909L72.0362 53.05C72.0697 53.0301 72.1078 53.0194 72.1468 53.0188C72.1857 53.0183 72.2241 53.0279 72.2581 53.0468C72.2922 53.0658 72.3207 53.0933 72.3407 53.1266C72.3608 53.16 72.3718 53.1981 72.3726 53.237V55.8483Z" fill="#FAFAFA"/>
<path d="M70.792 55.8483C70.7903 55.9054 70.7663 55.9596 70.7253 55.9994C70.6843 56.0392 70.6294 56.0614 70.5723 56.0614C70.5151 56.0614 70.4602 56.0392 70.4192 55.9994C70.3782 55.9596 70.3543 55.9054 70.3526 55.8483V53.6328L70.1393 53.7646C70.0898 53.7939 70.0307 53.8026 69.9749 53.7888C69.919 53.775 69.8708 53.7399 69.8406 53.6909C69.8104 53.642 69.8006 53.5831 69.8133 53.527C69.826 53.4709 69.8603 53.422 69.9086 53.3909L70.4558 53.05C70.4893 53.0301 70.5274 53.0194 70.5664 53.0188C70.6053 53.0183 70.6437 53.0279 70.6778 53.0468C70.7118 53.0658 70.7403 53.0933 70.7604 53.1266C70.7804 53.16 70.7914 53.1981 70.7922 53.237L70.792 55.8483Z" fill="#FAFAFA"/>
<path d="M72.3726 55.8483C72.3726 55.9066 72.3494 55.9625 72.3082 56.0038C72.267 56.045 72.2111 56.0681 72.1528 56.0681C72.0945 56.0681 72.0386 56.045 71.9973 56.0038C71.9561 55.9625 71.933 55.9066 71.933 55.8483V53.6328L71.7199 53.7646C71.6703 53.7952 71.6106 53.8049 71.5539 53.7915C71.4972 53.7781 71.4482 53.7427 71.4176 53.6932C71.387 53.6436 71.3773 53.5839 71.3907 53.5272C71.4041 53.4705 71.4395 53.4215 71.489 53.3909L72.0362 53.05C72.0697 53.0301 72.1078 53.0194 72.1468 53.0188C72.1857 53.0183 72.2241 53.0279 72.2581 53.0468C72.2922 53.0658 72.3207 53.0933 72.3407 53.1266C72.3608 53.16 72.3718 53.1981 72.3726 53.237V55.8483Z" fill="#FAFAFA"/>
<path d="M70.1787 53.332H72.4704" stroke="#191919" stroke-width="0.343756" stroke-linecap="round" stroke-linejoin="round"/>
<path d="M71.3247 54.4792V52.1875" stroke="#191919" stroke-width="0.343756" stroke-linecap="round" stroke-linejoin="round"/>
<path d="M51.2097 52.8673C51.5786 52.8668 51.9323 52.7201 52.1931 52.4593C52.454 52.1984 52.6007 51.8448 52.6011 51.4759V50.9944C51.681 51.1677 50.736 51.161 49.8184 50.9746V51.4759C49.8188 51.8448 49.9655 52.1984 50.2264 52.4593C50.4872 52.7201 50.8409 52.8668 51.2097 52.8673Z" fill="#FAFAFA"/>
<path d="M56.9097 55.6215L55.7687 53.2233C55.5535 52.7743 55.1744 52.425 54.7094 52.2472L53.8387 51.9154C53.4942 51.8135 53.2427 51.4088 53.0406 51.1328V51.4102C53.0489 51.666 53.0037 51.9208 52.908 52.1582C52.8122 52.3956 52.6681 52.6104 52.4847 52.789C52.3013 52.9675 52.0827 53.1059 51.8428 53.1953C51.6029 53.2846 51.347 53.323 51.0915 53.3079C50.836 53.2928 50.5864 53.2247 50.3587 53.1077C50.131 52.9908 49.9302 52.8277 49.769 52.6288C49.6079 52.4299 49.49 52.1997 49.4228 51.9526C49.3557 51.7056 49.3407 51.4473 49.379 51.1942C49.2284 51.4837 48.9822 51.7121 48.6822 51.8404L47.8666 52.1329C47.3984 52.2985 47.0125 52.6388 46.7895 53.0824L45.51 55.6215C45.4922 55.66 45.4903 55.7039 45.5047 55.7438C45.5191 55.7837 45.5486 55.8163 45.5869 55.8346L47.2912 56.6096C47.3232 56.6242 47.3582 56.6309 47.3934 56.6291C47.4285 56.6274 47.4627 56.6172 47.4931 56.5995C47.5235 56.5818 47.5492 56.557 47.5681 56.5273C47.5869 56.4976 47.5984 56.4638 47.6014 56.4287L47.6641 55.7144C47.6706 55.6571 47.6993 55.6046 47.7439 55.5681C47.7886 55.5316 47.8458 55.514 47.9032 55.519C47.9607 55.524 48.0139 55.5513 48.0515 55.595C48.0892 55.6387 48.1083 55.6954 48.1047 55.7529L47.5741 61.7851C47.5739 61.8279 47.5824 61.8703 47.5993 61.9097C47.6161 61.9491 47.6408 61.9847 47.6719 62.0141C47.703 62.0436 47.7399 62.0663 47.7801 62.081C47.8204 62.0957 47.8632 62.1019 47.906 62.0994H54.5312C54.5742 62.1019 54.6172 62.0956 54.6576 62.0808C54.698 62.066 54.7349 62.0431 54.7661 62.0133C54.7972 61.9836 54.8219 61.9479 54.8386 61.9082C54.8553 61.8685 54.8636 61.8259 54.8631 61.7828C54.7692 60.7762 54.3806 56.671 54.2944 55.7542C54.2903 55.6968 54.3088 55.6401 54.346 55.5962C54.3831 55.5523 54.436 55.5247 54.4933 55.5193C54.5506 55.5139 54.6077 55.5311 54.6524 55.5673C54.6971 55.6035 54.7258 55.6558 54.7325 55.7129L54.7992 56.42C54.8025 56.4547 54.814 56.4882 54.8328 56.5176C54.8516 56.547 54.8771 56.5715 54.9072 56.5891C54.9374 56.6067 54.9713 56.6168 55.0061 56.6187C55.0409 56.6206 55.0757 56.6142 55.1076 56.6L56.8327 55.8303C56.8704 55.8125 56.8996 55.7806 56.914 55.7415C56.9284 55.7024 56.9268 55.6595 56.9097 55.6215ZM50.792 59.8483C50.7903 59.9054 50.7663 59.9596 50.7253 59.9994C50.6843 60.0392 50.6294 60.0614 50.5723 60.0614C50.5151 60.0614 50.4602 60.0392 50.4192 59.9994C50.3782 59.9596 50.3543 59.9054 50.3526 59.8483V57.6328L50.1393 57.7646C50.0898 57.7939 50.0307 57.8026 49.9749 57.7888C49.919 57.775 49.8708 57.7399 49.8406 57.6909C49.8104 57.642 49.8006 57.5831 49.8133 57.527C49.826 57.4709 49.8603 57.422 49.9086 57.3909L50.4558 57.05C50.4893 57.0301 50.5274 57.0194 50.5664 57.0188C50.6053 57.0183 50.6437 57.0279 50.6778 57.0468C50.7118 57.0658 50.7403 57.0933 50.7604 57.1266C50.7804 57.16 50.7914 57.1981 50.7922 57.237L50.792 59.8483ZM52.3726 59.8483C52.3726 59.9066 52.3494 59.9625 52.3082 60.0038C52.267 60.045 52.2111 60.0681 52.1528 60.0681C52.0945 60.0681 52.0386 60.045 51.9973 60.0038C51.9561 59.9625 51.933 59.9066 51.933 59.8483V57.6328L51.7199 57.7646C51.6703 57.7952 51.6106 57.8049 51.5539 57.7915C51.4972 57.7781 51.4482 57.7427 51.4176 57.6932C51.387 57.6436 51.3773 57.5839 51.3907 57.5272C51.4041 57.4705 51.4395 57.4215 51.489 57.3909L52.0362 57.05C52.0697 57.0301 52.1078 57.0194 52.1468 57.0188C52.1857 57.0183 52.2241 57.0279 52.2581 57.0468C52.2922 57.0658 52.3207 57.0933 52.3407 57.1266C52.3608 57.16 52.3718 57.1981 52.3726 57.237V59.8483Z" fill="#FAFAFA"/>
<path d="M50.792 59.8483C50.7903 59.9054 50.7663 59.9596 50.7253 59.9994C50.6843 60.0392 50.6294 60.0614 50.5723 60.0614C50.5151 60.0614 50.4602 60.0392 50.4192 59.9994C50.3782 59.9596 50.3543 59.9054 50.3526 59.8483V57.6328L50.1393 57.7646C50.0898 57.7939 50.0307 57.8026 49.9749 57.7888C49.919 57.775 49.8708 57.7399 49.8406 57.6909C49.8104 57.642 49.8006 57.5831 49.8133 57.527C49.826 57.4709 49.8603 57.422 49.9086 57.3909L50.4558 57.05C50.4893 57.0301 50.5274 57.0194 50.5664 57.0188C50.6053 57.0183 50.6437 57.0279 50.6778 57.0468C50.7118 57.0658 50.7403 57.0933 50.7604 57.1266C50.7804 57.16 50.7914 57.1981 50.7922 57.237L50.792 59.8483Z" fill="#FAFAFA"/>
<path d="M52.3726 59.8483C52.3726 59.9066 52.3494 59.9625 52.3082 60.0038C52.267 60.045 52.2111 60.0681 52.1528 60.0681C52.0945 60.0681 52.0386 60.045 51.9973 60.0038C51.9561 59.9625 51.933 59.9066 51.933 59.8483V57.6328L51.7199 57.7646C51.6703 57.7952 51.6106 57.8049 51.5539 57.7915C51.4972 57.7781 51.4482 57.7427 51.4176 57.6932C51.387 57.6436 51.3773 57.5839 51.3907 57.5272C51.4041 57.4705 51.4395 57.4215 51.489 57.3909L52.0362 57.05C52.0697 57.0301 52.1078 57.0194 52.1468 57.0188C52.1857 57.0183 52.2241 57.0279 52.2581 57.0468C52.2922 57.0658 52.3207 57.0933 52.3407 57.1266C52.3608 57.16 52.3718 57.1981 52.3726 57.237V59.8483Z" fill="#FAFAFA"/>
<path d="M50.1787 57.332H52.4704" stroke="#191919" stroke-width="0.343756" stroke-linecap="round" stroke-linejoin="round"/>
<path d="M51.3247 58.4792V56.1875" stroke="#191919" stroke-width="0.343756" stroke-linecap="round" stroke-linejoin="round"/>
<path d="M31.2097 52.8673C31.5786 52.8668 31.9323 52.7201 32.1931 52.4593C32.454 52.1984 32.6007 51.8448 32.6011 51.4759V50.9944C31.681 51.1677 30.736 51.161 29.8184 50.9746V51.4759C29.8188 51.8448 29.9655 52.1984 30.2264 52.4593C30.4872 52.7201 30.8409 52.8668 31.2097 52.8673Z" fill="#FAFAFA"/>
<path d="M36.9097 55.6215L35.7687 53.2233C35.5535 52.7743 35.1744 52.425 34.7094 52.2472L33.8387 51.9154C33.4942 51.8135 33.2427 51.4088 33.0406 51.1328V51.4102C33.0489 51.666 33.0037 51.9208 32.908 52.1582C32.8122 52.3956 32.6681 52.6104 32.4847 52.789C32.3013 52.9675 32.0827 53.1059 31.8428 53.1953C31.6029 53.2846 31.347 53.323 31.0915 53.3079C30.836 53.2928 30.5864 53.2247 30.3587 53.1077C30.131 52.9908 29.9302 52.8277 29.769 52.6288C29.6079 52.4299 29.49 52.1997 29.4228 51.9526C29.3557 51.7056 29.3407 51.4473 29.379 51.1942C29.2284 51.4837 28.9822 51.7121 28.6822 51.8404L27.8666 52.1329C27.3984 52.2985 27.0125 52.6388 26.7895 53.0824L25.51 55.6215C25.4922 55.66 25.4903 55.7039 25.5047 55.7438C25.5191 55.7837 25.5486 55.8163 25.5869 55.8346L27.2912 56.6096C27.3232 56.6242 27.3582 56.6309 27.3934 56.6291C27.4285 56.6274 27.4627 56.6172 27.4931 56.5995C27.5235 56.5818 27.5492 56.557 27.5681 56.5273C27.5869 56.4976 27.5984 56.4638 27.6014 56.4287L27.6641 55.7144C27.6706 55.6571 27.6993 55.6046 27.7439 55.5681C27.7886 55.5316 27.8458 55.514 27.9032 55.519C27.9607 55.524 28.0139 55.5513 28.0515 55.595C28.0892 55.6387 28.1083 55.6954 28.1047 55.7529L27.5741 61.7851C27.5739 61.8279 27.5824 61.8703 27.5993 61.9097C27.6161 61.9491 27.6408 61.9847 27.6719 62.0141C27.703 62.0436 27.7399 62.0663 27.7801 62.081C27.8204 62.0957 27.8632 62.1019 27.906 62.0994H34.5312C34.5742 62.1019 34.6172 62.0956 34.6576 62.0808C34.698 62.066 34.7349 62.0431 34.7661 62.0133C34.7972 61.9836 34.8219 61.9479 34.8386 61.9082C34.8553 61.8685 34.8636 61.8259 34.8631 61.7828C34.7692 60.7762 34.3806 56.671 34.2944 55.7542C34.2903 55.6968 34.3088 55.6401 34.346 55.5962C34.3831 55.5523 34.436 55.5247 34.4933 55.5193C34.5506 55.5139 34.6077 55.5311 34.6524 55.5673C34.6971 55.6035 34.7258 55.6558 34.7325 55.7129L34.7992 56.42C34.8025 56.4547 34.814 56.4882 34.8328 56.5176C34.8516 56.547 34.8771 56.5715 34.9072 56.5891C34.9374 56.6067 34.9713 56.6168 35.0061 56.6187C35.0409 56.6206 35.0757 56.6142 35.1076 56.6L36.8327 55.8303C36.8704 55.8125 36.8996 55.7806 36.914 55.7415C36.9284 55.7024 36.9268 55.6595 36.9097 55.6215ZM30.792 59.8483C30.7903 59.9054 30.7663 59.9596 30.7253 59.9994C30.6843 60.0392 30.6294 60.0614 30.5723 60.0614C30.5151 60.0614 30.4602 60.0392 30.4192 59.9994C30.3782 59.9596 30.3543 59.9054 30.3526 59.8483V57.6328L30.1393 57.7646C30.0898 57.7939 30.0307 57.8026 29.9749 57.7888C29.919 57.775 29.8708 57.7399 29.8406 57.6909C29.8104 57.642 29.8006 57.5831 29.8133 57.527C29.826 57.4709 29.8603 57.422 29.9086 57.3909L30.4558 57.05C30.4893 57.0301 30.5274 57.0194 30.5664 57.0188C30.6053 57.0183 30.6437 57.0279 30.6778 57.0468C30.7118 57.0658 30.7403 57.0933 30.7604 57.1266C30.7804 57.16 30.7914 57.1981 30.7922 57.237L30.792 59.8483ZM32.3726 59.8483C32.3726 59.9066 32.3494 59.9625 32.3082 60.0038C32.267 60.045 32.2111 60.0681 32.1528 60.0681C32.0945 60.0681 32.0386 60.045 31.9973 60.0038C31.9561 59.9625 31.933 59.9066 31.933 59.8483V57.6328L31.7199 57.7646C31.6703 57.7952 31.6106 57.8049 31.5539 57.7915C31.4972 57.7781 31.4482 57.7427 31.4176 57.6932C31.387 57.6436 31.3773 57.5839 31.3907 57.5272C31.4041 57.4705 31.4395 57.4215 31.489 57.3909L32.0362 57.05C32.0697 57.0301 32.1078 57.0194 32.1468 57.0188C32.1857 57.0183 32.2241 57.0279 32.2581 57.0468C32.2922 57.0658 32.3207 57.0933 32.3407 57.1266C32.3608 57.16 32.3718 57.1981 32.3726 57.237V59.8483Z" fill="#FAFAFA"/>
<path d="M30.792 59.8483C30.7903 59.9054 30.7663 59.9596 30.7253 59.9994C30.6843 60.0392 30.6294 60.0614 30.5723 60.0614C30.5151 60.0614 30.4602 60.0392 30.4192 59.9994C30.3782 59.9596 30.3543 59.9054 30.3526 59.8483V57.6328L30.1393 57.7646C30.0898 57.7939 30.0307 57.8026 29.9749 57.7888C29.919 57.775 29.8708 57.7399 29.8406 57.6909C29.8104 57.642 29.8006 57.5831 29.8133 57.527C29.826 57.4709 29.8603 57.422 29.9086 57.3909L30.4558 57.05C30.4893 57.0301 30.5274 57.0194 30.5664 57.0188C30.6053 57.0183 30.6437 57.0279 30.6778 57.0468C30.7118 57.0658 30.7403 57.0933 30.7604 57.1266C30.7804 57.16 30.7914 57.1981 30.7922 57.237L30.792 59.8483Z" fill="#FAFAFA"/>
<path d="M32.3726 59.8483C32.3726 59.9066 32.3494 59.9625 32.3082 60.0038C32.267 60.045 32.2111 60.0681 32.1528 60.0681C32.0945 60.0681 32.0386 60.045 31.9973 60.0038C31.9561 59.9625 31.933 59.9066 31.933 59.8483V57.6328L31.7199 57.7646C31.6703 57.7952 31.6106 57.8049 31.5539 57.7915C31.4972 57.7781 31.4482 57.7427 31.4176 57.6932C31.387 57.6436 31.3773 57.5839 31.3907 57.5272C31.4041 57.4705 31.4395 57.4215 31.489 57.3909L32.0362 57.05C32.0697 57.0301 32.1078 57.0194 32.1468 57.0188C32.1857 57.0183 32.2241 57.0279 32.2581 57.0468C32.2922 57.0658 32.3207 57.0933 32.3407 57.1266C32.3608 57.16 32.3718 57.1981 32.3726 57.237V59.8483Z" fill="#FAFAFA"/>
<path d="M30.1787 57.332H32.4704" stroke="#191919" stroke-width="0.343756" stroke-linecap="round" stroke-linejoin="round"/>
<path d="M31.3247 58.4792V56.1875" stroke="#191919" stroke-width="0.343756" stroke-linecap="round" stroke-linejoin="round"/>
<path d="M9.20975 5.86728C9.57863 5.86685 9.93229 5.72012 10.1931 5.45927C10.454 5.19843 10.6007 4.84478 10.6011 4.47589V3.99441C9.68098 4.16774 8.73595 4.16102 7.81836 3.97461V4.47589C7.81879 4.84478 7.96552 5.19843 8.22636 5.45927C8.48721 5.72012 8.84086 5.86685 9.20975 5.86728Z" fill="#FAFAFA"/>
<path d="M14.9097 8.6215L13.7687 6.22326C13.5535 5.77433 13.1744 5.42501 12.7094 5.24723L11.8387 4.91535C11.4942 4.8135 11.2427 4.40876 11.0406 4.13281V4.41019C11.0489 4.66603 11.0037 4.92078 10.908 5.15818C10.8122 5.39558 10.6681 5.61042 10.4847 5.78898C10.3013 5.96755 10.0827 6.10592 9.84278 6.19527C9.60291 6.28462 9.34705 6.32299 9.09152 6.30792C8.83599 6.29285 8.58641 6.22467 8.3587 6.10775C8.131 5.99082 7.93016 5.82772 7.76902 5.62883C7.60788 5.42994 7.48997 5.19965 7.42281 4.95265C7.35565 4.70564 7.34073 4.44735 7.37898 4.19425C7.22842 4.48374 6.98217 4.7121 6.68216 4.84045L5.86656 5.13293C5.39843 5.29852 5.01248 5.63876 4.78949 6.08243L3.50996 8.6215C3.49219 8.66 3.4903 8.70395 3.5047 8.74383C3.5191 8.78371 3.54864 8.81632 3.58691 8.83458L5.29119 9.60957C5.3232 9.62418 5.35825 9.63089 5.39339 9.62913C5.42853 9.62738 5.46274 9.61722 5.49314 9.5995C5.52354 9.58178 5.54924 9.55702 5.56808 9.52731C5.58693 9.49759 5.59836 9.46379 5.60143 9.42873L5.66409 8.71437C5.67062 8.65706 5.69927 8.60457 5.74394 8.56808C5.7886 8.53159 5.84575 8.51399 5.90321 8.51902C5.96066 8.52405 6.01388 8.55131 6.05153 8.59501C6.08918 8.6387 6.10827 8.69537 6.10475 8.75294L5.57408 14.7851C5.57386 14.8279 5.58243 14.8703 5.59927 14.9097C5.6161 14.9491 5.64083 14.9847 5.67193 15.0141C5.70304 15.0436 5.73985 15.0663 5.7801 15.081C5.82035 15.0957 5.86319 15.1019 5.90595 15.0994H12.5312C12.5742 15.1019 12.6172 15.0956 12.6576 15.0808C12.698 15.066 12.7349 15.0431 12.7661 15.0133C12.7972 14.9836 12.8219 14.9479 12.8386 14.9082C12.8553 14.8685 12.8636 14.8259 12.8631 14.7828C12.7692 13.7762 12.3806 9.67101 12.2944 8.75417C12.2903 8.69679 12.3088 8.64008 12.346 8.59618C12.3831 8.55227 12.436 8.52467 12.4933 8.51928C12.5506 8.51389 12.6077 8.53114 12.6524 8.56734C12.6971 8.60353 12.7258 8.6558 12.7325 8.71294L12.7992 9.41996C12.8025 9.4547 12.814 9.48815 12.8328 9.51756C12.8516 9.54697 12.8771 9.57148 12.9072 9.58908C12.9374 9.60667 12.9713 9.61683 13.0061 9.61873C13.0409 9.62062 13.0757 9.6142 13.1076 9.59998L14.8327 8.8303C14.8704 8.81252 14.8996 8.78065 14.914 8.74155C14.9284 8.70245 14.9268 8.65946 14.9097 8.6215ZM8.792 12.8483C8.79026 12.9054 8.76635 12.9596 8.72533 12.9994C8.68432 13.0392 8.62942 13.0614 8.57228 13.0614C8.51514 13.0614 8.46025 13.0392 8.41923 12.9994C8.37821 12.9596 8.3543 12.9054 8.35256 12.8483V10.6328L8.13927 10.7646C8.08975 10.7939 8.03072 10.8026 7.97487 10.7888C7.91901 10.775 7.87079 10.7399 7.84058 10.6909C7.81037 10.642 7.80057 10.5831 7.8133 10.527C7.82602 10.4709 7.86025 10.422 7.90863 10.3909L8.45584 10.05C8.48932 10.0301 8.52743 10.0194 8.56637 10.0188C8.60531 10.0183 8.64371 10.0279 8.67775 10.0468C8.71179 10.0658 8.74027 10.0933 8.76036 10.1266C8.78044 10.16 8.79142 10.1981 8.79221 10.237L8.792 12.8483ZM10.3726 12.8483C10.3726 12.9066 10.3494 12.9625 10.3082 13.0038C10.267 13.045 10.2111 13.0681 10.1528 13.0681C10.0945 13.0681 10.0386 13.045 9.99733 13.0038C9.95611 12.9625 9.93295 12.9066 9.93295 12.8483V10.6328L9.71986 10.7646C9.67031 10.7952 9.61062 10.8049 9.55393 10.7915C9.49724 10.7781 9.4482 10.7427 9.41758 10.6932C9.38697 10.6436 9.3773 10.5839 9.3907 10.5272C9.4041 10.4705 9.43946 10.4215 9.48902 10.3909L10.0362 10.05C10.0697 10.0301 10.1078 10.0194 10.1468 10.0188C10.1857 10.0183 10.2241 10.0279 10.2581 10.0468C10.2922 10.0658 10.3207 10.0933 10.3407 10.1266C10.3608 10.16 10.3718 10.1981 10.3726 10.237V12.8483Z" fill="#FAFAFA"/>
<path d="M8.792 12.8483C8.79026 12.9054 8.76635 12.9596 8.72533 12.9994C8.68432 13.0392 8.62942 13.0614 8.57228 13.0614C8.51514 13.0614 8.46025 13.0392 8.41923 12.9994C8.37821 12.9596 8.3543 12.9054 8.35256 12.8483V10.6328L8.13927 10.7646C8.08975 10.7939 8.03072 10.8026 7.97487 10.7888C7.91901 10.775 7.87079 10.7399 7.84058 10.6909C7.81037 10.642 7.80057 10.5831 7.8133 10.527C7.82602 10.4709 7.86025 10.422 7.90863 10.3909L8.45584 10.05C8.48932 10.0301 8.52743 10.0194 8.56637 10.0188C8.60531 10.0183 8.64371 10.0279 8.67775 10.0468C8.71179 10.0658 8.74027 10.0933 8.76036 10.1266C8.78044 10.16 8.79142 10.1981 8.79221 10.237L8.792 12.8483Z" fill="#FAFAFA"/>
<path d="M10.3726 12.8483C10.3726 12.9066 10.3494 12.9625 10.3082 13.0038C10.267 13.045 10.2111 13.0681 10.1528 13.0681C10.0945 13.0681 10.0386 13.045 9.99733 13.0038C9.95611 12.9625 9.93295 12.9066 9.93295 12.8483V10.6328L9.71986 10.7646C9.67031 10.7952 9.61062 10.8049 9.55393 10.7915C9.49724 10.7781 9.4482 10.7427 9.41758 10.6932C9.38697 10.6436 9.3773 10.5839 9.3907 10.5272C9.4041 10.4705 9.43946 10.4215 9.48902 10.3909L10.0362 10.05C10.0697 10.0301 10.1078 10.0194 10.1468 10.0188C10.1857 10.0183 10.2241 10.0279 10.2581 10.0468C10.2922 10.0658 10.3207 10.0933 10.3407 10.1266C10.3608 10.16 10.3718 10.1981 10.3726 10.237V12.8483Z" fill="#FAFAFA"/>
<path d="M8.17871 10.332H10.4704" stroke="#191919" stroke-width="0.343756" stroke-linecap="round" stroke-linejoin="round"/>
<path d="M9.32471 11.4792V9.1875" stroke="#191919" stroke-width="0.343756" stroke-linecap="round" stroke-linejoin="round"/>
<path d="M41.2725 29.8673C41.6414 29.8668 41.995 29.7201 42.2559 29.4593C42.5167 29.1984 42.6634 28.8448 42.6639 28.4759V27.9944C41.7437 28.1677 40.7987 28.161 39.8811 27.9746V28.4759C39.8815 28.8448 40.0283 29.1984 40.2891 29.4593C40.55 29.7201 40.9036 29.8668 41.2725 29.8673Z" fill="#FAFAFA"/>
<path d="M46.9724 32.6215L45.8314 30.2233C45.6163 29.7743 45.2371 29.425 44.7721 29.2472L43.9014 28.9154C43.5569 28.8135 43.3054 28.4088 43.1034 28.1328V28.4102C43.1116 28.666 43.0664 28.9208 42.9707 29.1582C42.875 29.3956 42.7308 29.6104 42.5474 29.789C42.364 29.9675 42.1454 30.1059 41.9055 30.1953C41.6657 30.2846 41.4098 30.323 41.1543 30.3079C40.8987 30.2928 40.6492 30.2247 40.4214 30.1077C40.1937 29.9908 39.9929 29.8277 39.8318 29.6288C39.6706 29.4299 39.5527 29.1997 39.4856 28.9526C39.4184 28.7056 39.4035 28.4473 39.4417 28.1942C39.2912 28.4837 39.0449 28.7121 38.7449 28.8404L37.9293 29.1329C37.4612 29.2985 37.0752 29.6388 36.8522 30.0824L35.5727 32.6215C35.5549 32.66 35.553 32.7039 35.5674 32.7438C35.5818 32.7837 35.6114 32.8163 35.6496 32.8346L37.3539 33.6096C37.3859 33.6242 37.421 33.6309 37.4561 33.6291C37.4913 33.6274 37.5255 33.6172 37.5559 33.5995C37.5863 33.5818 37.612 33.557 37.6308 33.5273C37.6497 33.4976 37.6611 33.4638 37.6642 33.4287L37.7268 32.7144C37.7334 32.6571 37.762 32.6046 37.8067 32.5681C37.8513 32.5316 37.9085 32.514 37.966 32.519C38.0234 32.524 38.0766 32.5513 38.1143 32.595C38.1519 32.6387 38.171 32.6954 38.1675 32.7529L37.6368 38.7851C37.6366 38.8279 37.6452 38.8703 37.662 38.9097C37.6788 38.9491 37.7036 38.9847 37.7347 39.0141C37.7658 39.0436 37.8026 39.0663 37.8428 39.081C37.8831 39.0957 37.9259 39.1019 37.9687 39.0994H44.594C44.6369 39.1019 44.6799 39.0956 44.7203 39.0808C44.7607 39.066 44.7977 39.0431 44.8288 39.0133C44.8599 38.9836 44.8846 38.9479 44.9013 38.9082C44.918 38.8685 44.9264 38.8259 44.9258 38.7828C44.8319 37.7762 44.4433 33.671 44.3572 32.7542C44.3531 32.6968 44.3715 32.6401 44.4087 32.5962C44.4459 32.5523 44.4988 32.5247 44.556 32.5193C44.6133 32.5139 44.6704 32.5311 44.7151 32.5673C44.7598 32.6035 44.7886 32.6558 44.7952 32.7129L44.8619 33.42C44.8652 33.4547 44.8767 33.4882 44.8955 33.5176C44.9143 33.547 44.9398 33.5715 44.97 33.5891C45.0001 33.6067 45.034 33.6168 45.0688 33.6187C45.1037 33.6206 45.1385 33.6142 45.1703 33.6L46.8954 32.8303C46.9331 32.8125 46.9623 32.7806 46.9767 32.7415C46.9911 32.7024 46.9896 32.6595 46.9724 32.6215ZM40.8547 36.8483C40.853 36.9054 40.8291 36.9596 40.7881 36.9994C40.7471 37.0392 40.6922 37.0614 40.635 37.0614C40.5779 37.0614 40.523 37.0392 40.482 36.9994C40.441 36.9596 40.417 36.9054 40.4153 36.8483V34.6328L40.202 34.7646C40.1525 34.7939 40.0935 34.8026 40.0376 34.7888C39.9818 34.775 39.9335 34.7399 39.9033 34.6909C39.8731 34.642 39.8633 34.5831 39.876 34.527C39.8888 34.4709 39.923 34.422 39.9714 34.3909L40.5186 34.05C40.5521 34.0301 40.5902 34.0194 40.6291 34.0188C40.6681 34.0183 40.7065 34.0279 40.7405 34.0468C40.7745 34.0658 40.803 34.0933 40.8231 34.1266C40.8432 34.16 40.8542 34.1981 40.8549 34.237L40.8547 36.8483ZM42.4353 36.8483C42.4353 36.9066 42.4122 36.9625 42.371 37.0038C42.3297 37.045 42.2738 37.0681 42.2155 37.0681C42.1572 37.0681 42.1013 37.045 42.0601 37.0038C42.0189 36.9625 41.9957 36.9066 41.9957 36.8483V34.6328L41.7826 34.7646C41.733 34.7952 41.6734 34.8049 41.6167 34.7915C41.56 34.7781 41.5109 34.7427 41.4803 34.6932C41.4497 34.6436 41.44 34.5839 41.4534 34.5272C41.4668 34.4705 41.5022 34.4215 41.5518 34.3909L42.099 34.05C42.1325 34.0301 42.1706 34.0194 42.2095 34.0188C42.2484 34.0183 42.2868 34.0279 42.3209 34.0468C42.3549 34.0658 42.3834 34.0933 42.4035 34.1266C42.4236 34.16 42.4346 34.1981 42.4353 34.237V36.8483Z" fill="#FAFAFA"/>
<path d="M40.8547 36.8483C40.853 36.9054 40.8291 36.9596 40.7881 36.9994C40.7471 37.0392 40.6922 37.0614 40.635 37.0614C40.5779 37.0614 40.523 37.0392 40.482 36.9994C40.441 36.9596 40.417 36.9054 40.4153 36.8483V34.6328L40.202 34.7646C40.1525 34.7939 40.0935 34.8026 40.0376 34.7888C39.9818 34.775 39.9335 34.7399 39.9033 34.6909C39.8731 34.642 39.8633 34.5831 39.876 34.527C39.8888 34.4709 39.923 34.422 39.9714 34.3909L40.5186 34.05C40.5521 34.0301 40.5902 34.0194 40.6291 34.0188C40.6681 34.0183 40.7065 34.0279 40.7405 34.0468C40.7745 34.0658 40.803 34.0933 40.8231 34.1266C40.8432 34.16 40.8542 34.1981 40.8549 34.237L40.8547 36.8483Z" fill="#FAFAFA"/>
<path d="M42.4353 36.8483C42.4353 36.9066 42.4122 36.9625 42.371 37.0038C42.3297 37.045 42.2738 37.0681 42.2155 37.0681C42.1572 37.0681 42.1013 37.045 42.0601 37.0038C42.0189 36.9625 41.9957 36.9066 41.9957 36.8483V34.6328L41.7826 34.7646C41.733 34.7952 41.6734 34.8049 41.6167 34.7915C41.56 34.7781 41.5109 34.7427 41.4803 34.6932C41.4497 34.6436 41.44 34.5839 41.4534 34.5272C41.4668 34.4705 41.5022 34.4215 41.5518 34.3909L42.099 34.05C42.1325 34.0301 42.1706 34.0194 42.2095 34.0188C42.2484 34.0183 42.2868 34.0279 42.3209 34.0468C42.3549 34.0658 42.3834 34.0933 42.4035 34.1266C42.4236 34.16 42.4346 34.1981 42.4353 34.237V36.8483Z" fill="#FAFAFA"/>
<path d="M40.2415 34.332H42.5332" stroke="#191919" stroke-width="0.343756" stroke-linecap="round" stroke-linejoin="round"/>
<path d="M41.3875 35.4792V33.1875" stroke="#191919" stroke-width="0.343756" stroke-linecap="round" stroke-linejoin="round"/>
<path d="M25.531 25.8673C25.8999 25.8668 26.2536 25.7201 26.5144 25.4593C26.7753 25.1984 26.922 24.8448 26.9224 24.4759V23.9944C26.0023 24.1677 25.0572 24.161 24.1396 23.9746V24.4759C24.1401 24.8448 24.2868 25.1984 24.5477 25.4593C24.8085 25.7201 25.1621 25.8668 25.531 25.8673Z" fill="#FAFAFA"/>
<path d="M31.2309 28.6215L30.09 26.2233C29.8748 25.7743 29.4957 25.425 29.0307 25.2472L28.16 24.9154C27.8154 24.8135 27.564 24.4088 27.3619 24.1328V24.4102C27.3702 24.666 27.325 24.9208 27.2292 25.1582C27.1335 25.3956 26.9894 25.6104 26.806 25.789C26.6226 25.9675 26.4039 26.1059 26.1641 26.1953C25.9242 26.2846 25.6683 26.323 25.4128 26.3079C25.1573 26.2928 24.9077 26.2247 24.68 26.1077C24.4523 25.9908 24.2515 25.8277 24.0903 25.6288C23.9292 25.4299 23.8113 25.1997 23.7441 24.9526C23.6769 24.7056 23.662 24.4473 23.7003 24.1942C23.5497 24.4837 23.3035 24.7121 23.0035 24.8404L22.1878 25.1329C21.7197 25.2985 21.3338 25.6388 21.1108 26.0824L19.8312 28.6215C19.8135 28.66 19.8116 28.7039 19.826 28.7438C19.8404 28.7837 19.8699 28.8163 19.9082 28.8346L21.6125 29.6096C21.6445 29.6242 21.6795 29.6309 21.7147 29.6291C21.7498 29.6274 21.784 29.6172 21.8144 29.5995C21.8448 29.5818 21.8705 29.557 21.8894 29.5273C21.9082 29.4976 21.9196 29.4638 21.9227 29.4287L21.9854 28.7144C21.9919 28.6571 22.0206 28.6046 22.0652 28.5681C22.1099 28.5316 22.167 28.514 22.2245 28.519C22.282 28.524 22.3352 28.5513 22.3728 28.595C22.4105 28.6387 22.4296 28.6954 22.426 28.7529L21.8954 34.7851C21.8951 34.8279 21.9037 34.8703 21.9206 34.9097C21.9374 34.9491 21.9621 34.9847 21.9932 35.0141C22.0243 35.0436 22.0611 35.0663 22.1014 35.081C22.1416 35.0957 22.1845 35.1019 22.2272 35.0994H28.8525C28.8955 35.1019 28.9385 35.0956 28.9789 35.0808C29.0193 35.066 29.0562 35.0431 29.0873 35.0133C29.1185 34.9836 29.1432 34.9479 29.1599 34.9082C29.1766 34.8685 29.1849 34.8259 29.1844 34.7828C29.0905 33.7762 28.7019 29.671 28.6157 28.7542C28.6116 28.6968 28.6301 28.6401 28.6673 28.5962C28.7044 28.5523 28.7573 28.5247 28.8146 28.5193C28.8718 28.5139 28.9289 28.5311 28.9737 28.5673C29.0184 28.6035 29.0471 28.6558 29.0537 28.7129L29.1205 29.42C29.1238 29.4547 29.1353 29.4882 29.1541 29.5176C29.1729 29.547 29.1984 29.5715 29.2285 29.5891C29.2587 29.6067 29.2925 29.6168 29.3274 29.6187C29.3622 29.6206 29.397 29.6142 29.4289 29.6L31.154 28.8303C31.1917 28.8125 31.2209 28.7806 31.2353 28.7415C31.2496 28.7024 31.2481 28.6595 31.2309 28.6215ZM25.1133 32.8483C25.1115 32.9054 25.0876 32.9596 25.0466 32.9994C25.0056 33.0392 24.9507 33.0614 24.8936 33.0614C24.8364 33.0614 24.7815 33.0392 24.7405 32.9994C24.6995 32.9596 24.6756 32.9054 24.6739 32.8483V30.6328L24.4606 30.7646C24.411 30.7939 24.352 30.8026 24.2962 30.7888C24.2403 30.775 24.1921 30.7399 24.1619 30.6909C24.1317 30.642 24.1219 30.5831 24.1346 30.527C24.1473 30.4709 24.1815 30.422 24.2299 30.3909L24.7771 30.05C24.8106 30.0301 24.8487 30.0194 24.8877 30.0188C24.9266 30.0183 24.965 30.0279 24.999 30.0468C25.0331 30.0658 25.0616 30.0933 25.0816 30.1266C25.1017 30.16 25.1127 30.1981 25.1135 30.237L25.1133 32.8483ZM26.6939 32.8483C26.6939 32.9066 26.6707 32.9625 26.6295 33.0038C26.5883 33.045 26.5324 33.0681 26.4741 33.0681C26.4158 33.0681 26.3598 33.045 26.3186 33.0038C26.2774 32.9625 26.2542 32.9066 26.2542 32.8483V30.6328L26.0412 30.7646C25.9916 30.7952 25.9319 30.8049 25.8752 30.7915C25.8185 30.7781 25.7695 30.7427 25.7389 30.6932C25.7083 30.6436 25.6986 30.5839 25.712 30.5272C25.7254 30.4705 25.7608 30.4215 25.8103 30.3909L26.3575 30.05C26.391 30.0301 26.4291 30.0194 26.468 30.0188C26.507 30.0183 26.5454 30.0279 26.5794 30.0468C26.6135 30.0658 26.642 30.0933 26.662 30.1266C26.6821 30.16 26.6931 30.1981 26.6939 30.237V32.8483Z" fill="#FAFAFA"/>
<path d="M25.1133 32.8483C25.1115 32.9054 25.0876 32.9596 25.0466 32.9994C25.0056 33.0392 24.9507 33.0614 24.8936 33.0614C24.8364 33.0614 24.7815 33.0392 24.7405 32.9994C24.6995 32.9596 24.6756 32.9054 24.6739 32.8483V30.6328L24.4606 30.7646C24.411 30.7939 24.352 30.8026 24.2962 30.7888C24.2403 30.775 24.1921 30.7399 24.1619 30.6909C24.1317 30.642 24.1219 30.5831 24.1346 30.527C24.1473 30.4709 24.1815 30.422 24.2299 30.3909L24.7771 30.05C24.8106 30.0301 24.8487 30.0194 24.8877 30.0188C24.9266 30.0183 24.965 30.0279 24.999 30.0468C25.0331 30.0658 25.0616 30.0933 25.0816 30.1266C25.1017 30.16 25.1127 30.1981 25.1135 30.237L25.1133 32.8483Z" fill="#FAFAFA"/>
<path d="M26.6939 32.8483C26.6939 32.9066 26.6707 32.9625 26.6295 33.0038C26.5883 33.045 26.5324 33.0681 26.4741 33.0681C26.4158 33.0681 26.3598 33.045 26.3186 33.0038C26.2774 32.9625 26.2542 32.9066 26.2542 32.8483V30.6328L26.0412 30.7646C25.9916 30.7952 25.9319 30.8049 25.8752 30.7915C25.8185 30.7781 25.7695 30.7427 25.7389 30.6932C25.7083 30.6436 25.6986 30.5839 25.712 30.5272C25.7254 30.4705 25.7608 30.4215 25.8103 30.3909L26.3575 30.05C26.391 30.0301 26.4291 30.0194 26.468 30.0188C26.507 30.0183 26.5454 30.0279 26.5794 30.0468C26.6135 30.0658 26.642 30.0933 26.662 30.1266C26.6821 30.16 26.6931 30.1981 26.6939 30.237V32.8483Z" fill="#FAFAFA"/>
<path d="M24.5 30.332H26.7917" stroke="#191919" stroke-width="0.343756" stroke-linecap="round" stroke-linejoin="round"/>
<path d="M25.646 31.4792V29.1875" stroke="#191919" stroke-width="0.343756" stroke-linecap="round" stroke-linejoin="round"/>
<path d="M57.531 25.8673C57.8999 25.8668 58.2536 25.7201 58.5144 25.4593C58.7753 25.1984 58.922 24.8448 58.9224 24.4759V23.9944C58.0023 24.1677 57.0572 24.161 56.1396 23.9746V24.4759C56.1401 24.8448 56.2868 25.1984 56.5477 25.4593C56.8085 25.7201 57.1621 25.8668 57.531 25.8673Z" fill="#FAFAFA"/>
<path d="M63.2309 28.6215L62.09 26.2233C61.8748 25.7743 61.4957 25.425 61.0307 25.2472L60.16 24.9154C59.8154 24.8135 59.564 24.4088 59.3619 24.1328V24.4102C59.3702 24.666 59.325 24.9208 59.2292 25.1582C59.1335 25.3956 58.9894 25.6104 58.806 25.789C58.6226 25.9675 58.4039 26.1059 58.1641 26.1953C57.9242 26.2846 57.6683 26.323 57.4128 26.3079C57.1573 26.2928 56.9077 26.2247 56.68 26.1077C56.4523 25.9908 56.2515 25.8277 56.0903 25.6288C55.9292 25.4299 55.8113 25.1997 55.7441 24.9526C55.6769 24.7056 55.662 24.4473 55.7003 24.1942C55.5497 24.4837 55.3035 24.7121 55.0035 24.8404L54.1878 25.1329C53.7197 25.2985 53.3338 25.6388 53.1108 26.0824L51.8312 28.6215C51.8135 28.66 51.8116 28.7039 51.826 28.7438C51.8404 28.7837 51.8699 28.8163 51.9082 28.8346L53.6125 29.6096C53.6445 29.6242 53.6795 29.6309 53.7147 29.6291C53.7498 29.6274 53.784 29.6172 53.8144 29.5995C53.8448 29.5818 53.8705 29.557 53.8894 29.5273C53.9082 29.4976 53.9196 29.4638 53.9227 29.4287L53.9854 28.7144C53.9919 28.6571 54.0206 28.6046 54.0652 28.5681C54.1099 28.5316 54.167 28.514 54.2245 28.519C54.282 28.524 54.3352 28.5513 54.3728 28.595C54.4105 28.6387 54.4296 28.6954 54.426 28.7529L53.8954 34.7851C53.8951 34.8279 53.9037 34.8703 53.9206 34.9097C53.9374 34.9491 53.9621 34.9847 53.9932 35.0141C54.0243 35.0436 54.0611 35.0663 54.1014 35.081C54.1416 35.0957 54.1845 35.1019 54.2272 35.0994H60.8525C60.8955 35.1019 60.9385 35.0956 60.9789 35.0808C61.0193 35.066 61.0562 35.0431 61.0873 35.0133C61.1185 34.9836 61.1432 34.9479 61.1599 34.9082C61.1766 34.8685 61.1849 34.8259 61.1844 34.7828C61.0905 33.7762 60.7019 29.671 60.6157 28.7542C60.6116 28.6968 60.6301 28.6401 60.6673 28.5962C60.7044 28.5523 60.7573 28.5247 60.8146 28.5193C60.8718 28.5139 60.9289 28.5311 60.9737 28.5673C61.0184 28.6035 61.0471 28.6558 61.0537 28.7129L61.1205 29.42C61.1238 29.4547 61.1353 29.4882 61.1541 29.5176C61.1729 29.547 61.1984 29.5715 61.2285 29.5891C61.2587 29.6067 61.2925 29.6168 61.3274 29.6187C61.3622 29.6206 61.397 29.6142 61.4289 29.6L63.154 28.8303C63.1917 28.8125 63.2209 28.7806 63.2353 28.7415C63.2496 28.7024 63.2481 28.6595 63.2309 28.6215ZM57.1133 32.8483C57.1115 32.9054 57.0876 32.9596 57.0466 32.9994C57.0056 33.0392 56.9507 33.0614 56.8936 33.0614C56.8364 33.0614 56.7815 33.0392 56.7405 32.9994C56.6995 32.9596 56.6756 32.9054 56.6739 32.8483V30.6328L56.4606 30.7646C56.411 30.7939 56.352 30.8026 56.2962 30.7888C56.2403 30.775 56.1921 30.7399 56.1619 30.6909C56.1317 30.642 56.1219 30.5831 56.1346 30.527C56.1473 30.4709 56.1815 30.422 56.2299 30.3909L56.7771 30.05C56.8106 30.0301 56.8487 30.0194 56.8877 30.0188C56.9266 30.0183 56.965 30.0279 56.999 30.0468C57.0331 30.0658 57.0616 30.0933 57.0816 30.1266C57.1017 30.16 57.1127 30.1981 57.1135 30.237L57.1133 32.8483ZM58.6939 32.8483C58.6939 32.9066 58.6707 32.9625 58.6295 33.0038C58.5883 33.045 58.5324 33.0681 58.4741 33.0681C58.4158 33.0681 58.3598 33.045 58.3186 33.0038C58.2774 32.9625 58.2542 32.9066 58.2542 32.8483V30.6328L58.0412 30.7646C57.9916 30.7952 57.9319 30.8049 57.8752 30.7915C57.8185 30.7781 57.7695 30.7427 57.7389 30.6932C57.7083 30.6436 57.6986 30.5839 57.712 30.5272C57.7254 30.4705 57.7608 30.4215 57.8103 30.3909L58.3575 30.05C58.391 30.0301 58.4291 30.0194 58.468 30.0188C58.507 30.0183 58.5454 30.0279 58.5794 30.0468C58.6135 30.0658 58.642 30.0933 58.662 30.1266C58.6821 30.16 58.6931 30.1981 58.6939 30.237V32.8483Z" fill="#FAFAFA"/>
<path d="M57.1133 32.8483C57.1115 32.9054 57.0876 32.9596 57.0466 32.9994C57.0056 33.0392 56.9507 33.0614 56.8936 33.0614C56.8364 33.0614 56.7815 33.0392 56.7405 32.9994C56.6995 32.9596 56.6756 32.9054 56.6739 32.8483V30.6328L56.4606 30.7646C56.411 30.7939 56.352 30.8026 56.2962 30.7888C56.2403 30.775 56.1921 30.7399 56.1619 30.6909C56.1317 30.642 56.1219 30.5831 56.1346 30.527C56.1473 30.4709 56.1815 30.422 56.2299 30.3909L56.7771 30.05C56.8106 30.0301 56.8487 30.0194 56.8877 30.0188C56.9266 30.0183 56.965 30.0279 56.999 30.0468C57.0331 30.0658 57.0616 30.0933 57.0816 30.1266C57.1017 30.16 57.1127 30.1981 57.1135 30.237L57.1133 32.8483Z" fill="#FAFAFA"/>
<path d="M58.6939 32.8483C58.6939 32.9066 58.6707 32.9625 58.6295 33.0038C58.5883 33.045 58.5324 33.0681 58.4741 33.0681C58.4158 33.0681 58.3598 33.045 58.3186 33.0038C58.2774 32.9625 58.2542 32.9066 58.2542 32.8483V30.6328L58.0412 30.7646C57.9916 30.7952 57.9319 30.8049 57.8752 30.7915C57.8185 30.7781 57.7695 30.7427 57.7389 30.6932C57.7083 30.6436 57.6986 30.5839 57.712 30.5272C57.7254 30.4705 57.7608 30.4215 57.8103 30.3909L58.3575 30.05C58.391 30.0301 58.4291 30.0194 58.468 30.0188C58.507 30.0183 58.5454 30.0279 58.5794 30.0468C58.6135 30.0658 58.642 30.0933 58.662 30.1266C58.6821 30.16 58.6931 30.1981 58.6939 30.237V32.8483Z" fill="#FAFAFA"/>
<path d="M56.5 30.332H58.7917" stroke="#191919" stroke-width="0.343756" stroke-linecap="round" stroke-linejoin="round"/>
<path d="M57.646 31.4792V29.1875" stroke="#191919" stroke-width="0.343756" stroke-linecap="round" stroke-linejoin="round"/>
<g clip-path="url(#clip0_8758_17598)">
<path d="M72.4607 3.86728C72.8296 3.86685 73.1833 3.72012 73.4441 3.45927C73.7049 3.19843 73.8517 2.84478 73.8521 2.47589V1.99441C72.932 2.16774 71.9869 2.16102 71.0693 1.97461V2.47589C71.0698 2.84478 71.2165 3.19843 71.4773 3.45927C71.7382 3.72012 72.0918 3.86685 72.4607 3.86728Z" fill="#FAFAFA"/>
<path d="M78.1606 6.6215L77.0197 4.22326C76.8045 3.77433 76.4254 3.42501 75.9604 3.24723L75.0897 2.91535C74.7451 2.8135 74.4937 2.40876 74.2916 2.13281V2.41019C74.2998 2.66603 74.2547 2.92078 74.1589 3.15818C74.0632 3.39558 73.919 3.61042 73.7356 3.78898C73.5522 3.96755 73.3336 4.10592 73.0938 4.19527C72.8539 4.28462 72.598 4.32299 72.3425 4.30792C72.087 4.29285 71.8374 4.22467 71.6097 4.10775C71.382 3.99082 71.1811 3.82772 71.02 3.62883C70.8589 3.42994 70.7409 3.19965 70.6738 2.95265C70.6066 2.70564 70.5917 2.44735 70.63 2.19425C70.4794 2.48374 70.2331 2.7121 69.9331 2.84045L69.1175 3.13293C68.6494 3.29852 68.2635 3.63876 68.0405 4.08243L66.7609 6.6215C66.7432 6.66 66.7413 6.70395 66.7557 6.74383C66.7701 6.78371 66.7996 6.81632 66.8379 6.83458L68.5422 7.60957C68.5742 7.62418 68.6092 7.63089 68.6444 7.62913C68.6795 7.62738 68.7137 7.61722 68.7441 7.5995C68.7745 7.58178 68.8002 7.55702 68.8191 7.52731C68.8379 7.49759 68.8493 7.46379 68.8524 7.42873L68.9151 6.71437C68.9216 6.65706 68.9502 6.60457 68.9949 6.56808C69.0396 6.53159 69.0967 6.51399 69.1542 6.51902C69.2116 6.52405 69.2649 6.55131 69.3025 6.59501C69.3402 6.6387 69.3592 6.69537 69.3557 6.75294L68.8251 12.7851C68.8248 12.8279 68.8334 12.8703 68.8502 12.9097C68.8671 12.9491 68.8918 12.9847 68.9229 13.0141C68.954 13.0436 68.9908 13.0663 69.0311 13.081C69.0713 13.0957 69.1142 13.1019 69.1569 13.0994H75.7822C75.8251 13.1019 75.8682 13.0956 75.9086 13.0808C75.949 13.066 75.9859 13.0431 76.017 13.0133C76.0482 12.9836 76.0729 12.9479 76.0895 12.9082C76.1062 12.8685 76.1146 12.8259 76.1141 12.7828C76.0202 11.7762 75.6316 7.67101 75.5454 6.75417C75.5413 6.69679 75.5598 6.64008 75.5969 6.59618C75.6341 6.55227 75.687 6.52467 75.7443 6.51928C75.8015 6.51389 75.8586 6.53114 75.9033 6.56734C75.948 6.60353 75.9768 6.6558 75.9834 6.71294L76.0502 7.41996C76.0535 7.4547 76.065 7.48815 76.0838 7.51756C76.1026 7.54697 76.1281 7.57148 76.1582 7.58908C76.1883 7.60667 76.2222 7.61683 76.2571 7.61873C76.2919 7.62062 76.3267 7.6142 76.3586 7.59998L78.0837 6.8303C78.1214 6.81252 78.1505 6.78065 78.1649 6.74155C78.1793 6.70245 78.1778 6.65946 78.1606 6.6215ZM72.043 10.8483C72.0412 10.9054 72.0173 10.9596 71.9763 10.9994C71.9353 11.0392 71.8804 11.0614 71.8233 11.0614C71.7661 11.0614 71.7112 11.0392 71.6702 10.9994C71.6292 10.9596 71.6053 10.9054 71.6035 10.8483V8.63275L71.3902 8.7646C71.3407 8.79389 71.2817 8.80258 71.2258 8.7888C71.17 8.77502 71.1218 8.73987 71.0916 8.69091C71.0613 8.64196 71.0515 8.5831 71.0643 8.52699C71.077 8.47089 71.1112 8.42202 71.1596 8.39089L71.7068 8.05003C71.7403 8.03014 71.7784 8.01938 71.8173 8.01882C71.8563 8.01826 71.8947 8.02792 71.9287 8.04684C71.9628 8.06576 71.9913 8.09328 72.0113 8.12664C72.0314 8.16001 72.0424 8.19806 72.0432 8.23699L72.043 10.8483ZM73.6236 10.8483C73.6236 10.9066 73.6004 10.9625 73.5592 11.0038C73.518 11.045 73.462 11.0681 73.4037 11.0681C73.3454 11.0681 73.2895 11.045 73.2483 11.0038C73.2071 10.9625 73.1839 10.9066 73.1839 10.8483V8.63275L72.9708 8.7646C72.9213 8.79522 72.8616 8.80489 72.8049 8.79149C72.7482 8.77809 72.6992 8.74273 72.6686 8.69317C72.6379 8.64361 72.6283 8.58392 72.6417 8.52723C72.6551 8.47054 72.6904 8.4215 72.74 8.39089L73.2872 8.05003C73.3207 8.03014 73.3588 8.01938 73.3977 8.01882C73.4367 8.01826 73.4751 8.02792 73.5091 8.04684C73.5432 8.06576 73.5716 8.09328 73.5917 8.12664C73.6118 8.16001 73.6228 8.19806 73.6236 8.23699V10.8483Z" fill="#FAFAFA"/>
<path d="M72.043 10.8483C72.0412 10.9054 72.0173 10.9596 71.9763 10.9994C71.9353 11.0392 71.8804 11.0614 71.8233 11.0614C71.7661 11.0614 71.7112 11.0392 71.6702 10.9994C71.6292 10.9596 71.6053 10.9054 71.6035 10.8483V8.63275L71.3902 8.7646C71.3407 8.79389 71.2817 8.80258 71.2258 8.7888C71.17 8.77502 71.1218 8.73987 71.0916 8.69091C71.0613 8.64196 71.0515 8.5831 71.0643 8.52699C71.077 8.47089 71.1112 8.42202 71.1596 8.39089L71.7068 8.05003C71.7403 8.03014 71.7784 8.01938 71.8173 8.01882C71.8563 8.01826 71.8947 8.02792 71.9287 8.04684C71.9628 8.06576 71.9913 8.09328 72.0113 8.12664C72.0314 8.16001 72.0424 8.19806 72.0432 8.23699L72.043 10.8483Z" fill="#FAFAFA"/>
<path d="M73.6236 10.8483C73.6236 10.9066 73.6004 10.9625 73.5592 11.0038C73.518 11.045 73.462 11.0681 73.4037 11.0681C73.3454 11.0681 73.2895 11.045 73.2483 11.0038C73.2071 10.9625 73.1839 10.9066 73.1839 10.8483V8.63275L72.9708 8.7646C72.9213 8.79522 72.8616 8.80489 72.8049 8.79149C72.7482 8.77809 72.6992 8.74273 72.6686 8.69317C72.6379 8.64361 72.6283 8.58392 72.6417 8.52723C72.6551 8.47054 72.6904 8.4215 72.74 8.39089L73.2872 8.05003C73.3207 8.03014 73.3588 8.01938 73.3977 8.01882C73.4367 8.01826 73.4751 8.02792 73.5091 8.04684C73.5432 8.06576 73.5716 8.09328 73.5917 8.12664C73.6118 8.16001 73.6228 8.19806 73.6236 8.23699V10.8483Z" fill="#FAFAFA"/>
<path d="M71.4297 8.33203H73.7214" stroke="#191919" stroke-width="0.343756" stroke-linecap="round" stroke-linejoin="round"/>
<path d="M72.5757 9.47921V7.1875" stroke="#191919" stroke-width="0.343756" stroke-linecap="round" stroke-linejoin="round"/>
</g>
<path d="M41.1077 10.9962C41.4766 10.9958 41.8302 10.849 42.0911 10.5882C42.3519 10.3273 42.4986 9.97368 42.4991 9.6048V9.12331C41.5789 9.29665 40.6339 9.28993 39.7163 9.10352V9.6048C39.7167 9.97368 39.8635 10.3273 40.1243 10.5882C40.3852 10.849 40.7388 10.9958 41.1077 10.9962Z" fill="#FAFAFA"/>
<path d="M46.8076 13.7504L45.6667 11.3522C45.4515 10.9032 45.0723 10.5539 44.6073 10.3761L43.7366 10.0443C43.3921 9.94241 43.1406 9.53767 42.9386 9.26172V9.5391C42.9468 9.79494 42.9016 10.0497 42.8059 10.2871C42.7102 10.5245 42.566 10.7393 42.3826 10.9179C42.1992 11.0965 41.9806 11.2348 41.7407 11.3242C41.5009 11.4135 41.245 11.4519 40.9895 11.4368C40.7339 11.4218 40.4844 11.3536 40.2567 11.2367C40.0289 11.1197 39.8281 10.9566 39.667 10.7577C39.5058 10.5589 39.3879 10.3286 39.3208 10.0816C39.2536 9.83455 39.2387 9.57625 39.2769 9.32315C39.1264 9.61265 38.8801 9.84101 38.5801 9.96935L37.7645 10.2618C37.2964 10.4274 36.9104 10.7677 36.6874 11.2113L35.4079 13.7504C35.3901 13.7889 35.3882 13.8329 35.4027 13.8727C35.4171 13.9126 35.4466 13.9452 35.4849 13.9635L37.1891 14.7385C37.2211 14.7531 37.2562 14.7598 37.2913 14.758C37.3265 14.7563 37.3607 14.7461 37.3911 14.7284C37.4215 14.7107 37.4472 14.6859 37.466 14.6562C37.4849 14.6265 37.4963 14.5927 37.4994 14.5576L37.562 13.8433C37.5686 13.786 37.5972 13.7335 37.6419 13.697C37.6866 13.6605 37.7437 13.6429 37.8012 13.6479C37.8586 13.653 37.9118 13.6802 37.9495 13.7239C37.9871 13.7676 38.0062 13.8243 38.0027 13.8818L37.472 19.914C37.4718 19.9568 37.4804 19.9992 37.4972 20.0386C37.514 20.078 37.5388 20.1136 37.5699 20.143C37.601 20.1725 37.6378 20.1952 37.6781 20.2099C37.7183 20.2246 37.7611 20.2308 37.8039 20.2283H44.4292C44.4721 20.2309 44.5151 20.2245 44.5555 20.2097C44.5959 20.1949 44.6329 20.172 44.664 20.1423C44.6951 20.1126 44.7198 20.0768 44.7365 20.0371C44.7532 19.9974 44.7616 19.9548 44.761 19.9117C44.6671 18.9051 44.2785 14.7999 44.1924 13.8831C44.1883 13.8257 44.2068 13.769 44.2439 13.7251C44.2811 13.6812 44.334 13.6536 44.3912 13.6482C44.4485 13.6428 44.5056 13.66 44.5503 13.6962C44.595 13.7324 44.6238 13.7847 44.6304 13.8418L44.6972 14.5489C44.7004 14.5836 44.712 14.6171 44.7307 14.6465C44.7495 14.6759 44.775 14.7004 44.8052 14.718C44.8353 14.7356 44.8692 14.7457 44.904 14.7476C44.9389 14.7495 44.9737 14.7431 45.0056 14.7289L46.7307 13.9592C46.7683 13.9414 46.7975 13.9096 46.8119 13.8705C46.8263 13.8314 46.8248 13.7884 46.8076 13.7504ZM40.6899 17.9772C40.6882 18.0343 40.6643 18.0885 40.6233 18.1283C40.5823 18.1681 40.5274 18.1903 40.4702 18.1903C40.4131 18.1903 40.3582 18.1681 40.3172 18.1283C40.2762 18.0885 40.2523 18.0343 40.2505 17.9772V15.7617L40.0372 15.8935C39.9877 15.9228 39.9287 15.9315 39.8728 15.9177C39.817 15.9039 39.7687 15.8688 39.7385 15.8198C39.7083 15.7709 39.6985 15.712 39.7112 15.6559C39.724 15.5998 39.7582 15.5509 39.8066 15.5198L40.3538 15.1789C40.3873 15.159 40.4254 15.1483 40.4643 15.1477C40.5033 15.1472 40.5417 15.1568 40.5757 15.1757C40.6097 15.1947 40.6382 15.2222 40.6583 15.2555C40.6784 15.2889 40.6894 15.327 40.6902 15.3659L40.6899 17.9772ZM42.2705 17.9772C42.2705 18.0355 42.2474 18.0914 42.2062 18.1327C42.1649 18.1739 42.109 18.197 42.0507 18.197C41.9924 18.197 41.9365 18.1739 41.8953 18.1327C41.8541 18.0914 41.8309 18.0355 41.8309 17.9772V15.7617L41.6178 15.8935C41.5683 15.9241 41.5086 15.9338 41.4519 15.9204C41.3952 15.907 41.3461 15.8716 41.3155 15.8221C41.2849 15.7725 41.2753 15.7128 41.2886 15.6561C41.302 15.5995 41.3374 15.5504 41.387 15.5198L41.9342 15.1789C41.9677 15.159 42.0058 15.1483 42.0447 15.1477C42.0836 15.1472 42.1221 15.1568 42.1561 15.1757C42.1901 15.1947 42.2186 15.2222 42.2387 15.2555C42.2588 15.2889 42.2698 15.327 42.2705 15.3659V17.9772Z" fill="#FAFAFA"/>
<path d="M40.6899 17.9772C40.6882 18.0343 40.6643 18.0885 40.6233 18.1283C40.5823 18.1681 40.5274 18.1903 40.4702 18.1903C40.4131 18.1903 40.3582 18.1681 40.3172 18.1283C40.2762 18.0885 40.2523 18.0343 40.2505 17.9772V15.7617L40.0372 15.8935C39.9877 15.9228 39.9287 15.9315 39.8728 15.9177C39.817 15.9039 39.7687 15.8688 39.7385 15.8198C39.7083 15.7709 39.6985 15.712 39.7112 15.6559C39.724 15.5998 39.7582 15.5509 39.8066 15.5198L40.3538 15.1789C40.3873 15.159 40.4254 15.1483 40.4643 15.1477C40.5033 15.1472 40.5417 15.1568 40.5757 15.1757C40.6097 15.1947 40.6382 15.2222 40.6583 15.2555C40.6784 15.2889 40.6894 15.327 40.6902 15.3659L40.6899 17.9772Z" fill="#FAFAFA"/>
<path d="M42.2705 17.9772C42.2705 18.0355 42.2474 18.0914 42.2062 18.1327C42.1649 18.1739 42.109 18.197 42.0507 18.197C41.9924 18.197 41.9365 18.1739 41.8953 18.1327C41.8541 18.0914 41.8309 18.0355 41.8309 17.9772V15.7617L41.6178 15.8935C41.5683 15.9241 41.5086 15.9338 41.4519 15.9204C41.3952 15.907 41.3461 15.8716 41.3155 15.8221C41.2849 15.7725 41.2753 15.7128 41.2886 15.6561C41.302 15.5995 41.3374 15.5504 41.387 15.5198L41.9342 15.1789C41.9677 15.159 42.0058 15.1483 42.0447 15.1477C42.0836 15.1472 42.1221 15.1568 42.1561 15.1757C42.1901 15.1947 42.2186 15.2222 42.2387 15.2555C42.2588 15.2889 42.2698 15.327 42.2705 15.3659V17.9772Z" fill="#FAFAFA"/>
<path d="M40.0767 15.4609H42.3684" stroke="#191919" stroke-width="0.343756" stroke-linecap="round" stroke-linejoin="round"/>
<path d="M41.2227 16.6081V14.3164" stroke="#191919" stroke-width="0.343756" stroke-linecap="round" stroke-linejoin="round"/>
<defs>
<clipPath id="clip0_8758_17598">
<rect width="13.0627" height="13.0627" fill="white" transform="translate(65.9297 1)"/>
</clipPath>
</defs>
</svg>
