<svg width="81" height="81" viewBox="0 0 81 81" fill="none" xmlns="http://www.w3.org/2000/svg">
<rect x="0.842613" y="0.118492" width="79.9807" height="79.9807" rx="5.88541" fill="#828284" stroke="#FAFAFA" stroke-width="0.229171"/>
<mask id="path-2-inside-1_9669_18637" fill="white">
<path d="M24.5618 66.4609H57.104V80.2112H24.5618V66.4609Z"/>
</mask>
<path d="M24.5618 66.4609V66.2318H24.3326V66.4609H24.5618ZM57.104 66.4609H57.3332V66.2318H57.104V66.4609ZM24.5618 66.6901H57.104V66.2318H24.5618V66.6901ZM56.8749 66.4609V80.2112H57.3332V66.4609H56.8749ZM24.7909 80.2112V66.4609H24.3326V80.2112H24.7909Z" fill="#FAFAFA" mask="url(#path-2-inside-1_9669_18637)"/>
<mask id="path-4-inside-2_9669_18637" fill="white">
<path d="M13.3325 55.0039H68.3335V80.2127H13.3325V55.0039Z"/>
</mask>
<path d="M13.3325 55.0039V54.7747H13.1033V55.0039H13.3325ZM68.3335 55.0039H68.5627V54.7747H68.3335V55.0039ZM13.3325 55.2331H68.3335V54.7747H13.3325V55.2331ZM68.1044 55.0039V80.2127H68.5627V55.0039H68.1044ZM13.5617 80.2127V55.0039H13.1033V80.2127H13.5617Z" fill="#FAFAFA" mask="url(#path-4-inside-2_9669_18637)"/>
<path d="M55.0415 9.53674e-07C55.0415 1.65523 54.6562 3.29426 53.9076 4.8235C53.159 6.35273 52.0618 7.74223 50.6785 8.91266C49.2953 10.0831 47.6532 11.0115 45.8459 11.645C44.0386 12.2784 42.1016 12.6044 40.1454 12.6044C38.1892 12.6044 36.2522 12.2784 34.4449 11.645C32.6376 11.0115 30.9955 10.0831 29.6122 8.91266C28.229 7.74223 27.1318 6.35273 26.3832 4.8235C25.6346 3.29426 25.2493 1.65523 25.2493 0" stroke="#FAFAFA" stroke-width="0.229171"/>
<path d="M31.3052 55.3516C31.8235 54.5174 32.5831 53.7595 33.5407 53.1211C34.4984 52.4827 35.6352 51.9763 36.8864 51.6308C38.1376 51.2853 39.4786 51.1074 40.8329 51.1074C42.1872 51.1074 43.5282 51.2853 44.7794 51.6308C46.0306 51.9763 47.1675 52.4827 48.1251 53.1211C49.0827 53.7595 49.8423 54.5174 50.3606 55.3516" stroke="#FAFAFA" stroke-width="0.229171"/>
<path d="M0.957031 76.5479C2.07356 76.4958 4.27749 77.1099 4.16098 79.9825" stroke="#FAFAFA" stroke-width="0.229171"/>
<path d="M80.7085 76.5479C79.592 76.4958 77.388 77.1099 77.5045 79.9825" stroke="#FAFAFA" stroke-width="0.229171"/>
<path d="M40.9471 69.4356C41.3159 69.4352 41.6696 69.2885 41.9304 69.0276C42.1913 68.7668 42.338 68.4131 42.3384 68.0443V67.5628C41.4183 67.7361 40.4733 67.7294 39.5557 67.543V68.0443C39.5561 68.4131 39.7028 68.7668 39.9637 69.0276C40.2245 69.2885 40.5782 69.4352 40.9471 69.4356Z" fill="#FAFAFA"/>
<path d="M46.647 72.1899L45.506 69.7916C45.2908 69.3427 44.9117 68.9934 44.4467 68.8156L43.576 68.4837C43.2315 68.3819 42.98 67.9771 42.7779 67.7012V67.9786C42.7862 68.2344 42.741 68.4891 42.6453 68.7265C42.5495 68.9639 42.4054 69.1788 42.222 69.3573C42.0386 69.5359 41.82 69.6743 41.5801 69.7636C41.3402 69.853 41.0844 69.8913 40.8288 69.8763C40.5733 69.8612 40.3237 69.793 40.096 69.6761C39.8683 69.5592 39.6675 69.3961 39.5063 69.1972C39.3452 68.9983 39.2273 68.768 39.1601 68.521C39.093 68.274 39.078 68.0157 39.1163 67.7626C38.9657 68.0521 38.7195 68.2805 38.4195 68.4088L37.6039 68.7013C37.1357 68.8669 36.7498 69.2071 36.5268 69.6508L35.2473 72.1899C35.2295 72.2284 35.2276 72.2723 35.242 72.3122C35.2564 72.3521 35.2859 72.3847 35.3242 72.4029L37.0285 73.1779C37.0605 73.1925 37.0956 73.1992 37.1307 73.1975C37.1658 73.1957 37.2 73.1856 37.2304 73.1679C37.2608 73.1501 37.2865 73.1254 37.3054 73.0957C37.3242 73.066 37.3357 73.0321 37.3387 72.9971L37.4014 72.2827C37.4079 72.2254 37.4366 72.1729 37.4812 72.1364C37.5259 72.1 37.5831 72.0823 37.6405 72.0874C37.698 72.0924 37.7512 72.1197 37.7888 72.1634C37.8265 72.2071 37.8456 72.2637 37.8421 72.3213L37.3114 78.3534C37.3112 78.3963 37.3197 78.4387 37.3366 78.4781C37.3534 78.5175 37.3781 78.553 37.4092 78.5825C37.4403 78.6119 37.4772 78.6347 37.5174 78.6494C37.5577 78.664 37.6005 78.6703 37.6433 78.6678H44.2685C44.3115 78.6703 44.3545 78.664 44.3949 78.6492C44.4353 78.6344 44.4722 78.6114 44.5034 78.5817C44.5345 78.552 44.5592 78.5162 44.5759 78.4766C44.5926 78.4369 44.6009 78.3942 44.6004 78.3512C44.5065 77.3445 44.1179 73.2394 44.0318 72.3225C44.0276 72.2652 44.0461 72.2084 44.0833 72.1645C44.1204 72.1206 44.1733 72.093 44.2306 72.0876C44.2879 72.0822 44.345 72.0995 44.3897 72.1357C44.4344 72.1719 44.4631 72.2242 44.4698 72.2813L44.5365 72.9883C44.5398 73.0231 44.5513 73.0565 44.5701 73.0859C44.5889 73.1153 44.6144 73.1398 44.6445 73.1574C44.6747 73.175 44.7086 73.1852 44.7434 73.1871C44.7782 73.189 44.813 73.1826 44.8449 73.1683L46.57 72.3987C46.6077 72.3809 46.6369 72.349 46.6513 72.3099C46.6657 72.2708 46.6641 72.2278 46.647 72.1899ZM40.5293 76.4167C40.5276 76.4738 40.5037 76.528 40.4626 76.5678C40.4216 76.6076 40.3667 76.6298 40.3096 76.6298C40.2524 76.6298 40.1976 76.6076 40.1565 76.5678C40.1155 76.528 40.0916 76.4738 40.0899 76.4167V74.2011L39.8766 74.333C39.8271 74.3623 39.768 74.3709 39.7122 74.3572C39.6563 74.3434 39.6081 74.3082 39.5779 74.2593C39.5477 74.2103 39.5379 74.1515 39.5506 74.0954C39.5633 74.0392 39.5976 73.9904 39.6459 73.9592L40.1931 73.6184C40.2266 73.5985 40.2647 73.5877 40.3037 73.5872C40.3426 73.5866 40.381 73.5963 40.4151 73.6152C40.4491 73.6341 40.4776 73.6616 40.4977 73.695C40.5177 73.7284 40.5287 73.7664 40.5295 73.8054L40.5293 76.4167ZM42.1099 76.4167C42.1099 76.475 42.0867 76.5309 42.0455 76.5721C42.0043 76.6133 41.9484 76.6365 41.8901 76.6365C41.8318 76.6365 41.7759 76.6133 41.7346 76.5721C41.6934 76.5309 41.6703 76.475 41.6703 76.4167V74.2011L41.4572 74.333C41.4076 74.3636 41.3479 74.3732 41.2912 74.3598C41.2345 74.3465 41.1855 74.3111 41.1549 74.2615C41.1243 74.212 41.1146 74.1523 41.128 74.0956C41.1414 74.0389 41.1768 73.9899 41.2263 73.9592L41.7735 73.6184C41.807 73.5985 41.8451 73.5877 41.8841 73.5872C41.923 73.5866 41.9614 73.5963 41.9954 73.6152C42.0295 73.6341 42.058 73.6616 42.078 73.695C42.0981 73.7284 42.1091 73.7664 42.1099 73.8054V76.4167Z" fill="#FAFAFA"/>
<path d="M40.5293 76.4167C40.5276 76.4738 40.5037 76.528 40.4626 76.5678C40.4216 76.6076 40.3667 76.6298 40.3096 76.6298C40.2524 76.6298 40.1976 76.6076 40.1565 76.5678C40.1155 76.528 40.0916 76.4738 40.0899 76.4167V74.2011L39.8766 74.333C39.8271 74.3623 39.768 74.3709 39.7122 74.3572C39.6563 74.3434 39.6081 74.3082 39.5779 74.2593C39.5477 74.2103 39.5379 74.1515 39.5506 74.0954C39.5633 74.0392 39.5976 73.9904 39.6459 73.9592L40.1931 73.6184C40.2266 73.5985 40.2647 73.5877 40.3037 73.5872C40.3426 73.5866 40.381 73.5963 40.4151 73.6152C40.4491 73.6341 40.4776 73.6616 40.4977 73.695C40.5177 73.7284 40.5287 73.7664 40.5295 73.8054L40.5293 76.4167Z" fill="#FAFAFA"/>
<path d="M42.1099 76.4167C42.1099 76.475 42.0867 76.5309 42.0455 76.5721C42.0043 76.6133 41.9484 76.6365 41.8901 76.6365C41.8318 76.6365 41.7759 76.6133 41.7346 76.5721C41.6934 76.5309 41.6703 76.475 41.6703 76.4167V74.2011L41.4572 74.333C41.4076 74.3636 41.3479 74.3732 41.2912 74.3598C41.2345 74.3465 41.1855 74.3111 41.1549 74.2615C41.1243 74.212 41.1146 74.1523 41.128 74.0956C41.1414 74.0389 41.1768 73.9899 41.2263 73.9592L41.7735 73.6184C41.807 73.5985 41.8451 73.5877 41.8841 73.5872C41.923 73.5866 41.9614 73.5963 41.9954 73.6152C42.0295 73.6341 42.058 73.6616 42.078 73.695C42.0981 73.7284 42.1091 73.7664 42.1099 73.8054V76.4167Z" fill="#FAFAFA"/>
<path d="M39.916 73.8965H42.2077" stroke="#191919" stroke-width="0.343756" stroke-linecap="round" stroke-linejoin="round"/>
<path d="M41.062 75.0437V72.752" stroke="#191919" stroke-width="0.343756" stroke-linecap="round" stroke-linejoin="round"/>
<path d="M9.96756 48.8673C10.3364 48.8668 10.6901 48.7201 10.9509 48.4593C11.2118 48.1984 11.3585 47.8448 11.3589 47.4759V46.9944C10.4388 47.1677 9.49376 47.161 8.57617 46.9746V47.4759C8.5766 47.8448 8.72333 48.1984 8.98418 48.4593C9.24502 48.7201 9.59867 48.8668 9.96756 48.8673Z" fill="#FAFAFA"/>
<path d="M15.6675 51.6215L14.5265 49.2233C14.3113 48.7743 13.9322 48.425 13.4672 48.2472L12.5965 47.9154C12.252 47.8135 12.0005 47.4088 11.7984 47.1328V47.4102C11.8067 47.666 11.7615 47.9208 11.6658 48.1582C11.57 48.3956 11.4259 48.6104 11.2425 48.789C11.0591 48.9675 10.8405 49.1059 10.6006 49.1953C10.3607 49.2846 10.1049 49.323 9.84933 49.3079C9.5938 49.2928 9.34422 49.2247 9.11652 49.1077C8.88881 48.9908 8.68798 48.8277 8.52683 48.6288C8.36569 48.4299 8.24778 48.1997 8.18062 47.9526C8.11347 47.7056 8.09854 47.4473 8.13679 47.1942C7.98623 47.4837 7.73998 47.7121 7.43998 47.8404L6.62437 48.1329C6.15624 48.2985 5.7703 48.6388 5.54731 49.0824L4.26777 51.6215C4.25 51.66 4.24811 51.7039 4.26252 51.7438C4.27692 51.7837 4.30645 51.8163 4.34472 51.8346L6.049 52.6096C6.08101 52.6242 6.11606 52.6309 6.1512 52.6291C6.18634 52.6274 6.22055 52.6172 6.25095 52.5995C6.28135 52.5818 6.30705 52.557 6.32589 52.5273C6.34474 52.4976 6.35617 52.4638 6.35924 52.4287L6.4219 51.7144C6.42843 51.6571 6.45708 51.6046 6.50175 51.5681C6.54641 51.5316 6.60356 51.514 6.66102 51.519C6.71848 51.524 6.7717 51.5513 6.80934 51.595C6.84699 51.6387 6.86609 51.6954 6.86256 51.7529L6.33189 57.7851C6.33167 57.8279 6.34025 57.8703 6.35708 57.9097C6.37391 57.9491 6.39864 57.9847 6.42975 58.0141C6.46085 58.0436 6.49766 58.0663 6.53792 58.081C6.57817 58.0957 6.621 58.1019 6.66376 58.0994H13.289C13.332 58.1019 13.375 58.0956 13.4154 58.0808C13.4558 58.066 13.4927 58.0431 13.5239 58.0133C13.555 57.9836 13.5797 57.9479 13.5964 57.9082C13.6131 57.8685 13.6214 57.8259 13.6209 57.7828C13.527 56.7762 13.1384 52.671 13.0523 51.7542C13.0481 51.6968 13.0666 51.6401 13.1038 51.5962C13.1409 51.5523 13.1938 51.5247 13.2511 51.5193C13.3084 51.5139 13.3655 51.5311 13.4102 51.5673C13.4549 51.6035 13.4836 51.6558 13.4903 51.7129L13.557 52.42C13.5603 52.4547 13.5718 52.4882 13.5906 52.5176C13.6094 52.547 13.6349 52.5715 13.665 52.5891C13.6952 52.6067 13.7291 52.6168 13.7639 52.6187C13.7988 52.6206 13.8335 52.6142 13.8654 52.6L15.5905 51.8303C15.6282 51.8125 15.6574 51.7806 15.6718 51.7415C15.6862 51.7024 15.6846 51.6595 15.6675 51.6215ZM9.54981 55.8483C9.54807 55.9054 9.52416 55.9596 9.48315 55.9994C9.44213 56.0392 9.38723 56.0614 9.33009 56.0614C9.27295 56.0614 9.21806 56.0392 9.17704 55.9994C9.13603 55.9596 9.11211 55.9054 9.11037 55.8483V53.6328L8.89708 53.7646C8.84757 53.7939 8.78854 53.8026 8.73268 53.7888C8.67683 53.775 8.62861 53.7399 8.59839 53.6909C8.56818 53.642 8.55838 53.5831 8.57111 53.527C8.58383 53.4709 8.61807 53.422 8.66645 53.3909L9.21365 53.05C9.24713 53.0301 9.28524 53.0194 9.32418 53.0188C9.36312 53.0183 9.40153 53.0279 9.43557 53.0468C9.4696 53.0658 9.49809 53.0933 9.51817 53.1266C9.53825 53.16 9.54923 53.1981 9.55002 53.237L9.54981 55.8483ZM11.1304 55.8483C11.1304 55.9066 11.1072 55.9625 11.066 56.0038C11.0248 56.045 10.9689 56.0681 10.9106 56.0681C10.8523 56.0681 10.7964 56.045 10.7551 56.0038C10.7139 55.9625 10.6908 55.9066 10.6908 55.8483V53.6328L10.4777 53.7646C10.4281 53.7952 10.3684 53.8049 10.3117 53.7915C10.2551 53.7781 10.206 53.7427 10.1754 53.6932C10.1448 53.6436 10.1351 53.5839 10.1485 53.5272C10.1619 53.4705 10.1973 53.4215 10.2468 53.3909L10.794 53.05C10.8275 53.0301 10.8656 53.0194 10.9046 53.0188C10.9435 53.0183 10.9819 53.0279 11.016 53.0468C11.05 53.0658 11.0785 53.0933 11.0986 53.1266C11.1186 53.16 11.1296 53.1981 11.1304 53.237V55.8483Z" fill="#FAFAFA"/>
<path d="M9.54981 55.8483C9.54807 55.9054 9.52416 55.9596 9.48315 55.9994C9.44213 56.0392 9.38723 56.0614 9.33009 56.0614C9.27295 56.0614 9.21806 56.0392 9.17704 55.9994C9.13603 55.9596 9.11211 55.9054 9.11037 55.8483V53.6328L8.89708 53.7646C8.84757 53.7939 8.78854 53.8026 8.73268 53.7888C8.67683 53.775 8.62861 53.7399 8.59839 53.6909C8.56818 53.642 8.55838 53.5831 8.57111 53.527C8.58383 53.4709 8.61807 53.422 8.66645 53.3909L9.21365 53.05C9.24713 53.0301 9.28524 53.0194 9.32418 53.0188C9.36312 53.0183 9.40153 53.0279 9.43557 53.0468C9.4696 53.0658 9.49809 53.0933 9.51817 53.1266C9.53825 53.16 9.54923 53.1981 9.55002 53.237L9.54981 55.8483Z" fill="#FAFAFA"/>
<path d="M11.1304 55.8483C11.1304 55.9066 11.1072 55.9625 11.066 56.0038C11.0248 56.045 10.9689 56.0681 10.9106 56.0681C10.8523 56.0681 10.7964 56.045 10.7551 56.0038C10.7139 55.9625 10.6908 55.9066 10.6908 55.8483V53.6328L10.4777 53.7646C10.4281 53.7952 10.3684 53.8049 10.3117 53.7915C10.2551 53.7781 10.206 53.7427 10.1754 53.6932C10.1448 53.6436 10.1351 53.5839 10.1485 53.5272C10.1619 53.4705 10.1973 53.4215 10.2468 53.3909L10.794 53.05C10.8275 53.0301 10.8656 53.0194 10.9046 53.0188C10.9435 53.0183 10.9819 53.0279 11.016 53.0468C11.05 53.0658 11.0785 53.0933 11.0986 53.1266C11.1186 53.16 11.1296 53.1981 11.1304 53.237V55.8483Z" fill="#FAFAFA"/>
<path d="M8.93652 53.332H11.2282" stroke="#191919" stroke-width="0.343756" stroke-linecap="round" stroke-linejoin="round"/>
<path d="M10.0825 54.4792V52.1875" stroke="#191919" stroke-width="0.343756" stroke-linecap="round" stroke-linejoin="round"/>
<path d="M71.0491 48.8673C71.418 48.8668 71.7716 48.7201 72.0325 48.4593C72.2933 48.1984 72.4401 47.8448 72.4405 47.4759V46.9944C71.5203 47.1677 70.5753 47.161 69.6577 46.9746V47.4759C69.6581 47.8448 69.8049 48.1984 70.0657 48.4593C70.3266 48.7201 70.6802 48.8668 71.0491 48.8673Z" fill="#FAFAFA"/>
<path d="M76.749 51.6215L75.6081 49.2233C75.3929 48.7743 75.0138 48.425 74.5487 48.2472L73.678 47.9154C73.3335 47.8135 73.082 47.4088 72.88 47.1328V47.4102C72.8882 47.666 72.843 47.9208 72.7473 48.1582C72.6516 48.3956 72.5074 48.6104 72.324 48.789C72.1406 48.9675 71.922 49.1059 71.6821 49.1953C71.4423 49.2846 71.1864 49.323 70.9309 49.3079C70.6753 49.2928 70.4258 49.2247 70.1981 49.1077C69.9704 48.9908 69.7695 48.8277 69.6084 48.6288C69.4472 48.4299 69.3293 48.1997 69.2622 47.9526C69.195 47.7056 69.1801 47.4473 69.2183 47.1942C69.0678 47.4837 68.8215 47.7121 68.5215 47.8404L67.7059 48.1329C67.2378 48.2985 66.8518 48.6388 66.6288 49.0824L65.3493 51.6215C65.3315 51.66 65.3297 51.7039 65.3441 51.7438C65.3585 51.7837 65.388 51.8163 65.4263 51.8346L67.1305 52.6096C67.1626 52.6242 67.1976 52.6309 67.2327 52.6291C67.2679 52.6274 67.3021 52.6172 67.3325 52.5995C67.3629 52.5818 67.3886 52.557 67.4074 52.5273C67.4263 52.4976 67.4377 52.4638 67.4408 52.4287L67.5034 51.7144C67.51 51.6571 67.5386 51.6046 67.5833 51.5681C67.628 51.5316 67.6851 51.514 67.7426 51.519C67.8 51.524 67.8532 51.5513 67.8909 51.595C67.9285 51.6387 67.9476 51.6954 67.9441 51.7529L67.4134 57.7851C67.4132 57.8279 67.4218 57.8703 67.4386 57.9097C67.4555 57.9491 67.4802 57.9847 67.5113 58.0141C67.5424 58.0436 67.5792 58.0663 67.6195 58.081C67.6597 58.0957 67.7025 58.1019 67.7453 58.0994H74.3706C74.4135 58.1019 74.4565 58.0956 74.4969 58.0808C74.5374 58.066 74.5743 58.0431 74.6054 58.0133C74.6365 57.9836 74.6612 57.9479 74.6779 57.9082C74.6946 57.8685 74.703 57.8259 74.7024 57.7828C74.6086 56.7762 74.2199 52.671 74.1338 51.7542C74.1297 51.6968 74.1482 51.6401 74.1853 51.5962C74.2225 51.5523 74.2754 51.5247 74.3326 51.5193C74.3899 51.5139 74.447 51.5311 74.4917 51.5673C74.5364 51.6035 74.5652 51.6558 74.5718 51.7129L74.6386 52.42C74.6418 52.4547 74.6534 52.4882 74.6721 52.5176C74.6909 52.547 74.7164 52.5715 74.7466 52.5891C74.7767 52.6067 74.8106 52.6168 74.8455 52.6187C74.8803 52.6206 74.9151 52.6142 74.947 52.6L76.6721 51.8303C76.7097 51.8125 76.7389 51.7806 76.7533 51.7415C76.7677 51.7024 76.7662 51.6595 76.749 51.6215ZM70.6314 55.8483C70.6296 55.9054 70.6057 55.9596 70.5647 55.9994C70.5237 56.0392 70.4688 56.0614 70.4116 56.0614C70.3545 56.0614 70.2996 56.0392 70.2586 55.9994C70.2176 55.9596 70.1937 55.9054 70.1919 55.8483V53.6328L69.9786 53.7646C69.9291 53.7939 69.8701 53.8026 69.8142 53.7888C69.7584 53.775 69.7102 53.7399 69.6799 53.6909C69.6497 53.642 69.6399 53.5831 69.6527 53.527C69.6654 53.4709 69.6996 53.422 69.748 53.3909L70.2952 53.05C70.3287 53.0301 70.3668 53.0194 70.4057 53.0188C70.4447 53.0183 70.4831 53.0279 70.5171 53.0468C70.5511 53.0658 70.5796 53.0933 70.5997 53.1266C70.6198 53.16 70.6308 53.1981 70.6316 53.237L70.6314 55.8483ZM72.2119 55.8483C72.2119 55.9066 72.1888 55.9625 72.1476 56.0038C72.1063 56.045 72.0504 56.0681 71.9921 56.0681C71.9338 56.0681 71.8779 56.045 71.8367 56.0038C71.7955 55.9625 71.7723 55.9066 71.7723 55.8483V53.6328L71.5592 53.7646C71.5097 53.7952 71.45 53.8049 71.3933 53.7915C71.3366 53.7781 71.2876 53.7427 71.2569 53.6932C71.2263 53.6436 71.2167 53.5839 71.2301 53.5272C71.2435 53.4705 71.2788 53.4215 71.3284 53.3909L71.8756 53.05C71.9091 53.0301 71.9472 53.0194 71.9861 53.0188C72.0251 53.0183 72.0635 53.0279 72.0975 53.0468C72.1315 53.0658 72.16 53.0933 72.1801 53.1266C72.2002 53.16 72.2112 53.1981 72.2119 53.237V55.8483Z" fill="#FAFAFA"/>
<path d="M70.6314 55.8483C70.6296 55.9054 70.6057 55.9596 70.5647 55.9994C70.5237 56.0392 70.4688 56.0614 70.4116 56.0614C70.3545 56.0614 70.2996 56.0392 70.2586 55.9994C70.2176 55.9596 70.1937 55.9054 70.1919 55.8483V53.6328L69.9786 53.7646C69.9291 53.7939 69.8701 53.8026 69.8142 53.7888C69.7584 53.775 69.7102 53.7399 69.6799 53.6909C69.6497 53.642 69.6399 53.5831 69.6527 53.527C69.6654 53.4709 69.6996 53.422 69.748 53.3909L70.2952 53.05C70.3287 53.0301 70.3668 53.0194 70.4057 53.0188C70.4447 53.0183 70.4831 53.0279 70.5171 53.0468C70.5511 53.0658 70.5796 53.0933 70.5997 53.1266C70.6198 53.16 70.6308 53.1981 70.6316 53.237L70.6314 55.8483Z" fill="#FAFAFA"/>
<path d="M72.2119 55.8483C72.2119 55.9066 72.1888 55.9625 72.1476 56.0038C72.1063 56.045 72.0504 56.0681 71.9921 56.0681C71.9338 56.0681 71.8779 56.045 71.8367 56.0038C71.7955 55.9625 71.7723 55.9066 71.7723 55.8483V53.6328L71.5592 53.7646C71.5097 53.7952 71.45 53.8049 71.3933 53.7915C71.3366 53.7781 71.2876 53.7427 71.2569 53.6932C71.2263 53.6436 71.2167 53.5839 71.2301 53.5272C71.2435 53.4705 71.2788 53.4215 71.3284 53.3909L71.8756 53.05C71.9091 53.0301 71.9472 53.0194 71.9861 53.0188C72.0251 53.0183 72.0635 53.0279 72.0975 53.0468C72.1315 53.0658 72.16 53.0933 72.1801 53.1266C72.2002 53.16 72.2112 53.1981 72.2119 53.237V55.8483Z" fill="#FAFAFA"/>
<path d="M70.0181 53.332H72.3098" stroke="#191919" stroke-width="0.343756" stroke-linecap="round" stroke-linejoin="round"/>
<path d="M71.1641 54.4792V52.1875" stroke="#191919" stroke-width="0.343756" stroke-linecap="round" stroke-linejoin="round"/>
<path d="M51.0491 52.8673C51.418 52.8668 51.7716 52.7201 52.0325 52.4593C52.2933 52.1984 52.4401 51.8448 52.4405 51.4759V50.9944C51.5203 51.1677 50.5753 51.161 49.6577 50.9746V51.4759C49.6581 51.8448 49.8049 52.1984 50.0657 52.4593C50.3266 52.7201 50.6802 52.8668 51.0491 52.8673Z" fill="#FAFAFA"/>
<path d="M56.749 55.6215L55.6081 53.2233C55.3929 52.7743 55.0138 52.425 54.5487 52.2472L53.678 51.9154C53.3335 51.8135 53.082 51.4088 52.88 51.1328V51.4102C52.8882 51.666 52.843 51.9208 52.7473 52.1582C52.6516 52.3956 52.5074 52.6104 52.324 52.789C52.1406 52.9675 51.922 53.1059 51.6821 53.1953C51.4423 53.2846 51.1864 53.323 50.9309 53.3079C50.6753 53.2928 50.4258 53.2247 50.1981 53.1077C49.9704 52.9908 49.7695 52.8277 49.6084 52.6288C49.4472 52.4299 49.3293 52.1997 49.2622 51.9526C49.195 51.7056 49.1801 51.4473 49.2183 51.1942C49.0678 51.4837 48.8215 51.7121 48.5215 51.8404L47.7059 52.1329C47.2378 52.2985 46.8518 52.6388 46.6288 53.0824L45.3493 55.6215C45.3315 55.66 45.3297 55.7039 45.3441 55.7438C45.3585 55.7837 45.388 55.8163 45.4263 55.8346L47.1305 56.6096C47.1626 56.6242 47.1976 56.6309 47.2327 56.6291C47.2679 56.6274 47.3021 56.6172 47.3325 56.5995C47.3629 56.5818 47.3886 56.557 47.4074 56.5273C47.4263 56.4976 47.4377 56.4638 47.4408 56.4287L47.5034 55.7144C47.51 55.6571 47.5386 55.6046 47.5833 55.5681C47.628 55.5316 47.6851 55.514 47.7426 55.519C47.8 55.524 47.8532 55.5513 47.8909 55.595C47.9285 55.6387 47.9476 55.6954 47.9441 55.7529L47.4134 61.7851C47.4132 61.8279 47.4218 61.8703 47.4386 61.9097C47.4555 61.9491 47.4802 61.9847 47.5113 62.0141C47.5424 62.0436 47.5792 62.0663 47.6195 62.081C47.6597 62.0957 47.7025 62.1019 47.7453 62.0994H54.3706C54.4135 62.1019 54.4565 62.0956 54.4969 62.0808C54.5374 62.066 54.5743 62.0431 54.6054 62.0133C54.6365 61.9836 54.6612 61.9479 54.6779 61.9082C54.6946 61.8685 54.703 61.8259 54.7024 61.7828C54.6086 60.7762 54.2199 56.671 54.1338 55.7542C54.1297 55.6968 54.1482 55.6401 54.1853 55.5962C54.2225 55.5523 54.2754 55.5247 54.3326 55.5193C54.3899 55.5139 54.447 55.5311 54.4917 55.5673C54.5364 55.6035 54.5652 55.6558 54.5718 55.7129L54.6386 56.42C54.6418 56.4547 54.6534 56.4882 54.6721 56.5176C54.6909 56.547 54.7164 56.5715 54.7466 56.5891C54.7767 56.6067 54.8106 56.6168 54.8455 56.6187C54.8803 56.6206 54.9151 56.6142 54.947 56.6L56.6721 55.8303C56.7097 55.8125 56.7389 55.7806 56.7533 55.7415C56.7677 55.7024 56.7662 55.6595 56.749 55.6215ZM50.6314 59.8483C50.6296 59.9054 50.6057 59.9596 50.5647 59.9994C50.5237 60.0392 50.4688 60.0614 50.4116 60.0614C50.3545 60.0614 50.2996 60.0392 50.2586 59.9994C50.2176 59.9596 50.1937 59.9054 50.1919 59.8483V57.6328L49.9786 57.7646C49.9291 57.7939 49.8701 57.8026 49.8142 57.7888C49.7584 57.775 49.7102 57.7399 49.6799 57.6909C49.6497 57.642 49.6399 57.5831 49.6527 57.527C49.6654 57.4709 49.6996 57.422 49.748 57.3909L50.2952 57.05C50.3287 57.0301 50.3668 57.0194 50.4057 57.0188C50.4447 57.0183 50.4831 57.0279 50.5171 57.0468C50.5511 57.0658 50.5796 57.0933 50.5997 57.1266C50.6198 57.16 50.6308 57.1981 50.6316 57.237L50.6314 59.8483ZM52.2119 59.8483C52.2119 59.9066 52.1888 59.9625 52.1476 60.0038C52.1063 60.045 52.0504 60.0681 51.9921 60.0681C51.9338 60.0681 51.8779 60.045 51.8367 60.0038C51.7955 59.9625 51.7723 59.9066 51.7723 59.8483V57.6328L51.5592 57.7646C51.5097 57.7952 51.45 57.8049 51.3933 57.7915C51.3366 57.7781 51.2876 57.7427 51.2569 57.6932C51.2263 57.6436 51.2167 57.5839 51.2301 57.5272C51.2435 57.4705 51.2788 57.4215 51.3284 57.3909L51.8756 57.05C51.9091 57.0301 51.9472 57.0194 51.9861 57.0188C52.0251 57.0183 52.0635 57.0279 52.0975 57.0468C52.1315 57.0658 52.16 57.0933 52.1801 57.1266C52.2002 57.16 52.2112 57.1981 52.2119 57.237V59.8483Z" fill="#FAFAFA"/>
<path d="M50.6314 59.8483C50.6296 59.9054 50.6057 59.9596 50.5647 59.9994C50.5237 60.0392 50.4688 60.0614 50.4116 60.0614C50.3545 60.0614 50.2996 60.0392 50.2586 59.9994C50.2176 59.9596 50.1937 59.9054 50.1919 59.8483V57.6328L49.9786 57.7646C49.9291 57.7939 49.8701 57.8026 49.8142 57.7888C49.7584 57.775 49.7102 57.7399 49.6799 57.6909C49.6497 57.642 49.6399 57.5831 49.6527 57.527C49.6654 57.4709 49.6996 57.422 49.748 57.3909L50.2952 57.05C50.3287 57.0301 50.3668 57.0194 50.4057 57.0188C50.4447 57.0183 50.4831 57.0279 50.5171 57.0468C50.5511 57.0658 50.5796 57.0933 50.5997 57.1266C50.6198 57.16 50.6308 57.1981 50.6316 57.237L50.6314 59.8483Z" fill="#FAFAFA"/>
<path d="M52.2119 59.8483C52.2119 59.9066 52.1888 59.9625 52.1476 60.0038C52.1063 60.045 52.0504 60.0681 51.9921 60.0681C51.9338 60.0681 51.8779 60.045 51.8367 60.0038C51.7955 59.9625 51.7723 59.9066 51.7723 59.8483V57.6328L51.5592 57.7646C51.5097 57.7952 51.45 57.8049 51.3933 57.7915C51.3366 57.7781 51.2876 57.7427 51.2569 57.6932C51.2263 57.6436 51.2167 57.5839 51.2301 57.5272C51.2435 57.4705 51.2788 57.4215 51.3284 57.3909L51.8756 57.05C51.9091 57.0301 51.9472 57.0194 51.9861 57.0188C52.0251 57.0183 52.0635 57.0279 52.0975 57.0468C52.1315 57.0658 52.16 57.0933 52.1801 57.1266C52.2002 57.16 52.2112 57.1981 52.2119 57.237V59.8483Z" fill="#FAFAFA"/>
<path d="M50.0181 57.332H52.3098" stroke="#191919" stroke-width="0.343756" stroke-linecap="round" stroke-linejoin="round"/>
<path d="M51.1641 58.4792V56.1875" stroke="#191919" stroke-width="0.343756" stroke-linecap="round" stroke-linejoin="round"/>
<path d="M31.0491 52.8673C31.418 52.8668 31.7716 52.7201 32.0325 52.4593C32.2933 52.1984 32.4401 51.8448 32.4405 51.4759V50.9944C31.5203 51.1677 30.5753 51.161 29.6577 50.9746V51.4759C29.6581 51.8448 29.8049 52.1984 30.0657 52.4593C30.3266 52.7201 30.6802 52.8668 31.0491 52.8673Z" fill="#FAFAFA"/>
<path d="M36.749 55.6215L35.6081 53.2233C35.3929 52.7743 35.0138 52.425 34.5487 52.2472L33.678 51.9154C33.3335 51.8135 33.082 51.4088 32.88 51.1328V51.4102C32.8882 51.666 32.843 51.9208 32.7473 52.1582C32.6516 52.3956 32.5074 52.6104 32.324 52.789C32.1406 52.9675 31.922 53.1059 31.6821 53.1953C31.4423 53.2846 31.1864 53.323 30.9309 53.3079C30.6753 53.2928 30.4258 53.2247 30.1981 53.1077C29.9704 52.9908 29.7695 52.8277 29.6084 52.6288C29.4472 52.4299 29.3293 52.1997 29.2622 51.9526C29.195 51.7056 29.1801 51.4473 29.2183 51.1942C29.0678 51.4837 28.8215 51.7121 28.5215 51.8404L27.7059 52.1329C27.2378 52.2985 26.8518 52.6388 26.6288 53.0824L25.3493 55.6215C25.3315 55.66 25.3297 55.7039 25.3441 55.7438C25.3585 55.7837 25.388 55.8163 25.4263 55.8346L27.1305 56.6096C27.1626 56.6242 27.1976 56.6309 27.2327 56.6291C27.2679 56.6274 27.3021 56.6172 27.3325 56.5995C27.3629 56.5818 27.3886 56.557 27.4074 56.5273C27.4263 56.4976 27.4377 56.4638 27.4408 56.4287L27.5034 55.7144C27.51 55.6571 27.5386 55.6046 27.5833 55.5681C27.628 55.5316 27.6851 55.514 27.7426 55.519C27.8 55.524 27.8532 55.5513 27.8909 55.595C27.9285 55.6387 27.9476 55.6954 27.9441 55.7529L27.4134 61.7851C27.4132 61.8279 27.4218 61.8703 27.4386 61.9097C27.4555 61.9491 27.4802 61.9847 27.5113 62.0141C27.5424 62.0436 27.5792 62.0663 27.6195 62.081C27.6597 62.0957 27.7025 62.1019 27.7453 62.0994H34.3706C34.4135 62.1019 34.4565 62.0956 34.4969 62.0808C34.5374 62.066 34.5743 62.0431 34.6054 62.0133C34.6365 61.9836 34.6612 61.9479 34.6779 61.9082C34.6946 61.8685 34.703 61.8259 34.7024 61.7828C34.6086 60.7762 34.2199 56.671 34.1338 55.7542C34.1297 55.6968 34.1482 55.6401 34.1853 55.5962C34.2225 55.5523 34.2754 55.5247 34.3326 55.5193C34.3899 55.5139 34.447 55.5311 34.4917 55.5673C34.5364 55.6035 34.5652 55.6558 34.5718 55.7129L34.6386 56.42C34.6418 56.4547 34.6534 56.4882 34.6721 56.5176C34.6909 56.547 34.7164 56.5715 34.7466 56.5891C34.7767 56.6067 34.8106 56.6168 34.8455 56.6187C34.8803 56.6206 34.9151 56.6142 34.947 56.6L36.6721 55.8303C36.7097 55.8125 36.7389 55.7806 36.7533 55.7415C36.7677 55.7024 36.7662 55.6595 36.749 55.6215ZM30.6314 59.8483C30.6296 59.9054 30.6057 59.9596 30.5647 59.9994C30.5237 60.0392 30.4688 60.0614 30.4116 60.0614C30.3545 60.0614 30.2996 60.0392 30.2586 59.9994C30.2176 59.9596 30.1937 59.9054 30.1919 59.8483V57.6328L29.9786 57.7646C29.9291 57.7939 29.8701 57.8026 29.8142 57.7888C29.7584 57.775 29.7102 57.7399 29.6799 57.6909C29.6497 57.642 29.6399 57.5831 29.6527 57.527C29.6654 57.4709 29.6996 57.422 29.748 57.3909L30.2952 57.05C30.3287 57.0301 30.3668 57.0194 30.4057 57.0188C30.4447 57.0183 30.4831 57.0279 30.5171 57.0468C30.5511 57.0658 30.5796 57.0933 30.5997 57.1266C30.6198 57.16 30.6308 57.1981 30.6316 57.237L30.6314 59.8483ZM32.2119 59.8483C32.2119 59.9066 32.1888 59.9625 32.1476 60.0038C32.1063 60.045 32.0504 60.0681 31.9921 60.0681C31.9338 60.0681 31.8779 60.045 31.8367 60.0038C31.7955 59.9625 31.7723 59.9066 31.7723 59.8483V57.6328L31.5592 57.7646C31.5097 57.7952 31.45 57.8049 31.3933 57.7915C31.3366 57.7781 31.2876 57.7427 31.2569 57.6932C31.2263 57.6436 31.2167 57.5839 31.2301 57.5272C31.2435 57.4705 31.2788 57.4215 31.3284 57.3909L31.8756 57.05C31.9091 57.0301 31.9472 57.0194 31.9861 57.0188C32.0251 57.0183 32.0635 57.0279 32.0975 57.0468C32.1315 57.0658 32.16 57.0933 32.1801 57.1266C32.2002 57.16 32.2112 57.1981 32.2119 57.237V59.8483Z" fill="#FAFAFA"/>
<path d="M30.6314 59.8483C30.6296 59.9054 30.6057 59.9596 30.5647 59.9994C30.5237 60.0392 30.4688 60.0614 30.4116 60.0614C30.3545 60.0614 30.2996 60.0392 30.2586 59.9994C30.2176 59.9596 30.1937 59.9054 30.1919 59.8483V57.6328L29.9786 57.7646C29.9291 57.7939 29.8701 57.8026 29.8142 57.7888C29.7584 57.775 29.7102 57.7399 29.6799 57.6909C29.6497 57.642 29.6399 57.5831 29.6527 57.527C29.6654 57.4709 29.6996 57.422 29.748 57.3909L30.2952 57.05C30.3287 57.0301 30.3668 57.0194 30.4057 57.0188C30.4447 57.0183 30.4831 57.0279 30.5171 57.0468C30.5511 57.0658 30.5796 57.0933 30.5997 57.1266C30.6198 57.16 30.6308 57.1981 30.6316 57.237L30.6314 59.8483Z" fill="#FAFAFA"/>
<path d="M32.2119 59.8483C32.2119 59.9066 32.1888 59.9625 32.1476 60.0038C32.1063 60.045 32.0504 60.0681 31.9921 60.0681C31.9338 60.0681 31.8779 60.045 31.8367 60.0038C31.7955 59.9625 31.7723 59.9066 31.7723 59.8483V57.6328L31.5592 57.7646C31.5097 57.7952 31.45 57.8049 31.3933 57.7915C31.3366 57.7781 31.2876 57.7427 31.2569 57.6932C31.2263 57.6436 31.2167 57.5839 31.2301 57.5272C31.2435 57.4705 31.2788 57.4215 31.3284 57.3909L31.8756 57.05C31.9091 57.0301 31.9472 57.0194 31.9861 57.0188C32.0251 57.0183 32.0635 57.0279 32.0975 57.0468C32.1315 57.0658 32.16 57.0933 32.1801 57.1266C32.2002 57.16 32.2112 57.1981 32.2119 57.237V59.8483Z" fill="#FAFAFA"/>
<path d="M30.0181 57.332H32.3098" stroke="#191919" stroke-width="0.343756" stroke-linecap="round" stroke-linejoin="round"/>
<path d="M31.1641 58.4792V56.1875" stroke="#191919" stroke-width="0.343756" stroke-linecap="round" stroke-linejoin="round"/>
<path d="M9.0491 4.86728C9.41799 4.86685 9.77164 4.72012 10.0325 4.45927C10.2933 4.19843 10.4401 3.84478 10.4405 3.47589V2.99441C9.52034 3.16774 8.57531 3.16102 7.65771 2.97461V3.47589C7.65815 3.84478 7.80488 4.19843 8.06572 4.45927C8.32656 4.72012 8.68022 4.86685 9.0491 4.86728Z" fill="#FAFAFA"/>
<path d="M14.749 7.6215L13.6081 5.22326C13.3929 4.77433 13.0138 4.42501 12.5487 4.24723L11.678 3.91535C11.3335 3.8135 11.082 3.40876 10.88 3.13281V3.41019C10.8882 3.66603 10.843 3.92078 10.7473 4.15818C10.6516 4.39558 10.5074 4.61042 10.324 4.78898C10.1406 4.96755 9.92201 5.10592 9.68214 5.19527C9.44227 5.28462 9.1864 5.32299 8.93088 5.30792C8.67535 5.29285 8.42577 5.22467 8.19806 5.10775C7.97035 4.99082 7.76952 4.82772 7.60838 4.62883C7.44724 4.42994 7.32932 4.19965 7.26217 3.95265C7.19501 3.70564 7.18008 3.44735 7.21833 3.19425C7.06777 3.48374 6.82152 3.7121 6.52152 3.84045L5.70591 4.13293C5.23778 4.29852 4.85184 4.63876 4.62885 5.08243L3.34931 7.6215C3.33154 7.66 3.32966 7.70395 3.34406 7.74383C3.35846 7.78371 3.38799 7.81632 3.42626 7.83458L5.13054 8.60957C5.16255 8.62418 5.1976 8.63089 5.23274 8.62913C5.26789 8.62738 5.3021 8.61722 5.33249 8.5995C5.36289 8.58178 5.38859 8.55702 5.40744 8.52731C5.42628 8.49759 5.43772 8.46379 5.44078 8.42873L5.50344 7.71437C5.50997 7.65706 5.53863 7.60457 5.58329 7.56808C5.62796 7.53159 5.68511 7.51399 5.74256 7.51902C5.80002 7.52405 5.85324 7.55131 5.89089 7.59501C5.92853 7.6387 5.94763 7.69537 5.9441 7.75294L5.41343 13.7851C5.41322 13.8279 5.42179 13.8703 5.43862 13.9097C5.45545 13.9491 5.48018 13.9847 5.51129 14.0141C5.54239 14.0436 5.57921 14.0663 5.61946 14.081C5.65971 14.0957 5.70254 14.1019 5.74531 14.0994H12.3706C12.4135 14.1019 12.4565 14.0956 12.4969 14.0808C12.5374 14.066 12.5743 14.0431 12.6054 14.0133C12.6365 13.9836 12.6612 13.9479 12.6779 13.9082C12.6946 13.8685 12.703 13.8259 12.7024 13.7828C12.6086 12.7762 12.2199 8.67101 12.1338 7.75417C12.1297 7.69679 12.1482 7.64008 12.1853 7.59618C12.2225 7.55227 12.2754 7.52467 12.3326 7.51928C12.3899 7.51389 12.447 7.53114 12.4917 7.56734C12.5364 7.60353 12.5652 7.6558 12.5718 7.71294L12.6386 8.41996C12.6418 8.4547 12.6534 8.48815 12.6721 8.51756C12.6909 8.54697 12.7164 8.57148 12.7466 8.58908C12.7767 8.60667 12.8106 8.61683 12.8455 8.61873C12.8803 8.62062 12.9151 8.6142 12.947 8.59998L14.6721 7.8303C14.7097 7.81252 14.7389 7.78065 14.7533 7.74155C14.7677 7.70245 14.7662 7.65946 14.749 7.6215ZM8.63136 11.8483C8.62962 11.9054 8.6057 11.9596 8.56469 11.9994C8.52367 12.0392 8.46878 12.0614 8.41164 12.0614C8.3545 12.0614 8.2996 12.0392 8.25859 11.9994C8.21757 11.9596 8.19366 11.9054 8.19192 11.8483V9.63275L7.97863 9.7646C7.92911 9.79389 7.87008 9.80258 7.81422 9.7888C7.75837 9.77502 7.71015 9.73987 7.67994 9.69091C7.64972 9.64196 7.63993 9.5831 7.65265 9.52699C7.66538 9.47089 7.69961 9.42202 7.74799 9.39089L8.2952 9.05003C8.32868 9.03014 8.36679 9.01938 8.40573 9.01882C8.44467 9.01826 8.48307 9.02792 8.51711 9.04684C8.55115 9.06576 8.57963 9.09328 8.59971 9.12664C8.61979 9.16001 8.63078 9.19806 8.63156 9.23699L8.63136 11.8483ZM10.2119 11.8483C10.2119 11.9066 10.1888 11.9625 10.1476 12.0038C10.1063 12.045 10.0504 12.0681 9.99213 12.0681C9.93383 12.0681 9.87791 12.045 9.83669 12.0038C9.79546 11.9625 9.77231 11.9066 9.77231 11.8483V9.63275L9.55922 9.7646C9.50966 9.79522 9.44997 9.80489 9.39328 9.79149C9.3366 9.77809 9.28755 9.74273 9.25694 9.69317C9.22633 9.64361 9.21666 9.58392 9.23005 9.52723C9.24345 9.47054 9.27882 9.4215 9.32838 9.39089L9.87558 9.05003C9.90906 9.03014 9.94718 9.01938 9.98611 9.01882C10.0251 9.01826 10.0635 9.02792 10.0975 9.04684C10.1315 9.06576 10.16 9.09328 10.1801 9.12664C10.2002 9.16001 10.2112 9.19806 10.2119 9.23699V11.8483Z" fill="#FAFAFA"/>
<path d="M8.63136 11.8483C8.62962 11.9054 8.6057 11.9596 8.56469 11.9994C8.52367 12.0392 8.46878 12.0614 8.41164 12.0614C8.3545 12.0614 8.2996 12.0392 8.25859 11.9994C8.21757 11.9596 8.19366 11.9054 8.19192 11.8483V9.63275L7.97863 9.7646C7.92911 9.79389 7.87008 9.80258 7.81422 9.7888C7.75837 9.77502 7.71015 9.73987 7.67994 9.69091C7.64972 9.64196 7.63993 9.5831 7.65265 9.52699C7.66538 9.47089 7.69961 9.42202 7.74799 9.39089L8.2952 9.05003C8.32868 9.03014 8.36679 9.01938 8.40573 9.01882C8.44467 9.01826 8.48307 9.02792 8.51711 9.04684C8.55115 9.06576 8.57963 9.09328 8.59971 9.12664C8.61979 9.16001 8.63078 9.19806 8.63156 9.23699L8.63136 11.8483Z" fill="#FAFAFA"/>
<path d="M10.2119 11.8483C10.2119 11.9066 10.1888 11.9625 10.1476 12.0038C10.1063 12.045 10.0504 12.0681 9.99213 12.0681C9.93383 12.0681 9.87791 12.045 9.83669 12.0038C9.79546 11.9625 9.77231 11.9066 9.77231 11.8483V9.63275L9.55922 9.7646C9.50966 9.79522 9.44997 9.80489 9.39328 9.79149C9.3366 9.77809 9.28755 9.74273 9.25694 9.69317C9.22633 9.64361 9.21666 9.58392 9.23005 9.52723C9.24345 9.47054 9.27882 9.4215 9.32838 9.39089L9.87558 9.05003C9.90906 9.03014 9.94718 9.01938 9.98611 9.01882C10.0251 9.01826 10.0635 9.02792 10.0975 9.04684C10.1315 9.06576 10.16 9.09328 10.1801 9.12664C10.2002 9.16001 10.2112 9.19806 10.2119 9.23699V11.8483Z" fill="#FAFAFA"/>
<path d="M8.01807 9.33203H10.3098" stroke="#191919" stroke-width="0.343756" stroke-linecap="round" stroke-linejoin="round"/>
<path d="M9.16406 10.4792V8.1875" stroke="#191919" stroke-width="0.343756" stroke-linecap="round" stroke-linejoin="round"/>
<path d="M41.1118 29.8673C41.4807 29.8668 41.8344 29.7201 42.0952 29.4593C42.3561 29.1984 42.5028 28.8448 42.5032 28.4759V27.9944C41.5831 28.1677 40.6381 28.161 39.7205 27.9746V28.4759C39.7209 28.8448 39.8676 29.1984 40.1285 29.4593C40.3893 29.7201 40.743 29.8668 41.1118 29.8673Z" fill="#FAFAFA"/>
<path d="M46.8118 32.6215L45.6708 30.2233C45.4556 29.7743 45.0765 29.425 44.6115 29.2472L43.7408 28.9154C43.3963 28.8135 43.1448 28.4088 42.9427 28.1328V28.4102C42.951 28.666 42.9058 28.9208 42.8101 29.1582C42.7143 29.3956 42.5702 29.6104 42.3868 29.789C42.2034 29.9675 41.9848 30.1059 41.7449 30.1953C41.505 30.2846 41.2491 30.323 40.9936 30.3079C40.7381 30.2928 40.4885 30.2247 40.2608 30.1077C40.0331 29.9908 39.8323 29.8277 39.6711 29.6288C39.51 29.4299 39.3921 29.1997 39.3249 28.9526C39.2578 28.7056 39.2428 28.4473 39.2811 28.1942C39.1305 28.4837 38.8843 28.7121 38.5843 28.8404L37.7687 29.1329C37.3005 29.2985 36.9146 29.6388 36.6916 30.0824L35.4121 32.6215C35.3943 32.66 35.3924 32.7039 35.4068 32.7438C35.4212 32.7837 35.4507 32.8163 35.489 32.8346L37.1933 33.6096C37.2253 33.6242 37.2603 33.6309 37.2955 33.6291C37.3306 33.6274 37.3648 33.6172 37.3952 33.5995C37.4256 33.5818 37.4513 33.557 37.4702 33.5273C37.489 33.4976 37.5005 33.4638 37.5035 33.4287L37.5662 32.7144C37.5727 32.6571 37.6014 32.6046 37.646 32.5681C37.6907 32.5316 37.7479 32.514 37.8053 32.519C37.8628 32.524 37.916 32.5513 37.9536 32.595C37.9913 32.6387 38.0104 32.6954 38.0068 32.7529L37.4762 38.7851C37.476 38.8279 37.4845 38.8703 37.5014 38.9097C37.5182 38.9491 37.5429 38.9847 37.574 39.0141C37.6051 39.0436 37.642 39.0663 37.6822 39.081C37.7225 39.0957 37.7653 39.1019 37.8081 39.0994H44.4333C44.4763 39.1019 44.5193 39.0956 44.5597 39.0808C44.6001 39.066 44.637 39.0431 44.6682 39.0133C44.6993 38.9836 44.724 38.9479 44.7407 38.9082C44.7574 38.8685 44.7657 38.8259 44.7652 38.7828C44.6713 37.7762 44.2827 33.671 44.1965 32.7542C44.1924 32.6968 44.2109 32.6401 44.2481 32.5962C44.2852 32.5523 44.3381 32.5247 44.3954 32.5193C44.4527 32.5139 44.5098 32.5311 44.5545 32.5673C44.5992 32.6035 44.6279 32.6558 44.6346 32.7129L44.7013 33.42C44.7046 33.4547 44.7161 33.4882 44.7349 33.5176C44.7537 33.547 44.7792 33.5715 44.8093 33.5891C44.8395 33.6067 44.8734 33.6168 44.9082 33.6187C44.943 33.6206 44.9778 33.6142 45.0097 33.6L46.7348 32.8303C46.7725 32.8125 46.8017 32.7806 46.8161 32.7415C46.8305 32.7024 46.8289 32.6595 46.8118 32.6215ZM40.6941 36.8483C40.6924 36.9054 40.6684 36.9596 40.6274 36.9994C40.5864 37.0392 40.5315 37.0614 40.4744 37.0614C40.4172 37.0614 40.3623 37.0392 40.3213 36.9994C40.2803 36.9596 40.2564 36.9054 40.2547 36.8483V34.6328L40.0414 34.7646C39.9919 34.7939 39.9328 34.8026 39.877 34.7888C39.8211 34.775 39.7729 34.7399 39.7427 34.6909C39.7125 34.642 39.7027 34.5831 39.7154 34.527C39.7281 34.4709 39.7624 34.422 39.8107 34.3909L40.3579 34.05C40.3914 34.0301 40.4295 34.0194 40.4685 34.0188C40.5074 34.0183 40.5458 34.0279 40.5799 34.0468C40.6139 34.0658 40.6424 34.0933 40.6625 34.1266C40.6825 34.16 40.6935 34.1981 40.6943 34.237L40.6941 36.8483ZM42.2747 36.8483C42.2747 36.9066 42.2515 36.9625 42.2103 37.0038C42.1691 37.045 42.1132 37.0681 42.0549 37.0681C41.9966 37.0681 41.9407 37.045 41.8994 37.0038C41.8582 36.9625 41.835 36.9066 41.835 36.8483V34.6328L41.622 34.7646C41.5724 34.7952 41.5127 34.8049 41.456 34.7915C41.3993 34.7781 41.3503 34.7427 41.3197 34.6932C41.2891 34.6436 41.2794 34.5839 41.2928 34.5272C41.3062 34.4705 41.3416 34.4215 41.3911 34.3909L41.9383 34.05C41.9718 34.0301 42.0099 34.0194 42.0489 34.0188C42.0878 34.0183 42.1262 34.0279 42.1602 34.0468C42.1943 34.0658 42.2228 34.0933 42.2428 34.1266C42.2629 34.16 42.2739 34.1981 42.2747 34.237V36.8483Z" fill="#FAFAFA"/>
<path d="M40.6941 36.8483C40.6924 36.9054 40.6684 36.9596 40.6274 36.9994C40.5864 37.0392 40.5315 37.0614 40.4744 37.0614C40.4172 37.0614 40.3623 37.0392 40.3213 36.9994C40.2803 36.9596 40.2564 36.9054 40.2547 36.8483V34.6328L40.0414 34.7646C39.9919 34.7939 39.9328 34.8026 39.877 34.7888C39.8211 34.775 39.7729 34.7399 39.7427 34.6909C39.7125 34.642 39.7027 34.5831 39.7154 34.527C39.7281 34.4709 39.7624 34.422 39.8107 34.3909L40.3579 34.05C40.3914 34.0301 40.4295 34.0194 40.4685 34.0188C40.5074 34.0183 40.5458 34.0279 40.5799 34.0468C40.6139 34.0658 40.6424 34.0933 40.6625 34.1266C40.6825 34.16 40.6935 34.1981 40.6943 34.237L40.6941 36.8483Z" fill="#FAFAFA"/>
<path d="M42.2747 36.8483C42.2747 36.9066 42.2515 36.9625 42.2103 37.0038C42.1691 37.045 42.1132 37.0681 42.0549 37.0681C41.9966 37.0681 41.9407 37.045 41.8994 37.0038C41.8582 36.9625 41.835 36.9066 41.835 36.8483V34.6328L41.622 34.7646C41.5724 34.7952 41.5127 34.8049 41.456 34.7915C41.3993 34.7781 41.3503 34.7427 41.3197 34.6932C41.2891 34.6436 41.2794 34.5839 41.2928 34.5272C41.3062 34.4705 41.3416 34.4215 41.3911 34.3909L41.9383 34.05C41.9718 34.0301 42.0099 34.0194 42.0489 34.0188C42.0878 34.0183 42.1262 34.0279 42.1602 34.0468C42.1943 34.0658 42.2228 34.0933 42.2428 34.1266C42.2629 34.16 42.2739 34.1981 42.2747 34.237V36.8483Z" fill="#FAFAFA"/>
<path d="M40.0808 34.332H42.3725" stroke="#191919" stroke-width="0.343756" stroke-linecap="round" stroke-linejoin="round"/>
<path d="M41.2268 35.4792V33.1875" stroke="#191919" stroke-width="0.343756" stroke-linecap="round" stroke-linejoin="round"/>
<g clip-path="url(#clip0_9669_18637)">
<path d="M25.3704 25.8673C25.7393 25.8668 26.0929 25.7201 26.3538 25.4593C26.6146 25.1984 26.7613 24.8448 26.7618 24.4759V23.9944C25.8416 24.1677 24.8966 24.161 23.979 23.9746V24.4759C23.9794 24.8448 24.1262 25.1984 24.387 25.4593C24.6479 25.7201 25.0015 25.8668 25.3704 25.8673Z" fill="#FAFAFA"/>
<path d="M31.0703 28.6215L29.9293 26.2233C29.7142 25.7743 29.335 25.425 28.87 25.2472L27.9993 24.9154C27.6548 24.8135 27.4033 24.4088 27.2013 24.1328V24.4102C27.2095 24.666 27.1643 24.9208 27.0686 25.1582C26.9729 25.3956 26.8287 25.6104 26.6453 25.789C26.4619 25.9675 26.2433 26.1059 26.0034 26.1953C25.7636 26.2846 25.5077 26.323 25.2522 26.3079C24.9966 26.2928 24.7471 26.2247 24.5193 26.1077C24.2916 25.9908 24.0908 25.8277 23.9297 25.6288C23.7685 25.4299 23.6506 25.1997 23.5835 24.9526C23.5163 24.7056 23.5014 24.4473 23.5396 24.1942C23.3891 24.4837 23.1428 24.7121 22.8428 24.8404L22.0272 25.1329C21.5591 25.2985 21.1731 25.6388 20.9501 26.0824L19.6706 28.6215C19.6528 28.66 19.6509 28.7039 19.6653 28.7438C19.6797 28.7837 19.7093 28.8163 19.7475 28.8346L21.4518 29.6096C21.4838 29.6242 21.5189 29.6309 21.554 29.6291C21.5892 29.6274 21.6234 29.6172 21.6538 29.5995C21.6842 29.5818 21.7099 29.557 21.7287 29.5273C21.7476 29.4976 21.759 29.4638 21.7621 29.4287L21.8247 28.7144C21.8313 28.6571 21.8599 28.6046 21.9046 28.5681C21.9492 28.5316 22.0064 28.514 22.0639 28.519C22.1213 28.524 22.1745 28.5513 22.2122 28.595C22.2498 28.6387 22.2689 28.6954 22.2654 28.7529L21.7347 34.7851C21.7345 34.8279 21.7431 34.8703 21.7599 34.9097C21.7767 34.9491 21.8015 34.9847 21.8326 35.0141C21.8637 35.0436 21.9005 35.0663 21.9407 35.081C21.981 35.0957 22.0238 35.1019 22.0666 35.0994H28.6919C28.7348 35.1019 28.7778 35.0956 28.8182 35.0808C28.8586 35.066 28.8956 35.0431 28.9267 35.0133C28.9578 34.9836 28.9825 34.9479 28.9992 34.9082C29.0159 34.8685 29.0243 34.8259 29.0237 34.7828C28.9298 33.7762 28.5412 29.671 28.4551 28.7542C28.451 28.6968 28.4694 28.6401 28.5066 28.5962C28.5438 28.5523 28.5967 28.5247 28.6539 28.5193C28.7112 28.5139 28.7683 28.5311 28.813 28.5673C28.8577 28.6035 28.8865 28.6558 28.8931 28.7129L28.9598 29.42C28.9631 29.4547 28.9746 29.4882 28.9934 29.5176C29.0122 29.547 29.0377 29.5715 29.0679 29.5891C29.098 29.6067 29.1319 29.6168 29.1667 29.6187C29.2016 29.6206 29.2364 29.6142 29.2682 29.6L30.9933 28.8303C31.031 28.8125 31.0602 28.7806 31.0746 28.7415C31.089 28.7024 31.0875 28.6595 31.0703 28.6215ZM24.9526 32.8483C24.9509 32.9054 24.927 32.9596 24.886 32.9994C24.845 33.0392 24.7901 33.0614 24.7329 33.0614C24.6758 33.0614 24.6209 33.0392 24.5799 32.9994C24.5389 32.9596 24.5149 32.9054 24.5132 32.8483V30.6328L24.2999 30.7646C24.2504 30.7939 24.1914 30.8026 24.1355 30.7888C24.0797 30.775 24.0314 30.7399 24.0012 30.6909C23.971 30.642 23.9612 30.5831 23.9739 30.527C23.9867 30.4709 24.0209 30.422 24.0693 30.3909L24.6165 30.05C24.65 30.0301 24.6881 30.0194 24.727 30.0188C24.766 30.0183 24.8044 30.0279 24.8384 30.0468C24.8724 30.0658 24.9009 30.0933 24.921 30.1266C24.9411 30.16 24.9521 30.1981 24.9528 30.237L24.9526 32.8483ZM26.5332 32.8483C26.5332 32.9066 26.5101 32.9625 26.4689 33.0038C26.4276 33.045 26.3717 33.0681 26.3134 33.0681C26.2551 33.0681 26.1992 33.045 26.158 33.0038C26.1168 32.9625 26.0936 32.9066 26.0936 32.8483V30.6328L25.8805 30.7646C25.831 30.7952 25.7713 30.8049 25.7146 30.7915C25.6579 30.7781 25.6088 30.7427 25.5782 30.6932C25.5476 30.6436 25.5379 30.5839 25.5513 30.5272C25.5647 30.4705 25.6001 30.4215 25.6497 30.3909L26.1969 30.05C26.2304 30.0301 26.2685 30.0194 26.3074 30.0188C26.3463 30.0183 26.3847 30.0279 26.4188 30.0468C26.4528 30.0658 26.4813 30.0933 26.5014 30.1266C26.5215 30.16 26.5325 30.1981 26.5332 30.237V32.8483Z" fill="#FAFAFA"/>
<path d="M24.9526 32.8483C24.9509 32.9054 24.927 32.9596 24.886 32.9994C24.845 33.0392 24.7901 33.0614 24.7329 33.0614C24.6758 33.0614 24.6209 33.0392 24.5799 32.9994C24.5389 32.9596 24.5149 32.9054 24.5132 32.8483V30.6328L24.2999 30.7646C24.2504 30.7939 24.1914 30.8026 24.1355 30.7888C24.0797 30.775 24.0314 30.7399 24.0012 30.6909C23.971 30.642 23.9612 30.5831 23.9739 30.527C23.9867 30.4709 24.0209 30.422 24.0693 30.3909L24.6165 30.05C24.65 30.0301 24.6881 30.0194 24.727 30.0188C24.766 30.0183 24.8044 30.0279 24.8384 30.0468C24.8724 30.0658 24.9009 30.0933 24.921 30.1266C24.9411 30.16 24.9521 30.1981 24.9528 30.237L24.9526 32.8483Z" fill="#FAFAFA"/>
<path d="M26.5332 32.8483C26.5332 32.9066 26.5101 32.9625 26.4689 33.0038C26.4276 33.045 26.3717 33.0681 26.3134 33.0681C26.2551 33.0681 26.1992 33.045 26.158 33.0038C26.1168 32.9625 26.0936 32.9066 26.0936 32.8483V30.6328L25.8805 30.7646C25.831 30.7952 25.7713 30.8049 25.7146 30.7915C25.6579 30.7781 25.6088 30.7427 25.5782 30.6932C25.5476 30.6436 25.5379 30.5839 25.5513 30.5272C25.5647 30.4705 25.6001 30.4215 25.6497 30.3909L26.1969 30.05C26.2304 30.0301 26.2685 30.0194 26.3074 30.0188C26.3463 30.0183 26.3847 30.0279 26.4188 30.0468C26.4528 30.0658 26.4813 30.0933 26.5014 30.1266C26.5215 30.16 26.5325 30.1981 26.5332 30.237V32.8483Z" fill="#FAFAFA"/>
<path d="M24.3394 30.332H26.6311" stroke="#191919" stroke-width="0.343756" stroke-linecap="round" stroke-linejoin="round"/>
<path d="M25.4854 31.4792V29.1875" stroke="#191919" stroke-width="0.343756" stroke-linecap="round" stroke-linejoin="round"/>
</g>
<g clip-path="url(#clip1_9669_18637)">
<path d="M57.3704 25.8673C57.7393 25.8668 58.0929 25.7201 58.3538 25.4593C58.6146 25.1984 58.7613 24.8448 58.7618 24.4759V23.9944C57.8416 24.1677 56.8966 24.161 55.979 23.9746V24.4759C55.9794 24.8448 56.1262 25.1984 56.387 25.4593C56.6479 25.7201 57.0015 25.8668 57.3704 25.8673Z" fill="#FAFAFA"/>
<path d="M63.0703 28.6215L61.9293 26.2233C61.7142 25.7743 61.335 25.425 60.87 25.2472L59.9993 24.9154C59.6548 24.8135 59.4033 24.4088 59.2013 24.1328V24.4102C59.2095 24.666 59.1643 24.9208 59.0686 25.1582C58.9729 25.3956 58.8287 25.6104 58.6453 25.789C58.4619 25.9675 58.2433 26.1059 58.0034 26.1953C57.7636 26.2846 57.5077 26.323 57.2522 26.3079C56.9966 26.2928 56.7471 26.2247 56.5193 26.1077C56.2916 25.9908 56.0908 25.8277 55.9297 25.6288C55.7685 25.4299 55.6506 25.1997 55.5835 24.9526C55.5163 24.7056 55.5014 24.4473 55.5396 24.1942C55.3891 24.4837 55.1428 24.7121 54.8428 24.8404L54.0272 25.1329C53.5591 25.2985 53.1731 25.6388 52.9501 26.0824L51.6706 28.6215C51.6528 28.66 51.6509 28.7039 51.6653 28.7438C51.6797 28.7837 51.7093 28.8163 51.7475 28.8346L53.4518 29.6096C53.4838 29.6242 53.5189 29.6309 53.554 29.6291C53.5892 29.6274 53.6234 29.6172 53.6538 29.5995C53.6842 29.5818 53.7099 29.557 53.7287 29.5273C53.7476 29.4976 53.759 29.4638 53.7621 29.4287L53.8247 28.7144C53.8313 28.6571 53.8599 28.6046 53.9046 28.5681C53.9492 28.5316 54.0064 28.514 54.0639 28.519C54.1213 28.524 54.1745 28.5513 54.2122 28.595C54.2498 28.6387 54.2689 28.6954 54.2654 28.7529L53.7347 34.7851C53.7345 34.8279 53.7431 34.8703 53.7599 34.9097C53.7767 34.9491 53.8015 34.9847 53.8326 35.0141C53.8637 35.0436 53.9005 35.0663 53.9407 35.081C53.981 35.0957 54.0238 35.1019 54.0666 35.0994H60.6919C60.7348 35.1019 60.7778 35.0956 60.8182 35.0808C60.8586 35.066 60.8956 35.0431 60.9267 35.0133C60.9578 34.9836 60.9825 34.9479 60.9992 34.9082C61.0159 34.8685 61.0243 34.8259 61.0237 34.7828C60.9298 33.7762 60.5412 29.671 60.4551 28.7542C60.451 28.6968 60.4694 28.6401 60.5066 28.5962C60.5438 28.5523 60.5967 28.5247 60.6539 28.5193C60.7112 28.5139 60.7683 28.5311 60.813 28.5673C60.8577 28.6035 60.8865 28.6558 60.8931 28.7129L60.9598 29.42C60.9631 29.4547 60.9746 29.4882 60.9934 29.5176C61.0122 29.547 61.0377 29.5715 61.0679 29.5891C61.098 29.6067 61.1319 29.6168 61.1667 29.6187C61.2016 29.6206 61.2364 29.6142 61.2682 29.6L62.9933 28.8303C63.031 28.8125 63.0602 28.7806 63.0746 28.7415C63.089 28.7024 63.0875 28.6595 63.0703 28.6215ZM56.9526 32.8483C56.9509 32.9054 56.927 32.9596 56.886 32.9994C56.845 33.0392 56.7901 33.0614 56.7329 33.0614C56.6758 33.0614 56.6209 33.0392 56.5799 32.9994C56.5389 32.9596 56.5149 32.9054 56.5132 32.8483V30.6328L56.2999 30.7646C56.2504 30.7939 56.1914 30.8026 56.1355 30.7888C56.0797 30.775 56.0314 30.7399 56.0012 30.6909C55.971 30.642 55.9612 30.5831 55.9739 30.527C55.9867 30.4709 56.0209 30.422 56.0693 30.3909L56.6165 30.05C56.65 30.0301 56.6881 30.0194 56.727 30.0188C56.766 30.0183 56.8044 30.0279 56.8384 30.0468C56.8724 30.0658 56.9009 30.0933 56.921 30.1266C56.9411 30.16 56.9521 30.1981 56.9528 30.237L56.9526 32.8483ZM58.5332 32.8483C58.5332 32.9066 58.5101 32.9625 58.4689 33.0038C58.4276 33.045 58.3717 33.0681 58.3134 33.0681C58.2551 33.0681 58.1992 33.045 58.158 33.0038C58.1168 32.9625 58.0936 32.9066 58.0936 32.8483V30.6328L57.8805 30.7646C57.831 30.7952 57.7713 30.8049 57.7146 30.7915C57.6579 30.7781 57.6088 30.7427 57.5782 30.6932C57.5476 30.6436 57.5379 30.5839 57.5513 30.5272C57.5647 30.4705 57.6001 30.4215 57.6497 30.3909L58.1969 30.05C58.2304 30.0301 58.2685 30.0194 58.3074 30.0188C58.3463 30.0183 58.3847 30.0279 58.4188 30.0468C58.4528 30.0658 58.4813 30.0933 58.5014 30.1266C58.5215 30.16 58.5325 30.1981 58.5332 30.237V32.8483Z" fill="#FAFAFA"/>
<path d="M56.9526 32.8483C56.9509 32.9054 56.927 32.9596 56.886 32.9994C56.845 33.0392 56.7901 33.0614 56.7329 33.0614C56.6758 33.0614 56.6209 33.0392 56.5799 32.9994C56.5389 32.9596 56.5149 32.9054 56.5132 32.8483V30.6328L56.2999 30.7646C56.2504 30.7939 56.1914 30.8026 56.1355 30.7888C56.0797 30.775 56.0314 30.7399 56.0012 30.6909C55.971 30.642 55.9612 30.5831 55.9739 30.527C55.9867 30.4709 56.0209 30.422 56.0693 30.3909L56.6165 30.05C56.65 30.0301 56.6881 30.0194 56.727 30.0188C56.766 30.0183 56.8044 30.0279 56.8384 30.0468C56.8724 30.0658 56.9009 30.0933 56.921 30.1266C56.9411 30.16 56.9521 30.1981 56.9528 30.237L56.9526 32.8483Z" fill="#FAFAFA"/>
<path d="M58.5332 32.8483C58.5332 32.9066 58.5101 32.9625 58.4689 33.0038C58.4276 33.045 58.3717 33.0681 58.3134 33.0681C58.2551 33.0681 58.1992 33.045 58.158 33.0038C58.1168 32.9625 58.0936 32.9066 58.0936 32.8483V30.6328L57.8805 30.7646C57.831 30.7952 57.7713 30.8049 57.7146 30.7915C57.6579 30.7781 57.6088 30.7427 57.5782 30.6932C57.5476 30.6436 57.5379 30.5839 57.5513 30.5272C57.5647 30.4705 57.6001 30.4215 57.6497 30.3909L58.1969 30.05C58.2304 30.0301 58.2685 30.0194 58.3074 30.0188C58.3463 30.0183 58.3847 30.0279 58.4188 30.0468C58.4528 30.0658 58.4813 30.0933 58.5014 30.1266C58.5215 30.16 58.5325 30.1981 58.5332 30.237V32.8483Z" fill="#FAFAFA"/>
<path d="M56.3394 30.332H58.6311" stroke="#191919" stroke-width="0.343756" stroke-linecap="round" stroke-linejoin="round"/>
<path d="M57.4854 31.4792V29.1875" stroke="#191919" stroke-width="0.343756" stroke-linecap="round" stroke-linejoin="round"/>
</g>
<g clip-path="url(#clip2_9669_18637)">
<path d="M72.3001 3.86728C72.669 3.86685 73.0226 3.72012 73.2835 3.45927C73.5443 3.19843 73.691 2.84478 73.6915 2.47589V1.99441C72.7713 2.16774 71.8263 2.16102 70.9087 1.97461V2.47589C70.9091 2.84478 71.0559 3.19843 71.3167 3.45927C71.5775 3.72012 71.9312 3.86685 72.3001 3.86728Z" fill="#FAFAFA"/>
<path d="M78 6.6215L76.859 4.22326C76.6439 3.77433 76.2647 3.42501 75.7997 3.24723L74.929 2.91535C74.5845 2.8135 74.333 2.40876 74.131 2.13281V2.41019C74.1392 2.66603 74.094 2.92078 73.9983 3.15818C73.9026 3.39558 73.7584 3.61042 73.575 3.78898C73.3916 3.96755 73.173 4.10592 72.9331 4.19527C72.6932 4.28462 72.4374 4.32299 72.1819 4.30792C71.9263 4.29285 71.6767 4.22467 71.449 4.10775C71.2213 3.99082 71.0205 3.82772 70.8594 3.62883C70.6982 3.42994 70.5803 3.19965 70.5131 2.95265C70.446 2.70564 70.4311 2.44735 70.4693 2.19425C70.3187 2.48374 70.0725 2.7121 69.7725 2.84045L68.9569 3.13293C68.4888 3.29852 68.1028 3.63876 67.8798 4.08243L66.6003 6.6215C66.5825 6.66 66.5806 6.70395 66.595 6.74383C66.6094 6.78371 66.639 6.81632 66.6772 6.83458L68.3815 7.60957C68.4135 7.62418 68.4486 7.63089 68.4837 7.62913C68.5189 7.62738 68.5531 7.61722 68.5835 7.5995C68.6139 7.58178 68.6396 7.55702 68.6584 7.52731C68.6773 7.49759 68.6887 7.46379 68.6918 7.42873L68.7544 6.71437C68.761 6.65706 68.7896 6.60457 68.8343 6.56808C68.8789 6.53159 68.9361 6.51399 68.9935 6.51902C69.051 6.52405 69.1042 6.55131 69.1419 6.59501C69.1795 6.6387 69.1986 6.69537 69.1951 6.75294L68.6644 12.7851C68.6642 12.8279 68.6728 12.8703 68.6896 12.9097C68.7064 12.9491 68.7312 12.9847 68.7623 13.0141C68.7934 13.0436 68.8302 13.0663 68.8704 13.081C68.9107 13.0957 68.9535 13.1019 68.9963 13.0994H75.6215C75.6645 13.1019 75.7075 13.0956 75.7479 13.0808C75.7883 13.066 75.8253 13.0431 75.8564 13.0133C75.8875 12.9836 75.9122 12.9479 75.9289 12.9082C75.9456 12.8685 75.9539 12.8259 75.9534 12.7828C75.8595 11.7762 75.4709 7.67101 75.3848 6.75417C75.3806 6.69679 75.3991 6.64008 75.4363 6.59618C75.4735 6.55227 75.5263 6.52467 75.5836 6.51928C75.6409 6.51389 75.698 6.53114 75.7427 6.56734C75.7874 6.60353 75.8162 6.6558 75.8228 6.71294L75.8895 7.41996C75.8928 7.4547 75.9043 7.48815 75.9231 7.51756C75.9419 7.54697 75.9674 7.57148 75.9976 7.58908C76.0277 7.60667 76.0616 7.61683 76.0964 7.61873C76.1313 7.62062 76.1661 7.6142 76.1979 7.59998L77.923 6.8303C77.9607 6.81252 77.9899 6.78065 78.0043 6.74155C78.0187 6.70245 78.0171 6.65946 78 6.6215ZM71.8823 10.8483C71.8806 10.9054 71.8567 10.9596 71.8157 10.9994C71.7746 11.0392 71.7198 11.0614 71.6626 11.0614C71.6055 11.0614 71.5506 11.0392 71.5096 10.9994C71.4685 10.9596 71.4446 10.9054 71.4429 10.8483V8.63275L71.2296 8.7646C71.1801 8.79389 71.1211 8.80258 71.0652 8.7888C71.0093 8.77502 70.9611 8.73987 70.9309 8.69091C70.9007 8.64196 70.8909 8.5831 70.9036 8.52699C70.9164 8.47089 70.9506 8.42202 70.999 8.39089L71.5462 8.05003C71.5797 8.03014 71.6178 8.01938 71.6567 8.01882C71.6956 8.01826 71.734 8.02792 71.7681 8.04684C71.8021 8.06576 71.8306 8.09328 71.8507 8.12664C71.8708 8.16001 71.8818 8.19806 71.8825 8.23699L71.8823 10.8483ZM73.4629 10.8483C73.4629 10.9066 73.4398 10.9625 73.3985 11.0038C73.3573 11.045 73.3014 11.0681 73.2431 11.0681C73.1848 11.0681 73.1289 11.045 73.0877 11.0038C73.0464 10.9625 73.0233 10.9066 73.0233 10.8483V8.63275L72.8102 8.7646C72.7606 8.79522 72.7009 8.80489 72.6443 8.79149C72.5876 8.77809 72.5385 8.74273 72.5079 8.69317C72.4773 8.64361 72.4676 8.58392 72.481 8.52723C72.4944 8.47054 72.5298 8.4215 72.5794 8.39089L73.1266 8.05003C73.16 8.03014 73.1982 8.01938 73.2371 8.01882C73.276 8.01826 73.3144 8.02792 73.3485 8.04684C73.3825 8.06576 73.411 8.09328 73.4311 8.12664C73.4512 8.16001 73.4621 8.19806 73.4629 8.23699V10.8483Z" fill="#FAFAFA"/>
<path d="M71.8823 10.8483C71.8806 10.9054 71.8567 10.9596 71.8157 10.9994C71.7746 11.0392 71.7198 11.0614 71.6626 11.0614C71.6055 11.0614 71.5506 11.0392 71.5096 10.9994C71.4685 10.9596 71.4446 10.9054 71.4429 10.8483V8.63275L71.2296 8.7646C71.1801 8.79389 71.1211 8.80258 71.0652 8.7888C71.0093 8.77502 70.9611 8.73987 70.9309 8.69091C70.9007 8.64196 70.8909 8.5831 70.9036 8.52699C70.9164 8.47089 70.9506 8.42202 70.999 8.39089L71.5462 8.05003C71.5797 8.03014 71.6178 8.01938 71.6567 8.01882C71.6956 8.01826 71.734 8.02792 71.7681 8.04684C71.8021 8.06576 71.8306 8.09328 71.8507 8.12664C71.8708 8.16001 71.8818 8.19806 71.8825 8.23699L71.8823 10.8483Z" fill="#FAFAFA"/>
<path d="M73.4629 10.8483C73.4629 10.9066 73.4398 10.9625 73.3985 11.0038C73.3573 11.045 73.3014 11.0681 73.2431 11.0681C73.1848 11.0681 73.1289 11.045 73.0877 11.0038C73.0464 10.9625 73.0233 10.9066 73.0233 10.8483V8.63275L72.8102 8.7646C72.7606 8.79522 72.7009 8.80489 72.6443 8.79149C72.5876 8.77809 72.5385 8.74273 72.5079 8.69317C72.4773 8.64361 72.4676 8.58392 72.481 8.52723C72.4944 8.47054 72.5298 8.4215 72.5794 8.39089L73.1266 8.05003C73.16 8.03014 73.1982 8.01938 73.2371 8.01882C73.276 8.01826 73.3144 8.02792 73.3485 8.04684C73.3825 8.06576 73.411 8.09328 73.4311 8.12664C73.4512 8.16001 73.4621 8.19806 73.4629 8.23699V10.8483Z" fill="#FAFAFA"/>
<path d="M71.269 8.33203H73.5608" stroke="#191919" stroke-width="0.343756" stroke-linecap="round" stroke-linejoin="round"/>
<path d="M72.415 9.47921V7.1875" stroke="#191919" stroke-width="0.343756" stroke-linecap="round" stroke-linejoin="round"/>
</g>
<path d="M40.9471 3.99618C41.3159 3.99575 41.6696 3.84902 41.9304 3.58818C42.1913 3.32734 42.338 2.97368 42.3384 2.6048V2.12331C41.4183 2.29665 40.4733 2.28993 39.5557 2.10352V2.6048C39.5561 2.97368 39.7028 3.32734 39.9637 3.58818C40.2245 3.84902 40.5782 3.99575 40.9471 3.99618Z" fill="#FAFAFA"/>
<path d="M46.647 6.7504L45.506 4.35217C45.2908 3.90324 44.9117 3.55392 44.4467 3.37613L43.576 3.04426C43.2315 2.94241 42.98 2.53767 42.7779 2.26172V2.5391C42.7862 2.79494 42.741 3.04969 42.6453 3.28709C42.5495 3.52449 42.4054 3.73932 42.222 3.91789C42.0386 4.09646 41.82 4.23483 41.5801 4.32418C41.3402 4.41353 41.0844 4.45189 40.8288 4.43682C40.5733 4.42175 40.3237 4.35358 40.096 4.23666C39.8683 4.11973 39.6675 3.95662 39.5063 3.75774C39.3452 3.55885 39.2273 3.32856 39.1601 3.08155C39.093 2.83455 39.078 2.57625 39.1163 2.32315C38.9657 2.61265 38.7195 2.84101 38.4195 2.96935L37.6039 3.26184C37.1357 3.42743 36.7498 3.76766 36.5268 4.21133L35.2473 6.7504C35.2295 6.7889 35.2276 6.83286 35.242 6.87274C35.2564 6.91262 35.2859 6.94522 35.3242 6.96349L37.0285 7.73848C37.0605 7.75308 37.0956 7.75979 37.1307 7.75804C37.1658 7.75629 37.2 7.74613 37.2304 7.72841C37.2608 7.71069 37.2865 7.68593 37.3054 7.65621C37.3242 7.6265 37.3357 7.59269 37.3387 7.55764L37.4014 6.84327C37.4079 6.78597 37.4366 6.73348 37.4812 6.69699C37.5259 6.6605 37.5831 6.64289 37.6405 6.64792C37.698 6.65295 37.7512 6.68022 37.7888 6.72392C37.8265 6.76761 37.8456 6.82428 37.8421 6.88185L37.3114 12.914C37.3112 12.9568 37.3197 12.9992 37.3366 13.0386C37.3534 13.078 37.3781 13.1136 37.4092 13.143C37.4403 13.1725 37.4772 13.1952 37.5174 13.2099C37.5577 13.2246 37.6005 13.2308 37.6433 13.2283H44.2685C44.3115 13.2309 44.3545 13.2245 44.3949 13.2097C44.4353 13.1949 44.4722 13.172 44.5034 13.1423C44.5345 13.1126 44.5592 13.0768 44.5759 13.0371C44.5926 12.9974 44.6009 12.9548 44.6004 12.9117C44.5065 11.9051 44.1179 7.79991 44.0318 6.88307C44.0276 6.8257 44.0461 6.76899 44.0833 6.72508C44.1204 6.68118 44.1733 6.65357 44.2306 6.64818C44.2879 6.64279 44.345 6.66004 44.3897 6.69624C44.4344 6.73244 44.4631 6.78471 44.4698 6.84184L44.5365 7.54886C44.5398 7.5836 44.5513 7.61706 44.5701 7.64647C44.5889 7.67588 44.6144 7.70039 44.6445 7.71798C44.6747 7.73557 44.7086 7.74574 44.7434 7.74763C44.7782 7.74953 44.813 7.7431 44.8449 7.72889L46.57 6.9592C46.6077 6.94143 46.6369 6.90955 46.6513 6.87045C46.6657 6.83136 46.6641 6.78837 46.647 6.7504ZM40.5293 10.9772C40.5276 11.0343 40.5037 11.0885 40.4626 11.1283C40.4216 11.1681 40.3667 11.1903 40.3096 11.1903C40.2524 11.1903 40.1976 11.1681 40.1565 11.1283C40.1155 11.0885 40.0916 11.0343 40.0899 10.9772V8.76166L39.8766 8.89351C39.8271 8.9228 39.768 8.93148 39.7122 8.9177C39.6563 8.90392 39.6081 8.86878 39.5779 8.81982C39.5477 8.77086 39.5379 8.712 39.5506 8.6559C39.5633 8.5998 39.5976 8.55092 39.6459 8.51979L40.1931 8.17894C40.2266 8.15905 40.2647 8.14829 40.3037 8.14773C40.3426 8.14717 40.381 8.15683 40.4151 8.17575C40.4491 8.19467 40.4776 8.22218 40.4977 8.25555C40.5177 8.28891 40.5287 8.32696 40.5295 8.3659L40.5293 10.9772ZM42.1099 10.9772C42.1099 11.0355 42.0867 11.0914 42.0455 11.1327C42.0043 11.1739 41.9484 11.197 41.8901 11.197C41.8318 11.197 41.7759 11.1739 41.7346 11.1327C41.6934 11.0914 41.6703 11.0355 41.6703 10.9772V8.76166L41.4572 8.89351C41.4076 8.92412 41.3479 8.93379 41.2912 8.9204C41.2345 8.907 41.1855 8.87163 41.1549 8.82207C41.1243 8.77252 41.1146 8.71283 41.128 8.65614C41.1414 8.59945 41.1768 8.55041 41.2263 8.51979L41.7735 8.17894C41.807 8.15905 41.8451 8.14829 41.8841 8.14773C41.923 8.14717 41.9614 8.15683 41.9954 8.17575C42.0295 8.19467 42.058 8.22218 42.078 8.25555C42.0981 8.28891 42.1091 8.32696 42.1099 8.3659V10.9772Z" fill="#FAFAFA"/>
<path d="M40.5293 10.9772C40.5276 11.0343 40.5037 11.0885 40.4626 11.1283C40.4216 11.1681 40.3667 11.1903 40.3096 11.1903C40.2524 11.1903 40.1976 11.1681 40.1565 11.1283C40.1155 11.0885 40.0916 11.0343 40.0899 10.9772V8.76166L39.8766 8.89351C39.8271 8.9228 39.768 8.93148 39.7122 8.9177C39.6563 8.90392 39.6081 8.86878 39.5779 8.81982C39.5477 8.77086 39.5379 8.712 39.5506 8.6559C39.5633 8.5998 39.5976 8.55092 39.6459 8.51979L40.1931 8.17894C40.2266 8.15905 40.2647 8.14829 40.3037 8.14773C40.3426 8.14717 40.381 8.15683 40.4151 8.17575C40.4491 8.19467 40.4776 8.22218 40.4977 8.25555C40.5177 8.28891 40.5287 8.32696 40.5295 8.3659L40.5293 10.9772Z" fill="#FAFAFA"/>
<path d="M42.1099 10.9772C42.1099 11.0355 42.0867 11.0914 42.0455 11.1327C42.0043 11.1739 41.9484 11.197 41.8901 11.197C41.8318 11.197 41.7759 11.1739 41.7346 11.1327C41.6934 11.0914 41.6703 11.0355 41.6703 10.9772V8.76166L41.4572 8.89351C41.4076 8.92412 41.3479 8.93379 41.2912 8.9204C41.2345 8.907 41.1855 8.87163 41.1549 8.82207C41.1243 8.77252 41.1146 8.71283 41.128 8.65614C41.1414 8.59945 41.1768 8.55041 41.2263 8.51979L41.7735 8.17894C41.807 8.15905 41.8451 8.14829 41.8841 8.14773C41.923 8.14717 41.9614 8.15683 41.9954 8.17575C42.0295 8.19467 42.058 8.22218 42.078 8.25555C42.0981 8.28891 42.1091 8.32696 42.1099 8.3659V10.9772Z" fill="#FAFAFA"/>
<path d="M39.916 8.46094H42.2077" stroke="#191919" stroke-width="0.343756" stroke-linecap="round" stroke-linejoin="round"/>
<path d="M41.062 9.60812V7.31641" stroke="#191919" stroke-width="0.343756" stroke-linecap="round" stroke-linejoin="round"/>
<defs>
<clipPath id="clip0_9669_18637">
<rect width="13.0627" height="13.0627" fill="white" transform="translate(18.8394 23)"/>
</clipPath>
<clipPath id="clip1_9669_18637">
<rect width="13.0627" height="13.0627" fill="white" transform="translate(50.8394 23)"/>
</clipPath>
<clipPath id="clip2_9669_18637">
<rect width="13.0627" height="13.0627" fill="white" transform="translate(65.769 1)"/>
</clipPath>
</defs>
</svg>
