<svg width="81" height="81" viewBox="0 0 81 81" fill="none" xmlns="http://www.w3.org/2000/svg">
<rect x="0.422691" y="0.118492" width="79.9807" height="79.9807" rx="5.88541" fill="#828284" stroke="#FAFAFA" stroke-width="0.229171"/>
<mask id="path-2-inside-1_9669_18389" fill="white">
<path d="M24.1418 66.4609H56.6841V80.2112H24.1418V66.4609Z"/>
</mask>
<path d="M24.1418 66.4609V66.2318H23.9127V66.4609H24.1418ZM56.6841 66.4609H56.9133V66.2318H56.6841V66.4609ZM24.1418 66.6901H56.6841V66.2318H24.1418V66.6901ZM56.455 66.4609V80.2112H56.9133V66.4609H56.455ZM24.371 80.2112V66.4609H23.9127V80.2112H24.371Z" fill="#FAFAFA" mask="url(#path-2-inside-1_9669_18389)"/>
<mask id="path-4-inside-2_9669_18389" fill="white">
<path d="M12.9126 55.0039H67.9136V80.2127H12.9126V55.0039Z"/>
</mask>
<path d="M12.9126 55.0039V54.7747H12.6834V55.0039H12.9126ZM67.9136 55.0039H68.1428V54.7747H67.9136V55.0039ZM12.9126 55.2331H67.9136V54.7747H12.9126V55.2331ZM67.6845 55.0039V80.2127H68.1428V55.0039H67.6845ZM13.1418 80.2127V55.0039H12.6834V80.2127H13.1418Z" fill="#FAFAFA" mask="url(#path-4-inside-2_9669_18389)"/>
<path d="M54.6216 9.53674e-07C54.6216 1.65523 54.2363 3.29426 53.4877 4.8235C52.7391 6.35273 51.6418 7.74223 50.2586 8.91266C48.8754 10.0831 47.2332 11.0115 45.426 11.645C43.6187 12.2784 41.6816 12.6044 39.7255 12.6044C37.7693 12.6044 35.8322 12.2784 34.025 11.645C32.2177 11.0115 30.5755 10.0831 29.1923 8.91266C27.8091 7.74223 26.7118 6.35273 25.9632 4.8235C25.2146 3.29426 24.8293 1.65523 24.8293 0" stroke="#FAFAFA" stroke-width="0.229171"/>
<path d="M30.8853 55.3516C31.4036 54.5174 32.1632 53.7595 33.1208 53.1211C34.0784 52.4827 35.2153 51.9763 36.4665 51.6308C37.7177 51.2853 39.0587 51.1074 40.413 51.1074C41.7673 51.1074 43.1083 51.2853 44.3595 51.6308C45.6107 51.9763 46.7475 52.4827 47.7052 53.1211C48.6628 53.7595 49.4224 54.5174 49.9407 55.3516" stroke="#FAFAFA" stroke-width="0.229171"/>
<path d="M0.537109 76.5479C1.65364 76.4958 3.85757 77.1099 3.74106 79.9825" stroke="#FAFAFA" stroke-width="0.229171"/>
<path d="M80.2886 76.5479C79.172 76.4958 76.9681 77.1099 77.0846 79.9825" stroke="#FAFAFA" stroke-width="0.229171"/>
<path d="M40.5271 69.4356C40.896 69.4352 41.2497 69.2885 41.5105 69.0276C41.7714 68.7668 41.9181 68.4131 41.9185 68.0443V67.5628C40.9984 67.7361 40.0533 67.7294 39.1357 67.543V68.0443C39.1362 68.4131 39.2829 68.7668 39.5437 69.0276C39.8046 69.2885 40.1582 69.4352 40.5271 69.4356Z" fill="#FAFAFA"/>
<path d="M46.227 72.1899L45.0861 69.7916C44.8709 69.3427 44.4918 68.9934 44.0268 68.8156L43.1561 68.4837C42.8115 68.3819 42.5601 67.9771 42.358 67.7012V67.9786C42.3663 68.2344 42.3211 68.4891 42.2253 68.7265C42.1296 68.9639 41.9855 69.1788 41.8021 69.3573C41.6187 69.5359 41.4 69.6743 41.1602 69.7636C40.9203 69.853 40.6644 69.8913 40.4089 69.8763C40.1534 69.8612 39.9038 69.793 39.6761 69.6761C39.4484 69.5592 39.2475 69.3961 39.0864 69.1972C38.9253 68.9983 38.8074 68.768 38.7402 68.521C38.673 68.274 38.6581 68.0157 38.6964 67.7626C38.5458 68.0521 38.2996 68.2805 37.9995 68.4088L37.1839 68.7013C36.7158 68.8669 36.3299 69.2071 36.1069 69.6508L34.8273 72.1899C34.8096 72.2284 34.8077 72.2723 34.8221 72.3122C34.8365 72.3521 34.866 72.3847 34.9043 72.4029L36.6086 73.1779C36.6406 73.1925 36.6756 73.1992 36.7108 73.1975C36.7459 73.1957 36.7801 73.1856 36.8105 73.1679C36.8409 73.1501 36.8666 73.1254 36.8855 73.0957C36.9043 73.066 36.9157 73.0321 36.9188 72.9971L36.9815 72.2827C36.988 72.2254 37.0167 72.1729 37.0613 72.1364C37.106 72.1 37.1631 72.0823 37.2206 72.0874C37.278 72.0924 37.3313 72.1197 37.3689 72.1634C37.4066 72.2071 37.4257 72.2637 37.4221 72.3213L36.8915 78.3534C36.8912 78.3963 36.8998 78.4387 36.9166 78.4781C36.9335 78.5175 36.9582 78.553 36.9893 78.5825C37.0204 78.6119 37.0572 78.6347 37.0975 78.6494C37.1377 78.664 37.1806 78.6703 37.2233 78.6678H43.8486C43.8915 78.6703 43.9346 78.664 43.975 78.6492C44.0154 78.6344 44.0523 78.6114 44.0834 78.5817C44.1146 78.552 44.1393 78.5162 44.156 78.4766C44.1726 78.4369 44.181 78.3942 44.1805 78.3512C44.0866 77.3445 43.698 73.2394 43.6118 72.3225C43.6077 72.2652 43.6262 72.2084 43.6634 72.1645C43.7005 72.1206 43.7534 72.093 43.8107 72.0876C43.8679 72.0822 43.925 72.0995 43.9697 72.1357C44.0145 72.1719 44.0432 72.2242 44.0498 72.2813L44.1166 72.9883C44.1199 73.0231 44.1314 73.0565 44.1502 73.0859C44.169 73.1153 44.1945 73.1398 44.2246 73.1574C44.2547 73.175 44.2886 73.1852 44.3235 73.1871C44.3583 73.189 44.3931 73.1826 44.425 73.1683L46.1501 72.3987C46.1878 72.3809 46.217 72.349 46.2313 72.3099C46.2457 72.2708 46.2442 72.2278 46.227 72.1899ZM40.1094 76.4167C40.1076 76.4738 40.0837 76.528 40.0427 76.5678C40.0017 76.6076 39.9468 76.6298 39.8897 76.6298C39.8325 76.6298 39.7776 76.6076 39.7366 76.5678C39.6956 76.528 39.6717 76.4738 39.6699 76.4167V74.2011L39.4567 74.333C39.4071 74.3623 39.3481 74.3709 39.2923 74.3572C39.2364 74.3434 39.1882 74.3082 39.158 74.2593C39.1277 74.2103 39.118 74.1515 39.1307 74.0954C39.1434 74.0392 39.1776 73.9904 39.226 73.9592L39.7732 73.6184C39.8067 73.5985 39.8448 73.5877 39.8838 73.5872C39.9227 73.5866 39.9611 73.5963 39.9951 73.6152C40.0292 73.6341 40.0577 73.6616 40.0777 73.695C40.0978 73.7284 40.1088 73.7664 40.1096 73.8054L40.1094 76.4167ZM41.69 76.4167C41.69 76.475 41.6668 76.5309 41.6256 76.5721C41.5844 76.6133 41.5285 76.6365 41.4702 76.6365C41.4119 76.6365 41.3559 76.6133 41.3147 76.5721C41.2735 76.5309 41.2503 76.475 41.2503 76.4167V74.2011L41.0372 74.333C40.9877 74.3636 40.928 74.3732 40.8713 74.3598C40.8146 74.3465 40.7656 74.3111 40.735 74.2615C40.7044 74.212 40.6947 74.1523 40.7081 74.0956C40.7215 74.0389 40.7568 73.9899 40.8064 73.9592L41.3536 73.6184C41.3871 73.5985 41.4252 73.5877 41.4641 73.5872C41.5031 73.5866 41.5415 73.5963 41.5755 73.6152C41.6096 73.6341 41.638 73.6616 41.6581 73.695C41.6782 73.7284 41.6892 73.7664 41.69 73.8054V76.4167Z" fill="#FAFAFA"/>
<path d="M40.1094 76.4167C40.1076 76.4738 40.0837 76.528 40.0427 76.5678C40.0017 76.6076 39.9468 76.6298 39.8897 76.6298C39.8325 76.6298 39.7776 76.6076 39.7366 76.5678C39.6956 76.528 39.6717 76.4738 39.6699 76.4167V74.2011L39.4567 74.333C39.4071 74.3623 39.3481 74.3709 39.2923 74.3572C39.2364 74.3434 39.1882 74.3082 39.158 74.2593C39.1277 74.2103 39.118 74.1515 39.1307 74.0954C39.1434 74.0392 39.1776 73.9904 39.226 73.9592L39.7732 73.6184C39.8067 73.5985 39.8448 73.5877 39.8838 73.5872C39.9227 73.5866 39.9611 73.5963 39.9951 73.6152C40.0292 73.6341 40.0577 73.6616 40.0777 73.695C40.0978 73.7284 40.1088 73.7664 40.1096 73.8054L40.1094 76.4167Z" fill="#FAFAFA"/>
<path d="M41.69 76.4167C41.69 76.475 41.6668 76.5309 41.6256 76.5721C41.5844 76.6133 41.5285 76.6365 41.4702 76.6365C41.4119 76.6365 41.3559 76.6133 41.3147 76.5721C41.2735 76.5309 41.2503 76.475 41.2503 76.4167V74.2011L41.0372 74.333C40.9877 74.3636 40.928 74.3732 40.8713 74.3598C40.8146 74.3465 40.7656 74.3111 40.735 74.2615C40.7044 74.212 40.6947 74.1523 40.7081 74.0956C40.7215 74.0389 40.7568 73.9899 40.8064 73.9592L41.3536 73.6184C41.3871 73.5985 41.4252 73.5877 41.4641 73.5872C41.5031 73.5866 41.5415 73.5963 41.5755 73.6152C41.6096 73.6341 41.638 73.6616 41.6581 73.695C41.6782 73.7284 41.6892 73.7664 41.69 73.8054V76.4167Z" fill="#FAFAFA"/>
<path d="M39.4961 73.8965H41.7878" stroke="#191919" stroke-width="0.343756" stroke-linecap="round" stroke-linejoin="round"/>
<path d="M40.6421 75.0437V72.752" stroke="#191919" stroke-width="0.343756" stroke-linecap="round" stroke-linejoin="round"/>
<g clip-path="url(#clip0_9669_18389)">
<path d="M9.54764 48.8673C9.91652 48.8668 10.2702 48.7201 10.531 48.4593C10.7919 48.1984 10.9386 47.8448 10.939 47.4759V46.9944C10.0189 47.1677 9.07384 47.161 8.15625 46.9746V47.4759C8.15668 47.8448 8.30341 48.1984 8.56425 48.4593C8.8251 48.7201 9.17875 48.8668 9.54764 48.8673Z" fill="#FAFAFA"/>
<path d="M15.2475 51.6215L14.1066 49.2233C13.8914 48.7743 13.5123 48.425 13.0473 48.2472L12.1766 47.9154C11.832 47.8135 11.5806 47.4088 11.3785 47.1328V47.4102C11.3868 47.666 11.3416 47.9208 11.2458 48.1582C11.1501 48.3956 11.006 48.6104 10.8226 48.789C10.6392 48.9675 10.4205 49.1059 10.1807 49.1953C9.9408 49.2846 9.68494 49.323 9.42941 49.3079C9.17388 49.2928 8.9243 49.2247 8.69659 49.1077C8.46889 48.9908 8.26805 48.8277 8.10691 48.6288C7.94577 48.4299 7.82786 48.1997 7.7607 47.9526C7.69354 47.7056 7.67862 47.4473 7.71687 47.1942C7.56631 47.4837 7.32006 47.7121 7.02005 47.8404L6.20445 48.1329C5.73632 48.2985 5.35037 48.6388 5.12738 49.0824L3.84785 51.6215C3.83008 51.66 3.82819 51.7039 3.84259 51.7438C3.857 51.7837 3.88653 51.8163 3.9248 51.8346L5.62908 52.6096C5.66109 52.6242 5.69614 52.6309 5.73128 52.6291C5.76642 52.6274 5.80063 52.6172 5.83103 52.5995C5.86143 52.5818 5.88713 52.557 5.90597 52.5273C5.92482 52.4976 5.93625 52.4638 5.93932 52.4287L6.00198 51.7144C6.00851 51.6571 6.03716 51.6046 6.08183 51.5681C6.12649 51.5316 6.18364 51.514 6.2411 51.519C6.29855 51.524 6.35178 51.5513 6.38942 51.595C6.42707 51.6387 6.44616 51.6954 6.44264 51.7529L5.91197 57.7851C5.91175 57.8279 5.92032 57.8703 5.93716 57.9097C5.95399 57.9491 5.97872 57.9847 6.00982 58.0141C6.04093 58.0436 6.07774 58.0663 6.11799 58.081C6.15824 58.0957 6.20108 58.1019 6.24384 58.0994H12.8691C12.9121 58.1019 12.9551 58.0956 12.9955 58.0808C13.0359 58.066 13.0728 58.0431 13.1039 58.0133C13.1351 57.9836 13.1598 57.9479 13.1765 57.9082C13.1932 57.8685 13.2015 57.8259 13.201 57.7828C13.1071 56.7762 12.7185 52.671 12.6323 51.7542C12.6282 51.6968 12.6467 51.6401 12.6839 51.5962C12.721 51.5523 12.7739 51.5247 12.8312 51.5193C12.8884 51.5139 12.9455 51.5311 12.9903 51.5673C13.035 51.6035 13.0637 51.6558 13.0703 51.7129L13.1371 52.42C13.1404 52.4547 13.1519 52.4882 13.1707 52.5176C13.1895 52.547 13.215 52.5715 13.2451 52.5891C13.2753 52.6067 13.3091 52.6168 13.344 52.6187C13.3788 52.6206 13.4136 52.6142 13.4455 52.6L15.1706 51.8303C15.2083 51.8125 15.2375 51.7806 15.2519 51.7415C15.2662 51.7024 15.2647 51.6595 15.2475 51.6215ZM9.12989 55.8483C9.12815 55.9054 9.10424 55.9596 9.06322 55.9994C9.02221 56.0392 8.96731 56.0614 8.91017 56.0614C8.85303 56.0614 8.79814 56.0392 8.75712 55.9994C8.71611 55.9596 8.69219 55.9054 8.69045 55.8483V53.6328L8.47716 53.7646C8.42764 53.7939 8.36861 53.8026 8.31276 53.7888C8.2569 53.775 8.20869 53.7399 8.17847 53.6909C8.14826 53.642 8.13846 53.5831 8.15119 53.527C8.16391 53.4709 8.19814 53.422 8.24652 53.3909L8.79373 53.05C8.82721 53.0301 8.86532 53.0194 8.90426 53.0188C8.9432 53.0183 8.98161 53.0279 9.01564 53.0468C9.04968 53.0658 9.07816 53.0933 9.09825 53.1266C9.11833 53.16 9.12931 53.1981 9.1301 53.237L9.12989 55.8483ZM10.7105 55.8483C10.7105 55.9066 10.6873 55.9625 10.6461 56.0038C10.6049 56.045 10.549 56.0681 10.4907 56.0681C10.4324 56.0681 10.3764 56.045 10.3352 56.0038C10.294 55.9625 10.2708 55.9066 10.2708 55.8483V53.6328L10.0578 53.7646C10.0082 53.7952 9.94851 53.8049 9.89182 53.7915C9.83513 53.7781 9.78609 53.7427 9.75548 53.6932C9.72486 53.6436 9.71519 53.5839 9.72859 53.5272C9.74199 53.4705 9.77735 53.4215 9.82691 53.3909L10.3741 53.05C10.4076 53.0301 10.4457 53.0194 10.4846 53.0188C10.5236 53.0183 10.562 53.0279 10.596 53.0468C10.6301 53.0658 10.6586 53.0933 10.6786 53.1266C10.6987 53.16 10.7097 53.1981 10.7105 53.237V55.8483Z" fill="#FAFAFA"/>
<path d="M9.12989 55.8483C9.12815 55.9054 9.10424 55.9596 9.06322 55.9994C9.02221 56.0392 8.96731 56.0614 8.91017 56.0614C8.85303 56.0614 8.79814 56.0392 8.75712 55.9994C8.71611 55.9596 8.69219 55.9054 8.69045 55.8483V53.6328L8.47716 53.7646C8.42764 53.7939 8.36861 53.8026 8.31276 53.7888C8.2569 53.775 8.20869 53.7399 8.17847 53.6909C8.14826 53.642 8.13846 53.5831 8.15119 53.527C8.16391 53.4709 8.19814 53.422 8.24652 53.3909L8.79373 53.05C8.82721 53.0301 8.86532 53.0194 8.90426 53.0188C8.9432 53.0183 8.98161 53.0279 9.01564 53.0468C9.04968 53.0658 9.07816 53.0933 9.09825 53.1266C9.11833 53.16 9.12931 53.1981 9.1301 53.237L9.12989 55.8483Z" fill="#FAFAFA"/>
<path d="M10.7105 55.8483C10.7105 55.9066 10.6873 55.9625 10.6461 56.0038C10.6049 56.045 10.549 56.0681 10.4907 56.0681C10.4324 56.0681 10.3764 56.045 10.3352 56.0038C10.294 55.9625 10.2708 55.9066 10.2708 55.8483V53.6328L10.0578 53.7646C10.0082 53.7952 9.94851 53.8049 9.89182 53.7915C9.83513 53.7781 9.78609 53.7427 9.75548 53.6932C9.72486 53.6436 9.71519 53.5839 9.72859 53.5272C9.74199 53.4705 9.77735 53.4215 9.82691 53.3909L10.3741 53.05C10.4076 53.0301 10.4457 53.0194 10.4846 53.0188C10.5236 53.0183 10.562 53.0279 10.596 53.0468C10.6301 53.0658 10.6586 53.0933 10.6786 53.1266C10.6987 53.16 10.7097 53.1981 10.7105 53.237V55.8483Z" fill="#FAFAFA"/>
<path d="M8.5166 53.332H10.8083" stroke="#191919" stroke-width="0.343756" stroke-linecap="round" stroke-linejoin="round"/>
<path d="M9.6626 54.4792V52.1875" stroke="#191919" stroke-width="0.343756" stroke-linecap="round" stroke-linejoin="round"/>
</g>
<g clip-path="url(#clip1_9669_18389)">
<path d="M70.6292 48.8673C70.9981 48.8668 71.3517 48.7201 71.6126 48.4593C71.8734 48.1984 72.0201 47.8448 72.0206 47.4759V46.9944C71.1004 47.1677 70.1554 47.161 69.2378 46.9746V47.4759C69.2382 47.8448 69.385 48.1984 69.6458 48.4593C69.9066 48.7201 70.2603 48.8668 70.6292 48.8673Z" fill="#FAFAFA"/>
<path d="M76.3291 51.6215L75.1881 49.2233C74.973 48.7743 74.5938 48.425 74.1288 48.2472L73.2581 47.9154C72.9136 47.8135 72.6621 47.4088 72.4601 47.1328V47.4102C72.4683 47.666 72.4231 47.9208 72.3274 48.1582C72.2317 48.3956 72.0875 48.6104 71.9041 48.789C71.7207 48.9675 71.5021 49.1059 71.2622 49.1953C71.0223 49.2846 70.7665 49.323 70.511 49.3079C70.2554 49.2928 70.0058 49.2247 69.7781 49.1077C69.5504 48.9908 69.3496 48.8277 69.1885 48.6288C69.0273 48.4299 68.9094 48.1997 68.8422 47.9526C68.7751 47.7056 68.7602 47.4473 68.7984 47.1942C68.6478 47.4837 68.4016 47.7121 68.1016 47.8404L67.286 48.1329C66.8179 48.2985 66.4319 48.6388 66.2089 49.0824L64.9294 51.6215C64.9116 51.66 64.9097 51.7039 64.9241 51.7438C64.9385 51.7837 64.9681 51.8163 65.0063 51.8346L66.7106 52.6096C66.7426 52.6242 66.7777 52.6309 66.8128 52.6291C66.848 52.6274 66.8822 52.6172 66.9126 52.5995C66.943 52.5818 66.9687 52.557 66.9875 52.5273C67.0064 52.4976 67.0178 52.4638 67.0209 52.4287L67.0835 51.7144C67.0901 51.6571 67.1187 51.6046 67.1634 51.5681C67.208 51.5316 67.2652 51.514 67.3226 51.519C67.3801 51.524 67.4333 51.5513 67.471 51.595C67.5086 51.6387 67.5277 51.6954 67.5242 51.7529L66.9935 57.7851C66.9933 57.8279 67.0019 57.8703 67.0187 57.9097C67.0355 57.9491 67.0603 57.9847 67.0914 58.0141C67.1225 58.0436 67.1593 58.0663 67.1995 58.081C67.2398 58.0957 67.2826 58.1019 67.3254 58.0994H73.9506C73.9936 58.1019 74.0366 58.0956 74.077 58.0808C74.1174 58.066 74.1544 58.0431 74.1855 58.0133C74.2166 57.9836 74.2413 57.9479 74.258 57.9082C74.2747 57.8685 74.283 57.8259 74.2825 57.7828C74.1886 56.7762 73.8 52.671 73.7139 51.7542C73.7097 51.6968 73.7282 51.6401 73.7654 51.5962C73.8026 51.5523 73.8554 51.5247 73.9127 51.5193C73.97 51.5139 74.0271 51.5311 74.0718 51.5673C74.1165 51.6035 74.1453 51.6558 74.1519 51.7129L74.2186 52.42C74.2219 52.4547 74.2334 52.4882 74.2522 52.5176C74.271 52.547 74.2965 52.5715 74.3267 52.5891C74.3568 52.6067 74.3907 52.6168 74.4255 52.6187C74.4604 52.6206 74.4952 52.6142 74.527 52.6L76.2521 51.8303C76.2898 51.8125 76.319 51.7806 76.3334 51.7415C76.3478 51.7024 76.3462 51.6595 76.3291 51.6215ZM70.2114 55.8483C70.2097 55.9054 70.1858 55.9596 70.1448 55.9994C70.1038 56.0392 70.0489 56.0614 69.9917 56.0614C69.9346 56.0614 69.8797 56.0392 69.8387 55.9994C69.7976 55.9596 69.7737 55.9054 69.772 55.8483V53.6328L69.5587 53.7646C69.5092 53.7939 69.4502 53.8026 69.3943 53.7888C69.3384 53.775 69.2902 53.7399 69.26 53.6909C69.2298 53.642 69.22 53.5831 69.2327 53.527C69.2455 53.4709 69.2797 53.422 69.3281 53.3909L69.8753 53.05C69.9088 53.0301 69.9469 53.0194 69.9858 53.0188C70.0247 53.0183 70.0631 53.0279 70.0972 53.0468C70.1312 53.0658 70.1597 53.0933 70.1798 53.1266C70.1999 53.16 70.2109 53.1981 70.2116 53.237L70.2114 55.8483ZM71.792 55.8483C71.792 55.9066 71.7689 55.9625 71.7276 56.0038C71.6864 56.045 71.6305 56.0681 71.5722 56.0681C71.5139 56.0681 71.458 56.045 71.4168 56.0038C71.3755 55.9625 71.3524 55.9066 71.3524 55.8483V53.6328L71.1393 53.7646C71.0897 53.7952 71.0301 53.8049 70.9734 53.7915C70.9167 53.7781 70.8676 53.7427 70.837 53.6932C70.8064 53.6436 70.7967 53.5839 70.8101 53.5272C70.8235 53.4705 70.8589 53.4215 70.9085 53.3909L71.4557 53.05C71.4891 53.0301 71.5273 53.0194 71.5662 53.0188C71.6051 53.0183 71.6435 53.0279 71.6776 53.0468C71.7116 53.0658 71.7401 53.0933 71.7602 53.1266C71.7803 53.16 71.7912 53.1981 71.792 53.237V55.8483Z" fill="#FAFAFA"/>
<path d="M70.2114 55.8483C70.2097 55.9054 70.1858 55.9596 70.1448 55.9994C70.1038 56.0392 70.0489 56.0614 69.9917 56.0614C69.9346 56.0614 69.8797 56.0392 69.8387 55.9994C69.7976 55.9596 69.7737 55.9054 69.772 55.8483V53.6328L69.5587 53.7646C69.5092 53.7939 69.4502 53.8026 69.3943 53.7888C69.3384 53.775 69.2902 53.7399 69.26 53.6909C69.2298 53.642 69.22 53.5831 69.2327 53.527C69.2455 53.4709 69.2797 53.422 69.3281 53.3909L69.8753 53.05C69.9088 53.0301 69.9469 53.0194 69.9858 53.0188C70.0247 53.0183 70.0631 53.0279 70.0972 53.0468C70.1312 53.0658 70.1597 53.0933 70.1798 53.1266C70.1999 53.16 70.2109 53.1981 70.2116 53.237L70.2114 55.8483Z" fill="#FAFAFA"/>
<path d="M71.792 55.8483C71.792 55.9066 71.7689 55.9625 71.7276 56.0038C71.6864 56.045 71.6305 56.0681 71.5722 56.0681C71.5139 56.0681 71.458 56.045 71.4168 56.0038C71.3755 55.9625 71.3524 55.9066 71.3524 55.8483V53.6328L71.1393 53.7646C71.0897 53.7952 71.0301 53.8049 70.9734 53.7915C70.9167 53.7781 70.8676 53.7427 70.837 53.6932C70.8064 53.6436 70.7967 53.5839 70.8101 53.5272C70.8235 53.4705 70.8589 53.4215 70.9085 53.3909L71.4557 53.05C71.4891 53.0301 71.5273 53.0194 71.5662 53.0188C71.6051 53.0183 71.6435 53.0279 71.6776 53.0468C71.7116 53.0658 71.7401 53.0933 71.7602 53.1266C71.7803 53.16 71.7912 53.1981 71.792 53.237V55.8483Z" fill="#FAFAFA"/>
<path d="M69.5981 53.332H71.8899" stroke="#191919" stroke-width="0.343756" stroke-linecap="round" stroke-linejoin="round"/>
<path d="M70.7441 54.4792V52.1875" stroke="#191919" stroke-width="0.343756" stroke-linecap="round" stroke-linejoin="round"/>
</g>
<g clip-path="url(#clip2_9669_18389)">
<path d="M50.6292 52.8673C50.9981 52.8668 51.3517 52.7201 51.6126 52.4593C51.8734 52.1984 52.0201 51.8448 52.0206 51.4759V50.9944C51.1004 51.1677 50.1554 51.161 49.2378 50.9746V51.4759C49.2382 51.8448 49.385 52.1984 49.6458 52.4593C49.9066 52.7201 50.2603 52.8668 50.6292 52.8673Z" fill="#FAFAFA"/>
<path d="M56.3291 55.6215L55.1881 53.2233C54.973 52.7743 54.5938 52.425 54.1288 52.2472L53.2581 51.9154C52.9136 51.8135 52.6621 51.4088 52.4601 51.1328V51.4102C52.4683 51.666 52.4231 51.9208 52.3274 52.1582C52.2317 52.3956 52.0875 52.6104 51.9041 52.789C51.7207 52.9675 51.5021 53.1059 51.2622 53.1953C51.0223 53.2846 50.7665 53.323 50.511 53.3079C50.2554 53.2928 50.0058 53.2247 49.7781 53.1077C49.5504 52.9908 49.3496 52.8277 49.1885 52.6288C49.0273 52.4299 48.9094 52.1997 48.8422 51.9526C48.7751 51.7056 48.7602 51.4473 48.7984 51.1942C48.6478 51.4837 48.4016 51.7121 48.1016 51.8404L47.286 52.1329C46.8179 52.2985 46.4319 52.6388 46.2089 53.0824L44.9294 55.6215C44.9116 55.66 44.9097 55.7039 44.9241 55.7438C44.9385 55.7837 44.9681 55.8163 45.0063 55.8346L46.7106 56.6096C46.7426 56.6242 46.7777 56.6309 46.8128 56.6291C46.848 56.6274 46.8822 56.6172 46.9126 56.5995C46.943 56.5818 46.9687 56.557 46.9875 56.5273C47.0064 56.4976 47.0178 56.4638 47.0209 56.4287L47.0835 55.7144C47.0901 55.6571 47.1187 55.6046 47.1634 55.5681C47.208 55.5316 47.2652 55.514 47.3226 55.519C47.3801 55.524 47.4333 55.5513 47.471 55.595C47.5086 55.6387 47.5277 55.6954 47.5242 55.7529L46.9935 61.7851C46.9933 61.8279 47.0019 61.8703 47.0187 61.9097C47.0355 61.9491 47.0603 61.9847 47.0914 62.0141C47.1225 62.0436 47.1593 62.0663 47.1995 62.081C47.2398 62.0957 47.2826 62.1019 47.3254 62.0994H53.9506C53.9936 62.1019 54.0366 62.0956 54.077 62.0808C54.1174 62.066 54.1544 62.0431 54.1855 62.0133C54.2166 61.9836 54.2413 61.9479 54.258 61.9082C54.2747 61.8685 54.283 61.8259 54.2825 61.7828C54.1886 60.7762 53.8 56.671 53.7139 55.7542C53.7097 55.6968 53.7282 55.6401 53.7654 55.5962C53.8026 55.5523 53.8554 55.5247 53.9127 55.5193C53.97 55.5139 54.0271 55.5311 54.0718 55.5673C54.1165 55.6035 54.1453 55.6558 54.1519 55.7129L54.2186 56.42C54.2219 56.4547 54.2334 56.4882 54.2522 56.5176C54.271 56.547 54.2965 56.5715 54.3267 56.5891C54.3568 56.6067 54.3907 56.6168 54.4255 56.6187C54.4604 56.6206 54.4952 56.6142 54.527 56.6L56.2521 55.8303C56.2898 55.8125 56.319 55.7806 56.3334 55.7415C56.3478 55.7024 56.3462 55.6595 56.3291 55.6215ZM50.2114 59.8483C50.2097 59.9054 50.1858 59.9596 50.1448 59.9994C50.1038 60.0392 50.0489 60.0614 49.9917 60.0614C49.9346 60.0614 49.8797 60.0392 49.8387 59.9994C49.7976 59.9596 49.7737 59.9054 49.772 59.8483V57.6328L49.5587 57.7646C49.5092 57.7939 49.4502 57.8026 49.3943 57.7888C49.3384 57.775 49.2902 57.7399 49.26 57.6909C49.2298 57.642 49.22 57.5831 49.2327 57.527C49.2455 57.4709 49.2797 57.422 49.3281 57.3909L49.8753 57.05C49.9088 57.0301 49.9469 57.0194 49.9858 57.0188C50.0247 57.0183 50.0631 57.0279 50.0972 57.0468C50.1312 57.0658 50.1597 57.0933 50.1798 57.1266C50.1999 57.16 50.2109 57.1981 50.2116 57.237L50.2114 59.8483ZM51.792 59.8483C51.792 59.9066 51.7689 59.9625 51.7276 60.0038C51.6864 60.045 51.6305 60.0681 51.5722 60.0681C51.5139 60.0681 51.458 60.045 51.4168 60.0038C51.3755 59.9625 51.3524 59.9066 51.3524 59.8483V57.6328L51.1393 57.7646C51.0897 57.7952 51.0301 57.8049 50.9734 57.7915C50.9167 57.7781 50.8676 57.7427 50.837 57.6932C50.8064 57.6436 50.7967 57.5839 50.8101 57.5272C50.8235 57.4705 50.8589 57.4215 50.9085 57.3909L51.4557 57.05C51.4891 57.0301 51.5273 57.0194 51.5662 57.0188C51.6051 57.0183 51.6435 57.0279 51.6776 57.0468C51.7116 57.0658 51.7401 57.0933 51.7602 57.1266C51.7803 57.16 51.7912 57.1981 51.792 57.237V59.8483Z" fill="#FAFAFA"/>
<path d="M50.2114 59.8483C50.2097 59.9054 50.1858 59.9596 50.1448 59.9994C50.1038 60.0392 50.0489 60.0614 49.9917 60.0614C49.9346 60.0614 49.8797 60.0392 49.8387 59.9994C49.7976 59.9596 49.7737 59.9054 49.772 59.8483V57.6328L49.5587 57.7646C49.5092 57.7939 49.4502 57.8026 49.3943 57.7888C49.3384 57.775 49.2902 57.7399 49.26 57.6909C49.2298 57.642 49.22 57.5831 49.2327 57.527C49.2455 57.4709 49.2797 57.422 49.3281 57.3909L49.8753 57.05C49.9088 57.0301 49.9469 57.0194 49.9858 57.0188C50.0247 57.0183 50.0631 57.0279 50.0972 57.0468C50.1312 57.0658 50.1597 57.0933 50.1798 57.1266C50.1999 57.16 50.2109 57.1981 50.2116 57.237L50.2114 59.8483Z" fill="#FAFAFA"/>
<path d="M51.792 59.8483C51.792 59.9066 51.7689 59.9625 51.7276 60.0038C51.6864 60.045 51.6305 60.0681 51.5722 60.0681C51.5139 60.0681 51.458 60.045 51.4168 60.0038C51.3755 59.9625 51.3524 59.9066 51.3524 59.8483V57.6328L51.1393 57.7646C51.0897 57.7952 51.0301 57.8049 50.9734 57.7915C50.9167 57.7781 50.8676 57.7427 50.837 57.6932C50.8064 57.6436 50.7967 57.5839 50.8101 57.5272C50.8235 57.4705 50.8589 57.4215 50.9085 57.3909L51.4557 57.05C51.4891 57.0301 51.5273 57.0194 51.5662 57.0188C51.6051 57.0183 51.6435 57.0279 51.6776 57.0468C51.7116 57.0658 51.7401 57.0933 51.7602 57.1266C51.7803 57.16 51.7912 57.1981 51.792 57.237V59.8483Z" fill="#FAFAFA"/>
<path d="M49.5981 57.332H51.8899" stroke="#191919" stroke-width="0.343756" stroke-linecap="round" stroke-linejoin="round"/>
<path d="M50.7441 58.4792V56.1875" stroke="#191919" stroke-width="0.343756" stroke-linecap="round" stroke-linejoin="round"/>
</g>
<g clip-path="url(#clip3_9669_18389)">
<path d="M30.6292 52.8673C30.9981 52.8668 31.3517 52.7201 31.6126 52.4593C31.8734 52.1984 32.0201 51.8448 32.0206 51.4759V50.9944C31.1004 51.1677 30.1554 51.161 29.2378 50.9746V51.4759C29.2382 51.8448 29.385 52.1984 29.6458 52.4593C29.9066 52.7201 30.2603 52.8668 30.6292 52.8673Z" fill="#FAFAFA"/>
<path d="M36.3291 55.6215L35.1881 53.2233C34.973 52.7743 34.5938 52.425 34.1288 52.2472L33.2581 51.9154C32.9136 51.8135 32.6621 51.4088 32.4601 51.1328V51.4102C32.4683 51.666 32.4231 51.9208 32.3274 52.1582C32.2317 52.3956 32.0875 52.6104 31.9041 52.789C31.7207 52.9675 31.5021 53.1059 31.2622 53.1953C31.0223 53.2846 30.7665 53.323 30.511 53.3079C30.2554 53.2928 30.0058 53.2247 29.7781 53.1077C29.5504 52.9908 29.3496 52.8277 29.1885 52.6288C29.0273 52.4299 28.9094 52.1997 28.8422 51.9526C28.7751 51.7056 28.7602 51.4473 28.7984 51.1942C28.6478 51.4837 28.4016 51.7121 28.1016 51.8404L27.286 52.1329C26.8179 52.2985 26.4319 52.6388 26.2089 53.0824L24.9294 55.6215C24.9116 55.66 24.9097 55.7039 24.9241 55.7438C24.9385 55.7837 24.9681 55.8163 25.0063 55.8346L26.7106 56.6096C26.7426 56.6242 26.7777 56.6309 26.8128 56.6291C26.848 56.6274 26.8822 56.6172 26.9126 56.5995C26.943 56.5818 26.9687 56.557 26.9875 56.5273C27.0064 56.4976 27.0178 56.4638 27.0209 56.4287L27.0835 55.7144C27.0901 55.6571 27.1187 55.6046 27.1634 55.5681C27.208 55.5316 27.2652 55.514 27.3226 55.519C27.3801 55.524 27.4333 55.5513 27.471 55.595C27.5086 55.6387 27.5277 55.6954 27.5242 55.7529L26.9935 61.7851C26.9933 61.8279 27.0019 61.8703 27.0187 61.9097C27.0355 61.9491 27.0603 61.9847 27.0914 62.0141C27.1225 62.0436 27.1593 62.0663 27.1995 62.081C27.2398 62.0957 27.2826 62.1019 27.3254 62.0994H33.9506C33.9936 62.1019 34.0366 62.0956 34.077 62.0808C34.1174 62.066 34.1544 62.0431 34.1855 62.0133C34.2166 61.9836 34.2413 61.9479 34.258 61.9082C34.2747 61.8685 34.283 61.8259 34.2825 61.7828C34.1886 60.7762 33.8 56.671 33.7139 55.7542C33.7097 55.6968 33.7282 55.6401 33.7654 55.5962C33.8026 55.5523 33.8554 55.5247 33.9127 55.5193C33.97 55.5139 34.0271 55.5311 34.0718 55.5673C34.1165 55.6035 34.1453 55.6558 34.1519 55.7129L34.2186 56.42C34.2219 56.4547 34.2334 56.4882 34.2522 56.5176C34.271 56.547 34.2965 56.5715 34.3267 56.5891C34.3568 56.6067 34.3907 56.6168 34.4255 56.6187C34.4604 56.6206 34.4952 56.6142 34.527 56.6L36.2521 55.8303C36.2898 55.8125 36.319 55.7806 36.3334 55.7415C36.3478 55.7024 36.3462 55.6595 36.3291 55.6215ZM30.2114 59.8483C30.2097 59.9054 30.1858 59.9596 30.1448 59.9994C30.1038 60.0392 30.0489 60.0614 29.9917 60.0614C29.9346 60.0614 29.8797 60.0392 29.8387 59.9994C29.7976 59.9596 29.7737 59.9054 29.772 59.8483V57.6328L29.5587 57.7646C29.5092 57.7939 29.4502 57.8026 29.3943 57.7888C29.3384 57.775 29.2902 57.7399 29.26 57.6909C29.2298 57.642 29.22 57.5831 29.2327 57.527C29.2455 57.4709 29.2797 57.422 29.3281 57.3909L29.8753 57.05C29.9088 57.0301 29.9469 57.0194 29.9858 57.0188C30.0247 57.0183 30.0631 57.0279 30.0972 57.0468C30.1312 57.0658 30.1597 57.0933 30.1798 57.1266C30.1999 57.16 30.2109 57.1981 30.2116 57.237L30.2114 59.8483ZM31.792 59.8483C31.792 59.9066 31.7689 59.9625 31.7276 60.0038C31.6864 60.045 31.6305 60.0681 31.5722 60.0681C31.5139 60.0681 31.458 60.045 31.4168 60.0038C31.3755 59.9625 31.3524 59.9066 31.3524 59.8483V57.6328L31.1393 57.7646C31.0897 57.7952 31.0301 57.8049 30.9734 57.7915C30.9167 57.7781 30.8676 57.7427 30.837 57.6932C30.8064 57.6436 30.7967 57.5839 30.8101 57.5272C30.8235 57.4705 30.8589 57.4215 30.9085 57.3909L31.4557 57.05C31.4891 57.0301 31.5273 57.0194 31.5662 57.0188C31.6051 57.0183 31.6435 57.0279 31.6776 57.0468C31.7116 57.0658 31.7401 57.0933 31.7602 57.1266C31.7803 57.16 31.7912 57.1981 31.792 57.237V59.8483Z" fill="#FAFAFA"/>
<path d="M30.2114 59.8483C30.2097 59.9054 30.1858 59.9596 30.1448 59.9994C30.1038 60.0392 30.0489 60.0614 29.9917 60.0614C29.9346 60.0614 29.8797 60.0392 29.8387 59.9994C29.7976 59.9596 29.7737 59.9054 29.772 59.8483V57.6328L29.5587 57.7646C29.5092 57.7939 29.4502 57.8026 29.3943 57.7888C29.3384 57.775 29.2902 57.7399 29.26 57.6909C29.2298 57.642 29.22 57.5831 29.2327 57.527C29.2455 57.4709 29.2797 57.422 29.3281 57.3909L29.8753 57.05C29.9088 57.0301 29.9469 57.0194 29.9858 57.0188C30.0247 57.0183 30.0631 57.0279 30.0972 57.0468C30.1312 57.0658 30.1597 57.0933 30.1798 57.1266C30.1999 57.16 30.2109 57.1981 30.2116 57.237L30.2114 59.8483Z" fill="#FAFAFA"/>
<path d="M31.792 59.8483C31.792 59.9066 31.7689 59.9625 31.7276 60.0038C31.6864 60.045 31.6305 60.0681 31.5722 60.0681C31.5139 60.0681 31.458 60.045 31.4168 60.0038C31.3755 59.9625 31.3524 59.9066 31.3524 59.8483V57.6328L31.1393 57.7646C31.0897 57.7952 31.0301 57.8049 30.9734 57.7915C30.9167 57.7781 30.8676 57.7427 30.837 57.6932C30.8064 57.6436 30.7967 57.5839 30.8101 57.5272C30.8235 57.4705 30.8589 57.4215 30.9085 57.3909L31.4557 57.05C31.4891 57.0301 31.5273 57.0194 31.5662 57.0188C31.6051 57.0183 31.6435 57.0279 31.6776 57.0468C31.7116 57.0658 31.7401 57.0933 31.7602 57.1266C31.7803 57.16 31.7912 57.1981 31.792 57.237V59.8483Z" fill="#FAFAFA"/>
<path d="M29.5981 57.332H31.8899" stroke="#191919" stroke-width="0.343756" stroke-linecap="round" stroke-linejoin="round"/>
<path d="M30.7441 58.4792V56.1875" stroke="#191919" stroke-width="0.343756" stroke-linecap="round" stroke-linejoin="round"/>
</g>
<g clip-path="url(#clip4_9669_18389)">
<path d="M8.62918 4.86728C8.99807 4.86685 9.35172 4.72012 9.61256 4.45927C9.8734 4.19843 10.0201 3.84478 10.0206 3.47589V2.99441C9.10042 3.16774 8.15538 3.16102 7.23779 2.97461V3.47589C7.23823 3.84478 7.38496 4.19843 7.6458 4.45927C7.90664 4.72012 8.26029 4.86685 8.62918 4.86728Z" fill="#FAFAFA"/>
<path d="M14.3291 7.6215L13.1881 5.22326C12.973 4.77433 12.5938 4.42501 12.1288 4.24723L11.2581 3.91535C10.9136 3.8135 10.6621 3.40876 10.4601 3.13281V3.41019C10.4683 3.66603 10.4231 3.92078 10.3274 4.15818C10.2317 4.39558 10.0875 4.61042 9.9041 4.78898C9.7207 4.96755 9.50209 5.10592 9.26222 5.19527C9.02235 5.28462 8.76648 5.32299 8.51095 5.30792C8.25542 5.29285 8.00584 5.22467 7.77814 5.10775C7.55043 4.99082 7.3496 4.82772 7.18846 4.62883C7.02731 4.42994 6.9094 4.19965 6.84225 3.95265C6.77509 3.70564 6.76016 3.44735 6.79841 3.19425C6.64785 3.48374 6.4016 3.7121 6.1016 3.84045L5.28599 4.13293C4.81786 4.29852 4.43192 4.63876 4.20893 5.08243L2.92939 7.6215C2.91162 7.66 2.90973 7.70395 2.92414 7.74383C2.93854 7.78371 2.96807 7.81632 3.00634 7.83458L4.71062 8.60957C4.74263 8.62418 4.77768 8.63089 4.81282 8.62913C4.84797 8.62738 4.88217 8.61722 4.91257 8.5995C4.94297 8.58178 4.96867 8.55702 4.98752 8.52731C5.00636 8.49759 5.01779 8.46379 5.02086 8.42873L5.08352 7.71437C5.09005 7.65706 5.1187 7.60457 5.16337 7.56808C5.20803 7.53159 5.26518 7.51399 5.32264 7.51902C5.3801 7.52405 5.43332 7.55131 5.47096 7.59501C5.50861 7.6387 5.52771 7.69537 5.52418 7.75294L4.99351 13.7851C4.99329 13.8279 5.00187 13.8703 5.0187 13.9097C5.03553 13.9491 5.06026 13.9847 5.09137 14.0141C5.12247 14.0436 5.15929 14.0663 5.19954 14.081C5.23979 14.0957 5.28262 14.1019 5.32538 14.0994H11.9506C11.9936 14.1019 12.0366 14.0956 12.077 14.0808C12.1174 14.066 12.1544 14.0431 12.1855 14.0133C12.2166 13.9836 12.2413 13.9479 12.258 13.9082C12.2747 13.8685 12.283 13.8259 12.2825 13.7828C12.1886 12.7762 11.8 8.67101 11.7139 7.75417C11.7097 7.69679 11.7282 7.64008 11.7654 7.59618C11.8026 7.55227 11.8554 7.52467 11.9127 7.51928C11.97 7.51389 12.0271 7.53114 12.0718 7.56734C12.1165 7.60353 12.1453 7.6558 12.1519 7.71294L12.2186 8.41996C12.2219 8.4547 12.2334 8.48815 12.2522 8.51756C12.271 8.54697 12.2965 8.57148 12.3267 8.58908C12.3568 8.60667 12.3907 8.61683 12.4255 8.61873C12.4604 8.62062 12.4952 8.6142 12.527 8.59998L14.2521 7.8303C14.2898 7.81252 14.319 7.78065 14.3334 7.74155C14.3478 7.70245 14.3462 7.65946 14.3291 7.6215ZM8.21143 11.8483C8.20969 11.9054 8.18578 11.9596 8.14477 11.9994C8.10375 12.0392 8.04886 12.0614 7.99171 12.0614C7.93457 12.0614 7.87968 12.0392 7.83866 11.9994C7.79765 11.9596 7.77374 11.9054 7.772 11.8483V9.63275L7.55871 9.7646C7.50919 9.79389 7.45016 9.80258 7.3943 9.7888C7.33845 9.77502 7.29023 9.73987 7.26001 9.69091C7.2298 9.64196 7.22 9.5831 7.23273 9.52699C7.24545 9.47089 7.27969 9.42202 7.32807 9.39089L7.87527 9.05003C7.90875 9.03014 7.94687 9.01938 7.9858 9.01882C8.02474 9.01826 8.06315 9.02792 8.09719 9.04684C8.13123 9.06576 8.15971 9.09328 8.17979 9.12664C8.19987 9.16001 8.21086 9.19806 8.21164 9.23699L8.21143 11.8483ZM9.79203 11.8483C9.79203 11.9066 9.76887 11.9625 9.72764 12.0038C9.68642 12.045 9.6305 12.0681 9.5722 12.0681C9.5139 12.0681 9.45799 12.045 9.41677 12.0038C9.37554 11.9625 9.35238 11.9066 9.35238 11.8483V9.63275L9.1393 9.7646C9.08974 9.79522 9.03005 9.80489 8.97336 9.79149C8.91667 9.77809 8.86763 9.74273 8.83702 9.69317C8.80641 9.64361 8.79674 9.58392 8.81013 9.52723C8.82353 9.47054 8.8589 9.4215 8.90845 9.39089L9.45566 9.05003C9.48914 9.03014 9.52725 9.01938 9.56619 9.01882C9.60513 9.01826 9.64354 9.02792 9.67758 9.04684C9.71161 9.06576 9.7401 9.09328 9.76018 9.12664C9.78026 9.16001 9.79124 9.19806 9.79203 9.23699V11.8483Z" fill="#FAFAFA"/>
<path d="M8.21143 11.8483C8.20969 11.9054 8.18578 11.9596 8.14477 11.9994C8.10375 12.0392 8.04886 12.0614 7.99171 12.0614C7.93457 12.0614 7.87968 12.0392 7.83866 11.9994C7.79765 11.9596 7.77374 11.9054 7.772 11.8483V9.63275L7.55871 9.7646C7.50919 9.79389 7.45016 9.80258 7.3943 9.7888C7.33845 9.77502 7.29023 9.73987 7.26001 9.69091C7.2298 9.64196 7.22 9.5831 7.23273 9.52699C7.24545 9.47089 7.27969 9.42202 7.32807 9.39089L7.87527 9.05003C7.90875 9.03014 7.94687 9.01938 7.9858 9.01882C8.02474 9.01826 8.06315 9.02792 8.09719 9.04684C8.13123 9.06576 8.15971 9.09328 8.17979 9.12664C8.19987 9.16001 8.21086 9.19806 8.21164 9.23699L8.21143 11.8483Z" fill="#FAFAFA"/>
<path d="M9.79203 11.8483C9.79203 11.9066 9.76887 11.9625 9.72764 12.0038C9.68642 12.045 9.6305 12.0681 9.5722 12.0681C9.5139 12.0681 9.45799 12.045 9.41677 12.0038C9.37554 11.9625 9.35238 11.9066 9.35238 11.8483V9.63275L9.1393 9.7646C9.08974 9.79522 9.03005 9.80489 8.97336 9.79149C8.91667 9.77809 8.86763 9.74273 8.83702 9.69317C8.80641 9.64361 8.79674 9.58392 8.81013 9.52723C8.82353 9.47054 8.8589 9.4215 8.90845 9.39089L9.45566 9.05003C9.48914 9.03014 9.52725 9.01938 9.56619 9.01882C9.60513 9.01826 9.64354 9.02792 9.67758 9.04684C9.71161 9.06576 9.7401 9.09328 9.76018 9.12664C9.78026 9.16001 9.79124 9.19806 9.79203 9.23699V11.8483Z" fill="#FAFAFA"/>
<path d="M7.59814 9.33203H9.88985" stroke="#191919" stroke-width="0.343756" stroke-linecap="round" stroke-linejoin="round"/>
<path d="M8.74414 10.4792V8.1875" stroke="#191919" stroke-width="0.343756" stroke-linecap="round" stroke-linejoin="round"/>
</g>
<g clip-path="url(#clip5_9669_18389)">
<path d="M40.6919 20.8673C41.0608 20.8668 41.4145 20.7201 41.6753 20.4593C41.9361 20.1984 42.0829 19.8448 42.0833 19.4759V18.9944C41.1632 19.1677 40.2181 19.161 39.3005 18.9746V19.4759C39.301 19.8448 39.4477 20.1984 39.7085 20.4593C39.9694 20.7201 40.323 20.8668 40.6919 20.8673Z" fill="#FAFAFA"/>
<path d="M46.3918 23.6215L45.2509 21.2233C45.0357 20.7743 44.6566 20.425 44.1916 20.2472L43.3209 19.9154C42.9763 19.8135 42.7249 19.4088 42.5228 19.1328V19.4102C42.531 19.666 42.4859 19.9208 42.3901 20.1582C42.2944 20.3956 42.1502 20.6104 41.9668 20.789C41.7834 20.9675 41.5648 21.1059 41.325 21.1953C41.0851 21.2846 40.8292 21.323 40.5737 21.3079C40.3182 21.2928 40.0686 21.2247 39.8409 21.1077C39.6132 20.9908 39.4123 20.8277 39.2512 20.6288C39.0901 20.4299 38.9721 20.1997 38.905 19.9526C38.8378 19.7056 38.8229 19.4473 38.8612 19.1942C38.7106 19.4837 38.4643 19.7121 38.1643 19.8404L37.3487 20.1329C36.8806 20.2985 36.4947 20.6388 36.2717 21.0824L34.9921 23.6215C34.9744 23.66 34.9725 23.7039 34.9869 23.7438C35.0013 23.7837 35.0308 23.8163 35.0691 23.8346L36.7734 24.6096C36.8054 24.6242 36.8404 24.6309 36.8756 24.6291C36.9107 24.6274 36.9449 24.6172 36.9753 24.5995C37.0057 24.5818 37.0314 24.557 37.0503 24.5273C37.0691 24.4976 37.0805 24.4638 37.0836 24.4287L37.1463 23.7144C37.1528 23.6571 37.1814 23.6046 37.2261 23.5681C37.2708 23.5316 37.3279 23.514 37.3854 23.519C37.4428 23.524 37.4961 23.5513 37.5337 23.595C37.5714 23.6387 37.5905 23.6954 37.5869 23.7529L37.0563 29.7851C37.056 29.8279 37.0646 29.8703 37.0814 29.9097C37.0983 29.9491 37.123 29.9847 37.1541 30.0141C37.1852 30.0436 37.222 30.0663 37.2623 30.081C37.3025 30.0957 37.3454 30.1019 37.3881 30.0994H44.0134C44.0563 30.1019 44.0994 30.0956 44.1398 30.0808C44.1802 30.066 44.2171 30.0431 44.2482 30.0133C44.2794 29.9836 44.3041 29.9479 44.3207 29.9082C44.3374 29.8685 44.3458 29.8259 44.3453 29.7828C44.2514 28.7762 43.8628 24.671 43.7766 23.7542C43.7725 23.6968 43.791 23.6401 43.8281 23.5962C43.8653 23.5523 43.9182 23.5247 43.9755 23.5193C44.0327 23.5139 44.0898 23.5311 44.1345 23.5673C44.1792 23.6035 44.208 23.6558 44.2146 23.7129L44.2814 24.42C44.2847 24.4547 44.2962 24.4882 44.315 24.5176C44.3338 24.547 44.3593 24.5715 44.3894 24.5891C44.4195 24.6067 44.4534 24.6168 44.4883 24.6187C44.5231 24.6206 44.5579 24.6142 44.5898 24.6L46.3149 23.8303C46.3526 23.8125 46.3817 23.7806 46.3961 23.7415C46.4105 23.7024 46.409 23.6595 46.3918 23.6215ZM40.2742 27.8483C40.2724 27.9054 40.2485 27.9596 40.2075 27.9994C40.1665 28.0392 40.1116 28.0614 40.0545 28.0614C39.9973 28.0614 39.9424 28.0392 39.9014 27.9994C39.8604 27.9596 39.8365 27.9054 39.8347 27.8483V25.6328L39.6214 25.7646C39.5719 25.7939 39.5129 25.8026 39.457 25.7888C39.4012 25.775 39.353 25.7399 39.3228 25.6909C39.2925 25.642 39.2827 25.5831 39.2955 25.527C39.3082 25.4709 39.3424 25.422 39.3908 25.3909L39.938 25.05C39.9715 25.0301 40.0096 25.0194 40.0485 25.0188C40.0875 25.0183 40.1259 25.0279 40.1599 25.0468C40.194 25.0658 40.2225 25.0933 40.2425 25.1266C40.2626 25.16 40.2736 25.1981 40.2744 25.237L40.2742 27.8483ZM41.8548 27.8483C41.8548 27.9066 41.8316 27.9625 41.7904 28.0038C41.7492 28.045 41.6932 28.0681 41.6349 28.0681C41.5766 28.0681 41.5207 28.045 41.4795 28.0038C41.4383 27.9625 41.4151 27.9066 41.4151 27.8483V25.6328L41.202 25.7646C41.1525 25.7952 41.0928 25.8049 41.0361 25.7915C40.9794 25.7781 40.9304 25.7427 40.8998 25.6932C40.8692 25.6436 40.8595 25.5839 40.8729 25.5272C40.8863 25.4705 40.9216 25.4215 40.9712 25.3909L41.5184 25.05C41.5519 25.0301 41.59 25.0194 41.6289 25.0188C41.6679 25.0183 41.7063 25.0279 41.7403 25.0468C41.7744 25.0658 41.8028 25.0933 41.8229 25.1266C41.843 25.16 41.854 25.1981 41.8548 25.237V27.8483Z" fill="#FAFAFA"/>
<path d="M40.2742 27.8483C40.2724 27.9054 40.2485 27.9596 40.2075 27.9994C40.1665 28.0392 40.1116 28.0614 40.0545 28.0614C39.9973 28.0614 39.9424 28.0392 39.9014 27.9994C39.8604 27.9596 39.8365 27.9054 39.8347 27.8483V25.6328L39.6214 25.7646C39.5719 25.7939 39.5129 25.8026 39.457 25.7888C39.4012 25.775 39.353 25.7399 39.3228 25.6909C39.2925 25.642 39.2827 25.5831 39.2955 25.527C39.3082 25.4709 39.3424 25.422 39.3908 25.3909L39.938 25.05C39.9715 25.0301 40.0096 25.0194 40.0485 25.0188C40.0875 25.0183 40.1259 25.0279 40.1599 25.0468C40.194 25.0658 40.2225 25.0933 40.2425 25.1266C40.2626 25.16 40.2736 25.1981 40.2744 25.237L40.2742 27.8483Z" fill="#FAFAFA"/>
<path d="M41.8548 27.8483C41.8548 27.9066 41.8316 27.9625 41.7904 28.0038C41.7492 28.045 41.6932 28.0681 41.6349 28.0681C41.5766 28.0681 41.5207 28.045 41.4795 28.0038C41.4383 27.9625 41.4151 27.9066 41.4151 27.8483V25.6328L41.202 25.7646C41.1525 25.7952 41.0928 25.8049 41.0361 25.7915C40.9794 25.7781 40.9304 25.7427 40.8998 25.6932C40.8692 25.6436 40.8595 25.5839 40.8729 25.5272C40.8863 25.4705 40.9216 25.4215 40.9712 25.3909L41.5184 25.05C41.5519 25.0301 41.59 25.0194 41.6289 25.0188C41.6679 25.0183 41.7063 25.0279 41.7403 25.0468C41.7744 25.0658 41.8028 25.0933 41.8229 25.1266C41.843 25.16 41.854 25.1981 41.8548 25.237V27.8483Z" fill="#FAFAFA"/>
<path d="M39.6609 25.332H41.9526" stroke="#191919" stroke-width="0.343756" stroke-linecap="round" stroke-linejoin="round"/>
<path d="M40.8069 26.4792V24.1875" stroke="#191919" stroke-width="0.343756" stroke-linecap="round" stroke-linejoin="round"/>
</g>
<path d="M24.9505 27.8673C25.3194 27.8668 25.673 27.7201 25.9338 27.4593C26.1947 27.1984 26.3414 26.8448 26.3419 26.4759V25.9944C25.4217 26.1677 24.4767 26.161 23.5591 25.9746V26.4759C23.5595 26.8448 23.7062 27.1984 23.9671 27.4593C24.2279 27.7201 24.5816 27.8668 24.9505 27.8673Z" fill="#FAFAFA"/>
<path d="M30.6504 30.6215L29.5094 28.2233C29.2943 27.7743 28.9151 27.425 28.4501 27.2472L27.5794 26.9154C27.2349 26.8135 26.9834 26.4088 26.7814 26.1328V26.4102C26.7896 26.666 26.7444 26.9208 26.6487 27.1582C26.553 27.3956 26.4088 27.6104 26.2254 27.789C26.042 27.9675 25.8234 28.1059 25.5835 28.1953C25.3436 28.2846 25.0878 28.323 24.8322 28.3079C24.5767 28.2928 24.3271 28.2247 24.0994 28.1077C23.8717 27.9908 23.6709 27.8277 23.5097 27.6288C23.3486 27.4299 23.2307 27.1997 23.1635 26.9526C23.0964 26.7056 23.0814 26.4473 23.1197 26.1942C22.9691 26.4837 22.7229 26.7121 22.4229 26.8404L21.6073 27.1329C21.1391 27.2985 20.7532 27.6388 20.5302 28.0824L19.2507 30.6215C19.2329 30.66 19.231 30.7039 19.2454 30.7438C19.2598 30.7837 19.2894 30.8163 19.3276 30.8346L21.0319 31.6096C21.0639 31.6242 21.099 31.6309 21.1341 31.6291C21.1693 31.6274 21.2035 31.6172 21.2339 31.5995C21.2643 31.5818 21.29 31.557 21.3088 31.5273C21.3276 31.4976 21.3391 31.4638 21.3421 31.4287L21.4048 30.7144C21.4113 30.6571 21.44 30.6046 21.4847 30.5681C21.5293 30.5316 21.5865 30.514 21.6439 30.519C21.7014 30.524 21.7546 30.5513 21.7923 30.595C21.8299 30.6387 21.849 30.6954 21.8455 30.7529L21.3148 36.7851C21.3146 36.8279 21.3232 36.8703 21.34 36.9097C21.3568 36.9491 21.3816 36.9847 21.4127 37.0141C21.4438 37.0436 21.4806 37.0663 21.5208 37.081C21.5611 37.0957 21.6039 37.1019 21.6467 37.0994H28.2719C28.3149 37.1019 28.3579 37.0956 28.3983 37.0808C28.4387 37.066 28.4756 37.0431 28.5068 37.0133C28.5379 36.9836 28.5626 36.9479 28.5793 36.9082C28.596 36.8685 28.6043 36.8259 28.6038 36.7828C28.5099 35.7762 28.1213 31.671 28.0352 30.7542C28.031 30.6968 28.0495 30.6401 28.0867 30.5962C28.1239 30.5523 28.1767 30.5247 28.234 30.5193C28.2913 30.5139 28.3484 30.5311 28.3931 30.5673C28.4378 30.6035 28.4665 30.6558 28.4732 30.7129L28.5399 31.42C28.5432 31.4547 28.5547 31.4882 28.5735 31.5176C28.5923 31.547 28.6178 31.5715 28.648 31.5891C28.6781 31.6067 28.712 31.6168 28.7468 31.6187C28.7817 31.6206 28.8165 31.6142 28.8483 31.6L30.5734 30.8303C30.6111 30.8125 30.6403 30.7806 30.6547 30.7415C30.6691 30.7024 30.6675 30.6595 30.6504 30.6215ZM24.5327 34.8483C24.531 34.9054 24.5071 34.9596 24.4661 34.9994C24.425 35.0392 24.3701 35.0614 24.313 35.0614C24.2559 35.0614 24.201 35.0392 24.16 34.9994C24.1189 34.9596 24.095 34.9054 24.0933 34.8483V32.6328L23.88 32.7646C23.8305 32.7939 23.7714 32.8026 23.7156 32.7888C23.6597 32.775 23.6115 32.7399 23.5813 32.6909C23.5511 32.642 23.5413 32.5831 23.554 32.527C23.5667 32.4709 23.601 32.422 23.6494 32.3909L24.1966 32.05C24.23 32.0301 24.2682 32.0194 24.3071 32.0188C24.346 32.0183 24.3844 32.0279 24.4185 32.0468C24.4525 32.0658 24.481 32.0933 24.5011 32.1266C24.5212 32.16 24.5321 32.1981 24.5329 32.237L24.5327 34.8483ZM26.1133 34.8483C26.1133 34.9066 26.0902 34.9625 26.0489 35.0038C26.0077 35.045 25.9518 35.0681 25.8935 35.0681C25.8352 35.0681 25.7793 35.045 25.7381 35.0038C25.6968 34.9625 25.6737 34.9066 25.6737 34.8483V32.6328L25.4606 32.7646C25.411 32.7952 25.3513 32.8049 25.2947 32.7915C25.238 32.7781 25.1889 32.7427 25.1583 32.6932C25.1277 32.6436 25.118 32.5839 25.1314 32.5272C25.1448 32.4705 25.1802 32.4215 25.2297 32.3909L25.7769 32.05C25.8104 32.0301 25.8485 32.0194 25.8875 32.0188C25.9264 32.0183 25.9648 32.0279 25.9989 32.0468C26.0329 32.0658 26.0614 32.0933 26.0815 32.1266C26.1016 32.16 26.1125 32.1981 26.1133 32.237V34.8483Z" fill="#FAFAFA"/>
<path d="M24.5327 34.8483C24.531 34.9054 24.5071 34.9596 24.4661 34.9994C24.425 35.0392 24.3701 35.0614 24.313 35.0614C24.2559 35.0614 24.201 35.0392 24.16 34.9994C24.1189 34.9596 24.095 34.9054 24.0933 34.8483V32.6328L23.88 32.7646C23.8305 32.7939 23.7714 32.8026 23.7156 32.7888C23.6597 32.775 23.6115 32.7399 23.5813 32.6909C23.5511 32.642 23.5413 32.5831 23.554 32.527C23.5667 32.4709 23.601 32.422 23.6494 32.3909L24.1966 32.05C24.23 32.0301 24.2682 32.0194 24.3071 32.0188C24.346 32.0183 24.3844 32.0279 24.4185 32.0468C24.4525 32.0658 24.481 32.0933 24.5011 32.1266C24.5212 32.16 24.5321 32.1981 24.5329 32.237L24.5327 34.8483Z" fill="#FAFAFA"/>
<path d="M26.1133 34.8483C26.1133 34.9066 26.0902 34.9625 26.0489 35.0038C26.0077 35.045 25.9518 35.0681 25.8935 35.0681C25.8352 35.0681 25.7793 35.045 25.7381 35.0038C25.6968 34.9625 25.6737 34.9066 25.6737 34.8483V32.6328L25.4606 32.7646C25.411 32.7952 25.3513 32.8049 25.2947 32.7915C25.238 32.7781 25.1889 32.7427 25.1583 32.6932C25.1277 32.6436 25.118 32.5839 25.1314 32.5272C25.1448 32.4705 25.1802 32.4215 25.2297 32.3909L25.7769 32.05C25.8104 32.0301 25.8485 32.0194 25.8875 32.0188C25.9264 32.0183 25.9648 32.0279 25.9989 32.0468C26.0329 32.0658 26.0614 32.0933 26.0815 32.1266C26.1016 32.16 26.1125 32.1981 26.1133 32.237V34.8483Z" fill="#FAFAFA"/>
<path d="M23.9194 32.332H26.2111" stroke="#191919" stroke-width="0.343756" stroke-linecap="round" stroke-linejoin="round"/>
<path d="M25.0654 33.4792V31.1875" stroke="#191919" stroke-width="0.343756" stroke-linecap="round" stroke-linejoin="round"/>
<path d="M56.9505 27.8673C57.3194 27.8668 57.673 27.7201 57.9338 27.4593C58.1947 27.1984 58.3414 26.8448 58.3419 26.4759V25.9944C57.4217 26.1677 56.4767 26.161 55.5591 25.9746V26.4759C55.5595 26.8448 55.7062 27.1984 55.9671 27.4593C56.2279 27.7201 56.5816 27.8668 56.9505 27.8673Z" fill="#FAFAFA"/>
<path d="M62.6504 30.6215L61.5094 28.2233C61.2943 27.7743 60.9151 27.425 60.4501 27.2472L59.5794 26.9154C59.2349 26.8135 58.9834 26.4088 58.7814 26.1328V26.4102C58.7896 26.666 58.7444 26.9208 58.6487 27.1582C58.553 27.3956 58.4088 27.6104 58.2254 27.789C58.042 27.9675 57.8234 28.1059 57.5835 28.1953C57.3436 28.2846 57.0878 28.323 56.8322 28.3079C56.5767 28.2928 56.3271 28.2247 56.0994 28.1077C55.8717 27.9908 55.6709 27.8277 55.5097 27.6288C55.3486 27.4299 55.2307 27.1997 55.1635 26.9526C55.0964 26.7056 55.0814 26.4473 55.1197 26.1942C54.9691 26.4837 54.7229 26.7121 54.4229 26.8404L53.6073 27.1329C53.1391 27.2985 52.7532 27.6388 52.5302 28.0824L51.2507 30.6215C51.2329 30.66 51.231 30.7039 51.2454 30.7438C51.2598 30.7837 51.2894 30.8163 51.3276 30.8346L53.0319 31.6096C53.0639 31.6242 53.099 31.6309 53.1341 31.6291C53.1693 31.6274 53.2035 31.6172 53.2339 31.5995C53.2643 31.5818 53.29 31.557 53.3088 31.5273C53.3276 31.4976 53.3391 31.4638 53.3421 31.4287L53.4048 30.7144C53.4113 30.6571 53.44 30.6046 53.4847 30.5681C53.5293 30.5316 53.5865 30.514 53.6439 30.519C53.7014 30.524 53.7546 30.5513 53.7923 30.595C53.8299 30.6387 53.849 30.6954 53.8455 30.7529L53.3148 36.7851C53.3146 36.8279 53.3232 36.8703 53.34 36.9097C53.3568 36.9491 53.3816 36.9847 53.4127 37.0141C53.4438 37.0436 53.4806 37.0663 53.5208 37.081C53.5611 37.0957 53.6039 37.1019 53.6467 37.0994H60.2719C60.3149 37.1019 60.3579 37.0956 60.3983 37.0808C60.4387 37.066 60.4756 37.0431 60.5068 37.0133C60.5379 36.9836 60.5626 36.9479 60.5793 36.9082C60.596 36.8685 60.6043 36.8259 60.6038 36.7828C60.5099 35.7762 60.1213 31.671 60.0352 30.7542C60.031 30.6968 60.0495 30.6401 60.0867 30.5962C60.1239 30.5523 60.1767 30.5247 60.234 30.5193C60.2913 30.5139 60.3484 30.5311 60.3931 30.5673C60.4378 30.6035 60.4665 30.6558 60.4732 30.7129L60.5399 31.42C60.5432 31.4547 60.5547 31.4882 60.5735 31.5176C60.5923 31.547 60.6178 31.5715 60.648 31.5891C60.6781 31.6067 60.712 31.6168 60.7468 31.6187C60.7817 31.6206 60.8165 31.6142 60.8483 31.6L62.5734 30.8303C62.6111 30.8125 62.6403 30.7806 62.6547 30.7415C62.6691 30.7024 62.6675 30.6595 62.6504 30.6215ZM56.5327 34.8483C56.531 34.9054 56.5071 34.9596 56.4661 34.9994C56.425 35.0392 56.3701 35.0614 56.313 35.0614C56.2559 35.0614 56.201 35.0392 56.16 34.9994C56.1189 34.9596 56.095 34.9054 56.0933 34.8483V32.6328L55.88 32.7646C55.8305 32.7939 55.7714 32.8026 55.7156 32.7888C55.6597 32.775 55.6115 32.7399 55.5813 32.6909C55.5511 32.642 55.5413 32.5831 55.554 32.527C55.5667 32.4709 55.601 32.422 55.6494 32.3909L56.1966 32.05C56.23 32.0301 56.2682 32.0194 56.3071 32.0188C56.346 32.0183 56.3844 32.0279 56.4185 32.0468C56.4525 32.0658 56.481 32.0933 56.5011 32.1266C56.5212 32.16 56.5321 32.1981 56.5329 32.237L56.5327 34.8483ZM58.1133 34.8483C58.1133 34.9066 58.0902 34.9625 58.0489 35.0038C58.0077 35.045 57.9518 35.0681 57.8935 35.0681C57.8352 35.0681 57.7793 35.045 57.7381 35.0038C57.6968 34.9625 57.6737 34.9066 57.6737 34.8483V32.6328L57.4606 32.7646C57.411 32.7952 57.3513 32.8049 57.2947 32.7915C57.238 32.7781 57.1889 32.7427 57.1583 32.6932C57.1277 32.6436 57.118 32.5839 57.1314 32.5272C57.1448 32.4705 57.1802 32.4215 57.2297 32.3909L57.7769 32.05C57.8104 32.0301 57.8485 32.0194 57.8875 32.0188C57.9264 32.0183 57.9648 32.0279 57.9989 32.0468C58.0329 32.0658 58.0614 32.0933 58.0815 32.1266C58.1016 32.16 58.1125 32.1981 58.1133 32.237V34.8483Z" fill="#FAFAFA"/>
<path d="M56.5327 34.8483C56.531 34.9054 56.5071 34.9596 56.4661 34.9994C56.425 35.0392 56.3701 35.0614 56.313 35.0614C56.2559 35.0614 56.201 35.0392 56.16 34.9994C56.1189 34.9596 56.095 34.9054 56.0933 34.8483V32.6328L55.88 32.7646C55.8305 32.7939 55.7714 32.8026 55.7156 32.7888C55.6597 32.775 55.6115 32.7399 55.5813 32.6909C55.5511 32.642 55.5413 32.5831 55.554 32.527C55.5667 32.4709 55.601 32.422 55.6494 32.3909L56.1966 32.05C56.23 32.0301 56.2682 32.0194 56.3071 32.0188C56.346 32.0183 56.3844 32.0279 56.4185 32.0468C56.4525 32.0658 56.481 32.0933 56.5011 32.1266C56.5212 32.16 56.5321 32.1981 56.5329 32.237L56.5327 34.8483Z" fill="#FAFAFA"/>
<path d="M58.1133 34.8483C58.1133 34.9066 58.0902 34.9625 58.0489 35.0038C58.0077 35.045 57.9518 35.0681 57.8935 35.0681C57.8352 35.0681 57.7793 35.045 57.7381 35.0038C57.6968 34.9625 57.6737 34.9066 57.6737 34.8483V32.6328L57.4606 32.7646C57.411 32.7952 57.3513 32.8049 57.2947 32.7915C57.238 32.7781 57.1889 32.7427 57.1583 32.6932C57.1277 32.6436 57.118 32.5839 57.1314 32.5272C57.1448 32.4705 57.1802 32.4215 57.2297 32.3909L57.7769 32.05C57.8104 32.0301 57.8485 32.0194 57.8875 32.0188C57.9264 32.0183 57.9648 32.0279 57.9989 32.0468C58.0329 32.0658 58.0614 32.0933 58.0815 32.1266C58.1016 32.16 58.1125 32.1981 58.1133 32.237V34.8483Z" fill="#FAFAFA"/>
<path d="M55.9194 32.332H58.2111" stroke="#191919" stroke-width="0.343756" stroke-linecap="round" stroke-linejoin="round"/>
<path d="M57.0654 33.4792V31.1875" stroke="#191919" stroke-width="0.343756" stroke-linecap="round" stroke-linejoin="round"/>
<path d="M71.8802 3.86728C72.249 3.86685 72.6027 3.72012 72.8635 3.45927C73.1244 3.19843 73.2711 2.84478 73.2715 2.47589V1.99441C72.3514 2.16774 71.4064 2.16102 70.4888 1.97461V2.47589C70.4892 2.84478 70.6359 3.19843 70.8968 3.45927C71.1576 3.72012 71.5113 3.86685 71.8802 3.86728Z" fill="#FAFAFA"/>
<path d="M77.5801 6.6215L76.4391 4.22326C76.2239 3.77433 75.8448 3.42501 75.3798 3.24723L74.5091 2.91535C74.1646 2.8135 73.9131 2.40876 73.711 2.13281V2.41019C73.7193 2.66603 73.6741 2.92078 73.5784 3.15818C73.4826 3.39558 73.3385 3.61042 73.1551 3.78898C72.9717 3.96755 72.7531 4.10592 72.5132 4.19527C72.2733 4.28462 72.0175 4.32299 71.7619 4.30792C71.5064 4.29285 71.2568 4.22467 71.0291 4.10775C70.8014 3.99082 70.6006 3.82772 70.4394 3.62883C70.2783 3.42994 70.1604 3.19965 70.0932 2.95265C70.0261 2.70564 70.0111 2.44735 70.0494 2.19425C69.8988 2.48374 69.6526 2.7121 69.3526 2.84045L68.537 3.13293C68.0688 3.29852 67.6829 3.63876 67.4599 4.08243L66.1804 6.6215C66.1626 6.66 66.1607 6.70395 66.1751 6.74383C66.1895 6.78371 66.219 6.81632 66.2573 6.83458L67.9616 7.60957C67.9936 7.62418 68.0287 7.63089 68.0638 7.62913C68.0989 7.62738 68.1332 7.61722 68.1635 7.5995C68.1939 7.58178 68.2196 7.55702 68.2385 7.52731C68.2573 7.49759 68.2688 7.46379 68.2718 7.42873L68.3345 6.71437C68.341 6.65706 68.3697 6.60457 68.4143 6.56808C68.459 6.53159 68.5162 6.51399 68.5736 6.51902C68.6311 6.52405 68.6843 6.55131 68.7219 6.59501C68.7596 6.6387 68.7787 6.69537 68.7752 6.75294L68.2445 12.7851C68.2443 12.8279 68.2528 12.8703 68.2697 12.9097C68.2865 12.9491 68.3112 12.9847 68.3423 13.0141C68.3734 13.0436 68.4103 13.0663 68.4505 13.081C68.4908 13.0957 68.5336 13.1019 68.5764 13.0994H75.2016C75.2446 13.1019 75.2876 13.0956 75.328 13.0808C75.3684 13.066 75.4053 13.0431 75.4365 13.0133C75.4676 12.9836 75.4923 12.9479 75.509 12.9082C75.5257 12.8685 75.534 12.8259 75.5335 12.7828C75.4396 11.7762 75.051 7.67101 74.9649 6.75417C74.9607 6.69679 74.9792 6.64008 75.0164 6.59618C75.0535 6.55227 75.1064 6.52467 75.1637 6.51928C75.221 6.51389 75.2781 6.53114 75.3228 6.56734C75.3675 6.60353 75.3962 6.6558 75.4029 6.71294L75.4696 7.41996C75.4729 7.4547 75.4844 7.48815 75.5032 7.51756C75.522 7.54697 75.5475 7.57148 75.5776 7.58908C75.6078 7.60667 75.6417 7.61683 75.6765 7.61873C75.7114 7.62062 75.7461 7.6142 75.778 7.59998L77.5031 6.8303C77.5408 6.81252 77.57 6.78065 77.5844 6.74155C77.5988 6.70245 77.5972 6.65946 77.5801 6.6215ZM71.4624 10.8483C71.4607 10.9054 71.4368 10.9596 71.3957 10.9994C71.3547 11.0392 71.2998 11.0614 71.2427 11.0614C71.1856 11.0614 71.1307 11.0392 71.0896 10.9994C71.0486 10.9596 71.0247 10.9054 71.023 10.8483V8.63275L70.8097 8.7646C70.7602 8.79389 70.7011 8.80258 70.6453 8.7888C70.5894 8.77502 70.5412 8.73987 70.511 8.69091C70.4808 8.64196 70.471 8.5831 70.4837 8.52699C70.4964 8.47089 70.5307 8.42202 70.579 8.39089L71.1262 8.05003C71.1597 8.03014 71.1978 8.01938 71.2368 8.01882C71.2757 8.01826 71.3141 8.02792 71.3482 8.04684C71.3822 8.06576 71.4107 8.09328 71.4308 8.12664C71.4508 8.16001 71.4618 8.19806 71.4626 8.23699L71.4624 10.8483ZM73.043 10.8483C73.043 10.9066 73.0198 10.9625 72.9786 11.0038C72.9374 11.045 72.8815 11.0681 72.8232 11.0681C72.7649 11.0681 72.709 11.045 72.6677 11.0038C72.6265 10.9625 72.6034 10.9066 72.6034 10.8483V8.63275L72.3903 8.7646C72.3407 8.79522 72.281 8.80489 72.2243 8.79149C72.1677 8.77809 72.1186 8.74273 72.088 8.69317C72.0574 8.64361 72.0477 8.58392 72.0611 8.52723C72.0745 8.47054 72.1099 8.4215 72.1594 8.39089L72.7066 8.05003C72.7401 8.03014 72.7782 8.01938 72.8172 8.01882C72.8561 8.01826 72.8945 8.02792 72.9286 8.04684C72.9626 8.06576 72.9911 8.09328 73.0112 8.12664C73.0312 8.16001 73.0422 8.19806 73.043 8.23699V10.8483Z" fill="#FAFAFA"/>
<path d="M71.4624 10.8483C71.4607 10.9054 71.4368 10.9596 71.3957 10.9994C71.3547 11.0392 71.2998 11.0614 71.2427 11.0614C71.1856 11.0614 71.1307 11.0392 71.0896 10.9994C71.0486 10.9596 71.0247 10.9054 71.023 10.8483V8.63275L70.8097 8.7646C70.7602 8.79389 70.7011 8.80258 70.6453 8.7888C70.5894 8.77502 70.5412 8.73987 70.511 8.69091C70.4808 8.64196 70.471 8.5831 70.4837 8.52699C70.4964 8.47089 70.5307 8.42202 70.579 8.39089L71.1262 8.05003C71.1597 8.03014 71.1978 8.01938 71.2368 8.01882C71.2757 8.01826 71.3141 8.02792 71.3482 8.04684C71.3822 8.06576 71.4107 8.09328 71.4308 8.12664C71.4508 8.16001 71.4618 8.19806 71.4626 8.23699L71.4624 10.8483Z" fill="#FAFAFA"/>
<path d="M73.043 10.8483C73.043 10.9066 73.0198 10.9625 72.9786 11.0038C72.9374 11.045 72.8815 11.0681 72.8232 11.0681C72.7649 11.0681 72.709 11.045 72.6677 11.0038C72.6265 10.9625 72.6034 10.9066 72.6034 10.8483V8.63275L72.3903 8.7646C72.3407 8.79522 72.281 8.80489 72.2243 8.79149C72.1677 8.77809 72.1186 8.74273 72.088 8.69317C72.0574 8.64361 72.0477 8.58392 72.0611 8.52723C72.0745 8.47054 72.1099 8.4215 72.1594 8.39089L72.7066 8.05003C72.7401 8.03014 72.7782 8.01938 72.8172 8.01882C72.8561 8.01826 72.8945 8.02792 72.9286 8.04684C72.9626 8.06576 72.9911 8.09328 73.0112 8.12664C73.0312 8.16001 73.0422 8.19806 73.043 8.23699V10.8483Z" fill="#FAFAFA"/>
<path d="M70.8491 8.33203H73.1408" stroke="#191919" stroke-width="0.343756" stroke-linecap="round" stroke-linejoin="round"/>
<path d="M71.9951 9.47921V7.1875" stroke="#191919" stroke-width="0.343756" stroke-linecap="round" stroke-linejoin="round"/>
<path d="M40.5271 3.99618C40.896 3.99575 41.2497 3.84902 41.5105 3.58818C41.7714 3.32734 41.9181 2.97368 41.9185 2.6048V2.12331C40.9984 2.29665 40.0533 2.28993 39.1357 2.10352V2.6048C39.1362 2.97368 39.2829 3.32734 39.5437 3.58818C39.8046 3.84902 40.1582 3.99575 40.5271 3.99618Z" fill="#FAFAFA"/>
<path d="M46.227 6.7504L45.0861 4.35217C44.8709 3.90324 44.4918 3.55392 44.0268 3.37613L43.1561 3.04426C42.8115 2.94241 42.5601 2.53767 42.358 2.26172V2.5391C42.3663 2.79494 42.3211 3.04969 42.2253 3.28709C42.1296 3.52449 41.9855 3.73932 41.8021 3.91789C41.6187 4.09646 41.4 4.23483 41.1602 4.32418C40.9203 4.41353 40.6644 4.45189 40.4089 4.43682C40.1534 4.42175 39.9038 4.35358 39.6761 4.23666C39.4484 4.11973 39.2475 3.95662 39.0864 3.75774C38.9253 3.55885 38.8074 3.32856 38.7402 3.08155C38.673 2.83455 38.6581 2.57625 38.6964 2.32315C38.5458 2.61265 38.2996 2.84101 37.9995 2.96935L37.1839 3.26184C36.7158 3.42743 36.3299 3.76766 36.1069 4.21133L34.8273 6.7504C34.8096 6.7889 34.8077 6.83286 34.8221 6.87274C34.8365 6.91262 34.866 6.94522 34.9043 6.96349L36.6086 7.73848C36.6406 7.75308 36.6756 7.75979 36.7108 7.75804C36.7459 7.75629 36.7801 7.74613 36.8105 7.72841C36.8409 7.71069 36.8666 7.68593 36.8855 7.65621C36.9043 7.6265 36.9157 7.59269 36.9188 7.55764L36.9815 6.84327C36.988 6.78597 37.0167 6.73348 37.0613 6.69699C37.106 6.6605 37.1631 6.64289 37.2206 6.64792C37.278 6.65295 37.3313 6.68022 37.3689 6.72392C37.4066 6.76761 37.4257 6.82428 37.4221 6.88185L36.8915 12.914C36.8912 12.9568 36.8998 12.9992 36.9166 13.0386C36.9335 13.078 36.9582 13.1136 36.9893 13.143C37.0204 13.1725 37.0572 13.1952 37.0975 13.2099C37.1377 13.2246 37.1806 13.2308 37.2233 13.2283H43.8486C43.8915 13.2309 43.9346 13.2245 43.975 13.2097C44.0154 13.1949 44.0523 13.172 44.0834 13.1423C44.1146 13.1126 44.1393 13.0768 44.156 13.0371C44.1726 12.9974 44.181 12.9548 44.1805 12.9117C44.0866 11.9051 43.698 7.79991 43.6118 6.88307C43.6077 6.8257 43.6262 6.76899 43.6634 6.72508C43.7005 6.68118 43.7534 6.65357 43.8107 6.64818C43.8679 6.64279 43.925 6.66004 43.9697 6.69624C44.0145 6.73244 44.0432 6.78471 44.0498 6.84184L44.1166 7.54886C44.1199 7.5836 44.1314 7.61706 44.1502 7.64647C44.169 7.67588 44.1945 7.70039 44.2246 7.71798C44.2547 7.73557 44.2886 7.74574 44.3235 7.74763C44.3583 7.74953 44.3931 7.7431 44.425 7.72889L46.1501 6.9592C46.1878 6.94143 46.217 6.90955 46.2313 6.87045C46.2457 6.83136 46.2442 6.78837 46.227 6.7504ZM40.1094 10.9772C40.1076 11.0343 40.0837 11.0885 40.0427 11.1283C40.0017 11.1681 39.9468 11.1903 39.8897 11.1903C39.8325 11.1903 39.7776 11.1681 39.7366 11.1283C39.6956 11.0885 39.6717 11.0343 39.6699 10.9772V8.76166L39.4567 8.89351C39.4071 8.9228 39.3481 8.93148 39.2923 8.9177C39.2364 8.90392 39.1882 8.86878 39.158 8.81982C39.1277 8.77086 39.118 8.712 39.1307 8.6559C39.1434 8.5998 39.1776 8.55092 39.226 8.51979L39.7732 8.17894C39.8067 8.15905 39.8448 8.14829 39.8838 8.14773C39.9227 8.14717 39.9611 8.15683 39.9951 8.17575C40.0292 8.19467 40.0577 8.22218 40.0777 8.25555C40.0978 8.28891 40.1088 8.32696 40.1096 8.3659L40.1094 10.9772ZM41.69 10.9772C41.69 11.0355 41.6668 11.0914 41.6256 11.1327C41.5844 11.1739 41.5285 11.197 41.4702 11.197C41.4119 11.197 41.3559 11.1739 41.3147 11.1327C41.2735 11.0914 41.2503 11.0355 41.2503 10.9772V8.76166L41.0372 8.89351C40.9877 8.92412 40.928 8.93379 40.8713 8.9204C40.8146 8.907 40.7656 8.87163 40.735 8.82207C40.7044 8.77252 40.6947 8.71283 40.7081 8.65614C40.7215 8.59945 40.7568 8.55041 40.8064 8.51979L41.3536 8.17894C41.3871 8.15905 41.4252 8.14829 41.4641 8.14773C41.5031 8.14717 41.5415 8.15683 41.5755 8.17575C41.6096 8.19467 41.638 8.22218 41.6581 8.25555C41.6782 8.28891 41.6892 8.32696 41.69 8.3659V10.9772Z" fill="#FAFAFA"/>
<path d="M40.1094 10.9772C40.1076 11.0343 40.0837 11.0885 40.0427 11.1283C40.0017 11.1681 39.9468 11.1903 39.8897 11.1903C39.8325 11.1903 39.7776 11.1681 39.7366 11.1283C39.6956 11.0885 39.6717 11.0343 39.6699 10.9772V8.76166L39.4567 8.89351C39.4071 8.9228 39.3481 8.93148 39.2923 8.9177C39.2364 8.90392 39.1882 8.86878 39.158 8.81982C39.1277 8.77086 39.118 8.712 39.1307 8.6559C39.1434 8.5998 39.1776 8.55092 39.226 8.51979L39.7732 8.17894C39.8067 8.15905 39.8448 8.14829 39.8838 8.14773C39.9227 8.14717 39.9611 8.15683 39.9951 8.17575C40.0292 8.19467 40.0577 8.22218 40.0777 8.25555C40.0978 8.28891 40.1088 8.32696 40.1096 8.3659L40.1094 10.9772Z" fill="#FAFAFA"/>
<path d="M41.69 10.9772C41.69 11.0355 41.6668 11.0914 41.6256 11.1327C41.5844 11.1739 41.5285 11.197 41.4702 11.197C41.4119 11.197 41.3559 11.1739 41.3147 11.1327C41.2735 11.0914 41.2503 11.0355 41.2503 10.9772V8.76166L41.0372 8.89351C40.9877 8.92412 40.928 8.93379 40.8713 8.9204C40.8146 8.907 40.7656 8.87163 40.735 8.82207C40.7044 8.77252 40.6947 8.71283 40.7081 8.65614C40.7215 8.59945 40.7568 8.55041 40.8064 8.51979L41.3536 8.17894C41.3871 8.15905 41.4252 8.14829 41.4641 8.14773C41.5031 8.14717 41.5415 8.15683 41.5755 8.17575C41.6096 8.19467 41.638 8.22218 41.6581 8.25555C41.6782 8.28891 41.6892 8.32696 41.69 8.3659V10.9772Z" fill="#FAFAFA"/>
<path d="M39.4961 8.46094H41.7878" stroke="#191919" stroke-width="0.343756" stroke-linecap="round" stroke-linejoin="round"/>
<path d="M40.6421 9.60812V7.31641" stroke="#191919" stroke-width="0.343756" stroke-linecap="round" stroke-linejoin="round"/>
<defs>
<clipPath id="clip0_9669_18389">
<rect width="13.0627" height="13.0627" fill="white" transform="translate(3.0166 46)"/>
</clipPath>
<clipPath id="clip1_9669_18389">
<rect width="13.0627" height="13.0627" fill="white" transform="translate(64.0981 46)"/>
</clipPath>
<clipPath id="clip2_9669_18389">
<rect width="13.0627" height="13.0627" fill="white" transform="translate(44.0981 50)"/>
</clipPath>
<clipPath id="clip3_9669_18389">
<rect width="13.0627" height="13.0627" fill="white" transform="translate(24.0981 50)"/>
</clipPath>
<clipPath id="clip4_9669_18389">
<rect width="13.0627" height="13.0627" fill="white" transform="translate(2.09814 2)"/>
</clipPath>
<clipPath id="clip5_9669_18389">
<rect width="13.0627" height="13.0627" fill="white" transform="translate(34.1609 18)"/>
</clipPath>
</defs>
</svg>
