<svg width="81" height="81" viewBox="0 0 81 81" fill="none" xmlns="http://www.w3.org/2000/svg">
<rect x="0.212974" y="0.118492" width="79.9807" height="79.9807" rx="5.88541" fill="#828284" stroke="#FAFAFA" stroke-width="0.229171"/>
<mask id="path-2-inside-1_9669_18265" fill="white">
<path d="M23.9321 66.4609H56.4744V80.2112H23.9321V66.4609Z"/>
</mask>
<path d="M23.9321 66.4609V66.2318H23.703V66.4609H23.9321ZM56.4744 66.4609H56.7036V66.2318H56.4744V66.4609ZM23.9321 66.6901H56.4744V66.2318H23.9321V66.6901ZM56.2452 66.4609V80.2112H56.7036V66.4609H56.2452ZM24.1613 80.2112V66.4609H23.703V80.2112H24.1613Z" fill="#FAFAFA" mask="url(#path-2-inside-1_9669_18265)"/>
<mask id="path-4-inside-2_9669_18265" fill="white">
<path d="M12.7026 55.0039H67.7037V80.2127H12.7026V55.0039Z"/>
</mask>
<path d="M12.7026 55.0039V54.7747H12.4735V55.0039H12.7026ZM67.7037 55.0039H67.9328V54.7747H67.7037V55.0039ZM12.7026 55.2331H67.7037V54.7747H12.7026V55.2331ZM67.4745 55.0039V80.2127H67.9328V55.0039H67.4745ZM12.9318 80.2127V55.0039H12.4735V80.2127H12.9318Z" fill="#FAFAFA" mask="url(#path-4-inside-2_9669_18265)"/>
<path d="M54.4119 9.53674e-07C54.4119 1.65523 54.0266 3.29426 53.278 4.8235C52.5294 6.35273 51.4321 7.74223 50.0489 8.91266C48.6657 10.0831 47.0235 11.0115 45.2162 11.645C43.409 12.2784 41.4719 12.6044 39.5157 12.6044C37.5596 12.6044 35.6225 12.2784 33.8152 11.645C32.008 11.0115 30.3658 10.0831 28.9826 8.91266C27.5994 7.74223 26.5021 6.35273 25.7535 4.8235C25.0049 3.29426 24.6196 1.65523 24.6196 0" stroke="#FAFAFA" stroke-width="0.229171"/>
<path d="M30.6756 55.3516C31.1938 54.5174 31.9535 53.7595 32.9111 53.1211C33.8687 52.4827 35.0056 51.9763 36.2568 51.6308C37.508 51.2853 38.849 51.1074 40.2033 51.1074C41.5576 51.1074 42.8986 51.2853 44.1498 51.6308C45.401 51.9763 46.5378 52.4827 47.4954 53.1211C48.4531 53.7595 49.2127 54.5174 49.731 55.3516" stroke="#FAFAFA" stroke-width="0.229171"/>
<path d="M0.327637 76.5479C1.44417 76.4958 3.64809 77.1099 3.53159 79.9825" stroke="#FAFAFA" stroke-width="0.229171"/>
<path d="M80.0791 76.5479C78.9626 76.4958 76.7586 77.1099 76.8752 79.9825" stroke="#FAFAFA" stroke-width="0.229171"/>
<g clip-path="url(#clip0_9669_18265)">
<path d="M40.3174 69.4356C40.6863 69.4352 41.04 69.2885 41.3008 69.0276C41.5616 68.7668 41.7084 68.4131 41.7088 68.0443V67.5628C40.7886 67.7361 39.8436 67.7294 38.926 67.543V68.0443C38.9265 68.4131 39.0732 68.7668 39.334 69.0276C39.5949 69.2885 39.9485 69.4352 40.3174 69.4356Z" fill="#FAFAFA"/>
<path d="M46.0173 72.1899L44.8764 69.7916C44.6612 69.3427 44.2821 68.9934 43.8171 68.8156L42.9463 68.4837C42.6018 68.3819 42.3504 67.9771 42.1483 67.7012V67.9786C42.1565 68.2344 42.1113 68.4891 42.0156 68.7265C41.9199 68.9639 41.7757 69.1788 41.5923 69.3573C41.4089 69.5359 41.1903 69.6743 40.9505 69.7636C40.7106 69.853 40.4547 69.8913 40.1992 69.8763C39.9437 69.8612 39.6941 69.793 39.4664 69.6761C39.2387 69.5592 39.0378 69.3961 38.8767 69.1972C38.7155 68.9983 38.5976 68.768 38.5305 68.521C38.4633 68.274 38.4484 68.0157 38.4866 67.7626C38.3361 68.0521 38.0898 68.2805 37.7898 68.4088L36.9742 68.7013C36.5061 68.8669 36.1201 69.2071 35.8972 69.6508L34.6176 72.1899C34.5999 72.2284 34.598 72.2723 34.6124 72.3122C34.6268 72.3521 34.6563 72.3847 34.6946 72.4029L36.3989 73.1779C36.4309 73.1925 36.4659 73.1992 36.5011 73.1975C36.5362 73.1957 36.5704 73.1856 36.6008 73.1679C36.6312 73.1501 36.6569 73.1254 36.6757 73.0957C36.6946 73.066 36.706 73.0321 36.7091 72.9971L36.7718 72.2827C36.7783 72.2254 36.8069 72.1729 36.8516 72.1364C36.8963 72.1 36.9534 72.0823 37.0109 72.0874C37.0683 72.0924 37.1216 72.1197 37.1592 72.1634C37.1968 72.2071 37.2159 72.2637 37.2124 72.3213L36.6817 78.3534C36.6815 78.3963 36.6901 78.4387 36.7069 78.4781C36.7238 78.5175 36.7485 78.553 36.7796 78.5825C36.8107 78.6119 36.8475 78.6347 36.8878 78.6494C36.928 78.664 36.9709 78.6703 37.0136 78.6678H43.6389C43.6818 78.6703 43.7249 78.664 43.7653 78.6492C43.8057 78.6344 43.8426 78.6114 43.8737 78.5817C43.9049 78.552 43.9295 78.5162 43.9462 78.4766C43.9629 78.4369 43.9713 78.3942 43.9708 78.3512C43.8769 77.3445 43.4882 73.2394 43.4021 72.3225C43.398 72.2652 43.4165 72.2084 43.4536 72.1645C43.4908 72.1206 43.5437 72.093 43.601 72.0876C43.6582 72.0822 43.7153 72.0995 43.76 72.1357C43.8047 72.1719 43.8335 72.2242 43.8401 72.2813L43.9069 72.9883C43.9102 73.0231 43.9217 73.0565 43.9405 73.0859C43.9592 73.1153 43.9848 73.1398 44.0149 73.1574C44.045 73.175 44.0789 73.1852 44.1138 73.1871C44.1486 73.189 44.1834 73.1826 44.2153 73.1683L45.9404 72.3987C45.978 72.3809 46.0072 72.349 46.0216 72.3099C46.036 72.2708 46.0345 72.2278 46.0173 72.1899ZM39.8997 76.4167C39.8979 76.4738 39.874 76.528 39.833 76.5678C39.792 76.6076 39.7371 76.6298 39.6799 76.6298C39.6228 76.6298 39.5679 76.6076 39.5269 76.5678C39.4859 76.528 39.462 76.4738 39.4602 76.4167V74.2011L39.2469 74.333C39.1974 74.3623 39.1384 74.3709 39.0825 74.3572C39.0267 74.3434 38.9785 74.3082 38.9482 74.2593C38.918 74.2103 38.9082 74.1515 38.921 74.0954C38.9337 74.0392 38.9679 73.9904 39.0163 73.9592L39.5635 73.6184C39.597 73.5985 39.6351 73.5877 39.674 73.5872C39.713 73.5866 39.7514 73.5963 39.7854 73.6152C39.8195 73.6341 39.8479 73.6616 39.868 73.695C39.8881 73.7284 39.8991 73.7664 39.8999 73.8054L39.8997 76.4167ZM41.4803 76.4167C41.4803 76.475 41.4571 76.5309 41.4159 76.5721C41.3747 76.6133 41.3187 76.6365 41.2604 76.6365C41.2021 76.6365 41.1462 76.6133 41.105 76.5721C41.0638 76.5309 41.0406 76.475 41.0406 76.4167V74.2011L40.8275 74.333C40.778 74.3636 40.7183 74.3732 40.6616 74.3598C40.6049 74.3465 40.5559 74.3111 40.5253 74.2615C40.4946 74.212 40.485 74.1523 40.4984 74.0956C40.5118 74.0389 40.5471 73.9899 40.5967 73.9592L41.1439 73.6184C41.1774 73.5985 41.2155 73.5877 41.2544 73.5872C41.2934 73.5866 41.3318 73.5963 41.3658 73.6152C41.3998 73.6341 41.4283 73.6616 41.4484 73.695C41.4685 73.7284 41.4795 73.7664 41.4803 73.8054V76.4167Z" fill="#FAFAFA"/>
<path d="M39.8997 76.4167C39.8979 76.4738 39.874 76.528 39.833 76.5678C39.792 76.6076 39.7371 76.6298 39.6799 76.6298C39.6228 76.6298 39.5679 76.6076 39.5269 76.5678C39.4859 76.528 39.462 76.4738 39.4602 76.4167V74.2011L39.2469 74.333C39.1974 74.3623 39.1384 74.3709 39.0825 74.3572C39.0267 74.3434 38.9785 74.3082 38.9482 74.2593C38.918 74.2103 38.9082 74.1515 38.921 74.0954C38.9337 74.0392 38.9679 73.9904 39.0163 73.9592L39.5635 73.6184C39.597 73.5985 39.6351 73.5877 39.674 73.5872C39.713 73.5866 39.7514 73.5963 39.7854 73.6152C39.8195 73.6341 39.8479 73.6616 39.868 73.695C39.8881 73.7284 39.8991 73.7664 39.8999 73.8054L39.8997 76.4167Z" fill="#FAFAFA"/>
<path d="M41.4803 76.4167C41.4803 76.475 41.4571 76.5309 41.4159 76.5721C41.3747 76.6133 41.3187 76.6365 41.2604 76.6365C41.2021 76.6365 41.1462 76.6133 41.105 76.5721C41.0638 76.5309 41.0406 76.475 41.0406 76.4167V74.2011L40.8275 74.333C40.778 74.3636 40.7183 74.3732 40.6616 74.3598C40.6049 74.3465 40.5559 74.3111 40.5253 74.2615C40.4946 74.212 40.485 74.1523 40.4984 74.0956C40.5118 74.0389 40.5471 73.9899 40.5967 73.9592L41.1439 73.6184C41.1774 73.5985 41.2155 73.5877 41.2544 73.5872C41.2934 73.5866 41.3318 73.5963 41.3658 73.6152C41.3998 73.6341 41.4283 73.6616 41.4484 73.695C41.4685 73.7284 41.4795 73.7664 41.4803 73.8054V76.4167Z" fill="#FAFAFA"/>
<path d="M39.2864 73.8965H41.5781" stroke="#191919" stroke-width="0.343756" stroke-linecap="round" stroke-linejoin="round"/>
<path d="M40.4324 75.0437V72.752" stroke="#191919" stroke-width="0.343756" stroke-linecap="round" stroke-linejoin="round"/>
</g>
<g clip-path="url(#clip1_9669_18265)">
<path d="M9.33792 48.8673C9.70681 48.8668 10.0605 48.7201 10.3213 48.4593C10.5821 48.1984 10.7289 47.8448 10.7293 47.4759V46.9944C9.80916 47.1677 8.86412 47.161 7.94653 46.9746V47.4759C7.94697 47.8448 8.0937 48.1984 8.35454 48.4593C8.61538 48.7201 8.96903 48.8668 9.33792 48.8673Z" fill="#FAFAFA"/>
<path d="M15.0378 51.6215L13.8969 49.2233C13.6817 48.7743 13.3026 48.425 12.8376 48.2472L11.9669 47.9154C11.6223 47.8135 11.3709 47.4088 11.1688 47.1328V47.4102C11.177 47.666 11.1319 47.9208 11.0361 48.1582C10.9404 48.3956 10.7962 48.6104 10.6128 48.789C10.4294 48.9675 10.2108 49.1059 9.97096 49.1953C9.73109 49.2846 9.47522 49.323 9.21969 49.3079C8.96416 49.2928 8.71458 49.2247 8.48688 49.1077C8.25917 48.9908 8.05834 48.8277 7.8972 48.6288C7.73605 48.4299 7.61814 48.1997 7.55099 47.9526C7.48383 47.7056 7.4689 47.4473 7.50715 47.1942C7.35659 47.4837 7.11034 47.7121 6.81034 47.8404L5.99473 48.1329C5.5266 48.2985 5.14066 48.6388 4.91767 49.0824L3.63813 51.6215C3.62036 51.66 3.61847 51.7039 3.63288 51.7438C3.64728 51.7837 3.67681 51.8163 3.71508 51.8346L5.41936 52.6096C5.45137 52.6242 5.48642 52.6309 5.52156 52.6291C5.55671 52.6274 5.59091 52.6172 5.62131 52.5995C5.65171 52.5818 5.67741 52.557 5.69626 52.5273C5.7151 52.4976 5.72653 52.4638 5.7296 52.4287L5.79226 51.7144C5.79879 51.6571 5.82744 51.6046 5.87211 51.5681C5.91678 51.5316 5.97392 51.514 6.03138 51.519C6.08884 51.524 6.14206 51.5513 6.1797 51.595C6.21735 51.6387 6.23645 51.6954 6.23292 51.7529L5.70225 57.7851C5.70203 57.8279 5.71061 57.8703 5.72744 57.9097C5.74427 57.9491 5.769 57.9847 5.80011 58.0141C5.83121 58.0436 5.86803 58.0663 5.90828 58.081C5.94853 58.0957 5.99136 58.1019 6.03412 58.0994H12.6594C12.7023 58.1019 12.7454 58.0956 12.7858 58.0808C12.8262 58.066 12.8631 58.0431 12.8942 58.0133C12.9254 57.9836 12.9501 57.9479 12.9667 57.9082C12.9834 57.8685 12.9918 57.8259 12.9913 57.7828C12.8974 56.7762 12.5088 52.671 12.4226 51.7542C12.4185 51.6968 12.437 51.6401 12.4741 51.5962C12.5113 51.5523 12.5642 51.5247 12.6215 51.5193C12.6787 51.5139 12.7358 51.5311 12.7805 51.5673C12.8252 51.6035 12.854 51.6558 12.8606 51.7129L12.9274 52.42C12.9307 52.4547 12.9422 52.4882 12.961 52.5176C12.9797 52.547 13.0053 52.5715 13.0354 52.5891C13.0655 52.6067 13.0994 52.6168 13.1343 52.6187C13.1691 52.6206 13.2039 52.6142 13.2358 52.6L14.9609 51.8303C14.9986 51.8125 15.0277 51.7806 15.0421 51.7415C15.0565 51.7024 15.055 51.6595 15.0378 51.6215ZM8.92017 55.8483C8.91843 55.9054 8.89452 55.9596 8.85351 55.9994C8.81249 56.0392 8.7576 56.0614 8.70046 56.0614C8.64331 56.0614 8.58842 56.0392 8.5474 55.9994C8.50639 55.9596 8.48248 55.9054 8.48074 55.8483V53.6328L8.26745 53.7646C8.21793 53.7939 8.1589 53.8026 8.10304 53.7888C8.04719 53.775 7.99897 53.7399 7.96875 53.6909C7.93854 53.642 7.92874 53.5831 7.94147 53.527C7.9542 53.4709 7.98843 53.422 8.03681 53.3909L8.58401 53.05C8.61749 53.0301 8.65561 53.0194 8.69454 53.0188C8.73348 53.0183 8.77189 53.0279 8.80593 53.0468C8.83997 53.0658 8.86845 53.0933 8.88853 53.1266C8.90861 53.16 8.9196 53.1981 8.92038 53.237L8.92017 55.8483ZM10.5008 55.8483C10.5008 55.9066 10.4776 55.9625 10.4364 56.0038C10.3952 56.045 10.3392 56.0681 10.2809 56.0681C10.2226 56.0681 10.1667 56.045 10.1255 56.0038C10.0843 55.9625 10.0611 55.9066 10.0611 55.8483V53.6328L9.84804 53.7646C9.79848 53.7952 9.73879 53.8049 9.6821 53.7915C9.62541 53.7781 9.57637 53.7427 9.54576 53.6932C9.51515 53.6436 9.50548 53.5839 9.51887 53.5272C9.53227 53.4705 9.56764 53.4215 9.61719 53.3909L10.1644 53.05C10.1979 53.0301 10.236 53.0194 10.2749 53.0188C10.3139 53.0183 10.3523 53.0279 10.3863 53.0468C10.4204 53.0658 10.4488 53.0933 10.4689 53.1266C10.489 53.16 10.5 53.1981 10.5008 53.237V55.8483Z" fill="#FAFAFA"/>
<path d="M8.92017 55.8483C8.91843 55.9054 8.89452 55.9596 8.85351 55.9994C8.81249 56.0392 8.7576 56.0614 8.70046 56.0614C8.64331 56.0614 8.58842 56.0392 8.5474 55.9994C8.50639 55.9596 8.48248 55.9054 8.48074 55.8483V53.6328L8.26745 53.7646C8.21793 53.7939 8.1589 53.8026 8.10304 53.7888C8.04719 53.775 7.99897 53.7399 7.96875 53.6909C7.93854 53.642 7.92874 53.5831 7.94147 53.527C7.9542 53.4709 7.98843 53.422 8.03681 53.3909L8.58401 53.05C8.61749 53.0301 8.65561 53.0194 8.69454 53.0188C8.73348 53.0183 8.77189 53.0279 8.80593 53.0468C8.83997 53.0658 8.86845 53.0933 8.88853 53.1266C8.90861 53.16 8.9196 53.1981 8.92038 53.237L8.92017 55.8483Z" fill="#FAFAFA"/>
<path d="M10.5008 55.8483C10.5008 55.9066 10.4776 55.9625 10.4364 56.0038C10.3952 56.045 10.3392 56.0681 10.2809 56.0681C10.2226 56.0681 10.1667 56.045 10.1255 56.0038C10.0843 55.9625 10.0611 55.9066 10.0611 55.8483V53.6328L9.84804 53.7646C9.79848 53.7952 9.73879 53.8049 9.6821 53.7915C9.62541 53.7781 9.57637 53.7427 9.54576 53.6932C9.51515 53.6436 9.50548 53.5839 9.51887 53.5272C9.53227 53.4705 9.56764 53.4215 9.61719 53.3909L10.1644 53.05C10.1979 53.0301 10.236 53.0194 10.2749 53.0188C10.3139 53.0183 10.3523 53.0279 10.3863 53.0468C10.4204 53.0658 10.4488 53.0933 10.4689 53.1266C10.489 53.16 10.5 53.1981 10.5008 53.237V55.8483Z" fill="#FAFAFA"/>
<path d="M8.30688 53.332H10.5986" stroke="#191919" stroke-width="0.343756" stroke-linecap="round" stroke-linejoin="round"/>
<path d="M9.45288 54.4792V52.1875" stroke="#191919" stroke-width="0.343756" stroke-linecap="round" stroke-linejoin="round"/>
</g>
<g clip-path="url(#clip2_9669_18265)">
<path d="M70.4195 48.8673C70.7883 48.8668 71.142 48.7201 71.4028 48.4593C71.6637 48.1984 71.8104 47.8448 71.8108 47.4759V46.9944C70.8907 47.1677 69.9457 47.161 69.0281 46.9746V47.4759C69.0285 47.8448 69.1752 48.1984 69.4361 48.4593C69.6969 48.7201 70.0506 48.8668 70.4195 48.8673Z" fill="#FAFAFA"/>
<path d="M76.1194 51.6215L74.9784 49.2233C74.7632 48.7743 74.3841 48.425 73.9191 48.2472L73.0484 47.9154C72.7039 47.8135 72.4524 47.4088 72.2503 47.1328V47.4102C72.2586 47.666 72.2134 47.9208 72.1177 48.1582C72.022 48.3956 71.8778 48.6104 71.6944 48.789C71.511 48.9675 71.2924 49.1059 71.0525 49.1953C70.8126 49.2846 70.5568 49.323 70.3012 49.3079C70.0457 49.2928 69.7961 49.2247 69.5684 49.1077C69.3407 48.9908 69.1399 48.8277 68.9787 48.6288C68.8176 48.4299 68.6997 48.1997 68.6325 47.9526C68.5654 47.7056 68.5504 47.4473 68.5887 47.1942C68.4381 47.4837 68.1919 47.7121 67.8919 47.8404L67.0763 48.1329C66.6081 48.2985 66.2222 48.6388 65.9992 49.0824L64.7197 51.6215C64.7019 51.66 64.7 51.7039 64.7144 51.7438C64.7288 51.7837 64.7584 51.8163 64.7966 51.8346L66.5009 52.6096C66.5329 52.6242 66.568 52.6309 66.6031 52.6291C66.6382 52.6274 66.6725 52.6172 66.7029 52.5995C66.7333 52.5818 66.759 52.557 66.7778 52.5273C66.7966 52.4976 66.8081 52.4638 66.8111 52.4287L66.8738 51.7144C66.8803 51.6571 66.909 51.6046 66.9537 51.5681C66.9983 51.5316 67.0555 51.514 67.1129 51.519C67.1704 51.524 67.2236 51.5513 67.2612 51.595C67.2989 51.6387 67.318 51.6954 67.3145 51.7529L66.7838 57.7851C66.7836 57.8279 66.7922 57.8703 66.809 57.9097C66.8258 57.9491 66.8505 57.9847 66.8816 58.0141C66.9128 58.0436 66.9496 58.0663 66.9898 58.081C67.0301 58.0957 67.0729 58.1019 67.1157 58.0994H73.7409C73.7839 58.1019 73.8269 58.0956 73.8673 58.0808C73.9077 58.066 73.9446 58.0431 73.9758 58.0133C74.0069 57.9836 74.0316 57.9479 74.0483 57.9082C74.065 57.8685 74.0733 57.8259 74.0728 57.7828C73.9789 56.7762 73.5903 52.671 73.5042 51.7542C73.5 51.6968 73.5185 51.6401 73.5557 51.5962C73.5929 51.5523 73.6457 51.5247 73.703 51.5193C73.7603 51.5139 73.8174 51.5311 73.8621 51.5673C73.9068 51.6035 73.9355 51.6558 73.9422 51.7129L74.0089 52.42C74.0122 52.4547 74.0237 52.4882 74.0425 52.5176C74.0613 52.547 74.0868 52.5715 74.1169 52.5891C74.1471 52.6067 74.181 52.6168 74.2158 52.6187C74.2507 52.6206 74.2855 52.6142 74.3173 52.6L76.0424 51.8303C76.0801 51.8125 76.1093 51.7806 76.1237 51.7415C76.1381 51.7024 76.1365 51.6595 76.1194 51.6215ZM70.0017 55.8483C70 55.9054 69.9761 55.9596 69.9351 55.9994C69.894 56.0392 69.8391 56.0614 69.782 56.0614C69.7249 56.0614 69.67 56.0392 69.6289 55.9994C69.5879 55.9596 69.564 55.9054 69.5623 55.8483V53.6328L69.349 53.7646C69.2995 53.7939 69.2404 53.8026 69.1846 53.7888C69.1287 53.775 69.0805 53.7399 69.0503 53.6909C69.0201 53.642 69.0103 53.5831 69.023 53.527C69.0357 53.4709 69.07 53.422 69.1183 53.3909L69.6656 53.05C69.699 53.0301 69.7371 53.0194 69.7761 53.0188C69.815 53.0183 69.8534 53.0279 69.8875 53.0468C69.9215 53.0658 69.95 53.0933 69.9701 53.1266C69.9902 53.16 70.0011 53.1981 70.0019 53.237L70.0017 55.8483ZM71.5823 55.8483C71.5823 55.9066 71.5591 55.9625 71.5179 56.0038C71.4767 56.045 71.4208 56.0681 71.3625 56.0681C71.3042 56.0681 71.2483 56.045 71.2071 56.0038C71.1658 55.9625 71.1427 55.9066 71.1427 55.8483V53.6328L70.9296 53.7646C70.88 53.7952 70.8203 53.8049 70.7636 53.7915C70.707 53.7781 70.6579 53.7427 70.6273 53.6932C70.5967 53.6436 70.587 53.5839 70.6004 53.5272C70.6138 53.4705 70.6492 53.4215 70.6987 53.3909L71.2459 53.05C71.2794 53.0301 71.3175 53.0194 71.3565 53.0188C71.3954 53.0183 71.4338 53.0279 71.4679 53.0468C71.5019 53.0658 71.5304 53.0933 71.5505 53.1266C71.5705 53.16 71.5815 53.1981 71.5823 53.237V55.8483Z" fill="#FAFAFA"/>
<path d="M70.0017 55.8483C70 55.9054 69.9761 55.9596 69.9351 55.9994C69.894 56.0392 69.8391 56.0614 69.782 56.0614C69.7249 56.0614 69.67 56.0392 69.6289 55.9994C69.5879 55.9596 69.564 55.9054 69.5623 55.8483V53.6328L69.349 53.7646C69.2995 53.7939 69.2404 53.8026 69.1846 53.7888C69.1287 53.775 69.0805 53.7399 69.0503 53.6909C69.0201 53.642 69.0103 53.5831 69.023 53.527C69.0357 53.4709 69.07 53.422 69.1183 53.3909L69.6656 53.05C69.699 53.0301 69.7371 53.0194 69.7761 53.0188C69.815 53.0183 69.8534 53.0279 69.8875 53.0468C69.9215 53.0658 69.95 53.0933 69.9701 53.1266C69.9902 53.16 70.0011 53.1981 70.0019 53.237L70.0017 55.8483Z" fill="#FAFAFA"/>
<path d="M71.5823 55.8483C71.5823 55.9066 71.5591 55.9625 71.5179 56.0038C71.4767 56.045 71.4208 56.0681 71.3625 56.0681C71.3042 56.0681 71.2483 56.045 71.2071 56.0038C71.1658 55.9625 71.1427 55.9066 71.1427 55.8483V53.6328L70.9296 53.7646C70.88 53.7952 70.8203 53.8049 70.7636 53.7915C70.707 53.7781 70.6579 53.7427 70.6273 53.6932C70.5967 53.6436 70.587 53.5839 70.6004 53.5272C70.6138 53.4705 70.6492 53.4215 70.6987 53.3909L71.2459 53.05C71.2794 53.0301 71.3175 53.0194 71.3565 53.0188C71.3954 53.0183 71.4338 53.0279 71.4679 53.0468C71.5019 53.0658 71.5304 53.0933 71.5505 53.1266C71.5705 53.16 71.5815 53.1981 71.5823 53.237V55.8483Z" fill="#FAFAFA"/>
<path d="M69.3884 53.332H71.6801" stroke="#191919" stroke-width="0.343756" stroke-linecap="round" stroke-linejoin="round"/>
<path d="M70.5344 54.4792V52.1875" stroke="#191919" stroke-width="0.343756" stroke-linecap="round" stroke-linejoin="round"/>
</g>
<g clip-path="url(#clip3_9669_18265)">
<path d="M50.4195 52.8673C50.7883 52.8668 51.142 52.7201 51.4028 52.4593C51.6637 52.1984 51.8104 51.8448 51.8108 51.4759V50.9944C50.8907 51.1677 49.9457 51.161 49.0281 50.9746V51.4759C49.0285 51.8448 49.1752 52.1984 49.4361 52.4593C49.6969 52.7201 50.0506 52.8668 50.4195 52.8673Z" fill="#FAFAFA"/>
<path d="M56.1194 55.6215L54.9784 53.2233C54.7632 52.7743 54.3841 52.425 53.9191 52.2472L53.0484 51.9154C52.7039 51.8135 52.4524 51.4088 52.2503 51.1328V51.4102C52.2586 51.666 52.2134 51.9208 52.1177 52.1582C52.022 52.3956 51.8778 52.6104 51.6944 52.789C51.511 52.9675 51.2924 53.1059 51.0525 53.1953C50.8126 53.2846 50.5568 53.323 50.3012 53.3079C50.0457 53.2928 49.7961 53.2247 49.5684 53.1077C49.3407 52.9908 49.1399 52.8277 48.9787 52.6288C48.8176 52.4299 48.6997 52.1997 48.6325 51.9526C48.5654 51.7056 48.5504 51.4473 48.5887 51.1942C48.4381 51.4837 48.1919 51.7121 47.8919 51.8404L47.0763 52.1329C46.6081 52.2985 46.2222 52.6388 45.9992 53.0824L44.7197 55.6215C44.7019 55.66 44.7 55.7039 44.7144 55.7438C44.7288 55.7837 44.7584 55.8163 44.7966 55.8346L46.5009 56.6096C46.5329 56.6242 46.568 56.6309 46.6031 56.6291C46.6382 56.6274 46.6725 56.6172 46.7029 56.5995C46.7333 56.5818 46.759 56.557 46.7778 56.5273C46.7966 56.4976 46.8081 56.4638 46.8111 56.4287L46.8738 55.7144C46.8803 55.6571 46.909 55.6046 46.9537 55.5681C46.9983 55.5316 47.0555 55.514 47.1129 55.519C47.1704 55.524 47.2236 55.5513 47.2612 55.595C47.2989 55.6387 47.318 55.6954 47.3145 55.7529L46.7838 61.7851C46.7836 61.8279 46.7922 61.8703 46.809 61.9097C46.8258 61.9491 46.8505 61.9847 46.8816 62.0141C46.9128 62.0436 46.9496 62.0663 46.9898 62.081C47.0301 62.0957 47.0729 62.1019 47.1157 62.0994H53.7409C53.7839 62.1019 53.8269 62.0956 53.8673 62.0808C53.9077 62.066 53.9446 62.0431 53.9758 62.0133C54.0069 61.9836 54.0316 61.9479 54.0483 61.9082C54.065 61.8685 54.0733 61.8259 54.0728 61.7828C53.9789 60.7762 53.5903 56.671 53.5042 55.7542C53.5 55.6968 53.5185 55.6401 53.5557 55.5962C53.5929 55.5523 53.6457 55.5247 53.703 55.5193C53.7603 55.5139 53.8174 55.5311 53.8621 55.5673C53.9068 55.6035 53.9355 55.6558 53.9422 55.7129L54.0089 56.42C54.0122 56.4547 54.0237 56.4882 54.0425 56.5176C54.0613 56.547 54.0868 56.5715 54.1169 56.5891C54.1471 56.6067 54.181 56.6168 54.2158 56.6187C54.2507 56.6206 54.2855 56.6142 54.3173 56.6L56.0424 55.8303C56.0801 55.8125 56.1093 55.7806 56.1237 55.7415C56.1381 55.7024 56.1365 55.6595 56.1194 55.6215ZM50.0017 59.8483C50 59.9054 49.9761 59.9596 49.9351 59.9994C49.894 60.0392 49.8391 60.0614 49.782 60.0614C49.7249 60.0614 49.67 60.0392 49.6289 59.9994C49.5879 59.9596 49.564 59.9054 49.5623 59.8483V57.6328L49.349 57.7646C49.2995 57.7939 49.2404 57.8026 49.1846 57.7888C49.1287 57.775 49.0805 57.7399 49.0503 57.6909C49.0201 57.642 49.0103 57.5831 49.023 57.527C49.0357 57.4709 49.07 57.422 49.1183 57.3909L49.6656 57.05C49.699 57.0301 49.7371 57.0194 49.7761 57.0188C49.815 57.0183 49.8534 57.0279 49.8875 57.0468C49.9215 57.0658 49.95 57.0933 49.9701 57.1266C49.9902 57.16 50.0011 57.1981 50.0019 57.237L50.0017 59.8483ZM51.5823 59.8483C51.5823 59.9066 51.5591 59.9625 51.5179 60.0038C51.4767 60.045 51.4208 60.0681 51.3625 60.0681C51.3042 60.0681 51.2483 60.045 51.2071 60.0038C51.1658 59.9625 51.1427 59.9066 51.1427 59.8483V57.6328L50.9296 57.7646C50.88 57.7952 50.8203 57.8049 50.7636 57.7915C50.707 57.7781 50.6579 57.7427 50.6273 57.6932C50.5967 57.6436 50.587 57.5839 50.6004 57.5272C50.6138 57.4705 50.6492 57.4215 50.6987 57.3909L51.2459 57.05C51.2794 57.0301 51.3175 57.0194 51.3565 57.0188C51.3954 57.0183 51.4338 57.0279 51.4679 57.0468C51.5019 57.0658 51.5304 57.0933 51.5505 57.1266C51.5705 57.16 51.5815 57.1981 51.5823 57.237V59.8483Z" fill="#FAFAFA"/>
<path d="M50.0017 59.8483C50 59.9054 49.9761 59.9596 49.9351 59.9994C49.894 60.0392 49.8391 60.0614 49.782 60.0614C49.7249 60.0614 49.67 60.0392 49.6289 59.9994C49.5879 59.9596 49.564 59.9054 49.5623 59.8483V57.6328L49.349 57.7646C49.2995 57.7939 49.2404 57.8026 49.1846 57.7888C49.1287 57.775 49.0805 57.7399 49.0503 57.6909C49.0201 57.642 49.0103 57.5831 49.023 57.527C49.0357 57.4709 49.07 57.422 49.1183 57.3909L49.6656 57.05C49.699 57.0301 49.7371 57.0194 49.7761 57.0188C49.815 57.0183 49.8534 57.0279 49.8875 57.0468C49.9215 57.0658 49.95 57.0933 49.9701 57.1266C49.9902 57.16 50.0011 57.1981 50.0019 57.237L50.0017 59.8483Z" fill="#FAFAFA"/>
<path d="M51.5823 59.8483C51.5823 59.9066 51.5591 59.9625 51.5179 60.0038C51.4767 60.045 51.4208 60.0681 51.3625 60.0681C51.3042 60.0681 51.2483 60.045 51.2071 60.0038C51.1658 59.9625 51.1427 59.9066 51.1427 59.8483V57.6328L50.9296 57.7646C50.88 57.7952 50.8203 57.8049 50.7636 57.7915C50.707 57.7781 50.6579 57.7427 50.6273 57.6932C50.5967 57.6436 50.587 57.5839 50.6004 57.5272C50.6138 57.4705 50.6492 57.4215 50.6987 57.3909L51.2459 57.05C51.2794 57.0301 51.3175 57.0194 51.3565 57.0188C51.3954 57.0183 51.4338 57.0279 51.4679 57.0468C51.5019 57.0658 51.5304 57.0933 51.5505 57.1266C51.5705 57.16 51.5815 57.1981 51.5823 57.237V59.8483Z" fill="#FAFAFA"/>
<path d="M49.3884 57.332H51.6801" stroke="#191919" stroke-width="0.343756" stroke-linecap="round" stroke-linejoin="round"/>
<path d="M50.5344 58.4792V56.1875" stroke="#191919" stroke-width="0.343756" stroke-linecap="round" stroke-linejoin="round"/>
</g>
<g clip-path="url(#clip4_9669_18265)">
<path d="M30.4195 52.8673C30.7883 52.8668 31.142 52.7201 31.4028 52.4593C31.6637 52.1984 31.8104 51.8448 31.8108 51.4759V50.9944C30.8907 51.1677 29.9457 51.161 29.0281 50.9746V51.4759C29.0285 51.8448 29.1752 52.1984 29.4361 52.4593C29.6969 52.7201 30.0506 52.8668 30.4195 52.8673Z" fill="#FAFAFA"/>
<path d="M36.1194 55.6215L34.9784 53.2233C34.7632 52.7743 34.3841 52.425 33.9191 52.2472L33.0484 51.9154C32.7039 51.8135 32.4524 51.4088 32.2503 51.1328V51.4102C32.2586 51.666 32.2134 51.9208 32.1177 52.1582C32.022 52.3956 31.8778 52.6104 31.6944 52.789C31.511 52.9675 31.2924 53.1059 31.0525 53.1953C30.8126 53.2846 30.5568 53.323 30.3012 53.3079C30.0457 53.2928 29.7961 53.2247 29.5684 53.1077C29.3407 52.9908 29.1399 52.8277 28.9787 52.6288C28.8176 52.4299 28.6997 52.1997 28.6325 51.9526C28.5654 51.7056 28.5504 51.4473 28.5887 51.1942C28.4381 51.4837 28.1919 51.7121 27.8919 51.8404L27.0763 52.1329C26.6081 52.2985 26.2222 52.6388 25.9992 53.0824L24.7197 55.6215C24.7019 55.66 24.7 55.7039 24.7144 55.7438C24.7288 55.7837 24.7584 55.8163 24.7966 55.8346L26.5009 56.6096C26.5329 56.6242 26.568 56.6309 26.6031 56.6291C26.6382 56.6274 26.6725 56.6172 26.7029 56.5995C26.7333 56.5818 26.759 56.557 26.7778 56.5273C26.7966 56.4976 26.8081 56.4638 26.8111 56.4287L26.8738 55.7144C26.8803 55.6571 26.909 55.6046 26.9537 55.5681C26.9983 55.5316 27.0555 55.514 27.1129 55.519C27.1704 55.524 27.2236 55.5513 27.2612 55.595C27.2989 55.6387 27.318 55.6954 27.3145 55.7529L26.7838 61.7851C26.7836 61.8279 26.7922 61.8703 26.809 61.9097C26.8258 61.9491 26.8505 61.9847 26.8816 62.0141C26.9128 62.0436 26.9496 62.0663 26.9898 62.081C27.0301 62.0957 27.0729 62.1019 27.1157 62.0994H33.7409C33.7839 62.1019 33.8269 62.0956 33.8673 62.0808C33.9077 62.066 33.9446 62.0431 33.9758 62.0133C34.0069 61.9836 34.0316 61.9479 34.0483 61.9082C34.065 61.8685 34.0733 61.8259 34.0728 61.7828C33.9789 60.7762 33.5903 56.671 33.5042 55.7542C33.5 55.6968 33.5185 55.6401 33.5557 55.5962C33.5929 55.5523 33.6457 55.5247 33.703 55.5193C33.7603 55.5139 33.8174 55.5311 33.8621 55.5673C33.9068 55.6035 33.9355 55.6558 33.9422 55.7129L34.0089 56.42C34.0122 56.4547 34.0237 56.4882 34.0425 56.5176C34.0613 56.547 34.0868 56.5715 34.1169 56.5891C34.1471 56.6067 34.181 56.6168 34.2158 56.6187C34.2507 56.6206 34.2855 56.6142 34.3173 56.6L36.0424 55.8303C36.0801 55.8125 36.1093 55.7806 36.1237 55.7415C36.1381 55.7024 36.1365 55.6595 36.1194 55.6215ZM30.0017 59.8483C30 59.9054 29.9761 59.9596 29.9351 59.9994C29.894 60.0392 29.8391 60.0614 29.782 60.0614C29.7249 60.0614 29.67 60.0392 29.6289 59.9994C29.5879 59.9596 29.564 59.9054 29.5623 59.8483V57.6328L29.349 57.7646C29.2995 57.7939 29.2404 57.8026 29.1846 57.7888C29.1287 57.775 29.0805 57.7399 29.0503 57.6909C29.0201 57.642 29.0103 57.5831 29.023 57.527C29.0357 57.4709 29.07 57.422 29.1183 57.3909L29.6656 57.05C29.699 57.0301 29.7371 57.0194 29.7761 57.0188C29.815 57.0183 29.8534 57.0279 29.8875 57.0468C29.9215 57.0658 29.95 57.0933 29.9701 57.1266C29.9902 57.16 30.0011 57.1981 30.0019 57.237L30.0017 59.8483ZM31.5823 59.8483C31.5823 59.9066 31.5591 59.9625 31.5179 60.0038C31.4767 60.045 31.4208 60.0681 31.3625 60.0681C31.3042 60.0681 31.2483 60.045 31.2071 60.0038C31.1658 59.9625 31.1427 59.9066 31.1427 59.8483V57.6328L30.9296 57.7646C30.88 57.7952 30.8203 57.8049 30.7636 57.7915C30.707 57.7781 30.6579 57.7427 30.6273 57.6932C30.5967 57.6436 30.587 57.5839 30.6004 57.5272C30.6138 57.4705 30.6492 57.4215 30.6987 57.3909L31.2459 57.05C31.2794 57.0301 31.3175 57.0194 31.3565 57.0188C31.3954 57.0183 31.4338 57.0279 31.4679 57.0468C31.5019 57.0658 31.5304 57.0933 31.5505 57.1266C31.5705 57.16 31.5815 57.1981 31.5823 57.237V59.8483Z" fill="#FAFAFA"/>
<path d="M30.0017 59.8483C30 59.9054 29.9761 59.9596 29.9351 59.9994C29.894 60.0392 29.8391 60.0614 29.782 60.0614C29.7249 60.0614 29.67 60.0392 29.6289 59.9994C29.5879 59.9596 29.564 59.9054 29.5623 59.8483V57.6328L29.349 57.7646C29.2995 57.7939 29.2404 57.8026 29.1846 57.7888C29.1287 57.775 29.0805 57.7399 29.0503 57.6909C29.0201 57.642 29.0103 57.5831 29.023 57.527C29.0357 57.4709 29.07 57.422 29.1183 57.3909L29.6656 57.05C29.699 57.0301 29.7371 57.0194 29.7761 57.0188C29.815 57.0183 29.8534 57.0279 29.8875 57.0468C29.9215 57.0658 29.95 57.0933 29.9701 57.1266C29.9902 57.16 30.0011 57.1981 30.0019 57.237L30.0017 59.8483Z" fill="#FAFAFA"/>
<path d="M31.5823 59.8483C31.5823 59.9066 31.5591 59.9625 31.5179 60.0038C31.4767 60.045 31.4208 60.0681 31.3625 60.0681C31.3042 60.0681 31.2483 60.045 31.2071 60.0038C31.1658 59.9625 31.1427 59.9066 31.1427 59.8483V57.6328L30.9296 57.7646C30.88 57.7952 30.8203 57.8049 30.7636 57.7915C30.707 57.7781 30.6579 57.7427 30.6273 57.6932C30.5967 57.6436 30.587 57.5839 30.6004 57.5272C30.6138 57.4705 30.6492 57.4215 30.6987 57.3909L31.2459 57.05C31.2794 57.0301 31.3175 57.0194 31.3565 57.0188C31.3954 57.0183 31.4338 57.0279 31.4679 57.0468C31.5019 57.0658 31.5304 57.0933 31.5505 57.1266C31.5705 57.16 31.5815 57.1981 31.5823 57.237V59.8483Z" fill="#FAFAFA"/>
<path d="M29.3884 57.332H31.6801" stroke="#191919" stroke-width="0.343756" stroke-linecap="round" stroke-linejoin="round"/>
<path d="M30.5344 58.4792V56.1875" stroke="#191919" stroke-width="0.343756" stroke-linecap="round" stroke-linejoin="round"/>
</g>
<g clip-path="url(#clip5_9669_18265)">
<path d="M8.41946 5.86728C8.78835 5.86685 9.142 5.72012 9.40284 5.45927C9.66369 5.19843 9.81042 4.84478 9.81085 4.47589V3.99441C8.8907 4.16774 7.94567 4.16102 7.02808 3.97461V4.47589C7.02851 4.84478 7.17524 5.19843 7.43608 5.45927C7.69692 5.72012 8.05058 5.86685 8.41946 5.86728Z" fill="#FAFAFA"/>
<path d="M14.1194 8.6215L12.9784 6.22326C12.7632 5.77433 12.3841 5.42501 11.9191 5.24723L11.0484 4.91535C10.7039 4.8135 10.4524 4.40876 10.2503 4.13281V4.41019C10.2586 4.66603 10.2134 4.92078 10.1177 5.15818C10.022 5.39558 9.87779 5.61042 9.69439 5.78898C9.51098 5.96755 9.29237 6.10592 9.0525 6.19527C8.81263 6.28462 8.55677 6.32299 8.30124 6.30792C8.04571 6.29285 7.79613 6.22467 7.56842 6.10775C7.34071 5.99082 7.13988 5.82772 6.97874 5.62883C6.8176 5.42994 6.69969 5.19965 6.63253 4.95265C6.56537 4.70564 6.55044 4.44735 6.5887 4.19425C6.43813 4.48374 6.19188 4.7121 5.89188 4.84045L5.07628 5.13293C4.60814 5.29852 4.2222 5.63876 3.99921 6.08243L2.71967 8.6215C2.70191 8.66 2.70002 8.70395 2.71442 8.74383C2.72882 8.78371 2.75835 8.81632 2.79662 8.83458L4.5009 9.60957C4.53291 9.62418 4.56796 9.63089 4.60311 9.62913C4.63825 9.62738 4.67246 9.61722 4.70286 9.5995C4.73325 9.58178 4.75896 9.55702 4.7778 9.52731C4.79664 9.49759 4.80808 9.46379 4.81114 9.42873L4.8738 8.71437C4.88034 8.65706 4.90899 8.60457 4.95365 8.56808C4.99832 8.53159 5.05547 8.51399 5.11292 8.51902C5.17038 8.52405 5.2236 8.55131 5.26125 8.59501C5.29889 8.6387 5.31799 8.69537 5.31447 8.75294L4.78379 14.7851C4.78358 14.8279 4.79215 14.8703 4.80898 14.9097C4.82581 14.9491 4.85055 14.9847 4.88165 15.0141C4.91275 15.0436 4.94957 15.0663 4.98982 15.081C5.03007 15.0957 5.0729 15.1019 5.11567 15.0994H11.7409C11.7839 15.1019 11.8269 15.0956 11.8673 15.0808C11.9077 15.066 11.9446 15.0431 11.9758 15.0133C12.0069 14.9836 12.0316 14.9479 12.0483 14.9082C12.065 14.8685 12.0733 14.8259 12.0728 14.7828C11.9789 13.7762 11.5903 9.67101 11.5042 8.75417C11.5 8.69679 11.5185 8.64008 11.5557 8.59618C11.5929 8.55227 11.6457 8.52467 11.703 8.51928C11.7603 8.51389 11.8174 8.53114 11.8621 8.56734C11.9068 8.60353 11.9355 8.6558 11.9422 8.71294L12.0089 9.41996C12.0122 9.4547 12.0237 9.48815 12.0425 9.51756C12.0613 9.54697 12.0868 9.57148 12.1169 9.58908C12.1471 9.60667 12.181 9.61683 12.2158 9.61873C12.2507 9.62062 12.2855 9.6142 12.3173 9.59998L14.0424 8.8303C14.0801 8.81252 14.1093 8.78065 14.1237 8.74155C14.1381 8.70245 14.1365 8.65946 14.1194 8.6215ZM8.00172 12.8483C7.99998 12.9054 7.97607 12.9596 7.93505 12.9994C7.89403 13.0392 7.83914 13.0614 7.782 13.0614C7.72486 13.0614 7.66996 13.0392 7.62895 12.9994C7.58793 12.9596 7.56402 12.9054 7.56228 12.8483V10.6328L7.34899 10.7646C7.29947 10.7939 7.24044 10.8026 7.18458 10.7888C7.12873 10.775 7.08051 10.7399 7.0503 10.6909C7.02008 10.642 7.01029 10.5831 7.02301 10.527C7.03574 10.4709 7.06997 10.422 7.11835 10.3909L7.66556 10.05C7.69904 10.0301 7.73715 10.0194 7.77609 10.0188C7.81503 10.0183 7.85343 10.0279 7.88747 10.0468C7.92151 10.0658 7.94999 10.0933 7.97007 10.1266C7.99016 10.16 8.00114 10.1981 8.00192 10.237L8.00172 12.8483ZM9.58231 12.8483C9.58231 12.9066 9.55915 12.9625 9.51793 13.0038C9.4767 13.045 9.42079 13.0681 9.36249 13.0681C9.30419 13.0681 9.24828 13.045 9.20705 13.0038C9.16583 12.9625 9.14267 12.9066 9.14267 12.8483V10.6328L8.92958 10.7646C8.88002 10.7952 8.82033 10.8049 8.76365 10.7915C8.70696 10.7781 8.65791 10.7427 8.6273 10.6932C8.59669 10.6436 8.58702 10.5839 8.60042 10.5272C8.61381 10.4705 8.64918 10.4215 8.69874 10.3909L9.24594 10.05C9.27942 10.0301 9.31754 10.0194 9.35648 10.0188C9.39541 10.0183 9.43382 10.0279 9.46786 10.0468C9.5019 10.0658 9.53038 10.0933 9.55046 10.1266C9.57054 10.16 9.58153 10.1981 9.58231 10.237V12.8483Z" fill="#FAFAFA"/>
<path d="M8.00172 12.8483C7.99998 12.9054 7.97607 12.9596 7.93505 12.9994C7.89403 13.0392 7.83914 13.0614 7.782 13.0614C7.72486 13.0614 7.66996 13.0392 7.62895 12.9994C7.58793 12.9596 7.56402 12.9054 7.56228 12.8483V10.6328L7.34899 10.7646C7.29947 10.7939 7.24044 10.8026 7.18458 10.7888C7.12873 10.775 7.08051 10.7399 7.0503 10.6909C7.02008 10.642 7.01029 10.5831 7.02301 10.527C7.03574 10.4709 7.06997 10.422 7.11835 10.3909L7.66556 10.05C7.69904 10.0301 7.73715 10.0194 7.77609 10.0188C7.81503 10.0183 7.85343 10.0279 7.88747 10.0468C7.92151 10.0658 7.94999 10.0933 7.97007 10.1266C7.99016 10.16 8.00114 10.1981 8.00192 10.237L8.00172 12.8483Z" fill="#FAFAFA"/>
<path d="M9.58231 12.8483C9.58231 12.9066 9.55915 12.9625 9.51793 13.0038C9.4767 13.045 9.42079 13.0681 9.36249 13.0681C9.30419 13.0681 9.24828 13.045 9.20705 13.0038C9.16583 12.9625 9.14267 12.9066 9.14267 12.8483V10.6328L8.92958 10.7646C8.88002 10.7952 8.82033 10.8049 8.76365 10.7915C8.70696 10.7781 8.65791 10.7427 8.6273 10.6932C8.59669 10.6436 8.58702 10.5839 8.60042 10.5272C8.61381 10.4705 8.64918 10.4215 8.69874 10.3909L9.24594 10.05C9.27942 10.0301 9.31754 10.0194 9.35648 10.0188C9.39541 10.0183 9.43382 10.0279 9.46786 10.0468C9.5019 10.0658 9.53038 10.0933 9.55046 10.1266C9.57054 10.16 9.58153 10.1981 9.58231 10.237V12.8483Z" fill="#FAFAFA"/>
<path d="M7.38843 10.332H9.68014" stroke="#191919" stroke-width="0.343756" stroke-linecap="round" stroke-linejoin="round"/>
<path d="M8.53442 11.4792V9.1875" stroke="#191919" stroke-width="0.343756" stroke-linecap="round" stroke-linejoin="round"/>
</g>
<path d="M40.4822 18.8673C40.8511 18.8668 41.2047 18.7201 41.4656 18.4593C41.7264 18.1984 41.8732 17.8448 41.8736 17.4759V16.9944C40.9534 17.1677 40.0084 17.161 39.0908 16.9746V17.4759C39.0913 17.8448 39.238 18.1984 39.4988 18.4593C39.7597 18.7201 40.1133 18.8668 40.4822 18.8673Z" fill="#FAFAFA"/>
<path d="M46.1821 21.6215L45.0412 19.2233C44.826 18.7743 44.4469 18.425 43.9819 18.2472L43.1111 17.9154C42.7666 17.8135 42.5152 17.4088 42.3131 17.1328V17.4102C42.3213 17.666 42.2761 17.9208 42.1804 18.1582C42.0847 18.3956 41.9405 18.6104 41.7571 18.789C41.5737 18.9675 41.3551 19.1059 41.1152 19.1953C40.8754 19.2846 40.6195 19.323 40.364 19.3079C40.1085 19.2928 39.8589 19.2247 39.6312 19.1077C39.4035 18.9908 39.2026 18.8277 39.0415 18.6288C38.8803 18.4299 38.7624 18.1997 38.6953 17.9526C38.6281 17.7056 38.6132 17.4473 38.6514 17.1942C38.5009 17.4837 38.2546 17.7121 37.9546 17.8404L37.139 18.1329C36.6709 18.2985 36.2849 18.6388 36.062 19.0824L34.7824 21.6215C34.7646 21.66 34.7628 21.7039 34.7772 21.7438C34.7916 21.7837 34.8211 21.8163 34.8594 21.8346L36.5636 22.6096C36.5957 22.6242 36.6307 22.6309 36.6658 22.6291C36.701 22.6274 36.7352 22.6172 36.7656 22.5995C36.796 22.5818 36.8217 22.557 36.8405 22.5273C36.8594 22.4976 36.8708 22.4638 36.8739 22.4287L36.9365 21.7144C36.9431 21.6571 36.9717 21.6046 37.0164 21.5681C37.0611 21.5316 37.1182 21.514 37.1757 21.519C37.2331 21.524 37.2863 21.5513 37.324 21.595C37.3616 21.6387 37.3807 21.6954 37.3772 21.7529L36.8465 27.7851C36.8463 27.8279 36.8549 27.8703 36.8717 27.9097C36.8886 27.9491 36.9133 27.9847 36.9444 28.0141C36.9755 28.0436 37.0123 28.0663 37.0526 28.081C37.0928 28.0957 37.1356 28.1019 37.1784 28.0994H43.8037C43.8466 28.1019 43.8896 28.0956 43.9301 28.0808C43.9705 28.066 44.0074 28.0431 44.0385 28.0133C44.0697 27.9836 44.0943 27.9479 44.111 27.9082C44.1277 27.8685 44.1361 27.8259 44.1355 27.7828C44.0417 26.7762 43.653 22.671 43.5669 21.7542C43.5628 21.6968 43.5813 21.6401 43.6184 21.5962C43.6556 21.5523 43.7085 21.5247 43.7657 21.5193C43.823 21.5139 43.8801 21.5311 43.9248 21.5673C43.9695 21.6035 43.9983 21.6558 44.0049 21.7129L44.0717 22.42C44.075 22.4547 44.0865 22.4882 44.1053 22.5176C44.124 22.547 44.1496 22.5715 44.1797 22.5891C44.2098 22.6067 44.2437 22.6168 44.2786 22.6187C44.3134 22.6206 44.3482 22.6142 44.3801 22.6L46.1052 21.8303C46.1428 21.8125 46.172 21.7806 46.1864 21.7415C46.2008 21.7024 46.1993 21.6595 46.1821 21.6215ZM40.0645 25.8483C40.0627 25.9054 40.0388 25.9596 39.9978 25.9994C39.9568 26.0392 39.9019 26.0614 39.8447 26.0614C39.7876 26.0614 39.7327 26.0392 39.6917 25.9994C39.6507 25.9596 39.6268 25.9054 39.625 25.8483V23.6328L39.4117 23.7646C39.3622 23.7939 39.3032 23.8026 39.2473 23.7888C39.1915 23.775 39.1433 23.7399 39.113 23.6909C39.0828 23.642 39.073 23.5831 39.0858 23.527C39.0985 23.4709 39.1327 23.422 39.1811 23.3909L39.7283 23.05C39.7618 23.0301 39.7999 23.0194 39.8388 23.0188C39.8778 23.0183 39.9162 23.0279 39.9502 23.0468C39.9843 23.0658 40.0127 23.0933 40.0328 23.1266C40.0529 23.16 40.0639 23.1981 40.0647 23.237L40.0645 25.8483ZM41.6451 25.8483C41.6451 25.9066 41.6219 25.9625 41.5807 26.0038C41.5394 26.045 41.4835 26.0681 41.4252 26.0681C41.3669 26.0681 41.311 26.045 41.2698 26.0038C41.2286 25.9625 41.2054 25.9066 41.2054 25.8483V23.6328L40.9923 23.7646C40.9428 23.7952 40.8831 23.8049 40.8264 23.7915C40.7697 23.7781 40.7207 23.7427 40.69 23.6932C40.6594 23.6436 40.6498 23.5839 40.6632 23.5272C40.6766 23.4705 40.7119 23.4215 40.7615 23.3909L41.3087 23.05C41.3422 23.0301 41.3803 23.0194 41.4192 23.0188C41.4582 23.0183 41.4966 23.0279 41.5306 23.0468C41.5646 23.0658 41.5931 23.0933 41.6132 23.1266C41.6333 23.16 41.6443 23.1981 41.6451 23.237V25.8483Z" fill="#FAFAFA"/>
<path d="M40.0645 25.8483C40.0627 25.9054 40.0388 25.9596 39.9978 25.9994C39.9568 26.0392 39.9019 26.0614 39.8447 26.0614C39.7876 26.0614 39.7327 26.0392 39.6917 25.9994C39.6507 25.9596 39.6268 25.9054 39.625 25.8483V23.6328L39.4117 23.7646C39.3622 23.7939 39.3032 23.8026 39.2473 23.7888C39.1915 23.775 39.1433 23.7399 39.113 23.6909C39.0828 23.642 39.073 23.5831 39.0858 23.527C39.0985 23.4709 39.1327 23.422 39.1811 23.3909L39.7283 23.05C39.7618 23.0301 39.7999 23.0194 39.8388 23.0188C39.8778 23.0183 39.9162 23.0279 39.9502 23.0468C39.9843 23.0658 40.0127 23.0933 40.0328 23.1266C40.0529 23.16 40.0639 23.1981 40.0647 23.237L40.0645 25.8483Z" fill="#FAFAFA"/>
<path d="M41.6451 25.8483C41.6451 25.9066 41.6219 25.9625 41.5807 26.0038C41.5394 26.045 41.4835 26.0681 41.4252 26.0681C41.3669 26.0681 41.311 26.045 41.2698 26.0038C41.2286 25.9625 41.2054 25.9066 41.2054 25.8483V23.6328L40.9923 23.7646C40.9428 23.7952 40.8831 23.8049 40.8264 23.7915C40.7697 23.7781 40.7207 23.7427 40.69 23.6932C40.6594 23.6436 40.6498 23.5839 40.6632 23.5272C40.6766 23.4705 40.7119 23.4215 40.7615 23.3909L41.3087 23.05C41.3422 23.0301 41.3803 23.0194 41.4192 23.0188C41.4582 23.0183 41.4966 23.0279 41.5306 23.0468C41.5646 23.0658 41.5931 23.0933 41.6132 23.1266C41.6333 23.16 41.6443 23.1981 41.6451 23.237V25.8483Z" fill="#FAFAFA"/>
<path d="M39.4512 23.332H41.7429" stroke="#191919" stroke-width="0.343756" stroke-linecap="round" stroke-linejoin="round"/>
<path d="M40.5972 24.4792V22.1875" stroke="#191919" stroke-width="0.343756" stroke-linecap="round" stroke-linejoin="round"/>
<path d="M24.7408 32.8673C25.1096 32.8668 25.4633 32.7201 25.7241 32.4593C25.985 32.1984 26.1317 31.8448 26.1321 31.4759V30.9944C25.212 31.1677 24.267 31.161 23.3494 30.9746V31.4759C23.3498 31.8448 23.4965 32.1984 23.7574 32.4593C24.0182 32.7201 24.3719 32.8668 24.7408 32.8673Z" fill="#FAFAFA"/>
<path d="M30.4407 35.6215L29.2997 33.2233C29.0845 32.7743 28.7054 32.425 28.2404 32.2472L27.3697 31.9154C27.0252 31.8135 26.7737 31.4088 26.5716 31.1328V31.4102C26.5799 31.666 26.5347 31.9208 26.439 32.1582C26.3432 32.3956 26.1991 32.6104 26.0157 32.789C25.8323 32.9675 25.6137 33.1059 25.3738 33.1953C25.1339 33.2846 24.8781 33.323 24.6225 33.3079C24.367 33.2928 24.1174 33.2247 23.8897 33.1077C23.662 32.9908 23.4612 32.8277 23.3 32.6288C23.1389 32.4299 23.021 32.1997 22.9538 31.9526C22.8867 31.7056 22.8717 31.4473 22.91 31.1942C22.7594 31.4837 22.5132 31.7121 22.2132 31.8404L21.3976 32.1329C20.9294 32.2985 20.5435 32.6388 20.3205 33.0824L19.041 35.6215C19.0232 35.66 19.0213 35.7039 19.0357 35.7438C19.0501 35.7837 19.0796 35.8163 19.1179 35.8346L20.8222 36.6096C20.8542 36.6242 20.8893 36.6309 20.9244 36.6291C20.9595 36.6274 20.9937 36.6172 21.0241 36.5995C21.0545 36.5818 21.0802 36.557 21.0991 36.5273C21.1179 36.4976 21.1294 36.4638 21.1324 36.4287L21.1951 35.7144C21.2016 35.6571 21.2303 35.6046 21.2749 35.5681C21.3196 35.5316 21.3768 35.514 21.4342 35.519C21.4917 35.524 21.5449 35.5513 21.5825 35.595C21.6202 35.6387 21.6393 35.6954 21.6358 35.7529L21.1051 41.7851C21.1049 41.8279 21.1134 41.8703 21.1303 41.9097C21.1471 41.9491 21.1718 41.9847 21.2029 42.0141C21.234 42.0436 21.2709 42.0663 21.3111 42.081C21.3514 42.0957 21.3942 42.1019 21.437 42.0994H28.0622C28.1052 42.1019 28.1482 42.0956 28.1886 42.0808C28.229 42.066 28.2659 42.0431 28.2971 42.0133C28.3282 41.9836 28.3529 41.9479 28.3696 41.9082C28.3863 41.8685 28.3946 41.8259 28.3941 41.7828C28.3002 40.7762 27.9116 36.671 27.8255 35.7542C27.8213 35.6968 27.8398 35.6401 27.877 35.5962C27.9141 35.5523 27.967 35.5247 28.0243 35.5193C28.0816 35.5139 28.1387 35.5311 28.1834 35.5673C28.2281 35.6035 28.2568 35.6558 28.2635 35.7129L28.3302 36.42C28.3335 36.4547 28.345 36.4882 28.3638 36.5176C28.3826 36.547 28.4081 36.5715 28.4382 36.5891C28.4684 36.6067 28.5023 36.6168 28.5371 36.6187C28.5719 36.6206 28.6067 36.6142 28.6386 36.6L30.3637 35.8303C30.4014 35.8125 30.4306 35.7806 30.445 35.7415C30.4594 35.7024 30.4578 35.6595 30.4407 35.6215ZM24.323 39.8483C24.3213 39.9054 24.2974 39.9596 24.2563 39.9994C24.2153 40.0392 24.1604 40.0614 24.1033 40.0614C24.0461 40.0614 23.9913 40.0392 23.9502 39.9994C23.9092 39.9596 23.8853 39.9054 23.8836 39.8483V37.6328L23.6703 37.7646C23.6208 37.7939 23.5617 37.8026 23.5059 37.7888C23.45 37.775 23.4018 37.7399 23.3716 37.6909C23.3414 37.642 23.3316 37.5831 23.3443 37.527C23.357 37.4709 23.3913 37.422 23.4396 37.3909L23.9868 37.05C24.0203 37.0301 24.0584 37.0194 24.0974 37.0188C24.1363 37.0183 24.1747 37.0279 24.2088 37.0468C24.2428 37.0658 24.2713 37.0933 24.2914 37.1266C24.3114 37.16 24.3224 37.1981 24.3232 37.237L24.323 39.8483ZM25.9036 39.8483C25.9036 39.9066 25.8804 39.9625 25.8392 40.0038C25.798 40.045 25.7421 40.0681 25.6838 40.0681C25.6255 40.0681 25.5696 40.045 25.5283 40.0038C25.4871 39.9625 25.464 39.9066 25.464 39.8483V37.6328L25.2509 37.7646C25.2013 37.7952 25.1416 37.8049 25.0849 37.7915C25.0282 37.7781 24.9792 37.7427 24.9486 37.6932C24.918 37.6436 24.9083 37.5839 24.9217 37.5272C24.9351 37.4705 24.9705 37.4215 25.02 37.3909L25.5672 37.05C25.6007 37.0301 25.6388 37.0194 25.6778 37.0188C25.7167 37.0183 25.7551 37.0279 25.7891 37.0468C25.8232 37.0658 25.8517 37.0933 25.8718 37.1266C25.8918 37.16 25.9028 37.1981 25.9036 37.237V39.8483Z" fill="#FAFAFA"/>
<path d="M24.323 39.8483C24.3213 39.9054 24.2974 39.9596 24.2563 39.9994C24.2153 40.0392 24.1604 40.0614 24.1033 40.0614C24.0461 40.0614 23.9913 40.0392 23.9502 39.9994C23.9092 39.9596 23.8853 39.9054 23.8836 39.8483V37.6328L23.6703 37.7646C23.6208 37.7939 23.5617 37.8026 23.5059 37.7888C23.45 37.775 23.4018 37.7399 23.3716 37.6909C23.3414 37.642 23.3316 37.5831 23.3443 37.527C23.357 37.4709 23.3913 37.422 23.4396 37.3909L23.9868 37.05C24.0203 37.0301 24.0584 37.0194 24.0974 37.0188C24.1363 37.0183 24.1747 37.0279 24.2088 37.0468C24.2428 37.0658 24.2713 37.0933 24.2914 37.1266C24.3114 37.16 24.3224 37.1981 24.3232 37.237L24.323 39.8483Z" fill="#FAFAFA"/>
<path d="M25.9036 39.8483C25.9036 39.9066 25.8804 39.9625 25.8392 40.0038C25.798 40.045 25.7421 40.0681 25.6838 40.0681C25.6255 40.0681 25.5696 40.045 25.5283 40.0038C25.4871 39.9625 25.464 39.9066 25.464 39.8483V37.6328L25.2509 37.7646C25.2013 37.7952 25.1416 37.8049 25.0849 37.7915C25.0282 37.7781 24.9792 37.7427 24.9486 37.6932C24.918 37.6436 24.9083 37.5839 24.9217 37.5272C24.9351 37.4705 24.9705 37.4215 25.02 37.3909L25.5672 37.05C25.6007 37.0301 25.6388 37.0194 25.6778 37.0188C25.7167 37.0183 25.7551 37.0279 25.7891 37.0468C25.8232 37.0658 25.8517 37.0933 25.8718 37.1266C25.8918 37.16 25.9028 37.1981 25.9036 37.237V39.8483Z" fill="#FAFAFA"/>
<path d="M23.7097 37.332H26.0014" stroke="#191919" stroke-width="0.343756" stroke-linecap="round" stroke-linejoin="round"/>
<path d="M24.8557 38.4792V36.1875" stroke="#191919" stroke-width="0.343756" stroke-linecap="round" stroke-linejoin="round"/>
<path d="M56.7408 32.8673C57.1096 32.8668 57.4633 32.7201 57.7241 32.4593C57.985 32.1984 58.1317 31.8448 58.1321 31.4759V30.9944C57.212 31.1677 56.267 31.161 55.3494 30.9746V31.4759C55.3498 31.8448 55.4965 32.1984 55.7574 32.4593C56.0182 32.7201 56.3719 32.8668 56.7408 32.8673Z" fill="#FAFAFA"/>
<path d="M62.4407 35.6215L61.2997 33.2233C61.0845 32.7743 60.7054 32.425 60.2404 32.2472L59.3697 31.9154C59.0252 31.8135 58.7737 31.4088 58.5716 31.1328V31.4102C58.5799 31.666 58.5347 31.9208 58.439 32.1582C58.3432 32.3956 58.1991 32.6104 58.0157 32.789C57.8323 32.9675 57.6137 33.1059 57.3738 33.1953C57.1339 33.2846 56.8781 33.323 56.6225 33.3079C56.367 33.2928 56.1174 33.2247 55.8897 33.1077C55.662 32.9908 55.4612 32.8277 55.3 32.6288C55.1389 32.4299 55.021 32.1997 54.9538 31.9526C54.8867 31.7056 54.8717 31.4473 54.91 31.1942C54.7594 31.4837 54.5132 31.7121 54.2132 31.8404L53.3976 32.1329C52.9294 32.2985 52.5435 32.6388 52.3205 33.0824L51.041 35.6215C51.0232 35.66 51.0213 35.7039 51.0357 35.7438C51.0501 35.7837 51.0796 35.8163 51.1179 35.8346L52.8222 36.6096C52.8542 36.6242 52.8893 36.6309 52.9244 36.6291C52.9595 36.6274 52.9937 36.6172 53.0241 36.5995C53.0545 36.5818 53.0802 36.557 53.0991 36.5273C53.1179 36.4976 53.1294 36.4638 53.1324 36.4287L53.1951 35.7144C53.2016 35.6571 53.2303 35.6046 53.2749 35.5681C53.3196 35.5316 53.3768 35.514 53.4342 35.519C53.4917 35.524 53.5449 35.5513 53.5825 35.595C53.6202 35.6387 53.6393 35.6954 53.6358 35.7529L53.1051 41.7851C53.1049 41.8279 53.1134 41.8703 53.1303 41.9097C53.1471 41.9491 53.1718 41.9847 53.2029 42.0141C53.234 42.0436 53.2709 42.0663 53.3111 42.081C53.3514 42.0957 53.3942 42.1019 53.437 42.0994H60.0622C60.1052 42.1019 60.1482 42.0956 60.1886 42.0808C60.229 42.066 60.2659 42.0431 60.2971 42.0133C60.3282 41.9836 60.3529 41.9479 60.3696 41.9082C60.3863 41.8685 60.3946 41.8259 60.3941 41.7828C60.3002 40.7762 59.9116 36.671 59.8255 35.7542C59.8213 35.6968 59.8398 35.6401 59.877 35.5962C59.9141 35.5523 59.967 35.5247 60.0243 35.5193C60.0816 35.5139 60.1387 35.5311 60.1834 35.5673C60.2281 35.6035 60.2568 35.6558 60.2635 35.7129L60.3302 36.42C60.3335 36.4547 60.345 36.4882 60.3638 36.5176C60.3826 36.547 60.4081 36.5715 60.4382 36.5891C60.4684 36.6067 60.5023 36.6168 60.5371 36.6187C60.5719 36.6206 60.6067 36.6142 60.6386 36.6L62.3637 35.8303C62.4014 35.8125 62.4306 35.7806 62.445 35.7415C62.4594 35.7024 62.4578 35.6595 62.4407 35.6215ZM56.323 39.8483C56.3213 39.9054 56.2974 39.9596 56.2563 39.9994C56.2153 40.0392 56.1604 40.0614 56.1033 40.0614C56.0461 40.0614 55.9913 40.0392 55.9502 39.9994C55.9092 39.9596 55.8853 39.9054 55.8836 39.8483V37.6328L55.6703 37.7646C55.6208 37.7939 55.5617 37.8026 55.5059 37.7888C55.45 37.775 55.4018 37.7399 55.3716 37.6909C55.3414 37.642 55.3316 37.5831 55.3443 37.527C55.357 37.4709 55.3913 37.422 55.4396 37.3909L55.9868 37.05C56.0203 37.0301 56.0584 37.0194 56.0974 37.0188C56.1363 37.0183 56.1747 37.0279 56.2088 37.0468C56.2428 37.0658 56.2713 37.0933 56.2914 37.1266C56.3114 37.16 56.3224 37.1981 56.3232 37.237L56.323 39.8483ZM57.9036 39.8483C57.9036 39.9066 57.8804 39.9625 57.8392 40.0038C57.798 40.045 57.7421 40.0681 57.6838 40.0681C57.6255 40.0681 57.5696 40.045 57.5283 40.0038C57.4871 39.9625 57.464 39.9066 57.464 39.8483V37.6328L57.2509 37.7646C57.2013 37.7952 57.1416 37.8049 57.0849 37.7915C57.0282 37.7781 56.9792 37.7427 56.9486 37.6932C56.918 37.6436 56.9083 37.5839 56.9217 37.5272C56.9351 37.4705 56.9705 37.4215 57.02 37.3909L57.5672 37.05C57.6007 37.0301 57.6388 37.0194 57.6778 37.0188C57.7167 37.0183 57.7551 37.0279 57.7891 37.0468C57.8232 37.0658 57.8517 37.0933 57.8718 37.1266C57.8918 37.16 57.9028 37.1981 57.9036 37.237V39.8483Z" fill="#FAFAFA"/>
<path d="M56.323 39.8483C56.3213 39.9054 56.2974 39.9596 56.2563 39.9994C56.2153 40.0392 56.1604 40.0614 56.1033 40.0614C56.0461 40.0614 55.9913 40.0392 55.9502 39.9994C55.9092 39.9596 55.8853 39.9054 55.8836 39.8483V37.6328L55.6703 37.7646C55.6208 37.7939 55.5617 37.8026 55.5059 37.7888C55.45 37.775 55.4018 37.7399 55.3716 37.6909C55.3414 37.642 55.3316 37.5831 55.3443 37.527C55.357 37.4709 55.3913 37.422 55.4396 37.3909L55.9868 37.05C56.0203 37.0301 56.0584 37.0194 56.0974 37.0188C56.1363 37.0183 56.1747 37.0279 56.2088 37.0468C56.2428 37.0658 56.2713 37.0933 56.2914 37.1266C56.3114 37.16 56.3224 37.1981 56.3232 37.237L56.323 39.8483Z" fill="#FAFAFA"/>
<path d="M57.9036 39.8483C57.9036 39.9066 57.8804 39.9625 57.8392 40.0038C57.798 40.045 57.7421 40.0681 57.6838 40.0681C57.6255 40.0681 57.5696 40.045 57.5283 40.0038C57.4871 39.9625 57.464 39.9066 57.464 39.8483V37.6328L57.2509 37.7646C57.2013 37.7952 57.1416 37.8049 57.0849 37.7915C57.0282 37.7781 56.9792 37.7427 56.9486 37.6932C56.918 37.6436 56.9083 37.5839 56.9217 37.5272C56.9351 37.4705 56.9705 37.4215 57.02 37.3909L57.5672 37.05C57.6007 37.0301 57.6388 37.0194 57.6778 37.0188C57.7167 37.0183 57.7551 37.0279 57.7891 37.0468C57.8232 37.0658 57.8517 37.0933 57.8718 37.1266C57.8918 37.16 57.9028 37.1981 57.9036 37.237V39.8483Z" fill="#FAFAFA"/>
<path d="M55.7097 37.332H58.0014" stroke="#191919" stroke-width="0.343756" stroke-linecap="round" stroke-linejoin="round"/>
<path d="M56.8557 38.4792V36.1875" stroke="#191919" stroke-width="0.343756" stroke-linecap="round" stroke-linejoin="round"/>
<g clip-path="url(#clip6_9669_18265)">
<path d="M71.6704 3.86728C72.0393 3.86685 72.393 3.72012 72.6538 3.45927C72.9147 3.19843 73.0614 2.84478 73.0618 2.47589V1.99441C72.1417 2.16774 71.1966 2.16102 70.2791 1.97461V2.47589C70.2795 2.84478 70.4262 3.19843 70.6871 3.45927C70.9479 3.72012 71.3016 3.86685 71.6704 3.86728Z" fill="#FAFAFA"/>
<path d="M77.3703 6.6215L76.2294 4.22326C76.0142 3.77433 75.6351 3.42501 75.1701 3.24723L74.2994 2.91535C73.9548 2.8135 73.7034 2.40876 73.5013 2.13281V2.41019C73.5096 2.66603 73.4644 2.92078 73.3687 3.15818C73.2729 3.39558 73.1288 3.61042 72.9454 3.78898C72.762 3.96755 72.5434 4.10592 72.3035 4.19527C72.0636 4.28462 71.8077 4.32299 71.5522 4.30792C71.2967 4.29285 71.0471 4.22467 70.8194 4.10775C70.5917 3.99082 70.3909 3.82772 70.2297 3.62883C70.0686 3.42994 69.9507 3.19965 69.8835 2.95265C69.8163 2.70564 69.8014 2.44735 69.8397 2.19425C69.6891 2.48374 69.4429 2.7121 69.1429 2.84045L68.3273 3.13293C67.8591 3.29852 67.4732 3.63876 67.2502 4.08243L65.9707 6.6215C65.9529 6.66 65.951 6.70395 65.9654 6.74383C65.9798 6.78371 66.0093 6.81632 66.0476 6.83458L67.7519 7.60957C67.7839 7.62418 67.8189 7.63089 67.8541 7.62913C67.8892 7.62738 67.9234 7.61722 67.9538 7.5995C67.9842 7.58178 68.0099 7.55702 68.0288 7.52731C68.0476 7.49759 68.0591 7.46379 68.0621 7.42873L68.1248 6.71437C68.1313 6.65706 68.16 6.60457 68.2046 6.56808C68.2493 6.53159 68.3064 6.51399 68.3639 6.51902C68.4214 6.52405 68.4746 6.55131 68.5122 6.59501C68.5499 6.6387 68.569 6.69537 68.5654 6.75294L68.0348 12.7851C68.0346 12.8279 68.0431 12.8703 68.06 12.9097C68.0768 12.9491 68.1015 12.9847 68.1326 13.0141C68.1637 13.0436 68.2005 13.0663 68.2408 13.081C68.281 13.0957 68.3239 13.1019 68.3666 13.0994H74.9919C75.0349 13.1019 75.0779 13.0956 75.1183 13.0808C75.1587 13.066 75.1956 13.0431 75.2267 13.0133C75.2579 12.9836 75.2826 12.9479 75.2993 12.9082C75.316 12.8685 75.3243 12.8259 75.3238 12.7828C75.2299 11.7762 74.8413 7.67101 74.7551 6.75417C74.751 6.69679 74.7695 6.64008 74.8067 6.59618C74.8438 6.55227 74.8967 6.52467 74.954 6.51928C75.0112 6.51389 75.0684 6.53114 75.1131 6.56734C75.1578 6.60353 75.1865 6.6558 75.1932 6.71294L75.2599 7.41996C75.2632 7.4547 75.2747 7.48815 75.2935 7.51756C75.3123 7.54697 75.3378 7.57148 75.3679 7.58908C75.3981 7.60667 75.4319 7.61683 75.4668 7.61873C75.5016 7.62062 75.5364 7.6142 75.5683 7.59998L77.2934 6.8303C77.3311 6.81252 77.3603 6.78065 77.3747 6.74155C77.389 6.70245 77.3875 6.65946 77.3703 6.6215ZM71.2527 10.8483C71.251 10.9054 71.227 10.9596 71.186 10.9994C71.145 11.0392 71.0901 11.0614 71.033 11.0614C70.9758 11.0614 70.9209 11.0392 70.8799 10.9994C70.8389 10.9596 70.815 10.9054 70.8133 10.8483V8.63275L70.6 8.7646C70.5504 8.79389 70.4914 8.80258 70.4356 8.7888C70.3797 8.77502 70.3315 8.73987 70.3013 8.69091C70.2711 8.64196 70.2613 8.5831 70.274 8.52699C70.2867 8.47089 70.3209 8.42202 70.3693 8.39089L70.9165 8.05003C70.95 8.03014 70.9881 8.01938 71.0271 8.01882C71.066 8.01826 71.1044 8.02792 71.1384 8.04684C71.1725 8.06576 71.201 8.09328 71.2211 8.12664C71.2411 8.16001 71.2521 8.19806 71.2529 8.23699L71.2527 10.8483ZM72.8333 10.8483C72.8333 10.9066 72.8101 10.9625 72.7689 11.0038C72.7277 11.045 72.6718 11.0681 72.6135 11.0681C72.5552 11.0681 72.4993 11.045 72.458 11.0038C72.4168 10.9625 72.3936 10.9066 72.3936 10.8483V8.63275L72.1806 8.7646C72.131 8.79522 72.0713 8.80489 72.0146 8.79149C71.9579 8.77809 71.9089 8.74273 71.8783 8.69317C71.8477 8.64361 71.838 8.58392 71.8514 8.52723C71.8648 8.47054 71.9002 8.4215 71.9497 8.39089L72.4969 8.05003C72.5304 8.03014 72.5685 8.01938 72.6075 8.01882C72.6464 8.01826 72.6848 8.02792 72.7188 8.04684C72.7529 8.06576 72.7814 8.09328 72.8014 8.12664C72.8215 8.16001 72.8325 8.19806 72.8333 8.23699V10.8483Z" fill="#FAFAFA"/>
<path d="M71.2527 10.8483C71.251 10.9054 71.227 10.9596 71.186 10.9994C71.145 11.0392 71.0901 11.0614 71.033 11.0614C70.9758 11.0614 70.9209 11.0392 70.8799 10.9994C70.8389 10.9596 70.815 10.9054 70.8133 10.8483V8.63275L70.6 8.7646C70.5504 8.79389 70.4914 8.80258 70.4356 8.7888C70.3797 8.77502 70.3315 8.73987 70.3013 8.69091C70.2711 8.64196 70.2613 8.5831 70.274 8.52699C70.2867 8.47089 70.3209 8.42202 70.3693 8.39089L70.9165 8.05003C70.95 8.03014 70.9881 8.01938 71.0271 8.01882C71.066 8.01826 71.1044 8.02792 71.1384 8.04684C71.1725 8.06576 71.201 8.09328 71.2211 8.12664C71.2411 8.16001 71.2521 8.19806 71.2529 8.23699L71.2527 10.8483Z" fill="#FAFAFA"/>
<path d="M72.8333 10.8483C72.8333 10.9066 72.8101 10.9625 72.7689 11.0038C72.7277 11.045 72.6718 11.0681 72.6135 11.0681C72.5552 11.0681 72.4993 11.045 72.458 11.0038C72.4168 10.9625 72.3936 10.9066 72.3936 10.8483V8.63275L72.1806 8.7646C72.131 8.79522 72.0713 8.80489 72.0146 8.79149C71.9579 8.77809 71.9089 8.74273 71.8783 8.69317C71.8477 8.64361 71.838 8.58392 71.8514 8.52723C71.8648 8.47054 71.9002 8.4215 71.9497 8.39089L72.4969 8.05003C72.5304 8.03014 72.5685 8.01938 72.6075 8.01882C72.6464 8.01826 72.6848 8.02792 72.7188 8.04684C72.7529 8.06576 72.7814 8.09328 72.8014 8.12664C72.8215 8.16001 72.8325 8.19806 72.8333 8.23699V10.8483Z" fill="#FAFAFA"/>
<path d="M70.6394 8.33203H72.9311" stroke="#191919" stroke-width="0.343756" stroke-linecap="round" stroke-linejoin="round"/>
<path d="M71.7854 9.47921V7.1875" stroke="#191919" stroke-width="0.343756" stroke-linecap="round" stroke-linejoin="round"/>
</g>
<g clip-path="url(#clip7_9669_18265)">
<path d="M40.3174 2.99618C40.6863 2.99575 41.04 2.84902 41.3008 2.58818C41.5616 2.32734 41.7084 1.97368 41.7088 1.6048V1.12331C40.7886 1.29665 39.8436 1.28993 38.926 1.10352V1.6048C38.9265 1.97368 39.0732 2.32734 39.334 2.58818C39.5949 2.84902 39.9485 2.99575 40.3174 2.99618Z" fill="#FAFAFA"/>
<path d="M46.0173 5.7504L44.8764 3.35217C44.6612 2.90324 44.2821 2.55392 43.8171 2.37613L42.9463 2.04426C42.6018 1.94241 42.3504 1.53767 42.1483 1.26172V1.5391C42.1565 1.79494 42.1113 2.04969 42.0156 2.28709C41.9199 2.52449 41.7757 2.73932 41.5923 2.91789C41.4089 3.09646 41.1903 3.23483 40.9505 3.32418C40.7106 3.41353 40.4547 3.45189 40.1992 3.43682C39.9437 3.42175 39.6941 3.35358 39.4664 3.23666C39.2387 3.11973 39.0378 2.95662 38.8767 2.75774C38.7155 2.55885 38.5976 2.32856 38.5305 2.08155C38.4633 1.83455 38.4484 1.57625 38.4866 1.32315C38.3361 1.61265 38.0898 1.84101 37.7898 1.96935L36.9742 2.26184C36.5061 2.42743 36.1201 2.76766 35.8972 3.21133L34.6176 5.7504C34.5999 5.7889 34.598 5.83286 34.6124 5.87274C34.6268 5.91262 34.6563 5.94522 34.6946 5.96349L36.3989 6.73848C36.4309 6.75308 36.4659 6.75979 36.5011 6.75804C36.5362 6.75629 36.5704 6.74613 36.6008 6.72841C36.6312 6.71069 36.6569 6.68593 36.6757 6.65621C36.6946 6.6265 36.706 6.59269 36.7091 6.55764L36.7718 5.84327C36.7783 5.78597 36.8069 5.73348 36.8516 5.69699C36.8963 5.6605 36.9534 5.64289 37.0109 5.64792C37.0683 5.65295 37.1216 5.68022 37.1592 5.72392C37.1968 5.76761 37.2159 5.82428 37.2124 5.88185L36.6817 11.914C36.6815 11.9568 36.6901 11.9992 36.7069 12.0386C36.7238 12.078 36.7485 12.1136 36.7796 12.143C36.8107 12.1725 36.8475 12.1952 36.8878 12.2099C36.928 12.2246 36.9709 12.2308 37.0136 12.2283H43.6389C43.6818 12.2309 43.7249 12.2245 43.7653 12.2097C43.8057 12.1949 43.8426 12.172 43.8737 12.1423C43.9049 12.1126 43.9295 12.0768 43.9462 12.0371C43.9629 11.9974 43.9713 11.9548 43.9708 11.9117C43.8769 10.9051 43.4882 6.79991 43.4021 5.88307C43.398 5.8257 43.4165 5.76899 43.4536 5.72508C43.4908 5.68118 43.5437 5.65357 43.601 5.64818C43.6582 5.64279 43.7153 5.66004 43.76 5.69624C43.8047 5.73244 43.8335 5.78471 43.8401 5.84184L43.9069 6.54886C43.9102 6.5836 43.9217 6.61706 43.9405 6.64647C43.9592 6.67588 43.9848 6.70039 44.0149 6.71798C44.045 6.73557 44.0789 6.74574 44.1138 6.74763C44.1486 6.74953 44.1834 6.7431 44.2153 6.72889L45.9404 5.9592C45.978 5.94143 46.0072 5.90955 46.0216 5.87045C46.036 5.83136 46.0345 5.78837 46.0173 5.7504ZM39.8997 9.97722C39.8979 10.0343 39.874 10.0885 39.833 10.1283C39.792 10.1681 39.7371 10.1903 39.6799 10.1903C39.6228 10.1903 39.5679 10.1681 39.5269 10.1283C39.4859 10.0885 39.462 10.0343 39.4602 9.97722V7.76166L39.2469 7.89351C39.1974 7.9228 39.1384 7.93148 39.0825 7.9177C39.0267 7.90392 38.9785 7.86878 38.9482 7.81982C38.918 7.77086 38.9082 7.712 38.921 7.6559C38.9337 7.5998 38.9679 7.55092 39.0163 7.51979L39.5635 7.17894C39.597 7.15905 39.6351 7.14829 39.674 7.14773C39.713 7.14717 39.7514 7.15683 39.7854 7.17575C39.8195 7.19467 39.8479 7.22218 39.868 7.25555C39.8881 7.28891 39.8991 7.32696 39.8999 7.3659L39.8997 9.97722ZM41.4803 9.97722C41.4803 10.0355 41.4571 10.0914 41.4159 10.1327C41.3747 10.1739 41.3187 10.197 41.2604 10.197C41.2021 10.197 41.1462 10.1739 41.105 10.1327C41.0638 10.0914 41.0406 10.0355 41.0406 9.97722V7.76166L40.8275 7.89351C40.778 7.92412 40.7183 7.93379 40.6616 7.9204C40.6049 7.907 40.5559 7.87163 40.5253 7.82207C40.4946 7.77252 40.485 7.71283 40.4984 7.65614C40.5118 7.59945 40.5471 7.55041 40.5967 7.51979L41.1439 7.17894C41.1774 7.15905 41.2155 7.14829 41.2544 7.14773C41.2934 7.14717 41.3318 7.15683 41.3658 7.17575C41.3998 7.19467 41.4283 7.22218 41.4484 7.25555C41.4685 7.28891 41.4795 7.32696 41.4803 7.3659V9.97722Z" fill="#FAFAFA"/>
<path d="M39.8997 9.97722C39.8979 10.0343 39.874 10.0885 39.833 10.1283C39.792 10.1681 39.7371 10.1903 39.6799 10.1903C39.6228 10.1903 39.5679 10.1681 39.5269 10.1283C39.4859 10.0885 39.462 10.0343 39.4602 9.97722V7.76166L39.2469 7.89351C39.1974 7.9228 39.1384 7.93148 39.0825 7.9177C39.0267 7.90392 38.9785 7.86878 38.9482 7.81982C38.918 7.77086 38.9082 7.712 38.921 7.6559C38.9337 7.5998 38.9679 7.55092 39.0163 7.51979L39.5635 7.17894C39.597 7.15905 39.6351 7.14829 39.674 7.14773C39.713 7.14717 39.7514 7.15683 39.7854 7.17575C39.8195 7.19467 39.8479 7.22218 39.868 7.25555C39.8881 7.28891 39.8991 7.32696 39.8999 7.3659L39.8997 9.97722Z" fill="#FAFAFA"/>
<path d="M41.4803 9.97722C41.4803 10.0355 41.4571 10.0914 41.4159 10.1327C41.3747 10.1739 41.3187 10.197 41.2604 10.197C41.2021 10.197 41.1462 10.1739 41.105 10.1327C41.0638 10.0914 41.0406 10.0355 41.0406 9.97722V7.76166L40.8275 7.89351C40.778 7.92412 40.7183 7.93379 40.6616 7.9204C40.6049 7.907 40.5559 7.87163 40.5253 7.82207C40.4946 7.77252 40.485 7.71283 40.4984 7.65614C40.5118 7.59945 40.5471 7.55041 40.5967 7.51979L41.1439 7.17894C41.1774 7.15905 41.2155 7.14829 41.2544 7.14773C41.2934 7.14717 41.3318 7.15683 41.3658 7.17575C41.3998 7.19467 41.4283 7.22218 41.4484 7.25555C41.4685 7.28891 41.4795 7.32696 41.4803 7.3659V9.97722Z" fill="#FAFAFA"/>
<path d="M39.2864 7.46094H41.5781" stroke="#191919" stroke-width="0.343756" stroke-linecap="round" stroke-linejoin="round"/>
<path d="M40.4324 8.60812V6.31641" stroke="#191919" stroke-width="0.343756" stroke-linecap="round" stroke-linejoin="round"/>
</g>
<defs>
<clipPath id="clip0_9669_18265">
<rect width="13.0627" height="13.0627" fill="white" transform="translate(33.7864 66.5645)"/>
</clipPath>
<clipPath id="clip1_9669_18265">
<rect width="13.0627" height="13.0627" fill="white" transform="translate(2.80688 46)"/>
</clipPath>
<clipPath id="clip2_9669_18265">
<rect width="13.0627" height="13.0627" fill="white" transform="translate(63.8884 46)"/>
</clipPath>
<clipPath id="clip3_9669_18265">
<rect width="13.0627" height="13.0627" fill="white" transform="translate(43.8884 50)"/>
</clipPath>
<clipPath id="clip4_9669_18265">
<rect width="13.0627" height="13.0627" fill="white" transform="translate(23.8884 50)"/>
</clipPath>
<clipPath id="clip5_9669_18265">
<rect width="13.0627" height="13.0627" fill="white" transform="translate(1.88843 3)"/>
</clipPath>
<clipPath id="clip6_9669_18265">
<rect width="13.0627" height="13.0627" fill="white" transform="translate(65.1394 1)"/>
</clipPath>
<clipPath id="clip7_9669_18265">
<rect width="13.0627" height="13.0627" fill="white" transform="translate(33.7864 0.126953)"/>
</clipPath>
</defs>
</svg>
