<svg width="81" height="81" viewBox="0 0 81 81" fill="none" xmlns="http://www.w3.org/2000/svg">
<rect x="0.583335" y="0.118492" width="79.9807" height="79.9807" rx="5.88541" fill="#828284" stroke="#FAFAFA" stroke-width="0.229171"/>
<mask id="path-2-inside-1_8758_17350" fill="white">
<path d="M24.3025 66.4609H56.8448V80.2112H24.3025V66.4609Z"/>
</mask>
<path d="M24.3025 66.4609V66.2318H24.0733V66.4609H24.3025ZM56.8448 66.4609H57.0739V66.2318H56.8448V66.4609ZM24.3025 66.6901H56.8448V66.2318H24.3025V66.6901ZM56.6156 66.4609V80.2112H57.0739V66.4609H56.6156ZM24.5317 80.2112V66.4609H24.0733V80.2112H24.5317Z" fill="#FAFAFA" mask="url(#path-2-inside-1_8758_17350)"/>
<mask id="path-4-inside-2_8758_17350" fill="white">
<path d="M13.0732 55.0039H68.0743V80.2127H13.0732V55.0039Z"/>
</mask>
<path d="M13.0732 55.0039V54.7747H12.8441V55.0039H13.0732ZM68.0743 55.0039H68.3034V54.7747H68.0743V55.0039ZM13.0732 55.2331H68.0743V54.7747H13.0732V55.2331ZM67.8451 55.0039V80.2127H68.3034V55.0039H67.8451ZM13.3024 80.2127V55.0039H12.8441V80.2127H13.3024Z" fill="#FAFAFA" mask="url(#path-4-inside-2_8758_17350)"/>
<path d="M54.7822 9.53674e-07C54.7822 1.65523 54.3969 3.29426 53.6483 4.8235C52.8997 6.35273 51.8025 7.74223 50.4192 8.91266C49.036 10.0831 47.3939 11.0115 45.5866 11.645C43.7793 12.2784 41.8423 12.6044 39.8861 12.6044C37.9299 12.6044 35.9929 12.2784 34.1856 11.645C32.3783 11.0115 30.7362 10.0831 29.353 8.91266C27.9697 7.74223 26.8725 6.35273 26.1239 4.8235C25.3753 3.29426 24.99 1.65523 24.99 0" stroke="#FAFAFA" stroke-width="0.229171"/>
<path d="M31.0459 55.3516C31.5642 54.5174 32.3238 53.7595 33.2815 53.1211C34.2391 52.4827 35.3759 51.9763 36.6271 51.6308C37.8783 51.2853 39.2193 51.1074 40.5736 51.1074C41.9279 51.1074 43.2689 51.2853 44.5201 51.6308C45.7713 51.9763 46.9082 52.4827 47.8658 53.1211C48.8234 53.7595 49.5831 54.5174 50.1013 55.3516" stroke="#FAFAFA" stroke-width="0.229171"/>
<path d="M0.697754 76.5479C1.81428 76.4958 4.01821 77.1099 3.9017 79.9825" stroke="#FAFAFA" stroke-width="0.229171"/>
<path d="M80.4492 76.5479C79.3327 76.4958 77.1288 77.1099 77.2453 79.9825" stroke="#FAFAFA" stroke-width="0.229171"/>
<g clip-path="url(#clip0_8758_17350)">
<path d="M40.6878 69.4356C41.0567 69.4352 41.4103 69.2885 41.6712 69.0276C41.932 68.7668 42.0787 68.4131 42.0792 68.0443V67.5628C41.159 67.7361 40.214 67.7294 39.2964 67.543V68.0443C39.2968 68.4131 39.4435 68.7668 39.7044 69.0276C39.9652 69.2885 40.3189 69.4352 40.6878 69.4356Z" fill="#FAFAFA"/>
<path d="M46.3877 72.1899L45.2467 69.7916C45.0316 69.3427 44.6524 68.9934 44.1874 68.8156L43.3167 68.4837C42.9722 68.3819 42.7207 67.9771 42.5187 67.7012V67.9786C42.5269 68.2344 42.4817 68.4891 42.386 68.7265C42.2903 68.9639 42.1461 69.1788 41.9627 69.3573C41.7793 69.5359 41.5607 69.6743 41.3208 69.7636C41.0809 69.853 40.8251 69.8913 40.5695 69.8763C40.314 69.8612 40.0644 69.793 39.8367 69.6761C39.609 69.5592 39.4082 69.3961 39.247 69.1972C39.0859 68.9983 38.968 68.768 38.9008 68.521C38.8337 68.274 38.8188 68.0157 38.857 67.7626C38.7064 68.0521 38.4602 68.2805 38.1602 68.4088L37.3446 68.7013C36.8765 68.8669 36.4905 69.2071 36.2675 69.6508L34.988 72.1899C34.9702 72.2284 34.9683 72.2723 34.9827 72.3122C34.9971 72.3521 35.0267 72.3847 35.0649 72.4029L36.7692 73.1779C36.8012 73.1925 36.8363 73.1992 36.8714 73.1975C36.9066 73.1957 36.9408 73.1856 36.9712 73.1679C37.0016 73.1501 37.0273 73.1254 37.0461 73.0957C37.065 73.066 37.0764 73.0321 37.0795 72.9971L37.1421 72.2827C37.1486 72.2254 37.1773 72.1729 37.222 72.1364C37.2666 72.1 37.3238 72.0823 37.3812 72.0874C37.4387 72.0924 37.4919 72.1197 37.5296 72.1634C37.5672 72.2071 37.5863 72.2637 37.5828 72.3213L37.0521 78.3534C37.0519 78.3963 37.0605 78.4387 37.0773 78.4781C37.0941 78.5175 37.1189 78.553 37.15 78.5825C37.1811 78.6119 37.2179 78.6347 37.2581 78.6494C37.2984 78.664 37.3412 78.6703 37.384 78.6678H44.0092C44.0522 78.6703 44.0952 78.664 44.1356 78.6492C44.176 78.6344 44.2129 78.6114 44.2441 78.5817C44.2752 78.552 44.2999 78.5162 44.3166 78.4766C44.3333 78.4369 44.3416 78.3942 44.3411 78.3512C44.2472 77.3445 43.8586 73.2394 43.7725 72.3225C43.7683 72.2652 43.7868 72.2084 43.824 72.1645C43.8612 72.1206 43.914 72.093 43.9713 72.0876C44.0286 72.0822 44.0857 72.0995 44.1304 72.1357C44.1751 72.1719 44.2038 72.2242 44.2105 72.2813L44.2772 72.9883C44.2805 73.0231 44.292 73.0565 44.3108 73.0859C44.3296 73.1153 44.3551 73.1398 44.3853 73.1574C44.4154 73.175 44.4493 73.1852 44.4841 73.1871C44.519 73.189 44.5538 73.1826 44.5856 73.1683L46.3107 72.3987C46.3484 72.3809 46.3776 72.349 46.392 72.3099C46.4064 72.2708 46.4048 72.2278 46.3877 72.1899ZM40.27 76.4167C40.2683 76.4738 40.2444 76.528 40.2034 76.5678C40.1623 76.6076 40.1074 76.6298 40.0503 76.6298C39.9932 76.6298 39.9383 76.6076 39.8973 76.5678C39.8562 76.528 39.8323 76.4738 39.8306 76.4167V74.2011L39.6173 74.333C39.5678 74.3623 39.5087 74.3709 39.4529 74.3572C39.397 74.3434 39.3488 74.3082 39.3186 74.2593C39.2884 74.2103 39.2786 74.1515 39.2913 74.0954C39.304 74.0392 39.3383 73.9904 39.3867 73.9592L39.9339 73.6184C39.9673 73.5985 40.0055 73.5877 40.0444 73.5872C40.0833 73.5866 40.1217 73.5963 40.1558 73.6152C40.1898 73.6341 40.2183 73.6616 40.2384 73.695C40.2585 73.7284 40.2694 73.7664 40.2702 73.8054L40.27 76.4167ZM41.8506 76.4167C41.8506 76.475 41.8275 76.5309 41.7862 76.5721C41.745 76.6133 41.6891 76.6365 41.6308 76.6365C41.5725 76.6365 41.5166 76.6133 41.4754 76.5721C41.4341 76.5309 41.411 76.475 41.411 76.4167V74.2011L41.1979 74.333C41.1483 74.3636 41.0886 74.3732 41.032 74.3598C40.9753 74.3465 40.9262 74.3111 40.8956 74.2615C40.865 74.212 40.8553 74.1523 40.8687 74.0956C40.8821 74.0389 40.9175 73.9899 40.967 73.9592L41.5143 73.6184C41.5477 73.5985 41.5858 73.5877 41.6248 73.5872C41.6637 73.5866 41.7021 73.5963 41.7362 73.6152C41.7702 73.6341 41.7987 73.6616 41.8188 73.695C41.8389 73.7284 41.8498 73.7664 41.8506 73.8054V76.4167Z" fill="#FAFAFA"/>
<path d="M40.27 76.4167C40.2683 76.4738 40.2444 76.528 40.2034 76.5678C40.1623 76.6076 40.1074 76.6298 40.0503 76.6298C39.9932 76.6298 39.9383 76.6076 39.8973 76.5678C39.8562 76.528 39.8323 76.4738 39.8306 76.4167V74.2011L39.6173 74.333C39.5678 74.3623 39.5087 74.3709 39.4529 74.3572C39.397 74.3434 39.3488 74.3082 39.3186 74.2593C39.2884 74.2103 39.2786 74.1515 39.2913 74.0954C39.304 74.0392 39.3383 73.9904 39.3867 73.9592L39.9339 73.6184C39.9673 73.5985 40.0055 73.5877 40.0444 73.5872C40.0833 73.5866 40.1217 73.5963 40.1558 73.6152C40.1898 73.6341 40.2183 73.6616 40.2384 73.695C40.2585 73.7284 40.2694 73.7664 40.2702 73.8054L40.27 76.4167Z" fill="#FAFAFA"/>
<path d="M41.8506 76.4167C41.8506 76.475 41.8275 76.5309 41.7862 76.5721C41.745 76.6133 41.6891 76.6365 41.6308 76.6365C41.5725 76.6365 41.5166 76.6133 41.4754 76.5721C41.4341 76.5309 41.411 76.475 41.411 76.4167V74.2011L41.1979 74.333C41.1483 74.3636 41.0886 74.3732 41.032 74.3598C40.9753 74.3465 40.9262 74.3111 40.8956 74.2615C40.865 74.212 40.8553 74.1523 40.8687 74.0956C40.8821 74.0389 40.9175 73.9899 40.967 73.9592L41.5143 73.6184C41.5477 73.5985 41.5858 73.5877 41.6248 73.5872C41.6637 73.5866 41.7021 73.5963 41.7362 73.6152C41.7702 73.6341 41.7987 73.6616 41.8188 73.695C41.8389 73.7284 41.8498 73.7664 41.8506 73.8054V76.4167Z" fill="#FAFAFA"/>
<path d="M39.6567 73.8965H41.9484" stroke="#191919" stroke-width="0.343756" stroke-linecap="round" stroke-linejoin="round"/>
<path d="M40.8027 75.0437V72.752" stroke="#191919" stroke-width="0.343756" stroke-linecap="round" stroke-linejoin="round"/>
</g>
<path d="M8.53103 49.8673C8.89992 49.8668 9.25357 49.7201 9.51442 49.4593C9.77526 49.1984 9.92199 48.8448 9.92242 48.4759V47.9944C9.00227 48.1677 8.05724 48.161 7.13965 47.9746V48.4759C7.14008 48.8448 7.28681 49.1984 7.54765 49.4593C7.8085 49.7201 8.16215 49.8668 8.53103 49.8673Z" fill="#FAFAFA"/>
<path d="M14.2309 52.6215L13.09 50.2233C12.8748 49.7743 12.4957 49.425 12.0307 49.2472L11.16 48.9154C10.8154 48.8135 10.564 48.4088 10.3619 48.1328V48.4102C10.3702 48.666 10.325 48.9208 10.2292 49.1582C10.1335 49.3956 9.98936 49.6104 9.80596 49.789C9.62256 49.9675 9.40395 50.1059 9.16407 50.1953C8.9242 50.2846 8.66834 50.323 8.41281 50.3079C8.15728 50.2928 7.9077 50.2247 7.67999 50.1077C7.45228 49.9908 7.25145 49.8277 7.09031 49.6288C6.92917 49.4299 6.81126 49.1997 6.7441 48.9526C6.67694 48.7056 6.66202 48.4473 6.70027 48.1942C6.5497 48.4837 6.30346 48.7121 6.00345 48.8404L5.18785 49.1329C4.71972 49.2985 4.33377 49.6388 4.11078 50.0824L2.83125 52.6215C2.81348 52.66 2.81159 52.7039 2.82599 52.7438C2.84039 52.7837 2.86993 52.8163 2.90819 52.8346L4.61247 53.6096C4.64449 53.6242 4.67954 53.6309 4.71468 53.6291C4.74982 53.6274 4.78403 53.6172 4.81443 53.5995C4.84483 53.5818 4.87053 53.557 4.88937 53.5273C4.90821 53.4976 4.91965 53.4638 4.92271 53.4287L4.98537 52.7144C4.99191 52.6571 5.02056 52.6046 5.06522 52.5681C5.10989 52.5316 5.16704 52.514 5.2245 52.519C5.28195 52.524 5.33517 52.5513 5.37282 52.595C5.41047 52.6387 5.42956 52.6954 5.42604 52.7529L4.89536 58.7851C4.89515 58.8279 4.90372 58.8703 4.92055 58.9097C4.93739 58.9491 4.96212 58.9847 4.99322 59.0141C5.02433 59.0436 5.06114 59.0663 5.10139 59.081C5.14164 59.0957 5.18447 59.1019 5.22724 59.0994H11.8525C11.8955 59.1019 11.9385 59.0956 11.9789 59.0808C12.0193 59.066 12.0562 59.0431 12.0873 59.0133C12.1185 58.9836 12.1432 58.9479 12.1599 58.9082C12.1766 58.8685 12.1849 58.8259 12.1844 58.7828C12.0905 57.7762 11.7019 53.671 11.6157 52.7542C11.6116 52.6968 11.6301 52.6401 11.6673 52.5962C11.7044 52.5523 11.7573 52.5247 11.8146 52.5193C11.8718 52.5139 11.9289 52.5311 11.9737 52.5673C12.0184 52.6035 12.0471 52.6558 12.0537 52.7129L12.1205 53.42C12.1238 53.4547 12.1353 53.4882 12.1541 53.5176C12.1729 53.547 12.1984 53.5715 12.2285 53.5891C12.2587 53.6067 12.2925 53.6168 12.3274 53.6187C12.3622 53.6206 12.397 53.6142 12.4289 53.6L14.154 52.8303C14.1917 52.8125 14.2209 52.7806 14.2353 52.7415C14.2496 52.7024 14.2481 52.6595 14.2309 52.6215ZM8.11329 56.8483C8.11155 56.9054 8.08764 56.9596 8.04662 56.9994C8.00561 57.0392 7.95071 57.0614 7.89357 57.0614C7.83643 57.0614 7.78153 57.0392 7.74052 56.9994C7.6995 56.9596 7.67559 56.9054 7.67385 56.8483V54.6328L7.46056 54.7646C7.41104 54.7939 7.35201 54.8026 7.29616 54.7888C7.2403 54.775 7.19208 54.7399 7.16187 54.6909C7.13166 54.642 7.12186 54.5831 7.13458 54.527C7.14731 54.4709 7.18154 54.422 7.22992 54.3909L7.77713 54.05C7.81061 54.0301 7.84872 54.0194 7.88766 54.0188C7.9266 54.0183 7.965 54.0279 7.99904 54.0468C8.03308 54.0658 8.06156 54.0933 8.08165 54.1266C8.10173 54.16 8.11271 54.1981 8.11349 54.237L8.11329 56.8483ZM9.69388 56.8483C9.69388 56.9066 9.67072 56.9625 9.6295 57.0038C9.58827 57.045 9.53236 57.0681 9.47406 57.0681C9.41576 57.0681 9.35985 57.045 9.31862 57.0038C9.2774 56.9625 9.25424 56.9066 9.25424 56.8483V54.6328L9.04115 54.7646C8.99159 54.7952 8.93191 54.8049 8.87522 54.7915C8.81853 54.7781 8.76949 54.7427 8.73887 54.6932C8.70826 54.6436 8.69859 54.5839 8.71199 54.5272C8.72538 54.4705 8.76075 54.4215 8.81031 54.3909L9.35752 54.05C9.391 54.0301 9.42911 54.0194 9.46805 54.0188C9.50699 54.0183 9.54539 54.0279 9.57943 54.0468C9.61347 54.0658 9.64195 54.0933 9.66203 54.1266C9.68212 54.16 9.6931 54.1981 9.69388 54.237V56.8483Z" fill="#FAFAFA"/>
<path d="M8.11329 56.8483C8.11155 56.9054 8.08764 56.9596 8.04662 56.9994C8.00561 57.0392 7.95071 57.0614 7.89357 57.0614C7.83643 57.0614 7.78153 57.0392 7.74052 56.9994C7.6995 56.9596 7.67559 56.9054 7.67385 56.8483V54.6328L7.46056 54.7646C7.41104 54.7939 7.35201 54.8026 7.29616 54.7888C7.2403 54.775 7.19208 54.7399 7.16187 54.6909C7.13166 54.642 7.12186 54.5831 7.13458 54.527C7.14731 54.4709 7.18154 54.422 7.22992 54.3909L7.77713 54.05C7.81061 54.0301 7.84872 54.0194 7.88766 54.0188C7.9266 54.0183 7.965 54.0279 7.99904 54.0468C8.03308 54.0658 8.06156 54.0933 8.08165 54.1266C8.10173 54.16 8.11271 54.1981 8.11349 54.237L8.11329 56.8483Z" fill="#FAFAFA"/>
<path d="M9.69388 56.8483C9.69388 56.9066 9.67072 56.9625 9.6295 57.0038C9.58827 57.045 9.53236 57.0681 9.47406 57.0681C9.41576 57.0681 9.35985 57.045 9.31862 57.0038C9.2774 56.9625 9.25424 56.9066 9.25424 56.8483V54.6328L9.04115 54.7646C8.99159 54.7952 8.93191 54.8049 8.87522 54.7915C8.81853 54.7781 8.76949 54.7427 8.73887 54.6932C8.70826 54.6436 8.69859 54.5839 8.71199 54.5272C8.72538 54.4705 8.76075 54.4215 8.81031 54.3909L9.35752 54.05C9.391 54.0301 9.42911 54.0194 9.46805 54.0188C9.50699 54.0183 9.54539 54.0279 9.57943 54.0468C9.61347 54.0658 9.64195 54.0933 9.66203 54.1266C9.68212 54.16 9.6931 54.1981 9.69388 54.237V56.8483Z" fill="#FAFAFA"/>
<path d="M7.5 54.332H9.79171" stroke="#191919" stroke-width="0.343756" stroke-linecap="round" stroke-linejoin="round"/>
<path d="M8.646 55.4792V53.1875" stroke="#191919" stroke-width="0.343756" stroke-linecap="round" stroke-linejoin="round"/>
<path d="M72.531 48.8673C72.8999 48.8668 73.2536 48.7201 73.5144 48.4593C73.7753 48.1984 73.922 47.8448 73.9224 47.4759V46.9944C73.0023 47.1677 72.0572 47.161 71.1396 46.9746V47.4759C71.1401 47.8448 71.2868 48.1984 71.5477 48.4593C71.8085 48.7201 72.1621 48.8668 72.531 48.8673Z" fill="#FAFAFA"/>
<path d="M78.2309 51.6215L77.09 49.2233C76.8748 48.7743 76.4957 48.425 76.0307 48.2472L75.16 47.9154C74.8154 47.8135 74.564 47.4088 74.3619 47.1328V47.4102C74.3702 47.666 74.325 47.9208 74.2292 48.1582C74.1335 48.3956 73.9894 48.6104 73.806 48.789C73.6226 48.9675 73.4039 49.1059 73.1641 49.1953C72.9242 49.2846 72.6683 49.323 72.4128 49.3079C72.1573 49.2928 71.9077 49.2247 71.68 49.1077C71.4523 48.9908 71.2515 48.8277 71.0903 48.6288C70.9292 48.4299 70.8113 48.1997 70.7441 47.9526C70.6769 47.7056 70.662 47.4473 70.7003 47.1942C70.5497 47.4837 70.3035 47.7121 70.0035 47.8404L69.1878 48.1329C68.7197 48.2985 68.3338 48.6388 68.1108 49.0824L66.8312 51.6215C66.8135 51.66 66.8116 51.7039 66.826 51.7438C66.8404 51.7837 66.8699 51.8163 66.9082 51.8346L68.6125 52.6096C68.6445 52.6242 68.6795 52.6309 68.7147 52.6291C68.7498 52.6274 68.784 52.6172 68.8144 52.5995C68.8448 52.5818 68.8705 52.557 68.8894 52.5273C68.9082 52.4976 68.9196 52.4638 68.9227 52.4287L68.9854 51.7144C68.9919 51.6571 69.0206 51.6046 69.0652 51.5681C69.1099 51.5316 69.167 51.514 69.2245 51.519C69.282 51.524 69.3352 51.5513 69.3728 51.595C69.4105 51.6387 69.4296 51.6954 69.426 51.7529L68.8954 57.7851C68.8951 57.8279 68.9037 57.8703 68.9206 57.9097C68.9374 57.9491 68.9621 57.9847 68.9932 58.0141C69.0243 58.0436 69.0611 58.0663 69.1014 58.081C69.1416 58.0957 69.1845 58.1019 69.2272 58.0994H75.8525C75.8955 58.1019 75.9385 58.0956 75.9789 58.0808C76.0193 58.066 76.0562 58.0431 76.0873 58.0133C76.1185 57.9836 76.1432 57.9479 76.1599 57.9082C76.1766 57.8685 76.1849 57.8259 76.1844 57.7828C76.0905 56.7762 75.7019 52.671 75.6157 51.7542C75.6116 51.6968 75.6301 51.6401 75.6673 51.5962C75.7044 51.5523 75.7573 51.5247 75.8146 51.5193C75.8718 51.5139 75.9289 51.5311 75.9737 51.5673C76.0184 51.6035 76.0471 51.6558 76.0537 51.7129L76.1205 52.42C76.1238 52.4547 76.1353 52.4882 76.1541 52.5176C76.1729 52.547 76.1984 52.5715 76.2285 52.5891C76.2587 52.6067 76.2925 52.6168 76.3274 52.6187C76.3622 52.6206 76.397 52.6142 76.4289 52.6L78.154 51.8303C78.1917 51.8125 78.2209 51.7806 78.2353 51.7415C78.2496 51.7024 78.2481 51.6595 78.2309 51.6215ZM72.1133 55.8483C72.1115 55.9054 72.0876 55.9596 72.0466 55.9994C72.0056 56.0392 71.9507 56.0614 71.8936 56.0614C71.8364 56.0614 71.7815 56.0392 71.7405 55.9994C71.6995 55.9596 71.6756 55.9054 71.6739 55.8483V53.6328L71.4606 53.7646C71.411 53.7939 71.352 53.8026 71.2962 53.7888C71.2403 53.775 71.1921 53.7399 71.1619 53.6909C71.1317 53.642 71.1219 53.5831 71.1346 53.527C71.1473 53.4709 71.1815 53.422 71.2299 53.3909L71.7771 53.05C71.8106 53.0301 71.8487 53.0194 71.8877 53.0188C71.9266 53.0183 71.965 53.0279 71.999 53.0468C72.0331 53.0658 72.0616 53.0933 72.0816 53.1266C72.1017 53.16 72.1127 53.1981 72.1135 53.237L72.1133 55.8483ZM73.6939 55.8483C73.6939 55.9066 73.6707 55.9625 73.6295 56.0038C73.5883 56.045 73.5324 56.0681 73.4741 56.0681C73.4158 56.0681 73.3598 56.045 73.3186 56.0038C73.2774 55.9625 73.2542 55.9066 73.2542 55.8483V53.6328L73.0412 53.7646C72.9916 53.7952 72.9319 53.8049 72.8752 53.7915C72.8185 53.7781 72.7695 53.7427 72.7389 53.6932C72.7083 53.6436 72.6986 53.5839 72.712 53.5272C72.7254 53.4705 72.7608 53.4215 72.8103 53.3909L73.3575 53.05C73.391 53.0301 73.4291 53.0194 73.468 53.0188C73.507 53.0183 73.5454 53.0279 73.5794 53.0468C73.6135 53.0658 73.642 53.0933 73.662 53.1266C73.6821 53.16 73.6931 53.1981 73.6939 53.237V55.8483Z" fill="#FAFAFA"/>
<path d="M72.1133 55.8483C72.1115 55.9054 72.0876 55.9596 72.0466 55.9994C72.0056 56.0392 71.9507 56.0614 71.8936 56.0614C71.8364 56.0614 71.7815 56.0392 71.7405 55.9994C71.6995 55.9596 71.6756 55.9054 71.6739 55.8483V53.6328L71.4606 53.7646C71.411 53.7939 71.352 53.8026 71.2962 53.7888C71.2403 53.775 71.1921 53.7399 71.1619 53.6909C71.1317 53.642 71.1219 53.5831 71.1346 53.527C71.1473 53.4709 71.1815 53.422 71.2299 53.3909L71.7771 53.05C71.8106 53.0301 71.8487 53.0194 71.8877 53.0188C71.9266 53.0183 71.965 53.0279 71.999 53.0468C72.0331 53.0658 72.0616 53.0933 72.0816 53.1266C72.1017 53.16 72.1127 53.1981 72.1135 53.237L72.1133 55.8483Z" fill="#FAFAFA"/>
<path d="M73.6939 55.8483C73.6939 55.9066 73.6707 55.9625 73.6295 56.0038C73.5883 56.045 73.5324 56.0681 73.4741 56.0681C73.4158 56.0681 73.3598 56.045 73.3186 56.0038C73.2774 55.9625 73.2542 55.9066 73.2542 55.8483V53.6328L73.0412 53.7646C72.9916 53.7952 72.9319 53.8049 72.8752 53.7915C72.8185 53.7781 72.7695 53.7427 72.7389 53.6932C72.7083 53.6436 72.6986 53.5839 72.712 53.5272C72.7254 53.4705 72.7608 53.4215 72.8103 53.3909L73.3575 53.05C73.391 53.0301 73.4291 53.0194 73.468 53.0188C73.507 53.0183 73.5454 53.0279 73.5794 53.0468C73.6135 53.0658 73.642 53.0933 73.662 53.1266C73.6821 53.16 73.6931 53.1981 73.6939 53.237V55.8483Z" fill="#FAFAFA"/>
<path d="M71.5 53.332H73.7917" stroke="#191919" stroke-width="0.343756" stroke-linecap="round" stroke-linejoin="round"/>
<path d="M72.646 54.4792V52.1875" stroke="#191919" stroke-width="0.343756" stroke-linecap="round" stroke-linejoin="round"/>
<path d="M50.7898 52.8673C51.1587 52.8668 51.5124 52.7201 51.7732 52.4593C52.034 52.1984 52.1808 51.8448 52.1812 51.4759V50.9944C51.2611 51.1677 50.316 51.161 49.3984 50.9746V51.4759C49.3989 51.8448 49.5456 52.1984 49.8064 52.4593C50.0673 52.7201 50.4209 52.8668 50.7898 52.8673Z" fill="#FAFAFA"/>
<path d="M56.4897 55.6215L55.3488 53.2233C55.1336 52.7743 54.7545 52.425 54.2895 52.2472L53.4188 51.9154C53.0742 51.8135 52.8228 51.4088 52.6207 51.1328V51.4102C52.6289 51.666 52.5838 51.9208 52.488 52.1582C52.3923 52.3956 52.2481 52.6104 52.0647 52.789C51.8813 52.9675 51.6627 53.1059 51.4229 53.1953C51.183 53.2846 50.9271 53.323 50.6716 53.3079C50.4161 53.2928 50.1665 53.2247 49.9388 53.1077C49.7111 52.9908 49.5102 52.8277 49.3491 52.6288C49.188 52.4299 49.07 52.1997 49.0029 51.9526C48.9357 51.7056 48.9208 51.4473 48.9591 51.1942C48.8085 51.4837 48.5622 51.7121 48.2622 51.8404L47.4466 52.1329C46.9785 52.2985 46.5926 52.6388 46.3696 53.0824L45.09 55.6215C45.0723 55.66 45.0704 55.7039 45.0848 55.7438C45.0992 55.7837 45.1287 55.8163 45.167 55.8346L46.8713 56.6096C46.9033 56.6242 46.9383 56.6309 46.9735 56.6291C47.0086 56.6274 47.0428 56.6172 47.0732 56.5995C47.1036 56.5818 47.1293 56.557 47.1482 56.5273C47.167 56.4976 47.1784 56.4638 47.1815 56.4287L47.2442 55.7144C47.2507 55.6571 47.2793 55.6046 47.324 55.5681C47.3687 55.5316 47.4258 55.514 47.4833 55.519C47.5407 55.524 47.594 55.5513 47.6316 55.595C47.6693 55.6387 47.6884 55.6954 47.6848 55.7529L47.1542 61.7851C47.1539 61.8279 47.1625 61.8703 47.1793 61.9097C47.1962 61.9491 47.2209 61.9847 47.252 62.0141C47.2831 62.0436 47.3199 62.0663 47.3602 62.081C47.4004 62.0957 47.4433 62.1019 47.486 62.0994H54.1113C54.1542 62.1019 54.1973 62.0956 54.2377 62.0808C54.2781 62.066 54.315 62.0431 54.3461 62.0133C54.3773 61.9836 54.402 61.9479 54.4186 61.9082C54.4353 61.8685 54.4437 61.8259 54.4432 61.7828C54.3493 60.7762 53.9607 56.671 53.8745 55.7542C53.8704 55.6968 53.8889 55.6401 53.926 55.5962C53.9632 55.5523 54.0161 55.5247 54.0734 55.5193C54.1306 55.5139 54.1877 55.5311 54.2324 55.5673C54.2771 55.6035 54.3059 55.6558 54.3125 55.7129L54.3793 56.42C54.3826 56.4547 54.3941 56.4882 54.4129 56.5176C54.4317 56.547 54.4572 56.5715 54.4873 56.5891C54.5174 56.6067 54.5513 56.6168 54.5862 56.6187C54.621 56.6206 54.6558 56.6142 54.6877 56.6L56.4128 55.8303C56.4505 55.8125 56.4796 55.7806 56.494 55.7415C56.5084 55.7024 56.5069 55.6595 56.4897 55.6215ZM50.3721 59.8483C50.3703 59.9054 50.3464 59.9596 50.3054 59.9994C50.2644 60.0392 50.2095 60.0614 50.1524 60.0614C50.0952 60.0614 50.0403 60.0392 49.9993 59.9994C49.9583 59.9596 49.9344 59.9054 49.9326 59.8483V57.6328L49.7193 57.7646C49.6698 57.7939 49.6108 57.8026 49.5549 57.7888C49.4991 57.775 49.4509 57.7399 49.4207 57.6909C49.3904 57.642 49.3806 57.5831 49.3934 57.527C49.4061 57.4709 49.4403 57.422 49.4887 57.3909L50.0359 57.05C50.0694 57.0301 50.1075 57.0194 50.1464 57.0188C50.1854 57.0183 50.2238 57.0279 50.2578 57.0468C50.2919 57.0658 50.3204 57.0933 50.3404 57.1266C50.3605 57.16 50.3715 57.1981 50.3723 57.237L50.3721 59.8483ZM51.9527 59.8483C51.9527 59.9066 51.9295 59.9625 51.8883 60.0038C51.8471 60.045 51.7911 60.0681 51.7328 60.0681C51.6745 60.0681 51.6186 60.045 51.5774 60.0038C51.5362 59.9625 51.513 59.9066 51.513 59.8483V57.6328L51.2999 57.7646C51.2504 57.7952 51.1907 57.8049 51.134 57.7915C51.0773 57.7781 51.0283 57.7427 50.9977 57.6932C50.9671 57.6436 50.9574 57.5839 50.9708 57.5272C50.9842 57.4705 51.0195 57.4215 51.0691 57.3909L51.6163 57.05C51.6498 57.0301 51.6879 57.0194 51.7268 57.0188C51.7658 57.0183 51.8042 57.0279 51.8382 57.0468C51.8723 57.0658 51.9007 57.0933 51.9208 57.1266C51.9409 57.16 51.9519 57.1981 51.9527 57.237V59.8483Z" fill="#FAFAFA"/>
<path d="M50.3721 59.8483C50.3703 59.9054 50.3464 59.9596 50.3054 59.9994C50.2644 60.0392 50.2095 60.0614 50.1524 60.0614C50.0952 60.0614 50.0403 60.0392 49.9993 59.9994C49.9583 59.9596 49.9344 59.9054 49.9326 59.8483V57.6328L49.7193 57.7646C49.6698 57.7939 49.6108 57.8026 49.5549 57.7888C49.4991 57.775 49.4509 57.7399 49.4207 57.6909C49.3904 57.642 49.3806 57.5831 49.3934 57.527C49.4061 57.4709 49.4403 57.422 49.4887 57.3909L50.0359 57.05C50.0694 57.0301 50.1075 57.0194 50.1464 57.0188C50.1854 57.0183 50.2238 57.0279 50.2578 57.0468C50.2919 57.0658 50.3204 57.0933 50.3404 57.1266C50.3605 57.16 50.3715 57.1981 50.3723 57.237L50.3721 59.8483Z" fill="#FAFAFA"/>
<path d="M51.9527 59.8483C51.9527 59.9066 51.9295 59.9625 51.8883 60.0038C51.8471 60.045 51.7911 60.0681 51.7328 60.0681C51.6745 60.0681 51.6186 60.045 51.5774 60.0038C51.5362 59.9625 51.513 59.9066 51.513 59.8483V57.6328L51.2999 57.7646C51.2504 57.7952 51.1907 57.8049 51.134 57.7915C51.0773 57.7781 51.0283 57.7427 50.9977 57.6932C50.9671 57.6436 50.9574 57.5839 50.9708 57.5272C50.9842 57.4705 51.0195 57.4215 51.0691 57.3909L51.6163 57.05C51.6498 57.0301 51.6879 57.0194 51.7268 57.0188C51.7658 57.0183 51.8042 57.0279 51.8382 57.0468C51.8723 57.0658 51.9007 57.0933 51.9208 57.1266C51.9409 57.16 51.9519 57.1981 51.9527 57.237V59.8483Z" fill="#FAFAFA"/>
<path d="M49.7588 57.332H52.0505" stroke="#191919" stroke-width="0.343756" stroke-linecap="round" stroke-linejoin="round"/>
<path d="M50.9048 58.4792V56.1875" stroke="#191919" stroke-width="0.343756" stroke-linecap="round" stroke-linejoin="round"/>
<path d="M30.7898 52.8673C31.1587 52.8668 31.5124 52.7201 31.7732 52.4593C32.034 52.1984 32.1808 51.8448 32.1812 51.4759V50.9944C31.2611 51.1677 30.316 51.161 29.3984 50.9746V51.4759C29.3989 51.8448 29.5456 52.1984 29.8064 52.4593C30.0673 52.7201 30.4209 52.8668 30.7898 52.8673Z" fill="#FAFAFA"/>
<path d="M36.4897 55.6215L35.3488 53.2233C35.1336 52.7743 34.7545 52.425 34.2895 52.2472L33.4188 51.9154C33.0742 51.8135 32.8228 51.4088 32.6207 51.1328V51.4102C32.6289 51.666 32.5838 51.9208 32.488 52.1582C32.3923 52.3956 32.2481 52.6104 32.0647 52.789C31.8813 52.9675 31.6627 53.1059 31.4229 53.1953C31.183 53.2846 30.9271 53.323 30.6716 53.3079C30.4161 53.2928 30.1665 53.2247 29.9388 53.1077C29.7111 52.9908 29.5102 52.8277 29.3491 52.6288C29.188 52.4299 29.07 52.1997 29.0029 51.9526C28.9357 51.7056 28.9208 51.4473 28.9591 51.1942C28.8085 51.4837 28.5622 51.7121 28.2622 51.8404L27.4466 52.1329C26.9785 52.2985 26.5926 52.6388 26.3696 53.0824L25.09 55.6215C25.0723 55.66 25.0704 55.7039 25.0848 55.7438C25.0992 55.7837 25.1287 55.8163 25.167 55.8346L26.8713 56.6096C26.9033 56.6242 26.9383 56.6309 26.9735 56.6291C27.0086 56.6274 27.0428 56.6172 27.0732 56.5995C27.1036 56.5818 27.1293 56.557 27.1482 56.5273C27.167 56.4976 27.1784 56.4638 27.1815 56.4287L27.2442 55.7144C27.2507 55.6571 27.2793 55.6046 27.324 55.5681C27.3687 55.5316 27.4258 55.514 27.4833 55.519C27.5407 55.524 27.594 55.5513 27.6316 55.595C27.6693 55.6387 27.6884 55.6954 27.6848 55.7529L27.1542 61.7851C27.1539 61.8279 27.1625 61.8703 27.1793 61.9097C27.1962 61.9491 27.2209 61.9847 27.252 62.0141C27.2831 62.0436 27.3199 62.0663 27.3602 62.081C27.4004 62.0957 27.4433 62.1019 27.486 62.0994H34.1113C34.1542 62.1019 34.1973 62.0956 34.2377 62.0808C34.2781 62.066 34.315 62.0431 34.3461 62.0133C34.3773 61.9836 34.402 61.9479 34.4186 61.9082C34.4353 61.8685 34.4437 61.8259 34.4432 61.7828C34.3493 60.7762 33.9607 56.671 33.8745 55.7542C33.8704 55.6968 33.8889 55.6401 33.926 55.5962C33.9632 55.5523 34.0161 55.5247 34.0734 55.5193C34.1306 55.5139 34.1877 55.5311 34.2324 55.5673C34.2771 55.6035 34.3059 55.6558 34.3125 55.7129L34.3793 56.42C34.3826 56.4547 34.3941 56.4882 34.4129 56.5176C34.4317 56.547 34.4572 56.5715 34.4873 56.5891C34.5174 56.6067 34.5513 56.6168 34.5862 56.6187C34.621 56.6206 34.6558 56.6142 34.6877 56.6L36.4128 55.8303C36.4505 55.8125 36.4796 55.7806 36.494 55.7415C36.5084 55.7024 36.5069 55.6595 36.4897 55.6215ZM30.3721 59.8483C30.3703 59.9054 30.3464 59.9596 30.3054 59.9994C30.2644 60.0392 30.2095 60.0614 30.1524 60.0614C30.0952 60.0614 30.0403 60.0392 29.9993 59.9994C29.9583 59.9596 29.9344 59.9054 29.9326 59.8483V57.6328L29.7193 57.7646C29.6698 57.7939 29.6108 57.8026 29.5549 57.7888C29.4991 57.775 29.4509 57.7399 29.4207 57.6909C29.3904 57.642 29.3806 57.5831 29.3934 57.527C29.4061 57.4709 29.4403 57.422 29.4887 57.3909L30.0359 57.05C30.0694 57.0301 30.1075 57.0194 30.1464 57.0188C30.1854 57.0183 30.2238 57.0279 30.2578 57.0468C30.2919 57.0658 30.3204 57.0933 30.3404 57.1266C30.3605 57.16 30.3715 57.1981 30.3723 57.237L30.3721 59.8483ZM31.9527 59.8483C31.9527 59.9066 31.9295 59.9625 31.8883 60.0038C31.8471 60.045 31.7911 60.0681 31.7328 60.0681C31.6745 60.0681 31.6186 60.045 31.5774 60.0038C31.5362 59.9625 31.513 59.9066 31.513 59.8483V57.6328L31.2999 57.7646C31.2504 57.7952 31.1907 57.8049 31.134 57.7915C31.0773 57.7781 31.0283 57.7427 30.9977 57.6932C30.9671 57.6436 30.9574 57.5839 30.9708 57.5272C30.9842 57.4705 31.0195 57.4215 31.0691 57.3909L31.6163 57.05C31.6498 57.0301 31.6879 57.0194 31.7268 57.0188C31.7658 57.0183 31.8042 57.0279 31.8382 57.0468C31.8723 57.0658 31.9007 57.0933 31.9208 57.1266C31.9409 57.16 31.9519 57.1981 31.9527 57.237V59.8483Z" fill="#FAFAFA"/>
<path d="M30.3721 59.8483C30.3703 59.9054 30.3464 59.9596 30.3054 59.9994C30.2644 60.0392 30.2095 60.0614 30.1524 60.0614C30.0952 60.0614 30.0403 60.0392 29.9993 59.9994C29.9583 59.9596 29.9344 59.9054 29.9326 59.8483V57.6328L29.7193 57.7646C29.6698 57.7939 29.6108 57.8026 29.5549 57.7888C29.4991 57.775 29.4509 57.7399 29.4207 57.6909C29.3904 57.642 29.3806 57.5831 29.3934 57.527C29.4061 57.4709 29.4403 57.422 29.4887 57.3909L30.0359 57.05C30.0694 57.0301 30.1075 57.0194 30.1464 57.0188C30.1854 57.0183 30.2238 57.0279 30.2578 57.0468C30.2919 57.0658 30.3204 57.0933 30.3404 57.1266C30.3605 57.16 30.3715 57.1981 30.3723 57.237L30.3721 59.8483Z" fill="#FAFAFA"/>
<path d="M31.9527 59.8483C31.9527 59.9066 31.9295 59.9625 31.8883 60.0038C31.8471 60.045 31.7911 60.0681 31.7328 60.0681C31.6745 60.0681 31.6186 60.045 31.5774 60.0038C31.5362 59.9625 31.513 59.9066 31.513 59.8483V57.6328L31.2999 57.7646C31.2504 57.7952 31.1907 57.8049 31.134 57.7915C31.0773 57.7781 31.0283 57.7427 30.9977 57.6932C30.9671 57.6436 30.9574 57.5839 30.9708 57.5272C30.9842 57.4705 31.0195 57.4215 31.0691 57.3909L31.6163 57.05C31.6498 57.0301 31.6879 57.0194 31.7268 57.0188C31.7658 57.0183 31.8042 57.0279 31.8382 57.0468C31.8723 57.0658 31.9007 57.0933 31.9208 57.1266C31.9409 57.16 31.9519 57.1981 31.9527 57.237V59.8483Z" fill="#FAFAFA"/>
<path d="M29.7588 57.332H32.0505" stroke="#191919" stroke-width="0.343756" stroke-linecap="round" stroke-linejoin="round"/>
<path d="M30.9048 58.4792V56.1875" stroke="#191919" stroke-width="0.343756" stroke-linecap="round" stroke-linejoin="round"/>
<path d="M24.531 2.86728C24.8999 2.86685 25.2536 2.72012 25.5144 2.45927C25.7753 2.19843 25.922 1.84478 25.9224 1.47589V0.994408C25.0023 1.16774 24.0572 1.16102 23.1396 0.974609V1.47589C23.1401 1.84478 23.2868 2.19843 23.5477 2.45927C23.8085 2.72012 24.1621 2.86685 24.531 2.86728Z" fill="#FAFAFA"/>
<path d="M30.2309 5.6215L29.09 3.22326C28.8748 2.77433 28.4957 2.42501 28.0307 2.24723L27.16 1.91535C26.8154 1.8135 26.564 1.40876 26.3619 1.13281V1.41019C26.3702 1.66603 26.325 1.92078 26.2292 2.15818C26.1335 2.39558 25.9894 2.61042 25.806 2.78898C25.6226 2.96755 25.4039 3.10592 25.1641 3.19527C24.9242 3.28462 24.6683 3.32299 24.4128 3.30792C24.1573 3.29285 23.9077 3.22467 23.68 3.10775C23.4523 2.99082 23.2515 2.82772 23.0903 2.62883C22.9292 2.42994 22.8113 2.19965 22.7441 1.95265C22.6769 1.70564 22.662 1.44735 22.7003 1.19425C22.5497 1.48374 22.3035 1.7121 22.0035 1.84045L21.1878 2.13293C20.7197 2.29852 20.3338 2.63876 20.1108 3.08243L18.8312 5.6215C18.8135 5.66 18.8116 5.70395 18.826 5.74383C18.8404 5.78371 18.8699 5.81632 18.9082 5.83458L20.6125 6.60957C20.6445 6.62418 20.6795 6.63089 20.7147 6.62913C20.7498 6.62738 20.784 6.61722 20.8144 6.5995C20.8448 6.58178 20.8705 6.55702 20.8894 6.52731C20.9082 6.49759 20.9196 6.46379 20.9227 6.42873L20.9854 5.71437C20.9919 5.65706 21.0206 5.60457 21.0652 5.56808C21.1099 5.53159 21.167 5.51399 21.2245 5.51902C21.282 5.52405 21.3352 5.55131 21.3728 5.59501C21.4105 5.6387 21.4296 5.69537 21.426 5.75294L20.8954 11.7851C20.8951 11.8279 20.9037 11.8703 20.9206 11.9097C20.9374 11.9491 20.9621 11.9847 20.9932 12.0141C21.0243 12.0436 21.0611 12.0663 21.1014 12.081C21.1416 12.0957 21.1845 12.1019 21.2272 12.0994H27.8525C27.8955 12.1019 27.9385 12.0956 27.9789 12.0808C28.0193 12.066 28.0562 12.0431 28.0873 12.0133C28.1185 11.9836 28.1432 11.9479 28.1599 11.9082C28.1766 11.8685 28.1849 11.8259 28.1844 11.7828C28.0905 10.7762 27.7019 6.67101 27.6157 5.75417C27.6116 5.69679 27.6301 5.64008 27.6673 5.59618C27.7044 5.55227 27.7573 5.52467 27.8146 5.51928C27.8718 5.51389 27.9289 5.53114 27.9737 5.56734C28.0184 5.60353 28.0471 5.6558 28.0537 5.71294L28.1205 6.41996C28.1238 6.4547 28.1353 6.48815 28.1541 6.51756C28.1729 6.54697 28.1984 6.57148 28.2285 6.58908C28.2587 6.60667 28.2925 6.61683 28.3274 6.61873C28.3622 6.62062 28.397 6.6142 28.4289 6.59998L30.154 5.8303C30.1917 5.81252 30.2209 5.78065 30.2353 5.74155C30.2496 5.70245 30.2481 5.65946 30.2309 5.6215ZM24.1133 9.84832C24.1115 9.90543 24.0876 9.95962 24.0466 9.99941C24.0056 10.0392 23.9507 10.0614 23.8936 10.0614C23.8364 10.0614 23.7815 10.0392 23.7405 9.99941C23.6995 9.95962 23.6756 9.90543 23.6739 9.84832V7.63275L23.4606 7.7646C23.411 7.79389 23.352 7.80258 23.2962 7.7888C23.2403 7.77502 23.1921 7.73987 23.1619 7.69091C23.1317 7.64196 23.1219 7.5831 23.1346 7.52699C23.1473 7.47089 23.1815 7.42202 23.2299 7.39089L23.7771 7.05003C23.8106 7.03014 23.8487 7.01938 23.8877 7.01882C23.9266 7.01826 23.965 7.02792 23.999 7.04684C24.0331 7.06576 24.0616 7.09328 24.0816 7.12664C24.1017 7.16001 24.1127 7.19806 24.1135 7.23699L24.1133 9.84832ZM25.6939 9.84832C25.6939 9.90662 25.6707 9.96253 25.6295 10.0038C25.5883 10.045 25.5324 10.0681 25.4741 10.0681C25.4158 10.0681 25.3598 10.045 25.3186 10.0038C25.2774 9.96253 25.2542 9.90662 25.2542 9.84832V7.63275L25.0412 7.7646C24.9916 7.79522 24.9319 7.80489 24.8752 7.79149C24.8185 7.77809 24.7695 7.74273 24.7389 7.69317C24.7083 7.64361 24.6986 7.58392 24.712 7.52723C24.7254 7.47054 24.7608 7.4215 24.8103 7.39089L25.3575 7.05003C25.391 7.03014 25.4291 7.01938 25.468 7.01882C25.507 7.01826 25.5454 7.02792 25.5794 7.04684C25.6135 7.06576 25.642 7.09328 25.662 7.12664C25.6821 7.16001 25.6931 7.19806 25.6939 7.23699V9.84832Z" fill="#FAFAFA"/>
<path d="M24.1133 9.84832C24.1115 9.90543 24.0876 9.95962 24.0466 9.99941C24.0056 10.0392 23.9507 10.0614 23.8936 10.0614C23.8364 10.0614 23.7815 10.0392 23.7405 9.99941C23.6995 9.95962 23.6756 9.90543 23.6739 9.84832V7.63275L23.4606 7.7646C23.411 7.79389 23.352 7.80258 23.2962 7.7888C23.2403 7.77502 23.1921 7.73987 23.1619 7.69091C23.1317 7.64196 23.1219 7.5831 23.1346 7.52699C23.1473 7.47089 23.1815 7.42202 23.2299 7.39089L23.7771 7.05003C23.8106 7.03014 23.8487 7.01938 23.8877 7.01882C23.9266 7.01826 23.965 7.02792 23.999 7.04684C24.0331 7.06576 24.0616 7.09328 24.0816 7.12664C24.1017 7.16001 24.1127 7.19806 24.1135 7.23699L24.1133 9.84832Z" fill="#FAFAFA"/>
<path d="M25.6939 9.84832C25.6939 9.90662 25.6707 9.96253 25.6295 10.0038C25.5883 10.045 25.5324 10.0681 25.4741 10.0681C25.4158 10.0681 25.3598 10.045 25.3186 10.0038C25.2774 9.96253 25.2542 9.90662 25.2542 9.84832V7.63275L25.0412 7.7646C24.9916 7.79522 24.9319 7.80489 24.8752 7.79149C24.8185 7.77809 24.7695 7.74273 24.7389 7.69317C24.7083 7.64361 24.6986 7.58392 24.712 7.52723C24.7254 7.47054 24.7608 7.4215 24.8103 7.39089L25.3575 7.05003C25.391 7.03014 25.4291 7.01938 25.468 7.01882C25.507 7.01826 25.5454 7.02792 25.5794 7.04684C25.6135 7.06576 25.642 7.09328 25.662 7.12664C25.6821 7.16001 25.6931 7.19806 25.6939 7.23699V9.84832Z" fill="#FAFAFA"/>
<path d="M23.5 7.33203H25.7917" stroke="#191919" stroke-width="0.343756" stroke-linecap="round" stroke-linejoin="round"/>
<path d="M24.646 8.47921V6.1875" stroke="#191919" stroke-width="0.343756" stroke-linecap="round" stroke-linejoin="round"/>
<path d="M23.8526 34.8673C24.2215 34.8668 24.5751 34.7201 24.8359 34.4593C25.0968 34.1984 25.2435 33.8448 25.244 33.4759V32.9944C24.3238 33.1677 23.3788 33.161 22.4612 32.9746V33.4759C22.4616 33.8448 22.6083 34.1984 22.8692 34.4593C23.13 34.7201 23.4837 34.8668 23.8526 34.8673Z" fill="#FAFAFA"/>
<path d="M29.5525 37.6215L28.4115 35.2233C28.1964 34.7743 27.8172 34.425 27.3522 34.2472L26.4815 33.9154C26.137 33.8135 25.8855 33.4088 25.6835 33.1328V33.4102C25.6917 33.666 25.6465 33.9208 25.5508 34.1582C25.4551 34.3956 25.3109 34.6104 25.1275 34.789C24.9441 34.9675 24.7255 35.1059 24.4856 35.1953C24.2457 35.2846 23.9899 35.323 23.7343 35.3079C23.4788 35.2928 23.2292 35.2247 23.0015 35.1077C22.7738 34.9908 22.573 34.8277 22.4118 34.6288C22.2507 34.4299 22.1328 34.1997 22.0656 33.9526C21.9985 33.7056 21.9835 33.4473 22.0218 33.1942C21.8712 33.4837 21.625 33.7121 21.325 33.8404L20.5094 34.1329C20.0412 34.2985 19.6553 34.6388 19.4323 35.0824L18.1528 37.6215C18.135 37.66 18.1331 37.7039 18.1475 37.7438C18.1619 37.7837 18.1915 37.8163 18.2297 37.8346L19.934 38.6096C19.966 38.6242 20.0011 38.6309 20.0362 38.6291C20.0714 38.6274 20.1056 38.6172 20.136 38.5995C20.1664 38.5818 20.1921 38.557 20.2109 38.5273C20.2297 38.4976 20.2412 38.4638 20.2442 38.4287L20.3069 37.7144C20.3134 37.6571 20.3421 37.6046 20.3868 37.5681C20.4314 37.5316 20.4886 37.514 20.546 37.519C20.6035 37.524 20.6567 37.5513 20.6944 37.595C20.732 37.6387 20.7511 37.6954 20.7476 37.7529L20.2169 43.7851C20.2167 43.8279 20.2253 43.8703 20.2421 43.9097C20.2589 43.9491 20.2837 43.9847 20.3148 44.0141C20.3459 44.0436 20.3827 44.0663 20.4229 44.081C20.4632 44.0957 20.506 44.1019 20.5488 44.0994H27.174C27.217 44.1019 27.26 44.0956 27.3004 44.0808C27.3408 44.066 27.3777 44.0431 27.4089 44.0133C27.44 43.9836 27.4647 43.9479 27.4814 43.9082C27.4981 43.8685 27.5064 43.8259 27.5059 43.7828C27.412 42.7762 27.0234 38.671 26.9373 37.7542C26.9331 37.6968 26.9516 37.6401 26.9888 37.5962C27.026 37.5523 27.0788 37.5247 27.1361 37.5193C27.1934 37.5139 27.2505 37.5311 27.2952 37.5673C27.3399 37.6035 27.3686 37.6558 27.3753 37.7129L27.442 38.42C27.4453 38.4547 27.4568 38.4882 27.4756 38.5176C27.4944 38.547 27.5199 38.5715 27.55 38.5891C27.5802 38.6067 27.6141 38.6168 27.6489 38.6187C27.6838 38.6206 27.7186 38.6142 27.7504 38.6L29.4755 37.8303C29.5132 37.8125 29.5424 37.7806 29.5568 37.7415C29.5712 37.7024 29.5696 37.6595 29.5525 37.6215ZM23.4348 41.8483C23.4331 41.9054 23.4092 41.9596 23.3682 41.9994C23.3271 42.0392 23.2722 42.0614 23.2151 42.0614C23.158 42.0614 23.1031 42.0392 23.0621 41.9994C23.021 41.9596 22.9971 41.9054 22.9954 41.8483V39.6328L22.7821 39.7646C22.7326 39.7939 22.6735 39.8026 22.6177 39.7888C22.5618 39.775 22.5136 39.7399 22.4834 39.6909C22.4532 39.642 22.4434 39.5831 22.4561 39.527C22.4688 39.4709 22.5031 39.422 22.5515 39.3909L23.0987 39.05C23.1321 39.0301 23.1703 39.0194 23.2092 39.0188C23.2481 39.0183 23.2865 39.0279 23.3206 39.0468C23.3546 39.0658 23.3831 39.0933 23.4032 39.1266C23.4233 39.16 23.4342 39.1981 23.435 39.237L23.4348 41.8483ZM25.0154 41.8483C25.0154 41.9066 24.9923 41.9625 24.951 42.0038C24.9098 42.045 24.8539 42.0681 24.7956 42.0681C24.7373 42.0681 24.6814 42.045 24.6402 42.0038C24.5989 41.9625 24.5758 41.9066 24.5758 41.8483V39.6328L24.3627 39.7646C24.3131 39.7952 24.2534 39.8049 24.1968 39.7915C24.1401 39.7781 24.091 39.7427 24.0604 39.6932C24.0298 39.6436 24.0201 39.5839 24.0335 39.5272C24.0469 39.4705 24.0823 39.4215 24.1318 39.3909L24.679 39.05C24.7125 39.0301 24.7506 39.0194 24.7896 39.0188C24.8285 39.0183 24.8669 39.0279 24.901 39.0468C24.935 39.0658 24.9635 39.0933 24.9836 39.1266C25.0036 39.16 25.0146 39.1981 25.0154 39.237V41.8483Z" fill="#FAFAFA"/>
<path d="M23.4348 41.8483C23.4331 41.9054 23.4092 41.9596 23.3682 41.9994C23.3271 42.0392 23.2722 42.0614 23.2151 42.0614C23.158 42.0614 23.1031 42.0392 23.0621 41.9994C23.021 41.9596 22.9971 41.9054 22.9954 41.8483V39.6328L22.7821 39.7646C22.7326 39.7939 22.6735 39.8026 22.6177 39.7888C22.5618 39.775 22.5136 39.7399 22.4834 39.6909C22.4532 39.642 22.4434 39.5831 22.4561 39.527C22.4688 39.4709 22.5031 39.422 22.5515 39.3909L23.0987 39.05C23.1321 39.0301 23.1703 39.0194 23.2092 39.0188C23.2481 39.0183 23.2865 39.0279 23.3206 39.0468C23.3546 39.0658 23.3831 39.0933 23.4032 39.1266C23.4233 39.16 23.4342 39.1981 23.435 39.237L23.4348 41.8483Z" fill="#FAFAFA"/>
<path d="M25.0154 41.8483C25.0154 41.9066 24.9923 41.9625 24.951 42.0038C24.9098 42.045 24.8539 42.0681 24.7956 42.0681C24.7373 42.0681 24.6814 42.045 24.6402 42.0038C24.5989 41.9625 24.5758 41.9066 24.5758 41.8483V39.6328L24.3627 39.7646C24.3131 39.7952 24.2534 39.8049 24.1968 39.7915C24.1401 39.7781 24.091 39.7427 24.0604 39.6932C24.0298 39.6436 24.0201 39.5839 24.0335 39.5272C24.0469 39.4705 24.0823 39.4215 24.1318 39.3909L24.679 39.05C24.7125 39.0301 24.7506 39.0194 24.7896 39.0188C24.8285 39.0183 24.8669 39.0279 24.901 39.0468C24.935 39.0658 24.9635 39.0933 24.9836 39.1266C25.0036 39.16 25.0146 39.1981 25.0154 39.237V41.8483Z" fill="#FAFAFA"/>
<path d="M22.8215 39.332H25.1132" stroke="#191919" stroke-width="0.343756" stroke-linecap="round" stroke-linejoin="round"/>
<path d="M23.9675 40.4792V38.1875" stroke="#191919" stroke-width="0.343756" stroke-linecap="round" stroke-linejoin="round"/>
<path d="M40.9153 20.8673C41.2842 20.8668 41.6379 20.7201 41.8987 20.4593C42.1595 20.1984 42.3063 19.8448 42.3067 19.4759V18.9944C41.3865 19.1677 40.4415 19.161 39.5239 18.9746V19.4759C39.5244 19.8448 39.6711 20.1984 39.9319 20.4593C40.1928 20.7201 40.5464 20.8668 40.9153 20.8673Z" fill="#FAFAFA"/>
<path d="M46.6152 23.6215L45.4743 21.2233C45.2591 20.7743 44.88 20.425 44.415 20.2472L43.5442 19.9154C43.1997 19.8135 42.9483 19.4088 42.7462 19.1328V19.4102C42.7544 19.666 42.7092 19.9208 42.6135 20.1582C42.5178 20.3956 42.3736 20.6104 42.1902 20.789C42.0068 20.9675 41.7882 21.1059 41.5484 21.1953C41.3085 21.2846 41.0526 21.323 40.7971 21.3079C40.5416 21.2928 40.292 21.2247 40.0643 21.1077C39.8366 20.9908 39.6357 20.8277 39.4746 20.6288C39.3134 20.4299 39.1955 20.1997 39.1284 19.9526C39.0612 19.7056 39.0463 19.4473 39.0845 19.1942C38.934 19.4837 38.6877 19.7121 38.3877 19.8404L37.5721 20.1329C37.104 20.2985 36.718 20.6388 36.4951 21.0824L35.2155 23.6215C35.1978 23.66 35.1959 23.7039 35.2103 23.7438C35.2247 23.7837 35.2542 23.8163 35.2925 23.8346L36.9968 24.6096C37.0288 24.6242 37.0638 24.6309 37.099 24.6291C37.1341 24.6274 37.1683 24.6172 37.1987 24.5995C37.2291 24.5818 37.2548 24.557 37.2736 24.5273C37.2925 24.4976 37.3039 24.4638 37.307 24.4287L37.3697 23.7144C37.3762 23.6571 37.4048 23.6046 37.4495 23.5681C37.4942 23.5316 37.5513 23.514 37.6088 23.519C37.6662 23.524 37.7195 23.5513 37.7571 23.595C37.7947 23.6387 37.8138 23.6954 37.8103 23.7529L37.2796 29.7851C37.2794 29.8279 37.288 29.8703 37.3048 29.9097C37.3217 29.9491 37.3464 29.9847 37.3775 30.0141C37.4086 30.0436 37.4454 30.0663 37.4857 30.081C37.5259 30.0957 37.5688 30.1019 37.6115 30.0994H44.2368C44.2797 30.1019 44.3228 30.0956 44.3632 30.0808C44.4036 30.066 44.4405 30.0431 44.4716 30.0133C44.5028 29.9836 44.5274 29.9479 44.5441 29.9082C44.5608 29.8685 44.5692 29.8259 44.5687 29.7828C44.4748 28.7762 44.0861 24.671 44 23.7542C43.9959 23.6968 44.0144 23.6401 44.0515 23.5962C44.0887 23.5523 44.1416 23.5247 44.1989 23.5193C44.2561 23.5139 44.3132 23.5311 44.3579 23.5673C44.4026 23.6035 44.4314 23.6558 44.438 23.7129L44.5048 24.42C44.5081 24.4547 44.5196 24.4882 44.5384 24.5176C44.5571 24.547 44.5827 24.5715 44.6128 24.5891C44.6429 24.6067 44.6768 24.6168 44.7117 24.6187C44.7465 24.6206 44.7813 24.6142 44.8132 24.6L46.5383 23.8303C46.5759 23.8125 46.6051 23.7806 46.6195 23.7415C46.6339 23.7024 46.6324 23.6595 46.6152 23.6215ZM40.4976 27.8483C40.4958 27.9054 40.4719 27.9596 40.4309 27.9994C40.3899 28.0392 40.335 28.0614 40.2778 28.0614C40.2207 28.0614 40.1658 28.0392 40.1248 27.9994C40.0838 27.9596 40.0599 27.9054 40.0581 27.8483V25.6328L39.8448 25.7646C39.7953 25.7939 39.7363 25.8026 39.6804 25.7888C39.6246 25.775 39.5764 25.7399 39.5461 25.6909C39.5159 25.642 39.5061 25.5831 39.5189 25.527C39.5316 25.4709 39.5658 25.422 39.6142 25.3909L40.1614 25.05C40.1949 25.0301 40.233 25.0194 40.2719 25.0188C40.3109 25.0183 40.3493 25.0279 40.3833 25.0468C40.4174 25.0658 40.4458 25.0933 40.4659 25.1266C40.486 25.16 40.497 25.1981 40.4978 25.237L40.4976 27.8483ZM42.0782 27.8483C42.0782 27.9066 42.055 27.9625 42.0138 28.0038C41.9726 28.045 41.9166 28.0681 41.8583 28.0681C41.8 28.0681 41.7441 28.045 41.7029 28.0038C41.6617 27.9625 41.6385 27.9066 41.6385 27.8483V25.6328L41.4254 25.7646C41.3759 25.7952 41.3162 25.8049 41.2595 25.7915C41.2028 25.7781 41.1538 25.7427 41.1232 25.6932C41.0925 25.6436 41.0829 25.5839 41.0963 25.5272C41.1097 25.4705 41.145 25.4215 41.1946 25.3909L41.7418 25.05C41.7753 25.0301 41.8134 25.0194 41.8523 25.0188C41.8913 25.0183 41.9297 25.0279 41.9637 25.0468C41.9977 25.0658 42.0262 25.0933 42.0463 25.1266C42.0664 25.16 42.0774 25.1981 42.0782 25.237V27.8483Z" fill="#FAFAFA"/>
<path d="M40.4976 27.8483C40.4958 27.9054 40.4719 27.9596 40.4309 27.9994C40.3899 28.0392 40.335 28.0614 40.2778 28.0614C40.2207 28.0614 40.1658 28.0392 40.1248 27.9994C40.0838 27.9596 40.0599 27.9054 40.0581 27.8483V25.6328L39.8448 25.7646C39.7953 25.7939 39.7363 25.8026 39.6804 25.7888C39.6246 25.775 39.5764 25.7399 39.5461 25.6909C39.5159 25.642 39.5061 25.5831 39.5189 25.527C39.5316 25.4709 39.5658 25.422 39.6142 25.3909L40.1614 25.05C40.1949 25.0301 40.233 25.0194 40.2719 25.0188C40.3109 25.0183 40.3493 25.0279 40.3833 25.0468C40.4174 25.0658 40.4458 25.0933 40.4659 25.1266C40.486 25.16 40.497 25.1981 40.4978 25.237L40.4976 27.8483Z" fill="#FAFAFA"/>
<path d="M42.0782 27.8483C42.0782 27.9066 42.055 27.9625 42.0138 28.0038C41.9726 28.045 41.9166 28.0681 41.8583 28.0681C41.8 28.0681 41.7441 28.045 41.7029 28.0038C41.6617 27.9625 41.6385 27.9066 41.6385 27.8483V25.6328L41.4254 25.7646C41.3759 25.7952 41.3162 25.8049 41.2595 25.7915C41.2028 25.7781 41.1538 25.7427 41.1232 25.6932C41.0925 25.6436 41.0829 25.5839 41.0963 25.5272C41.1097 25.4705 41.145 25.4215 41.1946 25.3909L41.7418 25.05C41.7753 25.0301 41.8134 25.0194 41.8523 25.0188C41.8913 25.0183 41.9297 25.0279 41.9637 25.0468C41.9977 25.0658 42.0262 25.0933 42.0463 25.1266C42.0664 25.16 42.0774 25.1981 42.0782 25.237V27.8483Z" fill="#FAFAFA"/>
<path d="M39.8843 25.332H42.176" stroke="#191919" stroke-width="0.343756" stroke-linecap="round" stroke-linejoin="round"/>
<path d="M41.0303 26.4792V24.1875" stroke="#191919" stroke-width="0.343756" stroke-linecap="round" stroke-linejoin="round"/>
<path d="M40.9781 34.8673C41.3469 34.8668 41.7006 34.7201 41.9614 34.4593C42.2223 34.1984 42.369 33.8448 42.3694 33.4759V32.9944C41.4493 33.1677 40.5043 33.161 39.5867 32.9746V33.4759C39.5871 33.8448 39.7338 34.1984 39.9947 34.4593C40.2555 34.7201 40.6092 34.8668 40.9781 34.8673Z" fill="#FAFAFA"/>
<path d="M46.678 37.6215L45.537 35.2233C45.3218 34.7743 44.9427 34.425 44.4777 34.2472L43.607 33.9154C43.2625 33.8135 43.011 33.4088 42.8089 33.1328V33.4102C42.8172 33.666 42.772 33.9208 42.6763 34.1582C42.5805 34.3956 42.4364 34.6104 42.253 34.789C42.0696 34.9675 41.851 35.1059 41.6111 35.1953C41.3712 35.2846 41.1154 35.323 40.8598 35.3079C40.6043 35.2928 40.3547 35.2247 40.127 35.1077C39.8993 34.9908 39.6985 34.8277 39.5373 34.6288C39.3762 34.4299 39.2583 34.1997 39.1911 33.9526C39.124 33.7056 39.109 33.4473 39.1473 33.1942C38.9967 33.4837 38.7505 33.7121 38.4505 33.8404L37.6349 34.1329C37.1667 34.2985 36.7808 34.6388 36.5578 35.0824L35.2783 37.6215C35.2605 37.66 35.2586 37.7039 35.273 37.7438C35.2874 37.7837 35.3169 37.8163 35.3552 37.8346L37.0595 38.6096C37.0915 38.6242 37.1266 38.6309 37.1617 38.6291C37.1968 38.6274 37.2311 38.6172 37.2614 38.5995C37.2918 38.5818 37.3175 38.557 37.3364 38.5273C37.3552 38.4976 37.3667 38.4638 37.3697 38.4287L37.4324 37.7144C37.4389 37.6571 37.4676 37.6046 37.5122 37.5681C37.5569 37.5316 37.6141 37.514 37.6715 37.519C37.729 37.524 37.7822 37.5513 37.8198 37.595C37.8575 37.6387 37.8766 37.6954 37.8731 37.7529L37.3424 43.7851C37.3422 43.8279 37.3507 43.8703 37.3676 43.9097C37.3844 43.9491 37.4091 43.9847 37.4402 44.0141C37.4713 44.0436 37.5082 44.0663 37.5484 44.081C37.5887 44.0957 37.6315 44.1019 37.6743 44.0994H44.2995C44.3425 44.1019 44.3855 44.0956 44.4259 44.0808C44.4663 44.066 44.5032 44.0431 44.5344 44.0133C44.5655 43.9836 44.5902 43.9479 44.6069 43.9082C44.6236 43.8685 44.6319 43.8259 44.6314 43.7828C44.5375 42.7762 44.1489 38.671 44.0628 37.7542C44.0586 37.6968 44.0771 37.6401 44.1143 37.5962C44.1514 37.5523 44.2043 37.5247 44.2616 37.5193C44.3189 37.5139 44.376 37.5311 44.4207 37.5673C44.4654 37.6035 44.4941 37.6558 44.5008 37.7129L44.5675 38.42C44.5708 38.4547 44.5823 38.4882 44.6011 38.5176C44.6199 38.547 44.6454 38.5715 44.6755 38.5891C44.7057 38.6067 44.7396 38.6168 44.7744 38.6187C44.8093 38.6206 44.844 38.6142 44.8759 38.6L46.601 37.8303C46.6387 37.8125 46.6679 37.7806 46.6823 37.7415C46.6967 37.7024 46.6951 37.6595 46.678 37.6215ZM40.5603 41.8483C40.5586 41.9054 40.5347 41.9596 40.4936 41.9994C40.4526 42.0392 40.3977 42.0614 40.3406 42.0614C40.2835 42.0614 40.2286 42.0392 40.1875 41.9994C40.1465 41.9596 40.1226 41.9054 40.1209 41.8483V39.6328L39.9076 39.7646C39.8581 39.7939 39.799 39.8026 39.7432 39.7888C39.6873 39.775 39.6391 39.7399 39.6089 39.6909C39.5787 39.642 39.5689 39.5831 39.5816 39.527C39.5943 39.4709 39.6286 39.422 39.6769 39.3909L40.2242 39.05C40.2576 39.0301 40.2957 39.0194 40.3347 39.0188C40.3736 39.0183 40.412 39.0279 40.4461 39.0468C40.4801 39.0658 40.5086 39.0933 40.5287 39.1266C40.5487 39.16 40.5597 39.1981 40.5605 39.237L40.5603 41.8483ZM42.1409 41.8483C42.1409 41.9066 42.1177 41.9625 42.0765 42.0038C42.0353 42.045 41.9794 42.0681 41.9211 42.0681C41.8628 42.0681 41.8069 42.045 41.7656 42.0038C41.7244 41.9625 41.7013 41.9066 41.7013 41.8483V39.6328L41.4882 39.7646C41.4386 39.7952 41.3789 39.8049 41.3222 39.7915C41.2656 39.7781 41.2165 39.7427 41.1859 39.6932C41.1553 39.6436 41.1456 39.5839 41.159 39.5272C41.1724 39.4705 41.2078 39.4215 41.2573 39.3909L41.8045 39.05C41.838 39.0301 41.8761 39.0194 41.9151 39.0188C41.954 39.0183 41.9924 39.0279 42.0265 39.0468C42.0605 39.0658 42.089 39.0933 42.1091 39.1266C42.1291 39.16 42.1401 39.1981 42.1409 39.237V41.8483Z" fill="#FAFAFA"/>
<path d="M40.5603 41.8483C40.5586 41.9054 40.5347 41.9596 40.4936 41.9994C40.4526 42.0392 40.3977 42.0614 40.3406 42.0614C40.2835 42.0614 40.2286 42.0392 40.1875 41.9994C40.1465 41.9596 40.1226 41.9054 40.1209 41.8483V39.6328L39.9076 39.7646C39.8581 39.7939 39.799 39.8026 39.7432 39.7888C39.6873 39.775 39.6391 39.7399 39.6089 39.6909C39.5787 39.642 39.5689 39.5831 39.5816 39.527C39.5943 39.4709 39.6286 39.422 39.6769 39.3909L40.2242 39.05C40.2576 39.0301 40.2957 39.0194 40.3347 39.0188C40.3736 39.0183 40.412 39.0279 40.4461 39.0468C40.4801 39.0658 40.5086 39.0933 40.5287 39.1266C40.5487 39.16 40.5597 39.1981 40.5605 39.237L40.5603 41.8483Z" fill="#FAFAFA"/>
<path d="M42.1409 41.8483C42.1409 41.9066 42.1177 41.9625 42.0765 42.0038C42.0353 42.045 41.9794 42.0681 41.9211 42.0681C41.8628 42.0681 41.8069 42.045 41.7656 42.0038C41.7244 41.9625 41.7013 41.9066 41.7013 41.8483V39.6328L41.4882 39.7646C41.4386 39.7952 41.3789 39.8049 41.3222 39.7915C41.2656 39.7781 41.2165 39.7427 41.1859 39.6932C41.1553 39.6436 41.1456 39.5839 41.159 39.5272C41.1724 39.4705 41.2078 39.4215 41.2573 39.3909L41.8045 39.05C41.838 39.0301 41.8761 39.0194 41.9151 39.0188C41.954 39.0183 41.9924 39.0279 42.0265 39.0468C42.0605 39.0658 42.089 39.0933 42.1091 39.1266C42.1291 39.16 42.1401 39.1981 42.1409 39.237V41.8483Z" fill="#FAFAFA"/>
<path d="M39.947 39.332H42.2387" stroke="#191919" stroke-width="0.343756" stroke-linecap="round" stroke-linejoin="round"/>
<path d="M41.093 40.4792V38.1875" stroke="#191919" stroke-width="0.343756" stroke-linecap="round" stroke-linejoin="round"/>
<path d="M56.0408 34.8673C56.4097 34.8668 56.7633 34.7201 57.0242 34.4593C57.285 34.1984 57.4318 33.8448 57.4322 33.4759V32.9944C56.512 33.1677 55.567 33.161 54.6494 32.9746V33.4759C54.6498 33.8448 54.7966 34.1984 55.0574 34.4593C55.3183 34.7201 55.6719 34.8668 56.0408 34.8673Z" fill="#FAFAFA"/>
<path d="M61.7407 37.6215L60.5998 35.2233C60.3846 34.7743 60.0055 34.425 59.5404 34.2472L58.6697 33.9154C58.3252 33.8135 58.0737 33.4088 57.8717 33.1328V33.4102C57.8799 33.666 57.8347 33.9208 57.739 34.1582C57.6433 34.3956 57.4991 34.6104 57.3157 34.789C57.1323 34.9675 56.9137 35.1059 56.6738 35.1953C56.434 35.2846 56.1781 35.323 55.9226 35.3079C55.667 35.2928 55.4175 35.2247 55.1898 35.1077C54.9621 34.9908 54.7612 34.8277 54.6001 34.6288C54.4389 34.4299 54.321 34.1997 54.2539 33.9526C54.1867 33.7056 54.1718 33.4473 54.21 33.1942C54.0595 33.4837 53.8132 33.7121 53.5132 33.8404L52.6976 34.1329C52.2295 34.2985 51.8435 34.6388 51.6205 35.0824L50.341 37.6215C50.3232 37.66 50.3214 37.7039 50.3358 37.7438C50.3502 37.7837 50.3797 37.8163 50.418 37.8346L52.1222 38.6096C52.1543 38.6242 52.1893 38.6309 52.2244 38.6291C52.2596 38.6274 52.2938 38.6172 52.3242 38.5995C52.3546 38.5818 52.3803 38.557 52.3991 38.5273C52.418 38.4976 52.4294 38.4638 52.4325 38.4287L52.4951 37.7144C52.5017 37.6571 52.5303 37.6046 52.575 37.5681C52.6197 37.5316 52.6768 37.514 52.7343 37.519C52.7917 37.524 52.8449 37.5513 52.8826 37.595C52.9202 37.6387 52.9393 37.6954 52.9358 37.7529L52.4051 43.7851C52.4049 43.8279 52.4135 43.8703 52.4303 43.9097C52.4472 43.9491 52.4719 43.9847 52.503 44.0141C52.5341 44.0436 52.5709 44.0663 52.6112 44.081C52.6514 44.0957 52.6942 44.1019 52.737 44.0994H59.3623C59.4052 44.1019 59.4482 44.0956 59.4886 44.0808C59.5291 44.066 59.566 44.0431 59.5971 44.0133C59.6282 43.9836 59.6529 43.9479 59.6696 43.9082C59.6863 43.8685 59.6947 43.8259 59.6941 43.7828C59.6003 42.7762 59.2116 38.671 59.1255 37.7542C59.1214 37.6968 59.1399 37.6401 59.177 37.5962C59.2142 37.5523 59.2671 37.5247 59.3243 37.5193C59.3816 37.5139 59.4387 37.5311 59.4834 37.5673C59.5281 37.6035 59.5569 37.6558 59.5635 37.7129L59.6303 38.42C59.6335 38.4547 59.6451 38.4882 59.6638 38.5176C59.6826 38.547 59.7081 38.5715 59.7383 38.5891C59.7684 38.6067 59.8023 38.6168 59.8372 38.6187C59.872 38.6206 59.9068 38.6142 59.9387 38.6L61.6638 37.8303C61.7014 37.8125 61.7306 37.7806 61.745 37.7415C61.7594 37.7024 61.7579 37.6595 61.7407 37.6215ZM55.6231 41.8483C55.6213 41.9054 55.5974 41.9596 55.5564 41.9994C55.5154 42.0392 55.4605 42.0614 55.4033 42.0614C55.3462 42.0614 55.2913 42.0392 55.2503 41.9994C55.2093 41.9596 55.1854 41.9054 55.1836 41.8483V39.6328L54.9703 39.7646C54.9208 39.7939 54.8618 39.8026 54.8059 39.7888C54.7501 39.775 54.7018 39.7399 54.6716 39.6909C54.6414 39.642 54.6316 39.5831 54.6444 39.527C54.6571 39.4709 54.6913 39.422 54.7397 39.3909L55.2869 39.05C55.3204 39.0301 55.3585 39.0194 55.3974 39.0188C55.4364 39.0183 55.4748 39.0279 55.5088 39.0468C55.5428 39.0658 55.5713 39.0933 55.5914 39.1266C55.6115 39.16 55.6225 39.1981 55.6233 39.237L55.6231 41.8483ZM57.2036 41.8483C57.2036 41.9066 57.1805 41.9625 57.1393 42.0038C57.098 42.045 57.0421 42.0681 56.9838 42.0681C56.9255 42.0681 56.8696 42.045 56.8284 42.0038C56.7872 41.9625 56.764 41.9066 56.764 41.8483V39.6328L56.5509 39.7646C56.5014 39.7952 56.4417 39.8049 56.385 39.7915C56.3283 39.7781 56.2793 39.7427 56.2486 39.6932C56.218 39.6436 56.2084 39.5839 56.2218 39.5272C56.2352 39.4705 56.2705 39.4215 56.3201 39.3909L56.8673 39.05C56.9008 39.0301 56.9389 39.0194 56.9778 39.0188C57.0168 39.0183 57.0552 39.0279 57.0892 39.0468C57.1232 39.0658 57.1517 39.0933 57.1718 39.1266C57.1919 39.16 57.2029 39.1981 57.2036 39.237V41.8483Z" fill="#FAFAFA"/>
<path d="M55.6231 41.8483C55.6213 41.9054 55.5974 41.9596 55.5564 41.9994C55.5154 42.0392 55.4605 42.0614 55.4033 42.0614C55.3462 42.0614 55.2913 42.0392 55.2503 41.9994C55.2093 41.9596 55.1854 41.9054 55.1836 41.8483V39.6328L54.9703 39.7646C54.9208 39.7939 54.8618 39.8026 54.8059 39.7888C54.7501 39.775 54.7018 39.7399 54.6716 39.6909C54.6414 39.642 54.6316 39.5831 54.6444 39.527C54.6571 39.4709 54.6913 39.422 54.7397 39.3909L55.2869 39.05C55.3204 39.0301 55.3585 39.0194 55.3974 39.0188C55.4364 39.0183 55.4748 39.0279 55.5088 39.0468C55.5428 39.0658 55.5713 39.0933 55.5914 39.1266C55.6115 39.16 55.6225 39.1981 55.6233 39.237L55.6231 41.8483Z" fill="#FAFAFA"/>
<path d="M57.2036 41.8483C57.2036 41.9066 57.1805 41.9625 57.1393 42.0038C57.098 42.045 57.0421 42.0681 56.9838 42.0681C56.9255 42.0681 56.8696 42.045 56.8284 42.0038C56.7872 41.9625 56.764 41.9066 56.764 41.8483V39.6328L56.5509 39.7646C56.5014 39.7952 56.4417 39.8049 56.385 39.7915C56.3283 39.7781 56.2793 39.7427 56.2486 39.6932C56.218 39.6436 56.2084 39.5839 56.2218 39.5272C56.2352 39.4705 56.2705 39.4215 56.3201 39.3909L56.8673 39.05C56.9008 39.0301 56.9389 39.0194 56.9778 39.0188C57.0168 39.0183 57.0552 39.0279 57.0892 39.0468C57.1232 39.0658 57.1517 39.0933 57.1718 39.1266C57.1919 39.16 57.2029 39.1981 57.2036 39.237V41.8483Z" fill="#FAFAFA"/>
<path d="M55.0098 39.332H57.3015" stroke="#191919" stroke-width="0.343756" stroke-linecap="round" stroke-linejoin="round"/>
<path d="M56.1558 40.4792V38.1875" stroke="#191919" stroke-width="0.343756" stroke-linecap="round" stroke-linejoin="round"/>
<path d="M55.531 2.86923C55.8999 2.8688 56.2536 2.72207 56.5144 2.46123C56.7753 2.20038 56.922 1.84673 56.9224 1.47785V0.996361C56.0023 1.1697 55.0572 1.16297 54.1396 0.976562V1.47785C54.1401 1.84673 54.2868 2.20038 54.5477 2.46123C54.8085 2.72207 55.1621 2.8688 55.531 2.86923Z" fill="#FAFAFA"/>
<path d="M61.2309 5.62345L60.09 3.22521C59.8748 2.77629 59.4957 2.42696 59.0307 2.24918L58.16 1.91731C57.8154 1.81546 57.564 1.41072 57.3619 1.13477V1.41214C57.3702 1.66798 57.325 1.92273 57.2292 2.16013C57.1335 2.39753 56.9894 2.61237 56.806 2.79094C56.6226 2.9695 56.4039 3.10788 56.1641 3.19723C55.9242 3.28658 55.6683 3.32494 55.4128 3.30987C55.1573 3.2948 54.9077 3.22663 54.68 3.1097C54.4523 2.99278 54.2515 2.82967 54.0903 2.63078C53.9292 2.4319 53.8113 2.2016 53.7441 1.9546C53.6769 1.70759 53.662 1.4493 53.7003 1.1962C53.5497 1.48569 53.3035 1.71405 53.0035 1.8424L52.1878 2.13488C51.7197 2.30048 51.3338 2.64071 51.1108 3.08438L49.8312 5.62345C49.8135 5.66195 49.8116 5.7059 49.826 5.74579C49.8404 5.78567 49.8699 5.81827 49.9082 5.83654L51.6125 6.61153C51.6445 6.62613 51.6795 6.63284 51.7147 6.63109C51.7498 6.62933 51.784 6.61917 51.8144 6.60145C51.8448 6.58373 51.8705 6.55898 51.8894 6.52926C51.9082 6.49955 51.9196 6.46574 51.9227 6.43069L51.9854 5.71632C51.9919 5.65901 52.0206 5.60652 52.0652 5.57004C52.1099 5.53355 52.167 5.51594 52.2245 5.52097C52.282 5.526 52.3352 5.55327 52.3728 5.59696C52.4105 5.64066 52.4296 5.69733 52.426 5.75489L51.8954 11.787C51.8951 11.8299 51.9037 11.8723 51.9206 11.9117C51.9374 11.9511 51.9621 11.9866 51.9932 12.0161C52.0243 12.0455 52.0611 12.0683 52.1014 12.083C52.1416 12.0976 52.1845 12.1039 52.2272 12.1013H58.8525C58.8955 12.1039 58.9385 12.0976 58.9789 12.0828C59.0193 12.068 59.0562 12.045 59.0873 12.0153C59.1185 11.9856 59.1432 11.9498 59.1599 11.9101C59.1766 11.8705 59.1849 11.8278 59.1844 11.7848C59.0905 10.7781 58.7019 6.67296 58.6157 5.75612C58.6116 5.69875 58.6301 5.64203 58.6673 5.59813C58.7044 5.55422 58.7573 5.52662 58.8146 5.52123C58.8718 5.51584 58.9289 5.53309 58.9737 5.56929C59.0184 5.60549 59.0471 5.65775 59.0537 5.71489L59.1205 6.42191C59.1238 6.45665 59.1353 6.49011 59.1541 6.51952C59.1729 6.54892 59.1984 6.57344 59.2285 6.59103C59.2587 6.60862 59.2925 6.61878 59.3274 6.62068C59.3622 6.62258 59.397 6.61615 59.4289 6.60193L61.154 5.83225C61.1917 5.81447 61.2209 5.7826 61.2353 5.7435C61.2496 5.7044 61.2481 5.66142 61.2309 5.62345ZM55.1133 9.85027C55.1115 9.90738 55.0876 9.96158 55.0466 10.0014C55.0056 10.0411 54.9507 10.0634 54.8936 10.0634C54.8364 10.0634 54.7815 10.0411 54.7405 10.0014C54.6995 9.96158 54.6756 9.90738 54.6739 9.85027V7.63471L54.4606 7.76656C54.411 7.79584 54.352 7.80453 54.2962 7.79075C54.2403 7.77697 54.1921 7.74182 54.1619 7.69287C54.1317 7.64391 54.1219 7.58505 54.1346 7.52895C54.1473 7.47284 54.1815 7.42397 54.2299 7.39284L54.7771 7.05198C54.8106 7.03209 54.8487 7.02133 54.8877 7.02077C54.9266 7.02021 54.965 7.02987 54.999 7.04879C55.0331 7.06771 55.0616 7.09523 55.0816 7.1286C55.1017 7.16196 55.1127 7.20001 55.1135 7.23895L55.1133 9.85027ZM56.6939 9.85027C56.6939 9.90857 56.6707 9.96448 56.6295 10.0057C56.5883 10.0469 56.5324 10.0701 56.4741 10.0701C56.4158 10.0701 56.3598 10.0469 56.3186 10.0057C56.2774 9.96448 56.2542 9.90857 56.2542 9.85027V7.63471L56.0412 7.76656C55.9916 7.79717 55.9319 7.80684 55.8752 7.79344C55.8185 7.78005 55.7695 7.74468 55.7389 7.69512C55.7083 7.64556 55.6986 7.58587 55.712 7.52919C55.7254 7.4725 55.7608 7.42345 55.8103 7.39284L56.3575 7.05198C56.391 7.03209 56.4291 7.02133 56.468 7.02077C56.507 7.02021 56.5454 7.02987 56.5794 7.04879C56.6135 7.06771 56.642 7.09523 56.662 7.1286C56.6821 7.16196 56.6931 7.20001 56.6939 7.23895V9.85027Z" fill="#FAFAFA"/>
<path d="M55.1133 9.85027C55.1115 9.90738 55.0876 9.96158 55.0466 10.0014C55.0056 10.0411 54.9507 10.0634 54.8936 10.0634C54.8364 10.0634 54.7815 10.0411 54.7405 10.0014C54.6995 9.96158 54.6756 9.90738 54.6739 9.85027V7.63471L54.4606 7.76656C54.411 7.79584 54.352 7.80453 54.2962 7.79075C54.2403 7.77697 54.1921 7.74182 54.1619 7.69287C54.1317 7.64391 54.1219 7.58505 54.1346 7.52895C54.1473 7.47284 54.1815 7.42397 54.2299 7.39284L54.7771 7.05198C54.8106 7.03209 54.8487 7.02133 54.8877 7.02077C54.9266 7.02021 54.965 7.02987 54.999 7.04879C55.0331 7.06771 55.0616 7.09523 55.0816 7.1286C55.1017 7.16196 55.1127 7.20001 55.1135 7.23895L55.1133 9.85027Z" fill="#FAFAFA"/>
<path d="M56.6939 9.85027C56.6939 9.90857 56.6707 9.96448 56.6295 10.0057C56.5883 10.0469 56.5324 10.0701 56.4741 10.0701C56.4158 10.0701 56.3598 10.0469 56.3186 10.0057C56.2774 9.96448 56.2542 9.90857 56.2542 9.85027V7.63471L56.0412 7.76656C55.9916 7.79717 55.9319 7.80684 55.8752 7.79344C55.8185 7.78005 55.7695 7.74468 55.7389 7.69512C55.7083 7.64556 55.6986 7.58587 55.712 7.52919C55.7254 7.4725 55.7608 7.42345 55.8103 7.39284L56.3575 7.05198C56.391 7.03209 56.4291 7.02133 56.468 7.02077C56.507 7.02021 56.5454 7.02987 56.5794 7.04879C56.6135 7.06771 56.642 7.09523 56.662 7.1286C56.6821 7.16196 56.6931 7.20001 56.6939 7.23895V9.85027Z" fill="#FAFAFA"/>
<path d="M54.5 7.33398H56.7917" stroke="#191919" stroke-width="0.343756" stroke-linecap="round" stroke-linejoin="round"/>
<path d="M55.646 8.48116V6.18945" stroke="#191919" stroke-width="0.343756" stroke-linecap="round" stroke-linejoin="round"/>
<defs>
<clipPath id="clip0_8758_17350">
<rect width="13.0627" height="13.0627" fill="white" transform="translate(34.1567 66.5645)"/>
</clipPath>
</defs>
</svg>
