<svg width="81" height="81" viewBox="0 0 81 81" fill="none" xmlns="http://www.w3.org/2000/svg">
<rect x="0.163902" y="0.118492" width="79.9807" height="79.9807" rx="5.88541" fill="#828284" stroke="#FAFAFA" stroke-width="0.229171"/>
<mask id="path-2-inside-1_8754_16844" fill="white">
<path d="M23.8831 66.4609H56.4253V80.2112H23.8831V66.4609Z"/>
</mask>
<path d="M23.8831 66.4609V66.2318H23.6539V66.4609H23.8831ZM56.4253 66.4609H56.6545V66.2318H56.4253V66.4609ZM23.8831 66.6901H56.4253V66.2318H23.8831V66.6901ZM56.1962 66.4609V80.2112H56.6545V66.4609H56.1962ZM24.1122 80.2112V66.4609H23.6539V80.2112H24.1122Z" fill="#FAFAFA" mask="url(#path-2-inside-1_8754_16844)"/>
<mask id="path-4-inside-2_8754_16844" fill="white">
<path d="M12.6538 55.0039H67.6548V80.2127H12.6538V55.0039Z"/>
</mask>
<path d="M12.6538 55.0039V54.7747H12.4246V55.0039H12.6538ZM67.6548 55.0039H67.884V54.7747H67.6548V55.0039ZM12.6538 55.2331H67.6548V54.7747H12.6538V55.2331ZM67.4257 55.0039V80.2127H67.884V55.0039H67.4257ZM12.883 80.2127V55.0039H12.4246V80.2127H12.883Z" fill="#FAFAFA" mask="url(#path-4-inside-2_8754_16844)"/>
<path d="M54.3628 9.53674e-07C54.3628 1.65523 53.9775 3.29426 53.2289 4.8235C52.4803 6.35273 51.383 7.74223 49.9998 8.91266C48.6166 10.0831 46.9744 11.0115 45.1672 11.645C43.3599 12.2784 41.4229 12.6044 39.4667 12.6044C37.5105 12.6044 35.5735 12.2784 33.7662 11.645C31.9589 11.0115 30.3168 10.0831 28.9335 8.91266C27.5503 7.74223 26.4531 6.35273 25.7045 4.8235C24.9559 3.29426 24.5706 1.65523 24.5706 0" stroke="#FAFAFA" stroke-width="0.229171"/>
<path d="M30.6265 55.3516C31.1448 54.5174 31.9044 53.7595 32.862 53.1211C33.8196 52.4827 34.9565 51.9763 36.2077 51.6308C37.4589 51.2853 38.7999 51.1074 40.1542 51.1074C41.5085 51.1074 42.8495 51.2853 44.1007 51.6308C45.3519 51.9763 46.4888 52.4827 47.4464 53.1211C48.404 53.7595 49.1636 54.5174 49.6819 55.3516" stroke="#FAFAFA" stroke-width="0.229171"/>
<path d="M0.27832 76.5479C1.39485 76.4958 3.59878 77.1099 3.48227 79.9825" stroke="#FAFAFA" stroke-width="0.229171"/>
<path d="M80.0298 76.5479C78.9133 76.4958 76.7093 77.1099 76.8258 79.9825" stroke="#FAFAFA" stroke-width="0.229171"/>
<path d="M40.2683 69.4356C40.6372 69.4352 40.9909 69.2885 41.2517 69.0276C41.5126 68.7668 41.6593 68.4131 41.6597 68.0443V67.5628C40.7396 67.7361 39.7945 67.7294 38.877 67.543V68.0443C38.8774 68.4131 39.0241 68.7668 39.285 69.0276C39.5458 69.2885 39.8995 69.4352 40.2683 69.4356Z" fill="#FAFAFA"/>
<path d="M45.9682 72.1899L44.8273 69.7916C44.6121 69.3427 44.233 68.9934 43.768 68.8156L42.8973 68.4837C42.5527 68.3819 42.3013 67.9771 42.0992 67.7012V67.9786C42.1075 68.2344 42.0623 68.4891 41.9666 68.7265C41.8708 68.9639 41.7267 69.1788 41.5433 69.3573C41.3599 69.5359 41.1413 69.6743 40.9014 69.7636C40.6615 69.853 40.4056 69.8913 40.1501 69.8763C39.8946 69.8612 39.645 69.793 39.4173 69.6761C39.1896 69.5592 38.9888 69.3961 38.8276 69.1972C38.6665 68.9983 38.5486 68.768 38.4814 68.521C38.4142 68.274 38.3993 68.0157 38.4376 67.7626C38.287 68.0521 38.0408 68.2805 37.7408 68.4088L36.9252 68.7013C36.457 68.8669 36.0711 69.2071 35.8481 69.6508L34.5686 72.1899C34.5508 72.2284 34.5489 72.2723 34.5633 72.3122C34.5777 72.3521 34.6072 72.3847 34.6455 72.4029L36.3498 73.1779C36.3818 73.1925 36.4168 73.1992 36.452 73.1975C36.4871 73.1957 36.5213 73.1856 36.5517 73.1679C36.5821 73.1501 36.6078 73.1254 36.6267 73.0957C36.6455 73.066 36.657 73.0321 36.66 72.9971L36.7227 72.2827C36.7292 72.2254 36.7579 72.1729 36.8025 72.1364C36.8472 72.1 36.9043 72.0823 36.9618 72.0874C37.0193 72.0924 37.0725 72.1197 37.1101 72.1634C37.1478 72.2071 37.1669 72.2637 37.1633 72.3213L36.6327 78.3534C36.6325 78.3963 36.641 78.4387 36.6579 78.4781C36.6747 78.5175 36.6994 78.553 36.7305 78.5825C36.7616 78.6119 36.7984 78.6347 36.8387 78.6494C36.8789 78.664 36.9218 78.6703 36.9645 78.6678H43.5898C43.6328 78.6703 43.6758 78.664 43.7162 78.6492C43.7566 78.6344 43.7935 78.6114 43.8246 78.5817C43.8558 78.552 43.8805 78.5162 43.8972 78.4766C43.9139 78.4369 43.9222 78.3942 43.9217 78.3512C43.8278 77.3445 43.4392 73.2394 43.353 72.3225C43.3489 72.2652 43.3674 72.2084 43.4046 72.1645C43.4417 72.1206 43.4946 72.093 43.5519 72.0876C43.6091 72.0822 43.6663 72.0995 43.711 72.1357C43.7557 72.1719 43.7844 72.2242 43.7911 72.2813L43.8578 72.9883C43.8611 73.0231 43.8726 73.0565 43.8914 73.0859C43.9102 73.1153 43.9357 73.1398 43.9658 73.1574C43.996 73.175 44.0299 73.1852 44.0647 73.1871C44.0995 73.189 44.1343 73.1826 44.1662 73.1683L45.8913 72.3987C45.929 72.3809 45.9582 72.349 45.9726 72.3099C45.9869 72.2708 45.9854 72.2278 45.9682 72.1899ZM39.8506 76.4167C39.8489 76.4738 39.8249 76.528 39.7839 76.5678C39.7429 76.6076 39.688 76.6298 39.6309 76.6298C39.5737 76.6298 39.5188 76.6076 39.4778 76.5678C39.4368 76.528 39.4129 76.4738 39.4112 76.4167V74.2011L39.1979 74.333C39.1483 74.3623 39.0893 74.3709 39.0335 74.3572C38.9776 74.3434 38.9294 74.3082 38.8992 74.2593C38.869 74.2103 38.8592 74.1515 38.8719 74.0954C38.8846 74.0392 38.9188 73.9904 38.9672 73.9592L39.5144 73.6184C39.5479 73.5985 39.586 73.5877 39.625 73.5872C39.6639 73.5866 39.7023 73.5963 39.7363 73.6152C39.7704 73.6341 39.7989 73.6616 39.819 73.695C39.839 73.7284 39.85 73.7664 39.8508 73.8054L39.8506 76.4167ZM41.4312 76.4167C41.4312 76.475 41.408 76.5309 41.3668 76.5721C41.3256 76.6133 41.2697 76.6365 41.2114 76.6365C41.1531 76.6365 41.0972 76.6133 41.0559 76.5721C41.0147 76.5309 40.9915 76.475 40.9915 76.4167V74.2011L40.7785 74.333C40.7289 74.3636 40.6692 74.3732 40.6125 74.3598C40.5558 74.3465 40.5068 74.3111 40.4762 74.2615C40.4456 74.212 40.4359 74.1523 40.4493 74.0956C40.4627 74.0389 40.4981 73.9899 40.5476 73.9592L41.0948 73.6184C41.1283 73.5985 41.1664 73.5877 41.2054 73.5872C41.2443 73.5866 41.2827 73.5963 41.3167 73.6152C41.3508 73.6341 41.3793 73.6616 41.3993 73.695C41.4194 73.7284 41.4304 73.7664 41.4312 73.8054V76.4167Z" fill="#FAFAFA"/>
<path d="M39.8506 76.4167C39.8489 76.4738 39.8249 76.528 39.7839 76.5678C39.7429 76.6076 39.688 76.6298 39.6309 76.6298C39.5737 76.6298 39.5188 76.6076 39.4778 76.5678C39.4368 76.528 39.4129 76.4738 39.4112 76.4167V74.2011L39.1979 74.333C39.1483 74.3623 39.0893 74.3709 39.0335 74.3572C38.9776 74.3434 38.9294 74.3082 38.8992 74.2593C38.869 74.2103 38.8592 74.1515 38.8719 74.0954C38.8846 74.0392 38.9188 73.9904 38.9672 73.9592L39.5144 73.6184C39.5479 73.5985 39.586 73.5877 39.625 73.5872C39.6639 73.5866 39.7023 73.5963 39.7363 73.6152C39.7704 73.6341 39.7989 73.6616 39.819 73.695C39.839 73.7284 39.85 73.7664 39.8508 73.8054L39.8506 76.4167Z" fill="#FAFAFA"/>
<path d="M41.4312 76.4167C41.4312 76.475 41.408 76.5309 41.3668 76.5721C41.3256 76.6133 41.2697 76.6365 41.2114 76.6365C41.1531 76.6365 41.0972 76.6133 41.0559 76.5721C41.0147 76.5309 40.9915 76.475 40.9915 76.4167V74.2011L40.7785 74.333C40.7289 74.3636 40.6692 74.3732 40.6125 74.3598C40.5558 74.3465 40.5068 74.3111 40.4762 74.2615C40.4456 74.212 40.4359 74.1523 40.4493 74.0956C40.4627 74.0389 40.4981 73.9899 40.5476 73.9592L41.0948 73.6184C41.1283 73.5985 41.1664 73.5877 41.2054 73.5872C41.2443 73.5866 41.2827 73.5963 41.3167 73.6152C41.3508 73.6341 41.3793 73.6616 41.3993 73.695C41.4194 73.7284 41.4304 73.7664 41.4312 73.8054V76.4167Z" fill="#FAFAFA"/>
<path d="M39.2373 73.8965H41.529" stroke="#191919" stroke-width="0.343756" stroke-linecap="round" stroke-linejoin="round"/>
<path d="M40.3833 75.0437V72.752" stroke="#191919" stroke-width="0.343756" stroke-linecap="round" stroke-linejoin="round"/>
<g clip-path="url(#clip0_8754_16844)">
<path d="M10.2888 51.8673C10.6577 51.8668 11.0114 51.7201 11.2722 51.4593C11.5331 51.1984 11.6798 50.8448 11.6802 50.4759V49.9944C10.7601 50.1677 9.81505 50.161 8.89746 49.9746V50.4759C8.89789 50.8448 9.04462 51.1984 9.30547 51.4593C9.56631 51.7201 9.91996 51.8668 10.2888 51.8673Z" fill="#FAFAFA"/>
<path d="M15.9888 54.6215L14.8478 52.2233C14.6326 51.7743 14.2535 51.425 13.7885 51.2472L12.9178 50.9154C12.5733 50.8135 12.3218 50.4088 12.1197 50.1328V50.4102C12.128 50.666 12.0828 50.9208 11.9871 51.1582C11.8913 51.3956 11.7472 51.6104 11.5638 51.789C11.3804 51.9675 11.1618 52.1059 10.9219 52.1953C10.682 52.2846 10.4261 52.323 10.1706 52.3079C9.91509 52.2928 9.66551 52.2247 9.4378 52.1077C9.2101 51.9908 9.00927 51.8277 8.84812 51.6288C8.68698 51.4299 8.56907 51.1997 8.50191 50.9526C8.43476 50.7056 8.41983 50.4473 8.45808 50.1942C8.30752 50.4837 8.06127 50.7121 7.76126 50.8404L6.94566 51.1329C6.47753 51.2985 6.09158 51.6388 5.8686 52.0824L4.58906 54.6215C4.57129 54.66 4.5694 54.7039 4.5838 54.7438C4.59821 54.7837 4.62774 54.8163 4.66601 54.8346L6.37029 55.6096C6.4023 55.6242 6.43735 55.6309 6.47249 55.6291C6.50763 55.6274 6.54184 55.6172 6.57224 55.5995C6.60264 55.5818 6.62834 55.557 6.64718 55.5273C6.66603 55.4976 6.67746 55.4638 6.68053 55.4287L6.74319 54.7144C6.74972 54.6571 6.77837 54.6046 6.82304 54.5681C6.8677 54.5316 6.92485 54.514 6.98231 54.519C7.03976 54.524 7.09299 54.5513 7.13063 54.595C7.16828 54.6387 7.18737 54.6954 7.18385 54.7529L6.65318 60.7851C6.65296 60.8279 6.66154 60.8703 6.67837 60.9097C6.6952 60.9491 6.71993 60.9847 6.75103 61.0141C6.78214 61.0436 6.81895 61.0663 6.8592 61.081C6.89946 61.0957 6.94229 61.1019 6.98505 61.0994H13.6103C13.6533 61.1019 13.6963 61.0956 13.7367 61.0808C13.7771 61.066 13.814 61.0431 13.8452 61.0133C13.8763 60.9836 13.901 60.9479 13.9177 60.9082C13.9344 60.8685 13.9427 60.8259 13.9422 60.7828C13.8483 59.7762 13.4597 55.671 13.3736 54.7542C13.3694 54.6968 13.3879 54.6401 13.4251 54.5962C13.4622 54.5523 13.5151 54.5247 13.5724 54.5193C13.6297 54.5139 13.6868 54.5311 13.7315 54.5673C13.7762 54.6035 13.8049 54.6558 13.8116 54.7129L13.8783 55.42C13.8816 55.4547 13.8931 55.4882 13.9119 55.5176C13.9307 55.547 13.9562 55.5715 13.9863 55.5891C14.0165 55.6067 14.0504 55.6168 14.0852 55.6187C14.12 55.6206 14.1548 55.6142 14.1867 55.6L15.9118 54.8303C15.9495 54.8125 15.9787 54.7806 15.9931 54.7415C16.0075 54.7024 16.0059 54.6595 15.9888 54.6215ZM9.8711 58.8483C9.86936 58.9054 9.84545 58.9596 9.80443 58.9994C9.76342 59.0392 9.70852 59.0614 9.65138 59.0614C9.59424 59.0614 9.53935 59.0392 9.49833 58.9994C9.45732 58.9596 9.4334 58.9054 9.43166 58.8483V56.6328L9.21837 56.7646C9.16886 56.7939 9.10982 56.8026 9.05397 56.7888C8.99811 56.775 8.9499 56.7399 8.91968 56.6909C8.88947 56.642 8.87967 56.5831 8.8924 56.527C8.90512 56.4709 8.93936 56.422 8.98773 56.3909L9.53494 56.05C9.56842 56.0301 9.60653 56.0194 9.64547 56.0188C9.68441 56.0183 9.72282 56.0279 9.75686 56.0468C9.79089 56.0658 9.81938 56.0933 9.83946 56.1266C9.85954 56.16 9.87052 56.1981 9.87131 56.237L9.8711 58.8483ZM11.4517 58.8483C11.4517 58.9066 11.4285 58.9625 11.3873 59.0038C11.3461 59.045 11.2902 59.0681 11.2319 59.0681C11.1736 59.0681 11.1177 59.045 11.0764 59.0038C11.0352 58.9625 11.0121 58.9066 11.0121 58.8483V56.6328L10.799 56.7646C10.7494 56.7952 10.6897 56.8049 10.633 56.7915C10.5763 56.7781 10.5273 56.7427 10.4967 56.6932C10.4661 56.6436 10.4564 56.5839 10.4698 56.5272C10.4832 56.4705 10.5186 56.4215 10.5681 56.3909L11.1153 56.05C11.1488 56.0301 11.1869 56.0194 11.2259 56.0188C11.2648 56.0183 11.3032 56.0279 11.3372 56.0468C11.3713 56.0658 11.3998 56.0933 11.4198 56.1266C11.4399 56.16 11.4509 56.1981 11.4517 56.237V58.8483Z" fill="#FAFAFA"/>
<path d="M9.8711 58.8483C9.86936 58.9054 9.84545 58.9596 9.80443 58.9994C9.76342 59.0392 9.70852 59.0614 9.65138 59.0614C9.59424 59.0614 9.53935 59.0392 9.49833 58.9994C9.45732 58.9596 9.4334 58.9054 9.43166 58.8483V56.6328L9.21837 56.7646C9.16886 56.7939 9.10982 56.8026 9.05397 56.7888C8.99811 56.775 8.9499 56.7399 8.91968 56.6909C8.88947 56.642 8.87967 56.5831 8.8924 56.527C8.90512 56.4709 8.93936 56.422 8.98773 56.3909L9.53494 56.05C9.56842 56.0301 9.60653 56.0194 9.64547 56.0188C9.68441 56.0183 9.72282 56.0279 9.75686 56.0468C9.79089 56.0658 9.81938 56.0933 9.83946 56.1266C9.85954 56.16 9.87052 56.1981 9.87131 56.237L9.8711 58.8483Z" fill="#FAFAFA"/>
<path d="M11.4517 58.8483C11.4517 58.9066 11.4285 58.9625 11.3873 59.0038C11.3461 59.045 11.2902 59.0681 11.2319 59.0681C11.1736 59.0681 11.1177 59.045 11.0764 59.0038C11.0352 58.9625 11.0121 58.9066 11.0121 58.8483V56.6328L10.799 56.7646C10.7494 56.7952 10.6897 56.8049 10.633 56.7915C10.5763 56.7781 10.5273 56.7427 10.4967 56.6932C10.4661 56.6436 10.4564 56.5839 10.4698 56.5272C10.4832 56.4705 10.5186 56.4215 10.5681 56.3909L11.1153 56.05C11.1488 56.0301 11.1869 56.0194 11.2259 56.0188C11.2648 56.0183 11.3032 56.0279 11.3372 56.0468C11.3713 56.0658 11.3998 56.0933 11.4198 56.1266C11.4399 56.16 11.4509 56.1981 11.4517 56.237V58.8483Z" fill="#FAFAFA"/>
<path d="M9.25781 56.332H11.5495" stroke="#191919" stroke-width="0.343756" stroke-linecap="round" stroke-linejoin="round"/>
<path d="M10.4038 57.4792V55.1875" stroke="#191919" stroke-width="0.343756" stroke-linecap="round" stroke-linejoin="round"/>
</g>
<g clip-path="url(#clip1_8754_16844)">
<path d="M69.3704 51.8673C69.7393 51.8668 70.0929 51.7201 70.3538 51.4593C70.6146 51.1984 70.7613 50.8448 70.7618 50.4759V49.9944C69.8416 50.1677 68.8966 50.161 67.979 49.9746V50.4759C67.9794 50.8448 68.1262 51.1984 68.387 51.4593C68.6479 51.7201 69.0015 51.8668 69.3704 51.8673Z" fill="#FAFAFA"/>
<path d="M75.0703 54.6215L73.9293 52.2233C73.7142 51.7743 73.335 51.425 72.87 51.2472L71.9993 50.9154C71.6548 50.8135 71.4033 50.4088 71.2013 50.1328V50.4102C71.2095 50.666 71.1643 50.9208 71.0686 51.1582C70.9729 51.3956 70.8287 51.6104 70.6453 51.789C70.4619 51.9675 70.2433 52.1059 70.0034 52.1953C69.7636 52.2846 69.5077 52.323 69.2522 52.3079C68.9966 52.2928 68.7471 52.2247 68.5193 52.1077C68.2916 51.9908 68.0908 51.8277 67.9297 51.6288C67.7685 51.4299 67.6506 51.1997 67.5835 50.9526C67.5163 50.7056 67.5014 50.4473 67.5396 50.1942C67.3891 50.4837 67.1428 50.7121 66.8428 50.8404L66.0272 51.1329C65.5591 51.2985 65.1731 51.6388 64.9501 52.0824L63.6706 54.6215C63.6528 54.66 63.6509 54.7039 63.6653 54.7438C63.6797 54.7837 63.7093 54.8163 63.7475 54.8346L65.4518 55.6096C65.4838 55.6242 65.5189 55.6309 65.554 55.6291C65.5892 55.6274 65.6234 55.6172 65.6538 55.5995C65.6842 55.5818 65.7099 55.557 65.7287 55.5273C65.7476 55.4976 65.759 55.4638 65.7621 55.4287L65.8247 54.7144C65.8313 54.6571 65.8599 54.6046 65.9046 54.5681C65.9492 54.5316 66.0064 54.514 66.0639 54.519C66.1213 54.524 66.1745 54.5513 66.2122 54.595C66.2498 54.6387 66.2689 54.6954 66.2654 54.7529L65.7347 60.7851C65.7345 60.8279 65.7431 60.8703 65.7599 60.9097C65.7767 60.9491 65.8015 60.9847 65.8326 61.0141C65.8637 61.0436 65.9005 61.0663 65.9407 61.081C65.981 61.0957 66.0238 61.1019 66.0666 61.0994H72.6919C72.7348 61.1019 72.7778 61.0956 72.8182 61.0808C72.8586 61.066 72.8956 61.0431 72.9267 61.0133C72.9578 60.9836 72.9825 60.9479 72.9992 60.9082C73.0159 60.8685 73.0243 60.8259 73.0237 60.7828C72.9298 59.7762 72.5412 55.671 72.4551 54.7542C72.451 54.6968 72.4694 54.6401 72.5066 54.5962C72.5438 54.5523 72.5967 54.5247 72.6539 54.5193C72.7112 54.5139 72.7683 54.5311 72.813 54.5673C72.8577 54.6035 72.8865 54.6558 72.8931 54.7129L72.9598 55.42C72.9631 55.4547 72.9746 55.4882 72.9934 55.5176C73.0122 55.547 73.0377 55.5715 73.0679 55.5891C73.098 55.6067 73.1319 55.6168 73.1667 55.6187C73.2016 55.6206 73.2364 55.6142 73.2682 55.6L74.9933 54.8303C75.031 54.8125 75.0602 54.7806 75.0746 54.7415C75.089 54.7024 75.0875 54.6595 75.0703 54.6215ZM68.9526 58.8483C68.9509 58.9054 68.927 58.9596 68.886 58.9994C68.845 59.0392 68.7901 59.0614 68.7329 59.0614C68.6758 59.0614 68.6209 59.0392 68.5799 58.9994C68.5389 58.9596 68.5149 58.9054 68.5132 58.8483V56.6328L68.2999 56.7646C68.2504 56.7939 68.1914 56.8026 68.1355 56.7888C68.0797 56.775 68.0314 56.7399 68.0012 56.6909C67.971 56.642 67.9612 56.5831 67.9739 56.527C67.9867 56.4709 68.0209 56.422 68.0693 56.3909L68.6165 56.05C68.65 56.0301 68.6881 56.0194 68.727 56.0188C68.766 56.0183 68.8044 56.0279 68.8384 56.0468C68.8724 56.0658 68.9009 56.0933 68.921 56.1266C68.9411 56.16 68.9521 56.1981 68.9528 56.237L68.9526 58.8483ZM70.5332 58.8483C70.5332 58.9066 70.5101 58.9625 70.4689 59.0038C70.4276 59.045 70.3717 59.0681 70.3134 59.0681C70.2551 59.0681 70.1992 59.045 70.158 59.0038C70.1168 58.9625 70.0936 58.9066 70.0936 58.8483V56.6328L69.8805 56.7646C69.831 56.7952 69.7713 56.8049 69.7146 56.7915C69.6579 56.7781 69.6088 56.7427 69.5782 56.6932C69.5476 56.6436 69.5379 56.5839 69.5513 56.5272C69.5647 56.4705 69.6001 56.4215 69.6497 56.3909L70.1969 56.05C70.2304 56.0301 70.2685 56.0194 70.3074 56.0188C70.3463 56.0183 70.3847 56.0279 70.4188 56.0468C70.4528 56.0658 70.4813 56.0933 70.5014 56.1266C70.5215 56.16 70.5325 56.1981 70.5332 56.237V58.8483Z" fill="#FAFAFA"/>
<path d="M68.9526 58.8483C68.9509 58.9054 68.927 58.9596 68.886 58.9994C68.845 59.0392 68.7901 59.0614 68.7329 59.0614C68.6758 59.0614 68.6209 59.0392 68.5799 58.9994C68.5389 58.9596 68.5149 58.9054 68.5132 58.8483V56.6328L68.2999 56.7646C68.2504 56.7939 68.1914 56.8026 68.1355 56.7888C68.0797 56.775 68.0314 56.7399 68.0012 56.6909C67.971 56.642 67.9612 56.5831 67.9739 56.527C67.9867 56.4709 68.0209 56.422 68.0693 56.3909L68.6165 56.05C68.65 56.0301 68.6881 56.0194 68.727 56.0188C68.766 56.0183 68.8044 56.0279 68.8384 56.0468C68.8724 56.0658 68.9009 56.0933 68.921 56.1266C68.9411 56.16 68.9521 56.1981 68.9528 56.237L68.9526 58.8483Z" fill="#FAFAFA"/>
<path d="M70.5332 58.8483C70.5332 58.9066 70.5101 58.9625 70.4689 59.0038C70.4276 59.045 70.3717 59.0681 70.3134 59.0681C70.2551 59.0681 70.1992 59.045 70.158 59.0038C70.1168 58.9625 70.0936 58.9066 70.0936 58.8483V56.6328L69.8805 56.7646C69.831 56.7952 69.7713 56.8049 69.7146 56.7915C69.6579 56.7781 69.6088 56.7427 69.5782 56.6932C69.5476 56.6436 69.5379 56.5839 69.5513 56.5272C69.5647 56.4705 69.6001 56.4215 69.6497 56.3909L70.1969 56.05C70.2304 56.0301 70.2685 56.0194 70.3074 56.0188C70.3463 56.0183 70.3847 56.0279 70.4188 56.0468C70.4528 56.0658 70.4813 56.0933 70.5014 56.1266C70.5215 56.16 70.5325 56.1981 70.5332 56.237V58.8483Z" fill="#FAFAFA"/>
<path d="M68.3394 56.332H70.6311" stroke="#191919" stroke-width="0.343756" stroke-linecap="round" stroke-linejoin="round"/>
<path d="M69.4854 57.4792V55.1875" stroke="#191919" stroke-width="0.343756" stroke-linecap="round" stroke-linejoin="round"/>
</g>
<g clip-path="url(#clip2_8754_16844)">
<path d="M50.3704 52.8673C50.7393 52.8668 51.0929 52.7201 51.3538 52.4593C51.6146 52.1984 51.7613 51.8448 51.7618 51.4759V50.9944C50.8416 51.1677 49.8966 51.161 48.979 50.9746V51.4759C48.9794 51.8448 49.1262 52.1984 49.387 52.4593C49.6479 52.7201 50.0015 52.8668 50.3704 52.8673Z" fill="#FAFAFA"/>
<path d="M56.0703 55.6215L54.9293 53.2233C54.7142 52.7743 54.335 52.425 53.87 52.2472L52.9993 51.9154C52.6548 51.8135 52.4033 51.4088 52.2013 51.1328V51.4102C52.2095 51.666 52.1643 51.9208 52.0686 52.1582C51.9729 52.3956 51.8287 52.6104 51.6453 52.789C51.4619 52.9675 51.2433 53.1059 51.0034 53.1953C50.7636 53.2846 50.5077 53.323 50.2522 53.3079C49.9966 53.2928 49.7471 53.2247 49.5193 53.1077C49.2916 52.9908 49.0908 52.8277 48.9297 52.6288C48.7685 52.4299 48.6506 52.1997 48.5835 51.9526C48.5163 51.7056 48.5014 51.4473 48.5396 51.1942C48.3891 51.4837 48.1428 51.7121 47.8428 51.8404L47.0272 52.1329C46.5591 52.2985 46.1731 52.6388 45.9501 53.0824L44.6706 55.6215C44.6528 55.66 44.6509 55.7039 44.6653 55.7438C44.6797 55.7837 44.7093 55.8163 44.7475 55.8346L46.4518 56.6096C46.4838 56.6242 46.5189 56.6309 46.554 56.6291C46.5892 56.6274 46.6234 56.6172 46.6538 56.5995C46.6842 56.5818 46.7099 56.557 46.7287 56.5273C46.7476 56.4976 46.759 56.4638 46.7621 56.4287L46.8247 55.7144C46.8313 55.6571 46.8599 55.6046 46.9046 55.5681C46.9492 55.5316 47.0064 55.514 47.0639 55.519C47.1213 55.524 47.1745 55.5513 47.2122 55.595C47.2498 55.6387 47.2689 55.6954 47.2654 55.7529L46.7347 61.7851C46.7345 61.8279 46.7431 61.8703 46.7599 61.9097C46.7767 61.9491 46.8015 61.9847 46.8326 62.0141C46.8637 62.0436 46.9005 62.0663 46.9407 62.081C46.981 62.0957 47.0238 62.1019 47.0666 62.0994H53.6919C53.7348 62.1019 53.7778 62.0956 53.8182 62.0808C53.8586 62.066 53.8956 62.0431 53.9267 62.0133C53.9578 61.9836 53.9825 61.9479 53.9992 61.9082C54.0159 61.8685 54.0243 61.8259 54.0237 61.7828C53.9298 60.7762 53.5412 56.671 53.4551 55.7542C53.451 55.6968 53.4694 55.6401 53.5066 55.5962C53.5438 55.5523 53.5967 55.5247 53.6539 55.5193C53.7112 55.5139 53.7683 55.5311 53.813 55.5673C53.8577 55.6035 53.8865 55.6558 53.8931 55.7129L53.9598 56.42C53.9631 56.4547 53.9746 56.4882 53.9934 56.5176C54.0122 56.547 54.0377 56.5715 54.0679 56.5891C54.098 56.6067 54.1319 56.6168 54.1667 56.6187C54.2016 56.6206 54.2364 56.6142 54.2682 56.6L55.9933 55.8303C56.031 55.8125 56.0602 55.7806 56.0746 55.7415C56.089 55.7024 56.0875 55.6595 56.0703 55.6215ZM49.9526 59.8483C49.9509 59.9054 49.927 59.9596 49.886 59.9994C49.845 60.0392 49.7901 60.0614 49.7329 60.0614C49.6758 60.0614 49.6209 60.0392 49.5799 59.9994C49.5389 59.9596 49.5149 59.9054 49.5132 59.8483V57.6328L49.2999 57.7646C49.2504 57.7939 49.1914 57.8026 49.1355 57.7888C49.0797 57.775 49.0314 57.7399 49.0012 57.6909C48.971 57.642 48.9612 57.5831 48.9739 57.527C48.9867 57.4709 49.0209 57.422 49.0693 57.3909L49.6165 57.05C49.65 57.0301 49.6881 57.0194 49.727 57.0188C49.766 57.0183 49.8044 57.0279 49.8384 57.0468C49.8724 57.0658 49.9009 57.0933 49.921 57.1266C49.9411 57.16 49.9521 57.1981 49.9528 57.237L49.9526 59.8483ZM51.5332 59.8483C51.5332 59.9066 51.5101 59.9625 51.4689 60.0038C51.4276 60.045 51.3717 60.0681 51.3134 60.0681C51.2551 60.0681 51.1992 60.045 51.158 60.0038C51.1168 59.9625 51.0936 59.9066 51.0936 59.8483V57.6328L50.8805 57.7646C50.831 57.7952 50.7713 57.8049 50.7146 57.7915C50.6579 57.7781 50.6088 57.7427 50.5782 57.6932C50.5476 57.6436 50.5379 57.5839 50.5513 57.5272C50.5647 57.4705 50.6001 57.4215 50.6497 57.3909L51.1969 57.05C51.2304 57.0301 51.2685 57.0194 51.3074 57.0188C51.3463 57.0183 51.3847 57.0279 51.4188 57.0468C51.4528 57.0658 51.4813 57.0933 51.5014 57.1266C51.5215 57.16 51.5325 57.1981 51.5332 57.237V59.8483Z" fill="#FAFAFA"/>
<path d="M49.9526 59.8483C49.9509 59.9054 49.927 59.9596 49.886 59.9994C49.845 60.0392 49.7901 60.0614 49.7329 60.0614C49.6758 60.0614 49.6209 60.0392 49.5799 59.9994C49.5389 59.9596 49.5149 59.9054 49.5132 59.8483V57.6328L49.2999 57.7646C49.2504 57.7939 49.1914 57.8026 49.1355 57.7888C49.0797 57.775 49.0314 57.7399 49.0012 57.6909C48.971 57.642 48.9612 57.5831 48.9739 57.527C48.9867 57.4709 49.0209 57.422 49.0693 57.3909L49.6165 57.05C49.65 57.0301 49.6881 57.0194 49.727 57.0188C49.766 57.0183 49.8044 57.0279 49.8384 57.0468C49.8724 57.0658 49.9009 57.0933 49.921 57.1266C49.9411 57.16 49.9521 57.1981 49.9528 57.237L49.9526 59.8483Z" fill="#FAFAFA"/>
<path d="M51.5332 59.8483C51.5332 59.9066 51.5101 59.9625 51.4689 60.0038C51.4276 60.045 51.3717 60.0681 51.3134 60.0681C51.2551 60.0681 51.1992 60.045 51.158 60.0038C51.1168 59.9625 51.0936 59.9066 51.0936 59.8483V57.6328L50.8805 57.7646C50.831 57.7952 50.7713 57.8049 50.7146 57.7915C50.6579 57.7781 50.6088 57.7427 50.5782 57.6932C50.5476 57.6436 50.5379 57.5839 50.5513 57.5272C50.5647 57.4705 50.6001 57.4215 50.6497 57.3909L51.1969 57.05C51.2304 57.0301 51.2685 57.0194 51.3074 57.0188C51.3463 57.0183 51.3847 57.0279 51.4188 57.0468C51.4528 57.0658 51.4813 57.0933 51.5014 57.1266C51.5215 57.16 51.5325 57.1981 51.5332 57.237V59.8483Z" fill="#FAFAFA"/>
<path d="M49.3394 57.332H51.6311" stroke="#191919" stroke-width="0.343756" stroke-linecap="round" stroke-linejoin="round"/>
<path d="M50.4854 58.4792V56.1875" stroke="#191919" stroke-width="0.343756" stroke-linecap="round" stroke-linejoin="round"/>
</g>
<g clip-path="url(#clip3_8754_16844)">
<path d="M30.3704 52.8673C30.7393 52.8668 31.0929 52.7201 31.3538 52.4593C31.6146 52.1984 31.7613 51.8448 31.7618 51.4759V50.9944C30.8416 51.1677 29.8966 51.161 28.979 50.9746V51.4759C28.9794 51.8448 29.1262 52.1984 29.387 52.4593C29.6479 52.7201 30.0015 52.8668 30.3704 52.8673Z" fill="#FAFAFA"/>
<path d="M36.0703 55.6215L34.9293 53.2233C34.7142 52.7743 34.335 52.425 33.87 52.2472L32.9993 51.9154C32.6548 51.8135 32.4033 51.4088 32.2013 51.1328V51.4102C32.2095 51.666 32.1643 51.9208 32.0686 52.1582C31.9729 52.3956 31.8287 52.6104 31.6453 52.789C31.4619 52.9675 31.2433 53.1059 31.0034 53.1953C30.7636 53.2846 30.5077 53.323 30.2522 53.3079C29.9966 53.2928 29.7471 53.2247 29.5193 53.1077C29.2916 52.9908 29.0908 52.8277 28.9297 52.6288C28.7685 52.4299 28.6506 52.1997 28.5835 51.9526C28.5163 51.7056 28.5014 51.4473 28.5396 51.1942C28.3891 51.4837 28.1428 51.7121 27.8428 51.8404L27.0272 52.1329C26.5591 52.2985 26.1731 52.6388 25.9501 53.0824L24.6706 55.6215C24.6528 55.66 24.6509 55.7039 24.6653 55.7438C24.6797 55.7837 24.7093 55.8163 24.7475 55.8346L26.4518 56.6096C26.4838 56.6242 26.5189 56.6309 26.554 56.6291C26.5892 56.6274 26.6234 56.6172 26.6538 56.5995C26.6842 56.5818 26.7099 56.557 26.7287 56.5273C26.7476 56.4976 26.759 56.4638 26.7621 56.4287L26.8247 55.7144C26.8313 55.6571 26.8599 55.6046 26.9046 55.5681C26.9492 55.5316 27.0064 55.514 27.0639 55.519C27.1213 55.524 27.1745 55.5513 27.2122 55.595C27.2498 55.6387 27.2689 55.6954 27.2654 55.7529L26.7347 61.7851C26.7345 61.8279 26.7431 61.8703 26.7599 61.9097C26.7767 61.9491 26.8015 61.9847 26.8326 62.0141C26.8637 62.0436 26.9005 62.0663 26.9407 62.081C26.981 62.0957 27.0238 62.1019 27.0666 62.0994H33.6919C33.7348 62.1019 33.7778 62.0956 33.8182 62.0808C33.8586 62.066 33.8956 62.0431 33.9267 62.0133C33.9578 61.9836 33.9825 61.9479 33.9992 61.9082C34.0159 61.8685 34.0243 61.8259 34.0237 61.7828C33.9298 60.7762 33.5412 56.671 33.4551 55.7542C33.451 55.6968 33.4694 55.6401 33.5066 55.5962C33.5438 55.5523 33.5967 55.5247 33.6539 55.5193C33.7112 55.5139 33.7683 55.5311 33.813 55.5673C33.8577 55.6035 33.8865 55.6558 33.8931 55.7129L33.9598 56.42C33.9631 56.4547 33.9746 56.4882 33.9934 56.5176C34.0122 56.547 34.0377 56.5715 34.0679 56.5891C34.098 56.6067 34.1319 56.6168 34.1667 56.6187C34.2016 56.6206 34.2364 56.6142 34.2682 56.6L35.9933 55.8303C36.031 55.8125 36.0602 55.7806 36.0746 55.7415C36.089 55.7024 36.0875 55.6595 36.0703 55.6215ZM29.9526 59.8483C29.9509 59.9054 29.927 59.9596 29.886 59.9994C29.845 60.0392 29.7901 60.0614 29.7329 60.0614C29.6758 60.0614 29.6209 60.0392 29.5799 59.9994C29.5389 59.9596 29.5149 59.9054 29.5132 59.8483V57.6328L29.2999 57.7646C29.2504 57.7939 29.1914 57.8026 29.1355 57.7888C29.0797 57.775 29.0314 57.7399 29.0012 57.6909C28.971 57.642 28.9612 57.5831 28.9739 57.527C28.9867 57.4709 29.0209 57.422 29.0693 57.3909L29.6165 57.05C29.65 57.0301 29.6881 57.0194 29.727 57.0188C29.766 57.0183 29.8044 57.0279 29.8384 57.0468C29.8724 57.0658 29.9009 57.0933 29.921 57.1266C29.9411 57.16 29.9521 57.1981 29.9528 57.237L29.9526 59.8483ZM31.5332 59.8483C31.5332 59.9066 31.5101 59.9625 31.4689 60.0038C31.4276 60.045 31.3717 60.0681 31.3134 60.0681C31.2551 60.0681 31.1992 60.045 31.158 60.0038C31.1168 59.9625 31.0936 59.9066 31.0936 59.8483V57.6328L30.8805 57.7646C30.831 57.7952 30.7713 57.8049 30.7146 57.7915C30.6579 57.7781 30.6088 57.7427 30.5782 57.6932C30.5476 57.6436 30.5379 57.5839 30.5513 57.5272C30.5647 57.4705 30.6001 57.4215 30.6497 57.3909L31.1969 57.05C31.2304 57.0301 31.2685 57.0194 31.3074 57.0188C31.3463 57.0183 31.3847 57.0279 31.4188 57.0468C31.4528 57.0658 31.4813 57.0933 31.5014 57.1266C31.5215 57.16 31.5325 57.1981 31.5332 57.237V59.8483Z" fill="#FAFAFA"/>
<path d="M29.9526 59.8483C29.9509 59.9054 29.927 59.9596 29.886 59.9994C29.845 60.0392 29.7901 60.0614 29.7329 60.0614C29.6758 60.0614 29.6209 60.0392 29.5799 59.9994C29.5389 59.9596 29.5149 59.9054 29.5132 59.8483V57.6328L29.2999 57.7646C29.2504 57.7939 29.1914 57.8026 29.1355 57.7888C29.0797 57.775 29.0314 57.7399 29.0012 57.6909C28.971 57.642 28.9612 57.5831 28.9739 57.527C28.9867 57.4709 29.0209 57.422 29.0693 57.3909L29.6165 57.05C29.65 57.0301 29.6881 57.0194 29.727 57.0188C29.766 57.0183 29.8044 57.0279 29.8384 57.0468C29.8724 57.0658 29.9009 57.0933 29.921 57.1266C29.9411 57.16 29.9521 57.1981 29.9528 57.237L29.9526 59.8483Z" fill="#FAFAFA"/>
<path d="M31.5332 59.8483C31.5332 59.9066 31.5101 59.9625 31.4689 60.0038C31.4276 60.045 31.3717 60.0681 31.3134 60.0681C31.2551 60.0681 31.1992 60.045 31.158 60.0038C31.1168 59.9625 31.0936 59.9066 31.0936 59.8483V57.6328L30.8805 57.7646C30.831 57.7952 30.7713 57.8049 30.7146 57.7915C30.6579 57.7781 30.6088 57.7427 30.5782 57.6932C30.5476 57.6436 30.5379 57.5839 30.5513 57.5272C30.5647 57.4705 30.6001 57.4215 30.6497 57.3909L31.1969 57.05C31.2304 57.0301 31.2685 57.0194 31.3074 57.0188C31.3463 57.0183 31.3847 57.0279 31.4188 57.0468C31.4528 57.0658 31.4813 57.0933 31.5014 57.1266C31.5215 57.16 31.5325 57.1981 31.5332 57.237V59.8483Z" fill="#FAFAFA"/>
<path d="M29.3394 57.332H31.6311" stroke="#191919" stroke-width="0.343756" stroke-linecap="round" stroke-linejoin="round"/>
<path d="M30.4854 58.4792V56.1875" stroke="#191919" stroke-width="0.343756" stroke-linecap="round" stroke-linejoin="round"/>
</g>
<g clip-path="url(#clip4_8754_16844)">
<path d="M8.37039 31.8673C8.73928 31.8668 9.09293 31.7201 9.35377 31.4593C9.61461 31.1984 9.76134 30.8448 9.76178 30.4759V29.9944C8.84163 30.1677 7.8966 30.161 6.979 29.9746V30.4759C6.97944 30.8448 7.12617 31.1984 7.38701 31.4593C7.64785 31.7201 8.0015 31.8668 8.37039 31.8673Z" fill="#FAFAFA"/>
<path d="M14.0703 34.6215L12.9293 32.2233C12.7142 31.7743 12.335 31.425 11.87 31.2472L10.9993 30.9154C10.6548 30.8135 10.4033 30.4088 10.2013 30.1328V30.4102C10.2095 30.666 10.1643 30.9208 10.0686 31.1582C9.97288 31.3956 9.82872 31.6104 9.64531 31.789C9.46191 31.9675 9.2433 32.1059 9.00343 32.1953C8.76356 32.2846 8.50769 32.323 8.25216 32.3079C7.99664 32.2928 7.74705 32.2247 7.51935 32.1077C7.29164 31.9908 7.09081 31.8277 6.92967 31.6288C6.76853 31.4299 6.65061 31.1997 6.58346 30.9526C6.5163 30.7056 6.50137 30.4473 6.53962 30.1942C6.38906 30.4837 6.14281 30.7121 5.84281 30.8404L5.0272 31.1329C4.55907 31.2985 4.17313 31.6388 3.95014 32.0824L2.6706 34.6215C2.65283 34.66 2.65095 34.7039 2.66535 34.7438C2.67975 34.7837 2.70928 34.8163 2.74755 34.8346L4.45183 35.6096C4.48384 35.6242 4.51889 35.6309 4.55403 35.6291C4.58918 35.6274 4.62338 35.6172 4.65378 35.5995C4.68418 35.5818 4.70988 35.557 4.72873 35.5273C4.74757 35.4976 4.75901 35.4638 4.76207 35.4287L4.82473 34.7144C4.83126 34.6571 4.85991 34.6046 4.90458 34.5681C4.94925 34.5316 5.0064 34.514 5.06385 34.519C5.12131 34.524 5.17453 34.5513 5.21218 34.595C5.24982 34.6387 5.26892 34.6954 5.26539 34.7529L4.73472 40.7851C4.7345 40.8279 4.74308 40.8703 4.75991 40.9097C4.77674 40.9491 4.80147 40.9847 4.83258 41.0141C4.86368 41.0436 4.9005 41.0663 4.94075 41.081C4.981 41.0957 5.02383 41.1019 5.0666 41.0994H11.6919C11.7348 41.1019 11.7778 41.0956 11.8182 41.0808C11.8586 41.066 11.8956 41.0431 11.9267 41.0133C11.9578 40.9836 11.9825 40.9479 11.9992 40.9082C12.0159 40.8685 12.0243 40.8259 12.0237 40.7828C11.9298 39.7762 11.5412 35.671 11.4551 34.7542C11.451 34.6968 11.4694 34.6401 11.5066 34.5962C11.5438 34.5523 11.5967 34.5247 11.6539 34.5193C11.7112 34.5139 11.7683 34.5311 11.813 34.5673C11.8577 34.6035 11.8865 34.6558 11.8931 34.7129L11.9598 35.42C11.9631 35.4547 11.9746 35.4882 11.9934 35.5176C12.0122 35.547 12.0377 35.5715 12.0679 35.5891C12.098 35.6067 12.1319 35.6168 12.1667 35.6187C12.2016 35.6206 12.2364 35.6142 12.2682 35.6L13.9933 34.8303C14.031 34.8125 14.0602 34.7806 14.0746 34.7415C14.089 34.7024 14.0875 34.6595 14.0703 34.6215ZM7.95265 38.8483C7.9509 38.9054 7.92699 38.9596 7.88598 38.9994C7.84496 39.0392 7.79007 39.0614 7.73293 39.0614C7.67579 39.0614 7.62089 39.0392 7.57987 38.9994C7.53886 38.9596 7.51495 38.9054 7.51321 38.8483V36.6328L7.29992 36.7646C7.2504 36.7939 7.19137 36.8026 7.13551 36.7888C7.07966 36.775 7.03144 36.7399 7.00123 36.6909C6.97101 36.642 6.96121 36.5831 6.97394 36.527C6.98667 36.4709 7.0209 36.422 7.06928 36.3909L7.61648 36.05C7.64996 36.0301 7.68808 36.0194 7.72702 36.0188C7.76595 36.0183 7.80436 36.0279 7.8384 36.0468C7.87244 36.0658 7.90092 36.0933 7.921 36.1266C7.94108 36.16 7.95207 36.1981 7.95285 36.237L7.95265 38.8483ZM9.53324 38.8483C9.53324 38.9066 9.51008 38.9625 9.46885 39.0038C9.42763 39.045 9.37172 39.0681 9.31342 39.0681C9.25512 39.0681 9.1992 39.045 9.15798 39.0038C9.11675 38.9625 9.09359 38.9066 9.09359 38.8483V36.6328L8.88051 36.7646C8.83095 36.7952 8.77126 36.8049 8.71457 36.7915C8.65788 36.7781 8.60884 36.7427 8.57823 36.6932C8.54762 36.6436 8.53795 36.5839 8.55134 36.5272C8.56474 36.4705 8.60011 36.4215 8.64967 36.3909L9.19687 36.05C9.23035 36.0301 9.26846 36.0194 9.3074 36.0188C9.34634 36.0183 9.38475 36.0279 9.41879 36.0468C9.45282 36.0658 9.48131 36.0933 9.50139 36.1266C9.52147 36.16 9.53245 36.1981 9.53324 36.237V38.8483Z" fill="#FAFAFA"/>
<path d="M7.95265 38.8483C7.9509 38.9054 7.92699 38.9596 7.88598 38.9994C7.84496 39.0392 7.79007 39.0614 7.73293 39.0614C7.67579 39.0614 7.62089 39.0392 7.57987 38.9994C7.53886 38.9596 7.51495 38.9054 7.51321 38.8483V36.6328L7.29992 36.7646C7.2504 36.7939 7.19137 36.8026 7.13551 36.7888C7.07966 36.775 7.03144 36.7399 7.00123 36.6909C6.97101 36.642 6.96121 36.5831 6.97394 36.527C6.98667 36.4709 7.0209 36.422 7.06928 36.3909L7.61648 36.05C7.64996 36.0301 7.68808 36.0194 7.72702 36.0188C7.76595 36.0183 7.80436 36.0279 7.8384 36.0468C7.87244 36.0658 7.90092 36.0933 7.921 36.1266C7.94108 36.16 7.95207 36.1981 7.95285 36.237L7.95265 38.8483Z" fill="#FAFAFA"/>
<path d="M9.53324 38.8483C9.53324 38.9066 9.51008 38.9625 9.46885 39.0038C9.42763 39.045 9.37172 39.0681 9.31342 39.0681C9.25512 39.0681 9.1992 39.045 9.15798 39.0038C9.11675 38.9625 9.09359 38.9066 9.09359 38.8483V36.6328L8.88051 36.7646C8.83095 36.7952 8.77126 36.8049 8.71457 36.7915C8.65788 36.7781 8.60884 36.7427 8.57823 36.6932C8.54762 36.6436 8.53795 36.5839 8.55134 36.5272C8.56474 36.4705 8.60011 36.4215 8.64967 36.3909L9.19687 36.05C9.23035 36.0301 9.26846 36.0194 9.3074 36.0188C9.34634 36.0183 9.38475 36.0279 9.41879 36.0468C9.45282 36.0658 9.48131 36.0933 9.50139 36.1266C9.52147 36.16 9.53245 36.1981 9.53324 36.237V38.8483Z" fill="#FAFAFA"/>
<path d="M7.33936 36.332H9.63107" stroke="#191919" stroke-width="0.343756" stroke-linecap="round" stroke-linejoin="round"/>
<path d="M8.48535 37.4792V35.1875" stroke="#191919" stroke-width="0.343756" stroke-linecap="round" stroke-linejoin="round"/>
</g>
<g clip-path="url(#clip5_8754_16844)">
<path d="M26.4331 34.8673C26.802 34.8668 27.1557 34.7201 27.4165 34.4593C27.6774 34.1984 27.8241 33.8448 27.8245 33.4759V32.9944C26.9044 33.1677 25.9593 33.161 25.0417 32.9746V33.4759C25.0422 33.8448 25.1889 34.1984 25.4498 34.4593C25.7106 34.7201 26.0642 34.8668 26.4331 34.8673Z" fill="#FAFAFA"/>
<path d="M32.133 37.6215L30.9921 35.2233C30.7769 34.7743 30.3978 34.425 29.9328 34.2472L29.0621 33.9154C28.7175 33.8135 28.4661 33.4088 28.264 33.1328V33.4102C28.2723 33.666 28.2271 33.9208 28.1313 34.1582C28.0356 34.3956 27.8915 34.6104 27.7081 34.789C27.5247 34.9675 27.306 35.1059 27.0662 35.1953C26.8263 35.2846 26.5704 35.323 26.3149 35.3079C26.0594 35.2928 25.8098 35.2247 25.5821 35.1077C25.3544 34.9908 25.1536 34.8277 24.9924 34.6288C24.8313 34.4299 24.7134 34.1997 24.6462 33.9526C24.579 33.7056 24.5641 33.4473 24.6024 33.1942C24.4518 33.4837 24.2056 33.7121 23.9056 33.8404L23.0899 34.1329C22.6218 34.2985 22.2359 34.6388 22.0129 35.0824L20.7333 37.6215C20.7156 37.66 20.7137 37.7039 20.7281 37.7438C20.7425 37.7837 20.772 37.8163 20.8103 37.8346L22.5146 38.6096C22.5466 38.6242 22.5816 38.6309 22.6168 38.6291C22.6519 38.6274 22.6861 38.6172 22.7165 38.5995C22.7469 38.5818 22.7726 38.557 22.7915 38.5273C22.8103 38.4976 22.8217 38.4638 22.8248 38.4287L22.8875 37.7144C22.894 37.6571 22.9227 37.6046 22.9673 37.5681C23.012 37.5316 23.0691 37.514 23.1266 37.519C23.1841 37.524 23.2373 37.5513 23.2749 37.595C23.3126 37.6387 23.3317 37.6954 23.3281 37.7529L22.7975 43.7851C22.7972 43.8279 22.8058 43.8703 22.8227 43.9097C22.8395 43.9491 22.8642 43.9847 22.8953 44.0141C22.9264 44.0436 22.9632 44.0663 23.0035 44.081C23.0437 44.0957 23.0866 44.1019 23.1293 44.0994H29.7546C29.7976 44.1019 29.8406 44.0956 29.881 44.0808C29.9214 44.066 29.9583 44.0431 29.9894 44.0133C30.0206 43.9836 30.0453 43.9479 30.062 43.9082C30.0787 43.8685 30.087 43.8259 30.0865 43.7828C29.9926 42.7762 29.604 38.671 29.5178 37.7542C29.5137 37.6968 29.5322 37.6401 29.5694 37.5962C29.6065 37.5523 29.6594 37.5247 29.7167 37.5193C29.7739 37.5139 29.831 37.5311 29.8758 37.5673C29.9205 37.6035 29.9492 37.6558 29.9558 37.7129L30.0226 38.42C30.0259 38.4547 30.0374 38.4882 30.0562 38.5176C30.075 38.547 30.1005 38.5715 30.1306 38.5891C30.1608 38.6067 30.1946 38.6168 30.2295 38.6187C30.2643 38.6206 30.2991 38.6142 30.331 38.6L32.0561 37.8303C32.0938 37.8125 32.123 37.7806 32.1374 37.7415C32.1517 37.7024 32.1502 37.6595 32.133 37.6215ZM26.0154 41.8483C26.0136 41.9054 25.9897 41.9596 25.9487 41.9994C25.9077 42.0392 25.8528 42.0614 25.7957 42.0614C25.7385 42.0614 25.6836 42.0392 25.6426 41.9994C25.6016 41.9596 25.5777 41.9054 25.576 41.8483V39.6328L25.3627 39.7646C25.3131 39.7939 25.2541 39.8026 25.1983 39.7888C25.1424 39.775 25.0942 39.7399 25.064 39.6909C25.0338 39.642 25.024 39.5831 25.0367 39.527C25.0494 39.4709 25.0836 39.422 25.132 39.3909L25.6792 39.05C25.7127 39.0301 25.7508 39.0194 25.7898 39.0188C25.8287 39.0183 25.8671 39.0279 25.9011 39.0468C25.9352 39.0658 25.9637 39.0933 25.9837 39.1266C26.0038 39.16 26.0148 39.1981 26.0156 39.237L26.0154 41.8483ZM27.596 41.8483C27.596 41.9066 27.5728 41.9625 27.5316 42.0038C27.4904 42.045 27.4345 42.0681 27.3762 42.0681C27.3179 42.0681 27.2619 42.045 27.2207 42.0038C27.1795 41.9625 27.1563 41.9066 27.1563 41.8483V39.6328L26.9433 39.7646C26.8937 39.7952 26.834 39.8049 26.7773 39.7915C26.7206 39.7781 26.6716 39.7427 26.641 39.6932C26.6104 39.6436 26.6007 39.5839 26.6141 39.5272C26.6275 39.4705 26.6629 39.4215 26.7124 39.3909L27.2596 39.05C27.2931 39.0301 27.3312 39.0194 27.3701 39.0188C27.4091 39.0183 27.4475 39.0279 27.4815 39.0468C27.5156 39.0658 27.5441 39.0933 27.5641 39.1266C27.5842 39.16 27.5952 39.1981 27.596 39.237V41.8483Z" fill="#FAFAFA"/>
<path d="M26.0154 41.8483C26.0136 41.9054 25.9897 41.9596 25.9487 41.9994C25.9077 42.0392 25.8528 42.0614 25.7957 42.0614C25.7385 42.0614 25.6836 42.0392 25.6426 41.9994C25.6016 41.9596 25.5777 41.9054 25.576 41.8483V39.6328L25.3627 39.7646C25.3131 39.7939 25.2541 39.8026 25.1983 39.7888C25.1424 39.775 25.0942 39.7399 25.064 39.6909C25.0338 39.642 25.024 39.5831 25.0367 39.527C25.0494 39.4709 25.0836 39.422 25.132 39.3909L25.6792 39.05C25.7127 39.0301 25.7508 39.0194 25.7898 39.0188C25.8287 39.0183 25.8671 39.0279 25.9011 39.0468C25.9352 39.0658 25.9637 39.0933 25.9837 39.1266C26.0038 39.16 26.0148 39.1981 26.0156 39.237L26.0154 41.8483Z" fill="#FAFAFA"/>
<path d="M27.596 41.8483C27.596 41.9066 27.5728 41.9625 27.5316 42.0038C27.4904 42.045 27.4345 42.0681 27.3762 42.0681C27.3179 42.0681 27.2619 42.045 27.2207 42.0038C27.1795 41.9625 27.1563 41.9066 27.1563 41.8483V39.6328L26.9433 39.7646C26.8937 39.7952 26.834 39.8049 26.7773 39.7915C26.7206 39.7781 26.6716 39.7427 26.641 39.6932C26.6104 39.6436 26.6007 39.5839 26.6141 39.5272C26.6275 39.4705 26.6629 39.4215 26.7124 39.3909L27.2596 39.05C27.2931 39.0301 27.3312 39.0194 27.3701 39.0188C27.4091 39.0183 27.4475 39.0279 27.4815 39.0468C27.5156 39.0658 27.5441 39.0933 27.5641 39.1266C27.5842 39.16 27.5952 39.1981 27.596 39.237V41.8483Z" fill="#FAFAFA"/>
<path d="M25.4021 39.332H27.6938" stroke="#191919" stroke-width="0.343756" stroke-linecap="round" stroke-linejoin="round"/>
<path d="M26.5481 40.4792V38.1875" stroke="#191919" stroke-width="0.343756" stroke-linecap="round" stroke-linejoin="round"/>
</g>
<path d="M40.4959 20.8673C40.8648 20.8668 41.2184 20.7201 41.4793 20.4593C41.7401 20.1984 41.8868 19.8448 41.8873 19.4759V18.9944C40.9671 19.1677 40.0221 19.161 39.1045 18.9746V19.4759C39.1049 19.8448 39.2517 20.1984 39.5125 20.4593C39.7733 20.7201 40.127 20.8668 40.4959 20.8673Z" fill="#FAFAFA"/>
<path d="M46.1958 23.6215L45.0548 21.2233C44.8397 20.7743 44.4605 20.425 43.9955 20.2472L43.1248 19.9154C42.7803 19.8135 42.5288 19.4088 42.3268 19.1328V19.4102C42.335 19.666 42.2898 19.9208 42.1941 20.1582C42.0984 20.3956 41.9542 20.6104 41.7708 20.789C41.5874 20.9675 41.3688 21.1059 41.1289 21.1953C40.889 21.2846 40.6332 21.323 40.3777 21.3079C40.1221 21.2928 39.8725 21.2247 39.6448 21.1077C39.4171 20.9908 39.2163 20.8277 39.0552 20.6288C38.894 20.4299 38.7761 20.1997 38.7089 19.9526C38.6418 19.7056 38.6269 19.4473 38.6651 19.1942C38.5145 19.4837 38.2683 19.7121 37.9683 19.8404L37.1527 20.1329C36.6846 20.2985 36.2986 20.6388 36.0756 21.0824L34.7961 23.6215C34.7783 23.66 34.7764 23.7039 34.7908 23.7438C34.8052 23.7837 34.8348 23.8163 34.873 23.8346L36.5773 24.6096C36.6093 24.6242 36.6444 24.6309 36.6795 24.6291C36.7147 24.6274 36.7489 24.6172 36.7793 24.5995C36.8097 24.5818 36.8354 24.557 36.8542 24.5273C36.8731 24.4976 36.8845 24.4638 36.8876 24.4287L36.9502 23.7144C36.9568 23.6571 36.9854 23.6046 37.0301 23.5681C37.0747 23.5316 37.1319 23.514 37.1893 23.519C37.2468 23.524 37.3 23.5513 37.3377 23.595C37.3753 23.6387 37.3944 23.6954 37.3909 23.7529L36.8602 29.7851C36.86 29.8279 36.8686 29.8703 36.8854 29.9097C36.9022 29.9491 36.927 29.9847 36.9581 30.0141C36.9892 30.0436 37.026 30.0663 37.0662 30.081C37.1065 30.0957 37.1493 30.1019 37.1921 30.0994H43.8173C43.8603 30.1019 43.9033 30.0956 43.9437 30.0808C43.9841 30.066 44.0211 30.0431 44.0522 30.0133C44.0833 29.9836 44.108 29.9479 44.1247 29.9082C44.1414 29.8685 44.1497 29.8259 44.1492 29.7828C44.0553 28.7762 43.6667 24.671 43.5806 23.7542C43.5764 23.6968 43.5949 23.6401 43.6321 23.5962C43.6693 23.5523 43.7221 23.5247 43.7794 23.5193C43.8367 23.5139 43.8938 23.5311 43.9385 23.5673C43.9832 23.6035 44.012 23.6558 44.0186 23.7129L44.0853 24.42C44.0886 24.4547 44.1001 24.4882 44.1189 24.5176C44.1377 24.547 44.1632 24.5715 44.1934 24.5891C44.2235 24.6067 44.2574 24.6168 44.2922 24.6187C44.3271 24.6206 44.3619 24.6142 44.3937 24.6L46.1188 23.8303C46.1565 23.8125 46.1857 23.7806 46.2001 23.7415C46.2145 23.7024 46.2129 23.6595 46.1958 23.6215ZM40.0781 27.8483C40.0764 27.9054 40.0525 27.9596 40.0115 27.9994C39.9705 28.0392 39.9156 28.0614 39.8584 28.0614C39.8013 28.0614 39.7464 28.0392 39.7054 27.9994C39.6643 27.9596 39.6404 27.9054 39.6387 27.8483V25.6328L39.4254 25.7646C39.3759 25.7939 39.3169 25.8026 39.261 25.7888C39.2051 25.775 39.1569 25.7399 39.1267 25.6909C39.0965 25.642 39.0867 25.5831 39.0994 25.527C39.1122 25.4709 39.1464 25.422 39.1948 25.3909L39.742 25.05C39.7755 25.0301 39.8136 25.0194 39.8525 25.0188C39.8914 25.0183 39.9298 25.0279 39.9639 25.0468C39.9979 25.0658 40.0264 25.0933 40.0465 25.1266C40.0666 25.16 40.0776 25.1981 40.0783 25.237L40.0781 27.8483ZM41.6587 27.8483C41.6587 27.9066 41.6356 27.9625 41.5943 28.0038C41.5531 28.045 41.4972 28.0681 41.4389 28.0681C41.3806 28.0681 41.3247 28.045 41.2835 28.0038C41.2422 27.9625 41.2191 27.9066 41.2191 27.8483V25.6328L41.006 25.7646C40.9564 25.7952 40.8967 25.8049 40.8401 25.7915C40.7834 25.7781 40.7343 25.7427 40.7037 25.6932C40.6731 25.6436 40.6634 25.5839 40.6768 25.5272C40.6902 25.4705 40.7256 25.4215 40.7752 25.3909L41.3224 25.05C41.3558 25.0301 41.394 25.0194 41.4329 25.0188C41.4718 25.0183 41.5102 25.0279 41.5443 25.0468C41.5783 25.0658 41.6068 25.0933 41.6269 25.1266C41.647 25.16 41.6579 25.1981 41.6587 25.237V27.8483Z" fill="#FAFAFA"/>
<path d="M40.0781 27.8483C40.0764 27.9054 40.0525 27.9596 40.0115 27.9994C39.9705 28.0392 39.9156 28.0614 39.8584 28.0614C39.8013 28.0614 39.7464 28.0392 39.7054 27.9994C39.6643 27.9596 39.6404 27.9054 39.6387 27.8483V25.6328L39.4254 25.7646C39.3759 25.7939 39.3169 25.8026 39.261 25.7888C39.2051 25.775 39.1569 25.7399 39.1267 25.6909C39.0965 25.642 39.0867 25.5831 39.0994 25.527C39.1122 25.4709 39.1464 25.422 39.1948 25.3909L39.742 25.05C39.7755 25.0301 39.8136 25.0194 39.8525 25.0188C39.8914 25.0183 39.9298 25.0279 39.9639 25.0468C39.9979 25.0658 40.0264 25.0933 40.0465 25.1266C40.0666 25.16 40.0776 25.1981 40.0783 25.237L40.0781 27.8483Z" fill="#FAFAFA"/>
<path d="M41.6587 27.8483C41.6587 27.9066 41.6356 27.9625 41.5943 28.0038C41.5531 28.045 41.4972 28.0681 41.4389 28.0681C41.3806 28.0681 41.3247 28.045 41.2835 28.0038C41.2422 27.9625 41.2191 27.9066 41.2191 27.8483V25.6328L41.006 25.7646C40.9564 25.7952 40.8967 25.8049 40.8401 25.7915C40.7834 25.7781 40.7343 25.7427 40.7037 25.6932C40.6731 25.6436 40.6634 25.5839 40.6768 25.5272C40.6902 25.4705 40.7256 25.4215 40.7752 25.3909L41.3224 25.05C41.3558 25.0301 41.394 25.0194 41.4329 25.0188C41.4718 25.0183 41.5102 25.0279 41.5443 25.0468C41.5783 25.0658 41.6068 25.0933 41.6269 25.1266C41.647 25.16 41.6579 25.1981 41.6587 25.237V27.8483Z" fill="#FAFAFA"/>
<path d="M39.4648 25.332H41.7566" stroke="#191919" stroke-width="0.343756" stroke-linecap="round" stroke-linejoin="round"/>
<path d="M40.6108 26.4792V24.1875" stroke="#191919" stroke-width="0.343756" stroke-linecap="round" stroke-linejoin="round"/>
<g clip-path="url(#clip6_8754_16844)">
<path d="M53.5586 34.8673C53.9275 34.8668 54.2812 34.7201 54.542 34.4593C54.8028 34.1984 54.9496 33.8448 54.95 33.4759V32.9944C54.0299 33.1677 53.0848 33.161 52.1672 32.9746V33.4759C52.1677 33.8448 52.3144 34.1984 52.5752 34.4593C52.8361 34.7201 53.1897 34.8668 53.5586 34.8673Z" fill="#FAFAFA"/>
<path d="M59.2585 37.6215L58.1176 35.2233C57.9024 34.7743 57.5233 34.425 57.0583 34.2472L56.1876 33.9154C55.843 33.8135 55.5916 33.4088 55.3895 33.1328V33.4102C55.3977 33.666 55.3526 33.9208 55.2568 34.1582C55.1611 34.3956 55.0169 34.6104 54.8335 34.789C54.6501 34.9675 54.4315 35.1059 54.1917 35.1953C53.9518 35.2846 53.6959 35.323 53.4404 35.3079C53.1849 35.2928 52.9353 35.2247 52.7076 35.1077C52.4799 34.9908 52.279 34.8277 52.1179 34.6288C51.9568 34.4299 51.8388 34.1997 51.7717 33.9526C51.7045 33.7056 51.6896 33.4473 51.7279 33.1942C51.5773 33.4837 51.331 33.7121 51.031 33.8404L50.2154 34.1329C49.7473 34.2985 49.3614 34.6388 49.1384 35.0824L47.8588 37.6215C47.8411 37.66 47.8392 37.7039 47.8536 37.7438C47.868 37.7837 47.8975 37.8163 47.9358 37.8346L49.6401 38.6096C49.6721 38.6242 49.7071 38.6309 49.7423 38.6291C49.7774 38.6274 49.8116 38.6172 49.842 38.5995C49.8724 38.5818 49.8981 38.557 49.917 38.5273C49.9358 38.4976 49.9472 38.4638 49.9503 38.4287L50.013 37.7144C50.0195 37.6571 50.0481 37.6046 50.0928 37.5681C50.1375 37.5316 50.1946 37.514 50.2521 37.519C50.3095 37.524 50.3628 37.5513 50.4004 37.595C50.4381 37.6387 50.4571 37.6954 50.4536 37.7529L49.923 43.7851C49.9227 43.8279 49.9313 43.8703 49.9481 43.9097C49.965 43.9491 49.9897 43.9847 50.0208 44.0141C50.0519 44.0436 50.0887 44.0663 50.129 44.081C50.1692 44.0957 50.2121 44.1019 50.2548 44.0994H56.8801C56.923 44.1019 56.9661 44.0956 57.0065 44.0808C57.0469 44.066 57.0838 44.0431 57.1149 44.0133C57.1461 43.9836 57.1708 43.9479 57.1874 43.9082C57.2041 43.8685 57.2125 43.8259 57.212 43.7828C57.1181 42.7762 56.7295 38.671 56.6433 37.7542C56.6392 37.6968 56.6577 37.6401 56.6948 37.5962C56.732 37.5523 56.7849 37.5247 56.8422 37.5193C56.8994 37.5139 56.9565 37.5311 57.0012 37.5673C57.0459 37.6035 57.0747 37.6558 57.0813 37.7129L57.1481 38.42C57.1514 38.4547 57.1629 38.4882 57.1817 38.5176C57.2005 38.547 57.226 38.5715 57.2561 38.5891C57.2862 38.6067 57.3201 38.6168 57.355 38.6187C57.3898 38.6206 57.4246 38.6142 57.4565 38.6L59.1816 37.8303C59.2193 37.8125 59.2484 37.7806 59.2628 37.7415C59.2772 37.7024 59.2757 37.6595 59.2585 37.6215ZM53.1409 41.8483C53.1391 41.9054 53.1152 41.9596 53.0742 41.9994C53.0332 42.0392 52.9783 42.0614 52.9212 42.0614C52.864 42.0614 52.8091 42.0392 52.7681 41.9994C52.7271 41.9596 52.7032 41.9054 52.7014 41.8483V39.6328L52.4881 39.7646C52.4386 39.7939 52.3796 39.8026 52.3237 39.7888C52.2679 39.775 52.2197 39.7399 52.1895 39.6909C52.1592 39.642 52.1494 39.5831 52.1622 39.527C52.1749 39.4709 52.2091 39.422 52.2575 39.3909L52.8047 39.05C52.8382 39.0301 52.8763 39.0194 52.9152 39.0188C52.9542 39.0183 52.9926 39.0279 53.0266 39.0468C53.0607 39.0658 53.0892 39.0933 53.1092 39.1266C53.1293 39.16 53.1403 39.1981 53.1411 39.237L53.1409 41.8483ZM54.7215 41.8483C54.7215 41.9066 54.6983 41.9625 54.6571 42.0038C54.6159 42.045 54.5599 42.0681 54.5016 42.0681C54.4433 42.0681 54.3874 42.045 54.3462 42.0038C54.305 41.9625 54.2818 41.9066 54.2818 41.8483V39.6328L54.0687 39.7646C54.0192 39.7952 53.9595 39.8049 53.9028 39.7915C53.8461 39.7781 53.7971 39.7427 53.7665 39.6932C53.7358 39.6436 53.7262 39.5839 53.7396 39.5272C53.753 39.4705 53.7883 39.4215 53.8379 39.3909L54.3851 39.05C54.4186 39.0301 54.4567 39.0194 54.4956 39.0188C54.5346 39.0183 54.573 39.0279 54.607 39.0468C54.6411 39.0658 54.6695 39.0933 54.6896 39.1266C54.7097 39.16 54.7207 39.1981 54.7215 39.237V41.8483Z" fill="#FAFAFA"/>
<path d="M53.1409 41.8483C53.1391 41.9054 53.1152 41.9596 53.0742 41.9994C53.0332 42.0392 52.9783 42.0614 52.9212 42.0614C52.864 42.0614 52.8091 42.0392 52.7681 41.9994C52.7271 41.9596 52.7032 41.9054 52.7014 41.8483V39.6328L52.4881 39.7646C52.4386 39.7939 52.3796 39.8026 52.3237 39.7888C52.2679 39.775 52.2197 39.7399 52.1895 39.6909C52.1592 39.642 52.1494 39.5831 52.1622 39.527C52.1749 39.4709 52.2091 39.422 52.2575 39.3909L52.8047 39.05C52.8382 39.0301 52.8763 39.0194 52.9152 39.0188C52.9542 39.0183 52.9926 39.0279 53.0266 39.0468C53.0607 39.0658 53.0892 39.0933 53.1092 39.1266C53.1293 39.16 53.1403 39.1981 53.1411 39.237L53.1409 41.8483Z" fill="#FAFAFA"/>
<path d="M54.7215 41.8483C54.7215 41.9066 54.6983 41.9625 54.6571 42.0038C54.6159 42.045 54.5599 42.0681 54.5016 42.0681C54.4433 42.0681 54.3874 42.045 54.3462 42.0038C54.305 41.9625 54.2818 41.9066 54.2818 41.8483V39.6328L54.0687 39.7646C54.0192 39.7952 53.9595 39.8049 53.9028 39.7915C53.8461 39.7781 53.7971 39.7427 53.7665 39.6932C53.7358 39.6436 53.7262 39.5839 53.7396 39.5272C53.753 39.4705 53.7883 39.4215 53.8379 39.3909L54.3851 39.05C54.4186 39.0301 54.4567 39.0194 54.4956 39.0188C54.5346 39.0183 54.573 39.0279 54.607 39.0468C54.6411 39.0658 54.6695 39.0933 54.6896 39.1266C54.7097 39.16 54.7207 39.1981 54.7215 39.237V41.8483Z" fill="#FAFAFA"/>
<path d="M52.5276 39.332H54.8193" stroke="#191919" stroke-width="0.343756" stroke-linecap="round" stroke-linejoin="round"/>
<path d="M53.6736 40.4792V38.1875" stroke="#191919" stroke-width="0.343756" stroke-linecap="round" stroke-linejoin="round"/>
</g>
<g clip-path="url(#clip7_8754_16844)">
<path d="M71.6214 31.8673C71.9903 31.8668 72.3439 31.7201 72.6047 31.4593C72.8656 31.1984 73.0123 30.8448 73.0128 30.4759V29.9944C72.0926 30.1677 71.1476 30.161 70.23 29.9746V30.4759C70.2304 30.8448 70.3771 31.1984 70.638 31.4593C70.8988 31.7201 71.2525 31.8668 71.6214 31.8673Z" fill="#FAFAFA"/>
<path d="M77.3213 34.6215L76.1803 32.2233C75.9651 31.7743 75.586 31.425 75.121 31.2472L74.2503 30.9154C73.9058 30.8135 73.6543 30.4088 73.4523 30.1328V30.4102C73.4605 30.666 73.4153 30.9208 73.3196 31.1582C73.2239 31.3956 73.0797 31.6104 72.8963 31.789C72.7129 31.9675 72.4943 32.1059 72.2544 32.1953C72.0145 32.2846 71.7587 32.323 71.5031 32.3079C71.2476 32.2928 70.998 32.2247 70.7703 32.1077C70.5426 31.9908 70.3418 31.8277 70.1806 31.6288C70.0195 31.4299 69.9016 31.1997 69.8344 30.9526C69.7673 30.7056 69.7523 30.4473 69.7906 30.1942C69.64 30.4837 69.3938 30.7121 69.0938 30.8404L68.2782 31.1329C67.81 31.2985 67.4241 31.6388 67.2011 32.0824L65.9216 34.6215C65.9038 34.66 65.9019 34.7039 65.9163 34.7438C65.9307 34.7837 65.9603 34.8163 65.9985 34.8346L67.7028 35.6096C67.7348 35.6242 67.7699 35.6309 67.805 35.6291C67.8402 35.6274 67.8744 35.6172 67.9048 35.5995C67.9352 35.5818 67.9609 35.557 67.9797 35.5273C67.9985 35.4976 68.01 35.4638 68.013 35.4287L68.0757 34.7144C68.0822 34.6571 68.1109 34.6046 68.1556 34.5681C68.2002 34.5316 68.2574 34.514 68.3148 34.519C68.3723 34.524 68.4255 34.5513 68.4632 34.595C68.5008 34.6387 68.5199 34.6954 68.5164 34.7529L67.9857 40.7851C67.9855 40.8279 67.9941 40.8703 68.0109 40.9097C68.0277 40.9491 68.0524 40.9847 68.0836 41.0141C68.1147 41.0436 68.1515 41.0663 68.1917 41.081C68.232 41.0957 68.2748 41.1019 68.3176 41.0994H74.9428C74.9858 41.1019 75.0288 41.0956 75.0692 41.0808C75.1096 41.066 75.1465 41.0431 75.1777 41.0133C75.2088 40.9836 75.2335 40.9479 75.2502 40.9082C75.2669 40.8685 75.2752 40.8259 75.2747 40.7828C75.1808 39.7762 74.7922 35.671 74.7061 34.7542C74.7019 34.6968 74.7204 34.6401 74.7576 34.5962C74.7948 34.5523 74.8476 34.5247 74.9049 34.5193C74.9622 34.5139 75.0193 34.5311 75.064 34.5673C75.1087 34.6035 75.1374 34.6558 75.1441 34.7129L75.2108 35.42C75.2141 35.4547 75.2256 35.4882 75.2444 35.5176C75.2632 35.547 75.2887 35.5715 75.3188 35.5891C75.349 35.6067 75.3829 35.6168 75.4177 35.6187C75.4526 35.6206 75.4874 35.6142 75.5192 35.6L77.2443 34.8303C77.282 34.8125 77.3112 34.7806 77.3256 34.7415C77.34 34.7024 77.3384 34.6595 77.3213 34.6215ZM71.2036 38.8483C71.2019 38.9054 71.178 38.9596 71.137 38.9994C71.0959 39.0392 71.041 39.0614 70.9839 39.0614C70.9268 39.0614 70.8719 39.0392 70.8309 38.9994C70.7898 38.9596 70.7659 38.9054 70.7642 38.8483V36.6328L70.5509 36.7646C70.5014 36.7939 70.4423 36.8026 70.3865 36.7888C70.3306 36.775 70.2824 36.7399 70.2522 36.6909C70.222 36.642 70.2122 36.5831 70.2249 36.527C70.2376 36.4709 70.2719 36.422 70.3203 36.3909L70.8675 36.05C70.9009 36.0301 70.9391 36.0194 70.978 36.0188C71.0169 36.0183 71.0553 36.0279 71.0894 36.0468C71.1234 36.0658 71.1519 36.0933 71.172 36.1266C71.1921 36.16 71.203 36.1981 71.2038 36.237L71.2036 38.8483ZM72.7842 38.8483C72.7842 38.9066 72.7611 38.9625 72.7198 39.0038C72.6786 39.045 72.6227 39.0681 72.5644 39.0681C72.5061 39.0681 72.4502 39.045 72.409 39.0038C72.3677 38.9625 72.3446 38.9066 72.3446 38.8483V36.6328L72.1315 36.7646C72.0819 36.7952 72.0222 36.8049 71.9655 36.7915C71.9089 36.7781 71.8598 36.7427 71.8292 36.6932C71.7986 36.6436 71.7889 36.5839 71.8023 36.5272C71.8157 36.4705 71.8511 36.4215 71.9006 36.3909L72.4478 36.05C72.4813 36.0301 72.5194 36.0194 72.5584 36.0188C72.5973 36.0183 72.6357 36.0279 72.6698 36.0468C72.7038 36.0658 72.7323 36.0933 72.7524 36.1266C72.7724 36.16 72.7834 36.1981 72.7842 36.237V38.8483Z" fill="#FAFAFA"/>
<path d="M71.2036 38.8483C71.2019 38.9054 71.178 38.9596 71.137 38.9994C71.0959 39.0392 71.041 39.0614 70.9839 39.0614C70.9268 39.0614 70.8719 39.0392 70.8309 38.9994C70.7898 38.9596 70.7659 38.9054 70.7642 38.8483V36.6328L70.5509 36.7646C70.5014 36.7939 70.4423 36.8026 70.3865 36.7888C70.3306 36.775 70.2824 36.7399 70.2522 36.6909C70.222 36.642 70.2122 36.5831 70.2249 36.527C70.2376 36.4709 70.2719 36.422 70.3203 36.3909L70.8675 36.05C70.9009 36.0301 70.9391 36.0194 70.978 36.0188C71.0169 36.0183 71.0553 36.0279 71.0894 36.0468C71.1234 36.0658 71.1519 36.0933 71.172 36.1266C71.1921 36.16 71.203 36.1981 71.2038 36.237L71.2036 38.8483Z" fill="#FAFAFA"/>
<path d="M72.7842 38.8483C72.7842 38.9066 72.7611 38.9625 72.7198 39.0038C72.6786 39.045 72.6227 39.0681 72.5644 39.0681C72.5061 39.0681 72.4502 39.045 72.409 39.0038C72.3677 38.9625 72.3446 38.9066 72.3446 38.8483V36.6328L72.1315 36.7646C72.0819 36.7952 72.0222 36.8049 71.9655 36.7915C71.9089 36.7781 71.8598 36.7427 71.8292 36.6932C71.7986 36.6436 71.7889 36.5839 71.8023 36.5272C71.8157 36.4705 71.8511 36.4215 71.9006 36.3909L72.4478 36.05C72.4813 36.0301 72.5194 36.0194 72.5584 36.0188C72.5973 36.0183 72.6357 36.0279 72.6698 36.0468C72.7038 36.0658 72.7323 36.0933 72.7524 36.1266C72.7724 36.16 72.7834 36.1981 72.7842 36.237V38.8483Z" fill="#FAFAFA"/>
<path d="M70.5903 36.332H72.882" stroke="#191919" stroke-width="0.343756" stroke-linecap="round" stroke-linejoin="round"/>
<path d="M71.7363 37.4792V35.1875" stroke="#191919" stroke-width="0.343756" stroke-linecap="round" stroke-linejoin="round"/>
</g>
<path d="M40.2683 4.99618C40.6372 4.99575 40.9909 4.84902 41.2517 4.58818C41.5126 4.32734 41.6593 3.97368 41.6597 3.6048V3.12331C40.7396 3.29665 39.7945 3.28993 38.877 3.10352V3.6048C38.8774 3.97368 39.0241 4.32734 39.285 4.58818C39.5458 4.84902 39.8995 4.99575 40.2683 4.99618Z" fill="#FAFAFA"/>
<path d="M45.9682 7.7504L44.8273 5.35217C44.6121 4.90324 44.233 4.55392 43.768 4.37613L42.8973 4.04426C42.5527 3.94241 42.3013 3.53767 42.0992 3.26172V3.5391C42.1075 3.79494 42.0623 4.04969 41.9666 4.28709C41.8708 4.52449 41.7267 4.73932 41.5433 4.91789C41.3599 5.09646 41.1413 5.23483 40.9014 5.32418C40.6615 5.41353 40.4056 5.45189 40.1501 5.43682C39.8946 5.42175 39.645 5.35358 39.4173 5.23666C39.1896 5.11973 38.9888 4.95662 38.8276 4.75774C38.6665 4.55885 38.5486 4.32856 38.4814 4.08155C38.4142 3.83455 38.3993 3.57625 38.4376 3.32315C38.287 3.61265 38.0408 3.84101 37.7408 3.96935L36.9252 4.26184C36.457 4.42743 36.0711 4.76766 35.8481 5.21133L34.5686 7.7504C34.5508 7.7889 34.5489 7.83286 34.5633 7.87274C34.5777 7.91262 34.6072 7.94522 34.6455 7.96349L36.3498 8.73848C36.3818 8.75308 36.4168 8.75979 36.452 8.75804C36.4871 8.75629 36.5213 8.74613 36.5517 8.72841C36.5821 8.71069 36.6078 8.68593 36.6267 8.65621C36.6455 8.6265 36.657 8.59269 36.66 8.55764L36.7227 7.84327C36.7292 7.78597 36.7579 7.73348 36.8025 7.69699C36.8472 7.6605 36.9043 7.64289 36.9618 7.64792C37.0193 7.65295 37.0725 7.68022 37.1101 7.72392C37.1478 7.76761 37.1669 7.82428 37.1633 7.88185L36.6327 13.914C36.6325 13.9568 36.641 13.9992 36.6579 14.0386C36.6747 14.078 36.6994 14.1136 36.7305 14.143C36.7616 14.1725 36.7984 14.1952 36.8387 14.2099C36.8789 14.2246 36.9218 14.2308 36.9645 14.2283H43.5898C43.6328 14.2309 43.6758 14.2245 43.7162 14.2097C43.7566 14.1949 43.7935 14.172 43.8246 14.1423C43.8558 14.1126 43.8805 14.0768 43.8972 14.0371C43.9139 13.9974 43.9222 13.9548 43.9217 13.9117C43.8278 12.9051 43.4392 8.79991 43.353 7.88307C43.3489 7.8257 43.3674 7.76899 43.4046 7.72508C43.4417 7.68118 43.4946 7.65357 43.5519 7.64818C43.6091 7.64279 43.6663 7.66004 43.711 7.69624C43.7557 7.73244 43.7844 7.78471 43.7911 7.84184L43.8578 8.54886C43.8611 8.5836 43.8726 8.61706 43.8914 8.64647C43.9102 8.67588 43.9357 8.70039 43.9658 8.71798C43.996 8.73557 44.0299 8.74574 44.0647 8.74763C44.0995 8.74953 44.1343 8.7431 44.1662 8.72889L45.8913 7.9592C45.929 7.94143 45.9582 7.90955 45.9726 7.87045C45.9869 7.83136 45.9854 7.78837 45.9682 7.7504ZM39.8506 11.9772C39.8489 12.0343 39.8249 12.0885 39.7839 12.1283C39.7429 12.1681 39.688 12.1903 39.6309 12.1903C39.5737 12.1903 39.5188 12.1681 39.4778 12.1283C39.4368 12.0885 39.4129 12.0343 39.4112 11.9772V9.76166L39.1979 9.89351C39.1483 9.9228 39.0893 9.93148 39.0335 9.9177C38.9776 9.90392 38.9294 9.86878 38.8992 9.81982C38.869 9.77086 38.8592 9.712 38.8719 9.6559C38.8846 9.5998 38.9188 9.55092 38.9672 9.51979L39.5144 9.17894C39.5479 9.15905 39.586 9.14829 39.625 9.14773C39.6639 9.14717 39.7023 9.15683 39.7363 9.17575C39.7704 9.19467 39.7989 9.22218 39.819 9.25555C39.839 9.28891 39.85 9.32696 39.8508 9.3659L39.8506 11.9772ZM41.4312 11.9772C41.4312 12.0355 41.408 12.0914 41.3668 12.1327C41.3256 12.1739 41.2697 12.197 41.2114 12.197C41.1531 12.197 41.0972 12.1739 41.0559 12.1327C41.0147 12.0914 40.9915 12.0355 40.9915 11.9772V9.76166L40.7785 9.89351C40.7289 9.92412 40.6692 9.93379 40.6125 9.9204C40.5558 9.907 40.5068 9.87163 40.4762 9.82207C40.4456 9.77252 40.4359 9.71283 40.4493 9.65614C40.4627 9.59945 40.4981 9.55041 40.5476 9.51979L41.0948 9.17894C41.1283 9.15905 41.1664 9.14829 41.2054 9.14773C41.2443 9.14717 41.2827 9.15683 41.3167 9.17575C41.3508 9.19467 41.3793 9.22218 41.3993 9.25555C41.4194 9.28891 41.4304 9.32696 41.4312 9.3659V11.9772Z" fill="#FAFAFA"/>
<path d="M39.8506 11.9772C39.8489 12.0343 39.8249 12.0885 39.7839 12.1283C39.7429 12.1681 39.688 12.1903 39.6309 12.1903C39.5737 12.1903 39.5188 12.1681 39.4778 12.1283C39.4368 12.0885 39.4129 12.0343 39.4112 11.9772V9.76166L39.1979 9.89351C39.1483 9.9228 39.0893 9.93148 39.0335 9.9177C38.9776 9.90392 38.9294 9.86878 38.8992 9.81982C38.869 9.77086 38.8592 9.712 38.8719 9.6559C38.8846 9.5998 38.9188 9.55092 38.9672 9.51979L39.5144 9.17894C39.5479 9.15905 39.586 9.14829 39.625 9.14773C39.6639 9.14717 39.7023 9.15683 39.7363 9.17575C39.7704 9.19467 39.7989 9.22218 39.819 9.25555C39.839 9.28891 39.85 9.32696 39.8508 9.3659L39.8506 11.9772Z" fill="#FAFAFA"/>
<path d="M41.4312 11.9772C41.4312 12.0355 41.408 12.0914 41.3668 12.1327C41.3256 12.1739 41.2697 12.197 41.2114 12.197C41.1531 12.197 41.0972 12.1739 41.0559 12.1327C41.0147 12.0914 40.9915 12.0355 40.9915 11.9772V9.76166L40.7785 9.89351C40.7289 9.92412 40.6692 9.93379 40.6125 9.9204C40.5558 9.907 40.5068 9.87163 40.4762 9.82207C40.4456 9.77252 40.4359 9.71283 40.4493 9.65614C40.4627 9.59945 40.4981 9.55041 40.5476 9.51979L41.0948 9.17894C41.1283 9.15905 41.1664 9.14829 41.2054 9.14773C41.2443 9.14717 41.2827 9.15683 41.3167 9.17575C41.3508 9.19467 41.3793 9.22218 41.3993 9.25555C41.4194 9.28891 41.4304 9.32696 41.4312 9.3659V11.9772Z" fill="#FAFAFA"/>
<path d="M39.2373 9.46094H41.529" stroke="#191919" stroke-width="0.343756" stroke-linecap="round" stroke-linejoin="round"/>
<path d="M40.3833 10.6081V8.31641" stroke="#191919" stroke-width="0.343756" stroke-linecap="round" stroke-linejoin="round"/>
<defs>
<clipPath id="clip0_8754_16844">
<rect width="13.0627" height="13.0627" fill="white" transform="translate(3.75781 49)"/>
</clipPath>
<clipPath id="clip1_8754_16844">
<rect width="13.0627" height="13.0627" fill="white" transform="translate(62.8394 49)"/>
</clipPath>
<clipPath id="clip2_8754_16844">
<rect width="13.0627" height="13.0627" fill="white" transform="translate(43.8394 50)"/>
</clipPath>
<clipPath id="clip3_8754_16844">
<rect width="13.0627" height="13.0627" fill="white" transform="translate(23.8394 50)"/>
</clipPath>
<clipPath id="clip4_8754_16844">
<rect width="13.0627" height="13.0627" fill="white" transform="translate(1.83936 29)"/>
</clipPath>
<clipPath id="clip5_8754_16844">
<rect width="13.0627" height="13.0627" fill="white" transform="translate(19.9021 32)"/>
</clipPath>
<clipPath id="clip6_8754_16844">
<rect width="13.0627" height="13.0627" fill="white" transform="translate(47.0276 32)"/>
</clipPath>
<clipPath id="clip7_8754_16844">
<rect width="13.0627" height="13.0627" fill="white" transform="translate(65.0903 29)"/>
</clipPath>
</defs>
</svg>
