<svg width="81" height="81" viewBox="0 0 81 81" fill="none" xmlns="http://www.w3.org/2000/svg">
<rect x="0.534263" y="0.118492" width="79.9807" height="79.9807" rx="5.88541" fill="#828284" stroke="#FAFAFA" stroke-width="0.229171"/>
<mask id="path-2-inside-1_8754_17092" fill="white">
<path d="M24.2534 66.4609H56.7957V80.2112H24.2534V66.4609Z"/>
</mask>
<path d="M24.2534 66.4609V66.2318H24.0242V66.4609H24.2534ZM56.7957 66.4609H57.0249V66.2318H56.7957V66.4609ZM24.2534 66.6901H56.7957V66.2318H24.2534V66.6901ZM56.5665 66.4609V80.2112H57.0249V66.4609H56.5665ZM24.4826 80.2112V66.4609H24.0242V80.2112H24.4826Z" fill="#FAFAFA" mask="url(#path-2-inside-1_8754_17092)"/>
<mask id="path-4-inside-2_8754_17092" fill="white">
<path d="M13.0239 55.0039H68.025V80.2127H13.0239V55.0039Z"/>
</mask>
<path d="M13.0239 55.0039V54.7747H12.7948V55.0039H13.0239ZM68.025 55.0039H68.2541V54.7747H68.025V55.0039ZM13.0239 55.2331H68.025V54.7747H13.0239V55.2331ZM67.7958 55.0039V80.2127H68.2541V55.0039H67.7958ZM13.2531 80.2127V55.0039H12.7948V80.2127H13.2531Z" fill="#FAFAFA" mask="url(#path-4-inside-2_8754_17092)"/>
<path d="M54.7331 9.53674e-07C54.7331 1.65523 54.3478 3.29426 53.5992 4.8235C52.8506 6.35273 51.7534 7.74223 50.3702 8.91266C48.9869 10.0831 47.3448 11.0115 45.5375 11.645C43.7302 12.2784 41.7932 12.6044 39.837 12.6044C37.8808 12.6044 35.9438 12.2784 34.1365 11.645C32.3293 11.0115 30.6871 10.0831 29.3039 8.91266C27.9207 7.74223 26.8234 6.35273 26.0748 4.8235C25.3262 3.29426 24.9409 1.65523 24.9409 0" stroke="#FAFAFA" stroke-width="0.229171"/>
<path d="M30.9969 55.3516C31.5151 54.5174 32.2748 53.7595 33.2324 53.1211C34.19 52.4827 35.3269 51.9763 36.5781 51.6308C37.8293 51.2853 39.1703 51.1074 40.5246 51.1074C41.8788 51.1074 43.2199 51.2853 44.4711 51.6308C45.7223 51.9763 46.8591 52.4827 47.8167 53.1211C48.7744 53.7595 49.534 54.5174 50.0522 55.3516" stroke="#FAFAFA" stroke-width="0.229171"/>
<path d="M0.648926 76.5479C1.76545 76.4958 3.96938 77.1099 3.85288 79.9825" stroke="#FAFAFA" stroke-width="0.229171"/>
<path d="M80.4004 76.5479C79.2839 76.4958 77.0799 77.1099 77.1964 79.9825" stroke="#FAFAFA" stroke-width="0.229171"/>
<g clip-path="url(#clip0_8754_17092)">
<path d="M40.6387 69.4356C41.0076 69.4352 41.3612 69.2885 41.6221 69.0276C41.8829 68.7668 42.0297 68.4131 42.0301 68.0443V67.5628C41.1099 67.7361 40.1649 67.7294 39.2473 67.543V68.0443C39.2477 68.4131 39.3945 68.7668 39.6553 69.0276C39.9162 69.2885 40.2698 69.4352 40.6387 69.4356Z" fill="#FAFAFA"/>
<path d="M46.3386 72.1899L45.1977 69.7916C44.9825 69.3427 44.6034 68.9934 44.1383 68.8156L43.2676 68.4837C42.9231 68.3819 42.6716 67.9771 42.4696 67.7012V67.9786C42.4778 68.2344 42.4326 68.4891 42.3369 68.7265C42.2412 68.9639 42.097 69.1788 41.9136 69.3573C41.7302 69.5359 41.5116 69.6743 41.2717 69.7636C41.0319 69.853 40.776 69.8913 40.5205 69.8763C40.2649 69.8612 40.0154 69.793 39.7877 69.6761C39.56 69.5592 39.3591 69.3961 39.198 69.1972C39.0368 68.9983 38.9189 68.768 38.8518 68.521C38.7846 68.274 38.7697 68.0157 38.8079 67.7626C38.6574 68.0521 38.4111 68.2805 38.1111 68.4088L37.2955 68.7013C36.8274 68.8669 36.4414 69.2071 36.2184 69.6508L34.9389 72.1899C34.9211 72.2284 34.9193 72.2723 34.9337 72.3122C34.9481 72.3521 34.9776 72.3847 35.0159 72.4029L36.7201 73.1779C36.7522 73.1925 36.7872 73.1992 36.8223 73.1975C36.8575 73.1957 36.8917 73.1856 36.9221 73.1679C36.9525 73.1501 36.9782 73.1254 36.997 73.0957C37.0159 73.066 37.0273 73.0321 37.0304 72.9971L37.093 72.2827C37.0996 72.2254 37.1282 72.1729 37.1729 72.1364C37.2176 72.1 37.2747 72.0823 37.3322 72.0874C37.3896 72.0924 37.4428 72.1197 37.4805 72.1634C37.5181 72.2071 37.5372 72.2637 37.5337 72.3213L37.003 78.3534C37.0028 78.3963 37.0114 78.4387 37.0282 78.4781C37.0451 78.5175 37.0698 78.553 37.1009 78.5825C37.132 78.6119 37.1688 78.6347 37.2091 78.6494C37.2493 78.664 37.2921 78.6703 37.3349 78.6678H43.9602C44.0031 78.6703 44.0461 78.664 44.0865 78.6492C44.127 78.6344 44.1639 78.6114 44.195 78.5817C44.2261 78.552 44.2508 78.5162 44.2675 78.4766C44.2842 78.4369 44.2926 78.3942 44.292 78.3512C44.1982 77.3445 43.8095 73.2394 43.7234 72.3225C43.7193 72.2652 43.7378 72.2084 43.7749 72.1645C43.8121 72.1206 43.865 72.093 43.9222 72.0876C43.9795 72.0822 44.0366 72.0995 44.0813 72.1357C44.126 72.1719 44.1548 72.2242 44.1614 72.2813L44.2282 72.9883C44.2314 73.0231 44.243 73.0565 44.2617 73.0859C44.2805 73.1153 44.306 73.1398 44.3362 73.1574C44.3663 73.175 44.4002 73.1852 44.4351 73.1871C44.4699 73.189 44.5047 73.1826 44.5366 73.1683L46.2617 72.3987C46.2993 72.3809 46.3285 72.349 46.3429 72.3099C46.3573 72.2708 46.3558 72.2278 46.3386 72.1899ZM40.221 76.4167C40.2192 76.4738 40.1953 76.528 40.1543 76.5678C40.1133 76.6076 40.0584 76.6298 40.0012 76.6298C39.9441 76.6298 39.8892 76.6076 39.8482 76.5678C39.8072 76.528 39.7833 76.4738 39.7815 76.4167V74.2011L39.5682 74.333C39.5187 74.3623 39.4597 74.3709 39.4038 74.3572C39.348 74.3434 39.2997 74.3082 39.2695 74.2593C39.2393 74.2103 39.2295 74.1515 39.2423 74.0954C39.255 74.0392 39.2892 73.9904 39.3376 73.9592L39.8848 73.6184C39.9183 73.5985 39.9564 73.5877 39.9953 73.5872C40.0343 73.5866 40.0727 73.5963 40.1067 73.6152C40.1407 73.6341 40.1692 73.6616 40.1893 73.695C40.2094 73.7284 40.2204 73.7664 40.2212 73.8054L40.221 76.4167ZM41.8015 76.4167C41.8015 76.475 41.7784 76.5309 41.7372 76.5721C41.6959 76.6133 41.64 76.6365 41.5817 76.6365C41.5234 76.6365 41.4675 76.6133 41.4263 76.5721C41.3851 76.5309 41.3619 76.475 41.3619 76.4167V74.2011L41.1488 74.333C41.0993 74.3636 41.0396 74.3732 40.9829 74.3598C40.9262 74.3465 40.8772 74.3111 40.8465 74.2615C40.8159 74.212 40.8063 74.1523 40.8197 74.0956C40.8331 74.0389 40.8684 73.9899 40.918 73.9592L41.4652 73.6184C41.4987 73.5985 41.5368 73.5877 41.5757 73.5872C41.6147 73.5866 41.6531 73.5963 41.6871 73.6152C41.7211 73.6341 41.7496 73.6616 41.7697 73.695C41.7898 73.7284 41.8008 73.7664 41.8015 73.8054V76.4167Z" fill="#FAFAFA"/>
<path d="M40.221 76.4167C40.2192 76.4738 40.1953 76.528 40.1543 76.5678C40.1133 76.6076 40.0584 76.6298 40.0012 76.6298C39.9441 76.6298 39.8892 76.6076 39.8482 76.5678C39.8072 76.528 39.7833 76.4738 39.7815 76.4167V74.2011L39.5682 74.333C39.5187 74.3623 39.4597 74.3709 39.4038 74.3572C39.348 74.3434 39.2997 74.3082 39.2695 74.2593C39.2393 74.2103 39.2295 74.1515 39.2423 74.0954C39.255 74.0392 39.2892 73.9904 39.3376 73.9592L39.8848 73.6184C39.9183 73.5985 39.9564 73.5877 39.9953 73.5872C40.0343 73.5866 40.0727 73.5963 40.1067 73.6152C40.1407 73.6341 40.1692 73.6616 40.1893 73.695C40.2094 73.7284 40.2204 73.7664 40.2212 73.8054L40.221 76.4167Z" fill="#FAFAFA"/>
<path d="M41.8015 76.4167C41.8015 76.475 41.7784 76.5309 41.7372 76.5721C41.6959 76.6133 41.64 76.6365 41.5817 76.6365C41.5234 76.6365 41.4675 76.6133 41.4263 76.5721C41.3851 76.5309 41.3619 76.475 41.3619 76.4167V74.2011L41.1488 74.333C41.0993 74.3636 41.0396 74.3732 40.9829 74.3598C40.9262 74.3465 40.8772 74.3111 40.8465 74.2615C40.8159 74.212 40.8063 74.1523 40.8197 74.0956C40.8331 74.0389 40.8684 73.9899 40.918 73.9592L41.4652 73.6184C41.4987 73.5985 41.5368 73.5877 41.5757 73.5872C41.6147 73.5866 41.6531 73.5963 41.6871 73.6152C41.7211 73.6341 41.7496 73.6616 41.7697 73.695C41.7898 73.7284 41.8008 73.7664 41.8015 73.8054V76.4167Z" fill="#FAFAFA"/>
<path d="M39.6077 73.8965H41.8994" stroke="#191919" stroke-width="0.343756" stroke-linecap="round" stroke-linejoin="round"/>
<path d="M40.7537 75.0437V72.752" stroke="#191919" stroke-width="0.343756" stroke-linecap="round" stroke-linejoin="round"/>
</g>
<g clip-path="url(#clip1_8754_17092)">
<path d="M13.6592 50.8673C14.0281 50.8668 14.3817 50.7201 14.6426 50.4593C14.9034 50.1984 15.0502 49.8448 15.0506 49.4759V48.9944C14.1304 49.1677 13.1854 49.161 12.2678 48.9746V49.4759C12.2683 49.8448 12.415 50.1984 12.6758 50.4593C12.9367 50.7201 13.2903 50.8668 13.6592 50.8673Z" fill="#FAFAFA"/>
<path d="M19.3591 53.6215L18.2182 51.2233C18.003 50.7743 17.6239 50.425 17.1589 50.2472L16.2881 49.9154C15.9436 49.8135 15.6922 49.4088 15.4901 49.1328V49.4102C15.4983 49.666 15.4531 49.9208 15.3574 50.1582C15.2617 50.3956 15.1175 50.6104 14.9341 50.789C14.7507 50.9675 14.5321 51.1059 14.2922 51.1953C14.0524 51.2846 13.7965 51.323 13.541 51.3079C13.2855 51.2928 13.0359 51.2247 12.8082 51.1077C12.5805 50.9908 12.3796 50.8277 12.2185 50.6288C12.0573 50.4299 11.9394 50.1997 11.8723 49.9526C11.8051 49.7056 11.7902 49.4473 11.8284 49.1942C11.6779 49.4837 11.4316 49.7121 11.1316 49.8404L10.316 50.1329C9.84789 50.2985 9.46195 50.6388 9.23896 51.0824L7.95942 53.6215C7.94165 53.66 7.93976 53.7039 7.95417 53.7438C7.96857 53.7837 7.9981 53.8163 8.03637 53.8346L9.74065 54.6096C9.77266 54.6242 9.80771 54.6309 9.84285 54.6291C9.87799 54.6274 9.9122 54.6172 9.9426 54.5995C9.973 54.5818 9.9987 54.557 10.0175 54.5273C10.0364 54.4976 10.0478 54.4638 10.0509 54.4287L10.1135 53.7144C10.1201 53.6571 10.1487 53.6046 10.1934 53.5681C10.2381 53.5316 10.2952 53.514 10.3527 53.519C10.4101 53.524 10.4633 53.5513 10.501 53.595C10.5386 53.6387 10.5577 53.6954 10.5542 53.7529L10.0235 59.7851C10.0233 59.8279 10.0319 59.8703 10.0487 59.9097C10.0656 59.9491 10.0903 59.9847 10.1214 60.0141C10.1525 60.0436 10.1893 60.0663 10.2296 60.081C10.2698 60.0957 10.3126 60.1019 10.3554 60.0994H16.9807C17.0236 60.1019 17.0667 60.0956 17.1071 60.0808C17.1475 60.066 17.1844 60.0431 17.2155 60.0133C17.2467 59.9836 17.2713 59.9479 17.288 59.9082C17.3047 59.8685 17.3131 59.8259 17.3125 59.7828C17.2187 58.7762 16.83 54.671 16.7439 53.7542C16.7398 53.6968 16.7583 53.6401 16.7954 53.5962C16.8326 53.5523 16.8855 53.5247 16.9427 53.5193C17 53.5139 17.0571 53.5311 17.1018 53.5673C17.1465 53.6035 17.1753 53.6558 17.1819 53.7129L17.2487 54.42C17.252 54.4547 17.2635 54.4882 17.2823 54.5176C17.301 54.547 17.3266 54.5715 17.3567 54.5891C17.3868 54.6067 17.4207 54.6168 17.4556 54.6187C17.4904 54.6206 17.5252 54.6142 17.5571 54.6L19.2822 53.8303C19.3198 53.8125 19.349 53.7806 19.3634 53.7415C19.3778 53.7024 19.3763 53.6595 19.3591 53.6215ZM13.2415 57.8483C13.2397 57.9054 13.2158 57.9596 13.1748 57.9994C13.1338 58.0392 13.0789 58.0614 13.0217 58.0614C12.9646 58.0614 12.9097 58.0392 12.8687 57.9994C12.8277 57.9596 12.8038 57.9054 12.802 57.8483V55.6328L12.5887 55.7646C12.5392 55.7939 12.4802 55.8026 12.4243 55.7888C12.3685 55.775 12.3203 55.7399 12.29 55.6909C12.2598 55.642 12.25 55.5831 12.2628 55.527C12.2755 55.4709 12.3097 55.422 12.3581 55.3909L12.9053 55.05C12.9388 55.0301 12.9769 55.0194 13.0158 55.0188C13.0548 55.0183 13.0932 55.0279 13.1272 55.0468C13.1613 55.0658 13.1897 55.0933 13.2098 55.1266C13.2299 55.16 13.2409 55.1981 13.2417 55.237L13.2415 57.8483ZM14.8221 57.8483C14.8221 57.9066 14.7989 57.9625 14.7577 58.0038C14.7164 58.045 14.6605 58.0681 14.6022 58.0681C14.5439 58.0681 14.488 58.045 14.4468 58.0038C14.4056 57.9625 14.3824 57.9066 14.3824 57.8483V55.6328L14.1693 55.7646C14.1198 55.7952 14.0601 55.8049 14.0034 55.7915C13.9467 55.7781 13.8977 55.7427 13.867 55.6932C13.8364 55.6436 13.8268 55.5839 13.8402 55.5272C13.8536 55.4705 13.8889 55.4215 13.9385 55.3909L14.4857 55.05C14.5192 55.0301 14.5573 55.0194 14.5962 55.0188C14.6352 55.0183 14.6736 55.0279 14.7076 55.0468C14.7416 55.0658 14.7701 55.0933 14.7902 55.1266C14.8103 55.16 14.8213 55.1981 14.8221 55.237V57.8483Z" fill="#FAFAFA"/>
<path d="M13.2415 57.8483C13.2397 57.9054 13.2158 57.9596 13.1748 57.9994C13.1338 58.0392 13.0789 58.0614 13.0217 58.0614C12.9646 58.0614 12.9097 58.0392 12.8687 57.9994C12.8277 57.9596 12.8038 57.9054 12.802 57.8483V55.6328L12.5887 55.7646C12.5392 55.7939 12.4802 55.8026 12.4243 55.7888C12.3685 55.775 12.3203 55.7399 12.29 55.6909C12.2598 55.642 12.25 55.5831 12.2628 55.527C12.2755 55.4709 12.3097 55.422 12.3581 55.3909L12.9053 55.05C12.9388 55.0301 12.9769 55.0194 13.0158 55.0188C13.0548 55.0183 13.0932 55.0279 13.1272 55.0468C13.1613 55.0658 13.1897 55.0933 13.2098 55.1266C13.2299 55.16 13.2409 55.1981 13.2417 55.237L13.2415 57.8483Z" fill="#FAFAFA"/>
<path d="M14.8221 57.8483C14.8221 57.9066 14.7989 57.9625 14.7577 58.0038C14.7164 58.045 14.6605 58.0681 14.6022 58.0681C14.5439 58.0681 14.488 58.045 14.4468 58.0038C14.4056 57.9625 14.3824 57.9066 14.3824 57.8483V55.6328L14.1693 55.7646C14.1198 55.7952 14.0601 55.8049 14.0034 55.7915C13.9467 55.7781 13.8977 55.7427 13.867 55.6932C13.8364 55.6436 13.8268 55.5839 13.8402 55.5272C13.8536 55.4705 13.8889 55.4215 13.9385 55.3909L14.4857 55.05C14.5192 55.0301 14.5573 55.0194 14.5962 55.0188C14.6352 55.0183 14.6736 55.0279 14.7076 55.0468C14.7416 55.0658 14.7701 55.0933 14.7902 55.1266C14.8103 55.16 14.8213 55.1981 14.8221 55.237V57.8483Z" fill="#FAFAFA"/>
<path d="M12.6282 55.332H14.9199" stroke="#191919" stroke-width="0.343756" stroke-linecap="round" stroke-linejoin="round"/>
<path d="M13.7742 56.4792V54.1875" stroke="#191919" stroke-width="0.343756" stroke-linecap="round" stroke-linejoin="round"/>
</g>
<path d="M66.7408 50.8673C67.1096 50.8668 67.4633 50.7201 67.7241 50.4593C67.985 50.1984 68.1317 49.8448 68.1321 49.4759V48.9944C67.212 49.1677 66.267 49.161 65.3494 48.9746V49.4759C65.3498 49.8448 65.4965 50.1984 65.7574 50.4593C66.0182 50.7201 66.3719 50.8668 66.7408 50.8673Z" fill="#FAFAFA"/>
<path d="M72.4407 53.6215L71.2997 51.2233C71.0845 50.7743 70.7054 50.425 70.2404 50.2472L69.3697 49.9154C69.0252 49.8135 68.7737 49.4088 68.5716 49.1328V49.4102C68.5799 49.666 68.5347 49.9208 68.439 50.1582C68.3432 50.3956 68.1991 50.6104 68.0157 50.789C67.8323 50.9675 67.6137 51.1059 67.3738 51.1953C67.1339 51.2846 66.8781 51.323 66.6225 51.3079C66.367 51.2928 66.1174 51.2247 65.8897 51.1077C65.662 50.9908 65.4612 50.8277 65.3 50.6288C65.1389 50.4299 65.021 50.1997 64.9538 49.9526C64.8867 49.7056 64.8717 49.4473 64.91 49.1942C64.7594 49.4837 64.5132 49.7121 64.2132 49.8404L63.3976 50.1329C62.9294 50.2985 62.5435 50.6388 62.3205 51.0824L61.041 53.6215C61.0232 53.66 61.0213 53.7039 61.0357 53.7438C61.0501 53.7837 61.0796 53.8163 61.1179 53.8346L62.8222 54.6096C62.8542 54.6242 62.8893 54.6309 62.9244 54.6291C62.9595 54.6274 62.9937 54.6172 63.0241 54.5995C63.0545 54.5818 63.0802 54.557 63.0991 54.5273C63.1179 54.4976 63.1294 54.4638 63.1324 54.4287L63.1951 53.7144C63.2016 53.6571 63.2303 53.6046 63.2749 53.5681C63.3196 53.5316 63.3768 53.514 63.4342 53.519C63.4917 53.524 63.5449 53.5513 63.5825 53.595C63.6202 53.6387 63.6393 53.6954 63.6358 53.7529L63.1051 59.7851C63.1049 59.8279 63.1134 59.8703 63.1303 59.9097C63.1471 59.9491 63.1718 59.9847 63.2029 60.0141C63.234 60.0436 63.2709 60.0663 63.3111 60.081C63.3514 60.0957 63.3942 60.1019 63.437 60.0994H70.0622C70.1052 60.1019 70.1482 60.0956 70.1886 60.0808C70.229 60.066 70.2659 60.0431 70.2971 60.0133C70.3282 59.9836 70.3529 59.9479 70.3696 59.9082C70.3863 59.8685 70.3946 59.8259 70.3941 59.7828C70.3002 58.7762 69.9116 54.671 69.8255 53.7542C69.8213 53.6968 69.8398 53.6401 69.877 53.5962C69.9141 53.5523 69.967 53.5247 70.0243 53.5193C70.0816 53.5139 70.1387 53.5311 70.1834 53.5673C70.2281 53.6035 70.2568 53.6558 70.2635 53.7129L70.3302 54.42C70.3335 54.4547 70.345 54.4882 70.3638 54.5176C70.3826 54.547 70.4081 54.5715 70.4382 54.5891C70.4684 54.6067 70.5023 54.6168 70.5371 54.6187C70.5719 54.6206 70.6067 54.6142 70.6386 54.6L72.3637 53.8303C72.4014 53.8125 72.4306 53.7806 72.445 53.7415C72.4594 53.7024 72.4578 53.6595 72.4407 53.6215ZM66.323 57.8483C66.3213 57.9054 66.2974 57.9596 66.2563 57.9994C66.2153 58.0392 66.1604 58.0614 66.1033 58.0614C66.0461 58.0614 65.9913 58.0392 65.9502 57.9994C65.9092 57.9596 65.8853 57.9054 65.8836 57.8483V55.6328L65.6703 55.7646C65.6208 55.7939 65.5617 55.8026 65.5059 55.7888C65.45 55.775 65.4018 55.7399 65.3716 55.6909C65.3414 55.642 65.3316 55.5831 65.3443 55.527C65.357 55.4709 65.3913 55.422 65.4396 55.3909L65.9868 55.05C66.0203 55.0301 66.0584 55.0194 66.0974 55.0188C66.1363 55.0183 66.1747 55.0279 66.2088 55.0468C66.2428 55.0658 66.2713 55.0933 66.2914 55.1266C66.3114 55.16 66.3224 55.1981 66.3232 55.237L66.323 57.8483ZM67.9036 57.8483C67.9036 57.9066 67.8804 57.9625 67.8392 58.0038C67.798 58.045 67.7421 58.0681 67.6838 58.0681C67.6255 58.0681 67.5696 58.045 67.5283 58.0038C67.4871 57.9625 67.464 57.9066 67.464 57.8483V55.6328L67.2509 55.7646C67.2013 55.7952 67.1416 55.8049 67.0849 55.7915C67.0282 55.7781 66.9792 55.7427 66.9486 55.6932C66.918 55.6436 66.9083 55.5839 66.9217 55.5272C66.9351 55.4705 66.9705 55.4215 67.02 55.3909L67.5672 55.05C67.6007 55.0301 67.6388 55.0194 67.6778 55.0188C67.7167 55.0183 67.7551 55.0279 67.7891 55.0468C67.8232 55.0658 67.8517 55.0933 67.8718 55.1266C67.8918 55.16 67.9028 55.1981 67.9036 55.237V57.8483Z" fill="#FAFAFA"/>
<path d="M66.323 57.8483C66.3213 57.9054 66.2974 57.9596 66.2563 57.9994C66.2153 58.0392 66.1604 58.0614 66.1033 58.0614C66.0461 58.0614 65.9913 58.0392 65.9502 57.9994C65.9092 57.9596 65.8853 57.9054 65.8836 57.8483V55.6328L65.6703 55.7646C65.6208 55.7939 65.5617 55.8026 65.5059 55.7888C65.45 55.775 65.4018 55.7399 65.3716 55.6909C65.3414 55.642 65.3316 55.5831 65.3443 55.527C65.357 55.4709 65.3913 55.422 65.4396 55.3909L65.9868 55.05C66.0203 55.0301 66.0584 55.0194 66.0974 55.0188C66.1363 55.0183 66.1747 55.0279 66.2088 55.0468C66.2428 55.0658 66.2713 55.0933 66.2914 55.1266C66.3114 55.16 66.3224 55.1981 66.3232 55.237L66.323 57.8483Z" fill="#FAFAFA"/>
<path d="M67.9036 57.8483C67.9036 57.9066 67.8804 57.9625 67.8392 58.0038C67.798 58.045 67.7421 58.0681 67.6838 58.0681C67.6255 58.0681 67.5696 58.045 67.5283 58.0038C67.4871 57.9625 67.464 57.9066 67.464 57.8483V55.6328L67.2509 55.7646C67.2013 55.7952 67.1416 55.8049 67.0849 55.7915C67.0282 55.7781 66.9792 55.7427 66.9486 55.6932C66.918 55.6436 66.9083 55.5839 66.9217 55.5272C66.9351 55.4705 66.9705 55.4215 67.02 55.3909L67.5672 55.05C67.6007 55.0301 67.6388 55.0194 67.6778 55.0188C67.7167 55.0183 67.7551 55.0279 67.7891 55.0468C67.8232 55.0658 67.8517 55.0933 67.8718 55.1266C67.8918 55.16 67.9028 55.1981 67.9036 55.237V57.8483Z" fill="#FAFAFA"/>
<path d="M65.7097 55.332H68.0014" stroke="#191919" stroke-width="0.343756" stroke-linecap="round" stroke-linejoin="round"/>
<path d="M66.8557 56.4792V54.1875" stroke="#191919" stroke-width="0.343756" stroke-linecap="round" stroke-linejoin="round"/>
<path d="M50.7408 50.8673C51.1096 50.8668 51.4633 50.7201 51.7241 50.4593C51.985 50.1984 52.1317 49.8448 52.1321 49.4759V48.9944C51.212 49.1677 50.267 49.161 49.3494 48.9746V49.4759C49.3498 49.8448 49.4965 50.1984 49.7574 50.4593C50.0182 50.7201 50.3719 50.8668 50.7408 50.8673Z" fill="#FAFAFA"/>
<path d="M56.4407 53.6215L55.2997 51.2233C55.0845 50.7743 54.7054 50.425 54.2404 50.2472L53.3697 49.9154C53.0252 49.8135 52.7737 49.4088 52.5716 49.1328V49.4102C52.5799 49.666 52.5347 49.9208 52.439 50.1582C52.3432 50.3956 52.1991 50.6104 52.0157 50.789C51.8323 50.9675 51.6137 51.1059 51.3738 51.1953C51.1339 51.2846 50.8781 51.323 50.6225 51.3079C50.367 51.2928 50.1174 51.2247 49.8897 51.1077C49.662 50.9908 49.4612 50.8277 49.3 50.6288C49.1389 50.4299 49.021 50.1997 48.9538 49.9526C48.8867 49.7056 48.8717 49.4473 48.91 49.1942C48.7594 49.4837 48.5132 49.7121 48.2132 49.8404L47.3976 50.1329C46.9294 50.2985 46.5435 50.6388 46.3205 51.0824L45.041 53.6215C45.0232 53.66 45.0213 53.7039 45.0357 53.7438C45.0501 53.7837 45.0796 53.8163 45.1179 53.8346L46.8222 54.6096C46.8542 54.6242 46.8893 54.6309 46.9244 54.6291C46.9595 54.6274 46.9937 54.6172 47.0241 54.5995C47.0545 54.5818 47.0802 54.557 47.0991 54.5273C47.1179 54.4976 47.1294 54.4638 47.1324 54.4287L47.1951 53.7144C47.2016 53.6571 47.2303 53.6046 47.2749 53.5681C47.3196 53.5316 47.3768 53.514 47.4342 53.519C47.4917 53.524 47.5449 53.5513 47.5825 53.595C47.6202 53.6387 47.6393 53.6954 47.6358 53.7529L47.1051 59.7851C47.1049 59.8279 47.1134 59.8703 47.1303 59.9097C47.1471 59.9491 47.1718 59.9847 47.2029 60.0141C47.234 60.0436 47.2709 60.0663 47.3111 60.081C47.3514 60.0957 47.3942 60.1019 47.437 60.0994H54.0622C54.1052 60.1019 54.1482 60.0956 54.1886 60.0808C54.229 60.066 54.2659 60.0431 54.2971 60.0133C54.3282 59.9836 54.3529 59.9479 54.3696 59.9082C54.3863 59.8685 54.3946 59.8259 54.3941 59.7828C54.3002 58.7762 53.9116 54.671 53.8255 53.7542C53.8213 53.6968 53.8398 53.6401 53.877 53.5962C53.9141 53.5523 53.967 53.5247 54.0243 53.5193C54.0816 53.5139 54.1387 53.5311 54.1834 53.5673C54.2281 53.6035 54.2568 53.6558 54.2635 53.7129L54.3302 54.42C54.3335 54.4547 54.345 54.4882 54.3638 54.5176C54.3826 54.547 54.4081 54.5715 54.4382 54.5891C54.4684 54.6067 54.5023 54.6168 54.5371 54.6187C54.5719 54.6206 54.6067 54.6142 54.6386 54.6L56.3637 53.8303C56.4014 53.8125 56.4306 53.7806 56.445 53.7415C56.4594 53.7024 56.4578 53.6595 56.4407 53.6215ZM50.323 57.8483C50.3213 57.9054 50.2974 57.9596 50.2563 57.9994C50.2153 58.0392 50.1604 58.0614 50.1033 58.0614C50.0461 58.0614 49.9913 58.0392 49.9502 57.9994C49.9092 57.9596 49.8853 57.9054 49.8836 57.8483V55.6328L49.6703 55.7646C49.6208 55.7939 49.5617 55.8026 49.5059 55.7888C49.45 55.775 49.4018 55.7399 49.3716 55.6909C49.3414 55.642 49.3316 55.5831 49.3443 55.527C49.357 55.4709 49.3913 55.422 49.4396 55.3909L49.9868 55.05C50.0203 55.0301 50.0584 55.0194 50.0974 55.0188C50.1363 55.0183 50.1747 55.0279 50.2088 55.0468C50.2428 55.0658 50.2713 55.0933 50.2914 55.1266C50.3114 55.16 50.3224 55.1981 50.3232 55.237L50.323 57.8483ZM51.9036 57.8483C51.9036 57.9066 51.8804 57.9625 51.8392 58.0038C51.798 58.045 51.7421 58.0681 51.6838 58.0681C51.6255 58.0681 51.5696 58.045 51.5283 58.0038C51.4871 57.9625 51.464 57.9066 51.464 57.8483V55.6328L51.2509 55.7646C51.2013 55.7952 51.1416 55.8049 51.0849 55.7915C51.0282 55.7781 50.9792 55.7427 50.9486 55.6932C50.918 55.6436 50.9083 55.5839 50.9217 55.5272C50.9351 55.4705 50.9705 55.4215 51.02 55.3909L51.5672 55.05C51.6007 55.0301 51.6388 55.0194 51.6778 55.0188C51.7167 55.0183 51.7551 55.0279 51.7891 55.0468C51.8232 55.0658 51.8517 55.0933 51.8718 55.1266C51.8918 55.16 51.9028 55.1981 51.9036 55.237V57.8483Z" fill="#FAFAFA"/>
<path d="M50.323 57.8483C50.3213 57.9054 50.2974 57.9596 50.2563 57.9994C50.2153 58.0392 50.1604 58.0614 50.1033 58.0614C50.0461 58.0614 49.9913 58.0392 49.9502 57.9994C49.9092 57.9596 49.8853 57.9054 49.8836 57.8483V55.6328L49.6703 55.7646C49.6208 55.7939 49.5617 55.8026 49.5059 55.7888C49.45 55.775 49.4018 55.7399 49.3716 55.6909C49.3414 55.642 49.3316 55.5831 49.3443 55.527C49.357 55.4709 49.3913 55.422 49.4396 55.3909L49.9868 55.05C50.0203 55.0301 50.0584 55.0194 50.0974 55.0188C50.1363 55.0183 50.1747 55.0279 50.2088 55.0468C50.2428 55.0658 50.2713 55.0933 50.2914 55.1266C50.3114 55.16 50.3224 55.1981 50.3232 55.237L50.323 57.8483Z" fill="#FAFAFA"/>
<path d="M51.9036 57.8483C51.9036 57.9066 51.8804 57.9625 51.8392 58.0038C51.798 58.045 51.7421 58.0681 51.6838 58.0681C51.6255 58.0681 51.5696 58.045 51.5283 58.0038C51.4871 57.9625 51.464 57.9066 51.464 57.8483V55.6328L51.2509 55.7646C51.2013 55.7952 51.1416 55.8049 51.0849 55.7915C51.0282 55.7781 50.9792 55.7427 50.9486 55.6932C50.918 55.6436 50.9083 55.5839 50.9217 55.5272C50.9351 55.4705 50.9705 55.4215 51.02 55.3909L51.5672 55.05C51.6007 55.0301 51.6388 55.0194 51.6778 55.0188C51.7167 55.0183 51.7551 55.0279 51.7891 55.0468C51.8232 55.0658 51.8517 55.0933 51.8718 55.1266C51.8918 55.16 51.9028 55.1981 51.9036 55.237V57.8483Z" fill="#FAFAFA"/>
<path d="M49.7097 55.332H52.0014" stroke="#191919" stroke-width="0.343756" stroke-linecap="round" stroke-linejoin="round"/>
<path d="M50.8557 56.4792V54.1875" stroke="#191919" stroke-width="0.343756" stroke-linecap="round" stroke-linejoin="round"/>
<path d="M30.7408 50.8673C31.1096 50.8668 31.4633 50.7201 31.7241 50.4593C31.985 50.1984 32.1317 49.8448 32.1321 49.4759V48.9944C31.212 49.1677 30.267 49.161 29.3494 48.9746V49.4759C29.3498 49.8448 29.4965 50.1984 29.7574 50.4593C30.0182 50.7201 30.3719 50.8668 30.7408 50.8673Z" fill="#FAFAFA"/>
<path d="M36.4407 53.6215L35.2997 51.2233C35.0845 50.7743 34.7054 50.425 34.2404 50.2472L33.3697 49.9154C33.0252 49.8135 32.7737 49.4088 32.5716 49.1328V49.4102C32.5799 49.666 32.5347 49.9208 32.439 50.1582C32.3432 50.3956 32.1991 50.6104 32.0157 50.789C31.8323 50.9675 31.6137 51.1059 31.3738 51.1953C31.1339 51.2846 30.8781 51.323 30.6225 51.3079C30.367 51.2928 30.1174 51.2247 29.8897 51.1077C29.662 50.9908 29.4612 50.8277 29.3 50.6288C29.1389 50.4299 29.021 50.1997 28.9538 49.9526C28.8867 49.7056 28.8717 49.4473 28.91 49.1942C28.7594 49.4837 28.5132 49.7121 28.2132 49.8404L27.3976 50.1329C26.9294 50.2985 26.5435 50.6388 26.3205 51.0824L25.041 53.6215C25.0232 53.66 25.0213 53.7039 25.0357 53.7438C25.0501 53.7837 25.0796 53.8163 25.1179 53.8346L26.8222 54.6096C26.8542 54.6242 26.8893 54.6309 26.9244 54.6291C26.9595 54.6274 26.9937 54.6172 27.0241 54.5995C27.0545 54.5818 27.0802 54.557 27.0991 54.5273C27.1179 54.4976 27.1294 54.4638 27.1324 54.4287L27.1951 53.7144C27.2016 53.6571 27.2303 53.6046 27.2749 53.5681C27.3196 53.5316 27.3768 53.514 27.4342 53.519C27.4917 53.524 27.5449 53.5513 27.5825 53.595C27.6202 53.6387 27.6393 53.6954 27.6358 53.7529L27.1051 59.7851C27.1049 59.8279 27.1134 59.8703 27.1303 59.9097C27.1471 59.9491 27.1718 59.9847 27.2029 60.0141C27.234 60.0436 27.2709 60.0663 27.3111 60.081C27.3514 60.0957 27.3942 60.1019 27.437 60.0994H34.0622C34.1052 60.1019 34.1482 60.0956 34.1886 60.0808C34.229 60.066 34.2659 60.0431 34.2971 60.0133C34.3282 59.9836 34.3529 59.9479 34.3696 59.9082C34.3863 59.8685 34.3946 59.8259 34.3941 59.7828C34.3002 58.7762 33.9116 54.671 33.8255 53.7542C33.8213 53.6968 33.8398 53.6401 33.877 53.5962C33.9141 53.5523 33.967 53.5247 34.0243 53.5193C34.0816 53.5139 34.1387 53.5311 34.1834 53.5673C34.2281 53.6035 34.2568 53.6558 34.2635 53.7129L34.3302 54.42C34.3335 54.4547 34.345 54.4882 34.3638 54.5176C34.3826 54.547 34.4081 54.5715 34.4382 54.5891C34.4684 54.6067 34.5023 54.6168 34.5371 54.6187C34.5719 54.6206 34.6067 54.6142 34.6386 54.6L36.3637 53.8303C36.4014 53.8125 36.4306 53.7806 36.445 53.7415C36.4594 53.7024 36.4578 53.6595 36.4407 53.6215ZM30.323 57.8483C30.3213 57.9054 30.2974 57.9596 30.2563 57.9994C30.2153 58.0392 30.1604 58.0614 30.1033 58.0614C30.0461 58.0614 29.9913 58.0392 29.9502 57.9994C29.9092 57.9596 29.8853 57.9054 29.8836 57.8483V55.6328L29.6703 55.7646C29.6208 55.7939 29.5617 55.8026 29.5059 55.7888C29.45 55.775 29.4018 55.7399 29.3716 55.6909C29.3414 55.642 29.3316 55.5831 29.3443 55.527C29.357 55.4709 29.3913 55.422 29.4396 55.3909L29.9868 55.05C30.0203 55.0301 30.0584 55.0194 30.0974 55.0188C30.1363 55.0183 30.1747 55.0279 30.2088 55.0468C30.2428 55.0658 30.2713 55.0933 30.2914 55.1266C30.3114 55.16 30.3224 55.1981 30.3232 55.237L30.323 57.8483ZM31.9036 57.8483C31.9036 57.9066 31.8804 57.9625 31.8392 58.0038C31.798 58.045 31.7421 58.0681 31.6838 58.0681C31.6255 58.0681 31.5696 58.045 31.5283 58.0038C31.4871 57.9625 31.464 57.9066 31.464 57.8483V55.6328L31.2509 55.7646C31.2013 55.7952 31.1416 55.8049 31.0849 55.7915C31.0282 55.7781 30.9792 55.7427 30.9486 55.6932C30.918 55.6436 30.9083 55.5839 30.9217 55.5272C30.9351 55.4705 30.9705 55.4215 31.02 55.3909L31.5672 55.05C31.6007 55.0301 31.6388 55.0194 31.6778 55.0188C31.7167 55.0183 31.7551 55.0279 31.7891 55.0468C31.8232 55.0658 31.8517 55.0933 31.8718 55.1266C31.8918 55.16 31.9028 55.1981 31.9036 55.237V57.8483Z" fill="#FAFAFA"/>
<path d="M30.323 57.8483C30.3213 57.9054 30.2974 57.9596 30.2563 57.9994C30.2153 58.0392 30.1604 58.0614 30.1033 58.0614C30.0461 58.0614 29.9913 58.0392 29.9502 57.9994C29.9092 57.9596 29.8853 57.9054 29.8836 57.8483V55.6328L29.6703 55.7646C29.6208 55.7939 29.5617 55.8026 29.5059 55.7888C29.45 55.775 29.4018 55.7399 29.3716 55.6909C29.3414 55.642 29.3316 55.5831 29.3443 55.527C29.357 55.4709 29.3913 55.422 29.4396 55.3909L29.9868 55.05C30.0203 55.0301 30.0584 55.0194 30.0974 55.0188C30.1363 55.0183 30.1747 55.0279 30.2088 55.0468C30.2428 55.0658 30.2713 55.0933 30.2914 55.1266C30.3114 55.16 30.3224 55.1981 30.3232 55.237L30.323 57.8483Z" fill="#FAFAFA"/>
<path d="M31.9036 57.8483C31.9036 57.9066 31.8804 57.9625 31.8392 58.0038C31.798 58.045 31.7421 58.0681 31.6838 58.0681C31.6255 58.0681 31.5696 58.045 31.5283 58.0038C31.4871 57.9625 31.464 57.9066 31.464 57.8483V55.6328L31.2509 55.7646C31.2013 55.7952 31.1416 55.8049 31.0849 55.7915C31.0282 55.7781 30.9792 55.7427 30.9486 55.6932C30.918 55.6436 30.9083 55.5839 30.9217 55.5272C30.9351 55.4705 30.9705 55.4215 31.02 55.3909L31.5672 55.05C31.6007 55.0301 31.6388 55.0194 31.6778 55.0188C31.7167 55.0183 31.7551 55.0279 31.7891 55.0468C31.8232 55.0658 31.8517 55.0933 31.8718 55.1266C31.8918 55.16 31.9028 55.1981 31.9036 55.237V57.8483Z" fill="#FAFAFA"/>
<path d="M29.7097 55.332H32.0014" stroke="#191919" stroke-width="0.343756" stroke-linecap="round" stroke-linejoin="round"/>
<path d="M30.8557 56.4792V54.1875" stroke="#191919" stroke-width="0.343756" stroke-linecap="round" stroke-linejoin="round"/>
<path d="M8.74075 28.8673C9.10964 28.8668 9.46329 28.7201 9.72413 28.4593C9.98497 28.1984 10.1317 27.8448 10.1321 27.4759V26.9944C9.21199 27.1677 8.26696 27.161 7.34937 26.9746V27.4759C7.3498 27.8448 7.49653 28.1984 7.75737 28.4593C8.01821 28.7201 8.37187 28.8668 8.74075 28.8673Z" fill="#FAFAFA"/>
<path d="M14.4407 31.6215L13.2997 29.2233C13.0845 28.7743 12.7054 28.425 12.2404 28.2472L11.3697 27.9154C11.0252 27.8135 10.7737 27.4088 10.5716 27.1328V27.4102C10.5799 27.666 10.5347 27.9208 10.439 28.1582C10.3432 28.3956 10.1991 28.6104 10.0157 28.789C9.83227 28.9675 9.61366 29.1059 9.37379 29.1953C9.13392 29.2846 8.87805 29.323 8.62253 29.3079C8.367 29.2928 8.11742 29.2247 7.88971 29.1077C7.662 28.9908 7.46117 28.8277 7.30003 28.6288C7.13889 28.4299 7.02098 28.1997 6.95382 27.9526C6.88666 27.7056 6.87173 27.4473 6.90999 27.1942C6.75942 27.4837 6.51317 27.7121 6.21317 27.8404L5.39756 28.1329C4.92943 28.2985 4.54349 28.6388 4.3205 29.0824L3.04096 31.6215C3.02319 31.66 3.02131 31.7039 3.03571 31.7438C3.05011 31.7837 3.07964 31.8163 3.11791 31.8346L4.82219 32.6096C4.8542 32.6242 4.88925 32.6309 4.92439 32.6291C4.95954 32.6274 4.99375 32.6172 5.02414 32.5995C5.05454 32.5818 5.08025 32.557 5.09909 32.5273C5.11793 32.4976 5.12937 32.4638 5.13243 32.4287L5.19509 31.7144C5.20162 31.6571 5.23028 31.6046 5.27494 31.5681C5.31961 31.5316 5.37676 31.514 5.43421 31.519C5.49167 31.524 5.54489 31.5513 5.58254 31.595C5.62018 31.6387 5.63928 31.6954 5.63576 31.7529L5.10508 37.7851C5.10487 37.8279 5.11344 37.8703 5.13027 37.9097C5.1471 37.9491 5.17183 37.9847 5.20294 38.0141C5.23404 38.0436 5.27086 38.0663 5.31111 38.081C5.35136 38.0957 5.39419 38.1019 5.43696 38.0994H12.0622C12.1052 38.1019 12.1482 38.0956 12.1886 38.0808C12.229 38.066 12.2659 38.0431 12.2971 38.0133C12.3282 37.9836 12.3529 37.9479 12.3696 37.9082C12.3863 37.8685 12.3946 37.8259 12.3941 37.7828C12.3002 36.7762 11.9116 32.671 11.8255 31.7542C11.8213 31.6968 11.8398 31.6401 11.877 31.5962C11.9141 31.5523 11.967 31.5247 12.0243 31.5193C12.0816 31.5139 12.1387 31.5311 12.1834 31.5673C12.2281 31.6035 12.2568 31.6558 12.2635 31.7129L12.3302 32.42C12.3335 32.4547 12.345 32.4882 12.3638 32.5176C12.3826 32.547 12.4081 32.5715 12.4382 32.5891C12.4684 32.6067 12.5023 32.6168 12.5371 32.6187C12.5719 32.6206 12.6067 32.6142 12.6386 32.6L14.3637 31.8303C14.4014 31.8125 14.4306 31.7806 14.445 31.7415C14.4594 31.7024 14.4578 31.6595 14.4407 31.6215ZM8.32301 35.8483C8.32127 35.9054 8.29735 35.9596 8.25634 35.9994C8.21532 36.0392 8.16043 36.0614 8.10329 36.0614C8.04615 36.0614 7.99125 36.0392 7.95024 35.9994C7.90922 35.9596 7.88531 35.9054 7.88357 35.8483V33.6328L7.67028 33.7646C7.62076 33.7939 7.56173 33.8026 7.50587 33.7888C7.45002 33.775 7.4018 33.7399 7.37159 33.6909C7.34137 33.642 7.33158 33.5831 7.3443 33.527C7.35703 33.4709 7.39126 33.422 7.43964 33.3909L7.98685 33.05C8.02033 33.0301 8.05844 33.0194 8.09738 33.0188C8.13632 33.0183 8.17472 33.0279 8.20876 33.0468C8.2428 33.0658 8.27128 33.0933 8.29136 33.1266C8.31145 33.16 8.32243 33.1981 8.32321 33.237L8.32301 35.8483ZM9.9036 35.8483C9.9036 35.9066 9.88044 35.9625 9.83921 36.0038C9.79799 36.045 9.74208 36.0681 9.68378 36.0681C9.62548 36.0681 9.56956 36.045 9.52834 36.0038C9.48712 35.9625 9.46396 35.9066 9.46396 35.8483V33.6328L9.25087 33.7646C9.20131 33.7952 9.14162 33.8049 9.08493 33.7915C9.02825 33.7781 8.9792 33.7427 8.94859 33.6932C8.91798 33.6436 8.90831 33.5839 8.9217 33.5272C8.9351 33.4705 8.97047 33.4215 9.02003 33.3909L9.56723 33.05C9.60071 33.0301 9.63883 33.0194 9.67776 33.0188C9.7167 33.0183 9.75511 33.0279 9.78915 33.0468C9.82319 33.0658 9.85167 33.0933 9.87175 33.1266C9.89183 33.16 9.90281 33.1981 9.9036 33.237V35.8483Z" fill="#FAFAFA"/>
<path d="M8.32301 35.8483C8.32127 35.9054 8.29735 35.9596 8.25634 35.9994C8.21532 36.0392 8.16043 36.0614 8.10329 36.0614C8.04615 36.0614 7.99125 36.0392 7.95024 35.9994C7.90922 35.9596 7.88531 35.9054 7.88357 35.8483V33.6328L7.67028 33.7646C7.62076 33.7939 7.56173 33.8026 7.50587 33.7888C7.45002 33.775 7.4018 33.7399 7.37159 33.6909C7.34137 33.642 7.33158 33.5831 7.3443 33.527C7.35703 33.4709 7.39126 33.422 7.43964 33.3909L7.98685 33.05C8.02033 33.0301 8.05844 33.0194 8.09738 33.0188C8.13632 33.0183 8.17472 33.0279 8.20876 33.0468C8.2428 33.0658 8.27128 33.0933 8.29136 33.1266C8.31145 33.16 8.32243 33.1981 8.32321 33.237L8.32301 35.8483Z" fill="#FAFAFA"/>
<path d="M9.9036 35.8483C9.9036 35.9066 9.88044 35.9625 9.83921 36.0038C9.79799 36.045 9.74208 36.0681 9.68378 36.0681C9.62548 36.0681 9.56956 36.045 9.52834 36.0038C9.48712 35.9625 9.46396 35.9066 9.46396 35.8483V33.6328L9.25087 33.7646C9.20131 33.7952 9.14162 33.8049 9.08493 33.7915C9.02825 33.7781 8.9792 33.7427 8.94859 33.6932C8.91798 33.6436 8.90831 33.5839 8.9217 33.5272C8.9351 33.4705 8.97047 33.4215 9.02003 33.3909L9.56723 33.05C9.60071 33.0301 9.63883 33.0194 9.67776 33.0188C9.7167 33.0183 9.75511 33.0279 9.78915 33.0468C9.82319 33.0658 9.85167 33.0933 9.87175 33.1266C9.89183 33.16 9.90281 33.1981 9.9036 33.237V35.8483Z" fill="#FAFAFA"/>
<path d="M7.70972 33.332H10.0014" stroke="#191919" stroke-width="0.343756" stroke-linecap="round" stroke-linejoin="round"/>
<path d="M8.85571 34.4792V32.1875" stroke="#191919" stroke-width="0.343756" stroke-linecap="round" stroke-linejoin="round"/>
<path d="M28.8035 28.8673C29.1724 28.8668 29.526 28.7201 29.7869 28.4593C30.0477 28.1984 30.1945 27.8448 30.1949 27.4759V26.9944C29.2747 27.1677 28.3297 27.161 27.4121 26.9746V27.4759C27.4125 27.8448 27.5593 28.1984 27.8201 28.4593C28.081 28.7201 28.4346 28.8668 28.8035 28.8673Z" fill="#FAFAFA"/>
<path d="M34.5034 31.6215L33.3625 29.2233C33.1473 28.7743 32.7681 28.425 32.3031 28.2472L31.4324 27.9154C31.0879 27.8135 30.8364 27.4088 30.6344 27.1328V27.4102C30.6426 27.666 30.5974 27.9208 30.5017 28.1582C30.406 28.3956 30.2618 28.6104 30.0784 28.789C29.895 28.9675 29.6764 29.1059 29.4365 29.1953C29.1967 29.2846 28.9408 29.323 28.6853 29.3079C28.4297 29.2928 28.1802 29.2247 27.9525 29.1077C27.7247 28.9908 27.5239 28.8277 27.3628 28.6288C27.2016 28.4299 27.0837 28.1997 27.0166 27.9526C26.9494 27.7056 26.9345 27.4473 26.9727 27.1942C26.8222 27.4837 26.5759 27.7121 26.2759 27.8404L25.4603 28.1329C24.9922 28.2985 24.6062 28.6388 24.3832 29.0824L23.1037 31.6215C23.0859 31.66 23.0841 31.7039 23.0985 31.7438C23.1129 31.7837 23.1424 31.8163 23.1807 31.8346L24.8849 32.6096C24.9169 32.6242 24.952 32.6309 24.9871 32.6291C25.0223 32.6274 25.0565 32.6172 25.0869 32.5995C25.1173 32.5818 25.143 32.557 25.1618 32.5273C25.1807 32.4976 25.1921 32.4638 25.1952 32.4287L25.2578 31.7144C25.2644 31.6571 25.293 31.6046 25.3377 31.5681C25.3824 31.5316 25.4395 31.514 25.497 31.519C25.5544 31.524 25.6076 31.5513 25.6453 31.595C25.6829 31.6387 25.702 31.6954 25.6985 31.7529L25.1678 37.7851C25.1676 37.8279 25.1762 37.8703 25.193 37.9097C25.2098 37.9491 25.2346 37.9847 25.2657 38.0141C25.2968 38.0436 25.3336 38.0663 25.3739 38.081C25.4141 38.0957 25.4569 38.1019 25.4997 38.0994H32.125C32.1679 38.1019 32.2109 38.0956 32.2513 38.0808C32.2917 38.066 32.3287 38.0431 32.3598 38.0133C32.3909 37.9836 32.4156 37.9479 32.4323 37.9082C32.449 37.8685 32.4574 37.8259 32.4568 37.7828C32.3629 36.7762 31.9743 32.671 31.8882 31.7542C31.8841 31.6968 31.9026 31.6401 31.9397 31.5962C31.9769 31.5523 32.0298 31.5247 32.087 31.5193C32.1443 31.5139 32.2014 31.5311 32.2461 31.5673C32.2908 31.6035 32.3196 31.6558 32.3262 31.7129L32.393 32.42C32.3962 32.4547 32.4078 32.4882 32.4265 32.5176C32.4453 32.547 32.4708 32.5715 32.501 32.5891C32.5311 32.6067 32.565 32.6168 32.5998 32.6187C32.6347 32.6206 32.6695 32.6142 32.7014 32.6L34.4265 31.8303C34.4641 31.8125 34.4933 31.7806 34.5077 31.7415C34.5221 31.7024 34.5206 31.6595 34.5034 31.6215ZM28.3858 35.8483C28.384 35.9054 28.3601 35.9596 28.3191 35.9994C28.2781 36.0392 28.2232 36.0614 28.166 36.0614C28.1089 36.0614 28.054 36.0392 28.013 35.9994C27.972 35.9596 27.9481 35.9054 27.9463 35.8483V33.6328L27.733 33.7646C27.6835 33.7939 27.6245 33.8026 27.5686 33.7888C27.5128 33.775 27.4645 33.7399 27.4343 33.6909C27.4041 33.642 27.3943 33.5831 27.407 33.527C27.4198 33.4709 27.454 33.422 27.5024 33.3909L28.0496 33.05C28.0831 33.0301 28.1212 33.0194 28.1601 33.0188C28.1991 33.0183 28.2375 33.0279 28.2715 33.0468C28.3055 33.0658 28.334 33.0933 28.3541 33.1266C28.3742 33.16 28.3852 33.1981 28.386 33.237L28.3858 35.8483ZM29.9663 35.8483C29.9663 35.9066 29.9432 35.9625 29.902 36.0038C29.8607 36.045 29.8048 36.0681 29.7465 36.0681C29.6882 36.0681 29.6323 36.045 29.5911 36.0038C29.5499 35.9625 29.5267 35.9066 29.5267 35.8483V33.6328L29.3136 33.7646C29.2641 33.7952 29.2044 33.8049 29.1477 33.7915C29.091 33.7781 29.0419 33.7427 29.0113 33.6932C28.9807 33.6436 28.9711 33.5839 28.9844 33.5272C28.9978 33.4705 29.0332 33.4215 29.0828 33.3909L29.63 33.05C29.6635 33.0301 29.7016 33.0194 29.7405 33.0188C29.7794 33.0183 29.8179 33.0279 29.8519 33.0468C29.8859 33.0658 29.9144 33.0933 29.9345 33.1266C29.9546 33.16 29.9656 33.1981 29.9663 33.237V35.8483Z" fill="#FAFAFA"/>
<path d="M28.3858 35.8483C28.384 35.9054 28.3601 35.9596 28.3191 35.9994C28.2781 36.0392 28.2232 36.0614 28.166 36.0614C28.1089 36.0614 28.054 36.0392 28.013 35.9994C27.972 35.9596 27.9481 35.9054 27.9463 35.8483V33.6328L27.733 33.7646C27.6835 33.7939 27.6245 33.8026 27.5686 33.7888C27.5128 33.775 27.4645 33.7399 27.4343 33.6909C27.4041 33.642 27.3943 33.5831 27.407 33.527C27.4198 33.4709 27.454 33.422 27.5024 33.3909L28.0496 33.05C28.0831 33.0301 28.1212 33.0194 28.1601 33.0188C28.1991 33.0183 28.2375 33.0279 28.2715 33.0468C28.3055 33.0658 28.334 33.0933 28.3541 33.1266C28.3742 33.16 28.3852 33.1981 28.386 33.237L28.3858 35.8483Z" fill="#FAFAFA"/>
<path d="M29.9663 35.8483C29.9663 35.9066 29.9432 35.9625 29.902 36.0038C29.8607 36.045 29.8048 36.0681 29.7465 36.0681C29.6882 36.0681 29.6323 36.045 29.5911 36.0038C29.5499 35.9625 29.5267 35.9066 29.5267 35.8483V33.6328L29.3136 33.7646C29.2641 33.7952 29.2044 33.8049 29.1477 33.7915C29.091 33.7781 29.0419 33.7427 29.0113 33.6932C28.9807 33.6436 28.9711 33.5839 28.9844 33.5272C28.9978 33.4705 29.0332 33.4215 29.0828 33.3909L29.63 33.05C29.6635 33.0301 29.7016 33.0194 29.7405 33.0188C29.7794 33.0183 29.8179 33.0279 29.8519 33.0468C29.8859 33.0658 29.9144 33.0933 29.9345 33.1266C29.9546 33.16 29.9656 33.1981 29.9663 33.237V35.8483Z" fill="#FAFAFA"/>
<path d="M27.7725 33.332H30.0642" stroke="#191919" stroke-width="0.343756" stroke-linecap="round" stroke-linejoin="round"/>
<path d="M28.9185 34.4792V32.1875" stroke="#191919" stroke-width="0.343756" stroke-linecap="round" stroke-linejoin="round"/>
<path d="M51.929 28.8673C52.2979 28.8668 52.6515 28.7201 52.9124 28.4593C53.1732 28.1984 53.3199 27.8448 53.3204 27.4759V26.9944C52.4002 27.1677 51.4552 27.161 50.5376 26.9746V27.4759C50.538 27.8448 50.6848 28.1984 50.9456 28.4593C51.2064 28.7201 51.5601 28.8668 51.929 28.8673Z" fill="#FAFAFA"/>
<path d="M57.6289 31.6215L56.4879 29.2233C56.2728 28.7743 55.8936 28.425 55.4286 28.2472L54.5579 27.9154C54.2134 27.8135 53.9619 27.4088 53.7599 27.1328V27.4102C53.7681 27.666 53.7229 27.9208 53.6272 28.1582C53.5315 28.3956 53.3873 28.6104 53.2039 28.789C53.0205 28.9675 52.8019 29.1059 52.562 29.1953C52.3222 29.2846 52.0663 29.323 51.8108 29.3079C51.5552 29.2928 51.3056 29.2247 51.0779 29.1077C50.8502 28.9908 50.6494 28.8277 50.4883 28.6288C50.3271 28.4299 50.2092 28.1997 50.1421 27.9526C50.0749 27.7056 50.06 27.4473 50.0982 27.1942C49.9477 27.4837 49.7014 27.7121 49.4014 27.8404L48.5858 28.1329C48.1177 28.2985 47.7317 28.6388 47.5087 29.0824L46.2292 31.6215C46.2114 31.66 46.2095 31.7039 46.2239 31.7438C46.2383 31.7837 46.2679 31.8163 46.3061 31.8346L48.0104 32.6096C48.0424 32.6242 48.0775 32.6309 48.1126 32.6291C48.1478 32.6274 48.182 32.6172 48.2124 32.5995C48.2428 32.5818 48.2685 32.557 48.2873 32.5273C48.3062 32.4976 48.3176 32.4638 48.3207 32.4287L48.3833 31.7144C48.3899 31.6571 48.4185 31.6046 48.4632 31.5681C48.5078 31.5316 48.565 31.514 48.6224 31.519C48.6799 31.524 48.7331 31.5513 48.7708 31.595C48.8084 31.6387 48.8275 31.6954 48.824 31.7529L48.2933 37.7851C48.2931 37.8279 48.3017 37.8703 48.3185 37.9097C48.3353 37.9491 48.3601 37.9847 48.3912 38.0141C48.4223 38.0436 48.4591 38.0663 48.4993 38.081C48.5396 38.0957 48.5824 38.1019 48.6252 38.0994H55.2504C55.2934 38.1019 55.3364 38.0956 55.3768 38.0808C55.4172 38.066 55.4542 38.0431 55.4853 38.0133C55.5164 37.9836 55.5411 37.9479 55.5578 37.9082C55.5745 37.8685 55.5828 37.8259 55.5823 37.7828C55.4884 36.7762 55.0998 32.671 55.0137 31.7542C55.0095 31.6968 55.028 31.6401 55.0652 31.5962C55.1024 31.5523 55.1553 31.5247 55.2125 31.5193C55.2698 31.5139 55.3269 31.5311 55.3716 31.5673C55.4163 31.6035 55.4451 31.6558 55.4517 31.7129L55.5184 32.42C55.5217 32.4547 55.5332 32.4882 55.552 32.5176C55.5708 32.547 55.5963 32.5715 55.6265 32.5891C55.6566 32.6067 55.6905 32.6168 55.7253 32.6187C55.7602 32.6206 55.795 32.6142 55.8268 32.6L57.5519 31.8303C57.5896 31.8125 57.6188 31.7806 57.6332 31.7415C57.6476 31.7024 57.646 31.6595 57.6289 31.6215ZM51.5112 35.8483C51.5095 35.9054 51.4856 35.9596 51.4446 35.9994C51.4036 36.0392 51.3487 36.0614 51.2915 36.0614C51.2344 36.0614 51.1795 36.0392 51.1385 35.9994C51.0975 35.9596 51.0735 35.9054 51.0718 35.8483V33.6328L50.8585 33.7646C50.809 33.7939 50.75 33.8026 50.6941 33.7888C50.6383 33.775 50.59 33.7399 50.5598 33.6909C50.5296 33.642 50.5198 33.5831 50.5325 33.527C50.5453 33.4709 50.5795 33.422 50.6279 33.3909L51.1751 33.05C51.2086 33.0301 51.2467 33.0194 51.2856 33.0188C51.3245 33.0183 51.363 33.0279 51.397 33.0468C51.431 33.0658 51.4595 33.0933 51.4796 33.1266C51.4997 33.16 51.5107 33.1981 51.5114 33.237L51.5112 35.8483ZM53.0918 35.8483C53.0918 35.9066 53.0687 35.9625 53.0274 36.0038C52.9862 36.045 52.9303 36.0681 52.872 36.0681C52.8137 36.0681 52.7578 36.045 52.7166 36.0038C52.6753 35.9625 52.6522 35.9066 52.6522 35.8483V33.6328L52.4391 33.7646C52.3895 33.7952 52.3299 33.8049 52.2732 33.7915C52.2165 33.7781 52.1674 33.7427 52.1368 33.6932C52.1062 33.6436 52.0965 33.5839 52.1099 33.5272C52.1233 33.4705 52.1587 33.4215 52.2083 33.3909L52.7555 33.05C52.7889 33.0301 52.8271 33.0194 52.866 33.0188C52.9049 33.0183 52.9433 33.0279 52.9774 33.0468C53.0114 33.0658 53.0399 33.0933 53.06 33.1266C53.0801 33.16 53.091 33.1981 53.0918 33.237V35.8483Z" fill="#FAFAFA"/>
<path d="M51.5112 35.8483C51.5095 35.9054 51.4856 35.9596 51.4446 35.9994C51.4036 36.0392 51.3487 36.0614 51.2915 36.0614C51.2344 36.0614 51.1795 36.0392 51.1385 35.9994C51.0975 35.9596 51.0735 35.9054 51.0718 35.8483V33.6328L50.8585 33.7646C50.809 33.7939 50.75 33.8026 50.6941 33.7888C50.6383 33.775 50.59 33.7399 50.5598 33.6909C50.5296 33.642 50.5198 33.5831 50.5325 33.527C50.5453 33.4709 50.5795 33.422 50.6279 33.3909L51.1751 33.05C51.2086 33.0301 51.2467 33.0194 51.2856 33.0188C51.3245 33.0183 51.363 33.0279 51.397 33.0468C51.431 33.0658 51.4595 33.0933 51.4796 33.1266C51.4997 33.16 51.5107 33.1981 51.5114 33.237L51.5112 35.8483Z" fill="#FAFAFA"/>
<path d="M53.0918 35.8483C53.0918 35.9066 53.0687 35.9625 53.0274 36.0038C52.9862 36.045 52.9303 36.0681 52.872 36.0681C52.8137 36.0681 52.7578 36.045 52.7166 36.0038C52.6753 35.9625 52.6522 35.9066 52.6522 35.8483V33.6328L52.4391 33.7646C52.3895 33.7952 52.3299 33.8049 52.2732 33.7915C52.2165 33.7781 52.1674 33.7427 52.1368 33.6932C52.1062 33.6436 52.0965 33.5839 52.1099 33.5272C52.1233 33.4705 52.1587 33.4215 52.2083 33.3909L52.7555 33.05C52.7889 33.0301 52.8271 33.0194 52.866 33.0188C52.9049 33.0183 52.9433 33.0279 52.9774 33.0468C53.0114 33.0658 53.0399 33.0933 53.06 33.1266C53.0801 33.16 53.091 33.1981 53.0918 33.237V35.8483Z" fill="#FAFAFA"/>
<path d="M50.8979 33.332H53.1897" stroke="#191919" stroke-width="0.343756" stroke-linecap="round" stroke-linejoin="round"/>
<path d="M52.0439 34.4792V32.1875" stroke="#191919" stroke-width="0.343756" stroke-linecap="round" stroke-linejoin="round"/>
<path d="M71.9917 28.8673C72.3606 28.8668 72.7143 28.7201 72.9751 28.4593C73.236 28.1984 73.3827 27.8448 73.3831 27.4759V26.9944C72.463 27.1677 71.5179 27.161 70.6003 26.9746V27.4759C70.6008 27.8448 70.7475 28.1984 71.0083 28.4593C71.2692 28.7201 71.6228 28.8668 71.9917 28.8673Z" fill="#FAFAFA"/>
<path d="M77.6916 31.6215L76.5507 29.2233C76.3355 28.7743 75.9564 28.425 75.4914 28.2472L74.6207 27.9154C74.2761 27.8135 74.0247 27.4088 73.8226 27.1328V27.4102C73.8309 27.666 73.7857 27.9208 73.6899 28.1582C73.5942 28.3956 73.4501 28.6104 73.2667 28.789C73.0833 28.9675 72.8646 29.1059 72.6248 29.1953C72.3849 29.2846 72.129 29.323 71.8735 29.3079C71.618 29.2928 71.3684 29.2247 71.1407 29.1077C70.913 28.9908 70.7121 28.8277 70.551 28.6288C70.3899 28.4299 70.272 28.1997 70.2048 27.9526C70.1376 27.7056 70.1227 27.4473 70.161 27.1942C70.0104 27.4837 69.7642 27.7121 69.4641 27.8404L68.6485 28.1329C68.1804 28.2985 67.7945 28.6388 67.5715 29.0824L66.2919 31.6215C66.2742 31.66 66.2723 31.7039 66.2867 31.7438C66.3011 31.7837 66.3306 31.8163 66.3689 31.8346L68.0732 32.6096C68.1052 32.6242 68.1402 32.6309 68.1754 32.6291C68.2105 32.6274 68.2447 32.6172 68.2751 32.5995C68.3055 32.5818 68.3312 32.557 68.3501 32.5273C68.3689 32.4976 68.3803 32.4638 68.3834 32.4287L68.4461 31.7144C68.4526 31.6571 68.4813 31.6046 68.5259 31.5681C68.5706 31.5316 68.6277 31.514 68.6852 31.519C68.7426 31.524 68.7959 31.5513 68.8335 31.595C68.8712 31.6387 68.8903 31.6954 68.8867 31.7529L68.3561 37.7851C68.3558 37.8279 68.3644 37.8703 68.3812 37.9097C68.3981 37.9491 68.4228 37.9847 68.4539 38.0141C68.485 38.0436 68.5218 38.0663 68.5621 38.081C68.6023 38.0957 68.6452 38.1019 68.6879 38.0994H75.3132C75.3561 38.1019 75.3992 38.0956 75.4396 38.0808C75.48 38.066 75.5169 38.0431 75.548 38.0133C75.5792 37.9836 75.6039 37.9479 75.6206 37.9082C75.6372 37.8685 75.6456 37.8259 75.6451 37.7828C75.5512 36.7762 75.1626 32.671 75.0764 31.7542C75.0723 31.6968 75.0908 31.6401 75.128 31.5962C75.1651 31.5523 75.218 31.5247 75.2753 31.5193C75.3325 31.5139 75.3896 31.5311 75.4343 31.5673C75.4791 31.6035 75.5078 31.6558 75.5144 31.7129L75.5812 32.42C75.5845 32.4547 75.596 32.4882 75.6148 32.5176C75.6336 32.547 75.6591 32.5715 75.6892 32.5891C75.7193 32.6067 75.7532 32.6168 75.7881 32.6187C75.8229 32.6206 75.8577 32.6142 75.8896 32.6L77.6147 31.8303C77.6524 31.8125 77.6816 31.7806 77.6959 31.7415C77.7103 31.7024 77.7088 31.6595 77.6916 31.6215ZM71.574 35.8483C71.5722 35.9054 71.5483 35.9596 71.5073 35.9994C71.4663 36.0392 71.4114 36.0614 71.3543 36.0614C71.2971 36.0614 71.2422 36.0392 71.2012 35.9994C71.1602 35.9596 71.1363 35.9054 71.1345 35.8483V33.6328L70.9213 33.7646C70.8717 33.7939 70.8127 33.8026 70.7569 33.7888C70.701 33.775 70.6528 33.7399 70.6226 33.6909C70.5923 33.642 70.5826 33.5831 70.5953 33.527C70.608 33.4709 70.6422 33.422 70.6906 33.3909L71.2378 33.05C71.2713 33.0301 71.3094 33.0194 71.3484 33.0188C71.3873 33.0183 71.4257 33.0279 71.4597 33.0468C71.4938 33.0658 71.5223 33.0933 71.5423 33.1266C71.5624 33.16 71.5734 33.1981 71.5742 33.237L71.574 35.8483ZM73.1546 35.8483C73.1546 35.9066 73.1314 35.9625 73.0902 36.0038C73.049 36.045 72.9931 36.0681 72.9348 36.0681C72.8765 36.0681 72.8205 36.045 72.7793 36.0038C72.7381 35.9625 72.7149 35.9066 72.7149 35.8483V33.6328L72.5018 33.7646C72.4523 33.7952 72.3926 33.8049 72.3359 33.7915C72.2792 33.7781 72.2302 33.7427 72.1996 33.6932C72.169 33.6436 72.1593 33.5839 72.1727 33.5272C72.1861 33.4705 72.2214 33.4215 72.271 33.3909L72.8182 33.05C72.8517 33.0301 72.8898 33.0194 72.9287 33.0188C72.9677 33.0183 73.0061 33.0279 73.0401 33.0468C73.0742 33.0658 73.1026 33.0933 73.1227 33.1266C73.1428 33.16 73.1538 33.1981 73.1546 33.237V35.8483Z" fill="#FAFAFA"/>
<path d="M71.574 35.8483C71.5722 35.9054 71.5483 35.9596 71.5073 35.9994C71.4663 36.0392 71.4114 36.0614 71.3543 36.0614C71.2971 36.0614 71.2422 36.0392 71.2012 35.9994C71.1602 35.9596 71.1363 35.9054 71.1345 35.8483V33.6328L70.9213 33.7646C70.8717 33.7939 70.8127 33.8026 70.7569 33.7888C70.701 33.775 70.6528 33.7399 70.6226 33.6909C70.5923 33.642 70.5826 33.5831 70.5953 33.527C70.608 33.4709 70.6422 33.422 70.6906 33.3909L71.2378 33.05C71.2713 33.0301 71.3094 33.0194 71.3484 33.0188C71.3873 33.0183 71.4257 33.0279 71.4597 33.0468C71.4938 33.0658 71.5223 33.0933 71.5423 33.1266C71.5624 33.16 71.5734 33.1981 71.5742 33.237L71.574 35.8483Z" fill="#FAFAFA"/>
<path d="M73.1546 35.8483C73.1546 35.9066 73.1314 35.9625 73.0902 36.0038C73.049 36.045 72.9931 36.0681 72.9348 36.0681C72.8765 36.0681 72.8205 36.045 72.7793 36.0038C72.7381 35.9625 72.7149 35.9066 72.7149 35.8483V33.6328L72.5018 33.7646C72.4523 33.7952 72.3926 33.8049 72.3359 33.7915C72.2792 33.7781 72.2302 33.7427 72.1996 33.6932C72.169 33.6436 72.1593 33.5839 72.1727 33.5272C72.1861 33.4705 72.2214 33.4215 72.271 33.3909L72.8182 33.05C72.8517 33.0301 72.8898 33.0194 72.9287 33.0188C72.9677 33.0183 73.0061 33.0279 73.0401 33.0468C73.0742 33.0658 73.1026 33.0933 73.1227 33.1266C73.1428 33.16 73.1538 33.1981 73.1546 33.237V35.8483Z" fill="#FAFAFA"/>
<path d="M70.9607 33.332H73.2524" stroke="#191919" stroke-width="0.343756" stroke-linecap="round" stroke-linejoin="round"/>
<path d="M72.1067 34.4792V32.1875" stroke="#191919" stroke-width="0.343756" stroke-linecap="round" stroke-linejoin="round"/>
<g clip-path="url(#clip2_8754_17092)">
<path d="M20.6387 8.99618C21.0076 8.99575 21.3612 8.84902 21.6221 8.58818C21.8829 8.32734 22.0297 7.97368 22.0301 7.6048V7.12331C21.1099 7.29665 20.1649 7.28993 19.2473 7.10352V7.6048C19.2477 7.97368 19.3945 8.32734 19.6553 8.58818C19.9162 8.84902 20.2698 8.99575 20.6387 8.99618Z" fill="#FAFAFA"/>
<path d="M26.3386 11.7504L25.1977 9.35217C24.9825 8.90324 24.6034 8.55392 24.1383 8.37613L23.2676 8.04426C22.9231 7.94241 22.6716 7.53767 22.4696 7.26172V7.5391C22.4778 7.79494 22.4326 8.04969 22.3369 8.28709C22.2412 8.52449 22.097 8.73932 21.9136 8.91789C21.7302 9.09646 21.5116 9.23483 21.2717 9.32418C21.0319 9.41353 20.776 9.45189 20.5205 9.43682C20.2649 9.42175 20.0154 9.35358 19.7877 9.23666C19.56 9.11973 19.3591 8.95662 19.198 8.75774C19.0368 8.55885 18.9189 8.32856 18.8518 8.08155C18.7846 7.83455 18.7697 7.57625 18.8079 7.32315C18.6574 7.61265 18.4111 7.84101 18.1111 7.96935L17.2955 8.26184C16.8274 8.42743 16.4414 8.76766 16.2184 9.21133L14.9389 11.7504C14.9211 11.7889 14.9193 11.8329 14.9337 11.8727C14.9481 11.9126 14.9776 11.9452 15.0159 11.9635L16.7201 12.7385C16.7522 12.7531 16.7872 12.7598 16.8223 12.758C16.8575 12.7563 16.8917 12.7461 16.9221 12.7284C16.9525 12.7107 16.9782 12.6859 16.997 12.6562C17.0159 12.6265 17.0273 12.5927 17.0304 12.5576L17.093 11.8433C17.0996 11.786 17.1282 11.7335 17.1729 11.697C17.2176 11.6605 17.2747 11.6429 17.3322 11.6479C17.3896 11.653 17.4428 11.6802 17.4805 11.7239C17.5181 11.7676 17.5372 11.8243 17.5337 11.8818L17.003 17.914C17.0028 17.9568 17.0114 17.9992 17.0282 18.0386C17.0451 18.078 17.0698 18.1136 17.1009 18.143C17.132 18.1725 17.1688 18.1952 17.2091 18.2099C17.2493 18.2246 17.2921 18.2308 17.3349 18.2283H23.9602C24.0031 18.2309 24.0461 18.2245 24.0865 18.2097C24.127 18.1949 24.1639 18.172 24.195 18.1423C24.2261 18.1126 24.2508 18.0768 24.2675 18.0371C24.2842 17.9974 24.2926 17.9548 24.292 17.9117C24.1982 16.9051 23.8095 12.7999 23.7234 11.8831C23.7193 11.8257 23.7378 11.769 23.7749 11.7251C23.8121 11.6812 23.865 11.6536 23.9222 11.6482C23.9795 11.6428 24.0366 11.66 24.0813 11.6962C24.126 11.7324 24.1548 11.7847 24.1614 11.8418L24.2282 12.5489C24.2314 12.5836 24.243 12.6171 24.2617 12.6465C24.2805 12.6759 24.306 12.7004 24.3362 12.718C24.3663 12.7356 24.4002 12.7457 24.4351 12.7476C24.4699 12.7495 24.5047 12.7431 24.5366 12.7289L26.2617 11.9592C26.2993 11.9414 26.3285 11.9096 26.3429 11.8705C26.3573 11.8314 26.3558 11.7884 26.3386 11.7504ZM20.221 15.9772C20.2192 16.0343 20.1953 16.0885 20.1543 16.1283C20.1133 16.1681 20.0584 16.1903 20.0012 16.1903C19.9441 16.1903 19.8892 16.1681 19.8482 16.1283C19.8072 16.0885 19.7833 16.0343 19.7815 15.9772V13.7617L19.5682 13.8935C19.5187 13.9228 19.4597 13.9315 19.4038 13.9177C19.348 13.9039 19.2997 13.8688 19.2695 13.8198C19.2393 13.7709 19.2295 13.712 19.2423 13.6559C19.255 13.5998 19.2892 13.5509 19.3376 13.5198L19.8848 13.1789C19.9183 13.159 19.9564 13.1483 19.9953 13.1477C20.0343 13.1472 20.0727 13.1568 20.1067 13.1757C20.1407 13.1947 20.1692 13.2222 20.1893 13.2555C20.2094 13.2889 20.2204 13.327 20.2212 13.3659L20.221 15.9772ZM21.8015 15.9772C21.8015 16.0355 21.7784 16.0914 21.7372 16.1327C21.6959 16.1739 21.64 16.197 21.5817 16.197C21.5234 16.197 21.4675 16.1739 21.4263 16.1327C21.3851 16.0914 21.3619 16.0355 21.3619 15.9772V13.7617L21.1488 13.8935C21.0993 13.9241 21.0396 13.9338 20.9829 13.9204C20.9262 13.907 20.8772 13.8716 20.8465 13.8221C20.8159 13.7725 20.8063 13.7128 20.8197 13.6561C20.8331 13.5995 20.8684 13.5504 20.918 13.5198L21.4652 13.1789C21.4987 13.159 21.5368 13.1483 21.5757 13.1477C21.6147 13.1472 21.6531 13.1568 21.6871 13.1757C21.7211 13.1947 21.7496 13.2222 21.7697 13.2555C21.7898 13.2889 21.8008 13.327 21.8015 13.3659V15.9772Z" fill="#FAFAFA"/>
<path d="M20.221 15.9772C20.2192 16.0343 20.1953 16.0885 20.1543 16.1283C20.1133 16.1681 20.0584 16.1903 20.0012 16.1903C19.9441 16.1903 19.8892 16.1681 19.8482 16.1283C19.8072 16.0885 19.7833 16.0343 19.7815 15.9772V13.7617L19.5682 13.8935C19.5187 13.9228 19.4597 13.9315 19.4038 13.9177C19.348 13.9039 19.2997 13.8688 19.2695 13.8198C19.2393 13.7709 19.2295 13.712 19.2423 13.6559C19.255 13.5998 19.2892 13.5509 19.3376 13.5198L19.8848 13.1789C19.9183 13.159 19.9564 13.1483 19.9953 13.1477C20.0343 13.1472 20.0727 13.1568 20.1067 13.1757C20.1407 13.1947 20.1692 13.2222 20.1893 13.2555C20.2094 13.2889 20.2204 13.327 20.2212 13.3659L20.221 15.9772Z" fill="#FAFAFA"/>
<path d="M21.8015 15.9772C21.8015 16.0355 21.7784 16.0914 21.7372 16.1327C21.6959 16.1739 21.64 16.197 21.5817 16.197C21.5234 16.197 21.4675 16.1739 21.4263 16.1327C21.3851 16.0914 21.3619 16.0355 21.3619 15.9772V13.7617L21.1488 13.8935C21.0993 13.9241 21.0396 13.9338 20.9829 13.9204C20.9262 13.907 20.8772 13.8716 20.8465 13.8221C20.8159 13.7725 20.8063 13.7128 20.8197 13.6561C20.8331 13.5995 20.8684 13.5504 20.918 13.5198L21.4652 13.1789C21.4987 13.159 21.5368 13.1483 21.5757 13.1477C21.6147 13.1472 21.6531 13.1568 21.6871 13.1757C21.7211 13.1947 21.7496 13.2222 21.7697 13.2555C21.7898 13.2889 21.8008 13.327 21.8015 13.3659V15.9772Z" fill="#FAFAFA"/>
<path d="M19.6077 13.4609H21.8994" stroke="#191919" stroke-width="0.343756" stroke-linecap="round" stroke-linejoin="round"/>
<path d="M20.7537 14.6081V12.3164" stroke="#191919" stroke-width="0.343756" stroke-linecap="round" stroke-linejoin="round"/>
</g>
<g clip-path="url(#clip3_8754_17092)">
<path d="M56.6387 8.99618C57.0076 8.99575 57.3612 8.84902 57.6221 8.58818C57.8829 8.32734 58.0297 7.97368 58.0301 7.6048V7.12331C57.1099 7.29665 56.1649 7.28993 55.2473 7.10352V7.6048C55.2477 7.97368 55.3945 8.32734 55.6553 8.58818C55.9162 8.84902 56.2698 8.99575 56.6387 8.99618Z" fill="#FAFAFA"/>
<path d="M62.3386 11.7504L61.1977 9.35217C60.9825 8.90324 60.6034 8.55392 60.1383 8.37613L59.2676 8.04426C58.9231 7.94241 58.6716 7.53767 58.4696 7.26172V7.5391C58.4778 7.79494 58.4326 8.04969 58.3369 8.28709C58.2412 8.52449 58.097 8.73932 57.9136 8.91789C57.7302 9.09646 57.5116 9.23483 57.2717 9.32418C57.0319 9.41353 56.776 9.45189 56.5205 9.43682C56.2649 9.42175 56.0154 9.35358 55.7877 9.23666C55.56 9.11973 55.3591 8.95662 55.198 8.75774C55.0368 8.55885 54.9189 8.32856 54.8518 8.08155C54.7846 7.83455 54.7697 7.57625 54.8079 7.32315C54.6574 7.61265 54.4111 7.84101 54.1111 7.96935L53.2955 8.26184C52.8274 8.42743 52.4414 8.76766 52.2184 9.21133L50.9389 11.7504C50.9211 11.7889 50.9193 11.8329 50.9337 11.8727C50.9481 11.9126 50.9776 11.9452 51.0159 11.9635L52.7201 12.7385C52.7522 12.7531 52.7872 12.7598 52.8223 12.758C52.8575 12.7563 52.8917 12.7461 52.9221 12.7284C52.9525 12.7107 52.9782 12.6859 52.997 12.6562C53.0159 12.6265 53.0273 12.5927 53.0304 12.5576L53.093 11.8433C53.0996 11.786 53.1282 11.7335 53.1729 11.697C53.2176 11.6605 53.2747 11.6429 53.3322 11.6479C53.3896 11.653 53.4428 11.6802 53.4805 11.7239C53.5181 11.7676 53.5372 11.8243 53.5337 11.8818L53.003 17.914C53.0028 17.9568 53.0114 17.9992 53.0282 18.0386C53.0451 18.078 53.0698 18.1136 53.1009 18.143C53.132 18.1725 53.1688 18.1952 53.2091 18.2099C53.2493 18.2246 53.2921 18.2308 53.3349 18.2283H59.9602C60.0031 18.2309 60.0461 18.2245 60.0865 18.2097C60.127 18.1949 60.1639 18.172 60.195 18.1423C60.2261 18.1126 60.2508 18.0768 60.2675 18.0371C60.2842 17.9974 60.2926 17.9548 60.292 17.9117C60.1982 16.9051 59.8095 12.7999 59.7234 11.8831C59.7193 11.8257 59.7378 11.769 59.7749 11.7251C59.8121 11.6812 59.865 11.6536 59.9222 11.6482C59.9795 11.6428 60.0366 11.66 60.0813 11.6962C60.126 11.7324 60.1548 11.7847 60.1614 11.8418L60.2282 12.5489C60.2314 12.5836 60.243 12.6171 60.2617 12.6465C60.2805 12.6759 60.306 12.7004 60.3362 12.718C60.3663 12.7356 60.4002 12.7457 60.4351 12.7476C60.4699 12.7495 60.5047 12.7431 60.5366 12.7289L62.2617 11.9592C62.2993 11.9414 62.3285 11.9096 62.3429 11.8705C62.3573 11.8314 62.3558 11.7884 62.3386 11.7504ZM56.221 15.9772C56.2192 16.0343 56.1953 16.0885 56.1543 16.1283C56.1133 16.1681 56.0584 16.1903 56.0012 16.1903C55.9441 16.1903 55.8892 16.1681 55.8482 16.1283C55.8072 16.0885 55.7833 16.0343 55.7815 15.9772V13.7617L55.5682 13.8935C55.5187 13.9228 55.4597 13.9315 55.4038 13.9177C55.348 13.9039 55.2997 13.8688 55.2695 13.8198C55.2393 13.7709 55.2295 13.712 55.2423 13.6559C55.255 13.5998 55.2892 13.5509 55.3376 13.5198L55.8848 13.1789C55.9183 13.159 55.9564 13.1483 55.9953 13.1477C56.0343 13.1472 56.0727 13.1568 56.1067 13.1757C56.1407 13.1947 56.1692 13.2222 56.1893 13.2555C56.2094 13.2889 56.2204 13.327 56.2212 13.3659L56.221 15.9772ZM57.8015 15.9772C57.8015 16.0355 57.7784 16.0914 57.7372 16.1327C57.6959 16.1739 57.64 16.197 57.5817 16.197C57.5234 16.197 57.4675 16.1739 57.4263 16.1327C57.3851 16.0914 57.3619 16.0355 57.3619 15.9772V13.7617L57.1488 13.8935C57.0993 13.9241 57.0396 13.9338 56.9829 13.9204C56.9262 13.907 56.8772 13.8716 56.8465 13.8221C56.8159 13.7725 56.8063 13.7128 56.8197 13.6561C56.8331 13.5995 56.8684 13.5504 56.918 13.5198L57.4652 13.1789C57.4987 13.159 57.5368 13.1483 57.5757 13.1477C57.6147 13.1472 57.6531 13.1568 57.6871 13.1757C57.7211 13.1947 57.7496 13.2222 57.7697 13.2555C57.7898 13.2889 57.8008 13.327 57.8015 13.3659V15.9772Z" fill="#FAFAFA"/>
<path d="M56.221 15.9772C56.2192 16.0343 56.1953 16.0885 56.1543 16.1283C56.1133 16.1681 56.0584 16.1903 56.0012 16.1903C55.9441 16.1903 55.8892 16.1681 55.8482 16.1283C55.8072 16.0885 55.7833 16.0343 55.7815 15.9772V13.7617L55.5682 13.8935C55.5187 13.9228 55.4597 13.9315 55.4038 13.9177C55.348 13.9039 55.2997 13.8688 55.2695 13.8198C55.2393 13.7709 55.2295 13.712 55.2423 13.6559C55.255 13.5998 55.2892 13.5509 55.3376 13.5198L55.8848 13.1789C55.9183 13.159 55.9564 13.1483 55.9953 13.1477C56.0343 13.1472 56.0727 13.1568 56.1067 13.1757C56.1407 13.1947 56.1692 13.2222 56.1893 13.2555C56.2094 13.2889 56.2204 13.327 56.2212 13.3659L56.221 15.9772Z" fill="#FAFAFA"/>
<path d="M57.8015 15.9772C57.8015 16.0355 57.7784 16.0914 57.7372 16.1327C57.6959 16.1739 57.64 16.197 57.5817 16.197C57.5234 16.197 57.4675 16.1739 57.4263 16.1327C57.3851 16.0914 57.3619 16.0355 57.3619 15.9772V13.7617L57.1488 13.8935C57.0993 13.9241 57.0396 13.9338 56.9829 13.9204C56.9262 13.907 56.8772 13.8716 56.8465 13.8221C56.8159 13.7725 56.8063 13.7128 56.8197 13.6561C56.8331 13.5995 56.8684 13.5504 56.918 13.5198L57.4652 13.1789C57.4987 13.159 57.5368 13.1483 57.5757 13.1477C57.6147 13.1472 57.6531 13.1568 57.6871 13.1757C57.7211 13.1947 57.7496 13.2222 57.7697 13.2555C57.7898 13.2889 57.8008 13.327 57.8015 13.3659V15.9772Z" fill="#FAFAFA"/>
<path d="M55.6077 13.4609H57.8994" stroke="#191919" stroke-width="0.343756" stroke-linecap="round" stroke-linejoin="round"/>
<path d="M56.7537 14.6081V12.3164" stroke="#191919" stroke-width="0.343756" stroke-linecap="round" stroke-linejoin="round"/>
</g>
<defs>
<clipPath id="clip0_8754_17092">
<rect width="13.0627" height="13.0627" fill="white" transform="translate(34.1077 66.5645)"/>
</clipPath>
<clipPath id="clip1_8754_17092">
<rect width="13.0627" height="13.0627" fill="white" transform="translate(7.12817 48)"/>
</clipPath>
<clipPath id="clip2_8754_17092">
<rect width="13.0627" height="13.0627" fill="white" transform="translate(14.1077 6.12695)"/>
</clipPath>
<clipPath id="clip3_8754_17092">
<rect width="13.0627" height="13.0627" fill="white" transform="translate(50.1077 6.12695)"/>
</clipPath>
</defs>
</svg>
