<svg width="81" height="81" viewBox="0 0 81 81" fill="none" xmlns="http://www.w3.org/2000/svg">
<rect x="0.324546" y="0.118492" width="79.9807" height="79.9807" rx="5.88541" fill="#828284" stroke="#FAFAFA" stroke-width="0.229171"/>
<mask id="path-2-inside-1_8754_16550" fill="white">
<path d="M24.0437 66.4609H56.586V80.2112H24.0437V66.4609Z"/>
</mask>
<path d="M24.0437 66.4609V66.2318H23.8145V66.4609H24.0437ZM56.586 66.4609H56.8152V66.2318H56.586V66.4609ZM24.0437 66.6901H56.586V66.2318H24.0437V66.6901ZM56.3568 66.4609V80.2112H56.8152V66.4609H56.3568ZM24.2729 80.2112V66.4609H23.8145V80.2112H24.2729Z" fill="#FAFAFA" mask="url(#path-2-inside-1_8754_16550)"/>
<mask id="path-4-inside-2_8754_16550" fill="white">
<path d="M12.8145 55.0039H67.8155V80.2127H12.8145V55.0039Z"/>
</mask>
<path d="M12.8145 55.0039V54.7747H12.5853V55.0039H12.8145ZM67.8155 55.0039H68.0447V54.7747H67.8155V55.0039ZM12.8145 55.2331H67.8155V54.7747H12.8145V55.2331ZM67.5863 55.0039V80.2127H68.0447V55.0039H67.5863ZM13.0436 80.2127V55.0039H12.5853V80.2127H13.0436Z" fill="#FAFAFA" mask="url(#path-4-inside-2_8754_16550)"/>
<path d="M54.5234 9.53674e-07C54.5234 1.65523 54.1381 3.29426 53.3895 4.8235C52.6409 6.35273 51.5437 7.74223 50.1605 8.91266C48.7772 10.0831 47.1351 11.0115 45.3278 11.645C43.5205 12.2784 41.5835 12.6044 39.6273 12.6044C37.6711 12.6044 35.7341 12.2784 33.9268 11.645C32.1195 11.0115 30.4774 10.0831 29.0942 8.91266C27.7109 7.74223 26.6137 6.35273 25.8651 4.8235C25.1165 3.29426 24.7312 1.65523 24.7312 0" stroke="#FAFAFA" stroke-width="0.229171"/>
<path d="M30.7872 55.3516C31.3054 54.5174 32.065 53.7595 33.0227 53.1211C33.9803 52.4827 35.1172 51.9763 36.3683 51.6308C37.6195 51.2853 38.9606 51.1074 40.3148 51.1074C41.6691 51.1074 43.0101 51.2853 44.2613 51.6308C45.5125 51.9763 46.6494 52.4827 47.607 53.1211C48.5646 53.7595 49.3243 54.5174 49.8425 55.3516" stroke="#FAFAFA" stroke-width="0.229171"/>
<path d="M0.438965 76.5479C1.55549 76.4958 3.75942 77.1099 3.64292 79.9825" stroke="#FAFAFA" stroke-width="0.229171"/>
<path d="M80.1904 76.5479C79.0739 76.4958 76.87 77.1099 76.9865 79.9825" stroke="#FAFAFA" stroke-width="0.229171"/>
<g clip-path="url(#clip0_8754_16550)">
<path d="M40.429 69.4356C40.7979 69.4352 41.1515 69.2885 41.4124 69.0276C41.6732 68.7668 41.8199 68.4131 41.8204 68.0443V67.5628C40.9002 67.7361 39.9552 67.7294 39.0376 67.543V68.0443C39.038 68.4131 39.1848 68.7668 39.4456 69.0276C39.7064 69.2885 40.0601 69.4352 40.429 69.4356Z" fill="#FAFAFA"/>
<path d="M46.1289 72.1899L44.9879 69.7916C44.7728 69.3427 44.3936 68.9934 43.9286 68.8156L43.0579 68.4837C42.7134 68.3819 42.4619 67.9771 42.2599 67.7012V67.9786C42.2681 68.2344 42.2229 68.4891 42.1272 68.7265C42.0315 68.9639 41.8873 69.1788 41.7039 69.3573C41.5205 69.5359 41.3019 69.6743 41.062 69.7636C40.8222 69.853 40.5663 69.8913 40.3108 69.8763C40.0552 69.8612 39.8056 69.793 39.5779 69.6761C39.3502 69.5592 39.1494 69.3961 38.9883 69.1972C38.8271 68.9983 38.7092 68.768 38.6421 68.521C38.5749 68.274 38.56 68.0157 38.5982 67.7626C38.4477 68.0521 38.2014 68.2805 37.9014 68.4088L37.0858 68.7013C36.6177 68.8669 36.2317 69.2071 36.0087 69.6508L34.7292 72.1899C34.7114 72.2284 34.7095 72.2723 34.7239 72.3122C34.7383 72.3521 34.7679 72.3847 34.8061 72.4029L36.5104 73.1779C36.5424 73.1925 36.5775 73.1992 36.6126 73.1975C36.6478 73.1957 36.682 73.1856 36.7124 73.1679C36.7428 73.1501 36.7685 73.1254 36.7873 73.0957C36.8062 73.066 36.8176 73.0321 36.8207 72.9971L36.8833 72.2827C36.8899 72.2254 36.9185 72.1729 36.9632 72.1364C37.0078 72.1 37.065 72.0823 37.1224 72.0874C37.1799 72.0924 37.2331 72.1197 37.2708 72.1634C37.3084 72.2071 37.3275 72.2637 37.324 72.3213L36.7933 78.3534C36.7931 78.3963 36.8017 78.4387 36.8185 78.4781C36.8353 78.5175 36.8601 78.553 36.8912 78.5825C36.9223 78.6119 36.9591 78.6347 36.9993 78.6494C37.0396 78.664 37.0824 78.6703 37.1252 78.6678H43.7504C43.7934 78.6703 43.8364 78.664 43.8768 78.6492C43.9172 78.6344 43.9542 78.6114 43.9853 78.5817C44.0164 78.552 44.0411 78.5162 44.0578 78.4766C44.0745 78.4369 44.0828 78.3942 44.0823 78.3512C43.9884 77.3445 43.5998 73.2394 43.5137 72.3225C43.5095 72.2652 43.528 72.2084 43.5652 72.1645C43.6024 72.1206 43.6553 72.093 43.7125 72.0876C43.7698 72.0822 43.8269 72.0995 43.8716 72.1357C43.9163 72.1719 43.9451 72.2242 43.9517 72.2813L44.0184 72.9883C44.0217 73.0231 44.0332 73.0565 44.052 73.0859C44.0708 73.1153 44.0963 73.1398 44.1265 73.1574C44.1566 73.175 44.1905 73.1852 44.2253 73.1871C44.2602 73.189 44.295 73.1826 44.3268 73.1683L46.0519 72.3987C46.0896 72.3809 46.1188 72.349 46.1332 72.3099C46.1476 72.2708 46.146 72.2278 46.1289 72.1899ZM40.0112 76.4167C40.0095 76.4738 39.9856 76.528 39.9446 76.5678C39.9036 76.6076 39.8487 76.6298 39.7915 76.6298C39.7344 76.6298 39.6795 76.6076 39.6385 76.5678C39.5975 76.528 39.5735 76.4738 39.5718 76.4167V74.2011L39.3585 74.333C39.309 74.3623 39.25 74.3709 39.1941 74.3572C39.1383 74.3434 39.09 74.3082 39.0598 74.2593C39.0296 74.2103 39.0198 74.1515 39.0325 74.0954C39.0453 74.0392 39.0795 73.9904 39.1279 73.9592L39.6751 73.6184C39.7086 73.5985 39.7467 73.5877 39.7856 73.5872C39.8245 73.5866 39.863 73.5963 39.897 73.6152C39.931 73.6341 39.9595 73.6616 39.9796 73.695C39.9997 73.7284 40.0107 73.7664 40.0114 73.8054L40.0112 76.4167ZM41.5918 76.4167C41.5918 76.475 41.5687 76.5309 41.5274 76.5721C41.4862 76.6133 41.4303 76.6365 41.372 76.6365C41.3137 76.6365 41.2578 76.6133 41.2166 76.5721C41.1753 76.5309 41.1522 76.475 41.1522 76.4167V74.2011L40.9391 74.333C40.8895 74.3636 40.8299 74.3732 40.7732 74.3598C40.7165 74.3465 40.6674 74.3111 40.6368 74.2615C40.6062 74.212 40.5965 74.1523 40.6099 74.0956C40.6233 74.0389 40.6587 73.9899 40.7083 73.9592L41.2555 73.6184C41.2889 73.5985 41.3271 73.5877 41.366 73.5872C41.4049 73.5866 41.4433 73.5963 41.4774 73.6152C41.5114 73.6341 41.5399 73.6616 41.56 73.695C41.5801 73.7284 41.591 73.7664 41.5918 73.8054V76.4167Z" fill="#FAFAFA"/>
<path d="M40.0112 76.4167C40.0095 76.4738 39.9856 76.528 39.9446 76.5678C39.9036 76.6076 39.8487 76.6298 39.7915 76.6298C39.7344 76.6298 39.6795 76.6076 39.6385 76.5678C39.5975 76.528 39.5735 76.4738 39.5718 76.4167V74.2011L39.3585 74.333C39.309 74.3623 39.25 74.3709 39.1941 74.3572C39.1383 74.3434 39.09 74.3082 39.0598 74.2593C39.0296 74.2103 39.0198 74.1515 39.0325 74.0954C39.0453 74.0392 39.0795 73.9904 39.1279 73.9592L39.6751 73.6184C39.7086 73.5985 39.7467 73.5877 39.7856 73.5872C39.8245 73.5866 39.863 73.5963 39.897 73.6152C39.931 73.6341 39.9595 73.6616 39.9796 73.695C39.9997 73.7284 40.0107 73.7664 40.0114 73.8054L40.0112 76.4167Z" fill="#FAFAFA"/>
<path d="M41.5918 76.4167C41.5918 76.475 41.5687 76.5309 41.5274 76.5721C41.4862 76.6133 41.4303 76.6365 41.372 76.6365C41.3137 76.6365 41.2578 76.6133 41.2166 76.5721C41.1753 76.5309 41.1522 76.475 41.1522 76.4167V74.2011L40.9391 74.333C40.8895 74.3636 40.8299 74.3732 40.7732 74.3598C40.7165 74.3465 40.6674 74.3111 40.6368 74.2615C40.6062 74.212 40.5965 74.1523 40.6099 74.0956C40.6233 74.0389 40.6587 73.9899 40.7083 73.9592L41.2555 73.6184C41.2889 73.5985 41.3271 73.5877 41.366 73.5872C41.4049 73.5866 41.4433 73.5963 41.4774 73.6152C41.5114 73.6341 41.5399 73.6616 41.56 73.695C41.5801 73.7284 41.591 73.7664 41.5918 73.8054V76.4167Z" fill="#FAFAFA"/>
<path d="M39.3979 73.8965H41.6897" stroke="#191919" stroke-width="0.343756" stroke-linecap="round" stroke-linejoin="round"/>
<path d="M40.5439 75.0437V72.752" stroke="#191919" stroke-width="0.343756" stroke-linecap="round" stroke-linejoin="round"/>
</g>
<g clip-path="url(#clip1_8754_16550)">
<path d="M13.4495 50.8673C13.8184 50.8668 14.172 50.7201 14.4329 50.4593C14.6937 50.1984 14.8404 49.8448 14.8409 49.4759V48.9944C13.9207 49.1677 12.9757 49.161 12.0581 48.9746V49.4759C12.0585 49.8448 12.2053 50.1984 12.4661 50.4593C12.727 50.7201 13.0806 50.8668 13.4495 50.8673Z" fill="#FAFAFA"/>
<path d="M19.1494 53.6215L18.0084 51.2233C17.7933 50.7743 17.4141 50.425 16.9491 50.2472L16.0784 49.9154C15.7339 49.8135 15.4824 49.4088 15.2804 49.1328V49.4102C15.2886 49.666 15.2434 49.9208 15.1477 50.1582C15.052 50.3956 14.9078 50.6104 14.7244 50.789C14.541 50.9675 14.3224 51.1059 14.0825 51.1953C13.8427 51.2846 13.5868 51.323 13.3313 51.3079C13.0757 51.2928 12.8262 51.2247 12.5984 51.1077C12.3707 50.9908 12.1699 50.8277 12.0088 50.6288C11.8476 50.4299 11.7297 50.1997 11.6626 49.9526C11.5954 49.7056 11.5805 49.4473 11.6187 49.1942C11.4682 49.4837 11.2219 49.7121 10.9219 49.8404L10.1063 50.1329C9.63817 50.2985 9.25223 50.6388 9.02924 51.0824L7.7497 53.6215C7.73193 53.66 7.73005 53.7039 7.74445 53.7438C7.75885 53.7837 7.78838 53.8163 7.82665 53.8346L9.53093 54.6096C9.56294 54.6242 9.59799 54.6309 9.63313 54.6291C9.66828 54.6274 9.70249 54.6172 9.73289 54.5995C9.76328 54.5818 9.78899 54.557 9.80783 54.5273C9.82667 54.4976 9.83811 54.4638 9.84117 54.4287L9.90383 53.7144C9.91036 53.6571 9.93902 53.6046 9.98368 53.5681C10.0283 53.5316 10.0855 53.514 10.143 53.519C10.2004 53.524 10.2536 53.5513 10.2913 53.595C10.3289 53.6387 10.348 53.6954 10.3445 53.7529L9.81382 59.7851C9.81361 59.8279 9.82218 59.8703 9.83901 59.9097C9.85584 59.9491 9.88057 59.9847 9.91168 60.0141C9.94278 60.0436 9.9796 60.0663 10.0198 60.081C10.0601 60.0957 10.1029 60.1019 10.1457 60.0994H16.771C16.8139 60.1019 16.8569 60.0956 16.8973 60.0808C16.9377 60.066 16.9747 60.0431 17.0058 60.0133C17.0369 59.9836 17.0616 59.9479 17.0783 59.9082C17.095 59.8685 17.1034 59.8259 17.1028 59.7828C17.0089 58.7762 16.6203 54.671 16.5342 53.7542C16.5301 53.6968 16.5486 53.6401 16.5857 53.5962C16.6229 53.5523 16.6758 53.5247 16.733 53.5193C16.7903 53.5139 16.8474 53.5311 16.8921 53.5673C16.9368 53.6035 16.9656 53.6558 16.9722 53.7129L17.0389 54.42C17.0422 54.4547 17.0538 54.4882 17.0725 54.5176C17.0913 54.547 17.1168 54.5715 17.147 54.5891C17.1771 54.6067 17.211 54.6168 17.2458 54.6187C17.2807 54.6206 17.3155 54.6142 17.3474 54.6L19.0724 53.8303C19.1101 53.8125 19.1393 53.7806 19.1537 53.7415C19.1681 53.7024 19.1666 53.6595 19.1494 53.6215ZM13.0317 57.8483C13.03 57.9054 13.0061 57.9596 12.9651 57.9994C12.9241 58.0392 12.8692 58.0614 12.812 58.0614C12.7549 58.0614 12.7 58.0392 12.659 57.9994C12.618 57.9596 12.594 57.9054 12.5923 57.8483V55.6328L12.379 55.7646C12.3295 55.7939 12.2705 55.8026 12.2146 55.7888C12.1588 55.775 12.1105 55.7399 12.0803 55.6909C12.0501 55.642 12.0403 55.5831 12.053 55.527C12.0658 55.4709 12.1 55.422 12.1484 55.3909L12.6956 55.05C12.7291 55.0301 12.7672 55.0194 12.8061 55.0188C12.8451 55.0183 12.8835 55.0279 12.9175 55.0468C12.9515 55.0658 12.98 55.0933 13.0001 55.1266C13.0202 55.16 13.0312 55.1981 13.032 55.237L13.0317 57.8483ZM14.6123 57.8483C14.6123 57.9066 14.5892 57.9625 14.548 58.0038C14.5067 58.045 14.4508 58.0681 14.3925 58.0681C14.3342 58.0681 14.2783 58.045 14.2371 58.0038C14.1959 57.9625 14.1727 57.9066 14.1727 57.8483V55.6328L13.9596 55.7646C13.9101 55.7952 13.8504 55.8049 13.7937 55.7915C13.737 55.7781 13.6879 55.7427 13.6573 55.6932C13.6267 55.6436 13.617 55.5839 13.6304 55.5272C13.6438 55.4705 13.6792 55.4215 13.7288 55.3909L14.276 55.05C14.3095 55.0301 14.3476 55.0194 14.3865 55.0188C14.4254 55.0183 14.4638 55.0279 14.4979 55.0468C14.5319 55.0658 14.5604 55.0933 14.5805 55.1266C14.6006 55.16 14.6116 55.1981 14.6123 55.237V57.8483Z" fill="#FAFAFA"/>
<path d="M13.0317 57.8483C13.03 57.9054 13.0061 57.9596 12.9651 57.9994C12.9241 58.0392 12.8692 58.0614 12.812 58.0614C12.7549 58.0614 12.7 58.0392 12.659 57.9994C12.618 57.9596 12.594 57.9054 12.5923 57.8483V55.6328L12.379 55.7646C12.3295 55.7939 12.2705 55.8026 12.2146 55.7888C12.1588 55.775 12.1105 55.7399 12.0803 55.6909C12.0501 55.642 12.0403 55.5831 12.053 55.527C12.0658 55.4709 12.1 55.422 12.1484 55.3909L12.6956 55.05C12.7291 55.0301 12.7672 55.0194 12.8061 55.0188C12.8451 55.0183 12.8835 55.0279 12.9175 55.0468C12.9515 55.0658 12.98 55.0933 13.0001 55.1266C13.0202 55.16 13.0312 55.1981 13.032 55.237L13.0317 57.8483Z" fill="#FAFAFA"/>
<path d="M14.6123 57.8483C14.6123 57.9066 14.5892 57.9625 14.548 58.0038C14.5067 58.045 14.4508 58.0681 14.3925 58.0681C14.3342 58.0681 14.2783 58.045 14.2371 58.0038C14.1959 57.9625 14.1727 57.9066 14.1727 57.8483V55.6328L13.9596 55.7646C13.9101 55.7952 13.8504 55.8049 13.7937 55.7915C13.737 55.7781 13.6879 55.7427 13.6573 55.6932C13.6267 55.6436 13.617 55.5839 13.6304 55.5272C13.6438 55.4705 13.6792 55.4215 13.7288 55.3909L14.276 55.05C14.3095 55.0301 14.3476 55.0194 14.3865 55.0188C14.4254 55.0183 14.4638 55.0279 14.4979 55.0468C14.5319 55.0658 14.5604 55.0933 14.5805 55.1266C14.6006 55.16 14.6116 55.1981 14.6123 55.237V57.8483Z" fill="#FAFAFA"/>
<path d="M12.4185 55.332H14.7102" stroke="#191919" stroke-width="0.343756" stroke-linecap="round" stroke-linejoin="round"/>
<path d="M13.5645 56.4792V54.1875" stroke="#191919" stroke-width="0.343756" stroke-linecap="round" stroke-linejoin="round"/>
</g>
<path d="M66.531 50.8673C66.8999 50.8668 67.2536 50.7201 67.5144 50.4593C67.7753 50.1984 67.922 49.8448 67.9224 49.4759V48.9944C67.0023 49.1677 66.0572 49.161 65.1396 48.9746V49.4759C65.1401 49.8448 65.2868 50.1984 65.5477 50.4593C65.8085 50.7201 66.1621 50.8668 66.531 50.8673Z" fill="#FAFAFA"/>
<path d="M72.2309 53.6215L71.09 51.2233C70.8748 50.7743 70.4957 50.425 70.0307 50.2472L69.16 49.9154C68.8154 49.8135 68.564 49.4088 68.3619 49.1328V49.4102C68.3702 49.666 68.325 49.9208 68.2292 50.1582C68.1335 50.3956 67.9894 50.6104 67.806 50.789C67.6226 50.9675 67.4039 51.1059 67.1641 51.1953C66.9242 51.2846 66.6683 51.323 66.4128 51.3079C66.1573 51.2928 65.9077 51.2247 65.68 51.1077C65.4523 50.9908 65.2515 50.8277 65.0903 50.6288C64.9292 50.4299 64.8113 50.1997 64.7441 49.9526C64.6769 49.7056 64.662 49.4473 64.7003 49.1942C64.5497 49.4837 64.3035 49.7121 64.0035 49.8404L63.1878 50.1329C62.7197 50.2985 62.3338 50.6388 62.1108 51.0824L60.8312 53.6215C60.8135 53.66 60.8116 53.7039 60.826 53.7438C60.8404 53.7837 60.8699 53.8163 60.9082 53.8346L62.6125 54.6096C62.6445 54.6242 62.6795 54.6309 62.7147 54.6291C62.7498 54.6274 62.784 54.6172 62.8144 54.5995C62.8448 54.5818 62.8705 54.557 62.8894 54.5273C62.9082 54.4976 62.9196 54.4638 62.9227 54.4287L62.9854 53.7144C62.9919 53.6571 63.0206 53.6046 63.0652 53.5681C63.1099 53.5316 63.167 53.514 63.2245 53.519C63.282 53.524 63.3352 53.5513 63.3728 53.595C63.4105 53.6387 63.4296 53.6954 63.426 53.7529L62.8954 59.7851C62.8951 59.8279 62.9037 59.8703 62.9206 59.9097C62.9374 59.9491 62.9621 59.9847 62.9932 60.0141C63.0243 60.0436 63.0611 60.0663 63.1014 60.081C63.1416 60.0957 63.1845 60.1019 63.2272 60.0994H69.8525C69.8955 60.1019 69.9385 60.0956 69.9789 60.0808C70.0193 60.066 70.0562 60.0431 70.0873 60.0133C70.1185 59.9836 70.1432 59.9479 70.1599 59.9082C70.1766 59.8685 70.1849 59.8259 70.1844 59.7828C70.0905 58.7762 69.7019 54.671 69.6157 53.7542C69.6116 53.6968 69.6301 53.6401 69.6673 53.5962C69.7044 53.5523 69.7573 53.5247 69.8146 53.5193C69.8718 53.5139 69.9289 53.5311 69.9737 53.5673C70.0184 53.6035 70.0471 53.6558 70.0537 53.7129L70.1205 54.42C70.1238 54.4547 70.1353 54.4882 70.1541 54.5176C70.1729 54.547 70.1984 54.5715 70.2285 54.5891C70.2587 54.6067 70.2925 54.6168 70.3274 54.6187C70.3622 54.6206 70.397 54.6142 70.4289 54.6L72.154 53.8303C72.1917 53.8125 72.2209 53.7806 72.2353 53.7415C72.2496 53.7024 72.2481 53.6595 72.2309 53.6215ZM66.1133 57.8483C66.1115 57.9054 66.0876 57.9596 66.0466 57.9994C66.0056 58.0392 65.9507 58.0614 65.8936 58.0614C65.8364 58.0614 65.7815 58.0392 65.7405 57.9994C65.6995 57.9596 65.6756 57.9054 65.6739 57.8483V55.6328L65.4606 55.7646C65.411 55.7939 65.352 55.8026 65.2962 55.7888C65.2403 55.775 65.1921 55.7399 65.1619 55.6909C65.1317 55.642 65.1219 55.5831 65.1346 55.527C65.1473 55.4709 65.1815 55.422 65.2299 55.3909L65.7771 55.05C65.8106 55.0301 65.8487 55.0194 65.8877 55.0188C65.9266 55.0183 65.965 55.0279 65.999 55.0468C66.0331 55.0658 66.0616 55.0933 66.0816 55.1266C66.1017 55.16 66.1127 55.1981 66.1135 55.237L66.1133 57.8483ZM67.6939 57.8483C67.6939 57.9066 67.6707 57.9625 67.6295 58.0038C67.5883 58.045 67.5324 58.0681 67.4741 58.0681C67.4158 58.0681 67.3598 58.045 67.3186 58.0038C67.2774 57.9625 67.2542 57.9066 67.2542 57.8483V55.6328L67.0412 55.7646C66.9916 55.7952 66.9319 55.8049 66.8752 55.7915C66.8185 55.7781 66.7695 55.7427 66.7389 55.6932C66.7083 55.6436 66.6986 55.5839 66.712 55.5272C66.7254 55.4705 66.7608 55.4215 66.8103 55.3909L67.3575 55.05C67.391 55.0301 67.4291 55.0194 67.468 55.0188C67.507 55.0183 67.5454 55.0279 67.5794 55.0468C67.6135 55.0658 67.642 55.0933 67.662 55.1266C67.6821 55.16 67.6931 55.1981 67.6939 55.237V57.8483Z" fill="#FAFAFA"/>
<path d="M66.1133 57.8483C66.1115 57.9054 66.0876 57.9596 66.0466 57.9994C66.0056 58.0392 65.9507 58.0614 65.8936 58.0614C65.8364 58.0614 65.7815 58.0392 65.7405 57.9994C65.6995 57.9596 65.6756 57.9054 65.6739 57.8483V55.6328L65.4606 55.7646C65.411 55.7939 65.352 55.8026 65.2962 55.7888C65.2403 55.775 65.1921 55.7399 65.1619 55.6909C65.1317 55.642 65.1219 55.5831 65.1346 55.527C65.1473 55.4709 65.1815 55.422 65.2299 55.3909L65.7771 55.05C65.8106 55.0301 65.8487 55.0194 65.8877 55.0188C65.9266 55.0183 65.965 55.0279 65.999 55.0468C66.0331 55.0658 66.0616 55.0933 66.0816 55.1266C66.1017 55.16 66.1127 55.1981 66.1135 55.237L66.1133 57.8483Z" fill="#FAFAFA"/>
<path d="M67.6939 57.8483C67.6939 57.9066 67.6707 57.9625 67.6295 58.0038C67.5883 58.045 67.5324 58.0681 67.4741 58.0681C67.4158 58.0681 67.3598 58.045 67.3186 58.0038C67.2774 57.9625 67.2542 57.9066 67.2542 57.8483V55.6328L67.0412 55.7646C66.9916 55.7952 66.9319 55.8049 66.8752 55.7915C66.8185 55.7781 66.7695 55.7427 66.7389 55.6932C66.7083 55.6436 66.6986 55.5839 66.712 55.5272C66.7254 55.4705 66.7608 55.4215 66.8103 55.3909L67.3575 55.05C67.391 55.0301 67.4291 55.0194 67.468 55.0188C67.507 55.0183 67.5454 55.0279 67.5794 55.0468C67.6135 55.0658 67.642 55.0933 67.662 55.1266C67.6821 55.16 67.6931 55.1981 67.6939 55.237V57.8483Z" fill="#FAFAFA"/>
<path d="M65.5 55.332H67.7917" stroke="#191919" stroke-width="0.343756" stroke-linecap="round" stroke-linejoin="round"/>
<path d="M66.646 56.4792V54.1875" stroke="#191919" stroke-width="0.343756" stroke-linecap="round" stroke-linejoin="round"/>
<path d="M50.531 50.8673C50.8999 50.8668 51.2536 50.7201 51.5144 50.4593C51.7753 50.1984 51.922 49.8448 51.9224 49.4759V48.9944C51.0023 49.1677 50.0572 49.161 49.1396 48.9746V49.4759C49.1401 49.8448 49.2868 50.1984 49.5477 50.4593C49.8085 50.7201 50.1621 50.8668 50.531 50.8673Z" fill="#FAFAFA"/>
<path d="M56.2309 53.6215L55.09 51.2233C54.8748 50.7743 54.4957 50.425 54.0307 50.2472L53.16 49.9154C52.8154 49.8135 52.564 49.4088 52.3619 49.1328V49.4102C52.3702 49.666 52.325 49.9208 52.2292 50.1582C52.1335 50.3956 51.9894 50.6104 51.806 50.789C51.6226 50.9675 51.4039 51.1059 51.1641 51.1953C50.9242 51.2846 50.6683 51.323 50.4128 51.3079C50.1573 51.2928 49.9077 51.2247 49.68 51.1077C49.4523 50.9908 49.2515 50.8277 49.0903 50.6288C48.9292 50.4299 48.8113 50.1997 48.7441 49.9526C48.6769 49.7056 48.662 49.4473 48.7003 49.1942C48.5497 49.4837 48.3035 49.7121 48.0035 49.8404L47.1878 50.1329C46.7197 50.2985 46.3338 50.6388 46.1108 51.0824L44.8312 53.6215C44.8135 53.66 44.8116 53.7039 44.826 53.7438C44.8404 53.7837 44.8699 53.8163 44.9082 53.8346L46.6125 54.6096C46.6445 54.6242 46.6795 54.6309 46.7147 54.6291C46.7498 54.6274 46.784 54.6172 46.8144 54.5995C46.8448 54.5818 46.8705 54.557 46.8894 54.5273C46.9082 54.4976 46.9196 54.4638 46.9227 54.4287L46.9854 53.7144C46.9919 53.6571 47.0206 53.6046 47.0652 53.5681C47.1099 53.5316 47.167 53.514 47.2245 53.519C47.282 53.524 47.3352 53.5513 47.3728 53.595C47.4105 53.6387 47.4296 53.6954 47.426 53.7529L46.8954 59.7851C46.8951 59.8279 46.9037 59.8703 46.9206 59.9097C46.9374 59.9491 46.9621 59.9847 46.9932 60.0141C47.0243 60.0436 47.0611 60.0663 47.1014 60.081C47.1416 60.0957 47.1845 60.1019 47.2272 60.0994H53.8525C53.8955 60.1019 53.9385 60.0956 53.9789 60.0808C54.0193 60.066 54.0562 60.0431 54.0873 60.0133C54.1185 59.9836 54.1432 59.9479 54.1599 59.9082C54.1766 59.8685 54.1849 59.8259 54.1844 59.7828C54.0905 58.7762 53.7019 54.671 53.6157 53.7542C53.6116 53.6968 53.6301 53.6401 53.6673 53.5962C53.7044 53.5523 53.7573 53.5247 53.8146 53.5193C53.8718 53.5139 53.9289 53.5311 53.9737 53.5673C54.0184 53.6035 54.0471 53.6558 54.0537 53.7129L54.1205 54.42C54.1238 54.4547 54.1353 54.4882 54.1541 54.5176C54.1729 54.547 54.1984 54.5715 54.2285 54.5891C54.2587 54.6067 54.2925 54.6168 54.3274 54.6187C54.3622 54.6206 54.397 54.6142 54.4289 54.6L56.154 53.8303C56.1917 53.8125 56.2209 53.7806 56.2353 53.7415C56.2496 53.7024 56.2481 53.6595 56.2309 53.6215ZM50.1133 57.8483C50.1115 57.9054 50.0876 57.9596 50.0466 57.9994C50.0056 58.0392 49.9507 58.0614 49.8936 58.0614C49.8364 58.0614 49.7815 58.0392 49.7405 57.9994C49.6995 57.9596 49.6756 57.9054 49.6739 57.8483V55.6328L49.4606 55.7646C49.411 55.7939 49.352 55.8026 49.2962 55.7888C49.2403 55.775 49.1921 55.7399 49.1619 55.6909C49.1317 55.642 49.1219 55.5831 49.1346 55.527C49.1473 55.4709 49.1815 55.422 49.2299 55.3909L49.7771 55.05C49.8106 55.0301 49.8487 55.0194 49.8877 55.0188C49.9266 55.0183 49.965 55.0279 49.999 55.0468C50.0331 55.0658 50.0616 55.0933 50.0816 55.1266C50.1017 55.16 50.1127 55.1981 50.1135 55.237L50.1133 57.8483ZM51.6939 57.8483C51.6939 57.9066 51.6707 57.9625 51.6295 58.0038C51.5883 58.045 51.5324 58.0681 51.4741 58.0681C51.4158 58.0681 51.3598 58.045 51.3186 58.0038C51.2774 57.9625 51.2542 57.9066 51.2542 57.8483V55.6328L51.0412 55.7646C50.9916 55.7952 50.9319 55.8049 50.8752 55.7915C50.8185 55.7781 50.7695 55.7427 50.7389 55.6932C50.7083 55.6436 50.6986 55.5839 50.712 55.5272C50.7254 55.4705 50.7608 55.4215 50.8103 55.3909L51.3575 55.05C51.391 55.0301 51.4291 55.0194 51.468 55.0188C51.507 55.0183 51.5454 55.0279 51.5794 55.0468C51.6135 55.0658 51.642 55.0933 51.662 55.1266C51.6821 55.16 51.6931 55.1981 51.6939 55.237V57.8483Z" fill="#FAFAFA"/>
<path d="M50.1133 57.8483C50.1115 57.9054 50.0876 57.9596 50.0466 57.9994C50.0056 58.0392 49.9507 58.0614 49.8936 58.0614C49.8364 58.0614 49.7815 58.0392 49.7405 57.9994C49.6995 57.9596 49.6756 57.9054 49.6739 57.8483V55.6328L49.4606 55.7646C49.411 55.7939 49.352 55.8026 49.2962 55.7888C49.2403 55.775 49.1921 55.7399 49.1619 55.6909C49.1317 55.642 49.1219 55.5831 49.1346 55.527C49.1473 55.4709 49.1815 55.422 49.2299 55.3909L49.7771 55.05C49.8106 55.0301 49.8487 55.0194 49.8877 55.0188C49.9266 55.0183 49.965 55.0279 49.999 55.0468C50.0331 55.0658 50.0616 55.0933 50.0816 55.1266C50.1017 55.16 50.1127 55.1981 50.1135 55.237L50.1133 57.8483Z" fill="#FAFAFA"/>
<path d="M51.6939 57.8483C51.6939 57.9066 51.6707 57.9625 51.6295 58.0038C51.5883 58.045 51.5324 58.0681 51.4741 58.0681C51.4158 58.0681 51.3598 58.045 51.3186 58.0038C51.2774 57.9625 51.2542 57.9066 51.2542 57.8483V55.6328L51.0412 55.7646C50.9916 55.7952 50.9319 55.8049 50.8752 55.7915C50.8185 55.7781 50.7695 55.7427 50.7389 55.6932C50.7083 55.6436 50.6986 55.5839 50.712 55.5272C50.7254 55.4705 50.7608 55.4215 50.8103 55.3909L51.3575 55.05C51.391 55.0301 51.4291 55.0194 51.468 55.0188C51.507 55.0183 51.5454 55.0279 51.5794 55.0468C51.6135 55.0658 51.642 55.0933 51.662 55.1266C51.6821 55.16 51.6931 55.1981 51.6939 55.237V57.8483Z" fill="#FAFAFA"/>
<path d="M49.5 55.332H51.7917" stroke="#191919" stroke-width="0.343756" stroke-linecap="round" stroke-linejoin="round"/>
<path d="M50.646 56.4792V54.1875" stroke="#191919" stroke-width="0.343756" stroke-linecap="round" stroke-linejoin="round"/>
<path d="M30.531 50.8673C30.8999 50.8668 31.2536 50.7201 31.5144 50.4593C31.7753 50.1984 31.922 49.8448 31.9224 49.4759V48.9944C31.0023 49.1677 30.0572 49.161 29.1396 48.9746V49.4759C29.1401 49.8448 29.2868 50.1984 29.5477 50.4593C29.8085 50.7201 30.1621 50.8668 30.531 50.8673Z" fill="#FAFAFA"/>
<path d="M36.2309 53.6215L35.09 51.2233C34.8748 50.7743 34.4957 50.425 34.0307 50.2472L33.16 49.9154C32.8154 49.8135 32.564 49.4088 32.3619 49.1328V49.4102C32.3702 49.666 32.325 49.9208 32.2292 50.1582C32.1335 50.3956 31.9894 50.6104 31.806 50.789C31.6226 50.9675 31.4039 51.1059 31.1641 51.1953C30.9242 51.2846 30.6683 51.323 30.4128 51.3079C30.1573 51.2928 29.9077 51.2247 29.68 51.1077C29.4523 50.9908 29.2515 50.8277 29.0903 50.6288C28.9292 50.4299 28.8113 50.1997 28.7441 49.9526C28.6769 49.7056 28.662 49.4473 28.7003 49.1942C28.5497 49.4837 28.3035 49.7121 28.0035 49.8404L27.1878 50.1329C26.7197 50.2985 26.3338 50.6388 26.1108 51.0824L24.8312 53.6215C24.8135 53.66 24.8116 53.7039 24.826 53.7438C24.8404 53.7837 24.8699 53.8163 24.9082 53.8346L26.6125 54.6096C26.6445 54.6242 26.6795 54.6309 26.7147 54.6291C26.7498 54.6274 26.784 54.6172 26.8144 54.5995C26.8448 54.5818 26.8705 54.557 26.8894 54.5273C26.9082 54.4976 26.9196 54.4638 26.9227 54.4287L26.9854 53.7144C26.9919 53.6571 27.0206 53.6046 27.0652 53.5681C27.1099 53.5316 27.167 53.514 27.2245 53.519C27.282 53.524 27.3352 53.5513 27.3728 53.595C27.4105 53.6387 27.4296 53.6954 27.426 53.7529L26.8954 59.7851C26.8951 59.8279 26.9037 59.8703 26.9206 59.9097C26.9374 59.9491 26.9621 59.9847 26.9932 60.0141C27.0243 60.0436 27.0611 60.0663 27.1014 60.081C27.1416 60.0957 27.1845 60.1019 27.2272 60.0994H33.8525C33.8955 60.1019 33.9385 60.0956 33.9789 60.0808C34.0193 60.066 34.0562 60.0431 34.0873 60.0133C34.1185 59.9836 34.1432 59.9479 34.1599 59.9082C34.1766 59.8685 34.1849 59.8259 34.1844 59.7828C34.0905 58.7762 33.7019 54.671 33.6157 53.7542C33.6116 53.6968 33.6301 53.6401 33.6673 53.5962C33.7044 53.5523 33.7573 53.5247 33.8146 53.5193C33.8718 53.5139 33.9289 53.5311 33.9737 53.5673C34.0184 53.6035 34.0471 53.6558 34.0537 53.7129L34.1205 54.42C34.1238 54.4547 34.1353 54.4882 34.1541 54.5176C34.1729 54.547 34.1984 54.5715 34.2285 54.5891C34.2587 54.6067 34.2925 54.6168 34.3274 54.6187C34.3622 54.6206 34.397 54.6142 34.4289 54.6L36.154 53.8303C36.1917 53.8125 36.2209 53.7806 36.2353 53.7415C36.2496 53.7024 36.2481 53.6595 36.2309 53.6215ZM30.1133 57.8483C30.1115 57.9054 30.0876 57.9596 30.0466 57.9994C30.0056 58.0392 29.9507 58.0614 29.8936 58.0614C29.8364 58.0614 29.7815 58.0392 29.7405 57.9994C29.6995 57.9596 29.6756 57.9054 29.6739 57.8483V55.6328L29.4606 55.7646C29.411 55.7939 29.352 55.8026 29.2962 55.7888C29.2403 55.775 29.1921 55.7399 29.1619 55.6909C29.1317 55.642 29.1219 55.5831 29.1346 55.527C29.1473 55.4709 29.1815 55.422 29.2299 55.3909L29.7771 55.05C29.8106 55.0301 29.8487 55.0194 29.8877 55.0188C29.9266 55.0183 29.965 55.0279 29.999 55.0468C30.0331 55.0658 30.0616 55.0933 30.0816 55.1266C30.1017 55.16 30.1127 55.1981 30.1135 55.237L30.1133 57.8483ZM31.6939 57.8483C31.6939 57.9066 31.6707 57.9625 31.6295 58.0038C31.5883 58.045 31.5324 58.0681 31.4741 58.0681C31.4158 58.0681 31.3598 58.045 31.3186 58.0038C31.2774 57.9625 31.2542 57.9066 31.2542 57.8483V55.6328L31.0412 55.7646C30.9916 55.7952 30.9319 55.8049 30.8752 55.7915C30.8185 55.7781 30.7695 55.7427 30.7389 55.6932C30.7083 55.6436 30.6986 55.5839 30.712 55.5272C30.7254 55.4705 30.7608 55.4215 30.8103 55.3909L31.3575 55.05C31.391 55.0301 31.4291 55.0194 31.468 55.0188C31.507 55.0183 31.5454 55.0279 31.5794 55.0468C31.6135 55.0658 31.642 55.0933 31.662 55.1266C31.6821 55.16 31.6931 55.1981 31.6939 55.237V57.8483Z" fill="#FAFAFA"/>
<path d="M30.1133 57.8483C30.1115 57.9054 30.0876 57.9596 30.0466 57.9994C30.0056 58.0392 29.9507 58.0614 29.8936 58.0614C29.8364 58.0614 29.7815 58.0392 29.7405 57.9994C29.6995 57.9596 29.6756 57.9054 29.6739 57.8483V55.6328L29.4606 55.7646C29.411 55.7939 29.352 55.8026 29.2962 55.7888C29.2403 55.775 29.1921 55.7399 29.1619 55.6909C29.1317 55.642 29.1219 55.5831 29.1346 55.527C29.1473 55.4709 29.1815 55.422 29.2299 55.3909L29.7771 55.05C29.8106 55.0301 29.8487 55.0194 29.8877 55.0188C29.9266 55.0183 29.965 55.0279 29.999 55.0468C30.0331 55.0658 30.0616 55.0933 30.0816 55.1266C30.1017 55.16 30.1127 55.1981 30.1135 55.237L30.1133 57.8483Z" fill="#FAFAFA"/>
<path d="M31.6939 57.8483C31.6939 57.9066 31.6707 57.9625 31.6295 58.0038C31.5883 58.045 31.5324 58.0681 31.4741 58.0681C31.4158 58.0681 31.3598 58.045 31.3186 58.0038C31.2774 57.9625 31.2542 57.9066 31.2542 57.8483V55.6328L31.0412 55.7646C30.9916 55.7952 30.9319 55.8049 30.8752 55.7915C30.8185 55.7781 30.7695 55.7427 30.7389 55.6932C30.7083 55.6436 30.6986 55.5839 30.712 55.5272C30.7254 55.4705 30.7608 55.4215 30.8103 55.3909L31.3575 55.05C31.391 55.0301 31.4291 55.0194 31.468 55.0188C31.507 55.0183 31.5454 55.0279 31.5794 55.0468C31.6135 55.0658 31.642 55.0933 31.662 55.1266C31.6821 55.16 31.6931 55.1981 31.6939 55.237V57.8483Z" fill="#FAFAFA"/>
<path d="M29.5 55.332H31.7917" stroke="#191919" stroke-width="0.343756" stroke-linecap="round" stroke-linejoin="round"/>
<path d="M30.646 56.4792V54.1875" stroke="#191919" stroke-width="0.343756" stroke-linecap="round" stroke-linejoin="round"/>
<path d="M8.53103 31.8673C8.89992 31.8668 9.25357 31.7201 9.51442 31.4593C9.77526 31.1984 9.92199 30.8448 9.92242 30.4759V29.9944C9.00227 30.1677 8.05724 30.161 7.13965 29.9746V30.4759C7.14008 30.8448 7.28681 31.1984 7.54765 31.4593C7.8085 31.7201 8.16215 31.8668 8.53103 31.8673Z" fill="#FAFAFA"/>
<path d="M14.2309 34.6215L13.09 32.2233C12.8748 31.7743 12.4957 31.425 12.0307 31.2472L11.16 30.9154C10.8154 30.8135 10.564 30.4088 10.3619 30.1328V30.4102C10.3702 30.666 10.325 30.9208 10.2292 31.1582C10.1335 31.3956 9.98936 31.6104 9.80596 31.789C9.62256 31.9675 9.40395 32.1059 9.16407 32.1953C8.9242 32.2846 8.66834 32.323 8.41281 32.3079C8.15728 32.2928 7.9077 32.2247 7.67999 32.1077C7.45228 31.9908 7.25145 31.8277 7.09031 31.6288C6.92917 31.4299 6.81126 31.1997 6.7441 30.9526C6.67694 30.7056 6.66202 30.4473 6.70027 30.1942C6.5497 30.4837 6.30346 30.7121 6.00345 30.8404L5.18785 31.1329C4.71972 31.2985 4.33377 31.6388 4.11078 32.0824L2.83125 34.6215C2.81348 34.66 2.81159 34.7039 2.82599 34.7438C2.84039 34.7837 2.86993 34.8163 2.90819 34.8346L4.61247 35.6096C4.64449 35.6242 4.67954 35.6309 4.71468 35.6291C4.74982 35.6274 4.78403 35.6172 4.81443 35.5995C4.84483 35.5818 4.87053 35.557 4.88937 35.5273C4.90821 35.4976 4.91965 35.4638 4.92271 35.4287L4.98537 34.7144C4.99191 34.6571 5.02056 34.6046 5.06522 34.5681C5.10989 34.5316 5.16704 34.514 5.2245 34.519C5.28195 34.524 5.33517 34.5513 5.37282 34.595C5.41047 34.6387 5.42956 34.6954 5.42604 34.7529L4.89536 40.7851C4.89515 40.8279 4.90372 40.8703 4.92055 40.9097C4.93739 40.9491 4.96212 40.9847 4.99322 41.0141C5.02433 41.0436 5.06114 41.0663 5.10139 41.081C5.14164 41.0957 5.18447 41.1019 5.22724 41.0994H11.8525C11.8955 41.1019 11.9385 41.0956 11.9789 41.0808C12.0193 41.066 12.0562 41.0431 12.0873 41.0133C12.1185 40.9836 12.1432 40.9479 12.1599 40.9082C12.1766 40.8685 12.1849 40.8259 12.1844 40.7828C12.0905 39.7762 11.7019 35.671 11.6157 34.7542C11.6116 34.6968 11.6301 34.6401 11.6673 34.5962C11.7044 34.5523 11.7573 34.5247 11.8146 34.5193C11.8718 34.5139 11.9289 34.5311 11.9737 34.5673C12.0184 34.6035 12.0471 34.6558 12.0537 34.7129L12.1205 35.42C12.1238 35.4547 12.1353 35.4882 12.1541 35.5176C12.1729 35.547 12.1984 35.5715 12.2285 35.5891C12.2587 35.6067 12.2925 35.6168 12.3274 35.6187C12.3622 35.6206 12.397 35.6142 12.4289 35.6L14.154 34.8303C14.1917 34.8125 14.2209 34.7806 14.2353 34.7415C14.2496 34.7024 14.2481 34.6595 14.2309 34.6215ZM8.11329 38.8483C8.11155 38.9054 8.08764 38.9596 8.04662 38.9994C8.00561 39.0392 7.95071 39.0614 7.89357 39.0614C7.83643 39.0614 7.78153 39.0392 7.74052 38.9994C7.6995 38.9596 7.67559 38.9054 7.67385 38.8483V36.6328L7.46056 36.7646C7.41104 36.7939 7.35201 36.8026 7.29616 36.7888C7.2403 36.775 7.19208 36.7399 7.16187 36.6909C7.13166 36.642 7.12186 36.5831 7.13458 36.527C7.14731 36.4709 7.18154 36.422 7.22992 36.3909L7.77713 36.05C7.81061 36.0301 7.84872 36.0194 7.88766 36.0188C7.9266 36.0183 7.965 36.0279 7.99904 36.0468C8.03308 36.0658 8.06156 36.0933 8.08165 36.1266C8.10173 36.16 8.11271 36.1981 8.11349 36.237L8.11329 38.8483ZM9.69388 38.8483C9.69388 38.9066 9.67072 38.9625 9.6295 39.0038C9.58827 39.045 9.53236 39.0681 9.47406 39.0681C9.41576 39.0681 9.35985 39.045 9.31862 39.0038C9.2774 38.9625 9.25424 38.9066 9.25424 38.8483V36.6328L9.04115 36.7646C8.99159 36.7952 8.93191 36.8049 8.87522 36.7915C8.81853 36.7781 8.76949 36.7427 8.73887 36.6932C8.70826 36.6436 8.69859 36.5839 8.71199 36.5272C8.72538 36.4705 8.76075 36.4215 8.81031 36.3909L9.35752 36.05C9.391 36.0301 9.42911 36.0194 9.46805 36.0188C9.50699 36.0183 9.54539 36.0279 9.57943 36.0468C9.61347 36.0658 9.64195 36.0933 9.66203 36.1266C9.68212 36.16 9.6931 36.1981 9.69388 36.237V38.8483Z" fill="#FAFAFA"/>
<path d="M8.11329 38.8483C8.11155 38.9054 8.08764 38.9596 8.04662 38.9994C8.00561 39.0392 7.95071 39.0614 7.89357 39.0614C7.83643 39.0614 7.78153 39.0392 7.74052 38.9994C7.6995 38.9596 7.67559 38.9054 7.67385 38.8483V36.6328L7.46056 36.7646C7.41104 36.7939 7.35201 36.8026 7.29616 36.7888C7.2403 36.775 7.19208 36.7399 7.16187 36.6909C7.13166 36.642 7.12186 36.5831 7.13458 36.527C7.14731 36.4709 7.18154 36.422 7.22992 36.3909L7.77713 36.05C7.81061 36.0301 7.84872 36.0194 7.88766 36.0188C7.9266 36.0183 7.965 36.0279 7.99904 36.0468C8.03308 36.0658 8.06156 36.0933 8.08165 36.1266C8.10173 36.16 8.11271 36.1981 8.11349 36.237L8.11329 38.8483Z" fill="#FAFAFA"/>
<path d="M9.69388 38.8483C9.69388 38.9066 9.67072 38.9625 9.6295 39.0038C9.58827 39.045 9.53236 39.0681 9.47406 39.0681C9.41576 39.0681 9.35985 39.045 9.31862 39.0038C9.2774 38.9625 9.25424 38.9066 9.25424 38.8483V36.6328L9.04115 36.7646C8.99159 36.7952 8.93191 36.8049 8.87522 36.7915C8.81853 36.7781 8.76949 36.7427 8.73887 36.6932C8.70826 36.6436 8.69859 36.5839 8.71199 36.5272C8.72538 36.4705 8.76075 36.4215 8.81031 36.3909L9.35752 36.05C9.391 36.0301 9.42911 36.0194 9.46805 36.0188C9.50699 36.0183 9.54539 36.0279 9.57943 36.0468C9.61347 36.0658 9.64195 36.0933 9.66203 36.1266C9.68212 36.16 9.6931 36.1981 9.69388 36.237V38.8483Z" fill="#FAFAFA"/>
<path d="M7.5 36.332H9.79171" stroke="#191919" stroke-width="0.343756" stroke-linecap="round" stroke-linejoin="round"/>
<path d="M8.646 37.4792V35.1875" stroke="#191919" stroke-width="0.343756" stroke-linecap="round" stroke-linejoin="round"/>
<g clip-path="url(#clip2_8754_16550)">
<path d="M23.5938 22.8673C23.9627 22.8668 24.3163 22.7201 24.5772 22.4593C24.838 22.1984 24.9847 21.8448 24.9852 21.4759V20.9944C24.065 21.1677 23.12 21.161 22.2024 20.9746V21.4759C22.2028 21.8448 22.3496 22.1984 22.6104 22.4593C22.8712 22.7201 23.2249 22.8668 23.5938 22.8673Z" fill="#FAFAFA"/>
<path d="M29.2937 25.6215L28.1527 23.2233C27.9376 22.7743 27.5584 22.425 27.0934 22.2472L26.2227 21.9154C25.8782 21.8135 25.6267 21.4088 25.4247 21.1328V21.4102C25.4329 21.666 25.3877 21.9208 25.292 22.1582C25.1963 22.3956 25.0521 22.6104 24.8687 22.789C24.6853 22.9675 24.4667 23.1059 24.2268 23.1953C23.9869 23.2846 23.7311 23.323 23.4756 23.3079C23.22 23.2928 22.9704 23.2247 22.7427 23.1077C22.515 22.9908 22.3142 22.8277 22.1531 22.6288C21.9919 22.4299 21.874 22.1997 21.8068 21.9526C21.7397 21.7056 21.7248 21.4473 21.763 21.1942C21.6124 21.4837 21.3662 21.7121 21.0662 21.8404L20.2506 22.1329C19.7825 22.2985 19.3965 22.6388 19.1735 23.0824L17.894 25.6215C17.8762 25.66 17.8743 25.7039 17.8887 25.7438C17.9031 25.7837 17.9327 25.8163 17.9709 25.8346L19.6752 26.6096C19.7072 26.6242 19.7423 26.6309 19.7774 26.6291C19.8126 26.6274 19.8468 26.6172 19.8772 26.5995C19.9076 26.5818 19.9333 26.557 19.9521 26.5273C19.971 26.4976 19.9824 26.4638 19.9855 26.4287L20.0481 25.7144C20.0547 25.6571 20.0833 25.6046 20.128 25.5681C20.1726 25.5316 20.2298 25.514 20.2872 25.519C20.3447 25.524 20.3979 25.5513 20.4356 25.595C20.4732 25.6387 20.4923 25.6954 20.4888 25.7529L19.9581 31.7851C19.9579 31.8279 19.9665 31.8703 19.9833 31.9097C20.0001 31.9491 20.0249 31.9847 20.056 32.0141C20.0871 32.0436 20.1239 32.0663 20.1641 32.081C20.2044 32.0957 20.2472 32.1019 20.29 32.0994H26.9152C26.9582 32.1019 27.0012 32.0956 27.0416 32.0808C27.082 32.066 27.119 32.0431 27.1501 32.0133C27.1812 31.9836 27.2059 31.9479 27.2226 31.9082C27.2393 31.8685 27.2476 31.8259 27.2471 31.7828C27.1532 30.7762 26.7646 26.671 26.6785 25.7542C26.6743 25.6968 26.6928 25.6401 26.73 25.5962C26.7672 25.5523 26.82 25.5247 26.8773 25.5193C26.9346 25.5139 26.9917 25.5311 27.0364 25.5673C27.0811 25.6035 27.1099 25.6558 27.1165 25.7129L27.1832 26.42C27.1865 26.4547 27.198 26.4882 27.2168 26.5176C27.2356 26.547 27.2611 26.5715 27.2913 26.5891C27.3214 26.6067 27.3553 26.6168 27.3901 26.6187C27.425 26.6206 27.4598 26.6142 27.4916 26.6L29.2167 25.8303C29.2544 25.8125 29.2836 25.7806 29.298 25.7415C29.3124 25.7024 29.3108 25.6595 29.2937 25.6215ZM23.176 29.8483C23.1743 29.9054 23.1504 29.9596 23.1094 29.9994C23.0684 30.0392 23.0135 30.0614 22.9563 30.0614C22.8992 30.0614 22.8443 30.0392 22.8033 29.9994C22.7622 29.9596 22.7383 29.9054 22.7366 29.8483V27.6328L22.5233 27.7646C22.4738 27.7939 22.4148 27.8026 22.3589 27.7888C22.303 27.775 22.2548 27.7399 22.2246 27.6909C22.1944 27.642 22.1846 27.5831 22.1973 27.527C22.2101 27.4709 22.2443 27.422 22.2927 27.3909L22.8399 27.05C22.8734 27.0301 22.9115 27.0194 22.9504 27.0188C22.9893 27.0183 23.0277 27.0279 23.0618 27.0468C23.0958 27.0658 23.1243 27.0933 23.1444 27.1266C23.1645 27.16 23.1755 27.1981 23.1762 27.237L23.176 29.8483ZM24.7566 29.8483C24.7566 29.9066 24.7335 29.9625 24.6922 30.0038C24.651 30.045 24.5951 30.0681 24.5368 30.0681C24.4785 30.0681 24.4226 30.045 24.3814 30.0038C24.3401 29.9625 24.317 29.9066 24.317 29.8483V27.6328L24.1039 27.7646C24.0543 27.7952 23.9947 27.8049 23.938 27.7915C23.8813 27.7781 23.8322 27.7427 23.8016 27.6932C23.771 27.6436 23.7613 27.5839 23.7747 27.5272C23.7881 27.4705 23.8235 27.4215 23.8731 27.3909L24.4203 27.05C24.4537 27.0301 24.4919 27.0194 24.5308 27.0188C24.5697 27.0183 24.6081 27.0279 24.6422 27.0468C24.6762 27.0658 24.7047 27.0933 24.7248 27.1266C24.7449 27.16 24.7558 27.1981 24.7566 27.237V29.8483Z" fill="#FAFAFA"/>
<path d="M23.176 29.8483C23.1743 29.9054 23.1504 29.9596 23.1094 29.9994C23.0684 30.0392 23.0135 30.0614 22.9563 30.0614C22.8992 30.0614 22.8443 30.0392 22.8033 29.9994C22.7622 29.9596 22.7383 29.9054 22.7366 29.8483V27.6328L22.5233 27.7646C22.4738 27.7939 22.4148 27.8026 22.3589 27.7888C22.303 27.775 22.2548 27.7399 22.2246 27.6909C22.1944 27.642 22.1846 27.5831 22.1973 27.527C22.2101 27.4709 22.2443 27.422 22.2927 27.3909L22.8399 27.05C22.8734 27.0301 22.9115 27.0194 22.9504 27.0188C22.9893 27.0183 23.0277 27.0279 23.0618 27.0468C23.0958 27.0658 23.1243 27.0933 23.1444 27.1266C23.1645 27.16 23.1755 27.1981 23.1762 27.237L23.176 29.8483Z" fill="#FAFAFA"/>
<path d="M24.7566 29.8483C24.7566 29.9066 24.7335 29.9625 24.6922 30.0038C24.651 30.045 24.5951 30.0681 24.5368 30.0681C24.4785 30.0681 24.4226 30.045 24.3814 30.0038C24.3401 29.9625 24.317 29.9066 24.317 29.8483V27.6328L24.1039 27.7646C24.0543 27.7952 23.9947 27.8049 23.938 27.7915C23.8813 27.7781 23.8322 27.7427 23.8016 27.6932C23.771 27.6436 23.7613 27.5839 23.7747 27.5272C23.7881 27.4705 23.8235 27.4215 23.8731 27.3909L24.4203 27.05C24.4537 27.0301 24.4919 27.0194 24.5308 27.0188C24.5697 27.0183 24.6081 27.0279 24.6422 27.0468C24.6762 27.0658 24.7047 27.0933 24.7248 27.1266C24.7449 27.16 24.7558 27.1981 24.7566 27.237V29.8483Z" fill="#FAFAFA"/>
<path d="M22.5627 27.332H24.8545" stroke="#191919" stroke-width="0.343756" stroke-linecap="round" stroke-linejoin="round"/>
<path d="M23.7087 28.4792V26.1875" stroke="#191919" stroke-width="0.343756" stroke-linecap="round" stroke-linejoin="round"/>
</g>
<g clip-path="url(#clip3_8754_16550)">
<path d="M40.6565 31.8673C41.0254 31.8668 41.3791 31.7201 41.6399 31.4593C41.9007 31.1984 42.0475 30.8448 42.0479 30.4759V29.9944C41.1278 30.1677 40.1827 30.161 39.2651 29.9746V30.4759C39.2656 30.8448 39.4123 31.1984 39.6731 31.4593C39.934 31.7201 40.2876 31.8668 40.6565 31.8673Z" fill="#FAFAFA"/>
<path d="M46.3564 34.6215L45.2155 32.2233C45.0003 31.7743 44.6212 31.425 44.1562 31.2472L43.2855 30.9154C42.9409 30.8135 42.6895 30.4088 42.4874 30.1328V30.4102C42.4956 30.666 42.4505 30.9208 42.3547 31.1582C42.259 31.3956 42.1148 31.6104 41.9314 31.789C41.748 31.9675 41.5294 32.1059 41.2896 32.1953C41.0497 32.2846 40.7938 32.323 40.5383 32.3079C40.2828 32.2928 40.0332 32.2247 39.8055 32.1077C39.5778 31.9908 39.3769 31.8277 39.2158 31.6288C39.0547 31.4299 38.9367 31.1997 38.8696 30.9526C38.8024 30.7056 38.7875 30.4473 38.8258 30.1942C38.6752 30.4837 38.4289 30.7121 38.1289 30.8404L37.3133 31.1329C36.8452 31.2985 36.4593 31.6388 36.2363 32.0824L34.9567 34.6215C34.939 34.66 34.9371 34.7039 34.9515 34.7438C34.9659 34.7837 34.9954 34.8163 35.0337 34.8346L36.738 35.6096C36.77 35.6242 36.805 35.6309 36.8402 35.6291C36.8753 35.6274 36.9095 35.6172 36.9399 35.5995C36.9703 35.5818 36.996 35.557 37.0149 35.5273C37.0337 35.4976 37.0451 35.4638 37.0482 35.4287L37.1109 34.7144C37.1174 34.6571 37.146 34.6046 37.1907 34.5681C37.2354 34.5316 37.2925 34.514 37.35 34.519C37.4074 34.524 37.4607 34.5513 37.4983 34.595C37.536 34.6387 37.5551 34.6954 37.5515 34.7529L37.0209 40.7851C37.0206 40.8279 37.0292 40.8703 37.046 40.9097C37.0629 40.9491 37.0876 40.9847 37.1187 41.0141C37.1498 41.0436 37.1866 41.0663 37.2269 41.081C37.2671 41.0957 37.31 41.1019 37.3527 41.0994H43.978C44.0209 41.1019 44.064 41.0956 44.1044 41.0808C44.1448 41.066 44.1817 41.0431 44.2128 41.0133C44.244 40.9836 44.2687 40.9479 44.2853 40.9082C44.302 40.8685 44.3104 40.8259 44.3099 40.7828C44.216 39.7762 43.8274 35.671 43.7412 34.7542C43.7371 34.6968 43.7556 34.6401 43.7927 34.5962C43.8299 34.5523 43.8828 34.5247 43.9401 34.5193C43.9973 34.5139 44.0544 34.5311 44.0991 34.5673C44.1438 34.6035 44.1726 34.6558 44.1792 34.7129L44.246 35.42C44.2493 35.4547 44.2608 35.4882 44.2796 35.5176C44.2984 35.547 44.3239 35.5715 44.354 35.5891C44.3841 35.6067 44.418 35.6168 44.4529 35.6187C44.4877 35.6206 44.5225 35.6142 44.5544 35.6L46.2795 34.8303C46.3172 34.8125 46.3463 34.7806 46.3607 34.7415C46.3751 34.7024 46.3736 34.6595 46.3564 34.6215ZM40.2388 38.8483C40.237 38.9054 40.2131 38.9596 40.1721 38.9994C40.1311 39.0392 40.0762 39.0614 40.0191 39.0614C39.9619 39.0614 39.907 39.0392 39.866 38.9994C39.825 38.9596 39.8011 38.9054 39.7993 38.8483V36.6328L39.586 36.7646C39.5365 36.7939 39.4775 36.8026 39.4216 36.7888C39.3658 36.775 39.3176 36.7399 39.2874 36.6909C39.2571 36.642 39.2473 36.5831 39.2601 36.527C39.2728 36.4709 39.307 36.422 39.3554 36.3909L39.9026 36.05C39.9361 36.0301 39.9742 36.0194 40.0131 36.0188C40.0521 36.0183 40.0905 36.0279 40.1245 36.0468C40.1586 36.0658 40.1871 36.0933 40.2071 36.1266C40.2272 36.16 40.2382 36.1981 40.239 36.237L40.2388 38.8483ZM41.8194 38.8483C41.8194 38.9066 41.7962 38.9625 41.755 39.0038C41.7138 39.045 41.6578 39.0681 41.5995 39.0681C41.5412 39.0681 41.4853 39.045 41.4441 39.0038C41.4029 38.9625 41.3797 38.9066 41.3797 38.8483V36.6328L41.1666 36.7646C41.1171 36.7952 41.0574 36.8049 41.0007 36.7915C40.944 36.7781 40.895 36.7427 40.8644 36.6932C40.8338 36.6436 40.8241 36.5839 40.8375 36.5272C40.8509 36.4705 40.8862 36.4215 40.9358 36.3909L41.483 36.05C41.5165 36.0301 41.5546 36.0194 41.5935 36.0188C41.6325 36.0183 41.6709 36.0279 41.7049 36.0468C41.739 36.0658 41.7674 36.0933 41.7875 36.1266C41.8076 36.16 41.8186 36.1981 41.8194 36.237V38.8483Z" fill="#FAFAFA"/>
<path d="M40.2388 38.8483C40.237 38.9054 40.2131 38.9596 40.1721 38.9994C40.1311 39.0392 40.0762 39.0614 40.0191 39.0614C39.9619 39.0614 39.907 39.0392 39.866 38.9994C39.825 38.9596 39.8011 38.9054 39.7993 38.8483V36.6328L39.586 36.7646C39.5365 36.7939 39.4775 36.8026 39.4216 36.7888C39.3658 36.775 39.3176 36.7399 39.2874 36.6909C39.2571 36.642 39.2473 36.5831 39.2601 36.527C39.2728 36.4709 39.307 36.422 39.3554 36.3909L39.9026 36.05C39.9361 36.0301 39.9742 36.0194 40.0131 36.0188C40.0521 36.0183 40.0905 36.0279 40.1245 36.0468C40.1586 36.0658 40.1871 36.0933 40.2071 36.1266C40.2272 36.16 40.2382 36.1981 40.239 36.237L40.2388 38.8483Z" fill="#FAFAFA"/>
<path d="M41.8194 38.8483C41.8194 38.9066 41.7962 38.9625 41.755 39.0038C41.7138 39.045 41.6578 39.0681 41.5995 39.0681C41.5412 39.0681 41.4853 39.045 41.4441 39.0038C41.4029 38.9625 41.3797 38.9066 41.3797 38.8483V36.6328L41.1666 36.7646C41.1171 36.7952 41.0574 36.8049 41.0007 36.7915C40.944 36.7781 40.895 36.7427 40.8644 36.6932C40.8338 36.6436 40.8241 36.5839 40.8375 36.5272C40.8509 36.4705 40.8862 36.4215 40.9358 36.3909L41.483 36.05C41.5165 36.0301 41.5546 36.0194 41.5935 36.0188C41.6325 36.0183 41.6709 36.0279 41.7049 36.0468C41.739 36.0658 41.7674 36.0933 41.7875 36.1266C41.8076 36.16 41.8186 36.1981 41.8194 36.237V38.8483Z" fill="#FAFAFA"/>
<path d="M39.6255 36.332H41.9172" stroke="#191919" stroke-width="0.343756" stroke-linecap="round" stroke-linejoin="round"/>
<path d="M40.7715 37.4792V35.1875" stroke="#191919" stroke-width="0.343756" stroke-linecap="round" stroke-linejoin="round"/>
</g>
<path d="M56.7193 22.8673C57.0882 22.8668 57.4418 22.7201 57.7026 22.4593C57.9635 22.1984 58.1102 21.8448 58.1107 21.4759V20.9944C57.1905 21.1677 56.2455 21.161 55.3279 20.9746V21.4759C55.3283 21.8448 55.475 22.1984 55.7359 22.4593C55.9967 22.7201 56.3504 22.8668 56.7193 22.8673Z" fill="#FAFAFA"/>
<path d="M62.4192 25.6215L61.2782 23.2233C61.063 22.7743 60.6839 22.425 60.2189 22.2472L59.3482 21.9154C59.0037 21.8135 58.7522 21.4088 58.5502 21.1328V21.4102C58.5584 21.666 58.5132 21.9208 58.4175 22.1582C58.3218 22.3956 58.1776 22.6104 57.9942 22.789C57.8108 22.9675 57.5922 23.1059 57.3523 23.1953C57.1124 23.2846 56.8566 23.323 56.601 23.3079C56.3455 23.2928 56.0959 23.2247 55.8682 23.1077C55.6405 22.9908 55.4397 22.8277 55.2785 22.6288C55.1174 22.4299 54.9995 22.1997 54.9323 21.9526C54.8652 21.7056 54.8502 21.4473 54.8885 21.1942C54.7379 21.4837 54.4917 21.7121 54.1917 21.8404L53.3761 22.1329C52.9079 22.2985 52.522 22.6388 52.299 23.0824L51.0195 25.6215C51.0017 25.66 50.9998 25.7039 51.0142 25.7438C51.0286 25.7837 51.0582 25.8163 51.0964 25.8346L52.8007 26.6096C52.8327 26.6242 52.8678 26.6309 52.9029 26.6291C52.9381 26.6274 52.9723 26.6172 53.0027 26.5995C53.0331 26.5818 53.0588 26.557 53.0776 26.5273C53.0964 26.4976 53.1079 26.4638 53.1109 26.4287L53.1736 25.7144C53.1801 25.6571 53.2088 25.6046 53.2535 25.5681C53.2981 25.5316 53.3553 25.514 53.4127 25.519C53.4702 25.524 53.5234 25.5513 53.5611 25.595C53.5987 25.6387 53.6178 25.6954 53.6143 25.7529L53.0836 31.7851C53.0834 31.8279 53.092 31.8703 53.1088 31.9097C53.1256 31.9491 53.1504 31.9847 53.1815 32.0141C53.2126 32.0436 53.2494 32.0663 53.2896 32.081C53.3299 32.0957 53.3727 32.1019 53.4155 32.0994H60.0407C60.0837 32.1019 60.1267 32.0956 60.1671 32.0808C60.2075 32.066 60.2444 32.0431 60.2756 32.0133C60.3067 31.9836 60.3314 31.9479 60.3481 31.9082C60.3648 31.8685 60.3731 31.8259 60.3726 31.7828C60.2787 30.7762 59.8901 26.671 59.804 25.7542C59.7998 25.6968 59.8183 25.6401 59.8555 25.5962C59.8927 25.5523 59.9455 25.5247 60.0028 25.5193C60.0601 25.5139 60.1172 25.5311 60.1619 25.5673C60.2066 25.6035 60.2353 25.6558 60.242 25.7129L60.3087 26.42C60.312 26.4547 60.3235 26.4882 60.3423 26.5176C60.3611 26.547 60.3866 26.5715 60.4167 26.5891C60.4469 26.6067 60.4808 26.6168 60.5156 26.6187C60.5505 26.6206 60.5853 26.6142 60.6171 26.6L62.3422 25.8303C62.3799 25.8125 62.4091 25.7806 62.4235 25.7415C62.4379 25.7024 62.4363 25.6595 62.4192 25.6215ZM56.3015 29.8483C56.2998 29.9054 56.2759 29.9596 56.2349 29.9994C56.1938 30.0392 56.1389 30.0614 56.0818 30.0614C56.0247 30.0614 55.9698 30.0392 55.9288 29.9994C55.8877 29.9596 55.8638 29.9054 55.8621 29.8483V27.6328L55.6488 27.7646C55.5993 27.7939 55.5402 27.8026 55.4844 27.7888C55.4285 27.775 55.3803 27.7399 55.3501 27.6909C55.3199 27.642 55.3101 27.5831 55.3228 27.527C55.3355 27.4709 55.3698 27.422 55.4182 27.3909L55.9654 27.05C55.9988 27.0301 56.037 27.0194 56.0759 27.0188C56.1148 27.0183 56.1532 27.0279 56.1873 27.0468C56.2213 27.0658 56.2498 27.0933 56.2699 27.1266C56.29 27.16 56.3009 27.1981 56.3017 27.237L56.3015 29.8483ZM57.8821 29.8483C57.8821 29.9066 57.859 29.9625 57.8177 30.0038C57.7765 30.045 57.7206 30.0681 57.6623 30.0681C57.604 30.0681 57.5481 30.045 57.5069 30.0038C57.4656 29.9625 57.4425 29.9066 57.4425 29.8483V27.6328L57.2294 27.7646C57.1798 27.7952 57.1201 27.8049 57.0634 27.7915C57.0068 27.7781 56.9577 27.7427 56.9271 27.6932C56.8965 27.6436 56.8868 27.5839 56.9002 27.5272C56.9136 27.4705 56.949 27.4215 56.9985 27.3909L57.5457 27.05C57.5792 27.0301 57.6173 27.0194 57.6563 27.0188C57.6952 27.0183 57.7336 27.0279 57.7677 27.0468C57.8017 27.0658 57.8302 27.0933 57.8503 27.1266C57.8703 27.16 57.8813 27.1981 57.8821 27.237V29.8483Z" fill="#FAFAFA"/>
<path d="M56.3015 29.8483C56.2998 29.9054 56.2759 29.9596 56.2349 29.9994C56.1938 30.0392 56.1389 30.0614 56.0818 30.0614C56.0247 30.0614 55.9698 30.0392 55.9288 29.9994C55.8877 29.9596 55.8638 29.9054 55.8621 29.8483V27.6328L55.6488 27.7646C55.5993 27.7939 55.5402 27.8026 55.4844 27.7888C55.4285 27.775 55.3803 27.7399 55.3501 27.6909C55.3199 27.642 55.3101 27.5831 55.3228 27.527C55.3355 27.4709 55.3698 27.422 55.4182 27.3909L55.9654 27.05C55.9988 27.0301 56.037 27.0194 56.0759 27.0188C56.1148 27.0183 56.1532 27.0279 56.1873 27.0468C56.2213 27.0658 56.2498 27.0933 56.2699 27.1266C56.29 27.16 56.3009 27.1981 56.3017 27.237L56.3015 29.8483Z" fill="#FAFAFA"/>
<path d="M57.8821 29.8483C57.8821 29.9066 57.859 29.9625 57.8177 30.0038C57.7765 30.045 57.7206 30.0681 57.6623 30.0681C57.604 30.0681 57.5481 30.045 57.5069 30.0038C57.4656 29.9625 57.4425 29.9066 57.4425 29.8483V27.6328L57.2294 27.7646C57.1798 27.7952 57.1201 27.8049 57.0634 27.7915C57.0068 27.7781 56.9577 27.7427 56.9271 27.6932C56.8965 27.6436 56.8868 27.5839 56.9002 27.5272C56.9136 27.4705 56.949 27.4215 56.9985 27.3909L57.5457 27.05C57.5792 27.0301 57.6173 27.0194 57.6563 27.0188C57.6952 27.0183 57.7336 27.0279 57.7677 27.0468C57.8017 27.0658 57.8302 27.0933 57.8503 27.1266C57.8703 27.16 57.8813 27.1981 57.8821 27.237V29.8483Z" fill="#FAFAFA"/>
<path d="M55.6882 27.332H57.9799" stroke="#191919" stroke-width="0.343756" stroke-linecap="round" stroke-linejoin="round"/>
<path d="M56.8342 28.4792V26.1875" stroke="#191919" stroke-width="0.343756" stroke-linecap="round" stroke-linejoin="round"/>
<path d="M71.782 31.8673C72.1509 31.8668 72.5046 31.7201 72.7654 31.4593C73.0262 31.1984 73.173 30.8448 73.1734 30.4759V29.9944C72.2532 30.1677 71.3082 30.161 70.3906 29.9746V30.4759C70.3911 30.8448 70.5378 31.1984 70.7986 31.4593C71.0595 31.7201 71.4131 31.8668 71.782 31.8673Z" fill="#FAFAFA"/>
<path d="M77.4819 34.6215L76.341 32.2233C76.1258 31.7743 75.7467 31.425 75.2817 31.2472L74.4109 30.9154C74.0664 30.8135 73.815 30.4088 73.6129 30.1328V30.4102C73.6211 30.666 73.5759 30.9208 73.4802 31.1582C73.3845 31.3956 73.2403 31.6104 73.0569 31.789C72.8735 31.9675 72.6549 32.1059 72.4151 32.1953C72.1752 32.2846 71.9193 32.323 71.6638 32.3079C71.4083 32.2928 71.1587 32.2247 70.931 32.1077C70.7033 31.9908 70.5024 31.8277 70.3413 31.6288C70.1801 31.4299 70.0622 31.1997 69.9951 30.9526C69.9279 30.7056 69.913 30.4473 69.9512 30.1942C69.8007 30.4837 69.5544 30.7121 69.2544 30.8404L68.4388 31.1329C67.9707 31.2985 67.5847 31.6388 67.3618 32.0824L66.0822 34.6215C66.0645 34.66 66.0626 34.7039 66.077 34.7438C66.0914 34.7837 66.1209 34.8163 66.1592 34.8346L67.8635 35.6096C67.8955 35.6242 67.9305 35.6309 67.9657 35.6291C68.0008 35.6274 68.035 35.6172 68.0654 35.5995C68.0958 35.5818 68.1215 35.557 68.1403 35.5273C68.1592 35.4976 68.1706 35.4638 68.1737 35.4287L68.2364 34.7144C68.2429 34.6571 68.2715 34.6046 68.3162 34.5681C68.3609 34.5316 68.418 34.514 68.4755 34.519C68.5329 34.524 68.5862 34.5513 68.6238 34.595C68.6614 34.6387 68.6805 34.6954 68.677 34.7529L68.1463 40.7851C68.1461 40.8279 68.1547 40.8703 68.1715 40.9097C68.1884 40.9491 68.2131 40.9847 68.2442 41.0141C68.2753 41.0436 68.3121 41.0663 68.3524 41.081C68.3926 41.0957 68.4355 41.1019 68.4782 41.0994H75.1035C75.1464 41.1019 75.1895 41.0956 75.2299 41.0808C75.2703 41.066 75.3072 41.0431 75.3383 41.0133C75.3695 40.9836 75.3941 40.9479 75.4108 40.9082C75.4275 40.8685 75.4359 40.8259 75.4354 40.7828C75.3415 39.7762 74.9528 35.671 74.8667 34.7542C74.8626 34.6968 74.8811 34.6401 74.9182 34.5962C74.9554 34.5523 75.0083 34.5247 75.0656 34.5193C75.1228 34.5139 75.1799 34.5311 75.2246 34.5673C75.2693 34.6035 75.2981 34.6558 75.3047 34.7129L75.3715 35.42C75.3748 35.4547 75.3863 35.4882 75.4051 35.5176C75.4238 35.547 75.4494 35.5715 75.4795 35.5891C75.5096 35.6067 75.5435 35.6168 75.5784 35.6187C75.6132 35.6206 75.648 35.6142 75.6799 35.6L77.405 34.8303C77.4426 34.8125 77.4718 34.7806 77.4862 34.7415C77.5006 34.7024 77.4991 34.6595 77.4819 34.6215ZM71.3643 38.8483C71.3625 38.9054 71.3386 38.9596 71.2976 38.9994C71.2566 39.0392 71.2017 39.0614 71.1445 39.0614C71.0874 39.0614 71.0325 39.0392 70.9915 38.9994C70.9505 38.9596 70.9266 38.9054 70.9248 38.8483V36.6328L70.7115 36.7646C70.662 36.7939 70.603 36.8026 70.5471 36.7888C70.4913 36.775 70.4431 36.7399 70.4128 36.6909C70.3826 36.642 70.3728 36.5831 70.3856 36.527C70.3983 36.4709 70.4325 36.422 70.4809 36.3909L71.0281 36.05C71.0616 36.0301 71.0997 36.0194 71.1386 36.0188C71.1776 36.0183 71.216 36.0279 71.25 36.0468C71.2841 36.0658 71.3125 36.0933 71.3326 36.1266C71.3527 36.16 71.3637 36.1981 71.3645 36.237L71.3643 38.8483ZM72.9449 38.8483C72.9449 38.9066 72.9217 38.9625 72.8805 39.0038C72.8392 39.045 72.7833 39.0681 72.725 39.0681C72.6667 39.0681 72.6108 39.045 72.5696 39.0038C72.5284 38.9625 72.5052 38.9066 72.5052 38.8483V36.6328L72.2921 36.7646C72.2426 36.7952 72.1829 36.8049 72.1262 36.7915C72.0695 36.7781 72.0205 36.7427 71.9899 36.6932C71.9592 36.6436 71.9496 36.5839 71.963 36.5272C71.9764 36.4705 72.0117 36.4215 72.0613 36.3909L72.6085 36.05C72.642 36.0301 72.6801 36.0194 72.719 36.0188C72.758 36.0183 72.7964 36.0279 72.8304 36.0468C72.8644 36.0658 72.8929 36.0933 72.913 36.1266C72.9331 36.16 72.9441 36.1981 72.9449 36.237V38.8483Z" fill="#FAFAFA"/>
<path d="M71.3643 38.8483C71.3625 38.9054 71.3386 38.9596 71.2976 38.9994C71.2566 39.0392 71.2017 39.0614 71.1445 39.0614C71.0874 39.0614 71.0325 39.0392 70.9915 38.9994C70.9505 38.9596 70.9266 38.9054 70.9248 38.8483V36.6328L70.7115 36.7646C70.662 36.7939 70.603 36.8026 70.5471 36.7888C70.4913 36.775 70.4431 36.7399 70.4128 36.6909C70.3826 36.642 70.3728 36.5831 70.3856 36.527C70.3983 36.4709 70.4325 36.422 70.4809 36.3909L71.0281 36.05C71.0616 36.0301 71.0997 36.0194 71.1386 36.0188C71.1776 36.0183 71.216 36.0279 71.25 36.0468C71.2841 36.0658 71.3125 36.0933 71.3326 36.1266C71.3527 36.16 71.3637 36.1981 71.3645 36.237L71.3643 38.8483Z" fill="#FAFAFA"/>
<path d="M72.9449 38.8483C72.9449 38.9066 72.9217 38.9625 72.8805 39.0038C72.8392 39.045 72.7833 39.0681 72.725 39.0681C72.6667 39.0681 72.6108 39.045 72.5696 39.0038C72.5284 38.9625 72.5052 38.9066 72.5052 38.8483V36.6328L72.2921 36.7646C72.2426 36.7952 72.1829 36.8049 72.1262 36.7915C72.0695 36.7781 72.0205 36.7427 71.9899 36.6932C71.9592 36.6436 71.9496 36.5839 71.963 36.5272C71.9764 36.4705 72.0117 36.4215 72.0613 36.3909L72.6085 36.05C72.642 36.0301 72.6801 36.0194 72.719 36.0188C72.758 36.0183 72.7964 36.0279 72.8304 36.0468C72.8644 36.0658 72.8929 36.0933 72.913 36.1266C72.9331 36.16 72.9441 36.1981 72.9449 36.237V38.8483Z" fill="#FAFAFA"/>
<path d="M70.751 36.332H73.0427" stroke="#191919" stroke-width="0.343756" stroke-linecap="round" stroke-linejoin="round"/>
<path d="M71.897 37.4792V35.1875" stroke="#191919" stroke-width="0.343756" stroke-linecap="round" stroke-linejoin="round"/>
<g clip-path="url(#clip4_8754_16550)">
<path d="M40.429 8.99618C40.7979 8.99575 41.1515 8.84902 41.4124 8.58818C41.6732 8.32734 41.8199 7.97368 41.8204 7.6048V7.12331C40.9002 7.29665 39.9552 7.28993 39.0376 7.10352V7.6048C39.038 7.97368 39.1848 8.32734 39.4456 8.58818C39.7064 8.84902 40.0601 8.99575 40.429 8.99618Z" fill="#FAFAFA"/>
<path d="M46.1289 11.7504L44.9879 9.35217C44.7728 8.90324 44.3936 8.55392 43.9286 8.37613L43.0579 8.04426C42.7134 7.94241 42.4619 7.53767 42.2599 7.26172V7.5391C42.2681 7.79494 42.2229 8.04969 42.1272 8.28709C42.0315 8.52449 41.8873 8.73932 41.7039 8.91789C41.5205 9.09646 41.3019 9.23483 41.062 9.32418C40.8222 9.41353 40.5663 9.45189 40.3108 9.43682C40.0552 9.42175 39.8056 9.35358 39.5779 9.23666C39.3502 9.11973 39.1494 8.95662 38.9883 8.75774C38.8271 8.55885 38.7092 8.32856 38.6421 8.08155C38.5749 7.83455 38.56 7.57625 38.5982 7.32315C38.4477 7.61265 38.2014 7.84101 37.9014 7.96935L37.0858 8.26184C36.6177 8.42743 36.2317 8.76766 36.0087 9.21133L34.7292 11.7504C34.7114 11.7889 34.7095 11.8329 34.7239 11.8727C34.7383 11.9126 34.7679 11.9452 34.8061 11.9635L36.5104 12.7385C36.5424 12.7531 36.5775 12.7598 36.6126 12.758C36.6478 12.7563 36.682 12.7461 36.7124 12.7284C36.7428 12.7107 36.7685 12.6859 36.7873 12.6562C36.8062 12.6265 36.8176 12.5927 36.8207 12.5576L36.8833 11.8433C36.8899 11.786 36.9185 11.7335 36.9632 11.697C37.0078 11.6605 37.065 11.6429 37.1224 11.6479C37.1799 11.653 37.2331 11.6802 37.2708 11.7239C37.3084 11.7676 37.3275 11.8243 37.324 11.8818L36.7933 17.914C36.7931 17.9568 36.8017 17.9992 36.8185 18.0386C36.8353 18.078 36.8601 18.1136 36.8912 18.143C36.9223 18.1725 36.9591 18.1952 36.9993 18.2099C37.0396 18.2246 37.0824 18.2308 37.1252 18.2283H43.7504C43.7934 18.2309 43.8364 18.2245 43.8768 18.2097C43.9172 18.1949 43.9542 18.172 43.9853 18.1423C44.0164 18.1126 44.0411 18.0768 44.0578 18.0371C44.0745 17.9974 44.0828 17.9548 44.0823 17.9117C43.9884 16.9051 43.5998 12.7999 43.5137 11.8831C43.5095 11.8257 43.528 11.769 43.5652 11.7251C43.6024 11.6812 43.6553 11.6536 43.7125 11.6482C43.7698 11.6428 43.8269 11.66 43.8716 11.6962C43.9163 11.7324 43.9451 11.7847 43.9517 11.8418L44.0184 12.5489C44.0217 12.5836 44.0332 12.6171 44.052 12.6465C44.0708 12.6759 44.0963 12.7004 44.1265 12.718C44.1566 12.7356 44.1905 12.7457 44.2253 12.7476C44.2602 12.7495 44.295 12.7431 44.3268 12.7289L46.0519 11.9592C46.0896 11.9414 46.1188 11.9096 46.1332 11.8705C46.1476 11.8314 46.146 11.7884 46.1289 11.7504ZM40.0112 15.9772C40.0095 16.0343 39.9856 16.0885 39.9446 16.1283C39.9036 16.1681 39.8487 16.1903 39.7915 16.1903C39.7344 16.1903 39.6795 16.1681 39.6385 16.1283C39.5975 16.0885 39.5735 16.0343 39.5718 15.9772V13.7617L39.3585 13.8935C39.309 13.9228 39.25 13.9315 39.1941 13.9177C39.1383 13.9039 39.09 13.8688 39.0598 13.8198C39.0296 13.7709 39.0198 13.712 39.0325 13.6559C39.0453 13.5998 39.0795 13.5509 39.1279 13.5198L39.6751 13.1789C39.7086 13.159 39.7467 13.1483 39.7856 13.1477C39.8245 13.1472 39.863 13.1568 39.897 13.1757C39.931 13.1947 39.9595 13.2222 39.9796 13.2555C39.9997 13.2889 40.0107 13.327 40.0114 13.3659L40.0112 15.9772ZM41.5918 15.9772C41.5918 16.0355 41.5687 16.0914 41.5274 16.1327C41.4862 16.1739 41.4303 16.197 41.372 16.197C41.3137 16.197 41.2578 16.1739 41.2166 16.1327C41.1753 16.0914 41.1522 16.0355 41.1522 15.9772V13.7617L40.9391 13.8935C40.8895 13.9241 40.8299 13.9338 40.7732 13.9204C40.7165 13.907 40.6674 13.8716 40.6368 13.8221C40.6062 13.7725 40.5965 13.7128 40.6099 13.6561C40.6233 13.5995 40.6587 13.5504 40.7083 13.5198L41.2555 13.1789C41.2889 13.159 41.3271 13.1483 41.366 13.1477C41.4049 13.1472 41.4433 13.1568 41.4774 13.1757C41.5114 13.1947 41.5399 13.2222 41.56 13.2555C41.5801 13.2889 41.591 13.327 41.5918 13.3659V15.9772Z" fill="#FAFAFA"/>
<path d="M40.0112 15.9772C40.0095 16.0343 39.9856 16.0885 39.9446 16.1283C39.9036 16.1681 39.8487 16.1903 39.7915 16.1903C39.7344 16.1903 39.6795 16.1681 39.6385 16.1283C39.5975 16.0885 39.5735 16.0343 39.5718 15.9772V13.7617L39.3585 13.8935C39.309 13.9228 39.25 13.9315 39.1941 13.9177C39.1383 13.9039 39.09 13.8688 39.0598 13.8198C39.0296 13.7709 39.0198 13.712 39.0325 13.6559C39.0453 13.5998 39.0795 13.5509 39.1279 13.5198L39.6751 13.1789C39.7086 13.159 39.7467 13.1483 39.7856 13.1477C39.8245 13.1472 39.863 13.1568 39.897 13.1757C39.931 13.1947 39.9595 13.2222 39.9796 13.2555C39.9997 13.2889 40.0107 13.327 40.0114 13.3659L40.0112 15.9772Z" fill="#FAFAFA"/>
<path d="M41.5918 15.9772C41.5918 16.0355 41.5687 16.0914 41.5274 16.1327C41.4862 16.1739 41.4303 16.197 41.372 16.197C41.3137 16.197 41.2578 16.1739 41.2166 16.1327C41.1753 16.0914 41.1522 16.0355 41.1522 15.9772V13.7617L40.9391 13.8935C40.8895 13.9241 40.8299 13.9338 40.7732 13.9204C40.7165 13.907 40.6674 13.8716 40.6368 13.8221C40.6062 13.7725 40.5965 13.7128 40.6099 13.6561C40.6233 13.5995 40.6587 13.5504 40.7083 13.5198L41.2555 13.1789C41.2889 13.159 41.3271 13.1483 41.366 13.1477C41.4049 13.1472 41.4433 13.1568 41.4774 13.1757C41.5114 13.1947 41.5399 13.2222 41.56 13.2555C41.5801 13.2889 41.591 13.327 41.5918 13.3659V15.9772Z" fill="#FAFAFA"/>
<path d="M39.3979 13.4609H41.6897" stroke="#191919" stroke-width="0.343756" stroke-linecap="round" stroke-linejoin="round"/>
<path d="M40.5439 14.6081V12.3164" stroke="#191919" stroke-width="0.343756" stroke-linecap="round" stroke-linejoin="round"/>
</g>
<defs>
<clipPath id="clip0_8754_16550">
<rect width="13.0627" height="13.0627" fill="white" transform="translate(33.8979 66.5645)"/>
</clipPath>
<clipPath id="clip1_8754_16550">
<rect width="13.0627" height="13.0627" fill="white" transform="translate(6.91846 48)"/>
</clipPath>
<clipPath id="clip2_8754_16550">
<rect width="13.0627" height="13.0627" fill="white" transform="translate(17.0627 20)"/>
</clipPath>
<clipPath id="clip3_8754_16550">
<rect width="13.0627" height="13.0627" fill="white" transform="translate(34.1255 29)"/>
</clipPath>
<clipPath id="clip4_8754_16550">
<rect width="13.0627" height="13.0627" fill="white" transform="translate(33.8979 6.12695)"/>
</clipPath>
</defs>
</svg>
