<svg width="81" height="81" viewBox="0 0 81 81" fill="none" xmlns="http://www.w3.org/2000/svg">
<rect x="0.632652" y="0.118492" width="79.9807" height="79.9807" rx="5.88541" fill="#828284" stroke="#FAFAFA" stroke-width="0.229171"/>
<mask id="path-2-inside-1_8758_18685" fill="white">
<path d="M24.3518 66.4609H56.8941V80.2112H24.3518V66.4609Z"/>
</mask>
<path d="M24.3518 66.4609V66.2318H24.1226V66.4609H24.3518ZM56.8941 66.4609H57.1233V66.2318H56.8941V66.4609ZM24.3518 66.6901H56.8941V66.2318H24.3518V66.6901ZM56.6649 66.4609V80.2112H57.1233V66.4609H56.6649ZM24.581 80.2112V66.4609H24.1226V80.2112H24.581Z" fill="#FAFAFA" mask="url(#path-2-inside-1_8758_18685)"/>
<mask id="path-4-inside-2_8758_18685" fill="white">
<path d="M13.1226 55.0039H68.1236V80.2127H13.1226V55.0039Z"/>
</mask>
<path d="M13.1226 55.0039V54.7747H12.8934V55.0039H13.1226ZM68.1236 55.0039H68.3528V54.7747H68.1236V55.0039ZM13.1226 55.2331H68.1236V54.7747H13.1226V55.2331ZM67.8944 55.0039V80.2127H68.3528V55.0039H67.8944ZM13.3517 80.2127V55.0039H12.8934V80.2127H13.3517Z" fill="#FAFAFA" mask="url(#path-4-inside-2_8758_18685)"/>
<path d="M54.8315 9.53674e-07C54.8315 1.65523 54.4462 3.29426 53.6976 4.8235C52.949 6.35273 51.8518 7.74223 50.4686 8.91266C49.0853 10.0831 47.4432 11.0115 45.6359 11.645C43.8286 12.2784 41.8916 12.6044 39.9354 12.6044C37.9792 12.6044 36.0422 12.2784 34.2349 11.645C32.4276 11.0115 30.7855 10.0831 29.4023 8.91266C28.019 7.74223 26.9218 6.35273 26.1732 4.8235C25.4246 3.29426 25.0393 1.65523 25.0393 0" stroke="#FAFAFA" stroke-width="0.229171"/>
<path d="M31.0953 55.3516C31.6135 54.5174 32.3732 53.7595 33.3308 53.1211C34.2884 52.4827 35.4253 51.9763 36.6765 51.6308C37.9276 51.2853 39.2687 51.1074 40.6229 51.1074C41.9772 51.1074 43.3183 51.2853 44.5694 51.6308C45.8206 51.9763 46.9575 52.4827 47.9151 53.1211C48.8727 53.7595 49.6324 54.5174 50.1506 55.3516" stroke="#FAFAFA" stroke-width="0.229171"/>
<path d="M0.74707 76.5479C1.8636 76.4958 4.06753 77.1099 3.95102 79.9825" stroke="#FAFAFA" stroke-width="0.229171"/>
<path d="M80.4985 76.5479C79.382 76.4958 77.1781 77.1099 77.2946 79.9825" stroke="#FAFAFA" stroke-width="0.229171"/>
<path d="M40.7371 69.4356C41.106 69.4352 41.4596 69.2885 41.7205 69.0276C41.9813 68.7668 42.128 68.4131 42.1285 68.0443V67.5628C41.2083 67.7361 40.2633 67.7294 39.3457 67.543V68.0443C39.3461 68.4131 39.4929 68.7668 39.7537 69.0276C40.0145 69.2885 40.3682 69.4352 40.7371 69.4356Z" fill="#FAFAFA"/>
<path d="M46.437 72.1899L45.296 69.7916C45.0809 69.3427 44.7017 68.9934 44.2367 68.8156L43.366 68.4837C43.0215 68.3819 42.77 67.9771 42.568 67.7012V67.9786C42.5762 68.2344 42.531 68.4891 42.4353 68.7265C42.3396 68.9639 42.1954 69.1788 42.012 69.3573C41.8286 69.5359 41.61 69.6743 41.3701 69.7636C41.1303 69.853 40.8744 69.8913 40.6189 69.8763C40.3633 69.8612 40.1138 69.793 39.886 69.6761C39.6583 69.5592 39.4575 69.3961 39.2964 69.1972C39.1352 68.9983 39.0173 68.768 38.9502 68.521C38.883 68.274 38.8681 68.0157 38.9063 67.7626C38.7558 68.0521 38.5095 68.2805 38.2095 68.4088L37.3939 68.7013C36.9258 68.8669 36.5398 69.2071 36.3168 69.6508L35.0373 72.1899C35.0195 72.2284 35.0176 72.2723 35.032 72.3122C35.0464 72.3521 35.076 72.3847 35.1142 72.4029L36.8185 73.1779C36.8505 73.1925 36.8856 73.1992 36.9207 73.1975C36.9559 73.1957 36.9901 73.1856 37.0205 73.1679C37.0509 73.1501 37.0766 73.1254 37.0954 73.0957C37.1143 73.066 37.1257 73.0321 37.1288 72.9971L37.1914 72.2827C37.198 72.2254 37.2266 72.1729 37.2713 72.1364C37.3159 72.1 37.3731 72.0823 37.4306 72.0874C37.488 72.0924 37.5412 72.1197 37.5789 72.1634C37.6165 72.2071 37.6356 72.2637 37.6321 72.3213L37.1014 78.3534C37.1012 78.3963 37.1098 78.4387 37.1266 78.4781C37.1434 78.5175 37.1682 78.553 37.1993 78.5825C37.2304 78.6119 37.2672 78.6347 37.3074 78.6494C37.3477 78.664 37.3905 78.6703 37.4333 78.6678H44.0586C44.1015 78.6703 44.1445 78.664 44.1849 78.6492C44.2253 78.6344 44.2623 78.6114 44.2934 78.5817C44.3245 78.552 44.3492 78.5162 44.3659 78.4766C44.3826 78.4369 44.391 78.3942 44.3904 78.3512C44.2965 77.3445 43.9079 73.2394 43.8218 72.3225C43.8177 72.2652 43.8361 72.2084 43.8733 72.1645C43.9105 72.1206 43.9634 72.093 44.0206 72.0876C44.0779 72.0822 44.135 72.0995 44.1797 72.1357C44.2244 72.1719 44.2532 72.2242 44.2598 72.2813L44.3265 72.9883C44.3298 73.0231 44.3413 73.0565 44.3601 73.0859C44.3789 73.1153 44.4044 73.1398 44.4346 73.1574C44.4647 73.175 44.4986 73.1852 44.5334 73.1871C44.5683 73.189 44.6031 73.1826 44.6349 73.1683L46.36 72.3987C46.3977 72.3809 46.4269 72.349 46.4413 72.3099C46.4557 72.2708 46.4542 72.2278 46.437 72.1899ZM40.3193 76.4167C40.3176 76.4738 40.2937 76.528 40.2527 76.5678C40.2117 76.6076 40.1568 76.6298 40.0996 76.6298C40.0425 76.6298 39.9876 76.6076 39.9466 76.5678C39.9056 76.528 39.8816 76.4738 39.8799 76.4167V74.2011L39.6666 74.333C39.6171 74.3623 39.5581 74.3709 39.5022 74.3572C39.4464 74.3434 39.3981 74.3082 39.3679 74.2593C39.3377 74.2103 39.3279 74.1515 39.3406 74.0954C39.3534 74.0392 39.3876 73.9904 39.436 73.9592L39.9832 73.6184C40.0167 73.5985 40.0548 73.5877 40.0937 73.5872C40.1327 73.5866 40.1711 73.5963 40.2051 73.6152C40.2391 73.6341 40.2676 73.6616 40.2877 73.695C40.3078 73.7284 40.3188 73.7664 40.3195 73.8054L40.3193 76.4167ZM41.8999 76.4167C41.8999 76.475 41.8768 76.5309 41.8356 76.5721C41.7943 76.6133 41.7384 76.6365 41.6801 76.6365C41.6218 76.6365 41.5659 76.6133 41.5247 76.5721C41.4835 76.5309 41.4603 76.475 41.4603 76.4167V74.2011L41.2472 74.333C41.1976 74.3636 41.138 74.3732 41.0813 74.3598C41.0246 74.3465 40.9755 74.3111 40.9449 74.2615C40.9143 74.212 40.9046 74.1523 40.918 74.0956C40.9314 74.0389 40.9668 73.9899 41.0164 73.9592L41.5636 73.6184C41.5971 73.5985 41.6352 73.5877 41.6741 73.5872C41.713 73.5866 41.7514 73.5963 41.7855 73.6152C41.8195 73.6341 41.848 73.6616 41.8681 73.695C41.8882 73.7284 41.8992 73.7664 41.8999 73.8054V76.4167Z" fill="#FAFAFA"/>
<path d="M40.3193 76.4167C40.3176 76.4738 40.2937 76.528 40.2527 76.5678C40.2117 76.6076 40.1568 76.6298 40.0996 76.6298C40.0425 76.6298 39.9876 76.6076 39.9466 76.5678C39.9056 76.528 39.8816 76.4738 39.8799 76.4167V74.2011L39.6666 74.333C39.6171 74.3623 39.5581 74.3709 39.5022 74.3572C39.4464 74.3434 39.3981 74.3082 39.3679 74.2593C39.3377 74.2103 39.3279 74.1515 39.3406 74.0954C39.3534 74.0392 39.3876 73.9904 39.436 73.9592L39.9832 73.6184C40.0167 73.5985 40.0548 73.5877 40.0937 73.5872C40.1327 73.5866 40.1711 73.5963 40.2051 73.6152C40.2391 73.6341 40.2676 73.6616 40.2877 73.695C40.3078 73.7284 40.3188 73.7664 40.3195 73.8054L40.3193 76.4167Z" fill="#FAFAFA"/>
<path d="M41.8999 76.4167C41.8999 76.475 41.8768 76.5309 41.8356 76.5721C41.7943 76.6133 41.7384 76.6365 41.6801 76.6365C41.6218 76.6365 41.5659 76.6133 41.5247 76.5721C41.4835 76.5309 41.4603 76.475 41.4603 76.4167V74.2011L41.2472 74.333C41.1976 74.3636 41.138 74.3732 41.0813 74.3598C41.0246 74.3465 40.9755 74.3111 40.9449 74.2615C40.9143 74.212 40.9046 74.1523 40.918 74.0956C40.9314 74.0389 40.9668 73.9899 41.0164 73.9592L41.5636 73.6184C41.5971 73.5985 41.6352 73.5877 41.6741 73.5872C41.713 73.5866 41.7514 73.5963 41.7855 73.6152C41.8195 73.6341 41.848 73.6616 41.8681 73.695C41.8882 73.7284 41.8992 73.7664 41.8999 73.8054V76.4167Z" fill="#FAFAFA"/>
<path d="M39.7061 73.8965H41.9978" stroke="#191919" stroke-width="0.343756" stroke-linecap="round" stroke-linejoin="round"/>
<path d="M40.8521 75.0437V72.752" stroke="#191919" stroke-width="0.343756" stroke-linecap="round" stroke-linejoin="round"/>
<path d="M8.7576 45.8673C9.12648 45.8668 9.48014 45.7201 9.74098 45.4593C10.0018 45.1984 10.1486 44.8448 10.149 44.4759V43.9944C9.22883 44.1677 8.2838 44.161 7.36621 43.9746V44.4759C7.36664 44.8448 7.51337 45.1984 7.77422 45.4593C8.03506 45.7201 8.38871 45.8668 8.7576 45.8673Z" fill="#FAFAFA"/>
<path d="M14.4575 48.6215L13.3166 46.2233C13.1014 45.7743 12.7222 45.425 12.2572 45.2472L11.3865 44.9154C11.042 44.8135 10.7905 44.4088 10.5885 44.1328V44.4102C10.5967 44.666 10.5515 44.9208 10.4558 45.1582C10.3601 45.3956 10.2159 45.6104 10.0325 45.789C9.84912 45.9675 9.63051 46.1059 9.39064 46.1953C9.15076 46.2846 8.8949 46.323 8.63937 46.3079C8.38384 46.2928 8.13426 46.2247 7.90655 46.1077C7.67885 45.9908 7.47802 45.8277 7.31687 45.6288C7.15573 45.4299 7.03782 45.1997 6.97066 44.9526C6.90351 44.7056 6.88858 44.4473 6.92683 44.1942C6.77627 44.4837 6.53002 44.7121 6.23001 44.8404L5.41441 45.1329C4.94628 45.2985 4.56033 45.6388 4.33735 46.0824L3.05781 48.6215C3.04004 48.66 3.03815 48.7039 3.05255 48.7438C3.06696 48.7837 3.09649 48.8163 3.13476 48.8346L4.83904 49.6096C4.87105 49.6242 4.9061 49.6309 4.94124 49.6291C4.97638 49.6274 5.01059 49.6172 5.04099 49.5995C5.07139 49.5818 5.09709 49.557 5.11593 49.5273C5.13478 49.4976 5.14621 49.4638 5.14928 49.4287L5.21194 48.7144C5.21847 48.6571 5.24712 48.6046 5.29179 48.5681C5.33645 48.5316 5.3936 48.514 5.45106 48.519C5.50851 48.524 5.56174 48.5513 5.59938 48.595C5.63703 48.6387 5.65612 48.6954 5.6526 48.7529L5.12193 54.7851C5.12171 54.8279 5.13029 54.8703 5.14712 54.9097C5.16395 54.9491 5.18868 54.9847 5.21978 55.0141C5.25089 55.0436 5.2877 55.0663 5.32795 55.081C5.36821 55.0957 5.41104 55.1019 5.4538 55.0994H12.0791C12.122 55.1019 12.165 55.0956 12.2054 55.0808C12.2458 55.066 12.2828 55.0431 12.3139 55.0133C12.345 54.9836 12.3697 54.9479 12.3864 54.9082C12.4031 54.8685 12.4115 54.8259 12.4109 54.7828C12.317 53.7762 11.9284 49.671 11.8423 48.7542C11.8382 48.6968 11.8567 48.6401 11.8938 48.5962C11.931 48.5523 11.9839 48.5247 12.0411 48.5193C12.0984 48.5139 12.1555 48.5311 12.2002 48.5673C12.2449 48.6035 12.2737 48.6558 12.2803 48.7129L12.3471 49.42C12.3503 49.4547 12.3619 49.4882 12.3806 49.5176C12.3994 49.547 12.4249 49.5715 12.4551 49.5891C12.4852 49.6067 12.5191 49.6168 12.554 49.6187C12.5888 49.6206 12.6236 49.6142 12.6555 49.6L14.3806 48.8303C14.4182 48.8125 14.4474 48.7806 14.4618 48.7415C14.4762 48.7024 14.4747 48.6595 14.4575 48.6215ZM8.33985 52.8483C8.33811 52.9054 8.3142 52.9596 8.27318 52.9994C8.23217 53.0392 8.17727 53.0614 8.12013 53.0614C8.06299 53.0614 8.0081 53.0392 7.96708 52.9994C7.92607 52.9596 7.90215 52.9054 7.90041 52.8483V50.6328L7.68712 50.7646C7.63761 50.7939 7.57857 50.8026 7.52272 50.7888C7.46686 50.775 7.41865 50.7399 7.38843 50.6909C7.35822 50.642 7.34842 50.5831 7.36115 50.527C7.37387 50.4709 7.40811 50.422 7.45648 50.3909L8.00369 50.05C8.03717 50.0301 8.07528 50.0194 8.11422 50.0188C8.15316 50.0183 8.19157 50.0279 8.22561 50.0468C8.25964 50.0658 8.28813 50.0933 8.30821 50.1266C8.32829 50.16 8.33927 50.1981 8.34006 50.237L8.33985 52.8483ZM9.92044 52.8483C9.92044 52.9066 9.89728 52.9625 9.85606 53.0038C9.81484 53.045 9.75892 53.0681 9.70062 53.0681C9.64232 53.0681 9.58641 53.045 9.54519 53.0038C9.50396 52.9625 9.4808 52.9066 9.4808 52.8483V50.6328L9.26772 50.7646C9.21816 50.7952 9.15847 50.8049 9.10178 50.7915C9.04509 50.7781 8.99605 50.7427 8.96544 50.6932C8.93482 50.6436 8.92515 50.5839 8.93855 50.5272C8.95195 50.4705 8.98731 50.4215 9.03687 50.3909L9.58408 50.05C9.61756 50.0301 9.65567 50.0194 9.69461 50.0188C9.73355 50.0183 9.77195 50.0279 9.80599 50.0468C9.84003 50.0658 9.86851 50.0933 9.8886 50.1266C9.90868 50.16 9.91966 50.1981 9.92044 50.237V52.8483Z" fill="#FAFAFA"/>
<path d="M8.33985 52.8483C8.33811 52.9054 8.3142 52.9596 8.27318 52.9994C8.23217 53.0392 8.17727 53.0614 8.12013 53.0614C8.06299 53.0614 8.0081 53.0392 7.96708 52.9994C7.92607 52.9596 7.90215 52.9054 7.90041 52.8483V50.6328L7.68712 50.7646C7.63761 50.7939 7.57857 50.8026 7.52272 50.7888C7.46686 50.775 7.41865 50.7399 7.38843 50.6909C7.35822 50.642 7.34842 50.5831 7.36115 50.527C7.37387 50.4709 7.40811 50.422 7.45648 50.3909L8.00369 50.05C8.03717 50.0301 8.07528 50.0194 8.11422 50.0188C8.15316 50.0183 8.19157 50.0279 8.22561 50.0468C8.25964 50.0658 8.28813 50.0933 8.30821 50.1266C8.32829 50.16 8.33927 50.1981 8.34006 50.237L8.33985 52.8483Z" fill="#FAFAFA"/>
<path d="M9.92044 52.8483C9.92044 52.9066 9.89728 52.9625 9.85606 53.0038C9.81484 53.045 9.75892 53.0681 9.70062 53.0681C9.64232 53.0681 9.58641 53.045 9.54519 53.0038C9.50396 52.9625 9.4808 52.9066 9.4808 52.8483V50.6328L9.26772 50.7646C9.21816 50.7952 9.15847 50.8049 9.10178 50.7915C9.04509 50.7781 8.99605 50.7427 8.96544 50.6932C8.93482 50.6436 8.92515 50.5839 8.93855 50.5272C8.95195 50.4705 8.98731 50.4215 9.03687 50.3909L9.58408 50.05C9.61756 50.0301 9.65567 50.0194 9.69461 50.0188C9.73355 50.0183 9.77195 50.0279 9.80599 50.0468C9.84003 50.0658 9.86851 50.0933 9.8886 50.1266C9.90868 50.16 9.91966 50.1981 9.92044 50.237V52.8483Z" fill="#FAFAFA"/>
<path d="M7.72656 50.332H10.0183" stroke="#191919" stroke-width="0.343756" stroke-linecap="round" stroke-linejoin="round"/>
<path d="M8.87256 51.4792V49.1875" stroke="#191919" stroke-width="0.343756" stroke-linecap="round" stroke-linejoin="round"/>
<path d="M71.8203 45.8673C72.1892 45.8668 72.5429 45.7201 72.8037 45.4593C73.0646 45.1984 73.2113 44.8448 73.2117 44.4759V43.9944C72.2916 44.1677 71.3465 44.161 70.429 43.9746V44.4759C70.4294 44.8448 70.5761 45.1984 70.837 45.4593C71.0978 45.7201 71.4515 45.8668 71.8203 45.8673Z" fill="#FAFAFA"/>
<path d="M77.5202 48.6215L76.3793 46.2233C76.1641 45.7743 75.785 45.425 75.32 45.2472L74.4493 44.9154C74.1047 44.8135 73.8533 44.4088 73.6512 44.1328V44.4102C73.6595 44.666 73.6143 44.9208 73.5186 45.1582C73.4228 45.3956 73.2787 45.6104 73.0953 45.789C72.9119 45.9675 72.6933 46.1059 72.4534 46.1953C72.2135 46.2846 71.9576 46.323 71.7021 46.3079C71.4466 46.2928 71.197 46.2247 70.9693 46.1077C70.7416 45.9908 70.5408 45.8277 70.3796 45.6288C70.2185 45.4299 70.1006 45.1997 70.0334 44.9526C69.9662 44.7056 69.9513 44.4473 69.9896 44.1942C69.839 44.4837 69.5928 44.7121 69.2928 44.8404L68.4772 45.1329C68.009 45.2985 67.6231 45.6388 67.4001 46.0824L66.1206 48.6215C66.1028 48.66 66.1009 48.7039 66.1153 48.7438C66.1297 48.7837 66.1592 48.8163 66.1975 48.8346L67.9018 49.6096C67.9338 49.6242 67.9688 49.6309 68.004 49.6291C68.0391 49.6274 68.0733 49.6172 68.1037 49.5995C68.1341 49.5818 68.1598 49.557 68.1787 49.5273C68.1975 49.4976 68.209 49.4638 68.212 49.4287L68.2747 48.7144C68.2812 48.6571 68.3099 48.6046 68.3545 48.5681C68.3992 48.5316 68.4563 48.514 68.5138 48.519C68.5713 48.524 68.6245 48.5513 68.6621 48.595C68.6998 48.6387 68.7189 48.6954 68.7153 48.7529L68.1847 54.7851C68.1845 54.8279 68.193 54.8703 68.2099 54.9097C68.2267 54.9491 68.2514 54.9847 68.2825 55.0141C68.3136 55.0436 68.3504 55.0663 68.3907 55.081C68.4309 55.0957 68.4738 55.1019 68.5165 55.0994H75.1418C75.1848 55.1019 75.2278 55.0956 75.2682 55.0808C75.3086 55.066 75.3455 55.0431 75.3767 55.0133C75.4078 54.9836 75.4325 54.9479 75.4492 54.9082C75.4659 54.8685 75.4742 54.8259 75.4737 54.7828C75.3798 53.7762 74.9912 49.671 74.905 48.7542C74.9009 48.6968 74.9194 48.6401 74.9566 48.5962C74.9937 48.5523 75.0466 48.5247 75.1039 48.5193C75.1611 48.5139 75.2183 48.5311 75.263 48.5673C75.3077 48.6035 75.3364 48.6558 75.3431 48.7129L75.4098 49.42C75.4131 49.4547 75.4246 49.4882 75.4434 49.5176C75.4622 49.547 75.4877 49.5715 75.5178 49.5891C75.548 49.6067 75.5819 49.6168 75.6167 49.6187C75.6515 49.6206 75.6863 49.6142 75.7182 49.6L77.4433 48.8303C77.481 48.8125 77.5102 48.7806 77.5246 48.7415C77.539 48.7024 77.5374 48.6595 77.5202 48.6215ZM71.4026 52.8483C71.4009 52.9054 71.3769 52.9596 71.3359 52.9994C71.2949 53.0392 71.24 53.0614 71.1829 53.0614C71.1257 53.0614 71.0708 53.0392 71.0298 52.9994C70.9888 52.9596 70.9649 52.9054 70.9632 52.8483V50.6328L70.7499 50.7646C70.7003 50.7939 70.6413 50.8026 70.5855 50.7888C70.5296 50.775 70.4814 50.7399 70.4512 50.6909C70.421 50.642 70.4112 50.5831 70.4239 50.527C70.4366 50.4709 70.4708 50.422 70.5192 50.3909L71.0664 50.05C71.0999 50.0301 71.138 50.0194 71.177 50.0188C71.2159 50.0183 71.2543 50.0279 71.2883 50.0468C71.3224 50.0658 71.3509 50.0933 71.371 50.1266C71.391 50.16 71.402 50.1981 71.4028 50.237L71.4026 52.8483ZM72.9832 52.8483C72.9832 52.9066 72.96 52.9625 72.9188 53.0038C72.8776 53.045 72.8217 53.0681 72.7634 53.0681C72.7051 53.0681 72.6492 53.045 72.6079 53.0038C72.5667 52.9625 72.5435 52.9066 72.5435 52.8483V50.6328L72.3305 50.7646C72.2809 50.7952 72.2212 50.8049 72.1645 50.7915C72.1078 50.7781 72.0588 50.7427 72.0282 50.6932C71.9976 50.6436 71.9879 50.5839 72.0013 50.5272C72.0147 50.4705 72.0501 50.4215 72.0996 50.3909L72.6468 50.05C72.6803 50.0301 72.7184 50.0194 72.7574 50.0188C72.7963 50.0183 72.8347 50.0279 72.8687 50.0468C72.9028 50.0658 72.9313 50.0933 72.9513 50.1266C72.9714 50.16 72.9824 50.1981 72.9832 50.237V52.8483Z" fill="#FAFAFA"/>
<path d="M71.4026 52.8483C71.4009 52.9054 71.3769 52.9596 71.3359 52.9994C71.2949 53.0392 71.24 53.0614 71.1829 53.0614C71.1257 53.0614 71.0708 53.0392 71.0298 52.9994C70.9888 52.9596 70.9649 52.9054 70.9632 52.8483V50.6328L70.7499 50.7646C70.7003 50.7939 70.6413 50.8026 70.5855 50.7888C70.5296 50.775 70.4814 50.7399 70.4512 50.6909C70.421 50.642 70.4112 50.5831 70.4239 50.527C70.4366 50.4709 70.4708 50.422 70.5192 50.3909L71.0664 50.05C71.0999 50.0301 71.138 50.0194 71.177 50.0188C71.2159 50.0183 71.2543 50.0279 71.2883 50.0468C71.3224 50.0658 71.3509 50.0933 71.371 50.1266C71.391 50.16 71.402 50.1981 71.4028 50.237L71.4026 52.8483Z" fill="#FAFAFA"/>
<path d="M72.9832 52.8483C72.9832 52.9066 72.96 52.9625 72.9188 53.0038C72.8776 53.045 72.8217 53.0681 72.7634 53.0681C72.7051 53.0681 72.6492 53.045 72.6079 53.0038C72.5667 52.9625 72.5435 52.9066 72.5435 52.8483V50.6328L72.3305 50.7646C72.2809 50.7952 72.2212 50.8049 72.1645 50.7915C72.1078 50.7781 72.0588 50.7427 72.0282 50.6932C71.9976 50.6436 71.9879 50.5839 72.0013 50.5272C72.0147 50.4705 72.0501 50.4215 72.0996 50.3909L72.6468 50.05C72.6803 50.0301 72.7184 50.0194 72.7574 50.0188C72.7963 50.0183 72.8347 50.0279 72.8687 50.0468C72.9028 50.0658 72.9313 50.0933 72.9513 50.1266C72.9714 50.16 72.9824 50.1981 72.9832 50.237V52.8483Z" fill="#FAFAFA"/>
<path d="M70.7893 50.332H73.081" stroke="#191919" stroke-width="0.343756" stroke-linecap="round" stroke-linejoin="round"/>
<path d="M71.9353 51.4792V49.1875" stroke="#191919" stroke-width="0.343756" stroke-linecap="round" stroke-linejoin="round"/>
<path d="M57.8391 51.8673C58.208 51.8668 58.5617 51.7201 58.8225 51.4593C59.0834 51.1984 59.2301 50.8448 59.2305 50.4759V49.9944C58.3104 50.1677 57.3653 50.161 56.4478 49.9746V50.4759C56.4482 50.8448 56.5949 51.1984 56.8558 51.4593C57.1166 51.7201 57.4703 51.8668 57.8391 51.8673Z" fill="#FAFAFA"/>
<path d="M63.539 54.6215L62.3981 52.2233C62.1829 51.7743 61.8038 51.425 61.3388 51.2472L60.4681 50.9154C60.1235 50.8135 59.8721 50.4088 59.67 50.1328V50.4102C59.6783 50.666 59.6331 50.9208 59.5374 51.1582C59.4416 51.3956 59.2975 51.6104 59.1141 51.789C58.9307 51.9675 58.7121 52.1059 58.4722 52.1953C58.2323 52.2846 57.9764 52.323 57.7209 52.3079C57.4654 52.2928 57.2158 52.2247 56.9881 52.1077C56.7604 51.9908 56.5596 51.8277 56.3984 51.6288C56.2373 51.4299 56.1194 51.1997 56.0522 50.9526C55.985 50.7056 55.9701 50.4473 56.0084 50.1942C55.8578 50.4837 55.6116 50.7121 55.3116 50.8404L54.496 51.1329C54.0278 51.2985 53.6419 51.6388 53.4189 52.0824L52.1394 54.6215C52.1216 54.66 52.1197 54.7039 52.1341 54.7438C52.1485 54.7837 52.178 54.8163 52.2163 54.8346L53.9206 55.6096C53.9526 55.6242 53.9876 55.6309 54.0228 55.6291C54.0579 55.6274 54.0921 55.6172 54.1225 55.5995C54.1529 55.5818 54.1786 55.557 54.1975 55.5273C54.2163 55.4976 54.2278 55.4638 54.2308 55.4287L54.2935 54.7144C54.3 54.6571 54.3287 54.6046 54.3733 54.5681C54.418 54.5316 54.4751 54.514 54.5326 54.519C54.5901 54.524 54.6433 54.5513 54.6809 54.595C54.7186 54.6387 54.7377 54.6954 54.7341 54.7529L54.2035 60.7851C54.2033 60.8279 54.2118 60.8703 54.2287 60.9097C54.2455 60.9491 54.2702 60.9847 54.3013 61.0141C54.3324 61.0436 54.3692 61.0663 54.4095 61.081C54.4497 61.0957 54.4926 61.1019 54.5353 61.0994H61.1606C61.2036 61.1019 61.2466 61.0956 61.287 61.0808C61.3274 61.066 61.3643 61.0431 61.3954 61.0133C61.4266 60.9836 61.4513 60.9479 61.468 60.9082C61.4847 60.8685 61.493 60.8259 61.4925 60.7828C61.3986 59.7762 61.01 55.671 60.9238 54.7542C60.9197 54.6968 60.9382 54.6401 60.9754 54.5962C61.0125 54.5523 61.0654 54.5247 61.1227 54.5193C61.1799 54.5139 61.2371 54.5311 61.2818 54.5673C61.3265 54.6035 61.3552 54.6558 61.3619 54.7129L61.4286 55.42C61.4319 55.4547 61.4434 55.4882 61.4622 55.5176C61.481 55.547 61.5065 55.5715 61.5366 55.5891C61.5668 55.6067 61.6007 55.6168 61.6355 55.6187C61.6703 55.6206 61.7051 55.6142 61.737 55.6L63.4621 54.8303C63.4998 54.8125 63.529 54.7806 63.5434 54.7415C63.5578 54.7024 63.5562 54.6595 63.539 54.6215ZM57.4214 58.8483C57.4197 58.9054 57.3957 58.9596 57.3547 58.9994C57.3137 59.0392 57.2588 59.0614 57.2017 59.0614C57.1445 59.0614 57.0896 59.0392 57.0486 58.9994C57.0076 58.9596 56.9837 58.9054 56.982 58.8483V56.6328L56.7687 56.7646C56.7191 56.7939 56.6601 56.8026 56.6043 56.7888C56.5484 56.775 56.5002 56.7399 56.47 56.6909C56.4398 56.642 56.43 56.5831 56.4427 56.527C56.4554 56.4709 56.4896 56.422 56.538 56.3909L57.0852 56.05C57.1187 56.0301 57.1568 56.0194 57.1958 56.0188C57.2347 56.0183 57.2731 56.0279 57.3071 56.0468C57.3412 56.0658 57.3697 56.0933 57.3898 56.1266C57.4098 56.16 57.4208 56.1981 57.4216 56.237L57.4214 58.8483ZM59.002 58.8483C59.002 58.9066 58.9788 58.9625 58.9376 59.0038C58.8964 59.045 58.8405 59.0681 58.7822 59.0681C58.7239 59.0681 58.668 59.045 58.6267 59.0038C58.5855 58.9625 58.5623 58.9066 58.5623 58.8483V56.6328L58.3493 56.7646C58.2997 56.7952 58.24 56.8049 58.1833 56.7915C58.1266 56.7781 58.0776 56.7427 58.047 56.6932C58.0164 56.6436 58.0067 56.5839 58.0201 56.5272C58.0335 56.4705 58.0689 56.4215 58.1184 56.3909L58.6656 56.05C58.6991 56.0301 58.7372 56.0194 58.7762 56.0188C58.8151 56.0183 58.8535 56.0279 58.8875 56.0468C58.9216 56.0658 58.9501 56.0933 58.9701 56.1266C58.9902 56.16 59.0012 56.1981 59.002 56.237V58.8483Z" fill="#FAFAFA"/>
<path d="M57.4214 58.8483C57.4197 58.9054 57.3957 58.9596 57.3547 58.9994C57.3137 59.0392 57.2588 59.0614 57.2017 59.0614C57.1445 59.0614 57.0896 59.0392 57.0486 58.9994C57.0076 58.9596 56.9837 58.9054 56.982 58.8483V56.6328L56.7687 56.7646C56.7191 56.7939 56.6601 56.8026 56.6043 56.7888C56.5484 56.775 56.5002 56.7399 56.47 56.6909C56.4398 56.642 56.43 56.5831 56.4427 56.527C56.4554 56.4709 56.4896 56.422 56.538 56.3909L57.0852 56.05C57.1187 56.0301 57.1568 56.0194 57.1958 56.0188C57.2347 56.0183 57.2731 56.0279 57.3071 56.0468C57.3412 56.0658 57.3697 56.0933 57.3898 56.1266C57.4098 56.16 57.4208 56.1981 57.4216 56.237L57.4214 58.8483Z" fill="#FAFAFA"/>
<path d="M59.002 58.8483C59.002 58.9066 58.9788 58.9625 58.9376 59.0038C58.8964 59.045 58.8405 59.0681 58.7822 59.0681C58.7239 59.0681 58.668 59.045 58.6267 59.0038C58.5855 58.9625 58.5623 58.9066 58.5623 58.8483V56.6328L58.3493 56.7646C58.2997 56.7952 58.24 56.8049 58.1833 56.7915C58.1266 56.7781 58.0776 56.7427 58.047 56.6932C58.0164 56.6436 58.0067 56.5839 58.0201 56.5272C58.0335 56.4705 58.0689 56.4215 58.1184 56.3909L58.6656 56.05C58.6991 56.0301 58.7372 56.0194 58.7762 56.0188C58.8151 56.0183 58.8535 56.0279 58.8875 56.0468C58.9216 56.0658 58.9501 56.0933 58.9701 56.1266C58.9902 56.16 59.0012 56.1981 59.002 56.237V58.8483Z" fill="#FAFAFA"/>
<path d="M56.8081 56.332H59.0998" stroke="#191919" stroke-width="0.343756" stroke-linecap="round" stroke-linejoin="round"/>
<path d="M57.9541 57.4792V55.1875" stroke="#191919" stroke-width="0.343756" stroke-linecap="round" stroke-linejoin="round"/>
<path d="M22.8391 51.8673C23.208 51.8668 23.5617 51.7201 23.8225 51.4593C24.0834 51.1984 24.2301 50.8448 24.2305 50.4759V49.9944C23.3104 50.1677 22.3653 50.161 21.4478 49.9746V50.4759C21.4482 50.8448 21.5949 51.1984 21.8558 51.4593C22.1166 51.7201 22.4703 51.8668 22.8391 51.8673Z" fill="#FAFAFA"/>
<path d="M28.539 54.6215L27.3981 52.2233C27.1829 51.7743 26.8038 51.425 26.3388 51.2472L25.4681 50.9154C25.1235 50.8135 24.8721 50.4088 24.67 50.1328V50.4102C24.6783 50.666 24.6331 50.9208 24.5374 51.1582C24.4416 51.3956 24.2975 51.6104 24.1141 51.789C23.9307 51.9675 23.7121 52.1059 23.4722 52.1953C23.2323 52.2846 22.9764 52.323 22.7209 52.3079C22.4654 52.2928 22.2158 52.2247 21.9881 52.1077C21.7604 51.9908 21.5596 51.8277 21.3984 51.6288C21.2373 51.4299 21.1194 51.1997 21.0522 50.9526C20.985 50.7056 20.9701 50.4473 21.0084 50.1942C20.8578 50.4837 20.6116 50.7121 20.3116 50.8404L19.496 51.1329C19.0278 51.2985 18.6419 51.6388 18.4189 52.0824L17.1394 54.6215C17.1216 54.66 17.1197 54.7039 17.1341 54.7438C17.1485 54.7837 17.178 54.8163 17.2163 54.8346L18.9206 55.6096C18.9526 55.6242 18.9876 55.6309 19.0228 55.6291C19.0579 55.6274 19.0921 55.6172 19.1225 55.5995C19.1529 55.5818 19.1786 55.557 19.1975 55.5273C19.2163 55.4976 19.2278 55.4638 19.2308 55.4287L19.2935 54.7144C19.3 54.6571 19.3287 54.6046 19.3733 54.5681C19.418 54.5316 19.4751 54.514 19.5326 54.519C19.5901 54.524 19.6433 54.5513 19.6809 54.595C19.7186 54.6387 19.7377 54.6954 19.7341 54.7529L19.2035 60.7851C19.2033 60.8279 19.2118 60.8703 19.2287 60.9097C19.2455 60.9491 19.2702 60.9847 19.3013 61.0141C19.3324 61.0436 19.3692 61.0663 19.4095 61.081C19.4497 61.0957 19.4926 61.1019 19.5353 61.0994H26.1606C26.2036 61.1019 26.2466 61.0956 26.287 61.0808C26.3274 61.066 26.3643 61.0431 26.3954 61.0133C26.4266 60.9836 26.4513 60.9479 26.468 60.9082C26.4847 60.8685 26.493 60.8259 26.4925 60.7828C26.3986 59.7762 26.01 55.671 25.9238 54.7542C25.9197 54.6968 25.9382 54.6401 25.9754 54.5962C26.0125 54.5523 26.0654 54.5247 26.1227 54.5193C26.1799 54.5139 26.2371 54.5311 26.2818 54.5673C26.3265 54.6035 26.3552 54.6558 26.3619 54.7129L26.4286 55.42C26.4319 55.4547 26.4434 55.4882 26.4622 55.5176C26.481 55.547 26.5065 55.5715 26.5366 55.5891C26.5668 55.6067 26.6007 55.6168 26.6355 55.6187C26.6703 55.6206 26.7051 55.6142 26.737 55.6L28.4621 54.8303C28.4998 54.8125 28.529 54.7806 28.5434 54.7415C28.5578 54.7024 28.5562 54.6595 28.539 54.6215ZM22.4214 58.8483C22.4197 58.9054 22.3957 58.9596 22.3547 58.9994C22.3137 59.0392 22.2588 59.0614 22.2017 59.0614C22.1445 59.0614 22.0896 59.0392 22.0486 58.9994C22.0076 58.9596 21.9837 58.9054 21.982 58.8483V56.6328L21.7687 56.7646C21.7191 56.7939 21.6601 56.8026 21.6043 56.7888C21.5484 56.775 21.5002 56.7399 21.47 56.6909C21.4398 56.642 21.43 56.5831 21.4427 56.527C21.4554 56.4709 21.4896 56.422 21.538 56.3909L22.0852 56.05C22.1187 56.0301 22.1568 56.0194 22.1958 56.0188C22.2347 56.0183 22.2731 56.0279 22.3071 56.0468C22.3412 56.0658 22.3697 56.0933 22.3898 56.1266C22.4098 56.16 22.4208 56.1981 22.4216 56.237L22.4214 58.8483ZM24.002 58.8483C24.002 58.9066 23.9788 58.9625 23.9376 59.0038C23.8964 59.045 23.8405 59.0681 23.7822 59.0681C23.7239 59.0681 23.668 59.045 23.6267 59.0038C23.5855 58.9625 23.5623 58.9066 23.5623 58.8483V56.6328L23.3493 56.7646C23.2997 56.7952 23.24 56.8049 23.1833 56.7915C23.1266 56.7781 23.0776 56.7427 23.047 56.6932C23.0164 56.6436 23.0067 56.5839 23.0201 56.5272C23.0335 56.4705 23.0689 56.4215 23.1184 56.3909L23.6656 56.05C23.6991 56.0301 23.7372 56.0194 23.7762 56.0188C23.8151 56.0183 23.8535 56.0279 23.8875 56.0468C23.9216 56.0658 23.9501 56.0933 23.9701 56.1266C23.9902 56.16 24.0012 56.1981 24.002 56.237V58.8483Z" fill="#FAFAFA"/>
<path d="M22.4214 58.8483C22.4197 58.9054 22.3957 58.9596 22.3547 58.9994C22.3137 59.0392 22.2588 59.0614 22.2017 59.0614C22.1445 59.0614 22.0896 59.0392 22.0486 58.9994C22.0076 58.9596 21.9837 58.9054 21.982 58.8483V56.6328L21.7687 56.7646C21.7191 56.7939 21.6601 56.8026 21.6043 56.7888C21.5484 56.775 21.5002 56.7399 21.47 56.6909C21.4398 56.642 21.43 56.5831 21.4427 56.527C21.4554 56.4709 21.4896 56.422 21.538 56.3909L22.0852 56.05C22.1187 56.0301 22.1568 56.0194 22.1958 56.0188C22.2347 56.0183 22.2731 56.0279 22.3071 56.0468C22.3412 56.0658 22.3697 56.0933 22.3898 56.1266C22.4098 56.16 22.4208 56.1981 22.4216 56.237L22.4214 58.8483Z" fill="#FAFAFA"/>
<path d="M24.002 58.8483C24.002 58.9066 23.9788 58.9625 23.9376 59.0038C23.8964 59.045 23.8405 59.0681 23.7822 59.0681C23.7239 59.0681 23.668 59.045 23.6267 59.0038C23.5855 58.9625 23.5623 58.9066 23.5623 58.8483V56.6328L23.3493 56.7646C23.2997 56.7952 23.24 56.8049 23.1833 56.7915C23.1266 56.7781 23.0776 56.7427 23.047 56.6932C23.0164 56.6436 23.0067 56.5839 23.0201 56.5272C23.0335 56.4705 23.0689 56.4215 23.1184 56.3909L23.6656 56.05C23.6991 56.0301 23.7372 56.0194 23.7762 56.0188C23.8151 56.0183 23.8535 56.0279 23.8875 56.0468C23.9216 56.0658 23.9501 56.0933 23.9701 56.1266C23.9902 56.16 24.0012 56.1981 24.002 56.237V58.8483Z" fill="#FAFAFA"/>
<path d="M21.8081 56.332H24.0998" stroke="#191919" stroke-width="0.343756" stroke-linecap="round" stroke-linejoin="round"/>
<path d="M22.9541 57.4792V55.1875" stroke="#191919" stroke-width="0.343756" stroke-linecap="round" stroke-linejoin="round"/>
<path d="M40.8391 52.8673C41.208 52.8668 41.5617 52.7201 41.8225 52.4593C42.0834 52.1984 42.2301 51.8448 42.2305 51.4759V50.9944C41.3104 51.1677 40.3653 51.161 39.4478 50.9746V51.4759C39.4482 51.8448 39.5949 52.1984 39.8558 52.4593C40.1166 52.7201 40.4703 52.8668 40.8391 52.8673Z" fill="#FAFAFA"/>
<path d="M46.539 55.6215L45.3981 53.2233C45.1829 52.7743 44.8038 52.425 44.3388 52.2472L43.4681 51.9154C43.1235 51.8135 42.8721 51.4088 42.67 51.1328V51.4102C42.6783 51.666 42.6331 51.9208 42.5374 52.1582C42.4416 52.3956 42.2975 52.6104 42.1141 52.789C41.9307 52.9675 41.7121 53.1059 41.4722 53.1953C41.2323 53.2846 40.9764 53.323 40.7209 53.3079C40.4654 53.2928 40.2158 53.2247 39.9881 53.1077C39.7604 52.9908 39.5596 52.8277 39.3984 52.6288C39.2373 52.4299 39.1194 52.1997 39.0522 51.9526C38.985 51.7056 38.9701 51.4473 39.0084 51.1942C38.8578 51.4837 38.6116 51.7121 38.3116 51.8404L37.496 52.1329C37.0278 52.2985 36.6419 52.6388 36.4189 53.0824L35.1394 55.6215C35.1216 55.66 35.1197 55.7039 35.1341 55.7438C35.1485 55.7837 35.178 55.8163 35.2163 55.8346L36.9206 56.6096C36.9526 56.6242 36.9876 56.6309 37.0228 56.6291C37.0579 56.6274 37.0921 56.6172 37.1225 56.5995C37.1529 56.5818 37.1786 56.557 37.1975 56.5273C37.2163 56.4976 37.2278 56.4638 37.2308 56.4287L37.2935 55.7144C37.3 55.6571 37.3287 55.6046 37.3733 55.5681C37.418 55.5316 37.4751 55.514 37.5326 55.519C37.5901 55.524 37.6433 55.5513 37.6809 55.595C37.7186 55.6387 37.7377 55.6954 37.7341 55.7529L37.2035 61.7851C37.2033 61.8279 37.2118 61.8703 37.2287 61.9097C37.2455 61.9491 37.2702 61.9847 37.3013 62.0141C37.3324 62.0436 37.3692 62.0663 37.4095 62.081C37.4497 62.0957 37.4926 62.1019 37.5353 62.0994H44.1606C44.2036 62.1019 44.2466 62.0956 44.287 62.0808C44.3274 62.066 44.3643 62.0431 44.3954 62.0133C44.4266 61.9836 44.4513 61.9479 44.468 61.9082C44.4847 61.8685 44.493 61.8259 44.4925 61.7828C44.3986 60.7762 44.01 56.671 43.9238 55.7542C43.9197 55.6968 43.9382 55.6401 43.9754 55.5962C44.0125 55.5523 44.0654 55.5247 44.1227 55.5193C44.1799 55.5139 44.2371 55.5311 44.2818 55.5673C44.3265 55.6035 44.3552 55.6558 44.3619 55.7129L44.4286 56.42C44.4319 56.4547 44.4434 56.4882 44.4622 56.5176C44.481 56.547 44.5065 56.5715 44.5366 56.5891C44.5668 56.6067 44.6007 56.6168 44.6355 56.6187C44.6703 56.6206 44.7051 56.6142 44.737 56.6L46.4621 55.8303C46.4998 55.8125 46.529 55.7806 46.5434 55.7415C46.5578 55.7024 46.5562 55.6595 46.539 55.6215ZM40.4214 59.8483C40.4197 59.9054 40.3957 59.9596 40.3547 59.9994C40.3137 60.0392 40.2588 60.0614 40.2017 60.0614C40.1445 60.0614 40.0896 60.0392 40.0486 59.9994C40.0076 59.9596 39.9837 59.9054 39.982 59.8483V57.6328L39.7687 57.7646C39.7191 57.7939 39.6601 57.8026 39.6043 57.7888C39.5484 57.775 39.5002 57.7399 39.47 57.6909C39.4398 57.642 39.43 57.5831 39.4427 57.527C39.4554 57.4709 39.4896 57.422 39.538 57.3909L40.0852 57.05C40.1187 57.0301 40.1568 57.0194 40.1958 57.0188C40.2347 57.0183 40.2731 57.0279 40.3071 57.0468C40.3412 57.0658 40.3697 57.0933 40.3898 57.1266C40.4098 57.16 40.4208 57.1981 40.4216 57.237L40.4214 59.8483ZM42.002 59.8483C42.002 59.9066 41.9788 59.9625 41.9376 60.0038C41.8964 60.045 41.8405 60.0681 41.7822 60.0681C41.7239 60.0681 41.668 60.045 41.6267 60.0038C41.5855 59.9625 41.5623 59.9066 41.5623 59.8483V57.6328L41.3493 57.7646C41.2997 57.7952 41.24 57.8049 41.1833 57.7915C41.1266 57.7781 41.0776 57.7427 41.047 57.6932C41.0164 57.6436 41.0067 57.5839 41.0201 57.5272C41.0335 57.4705 41.0689 57.4215 41.1184 57.3909L41.6656 57.05C41.6991 57.0301 41.7372 57.0194 41.7762 57.0188C41.8151 57.0183 41.8535 57.0279 41.8875 57.0468C41.9216 57.0658 41.9501 57.0933 41.9701 57.1266C41.9902 57.16 42.0012 57.1981 42.002 57.237V59.8483Z" fill="#FAFAFA"/>
<path d="M40.4214 59.8483C40.4197 59.9054 40.3957 59.9596 40.3547 59.9994C40.3137 60.0392 40.2588 60.0614 40.2017 60.0614C40.1445 60.0614 40.0896 60.0392 40.0486 59.9994C40.0076 59.9596 39.9837 59.9054 39.982 59.8483V57.6328L39.7687 57.7646C39.7191 57.7939 39.6601 57.8026 39.6043 57.7888C39.5484 57.775 39.5002 57.7399 39.47 57.6909C39.4398 57.642 39.43 57.5831 39.4427 57.527C39.4554 57.4709 39.4896 57.422 39.538 57.3909L40.0852 57.05C40.1187 57.0301 40.1568 57.0194 40.1958 57.0188C40.2347 57.0183 40.2731 57.0279 40.3071 57.0468C40.3412 57.0658 40.3697 57.0933 40.3898 57.1266C40.4098 57.16 40.4208 57.1981 40.4216 57.237L40.4214 59.8483Z" fill="#FAFAFA"/>
<path d="M42.002 59.8483C42.002 59.9066 41.9788 59.9625 41.9376 60.0038C41.8964 60.045 41.8405 60.0681 41.7822 60.0681C41.7239 60.0681 41.668 60.045 41.6267 60.0038C41.5855 59.9625 41.5623 59.9066 41.5623 59.8483V57.6328L41.3493 57.7646C41.2997 57.7952 41.24 57.8049 41.1833 57.7915C41.1266 57.7781 41.0776 57.7427 41.047 57.6932C41.0164 57.6436 41.0067 57.5839 41.0201 57.5272C41.0335 57.4705 41.0689 57.4215 41.1184 57.3909L41.6656 57.05C41.6991 57.0301 41.7372 57.0194 41.7762 57.0188C41.8151 57.0183 41.8535 57.0279 41.8875 57.0468C41.9216 57.0658 41.9501 57.0933 41.9701 57.1266C41.9902 57.16 42.0012 57.1981 42.002 57.237V59.8483Z" fill="#FAFAFA"/>
<path d="M39.8081 57.332H42.0998" stroke="#191919" stroke-width="0.343756" stroke-linecap="round" stroke-linejoin="round"/>
<path d="M40.9541 58.4792V56.1875" stroke="#191919" stroke-width="0.343756" stroke-linecap="round" stroke-linejoin="round"/>
<path d="M28.8391 3.86728C29.208 3.86685 29.5617 3.72012 29.8225 3.45927C30.0834 3.19843 30.2301 2.84478 30.2305 2.47589V1.99441C29.3104 2.16774 28.3653 2.16102 27.4478 1.97461V2.47589C27.4482 2.84478 27.5949 3.19843 27.8558 3.45927C28.1166 3.72012 28.4703 3.86685 28.8391 3.86728Z" fill="#FAFAFA"/>
<path d="M34.539 6.6215L33.3981 4.22326C33.1829 3.77433 32.8038 3.42501 32.3388 3.24723L31.4681 2.91535C31.1235 2.8135 30.8721 2.40876 30.67 2.13281V2.41019C30.6783 2.66603 30.6331 2.92078 30.5374 3.15818C30.4416 3.39558 30.2975 3.61042 30.1141 3.78898C29.9307 3.96755 29.7121 4.10592 29.4722 4.19527C29.2323 4.28462 28.9764 4.32299 28.7209 4.30792C28.4654 4.29285 28.2158 4.22467 27.9881 4.10775C27.7604 3.99082 27.5596 3.82772 27.3984 3.62883C27.2373 3.42994 27.1194 3.19965 27.0522 2.95265C26.985 2.70564 26.9701 2.44735 27.0084 2.19425C26.8578 2.48374 26.6116 2.7121 26.3116 2.84045L25.496 3.13293C25.0278 3.29852 24.6419 3.63876 24.4189 4.08243L23.1394 6.6215C23.1216 6.66 23.1197 6.70395 23.1341 6.74383C23.1485 6.78371 23.178 6.81632 23.2163 6.83458L24.9206 7.60957C24.9526 7.62418 24.9876 7.63089 25.0228 7.62913C25.0579 7.62738 25.0921 7.61722 25.1225 7.5995C25.1529 7.58178 25.1786 7.55702 25.1975 7.52731C25.2163 7.49759 25.2278 7.46379 25.2308 7.42873L25.2935 6.71437C25.3 6.65706 25.3287 6.60457 25.3733 6.56808C25.418 6.53159 25.4751 6.51399 25.5326 6.51902C25.5901 6.52405 25.6433 6.55131 25.6809 6.59501C25.7186 6.6387 25.7377 6.69537 25.7341 6.75294L25.2035 12.7851C25.2033 12.8279 25.2118 12.8703 25.2287 12.9097C25.2455 12.9491 25.2702 12.9847 25.3013 13.0141C25.3324 13.0436 25.3692 13.0663 25.4095 13.081C25.4497 13.0957 25.4926 13.1019 25.5353 13.0994H32.1606C32.2036 13.1019 32.2466 13.0956 32.287 13.0808C32.3274 13.066 32.3643 13.0431 32.3954 13.0133C32.4266 12.9836 32.4513 12.9479 32.468 12.9082C32.4847 12.8685 32.493 12.8259 32.4925 12.7828C32.3986 11.7762 32.01 7.67101 31.9238 6.75417C31.9197 6.69679 31.9382 6.64008 31.9754 6.59618C32.0125 6.55227 32.0654 6.52467 32.1227 6.51928C32.1799 6.51389 32.2371 6.53114 32.2818 6.56734C32.3265 6.60353 32.3552 6.6558 32.3619 6.71294L32.4286 7.41996C32.4319 7.4547 32.4434 7.48815 32.4622 7.51756C32.481 7.54697 32.5065 7.57148 32.5366 7.58908C32.5668 7.60667 32.6007 7.61683 32.6355 7.61873C32.6703 7.62062 32.7051 7.6142 32.737 7.59998L34.4621 6.8303C34.4998 6.81252 34.529 6.78065 34.5434 6.74155C34.5578 6.70245 34.5562 6.65946 34.539 6.6215ZM28.4214 10.8483C28.4197 10.9054 28.3957 10.9596 28.3547 10.9994C28.3137 11.0392 28.2588 11.0614 28.2017 11.0614C28.1445 11.0614 28.0896 11.0392 28.0486 10.9994C28.0076 10.9596 27.9837 10.9054 27.982 10.8483V8.63275L27.7687 8.7646C27.7191 8.79389 27.6601 8.80258 27.6043 8.7888C27.5484 8.77502 27.5002 8.73987 27.47 8.69091C27.4398 8.64196 27.43 8.5831 27.4427 8.52699C27.4554 8.47089 27.4896 8.42202 27.538 8.39089L28.0852 8.05003C28.1187 8.03014 28.1568 8.01938 28.1958 8.01882C28.2347 8.01826 28.2731 8.02792 28.3071 8.04684C28.3412 8.06576 28.3697 8.09328 28.3898 8.12664C28.4098 8.16001 28.4208 8.19806 28.4216 8.23699L28.4214 10.8483ZM30.002 10.8483C30.002 10.9066 29.9788 10.9625 29.9376 11.0038C29.8964 11.045 29.8405 11.0681 29.7822 11.0681C29.7239 11.0681 29.668 11.045 29.6267 11.0038C29.5855 10.9625 29.5623 10.9066 29.5623 10.8483V8.63275L29.3493 8.7646C29.2997 8.79522 29.24 8.80489 29.1833 8.79149C29.1266 8.77809 29.0776 8.74273 29.047 8.69317C29.0164 8.64361 29.0067 8.58392 29.0201 8.52723C29.0335 8.47054 29.0689 8.4215 29.1184 8.39089L29.6656 8.05003C29.6991 8.03014 29.7372 8.01938 29.7762 8.01882C29.8151 8.01826 29.8535 8.02792 29.8875 8.04684C29.9216 8.06576 29.9501 8.09328 29.9701 8.12664C29.9902 8.16001 30.0012 8.19806 30.002 8.23699V10.8483Z" fill="#FAFAFA"/>
<path d="M28.4214 10.8483C28.4197 10.9054 28.3957 10.9596 28.3547 10.9994C28.3137 11.0392 28.2588 11.0614 28.2017 11.0614C28.1445 11.0614 28.0896 11.0392 28.0486 10.9994C28.0076 10.9596 27.9837 10.9054 27.982 10.8483V8.63275L27.7687 8.7646C27.7191 8.79389 27.6601 8.80258 27.6043 8.7888C27.5484 8.77502 27.5002 8.73987 27.47 8.69091C27.4398 8.64196 27.43 8.5831 27.4427 8.52699C27.4554 8.47089 27.4896 8.42202 27.538 8.39089L28.0852 8.05003C28.1187 8.03014 28.1568 8.01938 28.1958 8.01882C28.2347 8.01826 28.2731 8.02792 28.3071 8.04684C28.3412 8.06576 28.3697 8.09328 28.3898 8.12664C28.4098 8.16001 28.4208 8.19806 28.4216 8.23699L28.4214 10.8483Z" fill="#FAFAFA"/>
<path d="M30.002 10.8483C30.002 10.9066 29.9788 10.9625 29.9376 11.0038C29.8964 11.045 29.8405 11.0681 29.7822 11.0681C29.7239 11.0681 29.668 11.045 29.6267 11.0038C29.5855 10.9625 29.5623 10.9066 29.5623 10.8483V8.63275L29.3493 8.7646C29.2997 8.79522 29.24 8.80489 29.1833 8.79149C29.1266 8.77809 29.0776 8.74273 29.047 8.69317C29.0164 8.64361 29.0067 8.58392 29.0201 8.52723C29.0335 8.47054 29.0689 8.4215 29.1184 8.39089L29.6656 8.05003C29.6991 8.03014 29.7372 8.01938 29.7762 8.01882C29.8151 8.01826 29.8535 8.02792 29.8875 8.04684C29.9216 8.06576 29.9501 8.09328 29.9701 8.12664C29.9902 8.16001 30.0012 8.19806 30.002 8.23699V10.8483Z" fill="#FAFAFA"/>
<path d="M27.8081 8.33203H30.0998" stroke="#191919" stroke-width="0.343756" stroke-linecap="round" stroke-linejoin="round"/>
<path d="M28.9541 9.47921V7.1875" stroke="#191919" stroke-width="0.343756" stroke-linecap="round" stroke-linejoin="round"/>
<path d="M51.9019 3.86728C52.2708 3.86685 52.6244 3.72012 52.8853 3.45927C53.1461 3.19843 53.2928 2.84478 53.2933 2.47589V1.99441C52.3731 2.16774 51.4281 2.16102 50.5105 1.97461V2.47589C50.5109 2.84478 50.6577 3.19843 50.9185 3.45927C51.1793 3.72012 51.533 3.86685 51.9019 3.86728Z" fill="#FAFAFA"/>
<path d="M57.6018 6.6215L56.4608 4.22326C56.2457 3.77433 55.8665 3.42501 55.4015 3.24723L54.5308 2.91535C54.1863 2.8135 53.9348 2.40876 53.7328 2.13281V2.41019C53.741 2.66603 53.6958 2.92078 53.6001 3.15818C53.5044 3.39558 53.3602 3.61042 53.1768 3.78898C52.9934 3.96755 52.7748 4.10592 52.5349 4.19527C52.2951 4.28462 52.0392 4.32299 51.7837 4.30792C51.5281 4.29285 51.2785 4.22467 51.0508 4.10775C50.8231 3.99082 50.6223 3.82772 50.4612 3.62883C50.3 3.42994 50.1821 3.19965 50.115 2.95265C50.0478 2.70564 50.0329 2.44735 50.0711 2.19425C49.9206 2.48374 49.6743 2.7121 49.3743 2.84045L48.5587 3.13293C48.0906 3.29852 47.7046 3.63876 47.4816 4.08243L46.2021 6.6215C46.1843 6.66 46.1824 6.70395 46.1968 6.74383C46.2112 6.78371 46.2408 6.81632 46.279 6.83458L47.9833 7.60957C48.0153 7.62418 48.0504 7.63089 48.0855 7.62913C48.1207 7.62738 48.1549 7.61722 48.1853 7.5995C48.2157 7.58178 48.2414 7.55702 48.2602 7.52731C48.2791 7.49759 48.2905 7.46379 48.2936 7.42873L48.3562 6.71437C48.3628 6.65706 48.3914 6.60457 48.4361 6.56808C48.4807 6.53159 48.5379 6.51399 48.5953 6.51902C48.6528 6.52405 48.706 6.55131 48.7437 6.59501C48.7813 6.6387 48.8004 6.69537 48.7969 6.75294L48.2662 12.7851C48.266 12.8279 48.2746 12.8703 48.2914 12.9097C48.3082 12.9491 48.333 12.9847 48.3641 13.0141C48.3952 13.0436 48.432 13.0663 48.4722 13.081C48.5125 13.0957 48.5553 13.1019 48.5981 13.0994H55.2233C55.2663 13.1019 55.3093 13.0956 55.3497 13.0808C55.3901 13.066 55.4271 13.0431 55.4582 13.0133C55.4893 12.9836 55.514 12.9479 55.5307 12.9082C55.5474 12.8685 55.5557 12.8259 55.5552 12.7828C55.4613 11.7762 55.0727 7.67101 54.9866 6.75417C54.9824 6.69679 55.0009 6.64008 55.0381 6.59618C55.0753 6.55227 55.1282 6.52467 55.1854 6.51928C55.2427 6.51389 55.2998 6.53114 55.3445 6.56734C55.3892 6.60353 55.418 6.6558 55.4246 6.71294L55.4913 7.41996C55.4946 7.4547 55.5061 7.48815 55.5249 7.51756C55.5437 7.54697 55.5692 7.57148 55.5994 7.58908C55.6295 7.60667 55.6634 7.61683 55.6982 7.61873C55.7331 7.62062 55.7679 7.6142 55.7997 7.59998L57.5248 6.8303C57.5625 6.81252 57.5917 6.78065 57.6061 6.74155C57.6205 6.70245 57.6189 6.65946 57.6018 6.6215ZM51.4841 10.8483C51.4824 10.9054 51.4585 10.9596 51.4175 10.9994C51.3765 11.0392 51.3216 11.0614 51.2644 11.0614C51.2073 11.0614 51.1524 11.0392 51.1114 10.9994C51.0704 10.9596 51.0464 10.9054 51.0447 10.8483V8.63275L50.8314 8.7646C50.7819 8.79389 50.7229 8.80258 50.667 8.7888C50.6112 8.77502 50.5629 8.73987 50.5327 8.69091C50.5025 8.64196 50.4927 8.5831 50.5054 8.52699C50.5182 8.47089 50.5524 8.42202 50.6008 8.39089L51.148 8.05003C51.1815 8.03014 51.2196 8.01938 51.2585 8.01882C51.2974 8.01826 51.3359 8.02792 51.3699 8.04684C51.4039 8.06576 51.4324 8.09328 51.4525 8.12664C51.4726 8.16001 51.4836 8.19806 51.4843 8.23699L51.4841 10.8483ZM53.0647 10.8483C53.0647 10.9066 53.0416 10.9625 53.0003 11.0038C52.9591 11.045 52.9032 11.0681 52.8449 11.0681C52.7866 11.0681 52.7307 11.045 52.6895 11.0038C52.6482 10.9625 52.6251 10.9066 52.6251 10.8483V8.63275L52.412 8.7646C52.3624 8.79522 52.3028 8.80489 52.2461 8.79149C52.1894 8.77809 52.1403 8.74273 52.1097 8.69317C52.0791 8.64361 52.0694 8.58392 52.0828 8.52723C52.0962 8.47054 52.1316 8.4215 52.1812 8.39089L52.7284 8.05003C52.7618 8.03014 52.8 8.01938 52.8389 8.01882C52.8778 8.01826 52.9162 8.02792 52.9503 8.04684C52.9843 8.06576 53.0128 8.09328 53.0329 8.12664C53.053 8.16001 53.0639 8.19806 53.0647 8.23699V10.8483Z" fill="#FAFAFA"/>
<path d="M51.4841 10.8483C51.4824 10.9054 51.4585 10.9596 51.4175 10.9994C51.3765 11.0392 51.3216 11.0614 51.2644 11.0614C51.2073 11.0614 51.1524 11.0392 51.1114 10.9994C51.0704 10.9596 51.0464 10.9054 51.0447 10.8483V8.63275L50.8314 8.7646C50.7819 8.79389 50.7229 8.80258 50.667 8.7888C50.6112 8.77502 50.5629 8.73987 50.5327 8.69091C50.5025 8.64196 50.4927 8.5831 50.5054 8.52699C50.5182 8.47089 50.5524 8.42202 50.6008 8.39089L51.148 8.05003C51.1815 8.03014 51.2196 8.01938 51.2585 8.01882C51.2974 8.01826 51.3359 8.02792 51.3699 8.04684C51.4039 8.06576 51.4324 8.09328 51.4525 8.12664C51.4726 8.16001 51.4836 8.19806 51.4843 8.23699L51.4841 10.8483Z" fill="#FAFAFA"/>
<path d="M53.0647 10.8483C53.0647 10.9066 53.0416 10.9625 53.0003 11.0038C52.9591 11.045 52.9032 11.0681 52.8449 11.0681C52.7866 11.0681 52.7307 11.045 52.6895 11.0038C52.6482 10.9625 52.6251 10.9066 52.6251 10.8483V8.63275L52.412 8.7646C52.3624 8.79522 52.3028 8.80489 52.2461 8.79149C52.1894 8.77809 52.1403 8.74273 52.1097 8.69317C52.0791 8.64361 52.0694 8.58392 52.0828 8.52723C52.0962 8.47054 52.1316 8.4215 52.1812 8.39089L52.7284 8.05003C52.7618 8.03014 52.8 8.01938 52.8389 8.01882C52.8778 8.01826 52.9162 8.02792 52.9503 8.04684C52.9843 8.06576 53.0128 8.09328 53.0329 8.12664C53.053 8.16001 53.0639 8.19806 53.0647 8.23699V10.8483Z" fill="#FAFAFA"/>
<path d="M50.8708 8.33203H53.1626" stroke="#191919" stroke-width="0.343756" stroke-linecap="round" stroke-linejoin="round"/>
<path d="M52.0168 9.47921V7.1875" stroke="#191919" stroke-width="0.343756" stroke-linecap="round" stroke-linejoin="round"/>
<path d="M24.741 32.8673C25.1099 32.8668 25.4635 32.7201 25.7244 32.4593C25.9852 32.1984 26.132 31.8448 26.1324 31.4759V30.9944C25.2122 31.1677 24.2672 31.161 23.3496 30.9746V31.4759C23.35 31.8448 23.4968 32.1984 23.7576 32.4593C24.0185 32.7201 24.3721 32.8668 24.741 32.8673Z" fill="#FAFAFA"/>
<path d="M30.4409 35.6215L29.3 33.2233C29.0848 32.7743 28.7056 32.425 28.2406 32.2472L27.3699 31.9154C27.0254 31.8135 26.7739 31.4088 26.5719 31.1328V31.4102C26.5801 31.666 26.5349 31.9208 26.4392 32.1582C26.3435 32.3956 26.1993 32.6104 26.0159 32.789C25.8325 32.9675 25.6139 33.1059 25.374 33.1953C25.1342 33.2846 24.8783 33.323 24.6228 33.3079C24.3672 33.2928 24.1177 33.2247 23.89 33.1077C23.6622 32.9908 23.4614 32.8277 23.3003 32.6288C23.1391 32.4299 23.0212 32.1997 22.9541 31.9526C22.8869 31.7056 22.872 31.4473 22.9102 31.1942C22.7597 31.4837 22.5134 31.7121 22.2134 31.8404L21.3978 32.1329C20.9297 32.2985 20.5437 32.6388 20.3207 33.0824L19.0412 35.6215C19.0234 35.66 19.0216 35.7039 19.036 35.7438C19.0504 35.7837 19.0799 35.8163 19.1182 35.8346L20.8224 36.6096C20.8544 36.6242 20.8895 36.6309 20.9246 36.6291C20.9598 36.6274 20.994 36.6172 21.0244 36.5995C21.0548 36.5818 21.0805 36.557 21.0993 36.5273C21.1182 36.4976 21.1296 36.4638 21.1327 36.4287L21.1953 35.7144C21.2019 35.6571 21.2305 35.6046 21.2752 35.5681C21.3199 35.5316 21.377 35.514 21.4345 35.519C21.4919 35.524 21.5451 35.5513 21.5828 35.595C21.6204 35.6387 21.6395 35.6954 21.636 35.7529L21.1053 41.7851C21.1051 41.8279 21.1137 41.8703 21.1305 41.9097C21.1473 41.9491 21.1721 41.9847 21.2032 42.0141C21.2343 42.0436 21.2711 42.0663 21.3114 42.081C21.3516 42.0957 21.3944 42.1019 21.4372 42.0994H28.0625C28.1054 42.1019 28.1484 42.0956 28.1888 42.0808C28.2292 42.066 28.2662 42.0431 28.2973 42.0133C28.3284 41.9836 28.3531 41.9479 28.3698 41.9082C28.3865 41.8685 28.3949 41.8259 28.3943 41.7828C28.3004 40.7762 27.9118 36.671 27.8257 35.7542C27.8216 35.6968 27.8401 35.6401 27.8772 35.5962C27.9144 35.5523 27.9673 35.5247 28.0245 35.5193C28.0818 35.5139 28.1389 35.5311 28.1836 35.5673C28.2283 35.6035 28.2571 35.6558 28.2637 35.7129L28.3305 36.42C28.3337 36.4547 28.3453 36.4882 28.364 36.5176C28.3828 36.547 28.4083 36.5715 28.4385 36.5891C28.4686 36.6067 28.5025 36.6168 28.5373 36.6187C28.5722 36.6206 28.607 36.6142 28.6389 36.6L30.364 35.8303C30.4016 35.8125 30.4308 35.7806 30.4452 35.7415C30.4596 35.7024 30.4581 35.6595 30.4409 35.6215ZM24.3233 39.8483C24.3215 39.9054 24.2976 39.9596 24.2566 39.9994C24.2156 40.0392 24.1607 40.0614 24.1035 40.0614C24.0464 40.0614 23.9915 40.0392 23.9505 39.9994C23.9095 39.9596 23.8856 39.9054 23.8838 39.8483V37.6328L23.6705 37.7646C23.621 37.7939 23.562 37.8026 23.5061 37.7888C23.4503 37.775 23.402 37.7399 23.3718 37.6909C23.3416 37.642 23.3318 37.5831 23.3445 37.527C23.3573 37.4709 23.3915 37.422 23.4399 37.3909L23.9871 37.05C24.0206 37.0301 24.0587 37.0194 24.0976 37.0188C24.1366 37.0183 24.175 37.0279 24.209 37.0468C24.243 37.0658 24.2715 37.0933 24.2916 37.1266C24.3117 37.16 24.3227 37.1981 24.3235 37.237L24.3233 39.8483ZM25.9038 39.8483C25.9038 39.9066 25.8807 39.9625 25.8395 40.0038C25.7982 40.045 25.7423 40.0681 25.684 40.0681C25.6257 40.0681 25.5698 40.045 25.5286 40.0038C25.4874 39.9625 25.4642 39.9066 25.4642 39.8483V37.6328L25.2511 37.7646C25.2016 37.7952 25.1419 37.8049 25.0852 37.7915C25.0285 37.7781 24.9794 37.7427 24.9488 37.6932C24.9182 37.6436 24.9086 37.5839 24.9219 37.5272C24.9353 37.4705 24.9707 37.4215 25.0203 37.3909L25.5675 37.05C25.601 37.0301 25.6391 37.0194 25.678 37.0188C25.7169 37.0183 25.7554 37.0279 25.7894 37.0468C25.8234 37.0658 25.8519 37.0933 25.872 37.1266C25.8921 37.16 25.9031 37.1981 25.9038 37.237V39.8483Z" fill="#FAFAFA"/>
<path d="M24.3233 39.8483C24.3215 39.9054 24.2976 39.9596 24.2566 39.9994C24.2156 40.0392 24.1607 40.0614 24.1035 40.0614C24.0464 40.0614 23.9915 40.0392 23.9505 39.9994C23.9095 39.9596 23.8856 39.9054 23.8838 39.8483V37.6328L23.6705 37.7646C23.621 37.7939 23.562 37.8026 23.5061 37.7888C23.4503 37.775 23.402 37.7399 23.3718 37.6909C23.3416 37.642 23.3318 37.5831 23.3445 37.527C23.3573 37.4709 23.3915 37.422 23.4399 37.3909L23.9871 37.05C24.0206 37.0301 24.0587 37.0194 24.0976 37.0188C24.1366 37.0183 24.175 37.0279 24.209 37.0468C24.243 37.0658 24.2715 37.0933 24.2916 37.1266C24.3117 37.16 24.3227 37.1981 24.3235 37.237L24.3233 39.8483Z" fill="#FAFAFA"/>
<path d="M25.9038 39.8483C25.9038 39.9066 25.8807 39.9625 25.8395 40.0038C25.7982 40.045 25.7423 40.0681 25.684 40.0681C25.6257 40.0681 25.5698 40.045 25.5286 40.0038C25.4874 39.9625 25.4642 39.9066 25.4642 39.8483V37.6328L25.2511 37.7646C25.2016 37.7952 25.1419 37.8049 25.0852 37.7915C25.0285 37.7781 24.9794 37.7427 24.9488 37.6932C24.9182 37.6436 24.9086 37.5839 24.9219 37.5272C24.9353 37.4705 24.9707 37.4215 25.0203 37.3909L25.5675 37.05C25.601 37.0301 25.6391 37.0194 25.678 37.0188C25.7169 37.0183 25.7554 37.0279 25.7894 37.0468C25.8234 37.0658 25.8519 37.0933 25.872 37.1266C25.8921 37.16 25.9031 37.1981 25.9038 37.237V39.8483Z" fill="#FAFAFA"/>
<path d="M23.71 37.332H26.0017" stroke="#191919" stroke-width="0.343756" stroke-linecap="round" stroke-linejoin="round"/>
<path d="M24.856 38.4792V36.1875" stroke="#191919" stroke-width="0.343756" stroke-linecap="round" stroke-linejoin="round"/>
<path d="M57.8037 32.8673C58.1726 32.8668 58.5263 32.7201 58.7871 32.4593C59.048 32.1984 59.1947 31.8448 59.1951 31.4759V30.9944C58.275 31.1677 57.3299 31.161 56.4124 30.9746V31.4759C56.4128 31.8448 56.5595 32.1984 56.8204 32.4593C57.0812 32.7201 57.4349 32.8668 57.8037 32.8673Z" fill="#FAFAFA"/>
<path d="M63.5036 35.6215L62.3627 33.2233C62.1475 32.7743 61.7684 32.425 61.3034 32.2472L60.4327 31.9154C60.0881 31.8135 59.8367 31.4088 59.6346 31.1328V31.4102C59.6429 31.666 59.5977 31.9208 59.502 32.1582C59.4062 32.3956 59.2621 32.6104 59.0787 32.789C58.8953 32.9675 58.6767 33.1059 58.4368 33.1953C58.1969 33.2846 57.941 33.323 57.6855 33.3079C57.43 33.2928 57.1804 33.2247 56.9527 33.1077C56.725 32.9908 56.5242 32.8277 56.363 32.6288C56.2019 32.4299 56.084 32.1997 56.0168 31.9526C55.9496 31.7056 55.9347 31.4473 55.973 31.1942C55.8224 31.4837 55.5762 31.7121 55.2762 31.8404L54.4606 32.1329C53.9924 32.2985 53.6065 32.6388 53.3835 33.0824L52.104 35.6215C52.0862 35.66 52.0843 35.7039 52.0987 35.7438C52.1131 35.7837 52.1426 35.8163 52.1809 35.8346L53.8852 36.6096C53.9172 36.6242 53.9522 36.6309 53.9874 36.6291C54.0225 36.6274 54.0567 36.6172 54.0871 36.5995C54.1175 36.5818 54.1432 36.557 54.1621 36.5273C54.1809 36.4976 54.1924 36.4638 54.1954 36.4287L54.2581 35.7144C54.2646 35.6571 54.2933 35.6046 54.3379 35.5681C54.3826 35.5316 54.4397 35.514 54.4972 35.519C54.5547 35.524 54.6079 35.5513 54.6455 35.595C54.6832 35.6387 54.7023 35.6954 54.6987 35.7529L54.1681 41.7851C54.1679 41.8279 54.1764 41.8703 54.1933 41.9097C54.2101 41.9491 54.2348 41.9847 54.2659 42.0141C54.297 42.0436 54.3338 42.0663 54.3741 42.081C54.4143 42.0957 54.4572 42.1019 54.4999 42.0994H61.1252C61.1682 42.1019 61.2112 42.0956 61.2516 42.0808C61.292 42.066 61.3289 42.0431 61.36 42.0133C61.3912 41.9836 61.4159 41.9479 61.4326 41.9082C61.4493 41.8685 61.4576 41.8259 61.4571 41.7828C61.3632 40.7762 60.9746 36.671 60.8884 35.7542C60.8843 35.6968 60.9028 35.6401 60.94 35.5962C60.9771 35.5523 61.03 35.5247 61.0873 35.5193C61.1445 35.5139 61.2017 35.5311 61.2464 35.5673C61.2911 35.6035 61.3198 35.6558 61.3265 35.7129L61.3932 36.42C61.3965 36.4547 61.408 36.4882 61.4268 36.5176C61.4456 36.547 61.4711 36.5715 61.5012 36.5891C61.5314 36.6067 61.5653 36.6168 61.6001 36.6187C61.6349 36.6206 61.6697 36.6142 61.7016 36.6L63.4267 35.8303C63.4644 35.8125 63.4936 35.7806 63.508 35.7415C63.5224 35.7024 63.5208 35.6595 63.5036 35.6215ZM57.386 39.8483C57.3843 39.9054 57.3603 39.9596 57.3193 39.9994C57.2783 40.0392 57.2234 40.0614 57.1663 40.0614C57.1091 40.0614 57.0542 40.0392 57.0132 39.9994C56.9722 39.9596 56.9483 39.9054 56.9466 39.8483V37.6328L56.7333 37.7646C56.6837 37.7939 56.6247 37.8026 56.5689 37.7888C56.513 37.775 56.4648 37.7399 56.4346 37.6909C56.4044 37.642 56.3946 37.5831 56.4073 37.527C56.42 37.4709 56.4542 37.422 56.5026 37.3909L57.0498 37.05C57.0833 37.0301 57.1214 37.0194 57.1604 37.0188C57.1993 37.0183 57.2377 37.0279 57.2717 37.0468C57.3058 37.0658 57.3343 37.0933 57.3544 37.1266C57.3744 37.16 57.3854 37.1981 57.3862 37.237L57.386 39.8483ZM58.9666 39.8483C58.9666 39.9066 58.9434 39.9625 58.9022 40.0038C58.861 40.045 58.8051 40.0681 58.7468 40.0681C58.6885 40.0681 58.6326 40.045 58.5913 40.0038C58.5501 39.9625 58.5269 39.9066 58.5269 39.8483V37.6328L58.3139 37.7646C58.2643 37.7952 58.2046 37.8049 58.1479 37.7915C58.0912 37.7781 58.0422 37.7427 58.0116 37.6932C57.981 37.6436 57.9713 37.5839 57.9847 37.5272C57.9981 37.4705 58.0335 37.4215 58.083 37.3909L58.6302 37.05C58.6637 37.0301 58.7018 37.0194 58.7408 37.0188C58.7797 37.0183 58.8181 37.0279 58.8521 37.0468C58.8862 37.0658 58.9147 37.0933 58.9347 37.1266C58.9548 37.16 58.9658 37.1981 58.9666 37.237V39.8483Z" fill="#FAFAFA"/>
<path d="M57.386 39.8483C57.3843 39.9054 57.3603 39.9596 57.3193 39.9994C57.2783 40.0392 57.2234 40.0614 57.1663 40.0614C57.1091 40.0614 57.0542 40.0392 57.0132 39.9994C56.9722 39.9596 56.9483 39.9054 56.9466 39.8483V37.6328L56.7333 37.7646C56.6837 37.7939 56.6247 37.8026 56.5689 37.7888C56.513 37.775 56.4648 37.7399 56.4346 37.6909C56.4044 37.642 56.3946 37.5831 56.4073 37.527C56.42 37.4709 56.4542 37.422 56.5026 37.3909L57.0498 37.05C57.0833 37.0301 57.1214 37.0194 57.1604 37.0188C57.1993 37.0183 57.2377 37.0279 57.2717 37.0468C57.3058 37.0658 57.3343 37.0933 57.3544 37.1266C57.3744 37.16 57.3854 37.1981 57.3862 37.237L57.386 39.8483Z" fill="#FAFAFA"/>
<path d="M58.9666 39.8483C58.9666 39.9066 58.9434 39.9625 58.9022 40.0038C58.861 40.045 58.8051 40.0681 58.7468 40.0681C58.6885 40.0681 58.6326 40.045 58.5913 40.0038C58.5501 39.9625 58.5269 39.9066 58.5269 39.8483V37.6328L58.3139 37.7646C58.2643 37.7952 58.2046 37.8049 58.1479 37.7915C58.0912 37.7781 58.0422 37.7427 58.0116 37.6932C57.981 37.6436 57.9713 37.5839 57.9847 37.5272C57.9981 37.4705 58.0335 37.4215 58.083 37.3909L58.6302 37.05C58.6637 37.0301 58.7018 37.0194 58.7408 37.0188C58.7797 37.0183 58.8181 37.0279 58.8521 37.0468C58.8862 37.0658 58.9147 37.0933 58.9347 37.1266C58.9548 37.16 58.9658 37.1981 58.9666 37.237V39.8483Z" fill="#FAFAFA"/>
<path d="M56.7727 37.332H59.0644" stroke="#191919" stroke-width="0.343756" stroke-linecap="round" stroke-linejoin="round"/>
<path d="M57.9187 38.4792V36.1875" stroke="#191919" stroke-width="0.343756" stroke-linecap="round" stroke-linejoin="round"/>
<path d="M40.7371 18.9962C41.106 18.9958 41.4596 18.849 41.7205 18.5882C41.9813 18.3273 42.128 17.9737 42.1285 17.6048V17.1233C41.2083 17.2967 40.2633 17.2899 39.3457 17.1035V17.6048C39.3461 17.9737 39.4929 18.3273 39.7537 18.5882C40.0145 18.849 40.3682 18.9958 40.7371 18.9962Z" fill="#FAFAFA"/>
<path d="M46.437 21.7504L45.296 19.3522C45.0809 18.9032 44.7017 18.5539 44.2367 18.3761L43.366 18.0443C43.0215 17.9424 42.77 17.5377 42.568 17.2617V17.5391C42.5762 17.7949 42.531 18.0497 42.4353 18.2871C42.3396 18.5245 42.1954 18.7393 42.012 18.9179C41.8286 19.0965 41.61 19.2348 41.3701 19.3242C41.1303 19.4135 40.8744 19.4519 40.6189 19.4368C40.3633 19.4218 40.1138 19.3536 39.886 19.2367C39.6583 19.1197 39.4575 18.9566 39.2964 18.7577C39.1352 18.5589 39.0173 18.3286 38.9502 18.0816C38.883 17.8345 38.8681 17.5763 38.9063 17.3232C38.7558 17.6126 38.5095 17.841 38.2095 17.9694L37.3939 18.2618C36.9258 18.4274 36.5398 18.7677 36.3168 19.2113L35.0373 21.7504C35.0195 21.7889 35.0176 21.8329 35.032 21.8727C35.0464 21.9126 35.076 21.9452 35.1142 21.9635L36.8185 22.7385C36.8505 22.7531 36.8856 22.7598 36.9207 22.758C36.9559 22.7563 36.9901 22.7461 37.0205 22.7284C37.0509 22.7107 37.0766 22.6859 37.0954 22.6562C37.1143 22.6265 37.1257 22.5927 37.1288 22.5576L37.1914 21.8433C37.198 21.786 37.2266 21.7335 37.2713 21.697C37.3159 21.6605 37.3731 21.6429 37.4306 21.6479C37.488 21.653 37.5412 21.6802 37.5789 21.7239C37.6165 21.7676 37.6356 21.8243 37.6321 21.8818L37.1014 27.914C37.1012 27.9568 37.1098 27.9992 37.1266 28.0386C37.1434 28.078 37.1682 28.1136 37.1993 28.143C37.2304 28.1725 37.2672 28.1952 37.3074 28.2099C37.3477 28.2246 37.3905 28.2308 37.4333 28.2283H44.0586C44.1015 28.2309 44.1445 28.2245 44.1849 28.2097C44.2253 28.1949 44.2623 28.172 44.2934 28.1423C44.3245 28.1126 44.3492 28.0768 44.3659 28.0371C44.3826 27.9974 44.391 27.9548 44.3904 27.9117C44.2965 26.9051 43.9079 22.7999 43.8218 21.8831C43.8177 21.8257 43.8361 21.769 43.8733 21.7251C43.9105 21.6812 43.9634 21.6536 44.0206 21.6482C44.0779 21.6428 44.135 21.66 44.1797 21.6962C44.2244 21.7324 44.2532 21.7847 44.2598 21.8418L44.3265 22.5489C44.3298 22.5836 44.3413 22.6171 44.3601 22.6465C44.3789 22.6759 44.4044 22.7004 44.4346 22.718C44.4647 22.7356 44.4986 22.7457 44.5334 22.7476C44.5683 22.7495 44.6031 22.7431 44.6349 22.7289L46.36 21.9592C46.3977 21.9414 46.4269 21.9096 46.4413 21.8705C46.4557 21.8314 46.4542 21.7884 46.437 21.7504ZM40.3193 25.9772C40.3176 26.0343 40.2937 26.0885 40.2527 26.1283C40.2117 26.1681 40.1568 26.1903 40.0996 26.1903C40.0425 26.1903 39.9876 26.1681 39.9466 26.1283C39.9056 26.0885 39.8816 26.0343 39.8799 25.9772V23.7617L39.6666 23.8935C39.6171 23.9228 39.5581 23.9315 39.5022 23.9177C39.4464 23.9039 39.3981 23.8688 39.3679 23.8198C39.3377 23.7709 39.3279 23.712 39.3406 23.6559C39.3534 23.5998 39.3876 23.5509 39.436 23.5198L39.9832 23.1789C40.0167 23.159 40.0548 23.1483 40.0937 23.1477C40.1327 23.1472 40.1711 23.1568 40.2051 23.1757C40.2391 23.1947 40.2676 23.2222 40.2877 23.2555C40.3078 23.2889 40.3188 23.327 40.3195 23.3659L40.3193 25.9772ZM41.8999 25.9772C41.8999 26.0355 41.8768 26.0914 41.8356 26.1327C41.7943 26.1739 41.7384 26.197 41.6801 26.197C41.6218 26.197 41.5659 26.1739 41.5247 26.1327C41.4835 26.0914 41.4603 26.0355 41.4603 25.9772V23.7617L41.2472 23.8935C41.1976 23.9241 41.138 23.9338 41.0813 23.9204C41.0246 23.907 40.9755 23.8716 40.9449 23.8221C40.9143 23.7725 40.9046 23.7128 40.918 23.6561C40.9314 23.5995 40.9668 23.5504 41.0164 23.5198L41.5636 23.1789C41.5971 23.159 41.6352 23.1483 41.6741 23.1477C41.713 23.1472 41.7514 23.1568 41.7855 23.1757C41.8195 23.1947 41.848 23.2222 41.8681 23.2555C41.8882 23.2889 41.8992 23.327 41.8999 23.3659V25.9772Z" fill="#FAFAFA"/>
<path d="M40.3193 25.9772C40.3176 26.0343 40.2937 26.0885 40.2527 26.1283C40.2117 26.1681 40.1568 26.1903 40.0996 26.1903C40.0425 26.1903 39.9876 26.1681 39.9466 26.1283C39.9056 26.0885 39.8816 26.0343 39.8799 25.9772V23.7617L39.6666 23.8935C39.6171 23.9228 39.5581 23.9315 39.5022 23.9177C39.4464 23.9039 39.3981 23.8688 39.3679 23.8198C39.3377 23.7709 39.3279 23.712 39.3406 23.6559C39.3534 23.5998 39.3876 23.5509 39.436 23.5198L39.9832 23.1789C40.0167 23.159 40.0548 23.1483 40.0937 23.1477C40.1327 23.1472 40.1711 23.1568 40.2051 23.1757C40.2391 23.1947 40.2676 23.2222 40.2877 23.2555C40.3078 23.2889 40.3188 23.327 40.3195 23.3659L40.3193 25.9772Z" fill="#FAFAFA"/>
<path d="M41.8999 25.9772C41.8999 26.0355 41.8768 26.0914 41.8356 26.1327C41.7943 26.1739 41.7384 26.197 41.6801 26.197C41.6218 26.197 41.5659 26.1739 41.5247 26.1327C41.4835 26.0914 41.4603 26.0355 41.4603 25.9772V23.7617L41.2472 23.8935C41.1976 23.9241 41.138 23.9338 41.0813 23.9204C41.0246 23.907 40.9755 23.8716 40.9449 23.8221C40.9143 23.7725 40.9046 23.7128 40.918 23.6561C40.9314 23.5995 40.9668 23.5504 41.0164 23.5198L41.5636 23.1789C41.5971 23.159 41.6352 23.1483 41.6741 23.1477C41.713 23.1472 41.7514 23.1568 41.7855 23.1757C41.8195 23.1947 41.848 23.2222 41.8681 23.2555C41.8882 23.2889 41.8992 23.327 41.8999 23.3659V25.9772Z" fill="#FAFAFA"/>
<path d="M39.7061 23.4609H41.9978" stroke="#191919" stroke-width="0.343756" stroke-linecap="round" stroke-linejoin="round"/>
<path d="M40.8521 24.6081V22.3164" stroke="#191919" stroke-width="0.343756" stroke-linecap="round" stroke-linejoin="round"/>
</svg>
