<svg width="82" height="81" viewBox="0 0 82 81" fill="none" xmlns="http://www.w3.org/2000/svg">
<rect x="1.05233" y="0.118492" width="79.9807" height="79.9807" rx="5.88541" fill="#828284" stroke="#FAFAFA" stroke-width="0.229171"/>
<mask id="path-2-inside-1_8758_18921" fill="white">
<path d="M24.7715 66.4609H57.3138V80.2112H24.7715V66.4609Z"/>
</mask>
<path d="M24.7715 66.4609V66.2318H24.5423V66.4609H24.7715ZM57.3138 66.4609H57.5429V66.2318H57.3138V66.4609ZM24.7715 66.6901H57.3138V66.2318H24.7715V66.6901ZM57.0846 66.4609V80.2112H57.5429V66.4609H57.0846ZM25.0007 80.2112V66.4609H24.5423V80.2112H25.0007Z" fill="#FAFAFA" mask="url(#path-2-inside-1_8758_18921)"/>
<mask id="path-4-inside-2_8758_18921" fill="white">
<path d="M13.542 55.0039H68.543V80.2127H13.542V55.0039Z"/>
</mask>
<path d="M13.542 55.0039V54.7747H13.3128V55.0039H13.542ZM68.543 55.0039H68.7722V54.7747H68.543V55.0039ZM13.542 55.2331H68.543V54.7747H13.542V55.2331ZM68.3139 55.0039V80.2127H68.7722V55.0039H68.3139ZM13.7712 80.2127V55.0039H13.3128V80.2127H13.7712Z" fill="#FAFAFA" mask="url(#path-4-inside-2_8758_18921)"/>
<path d="M55.2512 9.53674e-07C55.2512 1.65523 54.8659 3.29426 54.1173 4.8235C53.3687 6.35273 52.2715 7.74223 50.8882 8.91266C49.505 10.0831 47.8629 11.0115 46.0556 11.645C44.2483 12.2784 42.3113 12.6044 40.3551 12.6044C38.3989 12.6044 36.4619 12.2784 34.6546 11.645C32.8473 11.0115 31.2052 10.0831 29.822 8.91266C28.4387 7.74223 27.3415 6.35273 26.5929 4.8235C25.8443 3.29426 25.459 1.65523 25.459 0" stroke="#FAFAFA" stroke-width="0.229171"/>
<path d="M31.5149 55.3516C32.0332 54.5174 32.7928 53.7595 33.7505 53.1211C34.7081 52.4827 35.8449 51.9763 37.0961 51.6308C38.3473 51.2853 39.6883 51.1074 41.0426 51.1074C42.3969 51.1074 43.7379 51.2853 44.9891 51.6308C46.2403 51.9763 47.3772 52.4827 48.3348 53.1211C49.2924 53.7595 50.0521 54.5174 50.5703 55.3516" stroke="#FAFAFA" stroke-width="0.229171"/>
<path d="M1.16699 76.5479C2.28352 76.4958 4.48745 77.1099 4.37094 79.9825" stroke="#FAFAFA" stroke-width="0.229171"/>
<path d="M80.9185 76.5479C79.8019 76.4958 77.598 77.1099 77.7145 79.9825" stroke="#FAFAFA" stroke-width="0.229171"/>
<path d="M41.1568 69.4356C41.5257 69.4352 41.8793 69.2885 42.1401 69.0276C42.401 68.7668 42.5477 68.4131 42.5482 68.0443V67.5628C41.628 67.7361 40.683 67.7294 39.7654 67.543V68.0443C39.7658 68.4131 39.9125 68.7668 40.1734 69.0276C40.4342 69.2885 40.7879 69.4352 41.1568 69.4356Z" fill="#FAFAFA"/>
<path d="M46.8567 72.1899L45.7157 69.7916C45.5005 69.3427 45.1214 68.9934 44.6564 68.8156L43.7857 68.4837C43.4412 68.3819 43.1897 67.9771 42.9877 67.7012V67.9786C42.9959 68.2344 42.9507 68.4891 42.855 68.7265C42.7593 68.9639 42.6151 69.1788 42.4317 69.3573C42.2483 69.5359 42.0297 69.6743 41.7898 69.7636C41.5499 69.853 41.2941 69.8913 41.0385 69.8763C40.783 69.8612 40.5334 69.793 40.3057 69.6761C40.078 69.5592 39.8772 69.3961 39.716 69.1972C39.5549 68.9983 39.437 68.768 39.3698 68.521C39.3027 68.274 39.2877 68.0157 39.326 67.7626C39.1754 68.0521 38.9292 68.2805 38.6292 68.4088L37.8136 68.7013C37.3454 68.8669 36.9595 69.2071 36.7365 69.6508L35.457 72.1899C35.4392 72.2284 35.4373 72.2723 35.4517 72.3122C35.4661 72.3521 35.4957 72.3847 35.5339 72.4029L37.2382 73.1779C37.2702 73.1925 37.3053 73.1992 37.3404 73.1975C37.3756 73.1957 37.4098 73.1856 37.4402 73.1679C37.4706 73.1501 37.4963 73.1254 37.5151 73.0957C37.5339 73.066 37.5454 73.0321 37.5484 72.9971L37.6111 72.2827C37.6176 72.2254 37.6463 72.1729 37.691 72.1364C37.7356 72.1 37.7928 72.0823 37.8502 72.0874C37.9077 72.0924 37.9609 72.1197 37.9986 72.1634C38.0362 72.2071 38.0553 72.2637 38.0518 72.3213L37.5211 78.3534C37.5209 78.3963 37.5295 78.4387 37.5463 78.4781C37.5631 78.5175 37.5879 78.553 37.619 78.5825C37.6501 78.6119 37.6869 78.6347 37.7271 78.6494C37.7674 78.664 37.8102 78.6703 37.853 78.6678H44.4782C44.5212 78.6703 44.5642 78.664 44.6046 78.6492C44.645 78.6344 44.6819 78.6114 44.7131 78.5817C44.7442 78.552 44.7689 78.5162 44.7856 78.4766C44.8023 78.4369 44.8106 78.3942 44.8101 78.3512C44.7162 77.3445 44.3276 73.2394 44.2415 72.3225C44.2373 72.2652 44.2558 72.2084 44.293 72.1645C44.3302 72.1206 44.383 72.093 44.4403 72.0876C44.4976 72.0822 44.5547 72.0995 44.5994 72.1357C44.6441 72.1719 44.6728 72.2242 44.6795 72.2813L44.7462 72.9883C44.7495 73.0231 44.761 73.0565 44.7798 73.0859C44.7986 73.1153 44.8241 73.1398 44.8542 73.1574C44.8844 73.175 44.9183 73.1852 44.9531 73.1871C44.988 73.189 45.0228 73.1826 45.0546 73.1683L46.7797 72.3987C46.8174 72.3809 46.8466 72.349 46.861 72.3099C46.8754 72.2708 46.8738 72.2278 46.8567 72.1899ZM40.739 76.4167C40.7373 76.4738 40.7134 76.528 40.6724 76.5678C40.6313 76.6076 40.5764 76.6298 40.5193 76.6298C40.4622 76.6298 40.4073 76.6076 40.3663 76.5678C40.3252 76.528 40.3013 76.4738 40.2996 76.4167V74.2011L40.0863 74.333C40.0368 74.3623 39.9777 74.3709 39.9219 74.3572C39.866 74.3434 39.8178 74.3082 39.7876 74.2593C39.7574 74.2103 39.7476 74.1515 39.7603 74.0954C39.773 74.0392 39.8073 73.9904 39.8557 73.9592L40.4029 73.6184C40.4363 73.5985 40.4745 73.5877 40.5134 73.5872C40.5523 73.5866 40.5907 73.5963 40.6248 73.6152C40.6588 73.6341 40.6873 73.6616 40.7074 73.695C40.7275 73.7284 40.7384 73.7664 40.7392 73.8054L40.739 76.4167ZM42.3196 76.4167C42.3196 76.475 42.2965 76.5309 42.2552 76.5721C42.214 76.6133 42.1581 76.6365 42.0998 76.6365C42.0415 76.6365 41.9856 76.6133 41.9444 76.5721C41.9031 76.5309 41.88 76.475 41.88 76.4167V74.2011L41.6669 74.333C41.6173 74.3636 41.5576 74.3732 41.5009 74.3598C41.4443 74.3465 41.3952 74.3111 41.3646 74.2615C41.334 74.212 41.3243 74.1523 41.3377 74.0956C41.3511 74.0389 41.3865 73.9899 41.436 73.9592L41.9832 73.6184C42.0167 73.5985 42.0548 73.5877 42.0938 73.5872C42.1327 73.5866 42.1711 73.5963 42.2052 73.6152C42.2392 73.6341 42.2677 73.6616 42.2878 73.695C42.3078 73.7284 42.3188 73.7664 42.3196 73.8054V76.4167Z" fill="#FAFAFA"/>
<path d="M40.739 76.4167C40.7373 76.4738 40.7134 76.528 40.6724 76.5678C40.6313 76.6076 40.5764 76.6298 40.5193 76.6298C40.4622 76.6298 40.4073 76.6076 40.3663 76.5678C40.3252 76.528 40.3013 76.4738 40.2996 76.4167V74.2011L40.0863 74.333C40.0368 74.3623 39.9777 74.3709 39.9219 74.3572C39.866 74.3434 39.8178 74.3082 39.7876 74.2593C39.7574 74.2103 39.7476 74.1515 39.7603 74.0954C39.773 74.0392 39.8073 73.9904 39.8557 73.9592L40.4029 73.6184C40.4363 73.5985 40.4745 73.5877 40.5134 73.5872C40.5523 73.5866 40.5907 73.5963 40.6248 73.6152C40.6588 73.6341 40.6873 73.6616 40.7074 73.695C40.7275 73.7284 40.7384 73.7664 40.7392 73.8054L40.739 76.4167Z" fill="#FAFAFA"/>
<path d="M42.3196 76.4167C42.3196 76.475 42.2965 76.5309 42.2552 76.5721C42.214 76.6133 42.1581 76.6365 42.0998 76.6365C42.0415 76.6365 41.9856 76.6133 41.9444 76.5721C41.9031 76.5309 41.88 76.475 41.88 76.4167V74.2011L41.6669 74.333C41.6173 74.3636 41.5576 74.3732 41.5009 74.3598C41.4443 74.3465 41.3952 74.3111 41.3646 74.2615C41.334 74.212 41.3243 74.1523 41.3377 74.0956C41.3511 74.0389 41.3865 73.9899 41.436 73.9592L41.9832 73.6184C42.0167 73.5985 42.0548 73.5877 42.0938 73.5872C42.1327 73.5866 42.1711 73.5963 42.2052 73.6152C42.2392 73.6341 42.2677 73.6616 42.2878 73.695C42.3078 73.7284 42.3188 73.7664 42.3196 73.8054V76.4167Z" fill="#FAFAFA"/>
<path d="M40.1257 73.8965H42.4174" stroke="#191919" stroke-width="0.343756" stroke-linecap="round" stroke-linejoin="round"/>
<path d="M41.2717 75.0437V72.752" stroke="#191919" stroke-width="0.343756" stroke-linecap="round" stroke-linejoin="round"/>
<path d="M9.17727 45.8673C9.54616 45.8668 9.89981 45.7201 10.1607 45.4593C10.4215 45.1984 10.5682 44.8448 10.5687 44.4759V43.9944C9.64851 44.1677 8.70348 44.161 7.78589 43.9746V44.4759C7.78632 44.8448 7.93305 45.1984 8.19389 45.4593C8.45474 45.7201 8.80839 45.8668 9.17727 45.8673Z" fill="#FAFAFA"/>
<path d="M14.8772 48.6215L13.7362 46.2233C13.5211 45.7743 13.1419 45.425 12.6769 45.2472L11.8062 44.9154C11.4617 44.8135 11.2102 44.4088 11.0082 44.1328V44.4102C11.0164 44.666 10.9712 44.9208 10.8755 45.1582C10.7798 45.3956 10.6356 45.6104 10.4522 45.789C10.2688 45.9675 10.0502 46.1059 9.81031 46.1953C9.57044 46.2846 9.31458 46.323 9.05905 46.3079C8.80352 46.2928 8.55394 46.2247 8.32623 46.1077C8.09853 45.9908 7.89769 45.8277 7.73655 45.6288C7.57541 45.4299 7.4575 45.1997 7.39034 44.9526C7.32318 44.7056 7.30826 44.4473 7.34651 44.1942C7.19594 44.4837 6.9497 44.7121 6.64969 44.8404L5.83409 45.1329C5.36596 45.2985 4.98001 45.6388 4.75702 46.0824L3.47749 48.6215C3.45972 48.66 3.45783 48.7039 3.47223 48.7438C3.48663 48.7837 3.51617 48.8163 3.55443 48.8346L5.25871 49.6096C5.29073 49.6242 5.32578 49.6309 5.36092 49.6291C5.39606 49.6274 5.43027 49.6172 5.46067 49.5995C5.49107 49.5818 5.51677 49.557 5.53561 49.5273C5.55445 49.4976 5.56589 49.4638 5.56895 49.4287L5.63162 48.7144C5.63815 48.6571 5.6668 48.6046 5.71146 48.5681C5.75613 48.5316 5.81328 48.514 5.87074 48.519C5.92819 48.524 5.98141 48.5513 6.01906 48.595C6.05671 48.6387 6.0758 48.6954 6.07228 48.7529L5.5416 54.7851C5.54139 54.8279 5.54996 54.8703 5.56679 54.9097C5.58363 54.9491 5.60836 54.9847 5.63946 55.0141C5.67057 55.0436 5.70738 55.0663 5.74763 55.081C5.78788 55.0957 5.83071 55.1019 5.87348 55.0994H12.4987C12.5417 55.1019 12.5847 55.0956 12.6251 55.0808C12.6655 55.066 12.7024 55.0431 12.7336 55.0133C12.7647 54.9836 12.7894 54.9479 12.8061 54.9082C12.8228 54.8685 12.8311 54.8259 12.8306 54.7828C12.7367 53.7762 12.3481 49.671 12.262 48.7542C12.2578 48.6968 12.2763 48.6401 12.3135 48.5962C12.3507 48.5523 12.4035 48.5247 12.4608 48.5193C12.5181 48.5139 12.5752 48.5311 12.6199 48.5673C12.6646 48.6035 12.6933 48.6558 12.7 48.7129L12.7667 49.42C12.77 49.4547 12.7815 49.4882 12.8003 49.5176C12.8191 49.547 12.8446 49.5715 12.8748 49.5891C12.9049 49.6067 12.9388 49.6168 12.9736 49.6187C13.0085 49.6206 13.0433 49.6142 13.0751 49.6L14.8002 48.8303C14.8379 48.8125 14.8671 48.7806 14.8815 48.7415C14.8959 48.7024 14.8943 48.6595 14.8772 48.6215ZM8.75953 52.8483C8.75779 52.9054 8.73388 52.9596 8.69286 52.9994C8.65185 53.0392 8.59695 53.0614 8.53981 53.0614C8.48267 53.0614 8.42777 53.0392 8.38676 52.9994C8.34574 52.9596 8.32183 52.9054 8.32009 52.8483V50.6328L8.1068 50.7646C8.05728 50.7939 7.99825 50.8026 7.9424 50.7888C7.88654 50.775 7.83832 50.7399 7.80811 50.6909C7.7779 50.642 7.7681 50.5831 7.78082 50.527C7.79355 50.4709 7.82778 50.422 7.87616 50.3909L8.42337 50.05C8.45685 50.0301 8.49496 50.0194 8.5339 50.0188C8.57284 50.0183 8.61124 50.0279 8.64528 50.0468C8.67932 50.0658 8.7078 50.0933 8.72789 50.1266C8.74797 50.16 8.75895 50.1981 8.75973 50.237L8.75953 52.8483ZM10.3401 52.8483C10.3401 52.9066 10.317 52.9625 10.2757 53.0038C10.2345 53.045 10.1786 53.0681 10.1203 53.0681C10.062 53.0681 10.0061 53.045 9.96486 53.0038C9.92364 52.9625 9.90048 52.9066 9.90048 52.8483V50.6328L9.68739 50.7646C9.63784 50.7952 9.57815 50.8049 9.52146 50.7915C9.46477 50.7781 9.41573 50.7427 9.38511 50.6932C9.3545 50.6436 9.34483 50.5839 9.35823 50.5272C9.37162 50.4705 9.40699 50.4215 9.45655 50.3909L10.0038 50.05C10.0372 50.0301 10.0753 50.0194 10.1143 50.0188C10.1532 50.0183 10.1916 50.0279 10.2257 50.0468C10.2597 50.0658 10.2882 50.0933 10.3083 50.1266C10.3284 50.16 10.3393 50.1981 10.3401 50.237V52.8483Z" fill="#FAFAFA"/>
<path d="M8.75953 52.8483C8.75779 52.9054 8.73388 52.9596 8.69286 52.9994C8.65185 53.0392 8.59695 53.0614 8.53981 53.0614C8.48267 53.0614 8.42777 53.0392 8.38676 52.9994C8.34574 52.9596 8.32183 52.9054 8.32009 52.8483V50.6328L8.1068 50.7646C8.05728 50.7939 7.99825 50.8026 7.9424 50.7888C7.88654 50.775 7.83832 50.7399 7.80811 50.6909C7.7779 50.642 7.7681 50.5831 7.78082 50.527C7.79355 50.4709 7.82778 50.422 7.87616 50.3909L8.42337 50.05C8.45685 50.0301 8.49496 50.0194 8.5339 50.0188C8.57284 50.0183 8.61124 50.0279 8.64528 50.0468C8.67932 50.0658 8.7078 50.0933 8.72789 50.1266C8.74797 50.16 8.75895 50.1981 8.75973 50.237L8.75953 52.8483Z" fill="#FAFAFA"/>
<path d="M10.3401 52.8483C10.3401 52.9066 10.317 52.9625 10.2757 53.0038C10.2345 53.045 10.1786 53.0681 10.1203 53.0681C10.062 53.0681 10.0061 53.045 9.96486 53.0038C9.92364 52.9625 9.90048 52.9066 9.90048 52.8483V50.6328L9.68739 50.7646C9.63784 50.7952 9.57815 50.8049 9.52146 50.7915C9.46477 50.7781 9.41573 50.7427 9.38511 50.6932C9.3545 50.6436 9.34483 50.5839 9.35823 50.5272C9.37162 50.4705 9.40699 50.4215 9.45655 50.3909L10.0038 50.05C10.0372 50.0301 10.0753 50.0194 10.1143 50.0188C10.1532 50.0183 10.1916 50.0279 10.2257 50.0468C10.2597 50.0658 10.2882 50.0933 10.3083 50.1266C10.3284 50.16 10.3393 50.1981 10.3401 50.237V52.8483Z" fill="#FAFAFA"/>
<path d="M8.14624 50.332H10.438" stroke="#191919" stroke-width="0.343756" stroke-linecap="round" stroke-linejoin="round"/>
<path d="M9.29224 51.4792V49.1875" stroke="#191919" stroke-width="0.343756" stroke-linecap="round" stroke-linejoin="round"/>
<path d="M72.24 45.8673C72.6089 45.8668 72.9626 45.7201 73.2234 45.4593C73.4842 45.1984 73.631 44.8448 73.6314 44.4759V43.9944C72.7113 44.1677 71.7662 44.161 70.8486 43.9746V44.4759C70.8491 44.8448 70.9958 45.1984 71.2566 45.4593C71.5175 45.7201 71.8711 45.8668 72.24 45.8673Z" fill="#FAFAFA"/>
<path d="M77.9399 48.6215L76.799 46.2233C76.5838 45.7743 76.2047 45.425 75.7397 45.2472L74.869 44.9154C74.5244 44.8135 74.273 44.4088 74.0709 44.1328V44.4102C74.0791 44.666 74.034 44.9208 73.9382 45.1582C73.8425 45.3956 73.6983 45.6104 73.5149 45.789C73.3315 45.9675 73.1129 46.1059 72.8731 46.1953C72.6332 46.2846 72.3773 46.323 72.1218 46.3079C71.8663 46.2928 71.6167 46.2247 71.389 46.1077C71.1613 45.9908 70.9604 45.8277 70.7993 45.6288C70.6382 45.4299 70.5202 45.1997 70.4531 44.9526C70.3859 44.7056 70.371 44.4473 70.4093 44.1942C70.2587 44.4837 70.0124 44.7121 69.7124 44.8404L68.8968 45.1329C68.4287 45.2985 68.0428 45.6388 67.8198 46.0824L66.5402 48.6215C66.5225 48.66 66.5206 48.7039 66.535 48.7438C66.5494 48.7837 66.5789 48.8163 66.6172 48.8346L68.3215 49.6096C68.3535 49.6242 68.3885 49.6309 68.4237 49.6291C68.4588 49.6274 68.493 49.6172 68.5234 49.5995C68.5538 49.5818 68.5795 49.557 68.5984 49.5273C68.6172 49.4976 68.6286 49.4638 68.6317 49.4287L68.6944 48.7144C68.7009 48.6571 68.7295 48.6046 68.7742 48.5681C68.8189 48.5316 68.876 48.514 68.9335 48.519C68.9909 48.524 69.0442 48.5513 69.0818 48.595C69.1195 48.6387 69.1385 48.6954 69.135 48.7529L68.6043 54.7851C68.6041 54.8279 68.6127 54.8703 68.6295 54.9097C68.6464 54.9491 68.6711 54.9847 68.7022 55.0141C68.7333 55.0436 68.7701 55.0663 68.8104 55.081C68.8506 55.0957 68.8935 55.1019 68.9362 55.0994H75.5615C75.6044 55.1019 75.6475 55.0956 75.6879 55.0808C75.7283 55.066 75.7652 55.0431 75.7963 55.0133C75.8275 54.9836 75.8522 54.9479 75.8688 54.9082C75.8855 54.8685 75.8939 54.8259 75.8934 54.7828C75.7995 53.7762 75.4109 49.671 75.3247 48.7542C75.3206 48.6968 75.3391 48.6401 75.3762 48.5962C75.4134 48.5523 75.4663 48.5247 75.5236 48.5193C75.5808 48.5139 75.6379 48.5311 75.6826 48.5673C75.7273 48.6035 75.7561 48.6558 75.7627 48.7129L75.8295 49.42C75.8328 49.4547 75.8443 49.4882 75.8631 49.5176C75.8818 49.547 75.9074 49.5715 75.9375 49.5891C75.9676 49.6067 76.0015 49.6168 76.0364 49.6187C76.0712 49.6206 76.106 49.6142 76.1379 49.6L77.863 48.8303C77.9007 48.8125 77.9298 48.7806 77.9442 48.7415C77.9586 48.7024 77.9571 48.6595 77.9399 48.6215ZM71.8223 52.8483C71.8205 52.9054 71.7966 52.9596 71.7556 52.9994C71.7146 53.0392 71.6597 53.0614 71.6026 53.0614C71.5454 53.0614 71.4905 53.0392 71.4495 52.9994C71.4085 52.9596 71.3846 52.9054 71.3828 52.8483V50.6328L71.1695 50.7646C71.12 50.7939 71.061 50.8026 71.0051 50.7888C70.9493 50.775 70.9011 50.7399 70.8709 50.6909C70.8406 50.642 70.8308 50.5831 70.8436 50.527C70.8563 50.4709 70.8905 50.422 70.9389 50.3909L71.4861 50.05C71.5196 50.0301 71.5577 50.0194 71.5966 50.0188C71.6356 50.0183 71.674 50.0279 71.708 50.0468C71.7421 50.0658 71.7705 50.0933 71.7906 50.1266C71.8107 50.16 71.8217 50.1981 71.8225 50.237L71.8223 52.8483ZM73.4029 52.8483C73.4029 52.9066 73.3797 52.9625 73.3385 53.0038C73.2973 53.045 73.2413 53.0681 73.183 53.0681C73.1247 53.0681 73.0688 53.045 73.0276 53.0038C72.9864 52.9625 72.9632 52.9066 72.9632 52.8483V50.6328L72.7501 50.7646C72.7006 50.7952 72.6409 50.8049 72.5842 50.7915C72.5275 50.7781 72.4785 50.7427 72.4479 50.6932C72.4172 50.6436 72.4076 50.5839 72.421 50.5272C72.4344 50.4705 72.4697 50.4215 72.5193 50.3909L73.0665 50.05C73.1 50.0301 73.1381 50.0194 73.177 50.0188C73.216 50.0183 73.2544 50.0279 73.2884 50.0468C73.3225 50.0658 73.3509 50.0933 73.371 50.1266C73.3911 50.16 73.4021 50.1981 73.4029 50.237V52.8483Z" fill="#FAFAFA"/>
<path d="M71.8223 52.8483C71.8205 52.9054 71.7966 52.9596 71.7556 52.9994C71.7146 53.0392 71.6597 53.0614 71.6026 53.0614C71.5454 53.0614 71.4905 53.0392 71.4495 52.9994C71.4085 52.9596 71.3846 52.9054 71.3828 52.8483V50.6328L71.1695 50.7646C71.12 50.7939 71.061 50.8026 71.0051 50.7888C70.9493 50.775 70.9011 50.7399 70.8709 50.6909C70.8406 50.642 70.8308 50.5831 70.8436 50.527C70.8563 50.4709 70.8905 50.422 70.9389 50.3909L71.4861 50.05C71.5196 50.0301 71.5577 50.0194 71.5966 50.0188C71.6356 50.0183 71.674 50.0279 71.708 50.0468C71.7421 50.0658 71.7705 50.0933 71.7906 50.1266C71.8107 50.16 71.8217 50.1981 71.8225 50.237L71.8223 52.8483Z" fill="#FAFAFA"/>
<path d="M73.4029 52.8483C73.4029 52.9066 73.3797 52.9625 73.3385 53.0038C73.2973 53.045 73.2413 53.0681 73.183 53.0681C73.1247 53.0681 73.0688 53.045 73.0276 53.0038C72.9864 52.9625 72.9632 52.9066 72.9632 52.8483V50.6328L72.7501 50.7646C72.7006 50.7952 72.6409 50.8049 72.5842 50.7915C72.5275 50.7781 72.4785 50.7427 72.4479 50.6932C72.4172 50.6436 72.4076 50.5839 72.421 50.5272C72.4344 50.4705 72.4697 50.4215 72.5193 50.3909L73.0665 50.05C73.1 50.0301 73.1381 50.0194 73.177 50.0188C73.216 50.0183 73.2544 50.0279 73.2884 50.0468C73.3225 50.0658 73.3509 50.0933 73.371 50.1266C73.3911 50.16 73.4021 50.1981 73.4029 50.237V52.8483Z" fill="#FAFAFA"/>
<path d="M71.209 50.332H73.5007" stroke="#191919" stroke-width="0.343756" stroke-linecap="round" stroke-linejoin="round"/>
<path d="M72.355 51.4792V49.1875" stroke="#191919" stroke-width="0.343756" stroke-linecap="round" stroke-linejoin="round"/>
<path d="M58.2588 51.8673C58.6277 51.8668 58.9814 51.7201 59.2422 51.4593C59.503 51.1984 59.6498 50.8448 59.6502 50.4759V49.9944C58.7301 50.1677 57.785 50.161 56.8674 49.9746V50.4759C56.8679 50.8448 57.0146 51.1984 57.2754 51.4593C57.5363 51.7201 57.8899 51.8668 58.2588 51.8673Z" fill="#FAFAFA"/>
<path d="M63.9587 54.6215L62.8178 52.2233C62.6026 51.7743 62.2235 51.425 61.7585 51.2472L60.8878 50.9154C60.5432 50.8135 60.2918 50.4088 60.0897 50.1328V50.4102C60.0979 50.666 60.0528 50.9208 59.957 51.1582C59.8613 51.3956 59.7171 51.6104 59.5337 51.789C59.3503 51.9675 59.1317 52.1059 58.8919 52.1953C58.652 52.2846 58.3961 52.323 58.1406 52.3079C57.8851 52.2928 57.6355 52.2247 57.4078 52.1077C57.1801 51.9908 56.9792 51.8277 56.8181 51.6288C56.657 51.4299 56.539 51.1997 56.4719 50.9526C56.4047 50.7056 56.3898 50.4473 56.4281 50.1942C56.2775 50.4837 56.0312 50.7121 55.7312 50.8404L54.9156 51.1329C54.4475 51.2985 54.0616 51.6388 53.8386 52.0824L52.559 54.6215C52.5413 54.66 52.5394 54.7039 52.5538 54.7438C52.5682 54.7837 52.5977 54.8163 52.636 54.8346L54.3403 55.6096C54.3723 55.6242 54.4073 55.6309 54.4425 55.6291C54.4776 55.6274 54.5118 55.6172 54.5422 55.5995C54.5726 55.5818 54.5983 55.557 54.6172 55.5273C54.636 55.4976 54.6474 55.4638 54.6505 55.4287L54.7132 54.7144C54.7197 54.6571 54.7483 54.6046 54.793 54.5681C54.8377 54.5316 54.8948 54.514 54.9523 54.519C55.0097 54.524 55.063 54.5513 55.1006 54.595C55.1382 54.6387 55.1573 54.6954 55.1538 54.7529L54.6231 60.7851C54.6229 60.8279 54.6315 60.8703 54.6483 60.9097C54.6652 60.9491 54.6899 60.9847 54.721 61.0141C54.7521 61.0436 54.7889 61.0663 54.8292 61.081C54.8694 61.0957 54.9123 61.1019 54.955 61.0994H61.5803C61.6232 61.1019 61.6663 61.0956 61.7067 61.0808C61.7471 61.066 61.784 61.0431 61.8151 61.0133C61.8463 60.9836 61.871 60.9479 61.8876 60.9082C61.9043 60.8685 61.9127 60.8259 61.9122 60.7828C61.8183 59.7762 61.4297 55.671 61.3435 54.7542C61.3394 54.6968 61.3579 54.6401 61.395 54.5962C61.4322 54.5523 61.4851 54.5247 61.5424 54.5193C61.5996 54.5139 61.6567 54.5311 61.7014 54.5673C61.7461 54.6035 61.7749 54.6558 61.7815 54.7129L61.8483 55.42C61.8516 55.4547 61.8631 55.4882 61.8819 55.5176C61.9006 55.547 61.9262 55.5715 61.9563 55.5891C61.9864 55.6067 62.0203 55.6168 62.0552 55.6187C62.09 55.6206 62.1248 55.6142 62.1567 55.6L63.8818 54.8303C63.9195 54.8125 63.9486 54.7806 63.963 54.7415C63.9774 54.7024 63.9759 54.6595 63.9587 54.6215ZM57.8411 58.8483C57.8393 58.9054 57.8154 58.9596 57.7744 58.9994C57.7334 59.0392 57.6785 59.0614 57.6214 59.0614C57.5642 59.0614 57.5093 59.0392 57.4683 58.9994C57.4273 58.9596 57.4034 58.9054 57.4016 58.8483V56.6328L57.1883 56.7646C57.1388 56.7939 57.0798 56.8026 57.0239 56.7888C56.9681 56.775 56.9199 56.7399 56.8897 56.6909C56.8594 56.642 56.8496 56.5831 56.8624 56.527C56.8751 56.4709 56.9093 56.422 56.9577 56.3909L57.5049 56.05C57.5384 56.0301 57.5765 56.0194 57.6154 56.0188C57.6544 56.0183 57.6928 56.0279 57.7268 56.0468C57.7609 56.0658 57.7893 56.0933 57.8094 56.1266C57.8295 56.16 57.8405 56.1981 57.8413 56.237L57.8411 58.8483ZM59.4217 58.8483C59.4217 58.9066 59.3985 58.9625 59.3573 59.0038C59.3161 59.045 59.2601 59.0681 59.2018 59.0681C59.1435 59.0681 59.0876 59.045 59.0464 59.0038C59.0052 58.9625 58.982 58.9066 58.982 58.8483V56.6328L58.7689 56.7646C58.7194 56.7952 58.6597 56.8049 58.603 56.7915C58.5463 56.7781 58.4973 56.7427 58.4667 56.6932C58.436 56.6436 58.4264 56.5839 58.4398 56.5272C58.4532 56.4705 58.4885 56.4215 58.5381 56.3909L59.0853 56.05C59.1188 56.0301 59.1569 56.0194 59.1958 56.0188C59.2348 56.0183 59.2732 56.0279 59.3072 56.0468C59.3413 56.0658 59.3697 56.0933 59.3898 56.1266C59.4099 56.16 59.4209 56.1981 59.4217 56.237V58.8483Z" fill="#FAFAFA"/>
<path d="M57.8411 58.8483C57.8393 58.9054 57.8154 58.9596 57.7744 58.9994C57.7334 59.0392 57.6785 59.0614 57.6214 59.0614C57.5642 59.0614 57.5093 59.0392 57.4683 58.9994C57.4273 58.9596 57.4034 58.9054 57.4016 58.8483V56.6328L57.1883 56.7646C57.1388 56.7939 57.0798 56.8026 57.0239 56.7888C56.9681 56.775 56.9199 56.7399 56.8897 56.6909C56.8594 56.642 56.8496 56.5831 56.8624 56.527C56.8751 56.4709 56.9093 56.422 56.9577 56.3909L57.5049 56.05C57.5384 56.0301 57.5765 56.0194 57.6154 56.0188C57.6544 56.0183 57.6928 56.0279 57.7268 56.0468C57.7609 56.0658 57.7893 56.0933 57.8094 56.1266C57.8295 56.16 57.8405 56.1981 57.8413 56.237L57.8411 58.8483Z" fill="#FAFAFA"/>
<path d="M59.4217 58.8483C59.4217 58.9066 59.3985 58.9625 59.3573 59.0038C59.3161 59.045 59.2601 59.0681 59.2018 59.0681C59.1435 59.0681 59.0876 59.045 59.0464 59.0038C59.0052 58.9625 58.982 58.9066 58.982 58.8483V56.6328L58.7689 56.7646C58.7194 56.7952 58.6597 56.8049 58.603 56.7915C58.5463 56.7781 58.4973 56.7427 58.4667 56.6932C58.436 56.6436 58.4264 56.5839 58.4398 56.5272C58.4532 56.4705 58.4885 56.4215 58.5381 56.3909L59.0853 56.05C59.1188 56.0301 59.1569 56.0194 59.1958 56.0188C59.2348 56.0183 59.2732 56.0279 59.3072 56.0468C59.3413 56.0658 59.3697 56.0933 59.3898 56.1266C59.4099 56.16 59.4209 56.1981 59.4217 56.237V58.8483Z" fill="#FAFAFA"/>
<path d="M57.2278 56.332H59.5195" stroke="#191919" stroke-width="0.343756" stroke-linecap="round" stroke-linejoin="round"/>
<path d="M58.3738 57.4792V55.1875" stroke="#191919" stroke-width="0.343756" stroke-linecap="round" stroke-linejoin="round"/>
<path d="M23.2588 51.8673C23.6277 51.8668 23.9814 51.7201 24.2422 51.4593C24.503 51.1984 24.6498 50.8448 24.6502 50.4759V49.9944C23.7301 50.1677 22.785 50.161 21.8674 49.9746V50.4759C21.8679 50.8448 22.0146 51.1984 22.2754 51.4593C22.5363 51.7201 22.8899 51.8668 23.2588 51.8673Z" fill="#FAFAFA"/>
<path d="M28.9587 54.6215L27.8178 52.2233C27.6026 51.7743 27.2235 51.425 26.7585 51.2472L25.8878 50.9154C25.5432 50.8135 25.2918 50.4088 25.0897 50.1328V50.4102C25.0979 50.666 25.0528 50.9208 24.957 51.1582C24.8613 51.3956 24.7171 51.6104 24.5337 51.789C24.3503 51.9675 24.1317 52.1059 23.8919 52.1953C23.652 52.2846 23.3961 52.323 23.1406 52.3079C22.8851 52.2928 22.6355 52.2247 22.4078 52.1077C22.1801 51.9908 21.9792 51.8277 21.8181 51.6288C21.657 51.4299 21.539 51.1997 21.4719 50.9526C21.4047 50.7056 21.3898 50.4473 21.4281 50.1942C21.2775 50.4837 21.0312 50.7121 20.7312 50.8404L19.9156 51.1329C19.4475 51.2985 19.0616 51.6388 18.8386 52.0824L17.559 54.6215C17.5413 54.66 17.5394 54.7039 17.5538 54.7438C17.5682 54.7837 17.5977 54.8163 17.636 54.8346L19.3403 55.6096C19.3723 55.6242 19.4073 55.6309 19.4425 55.6291C19.4776 55.6274 19.5118 55.6172 19.5422 55.5995C19.5726 55.5818 19.5983 55.557 19.6172 55.5273C19.636 55.4976 19.6474 55.4638 19.6505 55.4287L19.7132 54.7144C19.7197 54.6571 19.7483 54.6046 19.793 54.5681C19.8377 54.5316 19.8948 54.514 19.9523 54.519C20.0097 54.524 20.063 54.5513 20.1006 54.595C20.1382 54.6387 20.1573 54.6954 20.1538 54.7529L19.6231 60.7851C19.6229 60.8279 19.6315 60.8703 19.6483 60.9097C19.6652 60.9491 19.6899 60.9847 19.721 61.0141C19.7521 61.0436 19.7889 61.0663 19.8292 61.081C19.8694 61.0957 19.9123 61.1019 19.955 61.0994H26.5803C26.6232 61.1019 26.6663 61.0956 26.7067 61.0808C26.7471 61.066 26.784 61.0431 26.8151 61.0133C26.8463 60.9836 26.871 60.9479 26.8876 60.9082C26.9043 60.8685 26.9127 60.8259 26.9122 60.7828C26.8183 59.7762 26.4297 55.671 26.3435 54.7542C26.3394 54.6968 26.3579 54.6401 26.395 54.5962C26.4322 54.5523 26.4851 54.5247 26.5424 54.5193C26.5996 54.5139 26.6567 54.5311 26.7014 54.5673C26.7461 54.6035 26.7749 54.6558 26.7815 54.7129L26.8483 55.42C26.8516 55.4547 26.8631 55.4882 26.8819 55.5176C26.9006 55.547 26.9262 55.5715 26.9563 55.5891C26.9864 55.6067 27.0203 55.6168 27.0552 55.6187C27.09 55.6206 27.1248 55.6142 27.1567 55.6L28.8818 54.8303C28.9195 54.8125 28.9486 54.7806 28.963 54.7415C28.9774 54.7024 28.9759 54.6595 28.9587 54.6215ZM22.8411 58.8483C22.8393 58.9054 22.8154 58.9596 22.7744 58.9994C22.7334 59.0392 22.6785 59.0614 22.6214 59.0614C22.5642 59.0614 22.5093 59.0392 22.4683 58.9994C22.4273 58.9596 22.4034 58.9054 22.4016 58.8483V56.6328L22.1883 56.7646C22.1388 56.7939 22.0798 56.8026 22.0239 56.7888C21.9681 56.775 21.9199 56.7399 21.8897 56.6909C21.8594 56.642 21.8496 56.5831 21.8624 56.527C21.8751 56.4709 21.9093 56.422 21.9577 56.3909L22.5049 56.05C22.5384 56.0301 22.5765 56.0194 22.6154 56.0188C22.6544 56.0183 22.6928 56.0279 22.7268 56.0468C22.7609 56.0658 22.7893 56.0933 22.8094 56.1266C22.8295 56.16 22.8405 56.1981 22.8413 56.237L22.8411 58.8483ZM24.4217 58.8483C24.4217 58.9066 24.3985 58.9625 24.3573 59.0038C24.3161 59.045 24.2601 59.0681 24.2018 59.0681C24.1435 59.0681 24.0876 59.045 24.0464 59.0038C24.0052 58.9625 23.982 58.9066 23.982 58.8483V56.6328L23.7689 56.7646C23.7194 56.7952 23.6597 56.8049 23.603 56.7915C23.5463 56.7781 23.4973 56.7427 23.4667 56.6932C23.436 56.6436 23.4264 56.5839 23.4398 56.5272C23.4532 56.4705 23.4885 56.4215 23.5381 56.3909L24.0853 56.05C24.1188 56.0301 24.1569 56.0194 24.1958 56.0188C24.2348 56.0183 24.2732 56.0279 24.3072 56.0468C24.3413 56.0658 24.3697 56.0933 24.3898 56.1266C24.4099 56.16 24.4209 56.1981 24.4217 56.237V58.8483Z" fill="#FAFAFA"/>
<path d="M22.8411 58.8483C22.8393 58.9054 22.8154 58.9596 22.7744 58.9994C22.7334 59.0392 22.6785 59.0614 22.6214 59.0614C22.5642 59.0614 22.5093 59.0392 22.4683 58.9994C22.4273 58.9596 22.4034 58.9054 22.4016 58.8483V56.6328L22.1883 56.7646C22.1388 56.7939 22.0798 56.8026 22.0239 56.7888C21.9681 56.775 21.9199 56.7399 21.8897 56.6909C21.8594 56.642 21.8496 56.5831 21.8624 56.527C21.8751 56.4709 21.9093 56.422 21.9577 56.3909L22.5049 56.05C22.5384 56.0301 22.5765 56.0194 22.6154 56.0188C22.6544 56.0183 22.6928 56.0279 22.7268 56.0468C22.7609 56.0658 22.7893 56.0933 22.8094 56.1266C22.8295 56.16 22.8405 56.1981 22.8413 56.237L22.8411 58.8483Z" fill="#FAFAFA"/>
<path d="M24.4217 58.8483C24.4217 58.9066 24.3985 58.9625 24.3573 59.0038C24.3161 59.045 24.2601 59.0681 24.2018 59.0681C24.1435 59.0681 24.0876 59.045 24.0464 59.0038C24.0052 58.9625 23.982 58.9066 23.982 58.8483V56.6328L23.7689 56.7646C23.7194 56.7952 23.6597 56.8049 23.603 56.7915C23.5463 56.7781 23.4973 56.7427 23.4667 56.6932C23.436 56.6436 23.4264 56.5839 23.4398 56.5272C23.4532 56.4705 23.4885 56.4215 23.5381 56.3909L24.0853 56.05C24.1188 56.0301 24.1569 56.0194 24.1958 56.0188C24.2348 56.0183 24.2732 56.0279 24.3072 56.0468C24.3413 56.0658 24.3697 56.0933 24.3898 56.1266C24.4099 56.16 24.4209 56.1981 24.4217 56.237V58.8483Z" fill="#FAFAFA"/>
<path d="M22.2278 56.332H24.5195" stroke="#191919" stroke-width="0.343756" stroke-linecap="round" stroke-linejoin="round"/>
<path d="M23.3738 57.4792V55.1875" stroke="#191919" stroke-width="0.343756" stroke-linecap="round" stroke-linejoin="round"/>
<path d="M41.2588 52.8673C41.6277 52.8668 41.9814 52.7201 42.2422 52.4593C42.503 52.1984 42.6498 51.8448 42.6502 51.4759V50.9944C41.7301 51.1677 40.785 51.161 39.8674 50.9746V51.4759C39.8679 51.8448 40.0146 52.1984 40.2754 52.4593C40.5363 52.7201 40.8899 52.8668 41.2588 52.8673Z" fill="#FAFAFA"/>
<path d="M46.9587 55.6215L45.8178 53.2233C45.6026 52.7743 45.2235 52.425 44.7585 52.2472L43.8878 51.9154C43.5432 51.8135 43.2918 51.4088 43.0897 51.1328V51.4102C43.0979 51.666 43.0528 51.9208 42.957 52.1582C42.8613 52.3956 42.7171 52.6104 42.5337 52.789C42.3503 52.9675 42.1317 53.1059 41.8919 53.1953C41.652 53.2846 41.3961 53.323 41.1406 53.3079C40.8851 53.2928 40.6355 53.2247 40.4078 53.1077C40.1801 52.9908 39.9792 52.8277 39.8181 52.6288C39.657 52.4299 39.539 52.1997 39.4719 51.9526C39.4047 51.7056 39.3898 51.4473 39.4281 51.1942C39.2775 51.4837 39.0312 51.7121 38.7312 51.8404L37.9156 52.1329C37.4475 52.2985 37.0616 52.6388 36.8386 53.0824L35.559 55.6215C35.5413 55.66 35.5394 55.7039 35.5538 55.7438C35.5682 55.7837 35.5977 55.8163 35.636 55.8346L37.3403 56.6096C37.3723 56.6242 37.4073 56.6309 37.4425 56.6291C37.4776 56.6274 37.5118 56.6172 37.5422 56.5995C37.5726 56.5818 37.5983 56.557 37.6172 56.5273C37.636 56.4976 37.6474 56.4638 37.6505 56.4287L37.7132 55.7144C37.7197 55.6571 37.7483 55.6046 37.793 55.5681C37.8377 55.5316 37.8948 55.514 37.9523 55.519C38.0097 55.524 38.063 55.5513 38.1006 55.595C38.1382 55.6387 38.1573 55.6954 38.1538 55.7529L37.6231 61.7851C37.6229 61.8279 37.6315 61.8703 37.6483 61.9097C37.6652 61.9491 37.6899 61.9847 37.721 62.0141C37.7521 62.0436 37.7889 62.0663 37.8292 62.081C37.8694 62.0957 37.9123 62.1019 37.955 62.0994H44.5803C44.6232 62.1019 44.6663 62.0956 44.7067 62.0808C44.7471 62.066 44.784 62.0431 44.8151 62.0133C44.8463 61.9836 44.871 61.9479 44.8876 61.9082C44.9043 61.8685 44.9127 61.8259 44.9122 61.7828C44.8183 60.7762 44.4297 56.671 44.3435 55.7542C44.3394 55.6968 44.3579 55.6401 44.395 55.5962C44.4322 55.5523 44.4851 55.5247 44.5424 55.5193C44.5996 55.5139 44.6567 55.5311 44.7014 55.5673C44.7461 55.6035 44.7749 55.6558 44.7815 55.7129L44.8483 56.42C44.8516 56.4547 44.8631 56.4882 44.8819 56.5176C44.9006 56.547 44.9262 56.5715 44.9563 56.5891C44.9864 56.6067 45.0203 56.6168 45.0552 56.6187C45.09 56.6206 45.1248 56.6142 45.1567 56.6L46.8818 55.8303C46.9195 55.8125 46.9486 55.7806 46.963 55.7415C46.9774 55.7024 46.9759 55.6595 46.9587 55.6215ZM40.8411 59.8483C40.8393 59.9054 40.8154 59.9596 40.7744 59.9994C40.7334 60.0392 40.6785 60.0614 40.6214 60.0614C40.5642 60.0614 40.5093 60.0392 40.4683 59.9994C40.4273 59.9596 40.4034 59.9054 40.4016 59.8483V57.6328L40.1883 57.7646C40.1388 57.7939 40.0798 57.8026 40.0239 57.7888C39.9681 57.775 39.9199 57.7399 39.8897 57.6909C39.8594 57.642 39.8496 57.5831 39.8624 57.527C39.8751 57.4709 39.9093 57.422 39.9577 57.3909L40.5049 57.05C40.5384 57.0301 40.5765 57.0194 40.6154 57.0188C40.6544 57.0183 40.6928 57.0279 40.7268 57.0468C40.7609 57.0658 40.7893 57.0933 40.8094 57.1266C40.8295 57.16 40.8405 57.1981 40.8413 57.237L40.8411 59.8483ZM42.4217 59.8483C42.4217 59.9066 42.3985 59.9625 42.3573 60.0038C42.3161 60.045 42.2601 60.0681 42.2018 60.0681C42.1435 60.0681 42.0876 60.045 42.0464 60.0038C42.0052 59.9625 41.982 59.9066 41.982 59.8483V57.6328L41.7689 57.7646C41.7194 57.7952 41.6597 57.8049 41.603 57.7915C41.5463 57.7781 41.4973 57.7427 41.4667 57.6932C41.436 57.6436 41.4264 57.5839 41.4398 57.5272C41.4532 57.4705 41.4885 57.4215 41.5381 57.3909L42.0853 57.05C42.1188 57.0301 42.1569 57.0194 42.1958 57.0188C42.2348 57.0183 42.2732 57.0279 42.3072 57.0468C42.3413 57.0658 42.3697 57.0933 42.3898 57.1266C42.4099 57.16 42.4209 57.1981 42.4217 57.237V59.8483Z" fill="#FAFAFA"/>
<path d="M40.8411 59.8483C40.8393 59.9054 40.8154 59.9596 40.7744 59.9994C40.7334 60.0392 40.6785 60.0614 40.6214 60.0614C40.5642 60.0614 40.5093 60.0392 40.4683 59.9994C40.4273 59.9596 40.4034 59.9054 40.4016 59.8483V57.6328L40.1883 57.7646C40.1388 57.7939 40.0798 57.8026 40.0239 57.7888C39.9681 57.775 39.9199 57.7399 39.8897 57.6909C39.8594 57.642 39.8496 57.5831 39.8624 57.527C39.8751 57.4709 39.9093 57.422 39.9577 57.3909L40.5049 57.05C40.5384 57.0301 40.5765 57.0194 40.6154 57.0188C40.6544 57.0183 40.6928 57.0279 40.7268 57.0468C40.7609 57.0658 40.7893 57.0933 40.8094 57.1266C40.8295 57.16 40.8405 57.1981 40.8413 57.237L40.8411 59.8483Z" fill="#FAFAFA"/>
<path d="M42.4217 59.8483C42.4217 59.9066 42.3985 59.9625 42.3573 60.0038C42.3161 60.045 42.2601 60.0681 42.2018 60.0681C42.1435 60.0681 42.0876 60.045 42.0464 60.0038C42.0052 59.9625 41.982 59.9066 41.982 59.8483V57.6328L41.7689 57.7646C41.7194 57.7952 41.6597 57.8049 41.603 57.7915C41.5463 57.7781 41.4973 57.7427 41.4667 57.6932C41.436 57.6436 41.4264 57.5839 41.4398 57.5272C41.4532 57.4705 41.4885 57.4215 41.5381 57.3909L42.0853 57.05C42.1188 57.0301 42.1569 57.0194 42.1958 57.0188C42.2348 57.0183 42.2732 57.0279 42.3072 57.0468C42.3413 57.0658 42.3697 57.0933 42.3898 57.1266C42.4099 57.16 42.4209 57.1981 42.4217 57.237V59.8483Z" fill="#FAFAFA"/>
<path d="M40.2278 57.332H42.5195" stroke="#191919" stroke-width="0.343756" stroke-linecap="round" stroke-linejoin="round"/>
<path d="M41.3738 58.4792V56.1875" stroke="#191919" stroke-width="0.343756" stroke-linecap="round" stroke-linejoin="round"/>
<path d="M29.2588 29.8673C29.6277 29.8668 29.9814 29.7201 30.2422 29.4593C30.503 29.1984 30.6498 28.8448 30.6502 28.4759V27.9944C29.7301 28.1677 28.785 28.161 27.8674 27.9746V28.4759C27.8679 28.8448 28.0146 29.1984 28.2754 29.4593C28.5363 29.7201 28.8899 29.8668 29.2588 29.8673Z" fill="#FAFAFA"/>
<path d="M34.9587 32.6215L33.8178 30.2233C33.6026 29.7743 33.2235 29.425 32.7585 29.2472L31.8878 28.9154C31.5432 28.8135 31.2918 28.4088 31.0897 28.1328V28.4102C31.0979 28.666 31.0528 28.9208 30.957 29.1582C30.8613 29.3956 30.7171 29.6104 30.5337 29.789C30.3503 29.9675 30.1317 30.1059 29.8919 30.1953C29.652 30.2846 29.3961 30.323 29.1406 30.3079C28.8851 30.2928 28.6355 30.2247 28.4078 30.1077C28.1801 29.9908 27.9792 29.8277 27.8181 29.6288C27.657 29.4299 27.539 29.1997 27.4719 28.9526C27.4047 28.7056 27.3898 28.4473 27.4281 28.1942C27.2775 28.4837 27.0312 28.7121 26.7312 28.8404L25.9156 29.1329C25.4475 29.2985 25.0616 29.6388 24.8386 30.0824L23.559 32.6215C23.5413 32.66 23.5394 32.7039 23.5538 32.7438C23.5682 32.7837 23.5977 32.8163 23.636 32.8346L25.3403 33.6096C25.3723 33.6242 25.4073 33.6309 25.4425 33.6291C25.4776 33.6274 25.5118 33.6172 25.5422 33.5995C25.5726 33.5818 25.5983 33.557 25.6172 33.5273C25.636 33.4976 25.6474 33.4638 25.6505 33.4287L25.7132 32.7144C25.7197 32.6571 25.7483 32.6046 25.793 32.5681C25.8377 32.5316 25.8948 32.514 25.9523 32.519C26.0097 32.524 26.063 32.5513 26.1006 32.595C26.1382 32.6387 26.1573 32.6954 26.1538 32.7529L25.6231 38.7851C25.6229 38.8279 25.6315 38.8703 25.6483 38.9097C25.6652 38.9491 25.6899 38.9847 25.721 39.0141C25.7521 39.0436 25.7889 39.0663 25.8292 39.081C25.8694 39.0957 25.9123 39.1019 25.955 39.0994H32.5803C32.6232 39.1019 32.6663 39.0956 32.7067 39.0808C32.7471 39.066 32.784 39.0431 32.8151 39.0133C32.8463 38.9836 32.871 38.9479 32.8876 38.9082C32.9043 38.8685 32.9127 38.8259 32.9122 38.7828C32.8183 37.7762 32.4297 33.671 32.3435 32.7542C32.3394 32.6968 32.3579 32.6401 32.395 32.5962C32.4322 32.5523 32.4851 32.5247 32.5424 32.5193C32.5996 32.5139 32.6567 32.5311 32.7014 32.5673C32.7461 32.6035 32.7749 32.6558 32.7815 32.7129L32.8483 33.42C32.8516 33.4547 32.8631 33.4882 32.8819 33.5176C32.9006 33.547 32.9262 33.5715 32.9563 33.5891C32.9864 33.6067 33.0203 33.6168 33.0552 33.6187C33.09 33.6206 33.1248 33.6142 33.1567 33.6L34.8818 32.8303C34.9195 32.8125 34.9486 32.7806 34.963 32.7415C34.9774 32.7024 34.9759 32.6595 34.9587 32.6215ZM28.8411 36.8483C28.8393 36.9054 28.8154 36.9596 28.7744 36.9994C28.7334 37.0392 28.6785 37.0614 28.6214 37.0614C28.5642 37.0614 28.5093 37.0392 28.4683 36.9994C28.4273 36.9596 28.4034 36.9054 28.4016 36.8483V34.6328L28.1883 34.7646C28.1388 34.7939 28.0798 34.8026 28.0239 34.7888C27.9681 34.775 27.9199 34.7399 27.8897 34.6909C27.8594 34.642 27.8496 34.5831 27.8624 34.527C27.8751 34.4709 27.9093 34.422 27.9577 34.3909L28.5049 34.05C28.5384 34.0301 28.5765 34.0194 28.6154 34.0188C28.6544 34.0183 28.6928 34.0279 28.7268 34.0468C28.7609 34.0658 28.7893 34.0933 28.8094 34.1266C28.8295 34.16 28.8405 34.1981 28.8413 34.237L28.8411 36.8483ZM30.4217 36.8483C30.4217 36.9066 30.3985 36.9625 30.3573 37.0038C30.3161 37.045 30.2601 37.0681 30.2018 37.0681C30.1435 37.0681 30.0876 37.045 30.0464 37.0038C30.0052 36.9625 29.982 36.9066 29.982 36.8483V34.6328L29.7689 34.7646C29.7194 34.7952 29.6597 34.8049 29.603 34.7915C29.5463 34.7781 29.4973 34.7427 29.4667 34.6932C29.436 34.6436 29.4264 34.5839 29.4398 34.5272C29.4532 34.4705 29.4885 34.4215 29.5381 34.3909L30.0853 34.05C30.1188 34.0301 30.1569 34.0194 30.1958 34.0188C30.2348 34.0183 30.2732 34.0279 30.3072 34.0468C30.3413 34.0658 30.3697 34.0933 30.3898 34.1266C30.4099 34.16 30.4209 34.1981 30.4217 34.237V36.8483Z" fill="#FAFAFA"/>
<path d="M28.8411 36.8483C28.8393 36.9054 28.8154 36.9596 28.7744 36.9994C28.7334 37.0392 28.6785 37.0614 28.6214 37.0614C28.5642 37.0614 28.5093 37.0392 28.4683 36.9994C28.4273 36.9596 28.4034 36.9054 28.4016 36.8483V34.6328L28.1883 34.7646C28.1388 34.7939 28.0798 34.8026 28.0239 34.7888C27.9681 34.775 27.9199 34.7399 27.8897 34.6909C27.8594 34.642 27.8496 34.5831 27.8624 34.527C27.8751 34.4709 27.9093 34.422 27.9577 34.3909L28.5049 34.05C28.5384 34.0301 28.5765 34.0194 28.6154 34.0188C28.6544 34.0183 28.6928 34.0279 28.7268 34.0468C28.7609 34.0658 28.7893 34.0933 28.8094 34.1266C28.8295 34.16 28.8405 34.1981 28.8413 34.237L28.8411 36.8483Z" fill="#FAFAFA"/>
<path d="M30.4217 36.8483C30.4217 36.9066 30.3985 36.9625 30.3573 37.0038C30.3161 37.045 30.2601 37.0681 30.2018 37.0681C30.1435 37.0681 30.0876 37.045 30.0464 37.0038C30.0052 36.9625 29.982 36.9066 29.982 36.8483V34.6328L29.7689 34.7646C29.7194 34.7952 29.6597 34.8049 29.603 34.7915C29.5463 34.7781 29.4973 34.7427 29.4667 34.6932C29.436 34.6436 29.4264 34.5839 29.4398 34.5272C29.4532 34.4705 29.4885 34.4215 29.5381 34.3909L30.0853 34.05C30.1188 34.0301 30.1569 34.0194 30.1958 34.0188C30.2348 34.0183 30.2732 34.0279 30.3072 34.0468C30.3413 34.0658 30.3697 34.0933 30.3898 34.1266C30.4099 34.16 30.4209 34.1981 30.4217 34.237V36.8483Z" fill="#FAFAFA"/>
<path d="M28.2278 34.332H30.5195" stroke="#191919" stroke-width="0.343756" stroke-linecap="round" stroke-linejoin="round"/>
<path d="M29.3738 35.4792V33.1875" stroke="#191919" stroke-width="0.343756" stroke-linecap="round" stroke-linejoin="round"/>
<g clip-path="url(#clip0_8758_18921)">
<path d="M52.3216 29.8673C52.6904 29.8668 53.0441 29.7201 53.3049 29.4593C53.5658 29.1984 53.7125 28.8448 53.7129 28.4759V27.9944C52.7928 28.1677 51.8478 28.161 50.9302 27.9746V28.4759C50.9306 28.8448 51.0773 29.1984 51.3382 29.4593C51.599 29.7201 51.9527 29.8668 52.3216 29.8673Z" fill="#FAFAFA"/>
<path d="M58.0215 32.6215L56.8805 30.2233C56.6653 29.7743 56.2862 29.425 55.8212 29.2472L54.9505 28.9154C54.606 28.8135 54.3545 28.4088 54.1524 28.1328V28.4102C54.1607 28.666 54.1155 28.9208 54.0198 29.1582C53.9241 29.3956 53.7799 29.6104 53.5965 29.789C53.4131 29.9675 53.1945 30.1059 52.9546 30.1953C52.7147 30.2846 52.4589 30.323 52.2033 30.3079C51.9478 30.2928 51.6982 30.2247 51.4705 30.1077C51.2428 29.9908 51.042 29.8277 50.8808 29.6288C50.7197 29.4299 50.6018 29.1997 50.5346 28.9526C50.4675 28.7056 50.4525 28.4473 50.4908 28.1942C50.3402 28.4837 50.094 28.7121 49.794 28.8404L48.9784 29.1329C48.5102 29.2985 48.1243 29.6388 47.9013 30.0824L46.6218 32.6215C46.604 32.66 46.6021 32.7039 46.6165 32.7438C46.6309 32.7837 46.6605 32.8163 46.6987 32.8346L48.403 33.6096C48.435 33.6242 48.4701 33.6309 48.5052 33.6291C48.5403 33.6274 48.5746 33.6172 48.605 33.5995C48.6354 33.5818 48.6611 33.557 48.6799 33.5273C48.6987 33.4976 48.7102 33.4638 48.7132 33.4287L48.7759 32.7144C48.7824 32.6571 48.8111 32.6046 48.8558 32.5681C48.9004 32.5316 48.9576 32.514 49.015 32.519C49.0725 32.524 49.1257 32.5513 49.1633 32.595C49.201 32.6387 49.2201 32.6954 49.2166 32.7529L48.6859 38.7851C48.6857 38.8279 48.6943 38.8703 48.7111 38.9097C48.7279 38.9491 48.7526 38.9847 48.7837 39.0141C48.8149 39.0436 48.8517 39.0663 48.8919 39.081C48.9322 39.0957 48.975 39.1019 49.0178 39.0994H55.643C55.686 39.1019 55.729 39.0956 55.7694 39.0808C55.8098 39.066 55.8467 39.0431 55.8779 39.0133C55.909 38.9836 55.9337 38.9479 55.9504 38.9082C55.9671 38.8685 55.9754 38.8259 55.9749 38.7828C55.881 37.7762 55.4924 33.671 55.4063 32.7542C55.4021 32.6968 55.4206 32.6401 55.4578 32.5962C55.495 32.5523 55.5478 32.5247 55.6051 32.5193C55.6624 32.5139 55.7195 32.5311 55.7642 32.5673C55.8089 32.6035 55.8376 32.6558 55.8443 32.7129L55.911 33.42C55.9143 33.4547 55.9258 33.4882 55.9446 33.5176C55.9634 33.547 55.9889 33.5715 56.019 33.5891C56.0492 33.6067 56.0831 33.6168 56.1179 33.6187C56.1528 33.6206 56.1876 33.6142 56.2194 33.6L57.9445 32.8303C57.9822 32.8125 58.0114 32.7806 58.0258 32.7415C58.0402 32.7024 58.0386 32.6595 58.0215 32.6215ZM51.9038 36.8483C51.9021 36.9054 51.8782 36.9596 51.8371 36.9994C51.7961 37.0392 51.7412 37.0614 51.6841 37.0614C51.627 37.0614 51.5721 37.0392 51.531 36.9994C51.49 36.9596 51.4661 36.9054 51.4644 36.8483V34.6328L51.2511 34.7646C51.2016 34.7939 51.1425 34.8026 51.0867 34.7888C51.0308 34.775 50.9826 34.7399 50.9524 34.6909C50.9222 34.642 50.9124 34.5831 50.9251 34.527C50.9378 34.4709 50.9721 34.422 51.0204 34.3909L51.5677 34.05C51.6011 34.0301 51.6392 34.0194 51.6782 34.0188C51.7171 34.0183 51.7555 34.0279 51.7896 34.0468C51.8236 34.0658 51.8521 34.0933 51.8722 34.1266C51.8923 34.16 51.9032 34.1981 51.904 34.237L51.9038 36.8483ZM53.4844 36.8483C53.4844 36.9066 53.4612 36.9625 53.42 37.0038C53.3788 37.045 53.3229 37.0681 53.2646 37.0681C53.2063 37.0681 53.1504 37.045 53.1092 37.0038C53.0679 36.9625 53.0448 36.9066 53.0448 36.8483V34.6328L52.8317 34.7646C52.7821 34.7952 52.7224 34.8049 52.6657 34.7915C52.6091 34.7781 52.56 34.7427 52.5294 34.6932C52.4988 34.6436 52.4891 34.5839 52.5025 34.5272C52.5159 34.4705 52.5513 34.4215 52.6008 34.3909L53.148 34.05C53.1815 34.0301 53.2196 34.0194 53.2586 34.0188C53.2975 34.0183 53.3359 34.0279 53.37 34.0468C53.404 34.0658 53.4325 34.0933 53.4526 34.1266C53.4726 34.16 53.4836 34.1981 53.4844 34.237V36.8483Z" fill="#FAFAFA"/>
<path d="M51.9038 36.8483C51.9021 36.9054 51.8782 36.9596 51.8371 36.9994C51.7961 37.0392 51.7412 37.0614 51.6841 37.0614C51.627 37.0614 51.5721 37.0392 51.531 36.9994C51.49 36.9596 51.4661 36.9054 51.4644 36.8483V34.6328L51.2511 34.7646C51.2016 34.7939 51.1425 34.8026 51.0867 34.7888C51.0308 34.775 50.9826 34.7399 50.9524 34.6909C50.9222 34.642 50.9124 34.5831 50.9251 34.527C50.9378 34.4709 50.9721 34.422 51.0204 34.3909L51.5677 34.05C51.6011 34.0301 51.6392 34.0194 51.6782 34.0188C51.7171 34.0183 51.7555 34.0279 51.7896 34.0468C51.8236 34.0658 51.8521 34.0933 51.8722 34.1266C51.8923 34.16 51.9032 34.1981 51.904 34.237L51.9038 36.8483Z" fill="#FAFAFA"/>
<path d="M53.4844 36.8483C53.4844 36.9066 53.4612 36.9625 53.42 37.0038C53.3788 37.045 53.3229 37.0681 53.2646 37.0681C53.2063 37.0681 53.1504 37.045 53.1092 37.0038C53.0679 36.9625 53.0448 36.9066 53.0448 36.8483V34.6328L52.8317 34.7646C52.7821 34.7952 52.7224 34.8049 52.6657 34.7915C52.6091 34.7781 52.56 34.7427 52.5294 34.6932C52.4988 34.6436 52.4891 34.5839 52.5025 34.5272C52.5159 34.4705 52.5513 34.4215 52.6008 34.3909L53.148 34.05C53.1815 34.0301 53.2196 34.0194 53.2586 34.0188C53.2975 34.0183 53.3359 34.0279 53.37 34.0468C53.404 34.0658 53.4325 34.0933 53.4526 34.1266C53.4726 34.16 53.4836 34.1981 53.4844 34.237V36.8483Z" fill="#FAFAFA"/>
<path d="M51.2905 34.332H53.5822" stroke="#191919" stroke-width="0.343756" stroke-linecap="round" stroke-linejoin="round"/>
<path d="M52.4365 35.4792V33.1875" stroke="#191919" stroke-width="0.343756" stroke-linecap="round" stroke-linejoin="round"/>
</g>
<path d="M13.1607 5.86728C13.5296 5.86685 13.8832 5.72012 14.1441 5.45927C14.4049 5.19843 14.5516 4.84478 14.5521 4.47589V3.99441C13.6319 4.16774 12.6869 4.16102 11.7693 3.97461V4.47589C11.7697 4.84478 11.9164 5.19843 12.1773 5.45927C12.4381 5.72012 12.7918 5.86685 13.1607 5.86728Z" fill="#FAFAFA"/>
<path d="M18.8606 8.6215L17.7196 6.22326C17.5045 5.77433 17.1253 5.42501 16.6603 5.24723L15.7896 4.91535C15.4451 4.8135 15.1936 4.40876 14.9916 4.13281V4.41019C14.9998 4.66603 14.9546 4.92078 14.8589 5.15818C14.7632 5.39558 14.619 5.61042 14.4356 5.78898C14.2522 5.96755 14.0336 6.10592 13.7937 6.19527C13.5538 6.28462 13.298 6.32299 13.0424 6.30792C12.7869 6.29285 12.5373 6.22467 12.3096 6.10775C12.0819 5.99082 11.8811 5.82772 11.72 5.62883C11.5588 5.42994 11.4409 5.19965 11.3737 4.95265C11.3066 4.70564 11.2917 4.44735 11.3299 4.19425C11.1793 4.48374 10.9331 4.7121 10.6331 4.84045L9.81749 5.13293C9.34935 5.29852 8.96341 5.63876 8.74042 6.08243L7.46089 8.6215C7.44312 8.66 7.44123 8.70395 7.45563 8.74383C7.47003 8.78371 7.49957 8.81632 7.53783 8.83458L9.24211 9.60957C9.27412 9.62418 9.30917 9.63089 9.34432 9.62913C9.37946 9.62738 9.41367 9.61722 9.44407 9.5995C9.47447 9.58178 9.50017 9.55702 9.51901 9.52731C9.53785 9.49759 9.54929 9.46379 9.55235 9.42873L9.61501 8.71437C9.62155 8.65706 9.6502 8.60457 9.69486 8.56808C9.73953 8.53159 9.79668 8.51399 9.85413 8.51902C9.91159 8.52405 9.96481 8.55131 10.0025 8.59501C10.0401 8.6387 10.0592 8.69537 10.0557 8.75294L9.525 14.7851C9.52479 14.8279 9.53336 14.8703 9.55019 14.9097C9.56702 14.9491 9.59176 14.9847 9.62286 15.0141C9.65396 15.0436 9.69078 15.0663 9.73103 15.081C9.77128 15.0957 9.81411 15.1019 9.85688 15.0994H16.4821C16.5251 15.1019 16.5681 15.0956 16.6085 15.0808C16.6489 15.066 16.6858 15.0431 16.717 15.0133C16.7481 14.9836 16.7728 14.9479 16.7895 14.9082C16.8062 14.8685 16.8145 14.8259 16.814 14.7828C16.7201 13.7762 16.3315 9.67101 16.2454 8.75417C16.2412 8.69679 16.2597 8.64008 16.2969 8.59618C16.3341 8.55227 16.3869 8.52467 16.4442 8.51928C16.5015 8.51389 16.5586 8.53114 16.6033 8.56734C16.648 8.60353 16.6767 8.6558 16.6834 8.71294L16.7501 9.41996C16.7534 9.4547 16.7649 9.48815 16.7837 9.51756C16.8025 9.54697 16.828 9.57148 16.8582 9.58908C16.8883 9.60667 16.9222 9.61683 16.957 9.61873C16.9919 9.62062 17.0267 9.6142 17.0585 9.59998L18.7836 8.8303C18.8213 8.81252 18.8505 8.78065 18.8649 8.74155C18.8793 8.70245 18.8777 8.65946 18.8606 8.6215ZM12.7429 12.8483C12.7412 12.9054 12.7173 12.9596 12.6763 12.9994C12.6352 13.0392 12.5803 13.0614 12.5232 13.0614C12.4661 13.0614 12.4112 13.0392 12.3702 12.9994C12.3291 12.9596 12.3052 12.9054 12.3035 12.8483V10.6328L12.0902 10.7646C12.0407 10.7939 11.9817 10.8026 11.9258 10.7888C11.8699 10.775 11.8217 10.7399 11.7915 10.6909C11.7613 10.642 11.7515 10.5831 11.7642 10.527C11.7769 10.4709 11.8112 10.422 11.8596 10.3909L12.4068 10.05C12.4402 10.0301 12.4784 10.0194 12.5173 10.0188C12.5562 10.0183 12.5946 10.0279 12.6287 10.0468C12.6627 10.0658 12.6912 10.0933 12.7113 10.1266C12.7314 10.16 12.7423 10.1981 12.7431 10.237L12.7429 12.8483ZM14.3235 12.8483C14.3235 12.9066 14.3004 12.9625 14.2591 13.0038C14.2179 13.045 14.162 13.0681 14.1037 13.0681C14.0454 13.0681 13.9895 13.045 13.9483 13.0038C13.907 12.9625 13.8839 12.9066 13.8839 12.8483V10.6328L13.6708 10.7646C13.6212 10.7952 13.5615 10.8049 13.5049 10.7915C13.4482 10.7781 13.3991 10.7427 13.3685 10.6932C13.3379 10.6436 13.3282 10.5839 13.3416 10.5272C13.355 10.4705 13.3904 10.4215 13.4399 10.3909L13.9872 10.05C14.0206 10.0301 14.0587 10.0194 14.0977 10.0188C14.1366 10.0183 14.175 10.0279 14.2091 10.0468C14.2431 10.0658 14.2716 10.0933 14.2917 10.1266C14.3118 10.16 14.3227 10.1981 14.3235 10.237V12.8483Z" fill="#FAFAFA"/>
<path d="M12.7429 12.8483C12.7412 12.9054 12.7173 12.9596 12.6763 12.9994C12.6352 13.0392 12.5803 13.0614 12.5232 13.0614C12.4661 13.0614 12.4112 13.0392 12.3702 12.9994C12.3291 12.9596 12.3052 12.9054 12.3035 12.8483V10.6328L12.0902 10.7646C12.0407 10.7939 11.9817 10.8026 11.9258 10.7888C11.8699 10.775 11.8217 10.7399 11.7915 10.6909C11.7613 10.642 11.7515 10.5831 11.7642 10.527C11.7769 10.4709 11.8112 10.422 11.8596 10.3909L12.4068 10.05C12.4402 10.0301 12.4784 10.0194 12.5173 10.0188C12.5562 10.0183 12.5946 10.0279 12.6287 10.0468C12.6627 10.0658 12.6912 10.0933 12.7113 10.1266C12.7314 10.16 12.7423 10.1981 12.7431 10.237L12.7429 12.8483Z" fill="#FAFAFA"/>
<path d="M14.3235 12.8483C14.3235 12.9066 14.3004 12.9625 14.2591 13.0038C14.2179 13.045 14.162 13.0681 14.1037 13.0681C14.0454 13.0681 13.9895 13.045 13.9483 13.0038C13.907 12.9625 13.8839 12.9066 13.8839 12.8483V10.6328L13.6708 10.7646C13.6212 10.7952 13.5615 10.8049 13.5049 10.7915C13.4482 10.7781 13.3991 10.7427 13.3685 10.6932C13.3379 10.6436 13.3282 10.5839 13.3416 10.5272C13.355 10.4705 13.3904 10.4215 13.4399 10.3909L13.9872 10.05C14.0206 10.0301 14.0587 10.0194 14.0977 10.0188C14.1366 10.0183 14.175 10.0279 14.2091 10.0468C14.2431 10.0658 14.2716 10.0933 14.2917 10.1266C14.3118 10.16 14.3227 10.1981 14.3235 10.237V12.8483Z" fill="#FAFAFA"/>
<path d="M12.1296 10.332H14.4213" stroke="#191919" stroke-width="0.343756" stroke-linecap="round" stroke-linejoin="round"/>
<path d="M13.2756 11.4792V9.1875" stroke="#191919" stroke-width="0.343756" stroke-linecap="round" stroke-linejoin="round"/>
<path d="M69.2862 5.86728C69.655 5.86685 70.0087 5.72012 70.2695 5.45927C70.5304 5.19843 70.6771 4.84478 70.6775 4.47589V3.99441C69.7574 4.16774 68.8124 4.16102 67.8948 3.97461V4.47589C67.8952 4.84478 68.0419 5.19843 68.3028 5.45927C68.5636 5.72012 68.9173 5.86685 69.2862 5.86728Z" fill="#FAFAFA"/>
<path d="M74.9861 8.6215L73.8451 6.22326C73.6299 5.77433 73.2508 5.42501 72.7858 5.24723L71.9151 4.91535C71.5706 4.8135 71.3191 4.40876 71.117 4.13281V4.41019C71.1253 4.66603 71.0801 4.92078 70.9844 5.15818C70.8886 5.39558 70.7445 5.61042 70.5611 5.78898C70.3777 5.96755 70.1591 6.10592 69.9192 6.19527C69.6793 6.28462 69.4235 6.32299 69.1679 6.30792C68.9124 6.29285 68.6628 6.22467 68.4351 6.10775C68.2074 5.99082 68.0066 5.82772 67.8454 5.62883C67.6843 5.42994 67.5664 5.19965 67.4992 4.95265C67.4321 4.70564 67.4171 4.44735 67.4554 4.19425C67.3048 4.48374 67.0586 4.7121 66.7586 4.84045L65.943 5.13293C65.4748 5.29852 65.0889 5.63876 64.8659 6.08243L63.5864 8.6215C63.5686 8.66 63.5667 8.70395 63.5811 8.74383C63.5955 8.78371 63.6251 8.81632 63.6633 8.83458L65.3676 9.60957C65.3996 9.62418 65.4347 9.63089 65.4698 9.62913C65.5049 9.62738 65.5392 9.61722 65.5696 9.5995C65.6 9.58178 65.6257 9.55702 65.6445 9.52731C65.6633 9.49759 65.6748 9.46379 65.6778 9.42873L65.7405 8.71437C65.747 8.65706 65.7757 8.60457 65.8204 8.56808C65.865 8.53159 65.9222 8.51399 65.9796 8.51902C66.0371 8.52405 66.0903 8.55131 66.1279 8.59501C66.1656 8.6387 66.1847 8.69537 66.1812 8.75294L65.6505 14.7851C65.6503 14.8279 65.6588 14.8703 65.6757 14.9097C65.6925 14.9491 65.7172 14.9847 65.7483 15.0141C65.7795 15.0436 65.8163 15.0663 65.8565 15.081C65.8968 15.0957 65.9396 15.1019 65.9824 15.0994H72.6076C72.6506 15.1019 72.6936 15.0956 72.734 15.0808C72.7744 15.066 72.8113 15.0431 72.8425 15.0133C72.8736 14.9836 72.8983 14.9479 72.915 14.9082C72.9317 14.8685 72.94 14.8259 72.9395 14.7828C72.8456 13.7762 72.457 9.67101 72.3709 8.75417C72.3667 8.69679 72.3852 8.64008 72.4224 8.59618C72.4596 8.55227 72.5124 8.52467 72.5697 8.51928C72.627 8.51389 72.6841 8.53114 72.7288 8.56734C72.7735 8.60353 72.8022 8.6558 72.8089 8.71294L72.8756 9.41996C72.8789 9.4547 72.8904 9.48815 72.9092 9.51756C72.928 9.54697 72.9535 9.57148 72.9836 9.58908C73.0138 9.60667 73.0477 9.61683 73.0825 9.61873C73.1174 9.62062 73.1522 9.6142 73.184 9.59998L74.9091 8.8303C74.9468 8.81252 74.976 8.78065 74.9904 8.74155C75.0048 8.70245 75.0032 8.65946 74.9861 8.6215ZM68.8684 12.8483C68.8667 12.9054 68.8428 12.9596 68.8017 12.9994C68.7607 13.0392 68.7058 13.0614 68.6487 13.0614C68.5916 13.0614 68.5367 13.0392 68.4956 12.9994C68.4546 12.9596 68.4307 12.9054 68.429 12.8483V10.6328L68.2157 10.7646C68.1662 10.7939 68.1071 10.8026 68.0513 10.7888C67.9954 10.775 67.9472 10.7399 67.917 10.6909C67.8868 10.642 67.877 10.5831 67.8897 10.527C67.9024 10.4709 67.9367 10.422 67.985 10.3909L68.5323 10.05C68.5657 10.0301 68.6038 10.0194 68.6428 10.0188C68.6817 10.0183 68.7201 10.0279 68.7542 10.0468C68.7882 10.0658 68.8167 10.0933 68.8368 10.1266C68.8569 10.16 68.8678 10.1981 68.8686 10.237L68.8684 12.8483ZM70.449 12.8483C70.449 12.9066 70.4258 12.9625 70.3846 13.0038C70.3434 13.045 70.2875 13.0681 70.2292 13.0681C70.1709 13.0681 70.115 13.045 70.0738 13.0038C70.0325 12.9625 70.0094 12.9066 70.0094 12.8483V10.6328L69.7963 10.7646C69.7467 10.7952 69.687 10.8049 69.6303 10.7915C69.5737 10.7781 69.5246 10.7427 69.494 10.6932C69.4634 10.6436 69.4537 10.5839 69.4671 10.5272C69.4805 10.4705 69.5159 10.4215 69.5654 10.3909L70.1126 10.05C70.1461 10.0301 70.1842 10.0194 70.2232 10.0188C70.2621 10.0183 70.3005 10.0279 70.3346 10.0468C70.3686 10.0658 70.3971 10.0933 70.4172 10.1266C70.4372 10.16 70.4482 10.1981 70.449 10.237V12.8483Z" fill="#FAFAFA"/>
<path d="M68.8684 12.8483C68.8667 12.9054 68.8428 12.9596 68.8017 12.9994C68.7607 13.0392 68.7058 13.0614 68.6487 13.0614C68.5916 13.0614 68.5367 13.0392 68.4956 12.9994C68.4546 12.9596 68.4307 12.9054 68.429 12.8483V10.6328L68.2157 10.7646C68.1662 10.7939 68.1071 10.8026 68.0513 10.7888C67.9954 10.775 67.9472 10.7399 67.917 10.6909C67.8868 10.642 67.877 10.5831 67.8897 10.527C67.9024 10.4709 67.9367 10.422 67.985 10.3909L68.5323 10.05C68.5657 10.0301 68.6038 10.0194 68.6428 10.0188C68.6817 10.0183 68.7201 10.0279 68.7542 10.0468C68.7882 10.0658 68.8167 10.0933 68.8368 10.1266C68.8569 10.16 68.8678 10.1981 68.8686 10.237L68.8684 12.8483Z" fill="#FAFAFA"/>
<path d="M70.449 12.8483C70.449 12.9066 70.4258 12.9625 70.3846 13.0038C70.3434 13.045 70.2875 13.0681 70.2292 13.0681C70.1709 13.0681 70.115 13.045 70.0738 13.0038C70.0325 12.9625 70.0094 12.9066 70.0094 12.8483V10.6328L69.7963 10.7646C69.7467 10.7952 69.687 10.8049 69.6303 10.7915C69.5737 10.7781 69.5246 10.7427 69.494 10.6932C69.4634 10.6436 69.4537 10.5839 69.4671 10.5272C69.4805 10.4705 69.5159 10.4215 69.5654 10.3909L70.1126 10.05C70.1461 10.0301 70.1842 10.0194 70.2232 10.0188C70.2621 10.0183 70.3005 10.0279 70.3346 10.0468C70.3686 10.0658 70.3971 10.0933 70.4172 10.1266C70.4372 10.16 70.4482 10.1981 70.449 10.237V12.8483Z" fill="#FAFAFA"/>
<path d="M68.2551 10.332H70.5468" stroke="#191919" stroke-width="0.343756" stroke-linecap="round" stroke-linejoin="round"/>
<path d="M69.4011 11.4792V9.1875" stroke="#191919" stroke-width="0.343756" stroke-linecap="round" stroke-linejoin="round"/>
<path d="M40.2234 8.86923C40.5923 8.8688 40.946 8.72207 41.2068 8.46123C41.4676 8.20038 41.6144 7.84673 41.6148 7.47785V6.99636C40.6947 7.1697 39.7496 7.16297 38.832 6.97656V7.47785C38.8325 7.84673 38.9792 8.20038 39.24 8.46123C39.5009 8.72207 39.8545 8.8688 40.2234 8.86923Z" fill="#FAFAFA"/>
<path d="M45.9233 11.6235L44.7824 9.22521C44.5672 8.77629 44.1881 8.42696 43.7231 8.24918L42.8524 7.91731C42.5078 7.81546 42.2564 7.41072 42.0543 7.13477V7.41214C42.0625 7.66798 42.0174 7.92273 41.9216 8.16013C41.8259 8.39753 41.6817 8.61237 41.4983 8.79094C41.3149 8.9695 41.0963 9.10788 40.8565 9.19723C40.6166 9.28658 40.3607 9.32494 40.1052 9.30987C39.8497 9.2948 39.6001 9.22663 39.3724 9.1097C39.1447 8.99278 38.9438 8.82967 38.7827 8.63078C38.6216 8.4319 38.5036 8.2016 38.4365 7.9546C38.3693 7.70759 38.3544 7.4493 38.3927 7.1962C38.2421 7.48569 37.9958 7.71405 37.6958 7.8424L36.8802 8.13488C36.4121 8.30048 36.0262 8.64071 35.8032 9.08438L34.5236 11.6235C34.5059 11.662 34.504 11.7059 34.5184 11.7458C34.5328 11.7857 34.5623 11.8183 34.6006 11.8365L36.3049 12.6115C36.3369 12.6261 36.3719 12.6328 36.4071 12.6311C36.4422 12.6293 36.4764 12.6192 36.5068 12.6015C36.5372 12.5837 36.5629 12.559 36.5818 12.5293C36.6006 12.4995 36.612 12.4657 36.6151 12.4307L36.6778 11.7163C36.6843 11.659 36.7129 11.6065 36.7576 11.57C36.8023 11.5335 36.8594 11.5159 36.9169 11.521C36.9743 11.526 37.0276 11.5533 37.0652 11.597C37.1028 11.6407 37.1219 11.6973 37.1184 11.7549L36.5877 17.787C36.5875 17.8299 36.5961 17.8723 36.6129 17.9117C36.6298 17.9511 36.6545 17.9866 36.6856 18.0161C36.7167 18.0455 36.7535 18.0683 36.7938 18.083C36.834 18.0976 36.8769 18.1039 36.9196 18.1013H43.5449C43.5878 18.1039 43.6309 18.0976 43.6713 18.0828C43.7117 18.068 43.7486 18.045 43.7797 18.0153C43.8109 17.9856 43.8356 17.9498 43.8522 17.9101C43.8689 17.8705 43.8773 17.8278 43.8768 17.7848C43.7829 16.7781 43.3943 12.673 43.3081 11.7561C43.304 11.6987 43.3225 11.642 43.3596 11.5981C43.3968 11.5542 43.4497 11.5266 43.507 11.5212C43.5642 11.5158 43.6213 11.5331 43.666 11.5693C43.7107 11.6055 43.7395 11.6578 43.7461 11.7149L43.8129 12.4219C43.8162 12.4567 43.8277 12.4901 43.8465 12.5195C43.8652 12.5489 43.8908 12.5734 43.9209 12.591C43.951 12.6086 43.9849 12.6188 44.0198 12.6207C44.0546 12.6226 44.0894 12.6161 44.1213 12.6019L45.8464 11.8323C45.8841 11.8145 45.9132 11.7826 45.9276 11.7435C45.942 11.7044 45.9405 11.6614 45.9233 11.6235ZM39.8057 15.8503C39.8039 15.9074 39.78 15.9616 39.739 16.0014C39.698 16.0411 39.6431 16.0634 39.586 16.0634C39.5288 16.0634 39.4739 16.0411 39.4329 16.0014C39.3919 15.9616 39.368 15.9074 39.3662 15.8503V13.6347L39.1529 13.7666C39.1034 13.7958 39.0444 13.8045 38.9885 13.7908C38.9327 13.777 38.8845 13.7418 38.8543 13.6929C38.824 13.6439 38.8142 13.5851 38.827 13.5289C38.8397 13.4728 38.8739 13.424 38.9223 13.3928L39.4695 13.052C39.503 13.0321 39.5411 13.0213 39.58 13.0208C39.619 13.0202 39.6574 13.0299 39.6914 13.0488C39.7255 13.0677 39.7539 13.0952 39.774 13.1286C39.7941 13.162 39.8051 13.2 39.8059 13.2389L39.8057 15.8503ZM41.3863 15.8503C41.3863 15.9086 41.3631 15.9645 41.3219 16.0057C41.2807 16.0469 41.2247 16.0701 41.1664 16.0701C41.1081 16.0701 41.0522 16.0469 41.011 16.0057C40.9698 15.9645 40.9466 15.9086 40.9466 15.8503V13.6347L40.7335 13.7666C40.684 13.7972 40.6243 13.8068 40.5676 13.7934C40.5109 13.78 40.4619 13.7447 40.4313 13.6951C40.4006 13.6456 40.391 13.5859 40.4044 13.5292C40.4178 13.4725 40.4531 13.4235 40.5027 13.3928L41.0499 13.052C41.0834 13.0321 41.1215 13.0213 41.1604 13.0208C41.1994 13.0202 41.2378 13.0299 41.2718 13.0488C41.3059 13.0677 41.3343 13.0952 41.3544 13.1286C41.3745 13.162 41.3855 13.2 41.3863 13.2389V15.8503Z" fill="#FAFAFA"/>
<path d="M39.8057 15.8503C39.8039 15.9074 39.78 15.9616 39.739 16.0014C39.698 16.0411 39.6431 16.0634 39.586 16.0634C39.5288 16.0634 39.4739 16.0411 39.4329 16.0014C39.3919 15.9616 39.368 15.9074 39.3662 15.8503V13.6347L39.1529 13.7666C39.1034 13.7958 39.0444 13.8045 38.9885 13.7908C38.9327 13.777 38.8845 13.7418 38.8543 13.6929C38.824 13.6439 38.8142 13.5851 38.827 13.5289C38.8397 13.4728 38.8739 13.424 38.9223 13.3928L39.4695 13.052C39.503 13.0321 39.5411 13.0213 39.58 13.0208C39.619 13.0202 39.6574 13.0299 39.6914 13.0488C39.7255 13.0677 39.7539 13.0952 39.774 13.1286C39.7941 13.162 39.8051 13.2 39.8059 13.2389L39.8057 15.8503Z" fill="#FAFAFA"/>
<path d="M41.3863 15.8503C41.3863 15.9086 41.3631 15.9645 41.3219 16.0057C41.2807 16.0469 41.2247 16.0701 41.1664 16.0701C41.1081 16.0701 41.0522 16.0469 41.011 16.0057C40.9698 15.9645 40.9466 15.9086 40.9466 15.8503V13.6347L40.7335 13.7666C40.684 13.7972 40.6243 13.8068 40.5676 13.7934C40.5109 13.78 40.4619 13.7447 40.4313 13.6951C40.4006 13.6456 40.391 13.5859 40.4044 13.5292C40.4178 13.4725 40.4531 13.4235 40.5027 13.3928L41.0499 13.052C41.0834 13.0321 41.1215 13.0213 41.1604 13.0208C41.1994 13.0202 41.2378 13.0299 41.2718 13.0488C41.3059 13.0677 41.3343 13.0952 41.3544 13.1286C41.3745 13.162 41.3855 13.2 41.3863 13.2389V15.8503Z" fill="#FAFAFA"/>
<path d="M39.1924 13.334H41.4841" stroke="#191919" stroke-width="0.343756" stroke-linecap="round" stroke-linejoin="round"/>
<path d="M40.3384 14.4812V12.1895" stroke="#191919" stroke-width="0.343756" stroke-linecap="round" stroke-linejoin="round"/>
<defs>
<clipPath id="clip0_8758_18921">
<rect width="13.0627" height="13.0627" fill="white" transform="translate(45.7905 27)"/>
</clipPath>
</defs>
</svg>
