<svg width="81" height="81" viewBox="0 0 81 81" fill="none" xmlns="http://www.w3.org/2000/svg">
<rect x="0.842613" y="0.118492" width="79.9807" height="79.9807" rx="5.88541" fill="#828284" stroke="#FAFAFA" stroke-width="0.229171"/>
<mask id="path-2-inside-1_8758_18803" fill="white">
<path d="M24.5618 66.4609H57.104V80.2112H24.5618V66.4609Z"/>
</mask>
<path d="M24.5618 66.4609V66.2318H24.3326V66.4609H24.5618ZM57.104 66.4609H57.3332V66.2318H57.104V66.4609ZM24.5618 66.6901H57.104V66.2318H24.5618V66.6901ZM56.8749 66.4609V80.2112H57.3332V66.4609H56.8749ZM24.7909 80.2112V66.4609H24.3326V80.2112H24.7909Z" fill="#FAFAFA" mask="url(#path-2-inside-1_8758_18803)"/>
<mask id="path-4-inside-2_8758_18803" fill="white">
<path d="M13.3325 55.0039H68.3335V80.2127H13.3325V55.0039Z"/>
</mask>
<path d="M13.3325 55.0039V54.7747H13.1033V55.0039H13.3325ZM68.3335 55.0039H68.5627V54.7747H68.3335V55.0039ZM13.3325 55.2331H68.3335V54.7747H13.3325V55.2331ZM68.1044 55.0039V80.2127H68.5627V55.0039H68.1044ZM13.5617 80.2127V55.0039H13.1033V80.2127H13.5617Z" fill="#FAFAFA" mask="url(#path-4-inside-2_8758_18803)"/>
<path d="M55.0415 9.53674e-07C55.0415 1.65523 54.6562 3.29426 53.9076 4.8235C53.159 6.35273 52.0618 7.74223 50.6785 8.91266C49.2953 10.0831 47.6532 11.0115 45.8459 11.645C44.0386 12.2784 42.1016 12.6044 40.1454 12.6044C38.1892 12.6044 36.2522 12.2784 34.4449 11.645C32.6376 11.0115 30.9955 10.0831 29.6122 8.91266C28.229 7.74223 27.1318 6.35273 26.3832 4.8235C25.6346 3.29426 25.2493 1.65523 25.2493 0" stroke="#FAFAFA" stroke-width="0.229171"/>
<path d="M31.3052 55.3516C31.8235 54.5174 32.5831 53.7595 33.5407 53.1211C34.4984 52.4827 35.6352 51.9763 36.8864 51.6308C38.1376 51.2853 39.4786 51.1074 40.8329 51.1074C42.1872 51.1074 43.5282 51.2853 44.7794 51.6308C46.0306 51.9763 47.1675 52.4827 48.1251 53.1211C49.0827 53.7595 49.8423 54.5174 50.3606 55.3516" stroke="#FAFAFA" stroke-width="0.229171"/>
<path d="M0.957031 76.5479C2.07356 76.4958 4.27749 77.1099 4.16098 79.9825" stroke="#FAFAFA" stroke-width="0.229171"/>
<path d="M80.7085 76.5479C79.592 76.4958 77.388 77.1099 77.5045 79.9825" stroke="#FAFAFA" stroke-width="0.229171"/>
<path d="M40.9471 69.4356C41.3159 69.4352 41.6696 69.2885 41.9304 69.0276C42.1913 68.7668 42.338 68.4131 42.3384 68.0443V67.5628C41.4183 67.7361 40.4733 67.7294 39.5557 67.543V68.0443C39.5561 68.4131 39.7028 68.7668 39.9637 69.0276C40.2245 69.2885 40.5782 69.4352 40.9471 69.4356Z" fill="#FAFAFA"/>
<path d="M46.647 72.1899L45.506 69.7916C45.2908 69.3427 44.9117 68.9934 44.4467 68.8156L43.576 68.4837C43.2315 68.3819 42.98 67.9771 42.7779 67.7012V67.9786C42.7862 68.2344 42.741 68.4891 42.6453 68.7265C42.5495 68.9639 42.4054 69.1788 42.222 69.3573C42.0386 69.5359 41.82 69.6743 41.5801 69.7636C41.3402 69.853 41.0844 69.8913 40.8288 69.8763C40.5733 69.8612 40.3237 69.793 40.096 69.6761C39.8683 69.5592 39.6675 69.3961 39.5063 69.1972C39.3452 68.9983 39.2273 68.768 39.1601 68.521C39.093 68.274 39.078 68.0157 39.1163 67.7626C38.9657 68.0521 38.7195 68.2805 38.4195 68.4088L37.6039 68.7013C37.1357 68.8669 36.7498 69.2071 36.5268 69.6508L35.2473 72.1899C35.2295 72.2284 35.2276 72.2723 35.242 72.3122C35.2564 72.3521 35.2859 72.3847 35.3242 72.4029L37.0285 73.1779C37.0605 73.1925 37.0956 73.1992 37.1307 73.1975C37.1658 73.1957 37.2 73.1856 37.2304 73.1679C37.2608 73.1501 37.2865 73.1254 37.3054 73.0957C37.3242 73.066 37.3357 73.0321 37.3387 72.9971L37.4014 72.2827C37.4079 72.2254 37.4366 72.1729 37.4812 72.1364C37.5259 72.1 37.5831 72.0823 37.6405 72.0874C37.698 72.0924 37.7512 72.1197 37.7888 72.1634C37.8265 72.2071 37.8456 72.2637 37.8421 72.3213L37.3114 78.3534C37.3112 78.3963 37.3197 78.4387 37.3366 78.4781C37.3534 78.5175 37.3781 78.553 37.4092 78.5825C37.4403 78.6119 37.4772 78.6347 37.5174 78.6494C37.5577 78.664 37.6005 78.6703 37.6433 78.6678H44.2685C44.3115 78.6703 44.3545 78.664 44.3949 78.6492C44.4353 78.6344 44.4722 78.6114 44.5034 78.5817C44.5345 78.552 44.5592 78.5162 44.5759 78.4766C44.5926 78.4369 44.6009 78.3942 44.6004 78.3512C44.5065 77.3445 44.1179 73.2394 44.0318 72.3225C44.0276 72.2652 44.0461 72.2084 44.0833 72.1645C44.1204 72.1206 44.1733 72.093 44.2306 72.0876C44.2879 72.0822 44.345 72.0995 44.3897 72.1357C44.4344 72.1719 44.4631 72.2242 44.4698 72.2813L44.5365 72.9883C44.5398 73.0231 44.5513 73.0565 44.5701 73.0859C44.5889 73.1153 44.6144 73.1398 44.6445 73.1574C44.6747 73.175 44.7086 73.1852 44.7434 73.1871C44.7782 73.189 44.813 73.1826 44.8449 73.1683L46.57 72.3987C46.6077 72.3809 46.6369 72.349 46.6513 72.3099C46.6657 72.2708 46.6641 72.2278 46.647 72.1899ZM40.5293 76.4167C40.5276 76.4738 40.5037 76.528 40.4626 76.5678C40.4216 76.6076 40.3667 76.6298 40.3096 76.6298C40.2524 76.6298 40.1976 76.6076 40.1565 76.5678C40.1155 76.528 40.0916 76.4738 40.0899 76.4167V74.2011L39.8766 74.333C39.8271 74.3623 39.768 74.3709 39.7122 74.3572C39.6563 74.3434 39.6081 74.3082 39.5779 74.2593C39.5477 74.2103 39.5379 74.1515 39.5506 74.0954C39.5633 74.0392 39.5976 73.9904 39.6459 73.9592L40.1931 73.6184C40.2266 73.5985 40.2647 73.5877 40.3037 73.5872C40.3426 73.5866 40.381 73.5963 40.4151 73.6152C40.4491 73.6341 40.4776 73.6616 40.4977 73.695C40.5177 73.7284 40.5287 73.7664 40.5295 73.8054L40.5293 76.4167ZM42.1099 76.4167C42.1099 76.475 42.0867 76.5309 42.0455 76.5721C42.0043 76.6133 41.9484 76.6365 41.8901 76.6365C41.8318 76.6365 41.7759 76.6133 41.7346 76.5721C41.6934 76.5309 41.6703 76.475 41.6703 76.4167V74.2011L41.4572 74.333C41.4076 74.3636 41.3479 74.3732 41.2912 74.3598C41.2345 74.3465 41.1855 74.3111 41.1549 74.2615C41.1243 74.212 41.1146 74.1523 41.128 74.0956C41.1414 74.0389 41.1768 73.9899 41.2263 73.9592L41.7735 73.6184C41.807 73.5985 41.8451 73.5877 41.8841 73.5872C41.923 73.5866 41.9614 73.5963 41.9954 73.6152C42.0295 73.6341 42.058 73.6616 42.078 73.695C42.0981 73.7284 42.1091 73.7664 42.1099 73.8054V76.4167Z" fill="#FAFAFA"/>
<path d="M40.5293 76.4167C40.5276 76.4738 40.5037 76.528 40.4626 76.5678C40.4216 76.6076 40.3667 76.6298 40.3096 76.6298C40.2524 76.6298 40.1976 76.6076 40.1565 76.5678C40.1155 76.528 40.0916 76.4738 40.0899 76.4167V74.2011L39.8766 74.333C39.8271 74.3623 39.768 74.3709 39.7122 74.3572C39.6563 74.3434 39.6081 74.3082 39.5779 74.2593C39.5477 74.2103 39.5379 74.1515 39.5506 74.0954C39.5633 74.0392 39.5976 73.9904 39.6459 73.9592L40.1931 73.6184C40.2266 73.5985 40.2647 73.5877 40.3037 73.5872C40.3426 73.5866 40.381 73.5963 40.4151 73.6152C40.4491 73.6341 40.4776 73.6616 40.4977 73.695C40.5177 73.7284 40.5287 73.7664 40.5295 73.8054L40.5293 76.4167Z" fill="#FAFAFA"/>
<path d="M42.1099 76.4167C42.1099 76.475 42.0867 76.5309 42.0455 76.5721C42.0043 76.6133 41.9484 76.6365 41.8901 76.6365C41.8318 76.6365 41.7759 76.6133 41.7346 76.5721C41.6934 76.5309 41.6703 76.475 41.6703 76.4167V74.2011L41.4572 74.333C41.4076 74.3636 41.3479 74.3732 41.2912 74.3598C41.2345 74.3465 41.1855 74.3111 41.1549 74.2615C41.1243 74.212 41.1146 74.1523 41.128 74.0956C41.1414 74.0389 41.1768 73.9899 41.2263 73.9592L41.7735 73.6184C41.807 73.5985 41.8451 73.5877 41.8841 73.5872C41.923 73.5866 41.9614 73.5963 41.9954 73.6152C42.0295 73.6341 42.058 73.6616 42.078 73.695C42.0981 73.7284 42.1091 73.7664 42.1099 73.8054V76.4167Z" fill="#FAFAFA"/>
<path d="M39.916 73.8965H42.2077" stroke="#191919" stroke-width="0.343756" stroke-linecap="round" stroke-linejoin="round"/>
<path d="M41.062 75.0437V72.752" stroke="#191919" stroke-width="0.343756" stroke-linecap="round" stroke-linejoin="round"/>
<path d="M8.96756 45.8673C9.33644 45.8668 9.6901 45.7201 9.95094 45.4593C10.2118 45.1984 10.3585 44.8448 10.3589 44.4759V43.9944C9.43879 44.1677 8.49376 44.161 7.57617 43.9746V44.4759C7.5766 44.8448 7.72333 45.1984 7.98418 45.4593C8.24502 45.7201 8.59867 45.8668 8.96756 45.8673Z" fill="#FAFAFA"/>
<path d="M14.6675 48.6215L13.5265 46.2233C13.3113 45.7743 12.9322 45.425 12.4672 45.2472L11.5965 44.9154C11.252 44.8135 11.0005 44.4088 10.7984 44.1328V44.4102C10.8067 44.666 10.7615 44.9208 10.6658 45.1582C10.57 45.3956 10.4259 45.6104 10.2425 45.789C10.0591 45.9675 9.84047 46.1059 9.6006 46.1953C9.36073 46.2846 9.10486 46.323 8.84933 46.3079C8.5938 46.2928 8.34422 46.2247 8.11652 46.1077C7.88881 45.9908 7.68798 45.8277 7.52683 45.6288C7.36569 45.4299 7.24778 45.1997 7.18062 44.9526C7.11347 44.7056 7.09854 44.4473 7.13679 44.1942C6.98623 44.4837 6.73998 44.7121 6.43998 44.8404L5.62437 45.1329C5.15624 45.2985 4.7703 45.6388 4.54731 46.0824L3.26777 48.6215C3.25 48.66 3.24811 48.7039 3.26252 48.7438C3.27692 48.7837 3.30645 48.8163 3.34472 48.8346L5.049 49.6096C5.08101 49.6242 5.11606 49.6309 5.1512 49.6291C5.18634 49.6274 5.22055 49.6172 5.25095 49.5995C5.28135 49.5818 5.30705 49.557 5.32589 49.5273C5.34474 49.4976 5.35617 49.4638 5.35924 49.4287L5.4219 48.7144C5.42843 48.6571 5.45708 48.6046 5.50175 48.5681C5.54641 48.5316 5.60356 48.514 5.66102 48.519C5.71848 48.524 5.7717 48.5513 5.80934 48.595C5.84699 48.6387 5.86609 48.6954 5.86256 48.7529L5.33189 54.7851C5.33167 54.8279 5.34025 54.8703 5.35708 54.9097C5.37391 54.9491 5.39864 54.9847 5.42975 55.0141C5.46085 55.0436 5.49766 55.0663 5.53792 55.081C5.57817 55.0957 5.621 55.1019 5.66376 55.0994H12.289C12.332 55.1019 12.375 55.0956 12.4154 55.0808C12.4558 55.066 12.4927 55.0431 12.5239 55.0133C12.555 54.9836 12.5797 54.9479 12.5964 54.9082C12.6131 54.8685 12.6214 54.8259 12.6209 54.7828C12.527 53.7762 12.1384 49.671 12.0523 48.7542C12.0481 48.6968 12.0666 48.6401 12.1038 48.5962C12.1409 48.5523 12.1938 48.5247 12.2511 48.5193C12.3084 48.5139 12.3655 48.5311 12.4102 48.5673C12.4549 48.6035 12.4836 48.6558 12.4903 48.7129L12.557 49.42C12.5603 49.4547 12.5718 49.4882 12.5906 49.5176C12.6094 49.547 12.6349 49.5715 12.665 49.5891C12.6952 49.6067 12.7291 49.6168 12.7639 49.6187C12.7988 49.6206 12.8335 49.6142 12.8654 49.6L14.5905 48.8303C14.6282 48.8125 14.6574 48.7806 14.6718 48.7415C14.6862 48.7024 14.6846 48.6595 14.6675 48.6215ZM8.54981 52.8483C8.54807 52.9054 8.52416 52.9596 8.48315 52.9994C8.44213 53.0392 8.38723 53.0614 8.33009 53.0614C8.27295 53.0614 8.21806 53.0392 8.17704 52.9994C8.13603 52.9596 8.11211 52.9054 8.11037 52.8483V50.6328L7.89708 50.7646C7.84757 50.7939 7.78854 50.8026 7.73268 50.7888C7.67683 50.775 7.62861 50.7399 7.59839 50.6909C7.56818 50.642 7.55838 50.5831 7.57111 50.527C7.58383 50.4709 7.61807 50.422 7.66645 50.3909L8.21365 50.05C8.24713 50.0301 8.28524 50.0194 8.32418 50.0188C8.36312 50.0183 8.40153 50.0279 8.43557 50.0468C8.4696 50.0658 8.49809 50.0933 8.51817 50.1266C8.53825 50.16 8.54923 50.1981 8.55002 50.237L8.54981 52.8483ZM10.1304 52.8483C10.1304 52.9066 10.1072 52.9625 10.066 53.0038C10.0248 53.045 9.96888 53.0681 9.91058 53.0681C9.85228 53.0681 9.79637 53.045 9.75515 53.0038C9.71392 52.9625 9.69076 52.9066 9.69076 52.8483V50.6328L9.47768 50.7646C9.42812 50.7952 9.36843 50.8049 9.31174 50.7915C9.25505 50.7781 9.20601 50.7427 9.1754 50.6932C9.14479 50.6436 9.13511 50.5839 9.14851 50.5272C9.16191 50.4705 9.19728 50.4215 9.24683 50.3909L9.79404 50.05C9.82752 50.0301 9.86563 50.0194 9.90457 50.0188C9.94351 50.0183 9.98192 50.0279 10.016 50.0468C10.05 50.0658 10.0785 50.0933 10.0986 50.1266C10.1186 50.16 10.1296 50.1981 10.1304 50.237V52.8483Z" fill="#FAFAFA"/>
<path d="M8.54981 52.8483C8.54807 52.9054 8.52416 52.9596 8.48315 52.9994C8.44213 53.0392 8.38723 53.0614 8.33009 53.0614C8.27295 53.0614 8.21806 53.0392 8.17704 52.9994C8.13603 52.9596 8.11211 52.9054 8.11037 52.8483V50.6328L7.89708 50.7646C7.84757 50.7939 7.78854 50.8026 7.73268 50.7888C7.67683 50.775 7.62861 50.7399 7.59839 50.6909C7.56818 50.642 7.55838 50.5831 7.57111 50.527C7.58383 50.4709 7.61807 50.422 7.66645 50.3909L8.21365 50.05C8.24713 50.0301 8.28524 50.0194 8.32418 50.0188C8.36312 50.0183 8.40153 50.0279 8.43557 50.0468C8.4696 50.0658 8.49809 50.0933 8.51817 50.1266C8.53825 50.16 8.54923 50.1981 8.55002 50.237L8.54981 52.8483Z" fill="#FAFAFA"/>
<path d="M10.1304 52.8483C10.1304 52.9066 10.1072 52.9625 10.066 53.0038C10.0248 53.045 9.96888 53.0681 9.91058 53.0681C9.85228 53.0681 9.79637 53.045 9.75515 53.0038C9.71392 52.9625 9.69076 52.9066 9.69076 52.8483V50.6328L9.47768 50.7646C9.42812 50.7952 9.36843 50.8049 9.31174 50.7915C9.25505 50.7781 9.20601 50.7427 9.1754 50.6932C9.14479 50.6436 9.13511 50.5839 9.14851 50.5272C9.16191 50.4705 9.19728 50.4215 9.24683 50.3909L9.79404 50.05C9.82752 50.0301 9.86563 50.0194 9.90457 50.0188C9.94351 50.0183 9.98192 50.0279 10.016 50.0468C10.05 50.0658 10.0785 50.0933 10.0986 50.1266C10.1186 50.16 10.1296 50.1981 10.1304 50.237V52.8483Z" fill="#FAFAFA"/>
<path d="M7.93652 50.332H10.2282" stroke="#191919" stroke-width="0.343756" stroke-linecap="round" stroke-linejoin="round"/>
<path d="M9.08252 51.4792V49.1875" stroke="#191919" stroke-width="0.343756" stroke-linecap="round" stroke-linejoin="round"/>
<path d="M72.0303 45.8673C72.3992 45.8668 72.7528 45.7201 73.0137 45.4593C73.2745 45.1984 73.4213 44.8448 73.4217 44.4759V43.9944C72.5015 44.1677 71.5565 44.161 70.6389 43.9746V44.4759C70.6393 44.8448 70.7861 45.1984 71.0469 45.4593C71.3078 45.7201 71.6614 45.8668 72.0303 45.8673Z" fill="#FAFAFA"/>
<path d="M77.7302 48.6215L76.5893 46.2233C76.3741 45.7743 75.995 45.425 75.53 45.2472L74.6592 44.9154C74.3147 44.8135 74.0633 44.4088 73.8612 44.1328V44.4102C73.8694 44.666 73.8242 44.9208 73.7285 45.1582C73.6328 45.3956 73.4886 45.6104 73.3052 45.789C73.1218 45.9675 72.9032 46.1059 72.6633 46.1953C72.4235 46.2846 72.1676 46.323 71.9121 46.3079C71.6565 46.2928 71.407 46.2247 71.1793 46.1077C70.9516 45.9908 70.7507 45.8277 70.5896 45.6288C70.4284 45.4299 70.3105 45.1997 70.2434 44.9526C70.1762 44.7056 70.1613 44.4473 70.1995 44.1942C70.049 44.4837 69.8027 44.7121 69.5027 44.8404L68.6871 45.1329C68.219 45.2985 67.833 45.6388 67.6101 46.0824L66.3305 48.6215C66.3127 48.66 66.3109 48.7039 66.3253 48.7438C66.3397 48.7837 66.3692 48.8163 66.4075 48.8346L68.1117 49.6096C68.1438 49.6242 68.1788 49.6309 68.2139 49.6291C68.2491 49.6274 68.2833 49.6172 68.3137 49.5995C68.3441 49.5818 68.3698 49.557 68.3886 49.5273C68.4075 49.4976 68.4189 49.4638 68.422 49.4287L68.4846 48.7144C68.4912 48.6571 68.5198 48.6046 68.5645 48.5681C68.6092 48.5316 68.6663 48.514 68.7238 48.519C68.7812 48.524 68.8344 48.5513 68.8721 48.595C68.9097 48.6387 68.9288 48.6954 68.9253 48.7529L68.3946 54.7851C68.3944 54.8279 68.403 54.8703 68.4198 54.9097C68.4367 54.9491 68.4614 54.9847 68.4925 55.0141C68.5236 55.0436 68.5604 55.0663 68.6007 55.081C68.6409 55.0957 68.6837 55.1019 68.7265 55.0994H75.3518C75.3947 55.1019 75.4377 55.0956 75.4781 55.0808C75.5186 55.066 75.5555 55.0431 75.5866 55.0133C75.6177 54.9836 75.6424 54.9479 75.6591 54.9082C75.6758 54.8685 75.6842 54.8259 75.6836 54.7828C75.5898 53.7762 75.2011 49.671 75.115 48.7542C75.1109 48.6968 75.1294 48.6401 75.1665 48.5962C75.2037 48.5523 75.2566 48.5247 75.3138 48.5193C75.3711 48.5139 75.4282 48.5311 75.4729 48.5673C75.5176 48.6035 75.5464 48.6558 75.553 48.7129L75.6198 49.42C75.623 49.4547 75.6346 49.4882 75.6533 49.5176C75.6721 49.547 75.6976 49.5715 75.7278 49.5891C75.7579 49.6067 75.7918 49.6168 75.8267 49.6187C75.8615 49.6206 75.8963 49.6142 75.9282 49.6L77.6533 48.8303C77.6909 48.8125 77.7201 48.7806 77.7345 48.7415C77.7489 48.7024 77.7474 48.6595 77.7302 48.6215ZM71.6126 52.8483C71.6108 52.9054 71.5869 52.9596 71.5459 52.9994C71.5049 53.0392 71.45 53.0614 71.3928 53.0614C71.3357 53.0614 71.2808 53.0392 71.2398 52.9994C71.1988 52.9596 71.1749 52.9054 71.1731 52.8483V50.6328L70.9598 50.7646C70.9103 50.7939 70.8513 50.8026 70.7954 50.7888C70.7396 50.775 70.6914 50.7399 70.6611 50.6909C70.6309 50.642 70.6211 50.5831 70.6339 50.527C70.6466 50.4709 70.6808 50.422 70.7292 50.3909L71.2764 50.05C71.3099 50.0301 71.348 50.0194 71.3869 50.0188C71.4259 50.0183 71.4643 50.0279 71.4983 50.0468C71.5323 50.0658 71.5608 50.0933 71.5809 50.1266C71.601 50.16 71.612 50.1981 71.6128 50.237L71.6126 52.8483ZM73.1931 52.8483C73.1931 52.9066 73.17 52.9625 73.1288 53.0038C73.0875 53.045 73.0316 53.0681 72.9733 53.0681C72.915 53.0681 72.8591 53.045 72.8179 53.0038C72.7767 52.9625 72.7535 52.9066 72.7535 52.8483V50.6328L72.5404 50.7646C72.4909 50.7952 72.4312 50.8049 72.3745 50.7915C72.3178 50.7781 72.2688 50.7427 72.2381 50.6932C72.2075 50.6436 72.1979 50.5839 72.2113 50.5272C72.2247 50.4705 72.26 50.4215 72.3096 50.3909L72.8568 50.05C72.8903 50.0301 72.9284 50.0194 72.9673 50.0188C73.0063 50.0183 73.0447 50.0279 73.0787 50.0468C73.1127 50.0658 73.1412 50.0933 73.1613 50.1266C73.1814 50.16 73.1924 50.1981 73.1931 50.237V52.8483Z" fill="#FAFAFA"/>
<path d="M71.6126 52.8483C71.6108 52.9054 71.5869 52.9596 71.5459 52.9994C71.5049 53.0392 71.45 53.0614 71.3928 53.0614C71.3357 53.0614 71.2808 53.0392 71.2398 52.9994C71.1988 52.9596 71.1749 52.9054 71.1731 52.8483V50.6328L70.9598 50.7646C70.9103 50.7939 70.8513 50.8026 70.7954 50.7888C70.7396 50.775 70.6914 50.7399 70.6611 50.6909C70.6309 50.642 70.6211 50.5831 70.6339 50.527C70.6466 50.4709 70.6808 50.422 70.7292 50.3909L71.2764 50.05C71.3099 50.0301 71.348 50.0194 71.3869 50.0188C71.4259 50.0183 71.4643 50.0279 71.4983 50.0468C71.5323 50.0658 71.5608 50.0933 71.5809 50.1266C71.601 50.16 71.612 50.1981 71.6128 50.237L71.6126 52.8483Z" fill="#FAFAFA"/>
<path d="M73.1931 52.8483C73.1931 52.9066 73.17 52.9625 73.1288 53.0038C73.0875 53.045 73.0316 53.0681 72.9733 53.0681C72.915 53.0681 72.8591 53.045 72.8179 53.0038C72.7767 52.9625 72.7535 52.9066 72.7535 52.8483V50.6328L72.5404 50.7646C72.4909 50.7952 72.4312 50.8049 72.3745 50.7915C72.3178 50.7781 72.2688 50.7427 72.2381 50.6932C72.2075 50.6436 72.1979 50.5839 72.2113 50.5272C72.2247 50.4705 72.26 50.4215 72.3096 50.3909L72.8568 50.05C72.8903 50.0301 72.9284 50.0194 72.9673 50.0188C73.0063 50.0183 73.0447 50.0279 73.0787 50.0468C73.1127 50.0658 73.1412 50.0933 73.1613 50.1266C73.1814 50.16 73.1924 50.1981 73.1931 50.237V52.8483Z" fill="#FAFAFA"/>
<path d="M70.9993 50.332H73.291" stroke="#191919" stroke-width="0.343756" stroke-linecap="round" stroke-linejoin="round"/>
<path d="M72.1453 51.4792V49.1875" stroke="#191919" stroke-width="0.343756" stroke-linecap="round" stroke-linejoin="round"/>
<path d="M58.0491 51.8673C58.418 51.8668 58.7716 51.7201 59.0325 51.4593C59.2933 51.1984 59.4401 50.8448 59.4405 50.4759V49.9944C58.5203 50.1677 57.5753 50.161 56.6577 49.9746V50.4759C56.6581 50.8448 56.8049 51.1984 57.0657 51.4593C57.3266 51.7201 57.6802 51.8668 58.0491 51.8673Z" fill="#FAFAFA"/>
<path d="M63.749 54.6215L62.6081 52.2233C62.3929 51.7743 62.0138 51.425 61.5487 51.2472L60.678 50.9154C60.3335 50.8135 60.082 50.4088 59.88 50.1328V50.4102C59.8882 50.666 59.843 50.9208 59.7473 51.1582C59.6516 51.3956 59.5074 51.6104 59.324 51.789C59.1406 51.9675 58.922 52.1059 58.6821 52.1953C58.4423 52.2846 58.1864 52.323 57.9309 52.3079C57.6753 52.2928 57.4258 52.2247 57.1981 52.1077C56.9704 51.9908 56.7695 51.8277 56.6084 51.6288C56.4472 51.4299 56.3293 51.1997 56.2622 50.9526C56.195 50.7056 56.1801 50.4473 56.2183 50.1942C56.0678 50.4837 55.8215 50.7121 55.5215 50.8404L54.7059 51.1329C54.2378 51.2985 53.8518 51.6388 53.6288 52.0824L52.3493 54.6215C52.3315 54.66 52.3297 54.7039 52.3441 54.7438C52.3585 54.7837 52.388 54.8163 52.4263 54.8346L54.1305 55.6096C54.1626 55.6242 54.1976 55.6309 54.2327 55.6291C54.2679 55.6274 54.3021 55.6172 54.3325 55.5995C54.3629 55.5818 54.3886 55.557 54.4074 55.5273C54.4263 55.4976 54.4377 55.4638 54.4408 55.4287L54.5034 54.7144C54.51 54.6571 54.5386 54.6046 54.5833 54.5681C54.628 54.5316 54.6851 54.514 54.7426 54.519C54.8 54.524 54.8532 54.5513 54.8909 54.595C54.9285 54.6387 54.9476 54.6954 54.9441 54.7529L54.4134 60.7851C54.4132 60.8279 54.4218 60.8703 54.4386 60.9097C54.4555 60.9491 54.4802 60.9847 54.5113 61.0141C54.5424 61.0436 54.5792 61.0663 54.6195 61.081C54.6597 61.0957 54.7025 61.1019 54.7453 61.0994H61.3706C61.4135 61.1019 61.4565 61.0956 61.4969 61.0808C61.5374 61.066 61.5743 61.0431 61.6054 61.0133C61.6365 60.9836 61.6612 60.9479 61.6779 60.9082C61.6946 60.8685 61.703 60.8259 61.7024 60.7828C61.6086 59.7762 61.2199 55.671 61.1338 54.7542C61.1297 54.6968 61.1482 54.6401 61.1853 54.5962C61.2225 54.5523 61.2754 54.5247 61.3326 54.5193C61.3899 54.5139 61.447 54.5311 61.4917 54.5673C61.5364 54.6035 61.5652 54.6558 61.5718 54.7129L61.6386 55.42C61.6418 55.4547 61.6534 55.4882 61.6721 55.5176C61.6909 55.547 61.7164 55.5715 61.7466 55.5891C61.7767 55.6067 61.8106 55.6168 61.8455 55.6187C61.8803 55.6206 61.9151 55.6142 61.947 55.6L63.6721 54.8303C63.7097 54.8125 63.7389 54.7806 63.7533 54.7415C63.7677 54.7024 63.7662 54.6595 63.749 54.6215ZM57.6314 58.8483C57.6296 58.9054 57.6057 58.9596 57.5647 58.9994C57.5237 59.0392 57.4688 59.0614 57.4116 59.0614C57.3545 59.0614 57.2996 59.0392 57.2586 58.9994C57.2176 58.9596 57.1937 58.9054 57.1919 58.8483V56.6328L56.9786 56.7646C56.9291 56.7939 56.8701 56.8026 56.8142 56.7888C56.7584 56.775 56.7102 56.7399 56.6799 56.6909C56.6497 56.642 56.6399 56.5831 56.6527 56.527C56.6654 56.4709 56.6996 56.422 56.748 56.3909L57.2952 56.05C57.3287 56.0301 57.3668 56.0194 57.4057 56.0188C57.4447 56.0183 57.4831 56.0279 57.5171 56.0468C57.5511 56.0658 57.5796 56.0933 57.5997 56.1266C57.6198 56.16 57.6308 56.1981 57.6316 56.237L57.6314 58.8483ZM59.2119 58.8483C59.2119 58.9066 59.1888 58.9625 59.1476 59.0038C59.1063 59.045 59.0504 59.0681 58.9921 59.0681C58.9338 59.0681 58.8779 59.045 58.8367 59.0038C58.7955 58.9625 58.7723 58.9066 58.7723 58.8483V56.6328L58.5592 56.7646C58.5097 56.7952 58.45 56.8049 58.3933 56.7915C58.3366 56.7781 58.2876 56.7427 58.2569 56.6932C58.2263 56.6436 58.2167 56.5839 58.2301 56.5272C58.2435 56.4705 58.2788 56.4215 58.3284 56.3909L58.8756 56.05C58.9091 56.0301 58.9472 56.0194 58.9861 56.0188C59.0251 56.0183 59.0635 56.0279 59.0975 56.0468C59.1315 56.0658 59.16 56.0933 59.1801 56.1266C59.2002 56.16 59.2112 56.1981 59.2119 56.237V58.8483Z" fill="#FAFAFA"/>
<path d="M57.6314 58.8483C57.6296 58.9054 57.6057 58.9596 57.5647 58.9994C57.5237 59.0392 57.4688 59.0614 57.4116 59.0614C57.3545 59.0614 57.2996 59.0392 57.2586 58.9994C57.2176 58.9596 57.1937 58.9054 57.1919 58.8483V56.6328L56.9786 56.7646C56.9291 56.7939 56.8701 56.8026 56.8142 56.7888C56.7584 56.775 56.7102 56.7399 56.6799 56.6909C56.6497 56.642 56.6399 56.5831 56.6527 56.527C56.6654 56.4709 56.6996 56.422 56.748 56.3909L57.2952 56.05C57.3287 56.0301 57.3668 56.0194 57.4057 56.0188C57.4447 56.0183 57.4831 56.0279 57.5171 56.0468C57.5511 56.0658 57.5796 56.0933 57.5997 56.1266C57.6198 56.16 57.6308 56.1981 57.6316 56.237L57.6314 58.8483Z" fill="#FAFAFA"/>
<path d="M59.2119 58.8483C59.2119 58.9066 59.1888 58.9625 59.1476 59.0038C59.1063 59.045 59.0504 59.0681 58.9921 59.0681C58.9338 59.0681 58.8779 59.045 58.8367 59.0038C58.7955 58.9625 58.7723 58.9066 58.7723 58.8483V56.6328L58.5592 56.7646C58.5097 56.7952 58.45 56.8049 58.3933 56.7915C58.3366 56.7781 58.2876 56.7427 58.2569 56.6932C58.2263 56.6436 58.2167 56.5839 58.2301 56.5272C58.2435 56.4705 58.2788 56.4215 58.3284 56.3909L58.8756 56.05C58.9091 56.0301 58.9472 56.0194 58.9861 56.0188C59.0251 56.0183 59.0635 56.0279 59.0975 56.0468C59.1315 56.0658 59.16 56.0933 59.1801 56.1266C59.2002 56.16 59.2112 56.1981 59.2119 56.237V58.8483Z" fill="#FAFAFA"/>
<path d="M57.0181 56.332H59.3098" stroke="#191919" stroke-width="0.343756" stroke-linecap="round" stroke-linejoin="round"/>
<path d="M58.1641 57.4792V55.1875" stroke="#191919" stroke-width="0.343756" stroke-linecap="round" stroke-linejoin="round"/>
<path d="M23.0491 51.8673C23.418 51.8668 23.7716 51.7201 24.0325 51.4593C24.2933 51.1984 24.4401 50.8448 24.4405 50.4759V49.9944C23.5203 50.1677 22.5753 50.161 21.6577 49.9746V50.4759C21.6581 50.8448 21.8049 51.1984 22.0657 51.4593C22.3266 51.7201 22.6802 51.8668 23.0491 51.8673Z" fill="#FAFAFA"/>
<path d="M28.749 54.6215L27.6081 52.2233C27.3929 51.7743 27.0138 51.425 26.5487 51.2472L25.678 50.9154C25.3335 50.8135 25.082 50.4088 24.88 50.1328V50.4102C24.8882 50.666 24.843 50.9208 24.7473 51.1582C24.6516 51.3956 24.5074 51.6104 24.324 51.789C24.1406 51.9675 23.922 52.1059 23.6821 52.1953C23.4423 52.2846 23.1864 52.323 22.9309 52.3079C22.6753 52.2928 22.4258 52.2247 22.1981 52.1077C21.9704 51.9908 21.7695 51.8277 21.6084 51.6288C21.4472 51.4299 21.3293 51.1997 21.2622 50.9526C21.195 50.7056 21.1801 50.4473 21.2183 50.1942C21.0678 50.4837 20.8215 50.7121 20.5215 50.8404L19.7059 51.1329C19.2378 51.2985 18.8518 51.6388 18.6288 52.0824L17.3493 54.6215C17.3315 54.66 17.3297 54.7039 17.3441 54.7438C17.3585 54.7837 17.388 54.8163 17.4263 54.8346L19.1305 55.6096C19.1626 55.6242 19.1976 55.6309 19.2327 55.6291C19.2679 55.6274 19.3021 55.6172 19.3325 55.5995C19.3629 55.5818 19.3886 55.557 19.4074 55.5273C19.4263 55.4976 19.4377 55.4638 19.4408 55.4287L19.5034 54.7144C19.51 54.6571 19.5386 54.6046 19.5833 54.5681C19.628 54.5316 19.6851 54.514 19.7426 54.519C19.8 54.524 19.8532 54.5513 19.8909 54.595C19.9285 54.6387 19.9476 54.6954 19.9441 54.7529L19.4134 60.7851C19.4132 60.8279 19.4218 60.8703 19.4386 60.9097C19.4555 60.9491 19.4802 60.9847 19.5113 61.0141C19.5424 61.0436 19.5792 61.0663 19.6195 61.081C19.6597 61.0957 19.7025 61.1019 19.7453 61.0994H26.3706C26.4135 61.1019 26.4565 61.0956 26.4969 61.0808C26.5374 61.066 26.5743 61.0431 26.6054 61.0133C26.6365 60.9836 26.6612 60.9479 26.6779 60.9082C26.6946 60.8685 26.703 60.8259 26.7024 60.7828C26.6086 59.7762 26.2199 55.671 26.1338 54.7542C26.1297 54.6968 26.1482 54.6401 26.1853 54.5962C26.2225 54.5523 26.2754 54.5247 26.3326 54.5193C26.3899 54.5139 26.447 54.5311 26.4917 54.5673C26.5364 54.6035 26.5652 54.6558 26.5718 54.7129L26.6386 55.42C26.6418 55.4547 26.6534 55.4882 26.6721 55.5176C26.6909 55.547 26.7164 55.5715 26.7466 55.5891C26.7767 55.6067 26.8106 55.6168 26.8455 55.6187C26.8803 55.6206 26.9151 55.6142 26.947 55.6L28.6721 54.8303C28.7097 54.8125 28.7389 54.7806 28.7533 54.7415C28.7677 54.7024 28.7662 54.6595 28.749 54.6215ZM22.6314 58.8483C22.6296 58.9054 22.6057 58.9596 22.5647 58.9994C22.5237 59.0392 22.4688 59.0614 22.4116 59.0614C22.3545 59.0614 22.2996 59.0392 22.2586 58.9994C22.2176 58.9596 22.1937 58.9054 22.1919 58.8483V56.6328L21.9786 56.7646C21.9291 56.7939 21.8701 56.8026 21.8142 56.7888C21.7584 56.775 21.7102 56.7399 21.6799 56.6909C21.6497 56.642 21.6399 56.5831 21.6527 56.527C21.6654 56.4709 21.6996 56.422 21.748 56.3909L22.2952 56.05C22.3287 56.0301 22.3668 56.0194 22.4057 56.0188C22.4447 56.0183 22.4831 56.0279 22.5171 56.0468C22.5511 56.0658 22.5796 56.0933 22.5997 56.1266C22.6198 56.16 22.6308 56.1981 22.6316 56.237L22.6314 58.8483ZM24.2119 58.8483C24.2119 58.9066 24.1888 58.9625 24.1476 59.0038C24.1063 59.045 24.0504 59.0681 23.9921 59.0681C23.9338 59.0681 23.8779 59.045 23.8367 59.0038C23.7955 58.9625 23.7723 58.9066 23.7723 58.8483V56.6328L23.5592 56.7646C23.5097 56.7952 23.45 56.8049 23.3933 56.7915C23.3366 56.7781 23.2876 56.7427 23.2569 56.6932C23.2263 56.6436 23.2167 56.5839 23.2301 56.5272C23.2435 56.4705 23.2788 56.4215 23.3284 56.3909L23.8756 56.05C23.9091 56.0301 23.9472 56.0194 23.9861 56.0188C24.0251 56.0183 24.0635 56.0279 24.0975 56.0468C24.1315 56.0658 24.16 56.0933 24.1801 56.1266C24.2002 56.16 24.2112 56.1981 24.2119 56.237V58.8483Z" fill="#FAFAFA"/>
<path d="M22.6314 58.8483C22.6296 58.9054 22.6057 58.9596 22.5647 58.9994C22.5237 59.0392 22.4688 59.0614 22.4116 59.0614C22.3545 59.0614 22.2996 59.0392 22.2586 58.9994C22.2176 58.9596 22.1937 58.9054 22.1919 58.8483V56.6328L21.9786 56.7646C21.9291 56.7939 21.8701 56.8026 21.8142 56.7888C21.7584 56.775 21.7102 56.7399 21.6799 56.6909C21.6497 56.642 21.6399 56.5831 21.6527 56.527C21.6654 56.4709 21.6996 56.422 21.748 56.3909L22.2952 56.05C22.3287 56.0301 22.3668 56.0194 22.4057 56.0188C22.4447 56.0183 22.4831 56.0279 22.5171 56.0468C22.5511 56.0658 22.5796 56.0933 22.5997 56.1266C22.6198 56.16 22.6308 56.1981 22.6316 56.237L22.6314 58.8483Z" fill="#FAFAFA"/>
<path d="M24.2119 58.8483C24.2119 58.9066 24.1888 58.9625 24.1476 59.0038C24.1063 59.045 24.0504 59.0681 23.9921 59.0681C23.9338 59.0681 23.8779 59.045 23.8367 59.0038C23.7955 58.9625 23.7723 58.9066 23.7723 58.8483V56.6328L23.5592 56.7646C23.5097 56.7952 23.45 56.8049 23.3933 56.7915C23.3366 56.7781 23.2876 56.7427 23.2569 56.6932C23.2263 56.6436 23.2167 56.5839 23.2301 56.5272C23.2435 56.4705 23.2788 56.4215 23.3284 56.3909L23.8756 56.05C23.9091 56.0301 23.9472 56.0194 23.9861 56.0188C24.0251 56.0183 24.0635 56.0279 24.0975 56.0468C24.1315 56.0658 24.16 56.0933 24.1801 56.1266C24.2002 56.16 24.2112 56.1981 24.2119 56.237V58.8483Z" fill="#FAFAFA"/>
<path d="M22.0181 56.332H24.3098" stroke="#191919" stroke-width="0.343756" stroke-linecap="round" stroke-linejoin="round"/>
<path d="M23.1641 57.4792V55.1875" stroke="#191919" stroke-width="0.343756" stroke-linecap="round" stroke-linejoin="round"/>
<path d="M41.0491 52.8673C41.418 52.8668 41.7716 52.7201 42.0325 52.4593C42.2933 52.1984 42.4401 51.8448 42.4405 51.4759V50.9944C41.5203 51.1677 40.5753 51.161 39.6577 50.9746V51.4759C39.6581 51.8448 39.8049 52.1984 40.0657 52.4593C40.3266 52.7201 40.6802 52.8668 41.0491 52.8673Z" fill="#FAFAFA"/>
<path d="M46.749 55.6215L45.6081 53.2233C45.3929 52.7743 45.0138 52.425 44.5487 52.2472L43.678 51.9154C43.3335 51.8135 43.082 51.4088 42.88 51.1328V51.4102C42.8882 51.666 42.843 51.9208 42.7473 52.1582C42.6516 52.3956 42.5074 52.6104 42.324 52.789C42.1406 52.9675 41.922 53.1059 41.6821 53.1953C41.4423 53.2846 41.1864 53.323 40.9309 53.3079C40.6753 53.2928 40.4258 53.2247 40.1981 53.1077C39.9704 52.9908 39.7695 52.8277 39.6084 52.6288C39.4472 52.4299 39.3293 52.1997 39.2622 51.9526C39.195 51.7056 39.1801 51.4473 39.2183 51.1942C39.0678 51.4837 38.8215 51.7121 38.5215 51.8404L37.7059 52.1329C37.2378 52.2985 36.8518 52.6388 36.6288 53.0824L35.3493 55.6215C35.3315 55.66 35.3297 55.7039 35.3441 55.7438C35.3585 55.7837 35.388 55.8163 35.4263 55.8346L37.1305 56.6096C37.1626 56.6242 37.1976 56.6309 37.2327 56.6291C37.2679 56.6274 37.3021 56.6172 37.3325 56.5995C37.3629 56.5818 37.3886 56.557 37.4074 56.5273C37.4263 56.4976 37.4377 56.4638 37.4408 56.4287L37.5034 55.7144C37.51 55.6571 37.5386 55.6046 37.5833 55.5681C37.628 55.5316 37.6851 55.514 37.7426 55.519C37.8 55.524 37.8532 55.5513 37.8909 55.595C37.9285 55.6387 37.9476 55.6954 37.9441 55.7529L37.4134 61.7851C37.4132 61.8279 37.4218 61.8703 37.4386 61.9097C37.4555 61.9491 37.4802 61.9847 37.5113 62.0141C37.5424 62.0436 37.5792 62.0663 37.6195 62.081C37.6597 62.0957 37.7025 62.1019 37.7453 62.0994H44.3706C44.4135 62.1019 44.4565 62.0956 44.4969 62.0808C44.5374 62.066 44.5743 62.0431 44.6054 62.0133C44.6365 61.9836 44.6612 61.9479 44.6779 61.9082C44.6946 61.8685 44.703 61.8259 44.7024 61.7828C44.6086 60.7762 44.2199 56.671 44.1338 55.7542C44.1297 55.6968 44.1482 55.6401 44.1853 55.5962C44.2225 55.5523 44.2754 55.5247 44.3326 55.5193C44.3899 55.5139 44.447 55.5311 44.4917 55.5673C44.5364 55.6035 44.5652 55.6558 44.5718 55.7129L44.6386 56.42C44.6418 56.4547 44.6534 56.4882 44.6721 56.5176C44.6909 56.547 44.7164 56.5715 44.7466 56.5891C44.7767 56.6067 44.8106 56.6168 44.8455 56.6187C44.8803 56.6206 44.9151 56.6142 44.947 56.6L46.6721 55.8303C46.7097 55.8125 46.7389 55.7806 46.7533 55.7415C46.7677 55.7024 46.7662 55.6595 46.749 55.6215ZM40.6314 59.8483C40.6296 59.9054 40.6057 59.9596 40.5647 59.9994C40.5237 60.0392 40.4688 60.0614 40.4116 60.0614C40.3545 60.0614 40.2996 60.0392 40.2586 59.9994C40.2176 59.9596 40.1937 59.9054 40.1919 59.8483V57.6328L39.9786 57.7646C39.9291 57.7939 39.8701 57.8026 39.8142 57.7888C39.7584 57.775 39.7102 57.7399 39.6799 57.6909C39.6497 57.642 39.6399 57.5831 39.6527 57.527C39.6654 57.4709 39.6996 57.422 39.748 57.3909L40.2952 57.05C40.3287 57.0301 40.3668 57.0194 40.4057 57.0188C40.4447 57.0183 40.4831 57.0279 40.5171 57.0468C40.5511 57.0658 40.5796 57.0933 40.5997 57.1266C40.6198 57.16 40.6308 57.1981 40.6316 57.237L40.6314 59.8483ZM42.2119 59.8483C42.2119 59.9066 42.1888 59.9625 42.1476 60.0038C42.1063 60.045 42.0504 60.0681 41.9921 60.0681C41.9338 60.0681 41.8779 60.045 41.8367 60.0038C41.7955 59.9625 41.7723 59.9066 41.7723 59.8483V57.6328L41.5592 57.7646C41.5097 57.7952 41.45 57.8049 41.3933 57.7915C41.3366 57.7781 41.2876 57.7427 41.2569 57.6932C41.2263 57.6436 41.2167 57.5839 41.2301 57.5272C41.2435 57.4705 41.2788 57.4215 41.3284 57.3909L41.8756 57.05C41.9091 57.0301 41.9472 57.0194 41.9861 57.0188C42.0251 57.0183 42.0635 57.0279 42.0975 57.0468C42.1315 57.0658 42.16 57.0933 42.1801 57.1266C42.2002 57.16 42.2112 57.1981 42.2119 57.237V59.8483Z" fill="#FAFAFA"/>
<path d="M40.6314 59.8483C40.6296 59.9054 40.6057 59.9596 40.5647 59.9994C40.5237 60.0392 40.4688 60.0614 40.4116 60.0614C40.3545 60.0614 40.2996 60.0392 40.2586 59.9994C40.2176 59.9596 40.1937 59.9054 40.1919 59.8483V57.6328L39.9786 57.7646C39.9291 57.7939 39.8701 57.8026 39.8142 57.7888C39.7584 57.775 39.7102 57.7399 39.6799 57.6909C39.6497 57.642 39.6399 57.5831 39.6527 57.527C39.6654 57.4709 39.6996 57.422 39.748 57.3909L40.2952 57.05C40.3287 57.0301 40.3668 57.0194 40.4057 57.0188C40.4447 57.0183 40.4831 57.0279 40.5171 57.0468C40.5511 57.0658 40.5796 57.0933 40.5997 57.1266C40.6198 57.16 40.6308 57.1981 40.6316 57.237L40.6314 59.8483Z" fill="#FAFAFA"/>
<path d="M42.2119 59.8483C42.2119 59.9066 42.1888 59.9625 42.1476 60.0038C42.1063 60.045 42.0504 60.0681 41.9921 60.0681C41.9338 60.0681 41.8779 60.045 41.8367 60.0038C41.7955 59.9625 41.7723 59.9066 41.7723 59.8483V57.6328L41.5592 57.7646C41.5097 57.7952 41.45 57.8049 41.3933 57.7915C41.3366 57.7781 41.2876 57.7427 41.2569 57.6932C41.2263 57.6436 41.2167 57.5839 41.2301 57.5272C41.2435 57.4705 41.2788 57.4215 41.3284 57.3909L41.8756 57.05C41.9091 57.0301 41.9472 57.0194 41.9861 57.0188C42.0251 57.0183 42.0635 57.0279 42.0975 57.0468C42.1315 57.0658 42.16 57.0933 42.1801 57.1266C42.2002 57.16 42.2112 57.1981 42.2119 57.237V59.8483Z" fill="#FAFAFA"/>
<path d="M40.0181 57.332H42.3098" stroke="#191919" stroke-width="0.343756" stroke-linecap="round" stroke-linejoin="round"/>
<path d="M41.1641 58.4792V56.1875" stroke="#191919" stroke-width="0.343756" stroke-linecap="round" stroke-linejoin="round"/>
<path d="M29.0491 3.86728C29.418 3.86685 29.7716 3.72012 30.0325 3.45927C30.2933 3.19843 30.4401 2.84478 30.4405 2.47589V1.99441C29.5203 2.16774 28.5753 2.16102 27.6577 1.97461V2.47589C27.6581 2.84478 27.8049 3.19843 28.0657 3.45927C28.3266 3.72012 28.6802 3.86685 29.0491 3.86728Z" fill="#FAFAFA"/>
<path d="M34.749 6.6215L33.6081 4.22326C33.3929 3.77433 33.0138 3.42501 32.5487 3.24723L31.678 2.91535C31.3335 2.8135 31.082 2.40876 30.88 2.13281V2.41019C30.8882 2.66603 30.843 2.92078 30.7473 3.15818C30.6516 3.39558 30.5074 3.61042 30.324 3.78898C30.1406 3.96755 29.922 4.10592 29.6821 4.19527C29.4423 4.28462 29.1864 4.32299 28.9309 4.30792C28.6753 4.29285 28.4258 4.22467 28.1981 4.10775C27.9704 3.99082 27.7695 3.82772 27.6084 3.62883C27.4472 3.42994 27.3293 3.19965 27.2622 2.95265C27.195 2.70564 27.1801 2.44735 27.2183 2.19425C27.0678 2.48374 26.8215 2.7121 26.5215 2.84045L25.7059 3.13293C25.2378 3.29852 24.8518 3.63876 24.6288 4.08243L23.3493 6.6215C23.3315 6.66 23.3297 6.70395 23.3441 6.74383C23.3585 6.78371 23.388 6.81632 23.4263 6.83458L25.1305 7.60957C25.1626 7.62418 25.1976 7.63089 25.2327 7.62913C25.2679 7.62738 25.3021 7.61722 25.3325 7.5995C25.3629 7.58178 25.3886 7.55702 25.4074 7.52731C25.4263 7.49759 25.4377 7.46379 25.4408 7.42873L25.5034 6.71437C25.51 6.65706 25.5386 6.60457 25.5833 6.56808C25.628 6.53159 25.6851 6.51399 25.7426 6.51902C25.8 6.52405 25.8532 6.55131 25.8909 6.59501C25.9285 6.6387 25.9476 6.69537 25.9441 6.75294L25.4134 12.7851C25.4132 12.8279 25.4218 12.8703 25.4386 12.9097C25.4555 12.9491 25.4802 12.9847 25.5113 13.0141C25.5424 13.0436 25.5792 13.0663 25.6195 13.081C25.6597 13.0957 25.7025 13.1019 25.7453 13.0994H32.3706C32.4135 13.1019 32.4565 13.0956 32.4969 13.0808C32.5374 13.066 32.5743 13.0431 32.6054 13.0133C32.6365 12.9836 32.6612 12.9479 32.6779 12.9082C32.6946 12.8685 32.703 12.8259 32.7024 12.7828C32.6086 11.7762 32.2199 7.67101 32.1338 6.75417C32.1297 6.69679 32.1482 6.64008 32.1853 6.59618C32.2225 6.55227 32.2754 6.52467 32.3326 6.51928C32.3899 6.51389 32.447 6.53114 32.4917 6.56734C32.5364 6.60353 32.5652 6.6558 32.5718 6.71294L32.6386 7.41996C32.6418 7.4547 32.6534 7.48815 32.6721 7.51756C32.6909 7.54697 32.7164 7.57148 32.7466 7.58908C32.7767 7.60667 32.8106 7.61683 32.8455 7.61873C32.8803 7.62062 32.9151 7.6142 32.947 7.59998L34.6721 6.8303C34.7097 6.81252 34.7389 6.78065 34.7533 6.74155C34.7677 6.70245 34.7662 6.65946 34.749 6.6215ZM28.6314 10.8483C28.6296 10.9054 28.6057 10.9596 28.5647 10.9994C28.5237 11.0392 28.4688 11.0614 28.4116 11.0614C28.3545 11.0614 28.2996 11.0392 28.2586 10.9994C28.2176 10.9596 28.1937 10.9054 28.1919 10.8483V8.63275L27.9786 8.7646C27.9291 8.79389 27.8701 8.80258 27.8142 8.7888C27.7584 8.77502 27.7102 8.73987 27.6799 8.69091C27.6497 8.64196 27.6399 8.5831 27.6527 8.52699C27.6654 8.47089 27.6996 8.42202 27.748 8.39089L28.2952 8.05003C28.3287 8.03014 28.3668 8.01938 28.4057 8.01882C28.4447 8.01826 28.4831 8.02792 28.5171 8.04684C28.5511 8.06576 28.5796 8.09328 28.5997 8.12664C28.6198 8.16001 28.6308 8.19806 28.6316 8.23699L28.6314 10.8483ZM30.2119 10.8483C30.2119 10.9066 30.1888 10.9625 30.1476 11.0038C30.1063 11.045 30.0504 11.0681 29.9921 11.0681C29.9338 11.0681 29.8779 11.045 29.8367 11.0038C29.7955 10.9625 29.7723 10.9066 29.7723 10.8483V8.63275L29.5592 8.7646C29.5097 8.79522 29.45 8.80489 29.3933 8.79149C29.3366 8.77809 29.2876 8.74273 29.2569 8.69317C29.2263 8.64361 29.2167 8.58392 29.2301 8.52723C29.2435 8.47054 29.2788 8.4215 29.3284 8.39089L29.8756 8.05003C29.9091 8.03014 29.9472 8.01938 29.9861 8.01882C30.0251 8.01826 30.0635 8.02792 30.0975 8.04684C30.1315 8.06576 30.16 8.09328 30.1801 8.12664C30.2002 8.16001 30.2112 8.19806 30.2119 8.23699V10.8483Z" fill="#FAFAFA"/>
<path d="M28.6314 10.8483C28.6296 10.9054 28.6057 10.9596 28.5647 10.9994C28.5237 11.0392 28.4688 11.0614 28.4116 11.0614C28.3545 11.0614 28.2996 11.0392 28.2586 10.9994C28.2176 10.9596 28.1937 10.9054 28.1919 10.8483V8.63275L27.9786 8.7646C27.9291 8.79389 27.8701 8.80258 27.8142 8.7888C27.7584 8.77502 27.7102 8.73987 27.6799 8.69091C27.6497 8.64196 27.6399 8.5831 27.6527 8.52699C27.6654 8.47089 27.6996 8.42202 27.748 8.39089L28.2952 8.05003C28.3287 8.03014 28.3668 8.01938 28.4057 8.01882C28.4447 8.01826 28.4831 8.02792 28.5171 8.04684C28.5511 8.06576 28.5796 8.09328 28.5997 8.12664C28.6198 8.16001 28.6308 8.19806 28.6316 8.23699L28.6314 10.8483Z" fill="#FAFAFA"/>
<path d="M30.2119 10.8483C30.2119 10.9066 30.1888 10.9625 30.1476 11.0038C30.1063 11.045 30.0504 11.0681 29.9921 11.0681C29.9338 11.0681 29.8779 11.045 29.8367 11.0038C29.7955 10.9625 29.7723 10.9066 29.7723 10.8483V8.63275L29.5592 8.7646C29.5097 8.79522 29.45 8.80489 29.3933 8.79149C29.3366 8.77809 29.2876 8.74273 29.2569 8.69317C29.2263 8.64361 29.2167 8.58392 29.2301 8.52723C29.2435 8.47054 29.2788 8.4215 29.3284 8.39089L29.8756 8.05003C29.9091 8.03014 29.9472 8.01938 29.9861 8.01882C30.0251 8.01826 30.0635 8.02792 30.0975 8.04684C30.1315 8.06576 30.16 8.09328 30.1801 8.12664C30.2002 8.16001 30.2112 8.19806 30.2119 8.23699V10.8483Z" fill="#FAFAFA"/>
<path d="M28.0181 8.33203H30.3098" stroke="#191919" stroke-width="0.343756" stroke-linecap="round" stroke-linejoin="round"/>
<path d="M29.1641 9.47921V7.1875" stroke="#191919" stroke-width="0.343756" stroke-linecap="round" stroke-linejoin="round"/>
<path d="M52.1118 3.86728C52.4807 3.86685 52.8344 3.72012 53.0952 3.45927C53.3561 3.19843 53.5028 2.84478 53.5032 2.47589V1.99441C52.5831 2.16774 51.6381 2.16102 50.7205 1.97461V2.47589C50.7209 2.84478 50.8676 3.19843 51.1285 3.45927C51.3893 3.72012 51.743 3.86685 52.1118 3.86728Z" fill="#FAFAFA"/>
<path d="M57.8118 6.6215L56.6708 4.22326C56.4556 3.77433 56.0765 3.42501 55.6115 3.24723L54.7408 2.91535C54.3963 2.8135 54.1448 2.40876 53.9427 2.13281V2.41019C53.951 2.66603 53.9058 2.92078 53.8101 3.15818C53.7143 3.39558 53.5702 3.61042 53.3868 3.78898C53.2034 3.96755 52.9848 4.10592 52.7449 4.19527C52.505 4.28462 52.2491 4.32299 51.9936 4.30792C51.7381 4.29285 51.4885 4.22467 51.2608 4.10775C51.0331 3.99082 50.8323 3.82772 50.6711 3.62883C50.51 3.42994 50.3921 3.19965 50.3249 2.95265C50.2578 2.70564 50.2428 2.44735 50.2811 2.19425C50.1305 2.48374 49.8843 2.7121 49.5843 2.84045L48.7687 3.13293C48.3005 3.29852 47.9146 3.63876 47.6916 4.08243L46.4121 6.6215C46.3943 6.66 46.3924 6.70395 46.4068 6.74383C46.4212 6.78371 46.4507 6.81632 46.489 6.83458L48.1933 7.60957C48.2253 7.62418 48.2603 7.63089 48.2955 7.62913C48.3306 7.62738 48.3648 7.61722 48.3952 7.5995C48.4256 7.58178 48.4513 7.55702 48.4702 7.52731C48.489 7.49759 48.5005 7.46379 48.5035 7.42873L48.5662 6.71437C48.5727 6.65706 48.6014 6.60457 48.646 6.56808C48.6907 6.53159 48.7479 6.51399 48.8053 6.51902C48.8628 6.52405 48.916 6.55131 48.9536 6.59501C48.9913 6.6387 49.0104 6.69537 49.0068 6.75294L48.4762 12.7851C48.476 12.8279 48.4845 12.8703 48.5014 12.9097C48.5182 12.9491 48.5429 12.9847 48.574 13.0141C48.6051 13.0436 48.642 13.0663 48.6822 13.081C48.7225 13.0957 48.7653 13.1019 48.8081 13.0994H55.4333C55.4763 13.1019 55.5193 13.0956 55.5597 13.0808C55.6001 13.066 55.637 13.0431 55.6682 13.0133C55.6993 12.9836 55.724 12.9479 55.7407 12.9082C55.7574 12.8685 55.7657 12.8259 55.7652 12.7828C55.6713 11.7762 55.2827 7.67101 55.1965 6.75417C55.1924 6.69679 55.2109 6.64008 55.2481 6.59618C55.2852 6.55227 55.3381 6.52467 55.3954 6.51928C55.4527 6.51389 55.5098 6.53114 55.5545 6.56734C55.5992 6.60353 55.6279 6.6558 55.6346 6.71294L55.7013 7.41996C55.7046 7.4547 55.7161 7.48815 55.7349 7.51756C55.7537 7.54697 55.7792 7.57148 55.8093 7.58908C55.8395 7.60667 55.8734 7.61683 55.9082 7.61873C55.943 7.62062 55.9778 7.6142 56.0097 7.59998L57.7348 6.8303C57.7725 6.81252 57.8017 6.78065 57.8161 6.74155C57.8305 6.70245 57.8289 6.65946 57.8118 6.6215ZM51.6941 10.8483C51.6924 10.9054 51.6684 10.9596 51.6274 10.9994C51.5864 11.0392 51.5315 11.0614 51.4744 11.0614C51.4172 11.0614 51.3623 11.0392 51.3213 10.9994C51.2803 10.9596 51.2564 10.9054 51.2547 10.8483V8.63275L51.0414 8.7646C50.9919 8.79389 50.9328 8.80258 50.877 8.7888C50.8211 8.77502 50.7729 8.73987 50.7427 8.69091C50.7125 8.64196 50.7027 8.5831 50.7154 8.52699C50.7281 8.47089 50.7624 8.42202 50.8107 8.39089L51.3579 8.05003C51.3914 8.03014 51.4295 8.01938 51.4685 8.01882C51.5074 8.01826 51.5458 8.02792 51.5799 8.04684C51.6139 8.06576 51.6424 8.09328 51.6625 8.12664C51.6825 8.16001 51.6935 8.19806 51.6943 8.23699L51.6941 10.8483ZM53.2747 10.8483C53.2747 10.9066 53.2515 10.9625 53.2103 11.0038C53.1691 11.045 53.1132 11.0681 53.0549 11.0681C52.9966 11.0681 52.9407 11.045 52.8994 11.0038C52.8582 10.9625 52.835 10.9066 52.835 10.8483V8.63275L52.622 8.7646C52.5724 8.79522 52.5127 8.80489 52.456 8.79149C52.3993 8.77809 52.3503 8.74273 52.3197 8.69317C52.2891 8.64361 52.2794 8.58392 52.2928 8.52723C52.3062 8.47054 52.3416 8.4215 52.3911 8.39089L52.9383 8.05003C52.9718 8.03014 53.0099 8.01938 53.0489 8.01882C53.0878 8.01826 53.1262 8.02792 53.1602 8.04684C53.1943 8.06576 53.2228 8.09328 53.2428 8.12664C53.2629 8.16001 53.2739 8.19806 53.2747 8.23699V10.8483Z" fill="#FAFAFA"/>
<path d="M51.6941 10.8483C51.6924 10.9054 51.6684 10.9596 51.6274 10.9994C51.5864 11.0392 51.5315 11.0614 51.4744 11.0614C51.4172 11.0614 51.3623 11.0392 51.3213 10.9994C51.2803 10.9596 51.2564 10.9054 51.2547 10.8483V8.63275L51.0414 8.7646C50.9919 8.79389 50.9328 8.80258 50.877 8.7888C50.8211 8.77502 50.7729 8.73987 50.7427 8.69091C50.7125 8.64196 50.7027 8.5831 50.7154 8.52699C50.7281 8.47089 50.7624 8.42202 50.8107 8.39089L51.3579 8.05003C51.3914 8.03014 51.4295 8.01938 51.4685 8.01882C51.5074 8.01826 51.5458 8.02792 51.5799 8.04684C51.6139 8.06576 51.6424 8.09328 51.6625 8.12664C51.6825 8.16001 51.6935 8.19806 51.6943 8.23699L51.6941 10.8483Z" fill="#FAFAFA"/>
<path d="M53.2747 10.8483C53.2747 10.9066 53.2515 10.9625 53.2103 11.0038C53.1691 11.045 53.1132 11.0681 53.0549 11.0681C52.9966 11.0681 52.9407 11.045 52.8994 11.0038C52.8582 10.9625 52.835 10.9066 52.835 10.8483V8.63275L52.622 8.7646C52.5724 8.79522 52.5127 8.80489 52.456 8.79149C52.3993 8.77809 52.3503 8.74273 52.3197 8.69317C52.2891 8.64361 52.2794 8.58392 52.2928 8.52723C52.3062 8.47054 52.3416 8.4215 52.3911 8.39089L52.9383 8.05003C52.9718 8.03014 53.0099 8.01938 53.0489 8.01882C53.0878 8.01826 53.1262 8.02792 53.1602 8.04684C53.1943 8.06576 53.2228 8.09328 53.2428 8.12664C53.2629 8.16001 53.2739 8.19806 53.2747 8.23699V10.8483Z" fill="#FAFAFA"/>
<path d="M51.0808 8.33203H53.3725" stroke="#191919" stroke-width="0.343756" stroke-linecap="round" stroke-linejoin="round"/>
<path d="M52.2268 9.47921V7.1875" stroke="#191919" stroke-width="0.343756" stroke-linecap="round" stroke-linejoin="round"/>
<path d="M22.951 25.8673C23.3198 25.8668 23.6735 25.7201 23.9343 25.4593C24.1952 25.1984 24.3419 24.8448 24.3423 24.4759V23.9944C23.4222 24.1677 22.4772 24.161 21.5596 23.9746V24.4759C21.56 24.8448 21.7067 25.1984 21.9676 25.4593C22.2284 25.7201 22.5821 25.8668 22.951 25.8673Z" fill="#FAFAFA"/>
<path d="M28.6509 28.6215L27.5099 26.2233C27.2947 25.7743 26.9156 25.425 26.4506 25.2472L25.5799 24.9154C25.2354 24.8135 24.9839 24.4088 24.7818 24.1328V24.4102C24.7901 24.666 24.7449 24.9208 24.6492 25.1582C24.5534 25.3956 24.4093 25.6104 24.2259 25.789C24.0425 25.9675 23.8239 26.1059 23.584 26.1953C23.3441 26.2846 23.0883 26.323 22.8327 26.3079C22.5772 26.2928 22.3276 26.2247 22.0999 26.1077C21.8722 25.9908 21.6714 25.8277 21.5102 25.6288C21.3491 25.4299 21.2312 25.1997 21.164 24.9526C21.0969 24.7056 21.0819 24.4473 21.1202 24.1942C20.9696 24.4837 20.7234 24.7121 20.4234 24.8404L19.6078 25.1329C19.1396 25.2985 18.7537 25.6388 18.5307 26.0824L17.2512 28.6215C17.2334 28.66 17.2315 28.7039 17.2459 28.7438C17.2603 28.7837 17.2898 28.8163 17.3281 28.8346L19.0324 29.6096C19.0644 29.6242 19.0995 29.6309 19.1346 29.6291C19.1697 29.6274 19.204 29.6172 19.2343 29.5995C19.2647 29.5818 19.2905 29.557 19.3093 29.5273C19.3281 29.4976 19.3396 29.4638 19.3426 29.4287L19.4053 28.7144C19.4118 28.6571 19.4405 28.6046 19.4851 28.5681C19.5298 28.5316 19.587 28.514 19.6444 28.519C19.7019 28.524 19.7551 28.5513 19.7927 28.595C19.8304 28.6387 19.8495 28.6954 19.846 28.7529L19.3153 34.7851C19.3151 34.8279 19.3236 34.8703 19.3405 34.9097C19.3573 34.9491 19.382 34.9847 19.4131 35.0141C19.4442 35.0436 19.4811 35.0663 19.5213 35.081C19.5616 35.0957 19.6044 35.1019 19.6472 35.0994H26.2724C26.3154 35.1019 26.3584 35.0956 26.3988 35.0808C26.4392 35.066 26.4761 35.0431 26.5073 35.0133C26.5384 34.9836 26.5631 34.9479 26.5798 34.9082C26.5965 34.8685 26.6048 34.8259 26.6043 34.7828C26.5104 33.7762 26.1218 29.671 26.0357 28.7542C26.0315 28.6968 26.05 28.6401 26.0872 28.5962C26.1243 28.5523 26.1772 28.5247 26.2345 28.5193C26.2918 28.5139 26.3489 28.5311 26.3936 28.5673C26.4383 28.6035 26.467 28.6558 26.4737 28.7129L26.5404 29.42C26.5437 29.4547 26.5552 29.4882 26.574 29.5176C26.5928 29.547 26.6183 29.5715 26.6484 29.5891C26.6786 29.6067 26.7125 29.6168 26.7473 29.6187C26.7822 29.6206 26.8169 29.6142 26.8488 29.6L28.5739 28.8303C28.6116 28.8125 28.6408 28.7806 28.6552 28.7415C28.6696 28.7024 28.668 28.6595 28.6509 28.6215ZM22.5332 32.8483C22.5315 32.9054 22.5076 32.9596 22.4665 32.9994C22.4255 33.0392 22.3706 33.0614 22.3135 33.0614C22.2564 33.0614 22.2015 33.0392 22.1604 32.9994C22.1194 32.9596 22.0955 32.9054 22.0938 32.8483V30.6328L21.8805 30.7646C21.831 30.7939 21.7719 30.8026 21.7161 30.7888C21.6602 30.775 21.612 30.7399 21.5818 30.6909C21.5516 30.642 21.5418 30.5831 21.5545 30.527C21.5672 30.4709 21.6015 30.422 21.6498 30.3909L22.1971 30.05C22.2305 30.0301 22.2686 30.0194 22.3076 30.0188C22.3465 30.0183 22.3849 30.0279 22.419 30.0468C22.453 30.0658 22.4815 30.0933 22.5016 30.1266C22.5217 30.16 22.5326 30.1981 22.5334 30.237L22.5332 32.8483ZM24.1138 32.8483C24.1138 32.9066 24.0906 32.9625 24.0494 33.0038C24.0082 33.045 23.9523 33.0681 23.894 33.0681C23.8357 33.0681 23.7798 33.045 23.7385 33.0038C23.6973 32.9625 23.6742 32.9066 23.6742 32.8483V30.6328L23.4611 30.7646C23.4115 30.7952 23.3518 30.8049 23.2951 30.7915C23.2385 30.7781 23.1894 30.7427 23.1588 30.6932C23.1282 30.6436 23.1185 30.5839 23.1319 30.5272C23.1453 30.4705 23.1807 30.4215 23.2302 30.3909L23.7774 30.05C23.8109 30.0301 23.849 30.0194 23.888 30.0188C23.9269 30.0183 23.9653 30.0279 23.9994 30.0468C24.0334 30.0658 24.0619 30.0933 24.082 30.1266C24.102 30.16 24.113 30.1981 24.1138 30.237V32.8483Z" fill="#FAFAFA"/>
<path d="M22.5332 32.8483C22.5315 32.9054 22.5076 32.9596 22.4665 32.9994C22.4255 33.0392 22.3706 33.0614 22.3135 33.0614C22.2564 33.0614 22.2015 33.0392 22.1604 32.9994C22.1194 32.9596 22.0955 32.9054 22.0938 32.8483V30.6328L21.8805 30.7646C21.831 30.7939 21.7719 30.8026 21.7161 30.7888C21.6602 30.775 21.612 30.7399 21.5818 30.6909C21.5516 30.642 21.5418 30.5831 21.5545 30.527C21.5672 30.4709 21.6015 30.422 21.6498 30.3909L22.1971 30.05C22.2305 30.0301 22.2686 30.0194 22.3076 30.0188C22.3465 30.0183 22.3849 30.0279 22.419 30.0468C22.453 30.0658 22.4815 30.0933 22.5016 30.1266C22.5217 30.16 22.5326 30.1981 22.5334 30.237L22.5332 32.8483Z" fill="#FAFAFA"/>
<path d="M24.1138 32.8483C24.1138 32.9066 24.0906 32.9625 24.0494 33.0038C24.0082 33.045 23.9523 33.0681 23.894 33.0681C23.8357 33.0681 23.7798 33.045 23.7385 33.0038C23.6973 32.9625 23.6742 32.9066 23.6742 32.8483V30.6328L23.4611 30.7646C23.4115 30.7952 23.3518 30.8049 23.2951 30.7915C23.2385 30.7781 23.1894 30.7427 23.1588 30.6932C23.1282 30.6436 23.1185 30.5839 23.1319 30.5272C23.1453 30.4705 23.1807 30.4215 23.2302 30.3909L23.7774 30.05C23.8109 30.0301 23.849 30.0194 23.888 30.0188C23.9269 30.0183 23.9653 30.0279 23.9994 30.0468C24.0334 30.0658 24.0619 30.0933 24.082 30.1266C24.102 30.16 24.113 30.1981 24.1138 30.237V32.8483Z" fill="#FAFAFA"/>
<path d="M21.9199 30.332H24.2116" stroke="#191919" stroke-width="0.343756" stroke-linecap="round" stroke-linejoin="round"/>
<path d="M23.0659 31.4792V29.1875" stroke="#191919" stroke-width="0.343756" stroke-linecap="round" stroke-linejoin="round"/>
<path d="M59.0764 25.8673C59.4453 25.8668 59.799 25.7201 60.0598 25.4593C60.3207 25.1984 60.4674 24.8448 60.4678 24.4759V23.9944C59.5477 24.1677 58.6026 24.161 57.6851 23.9746V24.4759C57.6855 24.8448 57.8322 25.1984 58.0931 25.4593C58.3539 25.7201 58.7076 25.8668 59.0764 25.8673Z" fill="#FAFAFA"/>
<path d="M64.7764 28.6215L63.6354 26.2233C63.4202 25.7743 63.0411 25.425 62.5761 25.2472L61.7054 24.9154C61.3609 24.8135 61.1094 24.4088 60.9073 24.1328V24.4102C60.9156 24.666 60.8704 24.9208 60.7747 25.1582C60.6789 25.3956 60.5348 25.6104 60.3514 25.789C60.168 25.9675 59.9494 26.1059 59.7095 26.1953C59.4696 26.2846 59.2137 26.323 58.9582 26.3079C58.7027 26.2928 58.4531 26.2247 58.2254 26.1077C57.9977 25.9908 57.7969 25.8277 57.6357 25.6288C57.4746 25.4299 57.3567 25.1997 57.2895 24.9526C57.2224 24.7056 57.2074 24.4473 57.2457 24.1942C57.0951 24.4837 56.8489 24.7121 56.5489 24.8404L55.7333 25.1329C55.2651 25.2985 54.8792 25.6388 54.6562 26.0824L53.3767 28.6215C53.3589 28.66 53.357 28.7039 53.3714 28.7438C53.3858 28.7837 53.4153 28.8163 53.4536 28.8346L55.1579 29.6096C55.1899 29.6242 55.2249 29.6309 55.2601 29.6291C55.2952 29.6274 55.3294 29.6172 55.3598 29.5995C55.3902 29.5818 55.4159 29.557 55.4348 29.5273C55.4536 29.4976 55.4651 29.4638 55.4681 29.4287L55.5308 28.7144C55.5373 28.6571 55.566 28.6046 55.6106 28.5681C55.6553 28.5316 55.7124 28.514 55.7699 28.519C55.8274 28.524 55.8806 28.5513 55.9182 28.595C55.9559 28.6387 55.975 28.6954 55.9714 28.7529L55.4408 34.7851C55.4406 34.8279 55.4491 34.8703 55.466 34.9097C55.4828 34.9491 55.5075 34.9847 55.5386 35.0141C55.5697 35.0436 55.6066 35.0663 55.6468 35.081C55.6871 35.0957 55.7299 35.1019 55.7726 35.0994H62.3979C62.4409 35.1019 62.4839 35.0956 62.5243 35.0808C62.5647 35.066 62.6016 35.0431 62.6328 35.0133C62.6639 34.9836 62.6886 34.9479 62.7053 34.9082C62.722 34.8685 62.7303 34.8259 62.7298 34.7828C62.6359 33.7762 62.2473 29.671 62.1611 28.7542C62.157 28.6968 62.1755 28.6401 62.2127 28.5962C62.2498 28.5523 62.3027 28.5247 62.36 28.5193C62.4173 28.5139 62.4744 28.5311 62.5191 28.5673C62.5638 28.6035 62.5925 28.6558 62.5992 28.7129L62.6659 29.42C62.6692 29.4547 62.6807 29.4882 62.6995 29.5176C62.7183 29.547 62.7438 29.5715 62.7739 29.5891C62.8041 29.6067 62.838 29.6168 62.8728 29.6187C62.9076 29.6206 62.9424 29.6142 62.9743 29.6L64.6994 28.8303C64.7371 28.8125 64.7663 28.7806 64.7807 28.7415C64.7951 28.7024 64.7935 28.6595 64.7764 28.6215ZM58.6587 32.8483C58.657 32.9054 58.633 32.9596 58.592 32.9994C58.551 33.0392 58.4961 33.0614 58.439 33.0614C58.3818 33.0614 58.3269 33.0392 58.2859 32.9994C58.2449 32.9596 58.221 32.9054 58.2193 32.8483V30.6328L58.006 30.7646C57.9565 30.7939 57.8974 30.8026 57.8416 30.7888C57.7857 30.775 57.7375 30.7399 57.7073 30.6909C57.6771 30.642 57.6673 30.5831 57.68 30.527C57.6927 30.4709 57.727 30.422 57.7753 30.3909L58.3225 30.05C58.356 30.0301 58.3941 30.0194 58.4331 30.0188C58.472 30.0183 58.5104 30.0279 58.5445 30.0468C58.5785 30.0658 58.607 30.0933 58.6271 30.1266C58.6471 30.16 58.6581 30.1981 58.6589 30.237L58.6587 32.8483ZM60.2393 32.8483C60.2393 32.9066 60.2161 32.9625 60.1749 33.0038C60.1337 33.045 60.0778 33.0681 60.0195 33.0681C59.9612 33.0681 59.9053 33.045 59.864 33.0038C59.8228 32.9625 59.7996 32.9066 59.7996 32.8483V30.6328L59.5866 30.7646C59.537 30.7952 59.4773 30.8049 59.4206 30.7915C59.3639 30.7781 59.3149 30.7427 59.2843 30.6932C59.2537 30.6436 59.244 30.5839 59.2574 30.5272C59.2708 30.4705 59.3062 30.4215 59.3557 30.3909L59.9029 30.05C59.9364 30.0301 59.9745 30.0194 60.0135 30.0188C60.0524 30.0183 60.0908 30.0279 60.1248 30.0468C60.1589 30.0658 60.1874 30.0933 60.2074 30.1266C60.2275 30.16 60.2385 30.1981 60.2393 30.237V32.8483Z" fill="#FAFAFA"/>
<path d="M58.6587 32.8483C58.657 32.9054 58.633 32.9596 58.592 32.9994C58.551 33.0392 58.4961 33.0614 58.439 33.0614C58.3818 33.0614 58.3269 33.0392 58.2859 32.9994C58.2449 32.9596 58.221 32.9054 58.2193 32.8483V30.6328L58.006 30.7646C57.9565 30.7939 57.8974 30.8026 57.8416 30.7888C57.7857 30.775 57.7375 30.7399 57.7073 30.6909C57.6771 30.642 57.6673 30.5831 57.68 30.527C57.6927 30.4709 57.727 30.422 57.7753 30.3909L58.3225 30.05C58.356 30.0301 58.3941 30.0194 58.4331 30.0188C58.472 30.0183 58.5104 30.0279 58.5445 30.0468C58.5785 30.0658 58.607 30.0933 58.6271 30.1266C58.6471 30.16 58.6581 30.1981 58.6589 30.237L58.6587 32.8483Z" fill="#FAFAFA"/>
<path d="M60.2393 32.8483C60.2393 32.9066 60.2161 32.9625 60.1749 33.0038C60.1337 33.045 60.0778 33.0681 60.0195 33.0681C59.9612 33.0681 59.9053 33.045 59.864 33.0038C59.8228 32.9625 59.7996 32.9066 59.7996 32.8483V30.6328L59.5866 30.7646C59.537 30.7952 59.4773 30.8049 59.4206 30.7915C59.3639 30.7781 59.3149 30.7427 59.2843 30.6932C59.2537 30.6436 59.244 30.5839 59.2574 30.5272C59.2708 30.4705 59.3062 30.4215 59.3557 30.3909L59.9029 30.05C59.9364 30.0301 59.9745 30.0194 60.0135 30.0188C60.0524 30.0183 60.0908 30.0279 60.1248 30.0468C60.1589 30.0658 60.1874 30.0933 60.2074 30.1266C60.2275 30.16 60.2385 30.1981 60.2393 30.237V32.8483Z" fill="#FAFAFA"/>
<path d="M58.0454 30.332H60.3371" stroke="#191919" stroke-width="0.343756" stroke-linecap="round" stroke-linejoin="round"/>
<path d="M59.1914 31.4792V29.1875" stroke="#191919" stroke-width="0.343756" stroke-linecap="round" stroke-linejoin="round"/>
<path d="M41.0137 28.8692C41.3826 28.8688 41.7362 28.7221 41.9971 28.4612C42.2579 28.2004 42.4047 27.8467 42.4051 27.4778V26.9964C41.4849 27.1697 40.5399 27.163 39.6223 26.9766V27.4778C39.6227 27.8467 39.7695 28.2004 40.0303 28.4612C40.2912 28.7221 40.6448 28.8688 41.0137 28.8692Z" fill="#FAFAFA"/>
<path d="M46.7136 31.6235L45.5727 29.2252C45.3575 28.7763 44.9784 28.427 44.5133 28.2492L43.6426 27.9173C43.2981 27.8155 43.0466 27.4107 42.8446 27.1348V27.4121C42.8528 27.668 42.8076 27.9227 42.7119 28.1601C42.6162 28.3975 42.472 28.6124 42.2886 28.7909C42.1052 28.9695 41.8866 29.1079 41.6467 29.1972C41.4069 29.2866 41.151 29.3249 40.8955 29.3099C40.6399 29.2948 40.3904 29.2266 40.1627 29.1097C39.935 28.9928 39.7341 28.8297 39.573 28.6308C39.4118 28.4319 39.2939 28.2016 39.2268 27.9546C39.1596 27.7076 39.1447 27.4493 39.1829 27.1962C39.0324 27.4857 38.7861 27.7141 38.4861 27.8424L37.6705 28.1349C37.2024 28.3005 36.8164 28.6407 36.5934 29.0844L35.3139 31.6235C35.2961 31.662 35.2943 31.7059 35.3087 31.7458C35.3231 31.7857 35.3526 31.8183 35.3909 31.8365L37.0951 32.6115C37.1272 32.6261 37.1622 32.6328 37.1973 32.6311C37.2325 32.6293 37.2667 32.6192 37.2971 32.6015C37.3275 32.5837 37.3532 32.559 37.372 32.5293C37.3909 32.4995 37.4023 32.4657 37.4054 32.4307L37.468 31.7163C37.4746 31.659 37.5032 31.6065 37.5479 31.57C37.5926 31.5335 37.6497 31.5159 37.7072 31.521C37.7646 31.526 37.8178 31.5533 37.8555 31.597C37.8931 31.6407 37.9122 31.6973 37.9087 31.7549L37.378 37.787C37.3778 37.8299 37.3864 37.8723 37.4032 37.9117C37.4201 37.9511 37.4448 37.9866 37.4759 38.0161C37.507 38.0455 37.5438 38.0683 37.5841 38.083C37.6243 38.0976 37.6671 38.1039 37.7099 38.1013H44.3352C44.3781 38.1039 44.4211 38.0976 44.4615 38.0828C44.502 38.068 44.5389 38.045 44.57 38.0153C44.6011 37.9856 44.6258 37.9498 44.6425 37.9101C44.6592 37.8705 44.6676 37.8278 44.667 37.7848C44.5732 36.7781 44.1845 32.673 44.0984 31.7561C44.0943 31.6987 44.1128 31.642 44.1499 31.5981C44.1871 31.5542 44.24 31.5266 44.2972 31.5212C44.3545 31.5158 44.4116 31.5331 44.4563 31.5693C44.501 31.6055 44.5298 31.6578 44.5364 31.7149L44.6032 32.4219C44.6064 32.4567 44.618 32.4901 44.6367 32.5195C44.6555 32.5489 44.681 32.5734 44.7112 32.591C44.7413 32.6086 44.7752 32.6188 44.8101 32.6207C44.8449 32.6226 44.8797 32.6161 44.9116 32.6019L46.6367 31.8323C46.6743 31.8145 46.7035 31.7826 46.7179 31.7435C46.7323 31.7044 46.7308 31.6614 46.7136 31.6235ZM40.596 35.8503C40.5942 35.9074 40.5703 35.9616 40.5293 36.0014C40.4883 36.0411 40.4334 36.0634 40.3762 36.0634C40.3191 36.0634 40.2642 36.0411 40.2232 36.0014C40.1822 35.9616 40.1583 35.9074 40.1565 35.8503V33.6347L39.9432 33.7666C39.8937 33.7958 39.8347 33.8045 39.7788 33.7908C39.723 33.777 39.6747 33.7418 39.6445 33.6929C39.6143 33.6439 39.6045 33.5851 39.6173 33.5289C39.63 33.4728 39.6642 33.424 39.7126 33.3928L40.2598 33.052C40.2933 33.0321 40.3314 33.0213 40.3703 33.0208C40.4093 33.0202 40.4477 33.0299 40.4817 33.0488C40.5157 33.0677 40.5442 33.0952 40.5643 33.1286C40.5844 33.162 40.5954 33.2 40.5962 33.2389L40.596 35.8503ZM42.1765 35.8503C42.1765 35.9086 42.1534 35.9645 42.1122 36.0057C42.0709 36.0469 42.015 36.0701 41.9567 36.0701C41.8984 36.0701 41.8425 36.0469 41.8013 36.0057C41.7601 35.9645 41.7369 35.9086 41.7369 35.8503V33.6347L41.5238 33.7666C41.4743 33.7972 41.4146 33.8068 41.3579 33.7934C41.3012 33.78 41.2522 33.7447 41.2215 33.6951C41.1909 33.6456 41.1813 33.5859 41.1947 33.5292C41.2081 33.4725 41.2434 33.4235 41.293 33.3928L41.8402 33.052C41.8737 33.0321 41.9118 33.0213 41.9507 33.0208C41.9897 33.0202 42.0281 33.0299 42.0621 33.0488C42.0961 33.0677 42.1246 33.0952 42.1447 33.1286C42.1648 33.162 42.1758 33.2 42.1765 33.2389V35.8503Z" fill="#FAFAFA"/>
<path d="M40.596 35.8503C40.5942 35.9074 40.5703 35.9616 40.5293 36.0014C40.4883 36.0411 40.4334 36.0634 40.3762 36.0634C40.3191 36.0634 40.2642 36.0411 40.2232 36.0014C40.1822 35.9616 40.1583 35.9074 40.1565 35.8503V33.6347L39.9432 33.7666C39.8937 33.7958 39.8347 33.8045 39.7788 33.7908C39.723 33.777 39.6747 33.7418 39.6445 33.6929C39.6143 33.6439 39.6045 33.5851 39.6173 33.5289C39.63 33.4728 39.6642 33.424 39.7126 33.3928L40.2598 33.052C40.2933 33.0321 40.3314 33.0213 40.3703 33.0208C40.4093 33.0202 40.4477 33.0299 40.4817 33.0488C40.5157 33.0677 40.5442 33.0952 40.5643 33.1286C40.5844 33.162 40.5954 33.2 40.5962 33.2389L40.596 35.8503Z" fill="#FAFAFA"/>
<path d="M42.1765 35.8503C42.1765 35.9086 42.1534 35.9645 42.1122 36.0057C42.0709 36.0469 42.015 36.0701 41.9567 36.0701C41.8984 36.0701 41.8425 36.0469 41.8013 36.0057C41.7601 35.9645 41.7369 35.9086 41.7369 35.8503V33.6347L41.5238 33.7666C41.4743 33.7972 41.4146 33.8068 41.3579 33.7934C41.3012 33.78 41.2522 33.7447 41.2215 33.6951C41.1909 33.6456 41.1813 33.5859 41.1947 33.5292C41.2081 33.4725 41.2434 33.4235 41.293 33.3928L41.8402 33.052C41.8737 33.0321 41.9118 33.0213 41.9507 33.0208C41.9897 33.0202 42.0281 33.0299 42.0621 33.0488C42.0961 33.0677 42.1246 33.0952 42.1447 33.1286C42.1648 33.162 42.1758 33.2 42.1765 33.2389V35.8503Z" fill="#FAFAFA"/>
<path d="M39.9827 33.334H42.2744" stroke="#191919" stroke-width="0.343756" stroke-linecap="round" stroke-linejoin="round"/>
<path d="M41.1287 34.4812V32.1895" stroke="#191919" stroke-width="0.343756" stroke-linecap="round" stroke-linejoin="round"/>
</svg>
