<svg width="81" height="81" viewBox="0 0 81 81" fill="none" xmlns="http://www.w3.org/2000/svg">
<rect x="0.422691" y="0.118492" width="79.9807" height="79.9807" rx="5.88541" fill="#828284" stroke="#FAFAFA" stroke-width="0.229171"/>
<mask id="path-2-inside-1_8758_17876" fill="white">
<path d="M24.1418 66.4609H56.6841V80.2112H24.1418V66.4609Z"/>
</mask>
<path d="M24.1418 66.4609V66.2318H23.9127V66.4609H24.1418ZM56.6841 66.4609H56.9133V66.2318H56.6841V66.4609ZM24.1418 66.6901H56.6841V66.2318H24.1418V66.6901ZM56.455 66.4609V80.2112H56.9133V66.4609H56.455ZM24.371 80.2112V66.4609H23.9127V80.2112H24.371Z" fill="#FAFAFA" mask="url(#path-2-inside-1_8758_17876)"/>
<mask id="path-4-inside-2_8758_17876" fill="white">
<path d="M12.9126 55.0039H67.9136V80.2127H12.9126V55.0039Z"/>
</mask>
<path d="M12.9126 55.0039V54.7747H12.6834V55.0039H12.9126ZM67.9136 55.0039H68.1428V54.7747H67.9136V55.0039ZM12.9126 55.2331H67.9136V54.7747H12.9126V55.2331ZM67.6845 55.0039V80.2127H68.1428V55.0039H67.6845ZM13.1418 80.2127V55.0039H12.6834V80.2127H13.1418Z" fill="#FAFAFA" mask="url(#path-4-inside-2_8758_17876)"/>
<path d="M54.6216 9.53674e-07C54.6216 1.65523 54.2363 3.29426 53.4877 4.8235C52.7391 6.35273 51.6418 7.74223 50.2586 8.91266C48.8754 10.0831 47.2332 11.0115 45.426 11.645C43.6187 12.2784 41.6816 12.6044 39.7255 12.6044C37.7693 12.6044 35.8322 12.2784 34.025 11.645C32.2177 11.0115 30.5755 10.0831 29.1923 8.91266C27.8091 7.74223 26.7118 6.35273 25.9632 4.8235C25.2146 3.29426 24.8293 1.65523 24.8293 0" stroke="#FAFAFA" stroke-width="0.229171"/>
<path d="M30.8853 55.3516C31.4036 54.5174 32.1632 53.7595 33.1208 53.1211C34.0784 52.4827 35.2153 51.9763 36.4665 51.6308C37.7177 51.2853 39.0587 51.1074 40.413 51.1074C41.7673 51.1074 43.1083 51.2853 44.3595 51.6308C45.6107 51.9763 46.7475 52.4827 47.7052 53.1211C48.6628 53.7595 49.4224 54.5174 49.9407 55.3516" stroke="#FAFAFA" stroke-width="0.229171"/>
<path d="M0.537109 76.5479C1.65364 76.4958 3.85757 77.1099 3.74106 79.9825" stroke="#FAFAFA" stroke-width="0.229171"/>
<path d="M80.2886 76.5479C79.172 76.4958 76.9681 77.1099 77.0846 79.9825" stroke="#FAFAFA" stroke-width="0.229171"/>
<path d="M40.5271 69.4356C40.896 69.4352 41.2497 69.2885 41.5105 69.0276C41.7714 68.7668 41.9181 68.4131 41.9185 68.0443V67.5628C40.9984 67.7361 40.0533 67.7294 39.1357 67.543V68.0443C39.1362 68.4131 39.2829 68.7668 39.5437 69.0276C39.8046 69.2885 40.1582 69.4352 40.5271 69.4356Z" fill="#FAFAFA"/>
<path d="M46.227 72.1899L45.0861 69.7916C44.8709 69.3427 44.4918 68.9934 44.0268 68.8156L43.1561 68.4837C42.8115 68.3819 42.5601 67.9771 42.358 67.7012V67.9786C42.3663 68.2344 42.3211 68.4891 42.2253 68.7265C42.1296 68.9639 41.9855 69.1788 41.8021 69.3573C41.6187 69.5359 41.4 69.6743 41.1602 69.7636C40.9203 69.853 40.6644 69.8913 40.4089 69.8763C40.1534 69.8612 39.9038 69.793 39.6761 69.6761C39.4484 69.5592 39.2475 69.3961 39.0864 69.1972C38.9253 68.9983 38.8074 68.768 38.7402 68.521C38.673 68.274 38.6581 68.0157 38.6964 67.7626C38.5458 68.0521 38.2996 68.2805 37.9995 68.4088L37.1839 68.7013C36.7158 68.8669 36.3299 69.2071 36.1069 69.6508L34.8273 72.1899C34.8096 72.2284 34.8077 72.2723 34.8221 72.3122C34.8365 72.3521 34.866 72.3847 34.9043 72.4029L36.6086 73.1779C36.6406 73.1925 36.6756 73.1992 36.7108 73.1975C36.7459 73.1957 36.7801 73.1856 36.8105 73.1679C36.8409 73.1501 36.8666 73.1254 36.8855 73.0957C36.9043 73.066 36.9157 73.0321 36.9188 72.9971L36.9815 72.2827C36.988 72.2254 37.0167 72.1729 37.0613 72.1364C37.106 72.1 37.1631 72.0823 37.2206 72.0874C37.278 72.0924 37.3313 72.1197 37.3689 72.1634C37.4066 72.2071 37.4257 72.2637 37.4221 72.3213L36.8915 78.3534C36.8912 78.3963 36.8998 78.4387 36.9166 78.4781C36.9335 78.5175 36.9582 78.553 36.9893 78.5825C37.0204 78.6119 37.0572 78.6347 37.0975 78.6494C37.1377 78.664 37.1806 78.6703 37.2233 78.6678H43.8486C43.8915 78.6703 43.9346 78.664 43.975 78.6492C44.0154 78.6344 44.0523 78.6114 44.0834 78.5817C44.1146 78.552 44.1393 78.5162 44.156 78.4766C44.1726 78.4369 44.181 78.3942 44.1805 78.3512C44.0866 77.3445 43.698 73.2394 43.6118 72.3225C43.6077 72.2652 43.6262 72.2084 43.6634 72.1645C43.7005 72.1206 43.7534 72.093 43.8107 72.0876C43.8679 72.0822 43.925 72.0995 43.9697 72.1357C44.0145 72.1719 44.0432 72.2242 44.0498 72.2813L44.1166 72.9883C44.1199 73.0231 44.1314 73.0565 44.1502 73.0859C44.169 73.1153 44.1945 73.1398 44.2246 73.1574C44.2547 73.175 44.2886 73.1852 44.3235 73.1871C44.3583 73.189 44.3931 73.1826 44.425 73.1683L46.1501 72.3987C46.1878 72.3809 46.217 72.349 46.2313 72.3099C46.2457 72.2708 46.2442 72.2278 46.227 72.1899ZM40.1094 76.4167C40.1076 76.4738 40.0837 76.528 40.0427 76.5678C40.0017 76.6076 39.9468 76.6298 39.8897 76.6298C39.8325 76.6298 39.7776 76.6076 39.7366 76.5678C39.6956 76.528 39.6717 76.4738 39.6699 76.4167V74.2011L39.4567 74.333C39.4071 74.3623 39.3481 74.3709 39.2923 74.3572C39.2364 74.3434 39.1882 74.3082 39.158 74.2593C39.1277 74.2103 39.118 74.1515 39.1307 74.0954C39.1434 74.0392 39.1776 73.9904 39.226 73.9592L39.7732 73.6184C39.8067 73.5985 39.8448 73.5877 39.8838 73.5872C39.9227 73.5866 39.9611 73.5963 39.9951 73.6152C40.0292 73.6341 40.0577 73.6616 40.0777 73.695C40.0978 73.7284 40.1088 73.7664 40.1096 73.8054L40.1094 76.4167ZM41.69 76.4167C41.69 76.475 41.6668 76.5309 41.6256 76.5721C41.5844 76.6133 41.5285 76.6365 41.4702 76.6365C41.4119 76.6365 41.3559 76.6133 41.3147 76.5721C41.2735 76.5309 41.2503 76.475 41.2503 76.4167V74.2011L41.0372 74.333C40.9877 74.3636 40.928 74.3732 40.8713 74.3598C40.8146 74.3465 40.7656 74.3111 40.735 74.2615C40.7044 74.212 40.6947 74.1523 40.7081 74.0956C40.7215 74.0389 40.7568 73.9899 40.8064 73.9592L41.3536 73.6184C41.3871 73.5985 41.4252 73.5877 41.4641 73.5872C41.5031 73.5866 41.5415 73.5963 41.5755 73.6152C41.6096 73.6341 41.638 73.6616 41.6581 73.695C41.6782 73.7284 41.6892 73.7664 41.69 73.8054V76.4167Z" fill="#FAFAFA"/>
<path d="M40.1094 76.4167C40.1076 76.4738 40.0837 76.528 40.0427 76.5678C40.0017 76.6076 39.9468 76.6298 39.8897 76.6298C39.8325 76.6298 39.7776 76.6076 39.7366 76.5678C39.6956 76.528 39.6717 76.4738 39.6699 76.4167V74.2011L39.4567 74.333C39.4071 74.3623 39.3481 74.3709 39.2923 74.3572C39.2364 74.3434 39.1882 74.3082 39.158 74.2593C39.1277 74.2103 39.118 74.1515 39.1307 74.0954C39.1434 74.0392 39.1776 73.9904 39.226 73.9592L39.7732 73.6184C39.8067 73.5985 39.8448 73.5877 39.8838 73.5872C39.9227 73.5866 39.9611 73.5963 39.9951 73.6152C40.0292 73.6341 40.0577 73.6616 40.0777 73.695C40.0978 73.7284 40.1088 73.7664 40.1096 73.8054L40.1094 76.4167Z" fill="#FAFAFA"/>
<path d="M41.69 76.4167C41.69 76.475 41.6668 76.5309 41.6256 76.5721C41.5844 76.6133 41.5285 76.6365 41.4702 76.6365C41.4119 76.6365 41.3559 76.6133 41.3147 76.5721C41.2735 76.5309 41.2503 76.475 41.2503 76.4167V74.2011L41.0372 74.333C40.9877 74.3636 40.928 74.3732 40.8713 74.3598C40.8146 74.3465 40.7656 74.3111 40.735 74.2615C40.7044 74.212 40.6947 74.1523 40.7081 74.0956C40.7215 74.0389 40.7568 73.9899 40.8064 73.9592L41.3536 73.6184C41.3871 73.5985 41.4252 73.5877 41.4641 73.5872C41.5031 73.5866 41.5415 73.5963 41.5755 73.6152C41.6096 73.6341 41.638 73.6616 41.6581 73.695C41.6782 73.7284 41.6892 73.7664 41.69 73.8054V76.4167Z" fill="#FAFAFA"/>
<path d="M39.4961 73.8965H41.7878" stroke="#191919" stroke-width="0.343756" stroke-linecap="round" stroke-linejoin="round"/>
<path d="M40.6421 75.0437V72.752" stroke="#191919" stroke-width="0.343756" stroke-linecap="round" stroke-linejoin="round"/>
<g clip-path="url(#clip0_8758_17876)">
<path d="M8.54764 45.8673C8.91652 45.8668 9.27018 45.7201 9.53102 45.4593C9.79186 45.1984 9.93859 44.8448 9.93902 44.4759V43.9944C9.01887 44.1677 8.07384 44.161 7.15625 43.9746V44.4759C7.15668 44.8448 7.30341 45.1984 7.56425 45.4593C7.8251 45.7201 8.17875 45.8668 8.54764 45.8673Z" fill="#FAFAFA"/>
<path d="M14.2475 48.6215L13.1066 46.2233C12.8914 45.7743 12.5123 45.425 12.0473 45.2472L11.1766 44.9154C10.832 44.8135 10.5806 44.4088 10.3785 44.1328V44.4102C10.3868 44.666 10.3416 44.9208 10.2458 45.1582C10.1501 45.3956 10.006 45.6104 9.82256 45.789C9.63916 45.9675 9.42055 46.1059 9.18068 46.1953C8.9408 46.2846 8.68494 46.323 8.42941 46.3079C8.17388 46.2928 7.9243 46.2247 7.69659 46.1077C7.46889 45.9908 7.26805 45.8277 7.10691 45.6288C6.94577 45.4299 6.82786 45.1997 6.7607 44.9526C6.69354 44.7056 6.67862 44.4473 6.71687 44.1942C6.56631 44.4837 6.32006 44.7121 6.02005 44.8404L5.20445 45.1329C4.73632 45.2985 4.35037 45.6388 4.12738 46.0824L2.84785 48.6215C2.83008 48.66 2.82819 48.7039 2.84259 48.7438C2.857 48.7837 2.88653 48.8163 2.9248 48.8346L4.62908 49.6096C4.66109 49.6242 4.69614 49.6309 4.73128 49.6291C4.76642 49.6274 4.80063 49.6172 4.83103 49.5995C4.86143 49.5818 4.88713 49.557 4.90597 49.5273C4.92482 49.4976 4.93625 49.4638 4.93932 49.4287L5.00198 48.7144C5.00851 48.6571 5.03716 48.6046 5.08183 48.5681C5.12649 48.5316 5.18364 48.514 5.2411 48.519C5.29855 48.524 5.35178 48.5513 5.38942 48.595C5.42707 48.6387 5.44616 48.6954 5.44264 48.7529L4.91197 54.7851C4.91175 54.8279 4.92032 54.8703 4.93716 54.9097C4.95399 54.9491 4.97872 54.9847 5.00982 55.0141C5.04093 55.0436 5.07774 55.0663 5.11799 55.081C5.15824 55.0957 5.20108 55.1019 5.24384 55.0994H11.8691C11.9121 55.1019 11.9551 55.0956 11.9955 55.0808C12.0359 55.066 12.0728 55.0431 12.1039 55.0133C12.1351 54.9836 12.1598 54.9479 12.1765 54.9082C12.1932 54.8685 12.2015 54.8259 12.201 54.7828C12.1071 53.7762 11.7185 49.671 11.6323 48.7542C11.6282 48.6968 11.6467 48.6401 11.6839 48.5962C11.721 48.5523 11.7739 48.5247 11.8312 48.5193C11.8884 48.5139 11.9455 48.5311 11.9903 48.5673C12.035 48.6035 12.0637 48.6558 12.0703 48.7129L12.1371 49.42C12.1404 49.4547 12.1519 49.4882 12.1707 49.5176C12.1895 49.547 12.215 49.5715 12.2451 49.5891C12.2753 49.6067 12.3091 49.6168 12.344 49.6187C12.3788 49.6206 12.4136 49.6142 12.4455 49.6L14.1706 48.8303C14.2083 48.8125 14.2375 48.7806 14.2519 48.7415C14.2662 48.7024 14.2647 48.6595 14.2475 48.6215ZM8.12989 52.8483C8.12815 52.9054 8.10424 52.9596 8.06322 52.9994C8.02221 53.0392 7.96731 53.0614 7.91017 53.0614C7.85303 53.0614 7.79814 53.0392 7.75712 52.9994C7.71611 52.9596 7.69219 52.9054 7.69045 52.8483V50.6328L7.47716 50.7646C7.42764 50.7939 7.36861 50.8026 7.31276 50.7888C7.2569 50.775 7.20869 50.7399 7.17847 50.6909C7.14826 50.642 7.13846 50.5831 7.15119 50.527C7.16391 50.4709 7.19814 50.422 7.24652 50.3909L7.79373 50.05C7.82721 50.0301 7.86532 50.0194 7.90426 50.0188C7.9432 50.0183 7.98161 50.0279 8.01564 50.0468C8.04968 50.0658 8.07816 50.0933 8.09825 50.1266C8.11833 50.16 8.12931 50.1981 8.1301 50.237L8.12989 52.8483ZM9.71048 52.8483C9.71048 52.9066 9.68732 52.9625 9.6461 53.0038C9.60487 53.045 9.54896 53.0681 9.49066 53.0681C9.43236 53.0681 9.37645 53.045 9.33522 53.0038C9.294 52.9625 9.27084 52.9066 9.27084 52.8483V50.6328L9.05775 50.7646C9.0082 50.7952 8.94851 50.8049 8.89182 50.7915C8.83513 50.7781 8.78609 50.7427 8.75548 50.6932C8.72486 50.6436 8.71519 50.5839 8.72859 50.5272C8.74199 50.4705 8.77735 50.4215 8.82691 50.3909L9.37412 50.05C9.4076 50.0301 9.44571 50.0194 9.48465 50.0188C9.52359 50.0183 9.56199 50.0279 9.59603 50.0468C9.63007 50.0658 9.65855 50.0933 9.67864 50.1266C9.69872 50.16 9.7097 50.1981 9.71048 50.237V52.8483Z" fill="#FAFAFA"/>
<path d="M8.12989 52.8483C8.12815 52.9054 8.10424 52.9596 8.06322 52.9994C8.02221 53.0392 7.96731 53.0614 7.91017 53.0614C7.85303 53.0614 7.79814 53.0392 7.75712 52.9994C7.71611 52.9596 7.69219 52.9054 7.69045 52.8483V50.6328L7.47716 50.7646C7.42764 50.7939 7.36861 50.8026 7.31276 50.7888C7.2569 50.775 7.20869 50.7399 7.17847 50.6909C7.14826 50.642 7.13846 50.5831 7.15119 50.527C7.16391 50.4709 7.19814 50.422 7.24652 50.3909L7.79373 50.05C7.82721 50.0301 7.86532 50.0194 7.90426 50.0188C7.9432 50.0183 7.98161 50.0279 8.01564 50.0468C8.04968 50.0658 8.07816 50.0933 8.09825 50.1266C8.11833 50.16 8.12931 50.1981 8.1301 50.237L8.12989 52.8483Z" fill="#FAFAFA"/>
<path d="M9.71048 52.8483C9.71048 52.9066 9.68732 52.9625 9.6461 53.0038C9.60487 53.045 9.54896 53.0681 9.49066 53.0681C9.43236 53.0681 9.37645 53.045 9.33522 53.0038C9.294 52.9625 9.27084 52.9066 9.27084 52.8483V50.6328L9.05775 50.7646C9.0082 50.7952 8.94851 50.8049 8.89182 50.7915C8.83513 50.7781 8.78609 50.7427 8.75548 50.6932C8.72486 50.6436 8.71519 50.5839 8.72859 50.5272C8.74199 50.4705 8.77735 50.4215 8.82691 50.3909L9.37412 50.05C9.4076 50.0301 9.44571 50.0194 9.48465 50.0188C9.52359 50.0183 9.56199 50.0279 9.59603 50.0468C9.63007 50.0658 9.65855 50.0933 9.67864 50.1266C9.69872 50.16 9.7097 50.1981 9.71048 50.237V52.8483Z" fill="#FAFAFA"/>
<path d="M7.5166 50.332H9.80831" stroke="#191919" stroke-width="0.343756" stroke-linecap="round" stroke-linejoin="round"/>
<path d="M8.6626 51.4792V49.1875" stroke="#191919" stroke-width="0.343756" stroke-linecap="round" stroke-linejoin="round"/>
</g>
<g clip-path="url(#clip1_8758_17876)">
<path d="M71.6104 45.8673C71.9793 45.8668 72.3329 45.7201 72.5938 45.4593C72.8546 45.1984 73.0013 44.8448 73.0018 44.4759V43.9944C72.0816 44.1677 71.1366 44.161 70.219 43.9746V44.4759C70.2194 44.8448 70.3662 45.1984 70.627 45.4593C70.8878 45.7201 71.2415 45.8668 71.6104 45.8673Z" fill="#FAFAFA"/>
<path d="M77.3103 48.6215L76.1693 46.2233C75.9542 45.7743 75.575 45.425 75.11 45.2472L74.2393 44.9154C73.8948 44.8135 73.6433 44.4088 73.4413 44.1328V44.4102C73.4495 44.666 73.4043 44.9208 73.3086 45.1582C73.2129 45.3956 73.0687 45.6104 72.8853 45.789C72.7019 45.9675 72.4833 46.1059 72.2434 46.1953C72.0035 46.2846 71.7477 46.323 71.4922 46.3079C71.2366 46.2928 70.987 46.2247 70.7593 46.1077C70.5316 45.9908 70.3308 45.8277 70.1697 45.6288C70.0085 45.4299 69.8906 45.1997 69.8234 44.9526C69.7563 44.7056 69.7414 44.4473 69.7796 44.1942C69.6291 44.4837 69.3828 44.7121 69.0828 44.8404L68.2672 45.1329C67.7991 45.2985 67.4131 45.6388 67.1901 46.0824L65.9106 48.6215C65.8928 48.66 65.8909 48.7039 65.9053 48.7438C65.9197 48.7837 65.9493 48.8163 65.9875 48.8346L67.6918 49.6096C67.7238 49.6242 67.7589 49.6309 67.794 49.6291C67.8292 49.6274 67.8634 49.6172 67.8938 49.5995C67.9242 49.5818 67.9499 49.557 67.9687 49.5273C67.9876 49.4976 67.999 49.4638 68.0021 49.4287L68.0647 48.7144C68.0713 48.6571 68.0999 48.6046 68.1446 48.5681C68.1892 48.5316 68.2464 48.514 68.3038 48.519C68.3613 48.524 68.4145 48.5513 68.4522 48.595C68.4898 48.6387 68.5089 48.6954 68.5054 48.7529L67.9747 54.7851C67.9745 54.8279 67.9831 54.8703 67.9999 54.9097C68.0167 54.9491 68.0415 54.9847 68.0726 55.0141C68.1037 55.0436 68.1405 55.0663 68.1807 55.081C68.221 55.0957 68.2638 55.1019 68.3066 55.0994H74.9318C74.9748 55.1019 75.0178 55.0956 75.0582 55.0808C75.0986 55.066 75.1356 55.0431 75.1667 55.0133C75.1978 54.9836 75.2225 54.9479 75.2392 54.9082C75.2559 54.8685 75.2642 54.8259 75.2637 54.7828C75.1698 53.7762 74.7812 49.671 74.6951 48.7542C74.6909 48.6968 74.7094 48.6401 74.7466 48.5962C74.7838 48.5523 74.8366 48.5247 74.8939 48.5193C74.9512 48.5139 75.0083 48.5311 75.053 48.5673C75.0977 48.6035 75.1265 48.6558 75.1331 48.7129L75.1998 49.42C75.2031 49.4547 75.2146 49.4882 75.2334 49.5176C75.2522 49.547 75.2777 49.5715 75.3079 49.5891C75.338 49.6067 75.3719 49.6168 75.4067 49.6187C75.4416 49.6206 75.4764 49.6142 75.5082 49.6L77.2333 48.8303C77.271 48.8125 77.3002 48.7806 77.3146 48.7415C77.329 48.7024 77.3274 48.6595 77.3103 48.6215ZM71.1926 52.8483C71.1909 52.9054 71.167 52.9596 71.126 52.9994C71.085 53.0392 71.0301 53.0614 70.9729 53.0614C70.9158 53.0614 70.8609 53.0392 70.8199 52.9994C70.7788 52.9596 70.7549 52.9054 70.7532 52.8483V50.6328L70.5399 50.7646C70.4904 50.7939 70.4314 50.8026 70.3755 50.7888C70.3196 50.775 70.2714 50.7399 70.2412 50.6909C70.211 50.642 70.2012 50.5831 70.2139 50.527C70.2267 50.4709 70.2609 50.422 70.3093 50.3909L70.8565 50.05C70.89 50.0301 70.9281 50.0194 70.967 50.0188C71.0059 50.0183 71.0443 50.0279 71.0784 50.0468C71.1124 50.0658 71.1409 50.0933 71.161 50.1266C71.1811 50.16 71.1921 50.1981 71.1928 50.237L71.1926 52.8483ZM72.7732 52.8483C72.7732 52.9066 72.7501 52.9625 72.7088 53.0038C72.6676 53.045 72.6117 53.0681 72.5534 53.0681C72.4951 53.0681 72.4392 53.045 72.398 53.0038C72.3567 52.9625 72.3336 52.9066 72.3336 52.8483V50.6328L72.1205 50.7646C72.0709 50.7952 72.0113 50.8049 71.9546 50.7915C71.8979 50.7781 71.8488 50.7427 71.8182 50.6932C71.7876 50.6436 71.7779 50.5839 71.7913 50.5272C71.8047 50.4705 71.8401 50.4215 71.8897 50.3909L72.4369 50.05C72.4703 50.0301 72.5085 50.0194 72.5474 50.0188C72.5863 50.0183 72.6247 50.0279 72.6588 50.0468C72.6928 50.0658 72.7213 50.0933 72.7414 50.1266C72.7615 50.16 72.7724 50.1981 72.7732 50.237V52.8483Z" fill="#FAFAFA"/>
<path d="M71.1926 52.8483C71.1909 52.9054 71.167 52.9596 71.126 52.9994C71.085 53.0392 71.0301 53.0614 70.9729 53.0614C70.9158 53.0614 70.8609 53.0392 70.8199 52.9994C70.7788 52.9596 70.7549 52.9054 70.7532 52.8483V50.6328L70.5399 50.7646C70.4904 50.7939 70.4314 50.8026 70.3755 50.7888C70.3196 50.775 70.2714 50.7399 70.2412 50.6909C70.211 50.642 70.2012 50.5831 70.2139 50.527C70.2267 50.4709 70.2609 50.422 70.3093 50.3909L70.8565 50.05C70.89 50.0301 70.9281 50.0194 70.967 50.0188C71.0059 50.0183 71.0443 50.0279 71.0784 50.0468C71.1124 50.0658 71.1409 50.0933 71.161 50.1266C71.1811 50.16 71.1921 50.1981 71.1928 50.237L71.1926 52.8483Z" fill="#FAFAFA"/>
<path d="M72.7732 52.8483C72.7732 52.9066 72.7501 52.9625 72.7088 53.0038C72.6676 53.045 72.6117 53.0681 72.5534 53.0681C72.4951 53.0681 72.4392 53.045 72.398 53.0038C72.3567 52.9625 72.3336 52.9066 72.3336 52.8483V50.6328L72.1205 50.7646C72.0709 50.7952 72.0113 50.8049 71.9546 50.7915C71.8979 50.7781 71.8488 50.7427 71.8182 50.6932C71.7876 50.6436 71.7779 50.5839 71.7913 50.5272C71.8047 50.4705 71.8401 50.4215 71.8897 50.3909L72.4369 50.05C72.4703 50.0301 72.5085 50.0194 72.5474 50.0188C72.5863 50.0183 72.6247 50.0279 72.6588 50.0468C72.6928 50.0658 72.7213 50.0933 72.7414 50.1266C72.7615 50.16 72.7724 50.1981 72.7732 50.237V52.8483Z" fill="#FAFAFA"/>
<path d="M70.5793 50.332H72.8711" stroke="#191919" stroke-width="0.343756" stroke-linecap="round" stroke-linejoin="round"/>
<path d="M71.7253 51.4792V49.1875" stroke="#191919" stroke-width="0.343756" stroke-linecap="round" stroke-linejoin="round"/>
</g>
<g clip-path="url(#clip2_8758_17876)">
<path d="M57.6292 51.8673C57.9981 51.8668 58.3517 51.7201 58.6126 51.4593C58.8734 51.1984 59.0201 50.8448 59.0206 50.4759V49.9944C58.1004 50.1677 57.1554 50.161 56.2378 49.9746V50.4759C56.2382 50.8448 56.385 51.1984 56.6458 51.4593C56.9066 51.7201 57.2603 51.8668 57.6292 51.8673Z" fill="#FAFAFA"/>
<path d="M63.3291 54.6215L62.1881 52.2233C61.973 51.7743 61.5938 51.425 61.1288 51.2472L60.2581 50.9154C59.9136 50.8135 59.6621 50.4088 59.4601 50.1328V50.4102C59.4683 50.666 59.4231 50.9208 59.3274 51.1582C59.2317 51.3956 59.0875 51.6104 58.9041 51.789C58.7207 51.9675 58.5021 52.1059 58.2622 52.1953C58.0223 52.2846 57.7665 52.323 57.511 52.3079C57.2554 52.2928 57.0058 52.2247 56.7781 52.1077C56.5504 51.9908 56.3496 51.8277 56.1885 51.6288C56.0273 51.4299 55.9094 51.1997 55.8422 50.9526C55.7751 50.7056 55.7602 50.4473 55.7984 50.1942C55.6478 50.4837 55.4016 50.7121 55.1016 50.8404L54.286 51.1329C53.8179 51.2985 53.4319 51.6388 53.2089 52.0824L51.9294 54.6215C51.9116 54.66 51.9097 54.7039 51.9241 54.7438C51.9385 54.7837 51.9681 54.8163 52.0063 54.8346L53.7106 55.6096C53.7426 55.6242 53.7777 55.6309 53.8128 55.6291C53.848 55.6274 53.8822 55.6172 53.9126 55.5995C53.943 55.5818 53.9687 55.557 53.9875 55.5273C54.0064 55.4976 54.0178 55.4638 54.0209 55.4287L54.0835 54.7144C54.0901 54.6571 54.1187 54.6046 54.1634 54.5681C54.208 54.5316 54.2652 54.514 54.3226 54.519C54.3801 54.524 54.4333 54.5513 54.471 54.595C54.5086 54.6387 54.5277 54.6954 54.5242 54.7529L53.9935 60.7851C53.9933 60.8279 54.0019 60.8703 54.0187 60.9097C54.0355 60.9491 54.0603 60.9847 54.0914 61.0141C54.1225 61.0436 54.1593 61.0663 54.1995 61.081C54.2398 61.0957 54.2826 61.1019 54.3254 61.0994H60.9506C60.9936 61.1019 61.0366 61.0956 61.077 61.0808C61.1174 61.066 61.1544 61.0431 61.1855 61.0133C61.2166 60.9836 61.2413 60.9479 61.258 60.9082C61.2747 60.8685 61.283 60.8259 61.2825 60.7828C61.1886 59.7762 60.8 55.671 60.7139 54.7542C60.7097 54.6968 60.7282 54.6401 60.7654 54.5962C60.8026 54.5523 60.8554 54.5247 60.9127 54.5193C60.97 54.5139 61.0271 54.5311 61.0718 54.5673C61.1165 54.6035 61.1453 54.6558 61.1519 54.7129L61.2186 55.42C61.2219 55.4547 61.2334 55.4882 61.2522 55.5176C61.271 55.547 61.2965 55.5715 61.3267 55.5891C61.3568 55.6067 61.3907 55.6168 61.4255 55.6187C61.4604 55.6206 61.4952 55.6142 61.527 55.6L63.2521 54.8303C63.2898 54.8125 63.319 54.7806 63.3334 54.7415C63.3478 54.7024 63.3462 54.6595 63.3291 54.6215ZM57.2114 58.8483C57.2097 58.9054 57.1858 58.9596 57.1448 58.9994C57.1038 59.0392 57.0489 59.0614 56.9917 59.0614C56.9346 59.0614 56.8797 59.0392 56.8387 58.9994C56.7976 58.9596 56.7737 58.9054 56.772 58.8483V56.6328L56.5587 56.7646C56.5092 56.7939 56.4502 56.8026 56.3943 56.7888C56.3384 56.775 56.2902 56.7399 56.26 56.6909C56.2298 56.642 56.22 56.5831 56.2327 56.527C56.2455 56.4709 56.2797 56.422 56.3281 56.3909L56.8753 56.05C56.9088 56.0301 56.9469 56.0194 56.9858 56.0188C57.0247 56.0183 57.0631 56.0279 57.0972 56.0468C57.1312 56.0658 57.1597 56.0933 57.1798 56.1266C57.1999 56.16 57.2109 56.1981 57.2116 56.237L57.2114 58.8483ZM58.792 58.8483C58.792 58.9066 58.7689 58.9625 58.7276 59.0038C58.6864 59.045 58.6305 59.0681 58.5722 59.0681C58.5139 59.0681 58.458 59.045 58.4168 59.0038C58.3755 58.9625 58.3524 58.9066 58.3524 58.8483V56.6328L58.1393 56.7646C58.0897 56.7952 58.0301 56.8049 57.9734 56.7915C57.9167 56.7781 57.8676 56.7427 57.837 56.6932C57.8064 56.6436 57.7967 56.5839 57.8101 56.5272C57.8235 56.4705 57.8589 56.4215 57.9085 56.3909L58.4557 56.05C58.4891 56.0301 58.5273 56.0194 58.5662 56.0188C58.6051 56.0183 58.6435 56.0279 58.6776 56.0468C58.7116 56.0658 58.7401 56.0933 58.7602 56.1266C58.7803 56.16 58.7912 56.1981 58.792 56.237V58.8483Z" fill="#FAFAFA"/>
<path d="M57.2114 58.8483C57.2097 58.9054 57.1858 58.9596 57.1448 58.9994C57.1038 59.0392 57.0489 59.0614 56.9917 59.0614C56.9346 59.0614 56.8797 59.0392 56.8387 58.9994C56.7976 58.9596 56.7737 58.9054 56.772 58.8483V56.6328L56.5587 56.7646C56.5092 56.7939 56.4502 56.8026 56.3943 56.7888C56.3384 56.775 56.2902 56.7399 56.26 56.6909C56.2298 56.642 56.22 56.5831 56.2327 56.527C56.2455 56.4709 56.2797 56.422 56.3281 56.3909L56.8753 56.05C56.9088 56.0301 56.9469 56.0194 56.9858 56.0188C57.0247 56.0183 57.0631 56.0279 57.0972 56.0468C57.1312 56.0658 57.1597 56.0933 57.1798 56.1266C57.1999 56.16 57.2109 56.1981 57.2116 56.237L57.2114 58.8483Z" fill="#FAFAFA"/>
<path d="M58.792 58.8483C58.792 58.9066 58.7689 58.9625 58.7276 59.0038C58.6864 59.045 58.6305 59.0681 58.5722 59.0681C58.5139 59.0681 58.458 59.045 58.4168 59.0038C58.3755 58.9625 58.3524 58.9066 58.3524 58.8483V56.6328L58.1393 56.7646C58.0897 56.7952 58.0301 56.8049 57.9734 56.7915C57.9167 56.7781 57.8676 56.7427 57.837 56.6932C57.8064 56.6436 57.7967 56.5839 57.8101 56.5272C57.8235 56.4705 57.8589 56.4215 57.9085 56.3909L58.4557 56.05C58.4891 56.0301 58.5273 56.0194 58.5662 56.0188C58.6051 56.0183 58.6435 56.0279 58.6776 56.0468C58.7116 56.0658 58.7401 56.0933 58.7602 56.1266C58.7803 56.16 58.7912 56.1981 58.792 56.237V58.8483Z" fill="#FAFAFA"/>
<path d="M56.5981 56.332H58.8899" stroke="#191919" stroke-width="0.343756" stroke-linecap="round" stroke-linejoin="round"/>
<path d="M57.7441 57.4792V55.1875" stroke="#191919" stroke-width="0.343756" stroke-linecap="round" stroke-linejoin="round"/>
</g>
<g clip-path="url(#clip3_8758_17876)">
<path d="M22.6292 51.8673C22.9981 51.8668 23.3517 51.7201 23.6126 51.4593C23.8734 51.1984 24.0201 50.8448 24.0206 50.4759V49.9944C23.1004 50.1677 22.1554 50.161 21.2378 49.9746V50.4759C21.2382 50.8448 21.385 51.1984 21.6458 51.4593C21.9066 51.7201 22.2603 51.8668 22.6292 51.8673Z" fill="#FAFAFA"/>
<path d="M28.3291 54.6215L27.1881 52.2233C26.973 51.7743 26.5938 51.425 26.1288 51.2472L25.2581 50.9154C24.9136 50.8135 24.6621 50.4088 24.4601 50.1328V50.4102C24.4683 50.666 24.4231 50.9208 24.3274 51.1582C24.2317 51.3956 24.0875 51.6104 23.9041 51.789C23.7207 51.9675 23.5021 52.1059 23.2622 52.1953C23.0223 52.2846 22.7665 52.323 22.511 52.3079C22.2554 52.2928 22.0058 52.2247 21.7781 52.1077C21.5504 51.9908 21.3496 51.8277 21.1885 51.6288C21.0273 51.4299 20.9094 51.1997 20.8422 50.9526C20.7751 50.7056 20.7602 50.4473 20.7984 50.1942C20.6478 50.4837 20.4016 50.7121 20.1016 50.8404L19.286 51.1329C18.8179 51.2985 18.4319 51.6388 18.2089 52.0824L16.9294 54.6215C16.9116 54.66 16.9097 54.7039 16.9241 54.7438C16.9385 54.7837 16.9681 54.8163 17.0063 54.8346L18.7106 55.6096C18.7426 55.6242 18.7777 55.6309 18.8128 55.6291C18.848 55.6274 18.8822 55.6172 18.9126 55.5995C18.943 55.5818 18.9687 55.557 18.9875 55.5273C19.0064 55.4976 19.0178 55.4638 19.0209 55.4287L19.0835 54.7144C19.0901 54.6571 19.1187 54.6046 19.1634 54.5681C19.208 54.5316 19.2652 54.514 19.3226 54.519C19.3801 54.524 19.4333 54.5513 19.471 54.595C19.5086 54.6387 19.5277 54.6954 19.5242 54.7529L18.9935 60.7851C18.9933 60.8279 19.0019 60.8703 19.0187 60.9097C19.0355 60.9491 19.0603 60.9847 19.0914 61.0141C19.1225 61.0436 19.1593 61.0663 19.1995 61.081C19.2398 61.0957 19.2826 61.1019 19.3254 61.0994H25.9506C25.9936 61.1019 26.0366 61.0956 26.077 61.0808C26.1174 61.066 26.1544 61.0431 26.1855 61.0133C26.2166 60.9836 26.2413 60.9479 26.258 60.9082C26.2747 60.8685 26.283 60.8259 26.2825 60.7828C26.1886 59.7762 25.8 55.671 25.7139 54.7542C25.7097 54.6968 25.7282 54.6401 25.7654 54.5962C25.8026 54.5523 25.8554 54.5247 25.9127 54.5193C25.97 54.5139 26.0271 54.5311 26.0718 54.5673C26.1165 54.6035 26.1453 54.6558 26.1519 54.7129L26.2186 55.42C26.2219 55.4547 26.2334 55.4882 26.2522 55.5176C26.271 55.547 26.2965 55.5715 26.3267 55.5891C26.3568 55.6067 26.3907 55.6168 26.4255 55.6187C26.4604 55.6206 26.4952 55.6142 26.527 55.6L28.2521 54.8303C28.2898 54.8125 28.319 54.7806 28.3334 54.7415C28.3478 54.7024 28.3462 54.6595 28.3291 54.6215ZM22.2114 58.8483C22.2097 58.9054 22.1858 58.9596 22.1448 58.9994C22.1038 59.0392 22.0489 59.0614 21.9917 59.0614C21.9346 59.0614 21.8797 59.0392 21.8387 58.9994C21.7976 58.9596 21.7737 58.9054 21.772 58.8483V56.6328L21.5587 56.7646C21.5092 56.7939 21.4502 56.8026 21.3943 56.7888C21.3384 56.775 21.2902 56.7399 21.26 56.6909C21.2298 56.642 21.22 56.5831 21.2327 56.527C21.2455 56.4709 21.2797 56.422 21.3281 56.3909L21.8753 56.05C21.9088 56.0301 21.9469 56.0194 21.9858 56.0188C22.0247 56.0183 22.0631 56.0279 22.0972 56.0468C22.1312 56.0658 22.1597 56.0933 22.1798 56.1266C22.1999 56.16 22.2109 56.1981 22.2116 56.237L22.2114 58.8483ZM23.792 58.8483C23.792 58.9066 23.7689 58.9625 23.7276 59.0038C23.6864 59.045 23.6305 59.0681 23.5722 59.0681C23.5139 59.0681 23.458 59.045 23.4168 59.0038C23.3755 58.9625 23.3524 58.9066 23.3524 58.8483V56.6328L23.1393 56.7646C23.0897 56.7952 23.0301 56.8049 22.9734 56.7915C22.9167 56.7781 22.8676 56.7427 22.837 56.6932C22.8064 56.6436 22.7967 56.5839 22.8101 56.5272C22.8235 56.4705 22.8589 56.4215 22.9085 56.3909L23.4557 56.05C23.4891 56.0301 23.5273 56.0194 23.5662 56.0188C23.6051 56.0183 23.6435 56.0279 23.6776 56.0468C23.7116 56.0658 23.7401 56.0933 23.7602 56.1266C23.7803 56.16 23.7912 56.1981 23.792 56.237V58.8483Z" fill="#FAFAFA"/>
<path d="M22.2114 58.8483C22.2097 58.9054 22.1858 58.9596 22.1448 58.9994C22.1038 59.0392 22.0489 59.0614 21.9917 59.0614C21.9346 59.0614 21.8797 59.0392 21.8387 58.9994C21.7976 58.9596 21.7737 58.9054 21.772 58.8483V56.6328L21.5587 56.7646C21.5092 56.7939 21.4502 56.8026 21.3943 56.7888C21.3384 56.775 21.2902 56.7399 21.26 56.6909C21.2298 56.642 21.22 56.5831 21.2327 56.527C21.2455 56.4709 21.2797 56.422 21.3281 56.3909L21.8753 56.05C21.9088 56.0301 21.9469 56.0194 21.9858 56.0188C22.0247 56.0183 22.0631 56.0279 22.0972 56.0468C22.1312 56.0658 22.1597 56.0933 22.1798 56.1266C22.1999 56.16 22.2109 56.1981 22.2116 56.237L22.2114 58.8483Z" fill="#FAFAFA"/>
<path d="M23.792 58.8483C23.792 58.9066 23.7689 58.9625 23.7276 59.0038C23.6864 59.045 23.6305 59.0681 23.5722 59.0681C23.5139 59.0681 23.458 59.045 23.4168 59.0038C23.3755 58.9625 23.3524 58.9066 23.3524 58.8483V56.6328L23.1393 56.7646C23.0897 56.7952 23.0301 56.8049 22.9734 56.7915C22.9167 56.7781 22.8676 56.7427 22.837 56.6932C22.8064 56.6436 22.7967 56.5839 22.8101 56.5272C22.8235 56.4705 22.8589 56.4215 22.9085 56.3909L23.4557 56.05C23.4891 56.0301 23.5273 56.0194 23.5662 56.0188C23.6051 56.0183 23.6435 56.0279 23.6776 56.0468C23.7116 56.0658 23.7401 56.0933 23.7602 56.1266C23.7803 56.16 23.7912 56.1981 23.792 56.237V58.8483Z" fill="#FAFAFA"/>
<path d="M21.5981 56.332H23.8899" stroke="#191919" stroke-width="0.343756" stroke-linecap="round" stroke-linejoin="round"/>
<path d="M22.7441 57.4792V55.1875" stroke="#191919" stroke-width="0.343756" stroke-linecap="round" stroke-linejoin="round"/>
</g>
<g clip-path="url(#clip4_8758_17876)">
<path d="M40.6292 52.8673C40.9981 52.8668 41.3517 52.7201 41.6126 52.4593C41.8734 52.1984 42.0201 51.8448 42.0206 51.4759V50.9944C41.1004 51.1677 40.1554 51.161 39.2378 50.9746V51.4759C39.2382 51.8448 39.385 52.1984 39.6458 52.4593C39.9066 52.7201 40.2603 52.8668 40.6292 52.8673Z" fill="#FAFAFA"/>
<path d="M46.3291 55.6215L45.1881 53.2233C44.973 52.7743 44.5938 52.425 44.1288 52.2472L43.2581 51.9154C42.9136 51.8135 42.6621 51.4088 42.4601 51.1328V51.4102C42.4683 51.666 42.4231 51.9208 42.3274 52.1582C42.2317 52.3956 42.0875 52.6104 41.9041 52.789C41.7207 52.9675 41.5021 53.1059 41.2622 53.1953C41.0223 53.2846 40.7665 53.323 40.511 53.3079C40.2554 53.2928 40.0058 53.2247 39.7781 53.1077C39.5504 52.9908 39.3496 52.8277 39.1885 52.6288C39.0273 52.4299 38.9094 52.1997 38.8422 51.9526C38.7751 51.7056 38.7602 51.4473 38.7984 51.1942C38.6478 51.4837 38.4016 51.7121 38.1016 51.8404L37.286 52.1329C36.8179 52.2985 36.4319 52.6388 36.2089 53.0824L34.9294 55.6215C34.9116 55.66 34.9097 55.7039 34.9241 55.7438C34.9385 55.7837 34.9681 55.8163 35.0063 55.8346L36.7106 56.6096C36.7426 56.6242 36.7777 56.6309 36.8128 56.6291C36.848 56.6274 36.8822 56.6172 36.9126 56.5995C36.943 56.5818 36.9687 56.557 36.9875 56.5273C37.0064 56.4976 37.0178 56.4638 37.0209 56.4287L37.0835 55.7144C37.0901 55.6571 37.1187 55.6046 37.1634 55.5681C37.208 55.5316 37.2652 55.514 37.3226 55.519C37.3801 55.524 37.4333 55.5513 37.471 55.595C37.5086 55.6387 37.5277 55.6954 37.5242 55.7529L36.9935 61.7851C36.9933 61.8279 37.0019 61.8703 37.0187 61.9097C37.0355 61.9491 37.0603 61.9847 37.0914 62.0141C37.1225 62.0436 37.1593 62.0663 37.1995 62.081C37.2398 62.0957 37.2826 62.1019 37.3254 62.0994H43.9506C43.9936 62.1019 44.0366 62.0956 44.077 62.0808C44.1174 62.066 44.1544 62.0431 44.1855 62.0133C44.2166 61.9836 44.2413 61.9479 44.258 61.9082C44.2747 61.8685 44.283 61.8259 44.2825 61.7828C44.1886 60.7762 43.8 56.671 43.7139 55.7542C43.7097 55.6968 43.7282 55.6401 43.7654 55.5962C43.8026 55.5523 43.8554 55.5247 43.9127 55.5193C43.97 55.5139 44.0271 55.5311 44.0718 55.5673C44.1165 55.6035 44.1453 55.6558 44.1519 55.7129L44.2186 56.42C44.2219 56.4547 44.2334 56.4882 44.2522 56.5176C44.271 56.547 44.2965 56.5715 44.3267 56.5891C44.3568 56.6067 44.3907 56.6168 44.4255 56.6187C44.4604 56.6206 44.4952 56.6142 44.527 56.6L46.2521 55.8303C46.2898 55.8125 46.319 55.7806 46.3334 55.7415C46.3478 55.7024 46.3462 55.6595 46.3291 55.6215ZM40.2114 59.8483C40.2097 59.9054 40.1858 59.9596 40.1448 59.9994C40.1038 60.0392 40.0489 60.0614 39.9917 60.0614C39.9346 60.0614 39.8797 60.0392 39.8387 59.9994C39.7976 59.9596 39.7737 59.9054 39.772 59.8483V57.6328L39.5587 57.7646C39.5092 57.7939 39.4502 57.8026 39.3943 57.7888C39.3384 57.775 39.2902 57.7399 39.26 57.6909C39.2298 57.642 39.22 57.5831 39.2327 57.527C39.2455 57.4709 39.2797 57.422 39.3281 57.3909L39.8753 57.05C39.9088 57.0301 39.9469 57.0194 39.9858 57.0188C40.0247 57.0183 40.0631 57.0279 40.0972 57.0468C40.1312 57.0658 40.1597 57.0933 40.1798 57.1266C40.1999 57.16 40.2109 57.1981 40.2116 57.237L40.2114 59.8483ZM41.792 59.8483C41.792 59.9066 41.7689 59.9625 41.7276 60.0038C41.6864 60.045 41.6305 60.0681 41.5722 60.0681C41.5139 60.0681 41.458 60.045 41.4168 60.0038C41.3755 59.9625 41.3524 59.9066 41.3524 59.8483V57.6328L41.1393 57.7646C41.0897 57.7952 41.0301 57.8049 40.9734 57.7915C40.9167 57.7781 40.8676 57.7427 40.837 57.6932C40.8064 57.6436 40.7967 57.5839 40.8101 57.5272C40.8235 57.4705 40.8589 57.4215 40.9085 57.3909L41.4557 57.05C41.4891 57.0301 41.5273 57.0194 41.5662 57.0188C41.6051 57.0183 41.6435 57.0279 41.6776 57.0468C41.7116 57.0658 41.7401 57.0933 41.7602 57.1266C41.7803 57.16 41.7912 57.1981 41.792 57.237V59.8483Z" fill="#FAFAFA"/>
<path d="M40.2114 59.8483C40.2097 59.9054 40.1858 59.9596 40.1448 59.9994C40.1038 60.0392 40.0489 60.0614 39.9917 60.0614C39.9346 60.0614 39.8797 60.0392 39.8387 59.9994C39.7976 59.9596 39.7737 59.9054 39.772 59.8483V57.6328L39.5587 57.7646C39.5092 57.7939 39.4502 57.8026 39.3943 57.7888C39.3384 57.775 39.2902 57.7399 39.26 57.6909C39.2298 57.642 39.22 57.5831 39.2327 57.527C39.2455 57.4709 39.2797 57.422 39.3281 57.3909L39.8753 57.05C39.9088 57.0301 39.9469 57.0194 39.9858 57.0188C40.0247 57.0183 40.0631 57.0279 40.0972 57.0468C40.1312 57.0658 40.1597 57.0933 40.1798 57.1266C40.1999 57.16 40.2109 57.1981 40.2116 57.237L40.2114 59.8483Z" fill="#FAFAFA"/>
<path d="M41.792 59.8483C41.792 59.9066 41.7689 59.9625 41.7276 60.0038C41.6864 60.045 41.6305 60.0681 41.5722 60.0681C41.5139 60.0681 41.458 60.045 41.4168 60.0038C41.3755 59.9625 41.3524 59.9066 41.3524 59.8483V57.6328L41.1393 57.7646C41.0897 57.7952 41.0301 57.8049 40.9734 57.7915C40.9167 57.7781 40.8676 57.7427 40.837 57.6932C40.8064 57.6436 40.7967 57.5839 40.8101 57.5272C40.8235 57.4705 40.8589 57.4215 40.9085 57.3909L41.4557 57.05C41.4891 57.0301 41.5273 57.0194 41.5662 57.0188C41.6051 57.0183 41.6435 57.0279 41.6776 57.0468C41.7116 57.0658 41.7401 57.0933 41.7602 57.1266C41.7803 57.16 41.7912 57.1981 41.792 57.237V59.8483Z" fill="#FAFAFA"/>
<path d="M39.5981 57.332H41.8899" stroke="#191919" stroke-width="0.343756" stroke-linecap="round" stroke-linejoin="round"/>
<path d="M40.7441 58.4792V56.1875" stroke="#191919" stroke-width="0.343756" stroke-linecap="round" stroke-linejoin="round"/>
</g>
<g clip-path="url(#clip5_8758_17876)">
<path d="M8.62918 23.8673C8.99807 23.8668 9.35172 23.7201 9.61256 23.4593C9.8734 23.1984 10.0201 22.8448 10.0206 22.4759V21.9944C9.10042 22.1677 8.15538 22.161 7.23779 21.9746V22.4759C7.23823 22.8448 7.38496 23.1984 7.6458 23.4593C7.90664 23.7201 8.26029 23.8668 8.62918 23.8673Z" fill="#FAFAFA"/>
<path d="M14.3291 26.6215L13.1881 24.2233C12.973 23.7743 12.5938 23.425 12.1288 23.2472L11.2581 22.9154C10.9136 22.8135 10.6621 22.4088 10.4601 22.1328V22.4102C10.4683 22.666 10.4231 22.9208 10.3274 23.1582C10.2317 23.3956 10.0875 23.6104 9.9041 23.789C9.7207 23.9675 9.50209 24.1059 9.26222 24.1953C9.02235 24.2846 8.76648 24.323 8.51095 24.3079C8.25542 24.2928 8.00584 24.2247 7.77814 24.1077C7.55043 23.9908 7.3496 23.8277 7.18846 23.6288C7.02731 23.4299 6.9094 23.1997 6.84225 22.9526C6.77509 22.7056 6.76016 22.4473 6.79841 22.1942C6.64785 22.4837 6.4016 22.7121 6.1016 22.8404L5.28599 23.1329C4.81786 23.2985 4.43192 23.6388 4.20893 24.0824L2.92939 26.6215C2.91162 26.66 2.90973 26.7039 2.92414 26.7438C2.93854 26.7837 2.96807 26.8163 3.00634 26.8346L4.71062 27.6096C4.74263 27.6242 4.77768 27.6309 4.81282 27.6291C4.84797 27.6274 4.88217 27.6172 4.91257 27.5995C4.94297 27.5818 4.96867 27.557 4.98752 27.5273C5.00636 27.4976 5.01779 27.4638 5.02086 27.4287L5.08352 26.7144C5.09005 26.6571 5.1187 26.6046 5.16337 26.5681C5.20803 26.5316 5.26518 26.514 5.32264 26.519C5.3801 26.524 5.43332 26.5513 5.47096 26.595C5.50861 26.6387 5.52771 26.6954 5.52418 26.7529L4.99351 32.7851C4.99329 32.8279 5.00187 32.8703 5.0187 32.9097C5.03553 32.9491 5.06026 32.9847 5.09137 33.0141C5.12247 33.0436 5.15929 33.0663 5.19954 33.081C5.23979 33.0957 5.28262 33.1019 5.32538 33.0994H11.9506C11.9936 33.1019 12.0366 33.0956 12.077 33.0808C12.1174 33.066 12.1544 33.0431 12.1855 33.0133C12.2166 32.9836 12.2413 32.9479 12.258 32.9082C12.2747 32.8685 12.283 32.8259 12.2825 32.7828C12.1886 31.7762 11.8 27.671 11.7139 26.7542C11.7097 26.6968 11.7282 26.6401 11.7654 26.5962C11.8026 26.5523 11.8554 26.5247 11.9127 26.5193C11.97 26.5139 12.0271 26.5311 12.0718 26.5673C12.1165 26.6035 12.1453 26.6558 12.1519 26.7129L12.2186 27.42C12.2219 27.4547 12.2334 27.4882 12.2522 27.5176C12.271 27.547 12.2965 27.5715 12.3267 27.5891C12.3568 27.6067 12.3907 27.6168 12.4255 27.6187C12.4604 27.6206 12.4952 27.6142 12.527 27.6L14.2521 26.8303C14.2898 26.8125 14.319 26.7806 14.3334 26.7415C14.3478 26.7024 14.3462 26.6595 14.3291 26.6215ZM8.21143 30.8483C8.20969 30.9054 8.18578 30.9596 8.14477 30.9994C8.10375 31.0392 8.04886 31.0614 7.99171 31.0614C7.93457 31.0614 7.87968 31.0392 7.83866 30.9994C7.79765 30.9596 7.77374 30.9054 7.772 30.8483V28.6328L7.55871 28.7646C7.50919 28.7939 7.45016 28.8026 7.3943 28.7888C7.33845 28.775 7.29023 28.7399 7.26001 28.6909C7.2298 28.642 7.22 28.5831 7.23273 28.527C7.24545 28.4709 7.27969 28.422 7.32807 28.3909L7.87527 28.05C7.90875 28.0301 7.94687 28.0194 7.9858 28.0188C8.02474 28.0183 8.06315 28.0279 8.09719 28.0468C8.13123 28.0658 8.15971 28.0933 8.17979 28.1266C8.19987 28.16 8.21086 28.1981 8.21164 28.237L8.21143 30.8483ZM9.79203 30.8483C9.79203 30.9066 9.76887 30.9625 9.72764 31.0038C9.68642 31.045 9.6305 31.0681 9.5722 31.0681C9.5139 31.0681 9.45799 31.045 9.41677 31.0038C9.37554 30.9625 9.35238 30.9066 9.35238 30.8483V28.6328L9.1393 28.7646C9.08974 28.7952 9.03005 28.8049 8.97336 28.7915C8.91667 28.7781 8.86763 28.7427 8.83702 28.6932C8.80641 28.6436 8.79674 28.5839 8.81013 28.5272C8.82353 28.4705 8.8589 28.4215 8.90845 28.3909L9.45566 28.05C9.48914 28.0301 9.52725 28.0194 9.56619 28.0188C9.60513 28.0183 9.64354 28.0279 9.67758 28.0468C9.71161 28.0658 9.7401 28.0933 9.76018 28.1266C9.78026 28.16 9.79124 28.1981 9.79203 28.237V30.8483Z" fill="#FAFAFA"/>
<path d="M8.21143 30.8483C8.20969 30.9054 8.18578 30.9596 8.14477 30.9994C8.10375 31.0392 8.04886 31.0614 7.99171 31.0614C7.93457 31.0614 7.87968 31.0392 7.83866 30.9994C7.79765 30.9596 7.77374 30.9054 7.772 30.8483V28.6328L7.55871 28.7646C7.50919 28.7939 7.45016 28.8026 7.3943 28.7888C7.33845 28.775 7.29023 28.7399 7.26001 28.6909C7.2298 28.642 7.22 28.5831 7.23273 28.527C7.24545 28.4709 7.27969 28.422 7.32807 28.3909L7.87527 28.05C7.90875 28.0301 7.94687 28.0194 7.9858 28.0188C8.02474 28.0183 8.06315 28.0279 8.09719 28.0468C8.13123 28.0658 8.15971 28.0933 8.17979 28.1266C8.19987 28.16 8.21086 28.1981 8.21164 28.237L8.21143 30.8483Z" fill="#FAFAFA"/>
<path d="M9.79203 30.8483C9.79203 30.9066 9.76887 30.9625 9.72764 31.0038C9.68642 31.045 9.6305 31.0681 9.5722 31.0681C9.5139 31.0681 9.45799 31.045 9.41677 31.0038C9.37554 30.9625 9.35238 30.9066 9.35238 30.8483V28.6328L9.1393 28.7646C9.08974 28.7952 9.03005 28.8049 8.97336 28.7915C8.91667 28.7781 8.86763 28.7427 8.83702 28.6932C8.80641 28.6436 8.79674 28.5839 8.81013 28.5272C8.82353 28.4705 8.8589 28.4215 8.90845 28.3909L9.45566 28.05C9.48914 28.0301 9.52725 28.0194 9.56619 28.0188C9.60513 28.0183 9.64354 28.0279 9.67758 28.0468C9.71161 28.0658 9.7401 28.0933 9.76018 28.1266C9.78026 28.16 9.79124 28.1981 9.79203 28.237V30.8483Z" fill="#FAFAFA"/>
<path d="M7.59814 28.332H9.88985" stroke="#191919" stroke-width="0.343756" stroke-linecap="round" stroke-linejoin="round"/>
<path d="M8.74414 29.4792V27.1875" stroke="#191919" stroke-width="0.343756" stroke-linecap="round" stroke-linejoin="round"/>
</g>
<path d="M71.7547 23.8673C72.1236 23.8668 72.4772 23.7201 72.738 23.4593C72.9989 23.1984 73.1456 22.8448 73.1461 22.4759V21.9944C72.2259 22.1677 71.2809 22.161 70.3633 21.9746V22.4759C70.3637 22.8448 70.5104 23.1984 70.7713 23.4593C71.0321 23.7201 71.3858 23.8668 71.7547 23.8673Z" fill="#FAFAFA"/>
<path d="M77.4546 26.6215L76.3136 24.2233C76.0984 23.7743 75.7193 23.425 75.2543 23.2472L74.3836 22.9154C74.0391 22.8135 73.7876 22.4088 73.5856 22.1328V22.4102C73.5938 22.666 73.5486 22.9208 73.4529 23.1582C73.3572 23.3956 73.213 23.6104 73.0296 23.789C72.8462 23.9675 72.6276 24.1059 72.3877 24.1953C72.1478 24.2846 71.892 24.323 71.6364 24.3079C71.3809 24.2928 71.1313 24.2247 70.9036 24.1077C70.6759 23.9908 70.4751 23.8277 70.3139 23.6288C70.1528 23.4299 70.0349 23.1997 69.9677 22.9526C69.9006 22.7056 69.8856 22.4473 69.9239 22.1942C69.7733 22.4837 69.5271 22.7121 69.2271 22.8404L68.4115 23.1329C67.9433 23.2985 67.5574 23.6388 67.3344 24.0824L66.0549 26.6215C66.0371 26.66 66.0352 26.7039 66.0496 26.7438C66.064 26.7837 66.0936 26.8163 66.1318 26.8346L67.8361 27.6096C67.8681 27.6242 67.9032 27.6309 67.9383 27.6291C67.9735 27.6274 68.0077 27.6172 68.0381 27.5995C68.0685 27.5818 68.0942 27.557 68.113 27.5273C68.1318 27.4976 68.1433 27.4638 68.1463 27.4287L68.209 26.7144C68.2155 26.6571 68.2442 26.6046 68.2889 26.5681C68.3335 26.5316 68.3907 26.514 68.4481 26.519C68.5056 26.524 68.5588 26.5513 68.5965 26.595C68.6341 26.6387 68.6532 26.6954 68.6497 26.7529L68.119 32.7851C68.1188 32.8279 68.1274 32.8703 68.1442 32.9097C68.161 32.9491 68.1858 32.9847 68.2169 33.0141C68.248 33.0436 68.2848 33.0663 68.325 33.081C68.3653 33.0957 68.4081 33.1019 68.4509 33.0994H75.0761C75.1191 33.1019 75.1621 33.0956 75.2025 33.0808C75.2429 33.066 75.2798 33.0431 75.311 33.0133C75.3421 32.9836 75.3668 32.9479 75.3835 32.9082C75.4002 32.8685 75.4085 32.8259 75.408 32.7828C75.3141 31.7762 74.9255 27.671 74.8394 26.7542C74.8352 26.6968 74.8537 26.6401 74.8909 26.5962C74.9281 26.5523 74.9809 26.5247 75.0382 26.5193C75.0955 26.5139 75.1526 26.5311 75.1973 26.5673C75.242 26.6035 75.2707 26.6558 75.2774 26.7129L75.3441 27.42C75.3474 27.4547 75.3589 27.4882 75.3777 27.5176C75.3965 27.547 75.422 27.5715 75.4521 27.5891C75.4823 27.6067 75.5162 27.6168 75.551 27.6187C75.5859 27.6206 75.6207 27.6142 75.6525 27.6L77.3776 26.8303C77.4153 26.8125 77.4445 26.7806 77.4589 26.7415C77.4733 26.7024 77.4717 26.6595 77.4546 26.6215ZM71.3369 30.8483C71.3352 30.9054 71.3113 30.9596 71.2703 30.9994C71.2292 31.0392 71.1743 31.0614 71.1172 31.0614C71.0601 31.0614 71.0052 31.0392 70.9642 30.9994C70.9231 30.9596 70.8992 30.9054 70.8975 30.8483V28.6328L70.6842 28.7646C70.6347 28.7939 70.5756 28.8026 70.5198 28.7888C70.4639 28.775 70.4157 28.7399 70.3855 28.6909C70.3553 28.642 70.3455 28.5831 70.3582 28.527C70.3709 28.4709 70.4052 28.422 70.4536 28.3909L71.0008 28.05C71.0342 28.0301 71.0724 28.0194 71.1113 28.0188C71.1502 28.0183 71.1886 28.0279 71.2227 28.0468C71.2567 28.0658 71.2852 28.0933 71.3053 28.1266C71.3254 28.16 71.3363 28.1981 71.3371 28.237L71.3369 30.8483ZM72.9175 30.8483C72.9175 30.9066 72.8944 30.9625 72.8531 31.0038C72.8119 31.045 72.756 31.0681 72.6977 31.0681C72.6394 31.0681 72.5835 31.045 72.5423 31.0038C72.501 30.9625 72.4779 30.9066 72.4779 30.8483V28.6328L72.2648 28.7646C72.2152 28.7952 72.1555 28.8049 72.0989 28.7915C72.0422 28.7781 71.9931 28.7427 71.9625 28.6932C71.9319 28.6436 71.9222 28.5839 71.9356 28.5272C71.949 28.4705 71.9844 28.4215 72.0339 28.3909L72.5811 28.05C72.6146 28.0301 72.6527 28.0194 72.6917 28.0188C72.7306 28.0183 72.769 28.0279 72.8031 28.0468C72.8371 28.0658 72.8656 28.0933 72.8857 28.1266C72.9057 28.16 72.9167 28.1981 72.9175 28.237V30.8483Z" fill="#FAFAFA"/>
<path d="M71.3369 30.8483C71.3352 30.9054 71.3113 30.9596 71.2703 30.9994C71.2292 31.0392 71.1743 31.0614 71.1172 31.0614C71.0601 31.0614 71.0052 31.0392 70.9642 30.9994C70.9231 30.9596 70.8992 30.9054 70.8975 30.8483V28.6328L70.6842 28.7646C70.6347 28.7939 70.5756 28.8026 70.5198 28.7888C70.4639 28.775 70.4157 28.7399 70.3855 28.6909C70.3553 28.642 70.3455 28.5831 70.3582 28.527C70.3709 28.4709 70.4052 28.422 70.4536 28.3909L71.0008 28.05C71.0342 28.0301 71.0724 28.0194 71.1113 28.0188C71.1502 28.0183 71.1886 28.0279 71.2227 28.0468C71.2567 28.0658 71.2852 28.0933 71.3053 28.1266C71.3254 28.16 71.3363 28.1981 71.3371 28.237L71.3369 30.8483Z" fill="#FAFAFA"/>
<path d="M72.9175 30.8483C72.9175 30.9066 72.8944 30.9625 72.8531 31.0038C72.8119 31.045 72.756 31.0681 72.6977 31.0681C72.6394 31.0681 72.5835 31.045 72.5423 31.0038C72.501 30.9625 72.4779 30.9066 72.4779 30.8483V28.6328L72.2648 28.7646C72.2152 28.7952 72.1555 28.8049 72.0989 28.7915C72.0422 28.7781 71.9931 28.7427 71.9625 28.6932C71.9319 28.6436 71.9222 28.5839 71.9356 28.5272C71.949 28.4705 71.9844 28.4215 72.0339 28.3909L72.5811 28.05C72.6146 28.0301 72.6527 28.0194 72.6917 28.0188C72.7306 28.0183 72.769 28.0279 72.8031 28.0468C72.8371 28.0658 72.8656 28.0933 72.8857 28.1266C72.9057 28.16 72.9167 28.1981 72.9175 28.237V30.8483Z" fill="#FAFAFA"/>
<path d="M70.7236 28.332H73.0153" stroke="#191919" stroke-width="0.343756" stroke-linecap="round" stroke-linejoin="round"/>
<path d="M71.8696 29.4792V27.1875" stroke="#191919" stroke-width="0.343756" stroke-linecap="round" stroke-linejoin="round"/>
<path d="M29.531 28.8673C29.8999 28.8668 30.2536 28.7201 30.5144 28.4593C30.7753 28.1984 30.922 27.8448 30.9224 27.4759V26.9944C30.0023 27.1677 29.0572 27.161 28.1396 26.9746V27.4759C28.1401 27.8448 28.2868 28.1984 28.5477 28.4593C28.8085 28.7201 29.1621 28.8668 29.531 28.8673Z" fill="#FAFAFA"/>
<path d="M35.2309 31.6215L34.09 29.2233C33.8748 28.7743 33.4957 28.425 33.0307 28.2472L32.16 27.9154C31.8154 27.8135 31.564 27.4088 31.3619 27.1328V27.4102C31.3702 27.666 31.325 27.9208 31.2292 28.1582C31.1335 28.3956 30.9894 28.6104 30.806 28.789C30.6226 28.9675 30.4039 29.1059 30.1641 29.1953C29.9242 29.2846 29.6683 29.323 29.4128 29.3079C29.1573 29.2928 28.9077 29.2247 28.68 29.1077C28.4523 28.9908 28.2515 28.8277 28.0903 28.6288C27.9292 28.4299 27.8113 28.1997 27.7441 27.9526C27.6769 27.7056 27.662 27.4473 27.7003 27.1942C27.5497 27.4837 27.3035 27.7121 27.0035 27.8404L26.1878 28.1329C25.7197 28.2985 25.3338 28.6388 25.1108 29.0824L23.8312 31.6215C23.8135 31.66 23.8116 31.7039 23.826 31.7438C23.8404 31.7837 23.8699 31.8163 23.9082 31.8346L25.6125 32.6096C25.6445 32.6242 25.6795 32.6309 25.7147 32.6291C25.7498 32.6274 25.784 32.6172 25.8144 32.5995C25.8448 32.5818 25.8705 32.557 25.8894 32.5273C25.9082 32.4976 25.9196 32.4638 25.9227 32.4287L25.9854 31.7144C25.9919 31.6571 26.0206 31.6046 26.0652 31.5681C26.1099 31.5316 26.167 31.514 26.2245 31.519C26.282 31.524 26.3352 31.5513 26.3728 31.595C26.4105 31.6387 26.4296 31.6954 26.426 31.7529L25.8954 37.7851C25.8951 37.8279 25.9037 37.8703 25.9206 37.9097C25.9374 37.9491 25.9621 37.9847 25.9932 38.0141C26.0243 38.0436 26.0611 38.0663 26.1014 38.081C26.1416 38.0957 26.1845 38.1019 26.2272 38.0994H32.8525C32.8955 38.1019 32.9385 38.0956 32.9789 38.0808C33.0193 38.066 33.0562 38.0431 33.0873 38.0133C33.1185 37.9836 33.1432 37.9479 33.1599 37.9082C33.1766 37.8685 33.1849 37.8259 33.1844 37.7828C33.0905 36.7762 32.7019 32.671 32.6157 31.7542C32.6116 31.6968 32.6301 31.6401 32.6673 31.5962C32.7044 31.5523 32.7573 31.5247 32.8146 31.5193C32.8718 31.5139 32.9289 31.5311 32.9737 31.5673C33.0184 31.6035 33.0471 31.6558 33.0537 31.7129L33.1205 32.42C33.1238 32.4547 33.1353 32.4882 33.1541 32.5176C33.1729 32.547 33.1984 32.5715 33.2285 32.5891C33.2587 32.6067 33.2925 32.6168 33.3274 32.6187C33.3622 32.6206 33.397 32.6142 33.4289 32.6L35.154 31.8303C35.1917 31.8125 35.2209 31.7806 35.2353 31.7415C35.2496 31.7024 35.2481 31.6595 35.2309 31.6215ZM29.1133 35.8483C29.1115 35.9054 29.0876 35.9596 29.0466 35.9994C29.0056 36.0392 28.9507 36.0614 28.8936 36.0614C28.8364 36.0614 28.7815 36.0392 28.7405 35.9994C28.6995 35.9596 28.6756 35.9054 28.6739 35.8483V33.6328L28.4606 33.7646C28.411 33.7939 28.352 33.8026 28.2962 33.7888C28.2403 33.775 28.1921 33.7399 28.1619 33.6909C28.1317 33.642 28.1219 33.5831 28.1346 33.527C28.1473 33.4709 28.1815 33.422 28.2299 33.3909L28.7771 33.05C28.8106 33.0301 28.8487 33.0194 28.8877 33.0188C28.9266 33.0183 28.965 33.0279 28.999 33.0468C29.0331 33.0658 29.0616 33.0933 29.0816 33.1266C29.1017 33.16 29.1127 33.1981 29.1135 33.237L29.1133 35.8483ZM30.6939 35.8483C30.6939 35.9066 30.6707 35.9625 30.6295 36.0038C30.5883 36.045 30.5324 36.0681 30.4741 36.0681C30.4158 36.0681 30.3598 36.045 30.3186 36.0038C30.2774 35.9625 30.2542 35.9066 30.2542 35.8483V33.6328L30.0412 33.7646C29.9916 33.7952 29.9319 33.8049 29.8752 33.7915C29.8185 33.7781 29.7695 33.7427 29.7389 33.6932C29.7083 33.6436 29.6986 33.5839 29.712 33.5272C29.7254 33.4705 29.7608 33.4215 29.8103 33.3909L30.3575 33.05C30.391 33.0301 30.4291 33.0194 30.468 33.0188C30.507 33.0183 30.5454 33.0279 30.5794 33.0468C30.6135 33.0658 30.642 33.0933 30.662 33.1266C30.6821 33.16 30.6931 33.1981 30.6939 33.237V35.8483Z" fill="#FAFAFA"/>
<path d="M29.1133 35.8483C29.1115 35.9054 29.0876 35.9596 29.0466 35.9994C29.0056 36.0392 28.9507 36.0614 28.8936 36.0614C28.8364 36.0614 28.7815 36.0392 28.7405 35.9994C28.6995 35.9596 28.6756 35.9054 28.6739 35.8483V33.6328L28.4606 33.7646C28.411 33.7939 28.352 33.8026 28.2962 33.7888C28.2403 33.775 28.1921 33.7399 28.1619 33.6909C28.1317 33.642 28.1219 33.5831 28.1346 33.527C28.1473 33.4709 28.1815 33.422 28.2299 33.3909L28.7771 33.05C28.8106 33.0301 28.8487 33.0194 28.8877 33.0188C28.9266 33.0183 28.965 33.0279 28.999 33.0468C29.0331 33.0658 29.0616 33.0933 29.0816 33.1266C29.1017 33.16 29.1127 33.1981 29.1135 33.237L29.1133 35.8483Z" fill="#FAFAFA"/>
<path d="M30.6939 35.8483C30.6939 35.9066 30.6707 35.9625 30.6295 36.0038C30.5883 36.045 30.5324 36.0681 30.4741 36.0681C30.4158 36.0681 30.3598 36.045 30.3186 36.0038C30.2774 35.9625 30.2542 35.9066 30.2542 35.8483V33.6328L30.0412 33.7646C29.9916 33.7952 29.9319 33.8049 29.8752 33.7915C29.8185 33.7781 29.7695 33.7427 29.7389 33.6932C29.7083 33.6436 29.6986 33.5839 29.712 33.5272C29.7254 33.4705 29.7608 33.4215 29.8103 33.3909L30.3575 33.05C30.391 33.0301 30.4291 33.0194 30.468 33.0188C30.507 33.0183 30.5454 33.0279 30.5794 33.0468C30.6135 33.0658 30.642 33.0933 30.662 33.1266C30.6821 33.16 30.6931 33.1981 30.6939 33.237V35.8483Z" fill="#FAFAFA"/>
<path d="M28.5 33.332H30.7917" stroke="#191919" stroke-width="0.343756" stroke-linecap="round" stroke-linejoin="round"/>
<path d="M29.646 34.4792V32.1875" stroke="#191919" stroke-width="0.343756" stroke-linecap="round" stroke-linejoin="round"/>
<path d="M50.531 28.8673C50.8999 28.8668 51.2536 28.7201 51.5144 28.4593C51.7753 28.1984 51.922 27.8448 51.9224 27.4759V26.9944C51.0023 27.1677 50.0572 27.161 49.1396 26.9746V27.4759C49.1401 27.8448 49.2868 28.1984 49.5477 28.4593C49.8085 28.7201 50.1621 28.8668 50.531 28.8673Z" fill="#FAFAFA"/>
<path d="M56.2309 31.6215L55.09 29.2233C54.8748 28.7743 54.4957 28.425 54.0307 28.2472L53.16 27.9154C52.8154 27.8135 52.564 27.4088 52.3619 27.1328V27.4102C52.3702 27.666 52.325 27.9208 52.2292 28.1582C52.1335 28.3956 51.9894 28.6104 51.806 28.789C51.6226 28.9675 51.4039 29.1059 51.1641 29.1953C50.9242 29.2846 50.6683 29.323 50.4128 29.3079C50.1573 29.2928 49.9077 29.2247 49.68 29.1077C49.4523 28.9908 49.2515 28.8277 49.0903 28.6288C48.9292 28.4299 48.8113 28.1997 48.7441 27.9526C48.6769 27.7056 48.662 27.4473 48.7003 27.1942C48.5497 27.4837 48.3035 27.7121 48.0035 27.8404L47.1878 28.1329C46.7197 28.2985 46.3338 28.6388 46.1108 29.0824L44.8312 31.6215C44.8135 31.66 44.8116 31.7039 44.826 31.7438C44.8404 31.7837 44.8699 31.8163 44.9082 31.8346L46.6125 32.6096C46.6445 32.6242 46.6795 32.6309 46.7147 32.6291C46.7498 32.6274 46.784 32.6172 46.8144 32.5995C46.8448 32.5818 46.8705 32.557 46.8894 32.5273C46.9082 32.4976 46.9196 32.4638 46.9227 32.4287L46.9854 31.7144C46.9919 31.6571 47.0206 31.6046 47.0652 31.5681C47.1099 31.5316 47.167 31.514 47.2245 31.519C47.282 31.524 47.3352 31.5513 47.3728 31.595C47.4105 31.6387 47.4296 31.6954 47.426 31.7529L46.8954 37.7851C46.8951 37.8279 46.9037 37.8703 46.9206 37.9097C46.9374 37.9491 46.9621 37.9847 46.9932 38.0141C47.0243 38.0436 47.0611 38.0663 47.1014 38.081C47.1416 38.0957 47.1845 38.1019 47.2272 38.0994H53.8525C53.8955 38.1019 53.9385 38.0956 53.9789 38.0808C54.0193 38.066 54.0562 38.0431 54.0873 38.0133C54.1185 37.9836 54.1432 37.9479 54.1599 37.9082C54.1766 37.8685 54.1849 37.8259 54.1844 37.7828C54.0905 36.7762 53.7019 32.671 53.6157 31.7542C53.6116 31.6968 53.6301 31.6401 53.6673 31.5962C53.7044 31.5523 53.7573 31.5247 53.8146 31.5193C53.8718 31.5139 53.9289 31.5311 53.9737 31.5673C54.0184 31.6035 54.0471 31.6558 54.0537 31.7129L54.1205 32.42C54.1238 32.4547 54.1353 32.4882 54.1541 32.5176C54.1729 32.547 54.1984 32.5715 54.2285 32.5891C54.2587 32.6067 54.2925 32.6168 54.3274 32.6187C54.3622 32.6206 54.397 32.6142 54.4289 32.6L56.154 31.8303C56.1917 31.8125 56.2209 31.7806 56.2353 31.7415C56.2496 31.7024 56.2481 31.6595 56.2309 31.6215ZM50.1133 35.8483C50.1115 35.9054 50.0876 35.9596 50.0466 35.9994C50.0056 36.0392 49.9507 36.0614 49.8936 36.0614C49.8364 36.0614 49.7815 36.0392 49.7405 35.9994C49.6995 35.9596 49.6756 35.9054 49.6739 35.8483V33.6328L49.4606 33.7646C49.411 33.7939 49.352 33.8026 49.2962 33.7888C49.2403 33.775 49.1921 33.7399 49.1619 33.6909C49.1317 33.642 49.1219 33.5831 49.1346 33.527C49.1473 33.4709 49.1815 33.422 49.2299 33.3909L49.7771 33.05C49.8106 33.0301 49.8487 33.0194 49.8877 33.0188C49.9266 33.0183 49.965 33.0279 49.999 33.0468C50.0331 33.0658 50.0616 33.0933 50.0816 33.1266C50.1017 33.16 50.1127 33.1981 50.1135 33.237L50.1133 35.8483ZM51.6939 35.8483C51.6939 35.9066 51.6707 35.9625 51.6295 36.0038C51.5883 36.045 51.5324 36.0681 51.4741 36.0681C51.4158 36.0681 51.3598 36.045 51.3186 36.0038C51.2774 35.9625 51.2542 35.9066 51.2542 35.8483V33.6328L51.0412 33.7646C50.9916 33.7952 50.9319 33.8049 50.8752 33.7915C50.8185 33.7781 50.7695 33.7427 50.7389 33.6932C50.7083 33.6436 50.6986 33.5839 50.712 33.5272C50.7254 33.4705 50.7608 33.4215 50.8103 33.3909L51.3575 33.05C51.391 33.0301 51.4291 33.0194 51.468 33.0188C51.507 33.0183 51.5454 33.0279 51.5794 33.0468C51.6135 33.0658 51.642 33.0933 51.662 33.1266C51.6821 33.16 51.6931 33.1981 51.6939 33.237V35.8483Z" fill="#FAFAFA"/>
<path d="M50.1133 35.8483C50.1115 35.9054 50.0876 35.9596 50.0466 35.9994C50.0056 36.0392 49.9507 36.0614 49.8936 36.0614C49.8364 36.0614 49.7815 36.0392 49.7405 35.9994C49.6995 35.9596 49.6756 35.9054 49.6739 35.8483V33.6328L49.4606 33.7646C49.411 33.7939 49.352 33.8026 49.2962 33.7888C49.2403 33.775 49.1921 33.7399 49.1619 33.6909C49.1317 33.642 49.1219 33.5831 49.1346 33.527C49.1473 33.4709 49.1815 33.422 49.2299 33.3909L49.7771 33.05C49.8106 33.0301 49.8487 33.0194 49.8877 33.0188C49.9266 33.0183 49.965 33.0279 49.999 33.0468C50.0331 33.0658 50.0616 33.0933 50.0816 33.1266C50.1017 33.16 50.1127 33.1981 50.1135 33.237L50.1133 35.8483Z" fill="#FAFAFA"/>
<path d="M51.6939 35.8483C51.6939 35.9066 51.6707 35.9625 51.6295 36.0038C51.5883 36.045 51.5324 36.0681 51.4741 36.0681C51.4158 36.0681 51.3598 36.045 51.3186 36.0038C51.2774 35.9625 51.2542 35.9066 51.2542 35.8483V33.6328L51.0412 33.7646C50.9916 33.7952 50.9319 33.8049 50.8752 33.7915C50.8185 33.7781 50.7695 33.7427 50.7389 33.6932C50.7083 33.6436 50.6986 33.5839 50.712 33.5272C50.7254 33.4705 50.7608 33.4215 50.8103 33.3909L51.3575 33.05C51.391 33.0301 51.4291 33.0194 51.468 33.0188C51.507 33.0183 51.5454 33.0279 51.5794 33.0468C51.6135 33.0658 51.642 33.0933 51.662 33.1266C51.6821 33.16 51.6931 33.1981 51.6939 33.237V35.8483Z" fill="#FAFAFA"/>
<path d="M49.5 33.332H51.7917" stroke="#191919" stroke-width="0.343756" stroke-linecap="round" stroke-linejoin="round"/>
<path d="M50.646 34.4792V32.1875" stroke="#191919" stroke-width="0.343756" stroke-linecap="round" stroke-linejoin="round"/>
<path d="M40.5271 4.99618C40.896 4.99575 41.2497 4.84902 41.5105 4.58818C41.7714 4.32734 41.9181 3.97368 41.9185 3.6048V3.12331C40.9984 3.29665 40.0533 3.28993 39.1357 3.10352V3.6048C39.1362 3.97368 39.2829 4.32734 39.5437 4.58818C39.8046 4.84902 40.1582 4.99575 40.5271 4.99618Z" fill="#FAFAFA"/>
<path d="M46.227 7.7504L45.0861 5.35217C44.8709 4.90324 44.4918 4.55392 44.0268 4.37613L43.1561 4.04426C42.8115 3.94241 42.5601 3.53767 42.358 3.26172V3.5391C42.3663 3.79494 42.3211 4.04969 42.2253 4.28709C42.1296 4.52449 41.9855 4.73932 41.8021 4.91789C41.6187 5.09646 41.4 5.23483 41.1602 5.32418C40.9203 5.41353 40.6644 5.45189 40.4089 5.43682C40.1534 5.42175 39.9038 5.35358 39.6761 5.23666C39.4484 5.11973 39.2475 4.95662 39.0864 4.75774C38.9253 4.55885 38.8074 4.32856 38.7402 4.08155C38.673 3.83455 38.6581 3.57625 38.6964 3.32315C38.5458 3.61265 38.2996 3.84101 37.9995 3.96935L37.1839 4.26184C36.7158 4.42743 36.3299 4.76766 36.1069 5.21133L34.8273 7.7504C34.8096 7.7889 34.8077 7.83286 34.8221 7.87274C34.8365 7.91262 34.866 7.94522 34.9043 7.96349L36.6086 8.73848C36.6406 8.75308 36.6756 8.75979 36.7108 8.75804C36.7459 8.75629 36.7801 8.74613 36.8105 8.72841C36.8409 8.71069 36.8666 8.68593 36.8855 8.65621C36.9043 8.6265 36.9157 8.59269 36.9188 8.55764L36.9815 7.84327C36.988 7.78597 37.0167 7.73348 37.0613 7.69699C37.106 7.6605 37.1631 7.64289 37.2206 7.64792C37.278 7.65295 37.3313 7.68022 37.3689 7.72392C37.4066 7.76761 37.4257 7.82428 37.4221 7.88185L36.8915 13.914C36.8912 13.9568 36.8998 13.9992 36.9166 14.0386C36.9335 14.078 36.9582 14.1136 36.9893 14.143C37.0204 14.1725 37.0572 14.1952 37.0975 14.2099C37.1377 14.2246 37.1806 14.2308 37.2233 14.2283H43.8486C43.8915 14.2309 43.9346 14.2245 43.975 14.2097C44.0154 14.1949 44.0523 14.172 44.0834 14.1423C44.1146 14.1126 44.1393 14.0768 44.156 14.0371C44.1726 13.9974 44.181 13.9548 44.1805 13.9117C44.0866 12.9051 43.698 8.79991 43.6118 7.88307C43.6077 7.8257 43.6262 7.76899 43.6634 7.72508C43.7005 7.68118 43.7534 7.65357 43.8107 7.64818C43.8679 7.64279 43.925 7.66004 43.9697 7.69624C44.0145 7.73244 44.0432 7.78471 44.0498 7.84184L44.1166 8.54886C44.1199 8.5836 44.1314 8.61706 44.1502 8.64647C44.169 8.67588 44.1945 8.70039 44.2246 8.71798C44.2547 8.73557 44.2886 8.74574 44.3235 8.74763C44.3583 8.74953 44.3931 8.7431 44.425 8.72889L46.1501 7.9592C46.1878 7.94143 46.217 7.90955 46.2313 7.87045C46.2457 7.83136 46.2442 7.78837 46.227 7.7504ZM40.1094 11.9772C40.1076 12.0343 40.0837 12.0885 40.0427 12.1283C40.0017 12.1681 39.9468 12.1903 39.8897 12.1903C39.8325 12.1903 39.7776 12.1681 39.7366 12.1283C39.6956 12.0885 39.6717 12.0343 39.6699 11.9772V9.76166L39.4567 9.89351C39.4071 9.9228 39.3481 9.93148 39.2923 9.9177C39.2364 9.90392 39.1882 9.86878 39.158 9.81982C39.1277 9.77086 39.118 9.712 39.1307 9.6559C39.1434 9.5998 39.1776 9.55092 39.226 9.51979L39.7732 9.17894C39.8067 9.15905 39.8448 9.14829 39.8838 9.14773C39.9227 9.14717 39.9611 9.15683 39.9951 9.17575C40.0292 9.19467 40.0577 9.22218 40.0777 9.25555C40.0978 9.28891 40.1088 9.32696 40.1096 9.3659L40.1094 11.9772ZM41.69 11.9772C41.69 12.0355 41.6668 12.0914 41.6256 12.1327C41.5844 12.1739 41.5285 12.197 41.4702 12.197C41.4119 12.197 41.3559 12.1739 41.3147 12.1327C41.2735 12.0914 41.2503 12.0355 41.2503 11.9772V9.76166L41.0372 9.89351C40.9877 9.92412 40.928 9.93379 40.8713 9.9204C40.8146 9.907 40.7656 9.87163 40.735 9.82207C40.7044 9.77252 40.6947 9.71283 40.7081 9.65614C40.7215 9.59945 40.7568 9.55041 40.8064 9.51979L41.3536 9.17894C41.3871 9.15905 41.4252 9.14829 41.4641 9.14773C41.5031 9.14717 41.5415 9.15683 41.5755 9.17575C41.6096 9.19467 41.638 9.22218 41.6581 9.25555C41.6782 9.28891 41.6892 9.32696 41.69 9.3659V11.9772Z" fill="#FAFAFA"/>
<path d="M40.1094 11.9772C40.1076 12.0343 40.0837 12.0885 40.0427 12.1283C40.0017 12.1681 39.9468 12.1903 39.8897 12.1903C39.8325 12.1903 39.7776 12.1681 39.7366 12.1283C39.6956 12.0885 39.6717 12.0343 39.6699 11.9772V9.76166L39.4567 9.89351C39.4071 9.9228 39.3481 9.93148 39.2923 9.9177C39.2364 9.90392 39.1882 9.86878 39.158 9.81982C39.1277 9.77086 39.118 9.712 39.1307 9.6559C39.1434 9.5998 39.1776 9.55092 39.226 9.51979L39.7732 9.17894C39.8067 9.15905 39.8448 9.14829 39.8838 9.14773C39.9227 9.14717 39.9611 9.15683 39.9951 9.17575C40.0292 9.19467 40.0577 9.22218 40.0777 9.25555C40.0978 9.28891 40.1088 9.32696 40.1096 9.3659L40.1094 11.9772Z" fill="#FAFAFA"/>
<path d="M41.69 11.9772C41.69 12.0355 41.6668 12.0914 41.6256 12.1327C41.5844 12.1739 41.5285 12.197 41.4702 12.197C41.4119 12.197 41.3559 12.1739 41.3147 12.1327C41.2735 12.0914 41.2503 12.0355 41.2503 11.9772V9.76166L41.0372 9.89351C40.9877 9.92412 40.928 9.93379 40.8713 9.9204C40.8146 9.907 40.7656 9.87163 40.735 9.82207C40.7044 9.77252 40.6947 9.71283 40.7081 9.65614C40.7215 9.59945 40.7568 9.55041 40.8064 9.51979L41.3536 9.17894C41.3871 9.15905 41.4252 9.14829 41.4641 9.14773C41.5031 9.14717 41.5415 9.15683 41.5755 9.17575C41.6096 9.19467 41.638 9.22218 41.6581 9.25555C41.6782 9.28891 41.6892 9.32696 41.69 9.3659V11.9772Z" fill="#FAFAFA"/>
<path d="M39.4961 9.46094H41.7878" stroke="#191919" stroke-width="0.343756" stroke-linecap="round" stroke-linejoin="round"/>
<path d="M40.6421 10.6081V8.31641" stroke="#191919" stroke-width="0.343756" stroke-linecap="round" stroke-linejoin="round"/>
<defs>
<clipPath id="clip0_8758_17876">
<rect width="13.0627" height="13.0627" fill="white" transform="translate(2.0166 43)"/>
</clipPath>
<clipPath id="clip1_8758_17876">
<rect width="13.0627" height="13.0627" fill="white" transform="translate(65.0793 43)"/>
</clipPath>
<clipPath id="clip2_8758_17876">
<rect width="13.0627" height="13.0627" fill="white" transform="translate(51.0981 49)"/>
</clipPath>
<clipPath id="clip3_8758_17876">
<rect width="13.0627" height="13.0627" fill="white" transform="translate(16.0981 49)"/>
</clipPath>
<clipPath id="clip4_8758_17876">
<rect width="13.0627" height="13.0627" fill="white" transform="translate(34.0981 50)"/>
</clipPath>
<clipPath id="clip5_8758_17876">
<rect width="13.0627" height="13.0627" fill="white" transform="translate(2.09814 21)"/>
</clipPath>
</defs>
</svg>
